<svg width="12" height="10" viewBox="0 0 12 10" fill="none" xmlns="http://www.w3.org/2000/svg">
<path fill-rule="evenodd" clip-rule="evenodd" d="M10.9377 1.00817C10.2743 1.03167 10.1593 1.00322 9.80387 0.709539C9.80387 0.709539 9.65022 0.62475 9.54274 0.623312C9.43511 0.621873 9.27903 0.702747 9.27903 0.702747C9.24348 0.726241 8.71032 0.620518 8.09423 0.456059C7.43075 0.279853 6.66063 0.150635 6.22225 0.150635C5.55877 0.150635 5.34551 0.221117 4.59909 0.620518C4.12517 0.878954 3.61571 1.0904 3.48538 1.0904C3.23657 1.0904 3.23657 1.07865 3.44984 0.855459C3.61571 0.679253 3.6394 0.585277 3.53277 0.479553C3.43799 0.385577 3.27212 0.432565 2.90483 0.667506C2.66146 0.832296 2.54002 0.914525 2.48836 1.02794C2.43691 1.14091 2.45468 1.28481 2.49015 1.57203C2.56124 2.05366 2.5257 2.20637 2.27689 2.58228C2.11102 2.82897 1.85036 3.45156 1.67265 3.95669C1.50677 4.47356 1.32905 4.94344 1.26981 5.01392C1.21057 5.08441 1.12764 5.42507 1.08025 5.77748C1.02101 6.20038 0.961769 6.35309 0.890681 6.24737C0.831441 6.15339 0.784049 5.96544 0.784049 5.82447C0.784049 5.5308 0.570787 5.42507 0.286436 5.58953C0.108717 5.707 0.120564 5.76574 0.381219 6.36484C0.54709 6.71725 0.760354 7.11665 0.878833 7.23412C1.05655 7.43382 1.08025 7.43382 1.22242 7.24587C1.30536 7.1284 1.37645 6.94044 1.37645 6.83472C1.37645 6.36484 1.62525 6.5293 1.96884 7.22237C2.17026 7.63352 2.53755 8.16214 2.7745 8.40883C3.18918 8.83172 4.67018 9.66577 5.00192 9.66577C5.07521 9.66577 5.12194 9.68276 5.14486 9.7099C5.29467 9.75457 5.53282 9.821 5.71276 9.84955C6.04208 9.9018 6.56585 9.88896 6.56585 9.88896C8.49706 9.93595 10.3098 9.33685 11.3406 8.30311C11.6249 8.02117 11.8263 7.78623 11.7789 7.78623C11.7434 7.78623 11.4235 7.91545 11.0799 8.06816C9.91881 8.57329 7.83358 8.9257 6.88574 8.79648L6.35258 8.71425L5.90236 8.60853C5.71279 8.60853 4.81235 8.16214 4.5517 7.9272C4.11332 7.55129 4.35028 7.19888 5.03746 7.19888C5.32181 7.19888 5.3692 7.15189 5.35736 6.86996C5.34551 6.43532 5.16779 6.27086 4.85974 6.38833C4.38582 6.56454 4.32658 6.21212 4.69387 5.42507C4.8242 5.14314 4.93083 4.7085 4.93083 4.46181C4.93083 3.98018 4.96637 3.96843 5.51138 4.15639C6.02084 4.33259 6.47106 4.21512 6.41182 3.9097C6.34074 3.52205 6.2341 3.43982 5.89051 3.5103C5.62986 3.56903 5.52323 3.52205 5.3692 3.27536C5.16779 2.98168 5.17964 2.96993 5.45214 2.79373C5.64171 2.66451 5.97345 2.61752 6.54215 2.62927C6.99237 2.64101 7.73879 2.60577 8.18901 2.53529C8.65108 2.46481 9.18424 2.40607 9.3975 2.39433L9.77664 2.38258L10.1439 2.27686L10.5941 2.35909C11.5064 2.5118 11.6131 2.47656 11.7316 2.01842C11.7908 1.78348 11.8026 1.45456 11.7552 1.2901C11.6842 0.996424 11.6486 0.984678 10.9377 1.00817ZM6.35258 1.0904L6.64878 1.18438L6.32889 1.19612C6.13932 1.20787 5.94975 1.30185 5.87866 1.44281C5.80758 1.58378 5.62986 1.67775 5.46399 1.67775C5.27442 1.67775 5.16779 1.74824 5.16779 1.86571C5.16779 1.95968 5.01377 2.10065 4.81235 2.15938C4.58724 2.24161 4.45691 2.37083 4.45691 2.5118C4.45691 2.62927 4.35028 2.78198 4.21995 2.85246C4.08963 2.92294 3.98299 3.05216 3.98299 3.14614C3.98299 3.32235 3.9356 3.42807 3.58016 4.12115C3.46168 4.32085 3.41429 4.54404 3.44984 4.61452C3.48538 4.67326 3.43799 4.88471 3.33136 5.07266C3.22473 5.29585 3.20103 5.44857 3.27212 5.49555C3.34321 5.5308 3.3906 5.75399 3.3906 5.97718C3.3906 6.23562 3.34321 6.36484 3.26027 6.31785C3.20103 6.27086 3.15364 6.11815 3.16549 5.98893C3.17733 5.84797 3.14179 5.63652 3.0944 5.51905C3.04701 5.38983 3.0707 5.19013 3.15364 5.02567C3.23657 4.87296 3.26027 4.69675 3.22473 4.62627C3.17733 4.55579 3.22473 4.37958 3.31951 4.23862C3.42614 4.09765 3.50908 3.86271 3.50908 3.71C3.50908 3.56903 3.56832 3.41632 3.6394 3.38108C3.69864 3.33409 3.80528 3.18138 3.87636 3.05216C3.9356 2.9112 4.03039 2.7115 4.08963 2.61752C4.14887 2.52354 4.2318 2.34734 4.26735 2.22987C4.30289 2.12414 4.44506 2.03017 4.57539 2.03017C4.72942 2.03017 4.85974 1.9127 4.93083 1.73649C5.01377 1.5133 5.13225 1.44281 5.4166 1.44281C5.90236 1.44281 5.81943 1.16088 5.30996 1.11389C5.04931 1.0904 4.90714 1.13739 4.8242 1.3136C4.75311 1.44281 4.57539 1.56028 4.43322 1.58378C4.27919 1.60727 4.17256 1.6895 4.19626 1.77173C4.20811 1.85396 4.06593 1.98318 3.86452 2.04191C3.6394 2.12414 3.50908 2.25336 3.50908 2.39433C3.50908 2.5118 3.40245 2.66451 3.27212 2.73499C3.14179 2.80547 3.03516 2.95819 3.03516 3.0874C3.03516 3.20487 2.97592 3.34584 2.90483 3.38108C2.84559 3.42807 2.81005 3.52205 2.83374 3.59253C2.85744 3.67476 2.81005 3.87446 2.72711 4.05066C2.63233 4.22687 2.59679 4.45006 2.63233 4.54404C2.67972 4.64976 2.64418 4.80248 2.57309 4.89645C2.47831 5.01392 2.46646 5.26061 2.53755 5.71875C2.63233 6.28261 2.62048 6.35309 2.47831 6.23562C2.38352 6.16514 2.33613 6.00068 2.37167 5.87146C2.39537 5.74224 2.37167 5.54254 2.28874 5.42507C2.19395 5.27236 2.19396 5.14314 2.31243 4.93169C2.39537 4.76723 2.43091 4.57928 2.39537 4.5088C2.34798 4.43832 2.38352 4.23862 2.47831 4.06241C2.56124 3.88621 2.62048 3.65126 2.59679 3.54554C2.57309 3.43982 2.63233 3.2871 2.73896 3.20487C2.83374 3.12265 2.91668 2.98168 2.91668 2.8877C2.91668 2.80547 2.99962 2.69975 3.0944 2.66451C3.18918 2.61752 3.27212 2.47656 3.27212 2.32384C3.27212 2.12414 3.3669 2.01842 3.62756 1.92444C3.87636 1.84221 3.98299 1.72474 3.98299 1.56028C3.98299 1.33709 4.03039 1.3136 4.33843 1.38408C4.64648 1.45456 4.69387 1.43107 4.69387 1.21962C4.69387 0.996424 4.76496 0.97293 5.38105 0.984677C5.74834 0.996424 6.18671 1.04341 6.35258 1.0904ZM3.65125 8.13865C3.76973 8.13865 3.9356 8.26786 4.00669 8.44407C4.10147 8.64377 4.21995 8.726 4.36213 8.69076C4.5043 8.64377 4.64648 8.726 4.76496 8.91395C4.90714 9.11365 5.02561 9.17239 5.21518 9.1254C5.3692 9.09016 5.53507 9.1254 5.60616 9.21938C5.70095 9.3251 6.03269 9.36034 6.73172 9.3486C7.26487 9.3251 7.85727 9.31335 8.02314 9.31335C8.20086 9.31335 8.40228 9.23112 8.48521 9.13715C8.65108 8.93745 9.55153 8.89046 9.55153 9.07841C9.55153 9.27811 9.23163 9.3486 8.98283 9.20763C8.80511 9.11365 8.71032 9.13715 8.54445 9.31335C8.40228 9.47781 8.24825 9.5248 8.04684 9.47781C7.89282 9.43082 7.6914 9.46607 7.60847 9.5483C7.47814 9.64227 7.37151 9.65402 7.19379 9.5483C7.01607 9.45432 6.87389 9.45432 6.69617 9.56004C6.51845 9.64227 6.41182 9.65402 6.31704 9.56004C6.24595 9.48956 6.12747 9.47781 5.99714 9.5483C5.84312 9.63052 5.73649 9.59528 5.58247 9.43082C5.40475 9.24287 5.33366 9.21938 5.19148 9.33685C5.04931 9.45432 4.97822 9.41908 4.76496 9.17239C4.58724 8.94919 4.44506 8.86697 4.26735 8.91395C4.08963 8.96094 3.99484 8.90221 3.88821 8.67901C3.81712 8.51455 3.67495 8.37359 3.58016 8.37359C3.3906 8.37359 3.15364 8.02118 3.16549 7.76274C3.16549 7.68051 3.22473 7.7275 3.29581 7.86846C3.3669 8.02118 3.52092 8.13865 3.65125 8.13865Z" fill="#0A463C"/>
</svg>
