<svg width="12" height="10" viewBox="0 0 12 10" fill="none" xmlns="http://www.w3.org/2000/svg">
<mask id="path-1-inside-1_24_26715" fill="white">
<path fill-rule="evenodd" clip-rule="evenodd" d="M10.9905 1.00817C10.327 1.03167 10.212 1.00322 9.85661 0.709539C9.85661 0.709539 9.70296 0.62475 9.59547 0.623312C9.48784 0.621873 9.33176 0.702747 9.33176 0.702747C9.29622 0.726241 8.76306 0.620518 8.14697 0.456059C7.48348 0.279853 6.71336 0.150635 6.27499 0.150635C5.6115 0.150635 5.39824 0.221117 4.65182 0.620518C4.1779 0.878954 3.66844 1.0904 3.53812 1.0904C3.28931 1.0904 3.28931 1.07865 3.50257 0.855459C3.66844 0.679253 3.69214 0.585277 3.58551 0.479553C3.49072 0.385577 3.32485 0.432565 2.95757 0.667506C2.71419 0.832296 2.59275 0.914525 2.5411 1.02794C2.48964 1.14091 2.50742 1.28481 2.54289 1.57203C2.61398 2.05366 2.57843 2.20637 2.32963 2.58228C2.16375 2.82897 1.9031 3.45156 1.72538 3.95669C1.55951 4.47356 1.38179 4.94344 1.32255 5.01392C1.26331 5.08441 1.18037 5.42507 1.13298 5.77748C1.07374 6.20038 1.0145 6.35309 0.943415 6.24737C0.884176 6.15339 0.836784 5.96544 0.836784 5.82447C0.836784 5.5308 0.623521 5.42507 0.33917 5.58953C0.161451 5.707 0.173299 5.76574 0.433953 6.36484C0.599825 6.71725 0.813088 7.11665 0.931567 7.23412C1.10929 7.43382 1.13298 7.43382 1.27516 7.24587C1.35809 7.1284 1.42918 6.94044 1.42918 6.83472C1.42918 6.36484 1.67799 6.5293 2.02158 7.22237C2.22299 7.63352 2.59028 8.16214 2.82724 8.40883C3.24192 8.83172 4.72291 9.66577 5.05465 9.66577C5.12795 9.66577 5.17467 9.68276 5.19759 9.7099C5.3474 9.75457 5.58555 9.821 5.7655 9.84955C6.09481 9.9018 6.61858 9.88896 6.61858 9.88896C8.5498 9.93595 10.3625 9.33685 11.3933 8.30311C11.6777 8.02117 11.8791 7.78623 11.8317 7.78623C11.7961 7.78623 11.4762 7.91545 11.1326 8.06816C9.97155 8.57329 7.88631 8.9257 6.93848 8.79648L6.40532 8.71425L5.9551 8.60853C5.76553 8.60853 4.86509 8.16214 4.60443 7.9272C4.16606 7.55129 4.40301 7.19888 5.0902 7.19888C5.37455 7.19888 5.42194 7.15189 5.41009 6.86996C5.39824 6.43532 5.22052 6.27086 4.91248 6.38833C4.43856 6.56454 4.37932 6.21212 4.74661 5.42507C4.87693 5.14314 4.98356 4.7085 4.98356 4.46181C4.98356 3.98018 5.01911 3.96843 5.56411 4.15639C6.07357 4.33259 6.5238 4.21512 6.46456 3.9097C6.39347 3.52205 6.28684 3.43982 5.94325 3.5103C5.68259 3.56903 5.57596 3.52205 5.42194 3.27536C5.22052 2.98168 5.23237 2.96993 5.50487 2.79373C5.69444 2.66451 6.02618 2.61752 6.59489 2.62927C7.04511 2.64101 7.79153 2.60577 8.24175 2.53529C8.70382 2.46481 9.23698 2.40607 9.45024 2.39433L9.82937 2.38258L10.1967 2.27686L10.6469 2.35909C11.5592 2.5118 11.6658 2.47656 11.7843 2.01842C11.8435 1.78348 11.8554 1.45456 11.808 1.2901C11.7369 0.996424 11.7013 0.984678 10.9905 1.00817ZM6.40532 1.0904L6.70152 1.18438L6.38162 1.19612C6.19206 1.20787 6.00249 1.30185 5.9314 1.44281C5.86031 1.58378 5.68259 1.67775 5.51672 1.67775C5.32715 1.67775 5.22052 1.74824 5.22052 1.86571C5.22052 1.95968 5.0665 2.10065 4.86509 2.15938C4.63997 2.24161 4.50965 2.37083 4.50965 2.5118C4.50965 2.62927 4.40302 2.78198 4.27269 2.85246C4.14236 2.92294 4.03573 3.05216 4.03573 3.14614C4.03573 3.32235 3.98834 3.42807 3.6329 4.12115C3.51442 4.32085 3.46703 4.54404 3.50257 4.61452C3.53812 4.67326 3.49072 4.88471 3.38409 5.07266C3.27746 5.29585 3.25376 5.44857 3.32485 5.49555C3.39594 5.5308 3.44333 5.75399 3.44333 5.97718C3.44333 6.23562 3.39594 6.36484 3.313 6.31785C3.25377 6.27086 3.20637 6.11815 3.21822 5.98893C3.23007 5.84797 3.19453 5.63652 3.14713 5.51905C3.09974 5.38983 3.12344 5.19013 3.20637 5.02567C3.28931 4.87296 3.313 4.69675 3.27746 4.62627C3.23007 4.55579 3.27746 4.37958 3.37224 4.23862C3.47888 4.09765 3.56181 3.86271 3.56181 3.71C3.56181 3.56903 3.62105 3.41632 3.69214 3.38108C3.75138 3.33409 3.85801 3.18138 3.9291 3.05216C3.98834 2.9112 4.08312 2.7115 4.14236 2.61752C4.2016 2.52354 4.28454 2.34734 4.32008 2.22987C4.35562 2.12414 4.4978 2.03017 4.62813 2.03017C4.78215 2.03017 4.91248 1.9127 4.98356 1.73649C5.0665 1.5133 5.18498 1.44281 5.46933 1.44281C5.9551 1.44281 5.87216 1.16088 5.3627 1.11389C5.10204 1.0904 4.95987 1.13739 4.87693 1.3136C4.80585 1.44281 4.62813 1.56028 4.48595 1.58378C4.33193 1.60727 4.2253 1.6895 4.24899 1.77173C4.26084 1.85396 4.11866 1.98318 3.91725 2.04191C3.69214 2.12414 3.56181 2.25336 3.56181 2.39433C3.56181 2.5118 3.45518 2.66451 3.32485 2.73499C3.19453 2.80547 3.08789 2.95819 3.08789 3.0874C3.08789 3.20487 3.02865 3.34584 2.95757 3.38108C2.89833 3.42807 2.86278 3.52205 2.88648 3.59253C2.91017 3.67476 2.86278 3.87446 2.77985 4.05066C2.68506 4.22687 2.64952 4.45006 2.68506 4.54404C2.73246 4.64976 2.69691 4.80248 2.62582 4.89645C2.53104 5.01392 2.51919 5.26061 2.59028 5.71875C2.68506 6.28261 2.67322 6.35309 2.53104 6.23562C2.43626 6.16514 2.38887 6.00068 2.42441 5.87146C2.4481 5.74224 2.42441 5.54254 2.34147 5.42507C2.24669 5.27236 2.24669 5.14314 2.36517 4.93169C2.4481 4.76723 2.48365 4.57928 2.4481 4.5088C2.40071 4.43832 2.43626 4.23862 2.53104 4.06241C2.61398 3.88621 2.67322 3.65126 2.64952 3.54554C2.62582 3.43982 2.68506 3.2871 2.79169 3.20487C2.88648 3.12265 2.96941 2.98168 2.96941 2.8877C2.96941 2.80547 3.05235 2.69975 3.14713 2.66451C3.24192 2.61752 3.32485 2.47656 3.32485 2.32384C3.32485 2.12414 3.41964 2.01842 3.68029 1.92444C3.9291 1.84221 4.03573 1.72474 4.03573 1.56028C4.03573 1.33709 4.08312 1.3136 4.39117 1.38408C4.69921 1.45456 4.74661 1.43107 4.74661 1.21962C4.74661 0.996424 4.81769 0.97293 5.43379 0.984677C5.80107 0.996424 6.23945 1.04341 6.40532 1.0904ZM3.70399 8.13865C3.82247 8.13865 3.98834 8.26786 4.05942 8.44407C4.15421 8.64377 4.27269 8.726 4.41486 8.69076C4.55704 8.64377 4.69921 8.726 4.81769 8.91395C4.95987 9.11365 5.07835 9.17239 5.26791 9.1254C5.42194 9.09016 5.58781 9.1254 5.6589 9.21938C5.75368 9.3251 6.08542 9.36034 6.78445 9.3486C7.31761 9.3251 7.91001 9.31335 8.07588 9.31335C8.2536 9.31335 8.45501 9.23112 8.53795 9.13715C8.70382 8.93745 9.60426 8.89046 9.60426 9.07841C9.60426 9.27811 9.28437 9.3486 9.03556 9.20763C8.85784 9.11365 8.76306 9.13715 8.59719 9.31335C8.45501 9.47781 8.30099 9.5248 8.09957 9.47781C7.94555 9.43082 7.74414 9.46607 7.6612 9.5483C7.53087 9.64227 7.42424 9.65402 7.24652 9.5483C7.0688 9.45432 6.92663 9.45432 6.74891 9.56004C6.57119 9.64227 6.46456 9.65402 6.36977 9.56004C6.29869 9.48956 6.18021 9.47781 6.04988 9.5483C5.89586 9.63052 5.78922 9.59528 5.6352 9.43082C5.45748 9.24287 5.38639 9.21938 5.24422 9.33685C5.10204 9.45432 5.03096 9.41908 4.81769 9.17239C4.63998 8.94919 4.4978 8.86697 4.32008 8.91395C4.14236 8.96094 4.04758 8.90221 3.94095 8.67901C3.86986 8.51455 3.72768 8.37359 3.6329 8.37359C3.44333 8.37359 3.20637 8.02118 3.21822 7.76274C3.21822 7.68051 3.27746 7.7275 3.34855 7.86846C3.41964 8.02118 3.57366 8.13865 3.70399 8.13865Z"/>
</mask>
<path d="M5.23238 9.59321C5.18998 9.58057 5.15479 9.5697 5.13026 9.56202C5.118 9.55818 5.10841 9.55513 5.10193 9.55307C5.09869 9.55203 5.09623 9.55124 5.0946 9.55071C5.09379 9.55045 5.09318 9.55026 5.09279 9.55013C5.09259 9.55007 5.09245 9.55002 5.09236 9.54999C5.09231 9.54998 5.09228 9.54997 5.09227 9.54996C5.09226 9.54996 5.09225 9.54996 5.09225 9.54996C5.09225 9.54996 5.09225 9.54996 5.09225 9.54996C5.09225 9.54996 5.09226 9.54996 5.09226 9.54996C5.09226 9.54996 5.09226 9.54996 5.05465 9.66577C5.01705 9.78157 5.01705 9.78158 5.01705 9.78158C5.01705 9.78158 5.01706 9.78158 5.01706 9.78158C5.01706 9.78158 5.01707 9.78158 5.01707 9.78158C5.01709 9.78159 5.0171 9.78159 5.01712 9.7816C5.01716 9.78161 5.01721 9.78163 5.01728 9.78165C5.01741 9.78169 5.0176 9.78175 5.01784 9.78183C5.01832 9.78199 5.01902 9.78221 5.01993 9.78251C5.02175 9.78309 5.0244 9.78394 5.02784 9.78504C5.03472 9.78724 5.04474 9.79042 5.05745 9.7944C5.08288 9.80237 5.11916 9.81357 5.1628 9.82658L5.23238 9.59321ZM6.61858 9.88896L6.62451 9.64522L6.61261 9.64551L6.61858 9.88896ZM11.3933 8.30311L11.2218 8.13017L11.2209 8.13116L11.3933 8.30311ZM11.1326 8.06816L11.2298 8.29148L11.2316 8.2907L11.1326 8.06816ZM6.93848 8.79648L6.90135 9.0372L6.90558 9.03777L6.93848 8.79648ZM6.40532 8.71425L6.34965 8.95133L6.35885 8.95349L6.3682 8.95493L6.40532 8.71425ZM10.1967 2.27686L10.2404 2.0373L10.1842 2.02703L10.1293 2.04284L10.1967 2.27686ZM10.6469 2.35909L10.6031 2.59867L10.6067 2.59927L10.6469 2.35909ZM11.7843 2.01842L12.0201 2.07939L12.0204 2.07796L11.7843 2.01842ZM11.808 1.2901L11.5711 1.34745L11.574 1.35753L11.808 1.2901ZM10.9905 1.00817L10.9824 0.764782L10.9819 0.764802L10.9905 1.00817ZM9.85661 0.709539L10.0117 0.521807L9.99418 0.507317L9.97427 0.496327L9.85661 0.709539ZM9.33176 0.702747L9.21972 0.486527L9.20825 0.49247L9.19748 0.499593L9.33176 0.702747ZM8.14697 0.456059L8.20977 0.220775L8.20947 0.220695L8.14697 0.456059ZM4.65182 0.620518L4.53693 0.405795L4.53523 0.406718L4.65182 0.620518ZM3.50257 0.855459L3.67865 1.0237L3.67989 1.02238L3.50257 0.855459ZM3.58551 0.479553L3.41405 0.652484H3.41405L3.58551 0.479553ZM2.95757 0.667506L2.8263 0.462293L2.82103 0.465861L2.95757 0.667506ZM2.54289 1.57203L2.30113 1.60189L2.30198 1.60759L2.54289 1.57203ZM2.32963 2.58228L2.53172 2.71816L2.5327 2.71669L2.32963 2.58228ZM1.72538 3.95669L1.49557 3.87583L1.4935 3.88228L1.72538 3.95669ZM1.13298 5.77748L1.37415 5.81127L1.37433 5.80994L1.13298 5.77748ZM0.943415 6.24737L0.737318 6.37728L0.741328 6.38325L0.943415 6.24737ZM0.33917 5.58953L0.217248 5.37873L0.210954 5.38237L0.204888 5.38638L0.33917 5.58953ZM0.433953 6.36484L0.210553 6.46203L0.213617 6.46854L0.433953 6.36484ZM0.931567 7.23412L1.11348 7.07223L1.10843 7.06655L1.10303 7.06119L0.931567 7.23412ZM1.27516 7.24587L1.46948 7.39286L1.4741 7.38632L1.27516 7.24587ZM2.02158 7.22237L2.24027 7.11524L2.23976 7.11421L2.02158 7.22237ZM2.82724 8.40883L2.6516 8.57754L2.65336 8.57933L2.82724 8.40883ZM6.40532 1.0904L6.479 0.858169L6.47169 0.856098L6.40532 1.0904ZM6.70152 1.18438L6.71045 1.42774L6.77516 0.952259L6.70152 1.18438ZM6.38162 1.19612L6.37268 0.952689L6.36656 0.953069L6.38162 1.19612ZM4.86509 2.15938L4.79691 1.9256L4.78914 1.92787L4.78153 1.93065L4.86509 2.15938ZM3.6329 4.12115L3.84234 4.2454L3.84616 4.23895L3.84959 4.23227L3.6329 4.12115ZM3.50257 4.61452L3.28513 4.72418L3.28936 4.73256L3.29423 4.7406L3.50257 4.61452ZM3.38409 5.07266L3.17228 4.95249L3.16805 4.95995L3.16436 4.96768L3.38409 5.07266ZM3.32485 5.49555L3.19057 5.69871L3.20316 5.70703L3.21669 5.71374L3.32485 5.49555ZM3.313 6.31785L3.16167 6.50864L3.1765 6.5204L3.19296 6.52973L3.313 6.31785ZM3.21822 5.98893L3.46073 6.01117L3.46089 6.00933L3.21822 5.98893ZM3.14713 5.51905L2.91839 5.60294L2.9213 5.61016L3.14713 5.51905ZM3.20637 5.02567L2.99227 4.9094L2.98893 4.91602L3.20637 5.02567ZM3.27746 4.62627L3.4949 4.51662L3.48804 4.50302L3.47955 4.49039L3.27746 4.62627ZM3.37224 4.23862L3.17773 4.09148L3.17016 4.10274L3.37224 4.23862ZM3.69214 3.38108L3.8003 3.59926L3.82333 3.58785L3.84347 3.57187L3.69214 3.38108ZM3.9291 3.05216L4.14246 3.16954L4.14864 3.15832L4.1536 3.14651L3.9291 3.05216ZM4.32008 2.22987L4.08915 2.15223L4.08699 2.15934L4.32008 2.22987ZM4.98356 1.73649L5.20949 1.82764L5.21184 1.82131L4.98356 1.73649ZM5.3627 1.11389L5.38506 0.871401L5.38456 0.871356L5.3627 1.11389ZM4.87693 1.3136L5.0903 1.43098L5.094 1.42425L5.09727 1.4173L4.87693 1.3136ZM4.48595 1.58378L4.52268 1.82453L4.52565 1.82404L4.48595 1.58378ZM4.24899 1.77173L4.49003 1.737L4.48764 1.72041L4.48299 1.7043L4.24899 1.77173ZM3.91725 2.04191L3.84907 1.80813L3.8413 1.8104L3.83369 1.81317L3.91725 2.04191ZM2.95757 3.38108L2.8494 3.1629L2.82637 3.17432L2.80623 3.19029L2.95757 3.38108ZM2.88648 3.59253L3.1207 3.52503L3.11731 3.51493L2.88648 3.59253ZM2.77985 4.05066L2.99462 4.16619L3.00018 4.15437L2.77985 4.05066ZM2.68506 4.54404L2.45729 4.63019L2.45987 4.637L2.46285 4.64365L2.68506 4.54404ZM2.62582 4.89645L2.81544 5.04945L2.82004 5.04337L2.62582 4.89645ZM2.59028 5.71875L2.34962 5.75609L2.35013 5.75912L2.59028 5.71875ZM2.53104 6.23562L2.68636 6.04764L2.67635 6.04021L2.53104 6.23562ZM2.42441 5.87146L2.65921 5.93605L2.66202 5.92582L2.66394 5.91538L2.42441 5.87146ZM2.34147 5.42507L2.13456 5.55349L2.13837 5.55963L2.14253 5.56552L2.34147 5.42507ZM2.36517 4.93169L2.57782 5.05085L2.58261 5.04135L2.36517 4.93169ZM2.4481 4.5088L2.66554 4.39915L2.65869 4.38555L2.65019 4.37292L2.4481 4.5088ZM2.53104 4.06241L2.74581 4.17794L2.75138 4.16612L2.53104 4.06241ZM2.79169 3.20487L2.94065 3.39804L2.95128 3.38882L2.79169 3.20487ZM3.14713 2.66451L3.232 2.89277L3.24391 2.88834L3.2553 2.88269L3.14713 2.66451ZM3.68029 1.92444L3.60385 1.69314L3.5977 1.69536L3.68029 1.92444ZM5.43379 0.984677L5.44157 0.741259L5.43843 0.741199L5.43379 0.984677ZM5.9551 8.60853L6.01077 8.37146L5.9833 8.36501H5.9551V8.60853ZM4.60443 7.9272L4.76752 7.74626L4.76295 7.74234L4.60443 7.9272ZM5.41009 6.86996L5.16663 6.8766L5.16678 6.88019L5.41009 6.86996ZM4.91248 6.38833L4.99735 6.6166L4.99925 6.61587L4.91248 6.38833ZM4.74661 5.42507L4.96728 5.52805L4.96765 5.52725L4.74661 5.42507ZM5.56411 4.15639L5.64371 3.92624L5.64351 3.92617L5.56411 4.15639ZM6.46456 3.9097L6.22502 3.95363L6.22549 3.95607L6.46456 3.9097ZM5.94325 3.5103L5.8943 3.2717L5.88972 3.27273L5.94325 3.5103ZM5.42194 3.27536L5.6287 3.14627L5.62277 3.13762L5.42194 3.27536ZM5.50487 2.79373L5.63714 2.99828L5.64203 2.99495L5.50487 2.79373ZM6.59489 2.62927L6.60124 2.38582L6.59992 2.3858L6.59489 2.62927ZM8.24175 2.53529L8.20503 2.29455L8.20408 2.2947L8.24175 2.53529ZM9.45024 2.39433L9.4427 2.15085L9.43684 2.15117L9.45024 2.39433ZM9.82937 2.38258L9.83692 2.62599L9.86741 2.62504L9.89674 2.6166L9.82937 2.38258ZM4.05942 8.44407L3.83359 8.53518L3.83631 8.54192L3.83942 8.54849L4.05942 8.44407ZM4.41486 8.69076L4.47345 8.92713L4.48246 8.92489L4.49128 8.92198L4.41486 8.69076ZM4.81769 8.91395L4.61136 9.04402L4.61931 9.05519L4.81769 8.91395ZM5.26791 9.1254L5.21359 8.88797L5.20933 8.88903L5.26791 9.1254ZM5.6589 9.21938L5.46468 9.36629L5.4708 9.37438L5.47757 9.38194L5.6589 9.21938ZM6.78445 9.3486L6.78855 9.59217L6.79517 9.59188L6.78445 9.3486ZM8.53795 9.13715L8.72062 9.29836L8.72528 9.29275L8.53795 9.13715ZM9.03556 9.20763L9.15565 8.99566L9.1494 8.99235L9.03556 9.20763ZM8.59719 9.31335L8.41971 9.14629L8.41296 9.15409L8.59719 9.31335ZM8.09957 9.47781L8.02851 9.71074L8.03631 9.71312L8.04425 9.71497L8.09957 9.47781ZM7.6612 9.5483L7.80363 9.74582L7.81911 9.73466L7.83266 9.72123L7.6612 9.5483ZM7.24652 9.5483L7.37118 9.33874L7.36036 9.33302L7.24652 9.5483ZM6.74891 9.56004L6.85117 9.78105L6.86259 9.77577L6.87341 9.76933L6.74891 9.56004ZM6.36977 9.56004L6.54123 9.38711L6.36977 9.56004ZM6.04988 9.5483L6.16457 9.76312L6.16572 9.7625L6.04988 9.5483ZM5.6352 9.43082L5.81295 9.26436L5.81215 9.26351L5.6352 9.43082ZM4.81769 9.17239L4.62703 9.32421L4.63347 9.33165L4.81769 9.17239ZM3.94095 8.67901L3.71725 8.7757L3.72121 8.78399L3.94095 8.67901ZM3.21822 7.76274L3.46174 7.7739V7.76274H3.21822ZM3.34855 7.86846L3.56943 7.76564L3.56599 7.75881L3.34855 7.86846ZM2.5411 1.02794L2.31948 0.927003L2.31948 0.927004L2.5411 1.02794ZM5.7655 9.84955L5.72734 10.0901L5.7655 9.84955ZM9.59547 0.623312L9.59873 0.379812L9.59547 0.623312ZM5.19759 9.7099L5.01155 9.86703L5.05841 9.92251L5.128 9.94327L5.19759 9.7099ZM6.61266 10.1324C8.58755 10.1805 10.4737 9.57024 11.5657 8.47505L11.2209 8.13116C10.2514 9.10345 8.51204 9.69143 6.6245 9.64551L6.61266 10.1324ZM11.5648 8.47604C11.7097 8.33236 11.8363 8.19786 11.9224 8.09677C11.9637 8.04816 12.0028 7.99908 12.0292 7.95721C12.0383 7.94276 12.0646 7.90116 12.076 7.84897C12.0808 7.8269 12.0962 7.74756 12.0473 7.66495C11.9862 7.56167 11.8832 7.54271 11.8317 7.54271V8.02976C11.7861 8.02976 11.6871 8.01264 11.6281 7.91293C11.5813 7.8339 11.5969 7.75988 11.6002 7.74479C11.6086 7.70654 11.6247 7.6855 11.6172 7.69749C11.6102 7.70848 11.59 7.73575 11.5514 7.78112C11.4775 7.86798 11.3613 7.99192 11.2218 8.13017L11.5648 8.47604ZM11.8317 7.54271C11.8011 7.54271 11.7758 7.54845 11.7684 7.55012C11.7564 7.5528 11.7451 7.55597 11.7358 7.55876C11.7169 7.56441 11.6954 7.57172 11.6734 7.57963C11.6288 7.59565 11.5715 7.61789 11.5066 7.6441C11.3761 7.69675 11.2076 7.76838 11.0337 7.84563L11.2316 8.2907C11.4013 8.21524 11.5646 8.1459 11.6888 8.09576C11.7512 8.07058 11.802 8.05097 11.8381 8.03799C11.8565 8.0314 11.8685 8.02742 11.8753 8.02541C11.8788 8.02437 11.8783 8.02461 11.8751 8.02532C11.8735 8.0257 11.8694 8.02657 11.8637 8.02743C11.8589 8.02814 11.8472 8.02976 11.8317 8.02976V7.54271ZM11.0355 7.84486C10.4792 8.08685 9.68839 8.29698 8.91428 8.43021C8.13591 8.56417 7.40744 8.61464 6.97137 8.55519L6.90558 9.03777C7.41735 9.10754 8.20542 9.04641 8.99689 8.9102C9.79264 8.77324 10.625 8.5546 11.2298 8.29147L11.0355 7.84486ZM6.9756 8.55581L6.44244 8.47358L6.3682 8.95493L6.90135 9.03716L6.9756 8.55581ZM10.1529 2.51641L10.6031 2.59864L10.6906 2.11953L10.2404 2.0373L10.1529 2.51641ZM10.6067 2.59927C10.8348 2.63745 11.0219 2.66555 11.1737 2.67748C11.3224 2.68916 11.4616 2.68782 11.5837 2.65093C11.7201 2.60972 11.8204 2.52889 11.8913 2.41563C11.9539 2.31565 11.9901 2.19508 12.0201 2.07939L11.5485 1.95745C11.5192 2.07083 11.4977 2.12647 11.4785 2.15717C11.4676 2.1746 11.4619 2.17893 11.4428 2.18471C11.4094 2.19481 11.3436 2.20228 11.2119 2.19193C11.0835 2.18184 10.9151 2.15707 10.6871 2.1189L10.6067 2.59927ZM12.0204 2.07796C12.055 1.94063 12.0746 1.78205 12.0795 1.63601C12.0843 1.4945 12.0762 1.34127 12.042 1.22267L11.574 1.35753C11.5872 1.40339 11.5969 1.49685 11.5927 1.61965C11.5888 1.73792 11.5728 1.86127 11.5482 1.95888L12.0204 2.07796ZM12.0447 1.23281C12.028 1.16409 12.0057 1.07384 11.9608 0.996455C11.9057 0.90173 11.8246 0.8365 11.7184 0.799938C11.6275 0.768625 11.5223 0.760037 11.4137 0.757555C11.3012 0.754985 11.1588 0.758955 10.9824 0.764782L10.9985 1.25156C11.1776 1.24564 11.3062 1.24227 11.4025 1.24447C11.5028 1.24676 11.5442 1.25506 11.5599 1.26046C11.5603 1.2606 11.5459 1.25191 11.5397 1.24125C11.5397 1.24124 11.54 1.24169 11.5405 1.24272C11.541 1.24375 11.5417 1.2453 11.5426 1.24748C11.5445 1.25194 11.5469 1.25838 11.5499 1.26753C11.5561 1.28673 11.5626 1.3116 11.5713 1.34739L12.0447 1.23281ZM10.9819 0.764802C10.6433 0.776791 10.4853 0.772485 10.3697 0.742218C10.2682 0.715627 10.1852 0.665106 10.0117 0.521807L9.7015 0.897271C9.8835 1.04765 10.0356 1.15819 10.2463 1.21337C10.443 1.26488 10.6742 1.26305 10.9991 1.25154L10.9819 0.764802ZM9.19748 0.499593C9.23064 0.477671 9.26063 0.469998 9.27154 0.467446C9.28525 0.464239 9.29568 0.463246 9.30013 0.462894C9.30897 0.462193 9.31282 0.462658 9.30813 0.462422C9.29976 0.462002 9.282 0.460325 9.25253 0.456138C9.19497 0.447963 9.11121 0.432912 9.006 0.41133C8.7966 0.368373 8.51395 0.301972 8.20977 0.220775L8.08416 0.691343C8.39607 0.774604 8.68805 0.843294 8.90813 0.88844C9.01767 0.91091 9.11237 0.928164 9.18403 0.938343C9.21917 0.943334 9.2537 0.947347 9.2837 0.948854C9.29819 0.949582 9.31774 0.95007 9.3386 0.948416C9.34906 0.947588 9.36457 0.945875 9.38242 0.941701C9.39748 0.938181 9.43065 0.929291 9.46604 0.9059L9.19748 0.499593ZM8.20947 0.220695C7.53746 0.0422232 6.74396 -0.0928876 6.27499 -0.0928876V0.394157C6.68276 0.394157 7.4295 0.517482 8.08446 0.691422L8.20947 0.220695ZM6.27499 -0.0928876C5.93518 -0.0928876 5.68862 -0.0751625 5.42576 0.00218236C5.16911 0.0777017 4.90882 0.206809 4.53693 0.405802L4.76671 0.835234C5.14125 0.634826 5.36079 0.528992 5.56325 0.46942C5.7595 0.411673 5.95131 0.394157 6.27499 0.394157V-0.0928876ZM4.53523 0.406718C4.30522 0.53215 4.06682 0.645999 3.87187 0.72783C3.7742 0.768828 3.69019 0.800626 3.62527 0.821704C3.54975 0.846224 3.52742 0.846879 3.53812 0.846879V1.33392C3.61398 1.33392 3.70421 1.30815 3.77567 1.28494C3.85774 1.2583 3.95515 1.22108 4.06038 1.17692C4.27122 1.08841 4.52451 0.967321 4.76841 0.834317L4.53523 0.406718ZM3.53812 0.846879C3.47116 0.846879 3.44337 0.845645 3.43254 0.844074C3.42597 0.843122 3.44838 0.844914 3.47849 0.861446C3.49574 0.870913 3.52069 0.888009 3.54333 0.916981C3.56729 0.947645 3.58264 0.984008 3.5881 1.0219C3.59787 1.08972 3.57273 1.13605 3.57044 1.14045C3.56563 1.14968 3.56375 1.15038 3.57301 1.13886C3.59128 1.11611 3.62344 1.08146 3.67864 1.02369L3.3265 0.687225C3.27507 0.741052 3.22726 0.791568 3.19333 0.833803C3.17648 0.854768 3.15544 0.882908 3.13855 0.915314C3.12418 0.942881 3.09404 1.00812 3.10603 1.09136C3.12086 1.19422 3.18795 1.25755 3.2441 1.28838C3.29102 1.31414 3.33759 1.32245 3.36267 1.32608C3.41515 1.33369 3.48066 1.33392 3.53812 1.33392V0.846879ZM3.67989 1.02238C3.76332 0.933746 3.85441 0.824111 3.88371 0.694968C3.90055 0.620763 3.89647 0.54422 3.8681 0.470571C3.84146 0.401403 3.79836 0.347667 3.75697 0.306623L3.41405 0.652484C3.42597 0.664301 3.4199 0.661959 3.41361 0.645653C3.41024 0.636899 3.40763 0.626201 3.40686 0.614424C3.4061 0.602778 3.40734 0.593353 3.40874 0.587183C3.41114 0.57662 3.41298 0.579871 3.39891 0.600645C3.38519 0.620891 3.36225 0.649243 3.32525 0.688542L3.67989 1.02238ZM3.75697 0.306623C3.69748 0.247645 3.6222 0.208326 3.53482 0.195354C3.45325 0.183244 3.37445 0.196005 3.30461 0.216676C3.1697 0.256605 3.01147 0.343947 2.82634 0.462363L3.08879 0.872649C3.27095 0.756124 3.3793 0.702501 3.44284 0.683695C3.47222 0.674998 3.47562 0.678949 3.46329 0.677118C3.44515 0.674425 3.42614 0.664473 3.41405 0.652484L3.75697 0.306623ZM2.30198 1.60759C2.33688 1.84407 2.33948 1.96583 2.31808 2.06585C2.29704 2.1642 2.24789 2.26455 2.12656 2.44787L2.5327 2.71669C2.66016 2.5241 2.75319 2.36014 2.79435 2.16775C2.83515 1.97703 2.81998 1.78162 2.7838 1.53647L2.30198 1.60759ZM2.12754 2.4464C2.03101 2.58996 1.9169 2.82546 1.80848 3.07579C1.69793 3.33105 1.58627 3.61833 1.49566 3.87586L1.9551 4.03751C2.04221 3.78993 2.14974 3.51335 2.25541 3.26935C2.36322 3.02043 2.46237 2.82129 2.53171 2.71816L2.12754 2.4464ZM1.4935 3.88228C1.41159 4.13752 1.3271 4.38007 1.25635 4.56617C1.22088 4.65948 1.18969 4.73639 1.16464 4.79275C1.15205 4.82105 1.14202 4.84188 1.13461 4.85596C1.12496 4.87427 1.12571 4.86964 1.13613 4.85724L1.50897 5.17061C1.5342 5.14059 1.55346 5.10585 1.56552 5.08295C1.57981 5.05583 1.59468 5.02435 1.60968 4.99062C1.63979 4.92289 1.67451 4.83681 1.71161 4.73924C1.786 4.54356 1.8733 4.29272 1.95725 4.0311L1.4935 3.88228ZM1.13613 4.85724C1.09022 4.91185 1.06201 4.98444 1.04517 5.03179C1.02466 5.08942 1.00505 5.15805 0.986893 5.23163C0.950432 5.37938 0.916326 5.56141 0.891632 5.74503L1.37433 5.80994C1.39703 5.64115 1.42809 5.47664 1.45975 5.34833C1.47566 5.28388 1.49085 5.2321 1.50404 5.19503C1.52089 5.14766 1.52525 5.15123 1.50897 5.17061L1.13613 4.85724ZM0.891815 5.7437C0.861869 5.95747 0.835202 6.07351 0.816508 6.12029C0.812583 6.13011 0.813126 6.12597 0.820599 6.11547C0.826123 6.10771 0.853462 6.07048 0.910667 6.04945C0.981617 6.02337 1.04989 6.03913 1.09471 6.06598C1.12998 6.08712 1.14521 6.11105 1.1455 6.11148L0.741328 6.38325C0.75939 6.41011 0.792023 6.4524 0.844374 6.48377C0.906268 6.52085 0.991296 6.53873 1.07872 6.50659C1.1524 6.4795 1.19594 6.42805 1.21743 6.39785C1.24087 6.36491 1.25715 6.33012 1.26878 6.30103C1.31228 6.19216 1.34486 6.02039 1.37415 5.81127L0.891815 5.7437ZM1.14942 6.11751C1.13906 6.10106 1.1202 6.05817 1.10402 5.994C1.08852 5.93256 1.08031 5.87067 1.08031 5.82447H0.593261C0.593261 5.91924 0.608739 6.02181 0.631753 6.11308C0.654079 6.20162 0.688535 6.2997 0.737407 6.37723L1.14942 6.11751ZM1.08031 5.82447C1.08031 5.62368 1.00397 5.41341 0.799849 5.31559C0.60745 5.22339 0.392757 5.27722 0.217248 5.37873L0.461092 5.80033C0.511965 5.77091 0.549126 5.75983 0.571551 5.7566C0.593116 5.7535 0.596198 5.75808 0.589368 5.75481C0.581044 5.75082 0.579053 5.74536 0.581414 5.75006C0.584927 5.75706 0.593261 5.77931 0.593261 5.82447H1.08031ZM0.204888 5.38638C0.15862 5.41696 0.0863805 5.46683 0.036411 5.54601C-0.0216816 5.63806 -0.0310349 5.73633 -0.0193846 5.82746C-0.00883535 5.90997 0.0205749 5.99981 0.0566995 6.09437C0.0939718 6.19194 0.145784 6.3129 0.21065 6.46199L0.657257 6.26768C0.591795 6.11722 0.544381 6.00618 0.511677 5.92057C0.477824 5.83195 0.466507 5.78743 0.463728 5.76569C0.462049 5.75256 0.466766 5.77668 0.44829 5.80595C0.437937 5.82236 0.430861 5.82084 0.473453 5.79268L0.204888 5.38638ZM0.213617 6.46854C0.298272 6.6484 0.395688 6.84172 0.488087 7.00662C0.574771 7.16132 0.672912 7.3206 0.760109 7.40705L1.10303 7.06119C1.07174 7.03017 1.00401 6.93101 0.912978 6.76854C0.827657 6.61627 0.735507 6.43368 0.65429 6.26113L0.213617 6.46854ZM0.749651 7.39602C0.792841 7.44455 0.838094 7.49424 0.882057 7.53179C0.922165 7.56606 1.00011 7.62528 1.10891 7.62876C1.22701 7.63254 1.30933 7.56984 1.35259 7.52949C1.39532 7.48963 1.43542 7.43766 1.46937 7.39278L1.08094 7.09896C1.06379 7.12162 1.0505 7.1387 1.03945 7.15201C1.02815 7.16564 1.02227 7.17156 1.02038 7.17333C1.01819 7.17537 1.02591 7.16751 1.04283 7.15913C1.05187 7.15466 1.06374 7.14994 1.0782 7.14655C1.09287 7.14311 1.10849 7.14146 1.12447 7.14197C1.15705 7.14301 1.18059 7.1526 1.19206 7.15849C1.20228 7.16373 1.2049 7.16702 1.19841 7.16148C1.19237 7.15631 1.18258 7.1471 1.16748 7.13132C1.15261 7.11578 1.13511 7.09653 1.11348 7.07223L0.749651 7.39602ZM1.4741 7.38632C1.53001 7.30713 1.57747 7.21139 1.61123 7.12154C1.64333 7.03612 1.6727 6.93062 1.6727 6.83472H1.18566C1.18566 6.83472 1.18563 6.83803 1.18466 6.84511C1.18373 6.85201 1.18211 6.861 1.17955 6.87203C1.17438 6.89431 1.16626 6.92108 1.15531 6.95023C1.13279 7.01016 1.10324 7.06714 1.07622 7.10542L1.4741 7.38632ZM1.6727 6.83472C1.6727 6.78545 1.67607 6.75296 1.67974 6.73375C1.684 6.71145 1.68598 6.72117 1.67101 6.74194C1.65043 6.77051 1.60501 6.80772 1.53928 6.8113C1.51228 6.81277 1.49162 6.80771 1.47974 6.80361C1.47373 6.80153 1.46939 6.79952 1.46679 6.79819C1.46546 6.79752 1.46448 6.79697 1.46386 6.7966C1.46324 6.79624 1.46292 6.79603 1.46291 6.79603C1.4629 6.79602 1.46315 6.79618 1.46367 6.79656C1.46419 6.79694 1.46494 6.79749 1.46591 6.79826C1.46789 6.79982 1.47061 6.8021 1.47407 6.80524C1.48109 6.81163 1.49017 6.82072 1.50127 6.83318C1.52367 6.85834 1.55091 6.89345 1.58258 6.94011C1.64601 7.03356 1.72052 7.16337 1.8034 7.33054L2.23976 7.11421C2.15084 6.93484 2.0654 6.78419 1.98555 6.66656C1.91013 6.55546 1.82471 6.45091 1.73016 6.38885C1.68216 6.35735 1.60638 6.31987 1.51277 6.32498C1.4058 6.33081 1.32511 6.38885 1.27584 6.45725C1.23218 6.51785 1.21204 6.5864 1.20135 6.64234C1.19007 6.70136 1.18566 6.76652 1.18566 6.83472H1.6727ZM1.80289 7.32951C2.01381 7.76006 2.39488 8.31025 2.65161 8.57753L3.00286 8.24013C2.78568 8.01403 2.43218 7.50698 2.24027 7.11524L1.80289 7.32951ZM2.65336 8.57933C2.88718 8.81778 3.38844 9.14638 3.85244 9.40801C4.08885 9.54131 4.32533 9.6627 4.52658 9.7516C4.62701 9.79596 4.72197 9.8337 4.80575 9.8608C4.88351 9.88596 4.97317 9.90929 5.05465 9.90929V9.42224C5.0572 9.42224 5.05021 9.42237 5.03024 9.41811C5.01149 9.41412 4.98674 9.40746 4.95566 9.3974C4.89333 9.37724 4.81492 9.34652 4.72338 9.30608C4.54068 9.22538 4.3188 9.11183 4.09165 8.98376C3.62856 8.72264 3.18198 8.42277 3.00112 8.23833L2.65336 8.57933ZM6.33167 1.32252L6.62787 1.4165L6.77516 0.952259L6.47896 0.858282L6.33167 1.32252ZM6.69258 0.94102L6.37269 0.952766L6.39056 1.43948L6.71045 1.42774L6.69258 0.94102ZM6.36656 0.953069C6.12836 0.967829 5.83847 1.08626 5.71396 1.33316L6.14884 1.55247C6.1665 1.51744 6.25575 1.44791 6.39668 1.43918L6.36656 0.953069ZM5.71396 1.33316C5.69171 1.37728 5.60844 1.43423 5.51672 1.43423V1.92128C5.75675 1.92128 6.02891 1.79028 6.14884 1.55247L5.71396 1.33316ZM5.51672 1.43423C5.3972 1.43423 5.27069 1.45557 5.16604 1.52271C5.04919 1.59768 4.977 1.72017 4.977 1.86571H5.46405C5.46405 1.87431 5.46175 1.88947 5.45259 1.90582C5.44362 1.92183 5.43308 1.93005 5.42903 1.93265C5.42584 1.93469 5.42957 1.93149 5.44513 1.92791C5.46048 1.92437 5.48391 1.92128 5.51672 1.92128V1.43423ZM4.977 1.86571C4.977 1.82547 4.99194 1.80589 4.98848 1.81127C4.98674 1.81398 4.97868 1.8248 4.96028 1.8405C4.92344 1.87193 4.8654 1.90563 4.79691 1.9256L4.93326 2.39317C5.06619 2.35441 5.18586 2.28826 5.27639 2.21102C5.32167 2.17239 5.36471 2.12668 5.39814 2.0747C5.42985 2.02538 5.46405 1.95293 5.46405 1.86571H4.977ZM4.78153 1.93065C4.5353 2.02059 4.26612 2.20695 4.26612 2.5118H4.75317C4.75317 2.52201 4.74727 2.5134 4.77441 2.4865C4.80305 2.4581 4.85808 2.4212 4.94864 2.38812L4.78153 1.93065ZM4.26612 2.5118C4.26612 2.50534 4.26733 2.5075 4.26307 2.51881C4.25902 2.52954 4.25169 2.54409 4.2402 2.56058C4.2161 2.59518 4.18434 2.62339 4.15684 2.63826L4.38853 3.06667C4.49137 3.01105 4.57808 2.92766 4.63988 2.83892C4.69937 2.75349 4.75317 2.63769 4.75317 2.5118H4.26612ZM4.15684 2.63826C4.06345 2.68877 3.97938 2.75933 3.91633 2.83693C3.85906 2.90742 3.79221 3.01719 3.79221 3.14614H4.27925C4.27925 3.16721 4.27378 3.17644 4.27606 3.17142C4.27788 3.16743 4.28321 3.15775 4.29434 3.14405C4.31719 3.11593 4.3516 3.08664 4.38853 3.06667L4.15684 2.63826ZM3.79221 3.14614C3.79221 3.19616 3.78923 3.23473 3.74281 3.34617C3.69112 3.47023 3.5958 3.65983 3.41621 4.01002L3.84959 4.23227C4.02543 3.88939 4.13153 3.67958 4.1924 3.53346C4.25853 3.37472 4.27925 3.27233 4.27925 3.14614H3.79221ZM3.42346 3.99689C3.35207 4.11722 3.30154 4.24506 3.27362 4.35767C3.25968 4.41385 3.25003 4.47162 3.24793 4.52649C3.24614 4.5734 3.24814 4.65082 3.28513 4.72418L3.72001 4.50487C3.73923 4.54299 3.73382 4.56607 3.73462 4.54507C3.73512 4.53203 3.73806 4.50831 3.74634 4.47491C3.76284 4.40838 3.79525 4.32477 3.84234 4.2454L3.42346 3.99689ZM3.29423 4.7406C3.27695 4.71206 3.27269 4.68862 3.27164 4.68212C3.27033 4.67401 3.27085 4.67122 3.27068 4.67574C3.27035 4.68499 3.26799 4.70541 3.26027 4.73658C3.24498 4.7983 3.21485 4.87746 3.17228 4.95249L3.5959 5.19282C3.65996 5.07991 3.70685 4.95937 3.73303 4.85369C3.74604 4.80116 3.75553 4.74595 3.75742 4.69317C3.7589 4.65172 3.75826 4.56668 3.71092 4.48844L3.29423 4.7406ZM3.16436 4.96768C3.10674 5.08828 3.06228 5.20798 3.04679 5.31545C3.03397 5.40449 3.02794 5.59121 3.19057 5.69871L3.45914 5.2924C3.50254 5.32109 3.52002 5.36057 3.52536 5.38192C3.52964 5.39903 3.52626 5.40297 3.52886 5.38491C3.53411 5.34848 3.55481 5.28023 3.60383 5.17764L3.16436 4.96768ZM3.21669 5.71374C3.18545 5.69825 3.16815 5.6791 3.16178 5.6713C3.15496 5.66295 3.1532 5.65845 3.15482 5.66174C3.1583 5.66883 3.16574 5.68783 3.1737 5.72167C3.18936 5.78819 3.19981 5.88064 3.19981 5.97718H3.68685C3.68685 5.85053 3.67361 5.71979 3.6478 5.6101C3.63503 5.55584 3.61729 5.49849 3.59189 5.44684C3.5709 5.40415 3.5246 5.32277 3.43302 5.27737L3.21669 5.71374ZM3.19981 5.97718C3.19981 6.0349 3.19713 6.08135 3.19285 6.11697C3.18837 6.15426 3.18302 6.17187 3.18149 6.1759C3.1774 6.18673 3.18932 6.14381 3.24421 6.11129C3.27603 6.09243 3.31458 6.0821 3.3545 6.08408C3.39188 6.08594 3.41886 6.09793 3.43305 6.10597L3.19296 6.52973C3.26926 6.57296 3.38313 6.59511 3.49251 6.53028C3.5796 6.47867 3.61892 6.39611 3.63704 6.3482C3.67561 6.24623 3.68685 6.1123 3.68685 5.97718H3.19981ZM3.46434 6.12706C3.48429 6.14288 3.48901 6.15491 3.48503 6.14766C3.48239 6.14285 3.47746 6.13205 3.47251 6.11528C3.46219 6.08031 3.458 6.0409 3.46073 6.01117L2.97572 5.9667C2.96659 6.06618 2.98018 6.16774 3.0054 6.25317C3.02725 6.3272 3.07183 6.43738 3.16167 6.50864L3.46434 6.12706ZM3.46089 6.00933C3.47608 5.8286 3.43393 5.57905 3.37297 5.42794L2.9213 5.61016C2.95512 5.69399 2.98406 5.86733 2.97555 5.96853L3.46089 6.00933ZM3.37576 5.4352C3.35852 5.38817 3.36076 5.26034 3.42381 5.13532L2.98893 4.91602C2.88611 5.11992 2.84097 5.39149 2.9185 5.6029L3.37576 5.4352ZM3.42037 5.14189C3.4751 5.04112 3.51046 4.93291 3.52663 4.8347C3.53475 4.78543 3.53877 4.73421 3.53621 4.68444C3.53382 4.63793 3.52493 4.57618 3.4949 4.51662L3.06002 4.73592C3.04776 4.71161 3.04924 4.69831 3.04981 4.70944C3.05021 4.7173 3.04979 4.73289 3.04606 4.75557C3.03854 4.80126 3.02058 4.85751 2.99237 4.90945L3.42037 5.14189ZM3.47955 4.49039C3.4919 4.50876 3.49741 4.52489 3.49984 4.53432C3.50227 4.54374 3.50238 4.5493 3.50239 4.54949C3.5024 4.54988 3.50232 4.54731 3.50309 4.54146C3.50384 4.53572 3.50525 4.52801 3.50767 4.51842C3.51799 4.47747 3.54121 4.42376 3.57433 4.3745L3.17016 4.10274C3.10849 4.19444 3.06062 4.29932 3.03541 4.39934C3.02279 4.44936 3.01404 4.50527 3.01551 4.56208C3.0169 4.61606 3.02811 4.69186 3.07537 4.76215L3.47955 4.49039ZM3.56646 4.38553C3.63841 4.29042 3.6963 4.17283 3.73637 4.06057C3.77589 3.94981 3.80533 3.8239 3.80533 3.71H3.31829C3.31829 3.74881 3.30626 3.81672 3.27766 3.89686C3.2496 3.97548 3.21271 4.04585 3.17803 4.09171L3.56646 4.38553ZM3.80533 3.71C3.80533 3.6708 3.81412 3.6276 3.82692 3.59508C3.83318 3.57918 3.83819 3.5715 3.83903 3.57034C3.84138 3.5671 3.83047 3.58431 3.8003 3.59926L3.58398 3.1629C3.51826 3.19548 3.4733 3.24499 3.44454 3.28469C3.41428 3.32649 3.39115 3.3724 3.37372 3.4167C3.33912 3.5046 3.31829 3.60823 3.31829 3.71H3.80533ZM3.84347 3.57187C3.90266 3.52493 3.96128 3.44936 4.00442 3.38888C4.05275 3.32114 4.10225 3.24264 4.14246 3.16954L3.71573 2.93478C3.68486 2.9909 3.6455 3.05337 3.60793 3.10603C3.58921 3.13228 3.57229 3.15417 3.55835 3.17062C3.54266 3.18914 3.53699 3.19331 3.5408 3.19029L3.84347 3.57187ZM4.1536 3.14651C4.21181 3.00801 4.3003 2.82363 4.34837 2.74738L3.93635 2.48766C3.86594 2.59937 3.76487 2.81439 3.70459 2.95782L4.1536 3.14651ZM4.34837 2.74738C4.41839 2.63631 4.51084 2.44027 4.55317 2.30039L4.08699 2.15934C4.05823 2.25441 3.98481 2.41078 3.93635 2.48766L4.34837 2.74738ZM4.55091 2.30747C4.54786 2.31653 4.54532 2.31773 4.54951 2.31285C4.55343 2.3083 4.56072 2.30143 4.5716 2.29434C4.58236 2.28732 4.59409 2.28174 4.60524 2.27811C4.6165 2.27446 4.62439 2.27369 4.62813 2.27369V1.78664C4.50759 1.78664 4.39396 1.82871 4.30551 1.8864C4.21935 1.94261 4.12972 2.03189 4.08925 2.15226L4.55091 2.30747ZM4.62813 2.27369C4.92054 2.27369 5.11834 2.05331 5.2094 1.8276L4.75773 1.64538C4.70661 1.77208 4.64375 1.78664 4.62813 1.78664V2.27369ZM5.21184 1.82131C5.2434 1.73636 5.26697 1.72034 5.27662 1.71453C5.29429 1.70388 5.34029 1.68634 5.46933 1.68634V1.19929C5.31403 1.19929 5.15861 1.21699 5.02522 1.29738C4.8838 1.38261 4.80666 1.51342 4.75529 1.65167L5.21184 1.82131ZM5.46933 1.68634C5.60719 1.68634 5.73831 1.66745 5.84103 1.61438C5.89368 1.58717 5.95434 1.54286 5.99487 1.47188C6.03917 1.3943 6.04717 1.30553 6.02181 1.2238C5.97821 1.08333 5.85322 1.00474 5.76436 0.963871C5.66119 0.916412 5.53206 0.884959 5.38506 0.871401L5.34033 1.35639C5.44807 1.36632 5.52036 1.38773 5.56084 1.40635C5.58107 1.41566 5.58789 1.42176 5.58675 1.42075C5.58591 1.42 5.58155 1.41603 5.57595 1.40814C5.57034 1.40022 5.56247 1.38694 5.55665 1.36815C5.54313 1.3246 5.54743 1.27327 5.57192 1.23038C5.59264 1.19409 5.61738 1.18172 5.61746 1.18168C5.6187 1.18104 5.60888 1.18608 5.58186 1.19096C5.55578 1.19566 5.51879 1.19929 5.46933 1.19929V1.68634ZM5.38456 0.871356C5.24202 0.858507 5.09574 0.860495 4.96413 0.912199C4.81884 0.969274 4.72014 1.07489 4.6566 1.20989L5.09727 1.4173C5.11666 1.3761 5.13051 1.37011 5.14222 1.36552C5.16759 1.35555 5.22273 1.34579 5.34084 1.35643L5.38456 0.871356ZM4.66357 1.19621C4.65186 1.21749 4.62112 1.25291 4.57094 1.28711C4.52117 1.32103 4.47402 1.33892 4.44625 1.34351L4.52565 1.82404C4.64006 1.80514 4.75285 1.75254 4.84526 1.68955C4.93726 1.62685 5.03092 1.53891 5.0903 1.43098L4.66357 1.19621ZM4.44923 1.34304C4.3428 1.35927 4.23476 1.39788 4.1503 1.4643C4.06983 1.52758 3.96382 1.66158 4.01499 1.83916L4.48299 1.7043C4.49487 1.74551 4.48838 1.78508 4.47544 1.81309C4.46963 1.82567 4.46335 1.83428 4.4591 1.83932C4.45484 1.84437 4.45184 1.84678 4.45136 1.84716C4.45079 1.8476 4.45611 1.84348 4.4697 1.83814C4.48281 1.83298 4.50065 1.82787 4.52267 1.82452L4.44923 1.34304ZM4.00796 1.80646C3.99992 1.75065 4.02078 1.71655 4.02186 1.71476C4.02458 1.71025 4.02174 1.71629 4.00616 1.72942C3.97551 1.75525 3.92069 1.78724 3.84907 1.80813L3.98542 2.2757C4.11522 2.23785 4.2322 2.17587 4.32003 2.10185C4.36369 2.06505 4.40676 2.0197 4.4391 1.966C4.4698 1.91502 4.50399 1.83392 4.49003 1.737L4.00796 1.80646ZM3.83369 1.81317C3.58746 1.90312 3.31829 2.08948 3.31829 2.39433H3.80533C3.80533 2.40454 3.79943 2.39593 3.82657 2.36902C3.85521 2.34063 3.91025 2.30373 4.0008 2.27065L3.83369 1.81317ZM3.31829 2.39433C3.31829 2.38787 3.31949 2.39003 3.31523 2.40134C3.31119 2.41207 3.30385 2.42662 3.29237 2.44311C3.26827 2.47771 3.2365 2.50592 3.20901 2.52079L3.4407 2.9492C3.54353 2.89358 3.63024 2.81019 3.69204 2.72145C3.75154 2.63602 3.80533 2.52022 3.80533 2.39433H3.31829ZM3.20901 2.52079C3.10592 2.57654 3.01855 2.66046 2.95614 2.75221C2.89502 2.84207 2.84437 2.95968 2.84437 3.0874H3.33142C3.33142 3.08807 3.33142 3.08224 3.33585 3.06987C3.34019 3.05775 3.34764 3.04262 3.35886 3.02614C3.38235 2.9916 3.41345 2.96393 3.4407 2.9492L3.20901 2.52079ZM2.84437 3.0874C2.84437 3.09691 2.84309 3.11011 2.83969 3.12556C2.83632 3.14088 2.8315 3.1555 2.82617 3.16772C2.82356 3.17371 2.8211 3.17849 2.81905 3.18205C2.81804 3.1838 2.81721 3.18512 2.81659 3.18605C2.81596 3.18699 2.81563 3.18742 2.81565 3.1874C2.81566 3.18739 2.81612 3.18679 2.81711 3.18572C2.81809 3.18466 2.81975 3.18296 2.82216 3.18082C2.82674 3.17677 2.83566 3.16971 2.8494 3.1629L3.06573 3.59926C3.17937 3.54293 3.2417 3.43328 3.2726 3.36243C3.3082 3.28082 3.33142 3.18318 3.33142 3.0874H2.84437ZM2.80623 3.19029C2.73576 3.24619 2.68742 3.32208 2.66101 3.39773C2.63486 3.47262 2.62228 3.57087 2.65565 3.67013L3.11731 3.51493C3.12241 3.5301 3.1228 3.5418 3.12251 3.54794C3.12221 3.5541 3.12114 3.55739 3.12084 3.55826C3.12051 3.5592 3.12011 3.56009 3.11917 3.56146C3.11832 3.56271 3.1154 3.56671 3.1089 3.57187L2.80623 3.19029ZM2.65248 3.65996C2.64687 3.64049 2.65012 3.6354 2.6486 3.65633C2.64736 3.67336 2.64361 3.6985 2.63604 3.73084C2.62089 3.79554 2.59413 3.87341 2.55951 3.94696L3.00018 4.15437C3.0485 4.05171 3.0869 3.94162 3.11026 3.84187C3.12194 3.79198 3.13078 3.74076 3.13436 3.69172C3.13764 3.64657 3.13794 3.58569 3.12048 3.5251L2.65248 3.65996ZM2.56538 3.9353C2.50474 4.04804 2.46438 4.17249 2.44399 4.28461C2.42575 4.38488 2.41523 4.519 2.45729 4.63019L2.91284 4.45789C2.91827 4.47226 2.91518 4.47297 2.91507 4.45086C2.91497 4.43184 2.91715 4.40487 2.92317 4.37176C2.93536 4.30474 2.96017 4.22949 2.99431 4.16603L2.56538 3.9353ZM2.46285 4.64365C2.46035 4.63809 2.46629 4.64903 2.46053 4.67974C2.45504 4.70896 2.44258 4.73503 2.43161 4.74954L2.82004 5.04337C2.88015 4.9639 2.92101 4.86662 2.93922 4.76956C2.95715 4.67399 2.95717 4.55572 2.90728 4.44443L2.46285 4.64365ZM2.4363 4.74353C2.34056 4.86219 2.30936 5.01593 2.30257 5.16907C2.29558 5.32658 2.31321 5.52133 2.34964 5.75609L2.83092 5.68141C2.79626 5.45803 2.78427 5.30037 2.78913 5.19064C2.79419 5.07653 2.81631 5.04818 2.81535 5.04937L2.4363 4.74353ZM2.35013 5.75912C2.37372 5.89945 2.38992 6.00475 2.39919 6.08266C2.4038 6.12149 2.40638 6.15093 2.40744 6.17284C2.40856 6.19601 2.40765 6.20439 2.40776 6.20342C2.40787 6.20253 2.40875 6.19531 2.41218 6.18422C2.41551 6.17349 2.42306 6.15313 2.43952 6.13024C2.45702 6.10588 2.48416 6.07948 2.52271 6.06124C2.56111 6.04307 2.59827 6.03894 2.62725 6.04057C2.65458 6.0421 2.67468 6.04866 2.68494 6.05261C2.69557 6.0567 2.70195 6.06047 2.70321 6.06122C2.70496 6.06227 2.70017 6.05947 2.68615 6.04789L2.37593 6.42335C2.39746 6.44114 2.42414 6.46184 2.45338 6.47931C2.47789 6.49396 2.53076 6.52297 2.59996 6.52685C2.69146 6.53198 2.77963 6.49153 2.83499 6.41451C2.87692 6.35618 2.8874 6.294 2.89128 6.26194C2.8996 6.19322 2.89281 6.10911 2.88282 6.02515C2.87209 5.93493 2.85424 5.81998 2.83043 5.67838L2.35013 5.75912ZM2.67635 6.04021C2.68088 6.04357 2.67963 6.04401 2.67548 6.03742C2.67147 6.03104 2.66658 6.02093 2.66265 6.00744C2.65415 5.97825 2.65505 5.95117 2.65921 5.93605L2.18961 5.80687C2.15822 5.92097 2.16505 6.04073 2.19505 6.14369C2.22448 6.24469 2.28408 6.35545 2.38573 6.43104L2.67635 6.04021ZM2.66394 5.91538C2.68163 5.81891 2.68034 5.70804 2.6632 5.60421C2.64632 5.50192 2.6103 5.38361 2.54041 5.28462L2.14253 5.56552C2.15558 5.584 2.17288 5.62428 2.18266 5.68352C2.19218 5.74121 2.19088 5.7948 2.18488 5.82754L2.66394 5.91538ZM2.54838 5.29665C2.51837 5.24829 2.51609 5.22547 2.51669 5.20967C2.51756 5.18692 2.52698 5.1411 2.57761 5.05073L2.15272 4.81266C2.08488 4.93374 2.03506 5.05824 2.03 5.19115C2.02468 5.331 2.06979 5.44914 2.13456 5.55349L2.54838 5.29665ZM2.58261 5.04135C2.63372 4.93998 2.67088 4.83065 2.69013 4.73138C2.69976 4.68175 2.70593 4.62942 2.70531 4.57849C2.70474 4.53222 2.6985 4.46451 2.66554 4.39915L2.23067 4.61845C2.21548 4.58833 2.21813 4.57055 2.2183 4.58448C2.21841 4.59375 2.21718 4.61191 2.212 4.63864C2.20164 4.69207 2.17955 4.75895 2.14773 4.82204L2.58261 5.04135ZM2.65019 4.37292C2.67301 4.40686 2.67151 4.43107 2.67084 4.41976C2.67045 4.4131 2.67081 4.3963 2.67579 4.36918C2.6857 4.31511 2.70928 4.24511 2.7455 4.17777L2.31658 3.94705C2.25801 4.05592 2.21643 4.17387 2.19673 4.28133C2.18689 4.33496 2.18133 4.39232 2.18464 4.44843C2.18768 4.4999 2.1995 4.5755 2.24602 4.64468L2.65019 4.37292ZM2.75138 4.16612C2.80023 4.06232 2.84127 3.94351 2.86726 3.83357C2.8905 3.73527 2.912 3.60317 2.88715 3.49228L2.41189 3.5988C2.40997 3.5902 2.4126 3.59635 2.4101 3.6246C2.40786 3.64981 2.40244 3.68275 2.39328 3.72152C2.37484 3.79953 2.34478 3.8863 2.3107 3.95871L2.75138 4.16612ZM2.88715 3.49228C2.88853 3.49846 2.88728 3.49813 2.88831 3.49009C2.88928 3.48248 2.89188 3.47144 2.89719 3.45844C2.90853 3.43067 2.92582 3.40897 2.94041 3.39772L2.64298 3.01203C2.55094 3.08301 2.48529 3.17878 2.44628 3.27436C2.40826 3.36748 2.38616 3.484 2.41189 3.5988L2.88715 3.49228ZM2.95128 3.38882C3.02181 3.32763 3.08314 3.24955 3.12776 3.17112C3.16938 3.09797 3.21294 2.99572 3.21294 2.8877H2.72589C2.72589 2.87733 2.72777 2.87689 2.72399 2.8882C2.72059 2.89839 2.71432 2.91289 2.70444 2.93027C2.6839 2.96637 2.65637 2.99989 2.63211 3.02093L2.95128 3.38882ZM3.21294 2.8877C3.21294 2.89776 3.21169 2.90524 3.21067 2.90975C3.20964 2.91428 3.20861 2.91684 3.20836 2.91744C3.20801 2.91827 3.2093 2.91515 3.21359 2.90973C3.21774 2.90449 3.22269 2.89966 3.22739 2.89607C3.23222 2.89237 3.23419 2.89195 3.232 2.89277L3.06227 2.43625C2.96564 2.47218 2.88663 2.53814 2.83187 2.60724C2.77979 2.67296 2.72589 2.77205 2.72589 2.8877H3.21294ZM3.2553 2.88269C3.36008 2.83075 3.43671 2.74026 3.48571 2.64973C3.53633 2.55619 3.56838 2.44317 3.56838 2.32384H3.08133C3.08133 2.35723 3.07191 2.39105 3.05737 2.41792C3.0412 2.4478 3.02897 2.45128 3.03897 2.44633L3.2553 2.88269ZM3.56838 2.32384C3.56838 2.26653 3.58023 2.25369 3.58662 2.24653C3.60224 2.22901 3.64498 2.19604 3.76289 2.15353L3.5977 1.69536C3.45495 1.74682 3.31997 1.81371 3.22303 1.92246C3.11686 2.04158 3.08133 2.18146 3.08133 2.32384H3.56838ZM3.75671 2.15566C3.90023 2.10823 4.03083 2.04207 4.12704 1.94179C4.23041 1.83404 4.27925 1.70224 4.27925 1.56028H3.79221C3.79221 1.58279 3.78773 1.59195 3.77558 1.60461C3.75628 1.62473 3.70916 1.65842 3.60387 1.69322L3.75671 2.15566ZM4.27925 1.56028C4.27925 1.53607 4.27992 1.51898 4.28098 1.5068C4.28207 1.49424 4.28318 1.49178 4.28215 1.49541C4.28099 1.49946 4.27617 1.51461 4.26251 1.53301C4.24763 1.55306 4.2278 1.56947 4.20609 1.58024C4.18627 1.59006 4.1715 1.59191 4.16859 1.59222C4.16601 1.59248 4.17009 1.59182 4.18423 1.59307C4.19798 1.59428 4.21707 1.59692 4.24335 1.60175C4.26942 1.60655 4.30016 1.61307 4.33685 1.62147L4.44548 1.14669C4.36726 1.12879 4.29268 1.11371 4.22711 1.10791C4.16631 1.10254 4.07625 1.101 3.98977 1.14387C3.88658 1.19503 3.83607 1.28361 3.81375 1.36195C3.79449 1.42952 3.79221 1.50223 3.79221 1.56028H4.27925ZM4.33685 1.62147C4.41525 1.6394 4.48933 1.65435 4.5543 1.66034C4.61437 1.66588 4.70236 1.66792 4.78737 1.62825C4.8903 1.58023 4.94366 1.49431 4.96763 1.41444C4.98789 1.34694 4.99013 1.27497 4.99013 1.21962H4.50308C4.50308 1.24215 4.50242 1.25755 4.50146 1.2681C4.50046 1.27901 4.49955 1.27972 4.50115 1.27442C4.50291 1.26854 4.5087 1.2521 4.52363 1.23303C4.53971 1.21249 4.56026 1.19677 4.58144 1.18689C4.60067 1.17791 4.61456 1.17647 4.61652 1.17629C4.61829 1.17612 4.61353 1.1767 4.59903 1.17536C4.56847 1.17254 4.52111 1.16399 4.44548 1.14669L4.33685 1.62147ZM4.99013 1.21962C4.99013 1.16747 4.99623 1.17332 4.98622 1.19384C4.96751 1.2322 4.9359 1.24517 4.93772 1.24455C4.9506 1.24016 4.98823 1.23218 5.07703 1.22834C5.16197 1.22466 5.27515 1.22522 5.42914 1.22816L5.43843 0.741199C5.28438 0.738262 5.15764 0.73735 5.05597 0.74175C4.95817 0.745982 4.8625 0.755629 4.7806 0.783542C4.68764 0.815225 4.59975 0.875178 4.54846 0.980355C4.50587 1.06769 4.50308 1.16017 4.50308 1.21962H4.99013ZM5.426 1.22808C5.79137 1.23976 6.20394 1.28646 6.33894 1.3247L6.47169 0.856098C6.27495 0.800366 5.81078 0.753088 5.44157 0.741279L5.426 1.22808ZM5.9551 8.36501C5.9681 8.36501 5.9613 8.36675 5.92173 8.35517C5.88808 8.34532 5.84382 8.32981 5.79026 8.30864C5.68354 8.26645 5.55178 8.20651 5.41549 8.13824C5.13396 7.9972 4.87077 7.83942 4.76747 7.74631L4.44139 8.10809C4.59874 8.24992 4.9161 8.4328 5.19735 8.5737C5.34245 8.64639 5.48764 8.71273 5.61121 8.76158C5.6728 8.78593 5.73202 8.80713 5.78492 8.82261C5.83189 8.83636 5.89469 8.85205 5.9551 8.85205V8.36501ZM4.76295 7.74234C4.6728 7.66503 4.63959 7.60717 4.62973 7.57766C4.62748 7.57091 4.62664 7.56626 4.62633 7.56357C4.62617 7.56222 4.62614 7.56128 4.62614 7.56072C4.62613 7.56015 4.62617 7.55988 4.62617 7.55983C4.62618 7.55979 4.62617 7.55986 4.62613 7.56C4.6261 7.56015 4.62607 7.56023 4.62607 7.56023C4.62607 7.56023 4.62615 7.56002 4.62636 7.5596C4.62658 7.55917 4.62699 7.55845 4.62766 7.55745C4.63352 7.54868 4.66087 7.51827 4.74266 7.48985C4.82232 7.46218 4.93754 7.4424 5.0902 7.4424V6.95536C4.89926 6.95536 4.72717 6.97963 4.58282 7.02978C4.44062 7.07919 4.30728 7.16037 4.2228 7.2867C4.13237 7.42194 4.11722 7.58062 4.16778 7.73197C4.21531 7.87426 4.31688 8.00142 4.44591 8.11206L4.76295 7.74234ZM5.0902 7.4424C5.16428 7.4424 5.24047 7.43968 5.30936 7.42597C5.3804 7.41182 5.46553 7.38184 5.5354 7.31033C5.60569 7.23839 5.63354 7.15211 5.64541 7.07968C5.65684 7.00992 5.6565 6.93352 5.6534 6.85974L5.16678 6.88019C5.16961 6.94737 5.16778 6.98256 5.16478 7.00091C5.16221 7.01658 5.16266 6.99491 5.18704 6.96996C5.211 6.94543 5.2317 6.94482 5.21425 6.9483C5.19465 6.9522 5.15829 6.95536 5.0902 6.95536V7.4424ZM5.65352 6.86333C5.64713 6.62868 5.59687 6.39555 5.4407 6.24614C5.26162 6.07481 5.02677 6.08412 4.82571 6.16079L4.99925 6.61587C5.05301 6.59537 5.08337 6.59419 5.09559 6.59535C5.10332 6.59608 5.10294 6.59704 5.10401 6.59807C5.11668 6.61019 5.16121 6.6766 5.16666 6.8766L5.65352 6.86333ZM4.82761 6.16008C4.72498 6.19823 4.69547 6.18665 4.70694 6.19019C4.74837 6.20301 4.75666 6.24165 4.75412 6.22685C4.74897 6.19674 4.75053 6.12524 4.78577 5.99685C4.81961 5.87354 4.87892 5.71741 4.96728 5.52805L4.52593 5.32209C4.43065 5.52626 4.35963 5.70932 4.31609 5.86794C4.27395 6.02149 4.25107 6.17465 4.27406 6.30899C4.29966 6.45865 4.38866 6.60156 4.56301 6.65549C4.7074 6.70015 4.86301 6.66653 4.99734 6.61659L4.82761 6.16008ZM4.96765 5.52725C5.10918 5.2211 5.22709 4.75148 5.22709 4.46181H4.74004C4.74004 4.66552 4.64469 5.06518 4.52556 5.32289L4.96765 5.52725ZM5.22709 4.46181C5.22709 4.33761 5.22996 4.26848 5.23731 4.22757C5.24496 4.18502 5.24551 4.24127 5.18093 4.27452C5.15541 4.28766 5.13744 4.28696 5.14072 4.28696C5.14471 4.28696 5.15941 4.28786 5.19056 4.29479C5.25466 4.30906 5.34575 4.33868 5.48472 4.3866L5.64351 3.92617C5.50997 3.88012 5.39224 3.84072 5.2964 3.81939C5.21193 3.80058 5.07958 3.7789 4.958 3.84149C4.8164 3.91439 4.774 4.05213 4.75795 4.14138C4.74162 4.23224 4.74004 4.3452 4.74004 4.46181H5.22709ZM5.48451 4.38653C5.76996 4.48526 6.06149 4.51066 6.29099 4.44878C6.4062 4.41772 6.52476 4.35916 6.60908 4.25595C6.69962 4.14513 6.73129 4.00599 6.70362 3.86333L6.22549 3.95607C6.22744 3.96612 6.22505 3.9562 6.23191 3.9478C6.23256 3.94701 6.21783 3.96407 6.16421 3.97853C6.05604 4.00769 5.86773 4.00372 5.64371 3.92624L5.48451 4.38653ZM6.70409 3.86577C6.66935 3.67636 6.61481 3.46808 6.4543 3.34497C6.28235 3.21309 6.06923 3.23586 5.89431 3.27174L5.99218 3.74885C6.16086 3.71425 6.17284 3.7429 6.15788 3.73143C6.15245 3.72726 6.16137 3.73069 6.1765 3.76717C6.19219 3.80499 6.20847 3.86335 6.22503 3.95362L6.70409 3.86577ZM5.88972 3.27273C5.77239 3.29917 5.74623 3.28695 5.74235 3.2852C5.73399 3.28145 5.70112 3.26269 5.6285 3.14638L5.21537 3.40433C5.29678 3.53472 5.39424 3.66279 5.54286 3.72952C5.69597 3.79826 5.85346 3.78016 5.99678 3.74786L5.88972 3.27273ZM5.62277 3.13762C5.57062 3.06159 5.54313 3.01905 5.52868 2.99062C5.51338 2.96051 5.53442 2.98656 5.52484 3.03643C5.51485 3.08843 5.48329 3.10693 5.50523 3.08851C5.51439 3.08082 5.52887 3.06996 5.55212 3.05408C5.57519 3.03834 5.60261 3.02053 5.6371 2.99822L5.37264 2.58923C5.30922 2.63024 5.24255 2.6731 5.19203 2.71553C5.1414 2.75804 5.06837 2.83088 5.04654 2.94455C5.02511 3.0561 5.06392 3.15115 5.09452 3.21135C5.12599 3.27323 5.17255 3.34229 5.22111 3.41309L5.62277 3.13762ZM5.64203 2.99495C5.69446 2.95921 5.78435 2.92318 5.94353 2.89951C6.10164 2.87599 6.31121 2.86698 6.58986 2.87274L6.59992 2.3858C6.30986 2.37981 6.06921 2.38842 5.87188 2.41776C5.67562 2.44695 5.50485 2.49902 5.36771 2.59251L5.64203 2.99495ZM6.58853 2.87271C7.04981 2.88474 7.8114 2.84915 8.27941 2.77588L8.20408 2.2947C7.77165 2.3624 7.04041 2.39729 6.60124 2.38583L6.58853 2.87271ZM8.27847 2.77603C8.73673 2.70613 9.26133 2.64862 9.46363 2.63748L9.43684 2.15117C9.21262 2.16352 8.67091 2.22349 8.20503 2.29455L8.27847 2.77603ZM9.45778 2.63773L9.83692 2.62599L9.82183 2.13917L9.4427 2.15092L9.45778 2.63773ZM3.70399 8.38217C3.69081 8.38217 3.68923 8.37905 3.70029 8.38398C3.71036 8.38848 3.72561 8.39738 3.74353 8.41232C3.78024 8.44292 3.8142 8.48711 3.83359 8.53518L4.28526 8.35296C4.23356 8.22482 4.14905 8.1163 4.05542 8.03824C3.96752 7.96495 3.84263 7.89512 3.70399 7.89512V8.38217ZM3.83942 8.54849C3.89614 8.66798 3.97252 8.78062 4.08052 8.85558C4.19832 8.93733 4.33561 8.96129 4.47345 8.92713L4.35627 8.45439C4.35049 8.45582 4.35124 8.45467 4.35588 8.4555C4.36061 8.45636 4.36175 8.45791 4.35822 8.45546C4.34775 8.44819 4.31749 8.41986 4.27942 8.33965L3.83942 8.54849ZM4.49128 8.92198C4.49317 8.92136 4.49396 8.9213 4.49383 8.92131C4.49382 8.92131 4.49372 8.92132 4.49357 8.92132C4.49343 8.92132 4.49334 8.92131 4.49335 8.92131C4.49336 8.92131 4.49355 8.92134 4.49396 8.92143C4.49437 8.92152 4.49506 8.9217 4.49604 8.92203C4.498 8.92269 4.50136 8.92403 4.50611 8.92669C4.52708 8.93844 4.56555 8.97063 4.61169 9.04381L5.0237 8.78409C4.88579 8.56532 4.64473 8.35831 4.33845 8.45954L4.49128 8.92198ZM4.61931 9.05519C4.69914 9.16732 4.79371 9.2719 4.92053 9.33215C5.05688 9.39692 5.19492 9.39438 5.3265 9.36177L5.20933 8.88903C5.15134 8.9034 5.13536 8.89499 5.12953 8.89222C5.11418 8.88493 5.07842 8.86029 5.01608 8.77272L4.61931 9.05519ZM5.32223 9.36279C5.36533 9.35293 5.40785 9.35382 5.43946 9.36115C5.47405 9.36918 5.47439 9.37912 5.46468 9.36629L5.85311 9.07246C5.77232 8.96565 5.65418 8.91099 5.54955 8.88671C5.44195 8.86174 5.32452 8.86263 5.2136 8.88801L5.32223 9.36279ZM5.47757 9.38194C5.54211 9.45392 5.62685 9.49326 5.70119 9.51742C5.77834 9.54249 5.86851 9.55882 5.96777 9.57002C6.16638 9.59244 6.43715 9.59799 6.78854 9.59208L6.78036 9.10511C6.43272 9.11095 6.18811 9.10475 6.02239 9.08605C5.93949 9.0767 5.88526 9.06512 5.85171 9.05422C5.81535 9.0424 5.82307 9.03769 5.84022 9.05682L5.47757 9.38194ZM6.79517 9.59188C7.32577 9.5685 7.91447 9.55688 8.07588 9.55688V9.06983C7.90555 9.06983 7.30945 9.0817 6.77373 9.10531L6.79517 9.59188ZM8.07588 9.55688C8.19965 9.55688 8.32444 9.52885 8.43084 9.48741C8.53324 9.44753 8.64365 9.3854 8.72054 9.29828L8.35536 8.97601C8.34931 8.98287 8.31755 9.00885 8.25407 9.03358C8.1946 9.05674 8.12983 9.06983 8.07588 9.06983V9.55688ZM8.72528 9.29275C8.71551 9.30451 8.71418 9.30031 8.73935 9.28786C8.76189 9.27671 8.79507 9.26418 8.83895 9.25214C8.92673 9.22806 9.03717 9.21145 9.14638 9.20558C9.25762 9.1996 9.35151 9.20564 9.40927 9.21818C9.44004 9.22487 9.44283 9.2297 9.43197 9.22259C9.41935 9.21434 9.36074 9.16849 9.36074 9.07841H9.84778C9.84778 8.94134 9.76103 8.85585 9.69853 8.81497C9.63777 8.77524 9.56892 8.75446 9.51268 8.74224C9.39642 8.71698 9.25484 8.712 9.12023 8.71924C8.9836 8.72658 8.83782 8.74742 8.71012 8.78244C8.64626 8.79996 8.58188 8.82239 8.52342 8.8513C8.46761 8.87891 8.40185 8.91986 8.35062 8.98155L8.72528 9.29275ZM9.36074 9.07841C9.36074 9.0567 9.37178 9.03656 9.38184 9.02691C9.38787 9.02113 9.3841 9.02772 9.35982 9.03318C9.31007 9.04435 9.22951 9.03762 9.1556 8.99575L8.91552 9.41951C9.09042 9.5186 9.29421 9.54711 9.46661 9.50837C9.63127 9.47136 9.84778 9.34221 9.84778 9.07841H9.36074ZM9.1494 8.99235C9.04207 8.9356 8.90782 8.88536 8.75457 8.9225C8.61397 8.95658 8.50706 9.05382 8.41987 9.14644L8.77451 9.48027C8.81096 9.44155 8.83632 9.41905 8.85415 9.40605C8.871 9.39376 8.87507 9.39444 8.86929 9.39584C8.84933 9.40068 8.85133 9.38568 8.92172 9.42291L9.1494 8.99235ZM8.41296 9.15409C8.36309 9.21178 8.32449 9.23382 8.29543 9.24324C8.26643 9.25266 8.22431 9.25685 8.1549 9.24066L8.04425 9.71497C8.17626 9.74576 8.31185 9.74996 8.44576 9.70651C8.57961 9.66307 8.68911 9.57939 8.78141 9.47262L8.41296 9.15409ZM8.17063 9.24489C8.05225 9.20877 7.92486 9.20602 7.81403 9.22433C7.7092 9.24166 7.58163 9.28426 7.48974 9.37536L7.83266 9.72123C7.82583 9.728 7.82551 9.72558 7.83902 9.71979C7.85145 9.71446 7.86994 9.70874 7.89343 9.70486C7.94254 9.69675 7.99287 9.69986 8.02851 9.71074L8.17063 9.24489ZM7.51877 9.35077C7.49644 9.36687 7.48246 9.37406 7.47457 9.37727C7.47089 9.37877 7.46876 9.37931 7.46788 9.3795C7.46707 9.37967 7.46662 9.37971 7.46615 9.37972C7.46575 9.37973 7.44112 9.38071 7.37103 9.33901L7.12202 9.75758C7.22964 9.82161 7.34719 9.86957 7.47712 9.86664C7.61078 9.86363 7.71767 9.80781 7.80363 9.74582L7.51877 9.35077ZM7.36036 9.33302C7.24794 9.27357 7.12684 9.23335 6.99324 9.2358C6.85922 9.23826 6.73798 9.28319 6.6244 9.35075L6.87341 9.76933C6.93755 9.73118 6.97626 9.72324 7.00219 9.72276C7.02854 9.72228 7.06738 9.72904 7.13269 9.76357L7.36036 9.33302ZM6.64665 9.33903C6.60788 9.35697 6.57876 9.36833 6.55655 9.37515C6.53432 9.38198 6.52415 9.38263 6.52235 9.38267C6.52226 9.38267 6.52875 9.38276 6.53733 9.38632C6.54533 9.38964 6.54664 9.39247 6.54123 9.38711L6.19831 9.73297C6.28899 9.82288 6.40203 9.87277 6.53413 9.86957C6.64725 9.86684 6.7563 9.82495 6.85117 9.78105L6.64665 9.33903ZM6.54123 9.38711C6.36991 9.21725 6.1252 9.23071 5.93403 9.33409L6.16572 9.7625C6.19952 9.74422 6.2174 9.7444 6.21901 9.74448C6.21966 9.74452 6.21698 9.74444 6.21225 9.74241C6.2074 9.74034 6.20245 9.73707 6.19831 9.73297L6.54123 9.38711ZM5.93519 9.33347C5.91268 9.34549 5.90255 9.34741 5.90164 9.34756C5.90146 9.34759 5.90293 9.34735 5.90548 9.3475C5.90806 9.34765 5.91007 9.34809 5.911 9.34837C5.91263 9.34884 5.90553 9.34718 5.88795 9.3342C5.86992 9.32089 5.84557 9.2992 5.81294 9.26436L5.45746 9.59729C5.54185 9.6874 5.64412 9.7777 5.77408 9.81577C5.91991 9.85849 6.05224 9.82309 6.16457 9.76312L5.93519 9.33347ZM5.81215 9.26351C5.76536 9.21403 5.71804 9.16717 5.67021 9.12934C5.62283 9.09186 5.56172 9.05244 5.48638 9.03329C5.30885 8.98815 5.17261 9.08012 5.08911 9.14911L5.39933 9.52458C5.42679 9.50189 5.43434 9.50027 5.42811 9.50268C5.42348 9.50447 5.41427 9.50731 5.40156 9.50826C5.38853 9.50922 5.37635 9.50785 5.36638 9.50532C5.3488 9.50085 5.34767 9.4952 5.36805 9.51132C5.38798 9.52708 5.41618 9.55364 5.45825 9.59814L5.81215 9.26351ZM5.08911 9.14911C5.06232 9.17124 5.0602 9.16757 5.07502 9.16294C5.08455 9.15996 5.09807 9.15749 5.11391 9.1582C5.12957 9.1589 5.14151 9.16245 5.14831 9.16518C5.15798 9.16906 5.1505 9.16858 5.12017 9.14036C5.09137 9.11358 5.05399 9.07336 5.00192 9.01313L4.63347 9.33165C4.68803 9.39476 4.73951 9.45146 4.78846 9.49699C4.83588 9.5411 4.89504 9.58834 4.96692 9.61718C5.04839 9.64988 5.13491 9.65446 5.22014 9.62786C5.29495 9.60451 5.35503 9.56119 5.39933 9.52458L5.08911 9.14911ZM5.0082 9.0207C4.91201 8.8999 4.80714 8.79282 4.68334 8.7269C4.54787 8.65477 4.40464 8.6397 4.25783 8.67852L4.38233 9.14939C4.41324 9.14121 4.42996 9.14377 4.45443 9.1568C4.49058 9.17605 4.54566 9.22169 4.62719 9.32408L5.0082 9.0207ZM4.25783 8.67852C4.22949 8.68601 4.218 8.68553 4.21717 8.68548C4.21712 8.68548 4.21773 8.68551 4.21887 8.68572C4.22003 8.68594 4.22153 8.68629 4.22326 8.68683C4.22701 8.68801 4.23012 8.68956 4.23213 8.6908C4.23585 8.69311 4.23006 8.6908 4.21619 8.67198C4.20197 8.6527 4.18363 8.62207 4.16068 8.57403L3.72121 8.78399C3.77843 8.90376 3.85375 9.0293 3.97558 9.1048C4.11377 9.19044 4.25905 9.18198 4.38233 9.14939L4.25783 8.67852ZM4.16448 8.58239C4.11659 8.4716 4.04559 8.36935 3.96727 8.2917C3.92792 8.25269 3.88219 8.21536 3.83137 8.18648C3.78295 8.15895 3.71404 8.13007 3.6329 8.13007V8.61711C3.59915 8.61711 3.58355 8.60584 3.59068 8.60989C3.59539 8.61257 3.60742 8.62077 3.62435 8.63756C3.65858 8.6715 3.69421 8.72196 3.71741 8.77563L4.16448 8.58239ZM3.6329 8.13007C3.65909 8.13007 3.6599 8.14046 3.634 8.12074C3.61102 8.10324 3.58132 8.07236 3.55173 8.02863C3.48887 7.9357 3.45872 7.83428 3.46149 7.77389L2.97495 7.75159C2.96587 7.94964 3.04828 8.15364 3.14833 8.30153C3.20019 8.3782 3.26453 8.45157 3.33893 8.50823C3.41041 8.56266 3.51192 8.61711 3.6329 8.61711V8.13007ZM3.46174 7.76274C3.46174 7.76472 3.46182 7.78054 3.45549 7.80328C3.44994 7.82318 3.43141 7.8774 3.3739 7.92016C3.30627 7.97046 3.23077 7.9718 3.17997 7.95871C3.13737 7.94774 3.1113 7.92747 3.10396 7.92155C3.08793 7.90864 3.08601 7.90189 3.09661 7.91754C3.10485 7.9297 3.11671 7.94956 3.13111 7.97812L3.56599 7.75881C3.54485 7.71689 3.52264 7.67801 3.49978 7.64428C3.47928 7.61404 3.44921 7.57426 3.4095 7.54226C3.3903 7.5268 3.35349 7.50047 3.30146 7.48706C3.24121 7.47155 3.15757 7.47408 3.08327 7.52933C3.0191 7.57705 2.99539 7.63999 2.98633 7.67251C2.97647 7.70786 2.9747 7.7402 2.9747 7.76274H3.46174ZM3.12777 7.97123C3.1808 8.08515 3.26298 8.18339 3.35659 8.25462C3.44758 8.32386 3.56929 8.38217 3.70399 8.38217V7.89512C3.70836 7.89512 3.68789 7.8947 3.65152 7.86702C3.61776 7.84134 3.58738 7.80449 3.56932 7.76569L3.12777 7.97123ZM10.1293 2.04284L9.76201 2.14856L9.89674 2.6166L10.264 2.51088L10.1293 2.04284ZM6.46099 8.47718L6.01077 8.37146L5.89942 8.8456L6.34965 8.95133L6.46099 8.47718ZM2.78457 1.54218C2.76626 1.39391 2.75486 1.29951 2.75282 1.22772C2.75088 1.15942 2.75882 1.13744 2.76271 1.12888L2.31948 0.927004C2.27192 1.03141 2.26302 1.13786 2.26597 1.24156C2.26882 1.34177 2.28404 1.46293 2.3012 1.60188L2.78457 1.54218ZM2.76271 1.12888C2.76668 1.12017 2.77835 1.09932 2.83218 1.05503C2.88857 1.00862 2.96855 0.954163 3.0941 0.869152L2.82103 0.465861C2.70321 0.54564 2.60079 0.614687 2.5227 0.678952C2.44205 0.745322 2.36717 0.822303 2.31948 0.927003L2.76271 1.12888ZM6.61858 9.88896C6.61261 9.64551 6.61262 9.64551 6.61263 9.64551C6.61263 9.64551 6.61264 9.64551 6.61264 9.64551C6.61264 9.64551 6.61264 9.64551 6.61263 9.64551C6.6126 9.64551 6.61254 9.64551 6.61245 9.64551C6.61227 9.64552 6.61197 9.64553 6.61155 9.64554C6.6107 9.64555 6.60936 9.64558 6.60756 9.64562C6.60397 9.6457 6.59851 9.6458 6.59138 9.64592C6.57711 9.64616 6.55614 9.64645 6.52986 9.64663C6.47723 9.64701 6.40367 9.64698 6.32023 9.64537C6.15016 9.64209 5.95086 9.63239 5.80366 9.60904L5.72734 10.0901C5.90945 10.119 6.13669 10.129 6.31084 10.1323C6.3995 10.134 6.47747 10.1341 6.53334 10.1337C6.56131 10.1335 6.58383 10.1332 6.59949 10.1329C6.60732 10.1328 6.61344 10.1326 6.61767 10.1326C6.61979 10.1325 6.62144 10.1325 6.62259 10.1325C6.62317 10.1324 6.62362 10.1324 6.62395 10.1324C6.62411 10.1324 6.62424 10.1324 6.62434 10.1324C6.62439 10.1324 6.62444 10.1324 6.62447 10.1324C6.62449 10.1324 6.62451 10.1324 6.62452 10.1324C6.62453 10.1324 6.62455 10.1324 6.61858 9.88896ZM9.33176 0.702747C9.4438 0.918967 9.44376 0.918983 9.44374 0.918998C9.44373 0.919003 9.4437 0.919018 9.44368 0.919027C9.44364 0.919046 9.44361 0.919063 9.44358 0.91908C9.44351 0.919112 9.44346 0.91914 9.44341 0.919164C9.44332 0.919211 9.44327 0.91924 9.44325 0.919251C9.4432 0.919273 9.4433 0.919224 9.44352 0.91911C9.44398 0.91888 9.44495 0.918391 9.44639 0.917678C9.44929 0.916248 9.45403 0.913954 9.46021 0.911088C9.47276 0.905271 9.49035 0.897544 9.51013 0.889989C9.53027 0.882296 9.55008 0.875793 9.56746 0.871485C9.58631 0.866811 9.59395 0.866836 9.59222 0.866813L9.59873 0.379812C9.49581 0.378436 9.39319 0.413294 9.33638 0.434991C9.30369 0.447475 9.27552 0.459876 9.25545 0.469178C9.24532 0.473871 9.23701 0.477884 9.23096 0.480871C9.22793 0.482367 9.22544 0.483614 9.22355 0.484568C9.22261 0.485046 9.22182 0.485451 9.22118 0.485779C9.22086 0.485943 9.22057 0.486088 9.22033 0.486213C9.22021 0.486275 9.2201 0.486333 9.22 0.486385C9.21995 0.486411 9.2199 0.486436 9.21985 0.48646C9.21983 0.486471 9.2198 0.486488 9.21979 0.486494C9.21976 0.48651 9.21972 0.486527 9.33176 0.702747ZM9.59222 0.866813C9.59049 0.86679 9.59811 0.866968 9.6168 0.87213C9.63403 0.876887 9.65362 0.883897 9.67352 0.892102C9.69306 0.900159 9.71041 0.908331 9.72278 0.914463C9.72888 0.917484 9.73354 0.919897 9.73639 0.921399C9.73781 0.922148 9.73877 0.922661 9.73922 0.922902C9.73944 0.923021 9.73953 0.923072 9.73949 0.923049C9.73947 0.923037 9.73941 0.923007 9.73932 0.922958C9.73928 0.922933 9.73922 0.922904 9.73916 0.922869C9.73913 0.922852 9.7391 0.922834 9.73906 0.922814C9.73904 0.922804 9.73901 0.922788 9.73901 0.922784C9.73898 0.922768 9.73895 0.922751 9.85661 0.709539C9.97427 0.496327 9.97423 0.49631 9.9742 0.496292C9.97419 0.496286 9.97416 0.496269 9.97414 0.496256C9.97409 0.496231 9.97405 0.496205 9.974 0.496178C9.9739 0.496123 9.97379 0.496063 9.97367 0.495997C9.97343 0.495866 9.97315 0.495715 9.97284 0.495542C9.97221 0.495198 9.97142 0.494773 9.97049 0.494271C9.96863 0.493269 9.96619 0.491959 9.9632 0.490386C9.95723 0.487247 9.94905 0.483023 9.93906 0.478074C9.91926 0.468263 9.89148 0.455147 9.85917 0.441827C9.80302 0.418677 9.70151 0.381186 9.59873 0.379812L9.59222 0.866813ZM5.05465 9.90929C5.0739 9.90929 5.0773 9.91169 5.07031 9.90944C5.06325 9.90716 5.037 9.89716 5.01155 9.86703L5.38363 9.55276C5.28987 9.44176 5.14994 9.42224 5.05465 9.42224V9.90929ZM5.128 9.94327C5.2781 9.98802 5.52991 10.0587 5.72734 10.0901L5.80366 9.60904C5.64119 9.58326 5.4167 9.52111 5.26718 9.47653L5.128 9.94327Z" fill="#0A463C" mask="url(#path-1-inside-1_24_26715)"/>
</svg>
