<svg width="194" height="66" viewBox="0 0 194 66" fill="none" xmlns="http://www.w3.org/2000/svg">
<path fill-rule="evenodd" clip-rule="evenodd" d="M19.2341 0.889451C18.3713 1.09599 18.1141 1.18526 17.5339 1.47975C16.142 2.18628 16.3747 1.83928 8.89273 14.3675C0.9409 27.6824 1.37889 26.9297 1.14332 27.6867C0.911526 28.4318 0.894806 29.742 1.10658 30.5619C1.40855 31.7308 2.2084 32.86 3.21076 33.5323C3.50367 33.7288 7.33507 36.028 11.7249 38.6414C17.2064 41.9049 19.9135 43.4645 20.3676 43.6209C20.8798 43.7973 21.2309 43.8495 21.9261 43.8527C23.375 43.8595 24.5639 43.4044 25.6014 42.4459L26.1768 41.9142L27.4581 42.0683C29.9555 42.3686 33.0135 42.243 35.4332 41.7406C38.3528 41.1344 41.3753 39.8299 43.4608 38.2758C44.3254 37.6315 45.525 36.4587 45.8413 35.9487C46.0884 35.5502 46.3222 34.9589 46.2327 34.9589C46.2035 34.9589 45.8763 35.1474 45.5056 35.3779C42.6826 37.1329 36.8287 38.542 32.2217 38.5754C30.5868 38.5873 28.8272 38.4366 28.5411 38.2602C28.4603 38.2104 30.23 35.1708 34.4278 28.1499C37.7292 22.6284 40.5061 17.9518 40.5989 17.7576L40.7677 17.4043L41.9495 17.4416C43.0886 17.4774 43.157 17.4914 43.8406 17.8291C44.6086 18.2084 44.9035 18.2504 45.3867 18.0489C45.9396 17.8184 46.2007 16.7838 46.1983 14.8329C46.1973 13.9264 46.1615 13.6237 46.0182 13.3087C45.6965 12.6015 45.2968 12.5521 43.8455 13.0399L42.8696 13.3679L41.5912 13.0464C40.4204 12.752 40.2926 12.6984 40.0754 12.4121C39.945 12.2399 39.6361 11.9083 39.3889 11.675C38.7664 11.0872 22.4838 1.39641 21.6427 1.11305C21.0506 0.913578 19.6693 0.78538 19.2341 0.889451ZM21.4538 2.04422C21.7395 2.14367 25.5862 4.37694 30.002 7.00708C37.1963 11.2922 38.9028 12.3349 38.7213 12.3349C38.691 12.3349 38.0557 12.1889 37.3095 12.0106C36.5633 11.8322 35.4427 11.5818 34.8193 11.4539C34.1719 11.3213 33.3575 11.0772 32.9202 10.885C31.7455 10.3686 30.7441 10.2241 28.3018 10.2186C26.3815 10.2142 26.1701 10.2305 25.5154 10.4342C24.5905 10.7218 23.1026 11.4702 21.6406 12.3833C20.301 13.2199 19.937 13.3906 19.493 13.3906C19.156 13.3906 18.6201 13.2064 18.6201 13.0905C18.6201 13.0521 18.9233 12.7956 19.2939 12.5207C19.8955 12.0742 19.9502 12.0079 19.8048 11.9019C19.6962 11.8226 19.6627 11.7181 19.7042 11.5876C19.7567 11.4225 19.7264 11.3922 19.5092 11.3922C19.258 11.3922 19.256 11.3878 19.423 11.2037C19.5898 11.0197 19.588 11.0151 19.3484 11.0151C18.9896 11.0151 17.7784 11.5928 16.9747 12.1473C16.0331 12.7969 15.7553 13.2221 15.7126 14.0788C15.6821 14.6924 15.7069 14.7943 16.0679 15.5319C16.2813 15.9682 16.4328 16.3852 16.4046 16.4587C16.3764 16.532 16.1022 16.9387 15.7955 17.3622C14.5972 19.0165 13.7325 20.9853 13.0874 23.5281C12.6266 25.3445 12.5139 25.6171 12.1027 25.9093C11.6224 26.2506 11.544 26.5232 11.4424 28.2041C11.3909 29.0568 11.3306 29.8119 11.3085 29.8822C11.2864 29.9524 11.2428 30.1265 11.2114 30.2691C11.1802 30.4117 11.0928 30.5284 11.0173 30.5284C10.8548 30.5284 10.6602 29.8966 10.458 28.7118C10.3804 28.2571 10.2946 27.8492 10.2674 27.8054C10.2403 27.7615 10.1156 27.7452 9.99031 27.7691C9.86496 27.793 9.67568 27.7661 9.56951 27.7095C9.40383 27.621 9.37228 27.6363 9.3464 27.8184C9.31665 28.0272 9.17969 28.0648 8.88792 27.9441C8.78534 27.9018 8.7383 27.9446 8.72734 28.0901C8.70741 28.3534 8.52388 28.4667 8.30597 28.3503C8.04197 28.2093 8.09071 28.5099 8.4299 29.1144C8.58991 29.3995 8.95413 30.1631 9.2392 30.8112C10.4709 33.611 11.0215 34.2977 11.7307 33.9188C12.0029 33.7735 12.2548 33.2038 12.3814 32.4479C12.4433 32.0779 12.6082 31.5328 12.7479 31.2366L13.0018 30.6979L13.5116 31.8622C14.7562 34.7047 15.671 36.192 16.9549 37.4609C18.7024 39.1881 21.605 40.7887 24.2191 41.4667L25.0479 41.6816L24.8484 41.8936C24.5191 42.2435 23.5786 42.6892 22.8484 42.8413C22.0307 43.0116 21.2856 42.9504 20.462 42.6449C19.775 42.3901 3.91436 32.9534 3.32978 32.4517C2.8064 32.0024 2.34763 31.2893 2.08561 30.5177C1.9137 30.0117 1.88772 29.764 1.92239 28.9649C1.95762 28.1509 2.00494 27.9273 2.25138 27.4095C2.7689 26.3219 16.3383 3.72198 16.7643 3.23811C17.882 1.96852 19.8194 1.47532 21.4538 2.04422ZM51.6529 10.585C49.8949 11.2109 49.4119 13.3839 50.7668 14.5711C51.3018 15.0399 51.8458 15.1978 52.7201 15.138L53.4742 15.0864V26.5108V37.9353L52.8866 37.8792C52.0788 37.8021 51.5758 37.8958 51.0475 38.2218C49.7985 38.9924 49.6238 40.7573 50.6987 41.746C51.3883 42.3804 51.6285 42.4431 53.002 42.3471C54.5259 42.2405 57.9372 42.2411 59.3373 42.3481C60.6162 42.4459 60.9556 42.3699 61.5221 41.859C62.5565 40.9264 62.6065 39.4686 61.6372 38.5013C61.0524 37.9177 60.4897 37.7522 59.5181 37.8781C59.1292 37.9284 58.6516 37.9709 58.4568 37.9725L58.1026 37.9754V34.0162V30.057H60.5018H62.9011L66.415 35.4067C68.3477 38.3489 70.084 40.9178 70.2734 41.1151C70.4629 41.3124 70.8889 41.6072 71.2202 41.7701C71.7614 42.0364 71.9435 42.0735 73.0148 42.1349C73.6706 42.1725 74.7598 42.2555 75.4351 42.3196C76.8638 42.455 77.1852 42.4134 77.788 42.015C79.3857 40.9588 79.0077 38.478 77.166 37.9322C76.7737 37.8158 76.5172 37.8183 75.1564 37.9516C74.2985 38.0357 73.5811 38.086 73.5621 38.0635C73.5431 38.041 72.2929 36.127 70.7839 33.8103L68.0401 29.598L68.715 29.3943C71.8859 28.4372 74.133 26.1823 74.987 23.1004C75.2184 22.2656 75.2406 22.0376 75.2417 20.4889C75.2427 19.0434 75.2118 18.6693 75.0327 17.9625C74.11 14.3217 71.1595 11.9156 66.6054 11.0901C65.6171 10.9109 65.0066 10.8865 59.9444 10.824C55.5146 10.7694 54.1875 10.7243 53.4742 10.6041C52.3933 10.422 52.1189 10.4191 51.6529 10.585ZM99.3324 10.5987C96.336 11.0605 93.5511 12.4496 91.3166 14.5973C89.0176 16.8068 87.4667 19.3929 86.7345 22.2382C86.3173 23.8593 86.2188 24.8888 86.2775 27.0196C86.3514 29.6999 86.7449 31.3448 87.8504 33.592C90.076 38.1166 93.9203 41.1567 98.7184 42.1865C99.9593 42.4528 103.329 42.4287 104.607 42.1443C107.532 41.493 109.947 40.1637 112.087 38.0267C113.763 36.3527 114.933 34.5687 115.806 32.3559C116.579 30.3955 116.887 28.7093 116.89 26.4277C116.894 23.6243 116.357 21.3881 115.087 18.9129C112.751 14.3612 108.281 11.1496 103.444 10.5489C102.362 10.4146 100.371 10.4388 99.3324 10.5987ZM138.732 10.592C132.277 11.6391 127.244 16.5839 125.901 23.1986C125.712 24.1305 125.686 24.5292 125.69 26.4749C125.695 28.4053 125.722 28.816 125.907 29.6686C126.218 31.1043 126.63 32.3271 127.197 33.4978C129.363 37.9716 133.163 41.0448 137.87 42.1293C138.495 42.2732 139.183 42.3388 140.468 42.3763C141.974 42.4203 142.377 42.3998 143.387 42.2277C147.242 41.5707 150.64 39.4958 153.025 36.3441C153.524 35.684 153.692 35.2585 153.692 34.6488C153.692 33.5802 153.067 32.6233 152.139 32.2697C151.747 32.1201 151.615 32.1114 151.166 32.2055C150.517 32.3413 150.115 32.6429 149.626 33.3618C147.76 36.1046 144.46 37.7887 140.957 37.7863C136.219 37.7831 132.244 34.8324 130.79 30.2393C130.058 27.9275 130.065 24.8296 130.807 22.4685C131.869 19.0884 134.455 16.4324 137.729 15.3583C139.626 14.7356 142.51 14.7381 144.435 15.3639C145.284 15.6399 146.38 16.2202 146.908 16.6728L147.351 17.0523L147.152 17.498C146.853 18.1664 146.873 19.19 147.197 19.8975C147.542 20.6479 148.185 21.3039 148.884 21.617C149.395 21.8457 149.548 21.8703 150.276 21.8408C150.905 21.8154 151.203 21.7545 151.564 21.5774C152.163 21.2839 152.757 20.691 153.095 20.0495C153.331 19.6008 153.36 19.4493 153.36 18.6507C153.361 18.0213 153.309 17.6061 153.186 17.2535C152.908 16.4577 152.171 15.4572 151.119 14.4474C149.093 12.5027 146.773 11.2762 144.067 10.718C142.846 10.4663 139.931 10.3975 138.732 10.592ZM175.826 10.5431C170.773 11.2522 166.352 14.542 163.993 19.3481C161.696 24.0279 161.887 29.9056 164.484 34.4471C166.771 38.4484 170.454 41.2197 174.708 42.1413C175.959 42.4124 178.535 42.4771 179.928 42.2726C183.181 41.7946 185.986 40.357 188.404 37.9275C189.645 36.6812 190.471 35.5095 191.328 33.7806C192.096 32.2309 192.492 31.1333 192.815 29.6563C193.001 28.8053 193.027 28.4204 193.027 26.4277C193.027 24.4343 193.002 24.0533 192.817 23.2227C192.393 21.3213 191.544 19.2044 190.611 17.7195C188.389 14.1839 184.709 11.5813 180.725 10.7262C179.693 10.5049 176.854 10.3988 175.826 10.5431ZM25.2793 12.9932C26.0585 13.0956 27.0361 13.181 27.4517 13.183C28.2451 13.1867 29.4506 13.3965 29.6135 13.5591C29.6781 13.6236 29.3484 13.6546 28.5979 13.6546C27.9866 13.6546 27.4043 13.6985 27.3038 13.7522C27.1651 13.8263 27.1211 13.951 27.1211 14.2706C27.1211 15.0233 26.6707 15.2361 25.3004 15.1306L24.5451 15.0726L24.6079 15.7638C24.656 16.2937 24.6405 16.4801 24.5414 16.5622C24.4703 16.621 23.992 16.7555 23.4787 16.8609C22.9652 16.9663 22.5025 17.0951 22.4504 17.1471C22.3984 17.199 22.3296 17.5609 22.2976 17.9514C22.2308 18.767 22.1334 18.907 21.5416 19.0398C20.933 19.1763 20.8871 19.2446 20.8871 20.0144V20.6951L20.4085 21.0979L19.9299 21.5006L19.9944 22.1018L20.0589 22.703L19.4812 23.4665C19.1635 23.8865 18.9035 24.2915 18.9035 24.3664C18.9035 24.4415 18.9885 24.6691 19.0924 24.8723C19.1963 25.0756 19.2813 25.318 19.2813 25.4111C19.2813 25.5041 19.0476 25.8904 18.7618 26.2695C18.1433 27.0901 18.0852 27.4259 18.5229 27.6518C18.6772 27.7314 18.8472 27.8781 18.9007 27.978C19.0407 28.2389 19.0204 28.7839 18.8563 29.176C18.6612 29.6421 18.6774 29.8639 18.9489 30.4483C19.2176 31.0266 19.1215 31.1531 18.7114 30.7609C18.1315 30.2065 17.9708 29.3457 18.3512 28.8322C18.5805 28.5228 18.5896 28.546 17.9241 27.757L17.5587 27.3238L17.8091 26.8132C17.9467 26.5324 18.2281 26.1343 18.4342 25.9285C18.8484 25.5151 18.9012 25.3053 18.6277 25.1592C18.4011 25.0382 18.207 24.4744 18.2942 24.1904C18.3303 24.073 18.6308 23.6946 18.9623 23.3497C19.5917 22.6944 19.6305 22.6027 19.4614 22.1683C19.2271 21.5665 19.4046 20.8644 19.8175 20.7598C20.1895 20.6655 20.3496 20.3804 20.4073 19.7095L20.462 19.0749L20.9675 18.8194C21.7453 18.426 21.7372 18.4393 21.7372 17.5585C21.7372 16.6203 21.6849 16.6662 23.0509 16.4035C23.587 16.3004 24.0705 16.1712 24.1252 16.1167C24.1949 16.0471 24.1917 15.9073 24.1144 15.6498C23.8284 14.6973 24.0023 14.5568 25.4335 14.5835C26.5688 14.6046 26.5643 14.6075 26.4844 13.9003C26.4201 13.3304 26.3416 13.2993 24.8909 13.2676L23.768 13.2431L23.6735 13.8691C23.6216 14.2135 23.5309 14.5429 23.472 14.6011C23.3914 14.6811 21.8674 14.9596 21.4403 14.9725C21.3123 14.9764 21.2744 15.2692 21.3739 15.4869C21.6179 16.0213 21.3279 16.2848 20.1314 16.6154C19.8457 16.6944 19.5138 16.8283 19.3937 16.9128C19.1966 17.052 19.1816 17.1148 19.2381 17.5657C19.3304 18.3036 19.262 18.4177 18.5208 18.7604C17.821 19.084 17.709 19.2325 17.8621 19.6342C18.0476 20.121 17.9822 20.3105 17.4862 20.7251C16.9543 21.1694 16.8172 21.4919 17.0504 21.7492C17.3655 22.0967 17.2265 22.5197 16.5084 23.3996C16.2672 23.6952 16.0698 23.9926 16.0698 24.0605C16.0698 24.1285 16.1942 24.369 16.3463 24.5949C16.6636 25.0664 16.651 25.1284 16.0339 26.1394C15.5913 26.8644 15.5918 27.147 16.0361 27.5532C16.3655 27.8544 16.3776 27.8873 16.3193 28.3261C16.1252 29.7872 16.1164 29.6869 16.4849 30.2197C16.6722 30.4907 16.8255 30.7346 16.8255 30.7618C16.8255 31.0254 15.943 30.2724 15.7031 29.804C15.5367 29.4793 15.5778 28.9763 15.793 28.7034C16.0161 28.4202 15.9716 28.1325 15.6806 27.977C15.3917 27.8227 15.126 27.3151 15.1257 26.9164C15.1253 26.5096 15.2106 26.3201 15.6597 25.7307C15.8333 25.503 15.9754 25.2609 15.9754 25.1929C15.9754 25.1249 15.8691 24.913 15.7392 24.722C15.3794 24.1928 15.4273 23.941 16.0274 23.2054C16.6037 22.4992 16.5805 22.6263 16.3837 21.2569C16.3343 20.9133 16.3576 20.8709 16.8146 20.4719L17.2978 20.0501V19.4593C17.2978 18.7711 17.3606 18.6925 18.1645 18.3749C18.4594 18.2585 18.7205 18.1114 18.7448 18.0481C18.7692 17.9848 18.7459 17.715 18.6931 17.4486C18.5093 16.5206 18.7055 16.3178 19.9968 16.1015C20.8527 15.9581 20.9126 15.8754 20.8318 14.949C20.7794 14.3486 20.7914 14.2242 20.8983 14.2581C20.9701 14.2809 21.5122 14.3267 22.103 14.3599L23.1772 14.4203L23.1109 13.8908C23.0323 13.2634 23.1901 12.9358 23.6006 12.8739C23.7446 12.8522 23.8624 12.8282 23.8624 12.8207C23.8624 12.8132 24.5 12.8907 25.2793 12.9932ZM102.969 15.1659C107.55 15.7573 111.046 19.1388 112.009 23.9099C112.216 24.9373 112.239 27.6846 112.049 28.7373C111.192 33.4922 107.792 36.9821 103.371 37.6472C99.0598 38.2958 95.0884 36.629 92.8133 33.2165C91.1836 30.7721 90.5445 27.5907 91.0261 24.3188C91.9058 18.3408 97.0462 14.4013 102.969 15.1659ZM179.997 15.3028C184.236 16.1924 187.337 19.502 188.225 24.083C188.441 25.1941 188.444 27.5208 188.232 28.703C187.487 32.8496 184.817 36.1091 181.225 37.2535C179.919 37.67 179.421 37.7383 177.73 37.7329C176.435 37.7288 175.955 37.6887 175.247 37.5249C171.064 36.5583 168.025 33.2133 167.232 28.703C167.03 27.5485 167.033 25.2945 167.24 24.1322C167.877 20.552 169.926 17.6854 172.938 16.1638C173.684 15.7867 175.037 15.3593 175.963 15.2085C176.997 15.0398 178.964 15.0858 179.997 15.3028ZM65.3633 15.3546C67.26 15.5489 68.6098 16.0425 69.4734 16.8576C70.3836 17.7166 70.8507 18.9325 70.8507 20.4418C70.8507 23.0194 69.5577 24.6221 66.972 25.2495C65.8526 25.5211 64.2544 25.6205 60.9598 25.6237L58.1026 25.6265V20.4418V15.2571H61.2568C62.9917 15.2571 64.8395 15.3011 65.3633 15.3546ZM39.6537 17.5902C39.3895 18.0434 27.6375 37.7007 27.5406 37.8515L27.4082 38.0574L26.816 37.8881C24.5968 37.2533 22.4116 35.7873 21.972 34.6387C21.7799 34.1364 21.8198 33.9816 22.1911 33.79C22.6054 33.5762 24.2791 33.2622 25.0107 33.2611L25.6571 33.26L25.3501 33.0185C24.9747 32.7234 24.9586 32.5301 25.3029 32.4544C25.4457 32.4229 25.6014 32.388 25.649 32.3767C25.6964 32.3655 25.5795 32.2646 25.3892 32.1525C24.9564 31.8977 24.9343 31.6263 25.3296 31.4223C25.6479 31.258 25.6238 31.094 25.2814 31.094C24.7647 31.094 24.611 30.8487 24.9166 30.5117C25.159 30.2443 24.9868 30.19 24.4966 30.3792C24.2517 30.4738 23.7791 30.637 23.4463 30.7422C22.8709 30.924 22.8354 30.9252 22.7198 30.7674C22.5565 30.5446 22.4557 29.6769 22.5251 29.0918C22.5621 28.7807 22.7104 28.3999 22.9547 27.9896C23.9688 26.2861 24.4784 24.0343 23.9899 23.4147C23.8219 23.2015 23.8096 23.1421 23.9191 23.0702C24.1373 22.9271 24.9458 23.0784 25.7988 23.4219C26.2403 23.5997 26.7581 23.7705 26.9492 23.8013C27.4212 23.8775 28.1516 23.6886 28.6809 23.3537C29.1345 23.0666 29.1924 22.8676 28.8376 22.8154C28.5857 22.7785 28.585 22.7559 28.8241 22.3699L29.0156 22.0605L28.7296 21.9978C28.4069 21.9271 28.3719 21.8082 28.5998 21.5569C28.7486 21.3929 28.7394 21.3845 28.4109 21.3845C28.1057 21.3845 28.0657 21.3572 28.0657 21.1488C28.0657 20.8456 27.9798 20.8521 27.4365 21.1959C26.7811 21.6107 26.3679 21.5609 25.8051 20.9992C25.537 20.7317 24.9155 19.9384 24.7329 19.6306C24.6201 19.4404 25.676 18.8236 26.6752 18.4961C27.2061 18.322 27.7288 18.1796 27.8365 18.1795C27.9442 18.1795 28.3905 18.2898 28.8283 18.4248C29.9882 18.7824 30.9711 18.7713 32.5009 18.3833C33.3833 18.1594 34.0561 18.0595 35.1928 17.9836C36.0264 17.9279 37.3247 17.8056 38.078 17.7118C39.7827 17.4995 39.7029 17.5057 39.6537 17.5902ZM18.7182 35.6814C18.8776 36.1565 19.068 36.5681 19.1413 36.5961C19.2146 36.6242 19.5118 36.5975 19.8018 36.5368C20.4725 36.3964 20.5889 36.467 20.8677 37.183C21.4324 38.6337 21.528 38.7227 22.0742 38.3069C22.5731 37.9271 22.751 38.0074 23.3227 38.8709C23.5973 39.2856 23.9055 39.7207 24.0075 39.8379L24.1931 40.0508L24.6966 39.7673C25.4521 39.3417 25.6408 39.3776 26.281 40.0679C26.8776 40.7113 26.8201 40.7042 27.5683 40.2281L27.8738 40.0337L28.3827 40.3243C28.99 40.6712 29.5146 40.712 29.6933 40.4264C29.8546 40.1687 30.3109 40.1842 31.1355 40.4751C31.4992 40.6034 31.884 40.7085 31.9907 40.7088C32.0973 40.709 32.3311 40.5565 32.5102 40.3701C32.8698 39.9956 32.7448 40.006 34.5461 40.1996C35.1811 40.2678 35.123 40.3053 35.6522 39.4849C35.9609 39.0063 36.2333 38.9437 37.1082 39.1505C38.1675 39.4008 38.576 39.3924 38.8732 39.1138C39.1965 38.8106 39.1892 39.016 38.8551 39.6171C38.4246 40.3914 38.4519 40.3901 36.855 39.7176C36.1705 39.4294 36.0063 39.465 35.8861 39.9278C35.7925 40.2883 35.3011 40.776 34.955 40.8519C34.7812 40.89 34.4871 40.8277 34.087 40.668C33.7544 40.5351 33.42 40.4264 33.3442 40.4264C33.2684 40.4264 32.9971 40.6385 32.7412 40.8977C32.4854 41.1569 32.2426 41.369 32.2018 41.369C32.161 41.369 31.7499 41.1994 31.2884 40.992C30.8269 40.7846 30.4033 40.6149 30.3471 40.6149C30.2908 40.6149 30.1012 40.7407 29.9258 40.8944C29.3056 41.4379 28.9173 41.4364 28.2388 40.8877L27.9869 40.6841L27.3415 40.9857L26.6961 41.2873L26.0694 40.6211C25.7246 40.2548 25.3806 39.955 25.3048 39.955C25.2289 39.955 25.086 40.0442 24.9871 40.1532C24.6666 40.5066 24.3023 40.6439 24.0078 40.5221C23.7058 40.3973 23.511 40.1506 23.0205 39.2716C22.8253 38.9217 22.6287 38.6353 22.5839 38.6353C22.539 38.6353 22.2557 38.7837 21.9544 38.965C21.6531 39.1463 21.3543 39.2948 21.2904 39.2949C21.1579 39.2952 20.948 38.9074 20.5087 37.8501C20.34 37.4441 20.1451 37.0902 20.0756 37.0636C20.0061 37.0369 19.8243 37.1039 19.6715 37.2125C19.5188 37.321 19.3267 37.4098 19.2445 37.4098C19.063 37.4098 18.6788 36.8484 18.4863 36.302C18.292 35.7508 18.1253 34.7887 18.2025 34.6642C18.2955 34.5141 18.3869 34.6945 18.7182 35.6814ZM60.9135 54.1477C59.8062 54.4155 58.8635 55.1321 58.467 56.0074C58.2462 56.4945 58.2442 56.5291 58.2442 59.8925C58.2442 63.2558 58.2462 63.2904 58.467 63.7776C59.1027 65.1808 60.9396 65.9788 62.9405 65.7208C64.1304 65.5673 64.7536 65.2903 65.4303 64.6141C66.3184 63.7264 66.3202 63.7171 66.3202 59.8925C66.3202 56.1789 66.3073 56.1025 65.5456 55.2706C65.0266 54.7039 64.2492 54.2794 63.411 54.105C62.7436 53.9661 61.5822 53.9859 60.9135 54.1477ZM99.0018 54.0659C98.0742 54.2209 97.1035 54.7369 96.6394 55.3219C96.0362 56.0818 96.0316 56.1114 95.9969 59.4538C95.961 62.9063 96.0245 63.5558 96.4623 64.2154C97.2154 65.3501 98.9217 65.9531 100.723 65.7208C102.203 65.5298 103.18 64.9526 103.705 63.9576C103.952 63.4906 103.961 63.4162 103.992 61.7051L104.023 59.9357L102.055 59.9612L100.088 59.9867V60.3167V60.6466L101.481 60.6727L102.874 60.6987L102.872 61.9453C102.87 63.3256 102.761 63.7212 102.249 64.2001C101.711 64.7034 101.13 64.8886 100.088 64.8886C98.9159 64.8886 98.3175 64.702 97.7846 64.1701C97.1708 63.5576 97.1599 63.4823 97.1599 59.8453C97.1599 56.6326 97.1626 56.5878 97.3793 56.1484C97.7884 55.3196 98.7303 54.8492 99.9809 54.8492C101.766 54.8492 102.867 55.7193 102.872 57.1352L102.874 57.6772H103.441H104.008V57.1284C104.008 56.3775 103.784 55.7839 103.296 55.2423C102.835 54.7303 101.98 54.268 101.193 54.1047C100.713 54.005 99.4954 53.9835 99.0018 54.0659ZM47.7797 54.1537C47.7427 54.1906 47.7124 56.7801 47.7124 59.9082V65.5956H51.4491H55.1859L55.1565 65.2421L55.1272 64.8886L51.9873 64.8638L48.8475 64.8389L48.8231 59.4906L48.7987 54.1422L48.3228 54.1144C48.061 54.0991 47.8166 54.1167 47.7797 54.1537ZM70.7281 54.1579C70.6935 54.1924 70.6651 56.2058 70.6651 58.632C70.6651 62.8963 70.6718 63.0612 70.8655 63.5777C71.4635 65.1727 73.4663 66.0611 75.6398 65.6952C76.9893 65.468 77.9451 64.8097 78.4677 63.7474L78.7411 63.1918L78.769 58.6934L78.7968 54.1951L78.5695 54.1381C78.4445 54.1068 78.1982 54.0949 78.0221 54.1117L77.7021 54.1422L77.6548 58.6199C77.6079 63.0718 77.6064 63.1001 77.3876 63.5432C77.1388 64.0475 76.661 64.4649 76.0438 64.7172C75.5205 64.9309 74.136 64.9498 73.4516 64.7524C72.8491 64.5788 72.0809 63.8409 71.9135 63.2752C71.8306 62.9952 71.7986 61.6794 71.7986 58.5483C71.7986 53.7256 71.8528 54.0951 71.1454 54.0951C70.9506 54.0951 70.7627 54.1233 70.7281 54.1579ZM83.3852 54.1579C83.3505 54.1924 83.3222 56.7801 83.3222 59.9082V65.5956H83.8889H84.4556L84.4606 60.8587C84.4653 56.3759 84.4742 56.134 84.6259 56.3491C84.7141 56.474 86.0428 58.595 87.5785 61.0624L90.3707 65.5485L90.956 65.5766L91.5413 65.6047L91.517 59.8734L91.4926 54.1422L91.0592 54.1141C90.7753 54.0956 90.5884 54.1312 90.517 54.217C90.4388 54.3109 90.4012 55.6476 90.3837 58.9562L90.3591 63.5645L87.4875 58.9476C85.9082 56.4084 84.5505 54.2778 84.4705 54.2129C84.319 54.0902 83.4949 54.0484 83.3852 54.1579ZM108.511 54.1568C108.476 54.192 108.447 56.7801 108.447 59.9082V65.5956H112.273H116.098V65.2186V64.8415H112.84H109.581V62.5808V60.3201L111.824 60.2948L114.067 60.2695L114.096 59.8689L114.126 59.4683H111.853H109.581V57.2059V54.9435H112.845H116.109L116.08 54.5428L116.051 54.1422L112.313 54.1176C110.257 54.104 108.547 54.1217 108.511 54.1568ZM125.615 54.1487C125.576 54.1884 125.544 56.7825 125.544 59.9135V65.6063L128.259 65.5765C130.871 65.5478 130.997 65.5379 131.541 65.3202C132.287 65.0218 133.098 64.2257 133.32 63.5757C133.516 62.9987 133.523 62.1975 133.335 61.5685C133.156 60.965 132.504 60.2245 131.88 59.914L131.419 59.6849L131.824 59.4886C132.405 59.2071 132.834 58.7995 133.103 58.2751C133.295 57.8998 133.336 57.6845 133.334 57.0645C133.331 56.41 133.294 56.2422 133.05 55.7946C132.703 55.156 132.064 54.659 131.221 54.3707C130.651 54.1758 130.384 54.1539 128.141 54.117C126.791 54.0949 125.654 54.1091 125.615 54.1487ZM139.829 54.2129C139.731 54.3331 135.934 65.3437 135.934 65.5063C135.934 65.5555 136.187 65.5956 136.496 65.5956H137.057L137.434 64.4408L137.811 63.2861H140.435H143.06L143.452 64.4173L143.845 65.5485L144.376 65.5768C144.797 65.5992 144.907 65.5758 144.907 65.4639C144.907 65.22 141.107 54.24 140.997 54.1672C140.822 54.0512 139.931 54.0861 139.829 54.2129ZM148.559 54.1579C148.525 54.1924 148.496 56.7801 148.496 59.9082V65.5956H149.063H149.63V62.9538V60.312L151.164 60.3379L152.698 60.3638L154.031 62.9561L155.363 65.5485H155.921C156.241 65.5485 156.471 65.5084 156.46 65.4542C156.451 65.4024 155.846 64.2198 155.116 62.8262C154.387 61.4327 153.813 60.2555 153.841 60.2103C153.869 60.1651 153.963 60.1278 154.051 60.1272C154.348 60.1255 155.173 59.6805 155.519 59.3352C156.204 58.6516 156.486 57.7206 156.321 56.6874C156.116 55.404 155.108 54.4637 153.651 54.1974C153.049 54.0875 148.664 54.0534 148.559 54.1579ZM63.7227 55.1185C64.3081 55.3809 64.7777 55.8166 65.0072 56.3103C65.1672 56.6543 65.1826 56.9686 65.1826 59.8925C65.1826 63.467 65.1728 63.529 64.5134 64.1532C63.9237 64.7116 63.3784 64.8889 62.2586 64.8865C61.4301 64.8847 61.1891 64.8489 60.7945 64.6693C60.2251 64.4101 59.8547 64.0741 59.5815 63.5689C59.387 63.2089 59.3763 63.0551 59.3467 60.1753C59.3263 58.1851 59.3518 56.9945 59.4216 56.6761C59.5911 55.903 60.2734 55.2412 61.2196 54.9322C61.3495 54.8897 61.8595 54.8667 62.3531 54.881C63.0393 54.9008 63.3615 54.9567 63.7227 55.1185ZM130.833 55.1662C132.293 55.7243 132.72 57.5158 131.648 58.5856C131.052 59.1804 130.595 59.2797 128.455 59.2797H126.677V57.1031V54.9264L128.543 54.9651C130.01 54.9957 130.499 55.0386 130.833 55.1662ZM153.502 55.0464C154.107 55.1758 154.697 55.6201 154.983 56.1602C155.151 56.4784 155.203 56.7273 155.203 57.2237C155.203 58.0013 155.058 58.3818 154.592 58.834C154.019 59.3898 153.636 59.4683 151.502 59.4683H149.63V57.2059V54.9435H151.326C152.258 54.9435 153.237 54.9898 153.502 55.0464ZM141.595 58.9155C142.222 60.8131 142.735 62.3925 142.735 62.4252C142.735 62.458 141.689 62.4848 140.41 62.4848C138.593 62.4848 138.095 62.4592 138.126 62.367C138.148 62.3022 138.671 60.7126 139.288 58.8345C139.905 56.9564 140.42 55.4301 140.433 55.4426C140.445 55.4551 140.968 57.0179 141.595 58.9155ZM130.745 60.28C131.416 60.4786 132.086 61.1244 132.251 61.7309C132.52 62.7245 132.17 63.8089 131.428 64.2782C130.696 64.7417 130.449 64.7851 128.519 64.7899L126.724 64.7944L126.699 62.4613L126.674 60.1281H128.453C129.814 60.1281 130.353 60.1639 130.745 60.28Z" fill="white"/>
</svg>
