<svg width="187" height="63" viewBox="0 0 187 63" fill="none" xmlns="http://www.w3.org/2000/svg">
<path fill-rule="evenodd" clip-rule="evenodd" d="M17.7234 0.0359139C16.8868 0.236207 16.6373 0.322775 16.0746 0.608359C14.7248 1.29352 14.9505 0.957022 7.69478 13.1064C-0.0165896 26.0187 0.408156 25.2887 0.179708 26.0228C-0.0450763 26.7453 -0.0612901 28.0159 0.144075 28.8111C0.436918 29.9446 1.21258 31.0396 2.18463 31.6916C2.46868 31.8822 6.18422 34.1119 10.4413 36.6463C15.7571 39.811 18.3823 41.3235 18.8226 41.4752C19.3194 41.6462 19.6598 41.6968 20.334 41.7C21.7391 41.7065 22.8921 41.2653 23.8981 40.3356L24.4561 39.8201L25.6987 39.9695C28.1206 40.2608 31.0861 40.1389 33.4327 39.6517C36.264 39.0639 39.1951 37.7988 41.2175 36.2917C42.0559 35.6668 43.2193 34.5295 43.526 34.035C43.7656 33.6486 43.9924 33.0751 43.9056 33.0751C43.8773 33.0751 43.56 33.2579 43.2005 33.4814C40.4628 35.1833 34.786 36.5498 30.3183 36.5823C28.7328 36.5938 27.0264 36.4476 26.749 36.2766C26.6707 36.2282 28.3869 33.2806 32.4577 26.472C35.6592 21.1175 38.3521 16.5823 38.4422 16.3939L38.6058 16.0514L39.7519 16.0875C40.8565 16.1222 40.9229 16.1359 41.5858 16.4633C42.3306 16.8312 42.6166 16.8719 43.0851 16.6765C43.6214 16.4529 43.8745 15.4496 43.8722 13.5577C43.8712 12.6786 43.8365 12.3851 43.6976 12.0796C43.3856 11.3938 42.998 11.3459 41.5906 11.8189L40.6442 12.137L39.4044 11.8252C38.269 11.5397 38.1451 11.4878 37.9345 11.2101C37.808 11.0432 37.5085 10.7216 37.2688 10.4953C36.665 9.92532 20.8748 0.527546 20.0592 0.252748C19.485 0.0593117 18.1454 -0.0650096 17.7234 0.0359139ZM19.876 1.15576C20.1531 1.25221 23.8835 3.41795 28.1657 5.96855C35.1425 10.1241 36.7973 11.1352 36.6213 11.1352C36.5919 11.1352 35.9758 10.9937 35.2522 10.8207C34.5286 10.6478 33.4418 10.4049 32.8373 10.2809C32.2095 10.1523 31.4197 9.91563 30.9957 9.72923C29.8565 9.22845 28.8853 9.08831 26.5169 9.08292C24.6546 9.07871 24.4496 9.09452 23.8148 9.29198C22.9178 9.57089 21.475 10.2967 20.0572 11.1822C18.758 11.9935 18.4051 12.1591 17.9745 12.1591C17.6477 12.1591 17.128 11.9804 17.128 11.868C17.128 11.8308 17.4221 11.5821 17.7814 11.3154C18.3648 10.8824 18.4178 10.8182 18.2769 10.7153C18.1715 10.6385 18.1391 10.5371 18.1793 10.4106C18.2302 10.2505 18.2008 10.221 17.9902 10.221C17.7466 10.221 17.7447 10.2168 17.9066 10.0382C18.0684 9.85986 18.0666 9.85538 17.8343 9.85538C17.4863 9.85538 16.3117 10.4156 15.5324 10.9533C14.6192 11.5832 14.3498 11.9956 14.3084 12.8264C14.2788 13.4214 14.3029 13.5203 14.6529 14.2356C14.8599 14.6587 15.0069 15.0631 14.9795 15.1343C14.9521 15.2054 14.6863 15.5998 14.3888 16.0105C13.2267 17.6148 12.3882 19.524 11.7626 21.99C11.3157 23.7515 11.2064 24.0158 10.8077 24.2991C10.3419 24.6302 10.2659 24.8945 10.1673 26.5246C10.1174 27.3515 10.059 28.0838 10.0375 28.1519C10.0161 28.22 9.97377 28.3888 9.94336 28.5271C9.91304 28.6655 9.82831 28.7785 9.75512 28.7785C9.59748 28.7785 9.40878 28.1659 9.21267 27.0169C9.13747 26.576 9.05429 26.1804 9.02791 26.1379C9.00163 26.0954 8.88062 26.0796 8.75916 26.1027C8.63761 26.1259 8.45405 26.0999 8.35109 26.0449C8.19042 25.9591 8.15983 25.974 8.13473 26.1505C8.10588 26.353 7.97306 26.3895 7.69011 26.2725C7.59063 26.2314 7.54502 26.2729 7.53439 26.4141C7.51506 26.6694 7.33708 26.7793 7.12576 26.6664C6.86974 26.5296 6.91701 26.8211 7.24594 27.4073C7.40111 27.6838 7.75432 28.4243 8.03076 29.0528C9.22522 31.7679 9.75915 32.4339 10.447 32.0665C10.7109 31.9255 10.9552 31.3731 11.0779 30.64C11.138 30.2812 11.2979 29.7526 11.4334 29.4653L11.6796 28.943L12.174 30.0721C13.3809 32.8286 14.268 34.2709 15.5131 35.5015C17.2078 37.1764 20.0227 38.7286 22.5577 39.3861L23.3614 39.5945L23.168 39.8001C22.8486 40.1395 21.9365 40.5716 21.2285 40.7191C20.4355 40.8843 19.7129 40.8249 18.9142 40.5287C18.248 40.2816 2.86695 31.1302 2.30005 30.6437C1.79249 30.208 1.3476 29.5165 1.0935 28.7682C0.926791 28.2775 0.9016 28.0373 0.935217 27.2624C0.969383 26.473 1.01527 26.2562 1.25426 25.754C1.75613 24.6993 14.9152 2.78279 15.3283 2.31355C16.4122 1.08235 18.2911 0.604066 19.876 1.15576ZM49.1619 9.43825C47.4571 10.0453 46.9886 12.1525 48.3025 13.3038C48.8214 13.7585 49.349 13.9116 50.1968 13.8536L50.9281 13.8036V24.8825V35.9615L50.3583 35.9071C49.5749 35.8323 49.0871 35.9232 48.5748 36.2393C47.3635 36.9866 47.1942 38.6981 48.2365 39.657C48.9053 40.2722 49.1382 40.333 50.4701 40.2399C51.948 40.1365 55.2561 40.1371 56.6139 40.2409C57.8541 40.3357 58.1832 40.262 58.7327 39.7666C59.7358 38.8621 59.7842 37.4485 58.8442 36.5104C58.2771 35.9445 57.7315 35.7839 56.7892 35.906C56.4121 35.9548 55.949 35.996 55.76 35.9976L55.4165 36.0004V32.1609V28.3215H57.7432H60.0699L63.4776 33.5093C65.3518 36.3626 67.0356 38.8538 67.2193 39.0451C67.4031 39.2365 67.8162 39.5223 68.1374 39.6804C68.6623 39.9386 68.8389 39.9746 69.8778 40.0341C70.5138 40.0705 71.57 40.1511 72.2249 40.2132C73.6104 40.3445 73.9221 40.3042 74.5067 39.9178C76.056 38.8936 75.6895 36.4878 73.9035 35.9585C73.523 35.8457 73.2743 35.848 71.9546 35.9773C71.1226 36.0588 70.4269 36.1077 70.4085 36.0858C70.3901 36.064 69.1777 34.2079 67.7143 31.9613L65.0535 27.8764L65.708 27.6788C68.783 26.7507 70.9622 24.5639 71.7904 21.5752C72.0147 20.7656 72.0362 20.5445 72.0373 19.0427C72.0384 17.6408 72.0084 17.2781 71.8346 16.5927C70.9399 13.062 68.0786 10.7286 63.6622 9.92806C62.7038 9.75428 62.1117 9.73069 57.2027 9.67009C52.9068 9.61706 51.6198 9.57337 50.9281 9.45681C49.8799 9.2802 49.6138 9.27736 49.1619 9.43825ZM95.3995 9.4516C92.4937 9.89936 89.7931 11.2465 87.6261 13.3292C85.3966 15.4719 83.8926 17.9798 83.1826 20.739C82.778 22.3111 82.6825 23.3096 82.7394 25.3758C82.8111 27.9752 83.1927 29.5703 84.2647 31.7496C86.4231 36.1373 90.1511 39.0854 94.8041 40.0842C96.0075 40.3424 99.2754 40.319 100.514 40.0432C103.352 39.4116 105.694 38.1225 107.769 36.0502C109.394 34.4268 110.529 32.6967 111.375 30.5508C112.125 28.6497 112.424 27.0145 112.426 24.8019C112.43 22.0832 111.909 19.9146 110.678 17.5143C108.413 13.1003 104.077 9.98584 99.3865 9.40324C98.3379 9.27306 96.4064 9.29647 95.3995 9.4516ZM133.608 9.44502C127.348 10.4605 122.467 15.2558 121.165 21.6705C120.981 22.5741 120.956 22.9608 120.96 24.8476C120.965 26.7197 120.992 27.118 121.171 27.9448C121.472 29.3371 121.872 30.5229 122.421 31.6581C124.522 35.9967 128.207 38.9769 132.772 40.0287C133.378 40.1683 134.046 40.2318 135.291 40.2682C136.751 40.3109 137.143 40.291 138.122 40.1241C141.86 39.4869 145.156 37.4748 147.468 34.4185C147.953 33.7783 148.115 33.3656 148.115 32.7743C148.115 31.7381 147.509 30.8102 146.61 30.4673C146.229 30.3221 146.101 30.3137 145.666 30.4049C145.036 30.5367 144.647 30.8291 144.172 31.5263C142.363 34.1862 139.163 35.8193 135.765 35.817C131.17 35.8139 127.316 32.9524 125.906 28.4983C125.196 26.2564 125.203 23.2522 125.922 20.9625C126.952 17.6845 129.46 15.1089 132.635 14.0672C134.475 13.4634 137.271 13.4658 139.138 14.0727C139.961 14.3403 141.025 14.903 141.537 15.342L141.966 15.71L141.773 16.1423C141.483 16.7904 141.502 17.7831 141.817 18.4692C142.151 19.1968 142.775 19.833 143.453 20.1367C143.948 20.3585 144.096 20.3823 144.803 20.3537C145.413 20.329 145.701 20.27 146.051 20.0983C146.632 19.8136 147.208 19.2387 147.536 18.6165C147.766 18.1814 147.793 18.0345 147.794 17.2601C147.794 16.6497 147.744 16.247 147.624 15.9051C147.355 15.1334 146.64 14.1631 145.62 13.1838C143.655 11.298 141.406 10.1086 138.781 9.56724C137.598 9.32316 134.771 9.25642 133.608 9.44502ZM169.58 9.39766C164.68 10.0853 160.392 13.2756 158.105 17.9364C155.877 22.4747 156.062 28.1746 158.581 32.5788C160.799 36.4591 164.37 39.1466 168.496 40.0403C169.709 40.3032 172.208 40.366 173.558 40.1676C176.713 39.7041 179.432 38.31 181.778 35.9539C182.981 34.7453 183.782 33.6091 184.613 31.9324C185.358 30.4296 185.742 29.3652 186.055 27.9328C186.236 27.1076 186.26 26.7343 186.26 24.8019C186.26 22.8688 186.236 22.4993 186.057 21.6938C185.646 19.8499 184.823 17.797 183.918 16.357C181.763 12.9283 178.195 10.4044 174.33 9.57519C173.33 9.36055 170.577 9.2577 169.58 9.39766ZM23.5858 11.7737C24.3415 11.8729 25.2895 11.9558 25.6926 11.9577C26.4619 11.9613 27.631 12.1647 27.789 12.3224C27.8516 12.385 27.5319 12.415 26.804 12.415C26.2113 12.415 25.6466 12.4576 25.5491 12.5097C25.4145 12.5815 25.372 12.7024 25.372 13.0124C25.372 13.7424 24.9351 13.9487 23.6063 13.8464L22.8739 13.7901L22.9347 14.4605C22.9814 14.9743 22.9664 15.1551 22.8702 15.2347C22.8013 15.2917 22.3375 15.4222 21.8396 15.5244C21.3417 15.6266 20.8929 15.7515 20.8425 15.8019C20.792 15.8523 20.7253 16.2032 20.6943 16.5819C20.6295 17.3728 20.5351 17.5087 19.9611 17.6374C19.3709 17.7697 19.3264 17.836 19.3264 18.5825V19.2426L18.8623 19.6333L18.3981 20.0238L18.4607 20.6068L18.5233 21.1898L17.963 21.9303C17.6549 22.3375 17.4028 22.7303 17.4028 22.8029C17.4028 22.8757 17.4853 23.0965 17.586 23.2936C17.6868 23.4907 17.7692 23.7258 17.7692 23.816C17.7692 23.9062 17.5425 24.2809 17.2654 24.6484C16.6656 25.4442 16.6093 25.7699 17.0337 25.989C17.1834 26.0661 17.3482 26.2085 17.4001 26.3053C17.5358 26.5583 17.5162 27.0869 17.357 27.4671C17.1679 27.919 17.1835 28.1341 17.4469 28.7009C17.7074 29.2617 17.6142 29.3844 17.2165 29.0041C16.6542 28.4664 16.4983 27.6316 16.8672 27.1337C17.0896 26.8337 17.0984 26.8561 16.453 26.091L16.0987 25.6708L16.3415 25.1757C16.4749 24.9034 16.7478 24.5174 16.9477 24.3178C17.3494 23.9168 17.4006 23.7134 17.1354 23.5717C16.9156 23.4544 16.7274 22.9077 16.8119 22.6323C16.8469 22.5184 17.1384 22.1514 17.4598 21.8169C18.0702 21.1815 18.1079 21.0925 17.9438 20.6713C17.7166 20.0877 17.8888 19.4068 18.2891 19.3054C18.65 19.2139 18.8052 18.9375 18.8612 18.2869L18.9142 17.6715L19.4044 17.4236C20.1587 17.0422 20.1508 17.0551 20.1508 16.2009C20.1508 15.2911 20.1001 15.3356 21.4248 15.0808C21.9447 14.9808 22.4136 14.8556 22.4666 14.8026C22.5342 14.7352 22.5311 14.5996 22.4562 14.35C22.1788 13.4262 22.3474 13.29 23.7354 13.3159C24.8363 13.3363 24.832 13.3392 24.7545 12.6534C24.6921 12.1007 24.616 12.0705 23.2092 12.0398L22.1202 12.016L22.0286 12.6231C21.9782 12.957 21.8903 13.2765 21.8332 13.333C21.755 13.4105 20.2771 13.6806 19.8629 13.6931C19.7388 13.6969 19.7021 13.9808 19.7985 14.192C20.0351 14.7102 19.7539 14.9657 18.5936 15.2863C18.3165 15.3629 17.9946 15.4928 17.8782 15.5748C17.6871 15.7097 17.6725 15.7707 17.7273 16.2079C17.8169 16.9235 17.7504 17.0341 17.0317 17.3664C16.3531 17.6802 16.2445 17.8243 16.3929 18.2138C16.5728 18.6859 16.5094 18.8697 16.0284 19.2717C15.5126 19.7026 15.3796 20.0154 15.6057 20.2649C15.9113 20.6018 15.7766 21.0121 15.0801 21.8654C14.8462 22.1521 14.6549 22.4405 14.6549 22.5063C14.6549 22.5722 14.7755 22.8054 14.923 23.0245C15.2306 23.4818 15.2185 23.5419 14.62 24.5223C14.1908 25.2254 14.1913 25.4994 14.6222 25.8934C14.9416 26.1854 14.9533 26.2173 14.8968 26.6429C14.7085 28.0598 14.7 27.9626 15.0573 28.4792C15.239 28.742 15.3876 28.9786 15.3876 29.0049C15.3876 29.2606 14.5318 28.5303 14.2992 28.0761C14.1379 27.7612 14.1777 27.2735 14.3864 27.0087C14.6027 26.7341 14.5596 26.4551 14.2774 26.3044C13.9972 26.1547 13.7396 25.6624 13.7392 25.2758C13.7389 24.8813 13.8216 24.6975 14.2571 24.126C14.4255 23.9051 14.5633 23.6704 14.5633 23.6045C14.5633 23.5385 14.4602 23.333 14.3343 23.1478C13.9853 22.6346 14.0317 22.3904 14.6137 21.6771C15.1726 20.9922 15.15 21.1155 14.9592 19.7875C14.9113 19.4543 14.934 19.4131 15.3771 19.0262L15.8456 18.6172V18.0442C15.8456 17.3768 15.9066 17.3006 16.6862 16.9926C16.9721 16.8797 17.2254 16.7371 17.2489 16.6757C17.2726 16.6143 17.2499 16.3527 17.1987 16.0943C17.0205 15.1944 17.2108 14.9977 18.4631 14.7879C19.2931 14.6489 19.3511 14.5687 19.2728 13.6703C19.222 13.088 19.2336 12.9674 19.3373 13.0003C19.4069 13.0224 19.9326 13.0668 20.5056 13.099L21.5473 13.1576L21.483 12.6441C21.4068 12.0357 21.5598 11.718 21.9579 11.6579C22.0976 11.6369 22.2118 11.6137 22.2118 11.6064C22.2118 11.5991 22.8301 11.6743 23.5858 11.7737ZM98.9261 13.8806C103.369 14.4542 106.759 17.7334 107.693 22.3602C107.893 23.3566 107.916 26.0208 107.732 27.0416C106.9 31.6528 103.604 35.0371 99.3156 35.6821C95.1352 36.3111 91.2839 34.6947 89.0775 31.3854C87.4972 29.0149 86.8774 25.9297 87.3444 22.7568C88.1975 16.9595 93.1825 13.1391 98.9261 13.8806ZM173.625 14.0134C177.735 14.8761 180.743 18.0856 181.604 22.528C181.813 23.6056 181.816 25.8619 181.61 27.0084C180.889 31.0296 178.299 34.1906 174.816 35.3004C173.549 35.7042 173.066 35.7704 171.427 35.7652C170.17 35.7613 169.705 35.7223 169.018 35.5635C164.962 34.6262 162.015 31.3823 161.246 27.0084C161.05 25.8888 161.053 23.7029 161.254 22.5758C161.871 19.1039 163.859 16.324 166.779 14.8484C167.503 14.4827 168.815 14.0682 169.713 13.9219C170.716 13.7584 172.623 13.803 173.625 14.0134ZM62.4576 14.0636C64.297 14.252 65.606 14.7307 66.4435 15.5212C67.3261 16.3543 67.7792 17.5333 67.7792 18.997C67.7792 21.4967 66.5253 23.0509 64.0177 23.6593C62.9322 23.9227 61.3823 24.0191 58.1874 24.0222L55.4165 24.0249V18.997V13.9691H58.4753C60.1577 13.9691 61.9497 14.0117 62.4576 14.0636ZM37.5255 16.2317C37.2693 16.6711 25.8727 35.734 25.7787 35.8802L25.6503 36.08L25.0761 35.9157C22.924 35.3001 20.8048 33.8785 20.3785 32.7646C20.1922 32.2775 20.2309 32.1274 20.591 31.9415C20.9928 31.7342 22.6158 31.4297 23.3254 31.4286L23.9522 31.4276L23.6545 31.1934C23.2905 30.9072 23.2748 30.7198 23.6087 30.6464C23.7472 30.6158 23.8982 30.5819 23.9443 30.571C23.9903 30.5601 23.877 30.4622 23.6924 30.3535C23.2727 30.1065 23.2512 29.8433 23.6346 29.6454C23.9433 29.4861 23.9199 29.327 23.5879 29.327C23.0867 29.327 22.9377 29.0892 23.2341 28.7624C23.4692 28.5031 23.3022 28.4505 22.8268 28.6339C22.5893 28.7256 22.131 28.8839 21.8083 28.986C21.2503 29.1622 21.2158 29.1634 21.1037 29.0104C20.9453 28.7943 20.8476 27.9529 20.9149 27.3854C20.9507 27.0838 21.0946 26.7145 21.3315 26.3165C22.3149 24.6645 22.8091 22.4809 22.3354 21.88C22.1725 21.6732 22.1606 21.6156 22.2667 21.546C22.4783 21.4071 23.2624 21.5538 24.0896 21.8869C24.5178 22.0594 25.0198 22.225 25.2052 22.2549C25.663 22.3288 26.3713 22.1457 26.8845 21.8209C27.3244 21.5424 27.3805 21.3494 27.0365 21.2989C26.7922 21.263 26.7916 21.2411 27.0234 20.8668L27.2092 20.5667L26.9318 20.5059C26.6188 20.4374 26.5849 20.3221 26.8059 20.0784C26.9502 19.9193 26.9413 19.9112 26.6227 19.9112C26.3267 19.9112 26.2879 19.8848 26.2879 19.6826C26.2879 19.3886 26.2047 19.3948 25.6778 19.7283C25.0422 20.1306 24.6415 20.0823 24.0957 19.5376C23.8357 19.2781 23.233 18.5088 23.056 18.2104C22.9465 18.0259 23.9705 17.4278 24.9395 17.1102C25.4544 16.9413 25.9612 16.8032 26.0657 16.8031C26.1701 16.8031 26.603 16.9101 27.0275 17.041C28.1524 17.3878 29.1055 17.377 30.589 17.0008C31.4447 16.7836 32.0972 16.6867 33.1996 16.6131C34.0079 16.5591 35.267 16.4405 35.9975 16.3496C37.6506 16.1437 37.5732 16.1497 37.5255 16.2317ZM17.2231 33.7757C17.3777 34.2365 17.5624 34.6357 17.6335 34.6628C17.7045 34.6901 17.9927 34.6642 18.2739 34.6053C18.9244 34.4691 19.0372 34.5376 19.3076 35.232C19.8552 36.6388 19.9479 36.7251 20.4776 36.3218C20.9615 35.9535 21.1339 36.0314 21.6884 36.8688C21.9547 37.2709 22.2536 37.6929 22.3525 37.8065L22.5325 38.013L23.0207 37.7381C23.7534 37.3254 23.9364 37.3601 24.5572 38.0296C25.1358 38.6536 25.08 38.6466 25.8056 38.185L26.1018 37.9965L26.5954 38.2782C27.1843 38.6146 27.6931 38.6542 27.8664 38.3772C28.0227 38.1274 28.4653 38.1424 29.2649 38.4245C29.6176 38.5489 29.9908 38.6508 30.0943 38.6511C30.1977 38.6513 30.4244 38.5035 30.5981 38.3227C30.9468 37.9595 30.8256 37.9696 32.5724 38.1573C33.1882 38.2235 33.1319 38.2599 33.645 37.4643C33.9444 37.0001 34.2085 36.9394 35.057 37.1399C36.0843 37.3827 36.4805 37.3745 36.7686 37.1044C37.0822 36.8104 37.075 37.0096 36.751 37.5924C36.3336 38.3433 36.3601 38.342 34.8114 37.6899C34.1477 37.4104 33.9884 37.445 33.8719 37.8937C33.7811 38.2433 33.3045 38.7163 32.9689 38.7899C32.8004 38.8268 32.5151 38.7664 32.1272 38.6115C31.8046 38.4826 31.4803 38.3772 31.4069 38.3772C31.3333 38.3772 31.0702 38.5829 30.8221 38.8343C30.574 39.0857 30.3386 39.2914 30.299 39.2914C30.2594 39.2914 29.8608 39.1269 29.4132 38.9257C28.9657 38.7246 28.5548 38.5601 28.5003 38.5601C28.4457 38.5601 28.2619 38.682 28.0918 38.8311C27.4904 39.3581 27.1138 39.3567 26.4558 38.8246L26.2116 38.6272L25.5857 38.9196L24.9598 39.2122L24.352 38.5661C24.0177 38.2109 23.6841 37.9202 23.6105 37.9202C23.5369 37.9202 23.3984 38.0066 23.3025 38.1123C22.9917 38.455 22.6384 38.5882 22.3528 38.4701C22.0599 38.3491 21.871 38.1098 21.3954 37.2574C21.206 36.9181 21.0154 36.6403 20.9719 36.6403C20.9284 36.6403 20.6537 36.7842 20.3615 36.96C20.0693 37.1359 19.7795 37.2799 19.7175 37.28C19.589 37.2802 19.3855 36.9042 18.9595 35.8788C18.7959 35.4852 18.6069 35.1419 18.5395 35.1162C18.4721 35.0903 18.2957 35.1553 18.1476 35.2606C17.9995 35.3658 17.8132 35.4519 17.7335 35.4519C17.5575 35.4519 17.1849 34.9074 16.9982 34.3776C16.8098 33.8431 16.6481 32.9101 16.723 32.7893C16.8132 32.6437 16.9019 32.8187 17.2231 33.7757ZM58.1425 51.6836C57.0687 51.9433 56.1544 52.6383 55.7699 53.4871C55.5558 53.9595 55.5539 53.9931 55.5539 57.2547C55.5539 60.5163 55.5558 60.5499 55.7699 61.0223C56.3864 62.3831 58.1678 63.157 60.1081 62.9068C61.2621 62.7579 61.8664 62.4893 62.5227 61.8335C63.3839 60.9727 63.3856 60.9636 63.3856 57.2547C63.3856 53.6534 63.3732 53.5793 62.6344 52.7726C62.1312 52.223 61.3773 51.8114 60.5645 51.6422C59.9172 51.5075 58.7909 51.5267 58.1425 51.6836ZM95.0789 51.6044C94.1794 51.7546 93.2381 52.2551 92.7879 52.8223C92.203 53.5593 92.1986 53.588 92.1649 56.8292C92.1301 60.1774 92.1916 60.8072 92.6162 61.4469C93.3465 62.5472 95.0013 63.132 96.7478 62.9068C98.1837 62.7216 99.1305 62.1618 99.6401 61.1968C99.8793 60.744 99.8885 60.6718 99.9178 59.0125L99.948 57.2966L98.0402 57.3213L96.1323 57.3461V57.6661V57.986L97.4834 58.0113L98.8345 58.0366L98.8325 59.2455C98.8303 60.584 98.7241 60.9677 98.2277 61.432C97.7062 61.9201 97.1424 62.0998 96.1323 62.0998C94.9957 62.0998 94.4153 61.9188 93.8986 61.403C93.3033 60.809 93.2927 60.736 93.2927 57.209C93.2927 54.0934 93.2953 54.0499 93.5055 53.6238C93.9022 52.8201 94.8157 52.3639 96.0285 52.3639C97.7599 52.3639 98.8273 53.2077 98.8325 54.5808L98.8345 55.1064H99.3841H99.9337V54.5742C99.9337 53.846 99.7164 53.2703 99.2433 52.7451C98.796 52.2486 97.9672 51.8003 97.2041 51.6419C96.7382 51.5452 95.5576 51.5244 95.0789 51.6044ZM45.4058 51.6894C45.3699 51.7252 45.3406 54.2364 45.3406 57.27V62.7854H48.9642H52.588L52.5595 62.4426L52.5311 62.0998L49.4862 62.0757L46.4413 62.0516L46.4176 56.865L46.394 51.6783L45.9325 51.6513C45.6786 51.6365 45.4416 51.6536 45.4058 51.6894ZM67.6603 51.6936C67.6267 51.727 67.5992 53.6795 67.5992 56.0324C67.5992 60.1677 67.6057 60.3276 67.7935 60.8284C68.3734 62.3753 70.3156 63.2368 72.4234 62.8819C73.7321 62.6616 74.659 62.0232 75.1658 60.9931L75.4309 60.4543L75.4579 56.0919L75.4849 51.7296L75.2646 51.6744C75.1433 51.6439 74.9044 51.6324 74.7337 51.6487L74.4233 51.6783L74.3775 56.0206C74.332 60.3379 74.3305 60.3653 74.1184 60.7951C73.8771 61.284 73.4137 61.6888 72.8152 61.9335C72.3077 62.1408 70.9651 62.1591 70.3014 61.9677C69.7171 61.7993 68.9722 61.0838 68.8098 60.5351C68.7294 60.2636 68.6984 58.9876 68.6984 55.9512C68.6984 51.2743 68.751 51.6326 68.065 51.6326C67.876 51.6326 67.6938 51.66 67.6603 51.6936ZM79.9346 51.6936C79.9009 51.727 79.8735 54.2364 79.8735 57.27V62.7854H80.4231H80.9727L80.9774 58.1917C80.982 53.8445 80.9906 53.6098 81.1377 53.8185C81.2233 53.9396 82.5118 55.9964 84.0011 58.3893L86.7089 62.7397L87.2764 62.7669L87.8441 62.7941L87.8204 57.2362L87.7968 51.6783L87.3765 51.6511C87.1012 51.6331 86.9199 51.6676 86.8508 51.7508C86.7749 51.8419 86.7385 53.1382 86.7214 56.3467L86.6976 60.8157L83.9128 56.3384C82.3813 53.8759 81.0646 51.8098 80.987 51.7469C80.8401 51.6278 80.041 51.5873 79.9346 51.6936ZM104.301 51.6925C104.267 51.7266 104.239 54.2364 104.239 57.27V62.7854H107.949H111.658V62.4197V62.054H108.498H105.338V59.8617V57.6694L107.514 57.6449L109.689 57.6204L109.717 57.2318L109.745 56.8433H107.542H105.338V54.6493V52.4553H108.503H111.669L111.641 52.0668L111.613 51.6783L107.988 51.6544C105.994 51.6413 104.335 51.6584 104.301 51.6925ZM120.887 51.6846C120.849 51.7231 120.818 54.2388 120.818 57.2751V62.7957L123.452 62.7668C125.984 62.739 126.106 62.7294 126.634 62.5183C127.357 62.2289 128.144 61.4569 128.359 60.8265C128.55 60.2669 128.556 59.49 128.374 58.88C128.2 58.2948 127.568 57.5767 126.963 57.2755L126.516 57.0534L126.909 56.8631C127.472 56.5901 127.888 56.1947 128.149 55.6863C128.335 55.3222 128.375 55.1135 128.372 54.5122C128.37 53.8775 128.334 53.7148 128.098 53.2807C127.761 52.6615 127.142 52.1794 126.324 51.8999C125.771 51.7109 125.512 51.6896 123.337 51.6539C122.027 51.6324 120.925 51.6462 120.887 51.6846ZM134.671 51.7469C134.577 51.8634 130.894 62.5411 130.894 62.6988C130.894 62.7464 131.139 62.7854 131.439 62.7854H131.984L132.349 61.6655L132.714 60.5457H135.26H137.805L138.185 61.6427L138.566 62.7397L139.081 62.7671C139.49 62.7889 139.596 62.7662 139.596 62.6577C139.596 62.4211 135.911 51.7731 135.804 51.7025C135.635 51.5901 134.771 51.6239 134.671 51.7469ZM143.138 51.6936C143.104 51.727 143.077 54.2364 143.077 57.27V62.7854H143.626H144.176V60.2234V57.6615L145.664 57.6866L147.152 57.7118L148.444 60.2257L149.736 62.7397H150.277C150.587 62.7397 150.81 62.7008 150.8 62.6483C150.791 62.598 150.204 61.4511 149.497 60.0997C148.789 58.7483 148.232 57.6067 148.259 57.5629C148.287 57.5191 148.379 57.4829 148.464 57.4823C148.752 57.4807 149.551 57.0491 149.887 56.7142C150.551 56.0514 150.825 55.1485 150.665 54.1465C150.466 52.9019 149.488 51.99 148.075 51.7319C147.491 51.6253 143.239 51.5922 143.138 51.6936ZM60.8666 52.6251C61.4344 52.8795 61.8898 53.302 62.1124 53.7809C62.2675 54.1145 62.2824 54.4192 62.2824 57.2547C62.2824 60.7211 62.273 60.7812 61.6335 61.3866C61.0616 61.9281 60.5328 62.1 59.4468 62.0977C58.6434 62.0959 58.4097 62.0613 58.0271 61.887C57.4748 61.6357 57.1157 61.3098 56.8507 60.8199C56.6621 60.4708 56.6517 60.3217 56.623 57.5289C56.6032 55.599 56.628 54.4444 56.6957 54.1356C56.86 53.3859 57.5217 52.744 58.4393 52.4444C58.5652 52.4032 59.0598 52.3809 59.5385 52.3947C60.2039 52.4139 60.5164 52.4681 60.8666 52.6251ZM125.947 52.6714C127.363 53.2125 127.778 54.9499 126.738 55.9873C126.16 56.5641 125.717 56.6605 123.641 56.6605H121.917V54.5497V52.4388L123.727 52.4764C125.149 52.506 125.624 52.5476 125.947 52.6714ZM147.931 52.5552C148.517 52.6807 149.09 53.1115 149.367 53.6353C149.531 53.9439 149.58 54.1852 149.58 54.6666C149.58 55.4207 149.44 55.7897 148.988 56.2282C148.432 56.7672 148.061 56.8433 145.992 56.8433H144.176V54.6493V52.4553H145.82C146.725 52.4553 147.675 52.5002 147.931 52.5552ZM136.384 56.3073C136.992 58.1475 137.489 59.6791 137.489 59.7109C137.489 59.7427 136.475 59.7686 135.235 59.7686C133.473 59.7686 132.99 59.7438 133.02 59.6544C133.041 59.5916 133.548 58.05 134.147 56.2287C134.745 54.4074 135.245 52.9272 135.257 52.9394C135.269 52.9515 135.776 54.467 136.384 56.3073ZM125.862 57.6305C126.513 57.8231 127.163 58.4494 127.322 59.0375C127.584 60.0011 127.244 61.0527 126.525 61.5078C125.815 61.9572 125.575 61.9994 123.704 62.004L121.963 62.0083L121.939 59.7458L121.914 57.4832H123.64C124.959 57.4832 125.482 57.5179 125.862 57.6305Z" fill="#0A463C"/>
</svg>
