<svg width="32" height="25" viewBox="0 0 32 25" fill="none" xmlns="http://www.w3.org/2000/svg">
<path d="M1.75607 18.8206L1.69299 18.8149C1.33557 18.7771 0.999164 18.7515 0.999164 18.4765C0.999164 18.1381 1.48274 18.0746 1.75607 18.0746C2.07402 18.077 2.38838 18.1424 2.68117 18.2671L2.72322 18.2883L2.91245 17.8441L2.8704 17.8289C2.51786 17.6781 2.13914 17.599 1.75607 17.5962C0.999164 17.5962 0.494562 17.9558 0.494562 18.4634C0.494562 19.1191 1.14634 19.2037 1.67197 19.246H1.71402C2.17657 19.2883 2.49195 19.3498 2.49195 19.6478C2.49195 19.8805 2.17657 20.0286 1.69299 20.0286C1.33634 20.032 0.983745 19.9523 0.662763 19.7959L0.620712 19.7781L0.410461 20.2223L0.452512 20.2435C0.836743 20.4399 1.26198 20.5414 1.69299 20.5396C2.4499 20.5396 2.99655 20.18 2.99655 19.6512C2.99655 18.9109 2.19759 18.8263 1.73504 18.784M6.52876 18.6502C6.52876 18.7848 6.4756 18.9139 6.38097 19.0091C6.28634 19.1043 6.15799 19.1578 6.02416 19.1578H5.24623V18.1438H6.02416C6.15989 18.1493 6.28825 18.2074 6.38232 18.306C6.47639 18.4045 6.52887 18.5359 6.52876 18.6726M6.02416 17.6573H5.03598C4.96907 17.6573 4.90489 17.6841 4.85758 17.7317C4.81026 17.7793 4.78368 17.8438 4.78368 17.9111V20.5127H5.26726V19.6878H6.04519C6.17672 19.6906 6.30748 19.667 6.42981 19.6183C6.55214 19.5696 6.66357 19.4968 6.75757 19.4042C6.85157 19.3117 6.92624 19.2011 6.97721 19.0791C7.02818 18.9571 7.05442 18.8261 7.05439 18.6937C7.05439 18.4245 6.94807 18.1662 6.7588 17.9758C6.56954 17.7854 6.31285 17.6785 6.04519 17.6785M8.5682 17.9111V20.2589C8.5682 20.3262 8.59478 20.3908 8.6421 20.4384C8.68941 20.486 8.75359 20.5127 8.8205 20.5127H10.7548V20.0262H9.05178V19.3283H10.6497V18.8418H9.05178V18.1438H10.7548V17.6573H8.8205C8.75359 17.6573 8.68941 17.6841 8.6421 17.7317C8.59478 17.7793 8.5682 17.8438 8.5682 17.9111ZM14.4552 19.6667C14.3686 19.793 14.2522 19.8958 14.1164 19.9659C13.9807 20.036 13.8299 20.0713 13.6773 20.0685C13.4189 20.063 13.1729 19.9558 12.9921 19.77C12.8113 19.5842 12.7101 19.3345 12.7101 19.0744C12.7101 18.8164 12.812 18.5689 12.9934 18.3865C13.1748 18.204 13.4208 18.1015 13.6773 18.1015C13.8189 18.1022 13.9585 18.1349 14.0859 18.1971C14.2132 18.2594 14.3251 18.3496 14.4132 18.4611L14.4342 18.4822L14.7916 18.1649L14.7706 18.1358C14.5769 17.9123 14.3201 17.7535 14.0345 17.6805C13.7488 17.6075 13.4478 17.6238 13.1716 17.7271C12.8954 17.8305 12.657 18.016 12.4881 18.259C12.3193 18.5021 12.2281 18.7911 12.2266 19.0876C12.2265 19.4766 12.3787 19.85 12.6502 20.1271C12.9217 20.4041 13.2906 20.5626 13.6773 20.5681C13.9067 20.5733 14.1338 20.5221 14.339 20.4189C14.5442 20.3157 14.7212 20.1636 14.8547 19.9759L14.8757 19.9454L14.4973 19.6493L14.4552 19.6667ZM16.1583 18.1438H17.1254V20.5127H17.609V18.1438H18.5761V17.6573H16.1583V18.1438ZM21.9612 18.6303C21.9613 18.6904 21.9492 18.75 21.9257 18.8053C21.9022 18.8606 21.8678 18.9105 21.8245 18.9521C21.7813 18.9936 21.7301 19.0259 21.6741 19.0469C21.618 19.0679 21.5584 19.0773 21.4986 19.0744H20.5946V18.1438H21.4986C21.5612 18.1437 21.6231 18.1564 21.6806 18.1811C21.7382 18.2058 21.7901 18.242 21.8334 18.2875C21.8766 18.333 21.9102 18.3868 21.9322 18.4457C21.9542 18.5046 21.964 18.5674 21.9612 18.6303ZM22.4448 18.6303C22.4476 18.5035 22.4252 18.3775 22.3789 18.2595C22.3326 18.1416 22.2633 18.0342 22.1752 17.9435C22.0871 17.8529 21.9818 17.7809 21.8656 17.7317C21.7494 17.6826 21.6247 17.6573 21.4986 17.6573H20.3843C20.3174 17.6573 20.2532 17.6841 20.2059 17.7317C20.1586 17.7793 20.132 17.8438 20.132 17.9111V20.5127H20.6156V19.5398H21.2674L21.9402 20.5127H22.5078L21.793 19.4975C21.98 19.4428 22.1444 19.3289 22.2619 19.1726C22.3793 19.0164 22.4434 18.8262 22.4448 18.6303ZM26.1662 19.286C26.1662 19.4879 26.0865 19.6816 25.9445 19.8244C25.8026 19.9672 25.61 20.0474 25.4093 20.0474C25.2086 20.0474 25.016 19.9672 24.8741 19.8244C24.7321 19.6816 24.6524 19.4879 24.6524 19.286V17.6573H24.1688V19.286C24.1688 19.6169 24.2995 19.9343 24.5322 20.1684C24.7648 20.4024 25.0803 20.5339 25.4093 20.5339C25.7383 20.5339 26.0538 20.4024 26.2865 20.1684C26.5191 19.9343 26.6498 19.6169 26.6498 19.286V17.6573H26.1662V19.286ZM30.9389 17.615C30.9005 17.6165 30.8628 17.6268 30.829 17.6451C30.7951 17.6634 30.7658 17.6893 30.7434 17.7208L29.7972 19.0744L28.8511 17.7208C28.8268 17.6935 28.797 17.6718 28.7636 17.6572C28.7302 17.6426 28.6941 17.6354 28.6577 17.6362C28.5908 17.6362 28.5266 17.6629 28.4793 17.7105C28.432 17.7581 28.4054 17.8227 28.4054 17.89V20.5127H28.889V18.5457L29.793 19.857L30.6971 18.5457V20.4916H31.1807V17.8688C31.1807 17.8015 31.1541 17.737 31.1068 17.6894C31.0595 17.6418 30.9953 17.615 30.9284 17.615M7.8954 22.9662H8.54717V24.4891H8.88358V22.9662H9.53535V22.649H7.8954V22.9662ZM11.743 23.5585C11.743 23.7324 11.6743 23.8992 11.5521 24.0221C11.4299 24.1451 11.2641 24.2142 11.0912 24.2142C10.9183 24.2142 10.7526 24.1451 10.6303 24.0221C10.5081 23.8992 10.4394 23.7324 10.4394 23.5585C10.4367 23.4769 10.4501 23.3956 10.479 23.3193C10.5079 23.2431 10.5516 23.1734 10.6076 23.1143C10.7336 22.989 10.9036 22.9187 11.0807 22.9187C11.2578 22.9187 11.4278 22.989 11.5538 23.1143C11.6113 23.1727 11.6565 23.2421 11.6869 23.3184C11.7172 23.3947 11.732 23.4763 11.7304 23.5585H11.743ZM11.0912 22.6067C10.9635 22.601 10.8359 22.6214 10.7162 22.6666C10.5965 22.7119 10.4872 22.7811 10.3948 22.87C10.3025 22.959 10.229 23.0659 10.1789 23.1842C10.1287 23.3025 10.1029 23.4298 10.103 23.5585C10.0946 23.7567 10.1454 23.9529 10.2487 24.1218C10.3521 24.2908 10.5033 24.4247 10.683 24.5065C10.8627 24.5883 11.0625 24.6141 11.2569 24.5807C11.4513 24.5472 11.6313 24.456 11.7737 24.3188C11.9161 24.1816 12.0145 24.0047 12.0562 23.8108C12.0979 23.6169 12.0809 23.4149 12.0075 23.2308C11.9341 23.0466 11.8076 22.8888 11.6443 22.7776C11.481 22.6664 11.2884 22.6069 11.0912 22.6067ZM13.7614 24.1719H13.0886V23.7277H13.7614C13.8193 23.7274 13.8751 23.749 13.9179 23.7882C13.9607 23.8273 13.9874 23.8812 13.9927 23.9392C13.9927 24.0009 13.9683 24.0601 13.9249 24.1037C13.8816 24.1473 13.8227 24.1719 13.7614 24.1719ZM13.0886 22.9662H13.6983C13.7329 22.9554 13.7696 22.9528 13.8054 22.9589C13.8412 22.9649 13.8751 22.9793 13.9043 23.0009C13.9335 23.0225 13.9573 23.0507 13.9736 23.0833C13.99 23.1159 13.9985 23.1518 13.9985 23.1883C13.9985 23.2248 13.99 23.2608 13.9736 23.2934C13.9573 23.3259 13.9335 23.3542 13.9043 23.3758C13.8751 23.3974 13.8412 23.4118 13.8054 23.4178C13.7696 23.4238 13.7329 23.4213 13.6983 23.4104H13.0886V22.9662ZM14.0978 23.5373C14.151 23.4943 14.1936 23.4394 14.2221 23.377C14.2507 23.3146 14.2645 23.2464 14.2624 23.1778C14.2569 23.0325 14.1945 22.8954 14.0888 22.7963C13.9831 22.6972 13.8427 22.6442 13.6983 22.649H12.9414C12.9188 22.6482 12.8963 22.6519 12.8752 22.6601C12.8541 22.6682 12.8348 22.6805 12.8185 22.6963C12.8023 22.7121 12.7893 22.731 12.7805 22.752C12.7717 22.7729 12.7671 22.7954 12.7671 22.8182V24.3199C12.7671 24.3427 12.7717 24.3652 12.7805 24.3861C12.7893 24.4071 12.8023 24.426 12.8185 24.4418C12.8348 24.4576 12.8541 24.4699 12.8752 24.4781C12.8963 24.4862 12.9188 24.49 12.9414 24.4891H13.7614C13.8349 24.492 13.9083 24.4799 13.9771 24.4535C14.0458 24.4271 14.1086 24.3871 14.1616 24.3357C14.2146 24.2844 14.2568 24.2228 14.2855 24.1546C14.3143 24.0865 14.3291 24.0132 14.3291 23.9392C14.3311 23.8573 14.3106 23.7764 14.2698 23.7054C14.229 23.6345 14.1695 23.5763 14.0978 23.5373ZM15.6116 23.7488L15.8639 23.1989L16.0952 23.7488H15.6116ZM15.8639 22.6278C15.8319 22.6295 15.8011 22.6404 15.775 22.6591C15.7489 22.6778 15.7287 22.7037 15.7167 22.7336L14.9388 24.5103H15.2962L15.4855 24.0661H16.2213L16.4106 24.4891V24.5103H16.768L15.9901 22.7336C15.9781 22.7037 15.9579 22.6778 15.9318 22.6591C15.9057 22.6404 15.8749 22.6295 15.8429 22.6278M18.7864 23.9392C18.7 24.0391 18.5863 24.1113 18.4595 24.1469C18.3327 24.1825 18.1983 24.1798 18.0729 24.1393C17.9476 24.0988 17.8368 24.0221 17.7544 23.9189C17.6719 23.8156 17.6214 23.6903 17.609 23.5585C17.6089 23.4733 17.6259 23.3891 17.6589 23.3107C17.6919 23.2323 17.7403 23.1614 17.8011 23.1021C17.8619 23.0429 17.934 22.9967 18.0129 22.966C18.0919 22.9354 18.1762 22.9211 18.2608 22.9239C18.3567 22.923 18.4517 22.9433 18.5389 22.9835C18.6261 23.0238 18.7035 23.0829 18.7654 23.1566L18.7864 23.1778L19.0387 22.9662L19.0177 22.9451C18.9257 22.8396 18.8126 22.755 18.6857 22.6966C18.5589 22.6383 18.4212 22.6077 18.2818 22.6067C18.1541 22.601 18.0265 22.6214 17.9068 22.6666C17.7871 22.7119 17.6778 22.7811 17.5854 22.87C17.4931 22.959 17.4196 23.0659 17.3694 23.1842C17.3193 23.3025 17.2935 23.4298 17.2936 23.5585C17.3019 23.7618 17.3721 23.9577 17.4946 24.1196C17.617 24.2815 17.786 24.4018 17.9786 24.464C18.1711 24.5263 18.3781 24.5276 18.5714 24.4678C18.7648 24.408 18.9352 24.2899 19.0597 24.1296L19.0807 24.1084L18.8284 23.8969L18.7864 23.9392ZM21.0571 23.9392C20.9707 24.0391 20.857 24.1113 20.7302 24.1469C20.6034 24.1825 20.469 24.1798 20.3436 24.1393C20.2183 24.0988 20.1075 24.0221 20.0251 23.9189C19.9426 23.8156 19.8921 23.6903 19.8797 23.5585C19.8797 23.4733 19.8966 23.3891 19.9296 23.3107C19.9626 23.2323 20.011 23.1614 20.0718 23.1021C20.1326 23.0429 20.2047 22.9967 20.2836 22.966C20.3626 22.9354 20.4469 22.9211 20.5315 22.9239C20.6274 22.923 20.7224 22.9433 20.8096 22.9835C20.8969 23.0238 20.9742 23.0829 21.0361 23.1566L21.0571 23.1778L21.3094 22.9662L21.2884 22.9451C21.1964 22.8396 21.0833 22.755 20.9565 22.6966C20.8296 22.6383 20.692 22.6077 20.5525 22.6067C20.4248 22.601 20.2972 22.6214 20.1775 22.6666C20.0578 22.7119 19.9485 22.7811 19.8561 22.87C19.7638 22.959 19.6903 23.0659 19.6401 23.1842C19.59 23.3025 19.5642 23.4298 19.5643 23.5585C19.5726 23.7618 19.6428 23.9577 19.7653 24.1196C19.8878 24.2815 20.0567 24.4018 20.2493 24.464C20.4419 24.5263 20.6488 24.5276 20.8421 24.4678C21.0355 24.408 21.2059 24.2899 21.3304 24.1296L21.3515 24.1084L21.0781 23.918L21.0571 23.9392ZM23.4119 23.5585C23.4119 23.7324 23.3432 23.8992 23.221 24.0221C23.0988 24.1451 22.933 24.2142 22.7601 24.2142C22.5873 24.2142 22.4215 24.1451 22.2993 24.0221C22.177 23.8992 22.1084 23.7324 22.1084 23.5585C22.1056 23.4769 22.1191 23.3956 22.148 23.3193C22.1768 23.2431 22.2206 23.1734 22.2766 23.1143C22.4025 22.989 22.5725 22.9187 22.7496 22.9187C22.9268 22.9187 23.0967 22.989 23.2227 23.1143C23.2802 23.1727 23.3255 23.2421 23.3558 23.3184C23.3862 23.3947 23.4009 23.4763 23.3993 23.5585H23.4119ZM22.7601 22.6067C22.6324 22.601 22.5048 22.6214 22.3851 22.6666C22.2655 22.7119 22.1561 22.7811 22.0638 22.87C21.9714 22.959 21.8979 23.0659 21.8478 23.1842C21.7976 23.3025 21.7718 23.4298 21.772 23.5585C21.7636 23.7567 21.8143 23.9529 21.9177 24.1218C22.021 24.2908 22.1723 24.4247 22.3519 24.5065C22.5316 24.5883 22.7315 24.6141 22.9258 24.5807C23.1202 24.5472 23.3002 24.456 23.4426 24.3188C23.5851 24.1816 23.6835 24.0047 23.7251 23.8108C23.7668 23.6169 23.7498 23.4149 23.6764 23.2308C23.603 23.0466 23.4766 22.8888 23.3133 22.7776C23.15 22.6664 22.9573 22.6069 22.7601 22.6067Z" fill="black"/>
<path d="M11.2175 14.0829L16.3263 13.1945L12.7943 10.5718L11.2175 14.0829Z" fill="#0065A7"/>
<path d="M12.8153 10.4875L16.3263 13.0468L18.7861 10.7837L12.8153 10.4875Z" fill="#0678AC"/>
<path d="M18.8912 10.5297L20.468 6.3418L14.8545 7.48396L18.8912 10.5297Z" fill="#2EB56A"/>
<path d="M15.128 7.31453L20.7415 6.21467L16.7679 5.30518L15.128 7.31453Z" fill="#A5CE40"/>
<path d="M16.7259 5.1568L20.7204 6.1086L21.0568 0.651611L16.7259 5.1568Z" fill="#F5E431"/>
<path d="M10.1871 9.64136L11.1542 13.9985L12.71 10.4663L10.1871 9.64136Z" fill="#9072B3"/>
<path d="M14.6232 7.63135L10.2923 9.5561L12.668 10.3598L14.6232 7.63135Z" fill="#9360A8"/>
<path d="M11.5957 5.72778L10.2923 9.36577L14.8124 7.41987L11.5957 5.72778Z" fill="#DF599C"/>
<path d="M11.764 5.62167L14.8125 5.41016L16.5996 5.19865L15.3171 2.97778L11.764 5.62167Z" fill="#F89A29"/>
<path d="M15.3383 2.76672L16.6418 5.02989L20.9517 0.651611L15.3383 2.76672Z" fill="#FCBC1B"/>
<path d="M11.764 5.70705L14.9807 7.31453L16.6416 5.30518L11.764 5.70705Z" fill="#F16165"/>
<path d="M14.7495 7.63135L12.8153 10.4021L18.7861 10.7194L14.7495 7.63135Z" fill="#1DA6BA"/>
</svg>
