<svg width="39" height="27" viewBox="0 0 39 27" fill="none" xmlns="http://www.w3.org/2000/svg">
<path fill-rule="evenodd" clip-rule="evenodd" d="M18.0635 0.683274C12.9346 1.29325 8.66877 4.91722 7.25636 9.86878C7.12082 10.3281 6.97102 11.0241 6.91395 11.4117L6.80695 12.1221L7.29916 12.768C7.57023 13.1196 7.86983 13.5071 7.96256 13.6291L8.47881 13.975L8.51813 12.5455V11.2394L8.68304 11.2251H9.21805V13.4856V15.7461H8.79004L8.59362 15.5595L7.89455 14.6481C7.50934 14.1458 6.79865 13.0039 6.74872 12.9465C6.60605 12.7743 6.81408 15.0213 7.00669 15.9614C7.7771 19.7934 10.2809 23.0873 13.7763 24.8598C16.3515 26.1659 19.3261 26.5462 22.1723 25.9291C24.0841 25.52 26.0244 24.5799 27.5153 23.3528C30.4614 20.9201 32.1877 17.3248 32.1877 13.5932C32.1877 11.182 31.5528 10.4644 28.3356 9.2301C27.1015 8.75647 26.3882 8.41202 25.6963 7.95992C24.7475 7.34276 24.291 6.71126 23.1282 4.44359C21.9227 2.08263 21.3235 1.2789 20.4532 0.848325C20.0751 0.661744 19.9467 0.640215 19.3118 0.625863C18.9195 0.618687 18.356 0.647393 18.0635 0.683274ZM18.2418 6.80455C18.8838 7.09878 19.3475 7.64416 20.603 9.57456C21.3948 10.7873 21.673 11.0959 22.1795 11.3399C22.3863 11.4404 22.6146 11.5982 22.6859 11.6844C22.8072 11.8494 23.657 12.274 23.814 12.274C23.8568 12.274 23.9123 12.0288 23.9123 11.7274V11.2251H24.8402C25.7177 11.2251 26.0458 11.2538 26.2527 11.3399C27.1301 11.7059 27.4511 12.811 26.9232 13.665C26.7377 13.9592 26.7306 14.0094 26.8091 14.2032C27.0373 14.7342 26.8519 15.9111 26.3597 17.088C25.8817 18.229 24.719 19.6571 23.706 20.3388C23.0854 20.755 22.0653 21.2287 21.3805 21.4152C20.5602 21.6377 19.0122 21.6879 18.199 21.5229C15.4812 20.9703 13.4339 19.1619 12.4709 16.478C12.371 16.191 12.2854 15.8968 12.2854 15.8322C12.2854 15.7174 12.1784 15.7102 11.0727 15.7317L10.2484 15.7748V13.4999V11.2251L11.1726 11.2394L12.4923 11.261L12.6778 10.7873C13.2698 9.26598 14.7179 7.70875 16.273 6.92654C17.0577 6.52468 17.5713 6.49598 18.2418 6.80455ZM28.6923 12.0862V12.9474H29.6196H30.547V12.0862V11.2251H31.082H31.617V13.4856V15.7461H31.082H30.547V14.849V13.952H29.6196H28.6923V14.849V15.7461H28.193H27.6936V13.4856V11.2251H28.193H28.6923V12.0862Z" fill="#FF1368"/>
<path fill-rule="evenodd" clip-rule="evenodd" d="M10.9299 13.4414V14.7403H11.5005H12.0712V13.8863C12.0712 13.4199 12.1068 12.8673 12.1425 12.6592C12.1853 12.4511 12.1639 12.0895 12.1425 12.0752C12.1211 12.0536 11.8358 12.0178 11.5005 12.0034L10.8942 11.9675L10.9299 13.4414Z" fill="#FF1368"/>
<path fill-rule="evenodd" clip-rule="evenodd" d="M24.6788 12.3592C24.6788 12.6104 24.87 12.6534 25.4763 12.9405C26.0541 13.2132 26.1112 13.2275 26.1896 13.1127C26.3252 12.9261 26.3038 12.553 26.1468 12.3592C26.0256 12.2085 25.9756 12.0594 25.4763 12.0378H24.6788V12.3592Z" fill="#FF1368"/>
<path fill-rule="evenodd" clip-rule="evenodd" d="M36.2113 11.1381C35.9783 11.2159 35.6498 11.3716 35.4909 11.4717C35.2155 11.6719 35.2049 11.6719 35.2049 11.4384C35.2049 11.2382 35.1413 11.2048 34.7811 11.2048H34.3573V13.4846V15.7644H34.7705H35.1837L35.226 14.2186C35.2578 12.8507 35.2896 12.6283 35.4803 12.3503C35.9677 11.6719 37.1331 11.6274 37.4297 12.2835C37.5145 12.4726 37.578 13.1955 37.5992 14.1518L37.6416 15.7088L38.0654 15.7421L38.4997 15.7755L38.468 14.1296L38.4362 12.4837L37.9276 12.2057C37.5886 12.0166 37.3449 11.772 37.186 11.4828C36.9106 10.9824 36.8046 10.9379 36.2113 11.1381Z" fill="black"/>
<path fill-rule="evenodd" clip-rule="evenodd" d="M2.16972 11.2154C1.37513 11.4712 0.591137 12.7723 0.728866 13.6175C0.813622 14.1513 0.856 14.2069 1.34335 14.4405C1.6294 14.5739 1.97902 14.8631 2.22269 15.1856C2.75241 15.8751 2.7736 15.8862 3.19738 15.8195C3.80127 15.6971 4.46872 15.1967 4.75477 14.6295C4.95607 14.2181 4.95607 14.2069 4.48991 14.2069C4.19327 14.2069 4.02375 14.2737 3.91781 14.4294C3.71651 14.7296 3.21857 14.9854 2.82658 14.9854C2.3922 14.9854 1.83069 14.5739 1.65059 14.118L1.51286 13.7621H3.27155H5.03023L4.98785 13.1616C4.93488 12.461 4.58526 11.8493 4.01316 11.449C3.59997 11.1487 2.71004 11.0375 2.16972 11.2154ZM3.52581 12.1496C3.69532 12.2497 3.91781 12.4721 4.00256 12.65L4.17208 12.9836H2.89014C2.03199 12.9836 1.6188 12.9392 1.6188 12.8613C1.6188 12.7946 1.77772 12.5722 1.97902 12.3609C2.27566 12.0495 2.42398 11.9828 2.7736 11.9828C3.01728 11.9828 3.3563 12.0606 3.52581 12.1496Z" fill="black"/>
<path fill-rule="evenodd" clip-rule="evenodd" d="M16.1554 11.2165C15.6256 11.3833 14.7993 12.273 14.6509 12.8624C14.2695 14.3526 15.3926 15.8094 16.9288 15.8094C18.8781 15.8206 19.9482 13.5074 18.698 11.9839C18.0624 11.1943 17.1407 10.9162 16.1554 11.2165ZM17.8929 12.3508C18.2213 12.6622 18.2849 12.8179 18.3272 13.2739C18.4438 14.5528 17.4267 15.3201 16.2931 14.8308C15.7422 14.5861 15.4773 14.0635 15.5303 13.3295C15.5621 12.8068 15.6256 12.6733 15.9541 12.3508C16.2931 12.0283 16.4096 11.9839 16.9288 11.9839C17.4479 11.9839 17.5644 12.0283 17.8929 12.3508Z" fill="black"/>
<path fill-rule="evenodd" clip-rule="evenodd" d="M5.53914 13.4845V15.7643H6.01589H6.48205L6.51383 14.3519L6.54562 12.9285L7.49912 14.2074C8.70689 15.8421 8.65392 15.7865 9.05651 15.742L9.40613 15.7087V13.4845V11.2603L8.96116 11.227L8.5056 11.1936V12.5281C8.5056 13.9849 8.42084 14.1518 8.02885 13.5512C7.91231 13.3733 7.48853 12.7728 7.07534 12.2167C6.3761 11.2603 6.32313 11.2047 5.94173 11.2047H5.53914V13.4845Z" fill="black"/>
<path fill-rule="evenodd" clip-rule="evenodd" d="M10.201 13.4735V15.7644H11.2393C12.4364 15.7644 12.9344 15.6421 13.3794 15.2417C13.9303 14.7635 14.1528 14.1741 14.0998 13.3067C14.068 12.6617 14.015 12.4838 13.7396 12.1279C13.1675 11.3939 12.8496 11.2605 11.4512 11.216L10.201 11.1826V13.4735ZM12.7331 12.3837C13.3476 12.9175 13.3688 13.974 12.7967 14.5411C12.5742 14.7635 12.4153 14.808 11.822 14.808L11.1015 14.8191L11.0698 13.4513L11.038 12.0945H11.7266C12.3093 12.0945 12.4576 12.139 12.7331 12.3837Z" fill="black"/>
<path fill-rule="evenodd" clip-rule="evenodd" d="M19.6303 13.4841V15.7639H20.107H20.5838V14.9854V14.207H20.9864C21.3678 14.207 21.389 14.2403 21.781 14.9854L22.1836 15.7639H22.7239H23.2536L22.904 15.1189C22.7239 14.7741 22.512 14.396 22.4484 14.2959C22.3637 14.1403 22.406 14.029 22.7027 13.7065C23.0311 13.3618 23.0629 13.2506 23.0629 12.7057C23.0629 12.2163 23.0205 12.0495 22.8086 11.8049C22.3425 11.2933 22.0564 11.2043 20.7957 11.2043H19.6303V13.4841ZM21.9823 12.2831C22.0882 12.3832 22.173 12.5722 22.173 12.7168C22.173 13.1505 21.8975 13.3173 21.2089 13.3173H20.5838V12.7057V12.094H21.1877C21.5903 12.094 21.8445 12.1496 21.9823 12.2831Z" fill="black"/>
<path fill-rule="evenodd" clip-rule="evenodd" d="M23.8257 12.4504C23.7833 13.1399 23.7727 14.1519 23.8045 14.7079L23.8469 15.7088L24.2813 15.7422L24.705 15.7755L24.7368 15.0749L24.7686 14.3743L25.5102 14.3187C25.9234 14.2853 26.3578 14.1964 26.4955 14.1185C27.0676 13.7738 27.3325 12.7173 27.004 12.05C26.6862 11.405 26.3578 11.2605 25.0758 11.2271L23.8999 11.1826L23.8257 12.4504ZM25.987 12.2057C26.2624 12.3614 26.3472 12.8396 26.1459 13.1621C26.0082 13.3957 25.9022 13.429 25.3513 13.429H24.7156V12.7618V12.0945H25.256C25.5526 12.0945 25.881 12.139 25.987 12.2057Z" fill="black"/>
<path fill-rule="evenodd" clip-rule="evenodd" d="M27.7882 13.4956V15.7754L28.2438 15.742L28.6887 15.7087V14.819V13.9293L29.674 13.896L30.6487 13.8626V14.819V15.7754L31.1043 15.742L31.5492 15.7087V13.4845V11.2603L31.1043 11.227L30.6487 11.1936V12.0833V12.9841H29.6422H28.6358V12.0944V11.2047H28.212H27.7882V13.4956Z" fill="black"/>
<path fill-rule="evenodd" clip-rule="evenodd" d="M32.4503 13.4841V15.7639H32.927H33.4038V13.4841V11.2043H32.927H32.4503V13.4841Z" fill="black"/>
</svg>
