<svg width="16" height="29" viewBox="0 0 16 29" fill="none" xmlns="http://www.w3.org/2000/svg">
<path fill-rule="evenodd" clip-rule="evenodd" d="M6.8601 0.833114C6.8601 0.864121 6.66285 2.27801 6.42861 3.96476C6.19438 5.65151 5.99713 7.0964 5.99713 7.16462V7.30105L6.55806 7.15842C7.03885 7.03439 7.26692 6.92277 8.14838 6.38946C8.70931 6.04219 9.20859 5.73832 9.25174 5.70732C9.31954 5.67011 9.10997 5.20501 8.34563 3.6795C7.2361 1.45324 6.86626 0.740095 6.8601 0.833114Z" fill="black"/>
<path fill-rule="evenodd" clip-rule="evenodd" d="M8.32127 6.58138C7.85281 6.85424 7.48297 7.08989 7.49529 7.10229C7.50762 7.12089 7.98225 7.01547 8.54318 6.87284L9.56641 6.61859L9.4308 6.34574C9.363 6.1969 9.27054 6.07288 9.23972 6.07908C9.20273 6.07908 8.78974 6.30853 8.32127 6.58138Z" fill="black"/>
<path fill-rule="evenodd" clip-rule="evenodd" d="M7.76676 7.37555C6.86065 7.64221 6.09631 7.87786 6.07165 7.90266C6.0285 7.94607 10.0043 7.89026 10.0475 7.84685C10.0598 7.83445 9.96732 7.6112 9.83788 7.35075C9.6961 7.05929 9.57282 6.87945 9.51118 6.88565C9.46187 6.89185 8.67287 7.1089 7.76676 7.37555Z" fill="black"/>
<path fill-rule="evenodd" clip-rule="evenodd" d="M7.42753 8.49815C6.66935 8.52295 6.04062 8.55396 6.02213 8.57256C6.00364 8.58496 6.70634 9.12447 7.58163 9.76321C8.45692 10.4081 9.20277 10.9539 9.23976 10.9849C9.29523 11.0221 12.0999 10.9228 12.1492 10.8794C12.1615 10.8732 11.7732 10.3151 11.2862 9.64538L10.4109 8.42993L9.60343 8.44233C9.16579 8.44233 8.18571 8.46714 7.42753 8.49815Z" fill="black"/>
<path fill-rule="evenodd" clip-rule="evenodd" d="M5.99737 9.01856C6.21311 9.58907 6.26858 9.63869 6.80486 9.78131C7.08224 9.85573 7.32263 9.91154 7.33496 9.89914C7.35345 9.87433 6.01586 8.86353 5.96655 8.86353C5.95422 8.86353 5.96655 8.93174 5.99737 9.01856Z" fill="black"/>
<path fill-rule="evenodd" clip-rule="evenodd" d="M6.39209 9.89965C6.41674 9.95546 6.54619 10.2593 6.68796 10.5818L6.94069 11.1585L7.59407 11.1213C7.95159 11.0965 8.41389 11.0655 8.6173 11.0407L8.98714 11.0035L8.37691 10.5756C7.77899 10.1539 7.66804 10.1105 6.7496 9.89345C6.39209 9.81283 6.36127 9.81283 6.39209 9.89965Z" fill="black"/>
<path fill-rule="evenodd" clip-rule="evenodd" d="M6.26268 11.6049C6.28117 11.6856 6.33048 11.9398 6.37363 12.1693L6.45376 12.5909L7.47083 13.5273C8.03175 14.042 8.56803 14.5319 8.65432 14.6126L8.81459 14.7614L9.11046 13.2545C9.27073 12.4235 9.41866 11.6856 9.43099 11.6049L9.46181 11.4685H7.84683H6.23186L6.26268 11.6049Z" fill="black"/>
<path fill-rule="evenodd" clip-rule="evenodd" d="M3.75977 12.5346C3.66731 13.0927 3.59334 13.564 3.59334 13.5888C3.59334 13.6384 6.04046 14.4632 6.10826 14.4322C6.15758 14.4136 4.03098 11.5424 3.96318 11.5362C3.94469 11.53 3.85223 11.9827 3.75977 12.5346Z" fill="black"/>
<path fill-rule="evenodd" clip-rule="evenodd" d="M10.3125 11.5744C10.3125 11.6302 11.2186 13.8317 11.2494 13.8565C11.3357 13.9185 13.6595 14.7557 13.6842 14.7309C13.7027 14.7123 13.4561 13.9867 13.1417 13.1123L12.5623 11.531H11.4405C10.8179 11.531 10.3125 11.5496 10.3125 11.5744Z" fill="black"/>
<path fill-rule="evenodd" clip-rule="evenodd" d="M2.11385 15.2822C2.11385 15.3442 2.73641 16.5659 2.76107 16.5473C2.7734 16.5349 2.72409 16.2372 2.65628 15.8838L2.52684 15.2512H2.32342C2.20631 15.2512 2.11385 15.2636 2.11385 15.2822Z" fill="black"/>
<path fill-rule="evenodd" clip-rule="evenodd" d="M2.79222 15.2879C2.79222 15.3189 2.83537 15.6227 2.88468 15.9638C2.93399 16.3049 2.97714 16.6211 2.97714 16.6584C2.97714 16.7204 3.14973 16.739 3.62437 16.739C4.19146 16.739 4.29008 16.7576 4.39487 16.863C4.54897 17.018 4.55513 17.2475 4.4072 17.3777C4.3209 17.4583 4.17296 17.4831 3.79079 17.4831H3.28534V18.2273V18.9714H3.77847C4.19146 18.9714 4.29008 18.99 4.39487 19.0955C4.46267 19.1637 4.51815 19.2753 4.51815 19.3435C4.51815 19.4117 4.46267 19.5233 4.39487 19.5916C4.29008 19.697 4.19146 19.7156 3.77847 19.7156H3.28534V20.4659V21.2163L3.98188 21.1915C4.53664 21.1729 4.72156 21.1419 4.92498 21.0365C5.33797 20.8194 5.54754 20.6024 5.74479 20.1993C5.99752 19.6908 6.01601 19.052 5.78178 18.5497L5.63384 18.2273L5.78178 17.8986C5.89889 17.6506 5.93588 17.4769 5.93588 17.111C5.93588 16.5281 5.76945 16.1374 5.36262 15.7654C4.91881 15.3561 4.74006 15.3003 3.7045 15.2631C3.19905 15.2507 2.79222 15.2569 2.79222 15.2879Z" fill="black"/>
<path fill-rule="evenodd" clip-rule="evenodd" d="M6.18259 16.2573C6.18259 17.1255 6.19491 17.2247 6.32436 17.4479C6.5401 17.8262 6.77433 17.9192 7.52635 17.9192C8.14275 17.9192 8.16124 17.913 8.22905 17.7642C8.29069 17.6216 8.33383 17.6092 8.69135 17.6092C8.90092 17.6092 9.07968 17.5844 9.07968 17.5596C9.07968 17.5286 9.03653 17.3797 8.98106 17.2185C8.89476 16.9642 8.86394 16.927 8.70984 16.927H8.53108L8.61738 16.7162C8.69751 16.5177 8.69135 16.4681 8.54341 16.0651C8.45711 15.817 8.36465 15.6434 8.33383 15.6682C8.30918 15.693 8.11809 16.2077 7.90235 16.803C7.52018 17.8572 7.50785 17.882 7.48936 17.5906C7.47087 17.3115 7.4647 17.2991 7.28595 17.2991C7.175 17.2991 7.04555 17.2433 6.95309 17.1441C6.80515 17.0014 6.79899 16.9642 6.79899 16.1519V15.3147H6.49079H6.18259V16.2573Z" fill="black"/>
<path fill-rule="evenodd" clip-rule="evenodd" d="M8.51258 15.3454C8.49408 15.364 8.68517 15.9408 8.92557 16.6353L9.37554 17.888L9.72689 17.9066C10.0474 17.9252 10.0782 17.9128 10.0351 17.8135C10.0104 17.7515 9.81319 17.2182 9.59744 16.6229C9.08583 15.24 9.12898 15.3144 8.80845 15.3144C8.66668 15.3144 8.53107 15.3268 8.51258 15.3454Z" fill="black"/>
<path fill-rule="evenodd" clip-rule="evenodd" d="M11.0338 15.3953C10.0167 15.7178 9.801 17.0821 10.6701 17.696C10.8674 17.8386 11.0153 17.8882 11.2989 17.9068L11.6687 17.9316V17.6154C11.6687 17.3115 11.6625 17.2991 11.5023 17.2991C11.2557 17.2991 10.9105 17.1069 10.8242 16.927C10.6886 16.6542 10.7256 16.4371 10.9537 16.2077C11.1263 16.034 11.2126 15.9968 11.416 15.9968H11.6687V15.6558V15.3147L11.4715 15.3209C11.3605 15.3209 11.1633 15.3581 11.0338 15.3953Z" fill="black"/>
<path fill-rule="evenodd" clip-rule="evenodd" d="M11.8536 16.617V17.9192H12.1618H12.47V16.617V15.3147H12.1618H11.8536V16.617Z" fill="black"/>
<path fill-rule="evenodd" clip-rule="evenodd" d="M13.1295 15.3502C13.1048 15.375 13.0863 15.5115 13.0863 15.6479C13.0863 15.9207 12.963 16.1192 12.735 16.237C12.6117 16.299 12.5932 16.361 12.5932 16.6463C12.5932 16.9254 12.6117 16.9874 12.7165 17.0184C12.926 17.0866 13.0863 17.3532 13.0863 17.6447V17.9176H13.4315H13.7828L13.7459 17.5331C13.7212 17.2416 13.6657 17.0866 13.524 16.8819C13.3514 16.6339 13.339 16.5967 13.4253 16.5161C13.6103 16.33 13.7212 16.0262 13.7274 15.6851L13.7335 15.344L13.4562 15.3254C13.302 15.313 13.1541 15.3254 13.1295 15.3502Z" fill="black"/>
<path fill-rule="evenodd" clip-rule="evenodd" d="M1.3127 18.6621C1.3127 20.5845 1.33119 21.0868 1.39283 21.062C1.42982 21.0496 1.75034 20.9008 2.10169 20.7395L2.73043 20.4419L2.7181 18.7613L2.69961 17.087L2.20648 16.7831C1.93527 16.6157 1.6209 16.4234 1.51611 16.3552L1.3127 16.2312V18.6621Z" fill="black"/>
<path fill-rule="evenodd" clip-rule="evenodd" d="M6.18259 19.2024C6.18259 20.3682 6.24423 20.6038 6.6079 20.9139C7.22431 21.4348 8.20439 21.2178 8.53108 20.4922C8.62971 20.2814 8.6482 20.0767 8.6482 19.2024V18.1667H8.22288H7.79756L7.82222 19.1155C7.84688 20.2504 7.80989 20.362 7.43389 20.3868C7.0209 20.4178 6.98391 20.3124 6.98391 19.1465V18.1667H6.58325H6.18259V19.2024Z" fill="black"/>
<path fill-rule="evenodd" clip-rule="evenodd" d="M8.83333 18.5388V18.9047L9.52986 18.9233L10.2202 18.9419V19.0969V19.252L9.52986 19.2706L8.83333 19.2892V20.2504V21.2116L9.16002 21.193L9.48055 21.1744V20.6163V20.0581L9.72095 20.0395C9.85656 20.0271 10.0292 20.0333 10.1093 20.0519C10.2449 20.0891 10.2511 20.1139 10.2511 20.6473V21.2054H10.6825H11.114V20.6597C11.114 20.2628 11.0832 20.0643 11.0031 19.9031C10.8983 19.6923 10.8983 19.6737 11.0092 19.4132C11.151 19.0845 11.114 18.8055 10.886 18.5326C10.6271 18.2288 10.4113 18.1667 9.57301 18.1667H8.83333V18.5388Z" fill="black"/>
<path fill-rule="evenodd" clip-rule="evenodd" d="M11.2988 19.6861V21.2054H11.6995H12.1001V19.6861V18.1667H11.6995H11.2988V19.6861Z" fill="black"/>
<path fill-rule="evenodd" clip-rule="evenodd" d="M12.2852 18.5321C12.2852 18.9042 12.2852 18.9104 12.4578 18.9104C12.5502 18.9104 12.692 18.9538 12.766 19.0096C12.8954 19.1026 12.9016 19.1398 12.9016 20.1568V21.2048H13.3392H13.7769L13.7522 20.0638L13.7337 18.9228L13.5426 18.6871C13.2406 18.3088 13.0619 18.2096 12.655 18.1786L12.2852 18.1538V18.5321Z" fill="black"/>
<path fill-rule="evenodd" clip-rule="evenodd" d="M14.9667 18.8966C14.5969 19.0455 14.2702 19.1881 14.2455 19.2129C14.2209 19.2315 14.3257 19.709 14.4736 20.2733C14.6277 20.8314 14.751 21.3275 14.751 21.3709C14.751 21.4144 14.7695 21.4516 14.8003 21.4516C14.8496 21.4516 15.6941 18.7478 15.6633 18.6734C15.6509 18.6424 15.3427 18.7416 14.9667 18.8966Z" fill="black"/>
<path fill-rule="evenodd" clip-rule="evenodd" d="M11.9891 21.949C11.9213 22.104 11.4837 23.0094 11.0213 23.9644C9.68375 26.7116 9.25844 27.6108 9.29542 27.6418C9.31391 27.6604 9.37555 27.6294 9.43103 27.5798C9.49267 27.5301 10.294 26.8542 11.2063 26.0728C12.1247 25.2977 12.8952 24.6403 12.9199 24.6155C12.9569 24.5845 12.3466 22.3521 12.137 21.7319C12.1247 21.6947 12.0569 21.794 11.9891 21.949Z" fill="black"/>
<path fill-rule="evenodd" clip-rule="evenodd" d="M2.99543 22.562C1.89823 22.8907 1.01061 23.1759 1.02294 23.1945C1.07225 23.3124 2.87215 24.8689 2.90913 24.8255C3.11871 24.5898 5.0234 22.0039 5.0049 21.9853C4.99258 21.9729 4.08646 22.2333 2.99543 22.562Z" fill="black"/>
<path fill-rule="evenodd" clip-rule="evenodd" d="M12.4823 22.2277C12.6303 22.8044 13.1172 24.3671 13.1542 24.3671C13.1789 24.3671 13.3268 24.2493 13.4809 24.1005L13.7645 23.84L13.185 23.0463C12.544 22.1657 12.433 22.0355 12.4823 22.2277Z" fill="black"/>
<path fill-rule="evenodd" clip-rule="evenodd" d="M4.57967 23.3249C4.12354 23.914 3.63041 24.5589 3.48248 24.7512C3.33454 24.9434 3.22359 25.1294 3.22975 25.1604C3.24208 25.1914 3.82766 25.731 4.5242 26.3573C5.2269 26.9836 6.02206 27.703 6.29944 27.9572C6.7001 28.3231 6.79873 28.3851 6.77407 28.2673C6.74941 28.1867 6.44121 26.81 6.0837 25.2039C5.72618 23.6039 5.43031 22.283 5.41798 22.2768C5.41182 22.2644 5.02965 22.7419 4.57967 23.3249Z" fill="black"/>
<path fill-rule="evenodd" clip-rule="evenodd" d="M10.0595 23.0837C9.36916 23.5364 8.54318 24.0697 8.23498 24.2682C7.92062 24.4666 7.66173 24.6526 7.66173 24.6775C7.66173 24.7023 7.82816 25.2542 8.03773 25.8929C8.24115 26.5378 8.45072 27.2014 8.5062 27.3626C8.55551 27.53 8.61099 27.6479 8.62948 27.6355C8.68496 27.5734 11.3601 22.3024 11.3417 22.2838C11.3293 22.2714 10.7561 22.631 10.0595 23.0837Z" fill="black"/>
<path d="M3.27875 14.8486L3.27863 14.0131L5.91006 14.9042L3.27875 14.8486Z" fill="#FF9D00"/>
<path d="M1.06527 15.9664L1.06528 15.2316L1.54862 15.2316L2.45742 16.7205L1.06527 15.9664Z" fill="#FF9D00"/>
<path d="M14.1946 18.9446L14.0013 18.2871L15.4515 17.2043L14.1946 18.9446Z" fill="#FF9D00"/>
<path d="M13.6919 23.7212L12.5317 21.5942L14.0012 21.7875L13.6919 23.7212Z" fill="#FF9D00"/>
<path d="M7.62006 24.185L8.10351 22.9862L10.946 22.0194L7.62006 24.185Z" fill="#FF9D00"/>
<path d="M0.890921 22.6371L4.35216 21.4189L4.60353 21.8408L0.890921 22.6371Z" fill="#FF9D00"/>
<path d="M2.55422 21.1687L1.37467 21.1687L2.55422 20.55L2.55422 21.1687Z" fill="#FF9D00"/>
<path d="M15.4129 18.248L14.7554 18.6154L14.6394 18.5961L15.6642 17.3199L15.4129 18.248Z" fill="#FF9D00"/>
<path d="M6.4392 14.069L6.29984 13.0388L7.91499 14.6261L6.4392 14.069Z" fill="#FF9D00"/>
<path d="M9.2518 13.179L9.5861 11.5917L9.94799 12.2043L9.2518 13.179Z" fill="#FF9D00"/>
<path d="M10.9225 14.7391L10.9782 14.0708L13.1503 14.8227L10.9225 14.7391Z" fill="#FF9D00"/>
</svg>
