<svg width="22" height="29" viewBox="0 0 22 29" fill="none" xmlns="http://www.w3.org/2000/svg">
<path fill-rule="evenodd" clip-rule="evenodd" d="M15.1252 0.528297C14.8202 0.681711 14.6455 0.783988 14.5057 0.879872C14.3437 0.991737 13.9116 1.4328 13.7432 1.65334C13.6575 1.7684 13.524 1.93779 13.4541 2.03048C13.3811 2.12317 13.2222 2.35649 13.0983 2.54825C12.8314 2.96695 12.7488 3.07562 12.7044 3.07562C12.6853 3.07562 12.5709 3.01809 12.447 2.94777C12.1166 2.756 11.7767 2.63135 11.297 2.52908C11.1318 2.49392 10.2867 2.49392 10.1215 2.52908C9.52743 2.65692 9.03183 2.87426 8.59659 3.19707C8.30748 3.41121 7.98344 3.74361 7.81188 4.00569C7.68798 4.19427 7.37346 4.79194 7.37346 4.83988C7.37346 4.88783 7.13519 5.19466 7.00494 5.31291C6.86198 5.44395 6.73172 5.53664 6.58876 5.61335C6.46168 5.67727 6.45851 5.71243 6.56652 5.80192C6.95411 6.12473 7.17332 6.42197 7.2718 6.75117C7.50372 7.52464 7.85954 8.02963 8.73002 8.83186C8.98735 9.06837 9.48931 9.53181 9.85148 9.86741C10.2105 10.1998 10.7823 10.7304 11.1223 11.0468C12.1103 11.9577 12.1897 12.0344 12.5265 12.4307C12.8378 12.7983 12.9013 12.8814 13.1174 13.2202C13.4351 13.7092 13.6956 14.4539 13.6956 14.8694C13.6956 15.1954 13.5367 15.6428 13.2857 16.0168C13.1047 16.2884 12.949 16.4483 12.7044 16.6113C12.6281 16.6592 12.5296 16.7263 12.482 16.7583C12.1802 16.966 11.5384 17.0779 11.0333 17.0108C10.3503 16.9213 9.67992 16.4706 9.36858 15.8857C9.26057 15.6876 9.25739 15.5437 9.34952 15.3743C9.46389 15.173 9.62909 15.0931 9.94043 15.0931C10.1533 15.0931 10.2041 15.0835 10.2264 15.0356C10.2962 14.9045 10.1596 13.984 10.0071 13.5589C9.73075 12.7887 9.1462 12.2166 8.35832 11.9481C8.11369 11.865 8.03744 11.8554 7.54184 11.8394C6.86833 11.8202 6.73808 11.8394 6.59194 11.9673C6.35049 12.1814 6.29648 12.4435 6.4458 12.7088C6.51251 12.8334 6.5697 12.8878 6.70631 12.9581C6.92234 13.0699 6.98905 13.0699 7.19555 12.9645C7.37982 12.8686 7.53231 12.664 7.53231 12.5138C7.53231 12.3987 7.58314 12.3444 7.69116 12.3444C7.80235 12.3444 8.00885 12.5649 8.11687 12.7951C8.27254 13.1339 8.25983 13.8786 8.0851 14.5306C8.0438 14.6904 7.98026 14.9205 7.94849 15.0451C7.91354 15.1666 7.86589 15.3104 7.8373 15.3648C7.8087 15.4159 7.78647 15.4862 7.78647 15.5182C7.78647 15.5501 7.75787 15.63 7.72293 15.7004C7.68798 15.7707 7.65939 15.8442 7.65939 15.8666C7.65939 15.8889 7.64033 15.9465 7.61491 15.9944C7.5895 16.0391 7.55455 16.1318 7.53231 16.2021C7.51007 16.2693 7.47513 16.3588 7.45289 16.4035C7.34805 16.6208 7.24639 16.8446 7.24639 16.8606C7.24639 16.8733 7.16061 17.0651 7.05259 17.2888C6.94775 17.5158 6.84609 17.7267 6.83021 17.7619C6.81432 17.797 6.78891 17.8482 6.77302 17.8737C6.75396 17.8993 6.72219 17.9632 6.69678 18.0176C6.67454 18.0687 6.63641 18.1454 6.61735 18.1838C6.59511 18.2253 6.56334 18.2892 6.54428 18.3244C6.52522 18.3627 6.48392 18.4394 6.45215 18.497C6.42038 18.5545 6.37908 18.628 6.3632 18.66C6.08998 19.1586 5.9629 19.3791 5.94066 19.3951C5.92478 19.4047 5.91207 19.4398 5.91207 19.4718C5.91207 19.5517 6.02962 19.5869 6.09633 19.5293C6.12493 19.5038 6.26153 19.4271 6.39814 19.3567C6.53157 19.2896 6.68407 19.2097 6.7349 19.1809C6.89375 19.0947 7.24003 18.8006 7.34805 18.6632C7.40523 18.5897 7.4783 18.5002 7.51325 18.465C7.74517 18.2157 8.34878 17.3783 8.48222 17.113C8.55846 16.9692 8.64742 16.9692 8.9524 17.1194C9.38129 17.3336 9.52108 17.3943 9.57191 17.3943C9.6005 17.3943 9.67675 17.4167 9.74346 17.4454C9.81335 17.4742 10.0389 17.5317 10.2486 17.5733C10.8014 17.6852 11.5924 17.682 12.1452 17.5701C12.5296 17.4934 12.7965 17.4135 13.0443 17.3016C13.1142 17.2697 13.1936 17.2345 13.219 17.2217C13.2444 17.2121 13.3398 17.1578 13.4255 17.1067C13.5145 17.0555 13.6066 17.0012 13.632 16.9884C13.6575 16.9788 13.686 16.9596 13.6956 16.9468C13.7051 16.9373 13.7972 16.8606 13.9021 16.7806C14.2738 16.4962 14.7027 15.9784 14.9187 15.5501C14.9981 15.3935 15.0617 15.2529 15.0617 15.2401C15.0617 15.2241 15.1061 15.1219 15.1633 15.0068C15.2745 14.7767 15.5382 14.5114 15.7892 14.3708C15.875 14.326 15.9544 14.2653 15.9639 14.2429C15.9734 14.2142 15.9194 14.1598 15.8146 14.0927C15.7225 14.032 15.6049 13.9329 15.5477 13.869C15.4111 13.7092 15.2364 13.4087 15.1792 13.2202C15.0362 12.7535 14.8679 12.4307 14.5533 12.0088C14.242 11.5933 13.9211 11.2737 12.9649 10.4267C12.8378 10.3117 12.6377 10.1295 12.5233 10.0208C12.1643 9.68203 12.0245 9.55419 11.7862 9.34004C10.6934 8.36203 10.1438 7.82188 9.76888 7.35844C9.53061 7.0612 9.19385 6.54343 9.0763 6.28773C9.02865 6.18226 8.96829 6.06081 8.94605 6.01606C8.8984 5.92657 8.81897 5.62613 8.76814 5.34487C8.69825 4.97732 8.78402 4.50749 8.98735 4.13673C9.11443 3.90342 9.48613 3.54865 9.7244 3.43039C9.9309 3.32492 10.3788 3.20346 10.5504 3.20346C10.6807 3.20346 11.1921 3.32811 11.2493 3.37605C11.2747 3.39523 11.351 3.43998 11.4177 3.46874C11.5575 3.53266 11.8085 3.75959 11.9864 3.98012C12.0944 4.11756 12.1071 4.15591 12.1071 4.30933C12.1071 4.68647 11.8911 4.86545 11.4368 4.86545C11.1604 4.86545 11.1381 4.89741 11.1667 5.26177C11.2334 6.0704 11.4685 6.732 11.8498 7.18905C12.1071 7.49587 12.3613 7.69403 12.733 7.87302C13.1205 8.05839 13.4732 8.12551 14.0832 8.12551C14.6487 8.12551 14.8393 8.0552 14.9664 7.8059C15.0966 7.54701 15.0267 7.2242 14.798 7.03883C14.7122 6.96851 14.6677 6.95892 14.458 6.95892C14.2484 6.95892 14.2039 6.96851 14.1213 7.03883C13.9879 7.14749 13.8925 7.29771 13.8576 7.45752C13.829 7.58537 13.7814 7.64609 13.7083 7.64609C13.6225 7.64609 13.3556 7.32328 13.273 7.11873C13.1936 6.92377 13.1873 6.87902 13.1873 6.45393C13.1904 6.20463 13.2031 5.94255 13.2159 5.87224C13.3398 5.29374 13.5367 4.59059 13.6447 4.33809C13.667 4.28376 13.7178 4.15591 13.7591 4.05044C13.8322 3.85228 13.972 3.51988 14.0832 3.26739C14.1181 3.18748 14.1689 3.06603 14.1975 2.99891C14.35 2.64094 15.1188 1.11959 15.3762 0.668933C15.4715 0.502734 15.4874 0.390869 15.4207 0.390869C15.4079 0.390869 15.2745 0.454786 15.1252 0.528297Z" fill="#A07238" stroke="black" stroke-width="0.317267"/>
<mask id="path-2-inside-1_1_3804" fill="white">
<path fill-rule="evenodd" clip-rule="evenodd" d="M2.27118 22.4864C1.86453 22.5982 1.62308 22.7932 1.4007 23.1959C1.31492 23.3525 1.23232 23.4548 1.13066 23.5283C0.968635 23.6434 0.95275 23.7073 1.06712 23.7616C1.15607 23.8032 1.27998 23.9758 1.33081 24.1388C1.41341 24.3913 1.61355 24.6214 2.3093 25.2638C3.17025 26.0596 3.30369 26.2067 3.46571 26.5231C3.61185 26.8107 3.62456 26.9546 3.52607 27.1751C3.43712 27.3732 3.32275 27.4883 3.11942 27.5778C2.90339 27.6737 2.75725 27.6737 2.53804 27.5778C2.35378 27.4947 2.14728 27.2806 2.17905 27.2007C2.18858 27.1783 2.26165 27.1207 2.3379 27.0728C2.5031 26.9737 2.51263 26.929 2.4332 26.5838C2.35378 26.2482 2.19493 26.0405 1.8963 25.8806C1.76287 25.8103 1.69298 25.7944 1.43882 25.7912L1.14019 25.7848L1.04806 25.8902C0.936866 26.0117 0.933689 26.0628 1.02264 26.2035C1.08301 26.3025 1.10207 26.3121 1.24185 26.3121C1.34034 26.3121 1.40705 26.2961 1.43247 26.2642C1.45471 26.2354 1.50554 26.2162 1.54048 26.2226C1.71522 26.2482 1.63579 26.8171 1.36893 27.4468C1.24821 27.7248 0.914627 28.4024 0.854265 28.4823C0.793904 28.5622 0.778019 28.6613 0.822496 28.6901C0.838381 28.6996 0.949574 28.6549 1.0703 28.5942C1.30221 28.4791 1.57225 28.2234 1.71839 27.9773C1.82006 27.8079 1.90583 27.7855 2.09327 27.8814C2.23306 27.9517 2.27753 27.9581 2.7509 27.9581C3.25286 27.9549 3.26239 27.9549 3.46571 27.8591C3.76434 27.7152 3.98037 27.5075 4.15828 27.1847C4.26312 26.9897 4.34255 26.8874 4.42832 26.8363C4.57446 26.7404 4.57764 26.6733 4.43785 26.5614C4.37749 26.5135 4.30125 26.4144 4.2663 26.3377C4.23135 26.261 4.17734 26.1427 4.14558 26.0724C4.06615 25.8998 3.75799 25.5802 3.04635 24.9282C2.30295 24.2506 2.09645 23.9917 1.98526 23.5986C1.94396 23.4388 1.94078 23.3909 1.97255 23.2854C2.02973 23.1096 2.11869 22.9977 2.27118 22.9082C2.48721 22.7804 2.71595 22.8124 2.91928 22.9977C3.04953 23.1192 2.98282 23.2758 2.80173 23.2758C2.71278 23.2758 2.69054 23.3301 2.69371 23.5283C2.70324 23.899 2.92245 24.2858 3.22109 24.4584C3.37676 24.5479 3.40535 24.5543 3.73893 24.5543C4.14558 24.5543 4.18052 24.5351 4.18052 24.3113C4.18052 24.062 3.96767 23.9406 3.79293 24.0876C3.67856 24.1835 3.6468 24.1899 3.58008 24.1196C3.4816 24.0205 3.52607 23.6945 3.70716 23.2215C3.80564 22.9562 3.7834 22.9019 3.49113 22.7101C3.31322 22.595 3.18932 22.5439 2.9574 22.4864C2.60158 22.4001 2.60158 22.4001 2.27118 22.4864Z"/>
</mask>
<path fill-rule="evenodd" clip-rule="evenodd" d="M2.27118 22.4864C1.86453 22.5982 1.62308 22.7932 1.4007 23.1959C1.31492 23.3525 1.23232 23.4548 1.13066 23.5283C0.968635 23.6434 0.95275 23.7073 1.06712 23.7616C1.15607 23.8032 1.27998 23.9758 1.33081 24.1388C1.41341 24.3913 1.61355 24.6214 2.3093 25.2638C3.17025 26.0596 3.30369 26.2067 3.46571 26.5231C3.61185 26.8107 3.62456 26.9546 3.52607 27.1751C3.43712 27.3732 3.32275 27.4883 3.11942 27.5778C2.90339 27.6737 2.75725 27.6737 2.53804 27.5778C2.35378 27.4947 2.14728 27.2806 2.17905 27.2007C2.18858 27.1783 2.26165 27.1207 2.3379 27.0728C2.5031 26.9737 2.51263 26.929 2.4332 26.5838C2.35378 26.2482 2.19493 26.0405 1.8963 25.8806C1.76287 25.8103 1.69298 25.7944 1.43882 25.7912L1.14019 25.7848L1.04806 25.8902C0.936866 26.0117 0.933689 26.0628 1.02264 26.2035C1.08301 26.3025 1.10207 26.3121 1.24185 26.3121C1.34034 26.3121 1.40705 26.2961 1.43247 26.2642C1.45471 26.2354 1.50554 26.2162 1.54048 26.2226C1.71522 26.2482 1.63579 26.8171 1.36893 27.4468C1.24821 27.7248 0.914627 28.4024 0.854265 28.4823C0.793904 28.5622 0.778019 28.6613 0.822496 28.6901C0.838381 28.6996 0.949574 28.6549 1.0703 28.5942C1.30221 28.4791 1.57225 28.2234 1.71839 27.9773C1.82006 27.8079 1.90583 27.7855 2.09327 27.8814C2.23306 27.9517 2.27753 27.9581 2.7509 27.9581C3.25286 27.9549 3.26239 27.9549 3.46571 27.8591C3.76434 27.7152 3.98037 27.5075 4.15828 27.1847C4.26312 26.9897 4.34255 26.8874 4.42832 26.8363C4.57446 26.7404 4.57764 26.6733 4.43785 26.5614C4.37749 26.5135 4.30125 26.4144 4.2663 26.3377C4.23135 26.261 4.17734 26.1427 4.14558 26.0724C4.06615 25.8998 3.75799 25.5802 3.04635 24.9282C2.30295 24.2506 2.09645 23.9917 1.98526 23.5986C1.94396 23.4388 1.94078 23.3909 1.97255 23.2854C2.02973 23.1096 2.11869 22.9977 2.27118 22.9082C2.48721 22.7804 2.71595 22.8124 2.91928 22.9977C3.04953 23.1192 2.98282 23.2758 2.80173 23.2758C2.71278 23.2758 2.69054 23.3301 2.69371 23.5283C2.70324 23.899 2.92245 24.2858 3.22109 24.4584C3.37676 24.5479 3.40535 24.5543 3.73893 24.5543C4.14558 24.5543 4.18052 24.5351 4.18052 24.3113C4.18052 24.062 3.96767 23.9406 3.79293 24.0876C3.67856 24.1835 3.6468 24.1899 3.58008 24.1196C3.4816 24.0205 3.52607 23.6945 3.70716 23.2215C3.80564 22.9562 3.7834 22.9019 3.49113 22.7101C3.31322 22.595 3.18932 22.5439 2.9574 22.4864C2.60158 22.4001 2.60158 22.4001 2.27118 22.4864Z" fill="#A07238"/>
<path d="M2.27118 22.4864L2.26584 22.4659L2.26557 22.466L2.27118 22.4864ZM1.4007 23.1959L1.38218 23.1857L1.38215 23.1857L1.4007 23.1959ZM1.13066 23.5283L1.14291 23.5455L1.14305 23.5454L1.13066 23.5283ZM1.06712 23.7616L1.05804 23.7807L1.05817 23.7808L1.06712 23.7616ZM1.33081 24.1388L1.31061 24.1451L1.3107 24.1453L1.33081 24.1388ZM2.3093 25.2638L2.32366 25.2483L2.32365 25.2483L2.3093 25.2638ZM3.46571 26.5231L3.48457 26.5135L3.48454 26.5134L3.46571 26.5231ZM3.52607 27.1751L3.54537 27.1837L3.54538 27.1837L3.52607 27.1751ZM3.11942 27.5778L3.1109 27.5584L3.11084 27.5585L3.11942 27.5778ZM2.53804 27.5778L2.52935 27.5971L2.52957 27.5972L2.53804 27.5778ZM2.17905 27.2007L2.15958 27.1924L2.15939 27.1928L2.17905 27.2007ZM2.3379 27.0728L2.32702 27.0547L2.32664 27.0549L2.3379 27.0728ZM2.4332 26.5838L2.45382 26.5791L2.45379 26.5789L2.4332 26.5838ZM1.8963 25.8806L1.90628 25.862L1.90616 25.8619L1.8963 25.8806ZM1.43882 25.7912L1.43837 25.8123L1.43856 25.8123L1.43882 25.7912ZM1.14019 25.7848L1.14064 25.7636L1.13076 25.7634L1.12426 25.7709L1.14019 25.7848ZM1.04806 25.8902L1.06366 25.9045L1.06399 25.9042L1.04806 25.8902ZM1.02264 26.2035L1.04071 26.1925L1.04052 26.1922L1.02264 26.2035ZM1.43247 26.2642L1.44902 26.2774L1.4492 26.2771L1.43247 26.2642ZM1.54048 26.2226L1.53668 26.2435L1.53742 26.2436L1.54048 26.2226ZM1.36893 27.4468L1.38833 27.4552L1.3884 27.455L1.36893 27.4468ZM0.822496 28.6901L0.811004 28.7078L0.811566 28.7082L0.822496 28.6901ZM1.0703 28.5942L1.0609 28.5752L1.06079 28.5753L1.0703 28.5942ZM1.71839 27.9773L1.70026 27.9664L1.70021 27.9665L1.71839 27.9773ZM2.09327 27.8814L2.08364 27.9003L2.08377 27.9003L2.09327 27.8814ZM2.7509 27.9581L2.7509 27.9793L2.75103 27.9793L2.7509 27.9581ZM3.46571 27.8591L3.47473 27.8782L3.47489 27.8781L3.46571 27.8591ZM4.15828 27.1847L4.17681 27.1949L4.17691 27.1947L4.15828 27.1847ZM4.42832 26.8363L4.43916 26.8545L4.43993 26.854L4.42832 26.8363ZM4.43785 26.5614L4.45107 26.5449L4.45101 26.5449L4.43785 26.5614ZM4.14558 26.0724L4.16485 26.0637L4.16479 26.0636L4.14558 26.0724ZM3.04635 24.9282L3.06064 24.9126L3.0606 24.9126L3.04635 24.9282ZM1.98526 23.5986L1.96477 23.6039L1.9649 23.6044L1.98526 23.5986ZM1.97255 23.2854L1.95243 23.2788L1.9523 23.2793L1.97255 23.2854ZM2.27118 22.9082L2.28189 22.9265L2.28195 22.9264L2.27118 22.9082ZM2.91928 22.9977L2.9337 22.9823L2.93353 22.9821L2.91928 22.9977ZM2.69371 23.5283L2.67256 23.5286L2.67257 23.5288L2.69371 23.5283ZM3.22109 24.4584L3.2105 24.4767L3.21054 24.4767L3.22109 24.4584ZM3.79293 24.0876L3.80652 24.1038L3.80655 24.1038L3.79293 24.0876ZM3.58008 24.1196L3.59543 24.105L3.59508 24.1047L3.58008 24.1196ZM3.70716 23.2215L3.72691 23.229L3.72699 23.2288L3.70716 23.2215ZM3.49113 22.7101L3.50273 22.6924L3.50261 22.6923L3.49113 22.7101ZM2.9574 22.4864L2.96249 22.4658L2.96238 22.4658L2.9574 22.4864ZM2.26557 22.466C2.06016 22.5225 1.89529 22.6003 1.75349 22.7156C1.61178 22.8309 1.49424 22.9828 1.38218 23.1857L1.41921 23.2061C1.52955 23.0063 1.64392 22.8593 1.78019 22.7485C1.91638 22.6377 2.07556 22.5621 2.27679 22.5067L2.26557 22.466ZM1.38215 23.1857C1.29725 23.3407 1.2165 23.4401 1.11827 23.5112L1.14305 23.5454C1.24814 23.4694 1.33259 23.3643 1.41925 23.2061L1.38215 23.1857ZM1.11841 23.511C1.07742 23.5402 1.04491 23.5666 1.02116 23.5909C0.997687 23.6149 0.981152 23.6385 0.974808 23.6623C0.96805 23.6876 0.973396 23.711 0.98935 23.7314C1.0044 23.7507 1.02833 23.7666 1.05804 23.7807L1.0762 23.7425C1.04873 23.7295 1.03175 23.717 1.02268 23.7054C1.01451 23.6949 1.01251 23.685 1.01568 23.6732C1.01926 23.6598 1.02993 23.6424 1.05143 23.6204C1.07265 23.5987 1.10288 23.574 1.14291 23.5455L1.11841 23.511ZM1.05817 23.7808C1.09749 23.7991 1.14807 23.8489 1.19597 23.9168C1.24334 23.984 1.28595 24.0659 1.31061 24.1451L1.351 24.1325C1.32484 24.0486 1.28008 23.9627 1.23055 23.8925C1.18155 23.823 1.12571 23.7656 1.07607 23.7424L1.05817 23.7808ZM1.3107 24.1453C1.35317 24.2751 1.4257 24.3982 1.57416 24.5689C1.72234 24.7393 1.94711 24.9581 2.29496 25.2793L2.32365 25.2483C1.97575 24.927 1.75257 24.7096 1.60608 24.5412C1.45989 24.3731 1.39104 24.2549 1.35091 24.1322L1.3107 24.1453ZM2.29495 25.2793C3.15655 26.0758 3.28689 26.2203 3.44688 26.5327L3.48454 26.5134C3.32048 26.1931 3.18396 26.0435 2.32366 25.2483L2.29495 25.2793ZM3.44685 26.5327C3.51957 26.6758 3.5578 26.7808 3.56656 26.8762C3.57526 26.9709 3.5551 27.0582 3.50676 27.1665L3.54538 27.1837C3.59553 27.0714 3.61826 26.9766 3.60869 26.8723C3.59918 26.7688 3.55799 26.658 3.48457 26.5135L3.44685 26.5327ZM3.50678 27.1664C3.46308 27.2638 3.41359 27.3397 3.35073 27.4022C3.28786 27.4647 3.2108 27.5145 3.1109 27.5584L3.12794 27.5972C3.23138 27.5516 3.31316 27.4992 3.38055 27.4322C3.44794 27.3652 3.50011 27.2846 3.54537 27.1837L3.50678 27.1664ZM3.11084 27.5585C3.00443 27.6057 2.91691 27.6286 2.82993 27.6286C2.74292 27.6286 2.65458 27.6057 2.54652 27.5584L2.52957 27.5972C2.64072 27.6458 2.73505 27.6709 2.82993 27.6709C2.92482 27.6709 3.01839 27.6458 3.128 27.5971L3.11084 27.5585ZM2.54674 27.5585C2.45757 27.5183 2.36204 27.4458 2.29282 27.3734C2.25823 27.3372 2.23097 27.3019 2.2144 27.2715C2.20611 27.2563 2.20087 27.243 2.19847 27.2319C2.19605 27.2208 2.1968 27.2133 2.1987 27.2085L2.15939 27.1928C2.15336 27.208 2.15361 27.2247 2.15713 27.2409C2.16066 27.2571 2.16777 27.2743 2.17726 27.2917C2.19623 27.3265 2.22616 27.3649 2.26225 27.4026C2.3344 27.4781 2.43425 27.5542 2.52935 27.5971L2.54674 27.5585ZM2.19851 27.2089C2.1985 27.209 2.19869 27.2085 2.19931 27.2076C2.19992 27.2066 2.20078 27.2054 2.20197 27.2039C2.20437 27.201 2.20772 27.1973 2.21205 27.193C2.22071 27.1844 2.2325 27.1742 2.24666 27.1628C2.27494 27.1402 2.31161 27.1143 2.34916 27.0907L2.32664 27.0549C2.28794 27.0792 2.24995 27.1061 2.22025 27.1298C2.20542 27.1416 2.19239 27.1529 2.18229 27.1629C2.17293 27.1722 2.16377 27.1826 2.15959 27.1924L2.19851 27.2089ZM2.34878 27.0909C2.43155 27.0413 2.48301 27.0012 2.49804 26.9247C2.50527 26.8879 2.50381 26.8441 2.49599 26.7889C2.48816 26.7337 2.47367 26.6654 2.45382 26.5791L2.41259 26.5885C2.43245 26.6748 2.44655 26.7416 2.45411 26.7949C2.46168 26.8483 2.46241 26.8866 2.45653 26.9165C2.44535 26.9734 2.40944 27.0052 2.32702 27.0547L2.34878 27.0909ZM2.45379 26.5789C2.41356 26.409 2.35294 26.2702 2.26377 26.1535C2.17458 26.0367 2.05765 25.943 1.90628 25.862L1.88632 25.8993C2.03359 25.9781 2.1454 26.0682 2.23015 26.1791C2.31491 26.2901 2.37342 26.423 2.41262 26.5887L2.45379 26.5789ZM1.90616 25.8619C1.83852 25.8263 1.78567 25.8037 1.71698 25.79C1.64897 25.7764 1.56623 25.7716 1.43909 25.77L1.43856 25.8123C1.56556 25.8139 1.64486 25.8187 1.70869 25.8315C1.77184 25.8441 1.82065 25.8647 1.88644 25.8994L1.90616 25.8619ZM1.43927 25.77L1.14064 25.7636L1.13974 25.8059L1.43837 25.8123L1.43927 25.77ZM1.12426 25.7709L1.03213 25.8763L1.06399 25.9042L1.15612 25.7987L1.12426 25.7709ZM1.03246 25.876C0.976883 25.9367 0.943403 25.9846 0.939209 26.038C0.93503 26.0913 0.960399 26.1446 1.00477 26.2148L1.04052 26.1922C0.995933 26.1217 0.978413 26.0791 0.981382 26.0413C0.984336 26.0037 1.00804 25.9653 1.06366 25.9045L1.03246 25.876ZM1.00458 26.2145C1.03442 26.2634 1.05706 26.296 1.09306 26.3139C1.1281 26.3313 1.17312 26.3333 1.24185 26.3333V26.291C1.1708 26.291 1.1364 26.2882 1.11187 26.276C1.0883 26.2643 1.07123 26.2426 1.04071 26.1925L1.00458 26.2145ZM1.24185 26.3333C1.29204 26.3333 1.33522 26.3292 1.36966 26.3207C1.40355 26.3123 1.43202 26.2987 1.44902 26.2774L1.41591 26.251C1.4075 26.2616 1.3899 26.2721 1.35946 26.2796C1.32957 26.287 1.29015 26.291 1.24185 26.291V26.3333ZM1.4492 26.2771C1.45726 26.2667 1.47182 26.2567 1.48926 26.25C1.50672 26.2433 1.52412 26.2411 1.53668 26.2434L1.54429 26.2018C1.5219 26.1977 1.49641 26.202 1.47416 26.2105C1.45189 26.219 1.42992 26.2329 1.41573 26.2512L1.4492 26.2771ZM1.53742 26.2436C1.56691 26.2479 1.5916 26.2754 1.60416 26.3402C1.61646 26.4036 1.61492 26.4941 1.59936 26.6052C1.56831 26.827 1.48239 27.1249 1.34946 27.4385L1.3884 27.455C1.52234 27.139 1.60956 26.8375 1.64125 26.6111C1.65706 26.4981 1.65929 26.4023 1.64569 26.3321C1.63233 26.2633 1.60143 26.2102 1.54355 26.2017L1.53742 26.2436ZM1.34953 27.4383C1.28938 27.5769 1.17599 27.8154 1.07001 28.0295C1.01704 28.1364 0.965991 28.2371 0.924454 28.316C0.88247 28.3958 0.851196 28.4513 0.837389 28.4696L0.871142 28.4951C0.887516 28.4734 0.920575 28.4142 0.961886 28.3357C1.00364 28.2564 1.05486 28.1554 1.10792 28.0482C1.21399 27.834 1.32776 27.5947 1.38833 27.4552L1.34953 27.4383ZM0.837389 28.4696C0.805394 28.5119 0.784728 28.5599 0.778166 28.6021C0.771883 28.6426 0.777719 28.6863 0.81101 28.7078L0.833982 28.6723C0.822796 28.6651 0.814335 28.6449 0.819967 28.6086C0.825318 28.5741 0.842775 28.5326 0.871142 28.4951L0.837389 28.4696ZM0.811566 28.7082C0.816223 28.711 0.820989 28.7119 0.824314 28.7123C0.827843 28.7126 0.831377 28.7125 0.834617 28.7122C0.841084 28.7117 0.848482 28.7102 0.85628 28.7081C0.871997 28.704 0.892042 28.6971 0.914797 28.6882C0.960459 28.6703 1.01906 28.6436 1.0798 28.6131L1.06079 28.5753C1.00081 28.6054 0.943453 28.6315 0.899367 28.6488C0.877248 28.6575 0.858971 28.6637 0.845599 28.6672C0.838853 28.669 0.834014 28.6698 0.830888 28.6701C0.829332 28.6702 0.828731 28.6702 0.828827 28.6702C0.828906 28.6702 0.829364 28.6703 0.830084 28.6705C0.830795 28.6707 0.832003 28.6711 0.833426 28.6719L0.811566 28.7082ZM1.0797 28.6131C1.31558 28.4961 1.58855 28.2374 1.73658 27.9881L1.70021 27.9665C1.55596 28.2094 1.28885 28.4621 1.0609 28.5752L1.0797 28.6131ZM1.73653 27.9882C1.7868 27.9044 1.8299 27.863 1.87893 27.8504C1.92842 27.8377 1.99053 27.8526 2.08364 27.9003L2.1029 27.8626C2.00858 27.8143 1.93408 27.7925 1.86841 27.8094C1.80226 27.8264 1.75164 27.8808 1.70026 27.9664L1.73653 27.9882ZM2.08377 27.9003C2.15496 27.9361 2.20347 27.9564 2.29451 27.9672C2.38379 27.9777 2.5147 27.9793 2.7509 27.9793V27.937C2.51374 27.937 2.38572 27.9354 2.29948 27.9251C2.21499 27.9151 2.17137 27.897 2.10278 27.8625L2.08377 27.9003ZM2.75103 27.9793C3.00121 27.9777 3.13089 27.9769 3.22316 27.9643C3.31719 27.9514 3.37296 27.9262 3.47473 27.8782L3.45669 27.8399C3.35514 27.8878 3.30448 27.9105 3.21743 27.9224C3.12861 27.9345 3.00254 27.9354 2.75076 27.937L2.75103 27.9793ZM3.47489 27.8781C3.77781 27.7322 3.99696 27.5212 4.17681 27.1949L4.13976 27.1745C3.96379 27.4938 3.75088 27.6982 3.45653 27.84L3.47489 27.8781ZM4.17691 27.1947C4.28164 26.9999 4.35878 26.9024 4.43915 26.8545L4.41749 26.8181C4.32631 26.8725 4.2446 26.9795 4.13965 27.1747L4.17691 27.1947ZM4.43993 26.854C4.47714 26.8296 4.50658 26.8061 4.5271 26.7825C4.54776 26.7587 4.56042 26.7333 4.56145 26.7056C4.56247 26.678 4.55179 26.6515 4.533 26.6257C4.51432 26.5999 4.48664 26.5734 4.45107 26.5449L4.42464 26.5779C4.45897 26.6054 4.48331 26.6292 4.49877 26.6505C4.51414 26.6717 4.51973 26.689 4.51917 26.7041C4.51861 26.7191 4.51181 26.7355 4.49514 26.7548C4.47833 26.7742 4.45258 26.7951 4.41672 26.8186L4.43993 26.854ZM4.45101 26.5449C4.39346 26.4992 4.31922 26.4028 4.28555 26.3289L4.24705 26.3465C4.28328 26.426 4.36152 26.5278 4.4247 26.578L4.45101 26.5449ZM4.28555 26.3289C4.25058 26.2522 4.1966 26.134 4.16485 26.0637L4.1263 26.0811C4.15809 26.1515 4.21212 26.2698 4.24705 26.3465L4.28555 26.3289ZM4.16479 26.0636C4.12341 25.9737 4.0241 25.8483 3.84829 25.6654C3.67188 25.4819 3.41652 25.2387 3.06064 24.9126L3.03207 24.9438C3.38782 25.2697 3.64236 25.5123 3.8178 25.6948C3.99383 25.8778 4.08832 25.9986 4.12636 26.0813L4.16479 26.0636ZM3.0606 24.9126C2.31698 24.2348 2.11497 23.9795 2.00561 23.5929L1.9649 23.6044C2.07792 24.004 2.28892 24.2665 3.03211 24.9438L3.0606 24.9126ZM2.00573 23.5933C1.98506 23.5133 1.97451 23.4634 1.97263 23.4207C1.97079 23.3788 1.97728 23.343 1.9928 23.2915L1.9523 23.2793C1.93605 23.3332 1.92824 23.3741 1.93037 23.4226C1.93246 23.4702 1.94415 23.5241 1.96478 23.6039L2.00573 23.5933ZM1.99266 23.2919C2.04831 23.1209 2.13404 23.0133 2.28189 22.9265L2.26048 22.89C2.10334 22.9822 2.01115 23.0983 1.95243 23.2788L1.99266 23.2919ZM2.28195 22.9264C2.38633 22.8647 2.49274 22.842 2.59709 22.8565C2.70161 22.871 2.80582 22.9229 2.90503 23.0134L2.93353 22.9821C2.82941 22.8872 2.71758 22.8305 2.6029 22.8146C2.48804 22.7987 2.37207 22.824 2.26041 22.89L2.28195 22.9264ZM2.90485 23.0132C2.96542 23.0697 2.97641 23.1301 2.95778 23.1741C2.939 23.2184 2.88648 23.2546 2.80173 23.2546V23.2969C2.89807 23.2969 2.96944 23.2549 2.99673 23.1906C3.02416 23.1259 3.00339 23.0472 2.9337 22.9823L2.90485 23.0132ZM2.80173 23.2546C2.77758 23.2546 2.75544 23.2583 2.7365 23.269C2.7171 23.2799 2.70328 23.2969 2.6937 23.3195C2.6754 23.3626 2.67099 23.4302 2.67257 23.5286L2.71486 23.528C2.71326 23.4282 2.71838 23.3696 2.73264 23.336C2.73935 23.3202 2.74757 23.3113 2.75726 23.3058C2.76741 23.3001 2.7814 23.2969 2.80173 23.2969V23.2546ZM2.67257 23.5288C2.68227 23.9063 2.90494 24.3001 3.2105 24.4767L3.23167 24.4401C2.93997 24.2715 2.72422 23.8918 2.71486 23.5278L2.67257 23.5288ZM3.21054 24.4767C3.28858 24.5216 3.33731 24.5472 3.4094 24.5607C3.48005 24.5739 3.57281 24.5754 3.73893 24.5754V24.5331C3.57146 24.5331 3.48314 24.5314 3.41718 24.5191C3.35266 24.507 3.30926 24.4847 3.23163 24.44L3.21054 24.4767ZM3.73893 24.5754C3.84053 24.5754 3.91982 24.5742 3.98133 24.5688C4.04244 24.5635 4.08861 24.5538 4.12241 24.5352C4.15771 24.5158 4.17803 24.4875 4.18902 24.4496C4.19959 24.4131 4.20167 24.3671 4.20167 24.3113H4.15937C4.15937 24.3674 4.15709 24.4078 4.14839 24.4378C4.14012 24.4664 4.12629 24.4848 4.10202 24.4982C4.07626 24.5123 4.03744 24.5215 3.97764 24.5267C3.91822 24.5319 3.84065 24.5331 3.73893 24.5331V24.5754ZM4.20167 24.3113C4.20167 24.1808 4.14576 24.0802 4.06279 24.0325C3.97911 23.9844 3.87263 23.9929 3.77932 24.0714L3.80655 24.1038C3.88797 24.0353 3.97528 24.031 4.04171 24.0692C4.10886 24.1078 4.15937 24.1926 4.15937 24.3113H4.20167ZM3.77935 24.0714C3.75088 24.0953 3.72828 24.1129 3.70933 24.1252C3.69028 24.1375 3.67641 24.1433 3.66536 24.145C3.64622 24.148 3.62846 24.1398 3.59542 24.105L3.56474 24.1341C3.59842 24.1696 3.62989 24.1934 3.67191 24.1868C3.69144 24.1838 3.71113 24.1744 3.73228 24.1607C3.75355 24.147 3.7778 24.1279 3.80652 24.1038L3.77935 24.0714ZM3.59508 24.1047C3.57505 24.0845 3.56044 24.0508 3.55389 24.0012C3.54738 23.9519 3.54915 23.8891 3.55973 23.8137C3.58086 23.6629 3.63666 23.4648 3.72691 23.229L3.6874 23.2139C3.59657 23.4512 3.53959 23.6526 3.51783 23.8078C3.50696 23.8854 3.50476 23.9523 3.51195 24.0067C3.51911 24.0609 3.53587 24.1051 3.56508 24.1345L3.59508 24.1047ZM3.72699 23.2288C3.7758 23.0973 3.79866 23.0095 3.76517 22.93C3.74852 22.8905 3.71878 22.8549 3.67591 22.8176C3.6331 22.7804 3.57586 22.7404 3.50273 22.6924L3.47952 22.7278C3.55253 22.7757 3.60768 22.8144 3.64816 22.8495C3.68859 22.8847 3.71305 22.9152 3.72619 22.9464C3.75226 23.0083 3.737 23.0803 3.68733 23.2141L3.72699 23.2288ZM3.50261 22.6923C3.32245 22.5758 3.19631 22.5238 2.96249 22.4658L2.95231 22.5069C3.18232 22.5639 3.30399 22.6142 3.47964 22.7278L3.50261 22.6923ZM2.96238 22.4658C2.78552 22.4229 2.69367 22.4005 2.60476 22.4005C2.51565 22.4005 2.43004 22.423 2.26584 22.4659L2.27653 22.5068C2.44272 22.4634 2.52231 22.4428 2.60476 22.4428C2.68741 22.4428 2.77346 22.4635 2.95241 22.5069L2.96238 22.4658Z" fill="black" mask="url(#path-2-inside-1_1_3804)"/>
<path d="M15.8118 27.615C15.7801 27.5639 15.7292 27.4265 15.6943 27.3082C15.6435 27.1228 15.6339 26.9854 15.6339 26.2791V25.464L15.7324 25.1924C15.7864 25.0422 15.85 24.8632 15.8722 24.7929C15.8793 24.7731 15.889 24.7463 15.9002 24.7153C15.9287 24.6358 15.9673 24.5286 15.9993 24.4413C16.0469 24.3166 16.1041 24.1536 16.1295 24.0737C16.155 23.9938 16.1963 23.8851 16.2217 23.8276L15.9314 22.4736C15.9412 22.4747 15.9538 22.4758 15.969 22.4768C15.9993 22.4787 16.04 22.4804 16.0883 22.4818C16.185 22.4846 16.3121 22.4862 16.4472 22.4862C16.6716 22.4862 16.7931 22.487 16.8586 22.4945C16.8918 22.4983 16.9084 22.5037 16.9168 22.5098C16.9206 22.5126 16.9227 22.5156 16.9239 22.5189C16.9253 22.5224 16.9259 22.5269 16.9259 22.5332C16.9259 22.5387 16.9234 22.5477 16.9174 22.5601C16.9116 22.5721 16.903 22.5863 16.8921 22.6018C16.8703 22.6327 16.8398 22.6682 16.8053 22.7013L16.8126 22.709L16.8053 22.7013C16.6323 22.8656 16.4759 23.1132 16.358 23.4082L16.358 23.4083C16.3309 23.4771 16.3062 23.5435 16.2883 23.5952C16.2794 23.6211 16.2721 23.6433 16.267 23.6603C16.2644 23.6689 16.2624 23.6762 16.261 23.6821C16.2597 23.6876 16.2587 23.6928 16.2587 23.6966C16.2587 23.6989 16.2578 23.7044 16.2553 23.7133C16.2529 23.7217 16.2494 23.7323 16.2451 23.7441C16.2365 23.7678 16.2247 23.7962 16.2121 23.8231L16.212 23.8233C16.1864 23.8813 16.145 23.9903 16.1195 24.0705C16.0941 24.1502 16.037 24.313 15.9894 24.4375L15.9894 24.4376C15.9574 24.525 15.9188 24.6323 15.8902 24.7117C15.879 24.7428 15.8694 24.7695 15.8623 24.7893L15.8623 24.7893L15.8621 24.7897C15.84 24.8597 15.7765 25.0385 15.7225 25.1888M15.8118 27.615L15.8025 27.62C15.8025 27.6201 15.8026 27.6202 15.8027 27.6203M15.8118 27.615L15.8029 27.6206C15.8028 27.6205 15.8027 27.6204 15.8027 27.6203M15.8118 27.615C15.8404 27.6694 15.8563 27.7333 15.8468 27.7621M15.8027 27.6203C15.7862 27.5937 15.7653 27.5459 15.7444 27.4905C15.7232 27.4348 15.7017 27.3706 15.6842 27.3112L15.6841 27.311C15.6328 27.124 15.6234 26.985 15.6234 26.2791V25.464V25.4602L15.624 25.4604L15.7225 25.1888M15.8027 27.6203C15.8165 27.6466 15.8272 27.6752 15.8333 27.7006C15.8396 27.7265 15.8405 27.747 15.8368 27.7584M15.7225 25.1888L15.7324 25.1924L15.7225 25.1888M15.7225 25.1888L15.7225 25.1888M15.7225 25.1888L15.7225 25.1888M15.8368 27.7584C15.8369 27.7584 15.8369 27.7583 15.837 27.7582L15.8468 27.7621M15.8368 27.7584C15.8349 27.7632 15.8325 27.7671 15.8291 27.7705C15.8255 27.774 15.8205 27.7773 15.8129 27.7804C15.7973 27.7867 15.7722 27.7913 15.7305 27.7943L15.8368 27.7584ZM15.8468 27.7621C15.8277 27.81 15.7578 27.8132 15.2463 27.8068L15.8368 27.7587L15.8468 27.7621ZM15.7906 22.7943L15.7906 22.7945C15.8162 23.1384 15.7745 23.3828 15.6216 23.7961L15.6216 23.7961C15.5612 23.9592 15.4915 24.1632 15.4694 24.249L15.4694 24.2492L15.4694 24.2492C15.4453 24.3349 15.4082 24.4105 15.3695 24.4605C15.3502 24.4855 15.3299 24.5047 15.3101 24.5154C15.29 24.5262 15.2689 24.5288 15.2503 24.5174L15.2492 24.5167L15.2492 24.5166C15.2436 24.5121 15.2383 24.5044 15.2333 24.4957C15.2282 24.4866 15.2229 24.4752 15.2178 24.4623C15.2077 24.4365 15.198 24.4039 15.1915 24.3697L15.2019 24.3678M15.7906 22.7943L15.0207 23.9001C15.0639 24.0274 15.1015 24.124 15.129 24.1745C15.1507 24.2182 15.1789 24.3066 15.1915 24.3698L15.2019 24.3678M15.7906 22.7943C15.7795 22.6677 15.7756 22.5978 15.7806 22.5556M15.7906 22.7943L15.7806 22.5556M15.2019 24.3678C15.2146 24.4349 15.24 24.4956 15.2559 24.5084L14.8874 23.4345C14.989 23.7861 15.0843 24.0705 15.1383 24.1696C15.1606 24.2144 15.1892 24.3038 15.2019 24.3678ZM15.7806 22.5556C15.7831 22.5348 15.7877 22.5216 15.7939 22.512M15.7806 22.5556L15.7939 22.512M15.7939 22.512C15.8001 22.5024 15.8085 22.4954 15.8207 22.4878M15.7939 22.512L15.8207 22.4878M15.8207 22.4878L15.815 22.4788L15.8207 22.4878ZM14.7178 27.6088C14.7862 27.5218 14.831 27.3925 14.8589 27.1801C14.8868 26.9677 14.8979 26.6706 14.8979 26.2471C14.8979 25.8399 14.8964 25.6257 14.8756 25.4702C14.8547 25.3141 14.8145 25.217 14.7382 25.0444C14.716 24.9901 14.6749 24.8851 14.6496 24.8056C14.6242 24.7257 14.586 24.6105 14.5637 24.5495C14.5545 24.5244 14.5399 24.4834 14.5227 24.4353C14.5191 24.4253 14.5155 24.4151 14.5117 24.4046C14.4899 24.3435 14.4653 24.2747 14.443 24.214L15.2465 27.7962C14.9842 27.7914 14.8395 27.7874 14.759 27.7787C14.7186 27.7743 14.6959 27.7689 14.6828 27.7623C14.6765 27.7591 14.6729 27.7559 14.6706 27.7528C14.6683 27.7496 14.6668 27.7458 14.6658 27.7408C14.6632 27.7279 14.667 27.7064 14.6768 27.6812C14.6864 27.6565 14.701 27.6303 14.7178 27.6088ZM14.7178 27.6088L14.7094 27.6023M14.7178 27.6088C14.7178 27.6088 14.7178 27.6088 14.7178 27.6088L14.7094 27.6023M14.7094 27.6023C14.8429 27.4329 14.8874 27.0941 14.8874 26.2471C14.8874 25.4321 14.881 25.3937 14.7285 25.0485M14.7094 27.6023C14.6745 27.647 14.6491 27.7109 14.6554 27.7429L14.7285 25.0485M14.7285 25.0485C14.7063 24.9942 14.665 24.8887 14.6396 24.8088C14.6141 24.7289 14.576 24.6139 14.5538 24.5531C14.5446 24.528 14.5299 24.4869 14.5127 24.4388C14.4884 24.3708 14.4591 24.2887 14.4331 24.2175L14.7285 25.0485Z" fill="#A07238" stroke="black" stroke-width="0.0211511"/>
<path d="M7.39571 26.8548L7.40628 26.855C7.40152 27.0753 7.39756 27.1944 7.38312 27.2836C7.36858 27.3734 7.34342 27.4328 7.29731 27.5336L7.29728 27.5336C7.26077 27.6119 7.23891 27.667 7.22925 27.7055C7.21934 27.745 7.22337 27.7627 7.23166 27.771C7.2316 27.771 7.23178 27.7711 7.23239 27.7715L7.23502 27.7728C7.23742 27.7739 7.24076 27.775 7.24518 27.7762C7.25402 27.7785 7.26631 27.7808 7.28225 27.7829C7.31409 27.7872 7.35942 27.7909 7.41848 27.7939C7.53656 27.7999 7.7087 27.803 7.93579 27.803C8.22822 27.803 8.39774 27.8014 8.49655 27.7943C8.54607 27.7907 8.57692 27.7858 8.59634 27.7793C8.61511 27.7731 8.62166 27.766 8.62489 27.7586C8.62818 27.7494 8.62689 27.7326 8.61923 27.7118C8.61174 27.6915 8.59894 27.6695 8.58242 27.6513L8.59024 27.6442M7.39571 26.8548L5.94091 23.0268C5.95044 22.8433 5.94344 22.7465 5.92214 22.6806L5.92214 22.6806L5.92207 22.6803C5.91122 22.6492 5.90424 22.6164 5.90115 22.5884C5.8996 22.5744 5.89904 22.5617 5.89942 22.5512C5.8998 22.5404 5.90113 22.5325 5.90293 22.5277L5.89302 22.524M7.39571 26.8548L7.40628 26.855C7.41264 26.5977 7.40948 26.4149 7.3947 26.2902C7.3873 26.2279 7.37694 26.1796 7.36314 26.1436C7.34939 26.1077 7.3318 26.0829 7.30918 26.0692M7.39571 26.8548C7.38618 27.2958 7.37982 27.3278 7.28769 27.5292C7.21462 27.6858 7.19874 27.7529 7.22415 27.7785C7.24639 27.8008 7.48149 27.8136 7.93579 27.8136C8.52035 27.8136 8.61566 27.8072 8.63472 27.7625C8.64425 27.7369 8.62519 27.6826 8.59024 27.6442M8.59024 27.6442L8.58244 27.6514C8.32253 27.3673 8.21119 26.9901 8.12542 26.1367C8.08729 25.766 8.03647 25.277 8.01106 25.0501L8.01105 25.0501C7.98563 24.8199 7.94433 24.4108 7.91891 24.1391C7.89346 23.8671 7.86174 23.5641 7.84282 23.4689L7.84276 23.4687L7.84277 23.4687C7.81094 23.283 7.7926 23.1203 7.78861 22.9854C7.78463 22.8507 7.79491 22.7429 7.82096 22.6676L7.82104 22.6673C7.83515 22.6295 7.8453 22.5925 7.85073 22.5632C7.85346 22.5486 7.85495 22.5361 7.85523 22.5265C7.85536 22.5217 7.85519 22.5178 7.85479 22.5149C7.85465 22.5139 7.8545 22.5131 7.85435 22.5124L7.85339 22.5121C7.85007 22.5113 7.84503 22.5104 7.83815 22.5095C7.82447 22.5077 7.80463 22.5059 7.77916 22.5042C7.72828 22.5007 7.65567 22.4976 7.56656 22.495C7.38838 22.4898 7.14466 22.4866 6.87787 22.4866C6.46795 22.4866 6.226 22.4883 6.08454 22.495C6.01369 22.4984 5.96871 22.5031 5.94063 22.5093C5.9116 22.5158 5.90471 22.523 5.90289 22.5278L5.89302 22.524M8.59024 27.6442C8.33291 27.363 8.22171 26.989 8.13594 26.1357L5.42601 27.1744M5.89302 22.524C5.88349 22.5496 5.88984 22.6199 5.91208 22.6838L7.85319 23.4669C7.78965 23.0961 7.78012 22.8181 7.83095 22.671C7.85954 22.5943 7.87225 22.5208 7.86272 22.5048C7.85319 22.4889 7.41159 22.4761 6.87787 22.4761C6.05822 22.4761 5.9089 22.4825 5.89302 22.524ZM5.42601 27.1744L5.43583 27.1783C5.39751 27.2747 5.34644 27.3782 5.29615 27.4646C5.27101 27.5077 5.24599 27.5467 5.22278 27.5784C5.19979 27.6098 5.17812 27.6347 5.15951 27.6492C5.15021 27.6573 5.1417 27.6706 5.13664 27.6862C5.13157 27.7019 5.13029 27.719 5.1344 27.7341L5.13468 27.7352L5.13463 27.7352C5.13576 27.742 5.13712 27.747 5.13929 27.7512C5.14134 27.7551 5.14436 27.7586 5.1495 27.7619C5.16045 27.769 5.18067 27.775 5.21994 27.7795C5.2979 27.7887 5.44334 27.7919 5.71847 27.7967C5.91059 27.7998 6.05967 27.799 6.1638 27.7947C6.2159 27.7925 6.25654 27.7894 6.28561 27.7855C6.30016 27.7836 6.31157 27.7815 6.31997 27.7792C6.32885 27.7769 6.33281 27.7748 6.33398 27.7737L6.33424 27.7735L6.33424 27.7735C6.34144 27.7676 6.34572 27.7612 6.34762 27.7526C6.34961 27.7435 6.34917 27.7312 6.34497 27.7134C6.33652 27.6774 6.314 27.6233 6.2742 27.5368C6.27419 27.5368 6.27418 27.5368 6.27417 27.5368L6.17256 27.3228L6.17041 27.3182H6.17154V26.7333C6.17154 26.4667 6.17312 26.3183 6.18112 26.2318C6.18512 26.1885 6.19078 26.1598 6.19912 26.1392C6.20769 26.118 6.21895 26.1058 6.23293 26.0952L6.23304 26.0952C6.29697 26.0482 6.37455 26.0609 6.44849 26.1151C6.52232 26.1693 6.59477 26.2661 6.65239 26.3933C6.67924 26.4521 6.70674 26.5019 6.73089 26.5367C6.74299 26.5542 6.75403 26.5676 6.7635 26.5766C6.76824 26.581 6.77235 26.5841 6.77578 26.5861C6.77929 26.5881 6.78148 26.5885 6.78256 26.5885C6.7836 26.5885 6.78588 26.5881 6.78964 26.5859C6.79329 26.5839 6.79768 26.5806 6.80273 26.576C6.81283 26.5668 6.82467 26.553 6.83755 26.5353C6.86328 26.5 6.89234 26.4503 6.91913 26.3932L6.91923 26.393L6.91923 26.393C6.97688 26.277 7.04916 26.1815 7.1188 26.122C7.15359 26.0923 7.18821 26.0712 7.22047 26.0613C7.25279 26.0514 7.2836 26.0527 7.30918 26.0692M5.42601 27.1744C5.34976 27.3662 5.22268 27.5867 5.15279 27.641L5.63669 25.9927L5.62617 25.9918L5.63668 25.9928C5.63668 25.9928 5.63669 25.9928 5.63669 25.9928C5.61284 26.2694 5.58263 26.5166 5.54842 26.7191C5.51424 26.9214 5.47597 27.0798 5.4358 27.1784L5.42601 27.1744ZM7.30918 26.0692C7.30914 26.0691 7.30909 26.0691 7.30904 26.0691L7.30358 26.0781L7.30932 26.0692C7.30927 26.0692 7.30923 26.0692 7.30918 26.0692ZM6.98232 22.9246L6.9823 22.9246C6.98828 22.9348 6.99434 22.9528 7.00053 22.9763C7.00682 23.0002 7.01352 23.0308 7.02049 23.067C7.03444 23.1393 7.04956 23.2344 7.06466 23.3432C7.09487 23.5607 7.12508 23.8334 7.14574 24.0893L7.14574 24.0893L6.98232 22.9246ZM6.98232 22.9246L6.98191 22.924M6.98232 22.9246L6.98191 22.924M6.98191 22.924C6.9636 22.8972 6.9431 22.8781 6.91503 22.8659C6.88729 22.8539 6.85305 22.849 6.80798 22.849C6.77557 22.849 6.74079 22.8523 6.7112 22.8576C6.6964 22.8602 6.68274 22.8634 6.67123 22.8671C6.66009 22.8705 6.65019 22.8747 6.64326 22.8796M6.98191 22.924L6.4734 23.6896M6.4734 23.6896L6.47341 23.6895C6.49725 23.4576 6.5243 23.2655 6.55259 23.1268C6.56673 23.0574 6.58124 23.0012 6.59593 22.9598C6.60327 22.9392 6.61075 22.922 6.61839 22.9087C6.62582 22.8957 6.634 22.8854 6.64326 22.8796M6.4734 23.6896C6.45435 23.8908 6.40989 24.287 6.37812 24.5683C6.31936 25.0428 6.28915 25.2907 6.27761 25.4268C6.27185 25.4948 6.27068 25.5355 6.2731 25.5629C6.27557 25.5908 6.28181 25.605 6.29036 25.6197C6.29901 25.637 6.31185 25.6525 6.32606 25.6637C6.34016 25.6749 6.35673 25.6828 6.37273 25.6828C6.39236 25.6828 6.41323 25.6717 6.43318 25.6552C6.45346 25.6385 6.47431 25.6149 6.49411 25.5873C6.53371 25.532 6.57003 25.4589 6.58944 25.3873L6.57924 25.3846M6.4734 23.6896L6.57924 25.3846M6.64326 22.8796C6.64316 22.8796 6.64306 22.8797 6.64296 22.8798L6.64913 22.8884L6.64359 22.8794C6.64348 22.8794 6.64337 22.8795 6.64326 22.8796ZM6.66807 25.1752C6.68103 25.1508 6.69314 25.1223 6.70202 25.0963C6.7108 25.0706 6.71689 25.046 6.71689 25.0298C6.71689 25.0187 6.72137 25.0047 6.72942 24.9898C6.73737 24.9751 6.74831 24.9604 6.76005 24.948C6.77188 24.9355 6.78398 24.926 6.79403 24.9211C6.80492 24.9158 6.80884 24.9178 6.81001 24.919C6.80956 24.9185 6.80976 24.9186 6.8107 24.9202L6.81374 24.926C6.81621 24.9311 6.81938 24.9381 6.82318 24.9469C6.83075 24.9646 6.84062 24.9891 6.85212 25.0188C6.8751 25.0782 6.90445 25.158 6.9346 25.2442L6.94456 25.2407L6.93459 25.2442C6.98863 25.4009 7.0342 25.5097 7.07652 25.5794C7.11851 25.6486 7.15938 25.6828 7.20509 25.6828C7.22022 25.6828 7.23407 25.6787 7.246 25.6694C7.25777 25.6602 7.26688 25.6465 7.27382 25.6286C7.2876 25.5932 7.2939 25.5385 7.2935 25.4604C7.29271 25.3038 7.2648 25.0474 7.20922 24.648L6.668 25.1754C6.66803 25.1753 6.66805 25.1753 6.66807 25.1752ZM6.66807 25.1752C6.64304 25.2257 6.60834 25.3208 6.58941 25.3874L6.57924 25.3846M6.66807 25.1752L6.57924 25.3846M5.847 24.0122C5.85116 23.9733 5.8552 23.9356 5.85905 23.8995L5.70014 25.4022L5.70014 25.4022L5.70018 25.4019C5.71609 25.2771 5.74469 25.0117 5.76376 24.8103C5.7805 24.6334 5.81686 24.2937 5.847 24.0122ZM7.85635 22.513C7.85671 22.5132 7.85664 22.5132 7.85633 22.513L7.85635 22.513ZM5.71828 27.8072C6.10269 27.8136 6.31555 27.804 6.34097 27.7817L5.1242 27.7369C5.13373 27.7944 5.16867 27.7976 5.71828 27.8072Z" fill="#A07238" stroke="black" stroke-width="0.0211511"/>
<path d="M12.171 24.8888C11.9549 24.7386 11.8723 24.5084 11.723 23.6135L12.171 24.8888ZM12.171 24.8888C12.3012 24.9815 12.3235 24.9847 12.638 24.9847M12.171 24.8888L12.638 24.9847M9.23551 22.6725L9.2355 22.6725C9.32788 22.868 9.38205 23.0091 9.48061 23.3066L9.48062 23.3066C9.50757 23.3896 9.53775 23.4806 9.56436 23.561C9.59096 23.6412 9.61401 23.7108 9.62673 23.7508C9.62675 23.7508 9.62677 23.7509 9.62678 23.751L9.61671 23.7542C9.6453 23.8341 9.67389 24.0418 9.68342 24.2176L9.23551 22.6725ZM9.23551 22.6725L9.23541 22.6724M9.23551 22.6725L9.23541 22.6724M9.23541 22.6724C9.22153 22.6444 9.2115 22.6141 9.20612 22.5878C9.20343 22.5747 9.20194 22.5627 9.20167 22.5527C9.20139 22.5427 9.20235 22.5353 9.20399 22.5308M9.23541 22.6724L9.20399 22.5308M9.19417 22.5268C9.18464 22.5524 9.19735 22.6195 9.22594 22.6771C9.31807 22.872 9.37208 23.0127 9.47057 23.3099L9.2039 22.531L9.19417 22.5268ZM9.19417 22.5268L9.20408 22.5305C9.20405 22.5306 9.20402 22.5307 9.20399 22.5308M9.19417 22.5268C9.21323 22.4821 9.41974 22.4757 11.0559 22.4757C12.528 22.4757 12.8943 22.4618 12.9329 22.5674C12.9497 22.6136 12.9039 22.6827 12.8604 22.7857L9.20399 22.5308M9.20399 22.5308C9.20494 22.5287 9.20756 22.5253 9.21661 22.5216C9.22604 22.5176 9.24101 22.5138 9.26454 22.5104C9.31147 22.5036 9.38964 22.4987 9.51891 22.4951C9.77725 22.4879 10.2377 22.4863 11.0559 22.4863C11.2226 22.4863 11.3752 22.4861 11.5147 22.4859C11.8177 22.4856 12.0591 22.4853 12.2504 22.4871C12.5302 22.4897 12.7021 22.4967 12.8034 22.5141C12.8542 22.5228 12.8856 22.5339 12.9039 22.5473C12.9128 22.5538 12.9184 22.5607 12.9217 22.5681C12.925 22.5754 12.9263 22.5838 12.9257 22.5937C12.9244 22.614 12.9152 22.6391 12.901 22.6708C12.896 22.6821 12.8903 22.6942 12.8842 22.7071L9.20399 22.5308ZM11.7897 23.3227L11.7974 23.33C11.7491 23.3802 11.727 23.4044 11.719 23.4382C11.715 23.4551 11.7145 23.4751 11.7172 23.5028C11.7198 23.5306 11.7255 23.5653 11.7334 23.6117L11.7334 23.6118C11.8081 24.0593 11.866 24.3397 11.9319 24.5269C11.9977 24.7134 12.0712 24.8065 12.177 24.8801L12.1771 24.8802C12.2421 24.9264 12.2786 24.9492 12.3375 24.9611C12.3973 24.9732 12.4802 24.9741 12.638 24.9741C12.7941 24.9741 12.877 24.9724 12.9282 24.9623C12.9534 24.9573 12.9702 24.9504 12.984 24.9409C12.998 24.9313 13.0095 24.9187 13.0237 24.9013L11.7707 23.019C11.9105 23.1437 11.9136 23.1948 11.7897 23.3227ZM11.7897 23.3227L11.7973 23.33C11.8285 23.2979 11.8522 23.2701 11.8677 23.2443C11.8834 23.2184 11.8912 23.194 11.8896 23.169C11.8881 23.1441 11.8773 23.1201 11.8585 23.0948C11.8399 23.0696 11.8128 23.0424 11.7777 23.0112L11.7777 23.0112L11.7776 23.011C11.7343 22.974 11.6984 22.9492 11.6636 22.9346C11.6284 22.9199 11.5949 22.9157 11.5569 22.919L11.5568 22.919L11.4552 22.9286L11.4456 22.9295V22.9391V25.0646C11.4456 26.0617 11.4464 26.5956 11.4543 26.901C11.4623 27.2063 11.4773 27.2844 11.5065 27.3691C11.5384 27.4654 11.5927 27.5908 11.6249 27.646L11.625 27.6461C11.6368 27.666 11.6463 27.6832 11.6528 27.6982C11.6594 27.7133 11.6625 27.7253 11.6625 27.735C11.6625 27.7442 11.6596 27.7515 11.6531 27.758C11.6462 27.7648 11.6348 27.7712 11.6167 27.7768C11.5804 27.7879 11.5217 27.7945 11.4326 27.7982C11.3438 27.8019 11.2258 27.8027 11.0717 27.8027C10.912 27.8027 10.7914 27.8023 10.7019 27.7982C10.6119 27.7942 10.555 27.7865 10.5218 27.7727C10.5055 27.7659 10.496 27.7581 10.4908 27.7496C10.4857 27.7411 10.4839 27.7305 10.4858 27.7163C10.4878 27.7019 10.4935 27.6846 10.5025 27.6636C10.5115 27.6427 10.5236 27.6188 10.5378 27.5912M11.7897 23.3227L10.5378 27.5912M10.3283 23.3291C10.1917 23.2012 10.2013 23.1437 10.3919 23.0031L10.3814 23.6567L10.4156 23.4257L10.3211 23.3368L10.3211 23.3368L10.3283 23.3291ZM10.3283 23.3291L10.4268 23.4218L10.3283 23.3291ZM11.6341 27.6407C11.7294 27.8005 11.6881 27.8133 11.0717 27.8133C10.4332 27.8133 10.4141 27.8069 10.5285 27.5863M11.6341 27.6407L10.5378 27.5913L10.5285 27.5863M11.6341 27.6407C11.6023 27.5863 11.5483 27.4617 11.5165 27.3658L11.6341 27.6407ZM10.5285 27.5863L10.5379 27.5912C10.5379 27.5912 10.5379 27.5912 10.5378 27.5912M10.5285 27.5863C10.6683 27.3242 10.6746 27.174 10.681 25.0294L10.5378 27.5912M12.638 24.9847C12.9493 24.9847 12.9747 24.9783 13.0319 24.908M12.638 24.9847L13.0319 24.908M13.0319 24.908C13.1717 24.7354 13.0478 24.4573 12.8286 24.4573M13.0319 24.908L12.8286 24.4573M12.8286 24.4573C12.7619 24.4573 12.6983 24.4797 12.6634 24.5212L12.8286 24.4573Z" fill="#A07238" stroke="black" stroke-width="0.0211511"/>
<path d="M19.5897 26.8388C19.9995 27.7369 20.2346 28.13 20.5237 28.3953M19.5897 26.8388L19.5993 26.8344C19.5993 26.8344 19.5993 26.8344 19.5993 26.8344M19.5897 26.8388C19.5262 26.6982 19.4531 26.5384 19.4277 26.4872L19.5897 26.8388ZM20.5237 28.3953L19.5993 26.8344M20.5237 28.3953C20.7524 28.6063 21.0511 28.7693 21.1083 28.7117M20.5237 28.3953L21.1083 28.7117M19.5993 26.8344C20.0092 27.7326 20.2435 28.1239 20.5309 28.3875L20.5309 28.3875C20.6446 28.4925 20.7758 28.5854 20.8854 28.6449C20.9402 28.6747 20.9892 28.6958 21.0277 28.706C21.0469 28.7111 21.063 28.7133 21.0756 28.7127C21.0883 28.7122 21.0962 28.7089 21.1008 28.7043C21.1065 28.6985 21.1102 28.692 21.1118 28.6837C21.1134 28.6751 21.1129 28.6641 21.1091 28.6492C21.1016 28.6192 21.0816 28.5763 21.0451 28.5124L21.045 28.5123C20.9527 28.3443 20.8375 28.118 20.7425 27.9221C20.6951 27.8242 20.6526 27.7338 20.6206 27.662C20.5888 27.5907 20.5669 27.5368 20.5611 27.5125L20.5611 27.5124C20.5548 27.4855 20.5469 27.4579 20.5391 27.4351C20.5352 27.4237 20.5314 27.4136 20.5277 27.4055C20.524 27.3972 20.5209 27.3916 20.5186 27.3887L20.5184 27.3885L20.5184 27.3885C20.5031 27.368 20.483 27.3243 20.4596 27.2647C20.4361 27.2046 20.4088 27.127 20.3792 27.0375C20.3202 26.8585 20.2522 26.6316 20.1879 26.4014C20.1235 26.1712 20.0627 25.9375 20.018 25.7449C19.9956 25.6486 19.9773 25.5626 19.9645 25.4923C19.9518 25.4223 19.9445 25.3672 19.9445 25.3334C19.9445 25.3284 19.9465 25.3234 19.9488 25.3192C19.9512 25.3148 19.9545 25.3099 19.9585 25.3049C19.9666 25.2947 19.978 25.2827 19.9919 25.2698C20.0197 25.2438 20.0582 25.2131 20.1014 25.1841C20.1841 25.1234 20.2785 25.0473 20.3126 25.0099L20.3127 25.0098C20.3946 24.9226 20.4935 24.7858 20.5719 24.6591C20.6111 24.5957 20.645 24.5352 20.6691 24.4848C20.6812 24.4596 20.6907 24.4371 20.6972 24.4182C20.7038 24.399 20.7069 24.3844 20.7069 24.3746C20.7069 24.3423 20.7176 24.2999 20.7346 24.2541C20.7517 24.208 20.7756 24.1575 20.8028 24.1086C20.83 24.0596 20.8606 24.0121 20.8914 23.9722C20.922 23.9323 20.9532 23.8993 20.9816 23.88L20.9818 23.8799L20.9818 23.8799C21.0173 23.8569 21.0429 23.8367 21.0595 23.8182C21.076 23.7997 21.0824 23.7839 21.0818 23.7694C21.0812 23.7547 21.0732 23.7386 21.055 23.72C21.0369 23.7013 21.0095 23.6811 20.9724 23.658L20.9721 23.6578L20.9721 23.6578C20.884 23.5987 20.8194 23.5103 20.724 23.3247L20.7239 23.3246C20.4935 22.8641 20.112 22.582 19.6265 22.5185C19.4905 22.5026 19.0146 22.4866 18.5699 22.4866H17.7735V22.5624C17.7735 22.5848 17.7803 22.6196 17.7914 22.6581C17.8024 22.6964 17.8173 22.7374 17.8329 22.7721C17.8894 22.8922 17.922 23.0361 17.9407 23.374C17.9594 23.7119 17.9641 24.2452 17.9641 25.1448C17.9641 26.0764 17.9602 26.6097 17.9395 26.9441C17.9188 27.2788 17.8813 27.4154 17.8138 27.5529C17.8138 27.553 17.8138 27.553 17.8137 27.553L17.8118 27.5571C17.7808 27.6227 17.7583 27.6701 17.751 27.7052C17.7473 27.7229 17.7477 27.7361 17.7518 27.7463C17.7559 27.7562 17.7639 27.7648 17.7788 27.7722C17.7938 27.7797 17.8152 27.7856 17.8446 27.79C17.8739 27.7945 17.9105 27.7974 17.9557 27.7994C18.0418 27.8031 18.158 27.8031 18.3119 27.803L18.3348 27.803C18.5764 27.803 18.7205 27.8014 18.8057 27.7947C18.8485 27.7913 18.8755 27.7867 18.8924 27.7807C18.909 27.7749 18.9138 27.7685 18.9156 27.7626L18.9161 27.7609L18.9162 27.761C18.9212 27.7511 18.9222 27.7361 18.9189 27.7198C18.9156 27.7037 18.9084 27.6879 18.8987 27.6767L18.8983 27.6763L18.8983 27.6763C18.8863 27.6607 18.8667 27.6228 18.845 27.5751C18.8231 27.5269 18.7983 27.4676 18.776 27.4082L18.776 27.4081C18.7392 27.3069 18.7191 27.242 18.7067 27.1054C18.6943 26.9695 18.6896 26.7621 18.6832 26.3755L18.6832 26.3755C18.68 26.143 18.6781 25.9655 18.6798 25.8302C18.6815 25.695 18.687 25.6013 18.6989 25.5369C18.7107 25.4726 18.7294 25.4347 18.7599 25.4146C18.7899 25.3947 18.8289 25.394 18.8754 25.3964L18.8755 25.3964C18.9369 25.3997 18.9947 25.4264 19.0373 25.4655C19.0798 25.5045 19.1078 25.5567 19.1078 25.6115C19.1078 25.6136 19.1085 25.618 19.1101 25.6254C19.1117 25.6325 19.1142 25.6415 19.1173 25.6523C19.1236 25.6739 19.1328 25.7022 19.1442 25.7355C19.1669 25.802 19.1983 25.8881 19.233 25.9797C19.3025 26.1629 19.3849 26.3679 19.4372 26.4827C19.4628 26.5342 19.5359 26.694 19.5993 26.8344ZM20.9875 23.8888C20.8795 23.9623 20.7175 24.2531 20.7175 24.3746C20.7175 24.4673 20.4856 24.8412 20.3204 25.017C20.2854 25.0554 20.1901 25.1321 20.1075 25.1928L20.9875 23.8888ZM20.9875 23.8888C21.1305 23.7961 21.1273 23.7417 20.978 23.6491L20.9875 23.8888ZM19.936 24.512C20.0027 24.2787 20.0059 23.6363 19.9392 23.4093L19.936 24.512ZM19.936 24.512C19.8756 24.723 19.6691 24.9499 19.5071 24.9818L19.936 24.512ZM21.1083 28.7117C21.1369 28.683 21.1273 28.635 21.0543 28.5072L21.1083 28.7117ZM19.4435 22.8974L19.4435 22.8974L19.4432 22.8974C19.3499 22.8715 19.1647 22.849 19.0305 22.849C19.014 22.849 18.9982 22.8489 18.983 22.8488C18.9567 22.8486 18.9325 22.8485 18.9105 22.8489C18.8759 22.8497 18.8457 22.852 18.8197 22.8586C18.7935 22.8653 18.7713 22.8764 18.7529 22.8948C18.7347 22.9131 18.7209 22.938 18.7103 22.9711C18.6893 23.0368 18.6803 23.1379 18.6764 23.2922C18.6733 23.4161 18.6734 23.5752 18.6736 23.7795C18.6736 23.8301 18.6737 23.8836 18.6737 23.9399C18.6737 24.2324 18.6769 24.473 18.6824 24.6454C18.6852 24.7316 18.6886 24.8008 18.6925 24.8509C18.6944 24.8759 18.6965 24.8963 18.6987 24.9118C18.6998 24.9195 18.701 24.9261 18.7022 24.9315C18.7034 24.9367 18.7048 24.9414 18.7066 24.945L18.7065 24.945L18.7069 24.9456C18.7153 24.96 18.7246 24.9721 18.7391 24.9816C18.7535 24.9909 18.7719 24.9971 18.7977 25.0015C18.8488 25.01 18.9324 25.0116 19.0782 25.0116C19.2592 25.0116 19.4539 25.002 19.5089 24.9923L19.5089 24.9923L19.5091 24.9922C19.5934 24.9756 19.6874 24.909 19.7675 24.8212C19.8477 24.7331 19.9154 24.6223 19.9461 24.5149C19.9799 24.3968 19.9974 24.1766 19.9982 23.9583C19.999 23.7401 19.9831 23.5214 19.9493 23.4064L19.9493 23.4063C19.8815 23.1824 19.6661 22.9656 19.4435 22.8974Z" fill="#A07238" stroke="black" stroke-width="0.0211511"/>
</svg>
