<svg width="50" height="12" viewBox="0 0 50 12" fill="none" xmlns="http://www.w3.org/2000/svg">
<path fill-rule="evenodd" clip-rule="evenodd" d="M33.5347 1.27871C33.3068 1.76018 33.0789 1.92068 32.5547 1.92068C31.8938 1.92068 31.871 1.92068 32.2813 2.37923C32.6231 2.76899 32.6459 2.92948 32.418 3.43389L32.1445 4.05293L32.7371 3.66316C33.2612 3.31925 33.3524 3.31925 33.8765 3.66316C34.4463 4.03 34.4463 4.03 34.3095 3.36511C34.1956 2.81485 34.2868 2.65435 34.8109 2.37923L35.4262 2.03531L34.7881 1.92068C34.3323 1.82897 34.0816 1.62262 33.9677 1.23285L33.831 0.659668L33.5347 1.27871Z" fill="black"/>
<path fill-rule="evenodd" clip-rule="evenodd" d="M28.7486 1.52996C28.7486 1.66753 27.1533 10.7468 27.0622 11.1366C26.971 11.5034 27.1533 11.5493 28.27 11.5493H29.569L30.3439 7.12426C30.7541 4.71688 31.1415 2.44706 31.2099 2.08022C31.3011 1.46118 31.3011 1.46118 30.0248 1.46118C29.3184 1.46118 28.7486 1.48411 28.7486 1.52996Z" fill="black"/>
<path fill-rule="evenodd" clip-rule="evenodd" d="M2.99503 2.19457C1.83275 2.79068 1.17185 3.86827 1.17185 5.15221C1.17185 6.32151 1.85554 7.07811 3.47361 7.67422C5.0461 8.24741 5.29679 8.52254 4.68147 8.95816C4.15731 9.34793 3.29129 9.16451 2.67597 8.56839C2.24297 8.1557 2.22018 8.1557 1.12627 8.70596C0.533738 9.00402 0.0323639 9.37085 0.0323639 9.48549C0.0323639 9.60013 0.35142 10.0587 0.738845 10.4943C2.4025 12.3973 6.3907 12.0075 7.41624 9.8294C8.32783 7.92642 7.57576 6.50492 5.22842 5.58783C3.83825 5.03757 3.54198 4.53316 4.45357 4.30389C5.0461 4.16632 5.95769 4.53317 5.95769 4.92293C5.95769 5.03757 6.48186 4.87708 7.09718 4.55609C7.73529 4.23511 8.23667 3.84534 8.23667 3.68485C8.23667 3.34094 7.21113 2.33213 6.48186 1.94237C5.68422 1.52967 4.08894 1.64431 2.99503 2.19457Z" fill="black"/>
<path fill-rule="evenodd" clip-rule="evenodd" d="M10.9036 3.11282C10.2427 3.29624 9.96923 3.52551 9.78691 4.00699C9.65017 4.41968 9.39948 4.67188 9.126 4.67188C8.693 4.67188 8.53347 5.06165 8.41952 6.39144C8.37394 6.91877 8.44231 7.07926 8.73858 7.05633C9.08042 7.03341 9.12601 7.21683 8.98927 8.77589C8.87532 10.4267 8.89811 10.5413 9.44506 11.0686C9.90086 11.4813 10.2883 11.596 11.1999 11.596C11.838 11.596 12.3849 11.573 12.4305 11.5272C12.4761 11.4813 12.59 10.954 12.6584 10.335C12.8179 9.30322 12.7952 9.25737 12.271 9.25737C11.6101 9.25737 11.4506 8.95931 11.5873 7.92758C11.7012 7.30854 11.7924 7.1939 12.3621 7.1939C13.1142 7.1939 13.2054 7.07926 13.4561 5.72655L13.6384 4.67188H12.9775C12.3166 4.67188 12.2938 4.64896 12.3849 3.75479C12.4761 2.74598 12.4077 2.72305 10.9036 3.11282Z" fill="black"/>
<path fill-rule="evenodd" clip-rule="evenodd" d="M15.6214 4.87734C13.6615 6.06957 12.8867 8.9355 14.0489 10.7238C14.7326 11.7556 16.1456 12.0536 17.3535 11.4346C17.7409 11.2282 18.0371 11.1824 18.0371 11.32C18.0371 11.4575 18.5841 11.5492 19.2906 11.5492C19.9743 11.5492 20.544 11.4804 20.544 11.3658C20.544 11.2741 20.7947 9.76089 21.1138 8.0184C21.4328 6.25299 21.6835 4.78563 21.6835 4.73978C21.6835 4.53343 19.1994 4.71685 19.1311 4.9232C19.0855 5.06076 18.812 5.03784 18.379 4.80856C17.4674 4.32709 16.4874 4.35001 15.6214 4.87734ZM18.0599 6.96374C18.3334 7.12423 18.4929 7.44522 18.4929 7.83498C18.4929 9.14185 17.2623 9.85259 16.4419 9.02721C15.8949 8.47695 15.9861 7.7662 16.7153 7.12423C17.2395 6.66568 17.4446 6.64275 18.0599 6.96374Z" fill="black"/>
<path fill-rule="evenodd" clip-rule="evenodd" d="M26.1733 4.87776C25.5124 5.22167 25.33 5.2446 25.33 4.9924C25.33 4.76312 24.9882 4.67141 24.0766 4.67141C22.9599 4.67141 22.8232 4.74019 22.7092 5.17582C22.5041 6.20755 21.6837 10.9765 21.6837 11.2516C21.6837 11.4579 22.0711 11.5496 22.9143 11.5496H24.145L24.4185 10.0594C24.7375 8.3398 25.2845 7.51441 26.2416 7.30807C26.6063 7.21636 26.9709 7.07879 27.0165 7.01001C27.2216 6.64317 27.4039 4.44214 27.2216 4.44214C27.1076 4.44214 26.6518 4.64848 26.1733 4.87776Z" fill="black"/>
<path fill-rule="evenodd" clip-rule="evenodd" d="M38.7309 4.76293C38.3663 4.94635 38.0928 4.9922 38.0928 4.87756C38.0928 4.74 37.5458 4.67122 36.7938 4.71707L35.4948 4.78585L34.9706 7.76642C34.2641 11.8246 34.2185 11.5494 35.6543 11.5494H36.8622L37.2496 9.57769C37.6598 7.39958 37.9333 6.9181 38.6397 7.00981C39.05 7.0786 39.1183 7.23909 39.1183 8.11033C39.1183 8.68352 39.0272 9.69232 38.9132 10.3343L38.7309 11.5494H39.9843H41.2378L41.4885 10.105C41.6252 9.32549 41.8075 8.04155 41.8987 7.26202C42.0354 5.9093 42.0126 5.81759 41.3289 5.15269C40.5541 4.35023 39.7337 4.23559 38.7309 4.76293Z" fill="black"/>
<path fill-rule="evenodd" clip-rule="evenodd" d="M45.0445 4.76291C43.5404 5.45073 42.5832 6.91809 42.5604 8.61472C42.5376 9.87573 43.0846 10.7699 44.2696 11.3889C45.204 11.8933 47.369 11.8016 48.2578 11.2055L48.8504 10.8158L48.1211 10.0591C47.4602 9.39425 47.3462 9.32547 46.7537 9.55474C46.2523 9.73816 45.9561 9.73816 45.4547 9.46303C44.8622 9.16498 44.9533 9.14205 47.1411 9.07327L49.4657 9.00448L49.6252 8.22495C49.6936 7.78933 49.6936 7.07858 49.6252 6.66589C49.3062 4.90047 46.936 3.91459 45.0445 4.76291ZM47.1639 6.78052C47.6425 7.262 47.4602 7.42249 46.4119 7.42249C45.3408 7.42249 45.0901 7.14736 45.7965 6.7576C46.3207 6.43661 46.8221 6.43661 47.1639 6.78052Z" fill="black"/>
<path fill-rule="evenodd" clip-rule="evenodd" d="M31.8256 4.94652C31.666 5.45092 30.8 10.5867 30.8 11.0911C30.8 11.5038 30.9368 11.5496 32.0079 11.5496H33.2385L33.7399 8.50027C34.0134 6.84949 34.3097 5.29043 34.3552 5.06115C34.4692 4.71724 34.3097 4.67139 33.193 4.67139C32.3725 4.67139 31.8939 4.7631 31.8256 4.94652Z" fill="black"/>
</svg>
