<svg width="33" height="17" viewBox="0 0 33 17" fill="none" xmlns="http://www.w3.org/2000/svg">
<path fill-rule="evenodd" clip-rule="evenodd" d="M12.1209 0.264632L11.864 0.288492L11.8521 0.614586L11.8403 0.944657H12.2514C12.4767 0.944657 12.9866 0.956588 13.3779 0.972495L14.0974 0.996355V5.5577C14.0974 9.99974 14.1132 10.9661 14.1843 10.9661C14.2001 10.9661 14.3187 10.8866 14.4452 10.7871C14.627 10.644 14.7298 10.5963 14.9789 10.5406L15.2832 10.469V5.73268V0.996355L16.3979 0.972495C17.228 0.952611 17.5206 0.932727 17.5443 0.896936C17.5878 0.825355 17.5838 0.419725 17.5403 0.35212C17.5166 0.316329 17.402 0.280539 17.2715 0.264632C17.0027 0.228841 12.5004 0.232817 12.1209 0.264632Z" fill="black"/>
<path fill-rule="evenodd" clip-rule="evenodd" d="M19.2125 0.256585C19.1335 0.272493 19.1295 0.296353 19.1058 1.43371C19.09 2.07397 19.0781 3.37834 19.0781 4.33276V6.07459H18.2085H17.3389V4.37253C17.3389 3.43799 17.327 2.36427 17.3112 1.98648L17.2875 1.30247H16.7459H16.2004L16.1728 2.54322C16.157 3.22723 16.153 5.35479 16.1609 7.26761L16.1728 10.7473L16.2637 10.9421C16.3744 11.1887 16.3744 11.312 16.2518 11.6023C16.1174 11.9204 16.1253 11.992 16.2835 12.0556C16.5206 12.1551 16.7301 12.171 16.9634 12.0994C17.3349 11.992 17.3152 12.1551 17.331 9.18441L17.3468 6.63133H18.2125H19.0781V8.88616C19.0781 10.1309 19.09 11.3995 19.1058 11.7057L19.1295 12.2704L19.2797 12.3181C19.4418 12.3738 19.6078 12.3459 20.0071 12.1948L20.2245 12.1153L20.2205 7.31534C20.2166 4.67477 20.2008 2.00636 20.1889 1.38201L20.1652 0.248632L19.7304 0.244655C19.4932 0.240679 19.26 0.244655 19.2125 0.256585Z" fill="black"/>
<path fill-rule="evenodd" clip-rule="evenodd" d="M10.6662 1.6206C10.1642 1.69218 9.81242 1.87909 9.65035 2.15348C9.50805 2.40004 9.47247 2.70625 9.47247 3.64477C9.47247 5.10424 9.48038 5.11617 11.1327 7.56585C11.5359 8.16634 11.5952 8.26576 11.7849 8.69128C11.9549 9.06907 11.9707 9.1327 12.0023 9.56616C12.0221 9.82068 12.0418 10.5206 12.0418 11.1131C12.0418 11.7096 12.0537 12.1988 12.0735 12.1988C12.0893 12.1988 12.3383 12.163 12.6269 12.1153L13.1526 12.0278L13.1407 10.5325L13.1289 9.03726L12.9589 8.61174C12.7692 8.14248 12.4174 7.55392 11.6466 6.43248C11.3699 6.02685 11.0378 5.50987 10.9153 5.28717L10.686 4.87756L10.6465 3.75612C10.6069 2.52332 10.6267 2.29665 10.8006 2.12565C10.9113 2.0143 11.0457 1.97851 11.3699 1.97851C11.6821 1.97851 11.8244 2.03816 11.9312 2.20916C12.0181 2.35232 12.0221 2.38811 12.0418 3.69647C12.0577 4.71452 12.0735 5.04856 12.113 5.08833C12.1762 5.15196 12.9826 5.1798 13.0696 5.12412C13.121 5.08833 13.1289 4.89347 13.1407 3.84758C13.1526 2.54321 13.1289 2.2529 12.9905 2.05804C12.8957 1.92283 12.5083 1.72797 12.2 1.66036C11.9193 1.60071 10.9904 1.57685 10.6662 1.6206Z" fill="black"/>
<path fill-rule="evenodd" clip-rule="evenodd" d="M22.4898 1.69919C21.8652 1.78668 21.5371 1.9537 21.3474 2.2798C21.2446 2.4508 21.2367 2.51443 21.209 3.04731C21.1932 3.36545 21.1774 5.52086 21.1774 7.83136L21.1735 12.0348L21.3039 12.1302C21.5925 12.3529 21.8217 12.3728 22.1538 12.2098L22.3 12.1382L22.3119 9.77997L22.3198 7.42573H23.0313H23.7428V9.78792V12.1501L23.9998 12.3171L24.2607 12.4881L24.5097 12.3808C24.652 12.3211 24.7943 12.2456 24.8378 12.2177C24.905 12.166 24.9089 12.0189 24.9208 9.08801C24.9366 5.53676 24.8852 2.74906 24.7982 2.42296C24.6678 1.92984 24.229 1.73498 23.1301 1.68328C22.9127 1.67533 22.6242 1.67931 22.4898 1.69919ZM23.4266 2.13266C23.5136 2.1764 23.5926 2.25991 23.644 2.35933C23.7152 2.50647 23.7191 2.62578 23.7349 4.48292C23.7428 5.5646 23.7349 6.55879 23.7152 6.69002L23.6835 6.92863L23.1301 6.94056C22.8258 6.94851 22.5174 6.94056 22.4502 6.92863L22.3198 6.90477V5.18681C22.3237 3.27001 22.3593 2.49057 22.4502 2.31161C22.5886 2.04119 23.0669 1.9537 23.4266 2.13266Z" fill="black"/>
<path fill-rule="evenodd" clip-rule="evenodd" d="M5.2659 3.45376C5.25405 3.58897 5.24219 5.2791 5.24219 7.20783V10.7153L5.52284 10.7432C5.677 10.7551 5.90627 10.8028 6.03276 10.8466C6.16321 10.8903 6.28575 10.9261 6.30946 10.9261C6.35295 10.9261 6.36876 3.72021 6.32528 3.39411L6.29761 3.21118H5.79559H5.29357L5.2659 3.45376Z" fill="black"/>
<path fill-rule="evenodd" clip-rule="evenodd" d="M7.50775 3.25941C7.44846 3.35087 7.38521 10.684 7.44055 10.9624C7.47218 11.1056 7.53147 11.1175 7.6382 11.0022C7.75283 10.8749 7.9228 10.8033 8.22322 10.7516L8.50388 10.7039L8.52759 10.1472C8.56317 9.41941 8.56317 3.77639 8.52759 3.47018L8.50388 3.23157L8.02163 3.21964C7.66587 3.21169 7.53147 3.22362 7.50775 3.25941Z" fill="black"/>
<path fill-rule="evenodd" clip-rule="evenodd" d="M25.8974 3.27995C25.8776 3.31972 25.8579 4.56047 25.846 6.03982L25.8302 8.72413L25.9567 9.30077C26.2452 10.6091 26.5536 11.7862 26.6959 12.1322C26.8777 12.5577 27.3007 12.3828 27.3007 11.8857C27.3007 11.7624 27.2809 11.5357 27.2572 11.3846C27.0398 9.8933 26.9923 9.0383 26.9528 5.7177L26.9251 3.23223L26.4271 3.2203C25.9804 3.21235 25.9251 3.21632 25.8974 3.27995Z" fill="black"/>
<path fill-rule="evenodd" clip-rule="evenodd" d="M28.1071 3.25438C28.0913 3.28221 28.0637 4.54285 28.0478 6.05004C28.032 7.56121 28.0004 8.96898 27.9767 9.17577C27.87 10.1541 27.8225 10.6352 27.8265 10.7466C27.8304 10.8102 27.8186 11.0051 27.7988 11.1761C27.7672 11.4902 27.7672 11.4902 27.8542 11.4425C27.9016 11.4187 28.032 11.3113 28.1427 11.2119C28.2573 11.1085 28.4155 10.9733 28.4985 10.9096C28.5815 10.846 28.6764 10.7426 28.708 10.683C28.791 10.5199 29.0716 9.25531 29.1191 8.81389C29.1705 8.37644 29.1586 3.31403 29.1072 3.26233C29.0875 3.24642 28.8621 3.22654 28.6052 3.21859C28.2573 3.20665 28.1309 3.21859 28.1071 3.25438Z" fill="black"/>
<path fill-rule="evenodd" clip-rule="evenodd" d="M3.74421 4.80138L3.21452 4.82126L2.82714 6.78976C2.61369 7.87144 2.43186 8.78211 2.4279 8.81393C2.40814 8.91732 2.32908 8.90142 2.28165 8.79007C2.25793 8.73042 2.21445 8.54351 2.18282 8.38046C2.15515 8.21741 2.0089 7.5016 1.86264 6.78976C1.71638 6.07792 1.56618 5.34619 1.5306 5.15929L1.46735 4.82126L0.917904 4.80933L0.368454 4.7974L0.392171 7.48967C0.407983 8.973 0.419841 10.862 0.419841 11.6891V13.1923H0.973244H1.52665L1.5306 11.7289C1.5306 10.9256 1.54641 10.178 1.56618 10.0706C1.58199 9.95924 1.5978 9.88368 1.60175 9.89958C1.69267 10.3847 1.91798 11.6295 1.93775 11.7647C1.98123 12.059 2.02866 12.0987 2.34094 12.0948C2.55835 12.0948 2.61764 12.0788 2.66903 12.0112C2.71251 11.9595 2.78761 11.6215 2.88644 11.0409C2.96945 10.5518 3.05246 10.1223 3.07222 10.0905C3.09199 10.0507 3.1078 10.1541 3.1078 10.3688C3.1078 10.9097 3.15523 11.367 3.20662 11.3869C3.23429 11.3988 3.33311 11.3551 3.42798 11.2915C3.52285 11.2278 3.74421 11.1165 3.91814 11.0449C4.09206 10.9693 4.24623 10.8978 4.26599 10.8858C4.2818 10.8739 4.28971 9.49395 4.28575 7.81974L4.2739 4.78149L3.74421 4.80138Z" fill="black"/>
<path fill-rule="evenodd" clip-rule="evenodd" d="M30.1625 4.85047C30.1428 4.87831 30.123 6.17076 30.1151 7.72567L30.0993 10.5492L30.2574 10.6406C30.5776 10.8196 30.7238 11.1019 30.6883 11.4678C30.6606 11.7303 30.5499 11.9848 30.3127 12.3347C30.1428 12.5813 30.1269 12.625 30.1269 12.8398C30.1269 12.9949 30.1467 13.0943 30.1862 13.1301C30.2534 13.1977 30.7989 13.2216 31.8781 13.2017L32.5184 13.1937V12.8994V12.6091L31.9571 12.5813C31.6488 12.5654 31.3879 12.5455 31.38 12.5415C31.3721 12.5336 31.3563 11.7581 31.3444 10.8196L31.3207 9.10958L31.6883 9.08572C31.8899 9.06981 32.1311 9.05788 32.222 9.05788C32.4196 9.05788 32.4433 9.01016 32.4117 8.67611L32.388 8.46137H31.8623H31.3326V6.95418C31.3326 5.92817 31.3444 5.43506 31.3761 5.41915C31.3998 5.40324 31.6528 5.37938 31.9374 5.36745L32.4591 5.33961V5.08112V4.82264L31.3247 4.8107C30.4511 4.80275 30.1862 4.81468 30.1625 4.85047Z" fill="black"/>
<path fill-rule="evenodd" clip-rule="evenodd" d="M9.46834 9.43825C9.41695 9.57346 9.45253 10.9892 9.51577 11.2874C9.54344 11.4068 9.53949 11.5261 9.51577 11.6454C9.45648 11.8879 9.46438 12.0908 9.52763 12.1782C9.57902 12.2498 9.59088 12.2498 10.0099 12.1623C10.2471 12.1106 10.4803 12.0629 10.5317 12.051L10.6226 12.0311L10.6107 10.7267C10.6028 10.0069 10.583 9.40644 10.5672 9.39053C10.5514 9.37065 10.3063 9.35077 10.0257 9.34281L9.51182 9.3269L9.46834 9.43825Z" fill="black"/>
<path fill-rule="evenodd" clip-rule="evenodd" d="M15.0459 11.1279C14.8956 11.1875 14.7059 11.3903 14.4845 11.7204C14.2948 12.0067 13.6662 12.8339 13.6386 12.8339C13.6346 12.8339 13.5635 12.7941 13.4844 12.7504C13.3539 12.6708 13.2986 12.6669 12.9586 12.6867C12.2827 12.7225 11.8636 12.9413 11.1995 13.5974C10.65 14.1422 10.1638 14.4604 10.061 14.357C10.0334 14.3292 10.1243 14.19 10.3299 13.9474C10.9544 13.1998 10.9544 13.1998 10.9268 12.9691C10.9189 12.8935 10.8714 12.8259 10.7765 12.7623C10.5828 12.6311 10.2982 12.6589 9.85943 12.8538C9.67759 12.9333 9.50761 13.0089 9.48389 13.0208C9.45622 13.0327 9.41669 12.9969 9.39693 12.9413C9.30601 12.7027 9.01743 12.7066 8.79606 12.9452C8.72095 13.0248 8.55492 13.2236 8.42843 13.3827C8.04102 13.8758 7.36505 14.4007 7.0488 14.4524C6.63373 14.52 6.93021 13.9394 7.98963 12.6152C8.76444 11.6448 8.86722 11.4619 8.68537 11.3625C8.55888 11.2989 8.27821 11.3148 8.13985 11.3983C8.07265 11.442 7.80384 11.7403 7.54294 12.0664C7.02113 12.7186 6.28191 13.4622 5.80754 13.8161C5.27388 14.2138 4.62162 14.4723 4.4714 14.3451C4.30142 14.2059 4.50698 13.8639 5.39642 12.8021C5.62175 12.5317 5.86288 12.2175 5.93799 12.1061C6.08426 11.8795 6.11193 11.6767 6.0131 11.5335C5.86684 11.3227 5.25411 11.2631 4.70463 11.4023C3.93774 11.5971 3.44756 12.0147 3.75195 12.2175C3.87844 12.297 4.04843 12.2453 4.52279 11.9749C4.91019 11.7602 5.29759 11.6409 5.3727 11.7164C5.42409 11.7681 5.20272 12.0544 4.60976 12.6947C3.86263 13.498 3.6294 13.8997 3.67288 14.2973C3.70451 14.5956 4.04447 14.8581 4.3963 14.862C4.7837 14.862 5.34898 14.5996 5.79173 14.2059C5.9538 14.0627 6.10797 13.9474 6.1396 13.9474C6.20285 13.9474 6.20285 13.9394 6.13169 14.1422C6.06054 14.349 6.11193 14.5121 6.30563 14.6751C6.56258 14.8899 6.91045 14.9058 7.32947 14.7189C7.57456 14.6075 7.71292 14.5956 7.7485 14.6831C7.76431 14.7229 7.82756 14.7427 7.94615 14.7427C8.12009 14.7427 8.12799 14.7388 8.40866 14.3928C8.81187 13.8997 9.06092 13.6491 9.33368 13.4503C9.97803 12.985 10.4405 12.9333 10.1164 13.3628C10.0531 13.4423 9.89106 13.6332 9.7527 13.7923C9.37321 14.2258 9.29415 14.5002 9.49575 14.6592C9.58272 14.7268 9.65783 14.7427 9.89501 14.7427C10.2034 14.7427 10.3022 14.7069 10.6856 14.4644C10.7884 14.3968 10.8951 14.3451 10.9228 14.3451C10.9505 14.3451 11.0058 14.4127 11.0493 14.5002C11.1442 14.6871 11.2984 14.7547 11.6067 14.7547C11.8834 14.7507 12.1483 14.6393 12.4052 14.4206C12.508 14.3371 12.6068 14.2655 12.6305 14.2655C12.6543 14.2655 12.674 14.3212 12.674 14.3888C12.674 14.4683 12.7136 14.5479 12.7887 14.6274C12.8875 14.7268 12.9349 14.7427 13.1168 14.7427C13.3658 14.7427 13.6623 14.6155 13.9706 14.3769C14.0853 14.2894 14.188 14.2258 14.1999 14.2377C14.2118 14.2496 14.2513 14.3172 14.2908 14.3928C14.3304 14.4644 14.445 14.5837 14.5478 14.6513C14.7138 14.7666 14.7731 14.7825 14.9866 14.7825C15.3344 14.7825 15.6151 14.7189 15.9155 14.5797C16.2674 14.4166 16.5006 14.2258 17.141 13.6094C17.564 13.1958 17.7181 13.0725 17.8249 13.0526C18.1253 12.993 18.1134 13.0327 17.6944 13.5099C17.058 14.2258 16.9473 14.4803 17.1845 14.6791C17.4256 14.8819 17.9276 14.7905 18.4336 14.4524C18.5799 14.353 18.7262 14.2655 18.7499 14.2576C18.7776 14.2496 18.8289 14.3093 18.8685 14.3848C19.1057 14.8501 19.7856 14.9058 20.5406 14.524C20.6829 14.4524 20.8252 14.3649 20.8529 14.3292C20.932 14.2337 20.9636 14.2456 21.2166 14.4803C21.4973 14.7427 21.6475 14.7984 22.0191 14.7745C22.3867 14.7507 22.6555 14.6195 23.0469 14.2735C23.4382 13.9355 23.7031 13.7406 23.7584 13.7605C23.7861 13.7684 23.798 13.8838 23.79 14.0707C23.7703 14.5638 23.9165 14.7427 24.3395 14.7427C24.6755 14.7427 24.9167 14.6513 25.1815 14.4286C25.312 14.3172 25.4306 14.2377 25.4503 14.2496C25.4661 14.2615 25.482 14.3331 25.482 14.4087C25.482 14.6314 25.6243 14.7427 25.9049 14.7427C26.1619 14.7427 26.3477 14.6672 26.6481 14.4485C26.7548 14.3689 26.8695 14.3053 26.8972 14.3053C26.9209 14.3053 26.9762 14.3808 27.0118 14.4683C27.162 14.8541 27.7708 14.8859 28.2728 14.5399C28.5416 14.357 29.2097 13.6849 29.1899 13.6213C29.1465 13.4901 29.0041 13.5577 28.5812 13.8957C28.1305 14.2655 27.9605 14.361 27.8064 14.3371C27.7273 14.3252 27.7154 14.3053 27.7194 14.1383C27.7194 13.8957 27.8222 13.7525 28.2017 13.4503C29.0041 12.814 29.688 12.1061 29.858 11.7323C29.9924 11.442 29.9726 11.2074 29.8145 11.1279C29.6643 11.0563 29.3204 11.1239 29.099 11.271C28.6563 11.5693 27.6957 12.6748 27.3004 13.3509C27.1106 13.669 26.8695 13.9235 26.5611 14.1303C26.2963 14.3093 26.1224 14.3689 26.067 14.3132C26.0077 14.2536 26.1382 14.0627 26.5098 13.6491C26.6639 13.4741 26.8221 13.2713 26.8576 13.1998C26.9209 13.0725 26.9169 13.0606 26.8537 13.0128C26.8141 12.985 26.7153 12.9532 26.6323 12.9373C26.5453 12.9254 26.4228 12.8697 26.3595 12.814C26.1263 12.6191 25.6559 12.6112 25.1104 12.7941C24.9602 12.8418 24.6913 12.993 24.4304 13.1719C23.8454 13.5815 23.7347 13.5736 23.6912 13.1361C23.6635 12.8577 23.5687 12.7345 23.3315 12.6708C22.7781 12.5197 21.857 12.9174 21.2838 13.5537C20.8845 13.9951 20.3509 14.3252 19.9477 14.3729C19.8054 14.3888 19.75 14.3769 19.663 14.3053C19.5247 14.1979 19.5247 14.0985 19.667 13.848C19.8844 13.4662 20.4102 13.0089 20.679 12.9651C20.8529 12.9373 20.8608 13.0049 20.7185 13.2157C20.592 13.3986 20.6078 13.4463 20.7857 13.4622C20.9004 13.4702 20.9557 13.4503 21.0743 13.3469C21.3668 13.0884 21.3747 12.9015 21.0941 12.7384C20.8094 12.5674 20.2046 12.6748 19.7026 12.981C19.5761 13.0566 19.2559 13.327 18.991 13.5775C18.3625 14.178 17.9197 14.4683 17.8051 14.353C17.7537 14.3013 17.979 13.9911 18.4099 13.5338C18.8052 13.1123 18.9001 12.9691 18.8566 12.8538C18.821 12.7623 18.6708 12.7424 18.2439 12.7703C17.8684 12.7981 17.8525 12.7941 17.8525 12.7186C17.8525 12.6748 17.8091 12.6072 17.7537 12.5714C17.5007 12.4044 16.9868 12.7583 17.1331 12.9969C17.2121 13.1202 17.1884 13.1799 16.9591 13.4264C16.6627 13.7525 16.3187 14.007 15.9195 14.2019C15.3384 14.4803 14.947 14.4127 14.947 14.0309C14.947 13.9434 14.9628 13.8599 14.9787 13.844C14.9945 13.8281 15.2 13.8002 15.4333 13.7843C16.0697 13.7366 16.4176 13.5974 16.6073 13.3191C16.7457 13.1162 16.7338 12.989 16.5678 12.8379C16.3187 12.6191 15.9946 12.5913 15.4767 12.7544C15.1645 12.8498 14.947 13.0128 14.3066 13.6332C13.7018 14.2178 13.4251 14.4047 13.3223 14.2973C13.2709 14.2496 13.2867 14.2098 13.4172 14.0031C13.5674 13.7724 14.0695 13.156 14.8601 12.2374C15.5835 11.3983 15.7179 11.1637 15.5123 11.108C15.3819 11.0722 15.1605 11.0841 15.0459 11.1279ZM29.5932 11.5733C29.5932 11.7443 28.4626 13.0327 28.3124 13.0327C28.2175 13.0327 28.8816 12.122 29.2413 11.7641C29.4746 11.5295 29.5932 11.4659 29.5932 11.5733ZM13.3223 12.9771C13.4567 13.0288 13.3816 13.1679 13.0219 13.5258C12.6266 13.9195 12.3024 14.1542 11.9901 14.2735C11.6502 14.4047 11.5434 14.2695 11.749 13.9633C12.0218 13.5497 12.5436 13.16 13.01 13.0089C13.1958 12.9492 13.2393 12.9452 13.3223 12.9771ZM16.2476 13.0168C16.3385 13.1043 16.3267 13.16 16.2002 13.2833C16.0499 13.4264 15.793 13.5099 15.4886 13.5099H15.2317L15.3226 13.4105C15.4451 13.2793 15.7811 13.0566 15.9353 13.0009C16.1053 12.9413 16.1764 12.9452 16.2476 13.0168ZM23.288 13.0248C23.288 13.0526 23.2169 13.1162 23.1338 13.164C22.9441 13.2713 22.8215 13.4304 22.8571 13.5219C22.869 13.5616 22.9322 13.6173 22.9955 13.6531C23.0587 13.6849 23.1101 13.7366 23.1101 13.7684C23.1101 13.844 22.9204 13.9832 22.5567 14.178C22.11 14.4206 21.8768 14.4365 21.77 14.2297C21.6238 13.9593 22.2839 13.2514 22.8848 13.0287C23.1101 12.9452 23.288 12.9452 23.288 13.0248ZM26.067 12.9771C26.1856 13.0128 26.1777 13.1043 26.0275 13.3071C25.7152 13.7326 24.7506 14.3968 24.5372 14.3252C24.1933 14.2178 25.0234 13.2992 25.7152 13.0287C25.9208 12.9492 25.9405 12.9452 26.067 12.9771Z" fill="black"/>
<path fill-rule="evenodd" clip-rule="evenodd" d="M3.17483 12.7029C3.13135 12.7427 3.14321 13.1443 3.18669 13.1721C3.23017 13.2 3.50292 12.9494 3.50292 12.8818C3.50292 12.8301 3.30923 12.675 3.24599 12.675C3.22227 12.675 3.18669 12.687 3.17483 12.7029Z" fill="black"/>
<path fill-rule="evenodd" clip-rule="evenodd" d="M0.38814 13.8768L0.399999 14.008L1.4317 14.0199C2.56618 14.0319 2.85869 14.008 2.92589 13.8967C2.95751 13.841 2.95751 13.8171 2.91008 13.7893C2.8745 13.7654 2.33296 13.7495 1.61353 13.7495H0.376282L0.38814 13.8768Z" fill="black"/>
<path fill-rule="evenodd" clip-rule="evenodd" d="M30.0046 13.7893C29.9177 13.8251 29.8505 13.9404 29.8939 13.9841C29.9058 13.9961 30.5066 14.008 31.2261 14.008H32.5384L32.5503 13.8768L32.5621 13.7495L31.3249 13.7535C30.645 13.7535 30.0521 13.7694 30.0046 13.7893Z" fill="black"/>
<path fill-rule="evenodd" clip-rule="evenodd" d="M2.26592 15.3848C1.81529 15.516 1.66508 16.0807 2.00108 16.4028C2.30545 16.6892 2.89047 16.6812 3.14741 16.3909C3.38853 16.1165 3.33715 15.695 3.04463 15.4882C2.85885 15.357 2.52285 15.3132 2.26592 15.3848ZM2.86676 15.6115C2.9221 15.6512 2.99325 15.7507 3.01696 15.8302C3.15532 16.2477 2.66911 16.6216 2.30149 16.379C2.14733 16.2756 2.08409 16.1523 2.08013 15.9455C2.08013 15.8103 2.10385 15.7546 2.19081 15.6711C2.25011 15.6154 2.33312 15.5558 2.3766 15.5359C2.49518 15.4842 2.75212 15.524 2.86676 15.6115Z" fill="black"/>
<path fill-rule="evenodd" clip-rule="evenodd" d="M5.33735 15.3798C5.22271 15.4275 5.08436 15.6104 5.08436 15.7178C5.08436 15.8649 5.25829 16.0001 5.47965 16.028C5.70496 16.0558 5.93818 16.1552 5.96981 16.2388C5.98167 16.2706 5.954 16.3342 5.91051 16.3779C5.79193 16.4972 5.49546 16.4654 5.30177 16.3183C5.08436 16.1513 4.93811 16.2586 5.13575 16.4455C5.45989 16.7518 6.2307 16.6126 6.2307 16.2467C6.2307 16.1871 6.19512 16.0996 6.15559 16.0598C6.08839 15.9922 5.73659 15.857 5.62591 15.857C5.5429 15.857 5.32154 15.7258 5.32154 15.6741C5.32154 15.5945 5.4836 15.4991 5.62195 15.4991C5.68915 15.4991 5.81169 15.5428 5.89075 15.5985C6.04886 15.7059 6.19117 15.7297 6.19117 15.6462C6.19117 15.4434 5.618 15.2644 5.33735 15.3798Z" fill="black"/>
<path fill-rule="evenodd" clip-rule="evenodd" d="M13.6943 15.376C13.2397 15.5231 13.0697 15.9367 13.3029 16.3185C13.4413 16.5491 13.8643 16.6684 14.2121 16.573C14.7299 16.4338 14.8564 15.7895 14.4295 15.4873C14.2516 15.364 13.8998 15.3123 13.6943 15.376ZM14.2398 15.5987C14.3742 15.6861 14.4651 15.9128 14.4374 16.0759C14.4216 16.1435 14.3584 16.2548 14.2912 16.3185C14.1884 16.4179 14.141 16.4338 13.9591 16.4338C13.6982 16.4338 13.548 16.3344 13.469 16.1077C13.4176 15.9645 13.4215 15.9367 13.4887 15.7935C13.6231 15.5151 13.9749 15.4237 14.2398 15.5987Z" fill="black"/>
<path fill-rule="evenodd" clip-rule="evenodd" d="M15.335 15.4122C15.078 15.5156 14.9753 15.6269 14.9476 15.8337C14.9041 16.1161 14.9515 16.2712 15.1255 16.4263C15.3547 16.637 15.7698 16.6728 16.0781 16.5098C16.2441 16.4263 16.3943 16.1757 16.3983 15.9888C16.4022 15.7065 16.252 15.5037 15.9595 15.4003C15.7421 15.3247 15.5445 15.3287 15.335 15.4122ZM15.9042 15.5792C16.1888 15.7542 16.2323 16.0723 16.003 16.303C15.7144 16.5973 15.165 16.4183 15.165 16.0286C15.165 15.6269 15.5761 15.3764 15.9042 15.5792Z" fill="black"/>
<path fill-rule="evenodd" clip-rule="evenodd" d="M23.648 15.3793C23.395 15.4589 23.2092 15.7651 23.2409 16.0474C23.2646 16.2701 23.3674 16.4093 23.5848 16.5207C23.9049 16.6877 24.3398 16.6121 24.573 16.3536C24.6599 16.2622 24.6718 16.2105 24.6718 15.9838C24.6678 15.6656 24.5967 15.5344 24.3832 15.4469C24.1935 15.3714 23.7943 15.3356 23.648 15.3793ZM24.2212 15.5901C24.2963 15.6378 24.3872 15.7452 24.4267 15.8287C24.4979 15.9719 24.4979 15.9798 24.4267 16.123C24.3319 16.3178 24.1303 16.453 23.9287 16.453C23.8022 16.453 23.7468 16.4252 23.6203 16.298C23.4978 16.1747 23.4662 16.115 23.4662 15.9957C23.4662 15.598 23.8931 15.3674 24.2212 15.5901Z" fill="black"/>
<path fill-rule="evenodd" clip-rule="evenodd" d="M28.3165 15.3956C28.1109 15.4712 28.0279 15.5547 27.9489 15.7615C27.7908 16.183 28.1109 16.6125 28.5853 16.6125C28.8066 16.6125 29.0636 16.4853 29.1545 16.3302C29.2968 16.0955 29.1743 16.0677 28.9292 16.2785C28.8185 16.3699 28.7078 16.4296 28.605 16.4415C28.4667 16.4614 28.4351 16.4495 28.3125 16.3262C28.0793 16.0916 28.0754 15.8649 28.3086 15.6302C28.4786 15.4592 28.609 15.4592 28.8817 15.6382C29.1189 15.7933 29.2138 15.7734 29.1189 15.5945C29.0082 15.3916 28.6011 15.2882 28.3165 15.3956Z" fill="black"/>
<path fill-rule="evenodd" clip-rule="evenodd" d="M29.9652 15.3682C29.8269 15.3961 29.562 15.6466 29.5146 15.8017C29.4593 15.9727 29.483 16.1357 29.6016 16.3266C29.7122 16.5056 29.9455 16.609 30.2419 16.6129C30.4633 16.6129 30.4791 16.605 30.6491 16.434C30.7479 16.3385 30.819 16.2351 30.8111 16.2073C30.7795 16.1119 30.6728 16.1318 30.5582 16.2471C30.3408 16.4618 30.1945 16.5016 29.9889 16.3942C29.7518 16.2709 29.6806 15.9329 29.8427 15.6943C30.0008 15.4557 30.1905 15.4557 30.57 15.7023C30.6926 15.7778 30.7005 15.7818 30.7281 15.7182C30.8072 15.5034 30.3487 15.2927 29.9652 15.3682Z" fill="black"/>
<path fill-rule="evenodd" clip-rule="evenodd" d="M31.5263 15.3762C31.1943 15.4835 31.0757 15.6864 31.0915 16.1039C31.0955 16.2471 31.2733 16.4499 31.471 16.5374C31.8228 16.7004 32.3604 16.5652 32.4948 16.2789C32.6331 15.9886 32.5422 15.6506 32.2853 15.4796C32.1114 15.3642 31.724 15.3125 31.5263 15.3762ZM32.0876 15.583C32.2023 15.6267 32.3209 15.8454 32.3209 16.0124C32.3209 16.2351 32.056 16.4539 31.7872 16.4539C31.6844 16.4539 31.6093 16.4181 31.4987 16.3187C31.3643 16.1914 31.3524 16.1636 31.3524 15.9647C31.3524 15.8057 31.3722 15.7221 31.4275 15.6625C31.5659 15.5074 31.8188 15.4796 32.0876 15.583Z" fill="black"/>
<path fill-rule="evenodd" clip-rule="evenodd" d="M0.46728 15.4275C0.479139 15.4554 0.558196 15.4832 0.64516 15.4912C0.736076 15.4991 0.830945 15.5309 0.858615 15.5627C0.890238 15.6025 0.917908 15.7974 0.925814 16.0996C0.941626 16.5092 0.953484 16.5728 1.00882 16.5728C1.14322 16.5728 1.17089 16.4853 1.17089 16.0757C1.17089 15.5866 1.21437 15.4991 1.44759 15.511C1.61361 15.515 1.66895 15.4912 1.62547 15.4235C1.58594 15.3559 0.447516 15.3639 0.46728 15.4275Z" fill="black"/>
<path fill-rule="evenodd" clip-rule="evenodd" d="M4.02503 15.4709C3.93806 15.5663 3.60997 16.2662 3.56254 16.4611C3.53882 16.5565 3.54673 16.5724 3.61393 16.5724C3.69298 16.5724 3.76809 16.5048 3.83924 16.3577C3.87482 16.2861 3.9183 16.2742 4.16338 16.2623L4.44798 16.2503L4.50332 16.3816C4.60215 16.6162 4.76817 16.6798 4.76817 16.481C4.76817 16.3657 4.42031 15.5623 4.32544 15.459C4.22662 15.3556 4.1278 15.3595 4.02503 15.4709ZM4.27801 15.8805C4.30963 16.0515 4.25825 16.1151 4.1199 16.0793C4.00131 16.0515 3.9855 15.956 4.08037 15.8248C4.17128 15.6936 4.24639 15.7174 4.27801 15.8805Z" fill="black"/>
<path fill-rule="evenodd" clip-rule="evenodd" d="M6.47588 15.4281C6.48774 15.4559 6.51936 15.4838 6.55099 15.4877C6.58261 15.4917 6.67353 15.5037 6.75654 15.5196L6.90279 15.5434V15.794C6.90279 16.2195 6.95023 16.5376 7.01347 16.5654C7.1202 16.6052 7.17159 16.4581 7.19926 15.9968L7.22693 15.5434L7.36923 15.5196C7.45224 15.5037 7.53921 15.4917 7.57083 15.4877C7.60245 15.4838 7.63408 15.4559 7.64593 15.4281C7.65779 15.3923 7.52339 15.3804 7.06091 15.3804C6.59842 15.3804 6.46402 15.3923 6.47588 15.4281Z" fill="black"/>
<path fill-rule="evenodd" clip-rule="evenodd" d="M8.08469 15.4068C7.95424 15.4267 7.93053 15.5261 7.93053 16.0352C7.93053 16.576 7.94634 16.5919 8.55508 16.5919C8.81597 16.5919 9.04524 16.576 9.06105 16.5601C9.12034 16.5044 8.98594 16.4527 8.77644 16.4527C8.66576 16.4527 8.49184 16.4408 8.38906 16.4289L8.20723 16.401V16.234V16.067L8.56694 16.0431C8.76854 16.0312 8.94642 16.0033 8.97013 15.9795C9.02943 15.9198 8.83178 15.8562 8.5788 15.8562C8.31 15.8562 8.20723 15.8045 8.20723 15.6733C8.20723 15.546 8.32977 15.4983 8.66181 15.4983C8.93456 15.4983 9.04919 15.4705 9.01361 15.4148C8.99385 15.379 8.29419 15.375 8.08469 15.4068Z" fill="black"/>
<path fill-rule="evenodd" clip-rule="evenodd" d="M9.50804 15.4073C9.45665 15.4193 9.44084 15.4909 9.42503 15.7692C9.41712 15.9601 9.41712 16.2106 9.42503 16.326C9.44084 16.5129 9.4527 16.5447 9.54757 16.5805C9.68987 16.6362 10.1761 16.6004 10.3302 16.5208C10.6267 16.3657 10.7453 15.9601 10.5793 15.6619C10.4528 15.4392 10.3065 15.3795 9.89937 15.3835C9.72149 15.3875 9.54361 15.3954 9.50804 15.4073ZM10.1445 15.5386C10.3223 15.5863 10.4212 15.7493 10.4212 15.9959C10.4212 16.147 10.4014 16.2027 10.3105 16.2942C10.1879 16.4135 9.97052 16.4771 9.81241 16.4373C9.74126 16.4214 9.71359 16.3777 9.69382 16.2663C9.65429 16.0118 9.66615 15.5982 9.71754 15.5465C9.77683 15.4869 9.95471 15.4869 10.1445 15.5386Z" fill="black"/>
<path fill-rule="evenodd" clip-rule="evenodd" d="M11.7337 15.417C11.6546 15.4647 11.6823 16.5225 11.7653 16.5742C11.8641 16.6339 11.9195 16.5384 11.9313 16.2839L11.9432 16.0374L12.2792 16.0533C12.4689 16.0612 12.627 16.0851 12.6428 16.1129C12.6586 16.1368 12.6745 16.2084 12.6745 16.276C12.6745 16.4549 12.7179 16.5742 12.7772 16.5742C12.8523 16.5742 12.876 16.3754 12.8642 15.8584C12.8523 15.4329 12.8484 15.4011 12.7733 15.4011C12.71 15.4011 12.6903 15.4369 12.6705 15.592C12.6586 15.6993 12.6231 15.8027 12.5914 15.8226C12.5638 15.8425 12.4057 15.8584 12.2515 15.8584H11.9629V15.7232C11.9629 15.4528 11.8681 15.3295 11.7337 15.417Z" fill="black"/>
<path fill-rule="evenodd" clip-rule="evenodd" d="M17.5957 15.4281C17.5523 15.452 17.4021 15.5633 17.2637 15.6667C16.9831 15.8854 16.9435 15.8775 16.9079 15.611C16.8921 15.4917 16.8645 15.436 16.817 15.4281C16.7538 15.4162 16.7459 15.4639 16.7459 15.9689C16.7459 16.2712 16.7577 16.5336 16.7736 16.5456C16.821 16.5933 16.9 16.4859 16.9277 16.3388C16.9554 16.1757 17.0423 16.0167 17.1056 16.0167C17.1293 16.0167 17.2795 16.1399 17.4337 16.295C17.7064 16.5575 17.8171 16.6211 17.8724 16.5376C17.8843 16.5137 17.7776 16.3666 17.6353 16.1996C17.493 16.0365 17.3783 15.8854 17.3783 15.8616C17.3783 15.8417 17.4851 15.7383 17.6155 15.6389C17.8448 15.4599 17.8843 15.3804 17.742 15.3804C17.7064 15.3804 17.6392 15.4042 17.5957 15.4281Z" fill="black"/>
<path fill-rule="evenodd" clip-rule="evenodd" d="M18.5883 15.4516C18.4973 15.5589 18.1297 16.3781 18.1297 16.4815C18.1297 16.6446 18.3353 16.565 18.3985 16.3742C18.442 16.2588 18.4499 16.2549 18.6989 16.2549C18.9084 16.2549 18.9756 16.2708 19.0389 16.3344C19.0824 16.3781 19.1179 16.4418 19.1179 16.4736C19.1179 16.5412 19.2326 16.6088 19.3077 16.5849C19.3314 16.573 19.3551 16.5372 19.3551 16.5014C19.3551 16.398 18.9282 15.4873 18.8531 15.4277C18.7582 15.3601 18.6673 15.368 18.5883 15.4516ZM18.8492 15.8612C18.8887 15.9964 18.8847 16.0282 18.8373 16.06C18.7582 16.1077 18.7108 16.1037 18.6238 16.0441C18.5566 15.9924 18.5566 15.9844 18.6436 15.8254C18.695 15.7339 18.7503 15.6703 18.7661 15.6822C18.7859 15.6941 18.8215 15.7737 18.8492 15.8612Z" fill="black"/>
<path fill-rule="evenodd" clip-rule="evenodd" d="M19.699 15.4082C19.6832 15.4201 19.6713 15.6826 19.6713 15.9848C19.6713 16.4501 19.6792 16.5416 19.7346 16.5614C19.8294 16.5972 19.8808 16.5137 19.9006 16.2751L19.9164 16.0564H20.1219C20.2326 16.0564 20.3868 16.0445 20.4658 16.0325L20.6081 16.0087L20.6279 16.2751C20.6556 16.5972 20.6991 16.6529 20.8176 16.5336C20.9007 16.4501 20.9046 16.4183 20.8888 15.9689C20.873 15.5593 20.8611 15.4837 20.7979 15.436C20.6912 15.3565 20.6279 15.432 20.6121 15.6508L20.6002 15.8377H20.2642H19.9282L19.9085 15.6587C19.8966 15.5593 19.8729 15.4559 19.8571 15.4281C19.8215 15.3764 19.7385 15.3644 19.699 15.4082Z" fill="black"/>
<path fill-rule="evenodd" clip-rule="evenodd" d="M21.8139 15.4275C21.8258 15.4554 21.9246 15.4872 22.0353 15.4991C22.146 15.511 22.2487 15.5349 22.2685 15.5548C22.2843 15.5707 22.308 15.7894 22.312 16.036C22.3238 16.3581 22.3436 16.5012 22.3792 16.5331C22.478 16.6166 22.5057 16.541 22.5294 16.0996C22.5571 15.5627 22.5847 15.5031 22.7942 15.511C22.9603 15.515 23.0156 15.4912 22.9721 15.4235C22.9326 15.3559 21.7942 15.3639 21.8139 15.4275Z" fill="black"/>
<path fill-rule="evenodd" clip-rule="evenodd" d="M25.0081 15.9093C25.0081 16.5893 25.0199 16.6132 25.4152 16.6132C25.5733 16.6132 25.7591 16.5973 25.8342 16.5734C26.1228 16.4899 26.2334 16.2553 26.0872 16.0326C26.0319 15.9451 26.0279 15.9093 26.0714 15.794C26.1267 15.6428 26.0911 15.5434 25.9488 15.444C25.8816 15.3963 25.7551 15.3804 25.435 15.3804H25.0081V15.9093ZM25.6998 15.5553C25.8421 15.619 25.8816 15.7184 25.7907 15.8099C25.7433 15.8576 25.4152 15.8735 25.3085 15.8337C25.2334 15.8059 25.2255 15.615 25.2927 15.5474C25.3559 15.4838 25.5338 15.4877 25.6998 15.5553ZM25.8698 16.124C25.937 16.2155 25.9291 16.2712 25.8421 16.3507C25.7433 16.4382 25.4943 16.474 25.3559 16.4183C25.265 16.3825 25.2452 16.3507 25.2452 16.2354C25.2452 16.128 25.265 16.0843 25.3361 16.0564C25.4626 16.0007 25.8065 16.0485 25.8698 16.124Z" fill="black"/>
<path fill-rule="evenodd" clip-rule="evenodd" d="M26.933 15.4276C26.8302 15.5071 26.3796 16.4974 26.4271 16.5451C26.4863 16.6047 26.5852 16.5491 26.6721 16.394C26.7551 16.2548 26.7591 16.2548 27.0279 16.2548C27.2888 16.2548 27.3006 16.2587 27.3599 16.3701C27.439 16.5292 27.5773 16.6246 27.6406 16.5689C27.6999 16.5172 27.6643 16.4059 27.4074 15.8491C27.2058 15.4117 27.0911 15.3123 26.933 15.4276ZM27.1346 15.9088C27.1504 16.0758 27.0832 16.1275 26.9488 16.0559C26.8461 16.0003 26.8461 15.9724 26.9488 15.8412C27.0556 15.702 27.1188 15.7259 27.1346 15.9088Z" fill="black"/>
</svg>
