<svg width="87" height="56" viewBox="0 0 87 56" fill="none" xmlns="http://www.w3.org/2000/svg">
<path d="M36.3063 6.4394C42.0344 6.24273 47.6074 8.29141 51.7993 12.1348C55.9911 15.9781 58.4585 21.3013 58.6585 26.9333C58.8585 32.5653 56.7749 38.0447 52.8659 42.1662C48.957 46.2877 43.5429 48.7136 37.8148 48.9103L37.5508 41.4779C41.2741 41.35 44.7932 39.7732 47.334 37.0942C49.8749 34.4152 51.2292 30.8536 51.0992 27.1928C50.9692 23.532 49.3654 20.072 46.6407 17.5738C43.916 15.0756 40.2936 13.744 36.5703 13.8718L36.3063 6.4394Z" fill="#F3BD48"/>
<path d="M37.8147 48.9103C32.0866 49.107 26.5136 47.0583 22.3218 43.2149C18.1299 39.3716 15.6626 34.0484 15.4625 28.4164C15.2625 22.7844 17.3462 17.305 21.2551 13.1835C25.1641 9.062 30.5782 6.63608 36.3063 6.4394L36.5703 13.8718C32.847 13.9996 29.3278 15.5765 26.787 18.2555C24.2462 20.9344 22.8918 24.4961 23.0218 28.1569C23.1519 31.8177 24.7556 35.2777 27.4803 37.7759C30.205 40.2741 33.8275 41.6057 37.5508 41.4779L37.8147 48.9103Z" fill="#3E8E4F"/>
<path d="M53.4304 15.2174L55.9755 12.0001H66.5194" stroke="black" stroke-width="0.145684"/>
<path d="M22.8039 40.9438L20.2588 44.1611H9.7149" stroke="black" stroke-width="0.145684"/>
<path d="M1.75794 42.8345C1.48717 42.8345 1.26847 42.7542 1.10184 42.5935C0.938185 42.4328 0.856358 42.2201 0.856358 41.9553V40.5136C0.856358 40.2488 0.938185 40.0376 1.10184 39.8799C1.26847 39.7192 1.48717 39.6388 1.75794 39.6388C2.03169 39.6388 2.25039 39.7177 2.41404 39.8754C2.58067 40.0331 2.66398 40.2429 2.66398 40.5047V40.5449C2.66398 40.5746 2.6491 40.5895 2.61935 40.5895L2.39172 40.5984C2.36197 40.5984 2.34709 40.585 2.34709 40.5583V40.4958C2.34709 40.3232 2.29204 40.1834 2.18195 40.0762C2.07483 39.9691 1.93349 39.9156 1.75794 39.9156C1.58238 39.9156 1.44105 39.9691 1.33393 40.0762C1.22681 40.1804 1.17325 40.3202 1.17325 40.4958V41.9776C1.17325 42.1531 1.22681 42.2945 1.33393 42.4016C1.44105 42.5057 1.58238 42.5578 1.75794 42.5578C1.93349 42.5578 2.07483 42.5043 2.18195 42.3971C2.29204 42.29 2.34709 42.1502 2.34709 41.9776V41.9151C2.34709 41.8883 2.36197 41.8749 2.39172 41.8749L2.61935 41.8883C2.6491 41.8883 2.66398 41.9032 2.66398 41.933V41.9642C2.66398 42.226 2.58067 42.4373 2.41404 42.598C2.25039 42.7557 2.03169 42.8345 1.75794 42.8345ZM4.74997 39.7192C4.74997 39.6894 4.76484 39.6745 4.7946 39.6745H5.02222C5.05198 39.6745 5.06686 39.6894 5.06686 39.7192V42.7542C5.06686 42.784 5.05198 42.7988 5.02222 42.7988H4.7946C4.76484 42.7988 4.74997 42.784 4.74997 42.7542V41.3884C4.74997 41.3765 4.74401 41.3706 4.73211 41.3706H3.62522C3.61332 41.3706 3.60737 41.3765 3.60737 41.3884V42.7542C3.60737 42.784 3.59249 42.7988 3.56274 42.7988H3.33511C3.30535 42.7988 3.29048 42.784 3.29048 42.7542V39.7192C3.29048 39.6894 3.30535 39.6745 3.33511 39.6745H3.56274C3.59249 39.6745 3.60737 39.6894 3.60737 39.7192V41.076C3.60737 41.0879 3.61332 41.0939 3.62522 41.0939H4.73211C4.74401 41.0939 4.74997 41.0879 4.74997 41.076V39.7192ZM6.63559 42.8345C6.45408 42.8345 6.29341 42.7973 6.15356 42.723C6.01668 42.6456 5.90957 42.5385 5.8322 42.4016C5.75782 42.2647 5.72062 42.107 5.72062 41.9285V40.5493C5.72062 40.3708 5.75782 40.2131 5.8322 40.0762C5.90957 39.9364 6.01668 39.8293 6.15356 39.7549C6.29341 39.6775 6.45408 39.6388 6.63559 39.6388C6.8171 39.6388 6.97629 39.6775 7.11316 39.7549C7.25301 39.8293 7.36162 39.9364 7.43898 40.0762C7.51634 40.2131 7.55502 40.3708 7.55502 40.5493V41.9285C7.55502 42.107 7.51634 42.2647 7.43898 42.4016C7.36162 42.5385 7.25301 42.6456 7.11316 42.723C6.97629 42.7973 6.8171 42.8345 6.63559 42.8345ZM6.63559 42.5578C6.8171 42.5578 6.9629 42.5013 7.07299 42.3882C7.18309 42.2751 7.23813 42.1264 7.23813 41.9419V40.5404C7.23813 40.353 7.18309 40.2027 7.07299 40.0896C6.9629 39.9736 6.8171 39.9156 6.63559 39.9156C6.45706 39.9156 6.31275 39.9736 6.20265 40.0896C6.09256 40.2027 6.03751 40.353 6.03751 40.5404V41.9419C6.03751 42.1264 6.09256 42.2751 6.20265 42.3882C6.31275 42.5013 6.45706 42.5578 6.63559 42.5578ZM9.02818 42.8345C8.75741 42.8345 8.53871 42.7542 8.37208 42.5935C8.20843 42.4328 8.1266 42.2201 8.1266 41.9553V40.5136C8.1266 40.2488 8.20843 40.0376 8.37208 39.8799C8.53871 39.7192 8.75741 39.6388 9.02818 39.6388C9.30193 39.6388 9.52063 39.7177 9.68428 39.8754C9.85091 40.0331 9.93422 40.2429 9.93422 40.5047V40.5449C9.93422 40.5746 9.91935 40.5895 9.88959 40.5895L9.66196 40.5984C9.63221 40.5984 9.61733 40.585 9.61733 40.5583V40.4958C9.61733 40.3232 9.56229 40.1834 9.45219 40.0762C9.34507 39.9691 9.20374 39.9156 9.02818 39.9156C8.85263 39.9156 8.71129 39.9691 8.60417 40.0762C8.49705 40.1804 8.44349 40.3202 8.44349 40.4958V41.9776C8.44349 42.1531 8.49705 42.2945 8.60417 42.4016C8.71129 42.5057 8.85263 42.5578 9.02818 42.5578C9.20374 42.5578 9.34507 42.5043 9.45219 42.3971C9.56229 42.29 9.61733 42.1502 9.61733 41.9776V41.9151C9.61733 41.8883 9.63221 41.8749 9.66196 41.8749L9.88959 41.8883C9.91935 41.8883 9.93422 41.9032 9.93422 41.933V41.9642C9.93422 42.226 9.85091 42.4373 9.68428 42.598C9.52063 42.7557 9.30193 42.8345 9.02818 42.8345ZM11.3909 42.8345C11.2094 42.8345 11.0487 42.7973 10.9089 42.723C10.772 42.6456 10.6649 42.5385 10.5875 42.4016C10.5131 42.2647 10.4759 42.107 10.4759 41.9285V40.5493C10.4759 40.3708 10.5131 40.2131 10.5875 40.0762C10.6649 39.9364 10.772 39.8293 10.9089 39.7549C11.0487 39.6775 11.2094 39.6388 11.3909 39.6388C11.5724 39.6388 11.7316 39.6775 11.8685 39.7549C12.0083 39.8293 12.1169 39.9364 12.1943 40.0762C12.2716 40.2131 12.3103 40.3708 12.3103 40.5493V41.9285C12.3103 42.107 12.2716 42.2647 12.1943 42.4016C12.1169 42.5385 12.0083 42.6456 11.8685 42.723C11.7316 42.7973 11.5724 42.8345 11.3909 42.8345ZM11.3909 42.5578C11.5724 42.5578 11.7182 42.5013 11.8283 42.3882C11.9384 42.2751 11.9934 42.1264 11.9934 41.9419V40.5404C11.9934 40.353 11.9384 40.2027 11.8283 40.0896C11.7182 39.9736 11.5724 39.9156 11.3909 39.9156C11.2124 39.9156 11.068 39.9736 10.958 40.0896C10.8479 40.2027 10.7928 40.353 10.7928 40.5404V41.9419C10.7928 42.1264 10.8479 42.2751 10.958 42.3882C11.068 42.5013 11.2124 42.5578 11.3909 42.5578ZM12.7754 41.5491C12.7457 41.5491 12.7308 41.5342 12.7308 41.5045V41.317C12.7308 41.2873 12.7457 41.2724 12.7754 41.2724H13.9448C13.9745 41.2724 13.9894 41.2873 13.9894 41.317V41.5045C13.9894 41.5342 13.9745 41.5491 13.9448 41.5491H12.7754ZM2.63274 44.7058C2.64762 44.685 2.66547 44.6745 2.6863 44.6745H2.91839C2.94814 44.6745 2.96302 44.6894 2.96302 44.7192V47.7542C2.96302 47.784 2.94814 47.7988 2.91839 47.7988H2.69076C2.66101 47.7988 2.64613 47.784 2.64613 47.7542V45.3262C2.64613 45.3173 2.64315 45.3113 2.6372 45.3083C2.63125 45.3053 2.62679 45.3083 2.62381 45.3173L2.0302 46.3483C2.01532 46.3691 1.99747 46.3795 1.97664 46.3795H1.92754C1.90671 46.3795 1.88886 46.3691 1.87398 46.3483L1.27591 45.3217C1.27293 45.3128 1.26847 45.3098 1.26252 45.3128C1.25656 45.3158 1.25359 45.3217 1.25359 45.3306V47.7542C1.25359 47.784 1.23871 47.7988 1.20896 47.7988H0.98133C0.951575 47.7988 0.936697 47.784 0.936697 47.7542V44.7192C0.936697 44.6894 0.951575 44.6745 0.98133 44.6745H1.21342C1.23425 44.6745 1.2521 44.685 1.26698 44.7058L1.94093 45.8528C1.94391 45.8558 1.94837 45.8573 1.95432 45.8573C1.96027 45.8573 1.96474 45.8558 1.96771 45.8528L2.63274 44.7058ZM3.74482 47.7988C3.71507 47.7988 3.70019 47.784 3.70019 47.7542V44.7192C3.70019 44.6894 3.71507 44.6745 3.74482 44.6745H3.97245C4.00221 44.6745 4.01708 44.6894 4.01708 44.7192V47.7542C4.01708 47.784 4.00221 47.7988 3.97245 47.7988H3.74482ZM6.31256 44.7192C6.31256 44.6894 6.32744 44.6745 6.35719 44.6745H6.58482C6.61458 44.6745 6.62945 44.6894 6.62945 44.7192V47.7542C6.62945 47.784 6.61458 47.7988 6.58482 47.7988H6.3438C6.31703 47.7988 6.29917 47.7884 6.29025 47.7676L5.09409 45.3797C5.08814 45.3738 5.08219 45.3708 5.07624 45.3708C5.07326 45.3708 5.07177 45.3753 5.07177 45.3842L5.07624 47.7542C5.07624 47.784 5.06136 47.7988 5.0316 47.7988H4.80398C4.77422 47.7988 4.75935 47.784 4.75935 47.7542V44.7192C4.75935 44.6894 4.77422 44.6745 4.80398 44.6745H5.04499C5.07177 44.6745 5.08963 44.685 5.09855 44.7058L6.29471 47.1026C6.30066 47.1085 6.30512 47.1115 6.3081 47.1115C6.31405 47.1115 6.31703 47.107 6.31703 47.0981L6.31256 44.7192ZM8.99481 44.6745C9.02457 44.6745 9.03944 44.6894 9.03944 44.7192V44.9066C9.03944 44.9364 9.02457 44.9513 8.99481 44.9513H8.2673C8.2554 44.9513 8.24945 44.9572 8.24945 44.9691V47.7542C8.24945 47.784 8.23457 47.7988 8.20481 47.7988H7.97719C7.94743 47.7988 7.93255 47.784 7.93255 47.7542V44.9691C7.93255 44.9572 7.9266 44.9513 7.9147 44.9513H7.21397C7.18421 44.9513 7.16933 44.9364 7.16933 44.9066V44.7192C7.16933 44.6894 7.18421 44.6745 7.21397 44.6745H8.99481ZM11.9151 46.3572C11.9538 46.497 11.9731 46.6577 11.9731 46.8392C11.9731 46.991 11.9597 47.1219 11.9329 47.232C11.8883 47.4254 11.799 47.5742 11.6651 47.6783C11.5342 47.7825 11.3691 47.8345 11.1697 47.8345C10.9674 47.8345 10.7993 47.781 10.6654 47.6739C10.5315 47.5667 10.4437 47.4165 10.402 47.2231C10.3872 47.1695 10.3782 47.1145 10.3753 47.0579V47.049C10.3753 47.0252 10.3886 47.0133 10.4154 47.0133H10.6475C10.6743 47.0133 10.6892 47.0252 10.6921 47.049V47.0669L10.71 47.1561C10.7368 47.2841 10.7888 47.3823 10.8662 47.4507C10.9465 47.5191 11.0477 47.5533 11.1697 47.5533C11.2887 47.5533 11.3869 47.5191 11.4643 47.4507C11.5446 47.3793 11.5982 47.2796 11.625 47.1517C11.6458 47.0683 11.6562 46.9657 11.6562 46.8437C11.6562 46.7306 11.6443 46.6146 11.6205 46.4956C11.5937 46.3765 11.5417 46.2873 11.4643 46.2278C11.3869 46.1653 11.2887 46.134 11.1697 46.134C11.0566 46.134 10.9585 46.1608 10.8751 46.2144C10.7948 46.265 10.7383 46.3393 10.7055 46.4375L10.6966 46.4554C10.6936 46.4762 10.6788 46.4866 10.652 46.4866H10.4154C10.3857 46.4866 10.3708 46.4718 10.3708 46.442V44.7192C10.3708 44.6894 10.3857 44.6745 10.4154 44.6745H11.8303C11.86 44.6745 11.8749 44.6894 11.8749 44.7192V44.9066C11.8749 44.9364 11.86 44.9513 11.8303 44.9513H10.7055C10.6936 44.9513 10.6877 44.9572 10.6877 44.9691V46.0626C10.6877 46.0686 10.6892 46.073 10.6921 46.076C10.6981 46.076 10.704 46.073 10.71 46.0671C10.7695 46.0016 10.8439 45.951 10.9332 45.9153C11.0254 45.8766 11.1236 45.8573 11.2277 45.8573C11.4033 45.8573 11.5491 45.9005 11.6651 45.9867C11.7842 46.0701 11.8675 46.1935 11.9151 46.3572ZM13.285 47.8435C13.0291 47.8435 12.8238 47.7661 12.6691 47.6114C12.5144 47.4566 12.437 47.2498 12.437 46.991V45.4824C12.437 45.2265 12.5144 45.0212 12.6691 44.8665C12.8238 44.7117 13.0291 44.6344 13.285 44.6344C13.5439 44.6344 13.7507 44.7117 13.9054 44.8665C14.0631 45.0212 14.142 45.2265 14.142 45.4824V46.991C14.142 47.2498 14.0631 47.4566 13.9054 47.6114C13.7507 47.7661 13.5439 47.8435 13.285 47.8435ZM13.285 47.5667C13.4487 47.5667 13.5796 47.5162 13.6778 47.415C13.776 47.3138 13.8251 47.1799 13.8251 47.0133V45.4645C13.8251 45.2979 13.776 45.164 13.6778 45.0628C13.5796 44.9617 13.4487 44.9111 13.285 44.9111C13.1273 44.9111 12.9994 44.9617 12.9012 45.0628C12.803 45.164 12.7539 45.2979 12.7539 45.4645V47.0133C12.7539 47.1769 12.803 47.3108 12.9012 47.415C12.9994 47.5162 13.1273 47.5667 13.285 47.5667ZM15.418 45.9019C15.302 45.9019 15.1949 45.8737 15.0967 45.8171C15.0015 45.7606 14.9256 45.6847 14.8691 45.5895C14.8125 45.4913 14.7843 45.3842 14.7843 45.2682C14.7843 45.1521 14.8125 45.0465 14.8691 44.9513C14.9256 44.8531 15.0015 44.7757 15.0967 44.7192C15.1949 44.6626 15.302 44.6344 15.418 44.6344C15.5311 44.6344 15.6353 44.6626 15.7305 44.7192C15.8287 44.7757 15.906 44.8531 15.9626 44.9513C16.0191 45.0465 16.0474 45.1521 16.0474 45.2682C16.0474 45.3842 16.0191 45.4913 15.9626 45.5895C15.906 45.6847 15.8287 45.7606 15.7305 45.8171C15.6353 45.8737 15.5311 45.9019 15.418 45.9019ZM15.3154 47.7988C15.3005 47.7988 15.2886 47.7944 15.2797 47.7854C15.2737 47.7735 15.2752 47.7601 15.2841 47.7453L16.9445 44.7058C16.9534 44.685 16.9713 44.6745 16.998 44.6745H17.1409C17.1557 44.6745 17.1662 44.6805 17.1721 44.6924C17.181 44.7013 17.181 44.7132 17.1721 44.7281L15.5118 47.7676C15.5028 47.7884 15.485 47.7988 15.4582 47.7988H15.3154ZM15.418 45.7056C15.5371 45.7056 15.6367 45.6639 15.7171 45.5806C15.8004 45.4943 15.8421 45.3902 15.8421 45.2682C15.8421 45.1462 15.8004 45.0435 15.7171 44.9602C15.6367 44.8739 15.5371 44.8308 15.418 44.8308C15.299 44.8308 15.1979 44.8739 15.1145 44.9602C15.0312 45.0435 14.9896 45.1462 14.9896 45.2682C14.9896 45.3902 15.0312 45.4943 15.1145 45.5806C15.1979 45.6639 15.299 45.7056 15.418 45.7056ZM17.0561 47.839C16.94 47.839 16.8329 47.8107 16.7347 47.7542C16.6395 47.6977 16.5636 47.6203 16.5071 47.5221C16.4505 47.4239 16.4223 47.3168 16.4223 47.2008C16.4223 47.0877 16.4505 46.9835 16.5071 46.8883C16.5636 46.7901 16.6395 46.7128 16.7347 46.6562C16.8329 46.5997 16.94 46.5714 17.0561 46.5714C17.1691 46.5714 17.2733 46.5997 17.3685 46.6562C17.4667 46.7128 17.544 46.7901 17.6006 46.8883C17.6571 46.9835 17.6854 47.0877 17.6854 47.2008C17.6854 47.3168 17.6571 47.4239 17.6006 47.5221C17.544 47.6203 17.4667 47.6977 17.3685 47.7542C17.2733 47.8107 17.1691 47.839 17.0561 47.839ZM17.0561 47.6426C17.1751 47.6426 17.2748 47.5995 17.3551 47.5132C17.4384 47.4269 17.4801 47.3227 17.4801 47.2008C17.4801 47.0788 17.4384 46.9761 17.3551 46.8928C17.2748 46.8095 17.1751 46.7678 17.0561 46.7678C16.937 46.7678 16.8359 46.8095 16.7526 46.8928C16.6692 46.9761 16.6276 47.0788 16.6276 47.2008C16.6276 47.3257 16.6678 47.4314 16.7481 47.5176C16.8314 47.601 16.9341 47.6426 17.0561 47.6426Z" fill="#404040"/>
<path d="M60.4538 10.3719C60.1741 10.3719 59.9509 10.299 59.7843 10.1532C59.6206 10.0044 59.5388 9.80654 59.5388 9.55957V9.43907C59.5388 9.40931 59.5537 9.39443 59.5834 9.39443H59.8021C59.8319 9.39443 59.8468 9.40931 59.8468 9.43907V9.54172C59.8468 9.70835 59.9033 9.84225 60.0164 9.94341C60.1295 10.0446 60.2797 10.0952 60.4672 10.0952C60.6427 10.0952 60.7811 10.0476 60.8823 9.95234C60.9834 9.85712 61.034 9.73215 61.034 9.57743C61.034 9.47626 61.0102 9.38848 60.9626 9.31409C60.915 9.23971 60.8451 9.17127 60.7528 9.10878C60.6606 9.0463 60.5282 8.96745 60.3556 8.87223C60.1711 8.77404 60.0253 8.68775 59.9182 8.61336C59.814 8.53897 59.7292 8.44822 59.6638 8.3411C59.5983 8.23398 59.5656 8.10306 59.5656 7.94833C59.5656 7.70732 59.643 7.51837 59.7977 7.3815C59.9524 7.24463 60.1592 7.17619 60.4181 7.17619C60.6948 7.17619 60.915 7.25206 61.0786 7.40382C61.2423 7.55557 61.3241 7.75641 61.3241 8.00636V8.10901C61.3241 8.13877 61.3092 8.15364 61.2795 8.15364H61.0563C61.0266 8.15364 61.0117 8.13877 61.0117 8.10901V8.01082C61.0117 7.84419 60.9581 7.71029 60.851 7.60913C60.7439 7.50498 60.5966 7.45291 60.4092 7.45291C60.2425 7.45291 60.1116 7.49606 60.0164 7.58235C59.9241 7.66864 59.878 7.79063 59.878 7.94833C59.878 8.0495 59.9003 8.1343 59.945 8.20274C59.9896 8.27118 60.0536 8.33366 60.1369 8.3902C60.2232 8.44673 60.3541 8.52261 60.5297 8.61782C60.732 8.73089 60.8867 8.8276 60.9938 8.90794C61.1039 8.9853 61.1902 9.07605 61.2527 9.1802C61.3182 9.28136 61.3509 9.40633 61.3509 9.55511C61.3509 9.80505 61.2706 10.0044 61.1099 10.1532C60.9492 10.299 60.7305 10.3719 60.4538 10.3719ZM62.4229 10.3362C62.3961 10.3362 62.3798 10.3228 62.3738 10.296L61.6552 7.26099L61.6508 7.24314C61.6508 7.22231 61.6642 7.21189 61.6909 7.21189H61.932C61.9587 7.21189 61.9751 7.22528 61.9811 7.25206L62.5256 9.64884C62.5286 9.65777 62.5315 9.66223 62.5345 9.66223C62.5405 9.66223 62.5449 9.65777 62.5479 9.64884L63.0433 7.25206C63.0493 7.22528 63.0656 7.21189 63.0924 7.21189H63.3156C63.3453 7.21189 63.3617 7.22528 63.3647 7.25206L63.8779 9.64884C63.8809 9.65777 63.8839 9.66223 63.8869 9.66223C63.8898 9.66223 63.8928 9.65777 63.8958 9.64884L64.4269 7.25206C64.4329 7.22528 64.4492 7.21189 64.476 7.21189H64.7081C64.7379 7.21189 64.7498 7.22826 64.7438 7.26099L64.0476 10.296C64.0416 10.3228 64.0252 10.3362 63.9985 10.3362H63.7708C63.744 10.3362 63.7277 10.3228 63.7217 10.296L63.2129 7.86353C63.2099 7.85461 63.207 7.85014 63.204 7.85014C63.201 7.85014 63.198 7.85461 63.1951 7.86353L62.6907 10.296C62.6877 10.3228 62.6714 10.3362 62.6416 10.3362H62.4229ZM66.9359 7.44399C66.9359 7.47374 66.921 7.48862 66.8913 7.48862H65.5523C65.5404 7.48862 65.5344 7.49457 65.5344 7.50647V8.61336C65.5344 8.62526 65.5404 8.63121 65.5523 8.63121H66.4539C66.4836 8.63121 66.4985 8.64609 66.4985 8.67585V8.8633C66.4985 8.89306 66.4836 8.90794 66.4539 8.90794H65.5523C65.5404 8.90794 65.5344 8.91389 65.5344 8.92579V10.0416C65.5344 10.0535 65.5404 10.0595 65.5523 10.0595H66.8913C66.921 10.0595 66.9359 10.0743 66.9359 10.1041V10.2915C66.9359 10.3213 66.921 10.3362 66.8913 10.3362H65.2622C65.2324 10.3362 65.2176 10.3213 65.2176 10.2915V7.25653C65.2176 7.22677 65.2324 7.21189 65.2622 7.21189H66.8913C66.921 7.21189 66.9359 7.22677 66.9359 7.25653V7.44399ZM69.2416 7.44399C69.2416 7.47374 69.2268 7.48862 69.197 7.48862H67.858C67.8461 7.48862 67.8402 7.49457 67.8402 7.50647V8.61336C67.8402 8.62526 67.8461 8.63121 67.858 8.63121H68.7596C68.7894 8.63121 68.8042 8.64609 68.8042 8.67585V8.8633C68.8042 8.89306 68.7894 8.90794 68.7596 8.90794H67.858C67.8461 8.90794 67.8402 8.91389 67.8402 8.92579V10.0416C67.8402 10.0535 67.8461 10.0595 67.858 10.0595H69.197C69.2268 10.0595 69.2416 10.0743 69.2416 10.1041V10.2915C69.2416 10.3213 69.2268 10.3362 69.197 10.3362H67.5679C67.5382 10.3362 67.5233 10.3213 67.5233 10.2915V7.25653C67.5233 7.22677 67.5382 7.21189 67.5679 7.21189H69.197C69.2268 7.21189 69.2416 7.22677 69.2416 7.25653V7.44399ZM71.4536 7.21189C71.4834 7.21189 71.4983 7.22677 71.4983 7.25653V7.44399C71.4983 7.47374 71.4834 7.48862 71.4536 7.48862H70.7261C70.7142 7.48862 70.7083 7.49457 70.7083 7.50647V10.2915C70.7083 10.3213 70.6934 10.3362 70.6636 10.3362H70.436C70.4063 10.3362 70.3914 10.3213 70.3914 10.2915V7.50647C70.3914 7.49457 70.3854 7.48862 70.3735 7.48862H69.6728C69.643 7.48862 69.6282 7.47374 69.6282 7.44399V7.25653C69.6282 7.22677 69.643 7.21189 69.6728 7.21189H71.4536ZM61.3911 12.2431C61.4059 12.2223 61.4238 12.2119 61.4446 12.2119H61.6767C61.7065 12.2119 61.7214 12.2268 61.7214 12.2565V15.2915C61.7214 15.3213 61.7065 15.3362 61.6767 15.3362H61.4491C61.4193 15.3362 61.4045 15.3213 61.4045 15.2915V12.8635C61.4045 12.8546 61.4015 12.8487 61.3955 12.8457C61.3896 12.8427 61.3851 12.8457 61.3821 12.8546L60.7885 13.8856C60.7737 13.9064 60.7558 13.9169 60.735 13.9169H60.6859C60.665 13.9169 60.6472 13.9064 60.6323 13.8856L60.0342 12.8591C60.0313 12.8501 60.0268 12.8472 60.0208 12.8501C60.0149 12.8531 60.0119 12.8591 60.0119 12.868V15.2915C60.0119 15.3213 59.997 15.3362 59.9673 15.3362H59.7397C59.7099 15.3362 59.695 15.3213 59.695 15.2915V12.2565C59.695 12.2268 59.7099 12.2119 59.7397 12.2119H59.9718C59.9926 12.2119 60.0104 12.2223 60.0253 12.2431L60.6993 13.3902C60.7022 13.3932 60.7067 13.3947 60.7127 13.3947C60.7186 13.3947 60.7231 13.3932 60.726 13.3902L61.3911 12.2431ZM64.1769 12.444C64.1769 12.4737 64.162 12.4886 64.1322 12.4886H62.7933C62.7814 12.4886 62.7754 12.4946 62.7754 12.5065V13.6134C62.7754 13.6253 62.7814 13.6312 62.7933 13.6312H63.6948C63.7246 13.6312 63.7395 13.6461 63.7395 13.6758V13.8633C63.7395 13.8931 63.7246 13.9079 63.6948 13.9079H62.7933C62.7814 13.9079 62.7754 13.9139 62.7754 13.9258V15.0416C62.7754 15.0535 62.7814 15.0595 62.7933 15.0595H64.1322C64.162 15.0595 64.1769 15.0743 64.1769 15.1041V15.2915C64.1769 15.3213 64.162 15.3362 64.1322 15.3362H62.5032C62.4734 15.3362 62.4585 15.3213 62.4585 15.2915V12.2565C62.4585 12.2268 62.4734 12.2119 62.5032 12.2119H64.1322C64.162 12.2119 64.1769 12.2268 64.1769 12.2565V12.444ZM64.8089 15.3362C64.7791 15.3362 64.7643 15.3213 64.7643 15.2915V12.2565C64.7643 12.2268 64.7791 12.2119 64.8089 12.2119H65.0365C65.0663 12.2119 65.0811 12.2268 65.0811 12.2565V15.0416C65.0811 15.0535 65.0871 15.0595 65.099 15.0595H66.3978C66.4276 15.0595 66.4424 15.0743 66.4424 15.1041V15.2915C66.4424 15.3213 66.4276 15.3362 66.3978 15.3362H64.8089ZM67.7389 15.3719C67.5574 15.3719 67.3967 15.3347 67.2568 15.2603C67.12 15.1829 67.0129 15.0758 66.9355 14.939C66.8611 14.8021 66.8239 14.6444 66.8239 14.4658V13.0867C66.8239 12.9082 66.8611 12.7505 66.9355 12.6136C67.0129 12.4737 67.12 12.3666 67.2568 12.2922C67.3967 12.2149 67.5574 12.1762 67.7389 12.1762C67.9204 12.1762 68.0796 12.2149 68.2164 12.2922C68.3563 12.3666 68.4649 12.4737 68.5423 12.6136C68.6196 12.7505 68.6583 12.9082 68.6583 13.0867V14.4658C68.6583 14.6444 68.6196 14.8021 68.5423 14.939C68.4649 15.0758 68.3563 15.1829 68.2164 15.2603C68.0796 15.3347 67.9204 15.3719 67.7389 15.3719ZM67.7389 15.0952C67.9204 15.0952 68.0662 15.0386 68.1763 14.9256C68.2864 14.8125 68.3414 14.6637 68.3414 14.4792V13.0778C68.3414 12.8903 68.2864 12.74 68.1763 12.627C68.0662 12.5109 67.9204 12.4529 67.7389 12.4529C67.5603 12.4529 67.416 12.5109 67.3059 12.627C67.1958 12.74 67.1408 12.8903 67.1408 13.0778V14.4792C67.1408 14.6637 67.1958 14.8125 67.3059 14.9256C67.416 15.0386 67.5603 15.0952 67.7389 15.0952ZM70.8679 12.2565C70.8679 12.2268 70.8828 12.2119 70.9125 12.2119H71.1402C71.1699 12.2119 71.1848 12.2268 71.1848 12.2565V15.2915C71.1848 15.3213 71.1699 15.3362 71.1402 15.3362H70.8992C70.8724 15.3362 70.8545 15.3258 70.8456 15.3049L69.6494 12.9171C69.6435 12.9111 69.6375 12.9082 69.6316 12.9082C69.6286 12.9082 69.6271 12.9126 69.6271 12.9216L69.6316 15.2915C69.6316 15.3213 69.6167 15.3362 69.587 15.3362H69.3593C69.3296 15.3362 69.3147 15.3213 69.3147 15.2915V12.2565C69.3147 12.2268 69.3296 12.2119 69.3593 12.2119H69.6003C69.6271 12.2119 69.645 12.2223 69.6539 12.2431L70.8501 14.6399C70.856 14.6459 70.8605 14.6488 70.8634 14.6488C70.8694 14.6488 70.8724 14.6444 70.8724 14.6354L70.8679 12.2565ZM74.2562 13.8945C74.2949 14.0344 74.3142 14.1951 74.3142 14.3766C74.3142 14.5283 74.3009 14.6593 74.2741 14.7693C74.2294 14.9628 74.1402 15.1115 74.0063 15.2157C73.8754 15.3198 73.7102 15.3719 73.5109 15.3719C73.3085 15.3719 73.1404 15.3183 73.0065 15.2112C72.8726 15.1041 72.7848 14.9538 72.7432 14.7604C72.7283 14.7069 72.7194 14.6518 72.7164 14.5953V14.5864C72.7164 14.5625 72.7298 14.5506 72.7566 14.5506H72.9887C73.0154 14.5506 73.0303 14.5625 73.0333 14.5864V14.6042L73.0511 14.6935C73.0779 14.8214 73.13 14.9196 73.2074 14.988C73.2877 15.0565 73.3889 15.0907 73.5109 15.0907C73.6299 15.0907 73.7281 15.0565 73.8054 14.988C73.8858 14.9166 73.9393 14.817 73.9661 14.689C73.9869 14.6057 73.9974 14.503 73.9974 14.381C73.9974 14.268 73.9855 14.1519 73.9617 14.0329C73.9349 13.9139 73.8828 13.8246 73.8054 13.7651C73.7281 13.7026 73.6299 13.6714 73.5109 13.6714C73.3978 13.6714 73.2996 13.6982 73.2163 13.7517C73.1359 13.8023 73.0794 13.8767 73.0467 13.9749L73.0378 13.9927C73.0348 14.0136 73.0199 14.024 72.9931 14.024H72.7566C72.7268 14.024 72.7119 14.0091 72.7119 13.9793V12.2565C72.7119 12.2268 72.7268 12.2119 72.7566 12.2119H74.1714C74.2012 12.2119 74.2161 12.2268 74.2161 12.2565V12.444C74.2161 12.4737 74.2012 12.4886 74.1714 12.4886H73.0467C73.0348 12.4886 73.0288 12.4946 73.0288 12.5065V13.6C73.0288 13.6059 73.0303 13.6104 73.0333 13.6134C73.0392 13.6134 73.0452 13.6104 73.0511 13.6044C73.1107 13.539 73.185 13.4884 73.2743 13.4527C73.3665 13.414 73.4647 13.3947 73.5689 13.3947C73.7444 13.3947 73.8902 13.4378 74.0063 13.5241C74.1253 13.6074 74.2086 13.7309 74.2562 13.8945ZM75.6262 15.3808C75.3703 15.3808 75.165 15.3035 75.0102 15.1487C74.8555 14.994 74.7781 14.7872 74.7781 14.5283V13.0197C74.7781 12.7639 74.8555 12.5585 75.0102 12.4038C75.165 12.2491 75.3703 12.1717 75.6262 12.1717C75.885 12.1717 76.0918 12.2491 76.2466 12.4038C76.4043 12.5585 76.4831 12.7639 76.4831 13.0197V14.5283C76.4831 14.7872 76.4043 14.994 76.2466 15.1487C76.0918 15.3035 75.885 15.3808 75.6262 15.3808ZM75.6262 15.1041C75.7898 15.1041 75.9207 15.0535 76.0189 14.9523C76.1171 14.8512 76.1662 14.7173 76.1662 14.5506V13.0019C76.1662 12.8353 76.1171 12.7014 76.0189 12.6002C75.9207 12.499 75.7898 12.4484 75.6262 12.4484C75.4685 12.4484 75.3405 12.499 75.2423 12.6002C75.1441 12.7014 75.095 12.8353 75.095 13.0019V14.5506C75.095 14.7143 75.1441 14.8482 75.2423 14.9523C75.3405 15.0535 75.4685 15.1041 75.6262 15.1041ZM77.7592 13.4393C77.6431 13.4393 77.536 13.411 77.4378 13.3545C77.3426 13.298 77.2667 13.2221 77.2102 13.1269C77.1537 13.0287 77.1254 12.9216 77.1254 12.8055C77.1254 12.6895 77.1537 12.5838 77.2102 12.4886C77.2667 12.3904 77.3426 12.3131 77.4378 12.2565C77.536 12.2 77.6431 12.1717 77.7592 12.1717C77.8723 12.1717 77.9764 12.2 78.0716 12.2565C78.1698 12.3131 78.2472 12.3904 78.3037 12.4886C78.3602 12.5838 78.3885 12.6895 78.3885 12.8055C78.3885 12.9216 78.3602 13.0287 78.3037 13.1269C78.2472 13.2221 78.1698 13.298 78.0716 13.3545C77.9764 13.411 77.8723 13.4393 77.7592 13.4393ZM77.6565 15.3362C77.6417 15.3362 77.6298 15.3317 77.6208 15.3228C77.6149 15.3109 77.6164 15.2975 77.6253 15.2826L79.2856 12.2431C79.2946 12.2223 79.3124 12.2119 79.3392 12.2119H79.482C79.4969 12.2119 79.5073 12.2178 79.5133 12.2297C79.5222 12.2387 79.5222 12.2506 79.5133 12.2655L77.8529 15.3049C77.844 15.3258 77.8261 15.3362 77.7994 15.3362H77.6565ZM77.7592 13.2429C77.8782 13.2429 77.9779 13.2013 78.0582 13.1179C78.1415 13.0316 78.1832 12.9275 78.1832 12.8055C78.1832 12.6835 78.1415 12.5809 78.0582 12.4975C77.9779 12.4113 77.8782 12.3681 77.7592 12.3681C77.6402 12.3681 77.539 12.4113 77.4557 12.4975C77.3724 12.5809 77.3307 12.6835 77.3307 12.8055C77.3307 12.9275 77.3724 13.0316 77.4557 13.1179C77.539 13.2013 77.6402 13.2429 77.7592 13.2429ZM79.3972 15.3764C79.2812 15.3764 79.174 15.3481 79.0759 15.2915C78.9806 15.235 78.9048 15.1577 78.8482 15.0595C78.7917 14.9613 78.7634 14.8541 78.7634 14.7381C78.7634 14.625 78.7917 14.5209 78.8482 14.4257C78.9048 14.3275 78.9806 14.2501 79.0759 14.1936C79.174 14.1371 79.2812 14.1088 79.3972 14.1088C79.5103 14.1088 79.6144 14.1371 79.7096 14.1936C79.8078 14.2501 79.8852 14.3275 79.9417 14.4257C79.9983 14.5209 80.0265 14.625 80.0265 14.7381C80.0265 14.8541 79.9983 14.9613 79.9417 15.0595C79.8852 15.1577 79.8078 15.235 79.7096 15.2915C79.6144 15.3481 79.5103 15.3764 79.3972 15.3764ZM79.3972 15.18C79.5162 15.18 79.6159 15.1368 79.6962 15.0505C79.7796 14.9642 79.8212 14.8601 79.8212 14.7381C79.8212 14.6161 79.7796 14.5135 79.6962 14.4301C79.6159 14.3468 79.5162 14.3052 79.3972 14.3052C79.2782 14.3052 79.177 14.3468 79.0937 14.4301C79.0104 14.5135 78.9687 14.6161 78.9687 14.7381C78.9687 14.8631 79.0089 14.9687 79.0892 15.055C79.1726 15.1383 79.2752 15.18 79.3972 15.18Z" fill="#404040"/>
<path fill-rule="evenodd" clip-rule="evenodd" d="M34.0937 22.9476L33.9423 22.9616L33.9353 23.1538L33.9283 23.3482H34.1705C34.3033 23.3482 34.6037 23.3552 34.8343 23.3646L35.2581 23.3787V26.0661C35.2581 28.6832 35.2675 29.2526 35.3094 29.2526C35.3187 29.2526 35.3886 29.2057 35.4631 29.1472C35.5702 29.0628 35.6308 29.0347 35.7775 29.0019L35.9568 28.9597V26.1692V23.3787L36.6136 23.3646C37.1027 23.3529 37.275 23.3412 37.289 23.3201C37.3146 23.2779 37.3123 23.0389 37.2866 22.9991C37.2727 22.978 37.2051 22.9569 37.1283 22.9476C36.9699 22.9265 34.3172 22.9288 34.0937 22.9476Z" fill="#323232"/>
<path fill-rule="evenodd" clip-rule="evenodd" d="M38.2717 22.943C38.2251 22.9523 38.2228 22.9664 38.2088 23.6365C38.1995 24.0137 38.1925 24.7822 38.1925 25.3445V26.3708H37.6802H37.1678V25.368C37.1678 24.8174 37.1608 24.1848 37.1515 23.9622L37.1375 23.5592H36.8184H36.4971L36.4808 24.2902C36.4714 24.6932 36.4691 25.9467 36.4738 27.0737L36.4808 29.1238L36.5343 29.2386C36.5995 29.3839 36.5995 29.4565 36.5273 29.6276C36.4481 29.815 36.4528 29.8572 36.546 29.8947C36.6857 29.9532 36.8091 29.9626 36.9465 29.9204C37.1655 29.8572 37.1538 29.9532 37.1631 28.203L37.1724 26.6988H37.6825H38.1925V28.0273C38.1925 28.7606 38.1995 29.5081 38.2088 29.6885L38.2228 30.0212L38.3113 30.0493C38.4068 30.0821 38.5046 30.0657 38.7398 29.9767L38.8679 29.9298L38.8656 27.1018C38.8633 25.546 38.8539 23.9739 38.8469 23.606L38.833 22.9383L38.5768 22.9359C38.4371 22.9336 38.2996 22.9359 38.2717 22.943Z" fill="#323232"/>
<path fill-rule="evenodd" clip-rule="evenodd" d="M33.2364 23.7469C32.9406 23.789 32.7334 23.8992 32.6379 24.0608C32.554 24.2061 32.5331 24.3865 32.5331 24.9395C32.5331 25.7993 32.5377 25.8064 33.5112 27.2497C33.7488 27.6035 33.7837 27.662 33.8955 27.9127C33.9957 28.1353 34.005 28.1728 34.0236 28.4282C34.0352 28.5781 34.0469 28.9905 34.0469 29.3396C34.0469 29.6911 34.0539 29.9793 34.0655 29.9793C34.0748 29.9793 34.2216 29.9582 34.3916 29.9301L34.7013 29.8785L34.6943 28.9975L34.6873 28.1166L34.5872 27.8659C34.4754 27.5894 34.2681 27.2426 33.814 26.5819C33.651 26.3429 33.4553 26.0383 33.3831 25.9071L33.2481 25.6658L33.2248 25.0051C33.2015 24.2787 33.2131 24.1452 33.3156 24.0444C33.3808 23.9788 33.46 23.9577 33.651 23.9577C33.835 23.9577 33.9188 23.9929 33.9817 24.0936C34.0329 24.178 34.0352 24.1991 34.0469 24.9699C34.0562 25.5697 34.0655 25.7665 34.0888 25.79C34.1261 25.8275 34.6012 25.8439 34.6524 25.8111C34.6827 25.79 34.6873 25.6752 34.6943 25.059C34.7013 24.2904 34.6873 24.1194 34.6058 24.0046C34.5499 23.9249 34.3217 23.8101 34.14 23.7703C33.9747 23.7352 33.4274 23.7211 33.2364 23.7469Z" fill="#323232"/>
<path fill-rule="evenodd" clip-rule="evenodd" d="M40.2025 23.7934C39.8346 23.8449 39.6413 23.9433 39.5295 24.1355C39.4689 24.2362 39.4643 24.2737 39.448 24.5877C39.4386 24.7751 39.4293 26.045 39.4293 27.4063L39.427 29.8828L39.5039 29.9391C39.6739 30.0703 39.8089 30.082 40.0046 29.9859L40.0907 29.9438L40.0977 28.5544L40.1024 27.1673H40.5216H40.9408V28.559V29.9508L41.0922 30.0492L41.2459 30.1499L41.3926 30.0867C41.4765 30.0515 41.5603 30.007 41.5859 29.9906C41.6255 29.9602 41.6278 29.8735 41.6348 28.1467C41.6441 26.0544 41.6139 24.4119 41.5626 24.2198C41.4858 23.9293 41.2273 23.8145 40.5798 23.784C40.4517 23.7793 40.2817 23.7817 40.2025 23.7934ZM40.7545 24.0488C40.8057 24.0745 40.8523 24.1237 40.8826 24.1823C40.9245 24.269 40.9268 24.3393 40.9362 25.4335C40.9408 26.0708 40.9362 26.6565 40.9245 26.7338L40.9059 26.8744L40.5798 26.8815C40.4005 26.8861 40.2188 26.8815 40.1792 26.8744L40.1024 26.8604V25.8482C40.1047 24.7189 40.1257 24.2596 40.1792 24.1542C40.2608 23.9949 40.5426 23.9433 40.7545 24.0488Z" fill="#323232"/>
<path fill-rule="evenodd" clip-rule="evenodd" d="M30.0549 24.8269C30.0479 24.9065 30.041 25.9023 30.041 27.0387V29.1052L30.2063 29.1216C30.2971 29.1286 30.4322 29.1568 30.5067 29.1825C30.5836 29.2083 30.6558 29.2294 30.6698 29.2294C30.6954 29.2294 30.7047 24.9839 30.6791 24.7917L30.6628 24.684H30.367H30.0712L30.0549 24.8269Z" fill="#323232"/>
<path fill-rule="evenodd" clip-rule="evenodd" d="M31.3754 24.7118C31.3405 24.7657 31.3032 29.0862 31.3358 29.2502C31.3544 29.3346 31.3894 29.3416 31.4522 29.2737C31.5198 29.1987 31.6199 29.1565 31.7969 29.1261L31.9623 29.0979L31.9763 28.7699C31.9972 28.3411 31.9972 25.0164 31.9763 24.836L31.9623 24.6954L31.6781 24.6884C31.4685 24.6837 31.3894 24.6907 31.3754 24.7118Z" fill="#323232"/>
<path fill-rule="evenodd" clip-rule="evenodd" d="M42.2103 24.7234C42.1986 24.7469 42.187 25.4779 42.18 26.3495L42.1707 27.931L42.2452 28.2708C42.4152 29.0416 42.5969 29.7351 42.6807 29.939C42.7879 30.1897 43.037 30.0866 43.037 29.7937C43.037 29.7211 43.0254 29.5875 43.0114 29.4985C42.8833 28.6199 42.8554 28.1161 42.8321 26.1597L42.8158 24.6953L42.5224 24.6883C42.2592 24.6836 42.2266 24.686 42.2103 24.7234Z" fill="#323232"/>
<path fill-rule="evenodd" clip-rule="evenodd" d="M43.5123 24.7102C43.503 24.7266 43.4867 25.4694 43.4774 26.3574C43.4681 27.2477 43.4495 28.0771 43.4355 28.199C43.3726 28.7754 43.3447 29.0589 43.347 29.1245C43.3493 29.162 43.3423 29.2768 43.3307 29.3775C43.3121 29.5626 43.3121 29.5626 43.3633 29.5345C43.3912 29.5204 43.4681 29.4572 43.5333 29.3986C43.6008 29.3377 43.694 29.258 43.7429 29.2205C43.7918 29.183 43.8477 29.1221 43.8663 29.087C43.9152 28.9909 44.0806 28.2458 44.1086 27.9858C44.1388 27.728 44.1318 24.7454 44.1016 24.7149C44.0899 24.7056 43.9572 24.6938 43.8058 24.6892C43.6008 24.6821 43.5263 24.6892 43.5123 24.7102Z" fill="#323232"/>
<path fill-rule="evenodd" clip-rule="evenodd" d="M29.1583 25.6207L28.8462 25.6324L28.6179 26.7922C28.4922 27.4295 28.385 27.9661 28.3827 27.9848C28.3711 28.0457 28.3245 28.0364 28.2965 27.9708C28.2826 27.9356 28.257 27.8255 28.2383 27.7294C28.222 27.6334 28.1358 27.2116 28.0497 26.7922C27.9635 26.3728 27.875 25.9417 27.854 25.8316L27.8168 25.6324L27.4931 25.6254L27.1693 25.6184L27.1833 27.2046C27.1926 28.0785 27.1996 29.1915 27.1996 29.6788V30.5645H27.5257H27.8517L27.854 29.7022C27.854 29.229 27.8634 28.7885 27.875 28.7252C27.8843 28.6596 27.8936 28.6151 27.896 28.6245C27.9495 28.9103 28.0823 29.6437 28.0939 29.7233C28.1195 29.8967 28.1475 29.9201 28.3315 29.9178C28.4596 29.9178 28.4945 29.9084 28.5248 29.8686C28.5504 29.8381 28.5946 29.639 28.6529 29.2969C28.7018 29.0087 28.7507 28.7557 28.7623 28.7369C28.774 28.7135 28.7833 28.7744 28.7833 28.9009C28.7833 29.2196 28.8112 29.489 28.8415 29.5007C28.8578 29.5078 28.916 29.482 28.9719 29.4445C29.0278 29.407 29.1583 29.3414 29.2607 29.2992C29.3632 29.2547 29.454 29.2126 29.4657 29.2055C29.475 29.1985 29.4796 28.3855 29.4773 27.3991L29.4703 25.609L29.1583 25.6207Z" fill="#323232"/>
<path fill-rule="evenodd" clip-rule="evenodd" d="M44.7235 25.6487C44.7118 25.6651 44.7002 26.4266 44.6955 27.3427L44.6862 29.0062L44.7793 29.0601C44.968 29.1656 45.0542 29.3319 45.0332 29.5475C45.0169 29.7021 44.9517 29.8521 44.812 30.0583C44.7118 30.2035 44.7025 30.2293 44.7025 30.3558C44.7025 30.4472 44.7141 30.5058 44.7374 30.5269C44.777 30.5667 45.0984 30.5807 45.7342 30.569L46.1115 30.5643V30.391V30.2199L45.7808 30.2035C45.5991 30.1941 45.4454 30.1824 45.4408 30.1801C45.4361 30.1754 45.4268 29.7185 45.4198 29.1656L45.4058 28.1581L45.6224 28.144C45.7412 28.1346 45.8833 28.1276 45.9368 28.1276C46.0533 28.1276 46.0672 28.0995 46.0486 27.9027L46.0346 27.7762H45.7249H45.4128V26.8882C45.4128 26.2837 45.4198 25.9931 45.4384 25.9838C45.4524 25.9744 45.6015 25.9603 45.7691 25.9533L46.0766 25.9369V25.7846V25.6323L45.4082 25.6253C44.8935 25.6206 44.7374 25.6276 44.7235 25.6487Z" fill="#323232"/>
<path fill-rule="evenodd" clip-rule="evenodd" d="M32.5306 28.3531C32.5003 28.4327 32.5213 29.2669 32.5586 29.4426C32.5749 29.5129 32.5725 29.5832 32.5586 29.6534C32.5236 29.7964 32.5283 29.9159 32.5655 29.9674C32.5958 30.0096 32.6028 30.0096 32.8497 29.958C32.9894 29.9276 33.1268 29.8995 33.1571 29.8924L33.2107 29.8807L33.2037 29.1122C33.199 28.6881 33.1874 28.3343 33.178 28.325C33.1687 28.3132 33.0243 28.3015 32.859 28.2968L32.5562 28.2875L32.5306 28.3531Z" fill="#323232"/>
<path fill-rule="evenodd" clip-rule="evenodd" d="M35.8163 29.3482C35.7278 29.3834 35.616 29.5029 35.4856 29.6973C35.3738 29.866 35.0035 30.3534 34.9872 30.3534C34.9849 30.3534 34.943 30.3299 34.8964 30.3042C34.8196 30.2573 34.7869 30.255 34.5867 30.2667C34.1884 30.2878 33.9415 30.4166 33.5503 30.8032C33.2266 31.1242 32.9401 31.3117 32.8795 31.2507C32.8632 31.2343 32.9168 31.1523 33.0379 31.0094C33.4059 30.5689 33.4059 30.5689 33.3896 30.433C33.3849 30.3885 33.357 30.3487 33.3011 30.3112C33.187 30.2339 33.0193 30.2503 32.7608 30.3651C32.6536 30.4119 32.5535 30.4565 32.5395 30.4635C32.5232 30.4705 32.4999 30.4494 32.4883 30.4166C32.4347 30.2761 32.2647 30.2784 32.1343 30.419C32.09 30.4658 31.9922 30.583 31.9177 30.6767C31.6895 30.9672 31.2912 31.2765 31.1049 31.307C30.8604 31.3468 31.035 31.0047 31.6592 30.2245C32.1157 29.6528 32.1762 29.545 32.0691 29.4865C31.9946 29.449 31.8292 29.4583 31.7477 29.5075C31.7081 29.5333 31.5497 29.709 31.396 29.9012C31.0886 30.2854 30.6531 30.7236 30.3736 30.9321C30.0592 31.1664 29.6749 31.3187 29.5864 31.2437C29.4863 31.1617 29.6074 30.9602 30.1314 30.3346C30.2642 30.1753 30.4062 29.9902 30.4505 29.9246C30.5366 29.791 30.5529 29.6716 30.4947 29.5872C30.4085 29.463 30.0476 29.4279 29.7238 29.5099C29.272 29.6247 28.9832 29.8707 29.1626 29.9902C29.2371 30.0371 29.3372 30.0066 29.6167 29.8473C29.8449 29.7208 30.0732 29.6505 30.1174 29.695C30.1477 29.7254 30.0173 29.8941 29.6679 30.2714C29.2278 30.7447 29.0904 30.9813 29.116 31.2156C29.1346 31.3913 29.3349 31.546 29.5422 31.5483C29.7704 31.5483 30.1035 31.3937 30.3643 31.1617C30.4598 31.0774 30.5506 31.0094 30.5692 31.0094C30.6065 31.0094 30.6065 31.0047 30.5646 31.1242C30.5227 31.2461 30.5529 31.3421 30.6671 31.4382C30.8184 31.5647 31.0234 31.5741 31.2703 31.464C31.4146 31.3983 31.4962 31.3913 31.5171 31.4429C31.5264 31.4663 31.5637 31.478 31.6336 31.478C31.736 31.478 31.7407 31.4757 31.9061 31.2718C32.1436 30.9813 32.2903 30.8337 32.451 30.7165C32.8306 30.4424 33.1031 30.4119 32.9122 30.665C32.8749 30.7118 32.7794 30.8243 32.6979 30.918C32.4743 31.1734 32.4277 31.3351 32.5465 31.4288C32.5977 31.4686 32.642 31.478 32.7817 31.478C32.9634 31.478 33.0216 31.4569 33.2475 31.314C33.3081 31.2742 33.371 31.2437 33.3873 31.2437C33.4036 31.2437 33.4362 31.2835 33.4618 31.3351C33.5177 31.4452 33.6085 31.485 33.7902 31.485C33.9532 31.4827 34.1092 31.4171 34.2606 31.2882C34.3212 31.239 34.3794 31.1969 34.3934 31.1969C34.4073 31.1969 34.419 31.2297 34.419 31.2695C34.419 31.3163 34.4423 31.3632 34.4865 31.4101C34.5447 31.4686 34.5727 31.478 34.6798 31.478C34.8265 31.478 35.0012 31.403 35.1829 31.2625C35.2504 31.2109 35.311 31.1734 35.3179 31.1805C35.3249 31.1875 35.3482 31.2273 35.3715 31.2718C35.3948 31.314 35.4623 31.3843 35.5229 31.4241C35.6207 31.4921 35.6556 31.5014 35.7814 31.5014C35.9863 31.5014 36.1517 31.464 36.3287 31.3819C36.536 31.2859 36.6734 31.1734 37.0507 30.8103C37.2999 30.5666 37.3907 30.4939 37.4536 30.4822C37.6306 30.4471 37.6236 30.4705 37.3767 30.7517C37.0018 31.1734 36.9366 31.3234 37.0763 31.4405C37.2184 31.56 37.5141 31.5061 37.8122 31.307C37.8984 31.2484 37.9846 31.1969 37.9985 31.1922C38.0148 31.1875 38.0451 31.2226 38.0684 31.2671C38.2081 31.5413 38.6087 31.5741 39.0536 31.3491C39.1374 31.307 39.2212 31.2554 39.2375 31.2343C39.2841 31.1781 39.3027 31.1851 39.4518 31.3234C39.6172 31.478 39.7057 31.5108 39.9246 31.4968C40.1412 31.4827 40.2995 31.4054 40.5301 31.2015C40.7607 31.0024 40.9167 30.8876 40.9493 30.8993C40.9656 30.904 40.9726 30.9719 40.9679 31.082C40.9563 31.3726 41.0425 31.478 41.2917 31.478C41.4896 31.478 41.6317 31.4241 41.7877 31.2929C41.8646 31.2273 41.9344 31.1805 41.9461 31.1875C41.9554 31.1945 41.9647 31.2367 41.9647 31.2812C41.9647 31.4124 42.0486 31.478 42.2139 31.478C42.3653 31.478 42.4748 31.4335 42.6518 31.3046C42.7146 31.2578 42.7822 31.2203 42.7985 31.2203C42.8125 31.2203 42.8451 31.2648 42.866 31.3163C42.9545 31.5436 43.3132 31.5624 43.6089 31.3585C43.7673 31.2507 44.1609 30.8548 44.1493 30.8173C44.1236 30.74 44.0398 30.7798 43.7906 30.979C43.5251 31.1969 43.425 31.2531 43.3341 31.239C43.2876 31.232 43.2806 31.2203 43.2829 31.1219C43.2829 30.979 43.3434 30.8946 43.567 30.7165C44.0398 30.3417 44.4427 29.9246 44.5428 29.7044C44.622 29.5333 44.6104 29.3951 44.5172 29.3482C44.4287 29.306 44.2261 29.3459 44.0957 29.4326C43.8349 29.6083 43.2689 30.2596 43.036 30.658C42.9242 30.8454 42.7822 30.9954 42.6005 31.1172C42.4445 31.2226 42.342 31.2578 42.3094 31.225C42.2745 31.1898 42.3513 31.0774 42.5702 30.8337C42.6611 30.7306 42.7542 30.6111 42.7752 30.5689C42.8125 30.494 42.8101 30.4869 42.7729 30.4588C42.7496 30.4424 42.6913 30.4237 42.6424 30.4143C42.5912 30.4073 42.519 30.3745 42.4817 30.3417C42.3443 30.2268 42.0672 30.2222 41.7458 30.3299C41.6573 30.3581 41.4989 30.4471 41.3452 30.5525C41.0005 30.7939 40.9353 30.7892 40.9097 30.5314C40.8934 30.3674 40.8375 30.2948 40.6978 30.2573C40.3717 30.1683 39.8291 30.4026 39.4914 30.7775C39.2562 31.0375 38.9418 31.232 38.7042 31.2601C38.6204 31.2695 38.5878 31.2625 38.5365 31.2203C38.455 31.157 38.455 31.0984 38.5389 30.9508C38.6669 30.7259 38.9767 30.4565 39.1351 30.4307C39.2375 30.4143 39.2422 30.4541 39.1584 30.5783C39.0838 30.6861 39.0931 30.7142 39.1979 30.7236C39.2655 30.7283 39.2981 30.7165 39.368 30.6556C39.5403 30.5033 39.545 30.3932 39.3796 30.2971C39.2119 30.1964 38.8556 30.2596 38.5598 30.4401C38.4853 30.4846 38.2966 30.6439 38.1406 30.7915C37.7703 31.1453 37.5095 31.3163 37.4419 31.2484C37.4117 31.2179 37.5444 31.0352 37.7983 30.7657C38.0311 30.5174 38.087 30.433 38.0614 30.3651C38.0405 30.3112 37.952 30.2995 37.7004 30.3159C37.4792 30.3323 37.4699 30.3299 37.4699 30.2854C37.4699 30.2596 37.4443 30.2198 37.4117 30.1987C37.2626 30.1003 36.9598 30.3089 37.046 30.4494C37.0926 30.5221 37.0786 30.5572 36.9435 30.7025C36.7689 30.8946 36.5662 31.0446 36.331 31.1594C35.9887 31.3234 35.7581 31.2835 35.7581 31.0586C35.7581 31.0071 35.7674 30.9579 35.7767 30.9485C35.7861 30.9391 35.9072 30.9227 36.0446 30.9133C36.4195 30.8852 36.6245 30.8032 36.7363 30.6392C36.8178 30.5197 36.8108 30.4447 36.713 30.3557C36.5663 30.2268 36.3753 30.2104 36.0702 30.3065C35.8862 30.3627 35.7581 30.4588 35.3808 30.8243C35.0245 31.1687 34.8615 31.2789 34.8009 31.2156C34.7706 31.1875 34.78 31.164 34.8568 31.0422C34.9453 30.9063 35.2411 30.5432 35.7069 30.0019C36.1331 29.5075 36.2123 29.3693 36.0911 29.3365C36.0143 29.3154 35.8839 29.3224 35.8163 29.3482ZM44.3868 29.6106C44.3868 29.7114 43.7207 30.4705 43.6322 30.4705C43.5763 30.4705 43.9676 29.934 44.1795 29.7231C44.3169 29.5849 44.3868 29.5474 44.3868 29.6106ZM34.8009 30.4377C34.8801 30.4682 34.8359 30.5502 34.6239 30.7611C34.391 30.993 34.2001 31.1312 34.0161 31.2015C33.8158 31.2789 33.7529 31.1992 33.874 31.0188C34.0347 30.7751 34.3421 30.5455 34.6169 30.4565C34.7264 30.4213 34.752 30.419 34.8009 30.4377ZM36.5243 30.4611C36.5779 30.5127 36.5709 30.5455 36.4964 30.6181C36.4079 30.7025 36.2565 30.7517 36.0772 30.7517H35.9258L35.9794 30.6931C36.0516 30.6158 36.2495 30.4846 36.3403 30.4518C36.4405 30.4166 36.4824 30.419 36.5243 30.4611ZM40.6722 30.4658C40.6722 30.4822 40.6302 30.5197 40.5813 30.5478C40.4695 30.6111 40.3973 30.7048 40.4183 30.7587C40.4253 30.7821 40.4626 30.8149 40.4998 30.836C40.5371 30.8548 40.5674 30.8852 40.5674 30.904C40.5674 30.9485 40.4556 31.0305 40.2413 31.1453C39.9781 31.2882 39.8407 31.2976 39.7778 31.1758C39.6917 31.0164 40.0806 30.5994 40.4346 30.4682C40.5674 30.419 40.6722 30.419 40.6722 30.4658ZM42.3094 30.4377C42.3793 30.4588 42.3746 30.5127 42.2861 30.6322C42.1021 30.8829 41.5339 31.2742 41.4081 31.232C41.2055 31.1687 41.6946 30.6275 42.1021 30.4682C42.2232 30.4213 42.2349 30.419 42.3094 30.4377Z" fill="#323232"/>
<path fill-rule="evenodd" clip-rule="evenodd" d="M28.8228 30.2765C28.797 30.3 28.804 30.5366 28.8298 30.553C28.8556 30.5694 29.0172 30.4218 29.0172 30.382C29.0172 30.3515 28.9024 30.2601 28.865 30.2601C28.8509 30.2601 28.8298 30.2672 28.8228 30.2765Z" fill="#323232"/>
<path fill-rule="evenodd" clip-rule="evenodd" d="M27.1807 30.968L27.1877 31.0454L27.7955 31.0524C28.4639 31.0594 28.6363 31.0454 28.6759 30.9798C28.6945 30.947 28.6945 30.9329 28.6666 30.9165C28.6456 30.9024 28.3265 30.8931 27.9027 30.8931H27.1737L27.1807 30.968Z" fill="#323232"/>
<path fill-rule="evenodd" clip-rule="evenodd" d="M44.6298 30.9165C44.5786 30.9376 44.539 31.0055 44.5646 31.0313C44.5716 31.0383 44.9256 31.0454 45.3494 31.0454H46.1226L46.1296 30.968L46.1366 30.8931L45.4077 30.8954C45.0071 30.8954 44.6578 30.9048 44.6298 30.9165Z" fill="#323232"/>
<path fill-rule="evenodd" clip-rule="evenodd" d="M28.2871 31.8556C28.0216 31.9329 27.9331 32.2656 28.1311 32.4554C28.3104 32.6241 28.6551 32.6194 28.8065 32.4484C28.9485 32.2867 28.9183 32.0384 28.7459 31.9165C28.6364 31.8392 28.4385 31.8134 28.2871 31.8556ZM28.6411 31.9892C28.6737 32.0126 28.7156 32.0712 28.7296 32.118C28.8111 32.364 28.5247 32.5843 28.3081 32.4414C28.2172 32.3804 28.18 32.3078 28.1776 32.186C28.1776 32.1063 28.1916 32.0735 28.2429 32.0243C28.2778 31.9915 28.3267 31.9564 28.3523 31.9446C28.4222 31.9142 28.5736 31.9376 28.6411 31.9892Z" fill="#323232"/>
<path fill-rule="evenodd" clip-rule="evenodd" d="M30.0964 31.8538C30.0289 31.8819 29.9473 31.9897 29.9473 32.0529C29.9473 32.1396 30.0498 32.2193 30.1802 32.2357C30.313 32.2521 30.4504 32.3107 30.469 32.3599C30.476 32.3786 30.4597 32.4161 30.4341 32.4419C30.3642 32.5122 30.1896 32.4934 30.0754 32.4067C29.9473 32.3083 29.8612 32.3716 29.9776 32.4817C30.1686 32.6621 30.6227 32.5801 30.6227 32.3645C30.6227 32.3294 30.6018 32.2778 30.5785 32.2544C30.5389 32.2146 30.3316 32.1349 30.2664 32.1349C30.2175 32.1349 30.0871 32.0576 30.0871 32.0271C30.0871 31.9803 30.1826 31.9241 30.2641 31.9241C30.3037 31.9241 30.3759 31.9498 30.4224 31.9826C30.5156 32.0459 30.5994 32.06 30.5994 32.0107C30.5994 31.8913 30.2618 31.7858 30.0964 31.8538Z" fill="#323232"/>
<path fill-rule="evenodd" clip-rule="evenodd" d="M35.0206 31.8506C34.7527 31.9373 34.6526 32.1809 34.79 32.4059C34.8715 32.5418 35.1207 32.6121 35.3257 32.5558C35.6307 32.4738 35.7053 32.0942 35.4537 31.9162C35.3489 31.8435 35.1417 31.8131 35.0206 31.8506ZM35.342 31.9818C35.4211 32.0333 35.4747 32.1669 35.4584 32.2629C35.4491 32.3028 35.4118 32.3684 35.3722 32.4059C35.3117 32.4644 35.2837 32.4738 35.1766 32.4738C35.0229 32.4738 34.9344 32.4152 34.8878 32.2817C34.8575 32.1973 34.8599 32.1809 34.8995 32.0966C34.9786 31.9326 35.1859 31.8787 35.342 31.9818Z" fill="#323232"/>
<path fill-rule="evenodd" clip-rule="evenodd" d="M35.987 31.8711C35.8356 31.9321 35.775 31.9977 35.7587 32.1195C35.7331 32.2859 35.7611 32.3772 35.8635 32.4686C35.9986 32.5928 36.2432 32.6139 36.4248 32.5178C36.5226 32.4686 36.6111 32.321 36.6135 32.2109C36.6158 32.0445 36.5273 31.925 36.3549 31.8641C36.2269 31.8196 36.1104 31.8219 35.987 31.8711ZM36.3223 31.9696C36.49 32.0726 36.5156 32.2601 36.3806 32.396C36.2106 32.5694 35.8868 32.4639 35.8868 32.2343C35.8868 31.9977 36.129 31.8501 36.3223 31.9696Z" fill="#323232"/>
<path fill-rule="evenodd" clip-rule="evenodd" d="M40.885 31.8531C40.7359 31.9 40.6264 32.0804 40.6451 32.2467C40.659 32.3779 40.7196 32.4599 40.8477 32.5255C41.0363 32.6239 41.2925 32.5794 41.4299 32.4271C41.4812 32.3732 41.4881 32.3428 41.4881 32.2092C41.4858 32.0218 41.4439 31.9445 41.3181 31.8929C41.2063 31.8484 40.9711 31.8273 40.885 31.8531ZM41.2226 31.9773C41.2669 32.0054 41.3205 32.0687 41.3438 32.1179C41.3857 32.2022 41.3857 32.2069 41.3438 32.2912C41.2879 32.406 41.1691 32.4857 41.0503 32.4857C40.9758 32.4857 40.9432 32.4693 40.8687 32.3943C40.7965 32.3217 40.7778 32.2866 40.7778 32.2163C40.7778 31.982 41.0293 31.8461 41.2226 31.9773Z" fill="#323232"/>
<path fill-rule="evenodd" clip-rule="evenodd" d="M43.6357 31.8623C43.5145 31.9068 43.4656 31.956 43.4191 32.0779C43.3259 32.3262 43.5145 32.5793 43.794 32.5793C43.9244 32.5793 44.0758 32.5043 44.1294 32.4129C44.2132 32.2747 44.141 32.2583 43.9966 32.3824C43.9314 32.4363 43.8662 32.4715 43.8057 32.4785C43.7242 32.4902 43.7055 32.4832 43.6333 32.4106C43.4959 32.2723 43.4936 32.1388 43.631 32.0005C43.7311 31.8998 43.808 31.8998 43.9687 32.0052C44.1084 32.0966 44.1643 32.0849 44.1084 31.9794C44.0432 31.86 43.8033 31.799 43.6357 31.8623Z" fill="#323232"/>
<path fill-rule="evenodd" clip-rule="evenodd" d="M44.6069 31.8461C44.5253 31.8626 44.3693 32.0102 44.3414 32.1015C44.3087 32.2023 44.3227 32.2983 44.3926 32.4108C44.4578 32.5162 44.5952 32.5772 44.7699 32.5795C44.9003 32.5795 44.9096 32.5748 45.0098 32.4741C45.068 32.4178 45.1099 32.3569 45.1052 32.3405C45.0866 32.2843 45.0237 32.296 44.9562 32.364C44.8281 32.4905 44.7419 32.5139 44.6208 32.4506C44.4811 32.378 44.4392 32.1789 44.5347 32.0383C44.6278 31.8977 44.7396 31.8977 44.9632 32.043C45.0354 32.0875 45.04 32.0898 45.0563 32.0523C45.1029 31.9258 44.8328 31.8016 44.6069 31.8461Z" fill="#323232"/>
<path fill-rule="evenodd" clip-rule="evenodd" d="M45.5268 31.8507C45.3312 31.914 45.2613 32.0334 45.2706 32.2795C45.273 32.3638 45.3778 32.4833 45.4942 32.5348C45.7015 32.6309 46.0182 32.5513 46.0974 32.3826C46.1789 32.2115 46.1254 32.0124 45.974 31.9116C45.8715 31.8437 45.6433 31.8132 45.5268 31.8507ZM45.8575 31.9725C45.9251 31.9983 45.9949 32.1272 45.9949 32.2256C45.9949 32.3568 45.8389 32.4856 45.6805 32.4856C45.62 32.4856 45.5757 32.4646 45.5105 32.406C45.4313 32.331 45.4244 32.3146 45.4244 32.1975C45.4244 32.1037 45.436 32.0545 45.4686 32.0194C45.5501 31.928 45.6992 31.9116 45.8575 31.9725Z" fill="#323232"/>
<path fill-rule="evenodd" clip-rule="evenodd" d="M27.2279 31.8815C27.2349 31.8979 27.2815 31.9143 27.3327 31.919C27.3863 31.9237 27.4422 31.9425 27.4585 31.9612C27.4771 31.9846 27.4934 32.0994 27.4981 32.2775C27.5074 32.5188 27.5144 32.5563 27.547 32.5563C27.6262 32.5563 27.6425 32.5048 27.6425 32.2635C27.6425 31.9753 27.6681 31.9237 27.8055 31.9307C27.9033 31.9331 27.9359 31.919 27.9103 31.8792C27.887 31.8394 27.2163 31.8441 27.2279 31.8815Z" fill="#323232"/>
<path fill-rule="evenodd" clip-rule="evenodd" d="M29.3233 31.9067C29.2721 31.963 29.0787 32.3753 29.0508 32.4901C29.0368 32.5464 29.0415 32.5558 29.0811 32.5558C29.1277 32.5558 29.1719 32.5159 29.2138 32.4292C29.2348 32.3871 29.2604 32.38 29.4048 32.373L29.5725 32.366L29.6051 32.4433C29.6633 32.5815 29.7611 32.619 29.7611 32.5019C29.7611 32.4339 29.5562 31.9606 29.5003 31.8997C29.4421 31.8388 29.3838 31.8411 29.3233 31.9067ZM29.4723 32.1481C29.491 32.2488 29.4607 32.2863 29.3792 32.2652C29.3093 32.2488 29.3 32.1926 29.3559 32.1153C29.4095 32.0379 29.4537 32.052 29.4723 32.1481Z" fill="#323232"/>
<path fill-rule="evenodd" clip-rule="evenodd" d="M30.7674 31.8814C30.7744 31.8978 30.793 31.9142 30.8117 31.9165C30.8303 31.9189 30.8839 31.9259 30.9328 31.9353L31.0189 31.9493V32.0969C31.0189 32.3476 31.0469 32.5351 31.0842 32.5515C31.147 32.5749 31.1773 32.4882 31.1936 32.2164L31.2099 31.9493L31.2938 31.9353C31.3427 31.9259 31.3939 31.9189 31.4125 31.9165C31.4312 31.9142 31.4498 31.8978 31.4568 31.8814C31.4638 31.8603 31.3846 31.8533 31.1121 31.8533C30.8396 31.8533 30.7604 31.8603 30.7674 31.8814Z" fill="#323232"/>
<path fill-rule="evenodd" clip-rule="evenodd" d="M31.7152 31.8694C31.6384 31.8811 31.6244 31.9397 31.6244 32.2396C31.6244 32.5582 31.6337 32.5676 31.9924 32.5676C32.1461 32.5676 32.2811 32.5582 32.2905 32.5489C32.3254 32.5161 32.2462 32.4856 32.1228 32.4856C32.0576 32.4856 31.9551 32.4786 31.8945 32.4716L31.7874 32.4552V32.3567V32.2583L31.9993 32.2443C32.1181 32.2373 32.2229 32.2208 32.2369 32.2068C32.2718 32.1716 32.1554 32.1342 32.0063 32.1342C31.848 32.1342 31.7874 32.1037 31.7874 32.0264C31.7874 31.9514 31.8596 31.9233 32.0552 31.9233C32.2159 31.9233 32.2835 31.9069 32.2625 31.8741C32.2509 31.853 31.8387 31.8507 31.7152 31.8694Z" fill="#323232"/>
<path fill-rule="evenodd" clip-rule="evenodd" d="M32.5539 31.8694C32.5236 31.8764 32.5143 31.9186 32.505 32.0826C32.5003 32.1951 32.5003 32.3427 32.505 32.4106C32.5143 32.5207 32.5213 32.5395 32.5772 32.5606C32.661 32.5934 32.9475 32.5723 33.0383 32.5254C33.213 32.4341 33.2828 32.1951 33.185 32.0193C33.1105 31.8881 33.0243 31.853 32.7844 31.8553C32.6796 31.8577 32.5748 31.8624 32.5539 31.8694ZM32.9288 31.9467C33.0336 31.9748 33.0918 32.0709 33.0918 32.2162C33.0918 32.3052 33.0802 32.338 33.0266 32.3919C32.9544 32.4622 32.8264 32.4997 32.7332 32.4762C32.6913 32.4669 32.675 32.4411 32.6633 32.3755C32.64 32.2255 32.647 31.9819 32.6773 31.9514C32.7122 31.9163 32.817 31.9163 32.9288 31.9467Z" fill="#323232"/>
<path fill-rule="evenodd" clip-rule="evenodd" d="M33.8654 31.8747C33.8188 31.9028 33.8351 32.526 33.884 32.5565C33.9422 32.5916 33.9748 32.5354 33.9818 32.3855L33.9888 32.2402L34.1868 32.2496C34.2986 32.2542 34.3917 32.2683 34.401 32.2847C34.4103 32.2988 34.4197 32.3409 34.4197 32.3808C34.4197 32.4862 34.4453 32.5565 34.4802 32.5565C34.5245 32.5565 34.5384 32.4393 34.5314 32.1347C34.5245 31.884 34.5221 31.8653 34.4779 31.8653C34.4406 31.8653 34.429 31.8864 34.4173 31.9778C34.4103 32.041 34.3894 32.1019 34.3708 32.1137C34.3545 32.1254 34.2613 32.1347 34.1705 32.1347H34.0005V32.0551C34.0005 31.8958 33.9446 31.8231 33.8654 31.8747Z" fill="#323232"/>
<path fill-rule="evenodd" clip-rule="evenodd" d="M37.3192 31.8814C37.2936 31.8954 37.2051 31.9611 37.1235 32.022C36.9582 32.1508 36.9349 32.1461 36.9139 31.9892C36.9046 31.9189 36.8883 31.8861 36.8604 31.8814C36.8231 31.8744 36.8185 31.9025 36.8185 32.2C36.8185 32.3781 36.8254 32.5327 36.8348 32.5398C36.8627 32.5679 36.9093 32.5046 36.9256 32.4179C36.9419 32.3219 36.9931 32.2282 37.0304 32.2282C37.0444 32.2282 37.1329 32.3008 37.2237 32.3922C37.3844 32.5468 37.4496 32.5843 37.4822 32.5351C37.4892 32.521 37.4263 32.4343 37.3425 32.3359C37.2586 32.2399 37.1911 32.1508 37.1911 32.1368C37.1911 32.1251 37.254 32.0641 37.3308 32.0056C37.4659 31.9001 37.4892 31.8533 37.4053 31.8533C37.3844 31.8533 37.3448 31.8673 37.3192 31.8814Z" fill="#323232"/>
<path fill-rule="evenodd" clip-rule="evenodd" d="M37.9036 31.895C37.8501 31.9583 37.6335 32.441 37.6335 32.5019C37.6335 32.5979 37.7546 32.5511 37.7919 32.4386C37.8175 32.3707 37.8221 32.3683 37.9689 32.3683C38.0923 32.3683 38.1319 32.3777 38.1691 32.4152C38.1948 32.441 38.2157 32.4784 38.2157 32.4972C38.2157 32.537 38.2833 32.5768 38.3275 32.5628C38.3415 32.5558 38.3555 32.5347 38.3555 32.5136C38.3555 32.4527 38.1039 31.9161 38.0597 31.881C38.0038 31.8411 37.9502 31.8458 37.9036 31.895ZM38.0574 32.1364C38.0806 32.216 38.0783 32.2348 38.0504 32.2535C38.0038 32.2816 37.9758 32.2793 37.9246 32.2441C37.885 32.2137 37.885 32.209 37.9362 32.1153C37.9665 32.0614 37.9991 32.0239 38.0084 32.0309C38.0201 32.038 38.041 32.0848 38.0574 32.1364Z" fill="#323232"/>
<path fill-rule="evenodd" clip-rule="evenodd" d="M38.5581 31.8696C38.5487 31.8766 38.5417 32.0312 38.5417 32.2093C38.5417 32.4834 38.5464 32.5373 38.579 32.549C38.6349 32.5701 38.6652 32.5209 38.6768 32.3803L38.6861 32.2515H38.8072C38.8725 32.2515 38.9633 32.2445 39.0099 32.2374L39.0937 32.2234L39.1054 32.3803C39.1217 32.5701 39.1473 32.6029 39.2171 32.5326C39.266 32.4834 39.2684 32.4647 39.2591 32.1999C39.2497 31.9586 39.2428 31.9141 39.2055 31.886C39.1426 31.8391 39.1053 31.8836 39.096 32.0125L39.089 32.1226H38.8911H38.6931L38.6815 32.0172C38.6745 31.9586 38.6605 31.8977 38.6512 31.8813C38.6302 31.8508 38.5813 31.8438 38.5581 31.8696Z" fill="#323232"/>
<path fill-rule="evenodd" clip-rule="evenodd" d="M39.8043 31.8815C39.8112 31.8979 39.8695 31.9167 39.9347 31.9237C39.9999 31.9307 40.0604 31.9448 40.0721 31.9565C40.0814 31.9659 40.0954 32.0948 40.0977 32.24C40.1047 32.4298 40.1163 32.5142 40.1373 32.5329C40.1955 32.5821 40.2118 32.5376 40.2258 32.2775C40.2421 31.9612 40.2584 31.9261 40.3818 31.9307C40.4796 31.9331 40.5123 31.919 40.4866 31.8792C40.4633 31.8394 39.7926 31.8441 39.8043 31.8815Z" fill="#323232"/>
<path fill-rule="evenodd" clip-rule="evenodd" d="M41.6861 32.1649C41.6861 32.5655 41.6931 32.5796 41.9259 32.5796C42.0191 32.5796 42.1286 32.5702 42.1728 32.5562C42.3428 32.507 42.408 32.3687 42.3219 32.2375C42.2893 32.186 42.2869 32.1649 42.3125 32.0969C42.3452 32.0079 42.3242 31.9493 42.2404 31.8908C42.2008 31.8626 42.1262 31.8533 41.9376 31.8533H41.6861V32.1649ZM42.0936 31.9564C42.1775 31.9939 42.2008 32.0524 42.1472 32.1063C42.1192 32.1344 41.9259 32.1438 41.8631 32.1204C41.8188 32.104 41.8142 31.9915 41.8537 31.9517C41.891 31.9142 41.9958 31.9165 42.0936 31.9564ZM42.1938 32.2914C42.2334 32.3453 42.2287 32.3781 42.1775 32.425C42.1192 32.4765 41.9725 32.4976 41.891 32.4648C41.8374 32.4437 41.8258 32.425 41.8258 32.357C41.8258 32.2938 41.8374 32.268 41.8794 32.2516C41.9539 32.2188 42.1565 32.2469 42.1938 32.2914Z" fill="#323232"/>
<path fill-rule="evenodd" clip-rule="evenodd" d="M42.8203 31.8813C42.7598 31.9282 42.4943 32.5116 42.5222 32.5397C42.5572 32.5749 42.6154 32.5421 42.6666 32.4507C42.7155 32.3687 42.7179 32.3687 42.8762 32.3687C43.0299 32.3687 43.0369 32.371 43.0719 32.4366C43.1184 32.5303 43.1999 32.5866 43.2372 32.5538C43.2721 32.5233 43.2512 32.4577 43.0998 32.1297C42.981 31.872 42.9135 31.8134 42.8203 31.8813ZM42.9391 32.1648C42.9484 32.2632 42.9088 32.2937 42.8296 32.2515C42.7691 32.2187 42.7691 32.2023 42.8296 32.125C42.8925 32.043 42.9298 32.0571 42.9391 32.1648Z" fill="#323232"/>
</svg>
