<svg width="80" height="61" viewBox="0 0 80 61" fill="none" xmlns="http://www.w3.org/2000/svg">
<path d="M64.3477 22.903C65.6177 26.3336 66.0438 30.0111 65.5913 33.6347C65.1388 37.2582 63.8205 40.7251 61.7441 43.7517C59.6678 46.7784 56.8923 49.2789 53.6448 51.0488C50.3972 52.8188 46.7697 53.8079 43.0588 53.9353L42.7714 45.8433C45.1835 45.7605 47.5414 45.1176 49.6523 43.9671C51.7632 42.8166 53.5672 41.1913 54.9169 39.224C56.2665 37.2567 57.1234 35.0032 57.4175 32.6479C57.7117 30.2926 57.4347 27.9022 56.6092 25.6723L64.3477 22.903Z" fill="#ED422A"/>
<path d="M19.6202 24.4387C20.9898 19.7425 23.8363 15.5932 27.7518 12.5854C31.6673 9.57768 36.4507 7.86587 41.4165 7.69537C46.3824 7.52487 51.2756 8.90444 55.395 11.6363C59.5143 14.3682 62.6483 18.3122 64.3477 22.903L56.6092 25.6723C55.5046 22.6883 53.4675 20.1247 50.7899 18.349C48.1123 16.5733 44.9317 15.6765 41.7039 15.7874C38.4762 15.8982 35.3669 17.0109 32.8219 18.9659C30.2768 20.921 28.4265 23.618 27.5363 26.6705L19.6202 24.4387Z" fill="#EE7A13"/>
<path d="M43.0588 53.9353C39.348 54.0627 35.6591 53.3248 32.2939 51.7819C28.9287 50.239 25.9826 47.9349 23.6966 45.0581C21.4106 42.1812 19.8495 38.8132 19.141 35.2295C18.4325 31.6458 18.5967 27.9481 19.6202 24.4387L27.5363 26.6705C26.871 28.9516 26.7643 31.3551 27.2248 33.6846C27.6853 36.014 28.7 38.2032 30.186 40.0731C31.6719 41.9431 33.5868 43.4407 35.7742 44.4436C37.9616 45.4465 40.3594 45.9261 42.7714 45.8433L43.0588 53.9353Z" fill="#C41A2A"/>
<path d="M25.6271 45.2623L22.8562 48.7651H11.3766" stroke="black" stroke-width="0.145684"/>
<path d="M3.62184 46.8622C3.59804 46.8622 3.58167 46.8503 3.57275 46.8265L3.0193 45.4473C3.01632 45.4384 3.01037 45.4339 3.00145 45.4339H2.42569C2.41378 45.4339 2.40783 45.4399 2.40783 45.4518V46.8175C2.40783 46.8473 2.39296 46.8622 2.3632 46.8622H2.13557C2.10582 46.8622 2.09094 46.8473 2.09094 46.8175V43.7825C2.09094 43.7528 2.10582 43.7379 2.13557 43.7379H3.08179C3.23651 43.7379 3.37339 43.7736 3.49241 43.845C3.6144 43.9164 3.70813 44.0176 3.77359 44.1485C3.84203 44.2794 3.87625 44.4297 3.87625 44.5993C3.87625 44.8016 3.82715 44.9742 3.72896 45.117C3.63077 45.2599 3.49687 45.3551 3.32727 45.4027C3.31536 45.4086 3.31239 45.4161 3.31834 45.425L3.8941 46.8086L3.89856 46.8265C3.89856 46.8503 3.88517 46.8622 3.85839 46.8622H3.62184ZM2.42569 44.0146C2.41378 44.0146 2.40783 44.0206 2.40783 44.0325V45.1617C2.40783 45.1736 2.41378 45.1795 2.42569 45.1795H3.04162C3.19634 45.1795 3.32131 45.126 3.41653 45.0189C3.51175 44.9117 3.55936 44.7719 3.55936 44.5993C3.55936 44.4238 3.51175 44.2824 3.41653 44.1753C3.32131 44.0682 3.19634 44.0146 3.04162 44.0146H2.42569ZM5.3327 46.8979C5.1512 46.8979 4.99052 46.8592 4.85067 46.7818C4.7138 46.7045 4.60668 46.5959 4.52931 46.456C4.45493 46.3162 4.41773 46.154 4.41773 45.9695V43.7825C4.41773 43.7528 4.43261 43.7379 4.46236 43.7379H4.68999C4.71975 43.7379 4.73462 43.7528 4.73462 43.7825V45.9874C4.73462 46.1778 4.78967 46.3311 4.89976 46.4471C5.00986 46.5631 5.15417 46.6212 5.3327 46.6212C5.51123 46.6212 5.65554 46.5631 5.76564 46.4471C5.87573 46.3311 5.93078 46.1778 5.93078 45.9874V43.7825C5.93078 43.7528 5.94566 43.7379 5.97541 43.7379H6.20304C6.23279 43.7379 6.24767 43.7528 6.24767 43.7825V45.9695C6.24767 46.154 6.20899 46.3162 6.13163 46.456C6.05724 46.5959 5.95012 46.7045 5.81027 46.7818C5.6734 46.8592 5.51421 46.8979 5.3327 46.8979ZM8.27706 45.2331C8.26219 45.239 8.26219 45.2465 8.27706 45.2554C8.41691 45.3238 8.52403 45.422 8.59842 45.55C8.67578 45.6779 8.71595 45.8327 8.71893 46.0142C8.71893 46.282 8.63859 46.4902 8.47791 46.639C8.32021 46.7878 8.11043 46.8622 7.84859 46.8622H6.96933C6.93957 46.8622 6.92469 46.8473 6.92469 46.8175V43.7825C6.92469 43.7528 6.93957 43.7379 6.96933 43.7379H7.81288C8.08663 43.7379 8.30087 43.8093 8.45559 43.9521C8.61032 44.092 8.68768 44.2928 8.68768 44.5547C8.68768 44.7213 8.65198 44.8612 8.58057 44.9742C8.51213 45.0873 8.41096 45.1736 8.27706 45.2331ZM7.25944 44.0146C7.24754 44.0146 7.24159 44.0206 7.24159 44.0325V45.1081C7.24159 45.12 7.24754 45.126 7.25944 45.126H7.81735C7.98993 45.126 8.12531 45.0769 8.2235 44.9787C8.32467 44.8805 8.37525 44.7481 8.37525 44.5815C8.37525 44.4059 8.32467 44.2675 8.2235 44.1664C8.12531 44.0652 7.98993 44.0146 7.81735 44.0146H7.25944ZM7.83966 46.581C8.01224 46.581 8.14912 46.5274 8.25028 46.4203C8.35145 46.3132 8.40203 46.1674 8.40203 45.9829C8.40203 45.7955 8.34996 45.6482 8.24582 45.5411C8.14465 45.4339 8.00629 45.3804 7.83074 45.3804H7.25944C7.24754 45.3804 7.24159 45.3863 7.24159 45.3982V46.5631C7.24159 46.575 7.24754 46.581 7.25944 46.581H7.83966ZM9.37095 46.8622C9.34119 46.8622 9.32631 46.8473 9.32631 46.8175V43.7825C9.32631 43.7528 9.34119 43.7379 9.37095 43.7379H9.59857C9.62833 43.7379 9.64321 43.7528 9.64321 43.7825V46.8175C9.64321 46.8473 9.62833 46.8622 9.59857 46.8622H9.37095ZM2.90772 51.8979C2.63695 51.8979 2.41825 51.819 2.25162 51.6613C2.08797 51.5036 2.00614 51.2939 2.00614 51.032V49.5681C2.00614 49.3062 2.08797 49.0964 2.25162 48.9387C2.41825 48.781 2.63695 48.7022 2.90772 48.7022C3.08625 48.7022 3.24246 48.7379 3.37636 48.8093C3.51323 48.8807 3.61887 48.9804 3.69325 49.1083C3.77062 49.2363 3.8093 49.3836 3.8093 49.5502V49.6752C3.8093 49.7049 3.79442 49.7198 3.76467 49.7198H3.53704C3.50728 49.7198 3.49241 49.7049 3.49241 49.6752V49.5502C3.49241 49.3806 3.43885 49.2437 3.33173 49.1396C3.22461 49.0325 3.08327 48.9789 2.90772 48.9789C2.73216 48.9789 2.59083 49.0325 2.48371 49.1396C2.37659 49.2437 2.32303 49.3836 2.32303 49.5591V51.0409C2.32303 51.2135 2.37659 51.3534 2.48371 51.4605C2.5938 51.5676 2.73663 51.6212 2.91218 51.6212C3.08774 51.6212 3.22759 51.5706 3.33173 51.4694C3.43885 51.3682 3.49241 51.2314 3.49241 51.0588V50.5723C3.49241 50.5604 3.48646 50.5544 3.47455 50.5544H2.95235C2.9226 50.5544 2.90772 50.5396 2.90772 50.5098V50.3224C2.90772 50.2926 2.9226 50.2777 2.95235 50.2777H3.76467C3.79442 50.2777 3.8093 50.2926 3.8093 50.3224V51.0186C3.8093 51.2894 3.72747 51.5036 3.56382 51.6613C3.40017 51.819 3.18147 51.8979 2.90772 51.8979ZM5.99731 51.8622C5.97351 51.8622 5.95714 51.8503 5.94821 51.8265L5.39477 50.4473C5.39179 50.4384 5.38584 50.4339 5.37692 50.4339H4.80115C4.78925 50.4339 4.7833 50.4399 4.7833 50.4518V51.8175C4.7833 51.8473 4.76842 51.8622 4.73867 51.8622H4.51104C4.48129 51.8622 4.46641 51.8473 4.46641 51.8175V48.7825C4.46641 48.7528 4.48129 48.7379 4.51104 48.7379H5.45725C5.61198 48.7379 5.74885 48.7736 5.86788 48.845C5.98987 48.9164 6.0836 49.0176 6.14906 49.1485C6.2175 49.2794 6.25172 49.4297 6.25172 49.5993C6.25172 49.8016 6.20262 49.9742 6.10443 50.117C6.00624 50.2599 5.87234 50.3551 5.70273 50.4027C5.69083 50.4086 5.68786 50.4161 5.69381 50.425L6.26957 51.8086L6.27403 51.8265C6.27403 51.8503 6.26064 51.8622 6.23386 51.8622H5.99731ZM4.80115 49.0146C4.78925 49.0146 4.7833 49.0206 4.7833 49.0325V50.1617C4.7833 50.1736 4.78925 50.1795 4.80115 50.1795H5.41709C5.57181 50.1795 5.69678 50.126 5.792 50.0189C5.88722 49.9117 5.93482 49.7719 5.93482 49.5993C5.93482 49.4238 5.88722 49.2824 5.792 49.1753C5.69678 49.0682 5.57181 49.0146 5.41709 49.0146H4.80115ZM8.45082 51.8622C8.42404 51.8622 8.40767 51.8488 8.40172 51.822L8.25443 51.2641C8.25146 51.2552 8.24402 51.2507 8.23212 51.2507H7.1654C7.15349 51.2507 7.14605 51.2552 7.14308 51.2641L6.99579 51.822C6.98984 51.8488 6.97348 51.8622 6.9467 51.8622H6.71461C6.69973 51.8622 6.68783 51.8577 6.6789 51.8488C6.67295 51.8399 6.67146 51.828 6.67444 51.8131L7.50907 48.7781C7.51502 48.7513 7.53138 48.7379 7.55816 48.7379H7.84381C7.87059 48.7379 7.88696 48.7513 7.89291 48.7781L8.72754 51.8131L8.732 51.8265C8.732 51.8503 8.71712 51.8622 8.68737 51.8622H8.45082ZM7.21895 50.974C7.21598 50.977 7.21598 50.9814 7.21895 50.9874C7.22491 50.9904 7.23086 50.9918 7.23681 50.9918H8.1607C8.16666 50.9918 8.17112 50.9904 8.17409 50.9874C8.18004 50.9814 8.18153 50.977 8.17856 50.974L7.70545 49.1798C7.70248 49.1738 7.6995 49.1708 7.69652 49.1708C7.69355 49.1708 7.69057 49.1738 7.6876 49.1798L7.21895 50.974ZM10.1862 48.7334C10.4242 48.7334 10.6162 48.8138 10.762 48.9744C10.9107 49.1322 10.9851 49.3419 10.9851 49.6038C10.9851 49.8626 10.9107 50.0709 10.762 50.2286C10.6162 50.3834 10.4242 50.4607 10.1862 50.4607H9.52116C9.50926 50.4607 9.50331 50.4667 9.50331 50.4786V51.8175C9.50331 51.8473 9.48843 51.8622 9.45868 51.8622H9.23105C9.2013 51.8622 9.18642 51.8473 9.18642 51.8175V48.7781C9.18642 48.7483 9.2013 48.7334 9.23105 48.7334H10.1862ZM10.146 50.1974C10.3037 50.1974 10.4302 50.1438 10.5254 50.0367C10.6206 49.9296 10.6682 49.7868 10.6682 49.6082C10.6682 49.4267 10.6206 49.2824 10.5254 49.1753C10.4302 49.0652 10.3037 49.0102 10.146 49.0102H9.52116C9.50926 49.0102 9.50331 49.0161 9.50331 49.028V50.1795C9.50331 50.1914 9.50926 50.1974 9.52116 50.1974H10.146ZM13.2284 48.97C13.2284 48.9997 13.2135 49.0146 13.1837 49.0146H11.8447C11.8328 49.0146 11.8269 49.0206 11.8269 49.0325V50.1394C11.8269 50.1513 11.8328 50.1572 11.8447 50.1572H12.7463C12.7761 50.1572 12.791 50.1721 12.791 50.2018V50.3893C12.791 50.4191 12.7761 50.4339 12.7463 50.4339H11.8447C11.8328 50.4339 11.8269 50.4399 11.8269 50.4518V51.5676C11.8269 51.5795 11.8328 51.5855 11.8447 51.5855H13.1837C13.2135 51.5855 13.2284 51.6003 13.2284 51.6301V51.8175C13.2284 51.8473 13.2135 51.8622 13.1837 51.8622H11.5546C11.5249 51.8622 11.51 51.8473 11.51 51.8175V48.7825C11.51 48.7528 11.5249 48.7379 11.5546 48.7379H13.1837C13.2135 48.7379 13.2284 48.7528 13.2284 48.7825V48.97ZM16.0527 50.3804C16.1092 50.5351 16.1375 50.7121 16.1375 50.9115C16.1375 51.09 16.1152 51.2448 16.0706 51.3757C15.9605 51.7238 15.7165 51.8979 15.3386 51.8979C15.1362 51.8979 14.9666 51.8443 14.8298 51.7372C14.6929 51.6271 14.6051 51.4769 14.5664 51.2864C14.5456 51.1912 14.5352 51.0826 14.5352 50.9606C14.5352 50.9308 14.5501 50.916 14.5798 50.916H14.8074C14.8372 50.916 14.8521 50.9308 14.8521 50.9606C14.858 51.0885 14.8655 51.1748 14.8744 51.2195C14.9012 51.3444 14.9547 51.4426 15.0351 51.514C15.1154 51.5855 15.2166 51.6212 15.3386 51.6212C15.5677 51.6212 15.7165 51.5051 15.7849 51.273C15.8117 51.1659 15.8251 51.038 15.8251 50.8892C15.8251 50.7107 15.8057 50.5634 15.7671 50.4473C15.6897 50.239 15.5469 50.1349 15.3386 50.1349C15.291 50.1349 15.2493 50.1438 15.2136 50.1617C15.1958 50.1676 15.1853 50.1706 15.1824 50.1706C15.1705 50.1706 15.16 50.1647 15.1511 50.1528L15.0351 50.0322C15.0202 50.0114 15.0187 49.9906 15.0306 49.9698L15.7269 49.0369C15.7328 49.031 15.7343 49.0265 15.7313 49.0235C15.7284 49.0176 15.7239 49.0146 15.718 49.0146H14.6021C14.5724 49.0146 14.5575 48.9997 14.5575 48.97V48.7825C14.5575 48.7528 14.5724 48.7379 14.6021 48.7379H16.0795C16.1092 48.7379 16.1241 48.7528 16.1241 48.7825V48.9834C16.1241 49.0072 16.1182 49.0265 16.1063 49.0414L15.4591 49.9251C15.4561 49.9281 15.4561 49.9326 15.4591 49.9385C15.4621 49.9445 15.4665 49.9474 15.4725 49.9474C15.6123 49.9534 15.7313 49.9936 15.8295 50.0679C15.9277 50.1423 16.0021 50.2465 16.0527 50.3804ZM17.5207 51.9068C17.2648 51.9068 17.0595 51.8295 16.9048 51.6747C16.7501 51.52 16.6727 51.3132 16.6727 51.0543V49.5457C16.6727 49.2899 16.7501 49.0845 16.9048 48.9298C17.0595 48.7751 17.2648 48.6977 17.5207 48.6977C17.7796 48.6977 17.9864 48.7751 18.1411 48.9298C18.2988 49.0845 18.3777 49.2899 18.3777 49.5457V51.0543C18.3777 51.3132 18.2988 51.52 18.1411 51.6747C17.9864 51.8295 17.7796 51.9068 17.5207 51.9068ZM17.5207 51.6301C17.6844 51.6301 17.8153 51.5795 17.9135 51.4783C18.0117 51.3772 18.0608 51.2433 18.0608 51.0766V49.5279C18.0608 49.3613 18.0117 49.2274 17.9135 49.1262C17.8153 49.025 17.6844 48.9744 17.5207 48.9744C17.363 48.9744 17.2351 49.025 17.1369 49.1262C17.0387 49.2274 16.9896 49.3613 16.9896 49.5279V51.0766C16.9896 51.2403 17.0387 51.3742 17.1369 51.4783C17.2351 51.5795 17.363 51.6301 17.5207 51.6301ZM19.6538 49.9653C19.5377 49.9653 19.4306 49.937 19.3324 49.8805C19.2372 49.824 19.1613 49.7481 19.1048 49.6529C19.0482 49.5547 19.02 49.4476 19.02 49.3315C19.02 49.2155 19.0482 49.1098 19.1048 49.0146C19.1613 48.9164 19.2372 48.8391 19.3324 48.7825C19.4306 48.726 19.5377 48.6977 19.6538 48.6977C19.7668 48.6977 19.871 48.726 19.9662 48.7825C20.0644 48.8391 20.1417 48.9164 20.1983 49.0146C20.2548 49.1098 20.2831 49.2155 20.2831 49.3315C20.2831 49.4476 20.2548 49.5547 20.1983 49.6529C20.1417 49.7481 20.0644 49.824 19.9662 49.8805C19.871 49.937 19.7668 49.9653 19.6538 49.9653ZM19.5511 51.8622C19.5362 51.8622 19.5243 51.8577 19.5154 51.8488C19.5094 51.8369 19.5109 51.8235 19.5199 51.8086L21.1802 48.7691C21.1891 48.7483 21.207 48.7379 21.2338 48.7379H21.3766C21.3915 48.7379 21.4019 48.7438 21.4078 48.7557C21.4167 48.7647 21.4167 48.7766 21.4078 48.7915L19.7475 51.8309C19.7386 51.8518 19.7207 51.8622 19.6939 51.8622H19.5511ZM19.6538 49.7689C19.7728 49.7689 19.8725 49.7273 19.9528 49.6439C20.0361 49.5576 20.0778 49.4535 20.0778 49.3315C20.0778 49.2095 20.0361 49.1069 19.9528 49.0235C19.8725 48.9373 19.7728 48.8941 19.6538 48.8941C19.5347 48.8941 19.4336 48.9373 19.3503 49.0235C19.2669 49.1069 19.2253 49.2095 19.2253 49.3315C19.2253 49.4535 19.2669 49.5576 19.3503 49.6439C19.4336 49.7273 19.5347 49.7689 19.6538 49.7689ZM21.2918 51.9024C21.1757 51.9024 21.0686 51.8741 20.9704 51.8175C20.8752 51.761 20.7993 51.6837 20.7428 51.5855C20.6863 51.4873 20.658 51.3801 20.658 51.2641C20.658 51.151 20.6863 51.0469 20.7428 50.9517C20.7993 50.8535 20.8752 50.7761 20.9704 50.7196C21.0686 50.6631 21.1757 50.6348 21.2918 50.6348C21.4048 50.6348 21.509 50.6631 21.6042 50.7196C21.7024 50.7761 21.7798 50.8535 21.8363 50.9517C21.8928 51.0469 21.9211 51.151 21.9211 51.2641C21.9211 51.3801 21.8928 51.4873 21.8363 51.5855C21.7798 51.6837 21.7024 51.761 21.6042 51.8175C21.509 51.8741 21.4048 51.9024 21.2918 51.9024ZM21.2918 51.706C21.4108 51.706 21.5105 51.6628 21.5908 51.5765C21.6741 51.4902 21.7158 51.3861 21.7158 51.2641C21.7158 51.1421 21.6741 51.0395 21.5908 50.9561C21.5105 50.8728 21.4108 50.8312 21.2918 50.8312C21.1728 50.8312 21.0716 50.8728 20.9883 50.9561C20.905 51.0395 20.8633 51.1421 20.8633 51.2641C20.8633 51.3891 20.9035 51.4947 20.9838 51.581C21.0671 51.6643 21.1698 51.706 21.2918 51.706Z" fill="#404040"/>
<path d="M28.4435 14.4763L25.676 10.9235H14.2103" stroke="black" stroke-width="0.145684"/>
<path d="M52.4873 50.3933L55.2548 53.9462H66.7205" stroke="black" stroke-width="0.145684"/>
<path d="M1.20062 9.03827C1.01911 9.03827 0.858435 9.00108 0.718586 8.92669C0.581712 8.84932 0.474594 8.74221 0.397231 8.60533C0.322843 8.46846 0.285649 8.31076 0.285649 8.13223V6.75308C0.285649 6.57455 0.322843 6.41684 0.397231 6.27997C0.474594 6.14012 0.581712 6.033 0.718586 5.95862C0.858435 5.88125 1.01911 5.84257 1.20062 5.84257C1.38212 5.84257 1.54131 5.88125 1.67819 5.95862C1.81804 6.033 1.92664 6.14012 2.00401 6.27997C2.08137 6.41684 2.12005 6.57455 2.12005 6.75308V8.13223C2.12005 8.31076 2.08137 8.46846 2.00401 8.60533C1.92664 8.74221 1.81804 8.84932 1.67819 8.92669C1.54131 9.00108 1.38212 9.03827 1.20062 9.03827ZM1.20062 8.76155C1.38212 8.76155 1.52792 8.70501 1.63802 8.59194C1.74811 8.47887 1.80316 8.3301 1.80316 8.14562V6.74415C1.80316 6.55669 1.74811 6.40643 1.63802 6.29336C1.52792 6.17732 1.38212 6.11929 1.20062 6.11929C1.02209 6.11929 0.877776 6.17732 0.767682 6.29336C0.657588 6.40643 0.602541 6.55669 0.602541 6.74415V8.14562C0.602541 8.3301 0.657588 8.47887 0.767682 8.59194C0.877776 8.70501 1.02209 8.76155 1.20062 8.76155ZM4.30733 9.00256C4.28353 9.00256 4.26716 8.99066 4.25824 8.96686L3.70479 7.58771C3.70181 7.57878 3.69586 7.57432 3.68694 7.57432H3.11118C3.09927 7.57432 3.09332 7.58027 3.09332 7.59217V8.95793C3.09332 8.98769 3.07845 9.00256 3.04869 9.00256H2.82106C2.79131 9.00256 2.77643 8.98769 2.77643 8.95793V5.92291C2.77643 5.89315 2.79131 5.87828 2.82106 5.87828H3.76728C3.922 5.87828 4.05888 5.91398 4.1779 5.9854C4.29989 6.05681 4.39362 6.15797 4.45908 6.2889C4.52752 6.41982 4.56174 6.57008 4.56174 6.73969C4.56174 6.94202 4.51264 7.1146 4.41445 7.25743C4.31626 7.40025 4.18236 7.49547 4.01276 7.54308C4.00085 7.54903 3.99788 7.55647 4.00383 7.56539L4.57959 8.949L4.58405 8.96686C4.58405 8.99066 4.57066 9.00256 4.54388 9.00256H4.30733ZM3.11118 6.155C3.09927 6.155 3.09332 6.16095 3.09332 6.17285V7.30206C3.09332 7.31396 3.09927 7.31991 3.11118 7.31991H3.72711C3.88183 7.31991 4.0068 7.26635 4.10202 7.15923C4.19724 7.05212 4.24485 6.91227 4.24485 6.73969C4.24485 6.56413 4.19724 6.4228 4.10202 6.31568C4.0068 6.20856 3.88183 6.155 3.72711 6.155H3.11118ZM6.76084 9.00256C6.73406 9.00256 6.71769 8.98917 6.71174 8.96239L6.56445 8.40449C6.56148 8.39556 6.55404 8.3911 6.54214 8.3911H5.47542C5.46352 8.3911 5.45608 8.39556 5.4531 8.40449L5.30581 8.96239C5.29986 8.98917 5.2835 9.00256 5.25672 9.00256H5.02463C5.00975 9.00256 4.99785 8.9981 4.98892 8.98917C4.98297 8.98025 4.98148 8.96835 4.98446 8.95347L5.81909 5.91845C5.82504 5.89167 5.8414 5.87828 5.86818 5.87828H6.15383C6.18061 5.87828 6.19698 5.89167 6.20293 5.91845L7.03756 8.95347L7.04202 8.96686C7.04202 8.99066 7.02715 9.00256 6.99739 9.00256H6.76084ZM5.52898 8.11437C5.526 8.11735 5.526 8.12181 5.52898 8.12776C5.53493 8.13074 5.54088 8.13223 5.54683 8.13223H6.47073C6.47668 8.13223 6.48114 8.13074 6.48412 8.12776C6.49007 8.12181 6.49155 8.11735 6.48858 8.11437L6.01547 6.32014C6.0125 6.31419 6.00952 6.31121 6.00655 6.31121C6.00357 6.31121 6.00059 6.31419 5.99762 6.32014L5.52898 8.11437ZM9.06751 5.92291C9.06751 5.89315 9.08239 5.87828 9.11214 5.87828H9.33977C9.36952 5.87828 9.3844 5.89315 9.3844 5.92291V8.95793C9.3844 8.98769 9.36952 9.00256 9.33977 9.00256H9.09875C9.07197 9.00256 9.05412 8.99215 9.04519 8.97132L7.84904 6.58347C7.84309 6.57752 7.83714 6.57455 7.83118 6.57455C7.82821 6.57455 7.82672 6.57901 7.82672 6.58794L7.83118 8.95793C7.83118 8.98769 7.81631 9.00256 7.78655 9.00256H7.55893C7.52917 9.00256 7.51429 8.98769 7.51429 8.95793V5.92291C7.51429 5.89315 7.52917 5.87828 7.55893 5.87828H7.79994C7.82672 5.87828 7.84457 5.88869 7.8535 5.90952L9.04966 8.30629C9.05561 8.31224 9.06007 8.31522 9.06305 8.31522C9.069 8.31522 9.07197 8.31076 9.07197 8.30183L9.06751 5.92291ZM10.9419 9.03827C10.6711 9.03827 10.4524 8.95942 10.2858 8.80172C10.1222 8.64401 10.0403 8.43424 10.0403 8.1724V6.70844C10.0403 6.4466 10.1222 6.23683 10.2858 6.07912C10.4524 5.92142 10.6711 5.84257 10.9419 5.84257C11.1204 5.84257 11.2767 5.87828 11.4105 5.94969C11.5474 6.0211 11.6531 6.12078 11.7274 6.24873C11.8048 6.37668 11.8435 6.52396 11.8435 6.69059V6.81556C11.8435 6.84532 11.8286 6.8602 11.7989 6.8602H11.5712C11.5415 6.8602 11.5266 6.84532 11.5266 6.81556V6.69059C11.5266 6.52099 11.473 6.38411 11.3659 6.27997C11.2588 6.17285 11.1175 6.11929 10.9419 6.11929C10.7664 6.11929 10.625 6.17285 10.5179 6.27997C10.4108 6.38411 10.3572 6.52396 10.3572 6.69952V8.18132C10.3572 8.3539 10.4108 8.49375 10.5179 8.60087C10.628 8.70799 10.7708 8.76155 10.9464 8.76155C11.1219 8.76155 11.2618 8.71096 11.3659 8.6098C11.473 8.50863 11.5266 8.37176 11.5266 8.19918V7.71268C11.5266 7.70078 11.5206 7.69483 11.5087 7.69483H10.9865C10.9568 7.69483 10.9419 7.67995 10.9419 7.65019V7.46274C10.9419 7.43298 10.9568 7.4181 10.9865 7.4181H11.7989C11.8286 7.4181 11.8435 7.43298 11.8435 7.46274V8.15901C11.8435 8.42978 11.7617 8.64401 11.598 8.80172C11.4344 8.95942 11.2157 9.03827 10.9419 9.03827ZM14.219 6.11037C14.219 6.14012 14.2041 6.155 14.1743 6.155H12.8353C12.8234 6.155 12.8175 6.16095 12.8175 6.17285V7.27974C12.8175 7.29164 12.8234 7.2976 12.8353 7.2976H13.7369C13.7667 7.2976 13.7816 7.31247 13.7816 7.34223V7.52969C13.7816 7.55944 13.7667 7.57432 13.7369 7.57432H12.8353C12.8234 7.57432 12.8175 7.58027 12.8175 7.59217V8.70799C12.8175 8.71989 12.8234 8.72584 12.8353 8.72584H14.1743C14.2041 8.72584 14.219 8.74072 14.219 8.77047V8.95793C14.219 8.98769 14.2041 9.00256 14.1743 9.00256H12.5452C12.5155 9.00256 12.5006 8.98769 12.5006 8.95793V5.92291C12.5006 5.89315 12.5155 5.87828 12.5452 5.87828H14.1743C14.2041 5.87828 14.219 5.89315 14.219 5.92291V6.11037ZM1.99508 10.8783C2.02484 10.8783 2.03971 10.8932 2.03971 10.9229V11.1104C2.03971 11.1401 2.02484 11.155 1.99508 11.155H1.26757C1.25567 11.155 1.24971 11.161 1.24971 11.1729V13.9579C1.24971 13.9877 1.23484 14.0026 1.20508 14.0026H0.977455C0.9477 14.0026 0.932823 13.9877 0.932823 13.9579V11.1729C0.932823 11.161 0.926872 11.155 0.91497 11.155H0.214237C0.184482 11.155 0.169604 11.1401 0.169604 11.1104V10.9229C0.169604 10.8932 0.184482 10.8783 0.214237 10.8783H1.99508ZM4.30301 11.1104C4.30301 11.1401 4.28813 11.155 4.25837 11.155H2.91939C2.90749 11.155 2.90154 11.161 2.90154 11.1729V12.2797C2.90154 12.2916 2.90749 12.2976 2.91939 12.2976H3.82097C3.85073 12.2976 3.86561 12.3125 3.86561 12.3422V12.5297C3.86561 12.5594 3.85073 12.5743 3.82097 12.5743H2.91939C2.90749 12.5743 2.90154 12.5803 2.90154 12.5922V13.708C2.90154 13.7199 2.90749 13.7258 2.91939 13.7258H4.25837C4.28813 13.7258 4.30301 13.7407 4.30301 13.7705V13.9579C4.30301 13.9877 4.28813 14.0026 4.25837 14.0026H2.62928C2.59953 14.0026 2.58465 13.9877 2.58465 13.9579V10.9229C2.58465 10.8932 2.59953 10.8783 2.62928 10.8783H4.25837C4.28813 10.8783 4.30301 10.8932 4.30301 10.9229V11.1104ZM6.45573 14.0026C6.42895 14.0026 6.41259 13.9892 6.40664 13.9624L6.25935 13.4045C6.25637 13.3956 6.24893 13.3911 6.23703 13.3911H5.17031C5.15841 13.3911 5.15097 13.3956 5.14799 13.4045L5.00071 13.9624C4.99476 13.9892 4.97839 14.0026 4.95161 14.0026H4.71952C4.70464 14.0026 4.69274 13.9981 4.68381 13.9892C4.67786 13.9802 4.67638 13.9683 4.67935 13.9535L5.51398 10.9184C5.51993 10.8917 5.5363 10.8783 5.56308 10.8783H5.84873C5.87551 10.8783 5.89187 10.8917 5.89782 10.9184L6.73245 13.9535L6.73692 13.9669C6.73692 13.9907 6.72204 14.0026 6.69228 14.0026H6.45573ZM5.22387 13.1144C5.22089 13.1173 5.22089 13.1218 5.22387 13.1278C5.22982 13.1307 5.23577 13.1322 5.24172 13.1322H6.16562C6.17157 13.1322 6.17603 13.1307 6.17901 13.1278C6.18496 13.1218 6.18645 13.1173 6.18347 13.1144L5.71037 11.3201C5.70739 11.3142 5.70442 11.3112 5.70144 11.3112C5.69846 11.3112 5.69549 11.3142 5.69251 11.3201L5.22387 13.1144ZM8.90076 10.9095C8.91564 10.8887 8.9335 10.8783 8.95432 10.8783H9.18641C9.21617 10.8783 9.23105 10.8932 9.23105 10.9229V13.9579C9.23105 13.9877 9.21617 14.0026 9.18641 14.0026H8.95879C8.92903 14.0026 8.91415 13.9877 8.91415 13.9579V11.5299C8.91415 11.521 8.91118 11.515 8.90523 11.5121C8.89928 11.5091 8.89481 11.5121 8.89184 11.521L8.29822 12.552C8.28335 12.5728 8.26549 12.5832 8.24466 12.5832H8.19557C8.17474 12.5832 8.15689 12.5728 8.14201 12.552L7.54393 11.5255C7.54096 11.5165 7.53649 11.5135 7.53054 11.5165C7.52459 11.5195 7.52162 11.5255 7.52162 11.5344V13.9579C7.52162 13.9877 7.50674 14.0026 7.47698 14.0026H7.24936C7.2196 14.0026 7.20472 13.9877 7.20472 13.9579V10.9229C7.20472 10.8932 7.2196 10.8783 7.24936 10.8783H7.48145C7.50227 10.8783 7.52013 10.8887 7.53501 10.9095L8.20896 12.0566C8.21193 12.0596 8.2164 12.061 8.22235 12.061C8.2283 12.061 8.23276 12.0596 8.23574 12.0566L8.90076 10.9095ZM12.4194 12.86C12.4492 12.86 12.4641 12.8748 12.4641 12.9046V13.101C12.4641 13.1307 12.4492 13.1456 12.4194 13.1456H12.2543C12.2424 13.1456 12.2364 13.1516 12.2364 13.1635V13.9579C12.2364 13.9877 12.2216 14.0026 12.1918 14.0026H11.9642C11.9344 14.0026 11.9195 13.9877 11.9195 13.9579V13.1635C11.9195 13.1516 11.9136 13.1456 11.9017 13.1456H10.6921C10.6624 13.1456 10.6475 13.1307 10.6475 13.101V12.9314C10.6475 12.9106 10.6505 12.8927 10.6564 12.8778L11.4509 10.914C11.4598 10.8902 11.4762 10.8783 11.5 10.8783H11.7455C11.7603 10.8783 11.7708 10.8842 11.7767 10.8961C11.7827 10.9051 11.7827 10.917 11.7767 10.9318L11.018 12.8377C11.015 12.8436 11.015 12.8496 11.018 12.8555C11.0209 12.8585 11.0254 12.86 11.0313 12.86H11.9017C11.9136 12.86 11.9195 12.854 11.9195 12.8421V12.1369C11.9195 12.1072 11.9344 12.0923 11.9642 12.0923H12.1918C12.2216 12.0923 12.2364 12.1072 12.2364 12.1369V12.8421C12.2364 12.854 12.2424 12.86 12.2543 12.86H12.4194ZM13.7691 14.0472C13.5132 14.0472 13.3079 13.9698 13.1532 13.8151C12.9985 13.6604 12.9211 13.4536 12.9211 13.1947V11.6861C12.9211 11.4302 12.9985 11.2249 13.1532 11.0702C13.3079 10.9155 13.5132 10.8381 13.7691 10.8381C14.028 10.8381 14.2348 10.9155 14.3895 11.0702C14.5472 11.2249 14.6261 11.4302 14.6261 11.6861V13.1947C14.6261 13.4536 14.5472 13.6604 14.3895 13.8151C14.2348 13.9698 14.028 14.0472 13.7691 14.0472ZM13.7691 13.7705C13.9328 13.7705 14.0637 13.7199 14.1619 13.6187C14.2601 13.5176 14.3092 13.3837 14.3092 13.217V11.6683C14.3092 11.5016 14.2601 11.3677 14.1619 11.2666C14.0637 11.1654 13.9328 11.1148 13.7691 11.1148C13.6114 11.1148 13.4835 11.1654 13.3853 11.2666C13.2871 11.3677 13.238 11.5016 13.238 11.6683V13.217C13.238 13.3807 13.2871 13.5146 13.3853 13.6187C13.4835 13.7199 13.6114 13.7705 13.7691 13.7705ZM15.9021 12.1057C15.7861 12.1057 15.679 12.0774 15.5808 12.0209C15.4856 11.9643 15.4097 11.8885 15.3531 11.7932C15.2966 11.6951 15.2683 11.5879 15.2683 11.4719C15.2683 11.3558 15.2966 11.2502 15.3531 11.155C15.4097 11.0568 15.4856 10.9794 15.5808 10.9229C15.679 10.8664 15.7861 10.8381 15.9021 10.8381C16.0152 10.8381 16.1193 10.8664 16.2146 10.9229C16.3128 10.9794 16.3901 11.0568 16.4466 11.155C16.5032 11.2502 16.5315 11.3558 16.5315 11.4719C16.5315 11.5879 16.5032 11.6951 16.4466 11.7932C16.3901 11.8885 16.3128 11.9643 16.2146 12.0209C16.1193 12.0774 16.0152 12.1057 15.9021 12.1057ZM15.7995 14.0026C15.7846 14.0026 15.7727 13.9981 15.7638 13.9892C15.7578 13.9773 15.7593 13.9639 15.7682 13.949L17.4286 10.9095C17.4375 10.8887 17.4553 10.8783 17.4821 10.8783H17.625C17.6398 10.8783 17.6502 10.8842 17.6562 10.8961C17.6651 10.9051 17.6651 10.917 17.6562 10.9318L15.9959 13.9713C15.9869 13.9921 15.9691 14.0026 15.9423 14.0026H15.7995ZM15.9021 11.9093C16.0212 11.9093 16.1208 11.8676 16.2012 11.7843C16.2845 11.698 16.3261 11.5939 16.3261 11.4719C16.3261 11.3499 16.2845 11.2472 16.2012 11.1639C16.1208 11.0776 16.0212 11.0345 15.9021 11.0345C15.7831 11.0345 15.6819 11.0776 15.5986 11.1639C15.5153 11.2472 15.4737 11.3499 15.4737 11.4719C15.4737 11.5939 15.5153 11.698 15.5986 11.7843C15.6819 11.8676 15.7831 11.9093 15.9021 11.9093ZM17.5401 14.0427C17.4241 14.0427 17.317 14.0145 17.2188 13.9579C17.1236 13.9014 17.0477 13.824 16.9912 13.7258C16.9346 13.6276 16.9064 13.5205 16.9064 13.4045C16.9064 13.2914 16.9346 13.1873 16.9912 13.0921C17.0477 12.9939 17.1236 12.9165 17.2188 12.86C17.317 12.8034 17.4241 12.7752 17.5401 12.7752C17.6532 12.7752 17.7574 12.8034 17.8526 12.86C17.9508 12.9165 18.0281 12.9939 18.0847 13.0921C18.1412 13.1873 18.1695 13.2914 18.1695 13.4045C18.1695 13.5205 18.1412 13.6276 18.0847 13.7258C18.0281 13.824 17.9508 13.9014 17.8526 13.9579C17.7574 14.0145 17.6532 14.0427 17.5401 14.0427ZM17.5401 13.8463C17.6592 13.8463 17.7588 13.8032 17.8392 13.7169C17.9225 13.6306 17.9642 13.5265 17.9642 13.4045C17.9642 13.2825 17.9225 13.1798 17.8392 13.0965C17.7588 13.0132 17.6592 12.9715 17.5401 12.9715C17.4211 12.9715 17.32 13.0132 17.2366 13.0965C17.1533 13.1798 17.1117 13.2825 17.1117 13.4045C17.1117 13.5295 17.1518 13.6351 17.2322 13.7214C17.3155 13.8047 17.4182 13.8463 17.5401 13.8463Z" fill="#404040"/>
<path d="M58.8981 48.9315C58.913 48.9107 58.9308 48.9002 58.9516 48.9002H59.1837C59.2135 48.9002 59.2284 48.9151 59.2284 48.9449V51.9799C59.2284 52.0097 59.2135 52.0245 59.1837 52.0245H58.9561C58.9264 52.0245 58.9115 52.0097 58.9115 51.9799V49.5519C58.9115 49.543 58.9085 49.537 58.9026 49.534C58.8966 49.5311 58.8921 49.534 58.8892 49.543L58.2955 50.574C58.2807 50.5948 58.2628 50.6052 58.242 50.6052H58.1929C58.1721 50.6052 58.1542 50.5948 58.1393 50.574L57.5413 49.5474C57.5383 49.5385 57.5338 49.5355 57.5279 49.5385C57.5219 49.5415 57.5189 49.5474 57.5189 49.5563V51.9799C57.5189 52.0097 57.5041 52.0245 57.4743 52.0245H57.2467C57.2169 52.0245 57.202 52.0097 57.202 51.9799V48.9449C57.202 48.9151 57.2169 48.9002 57.2467 48.9002H57.4788C57.4996 48.9002 57.5175 48.9107 57.5323 48.9315L58.2063 50.0786C58.2093 50.0815 58.2137 50.083 58.2197 50.083C58.2256 50.083 58.2301 50.0815 58.2331 50.0786L58.8981 48.9315ZM60.8493 52.0602C60.6678 52.0602 60.5071 52.0216 60.3672 51.9442C60.2304 51.8668 60.1232 51.7582 60.0459 51.6184C59.9715 51.4785 59.9343 51.3164 59.9343 51.1319V48.9449C59.9343 48.9151 59.9492 48.9002 59.9789 48.9002H60.2066C60.2363 48.9002 60.2512 48.9151 60.2512 48.9449V51.1497C60.2512 51.3402 60.3062 51.4934 60.4163 51.6095C60.5264 51.7255 60.6707 51.7835 60.8493 51.7835C61.0278 51.7835 61.1721 51.7255 61.2822 51.6095C61.3923 51.4934 61.4473 51.3402 61.4473 51.1497V48.9449C61.4473 48.9151 61.4622 48.9002 61.492 48.9002H61.7196C61.7494 48.9002 61.7642 48.9151 61.7642 48.9449V51.1319C61.7642 51.3164 61.7256 51.4785 61.6482 51.6184C61.5738 51.7582 61.4667 51.8668 61.3268 51.9442C61.19 52.0216 61.0308 52.0602 60.8493 52.0602ZM62.5164 52.0245C62.4866 52.0245 62.4718 52.0097 62.4718 51.9799V48.9449C62.4718 48.9151 62.4866 48.9002 62.5164 48.9002H62.744C62.7738 48.9002 62.7887 48.9151 62.7887 48.9449V51.73C62.7887 51.7419 62.7946 51.7478 62.8065 51.7478H64.1053C64.1351 51.7478 64.15 51.7627 64.15 51.7924V51.9799C64.15 52.0097 64.1351 52.0245 64.1053 52.0245H62.5164ZM64.6696 52.0245C64.6398 52.0245 64.6249 52.0097 64.6249 51.9799V48.9449C64.6249 48.9151 64.6398 48.9002 64.6696 48.9002H64.8972C64.927 48.9002 64.9418 48.9151 64.9418 48.9449V51.73C64.9418 51.7419 64.9478 51.7478 64.9597 51.7478H66.2585C66.2883 51.7478 66.3031 51.7627 66.3031 51.7924V51.9799C66.3031 52.0097 66.2883 52.0245 66.2585 52.0245H64.6696ZM68.4965 49.1323C68.4965 49.1621 68.4816 49.177 68.4518 49.177H67.1129C67.101 49.177 67.095 49.1829 67.095 49.1948V50.3017C67.095 50.3136 67.101 50.3196 67.1129 50.3196H68.0144C68.0442 50.3196 68.0591 50.3344 68.0591 50.3642V50.5517C68.0591 50.5814 68.0442 50.5963 68.0144 50.5963H67.1129C67.101 50.5963 67.095 50.6022 67.095 50.6141V51.73C67.095 51.7419 67.101 51.7478 67.1129 51.7478H68.4518C68.4816 51.7478 68.4965 51.7627 68.4965 51.7924V51.9799C68.4965 52.0097 68.4816 52.0245 68.4518 52.0245H66.8228C66.793 52.0245 66.7781 52.0097 66.7781 51.9799V48.9449C66.7781 48.9151 66.793 48.9002 66.8228 48.9002H68.4518C68.4816 48.9002 68.4965 48.9151 68.4965 48.9449V49.1323ZM69.1285 52.0245C69.0987 52.0245 69.0839 52.0097 69.0839 51.9799V48.9449C69.0839 48.9151 69.0987 48.9002 69.1285 48.9002H69.9988C70.2636 48.9002 70.4719 48.9761 70.6237 49.1279C70.7784 49.2796 70.8558 49.4864 70.8558 49.7483V51.1765C70.8558 51.4384 70.7784 51.6452 70.6237 51.7969C70.4719 51.9487 70.2636 52.0245 69.9988 52.0245H69.1285ZM69.4007 51.73C69.4007 51.7419 69.4067 51.7478 69.4186 51.7478H70.0033C70.1669 51.7448 70.2964 51.6913 70.3916 51.5871C70.4868 51.48 70.5359 51.3342 70.5389 51.1497V49.775C70.5389 49.5906 70.4913 49.4448 70.3961 49.3376C70.3008 49.2305 70.1699 49.177 70.0033 49.177H69.4186C69.4067 49.177 69.4007 49.1829 69.4007 49.1948V51.73ZM57.7332 57.0245C57.7064 57.0245 57.69 57.0111 57.6841 56.9844L56.9655 53.9493L56.961 53.9315C56.961 53.9107 56.9744 53.9002 57.0012 53.9002H57.2422C57.269 53.9002 57.2854 53.9136 57.2913 53.9404L57.8358 56.3372C57.8388 56.3461 57.8418 56.3506 57.8448 56.3506C57.8507 56.3506 57.8552 56.3461 57.8581 56.3372L58.3536 53.9404C58.3595 53.9136 58.3759 53.9002 58.4027 53.9002H58.6258C58.6556 53.9002 58.6719 53.9136 58.6749 53.9404L59.1882 56.3372C59.1912 56.3461 59.1942 56.3506 59.1971 56.3506C59.2001 56.3506 59.2031 56.3461 59.2061 56.3372L59.7372 53.9404C59.7431 53.9136 59.7595 53.9002 59.7863 53.9002H60.0184C60.0481 53.9002 60.06 53.9166 60.0541 53.9493L59.3578 56.9844C59.3519 57.0111 59.3355 57.0245 59.3087 57.0245H59.0811C59.0543 57.0245 59.0379 57.0111 59.032 56.9844L58.5232 54.5519C58.5202 54.543 58.5172 54.5385 58.5142 54.5385C58.5113 54.5385 58.5083 54.543 58.5053 54.5519L58.001 56.9844C57.998 57.0111 57.9816 57.0245 57.9519 57.0245H57.7332ZM60.603 57.0245C60.5732 57.0245 60.5583 57.0097 60.5583 56.9799V53.9449C60.5583 53.9151 60.5732 53.9002 60.603 53.9002H60.8306C60.8603 53.9002 60.8752 53.9151 60.8752 53.9449V56.9799C60.8752 57.0097 60.8603 57.0245 60.8306 57.0245H60.603ZM63.1707 53.9449C63.1707 53.9151 63.1856 53.9002 63.2153 53.9002H63.4429C63.4727 53.9002 63.4876 53.9151 63.4876 53.9449V56.9799C63.4876 57.0097 63.4727 57.0245 63.4429 57.0245H63.2019C63.1752 57.0245 63.1573 57.0141 63.1484 56.9933L61.9522 54.6054C61.9463 54.5995 61.9403 54.5965 61.9344 54.5965C61.9314 54.5965 61.9299 54.601 61.9299 54.6099L61.9344 56.9799C61.9344 57.0097 61.9195 57.0245 61.8897 57.0245H61.6621C61.6324 57.0245 61.6175 57.0097 61.6175 56.9799V53.9449C61.6175 53.9151 61.6324 53.9002 61.6621 53.9002H61.9031C61.9299 53.9002 61.9478 53.9107 61.9567 53.9315L63.1528 56.3283C63.1588 56.3342 63.1633 56.3372 63.1662 56.3372C63.1722 56.3372 63.1752 56.3327 63.1752 56.3238L63.1707 53.9449ZM65.9162 54.1323C65.9162 54.1621 65.9013 54.177 65.8715 54.177H64.5325C64.5206 54.177 64.5147 54.1829 64.5147 54.1948V55.3017C64.5147 55.3136 64.5206 55.3196 64.5325 55.3196H65.4341C65.4639 55.3196 65.4788 55.3344 65.4788 55.3642V55.5517C65.4788 55.5814 65.4639 55.5963 65.4341 55.5963H64.5325C64.5206 55.5963 64.5147 55.6022 64.5147 55.6141V56.73C64.5147 56.7419 64.5206 56.7478 64.5325 56.7478H65.8715C65.9013 56.7478 65.9162 56.7627 65.9162 56.7924V56.9799C65.9162 57.0097 65.9013 57.0245 65.8715 57.0245H64.2424C64.2127 57.0245 64.1978 57.0097 64.1978 56.9799V53.9449C64.1978 53.9151 64.2127 53.9002 64.2424 53.9002H65.8715C65.9013 53.9002 65.9162 53.9151 65.9162 53.9449V54.1323ZM68.7405 55.5427C68.797 55.6975 68.8253 55.8745 68.8253 56.0739C68.8253 56.2524 68.803 56.4071 68.7584 56.538C68.6483 56.8862 68.4043 57.0602 68.0264 57.0602C67.824 57.0602 67.6544 57.0067 67.5176 56.8996C67.3807 56.7895 67.2929 56.6392 67.2542 56.4488C67.2334 56.3536 67.223 56.245 67.223 56.123C67.223 56.0932 67.2379 56.0783 67.2676 56.0783H67.4952C67.525 56.0783 67.5399 56.0932 67.5399 56.123C67.5458 56.2509 67.5533 56.3372 67.5622 56.3818C67.589 56.5068 67.6425 56.605 67.7229 56.6764C67.8032 56.7478 67.9044 56.7835 68.0264 56.7835C68.2555 56.7835 68.4043 56.6675 68.4727 56.4354C68.4995 56.3283 68.5129 56.2003 68.5129 56.0515C68.5129 55.873 68.4935 55.7257 68.4548 55.6097C68.3775 55.4014 68.2347 55.2973 68.0264 55.2973C67.9788 55.2973 67.9371 55.3062 67.9014 55.324C67.8836 55.33 67.8731 55.333 67.8702 55.333C67.8583 55.333 67.8478 55.327 67.8389 55.3151L67.7229 55.1946C67.708 55.1738 67.7065 55.1529 67.7184 55.1321L68.4147 54.1993C68.4206 54.1933 68.4221 54.1889 68.4191 54.1859C68.4162 54.1799 68.4117 54.177 68.4058 54.177H67.2899C67.2602 54.177 67.2453 54.1621 67.2453 54.1323V53.9449C67.2453 53.9151 67.2602 53.9002 67.2899 53.9002H68.7673C68.797 53.9002 68.8119 53.9151 68.8119 53.9449V54.1457C68.8119 54.1695 68.806 54.1889 68.7941 54.2038L68.1469 55.0875C68.1439 55.0905 68.1439 55.0949 68.1469 55.1009C68.1499 55.1068 68.1543 55.1098 68.1603 55.1098C68.3001 55.1157 68.4191 55.1559 68.5173 55.2303C68.6155 55.3047 68.6899 55.4088 68.7405 55.5427ZM70.2085 57.0692C69.9526 57.0692 69.7473 56.9918 69.5926 56.8371C69.4379 56.6824 69.3605 56.4756 69.3605 56.2167V54.7081C69.3605 54.4522 69.4379 54.2469 69.5926 54.0922C69.7473 53.9374 69.9526 53.8601 70.2085 53.8601C70.4674 53.8601 70.6742 53.9374 70.8289 54.0922C70.9866 54.2469 71.0655 54.4522 71.0655 54.7081V56.2167C71.0655 56.4756 70.9866 56.6824 70.8289 56.8371C70.6742 56.9918 70.4674 57.0692 70.2085 57.0692ZM70.2085 56.7924C70.3722 56.7924 70.5031 56.7419 70.6013 56.6407C70.6995 56.5395 70.7486 56.4056 70.7486 56.239V54.6902C70.7486 54.5236 70.6995 54.3897 70.6013 54.2886C70.5031 54.1874 70.3722 54.1368 70.2085 54.1368C70.0508 54.1368 69.9229 54.1874 69.8247 54.2886C69.7265 54.3897 69.6774 54.5236 69.6774 54.6902V56.239C69.6774 56.4027 69.7265 56.5366 69.8247 56.6407C69.9229 56.7419 70.0508 56.7924 70.2085 56.7924ZM72.3416 55.1276C72.2255 55.1276 72.1184 55.0994 72.0202 55.0428C71.925 54.9863 71.8491 54.9104 71.7926 54.8152C71.736 54.717 71.7078 54.6099 71.7078 54.4939C71.7078 54.3778 71.736 54.2722 71.7926 54.177C71.8491 54.0788 71.925 54.0014 72.0202 53.9449C72.1184 53.8883 72.2255 53.8601 72.3416 53.8601C72.4546 53.8601 72.5588 53.8883 72.654 53.9449C72.7522 54.0014 72.8295 54.0788 72.8861 54.177C72.9426 54.2722 72.9709 54.3778 72.9709 54.4939C72.9709 54.6099 72.9426 54.717 72.8861 54.8152C72.8295 54.9104 72.7522 54.9863 72.654 55.0428C72.5588 55.0994 72.4546 55.1276 72.3416 55.1276ZM72.2389 57.0245C72.224 57.0245 72.2121 57.0201 72.2032 57.0111C72.1972 56.9992 72.1987 56.9859 72.2077 56.971L73.868 53.9315C73.8769 53.9107 73.8948 53.9002 73.9215 53.9002H74.0644C74.0792 53.9002 74.0897 53.9062 74.0956 53.9181C74.1045 53.927 74.1045 53.9389 74.0956 53.9538L72.4353 56.9933C72.4264 57.0141 72.4085 57.0245 72.3817 57.0245H72.2389ZM72.3416 54.9313C72.4606 54.9313 72.5603 54.8896 72.6406 54.8063C72.7239 54.72 72.7656 54.6159 72.7656 54.4939C72.7656 54.3719 72.7239 54.2692 72.6406 54.1859C72.5603 54.0996 72.4606 54.0565 72.3416 54.0565C72.2225 54.0565 72.1214 54.0996 72.038 54.1859C71.9547 54.2692 71.9131 54.3719 71.9131 54.4939C71.9131 54.6159 71.9547 54.72 72.038 54.8063C72.1214 54.8896 72.2225 54.9313 72.3416 54.9313ZM73.9796 57.0647C73.8635 57.0647 73.7564 57.0364 73.6582 56.9799C73.563 56.9234 73.4871 56.846 73.4306 56.7478C73.3741 56.6496 73.3458 56.5425 73.3458 56.4265C73.3458 56.3134 73.3741 56.2092 73.4306 56.114C73.4871 56.0158 73.563 55.9385 73.6582 55.8819C73.7564 55.8254 73.8635 55.7971 73.9796 55.7971C74.0926 55.7971 74.1968 55.8254 74.292 55.8819C74.3902 55.9385 74.4676 56.0158 74.5241 56.114C74.5806 56.2092 74.6089 56.3134 74.6089 56.4265C74.6089 56.5425 74.5806 56.6496 74.5241 56.7478C74.4676 56.846 74.3902 56.9234 74.292 56.9799C74.1968 57.0364 74.0926 57.0647 73.9796 57.0647ZM73.9796 56.8683C74.0986 56.8683 74.1983 56.8252 74.2786 56.7389C74.3619 56.6526 74.4036 56.5485 74.4036 56.4265C74.4036 56.3045 74.3619 56.2018 74.2786 56.1185C74.1983 56.0352 74.0986 55.9935 73.9796 55.9935C73.8605 55.9935 73.7594 56.0352 73.6761 56.1185C73.5928 56.2018 73.5511 56.3045 73.5511 56.4265C73.5511 56.5514 73.5913 56.6571 73.6716 56.7434C73.7549 56.8267 73.8576 56.8683 73.9796 56.8683Z" fill="#404040"/>
<path fill-rule="evenodd" clip-rule="evenodd" d="M39.0074 25.6692L38.8426 25.6845L38.835 25.8937L38.8274 26.1054H39.0911C39.2356 26.1054 39.5627 26.1131 39.8137 26.1233L40.2752 26.1386V29.0645C40.2752 31.9139 40.2853 32.5338 40.331 32.5338C40.3411 32.5338 40.4172 32.4828 40.4983 32.419C40.615 32.3272 40.6809 32.2966 40.8406 32.2608L41.0359 32.2149V29.1768V26.1386L41.7509 26.1233C42.2834 26.1105 42.471 26.0978 42.4863 26.0748C42.5141 26.0289 42.5116 25.7687 42.4837 25.7254C42.4685 25.7024 42.395 25.6794 42.3113 25.6692C42.1389 25.6463 39.2508 25.6488 39.0074 25.6692Z" fill="#323232"/>
<path fill-rule="evenodd" clip-rule="evenodd" d="M43.5562 25.6639C43.5055 25.6741 43.5029 25.6894 43.4877 26.419C43.4776 26.8297 43.47 27.6664 43.47 28.2786V29.3959H42.9121H42.3543V28.3041C42.3543 27.7046 42.3467 27.0159 42.3366 26.7735L42.3213 26.3348H41.974H41.6241L41.6063 27.1307C41.5962 27.5694 41.5936 28.9342 41.5987 30.1612L41.6063 32.3932L41.6646 32.5182C41.7356 32.6764 41.7356 32.7555 41.657 32.9417C41.5708 33.1458 41.5759 33.1917 41.6773 33.2325C41.8294 33.2963 41.9638 33.3065 42.1134 33.2606C42.3518 33.1917 42.3391 33.2963 42.3492 31.3907L42.3594 29.753H42.9147H43.47V31.1994C43.47 31.9979 43.4776 32.8116 43.4877 33.008L43.5029 33.3703L43.5993 33.4009C43.7033 33.4366 43.8098 33.4187 44.0658 33.3218L44.2053 33.2708L44.2028 30.1918C44.2002 28.498 44.1901 26.7863 44.1825 26.3858L44.1673 25.6588L43.8884 25.6562C43.7362 25.6537 43.5866 25.6562 43.5562 25.6639Z" fill="#323232"/>
<path fill-rule="evenodd" clip-rule="evenodd" d="M38.074 26.5394C37.752 26.5853 37.5264 26.7052 37.4224 26.8813C37.3311 27.0394 37.3083 27.2358 37.3083 27.8379C37.3083 28.774 37.3134 28.7817 38.3732 30.3531C38.6319 30.7383 38.6699 30.802 38.7916 31.075C38.9007 31.3173 38.9108 31.3581 38.9311 31.6362C38.9438 31.7995 38.9564 32.2484 38.9564 32.6285C38.9564 33.0111 38.964 33.3249 38.9767 33.3249C38.9869 33.3249 39.1466 33.302 39.3317 33.2713L39.6689 33.2152L39.6613 32.2561L39.6537 31.2969L39.5447 31.024C39.423 30.723 39.1973 30.3454 38.7029 29.6261C38.5254 29.3659 38.3124 29.0342 38.2338 28.8914L38.0867 28.6286L38.0614 27.9093C38.036 27.1185 38.0487 26.9731 38.1603 26.8634C38.2313 26.792 38.3175 26.769 38.5254 26.769C38.7257 26.769 38.817 26.8073 38.8854 26.917C38.9412 27.0088 38.9438 27.0318 38.9564 27.871C38.9666 28.5241 38.9767 28.7383 39.0021 28.7638C39.0426 28.8047 39.5599 28.8225 39.6157 28.7868C39.6487 28.7638 39.6537 28.6388 39.6613 27.9679C39.6689 27.1312 39.6537 26.945 39.565 26.82C39.5041 26.7333 39.2556 26.6083 39.0579 26.5649C38.8778 26.5267 38.282 26.5114 38.074 26.5394Z" fill="#323232"/>
<path fill-rule="evenodd" clip-rule="evenodd" d="M45.6584 26.5899C45.2578 26.6461 45.0474 26.7532 44.9257 26.9624C44.8597 27.0721 44.8547 27.1129 44.8369 27.4547C44.8268 27.6588 44.8166 29.0414 44.8166 30.5235L44.8141 33.2198L44.8978 33.281C45.0829 33.4239 45.2299 33.4366 45.4429 33.3321L45.5367 33.2861L45.5443 31.7734L45.5494 30.2633H46.0058H46.4622V31.7785V33.2938L46.627 33.4009L46.7944 33.5106L46.9541 33.4417C47.0454 33.4035 47.1367 33.355 47.1646 33.3372C47.2077 33.304 47.2102 33.2096 47.2178 31.3296C47.228 29.0516 47.195 27.2634 47.1392 27.0542C47.0556 26.7379 46.7741 26.6129 46.0692 26.5797C45.9298 26.5746 45.7447 26.5772 45.6584 26.5899ZM46.2594 26.868C46.3152 26.896 46.3659 26.9496 46.3988 27.0134C46.4445 27.1078 46.447 27.1843 46.4572 28.3756C46.4622 29.0694 46.4572 29.7072 46.4445 29.7914L46.4242 29.9444L46.0692 29.9521C45.874 29.9572 45.6762 29.9521 45.6331 29.9444L45.5494 29.9291V28.8271C45.552 27.5976 45.5748 27.0976 45.6331 26.9828C45.7218 26.8093 46.0286 26.7532 46.2594 26.868Z" fill="#323232"/>
<path fill-rule="evenodd" clip-rule="evenodd" d="M34.6102 27.7149C34.6026 27.8017 34.595 28.8858 34.595 30.123V32.3729L34.775 32.3908C34.8739 32.3984 35.021 32.4291 35.1021 32.4571C35.1858 32.4852 35.2644 32.5081 35.2796 32.5081C35.3075 32.5081 35.3177 27.8858 35.2898 27.6767L35.272 27.5593H34.95H34.628L34.6102 27.7149Z" fill="#323232"/>
<path fill-rule="evenodd" clip-rule="evenodd" d="M36.0478 27.5895C36.0098 27.6482 35.9692 32.3521 36.0047 32.5307C36.025 32.6225 36.063 32.6302 36.1315 32.5562C36.205 32.4746 36.3141 32.4286 36.5068 32.3955L36.6868 32.3649L36.702 32.0077C36.7248 31.5409 36.7248 27.9211 36.702 27.7247L36.6868 27.5717L36.3775 27.564C36.1493 27.5589 36.063 27.5666 36.0478 27.5895Z" fill="#323232"/>
<path fill-rule="evenodd" clip-rule="evenodd" d="M47.8443 27.6027C47.8316 27.6282 47.819 28.4241 47.8114 29.373L47.8012 31.0949L47.8823 31.4648C48.0674 32.3041 48.2652 33.0591 48.3565 33.2811C48.4731 33.554 48.7445 33.4418 48.7445 33.1229C48.7445 33.0438 48.7318 32.8984 48.7166 32.8015C48.5771 31.8449 48.5467 31.2964 48.5213 29.1664L48.5036 27.5721L48.1841 27.5644C47.8976 27.5593 47.8621 27.5619 47.8443 27.6027Z" fill="#323232"/>
<path fill-rule="evenodd" clip-rule="evenodd" d="M49.2619 27.5878C49.2518 27.6057 49.234 28.4143 49.2239 29.3811C49.2137 30.3505 49.1934 31.2535 49.1782 31.3862C49.1098 32.0137 49.0793 32.3224 49.0819 32.3938C49.0844 32.4346 49.0768 32.5596 49.0641 32.6693C49.0438 32.8708 49.0438 32.8708 49.0996 32.8402C49.13 32.8249 49.2137 32.756 49.2847 32.6923C49.3582 32.6259 49.4597 32.5392 49.5129 32.4984C49.5662 32.4576 49.627 32.3912 49.6473 32.353C49.7006 32.2484 49.8806 31.4372 49.911 31.154C49.944 30.8734 49.9364 27.6261 49.9034 27.5929C49.8907 27.5827 49.7462 27.57 49.5814 27.5649C49.3582 27.5572 49.2771 27.5649 49.2619 27.5878Z" fill="#323232"/>
<path fill-rule="evenodd" clip-rule="evenodd" d="M33.634 28.5794L33.2943 28.5922L33.0458 29.8549C32.9089 30.5487 32.7922 31.1329 32.7897 31.1533C32.777 31.2196 32.7263 31.2094 32.6959 31.138C32.6807 31.0997 32.6528 30.9798 32.6325 30.8752C32.6147 30.7707 32.5209 30.3115 32.4271 29.8549C32.3333 29.3983 32.2369 28.9289 32.2141 28.809L32.1735 28.5922L31.8211 28.5845L31.4686 28.5769L31.4838 30.3038C31.494 31.2553 31.5016 32.467 31.5016 32.9976V33.9619H31.8566H32.2116L32.2141 33.0231C32.2141 32.5078 32.2242 32.0283 32.2369 31.9594C32.2471 31.888 32.2572 31.8395 32.2597 31.8497C32.3181 32.1609 32.4626 32.9594 32.4753 33.0461C32.5032 33.2349 32.5336 33.2604 32.7339 33.2578C32.8734 33.2578 32.9114 33.2476 32.9444 33.2042C32.9722 33.1711 33.0204 32.9543 33.0838 32.5818C33.1371 32.2681 33.1903 31.9926 33.203 31.9721C33.2157 31.9466 33.2258 32.013 33.2258 32.1507C33.2258 32.4976 33.2562 32.791 33.2892 32.8038C33.3069 32.8114 33.3703 32.7833 33.4312 32.7425C33.492 32.7017 33.634 32.6303 33.7456 32.5844C33.8572 32.5359 33.9561 32.49 33.9687 32.4823C33.9789 32.4747 33.984 31.5895 33.9814 30.5156L33.9738 28.5667L33.634 28.5794Z" fill="#323232"/>
<path fill-rule="evenodd" clip-rule="evenodd" d="M50.5805 28.6103C50.5678 28.6281 50.5552 29.4572 50.5501 30.4546L50.5399 32.2658L50.6414 32.3244C50.8468 32.4392 50.9406 32.6203 50.9178 32.855C50.9 33.0234 50.829 33.1866 50.6769 33.4111C50.5678 33.5693 50.5577 33.5973 50.5577 33.7351C50.5577 33.8346 50.5704 33.8984 50.5957 33.9213C50.6388 33.9647 50.9888 33.98 51.681 33.9672L52.0917 33.9621V33.7734V33.5871L51.7317 33.5693C51.5339 33.5591 51.3666 33.5463 51.3615 33.5438C51.3564 33.5387 51.3463 33.0412 51.3387 32.4392L51.3235 31.3423L51.5593 31.327C51.6886 31.3168 51.8433 31.3092 51.9016 31.3092C52.0284 31.3092 52.0436 31.2785 52.0233 31.0643L52.0081 30.9265H51.6708H51.3311V29.9597C51.3311 29.3016 51.3387 28.9853 51.359 28.9751C51.3742 28.9649 51.5364 28.9495 51.719 28.9419L52.0537 28.924V28.7582V28.5924L51.326 28.5848C50.7656 28.5797 50.5957 28.5873 50.5805 28.6103Z" fill="#323232"/>
<path fill-rule="evenodd" clip-rule="evenodd" d="M37.3056 31.5541C37.2726 31.6408 37.2954 32.549 37.336 32.7403C37.3537 32.8168 37.3512 32.8933 37.336 32.9699C37.298 33.1255 37.303 33.2556 37.3436 33.3117C37.3766 33.3576 37.3842 33.3576 37.653 33.3015C37.8051 33.2683 37.9547 33.2377 37.9877 33.2301L38.046 33.2173L38.0384 32.3806C38.0333 31.9189 38.0206 31.5337 38.0105 31.5235C38.0003 31.5107 37.8431 31.498 37.6631 31.4929L37.3335 31.4827L37.3056 31.5541Z" fill="#323232"/>
<path fill-rule="evenodd" clip-rule="evenodd" d="M40.8829 32.6383C40.7866 32.6766 40.6648 32.8067 40.5229 33.0184C40.4011 33.2021 39.998 33.7327 39.9802 33.7327C39.9777 33.7327 39.9321 33.7072 39.8813 33.6791C39.7977 33.6281 39.7622 33.6255 39.5441 33.6383C39.1105 33.6612 38.8417 33.8016 38.4158 34.2225C38.0633 34.5719 37.7514 34.776 37.6855 34.7097C37.6678 34.6918 37.7261 34.6025 37.8579 34.4469C38.2586 33.9674 38.2586 33.9674 38.2408 33.8194C38.2357 33.7709 38.2053 33.7276 38.1445 33.6868C38.0202 33.6026 37.8376 33.6204 37.5562 33.7454C37.4396 33.7964 37.3305 33.8449 37.3153 33.8526C37.2976 33.8602 37.2722 33.8373 37.2595 33.8016C37.2012 33.6485 37.0161 33.651 36.8741 33.8041C36.8259 33.8551 36.7194 33.9827 36.6383 34.0847C36.3898 34.401 35.9562 34.7377 35.7534 34.7709C35.4871 34.8143 35.6773 34.4418 36.3568 33.5924C36.8538 32.9699 36.9198 32.8526 36.8031 32.7888C36.722 32.748 36.5419 32.7582 36.4532 32.8118C36.4101 32.8398 36.2377 33.0312 36.0703 33.2403C35.7356 33.6587 35.2615 34.1357 34.9572 34.3628C34.6149 34.6178 34.1965 34.7837 34.1001 34.702C33.9911 34.6127 34.123 34.3934 34.6935 33.7123C34.838 33.5388 34.9927 33.3373 35.0409 33.2659C35.1347 33.1205 35.1524 32.9904 35.089 32.8985C34.9952 32.7633 34.6022 32.7251 34.2497 32.8143C33.7578 32.9393 33.4434 33.2072 33.6387 33.3373C33.7198 33.3883 33.8288 33.3551 34.1331 33.1817C34.3816 33.0439 34.6301 32.9674 34.6783 33.0159C34.7112 33.049 34.5692 33.2327 34.1889 33.6434C33.7097 34.1587 33.5601 34.4163 33.588 34.6714C33.6082 34.8627 33.8263 35.0311 34.052 35.0337C34.3005 35.0337 34.6631 34.8653 34.947 34.6127C35.051 34.5209 35.1499 34.4469 35.1702 34.4469C35.2107 34.4469 35.2107 34.4418 35.1651 34.5719C35.1195 34.7046 35.1524 34.8092 35.2767 34.9138C35.4415 35.0515 35.6646 35.0617 35.9334 34.9418C36.0906 34.8704 36.1794 34.8627 36.2022 34.9189C36.2123 34.9444 36.2529 34.9571 36.329 34.9571C36.4405 34.9571 36.4456 34.9546 36.6256 34.7326C36.8843 34.4163 37.044 34.2556 37.219 34.1281C37.6323 33.8296 37.9289 33.7964 37.721 34.0719C37.6804 34.123 37.5765 34.2454 37.4877 34.3475C37.2443 34.6255 37.1936 34.8015 37.3229 34.9036C37.3787 34.9469 37.4269 34.9571 37.579 34.9571C37.7768 34.9571 37.8402 34.9342 38.0861 34.7786C38.1521 34.7352 38.2205 34.702 38.2383 34.702C38.256 34.702 38.2915 34.7454 38.3194 34.8015C38.3803 34.9214 38.4792 34.9648 38.6769 34.9648C38.8544 34.9622 39.0243 34.8908 39.1891 34.7505C39.255 34.6969 39.3184 34.651 39.3337 34.651C39.3489 34.651 39.3615 34.6867 39.3615 34.7301C39.3615 34.7811 39.3869 34.8321 39.4351 34.8831C39.4985 34.9469 39.5289 34.9571 39.6455 34.9571C39.8053 34.9571 39.9954 34.8755 40.1932 34.7224C40.2668 34.6663 40.3327 34.6255 40.3403 34.6332C40.3479 34.6408 40.3733 34.6842 40.3986 34.7326C40.424 34.7786 40.4975 34.8551 40.5634 34.8985C40.6699 34.9724 40.708 34.9826 40.8449 34.9826C41.068 34.9826 41.248 34.9418 41.4407 34.8525C41.6664 34.7479 41.816 34.6255 42.2268 34.2301C42.4981 33.9648 42.597 33.8857 42.6654 33.873C42.8582 33.8347 42.8505 33.8602 42.5818 34.1663C42.1735 34.6255 42.1025 34.7888 42.2547 34.9163C42.4094 35.0464 42.7314 34.9877 43.0559 34.7709C43.1498 34.7071 43.2436 34.651 43.2588 34.6459C43.2765 34.6408 43.3095 34.6791 43.3349 34.7275C43.487 35.026 43.9231 35.0617 44.4074 34.8168C44.4987 34.7709 44.59 34.7148 44.6077 34.6918C44.6584 34.6306 44.6787 34.6383 44.841 34.7888C45.021 34.9571 45.1174 34.9928 45.3557 34.9775C45.5915 34.9622 45.764 34.878 46.015 34.6561C46.266 34.4393 46.4359 34.3143 46.4714 34.327C46.4892 34.3321 46.4968 34.4061 46.4917 34.526C46.479 34.8423 46.5728 34.9571 46.8441 34.9571C47.0597 34.9571 47.2143 34.8985 47.3842 34.7556C47.4679 34.6842 47.544 34.6332 47.5566 34.6408C47.5668 34.6485 47.5769 34.6944 47.5769 34.7428C47.5769 34.8857 47.6682 34.9571 47.8482 34.9571C48.0131 34.9571 48.1322 34.9087 48.3249 34.7684C48.3934 34.7173 48.4669 34.6765 48.4847 34.6765C48.4999 34.6765 48.5354 34.725 48.5582 34.7811C48.6546 35.0285 49.045 35.049 49.3671 34.827C49.5395 34.7097 49.968 34.2786 49.9553 34.2378C49.9274 34.1536 49.8362 34.1969 49.5649 34.4138C49.2758 34.651 49.1668 34.7122 49.0679 34.6969C49.0172 34.6893 49.0096 34.6765 49.0121 34.5694C49.0121 34.4138 49.078 34.3219 49.3214 34.1281C49.8362 33.7199 50.2748 33.2659 50.3839 33.0261C50.4701 32.8398 50.4574 32.6893 50.356 32.6383C50.2596 32.5924 50.039 32.6358 49.897 32.7302C49.613 32.9215 48.9969 33.6306 48.7433 34.0643C48.6216 34.2684 48.4669 34.4316 48.2692 34.5643C48.0993 34.6791 47.9877 34.7173 47.9522 34.6816C47.9142 34.6434 47.9978 34.5209 48.2362 34.2556C48.3351 34.1434 48.4365 34.0133 48.4593 33.9674C48.4999 33.8857 48.4974 33.8781 48.4568 33.8475C48.4314 33.8296 48.368 33.8092 48.3148 33.799C48.259 33.7913 48.1804 33.7556 48.1398 33.7199C47.9902 33.5949 47.6885 33.5898 47.3386 33.7072C47.2422 33.7378 47.0698 33.8347 46.9025 33.9495C46.5272 34.2123 46.4562 34.2071 46.4283 33.9265C46.4105 33.748 46.3497 33.6689 46.1976 33.6281C45.8426 33.5312 45.2518 33.7862 44.8841 34.1944C44.628 34.4775 44.2857 34.6893 44.0271 34.7199C43.9358 34.7301 43.9003 34.7224 43.8445 34.6765C43.7558 34.6076 43.7558 34.5439 43.847 34.3832C43.9865 34.1383 44.3237 33.8449 44.4962 33.8169C44.6077 33.799 44.6128 33.8424 44.5215 33.9776C44.4404 34.0949 44.4505 34.1255 44.5646 34.1357C44.6382 34.1408 44.6737 34.1281 44.7497 34.0617C44.9374 33.8959 44.9424 33.776 44.7624 33.6715C44.5798 33.5618 44.1919 33.6306 43.8699 33.8271C43.7887 33.8755 43.5833 34.049 43.4135 34.2097C43.0103 34.5949 42.7263 34.7811 42.6528 34.7071C42.6198 34.674 42.7643 34.475 43.0407 34.1816C43.2943 33.9112 43.3551 33.8194 43.3272 33.7454C43.3044 33.6868 43.2081 33.674 42.9342 33.6919C42.6933 33.7097 42.6832 33.7072 42.6832 33.6587C42.6832 33.6306 42.6553 33.5873 42.6198 33.5643C42.4575 33.4572 42.1279 33.6842 42.2217 33.8373C42.2724 33.9163 42.2572 33.9546 42.1101 34.1128C41.92 34.3219 41.6994 34.4852 41.4433 34.6102C41.0705 34.7888 40.8195 34.7454 40.8195 34.5005C40.8195 34.4444 40.8297 34.3908 40.8398 34.3806C40.8499 34.3704 40.9818 34.3526 41.1314 34.3423C41.5396 34.3117 41.7628 34.2225 41.8845 34.0439C41.9732 33.9138 41.9656 33.8322 41.8591 33.7352C41.6994 33.5949 41.4915 33.5771 41.1593 33.6817C40.959 33.7429 40.8195 33.8475 40.4088 34.2454C40.0208 34.6204 39.8433 34.7403 39.7774 34.6714C39.7444 34.6408 39.7546 34.6153 39.8382 34.4826C39.9346 34.3347 40.2566 33.9393 40.7637 33.35C41.2278 32.8118 41.314 32.6613 41.1821 32.6256C41.0984 32.6026 40.9564 32.6103 40.8829 32.6383ZM50.214 32.924C50.214 33.0337 49.4888 33.8602 49.3924 33.8602C49.3316 33.8602 49.7576 33.2761 49.9883 33.0465C50.1379 32.896 50.214 32.8552 50.214 32.924ZM39.7774 33.8245C39.8636 33.8577 39.8154 33.947 39.5847 34.1765C39.3311 34.4291 39.1232 34.5796 38.9229 34.6561C38.7048 34.7403 38.6364 34.6536 38.7682 34.4571C38.9432 34.1918 39.2779 33.9419 39.5771 33.8449C39.6962 33.8067 39.7241 33.8041 39.7774 33.8245ZM41.6537 33.85C41.7121 33.9061 41.7045 33.9419 41.6233 34.0209C41.527 34.1128 41.3621 34.1663 41.1669 34.1663H41.0021L41.0604 34.1026C41.139 34.0184 41.3545 33.8755 41.4534 33.8398C41.5625 33.8016 41.6081 33.8041 41.6537 33.85ZM46.1697 33.8551C46.1697 33.873 46.124 33.9138 46.0708 33.9444C45.9491 34.0133 45.8705 34.1153 45.8933 34.174C45.9009 34.1995 45.9415 34.2352 45.982 34.2582C46.0226 34.2786 46.0556 34.3117 46.0556 34.3321C46.0556 34.3806 45.9339 34.4699 45.7006 34.5949C45.4141 34.7505 45.2645 34.7607 45.196 34.6281C45.1022 34.4546 45.5256 34.0005 45.911 33.8577C46.0556 33.8041 46.1697 33.8041 46.1697 33.8551ZM47.9522 33.8245C48.0283 33.8475 48.0232 33.9061 47.9268 34.0362C47.7265 34.3092 47.1078 34.7352 46.9709 34.6893C46.7503 34.6204 47.2828 34.0311 47.7265 33.8577C47.8584 33.8067 47.8711 33.8041 47.9522 33.8245Z" fill="#323232"/>
<path fill-rule="evenodd" clip-rule="evenodd" d="M33.2687 33.6484C33.2406 33.6739 33.2483 33.9315 33.2764 33.9494C33.3044 33.9672 33.4804 33.8065 33.4804 33.7631C33.4804 33.73 33.3554 33.6305 33.3146 33.6305C33.2993 33.6305 33.2764 33.6381 33.2687 33.6484Z" fill="#323232"/>
<path fill-rule="evenodd" clip-rule="evenodd" d="M31.481 34.4007L31.4886 34.4849L32.1504 34.4926C32.8781 34.5002 33.0657 34.4849 33.1088 34.4135C33.1291 34.3778 33.1291 34.3625 33.0987 34.3446C33.0759 34.3293 32.7285 34.3191 32.267 34.3191H31.4734L31.481 34.4007Z" fill="#323232"/>
<path fill-rule="evenodd" clip-rule="evenodd" d="M50.4784 34.3446C50.4227 34.3676 50.3795 34.4415 50.4074 34.4696C50.415 34.4772 50.8005 34.4849 51.2619 34.4849H52.1038L52.1114 34.4007L52.119 34.3191L51.3253 34.3216C50.8892 34.3216 50.5089 34.3318 50.4784 34.3446Z" fill="#323232"/>
<path fill-rule="evenodd" clip-rule="evenodd" d="M32.6856 35.368C32.3965 35.4522 32.3002 35.8144 32.5157 36.021C32.7109 36.2047 33.0862 36.1996 33.251 36.0134C33.4057 35.8374 33.3727 35.567 33.1851 35.4343C33.0659 35.3502 32.8504 35.3221 32.6856 35.368ZM33.071 35.5134C33.1065 35.5389 33.1521 35.6027 33.1673 35.6537C33.2561 35.9216 32.9442 36.1614 32.7084 36.0057C32.6095 35.9394 32.5689 35.8603 32.5664 35.7277C32.5664 35.641 32.5816 35.6052 32.6374 35.5517C32.6754 35.516 32.7287 35.4777 32.7566 35.4649C32.8326 35.4318 32.9975 35.4573 33.071 35.5134Z" fill="#323232"/>
<path fill-rule="evenodd" clip-rule="evenodd" d="M34.6553 35.3654C34.5818 35.396 34.493 35.5134 34.493 35.5823C34.493 35.6766 34.6046 35.7634 34.7466 35.7812C34.8911 35.7991 35.0407 35.8629 35.061 35.9164C35.0686 35.9368 35.0509 35.9777 35.023 36.0057C34.9469 36.0822 34.7568 36.0618 34.6325 35.9674C34.493 35.8603 34.3992 35.9292 34.526 36.0491C34.7339 36.2455 35.2284 36.1562 35.2284 35.9215C35.2284 35.8833 35.2056 35.8271 35.1802 35.8016C35.1371 35.7583 34.9114 35.6715 34.8404 35.6715C34.7872 35.6715 34.6452 35.5874 34.6452 35.5542C34.6452 35.5032 34.7491 35.442 34.8379 35.442C34.881 35.442 34.9596 35.47 35.0103 35.5057C35.1117 35.5746 35.203 35.5899 35.203 35.5363C35.203 35.4062 34.8354 35.2915 34.6553 35.3654Z" fill="#323232"/>
<path fill-rule="evenodd" clip-rule="evenodd" d="M40.0165 35.3629C39.7249 35.4573 39.6159 35.7225 39.7655 35.9674C39.8542 36.1154 40.1255 36.1919 40.3487 36.1307C40.6808 36.0414 40.762 35.6282 40.4881 35.4343C40.374 35.3552 40.1484 35.3221 40.0165 35.3629ZM40.3664 35.5057C40.4526 35.5618 40.5109 35.7072 40.4932 35.8118C40.4831 35.8552 40.4425 35.9266 40.3994 35.9674C40.3335 36.0312 40.303 36.0414 40.1864 36.0414C40.019 36.0414 39.9227 35.9776 39.872 35.8322C39.839 35.7404 39.8415 35.7225 39.8847 35.6307C39.9709 35.4522 40.1965 35.3935 40.3664 35.5057Z" fill="#323232"/>
<path fill-rule="evenodd" clip-rule="evenodd" d="M41.0687 35.3857C40.9039 35.452 40.8379 35.5234 40.8202 35.6561C40.7923 35.8372 40.8227 35.9367 40.9343 36.0362C41.0814 36.1714 41.3476 36.1943 41.5454 36.0898C41.6519 36.0362 41.7482 35.8755 41.7508 35.7556C41.7533 35.5745 41.6569 35.4444 41.4693 35.378C41.3299 35.3296 41.2031 35.3321 41.0687 35.3857ZM41.4338 35.4928C41.6164 35.6051 41.6443 35.8091 41.4972 35.9571C41.3121 36.1459 40.9597 36.0311 40.9597 35.7811C40.9597 35.5234 41.2234 35.3627 41.4338 35.4928Z" fill="#323232"/>
<path fill-rule="evenodd" clip-rule="evenodd" d="M46.4014 35.3651C46.2391 35.4161 46.1199 35.6125 46.1402 35.7936C46.1554 35.9365 46.2213 36.0258 46.3608 36.0972C46.5662 36.2043 46.8451 36.1559 46.9947 35.9901C47.0505 35.9314 47.0581 35.8982 47.0581 35.7528C47.0555 35.5487 47.0099 35.4646 46.873 35.4084C46.7513 35.36 46.4952 35.337 46.4014 35.3651ZM46.769 35.5003C46.8172 35.5309 46.8755 35.5998 46.9009 35.6533C46.9465 35.7452 46.9465 35.7503 46.9009 35.8421C46.84 35.9671 46.7107 36.0538 46.5814 36.0538C46.5002 36.0538 46.4648 36.036 46.3836 35.9543C46.305 35.8753 46.2847 35.837 46.2847 35.7605C46.2847 35.5054 46.5586 35.3574 46.769 35.5003Z" fill="#323232"/>
<path fill-rule="evenodd" clip-rule="evenodd" d="M49.3961 35.3755C49.2643 35.424 49.211 35.4776 49.1603 35.6102C49.0589 35.8806 49.2643 36.1561 49.5685 36.1561C49.7105 36.1561 49.8753 36.0745 49.9337 35.975C50.0249 35.8245 49.9463 35.8066 49.7891 35.9418C49.7181 36.0005 49.6471 36.0388 49.5812 36.0464C49.4925 36.0592 49.4722 36.0515 49.3936 35.9725C49.244 35.8219 49.2414 35.6765 49.391 35.526C49.5001 35.4163 49.5837 35.4163 49.7587 35.5311C49.9108 35.6306 49.9717 35.6179 49.9108 35.5031C49.8398 35.373 49.5787 35.3067 49.3961 35.3755Z" fill="#323232"/>
<path fill-rule="evenodd" clip-rule="evenodd" d="M50.4535 35.3576C50.3648 35.3754 50.1949 35.5362 50.1645 35.6356C50.129 35.7453 50.1442 35.8499 50.2202 35.9724C50.2912 36.0872 50.4408 36.1535 50.631 36.156C50.773 36.156 50.7832 36.1509 50.8922 36.0412C50.9556 35.98 51.0012 35.9137 50.9961 35.8958C50.9759 35.8346 50.9074 35.8474 50.8339 35.9213C50.6944 36.0591 50.6006 36.0846 50.4687 36.0157C50.3166 35.9367 50.271 35.7198 50.3749 35.5668C50.4763 35.4137 50.5981 35.4137 50.8415 35.5719C50.9201 35.6203 50.9251 35.6229 50.9429 35.5821C50.9936 35.4443 50.6995 35.3091 50.4535 35.3576Z" fill="#323232"/>
<path fill-rule="evenodd" clip-rule="evenodd" d="M51.4552 35.3628C51.2422 35.4316 51.1661 35.5617 51.1763 35.8296C51.1788 35.9214 51.2929 36.0515 51.4197 36.1076C51.6454 36.2122 51.9902 36.1255 52.0764 35.9418C52.1652 35.7556 52.1068 35.5388 51.942 35.4291C51.8305 35.3551 51.582 35.3219 51.4552 35.3628ZM51.8152 35.4954C51.8888 35.5235 51.9648 35.6638 51.9648 35.7709C51.9648 35.9138 51.795 36.0541 51.6225 36.0541C51.5566 36.0541 51.5084 36.0311 51.4374 35.9673C51.3512 35.8857 51.3436 35.8678 51.3436 35.7403C51.3436 35.6383 51.3563 35.5847 51.3918 35.5464C51.4805 35.4469 51.6428 35.4291 51.8152 35.4954Z" fill="#323232"/>
<path fill-rule="evenodd" clip-rule="evenodd" d="M31.5322 35.3957C31.5398 35.4136 31.5906 35.4314 31.6463 35.4365C31.7047 35.4416 31.7655 35.462 31.7833 35.4824C31.8035 35.5079 31.8213 35.6329 31.8264 35.8268C31.8365 36.0896 31.8441 36.1304 31.8796 36.1304C31.9658 36.1304 31.9836 36.0742 31.9836 35.8115C31.9836 35.4977 32.0115 35.4416 32.1611 35.4493C32.2676 35.4518 32.3031 35.4365 32.2752 35.3932C32.2498 35.3498 31.5196 35.3549 31.5322 35.3957Z" fill="#323232"/>
<path fill-rule="evenodd" clip-rule="evenodd" d="M33.8136 35.4242C33.7578 35.4854 33.5473 35.9344 33.5169 36.0594C33.5017 36.1206 33.5067 36.1308 33.5499 36.1308C33.6006 36.1308 33.6487 36.0874 33.6944 35.9931C33.7172 35.9471 33.7451 35.9395 33.9023 35.9318L34.0849 35.9242L34.1204 36.0084C34.1838 36.1589 34.2903 36.1997 34.2903 36.0721C34.2903 35.9982 34.0671 35.4829 34.0063 35.4166C33.9429 35.3502 33.8795 35.3528 33.8136 35.4242ZM33.9758 35.687C33.9961 35.7966 33.9632 35.8375 33.8744 35.8145C33.7983 35.7966 33.7882 35.7354 33.8491 35.6512C33.9074 35.5671 33.9556 35.5824 33.9758 35.687Z" fill="#323232"/>
<path fill-rule="evenodd" clip-rule="evenodd" d="M35.3859 35.3957C35.3935 35.4136 35.4138 35.4314 35.434 35.434C35.4543 35.4365 35.5126 35.4442 35.5659 35.4544L35.6597 35.4697V35.6304C35.6597 35.9034 35.6901 36.1074 35.7307 36.1253C35.7992 36.1508 35.8321 36.0564 35.8499 35.7605L35.8676 35.4697L35.9589 35.4544C36.0122 35.4442 36.0679 35.4365 36.0882 35.434C36.1085 35.4314 36.1288 35.4136 36.1364 35.3957C36.144 35.3728 36.0578 35.3651 35.7611 35.3651C35.4645 35.3651 35.3783 35.3728 35.3859 35.3957Z" fill="#323232"/>
<path fill-rule="evenodd" clip-rule="evenodd" d="M36.4178 35.383C36.3341 35.3957 36.3189 35.4595 36.3189 35.786C36.3189 36.133 36.329 36.1432 36.7195 36.1432C36.8869 36.1432 37.0339 36.133 37.0441 36.1227C37.0821 36.087 36.9959 36.0539 36.8615 36.0539C36.7905 36.0539 36.6789 36.0462 36.613 36.0386L36.4964 36.0207V35.9136V35.8064L36.7271 35.7911C36.8564 35.7835 36.9705 35.7656 36.9857 35.7503C37.0238 35.712 36.897 35.6712 36.7347 35.6712C36.5623 35.6712 36.4964 35.6381 36.4964 35.5539C36.4964 35.4723 36.575 35.4416 36.788 35.4416C36.9629 35.4416 37.0365 35.4238 37.0136 35.3881C37.001 35.3651 36.5522 35.3626 36.4178 35.383Z" fill="#323232"/>
<path fill-rule="evenodd" clip-rule="evenodd" d="M37.3309 35.3832C37.2979 35.3909 37.2878 35.4368 37.2776 35.6154C37.2726 35.7378 37.2726 35.8985 37.2776 35.9725C37.2878 36.0924 37.2954 36.1128 37.3562 36.1357C37.4475 36.1715 37.7594 36.1485 37.8583 36.0975C38.0485 35.998 38.1245 35.7378 38.018 35.5465C37.9369 35.4036 37.8431 35.3654 37.5819 35.3679C37.4678 35.3705 37.3537 35.3756 37.3309 35.3832ZM37.7391 35.4674C37.8532 35.498 37.9166 35.6026 37.9166 35.7608C37.9166 35.8577 37.9039 35.8934 37.8456 35.9521C37.767 36.0286 37.6276 36.0694 37.5261 36.0439C37.4805 36.0337 37.4627 36.0056 37.4501 35.9342C37.4247 35.771 37.4323 35.5057 37.4653 35.4725C37.5033 35.4342 37.6174 35.4342 37.7391 35.4674Z" fill="#323232"/>
<path fill-rule="evenodd" clip-rule="evenodd" d="M38.7588 35.3881C38.7081 35.4187 38.7258 36.0973 38.7791 36.1304C38.8425 36.1687 38.878 36.1075 38.8856 35.9442L38.8932 35.786L39.1087 35.7962C39.2304 35.8013 39.3318 35.8167 39.342 35.8345C39.3521 35.8498 39.3623 35.8957 39.3623 35.9391C39.3623 36.0539 39.3902 36.1304 39.4282 36.1304C39.4764 36.1304 39.4916 36.0029 39.484 35.6712C39.4764 35.3983 39.4738 35.3779 39.4257 35.3779C39.3851 35.3779 39.3724 35.4008 39.3597 35.5003C39.3521 35.5692 39.3293 35.6355 39.309 35.6483C39.2913 35.661 39.1898 35.6712 39.091 35.6712H38.9059V35.5845C38.9059 35.4111 38.845 35.332 38.7588 35.3881Z" fill="#323232"/>
<path fill-rule="evenodd" clip-rule="evenodd" d="M42.519 35.3957C42.4911 35.411 42.3948 35.4825 42.306 35.5488C42.126 35.6891 42.1007 35.684 42.0778 35.5131C42.0677 35.4365 42.0499 35.4008 42.0195 35.3957C41.9789 35.3881 41.9739 35.4187 41.9739 35.7427C41.9739 35.9365 41.9815 36.1049 41.9916 36.1125C42.0221 36.1431 42.0728 36.0743 42.0905 35.9799C42.1083 35.8753 42.164 35.7733 42.2046 35.7733C42.2198 35.7733 42.3162 35.8523 42.4151 35.9518C42.59 36.1202 42.661 36.161 42.6965 36.1074C42.7041 36.0921 42.6357 35.9977 42.5444 35.8906C42.4531 35.786 42.3796 35.6891 42.3796 35.6738C42.3796 35.661 42.448 35.5947 42.5317 35.5309C42.6788 35.4161 42.7041 35.3651 42.6129 35.3651C42.59 35.3651 42.5469 35.3804 42.519 35.3957Z" fill="#323232"/>
<path fill-rule="evenodd" clip-rule="evenodd" d="M43.1555 35.4115C43.0971 35.4803 42.8613 36.0058 42.8613 36.0722C42.8613 36.1768 42.9932 36.1257 43.0337 36.0033C43.0616 35.9293 43.0667 35.9268 43.2265 35.9268C43.3608 35.9268 43.4039 35.937 43.4445 35.9778C43.4724 36.0058 43.4952 36.0467 43.4952 36.0671C43.4952 36.1104 43.5688 36.1538 43.6169 36.1385C43.6322 36.1308 43.6474 36.1079 43.6474 36.0849C43.6474 36.0186 43.3735 35.4344 43.3253 35.3962C43.2645 35.3528 43.2062 35.3579 43.1555 35.4115ZM43.3228 35.6742C43.3482 35.7609 43.3456 35.7814 43.3152 35.8018C43.2645 35.8324 43.2341 35.8298 43.1783 35.7916C43.1352 35.7584 43.1352 35.7533 43.191 35.6513C43.2239 35.5926 43.2594 35.5518 43.2696 35.5594C43.2822 35.5671 43.3051 35.6181 43.3228 35.6742Z" fill="#323232"/>
<path fill-rule="evenodd" clip-rule="evenodd" d="M43.8679 35.3834C43.8578 35.3911 43.8502 35.5594 43.8502 35.7533C43.8502 36.0518 43.8552 36.1104 43.8907 36.1232C43.9516 36.1462 43.9845 36.0926 43.9972 35.9395L44.0074 35.7992H44.1392C44.2102 35.7992 44.3091 35.7916 44.3598 35.7839L44.4511 35.7686L44.4638 35.9395C44.4815 36.1462 44.5094 36.1819 44.5855 36.1053C44.6387 36.0518 44.6413 36.0314 44.6311 35.7431C44.621 35.4804 44.6134 35.4319 44.5728 35.4013C44.5043 35.3503 44.4638 35.3987 44.4536 35.539L44.446 35.6589H44.2305H44.015L44.0023 35.5441C43.9947 35.4804 43.9795 35.414 43.9693 35.3962C43.9465 35.363 43.8933 35.3554 43.8679 35.3834Z" fill="#323232"/>
<path fill-rule="evenodd" clip-rule="evenodd" d="M45.2247 35.3957C45.2323 35.4136 45.2957 35.434 45.3667 35.4416C45.4377 35.4493 45.5036 35.4646 45.5163 35.4773C45.5264 35.4875 45.5416 35.6278 45.5442 35.786C45.5518 35.9926 45.5645 36.0845 45.5873 36.1049C45.6507 36.1584 45.6684 36.11 45.6836 35.8268C45.7014 35.4824 45.7191 35.4442 45.8535 35.4493C45.96 35.4518 45.9955 35.4365 45.9676 35.3932C45.9423 35.3498 45.212 35.3549 45.2247 35.3957Z" fill="#323232"/>
<path fill-rule="evenodd" clip-rule="evenodd" d="M47.2735 35.7044C47.2735 36.1406 47.2811 36.1559 47.5347 36.1559C47.6361 36.1559 47.7553 36.1457 47.8034 36.1304C47.9885 36.0768 48.0595 35.9263 47.9657 35.7835C47.9302 35.7273 47.9277 35.7044 47.9556 35.6304C47.9911 35.5335 47.9683 35.4697 47.877 35.4059C47.8339 35.3753 47.7527 35.3651 47.5473 35.3651H47.2735V35.7044ZM47.7172 35.4774C47.8085 35.5182 47.8339 35.5819 47.7755 35.6406C47.7451 35.6712 47.5347 35.6814 47.4662 35.6559C47.418 35.6381 47.413 35.5156 47.4561 35.4723C47.4966 35.4314 47.6107 35.434 47.7172 35.4774ZM47.8263 35.8421C47.8694 35.9008 47.8643 35.9365 47.8085 35.9875C47.7451 36.0437 47.5854 36.0666 47.4966 36.0309C47.4383 36.0079 47.4256 35.9875 47.4256 35.9136C47.4256 35.8447 47.4383 35.8166 47.484 35.7988C47.5651 35.7631 47.7857 35.7937 47.8263 35.8421Z" fill="#323232"/>
<path fill-rule="evenodd" clip-rule="evenodd" d="M48.5084 35.396C48.4425 35.447 48.1534 36.0822 48.1838 36.1128C48.2219 36.151 48.2853 36.1153 48.3411 36.0158C48.3943 35.9266 48.3968 35.9266 48.5693 35.9266C48.7366 35.9266 48.7442 35.9291 48.7823 36.0005C48.833 36.1026 48.9217 36.1638 48.9623 36.1281C49.0003 36.0949 48.9775 36.0235 48.8127 35.6664C48.6834 35.3858 48.6098 35.322 48.5084 35.396ZM48.6377 35.7046C48.6479 35.8118 48.6048 35.8449 48.5185 35.799C48.4526 35.7633 48.4526 35.7454 48.5185 35.6613C48.587 35.572 48.6276 35.5873 48.6377 35.7046Z" fill="#323232"/>
</svg>
