<svg width="80" height="52" viewBox="0 0 80 52" fill="none" xmlns="http://www.w3.org/2000/svg">
<path d="M34.0953 5.9381C39.389 5.75635 44.5392 7.64963 48.4131 11.2015C52.287 14.7533 54.5672 19.6727 54.7521 24.8775C54.9369 30.0823 53.0113 35.1461 49.3989 38.955C45.7864 42.7638 40.783 45.0058 35.4894 45.1875L35.2454 38.3189C38.6863 38.2007 41.9385 36.7435 44.2866 34.2677C46.6347 31.792 47.8863 28.5005 47.7662 25.1174C47.646 21.7342 46.1639 18.5366 43.6458 16.2279C41.1278 13.9192 37.7801 12.6886 34.3393 12.8068L34.0953 5.9381Z" fill="#4EB163"/>
<path d="M35.4893 45.1875C30.1957 45.3693 25.0454 43.476 21.1715 39.9242C17.2976 36.3723 15.0174 31.4529 14.8326 26.2481C14.6477 21.0433 16.5733 15.9795 20.1858 12.1706C23.7982 8.36177 28.8016 6.11986 34.0953 5.9381L34.3393 12.8068C30.8984 12.9249 27.6462 14.3821 25.2981 16.8579C22.95 19.3337 21.6983 22.6251 21.8185 26.0083C21.9386 29.3914 23.4208 32.589 25.9388 34.8977C28.4568 37.2064 31.8045 38.437 35.2454 38.3189L35.4893 45.1875Z" fill="#FFF27A"/>
<path d="M48.9964 14.0501L51.3485 11.0768H61.0926" stroke="black" stroke-width="0.145684"/>
<path d="M20.6929 37.8257L18.3409 40.799H8.59677" stroke="black" stroke-width="0.145684"/>
<path d="M1.99508 36.8758C2.02484 36.8758 2.03971 36.8907 2.03971 36.9205V37.1079C2.03971 37.1377 2.02484 37.1526 1.99508 37.1526H1.26757C1.25567 37.1526 1.24971 37.1585 1.24971 37.1704V39.9555C1.24971 39.9852 1.23484 40.0001 1.20508 40.0001H0.977455C0.9477 40.0001 0.932823 39.9852 0.932823 39.9555V37.1704C0.932823 37.1585 0.926872 37.1526 0.91497 37.1526H0.214237C0.184482 37.1526 0.169604 37.1377 0.169604 37.1079V36.9205C0.169604 36.8907 0.184482 36.8758 0.214237 36.8758H1.99508ZM4.11555 40.0001C4.09175 40.0001 4.07538 39.9882 4.06645 39.9644L3.51301 38.5853C3.51003 38.5763 3.50408 38.5719 3.49516 38.5719H2.91939C2.90749 38.5719 2.90154 38.5778 2.90154 38.5897V39.9555C2.90154 39.9852 2.88666 40.0001 2.85691 40.0001H2.62928C2.59953 40.0001 2.58465 39.9852 2.58465 39.9555V36.9205C2.58465 36.8907 2.59953 36.8758 2.62928 36.8758H3.57549C3.73022 36.8758 3.86709 36.9115 3.98612 36.983C4.10811 37.0544 4.20184 37.1555 4.2673 37.2865C4.33574 37.4174 4.36996 37.5676 4.36996 37.7372C4.36996 37.9396 4.32086 38.1122 4.22267 38.255C4.12448 38.3978 3.99058 38.493 3.82097 38.5406C3.80907 38.5466 3.8061 38.554 3.81205 38.563L4.38781 39.9466L4.39227 39.9644C4.39227 39.9882 4.37888 40.0001 4.3521 40.0001H4.11555ZM2.91939 37.1526C2.90749 37.1526 2.90154 37.1585 2.90154 37.1704V38.2996C2.90154 38.3115 2.90749 38.3175 2.91939 38.3175H3.53533C3.69005 38.3175 3.81502 38.2639 3.91024 38.1568C4.00546 38.0497 4.05306 37.9098 4.05306 37.7372C4.05306 37.5617 4.00546 37.4204 3.91024 37.3132C3.81502 37.2061 3.69005 37.1526 3.53533 37.1526H2.91939ZM5.77285 40.0358C5.59135 40.0358 5.43067 39.9986 5.29082 39.9242C5.15395 39.8469 5.04683 39.7398 4.96946 39.6029C4.89508 39.466 4.85788 39.3083 4.85788 39.1298V37.7506C4.85788 37.5721 4.89508 37.4144 4.96946 37.2775C5.04683 37.1377 5.15395 37.0306 5.29082 36.9562C5.43067 36.8788 5.59135 36.8401 5.77285 36.8401C5.95436 36.8401 6.11355 36.8788 6.25042 36.9562C6.39027 37.0306 6.49888 37.1377 6.57624 37.2775C6.6536 37.4144 6.69228 37.5721 6.69228 37.7506V39.1298C6.69228 39.3083 6.6536 39.466 6.57624 39.6029C6.49888 39.7398 6.39027 39.8469 6.25042 39.9242C6.11355 39.9986 5.95436 40.0358 5.77285 40.0358ZM5.77285 39.7591C5.95436 39.7591 6.10016 39.7026 6.21025 39.5895C6.32035 39.4764 6.37539 39.3277 6.37539 39.1432V37.7417C6.37539 37.5543 6.32035 37.404 6.21025 37.2909C6.10016 37.1749 5.95436 37.1169 5.77285 37.1169C5.59432 37.1169 5.45001 37.1749 5.33992 37.2909C5.22982 37.404 5.17477 37.5543 5.17477 37.7417V39.1432C5.17477 39.3277 5.22982 39.4764 5.33992 39.5895C5.45001 39.7026 5.59432 39.7591 5.77285 39.7591ZM8.33058 36.8714C8.56862 36.8714 8.76054 36.9517 8.90634 37.1124C9.05512 37.2701 9.12951 37.4799 9.12951 37.7417C9.12951 38.0006 9.05512 38.2089 8.90634 38.3666C8.76054 38.5213 8.56862 38.5987 8.33058 38.5987H7.66556C7.65365 38.5987 7.6477 38.6046 7.6477 38.6165V39.9555C7.6477 39.9852 7.63282 40.0001 7.60307 40.0001H7.37544C7.34569 40.0001 7.33081 39.9852 7.33081 39.9555V36.916C7.33081 36.8862 7.34569 36.8714 7.37544 36.8714H8.33058ZM8.29041 38.3353C8.44811 38.3353 8.57457 38.2818 8.66979 38.1746C8.76501 38.0675 8.81261 37.9247 8.81261 37.7462C8.81261 37.5647 8.76501 37.4204 8.66979 37.3132C8.57457 37.2031 8.44811 37.1481 8.29041 37.1481H7.66556C7.65365 37.1481 7.6477 37.154 7.6477 37.1659V38.3175C7.6477 38.3294 7.65365 38.3353 7.66556 38.3353H8.29041ZM9.69903 40.0001C9.66927 40.0001 9.65439 39.9852 9.65439 39.9555V36.9205C9.65439 36.8907 9.66927 36.8758 9.69903 36.8758H9.92665C9.95641 36.8758 9.97129 36.8907 9.97129 36.9205V39.9555C9.97129 39.9852 9.95641 40.0001 9.92665 40.0001H9.69903ZM11.5303 40.0358C11.2596 40.0358 11.0409 39.9555 10.8742 39.7948C10.7106 39.6341 10.6287 39.4214 10.6287 39.1566V37.7149C10.6287 37.4501 10.7106 37.2388 10.8742 37.0811C11.0409 36.9205 11.2596 36.8401 11.5303 36.8401C11.8041 36.8401 12.0228 36.919 12.1864 37.0767C12.3531 37.2344 12.4364 37.4442 12.4364 37.706V37.7462C12.4364 37.7759 12.4215 37.7908 12.3917 37.7908L12.1641 37.7997C12.1344 37.7997 12.1195 37.7863 12.1195 37.7596V37.6971C12.1195 37.5245 12.0644 37.3846 11.9543 37.2775C11.8472 37.1704 11.7059 37.1169 11.5303 37.1169C11.3548 37.1169 11.2134 37.1704 11.1063 37.2775C10.9992 37.3817 10.9456 37.5215 10.9456 37.6971V39.1789C10.9456 39.3544 10.9992 39.4958 11.1063 39.6029C11.2134 39.707 11.3548 39.7591 11.5303 39.7591C11.7059 39.7591 11.8472 39.7055 11.9543 39.5984C12.0644 39.4913 12.1195 39.3515 12.1195 39.1789V39.1164C12.1195 39.0896 12.1344 39.0762 12.1641 39.0762L12.3917 39.0896C12.4215 39.0896 12.4364 39.1045 12.4364 39.1342V39.1655C12.4364 39.4273 12.3531 39.6386 12.1864 39.7993C12.0228 39.957 11.8041 40.0358 11.5303 40.0358ZM0.990845 45.0358C0.726025 45.0358 0.513276 44.9585 0.352598 44.8037C0.194896 44.649 0.116045 44.4452 0.116045 44.1923V43.8352C0.116045 43.8055 0.130922 43.7906 0.160678 43.7906H0.388304C0.418059 43.7906 0.432937 43.8055 0.432937 43.8352V44.1967C0.432937 44.3663 0.483521 44.5032 0.584688 44.6074C0.685855 44.7085 0.821241 44.7591 0.990845 44.7591C1.15747 44.7591 1.29286 44.707 1.397 44.6029C1.50115 44.4987 1.55322 44.3634 1.55322 44.1967V41.9205C1.55322 41.8907 1.56809 41.8758 1.59785 41.8758H1.82101C1.85077 41.8758 1.86565 41.8907 1.86565 41.9205V44.1923C1.86565 44.4452 1.78531 44.649 1.62463 44.8037C1.46395 44.9585 1.25269 45.0358 0.990845 45.0358ZM3.49017 45.0358C3.30866 45.0358 3.14799 44.9971 3.00814 44.9198C2.87126 44.8424 2.76415 44.7338 2.68678 44.594C2.61239 44.4541 2.5752 44.292 2.5752 44.1075V41.9205C2.5752 41.8907 2.59008 41.8758 2.61983 41.8758H2.84746C2.87721 41.8758 2.89209 41.8907 2.89209 41.9205V44.1253C2.89209 44.3158 2.94714 44.469 3.05723 44.585C3.16733 44.7011 3.31164 44.7591 3.49017 44.7591C3.6687 44.7591 3.81301 44.7011 3.92311 44.585C4.0332 44.469 4.08825 44.3158 4.08825 44.1253V41.9205C4.08825 41.8907 4.10313 41.8758 4.13288 41.8758H4.36051C4.39026 41.8758 4.40514 41.8907 4.40514 41.9205V44.1075C4.40514 44.292 4.36646 44.4541 4.28909 44.594C4.21471 44.7338 4.10759 44.8424 3.96774 44.9198C3.83087 44.9971 3.67168 45.0358 3.49017 45.0358ZM5.1573 45.0001C5.12755 45.0001 5.11267 44.9852 5.11267 44.9555V41.9205C5.11267 41.8907 5.12755 41.8758 5.1573 41.8758H5.38493C5.41469 41.8758 5.42956 41.8907 5.42956 41.9205V44.9555C5.42956 44.9852 5.41469 45.0001 5.38493 45.0001H5.1573ZM6.9886 45.0358C6.71783 45.0358 6.49913 44.9555 6.3325 44.7948C6.16885 44.6341 6.08702 44.4214 6.08702 44.1566V42.7149C6.08702 42.4501 6.16885 42.2388 6.3325 42.0811C6.49913 41.9205 6.71783 41.8401 6.9886 41.8401C7.26235 41.8401 7.48105 41.919 7.6447 42.0767C7.81133 42.2344 7.89465 42.4442 7.89465 42.706V42.7462C7.89465 42.7759 7.87977 42.7908 7.85001 42.7908L7.62239 42.7997C7.59263 42.7997 7.57775 42.7863 7.57775 42.7596V42.6971C7.57775 42.5245 7.52271 42.3846 7.41261 42.2775C7.3055 42.1704 7.16416 42.1169 6.9886 42.1169C6.81305 42.1169 6.67171 42.1704 6.56459 42.2775C6.45747 42.3817 6.40392 42.5215 6.40392 42.6971V44.1789C6.40392 44.3544 6.45747 44.4958 6.56459 44.6029C6.67171 44.707 6.81305 44.7591 6.9886 44.7591C7.16416 44.7591 7.3055 44.7055 7.41261 44.5984C7.52271 44.4913 7.57775 44.3515 7.57775 44.1789V44.1164C7.57775 44.0896 7.59263 44.0762 7.62239 44.0762L7.85001 44.0896C7.87977 44.0896 7.89465 44.1045 7.89465 44.1342V44.1655C7.89465 44.4273 7.81133 44.6386 7.6447 44.7993C7.48105 44.957 7.26235 45.0358 6.9886 45.0358ZM10.2395 42.1079C10.2395 42.1377 10.2246 42.1526 10.1949 42.1526H8.85589C8.84399 42.1526 8.83804 42.1585 8.83804 42.1704V43.2773C8.83804 43.2892 8.84399 43.2952 8.85589 43.2952H9.75747C9.78722 43.2952 9.8021 43.31 9.8021 43.3398V43.5272C9.8021 43.557 9.78722 43.5719 9.75747 43.5719H8.85589C8.84399 43.5719 8.83804 43.5778 8.83804 43.5897V44.7055C8.83804 44.7174 8.84399 44.7234 8.85589 44.7234H10.1949C10.2246 44.7234 10.2395 44.7383 10.2395 44.768V44.9555C10.2395 44.9852 10.2246 45.0001 10.1949 45.0001H8.56578C8.53602 45.0001 8.52114 44.9852 8.52114 44.9555V41.9205C8.52114 41.8907 8.53602 41.8758 8.56578 41.8758H10.1949C10.2246 41.8758 10.2395 41.8907 10.2395 41.9205V42.1079ZM13.1576 43.5585C13.1963 43.6983 13.2156 43.859 13.2156 44.0405C13.2156 44.1923 13.2022 44.3232 13.1754 44.4333C13.1308 44.6267 13.0415 44.7755 12.9076 44.8796C12.7767 44.9838 12.6116 45.0358 12.4122 45.0358C12.2099 45.0358 12.0418 44.9823 11.9079 44.8752C11.774 44.768 11.6862 44.6178 11.6445 44.4244C11.6296 44.3708 11.6207 44.3158 11.6177 44.2592V44.2503C11.6177 44.2265 11.6311 44.2146 11.6579 44.2146H11.89C11.9168 44.2146 11.9317 44.2265 11.9346 44.2503V44.2681L11.9525 44.3574C11.9793 44.4854 12.0313 44.5836 12.1087 44.652C12.189 44.7204 12.2902 44.7546 12.4122 44.7546C12.5312 44.7546 12.6294 44.7204 12.7068 44.652C12.7871 44.5806 12.8407 44.4809 12.8675 44.3529C12.8883 44.2696 12.8987 44.167 12.8987 44.045C12.8987 43.9319 12.8868 43.8159 12.863 43.6968C12.8362 43.5778 12.7841 43.4886 12.7068 43.4291C12.6294 43.3666 12.5312 43.3353 12.4122 43.3353C12.2991 43.3353 12.2009 43.3621 12.1176 43.4157C12.0373 43.4662 11.9808 43.5406 11.948 43.6388L11.9391 43.6567C11.9361 43.6775 11.9212 43.6879 11.8945 43.6879H11.6579C11.6282 43.6879 11.6133 43.673 11.6133 43.6433V41.9205C11.6133 41.8907 11.6282 41.8758 11.6579 41.8758H13.0728C13.1025 41.8758 13.1174 41.8907 13.1174 41.9205V42.1079C13.1174 42.1377 13.1025 42.1526 13.0728 42.1526H11.948C11.9361 42.1526 11.9302 42.1585 11.9302 42.1704V43.2639C11.9302 43.2699 11.9317 43.2743 11.9346 43.2773C11.9406 43.2773 11.9465 43.2743 11.9525 43.2684C12.012 43.2029 12.0864 43.1523 12.1757 43.1166C12.2679 43.0779 12.3661 43.0586 12.4702 43.0586C12.6458 43.0586 12.7916 43.1017 12.9076 43.188C13.0266 43.2714 13.11 43.3948 13.1576 43.5585ZM14.5275 45.0448C14.2716 45.0448 14.0663 44.9674 13.9116 44.8127C13.7569 44.6579 13.6795 44.4511 13.6795 44.1923V42.6837C13.6795 42.4278 13.7569 42.2225 13.9116 42.0678C14.0663 41.913 14.2716 41.8357 14.5275 41.8357C14.7864 41.8357 14.9932 41.913 15.1479 42.0678C15.3056 42.2225 15.3845 42.4278 15.3845 42.6837V44.1923C15.3845 44.4511 15.3056 44.6579 15.1479 44.8127C14.9932 44.9674 14.7864 45.0448 14.5275 45.0448ZM14.5275 44.768C14.6912 44.768 14.8221 44.7174 14.9203 44.6163C15.0185 44.5151 15.0676 44.3812 15.0676 44.2146V42.6658C15.0676 42.4992 15.0185 42.3653 14.9203 42.2641C14.8221 42.163 14.6912 42.1124 14.5275 42.1124C14.3698 42.1124 14.2419 42.163 14.1437 42.2641C14.0455 42.3653 13.9964 42.4992 13.9964 42.6658V44.2146C13.9964 44.3782 14.0455 44.5121 14.1437 44.6163C14.2419 44.7174 14.3698 44.768 14.5275 44.768ZM16.6605 43.1032C16.5445 43.1032 16.4374 43.075 16.3392 43.0184C16.244 42.9619 16.1681 42.886 16.1116 42.7908C16.055 42.6926 16.0268 42.5855 16.0268 42.4694C16.0268 42.3534 16.055 42.2478 16.1116 42.1526C16.1681 42.0544 16.244 41.977 16.3392 41.9205C16.4374 41.8639 16.5445 41.8357 16.6605 41.8357C16.7736 41.8357 16.8777 41.8639 16.973 41.9205C17.0712 41.977 17.1485 42.0544 17.2051 42.1526C17.2616 42.2478 17.2899 42.3534 17.2899 42.4694C17.2899 42.5855 17.2616 42.6926 17.2051 42.7908C17.1485 42.886 17.0712 42.9619 16.973 43.0184C16.8777 43.075 16.7736 43.1032 16.6605 43.1032ZM16.5579 45.0001C16.543 45.0001 16.5311 44.9957 16.5222 44.9867C16.5162 44.9748 16.5177 44.9614 16.5266 44.9466L18.187 41.9071C18.1959 41.8862 18.2138 41.8758 18.2405 41.8758H18.3834C18.3982 41.8758 18.4086 41.8818 18.4146 41.8937C18.4235 41.9026 18.4235 41.9145 18.4146 41.9294L16.7543 44.9689C16.7453 44.9897 16.7275 45.0001 16.7007 45.0001H16.5579ZM16.6605 42.9069C16.7796 42.9069 16.8792 42.8652 16.9596 42.7819C17.0429 42.6956 17.0845 42.5914 17.0845 42.4694C17.0845 42.3475 17.0429 42.2448 16.9596 42.1615C16.8792 42.0752 16.7796 42.032 16.6605 42.032C16.5415 42.032 16.4403 42.0752 16.357 42.1615C16.2737 42.2448 16.2321 42.3475 16.2321 42.4694C16.2321 42.5914 16.2737 42.6956 16.357 42.7819C16.4403 42.8652 16.5415 42.9069 16.6605 42.9069ZM18.2986 45.0403C18.1825 45.0403 18.0754 45.012 17.9772 44.9555C17.882 44.899 17.8061 44.8216 17.7496 44.7234C17.693 44.6252 17.6648 44.5181 17.6648 44.402C17.6648 44.289 17.693 44.1848 17.7496 44.0896C17.8061 43.9914 17.882 43.9141 17.9772 43.8575C18.0754 43.801 18.1825 43.7727 18.2986 43.7727C18.4116 43.7727 18.5158 43.801 18.611 43.8575C18.7092 43.9141 18.7865 43.9914 18.8431 44.0896C18.8996 44.1848 18.9279 44.289 18.9279 44.402C18.9279 44.5181 18.8996 44.6252 18.8431 44.7234C18.7865 44.8216 18.7092 44.899 18.611 44.9555C18.5158 45.012 18.4116 45.0403 18.2986 45.0403ZM18.2986 44.8439C18.4176 44.8439 18.5173 44.8008 18.5976 44.7145C18.6809 44.6282 18.7226 44.524 18.7226 44.402C18.7226 44.28 18.6809 44.1774 18.5976 44.0941C18.5173 44.0108 18.4176 43.9691 18.2986 43.9691C18.1795 43.9691 18.0784 44.0108 17.9951 44.0941C17.9117 44.1774 17.8701 44.28 17.8701 44.402C17.8701 44.527 17.9103 44.6326 17.9906 44.7189C18.0739 44.8023 18.1766 44.8439 18.2986 44.8439Z" fill="#404040"/>
<path d="M52.6872 9.53534C52.4165 9.53534 52.1978 9.455 52.0311 9.29432C51.8675 9.13365 51.7856 8.9209 51.7856 8.65608V7.21444C51.7856 6.94962 51.8675 6.73836 52.0311 6.58066C52.1978 6.41998 52.4165 6.33964 52.6872 6.33964C52.961 6.33964 53.1797 6.41849 53.3433 6.57619C53.51 6.7339 53.5933 6.94367 53.5933 7.20551V7.24568C53.5933 7.27544 53.5784 7.29032 53.5486 7.29032L53.321 7.29924C53.2913 7.29924 53.2764 7.28585 53.2764 7.25907V7.19659C53.2764 7.02401 53.2213 6.88416 53.1112 6.77704C53.0041 6.66992 52.8628 6.61636 52.6872 6.61636C52.5117 6.61636 52.3703 6.66992 52.2632 6.77704C52.1561 6.88118 52.1025 7.02103 52.1025 7.19659V8.67839C52.1025 8.85395 52.1561 8.99528 52.2632 9.1024C52.3703 9.20655 52.5117 9.25862 52.6872 9.25862C52.8628 9.25862 53.0041 9.20506 53.1112 9.09794C53.2213 8.99082 53.2764 8.85097 53.2764 8.67839V8.61591C53.2764 8.58913 53.2913 8.57574 53.321 8.57574L53.5486 8.58913C53.5784 8.58913 53.5933 8.604 53.5933 8.63376V8.665C53.5933 8.92685 53.51 9.13811 53.3433 9.29879C53.1797 9.45649 52.961 9.53534 52.6872 9.53534ZM55.1035 9.53534C54.922 9.53534 54.7613 9.49666 54.6215 9.41929C54.4846 9.34193 54.3775 9.23333 54.3001 9.09348C54.2257 8.95363 54.1885 8.79146 54.1885 8.60698V6.41998C54.1885 6.39022 54.2034 6.37535 54.2332 6.37535H54.4608C54.4905 6.37535 54.5054 6.39022 54.5054 6.41998V8.62483C54.5054 8.81527 54.5605 8.96851 54.6706 9.08455C54.7807 9.20059 54.925 9.25862 55.1035 9.25862C55.282 9.25862 55.4263 9.20059 55.5364 9.08455C55.6465 8.96851 55.7016 8.81527 55.7016 8.62483V6.41998C55.7016 6.39022 55.7165 6.37535 55.7462 6.37535H55.9738C56.0036 6.37535 56.0185 6.39022 56.0185 6.41998V8.60698C56.0185 8.79146 55.9798 8.95363 55.9024 9.09348C55.828 9.23333 55.7209 9.34193 55.5811 9.41929C55.4442 9.49666 55.285 9.53534 55.1035 9.53534ZM57.4948 9.53534C57.2241 9.53534 57.0054 9.455 56.8387 9.29432C56.6751 9.13365 56.5932 8.9209 56.5932 8.65608V7.21444C56.5932 6.94962 56.6751 6.73836 56.8387 6.58066C57.0054 6.41998 57.2241 6.33964 57.4948 6.33964C57.7686 6.33964 57.9873 6.41849 58.1509 6.57619C58.3176 6.7339 58.4009 6.94367 58.4009 7.20551V7.24568C58.4009 7.27544 58.386 7.29032 58.3562 7.29032L58.1286 7.29924C58.0989 7.29924 58.084 7.28585 58.084 7.25907V7.19659C58.084 7.02401 58.0289 6.88416 57.9188 6.77704C57.8117 6.66992 57.6704 6.61636 57.4948 6.61636C57.3193 6.61636 57.1779 6.66992 57.0708 6.77704C56.9637 6.88118 56.9101 7.02103 56.9101 7.19659V8.67839C56.9101 8.85395 56.9637 8.99528 57.0708 9.1024C57.1779 9.20655 57.3193 9.25862 57.4948 9.25862C57.6704 9.25862 57.8117 9.20506 57.9188 9.09794C58.0289 8.99082 58.084 8.85097 58.084 8.67839V8.61591C58.084 8.58913 58.0989 8.57574 58.1286 8.57574L58.3562 8.58913C58.386 8.58913 58.4009 8.604 58.4009 8.63376V8.665C58.4009 8.92685 58.3176 9.13811 58.1509 9.29879C57.9873 9.45649 57.7686 9.53534 57.4948 9.53534ZM59.9111 9.53534C59.7296 9.53534 59.5689 9.49666 59.4291 9.41929C59.2922 9.34193 59.1851 9.23333 59.1077 9.09348C59.0333 8.95363 58.9961 8.79146 58.9961 8.60698V6.41998C58.9961 6.39022 59.011 6.37535 59.0408 6.37535H59.2684C59.2981 6.37535 59.313 6.39022 59.313 6.41998V8.62483C59.313 8.81527 59.3681 8.96851 59.4782 9.08455C59.5883 9.20059 59.7326 9.25862 59.9111 9.25862C60.0896 9.25862 60.2339 9.20059 60.344 9.08455C60.4541 8.96851 60.5092 8.81527 60.5092 8.62483V6.41998C60.5092 6.39022 60.5241 6.37535 60.5538 6.37535H60.7814C60.8112 6.37535 60.8261 6.39022 60.8261 6.41998V8.60698C60.8261 8.79146 60.7874 8.95363 60.71 9.09348C60.6356 9.23333 60.5285 9.34193 60.3887 9.41929C60.2518 9.49666 60.0926 9.53534 59.9111 9.53534ZM63.0563 6.41998C63.0563 6.39022 63.0712 6.37535 63.1009 6.37535H63.3286C63.3583 6.37535 63.3732 6.39022 63.3732 6.41998V9.455C63.3732 9.48476 63.3583 9.49963 63.3286 9.49963H63.0875C63.0608 9.49963 63.0429 9.48922 63.034 9.46839L61.8378 7.08054C61.8319 7.07459 61.8259 7.07162 61.82 7.07162C61.817 7.07162 61.8155 7.07608 61.8155 7.08501L61.82 9.455C61.82 9.48476 61.8051 9.49963 61.7753 9.49963H61.5477C61.518 9.49963 61.5031 9.48476 61.5031 9.455V6.41998C61.5031 6.39022 61.518 6.37535 61.5477 6.37535H61.7887C61.8155 6.37535 61.8334 6.38576 61.8423 6.40659L63.0384 8.80336C63.0444 8.80932 63.0489 8.81229 63.0518 8.81229C63.0578 8.81229 63.0608 8.80783 63.0608 8.7989L63.0563 6.41998ZM65.627 9.49963C65.6002 9.49963 65.5838 9.48624 65.5779 9.45946L65.4306 8.90156C65.4276 8.89263 65.4202 8.88817 65.4083 8.88817H64.3415C64.3296 8.88817 64.3222 8.89263 64.3192 8.90156L64.1719 9.45946C64.166 9.48624 64.1496 9.49963 64.1228 9.49963H63.8908C63.8759 9.49963 63.864 9.49517 63.8551 9.48624C63.8491 9.47732 63.8476 9.46542 63.8506 9.45054L64.6852 6.41552C64.6912 6.38874 64.7075 6.37535 64.7343 6.37535H65.02C65.0467 6.37535 65.0631 6.38874 65.0691 6.41552L65.9037 9.45054L65.9082 9.46393C65.9082 9.48773 65.8933 9.49963 65.8635 9.49963H65.627ZM64.3951 8.61144C64.3921 8.61442 64.3921 8.61888 64.3951 8.62483C64.4011 8.62781 64.407 8.6293 64.413 8.6293H65.3369C65.3428 8.6293 65.3473 8.62781 65.3502 8.62483C65.3562 8.61888 65.3577 8.61442 65.3547 8.61144L64.8816 6.81721C64.8786 6.81126 64.8757 6.80828 64.8727 6.80828C64.8697 6.80828 64.8667 6.81126 64.8638 6.81721L64.3951 8.61144ZM66.4251 9.49963C66.3953 9.49963 66.3804 9.48476 66.3804 9.455V6.41998C66.3804 6.39022 66.3953 6.37535 66.4251 6.37535H67.2954C67.5602 6.37535 67.7685 6.45122 67.9203 6.60297C68.075 6.75472 68.1523 6.96152 68.1523 7.22337V8.65161C68.1523 8.91346 68.075 9.12026 67.9203 9.27201C67.7685 9.42376 67.5602 9.49963 67.2954 9.49963H66.4251ZM66.6973 9.20506C66.6973 9.21696 66.7033 9.22291 66.7152 9.22291H67.2999C67.4635 9.21994 67.5929 9.16638 67.6882 9.06223C67.7834 8.95512 67.8325 8.80932 67.8355 8.62483V7.25015C67.8355 7.06567 67.7878 6.91987 67.6926 6.81275C67.5974 6.70563 67.4665 6.65207 67.2999 6.65207H66.7152C66.7033 6.65207 66.6973 6.65802 66.6973 6.66992V9.20506ZM70.5004 6.60744C70.5004 6.63719 70.4855 6.65207 70.4558 6.65207H69.1168C69.1049 6.65207 69.0989 6.65802 69.0989 6.66992V7.77681C69.0989 7.78871 69.1049 7.79467 69.1168 7.79467H70.0184C70.0481 7.79467 70.063 7.80954 70.063 7.8393V8.02676C70.063 8.05651 70.0481 8.07139 70.0184 8.07139H69.1168C69.1049 8.07139 69.0989 8.07734 69.0989 8.08924V9.20506C69.0989 9.21696 69.1049 9.22291 69.1168 9.22291H70.4558C70.4855 9.22291 70.5004 9.23779 70.5004 9.26754V9.455C70.5004 9.48476 70.4855 9.49963 70.4558 9.49963H68.8267C68.7969 9.49963 68.782 9.48476 68.782 9.455V6.41998C68.782 6.39022 68.7969 6.37535 68.8267 6.37535H70.4558C70.4855 6.37535 70.5004 6.39022 70.5004 6.41998V6.60744ZM73.4185 8.058C73.4572 8.19785 73.4765 8.35853 73.4765 8.54003C73.4765 8.69178 73.4631 8.82271 73.4363 8.9328C73.3917 9.12621 73.3024 9.27498 73.1685 9.37913C73.0376 9.48327 72.8725 9.53534 72.6731 9.53534C72.4708 9.53534 72.3027 9.48178 72.1688 9.37466C72.0349 9.26754 71.9471 9.11728 71.9054 8.92387C71.8905 8.87031 71.8816 8.81527 71.8786 8.75873V8.7498C71.8786 8.726 71.892 8.7141 71.9188 8.7141H72.1509C72.1777 8.7141 72.1926 8.726 72.1955 8.7498V8.76766L72.2134 8.85692C72.2402 8.98487 72.2922 9.08306 72.3696 9.1515C72.4499 9.21994 72.5511 9.25415 72.6731 9.25415C72.7921 9.25415 72.8903 9.21994 72.9677 9.1515C73.048 9.08009 73.1016 8.98041 73.1284 8.85246C73.1492 8.76915 73.1596 8.66649 73.1596 8.54449C73.1596 8.43143 73.1477 8.31538 73.1239 8.19636C73.0971 8.07734 73.045 7.98807 72.9677 7.92856C72.8903 7.86608 72.7921 7.83484 72.6731 7.83484C72.56 7.83484 72.4618 7.86161 72.3785 7.91517C72.2982 7.96576 72.2417 8.04015 72.2089 8.13834L72.2 8.15619C72.197 8.17702 72.1821 8.18743 72.1554 8.18743H71.9188C71.8891 8.18743 71.8742 8.17256 71.8742 8.1428V6.41998C71.8742 6.39022 71.8891 6.37535 71.9188 6.37535H73.3337C73.3634 6.37535 73.3783 6.39022 73.3783 6.41998V6.60744C73.3783 6.63719 73.3634 6.65207 73.3337 6.65207H72.2089C72.197 6.65207 72.1911 6.65802 72.1911 6.66992V7.76342C72.1911 7.76937 72.1926 7.77384 72.1955 7.77681C72.2015 7.77681 72.2074 7.77384 72.2134 7.76789C72.2729 7.70243 72.3473 7.65184 72.4366 7.61614C72.5288 7.57745 72.627 7.55811 72.7311 7.55811C72.9067 7.55811 73.0525 7.60126 73.1685 7.68755C73.2876 7.77086 73.3709 7.89435 73.4185 8.058ZM74.7884 9.54427C74.5325 9.54427 74.3272 9.4669 74.1725 9.31218C74.0178 9.15745 73.9404 8.95065 73.9404 8.69178V7.1832C73.9404 6.9273 74.0178 6.72199 74.1725 6.56727C74.3272 6.41254 74.5325 6.33518 74.7884 6.33518C75.0473 6.33518 75.2541 6.41254 75.4088 6.56727C75.5665 6.72199 75.6454 6.9273 75.6454 7.1832V8.69178C75.6454 8.95065 75.5665 9.15745 75.4088 9.31218C75.2541 9.4669 75.0473 9.54427 74.7884 9.54427ZM74.7884 9.26754C74.9521 9.26754 75.083 9.21696 75.1812 9.11579C75.2794 9.01463 75.3285 8.88073 75.3285 8.7141V7.16535C75.3285 6.99872 75.2794 6.86482 75.1812 6.76365C75.083 6.66248 74.9521 6.6119 74.7884 6.6119C74.6307 6.6119 74.5028 6.66248 74.4046 6.76365C74.3064 6.86482 74.2573 6.99872 74.2573 7.16535V8.7141C74.2573 8.87775 74.3064 9.01165 74.4046 9.11579C74.5028 9.21696 74.6307 9.26754 74.7884 9.26754ZM76.9214 7.60275C76.8054 7.60275 76.6983 7.57448 76.6001 7.51794C76.5049 7.46141 76.429 7.38553 76.3725 7.29032C76.3159 7.19213 76.2877 7.08501 76.2877 6.96896C76.2877 6.85292 76.3159 6.74729 76.3725 6.65207C76.429 6.55388 76.5049 6.47651 76.6001 6.41998C76.6983 6.36345 76.8054 6.33518 76.9214 6.33518C77.0345 6.33518 77.1387 6.36345 77.2339 6.41998C77.3321 6.47651 77.4094 6.55388 77.466 6.65207C77.5225 6.74729 77.5508 6.85292 77.5508 6.96896C77.5508 7.08501 77.5225 7.19213 77.466 7.29032C77.4094 7.38553 77.3321 7.46141 77.2339 7.51794C77.1387 7.57448 77.0345 7.60275 76.9214 7.60275ZM76.8188 9.49963C76.8039 9.49963 76.792 9.49517 76.7831 9.48624C76.7771 9.47434 76.7786 9.46095 76.7875 9.44607L78.4479 6.40659C78.4568 6.38576 78.4747 6.37535 78.5014 6.37535H78.6443C78.6591 6.37535 78.6696 6.3813 78.6755 6.3932C78.6844 6.40213 78.6844 6.41403 78.6755 6.42891L77.0152 9.46839C77.0062 9.48922 76.9884 9.49963 76.9616 9.49963H76.8188ZM76.9214 7.40636C77.0405 7.40636 77.1401 7.3647 77.2205 7.28139C77.3038 7.1951 77.3455 7.09096 77.3455 6.96896C77.3455 6.84697 77.3038 6.74431 77.2205 6.661C77.1401 6.57471 77.0405 6.53156 76.9214 6.53156C76.8024 6.53156 76.7013 6.57471 76.6179 6.661C76.5346 6.74431 76.493 6.84697 76.493 6.96896C76.493 7.09096 76.5346 7.1951 76.6179 7.28139C76.7013 7.3647 76.8024 7.40636 76.9214 7.40636ZM78.5595 9.5398C78.4434 9.5398 78.3363 9.51154 78.2381 9.455C78.1429 9.39847 78.067 9.3211 78.0105 9.22291C77.9539 9.12472 77.9257 9.0176 77.9257 8.90156C77.9257 8.78849 77.9539 8.68434 78.0105 8.58913C78.067 8.49094 78.1429 8.41357 78.2381 8.35704C78.3363 8.3005 78.4434 8.27224 78.5595 8.27224C78.6725 8.27224 78.7767 8.3005 78.8719 8.35704C78.9701 8.41357 79.0474 8.49094 79.104 8.58913C79.1605 8.68434 79.1888 8.78849 79.1888 8.90156C79.1888 9.0176 79.1605 9.12472 79.104 9.22291C79.0474 9.3211 78.9701 9.39847 78.8719 9.455C78.7767 9.51154 78.6725 9.5398 78.5595 9.5398ZM78.5595 9.34342C78.6785 9.34342 78.7782 9.30027 78.8585 9.21398C78.9418 9.12769 78.9835 9.02355 78.9835 8.90156C78.9835 8.77956 78.9418 8.6769 78.8585 8.59359C78.7782 8.51028 78.6785 8.46862 78.5595 8.46862C78.4404 8.46862 78.3393 8.51028 78.256 8.59359C78.1726 8.6769 78.131 8.77956 78.131 8.90156C78.131 9.02653 78.1712 9.13216 78.2515 9.21845C78.3348 9.30176 78.4375 9.34342 78.5595 9.34342Z" fill="#404040"/>
<path fill-rule="evenodd" clip-rule="evenodd" d="M31.1264 21.1947L30.9865 21.2077L30.98 21.3853L30.9736 21.565H31.1974C31.3201 21.565 31.5977 21.5715 31.8108 21.5801L32.2025 21.5931V24.0767C32.2025 26.4953 32.2111 27.0215 32.2499 27.0215C32.2585 27.0215 32.3231 26.9782 32.3919 26.9241C32.4909 26.8461 32.5469 26.8201 32.6825 26.7898L32.8482 26.7508V24.172V21.5931L33.4552 21.5801C33.9071 21.5693 34.0664 21.5585 34.0793 21.539C34.103 21.5 34.1008 21.2792 34.0772 21.2424C34.0642 21.2229 34.0018 21.2034 33.9308 21.1947C33.7845 21.1752 31.333 21.1774 31.1264 21.1947Z" fill="#323232"/>
<path fill-rule="evenodd" clip-rule="evenodd" d="M34.9875 21.1902C34.9445 21.1988 34.9423 21.2118 34.9294 21.8311C34.9208 22.1797 34.9143 22.8899 34.9143 23.4096V24.358H34.4408H33.9673V23.4312C33.9673 22.9224 33.9609 22.3378 33.9523 22.1321L33.9393 21.7596H33.6445H33.3475L33.3324 22.4352C33.3238 22.8076 33.3216 23.9661 33.3259 25.0076L33.3324 26.9022L33.3819 27.0083C33.4422 27.1425 33.4422 27.2097 33.3754 27.3677C33.3023 27.541 33.3066 27.5799 33.3927 27.6146C33.5218 27.6687 33.6359 27.6774 33.7629 27.6384C33.9652 27.5799 33.9544 27.6687 33.963 26.0512L33.9716 24.6611H34.443H34.9143V25.8888C34.9143 26.5666 34.9208 27.2573 34.9294 27.424L34.9423 27.7315L35.0241 27.7575C35.1123 27.7878 35.2027 27.7726 35.4201 27.6904L35.5385 27.6471L35.5363 25.0336C35.5342 23.5958 35.5256 22.1429 35.5191 21.8029L35.5062 21.1858L35.2695 21.1837C35.1403 21.1815 35.0133 21.1837 34.9875 21.1902Z" fill="#323232"/>
<path fill-rule="evenodd" clip-rule="evenodd" d="M30.3342 21.9329C30.0608 21.9719 29.8693 22.0736 29.781 22.223C29.7035 22.3573 29.6842 22.524 29.6842 23.035C29.6842 23.8297 29.6885 23.8362 30.5881 25.17C30.8077 25.4969 30.8399 25.5511 30.9433 25.7828C31.0358 25.9885 31.0444 26.0231 31.0616 26.2591C31.0724 26.3977 31.0832 26.7788 31.0832 27.1014C31.0832 27.4262 31.0896 27.6925 31.1004 27.6925C31.109 27.6925 31.2446 27.6731 31.4017 27.6471L31.6879 27.5994L31.6815 26.7853L31.675 25.9711L31.5825 25.7395C31.4792 25.4839 31.2876 25.1635 30.8679 24.5529C30.7173 24.332 30.5365 24.0505 30.4698 23.9293L30.3449 23.7062L30.3234 23.0956C30.3019 22.4244 30.3126 22.301 30.4073 22.2079C30.4676 22.1472 30.5408 22.1278 30.7173 22.1278C30.8873 22.1278 30.9648 22.1602 31.0229 22.2533C31.0702 22.3313 31.0724 22.3508 31.0832 23.0632C31.0918 23.6175 31.1004 23.7994 31.1219 23.821C31.1563 23.8557 31.5954 23.8708 31.6427 23.8405C31.6707 23.821 31.675 23.7149 31.6815 23.1454C31.6879 22.4352 31.675 22.2772 31.5997 22.1711C31.548 22.0974 31.3371 21.9913 31.1692 21.9545C31.0164 21.9221 30.5106 21.9091 30.3342 21.9329Z" fill="#323232"/>
<path fill-rule="evenodd" clip-rule="evenodd" d="M36.7719 21.9763C36.4318 22.024 36.2532 22.1149 36.1499 22.2925C36.0939 22.3856 36.0896 22.4202 36.0745 22.7104C36.0659 22.8836 36.0573 24.0572 36.0573 25.3152L36.0552 27.6039L36.1262 27.6559C36.2833 27.7771 36.4081 27.788 36.5889 27.6992L36.6686 27.6602L36.675 26.3762L36.6793 25.0943H37.0667H37.4542V26.3805V27.6667L37.5941 27.7576L37.7361 27.8507L37.8717 27.7923C37.9492 27.7598 38.0267 27.7187 38.0503 27.7035C38.0869 27.6754 38.0891 27.5952 38.0955 25.9994C38.1041 24.0658 38.0762 22.548 38.0288 22.3704C37.9578 22.1019 37.7189 21.9958 37.1206 21.9677C37.0022 21.9633 36.8451 21.9655 36.7719 21.9763ZM37.282 22.2123C37.3293 22.2362 37.3724 22.2816 37.4004 22.3358C37.4391 22.4159 37.4412 22.4808 37.4499 23.492C37.4542 24.081 37.4499 24.6223 37.4391 24.6938L37.4219 24.8237L37.1206 24.8302C36.9548 24.8345 36.787 24.8302 36.7504 24.8237L36.6793 24.8107V23.8753C36.6815 22.8316 36.7009 22.4072 36.7504 22.3098C36.8257 22.1625 37.0861 22.1149 37.282 22.2123Z" fill="#323232"/>
<path fill-rule="evenodd" clip-rule="evenodd" d="M27.394 22.931C27.3875 23.0047 27.3811 23.9249 27.3811 24.9751V26.8848L27.5339 26.9C27.6178 26.9065 27.7427 26.9325 27.8115 26.9563C27.8826 26.9801 27.9493 26.9996 27.9622 26.9996C27.9859 26.9996 27.9945 23.0761 27.9708 22.8986L27.9557 22.799H27.6824H27.4091L27.394 22.931Z" fill="#323232"/>
<path fill-rule="evenodd" clip-rule="evenodd" d="M28.6143 22.8251C28.582 22.8749 28.5476 26.8676 28.5777 27.0192C28.5949 27.0972 28.6272 27.1037 28.6853 27.0409C28.7477 26.9716 28.8403 26.9326 29.0039 26.9045L29.1567 26.8785L29.1696 26.5753C29.1889 26.1791 29.1889 23.1065 29.1696 22.9398L29.1567 22.8099L28.8941 22.8034C28.7004 22.7991 28.6272 22.8056 28.6143 22.8251Z" fill="#323232"/>
<path fill-rule="evenodd" clip-rule="evenodd" d="M38.6273 22.8355C38.6166 22.8572 38.6058 23.5327 38.5994 24.3382L38.5908 25.7998L38.6596 26.1138C38.8167 26.8261 38.9846 27.4671 39.0621 27.6554C39.1611 27.8871 39.3914 27.7919 39.3914 27.5212C39.3914 27.4541 39.3806 27.3306 39.3677 27.2484C39.2494 26.4364 39.2235 25.9708 39.202 24.1628L39.1869 22.8095L38.9158 22.803C38.6725 22.7987 38.6424 22.8009 38.6273 22.8355Z" fill="#323232"/>
<path fill-rule="evenodd" clip-rule="evenodd" d="M39.8306 22.8228C39.822 22.838 39.807 23.5244 39.7984 24.345C39.7898 25.1678 39.7725 25.9343 39.7596 26.0469C39.7015 26.5796 39.6757 26.8416 39.6778 26.9022C39.68 26.9369 39.6735 27.043 39.6628 27.1361C39.6456 27.3071 39.6456 27.3071 39.6929 27.2812C39.7187 27.2682 39.7898 27.2097 39.85 27.1556C39.9124 27.0993 39.9985 27.0256 40.0437 26.991C40.0889 26.9564 40.1406 26.9001 40.1578 26.8676C40.203 26.7788 40.3558 26.0902 40.3816 25.8499C40.4096 25.6117 40.4032 22.8553 40.3752 22.8272C40.3644 22.8185 40.2417 22.8077 40.1018 22.8033C39.9124 22.7968 39.8436 22.8033 39.8306 22.8228Z" fill="#323232"/>
<path fill-rule="evenodd" clip-rule="evenodd" d="M26.5653 23.6651L26.2769 23.6759L26.066 24.7478C25.9498 25.3367 25.8508 25.8326 25.8486 25.8499C25.8378 25.9062 25.7948 25.8975 25.769 25.8369C25.7561 25.8044 25.7324 25.7027 25.7152 25.6139C25.7001 25.5251 25.6205 25.1354 25.5408 24.7478C25.4612 24.3602 25.3794 23.9618 25.36 23.86L25.3256 23.6759L25.0264 23.6695L24.7273 23.663L24.7402 25.1289C24.7488 25.9365 24.7552 26.965 24.7552 27.4154V28.2339H25.0566H25.3579L25.36 27.4371C25.36 26.9997 25.3686 26.5926 25.3794 26.5341C25.388 26.4735 25.3966 26.4324 25.3988 26.441C25.4483 26.7052 25.571 27.3829 25.5817 27.4565C25.6054 27.6168 25.6312 27.6384 25.8013 27.6363C25.9196 27.6363 25.9519 27.6276 25.9799 27.5908C26.0036 27.5626 26.0445 27.3786 26.0983 27.0625C26.1435 26.7961 26.1887 26.5623 26.1994 26.545C26.2102 26.5233 26.2188 26.5796 26.2188 26.6965C26.2188 26.991 26.2446 27.24 26.2726 27.2508C26.2877 27.2573 26.3415 27.2335 26.3931 27.1989C26.4448 27.1642 26.5653 27.1036 26.66 27.0646C26.7547 27.0235 26.8387 26.9845 26.8494 26.978C26.858 26.9715 26.8623 26.2202 26.8602 25.3086L26.8537 23.6543L26.5653 23.6651Z" fill="#323232"/>
<path fill-rule="evenodd" clip-rule="evenodd" d="M40.9499 23.6909C40.9391 23.7061 40.9284 24.4098 40.9241 25.2564L40.9155 26.7938L41.0016 26.8436C41.1759 26.941 41.2555 27.0947 41.2362 27.2939C41.2211 27.4368 41.1608 27.5754 41.0317 27.766C40.9391 27.9002 40.9305 27.924 40.9305 28.041C40.9305 28.1254 40.9413 28.1795 40.9628 28.199C40.9994 28.2358 41.2964 28.2488 41.884 28.238L42.2327 28.2337V28.0734V27.9154L41.927 27.9002C41.7592 27.8916 41.6171 27.8807 41.6128 27.8786C41.6085 27.8742 41.5999 27.452 41.5934 26.941L41.5805 26.0099L41.7807 25.9969C41.8905 25.9883 42.0217 25.9818 42.0712 25.9818C42.1789 25.9818 42.1918 25.9558 42.1746 25.7739L42.1616 25.657H41.8754H41.587V24.8363C41.587 24.2777 41.5934 24.0092 41.6107 24.0005C41.6236 23.9919 41.7613 23.9789 41.9163 23.9724L42.2004 23.9572V23.8165V23.6757L41.5827 23.6693C41.107 23.6649 40.9628 23.6714 40.9499 23.6909Z" fill="#323232"/>
<path fill-rule="evenodd" clip-rule="evenodd" d="M29.6819 26.1899C29.6539 26.2635 29.6733 27.0344 29.7077 27.1968C29.7228 27.2617 29.7206 27.3267 29.7077 27.3916C29.6754 27.5237 29.6797 27.6341 29.7142 27.6818C29.7421 27.7208 29.7486 27.7208 29.9767 27.6731C30.1059 27.645 30.2329 27.619 30.2608 27.6125L30.3103 27.6017L30.3039 26.8915C30.2996 26.4995 30.2888 26.1726 30.2802 26.1639C30.2716 26.1531 30.1382 26.1423 29.9854 26.1379L29.7056 26.1293L29.6819 26.1899Z" fill="#323232"/>
<path fill-rule="evenodd" clip-rule="evenodd" d="M32.7184 27.1101C32.6366 27.1425 32.5333 27.253 32.4128 27.4327C32.3094 27.5886 31.9672 28.039 31.9522 28.039C31.95 28.039 31.9113 28.0173 31.8682 27.9935C31.7972 27.9502 31.7671 27.948 31.582 27.9589C31.2139 27.9783 30.9858 28.0974 30.6242 28.4547C30.325 28.7513 30.0603 28.9246 30.0044 28.8683C29.9893 28.8531 30.0388 28.7773 30.1507 28.6453C30.4908 28.2382 30.4908 28.2382 30.4757 28.1126C30.4714 28.0714 30.4456 28.0346 30.3939 28C30.2885 27.9285 30.1335 27.9437 29.8946 28.0498C29.7956 28.0931 29.703 28.1342 29.6901 28.1407C29.6751 28.1472 29.6535 28.1277 29.6428 28.0974C29.5933 27.9675 29.4361 27.9697 29.3156 28.0996C29.2747 28.1429 29.1843 28.2512 29.1155 28.3378C28.9045 28.6063 28.5365 28.8921 28.3643 28.9202C28.1383 28.9571 28.2997 28.6409 28.8766 27.9199C29.2984 27.3915 29.3544 27.2919 29.2554 27.2378C29.1865 27.2032 29.0337 27.2118 28.9583 27.2573C28.9218 27.2811 28.7754 27.4435 28.6333 27.6211C28.3492 27.9762 27.9468 28.3811 27.6885 28.5738C27.3979 28.7903 27.0428 28.9311 26.961 28.8618C26.8685 28.786 26.9804 28.5998 27.4647 28.0216C27.5873 27.8744 27.7186 27.7034 27.7595 27.6427C27.8392 27.5193 27.8542 27.4089 27.8004 27.3309C27.7208 27.2162 27.3872 27.1837 27.088 27.2595C26.6705 27.3656 26.4036 27.5929 26.5693 27.7034C26.6382 27.7467 26.7307 27.7185 26.989 27.5713C27.1999 27.4543 27.4109 27.3894 27.4517 27.4305C27.4797 27.4587 27.3592 27.6146 27.0364 27.9632C26.6296 28.4006 26.5026 28.6193 26.5263 28.8358C26.5435 28.9982 26.7286 29.1411 26.9201 29.1433C27.1311 29.1433 27.4388 29.0004 27.6799 28.786C27.7681 28.708 27.8521 28.6453 27.8693 28.6453C27.9037 28.6453 27.9037 28.6409 27.865 28.7513C27.8262 28.8639 27.8542 28.9527 27.9597 29.0415C28.0996 29.1584 28.289 29.1671 28.5171 29.0653C28.6506 29.0047 28.7259 28.9982 28.7453 29.0458C28.7539 29.0675 28.7883 29.0783 28.8529 29.0783C28.9476 29.0783 28.9519 29.0761 29.1047 28.8878C29.3242 28.6193 29.4598 28.4829 29.6083 28.3746C29.9592 28.1213 30.211 28.0931 30.0345 28.327C30 28.3703 29.9118 28.4742 29.8365 28.5608C29.6299 28.7968 29.5868 28.9462 29.6966 29.0328C29.7439 29.0696 29.7848 29.0783 29.914 29.0783C30.0818 29.0783 30.1356 29.0588 30.3444 28.9267C30.4004 28.8899 30.4585 28.8618 30.4735 28.8618C30.4886 28.8618 30.5187 28.8986 30.5424 28.9462C30.5941 29.048 30.678 29.0848 30.8459 29.0848C30.9966 29.0826 31.1408 29.022 31.2807 28.9029C31.3366 28.8574 31.3904 28.8185 31.4033 28.8185C31.4162 28.8185 31.427 28.8488 31.427 28.8856C31.427 28.9289 31.4485 28.9722 31.4894 29.0155C31.5432 29.0696 31.5691 29.0783 31.6681 29.0783C31.8037 29.0783 31.9651 29.009 32.133 28.8791C32.1954 28.8315 32.2513 28.7968 32.2578 28.8033C32.2642 28.8098 32.2858 28.8466 32.3073 28.8878C32.3288 28.9267 32.3912 28.9917 32.4472 29.0285C32.5376 29.0913 32.5699 29.1 32.6861 29.1C32.8755 29.1 33.0283 29.0653 33.1919 28.9895C33.3834 28.9008 33.5104 28.7968 33.8591 28.4612C34.0894 28.236 34.1733 28.1689 34.2314 28.1581C34.395 28.1256 34.3885 28.1472 34.1604 28.4071C33.8139 28.7968 33.7536 28.9354 33.8828 29.0437C34.0141 29.1541 34.2874 29.1043 34.5629 28.9202C34.6425 28.8661 34.7222 28.8185 34.7351 28.8141C34.7501 28.8098 34.7781 28.8423 34.7996 28.8834C34.9288 29.1368 35.299 29.1671 35.7101 28.9592C35.7875 28.9202 35.865 28.8726 35.8801 28.8531C35.9231 28.8012 35.9403 28.8076 36.0781 28.9354C36.2309 29.0783 36.3127 29.1086 36.515 29.0956C36.7152 29.0826 36.8615 29.0112 37.0746 28.8228C37.2877 28.6388 37.4319 28.5327 37.462 28.5435C37.4771 28.5478 37.4835 28.6106 37.4792 28.7124C37.4685 28.9809 37.5481 29.0783 37.7784 29.0783C37.9613 29.0783 38.0926 29.0285 38.2368 28.9072C38.3079 28.8466 38.3724 28.8033 38.3832 28.8098C38.3918 28.8163 38.4004 28.8553 38.4004 28.8964C38.4004 29.0177 38.4779 29.0783 38.6307 29.0783C38.7706 29.0783 38.8718 29.0372 39.0353 28.9181C39.0934 28.8748 39.1559 28.8401 39.1709 28.8401C39.1838 28.8401 39.214 28.8813 39.2333 28.9289C39.3151 29.1389 39.6466 29.1563 39.9199 28.9679C40.0663 28.8683 40.43 28.5023 40.4192 28.4677C40.3956 28.3962 40.3181 28.4331 40.0878 28.6171C39.8424 28.8185 39.7499 28.8704 39.6659 28.8574C39.6229 28.851 39.6164 28.8401 39.6186 28.7492C39.6186 28.6171 39.6746 28.5392 39.8812 28.3746C40.3181 28.0281 40.6904 27.6427 40.783 27.4392C40.8562 27.2811 40.8454 27.1534 40.7593 27.1101C40.6775 27.0711 40.4903 27.1079 40.3697 27.188C40.1287 27.3504 39.6057 27.9524 39.3905 28.3205C39.2871 28.4937 39.1559 28.6323 38.988 28.7449C38.8438 28.8423 38.7491 28.8748 38.7189 28.8445C38.6867 28.812 38.7577 28.708 38.96 28.4829C39.0439 28.3876 39.13 28.2772 39.1494 28.2382C39.1838 28.1689 39.1817 28.1624 39.1472 28.1364C39.1257 28.1213 39.0719 28.1039 39.0267 28.0953C38.9794 28.0888 38.9126 28.0585 38.8782 28.0281C38.7512 27.922 38.4951 27.9177 38.1981 28.0173C38.1163 28.0433 37.9699 28.1256 37.8279 28.223C37.5094 28.446 37.4491 28.4417 37.4254 28.2035C37.4104 28.052 37.3587 27.9848 37.2296 27.9502C36.9282 27.8679 36.4268 28.0844 36.1147 28.4309C35.8973 28.6712 35.6067 28.851 35.3872 28.8769C35.3097 28.8856 35.2796 28.8791 35.2322 28.8401C35.1569 28.7817 35.1569 28.7275 35.2344 28.5911C35.3528 28.3833 35.639 28.1342 35.7854 28.1104C35.8801 28.0953 35.8844 28.1321 35.8069 28.2468C35.738 28.3464 35.7466 28.3724 35.8435 28.3811C35.9059 28.3854 35.936 28.3746 36.0006 28.3183C36.1599 28.1775 36.1642 28.0758 36.0114 27.987C35.8564 27.8939 35.5271 27.9524 35.2538 28.1191C35.1849 28.1602 35.0106 28.3075 34.8664 28.4439C34.5241 28.7708 34.2831 28.9289 34.2207 28.8661C34.1927 28.838 34.3154 28.6691 34.55 28.4201C34.7652 28.1905 34.8169 28.1126 34.7932 28.0498C34.7738 28 34.692 27.9892 34.4596 28.0043C34.2551 28.0195 34.2465 28.0173 34.2465 27.9762C34.2465 27.9524 34.2228 27.9155 34.1927 27.8961C34.0549 27.8051 33.7751 27.9978 33.8548 28.1277C33.8978 28.1949 33.8849 28.2273 33.7601 28.3616C33.5987 28.5392 33.4114 28.6777 33.194 28.7838C32.8776 28.9354 32.6646 28.8986 32.6646 28.6907C32.6646 28.6431 32.6732 28.5976 32.6818 28.589C32.6904 28.5803 32.8023 28.5651 32.9293 28.5565C33.2758 28.5305 33.4652 28.4547 33.5685 28.3031C33.6439 28.1927 33.6374 28.1234 33.547 28.0411C33.4114 27.922 33.2349 27.9069 32.953 27.9957C32.7829 28.0476 32.6646 28.1364 32.3159 28.4742C31.9866 28.7925 31.8359 28.8943 31.78 28.8358C31.752 28.8098 31.7606 28.7882 31.8316 28.6756C31.9134 28.55 32.1868 28.2144 32.6172 27.7142C33.0111 27.2573 33.0843 27.1296 32.9723 27.0992C32.9013 27.0797 32.7808 27.0862 32.7184 27.1101ZM40.6388 27.3526C40.6388 27.4457 40.0232 28.1472 39.9414 28.1472C39.8898 28.1472 40.2514 27.6514 40.4472 27.4565C40.5742 27.3288 40.6388 27.2941 40.6388 27.3526ZM31.78 28.1169C31.8532 28.1451 31.8123 28.2209 31.6164 28.4157C31.4012 28.6301 31.2247 28.7578 31.0547 28.8228C30.8696 28.8943 30.8115 28.8206 30.9234 28.6539C31.0719 28.4287 31.356 28.2165 31.61 28.1342C31.7111 28.1018 31.7348 28.0996 31.78 28.1169ZM33.3727 28.1386C33.4222 28.1862 33.4157 28.2165 33.3468 28.2836C33.2651 28.3616 33.1252 28.4071 32.9594 28.4071H32.8195L32.869 28.3529C32.9358 28.2815 33.1187 28.1602 33.2026 28.1299C33.2952 28.0974 33.3339 28.0996 33.3727 28.1386ZM37.2059 28.1429C37.2059 28.1581 37.1671 28.1927 37.1219 28.2187C37.0186 28.2772 36.9519 28.3638 36.9713 28.4136C36.9777 28.4352 37.0122 28.4655 37.0466 28.485C37.0811 28.5023 37.109 28.5305 37.109 28.5478C37.109 28.589 37.0057 28.6647 36.8077 28.7708C36.5645 28.9029 36.4375 28.9116 36.3794 28.799C36.2998 28.6517 36.6592 28.2663 36.9864 28.1451C37.109 28.0996 37.2059 28.0996 37.2059 28.1429ZM38.7189 28.1169C38.7835 28.1364 38.7792 28.1862 38.6974 28.2966C38.5274 28.5283 38.0022 28.8899 37.886 28.851C37.6988 28.7925 38.1507 28.2923 38.5274 28.1451C38.6393 28.1018 38.6501 28.0996 38.7189 28.1169Z" fill="#323232"/>
<path fill-rule="evenodd" clip-rule="evenodd" d="M26.2553 27.9675C26.2315 27.9892 26.238 28.2079 26.2618 28.2231C26.2856 28.2382 26.435 28.1018 26.435 28.065C26.435 28.0368 26.3289 27.9524 26.2943 27.9524C26.2813 27.9524 26.2618 27.9589 26.2553 27.9675Z" fill="#323232"/>
<path fill-rule="evenodd" clip-rule="evenodd" d="M24.7378 28.6063L24.7442 28.6777L25.306 28.6842C25.9237 28.6907 26.083 28.6777 26.1195 28.6171C26.1368 28.5868 26.1368 28.5738 26.1109 28.5586C26.0916 28.5456 25.7967 28.537 25.405 28.537H24.7313L24.7378 28.6063Z" fill="#323232"/>
<path fill-rule="evenodd" clip-rule="evenodd" d="M40.8634 28.5586C40.816 28.5781 40.7794 28.6409 40.8031 28.6647C40.8095 28.6712 41.1367 28.6777 41.5284 28.6777H42.243L42.2494 28.6063L42.2559 28.537L41.5822 28.5392C41.212 28.5392 40.8892 28.5478 40.8634 28.5586Z" fill="#323232"/>
<path fill-rule="evenodd" clip-rule="evenodd" d="M25.7602 29.4268C25.5149 29.4983 25.4331 29.8058 25.616 29.9811C25.7818 30.137 26.1003 30.1327 26.2402 29.9746C26.3715 29.8252 26.3435 29.5957 26.1842 29.4831C26.0831 29.4117 25.9001 29.3879 25.7602 29.4268ZM26.0874 29.5502C26.1175 29.5719 26.1563 29.626 26.1692 29.6693C26.2445 29.8967 25.9798 30.1002 25.7796 29.9681C25.6957 29.9119 25.6612 29.8447 25.6591 29.7321C25.6591 29.6585 25.672 29.6282 25.7194 29.5827C25.7516 29.5524 25.7968 29.5199 25.8205 29.5091C25.8851 29.481 26.025 29.5026 26.0874 29.5502Z" fill="#323232"/>
<path fill-rule="evenodd" clip-rule="evenodd" d="M27.4323 29.4247C27.3699 29.4506 27.2945 29.5502 27.2945 29.6087C27.2945 29.6888 27.3892 29.7624 27.5098 29.7776C27.6324 29.7928 27.7594 29.8469 27.7767 29.8924C27.7831 29.9097 27.768 29.9443 27.7444 29.9681C27.6798 30.0331 27.5184 30.0158 27.4129 29.9357C27.2945 29.8447 27.2149 29.9032 27.3225 30.005C27.499 30.1717 27.9187 30.0959 27.9187 29.8967C27.9187 29.8642 27.8993 29.8166 27.8778 29.7949C27.8412 29.7581 27.6497 29.6845 27.5894 29.6845C27.5442 29.6845 27.4237 29.613 27.4237 29.5849C27.4237 29.5416 27.5119 29.4896 27.5873 29.4896C27.6238 29.4896 27.6906 29.5134 27.7336 29.5437C27.8197 29.6022 27.8972 29.6152 27.8972 29.5697C27.8972 29.4593 27.5851 29.3619 27.4323 29.4247Z" fill="#323232"/>
<path fill-rule="evenodd" clip-rule="evenodd" d="M31.9829 29.4226C31.7354 29.5027 31.6429 29.7279 31.7699 29.9358C31.8452 30.0614 32.0755 30.1263 32.2649 30.0743C32.5468 29.9986 32.6157 29.6478 32.3833 29.4832C32.2864 29.4161 32.0949 29.3879 31.9829 29.4226ZM32.28 29.5439C32.3531 29.5915 32.4026 29.7149 32.3876 29.8037C32.379 29.8405 32.3445 29.9011 32.3079 29.9358C32.252 29.9899 32.2261 29.9986 32.1271 29.9986C31.9851 29.9986 31.9033 29.9444 31.8603 29.821C31.8323 29.7431 31.8344 29.7279 31.871 29.65C31.9442 29.4984 32.1358 29.4486 32.28 29.5439Z" fill="#323232"/>
<path fill-rule="evenodd" clip-rule="evenodd" d="M32.8761 29.4421C32.7362 29.4984 32.6802 29.559 32.6651 29.6716C32.6415 29.8253 32.6673 29.9098 32.762 29.9942C32.8868 30.109 33.1128 30.1285 33.2807 30.0397C33.3711 29.9942 33.4529 29.8578 33.455 29.756C33.4572 29.6023 33.3754 29.4919 33.2161 29.4356C33.0977 29.3944 32.9901 29.3966 32.8761 29.4421ZM33.186 29.533C33.341 29.6283 33.3646 29.8015 33.2398 29.9271C33.0827 30.0873 32.7835 29.9899 32.7835 29.7777C32.7835 29.559 33.0073 29.4226 33.186 29.533Z" fill="#323232"/>
<path fill-rule="evenodd" clip-rule="evenodd" d="M37.4025 29.4248C37.2648 29.4681 37.1636 29.6348 37.1808 29.7885C37.1937 29.9098 37.2497 29.9856 37.3681 30.0462C37.5424 30.1371 37.7792 30.096 37.9062 29.9553C37.9535 29.9055 37.96 29.8773 37.96 29.7539C37.9578 29.5807 37.9191 29.5092 37.8028 29.4616C37.6995 29.4204 37.4822 29.4009 37.4025 29.4248ZM37.7146 29.5395C37.7555 29.5655 37.805 29.624 37.8265 29.6694C37.8653 29.7474 37.8653 29.7517 37.8265 29.8297C37.7749 29.9358 37.6651 30.0094 37.5553 30.0094C37.4865 30.0094 37.4563 29.9942 37.3875 29.9249C37.3207 29.8578 37.3035 29.8253 37.3035 29.7604C37.3035 29.5438 37.536 29.4183 37.7146 29.5395Z" fill="#323232"/>
<path fill-rule="evenodd" clip-rule="evenodd" d="M39.9446 29.4335C39.8327 29.4746 39.7875 29.5201 39.7444 29.6327C39.6584 29.8622 39.8327 30.0961 40.091 30.0961C40.2115 30.0961 40.3514 30.0268 40.4009 29.9423C40.4784 29.8146 40.4117 29.7994 40.2782 29.9142C40.2179 29.964 40.1577 29.9965 40.1017 30.003C40.0264 30.0138 40.0092 30.0073 39.9425 29.9402C39.8155 29.8124 39.8133 29.689 39.9403 29.5612C40.0329 29.4681 40.1039 29.4681 40.2524 29.5656C40.3815 29.65 40.4332 29.6392 40.3815 29.5418C40.3213 29.4313 40.0996 29.375 39.9446 29.4335Z" fill="#323232"/>
<path fill-rule="evenodd" clip-rule="evenodd" d="M40.8421 29.4183C40.7668 29.4335 40.6226 29.5699 40.5967 29.6543C40.5666 29.7474 40.5795 29.8362 40.6441 29.9402C40.7044 30.0376 40.8313 30.0939 40.9928 30.0961C41.1133 30.0961 41.1219 30.0917 41.2144 29.9986C41.2682 29.9467 41.307 29.8904 41.3027 29.8752C41.2855 29.8232 41.2274 29.8341 41.1649 29.8969C41.0466 30.0138 40.9669 30.0354 40.855 29.977C40.7259 29.9098 40.6871 29.7258 40.7754 29.5959C40.8615 29.466 40.9648 29.466 41.1714 29.6002C41.2381 29.6413 41.2424 29.6435 41.2575 29.6089C41.3005 29.4919 41.0509 29.3772 40.8421 29.4183Z" fill="#323232"/>
<path fill-rule="evenodd" clip-rule="evenodd" d="M41.6923 29.4227C41.5115 29.4812 41.447 29.5916 41.4556 29.819C41.4577 29.8969 41.5546 30.0073 41.6622 30.055C41.8538 30.1437 42.1465 30.0701 42.2196 29.9142C42.295 29.7562 42.2455 29.5721 42.1056 29.479C42.0109 29.4162 41.8 29.3881 41.6923 29.4227ZM41.998 29.5353C42.0604 29.5591 42.1249 29.6782 42.1249 29.7692C42.1249 29.8904 41.9807 30.0095 41.8344 30.0095C41.7784 30.0095 41.7375 29.99 41.6773 29.9359C41.6041 29.8666 41.5976 29.8514 41.5976 29.7432C41.5976 29.6566 41.6084 29.6111 41.6385 29.5786C41.7139 29.4942 41.8516 29.479 41.998 29.5353Z" fill="#323232"/>
<path fill-rule="evenodd" clip-rule="evenodd" d="M24.7814 29.4508C24.7878 29.4659 24.8309 29.4811 24.8782 29.4854C24.9277 29.4898 24.9794 29.5071 24.9944 29.5244C25.0117 29.5461 25.0267 29.6522 25.031 29.8167C25.0396 30.0397 25.0461 30.0744 25.0762 30.0744C25.1494 30.0744 25.1645 30.0268 25.1645 29.8037C25.1645 29.5374 25.1881 29.4898 25.3151 29.4963C25.4055 29.4984 25.4357 29.4854 25.412 29.4486C25.3905 29.4118 24.7706 29.4161 24.7814 29.4508Z" fill="#323232"/>
<path fill-rule="evenodd" clip-rule="evenodd" d="M26.7178 29.4745C26.6705 29.5265 26.4918 29.9076 26.466 30.0137C26.4531 30.0656 26.4574 30.0743 26.494 30.0743C26.537 30.0743 26.5779 30.0375 26.6167 29.9574C26.636 29.9184 26.6597 29.9119 26.7931 29.9054L26.9481 29.8989L26.9782 29.9704C27.032 30.0981 27.1224 30.1328 27.1224 30.0245C27.1224 29.9617 26.933 29.5243 26.8814 29.468C26.8276 29.4117 26.7738 29.4139 26.7178 29.4745ZM26.8556 29.6975C26.8728 29.7907 26.8448 29.8253 26.7695 29.8058C26.7049 29.7907 26.6963 29.7387 26.7479 29.6672C26.7975 29.5958 26.8383 29.6088 26.8556 29.6975Z" fill="#323232"/>
<path fill-rule="evenodd" clip-rule="evenodd" d="M28.0524 29.4507C28.0589 29.4658 28.0761 29.481 28.0933 29.4831C28.1105 29.4853 28.16 29.4918 28.2052 29.5005L28.2849 29.5135V29.6499C28.2849 29.8816 28.3107 30.0548 28.3451 30.0699C28.4032 30.0916 28.4312 30.0115 28.4463 29.7603L28.4614 29.5135L28.5388 29.5005C28.584 29.4918 28.6314 29.4853 28.6486 29.4831C28.6658 29.481 28.683 29.4658 28.6895 29.4507C28.696 29.4312 28.6228 29.4247 28.371 29.4247C28.1191 29.4247 28.046 29.4312 28.0524 29.4507Z" fill="#323232"/>
<path fill-rule="evenodd" clip-rule="evenodd" d="M28.9283 29.4397C28.8573 29.4506 28.8444 29.5047 28.8444 29.7818C28.8444 30.0763 28.853 30.085 29.1844 30.085C29.3265 30.085 29.4513 30.0763 29.4599 30.0677C29.4922 30.0373 29.419 30.0092 29.3049 30.0092C29.2447 30.0092 29.15 30.0027 29.094 29.9962L28.995 29.981V29.8901V29.7992L29.1909 29.7862C29.3006 29.7797 29.3975 29.7645 29.4104 29.7515C29.4427 29.719 29.3351 29.6844 29.1973 29.6844C29.051 29.6844 28.995 29.6563 28.995 29.5848C28.995 29.5155 29.0617 29.4895 29.2425 29.4895C29.391 29.4895 29.4535 29.4744 29.4341 29.4441C29.4233 29.4246 29.0424 29.4224 28.9283 29.4397Z" fill="#323232"/>
<path fill-rule="evenodd" clip-rule="evenodd" d="M29.7034 29.4397C29.6754 29.4462 29.6668 29.4852 29.6582 29.6368C29.6539 29.7407 29.6539 29.8771 29.6582 29.9399C29.6668 30.0417 29.6732 30.059 29.7249 30.0785C29.8024 30.1088 30.0671 30.0893 30.151 30.046C30.3125 29.9616 30.377 29.7407 30.2866 29.5783C30.2178 29.457 30.1381 29.4246 29.9164 29.4267C29.8196 29.4289 29.7227 29.4332 29.7034 29.4397ZM30.0499 29.5112C30.1467 29.5372 30.2005 29.6259 30.2005 29.7602C30.2005 29.8425 30.1898 29.8728 30.1403 29.9226C30.0736 29.9875 29.9552 30.0222 29.8691 30.0005C29.8303 29.9919 29.8153 29.9681 29.8045 29.9074C29.783 29.7689 29.7895 29.5437 29.8174 29.5155C29.8497 29.483 29.9466 29.483 30.0499 29.5112Z" fill="#323232"/>
<path fill-rule="evenodd" clip-rule="evenodd" d="M30.9154 29.4445C30.8723 29.4705 30.8874 30.0464 30.9326 30.0746C30.9864 30.1071 31.0165 30.0551 31.023 29.9165L31.0294 29.7823L31.2124 29.7909C31.3157 29.7953 31.4018 29.8082 31.4104 29.8234C31.419 29.8364 31.4276 29.8754 31.4276 29.9122C31.4276 30.0096 31.4513 30.0746 31.4836 30.0746C31.5245 30.0746 31.5374 29.9663 31.5309 29.6848C31.5245 29.4531 31.5223 29.4358 31.4814 29.4358C31.447 29.4358 31.4362 29.4553 31.4255 29.5397C31.419 29.5982 31.3996 29.6545 31.3824 29.6653C31.3673 29.6762 31.2813 29.6848 31.1973 29.6848H31.0402V29.6112C31.0402 29.464 30.9885 29.3968 30.9154 29.4445Z" fill="#323232"/>
<path fill-rule="evenodd" clip-rule="evenodd" d="M34.1072 29.4507C34.0835 29.4637 34.0017 29.5243 33.9264 29.5806C33.7736 29.6997 33.7521 29.6953 33.7327 29.5503C33.7241 29.4853 33.709 29.455 33.6832 29.4507C33.6488 29.4442 33.6445 29.4702 33.6445 29.7451C33.6445 29.9097 33.6509 30.0526 33.6595 30.0591C33.6854 30.0851 33.7284 30.0266 33.7435 29.9465C33.7585 29.8577 33.8059 29.7711 33.8403 29.7711C33.8532 29.7711 33.935 29.8383 34.019 29.9227C34.1675 30.0656 34.2277 30.1003 34.2579 30.0548C34.2643 30.0418 34.2062 29.9617 34.1287 29.8707C34.0513 29.782 33.9888 29.6997 33.9888 29.6867C33.9888 29.6759 34.0469 29.6196 34.118 29.5654C34.2428 29.468 34.2643 29.4247 34.1868 29.4247C34.1675 29.4247 34.1309 29.4377 34.1072 29.4507Z" fill="#323232"/>
<path fill-rule="evenodd" clip-rule="evenodd" d="M34.6474 29.4637C34.5979 29.5222 34.3977 29.9682 34.3977 30.0245C34.3977 30.1133 34.5096 30.07 34.5441 29.9661C34.5677 29.9033 34.572 29.9011 34.7076 29.9011C34.8217 29.9011 34.8583 29.9098 34.8927 29.9444C34.9164 29.9682 34.9358 30.0029 34.9358 30.0202C34.9358 30.057 34.9982 30.0938 35.0391 30.0808C35.052 30.0743 35.0649 30.0548 35.0649 30.0354C35.0649 29.9791 34.8325 29.4832 34.7916 29.4507C34.7399 29.4139 34.6904 29.4182 34.6474 29.4637ZM34.7894 29.6867C34.8109 29.7604 34.8088 29.7777 34.783 29.795C34.7399 29.821 34.7141 29.8188 34.6667 29.7863C34.6302 29.7582 34.6302 29.7539 34.6775 29.6673C34.7055 29.6175 34.7356 29.5828 34.7442 29.5893C34.755 29.5958 34.7744 29.6391 34.7894 29.6867Z" fill="#323232"/>
<path fill-rule="evenodd" clip-rule="evenodd" d="M35.2521 29.4399C35.2435 29.4464 35.2371 29.5893 35.2371 29.7539C35.2371 30.0072 35.2414 30.057 35.2715 30.0678C35.3232 30.0873 35.3511 30.0419 35.3619 29.9119L35.3705 29.7928H35.4824C35.5427 29.7928 35.6266 29.7863 35.6697 29.7799L35.7472 29.7669L35.7579 29.9119C35.773 30.0873 35.7967 30.1176 35.8612 30.0527C35.9064 30.0072 35.9086 29.9899 35.9 29.7452C35.8914 29.5222 35.8849 29.481 35.8505 29.4551C35.7923 29.4118 35.7579 29.4529 35.7493 29.572L35.7428 29.6738H35.5599H35.377L35.3662 29.5763C35.3597 29.5222 35.3468 29.4659 35.3382 29.4507C35.3188 29.4226 35.2736 29.4161 35.2521 29.4399Z" fill="#323232"/>
<path fill-rule="evenodd" clip-rule="evenodd" d="M36.4038 29.4508C36.4103 29.4659 36.4641 29.4833 36.5244 29.4898C36.5846 29.4963 36.6406 29.5092 36.6513 29.5201C36.6599 29.5287 36.6729 29.6478 36.675 29.7821C36.6815 29.9575 36.6922 30.0354 36.7116 30.0527C36.7654 30.0982 36.7805 30.0571 36.7934 29.8167C36.8085 29.5244 36.8235 29.4919 36.9376 29.4963C37.028 29.4984 37.0581 29.4854 37.0344 29.4486C37.0129 29.4118 36.3931 29.4161 36.4038 29.4508Z" fill="#323232"/>
<path fill-rule="evenodd" clip-rule="evenodd" d="M38.1429 29.7127C38.1429 30.0829 38.1493 30.0959 38.3645 30.0959C38.4506 30.0959 38.5518 30.0873 38.5927 30.0743C38.7498 30.0288 38.8101 29.901 38.7304 29.7798C38.7003 29.7322 38.6981 29.7127 38.7218 29.6499C38.7519 29.5676 38.7326 29.5135 38.6551 29.4593C38.6185 29.4333 38.5496 29.4247 38.3753 29.4247H38.1429V29.7127ZM38.5195 29.52C38.597 29.5546 38.6185 29.6087 38.569 29.6585C38.5432 29.6845 38.3645 29.6932 38.3064 29.6715C38.2655 29.6564 38.2612 29.5524 38.2978 29.5156C38.3323 29.481 38.4291 29.4831 38.5195 29.52ZM38.612 29.8296C38.6486 29.8794 38.6443 29.9097 38.597 29.953C38.5432 30.0006 38.4076 30.0201 38.3323 29.9898C38.2828 29.9703 38.272 29.953 38.272 29.8902C38.272 29.8318 38.2828 29.8079 38.3215 29.7928C38.3904 29.7625 38.5776 29.7885 38.612 29.8296Z" fill="#323232"/>
<path fill-rule="evenodd" clip-rule="evenodd" d="M39.1911 29.4508C39.1352 29.4941 38.8898 30.0332 38.9156 30.0592C38.9479 30.0917 39.0017 30.0614 39.0491 29.9769C39.0943 29.9011 39.0964 29.9011 39.2428 29.9011C39.3848 29.9011 39.3913 29.9033 39.4236 29.9639C39.4666 30.0505 39.5419 30.1025 39.5764 30.0722C39.6087 30.044 39.5893 29.9834 39.4494 29.6803C39.3396 29.4421 39.2772 29.388 39.1911 29.4508ZM39.3009 29.7128C39.3095 29.8037 39.2729 29.8318 39.1997 29.7929C39.1438 29.7626 39.1438 29.7474 39.1997 29.6759C39.2578 29.6002 39.2923 29.6132 39.3009 29.7128Z" fill="#323232"/>
</svg>
