<svg width="80" height="58" viewBox="0 0 80 58" fill="none" xmlns="http://www.w3.org/2000/svg">
<path d="M65.1232 21.1034C66.3303 24.364 66.7353 27.8593 66.3052 31.3033C65.8751 34.7474 64.6221 38.0425 62.6486 40.9192C60.6751 43.7959 58.0372 46.1725 54.9505 47.8548C51.8639 49.537 48.4161 50.4771 44.889 50.5982L44.6159 42.9071C46.9084 42.8284 49.1495 42.2173 51.1559 41.1239C53.1622 40.0304 54.8768 38.4856 56.1596 36.6158C57.4424 34.7459 58.2568 32.6041 58.5364 30.3654C58.816 28.1268 58.5527 25.8549 57.7681 23.7355L65.1232 21.1034Z" fill="#FF5050"/>
<path d="M22.6116 22.563C23.9133 18.0994 26.6188 14.1557 30.3403 11.2969C34.0619 8.43817 38.6083 6.81117 43.3281 6.64912C48.0479 6.48707 52.6987 7.79829 56.614 10.3948C60.5293 12.9914 63.508 16.74 65.1232 21.1034L57.7681 23.7355C56.7182 20.8993 54.782 18.4627 52.2371 16.7749C49.6922 15.0872 46.6692 14.2349 43.6013 14.3402C40.5334 14.4455 37.5782 15.5031 35.1592 17.3613C32.7402 19.2195 30.9817 21.7829 30.1355 24.6842L22.6116 22.563Z" fill="#EC1A2D"/>
<path d="M44.8891 50.5982C41.362 50.7193 37.8559 50.018 34.6574 48.5515C31.4589 47.0851 28.6588 44.8951 26.486 42.1608C24.3133 39.4265 22.8295 36.2253 22.1561 32.8192C21.4827 29.413 21.6388 25.8985 22.6116 22.563L30.1355 24.6842C29.5032 26.8523 29.4018 29.1367 29.8395 31.3507C30.2772 33.5648 31.2416 35.6455 32.6539 37.4228C34.0662 39.2001 35.8863 40.6236 37.9653 41.5768C40.0444 42.53 42.3233 42.9858 44.6159 42.9071L44.8891 50.5982Z" fill="#EA422B"/>
<path d="M28.3209 42.3548L25.6873 45.6841H14.7764" stroke="black" stroke-width="0.145684"/>
<path d="M1.18723 44.1092C0.916457 44.1092 0.697757 44.0303 0.531129 43.8726C0.367476 43.7149 0.285649 43.5052 0.285649 43.2433V41.7794C0.285649 41.5175 0.367476 41.3077 0.531129 41.15C0.697757 40.9923 0.916457 40.9135 1.18723 40.9135C1.36576 40.9135 1.52197 40.9492 1.65587 41.0206C1.79275 41.092 1.89838 41.1917 1.97276 41.3197C2.05013 41.4476 2.08881 41.5949 2.08881 41.7615V41.8865C2.08881 41.9162 2.07393 41.9311 2.04418 41.9311H1.81655C1.78679 41.9311 1.77192 41.9162 1.77192 41.8865V41.7615C1.77192 41.5919 1.71836 41.455 1.61124 41.3509C1.50412 41.2438 1.36278 41.1902 1.18723 41.1902C1.01167 41.1902 0.870337 41.2438 0.763219 41.3509C0.6561 41.455 0.602541 41.5949 0.602541 41.7704V43.2522C0.602541 43.4248 0.6561 43.5647 0.763219 43.6718C0.873312 43.7789 1.01614 43.8325 1.19169 43.8325C1.36725 43.8325 1.5071 43.7819 1.61124 43.6807C1.71836 43.5796 1.77192 43.4427 1.77192 43.2701V42.7836C1.77192 42.7717 1.76597 42.7657 1.75406 42.7657H1.23186C1.20211 42.7657 1.18723 42.7509 1.18723 42.7211V42.5337C1.18723 42.5039 1.20211 42.489 1.23186 42.489H2.04418C2.07393 42.489 2.08881 42.5039 2.08881 42.5337V43.2299C2.08881 43.5007 2.00698 43.7149 1.84333 43.8726C1.67968 44.0303 1.46098 44.1092 1.18723 44.1092ZM4.27682 44.0735C4.25302 44.0735 4.23665 44.0616 4.22772 44.0378L3.67428 42.6586C3.6713 42.6497 3.66535 42.6452 3.65643 42.6452H3.08067C3.06876 42.6452 3.06281 42.6512 3.06281 42.6631V44.0289C3.06281 44.0586 3.04793 44.0735 3.01818 44.0735H2.79055C2.7608 44.0735 2.74592 44.0586 2.74592 44.0289V40.9938C2.74592 40.9641 2.7608 40.9492 2.79055 40.9492H3.73677C3.89149 40.9492 4.02837 40.9849 4.14739 41.0563C4.26938 41.1277 4.36311 41.2289 4.42857 41.3598C4.49701 41.4907 4.53123 41.641 4.53123 41.8106C4.53123 42.0129 4.48213 42.1855 4.38394 42.3283C4.28575 42.4712 4.15185 42.5664 3.98224 42.614C3.97034 42.6199 3.96737 42.6274 3.97332 42.6363L4.54908 44.0199L4.55354 44.0378C4.55354 44.0616 4.54015 44.0735 4.51337 44.0735H4.27682ZM3.08067 41.2259C3.06876 41.2259 3.06281 41.2319 3.06281 41.2438V42.373C3.06281 42.3849 3.06876 42.3908 3.08067 42.3908H3.6966C3.85132 42.3908 3.97629 42.3373 4.07151 42.2302C4.16673 42.123 4.21433 41.9832 4.21433 41.8106C4.21433 41.6351 4.16673 41.4937 4.07151 41.3866C3.97629 41.2795 3.85132 41.2259 3.6966 41.2259H3.08067ZM6.73033 44.0735C6.70355 44.0735 6.68718 44.0601 6.68123 44.0333L6.53394 43.4754C6.53097 43.4665 6.52353 43.462 6.51163 43.462H5.44491C5.433 43.462 5.42557 43.4665 5.42259 43.4754L5.2753 44.0333C5.26935 44.0601 5.25299 44.0735 5.22621 44.0735H4.99412C4.97924 44.0735 4.96734 44.069 4.95841 44.0601C4.95246 44.0512 4.95097 44.0393 4.95395 44.0244L5.78858 40.9894C5.79453 40.9626 5.81089 40.9492 5.83767 40.9492H6.12332C6.1501 40.9492 6.16647 40.9626 6.17242 40.9894L7.00705 44.0244L7.01151 44.0378C7.01151 44.0616 6.99664 44.0735 6.96688 44.0735H6.73033ZM5.49847 43.1853C5.49549 43.1883 5.49549 43.1927 5.49847 43.1987C5.50442 43.2017 5.51037 43.2031 5.51632 43.2031H6.44021C6.44617 43.2031 6.45063 43.2017 6.4536 43.1987C6.45956 43.1927 6.46104 43.1883 6.45807 43.1853L5.98496 41.3911C5.98199 41.3851 5.97901 41.3821 5.97603 41.3821C5.97306 41.3821 5.97008 41.3851 5.96711 41.3911L5.49847 43.1853ZM8.4657 40.9447C8.70374 40.9447 8.89566 41.0251 9.04146 41.1858C9.19024 41.3435 9.26463 41.5532 9.26463 41.8151C9.26463 42.0739 9.19024 42.2822 9.04146 42.4399C8.89566 42.5947 8.70374 42.672 8.4657 42.672H7.80067C7.78877 42.672 7.78282 42.678 7.78282 42.6899V44.0289C7.78282 44.0586 7.76794 44.0735 7.73819 44.0735H7.51056C7.48081 44.0735 7.46593 44.0586 7.46593 44.0289V40.9894C7.46593 40.9596 7.48081 40.9447 7.51056 40.9447H8.4657ZM8.42553 42.4087C8.58323 42.4087 8.70969 42.3551 8.80491 42.248C8.90013 42.1409 8.94773 41.9981 8.94773 41.8195C8.94773 41.638 8.90013 41.4937 8.80491 41.3866C8.70969 41.2765 8.58323 41.2215 8.42553 41.2215H7.80067C7.78877 41.2215 7.78282 41.2274 7.78282 41.2393V42.3908C7.78282 42.4027 7.78877 42.4087 7.80067 42.4087H8.42553ZM11.5079 41.1813C11.5079 41.211 11.493 41.2259 11.4632 41.2259H10.1243C10.1124 41.2259 10.1064 41.2319 10.1064 41.2438V42.3507C10.1064 42.3626 10.1124 42.3685 10.1243 42.3685H11.0258C11.0556 42.3685 11.0705 42.3834 11.0705 42.4132V42.6006C11.0705 42.6304 11.0556 42.6452 11.0258 42.6452H10.1243C10.1124 42.6452 10.1064 42.6512 10.1064 42.6631V43.7789C10.1064 43.7908 10.1124 43.7968 10.1243 43.7968H11.4632C11.493 43.7968 11.5079 43.8116 11.5079 43.8414V44.0289C11.5079 44.0586 11.493 44.0735 11.4632 44.0735H9.83415C9.80439 44.0735 9.78951 44.0586 9.78951 44.0289V40.9938C9.78951 40.9641 9.80439 40.9492 9.83415 40.9492H11.4632C11.493 40.9492 11.5079 40.9641 11.5079 40.9938V41.1813ZM13.8091 41.1813C13.8091 41.211 13.7943 41.2259 13.7645 41.2259H12.43C12.4181 41.2259 12.4121 41.2319 12.4121 41.2438V42.3507C12.4121 42.3626 12.4181 42.3685 12.43 42.3685H13.3271C13.3569 42.3685 13.3717 42.3834 13.3717 42.4132V42.6006C13.3717 42.6304 13.3569 42.6452 13.3271 42.6452H12.43C12.4181 42.6452 12.4121 42.6512 12.4121 42.6631V44.0289C12.4121 44.0586 12.3973 44.0735 12.3675 44.0735H12.1399C12.1101 44.0735 12.0952 44.0586 12.0952 44.0289V40.9938C12.0952 40.9641 12.1101 40.9492 12.1399 40.9492H13.7645C13.7943 40.9492 13.8091 40.9641 13.8091 40.9938V41.1813ZM15.7968 44.0735C15.773 44.0735 15.7566 44.0616 15.7477 44.0378L15.1942 42.6586C15.1912 42.6497 15.1853 42.6452 15.1764 42.6452H14.6006C14.5887 42.6452 14.5827 42.6512 14.5827 42.6631V44.0289C14.5827 44.0586 14.5679 44.0735 14.5381 44.0735H14.3105C14.2807 44.0735 14.2659 44.0586 14.2659 44.0289V40.9938C14.2659 40.9641 14.2807 40.9492 14.3105 40.9492H15.2567C15.4114 40.9492 15.5483 40.9849 15.6673 41.0563C15.7893 41.1277 15.883 41.2289 15.9485 41.3598C16.0169 41.4907 16.0512 41.641 16.0512 41.8106C16.0512 42.0129 16.0021 42.1855 15.9039 42.3283C15.8057 42.4712 15.6718 42.5664 15.5022 42.614C15.4903 42.6199 15.4873 42.6274 15.4933 42.6363L16.069 44.0199L16.0735 44.0378C16.0735 44.0616 16.0601 44.0735 16.0333 44.0735H15.7968ZM14.6006 41.2259C14.5887 41.2259 14.5827 41.2319 14.5827 41.2438V42.373C14.5827 42.3849 14.5887 42.3908 14.6006 42.3908H15.2165C15.3713 42.3908 15.4962 42.3373 15.5914 42.2302C15.6867 42.123 15.7343 41.9832 15.7343 41.8106C15.7343 41.6351 15.6867 41.4937 15.5914 41.3866C15.4962 41.2795 15.3713 41.2259 15.2165 41.2259H14.6006ZM17.5076 44.1092C17.3261 44.1092 17.1654 44.0705 17.0256 43.9931C16.8887 43.9158 16.7816 43.8072 16.7042 43.6673C16.6298 43.5275 16.5926 43.3653 16.5926 43.1808V40.9938C16.5926 40.9641 16.6075 40.9492 16.6373 40.9492H16.8649C16.8947 40.9492 16.9095 40.9641 16.9095 40.9938V43.1987C16.9095 43.3891 16.9646 43.5424 17.0747 43.6584C17.1848 43.7744 17.3291 43.8325 17.5076 43.8325C17.6861 43.8325 17.8305 43.7744 17.9406 43.6584C18.0506 43.5424 18.1057 43.3891 18.1057 43.1987V40.9938C18.1057 40.9641 18.1206 40.9492 18.1503 40.9492H18.378C18.4077 40.9492 18.4226 40.9641 18.4226 40.9938V43.1808C18.4226 43.3653 18.3839 43.5275 18.3065 43.6673C18.2322 43.8072 18.125 43.9158 17.9852 43.9931C17.8483 44.0705 17.6891 44.1092 17.5076 44.1092ZM19.1748 44.0735C19.145 44.0735 19.1301 44.0586 19.1301 44.0289V40.9938C19.1301 40.9641 19.145 40.9492 19.1748 40.9492H19.4024C19.4321 40.9492 19.447 40.9641 19.447 40.9938V44.0289C19.447 44.0586 19.4321 44.0735 19.4024 44.0735H19.1748ZM21.8139 40.9492C21.8437 40.9492 21.8585 40.9641 21.8585 40.9938V41.1813C21.8585 41.211 21.8437 41.2259 21.8139 41.2259H21.0864C21.0745 41.2259 21.0685 41.2319 21.0685 41.2438V44.0289C21.0685 44.0586 21.0537 44.0735 21.0239 44.0735H20.7963C20.7665 44.0735 20.7516 44.0586 20.7516 44.0289V41.2438C20.7516 41.2319 20.7457 41.2259 20.7338 41.2259H20.0331C20.0033 41.2259 19.9884 41.211 19.9884 41.1813V40.9938C19.9884 40.9641 20.0033 40.9492 20.0331 40.9492H21.8139ZM1.71389 47.5917C1.77043 47.7464 1.7987 47.9235 1.7987 48.1228C1.7987 48.3013 1.77638 48.4561 1.73175 48.587C1.62165 48.9351 1.37766 49.1092 0.999772 49.1092C0.797437 49.1092 0.627833 49.0556 0.490959 48.9485C0.354086 48.8384 0.266308 48.6882 0.227627 48.4977C0.206798 48.4025 0.196384 48.2939 0.196384 48.1719C0.196384 48.1422 0.211261 48.1273 0.241016 48.1273H0.468643C0.498398 48.1273 0.513276 48.1422 0.513276 48.1719C0.519227 48.2999 0.526665 48.3861 0.535592 48.4308C0.562372 48.5557 0.615931 48.6539 0.69627 48.7254C0.776608 48.7968 0.877776 48.8325 0.999772 48.8325C1.22889 48.8325 1.37766 48.7164 1.4461 48.4843C1.47288 48.3772 1.48627 48.2493 1.48627 48.1005C1.48627 47.922 1.46693 47.7747 1.42825 47.6586C1.35088 47.4503 1.20806 47.3462 0.999772 47.3462C0.952164 47.3462 0.910506 47.3551 0.8748 47.373C0.856947 47.3789 0.846533 47.3819 0.843557 47.3819C0.831655 47.3819 0.821241 47.376 0.812315 47.3641L0.69627 47.2435C0.681392 47.2227 0.679904 47.2019 0.691806 47.1811L1.38808 46.2482C1.39403 46.2423 1.39551 46.2378 1.39254 46.2348C1.38956 46.2289 1.3851 46.2259 1.37915 46.2259H0.263333C0.233578 46.2259 0.2187 46.211 0.2187 46.1813V45.9938C0.2187 45.9641 0.233578 45.9492 0.263333 45.9492H1.74067C1.77043 45.9492 1.78531 45.9641 1.78531 45.9938V46.1947C1.78531 46.2185 1.77936 46.2378 1.76745 46.2527L1.12028 47.1364C1.1173 47.1394 1.1173 47.1439 1.12028 47.1498C1.12326 47.1558 1.12772 47.1587 1.13367 47.1587C1.27352 47.1647 1.39254 47.2049 1.49073 47.2793C1.58892 47.3536 1.66331 47.4578 1.71389 47.5917ZM3.18193 49.1181C2.92603 49.1181 2.72072 49.0408 2.56599 48.886C2.41127 48.7313 2.3339 48.5245 2.3339 48.2656V46.7571C2.3339 46.5012 2.41127 46.2958 2.56599 46.1411C2.72072 45.9864 2.92603 45.909 3.18193 45.909C3.44079 45.909 3.64759 45.9864 3.80232 46.1411C3.96002 46.2958 4.03887 46.5012 4.03887 46.7571V48.2656C4.03887 48.5245 3.96002 48.7313 3.80232 48.886C3.64759 49.0408 3.44079 49.1181 3.18193 49.1181ZM3.18193 48.8414C3.34558 48.8414 3.4765 48.7908 3.57469 48.6896C3.67288 48.5885 3.72198 48.4546 3.72198 48.288V46.7392C3.72198 46.5726 3.67288 46.4387 3.57469 46.3375C3.4765 46.2363 3.34558 46.1858 3.18193 46.1858C3.02422 46.1858 2.89628 46.2363 2.79808 46.3375C2.69989 46.4387 2.6508 46.5726 2.6508 46.7392V48.288C2.6508 48.4516 2.69989 48.5855 2.79808 48.6896C2.89628 48.7908 3.02422 48.8414 3.18193 48.8414ZM5.31495 47.1766C5.1989 47.1766 5.09178 47.1483 4.99359 47.0918C4.89838 47.0353 4.8225 46.9594 4.76597 46.8642C4.70943 46.766 4.68116 46.6589 4.68116 46.5428C4.68116 46.4268 4.70943 46.3211 4.76597 46.2259C4.8225 46.1277 4.89838 46.0504 4.99359 45.9938C5.09178 45.9373 5.1989 45.909 5.31495 45.909C5.42802 45.909 5.53216 45.9373 5.62738 45.9938C5.72557 46.0504 5.80293 46.1277 5.85947 46.2259C5.916 46.3211 5.94427 46.4268 5.94427 46.5428C5.94427 46.6589 5.916 46.766 5.85947 46.8642C5.80293 46.9594 5.72557 47.0353 5.62738 47.0918C5.53216 47.1483 5.42802 47.1766 5.31495 47.1766ZM5.21229 49.0735C5.19742 49.0735 5.18551 49.069 5.17659 49.0601C5.17064 49.0482 5.17212 49.0348 5.18105 49.0199L6.84139 45.9804C6.85031 45.9596 6.86817 45.9492 6.89494 45.9492H7.03777C7.05265 45.9492 7.06306 45.9552 7.06901 45.9671C7.07794 45.976 7.07794 45.9879 7.06901 46.0028L5.40868 49.0422C5.39975 49.0631 5.3819 49.0735 5.35512 49.0735H5.21229ZM5.31495 46.9802C5.43397 46.9802 5.53365 46.9386 5.61399 46.8552C5.6973 46.769 5.73896 46.6648 5.73896 46.5428C5.73896 46.4208 5.6973 46.3182 5.61399 46.2348C5.53365 46.1486 5.43397 46.1054 5.31495 46.1054C5.19593 46.1054 5.09476 46.1486 5.01145 46.2348C4.92813 46.3182 4.88647 46.4208 4.88647 46.5428C4.88647 46.6648 4.92813 46.769 5.01145 46.8552C5.09476 46.9386 5.19593 46.9802 5.31495 46.9802ZM6.95297 49.1137C6.83692 49.1137 6.7298 49.0854 6.63161 49.0289C6.5364 48.9723 6.46052 48.895 6.40399 48.7968C6.34745 48.6986 6.31918 48.5915 6.31918 48.4754C6.31918 48.3623 6.34745 48.2582 6.40399 48.163C6.46052 48.0648 6.5364 47.9874 6.63161 47.9309C6.7298 47.8744 6.83692 47.8461 6.95297 47.8461C7.06604 47.8461 7.17018 47.8744 7.2654 47.9309C7.36359 47.9874 7.44095 48.0648 7.49749 48.163C7.55402 48.2582 7.58229 48.3623 7.58229 48.4754C7.58229 48.5915 7.55402 48.6986 7.49749 48.7968C7.44095 48.895 7.36359 48.9723 7.2654 49.0289C7.17018 49.0854 7.06604 49.1137 6.95297 49.1137ZM6.95297 48.9173C7.07199 48.9173 7.17167 48.8741 7.25201 48.7878C7.33532 48.7015 7.37698 48.5974 7.37698 48.4754C7.37698 48.3534 7.33532 48.2508 7.25201 48.1674C7.17167 48.0841 7.07199 48.0425 6.95297 48.0425C6.83395 48.0425 6.73278 48.0841 6.64947 48.1674C6.56615 48.2508 6.52449 48.3534 6.52449 48.4754C6.52449 48.6004 6.56466 48.706 6.645 48.7923C6.72832 48.8756 6.83097 48.9173 6.95297 48.9173Z" fill="#404040"/>
<path d="M30.9977 13.0941L28.3673 9.71729H17.4696" stroke="black" stroke-width="0.145684"/>
<path d="M53.8503 47.2315L56.4808 50.6084H67.3784" stroke="black" stroke-width="0.145684"/>
<path d="M1.23622 8.04584C0.956526 8.04584 0.733363 7.97294 0.566734 7.82714C0.403081 7.67836 0.321254 7.48049 0.321254 7.23352V7.11302C0.321254 7.08326 0.336132 7.06838 0.365887 7.06838H0.584587C0.614342 7.06838 0.62922 7.08326 0.62922 7.11302V7.21567C0.62922 7.3823 0.685754 7.5162 0.798824 7.61736C0.911893 7.71853 1.06216 7.76912 1.24961 7.76912C1.42517 7.76912 1.56353 7.72151 1.6647 7.62629C1.76586 7.53107 1.81645 7.4061 1.81645 7.25138C1.81645 7.15021 1.79264 7.06243 1.74504 6.98804C1.69743 6.91366 1.6275 6.84522 1.53526 6.78273C1.44302 6.72025 1.31061 6.6414 1.13803 6.54618C0.95355 6.44799 0.80775 6.3617 0.700632 6.28731C0.596489 6.21292 0.511687 6.12217 0.446226 6.01505C0.380764 5.90793 0.348034 5.77701 0.348034 5.62228C0.348034 5.38127 0.425397 5.19232 0.580124 5.05545C0.73485 4.91858 0.941648 4.85014 1.20052 4.85014C1.47724 4.85014 1.69743 4.92601 1.86108 5.07777C2.02473 5.22952 2.10656 5.43036 2.10656 5.68031V5.78296C2.10656 5.81272 2.09168 5.82759 2.06193 5.82759H1.83876C1.80901 5.82759 1.79413 5.81272 1.79413 5.78296V5.68477C1.79413 5.51814 1.74057 5.38424 1.63345 5.28308C1.52634 5.17893 1.37905 5.12686 1.19159 5.12686C1.02496 5.12686 0.89404 5.17001 0.798824 5.2563C0.706583 5.34259 0.660462 5.46458 0.660462 5.62228C0.660462 5.72345 0.682779 5.80825 0.727412 5.87669C0.772044 5.94513 0.836018 6.00761 0.919332 6.06415C1.00562 6.12068 1.13654 6.19656 1.3121 6.29177C1.51443 6.40484 1.66916 6.50155 1.77628 6.58189C1.88637 6.65925 1.97266 6.75 2.03515 6.85415C2.10061 6.95531 2.13334 7.08028 2.13334 7.22906C2.13334 7.479 2.053 7.67836 1.89232 7.82714C1.73165 7.97294 1.51295 8.04584 1.23622 8.04584ZM4.25974 4.88585C4.28949 4.88585 4.30437 4.90072 4.30437 4.93048V5.11794C4.30437 5.14769 4.28949 5.16257 4.25974 5.16257H3.53223C3.52032 5.16257 3.51437 5.16852 3.51437 5.18042V7.9655C3.51437 7.99525 3.4995 8.01013 3.46974 8.01013H3.24211C3.21236 8.01013 3.19748 7.99525 3.19748 7.9655V5.18042C3.19748 5.16852 3.19153 5.16257 3.17963 5.16257H2.47889C2.44914 5.16257 2.43426 5.14769 2.43426 5.11794V4.93048C2.43426 4.90072 2.44914 4.88585 2.47889 4.88585H4.25974ZM6.38021 8.01013C6.3564 8.01013 6.34004 7.99823 6.33111 7.97443L5.77767 6.59528C5.77469 6.58635 5.76874 6.58189 5.75981 6.58189H5.18405C5.17215 6.58189 5.1662 6.58784 5.1662 6.59974V7.9655C5.1662 7.99525 5.15132 8.01013 5.12157 8.01013H4.89394C4.86419 8.01013 4.84931 7.99525 4.84931 7.9655V4.93048C4.84931 4.90072 4.86419 4.88585 4.89394 4.88585H5.84015C5.99488 4.88585 6.13175 4.92155 6.25077 4.99296C6.37277 5.06438 6.4665 5.16554 6.53196 5.29647C6.6004 5.42739 6.63461 5.57765 6.63461 5.74726C6.63461 5.94959 6.58552 6.12217 6.48733 6.26499C6.38913 6.40782 6.25524 6.50304 6.08563 6.55064C6.07373 6.55659 6.07075 6.56403 6.07671 6.57296L6.65247 7.95657L6.65693 7.97443C6.65693 7.99823 6.64354 8.01013 6.61676 8.01013H6.38021ZM5.18405 5.16257C5.17215 5.16257 5.1662 5.16852 5.1662 5.18042V6.30963C5.1662 6.32153 5.17215 6.32748 5.18405 6.32748H5.79998C5.95471 6.32748 6.07968 6.27392 6.1749 6.1668C6.27011 6.05968 6.31772 5.91984 6.31772 5.74726C6.31772 5.5717 6.27011 5.43036 6.1749 5.32325C6.07968 5.21613 5.95471 5.16257 5.79998 5.16257H5.18405ZM8.83371 8.01013C8.80694 8.01013 8.79057 7.99674 8.78462 7.96996L8.63733 7.41205C8.63436 7.40313 8.62692 7.39866 8.61501 7.39866H7.54829C7.53639 7.39866 7.52895 7.40313 7.52598 7.41205L7.37869 7.96996C7.37274 7.99674 7.35637 8.01013 7.32959 8.01013H7.0975C7.08263 8.01013 7.07072 8.00567 7.0618 7.99674C7.05585 7.98782 7.05436 7.97591 7.05733 7.96104L7.89197 4.92601C7.89792 4.89923 7.91428 4.88585 7.94106 4.88585H8.22671C8.25349 4.88585 8.26986 4.89923 8.27581 4.92601L9.11044 7.96104L9.1149 7.97443C9.1149 7.99823 9.10002 8.01013 9.07027 8.01013H8.83371ZM7.60185 7.12194C7.59888 7.12492 7.59888 7.12938 7.60185 7.13533C7.6078 7.13831 7.61376 7.13979 7.61971 7.13979H8.5436C8.54955 7.13979 8.55402 7.13831 8.55699 7.13533C8.56294 7.12938 8.56443 7.12492 8.56146 7.12194L8.08835 5.32771C8.08537 5.32176 8.0824 5.31878 8.07942 5.31878C8.07645 5.31878 8.07347 5.32176 8.0705 5.32771L7.60185 7.12194ZM9.88283 8.01013C9.85605 8.01013 9.83968 7.99674 9.83373 7.96996L9.11514 4.93494L9.11068 4.91709C9.11068 4.89626 9.12407 4.88585 9.15085 4.88585H9.39187C9.41865 4.88585 9.43501 4.89923 9.44096 4.92601L9.98548 7.32279C9.98846 7.33172 9.99143 7.33618 9.99441 7.33618C10.0004 7.33618 10.0048 7.33172 10.0078 7.32279L10.5032 4.92601C10.5092 4.89923 10.5255 4.88585 10.5523 4.88585H10.7755C10.8052 4.88585 10.8216 4.89923 10.8246 4.92601L11.3379 7.32279C11.3408 7.33172 11.3438 7.33618 11.3468 7.33618C11.3498 7.33618 11.3527 7.33172 11.3557 7.32279L11.8868 4.92601C11.8928 4.89923 11.9091 4.88585 11.9359 4.88585H12.168C12.1978 4.88585 12.2097 4.90221 12.2037 4.93494L11.5075 7.96996C11.5015 7.99674 11.4851 8.01013 11.4584 8.01013H11.2307C11.204 8.01013 11.1876 7.99674 11.1816 7.96996L10.6728 5.53748C10.6698 5.52856 10.6669 5.52409 10.6639 5.52409C10.6609 5.52409 10.6579 5.52856 10.655 5.53748L10.1506 7.96996C10.1476 7.99674 10.1313 8.01013 10.1015 8.01013H9.88283ZM14.0298 6.38104C14.015 6.38699 14.015 6.39443 14.0298 6.40336C14.1697 6.47179 14.2768 6.56998 14.3512 6.69793C14.4285 6.82588 14.4687 6.9806 14.4717 7.16211C14.4717 7.42991 14.3914 7.63819 14.2307 7.78697C14.073 7.93574 13.8632 8.01013 13.6014 8.01013H12.7221C12.6923 8.01013 12.6775 7.99525 12.6775 7.9655V4.93048C12.6775 4.90072 12.6923 4.88585 12.7221 4.88585H13.5656C13.8394 4.88585 14.0536 4.95726 14.2084 5.10008C14.3631 5.23993 14.4404 5.44078 14.4404 5.70262C14.4404 5.86925 14.4047 6.0091 14.3333 6.12217C14.2649 6.23524 14.1637 6.32153 14.0298 6.38104ZM13.0122 5.16257C13.0003 5.16257 12.9944 5.16852 12.9944 5.18042V6.25607C12.9944 6.26797 13.0003 6.27392 13.0122 6.27392H13.5701C13.7427 6.27392 13.8781 6.22483 13.9763 6.12663C14.0774 6.02844 14.128 5.89603 14.128 5.7294C14.128 5.55385 14.0774 5.41549 13.9763 5.31432C13.8781 5.21315 13.7427 5.16257 13.5701 5.16257H13.0122ZM13.5924 7.72895C13.765 7.72895 13.9019 7.67539 14.003 7.56827C14.1042 7.46115 14.1548 7.31535 14.1548 7.13087C14.1548 6.94341 14.1027 6.79612 13.9986 6.689C13.8974 6.58189 13.7591 6.52833 13.5835 6.52833H13.0122C13.0003 6.52833 12.9944 6.53428 12.9944 6.54618V7.71109C12.9944 7.723 13.0003 7.72895 13.0122 7.72895H13.5924ZM16.78 5.11794C16.78 5.14769 16.7651 5.16257 16.7354 5.16257H15.3964C15.3845 5.16257 15.3785 5.16852 15.3785 5.18042V6.28731C15.3785 6.29921 15.3845 6.30516 15.3964 6.30516H16.298C16.3277 6.30516 16.3426 6.32004 16.3426 6.3498V6.53725C16.3426 6.56701 16.3277 6.58189 16.298 6.58189H15.3964C15.3845 6.58189 15.3785 6.58784 15.3785 6.59974V7.71556C15.3785 7.72746 15.3845 7.73341 15.3964 7.73341H16.7354C16.7651 7.73341 16.78 7.74829 16.78 7.77804V7.9655C16.78 7.99525 16.7651 8.01013 16.7354 8.01013H15.1063C15.0765 8.01013 15.0616 7.99525 15.0616 7.9655V4.93048C15.0616 4.90072 15.0765 4.88585 15.1063 4.88585H16.7354C16.7651 4.88585 16.78 4.90072 16.78 4.93048V5.11794ZM18.8983 8.01013C18.8745 8.01013 18.8581 7.99823 18.8492 7.97443L18.2957 6.59528C18.2928 6.58635 18.2868 6.58189 18.2779 6.58189H17.7021C17.6902 6.58189 17.6843 6.58784 17.6843 6.59974V7.9655C17.6843 7.99525 17.6694 8.01013 17.6396 8.01013H17.412C17.3823 8.01013 17.3674 7.99525 17.3674 7.9655V4.93048C17.3674 4.90072 17.3823 4.88585 17.412 4.88585H18.3582C18.5129 4.88585 18.6498 4.92155 18.7688 4.99296C18.8908 5.06438 18.9846 5.16554 19.05 5.29647C19.1185 5.42739 19.1527 5.57765 19.1527 5.74726C19.1527 5.94959 19.1036 6.12217 19.0054 6.26499C18.9072 6.40782 18.7733 6.50304 18.6037 6.55064C18.5918 6.55659 18.5888 6.56403 18.5948 6.57296L19.1705 7.95657L19.175 7.97443C19.175 7.99823 19.1616 8.01013 19.1348 8.01013H18.8983ZM17.7021 5.16257C17.6902 5.16257 17.6843 5.16852 17.6843 5.18042V6.30963C17.6843 6.32153 17.6902 6.32748 17.7021 6.32748H18.3181C18.4728 6.32748 18.5977 6.27392 18.693 6.1668C18.7882 6.05968 18.8358 5.91984 18.8358 5.74726C18.8358 5.5717 18.7882 5.43036 18.693 5.32325C18.5977 5.21613 18.4728 5.16257 18.3181 5.16257H17.7021ZM21.2563 8.01013C21.2325 8.01013 21.2161 7.99823 21.2072 7.97443L20.6538 6.59528C20.6508 6.58635 20.6448 6.58189 20.6359 6.58189H20.0602C20.0483 6.58189 20.0423 6.58784 20.0423 6.59974V7.9655C20.0423 7.99525 20.0274 8.01013 19.9977 8.01013H19.77C19.7403 8.01013 19.7254 7.99525 19.7254 7.9655V4.93048C19.7254 4.90072 19.7403 4.88585 19.77 4.88585H20.7163C20.871 4.88585 21.0079 4.92155 21.1269 4.99296C21.2489 5.06438 21.3426 5.16554 21.4081 5.29647C21.4765 5.42739 21.5107 5.57765 21.5107 5.74726C21.5107 5.94959 21.4616 6.12217 21.3634 6.26499C21.2652 6.40782 21.1313 6.50304 20.9617 6.55064C20.9498 6.55659 20.9469 6.56403 20.9528 6.57296L21.5286 7.95657L21.533 7.97443C21.533 7.99823 21.5196 8.01013 21.4929 8.01013H21.2563ZM20.0602 5.16257C20.0483 5.16257 20.0423 5.16852 20.0423 5.18042V6.30963C20.0423 6.32153 20.0483 6.32748 20.0602 6.32748H20.6761C20.8308 6.32748 20.9558 6.27392 21.051 6.1668C21.1462 6.05968 21.1938 5.91984 21.1938 5.74726C21.1938 5.5717 21.1462 5.43036 21.051 5.32325C20.9558 5.21613 20.8308 5.16257 20.6761 5.16257H20.0602ZM22.6515 8.00567C22.6218 8.00567 22.6069 7.99079 22.6069 7.96104V6.63098C22.6069 6.61908 22.6054 6.61164 22.6024 6.60867L21.8303 4.9394L21.8258 4.92155C21.8258 4.89775 21.8392 4.88585 21.866 4.88585H22.107C22.1308 4.88585 22.1472 4.89775 22.1561 4.92155L22.7542 6.25607C22.7572 6.26202 22.7616 6.26499 22.7676 6.26499C22.7735 6.26499 22.778 6.26202 22.781 6.25607L23.379 4.92155C23.388 4.89775 23.4043 4.88585 23.4281 4.88585H23.6692C23.684 4.88585 23.6945 4.8918 23.7004 4.9037C23.7093 4.91262 23.7108 4.92453 23.7049 4.9394L22.9283 6.60867C22.9253 6.61164 22.9238 6.61908 22.9238 6.63098V7.96104C22.9238 7.99079 22.9089 8.00567 22.8792 8.00567H22.6515ZM23.8492 6.76042C23.8194 6.76042 23.8046 6.74554 23.8046 6.71578V6.52833C23.8046 6.49857 23.8194 6.48369 23.8492 6.48369H25.0186C25.0483 6.48369 25.0632 6.49857 25.0632 6.52833V6.71578C25.0632 6.74554 25.0483 6.76042 25.0186 6.76042H23.8492ZM0.526564 13.0101C0.496809 13.0101 0.481932 12.9953 0.481932 12.9655V9.93048C0.481932 9.90072 0.496809 9.88585 0.526564 9.88585H0.754191C0.783946 9.88585 0.798824 9.90072 0.798824 9.93048V12.7156C0.798824 12.7275 0.804775 12.7334 0.816677 12.7334H2.11549C2.14524 12.7334 2.16012 12.7483 2.16012 12.778V12.9655C2.16012 12.9953 2.14524 13.0101 2.11549 13.0101H0.526564ZM3.14654 13.0057C3.11678 13.0057 3.1019 12.9908 3.1019 12.961V11.631C3.1019 11.6191 3.10042 11.6116 3.09744 11.6087L2.3253 9.9394L2.32083 9.92155C2.32083 9.89775 2.33422 9.88585 2.361 9.88585H2.60202C2.62582 9.88585 2.64219 9.89775 2.65111 9.92155L3.24919 11.2561C3.25217 11.262 3.25663 11.265 3.26258 11.265C3.26853 11.265 3.273 11.262 3.27597 11.2561L3.87405 9.92155C3.88298 9.89775 3.89934 9.88585 3.92315 9.88585H4.16416C4.17904 9.88585 4.18945 9.8918 4.1954 9.9037C4.20433 9.91262 4.20582 9.92453 4.19987 9.9394L3.42326 11.6087C3.42028 11.6116 3.4188 11.6191 3.4188 11.631V12.961C3.4188 12.9908 3.40392 13.0057 3.37416 13.0057H3.14654ZM5.47866 13.0458C5.20789 13.0458 4.98919 12.9655 4.82256 12.8048C4.65891 12.6441 4.57708 12.4314 4.57708 12.1666V10.7249C4.57708 10.4601 4.65891 10.2489 4.82256 10.0912C4.98919 9.93048 5.20789 9.85014 5.47866 9.85014C5.75241 9.85014 5.97111 9.92899 6.13476 10.0867C6.30139 10.2444 6.38471 10.4542 6.38471 10.716V10.7562C6.38471 10.7859 6.36983 10.8008 6.34007 10.8008L6.11245 10.8097C6.08269 10.8097 6.06781 10.7964 6.06781 10.7696V10.7071C6.06781 10.5345 6.01277 10.3947 5.90267 10.2875C5.79556 10.1804 5.65422 10.1269 5.47866 10.1269C5.30311 10.1269 5.16177 10.1804 5.05465 10.2875C4.94753 10.3917 4.89398 10.5315 4.89398 10.7071V12.1889C4.89398 12.3644 4.94753 12.5058 5.05465 12.6129C5.16177 12.717 5.30311 12.7691 5.47866 12.7691C5.65422 12.7691 5.79556 12.7156 5.90267 12.6084C6.01277 12.5013 6.06781 12.3615 6.06781 12.1889V12.1264C6.06781 12.0996 6.08269 12.0862 6.11245 12.0862L6.34007 12.0996C6.36983 12.0996 6.38471 12.1145 6.38471 12.1443V12.1755C6.38471 12.4373 6.30139 12.6486 6.13476 12.8093C5.97111 12.967 5.75241 13.0458 5.47866 13.0458ZM8.47069 9.93048C8.47069 9.90072 8.48557 9.88585 8.51532 9.88585H8.74295C8.77271 9.88585 8.78758 9.90072 8.78758 9.93048V12.9655C8.78758 12.9953 8.77271 13.0101 8.74295 13.0101H8.51532C8.48557 13.0101 8.47069 12.9953 8.47069 12.9655V11.5997C8.47069 11.5878 8.46474 11.5819 8.45284 11.5819H7.34595C7.33405 11.5819 7.32809 11.5878 7.32809 11.5997V12.9655C7.32809 12.9953 7.31322 13.0101 7.28346 13.0101H7.05584C7.02608 13.0101 7.0112 12.9953 7.0112 12.9655V9.93048C7.0112 9.90072 7.02608 9.88585 7.05584 9.88585H7.28346C7.31322 9.88585 7.32809 9.90072 7.32809 9.93048V11.2873C7.32809 11.2992 7.33405 11.3052 7.34595 11.3052H8.45284C8.46474 11.3052 8.47069 11.2992 8.47069 11.2873V9.93048ZM11.2271 10.1179C11.2271 10.1477 11.2122 10.1626 11.1824 10.1626H9.84346C9.83156 10.1626 9.82561 10.1685 9.82561 10.1804V11.2873C9.82561 11.2992 9.83156 11.3052 9.84346 11.3052H10.745C10.7748 11.3052 10.7897 11.32 10.7897 11.3498V11.5373C10.7897 11.567 10.7748 11.5819 10.745 11.5819H9.84346C9.83156 11.5819 9.82561 11.5878 9.82561 11.5997V12.7156C9.82561 12.7275 9.83156 12.7334 9.84346 12.7334H11.1824C11.2122 12.7334 11.2271 12.7483 11.2271 12.778V12.9655C11.2271 12.9953 11.2122 13.0101 11.1824 13.0101H9.55335C9.52359 13.0101 9.50871 12.9953 9.50871 12.9655V9.93048C9.50871 9.90072 9.52359 9.88585 9.55335 9.88585H11.1824C11.2122 9.88585 11.2271 9.90072 11.2271 9.93048V10.1179ZM13.5328 10.1179C13.5328 10.1477 13.5179 10.1626 13.4882 10.1626H12.1492C12.1373 10.1626 12.1313 10.1685 12.1313 10.1804V11.2873C12.1313 11.2992 12.1373 11.3052 12.1492 11.3052H13.0508C13.0805 11.3052 13.0954 11.32 13.0954 11.3498V11.5373C13.0954 11.567 13.0805 11.5819 13.0508 11.5819H12.1492C12.1373 11.5819 12.1313 11.5878 12.1313 11.5997V12.7156C12.1313 12.7275 12.1373 12.7334 12.1492 12.7334H13.4882C13.5179 12.7334 13.5328 12.7483 13.5328 12.778V12.9655C13.5328 12.9953 13.5179 13.0101 13.4882 13.0101H11.8591C11.8293 13.0101 11.8144 12.9953 11.8144 12.9655V9.93048C11.8144 9.90072 11.8293 9.88585 11.8591 9.88585H13.4882C13.5179 9.88585 13.5328 9.90072 13.5328 9.93048V10.1179ZM16.5714 11.8675C16.6011 11.8675 16.616 11.8824 16.616 11.9122V12.1086C16.616 12.1383 16.6011 12.1532 16.5714 12.1532H16.4062C16.3943 12.1532 16.3884 12.1591 16.3884 12.171V12.9655C16.3884 12.9953 16.3735 13.0101 16.3438 13.0101H16.1161C16.0864 13.0101 16.0715 12.9953 16.0715 12.9655V12.171C16.0715 12.1591 16.0655 12.1532 16.0536 12.1532H14.8441C14.8143 12.1532 14.7995 12.1383 14.7995 12.1086V11.9389C14.7995 11.9181 14.8024 11.9003 14.8084 11.8854L15.6029 9.92155C15.6118 9.89775 15.6281 9.88585 15.6519 9.88585H15.8974C15.9123 9.88585 15.9227 9.8918 15.9287 9.9037C15.9346 9.91262 15.9346 9.92453 15.9287 9.9394L15.1699 11.8452C15.1669 11.8512 15.1669 11.8571 15.1699 11.8631C15.1729 11.866 15.1774 11.8675 15.1833 11.8675H16.0536C16.0655 11.8675 16.0715 11.8616 16.0715 11.8497V11.1445C16.0715 11.1147 16.0864 11.0999 16.1161 11.0999H16.3438C16.3735 11.0999 16.3884 11.1147 16.3884 11.1445V11.8497C16.3884 11.8616 16.3943 11.8675 16.4062 11.8675H16.5714ZM17.9211 13.0548C17.6652 13.0548 17.4599 12.9774 17.3051 12.8227C17.1504 12.6679 17.073 12.4612 17.073 12.2023V10.6937C17.073 10.4378 17.1504 10.2325 17.3051 10.0778C17.4599 9.92304 17.6652 9.84568 17.9211 9.84568C18.1799 9.84568 18.3867 9.92304 18.5415 10.0778C18.6992 10.2325 18.778 10.4378 18.778 10.6937V12.2023C18.778 12.4612 18.6992 12.6679 18.5415 12.8227C18.3867 12.9774 18.1799 13.0548 17.9211 13.0548ZM17.9211 12.778C18.0847 12.778 18.2156 12.7275 18.3138 12.6263C18.412 12.5251 18.4611 12.3912 18.4611 12.2246V10.6758C18.4611 10.5092 18.412 10.3753 18.3138 10.2741C18.2156 10.173 18.0847 10.1224 17.9211 10.1224C17.7634 10.1224 17.6354 10.173 17.5372 10.2741C17.439 10.3753 17.3899 10.5092 17.3899 10.6758V12.2246C17.3899 12.3883 17.439 12.5221 17.5372 12.6263C17.6354 12.7275 17.7634 12.778 17.9211 12.778ZM20.0541 11.1132C19.938 11.1132 19.8309 11.085 19.7327 11.0284C19.6375 10.9719 19.5616 10.896 19.5051 10.8008C19.4486 10.7026 19.4203 10.5955 19.4203 10.4795C19.4203 10.3634 19.4486 10.2578 19.5051 10.1626C19.5616 10.0644 19.6375 9.98701 19.7327 9.93048C19.8309 9.87394 19.938 9.84568 20.0541 9.84568C20.1672 9.84568 20.2713 9.87394 20.3665 9.93048C20.4647 9.98701 20.5421 10.0644 20.5986 10.1626C20.6551 10.2578 20.6834 10.3634 20.6834 10.4795C20.6834 10.5955 20.6551 10.7026 20.5986 10.8008C20.5421 10.896 20.4647 10.9719 20.3665 11.0284C20.2713 11.085 20.1672 11.1132 20.0541 11.1132ZM19.9514 13.0101C19.9366 13.0101 19.9247 13.0057 19.9157 12.9967C19.9098 12.9848 19.9113 12.9715 19.9202 12.9566L21.5805 9.91709C21.5895 9.89626 21.6073 9.88585 21.6341 9.88585H21.7769C21.7918 9.88585 21.8022 9.8918 21.8082 9.9037C21.8171 9.91262 21.8171 9.92453 21.8082 9.9394L20.1478 12.9789C20.1389 12.9997 20.121 13.0101 20.0943 13.0101H19.9514ZM20.0541 10.9169C20.1731 10.9169 20.2728 10.8752 20.3531 10.7919C20.4364 10.7056 20.4781 10.6015 20.4781 10.4795C20.4781 10.3575 20.4364 10.2548 20.3531 10.1715C20.2728 10.0852 20.1731 10.0421 20.0541 10.0421C19.9351 10.0421 19.8339 10.0852 19.7506 10.1715C19.6673 10.2548 19.6256 10.3575 19.6256 10.4795C19.6256 10.6015 19.6673 10.7056 19.7506 10.7919C19.8339 10.8752 19.9351 10.9169 20.0541 10.9169ZM21.6921 13.0503C21.5761 13.0503 21.4689 13.022 21.3708 12.9655C21.2755 12.909 21.1997 12.8316 21.1431 12.7334C21.0866 12.6352 21.0583 12.5281 21.0583 12.4121C21.0583 12.299 21.0866 12.1948 21.1431 12.0996C21.1997 12.0014 21.2755 11.9241 21.3708 11.8675C21.4689 11.811 21.5761 11.7827 21.6921 11.7827C21.8052 11.7827 21.9093 11.811 22.0045 11.8675C22.1027 11.9241 22.1801 12.0014 22.2366 12.0996C22.2932 12.1948 22.3214 12.299 22.3214 12.4121C22.3214 12.5281 22.2932 12.6352 22.2366 12.7334C22.1801 12.8316 22.1027 12.909 22.0045 12.9655C21.9093 13.022 21.8052 13.0503 21.6921 13.0503ZM21.6921 12.8539C21.8111 12.8539 21.9108 12.8108 21.9911 12.7245C22.0745 12.6382 22.1161 12.5341 22.1161 12.4121C22.1161 12.2901 22.0745 12.1874 21.9911 12.1041C21.9108 12.0208 21.8111 11.9791 21.6921 11.9791C21.5731 11.9791 21.4719 12.0208 21.3886 12.1041C21.3053 12.1874 21.2636 12.2901 21.2636 12.4121C21.2636 12.537 21.3038 12.6427 21.3841 12.7289C21.4675 12.8123 21.5701 12.8539 21.6921 12.8539Z" fill="#404040"/>
<path d="M59.885 48.9803C59.8612 48.9803 59.8448 48.9684 59.8359 48.9446L59.2825 47.5655C59.2795 47.5566 59.2735 47.5521 59.2646 47.5521H58.6888C58.6769 47.5521 58.671 47.5581 58.671 47.57V48.9357C58.671 48.9655 58.6561 48.9803 58.6264 48.9803H58.3987C58.369 48.9803 58.3541 48.9655 58.3541 48.9357V45.9007C58.3541 45.8709 58.369 45.8561 58.3987 45.8561H59.3449C59.4997 45.8561 59.6365 45.8918 59.7556 45.9632C59.8776 46.0346 59.9713 46.1358 60.0367 46.2667C60.1052 46.3976 60.1394 46.5479 60.1394 46.7175C60.1394 46.9198 60.0903 47.0924 59.9921 47.2352C59.8939 47.378 59.76 47.4733 59.5904 47.5209C59.5785 47.5268 59.5755 47.5342 59.5815 47.5432L60.1573 48.9268L60.1617 48.9446C60.1617 48.9684 60.1483 48.9803 60.1215 48.9803H59.885ZM58.6888 46.1328C58.6769 46.1328 58.671 46.1387 58.671 46.1506V47.2798C58.671 47.2917 58.6769 47.2977 58.6888 47.2977H59.3048C59.4595 47.2977 59.5845 47.2441 59.6797 47.137C59.7749 47.0299 59.8225 46.8901 59.8225 46.7175C59.8225 46.5419 59.7749 46.4006 59.6797 46.2935C59.5845 46.1863 59.4595 46.1328 59.3048 46.1328H58.6888ZM62.3385 48.9803C62.3117 48.9803 62.2954 48.967 62.2894 48.9402L62.1421 48.3823C62.1391 48.3733 62.1317 48.3689 62.1198 48.3689H61.0531C61.0412 48.3689 61.0337 48.3733 61.0308 48.3823L60.8835 48.9402C60.8775 48.967 60.8612 48.9803 60.8344 48.9803H60.6023C60.5874 48.9803 60.5755 48.9759 60.5666 48.967C60.5606 48.958 60.5591 48.9461 60.5621 48.9313L61.3968 45.8962C61.4027 45.8694 61.4191 45.8561 61.4458 45.8561H61.7315C61.7583 45.8561 61.7746 45.8694 61.7806 45.8962L62.6152 48.9313L62.6197 48.9446C62.6197 48.9684 62.6048 48.9803 62.5751 48.9803H62.3385ZM61.1066 48.0922C61.1037 48.0951 61.1037 48.0996 61.1066 48.1055C61.1126 48.1085 61.1185 48.11 61.1245 48.11H62.0484C62.0543 48.11 62.0588 48.1085 62.0618 48.1055C62.0677 48.0996 62.0692 48.0951 62.0662 48.0922L61.5931 46.2979C61.5902 46.292 61.5872 46.289 61.5842 46.289C61.5812 46.289 61.5783 46.292 61.5753 46.2979L61.1066 48.0922ZM63.7198 49.0161C63.4401 49.0161 63.217 48.9432 63.0504 48.7974C62.8867 48.6486 62.8049 48.4507 62.8049 48.2037V48.0832C62.8049 48.0535 62.8198 48.0386 62.8495 48.0386H63.0682C63.098 48.0386 63.1128 48.0535 63.1128 48.0832V48.1859C63.1128 48.3525 63.1694 48.4864 63.2824 48.5876C63.3955 48.6887 63.5458 48.7393 63.7332 48.7393C63.9088 48.7393 64.0472 48.6917 64.1483 48.5965C64.2495 48.5013 64.3001 48.3763 64.3001 48.2216C64.3001 48.1204 64.2763 48.0326 64.2287 47.9583C64.1811 47.8839 64.1111 47.8154 64.0189 47.7529C63.9266 47.6905 63.7942 47.6116 63.6217 47.5164C63.4372 47.4182 63.2914 47.3319 63.1843 47.2575C63.0801 47.1831 62.9953 47.0924 62.9298 46.9853C62.8644 46.8781 62.8317 46.7472 62.8317 46.5925C62.8317 46.3515 62.909 46.1625 63.0637 46.0257C63.2185 45.8888 63.4253 45.8204 63.6841 45.8204C63.9609 45.8204 64.1811 45.8962 64.3447 46.048C64.5084 46.1997 64.5902 46.4006 64.5902 46.6505V46.7532C64.5902 46.7829 64.5753 46.7978 64.5456 46.7978H64.3224C64.2926 46.7978 64.2778 46.7829 64.2778 46.7532V46.655C64.2778 46.4884 64.2242 46.3545 64.1171 46.2533C64.01 46.1491 63.8627 46.0971 63.6752 46.0971C63.5086 46.0971 63.3777 46.1402 63.2824 46.2265C63.1902 46.3128 63.1441 46.4348 63.1441 46.5925C63.1441 46.6937 63.1664 46.7785 63.211 46.8469C63.2557 46.9153 63.3196 46.9778 63.403 47.0344C63.4892 47.0909 63.6202 47.1668 63.7957 47.262C63.9981 47.3751 64.1528 47.4718 64.2599 47.5521C64.37 47.6295 64.4563 47.7202 64.5188 47.8244C64.5842 47.9255 64.617 48.0505 64.617 48.1993C64.617 48.4492 64.5366 48.6486 64.3759 48.7974C64.2153 48.9432 63.9966 49.0161 63.7198 49.0161ZM66.1617 45.8516C66.3997 45.8516 66.5916 45.9319 66.7374 46.0926C66.8862 46.2503 66.9606 46.4601 66.9606 46.7219C66.9606 46.9808 66.8862 47.1891 66.7374 47.3468C66.5916 47.5015 66.3997 47.5789 66.1617 47.5789H65.4966C65.4847 47.5789 65.4788 47.5848 65.4788 47.5967V48.9357C65.4788 48.9655 65.4639 48.9803 65.4342 48.9803H65.2065C65.1768 48.9803 65.1619 48.9655 65.1619 48.9357V45.8962C65.1619 45.8665 65.1768 45.8516 65.2065 45.8516H66.1617ZM66.1215 47.3155C66.2792 47.3155 66.4057 47.262 66.5009 47.1549C66.5961 47.0478 66.6437 46.9049 66.6437 46.7264C66.6437 46.5449 66.5961 46.4006 66.5009 46.2935C66.4057 46.1834 66.2792 46.1283 66.1215 46.1283H65.4966C65.4847 46.1283 65.4788 46.1343 65.4788 46.1462V47.2977C65.4788 47.3096 65.4847 47.3155 65.4966 47.3155H66.1215ZM68.8379 47.3513C68.823 47.3572 68.823 47.3646 68.8379 47.3736C68.9777 47.442 69.0848 47.5402 69.1592 47.6681C69.2366 47.7961 69.2767 47.9508 69.2797 48.1323C69.2797 48.4001 69.1994 48.6084 69.0387 48.7572C68.881 48.906 68.6712 48.9803 68.4094 48.9803H67.5301C67.5004 48.9803 67.4855 48.9655 67.4855 48.9357V45.9007C67.4855 45.8709 67.5004 45.8561 67.5301 45.8561H68.3737C68.6474 45.8561 68.8617 45.9275 69.0164 46.0703C69.1711 46.2101 69.2485 46.411 69.2485 46.6728C69.2485 46.8395 69.2128 46.9793 69.1414 47.0924C69.0729 47.2055 68.9718 47.2917 68.8379 47.3513ZM67.8202 46.1328C67.8083 46.1328 67.8024 46.1387 67.8024 46.1506V47.2263C67.8024 47.2382 67.8083 47.2441 67.8202 47.2441H68.3781C68.5507 47.2441 68.6861 47.195 68.7843 47.0968C68.8855 46.9987 68.936 46.8662 68.936 46.6996C68.936 46.5241 68.8855 46.3857 68.7843 46.2845C68.6861 46.1834 68.5507 46.1328 68.3781 46.1328H67.8202ZM68.4005 48.6992C68.573 48.6992 68.7099 48.6456 68.8111 48.5385C68.9122 48.4314 68.9628 48.2856 68.9628 48.1011C68.9628 47.9136 68.9108 47.7663 68.8066 47.6592C68.7054 47.5521 68.5671 47.4985 68.3915 47.4985H67.8202C67.8083 47.4985 67.8024 47.5045 67.8024 47.5164V48.6813C67.8024 48.6932 67.8083 48.6992 67.8202 48.6992H68.4005ZM71.588 46.0882C71.588 46.1179 71.5732 46.1328 71.5434 46.1328H70.2044C70.1925 46.1328 70.1866 46.1387 70.1866 46.1506V47.2575C70.1866 47.2694 70.1925 47.2754 70.2044 47.2754H71.106C71.1357 47.2754 71.1506 47.2903 71.1506 47.32V47.5075C71.1506 47.5372 71.1357 47.5521 71.106 47.5521H70.2044C70.1925 47.5521 70.1866 47.5581 70.1866 47.57V48.6858C70.1866 48.6977 70.1925 48.7036 70.2044 48.7036H71.5434C71.5732 48.7036 71.588 48.7185 71.588 48.7483V48.9357C71.588 48.9655 71.5732 48.9803 71.5434 48.9803H69.9143C69.8845 48.9803 69.8697 48.9655 69.8697 48.9357V45.9007C69.8697 45.8709 69.8845 45.8561 69.9143 45.8561H71.5434C71.5732 45.8561 71.588 45.8709 71.588 45.9007V46.0882ZM73.7063 48.9803C73.6825 48.9803 73.6661 48.9684 73.6572 48.9446L73.1038 47.5655C73.1008 47.5566 73.0948 47.5521 73.0859 47.5521H72.5101C72.4982 47.5521 72.4923 47.5581 72.4923 47.57V48.9357C72.4923 48.9655 72.4774 48.9803 72.4477 48.9803H72.22C72.1903 48.9803 72.1754 48.9655 72.1754 48.9357V45.9007C72.1754 45.8709 72.1903 45.8561 72.22 45.8561H73.1662C73.321 45.8561 73.4578 45.8918 73.5769 45.9632C73.6989 46.0346 73.7926 46.1358 73.8581 46.2667C73.9265 46.3976 73.9607 46.5479 73.9607 46.7175C73.9607 46.9198 73.9116 47.0924 73.8134 47.2352C73.7152 47.378 73.5813 47.4733 73.4117 47.5209C73.3998 47.5268 73.3968 47.5342 73.4028 47.5432L73.9786 48.9268L73.983 48.9446C73.983 48.9684 73.9696 48.9803 73.9429 48.9803H73.7063ZM72.5101 46.1328C72.4982 46.1328 72.4923 46.1387 72.4923 46.1506V47.2798C72.4923 47.2917 72.4982 47.2977 72.5101 47.2977H73.1261C73.2808 47.2977 73.4058 47.2441 73.501 47.137C73.5962 47.0299 73.6438 46.8901 73.6438 46.7175C73.6438 46.5419 73.5962 46.4006 73.501 46.2935C73.4058 46.1863 73.2808 46.1328 73.1261 46.1328H72.5101ZM76.0643 48.9803C76.0405 48.9803 76.0242 48.9684 76.0152 48.9446L75.4618 47.5655C75.4588 47.5566 75.4529 47.5521 75.4439 47.5521H74.8682C74.8563 47.5521 74.8503 47.5581 74.8503 47.57V48.9357C74.8503 48.9655 74.8354 48.9803 74.8057 48.9803H74.5781C74.5483 48.9803 74.5334 48.9655 74.5334 48.9357V45.9007C74.5334 45.8709 74.5483 45.8561 74.5781 45.8561H75.5243C75.679 45.8561 75.8159 45.8918 75.9349 45.9632C76.0569 46.0346 76.1506 46.1358 76.2161 46.2667C76.2845 46.3976 76.3187 46.5479 76.3187 46.7175C76.3187 46.9198 76.2696 47.0924 76.1715 47.2352C76.0733 47.378 75.9394 47.4733 75.7698 47.5209C75.7579 47.5268 75.7549 47.5342 75.7608 47.5432L76.3366 48.9268L76.3411 48.9446C76.3411 48.9684 76.3277 48.9803 76.3009 48.9803H76.0643ZM74.8682 46.1328C74.8563 46.1328 74.8503 46.1387 74.8503 46.1506V47.2798C74.8503 47.2917 74.8563 47.2977 74.8682 47.2977H75.4841C75.6388 47.2977 75.7638 47.2441 75.859 47.137C75.9542 47.0299 76.0018 46.8901 76.0018 46.7175C76.0018 46.5419 75.9542 46.4006 75.859 46.2935C75.7638 46.1863 75.6388 46.1328 75.4841 46.1328H74.8682ZM77.4596 48.9759C77.4298 48.9759 77.4149 48.961 77.4149 48.9313V47.6012C77.4149 47.5893 77.4134 47.5819 77.4105 47.5789L76.6383 45.9096L76.6339 45.8918C76.6339 45.868 76.6472 45.8561 76.674 45.8561H76.915C76.9388 45.8561 76.9552 45.868 76.9641 45.8918L77.5622 47.2263C77.5652 47.2322 77.5697 47.2352 77.5756 47.2352C77.5816 47.2352 77.586 47.2322 77.589 47.2263L78.1871 45.8918C78.196 45.868 78.2124 45.8561 78.2362 45.8561H78.4772C78.4921 45.8561 78.5025 45.862 78.5084 45.8739C78.5174 45.8828 78.5188 45.8947 78.5129 45.9096L77.7363 47.5789C77.7333 47.5819 77.7318 47.5893 77.7318 47.6012V48.9313C77.7318 48.961 77.7169 48.9759 77.6872 48.9759H77.4596ZM59.6975 52.4985C59.7541 52.6533 59.7823 52.8303 59.7823 53.0297C59.7823 53.2082 59.76 53.3629 59.7154 53.4939C59.6053 53.842 59.3613 54.0161 58.9834 54.0161C58.7811 54.0161 58.6115 53.9625 58.4746 53.8554C58.3377 53.7453 58.25 53.595 58.2113 53.4046C58.1904 53.3094 58.18 53.2008 58.18 53.0788C58.18 53.049 58.1949 53.0341 58.2247 53.0341H58.4523C58.482 53.0341 58.4969 53.049 58.4969 53.0788C58.5029 53.2067 58.5103 53.293 58.5192 53.3376C58.546 53.4626 58.5996 53.5608 58.6799 53.6322C58.7603 53.7036 58.8614 53.7393 58.9834 53.7393C59.2125 53.7393 59.3613 53.6233 59.4297 53.3912C59.4565 53.2841 59.4699 53.1561 59.4699 53.0074C59.4699 52.8288 59.4506 52.6815 59.4119 52.5655C59.3345 52.3572 59.1917 52.2531 58.9834 52.2531C58.9358 52.2531 58.8941 52.262 58.8584 52.2798C58.8406 52.2858 58.8302 52.2888 58.8272 52.2888C58.8153 52.2888 58.8049 52.2828 58.796 52.2709L58.6799 52.1504C58.665 52.1296 58.6635 52.1088 58.6754 52.0879L59.3717 51.1551C59.3777 51.1491 59.3792 51.1447 59.3762 51.1417C59.3732 51.1358 59.3687 51.1328 59.3628 51.1328H58.247C58.2172 51.1328 58.2023 51.1179 58.2023 51.0882V50.9007C58.2023 50.8709 58.2172 50.8561 58.247 50.8561H59.7243C59.7541 50.8561 59.7689 50.8709 59.7689 50.9007V51.1015C59.7689 51.1253 59.763 51.1447 59.7511 51.1596L59.1039 52.0433C59.1009 52.0463 59.1009 52.0507 59.1039 52.0567C59.1069 52.0626 59.1114 52.0656 59.1173 52.0656C59.2572 52.0716 59.3762 52.1117 59.4744 52.1861C59.5726 52.2605 59.647 52.3646 59.6975 52.4985ZM61.1656 54.025C60.9097 54.025 60.7044 53.9476 60.5496 53.7929C60.3949 53.6382 60.3175 53.4314 60.3175 53.1725V51.6639C60.3175 51.408 60.3949 51.2027 60.5496 51.048C60.7044 50.8933 60.9097 50.8159 61.1656 50.8159C61.4244 50.8159 61.6312 50.8933 61.786 51.048C61.9437 51.2027 62.0225 51.408 62.0225 51.6639V53.1725C62.0225 53.4314 61.9437 53.6382 61.786 53.7929C61.6312 53.9476 61.4244 54.025 61.1656 54.025ZM61.1656 53.7483C61.3292 53.7483 61.4601 53.6977 61.5583 53.5965C61.6565 53.4953 61.7056 53.3614 61.7056 53.1948V51.6461C61.7056 51.4794 61.6565 51.3455 61.5583 51.2444C61.4601 51.1432 61.3292 51.0926 61.1656 51.0926C61.0079 51.0926 60.8799 51.1432 60.7817 51.2444C60.6835 51.3455 60.6344 51.4794 60.6344 51.6461V53.1948C60.6344 53.3585 60.6835 53.4924 60.7817 53.5965C60.8799 53.6977 61.0079 53.7483 61.1656 53.7483ZM63.2986 52.0835C63.1825 52.0835 63.0754 52.0552 62.9772 51.9987C62.882 51.9421 62.8061 51.8662 62.7496 51.771C62.6931 51.6728 62.6648 51.5657 62.6648 51.4497C62.6648 51.3336 62.6931 51.228 62.7496 51.1328C62.8061 51.0346 62.882 50.9572 62.9772 50.9007C63.0754 50.8442 63.1825 50.8159 63.2986 50.8159C63.4117 50.8159 63.5158 50.8442 63.611 50.9007C63.7092 50.9572 63.7866 51.0346 63.8431 51.1328C63.8996 51.228 63.9279 51.3336 63.9279 51.4497C63.9279 51.5657 63.8996 51.6728 63.8431 51.771C63.7866 51.8662 63.7092 51.9421 63.611 51.9987C63.5158 52.0552 63.4117 52.0835 63.2986 52.0835ZM63.1959 53.9803C63.1811 53.9803 63.1692 53.9759 63.1602 53.967C63.1543 53.9551 63.1558 53.9417 63.1647 53.9268L64.825 50.8873C64.834 50.8665 64.8518 50.8561 64.8786 50.8561H65.0214C65.0363 50.8561 65.0467 50.862 65.0527 50.8739C65.0616 50.8828 65.0616 50.8947 65.0527 50.9096L63.3923 53.9491C63.3834 53.9699 63.3655 53.9803 63.3388 53.9803H63.1959ZM63.2986 51.8871C63.4176 51.8871 63.5173 51.8454 63.5976 51.7621C63.6809 51.6758 63.7226 51.5717 63.7226 51.4497C63.7226 51.3277 63.6809 51.225 63.5976 51.1417C63.5173 51.0554 63.4176 51.0123 63.2986 51.0123C63.1796 51.0123 63.0784 51.0554 62.9951 51.1417C62.9118 51.225 62.8701 51.3277 62.8701 51.4497C62.8701 51.5717 62.9118 51.6758 62.9951 51.7621C63.0784 51.8454 63.1796 51.8871 63.2986 51.8871ZM64.9366 54.0205C64.8206 54.0205 64.7134 53.9922 64.6153 53.9357C64.52 53.8792 64.4442 53.8018 64.3876 53.7036C64.3311 53.6054 64.3028 53.4983 64.3028 53.3823C64.3028 53.2692 64.3311 53.1651 64.3876 53.0698C64.4442 52.9716 64.52 52.8943 64.6153 52.8378C64.7134 52.7812 64.8206 52.7529 64.9366 52.7529C65.0497 52.7529 65.1538 52.7812 65.249 52.8378C65.3472 52.8943 65.4246 52.9716 65.4811 53.0698C65.5377 53.1651 65.5659 53.2692 65.5659 53.3823C65.5659 53.4983 65.5377 53.6054 65.4811 53.7036C65.4246 53.8018 65.3472 53.8792 65.249 53.9357C65.1538 53.9922 65.0497 54.0205 64.9366 54.0205ZM64.9366 53.8241C65.0556 53.8241 65.1553 53.781 65.2356 53.6947C65.319 53.6084 65.3606 53.5043 65.3606 53.3823C65.3606 53.2603 65.319 53.1576 65.2356 53.0743C65.1553 52.991 65.0556 52.9493 64.9366 52.9493C64.8176 52.9493 64.7164 52.991 64.6331 53.0743C64.5498 53.1576 64.5081 53.2603 64.5081 53.3823C64.5081 53.5072 64.5483 53.6129 64.6286 53.6992C64.712 53.7825 64.8146 53.8241 64.9366 53.8241Z" fill="#404040"/>
<path fill-rule="evenodd" clip-rule="evenodd" d="M41.4731 23.7328L41.3165 23.7473L41.3092 23.9461L41.302 24.1474H41.5526C41.69 24.1474 42.0009 24.1546 42.2395 24.1643L42.6781 24.1789V26.9598C42.6781 29.6681 42.6877 30.2572 42.7311 30.2572C42.7408 30.2572 42.8131 30.2087 42.8902 30.1481C43.001 30.0608 43.0637 30.0317 43.2155 29.9978L43.4011 29.9542V27.0665V24.1789L44.0807 24.1643C44.5868 24.1522 44.7652 24.1401 44.7796 24.1183C44.8061 24.0746 44.8037 23.8273 44.7772 23.7861C44.7628 23.7643 44.6929 23.7425 44.6133 23.7328C44.4495 23.7109 41.7045 23.7134 41.4731 23.7328Z" fill="#323232"/>
<path fill-rule="evenodd" clip-rule="evenodd" d="M45.7966 23.7279C45.7484 23.7376 45.746 23.7522 45.7316 24.4456C45.7219 24.8359 45.7147 25.6312 45.7147 26.2131V27.275H45.1845H44.6543V26.2373C44.6543 25.6676 44.6471 25.0129 44.6374 24.7826L44.623 24.3656H44.2928H43.9602L43.9434 25.122C43.9337 25.5391 43.9313 26.8362 43.9361 28.0024L43.9434 30.1239L43.9988 30.2427C44.0663 30.393 44.0663 30.4682 43.9916 30.6452C43.9096 30.8391 43.9144 30.8828 44.0108 30.9216C44.1554 30.9822 44.2832 30.9919 44.4254 30.9482C44.6519 30.8828 44.6398 30.9822 44.6495 29.171L44.6591 27.6145H45.1869H45.7147V28.9892C45.7147 29.7481 45.7219 30.5215 45.7316 30.7082L45.746 31.0525L45.8376 31.0816C45.9364 31.1155 46.0376 31.0986 46.281 31.0064L46.4136 30.9579L46.4112 28.0315C46.4088 26.4216 46.3991 24.7947 46.3919 24.4141L46.3774 23.7231L46.1123 23.7206C45.9678 23.7182 45.8256 23.7206 45.7966 23.7279Z" fill="#323232"/>
<path fill-rule="evenodd" clip-rule="evenodd" d="M40.5861 24.5595C40.28 24.6031 40.0655 24.7171 39.9667 24.8844C39.88 25.0347 39.8583 25.2214 39.8583 25.7936C39.8583 26.6834 39.8631 26.6906 40.8705 28.1842C41.1163 28.5503 41.1524 28.6109 41.2681 28.8703C41.3718 29.1007 41.3814 29.1394 41.4007 29.4037C41.4127 29.5589 41.4248 29.9856 41.4248 30.3469C41.4248 30.7106 41.432 31.0088 41.4441 31.0088C41.4537 31.0088 41.6055 30.987 41.7815 30.9579L42.102 30.9045L42.0947 29.9929L42.0875 29.0813L41.9839 28.8218C41.8682 28.5357 41.6537 28.1769 41.1838 27.4932C41.0151 27.2459 40.8126 26.9307 40.7379 26.7949L40.5981 26.5452L40.574 25.8615C40.5499 25.1098 40.562 24.9716 40.668 24.8674C40.7355 24.7995 40.8175 24.7777 41.0151 24.7777C41.2055 24.7777 41.2922 24.814 41.3573 24.9183C41.4103 25.0056 41.4127 25.0274 41.4248 25.8251C41.4344 26.4458 41.4441 26.6494 41.4682 26.6737C41.5067 26.7125 41.9984 26.7294 42.0514 26.6955C42.0827 26.6737 42.0875 26.5549 42.0947 25.9172C42.102 25.122 42.0875 24.945 42.0032 24.8262C41.9453 24.7437 41.7092 24.6249 41.5212 24.5837C41.3501 24.5473 40.7837 24.5328 40.5861 24.5595Z" fill="#323232"/>
<path fill-rule="evenodd" clip-rule="evenodd" d="M47.7947 24.6081C47.4139 24.6614 47.2138 24.7633 47.0982 24.9621C47.0355 25.0663 47.0307 25.1051 47.0138 25.43C47.0042 25.624 46.9945 26.9381 46.9945 28.3468L46.9921 30.9095L47.0717 30.9677C47.2476 31.1035 47.3874 31.1156 47.5898 31.0162L47.679 30.9726L47.6862 29.5348L47.691 28.0995H48.1248H48.5586V29.5397V30.9798L48.7153 31.0817L48.8743 31.1859L49.0262 31.1205C49.1129 31.0841 49.1997 31.038 49.2262 31.0211C49.2672 30.9895 49.2696 30.8998 49.2768 29.1129C49.2864 26.9478 49.2551 25.2482 49.2021 25.0494C49.1226 24.7487 48.8551 24.6299 48.1851 24.5984C48.0525 24.5936 47.8766 24.596 47.7947 24.6081ZM48.3658 24.8724C48.4188 24.8991 48.467 24.95 48.4984 25.0106C48.5418 25.1003 48.5442 25.173 48.5538 26.3053C48.5586 26.9648 48.5538 27.5709 48.5418 27.6509L48.5225 27.7964L48.1851 27.8037C47.9995 27.8085 47.8115 27.8037 47.7706 27.7964L47.691 27.7819V26.7344C47.6934 25.5658 47.7151 25.0906 47.7706 24.9815C47.8549 24.8166 48.1465 24.7633 48.3658 24.8724Z" fill="#323232"/>
<path fill-rule="evenodd" clip-rule="evenodd" d="M37.2938 25.677C37.2866 25.7594 37.2794 26.7898 37.2794 27.9657V30.1042L37.4505 30.1212C37.5445 30.1284 37.6843 30.1575 37.7614 30.1842C37.8409 30.2109 37.9156 30.2327 37.9301 30.2327C37.9566 30.2327 37.9662 25.8394 37.9397 25.6406L37.9229 25.5291H37.6168H37.3107L37.2938 25.677Z" fill="#323232"/>
<path fill-rule="evenodd" clip-rule="evenodd" d="M38.6603 25.558C38.6241 25.6138 38.5855 30.0847 38.6193 30.2544C38.6386 30.3417 38.6747 30.349 38.7398 30.2786C38.8097 30.2011 38.9133 30.1574 39.0965 30.1259L39.2676 30.0968L39.282 29.7574C39.3037 29.3137 39.3037 25.8732 39.282 25.6865L39.2676 25.5411L38.9735 25.5338C38.7567 25.5289 38.6747 25.5362 38.6603 25.558Z" fill="#323232"/>
<path fill-rule="evenodd" clip-rule="evenodd" d="M49.8722 25.5703C49.8602 25.5946 49.8481 26.351 49.8409 27.253L49.8312 28.8895L49.9084 29.2411C50.0843 30.0388 50.2723 30.7564 50.359 30.9674C50.4699 31.2268 50.7278 31.1201 50.7278 30.817C50.7278 30.7419 50.7157 30.6037 50.7012 30.5116C50.5687 29.6023 50.5398 29.0811 50.5157 27.0566L50.4988 25.5412L50.1951 25.5339C49.9228 25.5291 49.8891 25.5315 49.8722 25.5703Z" fill="#323232"/>
<path fill-rule="evenodd" clip-rule="evenodd" d="M51.2196 25.5559C51.21 25.5729 51.1931 26.3415 51.1835 27.2604C51.1738 28.1817 51.1546 29.04 51.1401 29.1661C51.075 29.7625 51.0461 30.0559 51.0485 30.1238C51.0509 30.1626 51.0437 30.2814 51.0316 30.3856C51.0124 30.5772 51.0124 30.5772 51.0654 30.5481C51.0943 30.5335 51.1738 30.4681 51.2413 30.4075C51.3112 30.3444 51.4076 30.262 51.4582 30.2232C51.5088 30.1844 51.5667 30.1214 51.5859 30.085C51.6366 29.9856 51.8077 29.2146 51.8366 28.9454C51.8679 28.6787 51.8607 25.5923 51.8294 25.5608C51.8173 25.5511 51.6799 25.5389 51.5233 25.5341C51.3112 25.5268 51.2341 25.5341 51.2196 25.5559Z" fill="#323232"/>
<path fill-rule="evenodd" clip-rule="evenodd" d="M36.3659 26.4988L36.043 26.5109L35.8068 27.7111C35.6767 28.3706 35.5658 28.9258 35.5634 28.9452C35.5514 29.0082 35.5032 28.9985 35.4742 28.9306C35.4598 28.8943 35.4333 28.7803 35.414 28.6809C35.3971 28.5815 35.3079 28.1451 35.2188 27.7111C35.1296 27.2771 35.038 26.831 35.0163 26.717L34.9778 26.5109L34.6428 26.5037L34.3078 26.4964L34.3223 28.1378C34.3319 29.0422 34.3391 30.1938 34.3391 30.6981V31.6146H34.6765H35.0139L35.0163 30.7224C35.0163 30.2326 35.026 29.7768 35.038 29.7114C35.0477 29.6435 35.0573 29.5974 35.0597 29.6071C35.1151 29.9029 35.2525 30.6618 35.2646 30.7442C35.2911 30.9236 35.32 30.9479 35.5104 30.9455C35.6429 30.9455 35.6791 30.9358 35.7104 30.8945C35.7369 30.863 35.7827 30.6569 35.843 30.3029C35.8936 30.0047 35.9442 29.7429 35.9562 29.7235C35.9683 29.6992 35.9779 29.7623 35.9779 29.8932C35.9779 30.2229 36.0068 30.5018 36.0382 30.5139C36.055 30.5212 36.1153 30.4945 36.1731 30.4557C36.231 30.4169 36.3659 30.349 36.472 30.3054C36.578 30.2593 36.672 30.2157 36.6841 30.2084C36.6937 30.2011 36.6985 29.3598 36.6961 28.3391L36.6889 26.4867L36.3659 26.4988Z" fill="#323232"/>
<path fill-rule="evenodd" clip-rule="evenodd" d="M52.4729 26.5279C52.4609 26.5449 52.4488 27.3328 52.444 28.2808L52.4344 30.0023L52.5308 30.058C52.726 30.1671 52.8151 30.3393 52.7934 30.5623C52.7766 30.7224 52.7091 30.8775 52.5645 31.0909C52.4609 31.2412 52.4512 31.2679 52.4512 31.3988C52.4512 31.4934 52.4633 31.554 52.4874 31.5758C52.5283 31.617 52.8609 31.6316 53.5189 31.6194L53.9093 31.6146V31.4352V31.2582L53.5671 31.2412C53.3791 31.2315 53.22 31.2194 53.2152 31.217C53.2104 31.2121 53.2007 30.7393 53.1935 30.1671L53.179 29.1246L53.4032 29.11C53.5261 29.1003 53.6731 29.0931 53.7285 29.0931C53.849 29.0931 53.8635 29.064 53.8442 28.8603L53.8297 28.7294H53.5092H53.1863V27.8105C53.1863 27.1849 53.1935 26.8843 53.2128 26.8746C53.2272 26.8649 53.3815 26.8503 53.555 26.8431L53.8731 26.8261V26.6685V26.5109L53.1815 26.5036C52.6488 26.4988 52.4874 26.5061 52.4729 26.5279Z" fill="#323232"/>
<path fill-rule="evenodd" clip-rule="evenodd" d="M39.8557 29.3259C39.8243 29.4084 39.846 30.2715 39.8846 30.4534C39.9015 30.5261 39.899 30.5988 39.8846 30.6716C39.8484 30.8195 39.8533 30.9431 39.8918 30.9965C39.9231 31.0401 39.9304 31.0401 40.1858 30.9868C40.3304 30.9552 40.4726 30.9262 40.504 30.9189L40.5594 30.9068L40.5522 30.1115C40.5473 29.6727 40.5353 29.3065 40.5256 29.2968C40.516 29.2847 40.3666 29.2726 40.1955 29.2678L39.8822 29.2581L39.8557 29.3259Z" fill="#323232"/>
<path fill-rule="evenodd" clip-rule="evenodd" d="M43.2558 30.356C43.1642 30.3924 43.0485 30.516 42.9136 30.7173C42.7979 30.8918 42.4147 31.3962 42.3978 31.3962C42.3954 31.3962 42.352 31.3719 42.3038 31.3452C42.2243 31.2967 42.1906 31.2943 41.9833 31.3064C41.5712 31.3283 41.3157 31.4616 40.9109 31.8617C40.5759 32.1938 40.2794 32.3878 40.2168 32.3248C40.1999 32.3078 40.2553 32.2229 40.3807 32.075C40.7614 31.6192 40.7614 31.6192 40.7446 31.4786C40.7398 31.4325 40.7108 31.3913 40.653 31.3525C40.5349 31.2725 40.3614 31.2895 40.0939 31.4083C39.983 31.4568 39.8794 31.5028 39.8649 31.5101C39.8481 31.5174 39.824 31.4956 39.8119 31.4616C39.7565 31.3161 39.5806 31.3186 39.4456 31.464C39.3998 31.5125 39.2986 31.6338 39.2215 31.7307C38.9853 32.0314 38.5732 32.3514 38.3804 32.3829C38.1273 32.4242 38.3081 32.0702 38.954 31.2628C39.4263 30.6712 39.489 30.5597 39.3781 30.4991C39.301 30.4603 39.1299 30.47 39.0455 30.5209C39.0046 30.5476 38.8407 30.7294 38.6816 30.9282C38.3635 31.3258 37.9128 31.7792 37.6236 31.995C37.2983 32.2375 36.9006 32.3951 36.8091 32.3175C36.7054 32.2326 36.8307 32.0241 37.373 31.3768C37.5104 31.2119 37.6574 31.0203 37.7032 30.9525C37.7923 30.8143 37.8092 30.6906 37.749 30.6033C37.6598 30.4748 37.2862 30.4385 36.9512 30.5233C36.4837 30.6421 36.1849 30.8967 36.3704 31.0203C36.4476 31.0688 36.5512 31.0373 36.8404 30.8724C37.0766 30.7415 37.3127 30.6688 37.3585 30.7149C37.3899 30.7464 37.2549 30.9209 36.8934 31.3113C36.4379 31.8011 36.2957 32.0459 36.3222 32.2884C36.3415 32.4702 36.5488 32.6303 36.7633 32.6327C36.9994 32.6327 37.3441 32.4727 37.614 32.2326C37.7128 32.1453 37.8068 32.075 37.8261 32.075C37.8646 32.075 37.8646 32.0702 37.8213 32.1938C37.7779 32.3199 37.8092 32.4193 37.9273 32.5187C38.0839 32.6496 38.296 32.6593 38.5515 32.5454C38.7009 32.4775 38.7853 32.4702 38.8069 32.5236C38.8166 32.5478 38.8551 32.5599 38.9274 32.5599C39.0335 32.5599 39.0383 32.5575 39.2094 32.3466C39.4552 32.0459 39.6071 31.8932 39.7734 31.772C40.1662 31.4883 40.4481 31.4568 40.2505 31.7186C40.212 31.7671 40.1132 31.8835 40.0288 31.9805C39.7975 32.2447 39.7493 32.412 39.8722 32.509C39.9252 32.5502 39.971 32.5599 40.1156 32.5599C40.3035 32.5599 40.3638 32.5381 40.5976 32.3902C40.6602 32.349 40.7253 32.3175 40.7422 32.3175C40.759 32.3175 40.7928 32.3587 40.8193 32.412C40.8771 32.526 40.9711 32.5672 41.1591 32.5672C41.3278 32.5648 41.4893 32.4969 41.6459 32.3635C41.7086 32.3126 41.7688 32.269 41.7833 32.269C41.7977 32.269 41.8098 32.3029 41.8098 32.3442C41.8098 32.3926 41.8339 32.4411 41.8797 32.4896C41.9399 32.5502 41.9689 32.5599 42.0797 32.5599C42.2315 32.5599 42.4123 32.4824 42.6003 32.3369C42.6702 32.2835 42.7328 32.2447 42.7401 32.252C42.7473 32.2593 42.7714 32.3005 42.7955 32.3466C42.8196 32.3902 42.8895 32.463 42.9521 32.5042C43.0534 32.5745 43.0895 32.5842 43.2196 32.5842C43.4317 32.5842 43.6028 32.5454 43.786 32.4605C44.0005 32.3611 44.1427 32.2447 44.5331 31.8689C44.791 31.6168 44.8849 31.5416 44.95 31.5295C45.1332 31.4931 45.1259 31.5174 44.8705 31.8083C44.4825 32.2447 44.415 32.3999 44.5596 32.5211C44.7066 32.6448 45.0127 32.589 45.3212 32.3829C45.4103 32.3223 45.4995 32.269 45.514 32.2641C45.5308 32.2593 45.5622 32.2957 45.5863 32.3417C45.7309 32.6254 46.1454 32.6593 46.6057 32.4266C46.6924 32.3829 46.7792 32.3296 46.7961 32.3078C46.8443 32.2496 46.8635 32.2569 47.0178 32.3999C47.1889 32.5599 47.2805 32.5939 47.507 32.5793C47.7311 32.5648 47.895 32.4848 48.1336 32.2738C48.3722 32.0678 48.5337 31.949 48.5674 31.9611C48.5843 31.9659 48.5915 32.0362 48.5867 32.1502C48.5746 32.4508 48.6638 32.5599 48.9217 32.5599C49.1265 32.5599 49.2735 32.5042 49.435 32.3684C49.5145 32.3005 49.5868 32.252 49.5989 32.2593C49.6085 32.2666 49.6182 32.3102 49.6182 32.3563C49.6182 32.4921 49.7049 32.5599 49.876 32.5599C50.0327 32.5599 50.146 32.5139 50.3291 32.3805C50.3942 32.332 50.4641 32.2932 50.481 32.2932C50.4954 32.2932 50.5292 32.3393 50.5508 32.3926C50.6424 32.6278 51.0136 32.6472 51.3196 32.4363C51.4835 32.3248 51.8908 31.915 51.8787 31.8762C51.8522 31.7962 51.7655 31.8374 51.5076 32.0435C51.2329 32.269 51.1292 32.3272 51.0352 32.3126C50.987 32.3054 50.9798 32.2932 50.9822 32.1914C50.9822 32.0435 51.0449 31.9562 51.2762 31.772C51.7655 31.384 52.1824 30.9525 52.286 30.7246C52.368 30.5476 52.3559 30.4045 52.2595 30.356C52.1679 30.3124 51.9583 30.3536 51.8233 30.4433C51.5534 30.6251 50.9678 31.2992 50.7268 31.7113C50.6111 31.9053 50.4641 32.0605 50.2761 32.1866C50.1146 32.2957 50.0086 32.332 49.9749 32.2981C49.9387 32.2617 50.0182 32.1453 50.2448 31.8932C50.3388 31.7865 50.4352 31.6629 50.4569 31.6192C50.4954 31.5416 50.493 31.5344 50.4544 31.5053C50.4303 31.4883 50.3701 31.4689 50.3195 31.4592C50.2665 31.4519 50.1918 31.418 50.1532 31.384C50.011 31.2652 49.7242 31.2604 49.3916 31.3719C49.3001 31.401 49.1362 31.4931 48.9771 31.6022C48.6204 31.852 48.553 31.8471 48.5264 31.5804C48.5096 31.4107 48.4517 31.3355 48.3071 31.2967C47.9697 31.2046 47.4082 31.4471 47.0588 31.835C46.8153 32.1041 46.49 32.3054 46.2442 32.3345C46.1574 32.3442 46.1237 32.3369 46.0707 32.2932C45.9863 32.2278 45.9863 32.1672 46.0731 32.0144C46.2056 31.7817 46.5262 31.5028 46.69 31.4762C46.7961 31.4592 46.8009 31.5004 46.7141 31.6289C46.637 31.7404 46.6467 31.7695 46.7551 31.7792C46.825 31.7841 46.8587 31.772 46.931 31.7089C47.1094 31.5513 47.1142 31.4374 46.9431 31.338C46.7696 31.2337 46.4008 31.2992 46.0948 31.4859C46.0176 31.5319 45.8224 31.6968 45.661 31.8495C45.2778 32.2157 45.0079 32.3926 44.938 32.3223C44.9066 32.2908 45.044 32.1017 45.3067 31.8229C45.5477 31.5659 45.6055 31.4786 45.579 31.4083C45.5573 31.3525 45.4658 31.3404 45.2055 31.3574C44.9765 31.3743 44.9669 31.3719 44.9669 31.3258C44.9669 31.2992 44.9404 31.258 44.9066 31.2361C44.7524 31.1343 44.4391 31.3501 44.5283 31.4956C44.5765 31.5707 44.562 31.6071 44.4222 31.7574C44.2415 31.9562 44.0318 32.1114 43.7884 32.2302C43.4341 32.3999 43.1955 32.3587 43.1955 32.1259C43.1955 32.0726 43.2052 32.0217 43.2148 32.012C43.2245 32.0023 43.3498 31.9853 43.492 31.9756C43.88 31.9465 44.0921 31.8617 44.2077 31.6919C44.2921 31.5683 44.2849 31.4907 44.1836 31.3986C44.0318 31.2652 43.8342 31.2483 43.5185 31.3477C43.3281 31.4059 43.1955 31.5053 42.8051 31.8835C42.4364 32.2399 42.2677 32.3539 42.205 32.2884C42.1737 32.2593 42.1833 32.235 42.2629 32.109C42.3545 31.9683 42.6605 31.5925 43.1425 31.0325C43.5835 30.5209 43.6655 30.3778 43.5402 30.3439C43.4606 30.3221 43.3257 30.3293 43.2558 30.356ZM52.1246 30.6276C52.1246 30.7318 51.4353 31.5174 51.3437 31.5174C51.2859 31.5174 51.6908 30.9622 51.9101 30.7439C52.0523 30.6009 52.1246 30.5621 52.1246 30.6276ZM42.205 31.4834C42.287 31.515 42.2412 31.5998 42.0219 31.818C41.7809 32.0581 41.5833 32.2011 41.3929 32.2738C41.1856 32.3539 41.1205 32.2714 41.2459 32.0847C41.4121 31.8326 41.7303 31.595 42.0146 31.5028C42.1279 31.4665 42.1544 31.464 42.205 31.4834ZM43.9884 31.5077C44.0439 31.561 44.0366 31.595 43.9595 31.6701C43.8679 31.7574 43.7113 31.8083 43.5257 31.8083H43.3691L43.4245 31.7477C43.4992 31.6677 43.704 31.5319 43.798 31.498C43.9017 31.4616 43.945 31.464 43.9884 31.5077ZM48.2806 31.5125C48.2806 31.5295 48.2372 31.5683 48.1866 31.5974C48.071 31.6629 47.9962 31.7598 48.0179 31.8156C48.0252 31.8398 48.0637 31.8738 48.1023 31.8956C48.1408 31.915 48.1722 31.9465 48.1722 31.9659C48.1722 32.012 48.0565 32.0968 47.8348 32.2157C47.5624 32.3635 47.4203 32.3732 47.3552 32.2472C47.266 32.0823 47.6685 31.6507 48.0348 31.515C48.1722 31.464 48.2806 31.464 48.2806 31.5125ZM49.9749 31.4834C50.0472 31.5053 50.0423 31.561 49.9508 31.6847C49.7604 31.9441 49.1723 32.349 49.0422 32.3054C48.8325 32.2399 49.3386 31.6798 49.7604 31.515C49.8857 31.4665 49.8977 31.464 49.9749 31.4834Z" fill="#323232"/>
<path fill-rule="evenodd" clip-rule="evenodd" d="M36.0188 31.3168C35.9921 31.341 35.9994 31.5859 36.0261 31.6029C36.0527 31.6198 36.22 31.4671 36.22 31.4259C36.22 31.3944 36.1012 31.2998 36.0624 31.2998C36.0479 31.2998 36.0261 31.3071 36.0188 31.3168Z" fill="#323232"/>
<path fill-rule="evenodd" clip-rule="evenodd" d="M34.3195 32.0321L34.3268 32.1121L34.9558 32.1193C35.6475 32.1266 35.8258 32.1121 35.8668 32.0442C35.886 32.0102 35.886 31.9957 35.8571 31.9787C35.8354 31.9642 35.5053 31.9545 35.0666 31.9545H34.3123L34.3195 32.0321Z" fill="#323232"/>
<path fill-rule="evenodd" clip-rule="evenodd" d="M52.3759 31.9787C52.3229 32.0005 52.282 32.0708 52.3085 32.0975C52.3157 32.1048 52.682 32.1121 53.1206 32.1121H53.9207L53.928 32.0321L53.9352 31.9545L53.1809 31.9569C52.7664 31.9569 52.4049 31.9666 52.3759 31.9787Z" fill="#323232"/>
<path fill-rule="evenodd" clip-rule="evenodd" d="M35.4645 32.9508C35.1897 33.0308 35.0982 33.3751 35.303 33.5715C35.4886 33.746 35.8452 33.7412 36.0019 33.5642C36.1489 33.3969 36.1176 33.1399 35.9392 33.0138C35.826 32.9338 35.6211 32.9071 35.4645 32.9508ZM35.8308 33.089C35.8645 33.1132 35.9079 33.1738 35.9224 33.2223C36.0067 33.4769 35.7103 33.7048 35.4862 33.5569C35.3922 33.4939 35.3536 33.4187 35.3512 33.2926C35.3512 33.2102 35.3657 33.1763 35.4187 33.1254C35.4548 33.0914 35.5054 33.055 35.5319 33.0429C35.6042 33.0114 35.7609 33.0356 35.8308 33.089Z" fill="#323232"/>
<path fill-rule="evenodd" clip-rule="evenodd" d="M37.3367 32.9484C37.2668 32.9775 37.1825 33.089 37.1825 33.1545C37.1825 33.2442 37.2885 33.3266 37.4235 33.3436C37.5609 33.3606 37.703 33.4212 37.7223 33.4721C37.7296 33.4915 37.7127 33.5303 37.6862 33.5569C37.6139 33.6297 37.4331 33.6103 37.315 33.5206C37.1825 33.4187 37.0933 33.4842 37.2138 33.5982C37.4114 33.7849 37.8814 33.7 37.8814 33.4769C37.8814 33.4406 37.8597 33.3872 37.8356 33.363C37.7946 33.3218 37.5801 33.2393 37.5127 33.2393C37.462 33.2393 37.3271 33.1593 37.3271 33.1278C37.3271 33.0793 37.4259 33.0211 37.5102 33.0211C37.5512 33.0211 37.6259 33.0478 37.6741 33.0817C37.7705 33.1472 37.8573 33.1617 37.8573 33.1108C37.8573 32.9872 37.5078 32.8781 37.3367 32.9484Z" fill="#323232"/>
<path fill-rule="evenodd" clip-rule="evenodd" d="M42.4322 32.9461C42.1551 33.0358 42.0515 33.288 42.1937 33.5207C42.278 33.6613 42.5359 33.7341 42.748 33.6759C43.0637 33.591 43.1408 33.1983 42.8805 33.014C42.7721 32.9388 42.5576 32.9073 42.4322 32.9461ZM42.7648 33.0819C42.8468 33.1352 42.9022 33.2734 42.8853 33.3728C42.8757 33.414 42.8371 33.4819 42.7962 33.5207C42.7335 33.5813 42.7046 33.591 42.5937 33.591C42.4347 33.591 42.3431 33.5304 42.2949 33.3922C42.2635 33.3049 42.266 33.288 42.3069 33.2007C42.3889 33.031 42.6034 32.9752 42.7648 33.0819Z" fill="#323232"/>
<path fill-rule="evenodd" clip-rule="evenodd" d="M43.4323 32.9677C43.2757 33.0307 43.213 33.0986 43.1961 33.2247C43.1696 33.3969 43.1985 33.4914 43.3046 33.586C43.4444 33.7145 43.6974 33.7363 43.8854 33.6369C43.9866 33.586 44.0782 33.4332 44.0806 33.3193C44.083 33.1471 43.9914 33.0235 43.8131 32.9604C43.6805 32.9144 43.56 32.9168 43.4323 32.9677ZM43.7793 33.0695C43.9529 33.1762 43.9794 33.3702 43.8396 33.5108C43.6637 33.6902 43.3287 33.5811 43.3287 33.3435C43.3287 33.0986 43.5793 32.9459 43.7793 33.0695Z" fill="#323232"/>
<path fill-rule="evenodd" clip-rule="evenodd" d="M48.5008 32.9482C48.3465 32.9967 48.2333 33.1834 48.2525 33.3555C48.267 33.4913 48.3297 33.5762 48.4622 33.6441C48.6574 33.7459 48.9225 33.6998 49.0647 33.5422C49.1177 33.4865 49.125 33.4549 49.125 33.3167C49.1225 33.1228 49.0792 33.0428 48.949 32.9894C48.8333 32.9434 48.5899 32.9215 48.5008 32.9482ZM48.8502 33.0767C48.896 33.1058 48.9514 33.1713 48.9755 33.2222C49.0189 33.3095 49.0189 33.3143 48.9755 33.4016C48.9177 33.5204 48.7948 33.6028 48.6719 33.6028C48.5948 33.6028 48.561 33.5859 48.4839 33.5083C48.4092 33.4331 48.3899 33.3968 48.3899 33.324C48.3899 33.0816 48.6502 32.9409 48.8502 33.0767Z" fill="#323232"/>
<path fill-rule="evenodd" clip-rule="evenodd" d="M51.3473 32.9579C51.222 33.004 51.1713 33.0549 51.1231 33.181C51.0267 33.438 51.222 33.6998 51.5112 33.6998C51.6461 33.6998 51.8028 33.6222 51.8582 33.5277C51.945 33.3846 51.8702 33.3677 51.7208 33.4962C51.6533 33.5519 51.5859 33.5883 51.5232 33.5956C51.4389 33.6077 51.4196 33.6004 51.3449 33.5253C51.2027 33.3822 51.2003 33.244 51.3425 33.101C51.4461 32.9967 51.5256 32.9967 51.6919 33.1058C51.8365 33.2004 51.8943 33.1882 51.8365 33.0791C51.769 32.9555 51.5208 32.8924 51.3473 32.9579Z" fill="#323232"/>
<path fill-rule="evenodd" clip-rule="evenodd" d="M52.3522 32.941C52.2679 32.9579 52.1064 33.1107 52.0775 33.2052C52.0438 33.3095 52.0582 33.4089 52.1305 33.5253C52.198 33.6344 52.3402 33.6974 52.5209 33.6998C52.6559 33.6998 52.6655 33.695 52.7692 33.5907C52.8294 33.5325 52.8728 33.4695 52.868 33.4525C52.8487 33.3943 52.7836 33.4065 52.7137 33.4768C52.5812 33.6077 52.492 33.632 52.3667 33.5665C52.2221 33.4913 52.1787 33.2852 52.2775 33.1398C52.3739 32.9943 52.4896 32.9943 52.721 33.1446C52.7957 33.1907 52.8005 33.1931 52.8174 33.1543C52.8656 33.0234 52.586 32.8949 52.3522 32.941Z" fill="#323232"/>
<path fill-rule="evenodd" clip-rule="evenodd" d="M53.3043 32.9462C53.1018 33.0117 53.0295 33.1353 53.0392 33.3899C53.0416 33.4772 53.15 33.6009 53.2705 33.6542C53.485 33.7536 53.8128 33.6712 53.8947 33.4966C53.9791 33.3196 53.9236 33.1135 53.767 33.0093C53.6609 32.939 53.4248 32.9074 53.3043 32.9462ZM53.6465 33.0723C53.7164 33.099 53.7887 33.2323 53.7887 33.3342C53.7887 33.4699 53.6272 33.6033 53.4633 33.6033C53.4007 33.6033 53.3549 33.5815 53.2874 33.5208C53.2055 33.4433 53.1982 33.4263 53.1982 33.3051C53.1982 33.2081 53.2103 33.1572 53.244 33.1208C53.3284 33.0262 53.4826 33.0093 53.6465 33.0723Z" fill="#323232"/>
<path fill-rule="evenodd" clip-rule="evenodd" d="M34.3684 32.9773C34.3756 32.9943 34.4238 33.0113 34.4768 33.0161C34.5323 33.021 34.5901 33.0404 34.607 33.0598C34.6262 33.084 34.6431 33.2028 34.6479 33.3871C34.6576 33.6368 34.6648 33.6756 34.6985 33.6756C34.7805 33.6756 34.7974 33.6223 34.7974 33.3725C34.7974 33.0743 34.8239 33.021 34.9661 33.0282C35.0673 33.0307 35.101 33.0161 35.0745 32.9749C35.0504 32.9337 34.3563 32.9385 34.3684 32.9773Z" fill="#323232"/>
<path fill-rule="evenodd" clip-rule="evenodd" d="M36.5367 33.004C36.4836 33.0622 36.2836 33.4889 36.2547 33.6077C36.2402 33.6659 36.2451 33.6756 36.286 33.6756C36.3342 33.6756 36.38 33.6344 36.4234 33.5446C36.4451 33.501 36.4716 33.4937 36.621 33.4865L36.7945 33.4792L36.8283 33.5592C36.8885 33.7022 36.9897 33.741 36.9897 33.6198C36.9897 33.5495 36.7777 33.0597 36.7198 32.9967C36.6596 32.9337 36.5993 32.9361 36.5367 33.004ZM36.6909 33.2537C36.7102 33.358 36.6789 33.3968 36.5945 33.3749C36.5222 33.358 36.5126 33.2998 36.5704 33.2198C36.6258 33.1397 36.6716 33.1543 36.6909 33.2537Z" fill="#323232"/>
<path fill-rule="evenodd" clip-rule="evenodd" d="M38.031 32.9777C38.0383 32.9947 38.0576 33.0116 38.0768 33.0141C38.0961 33.0165 38.1515 33.0238 38.2022 33.0335L38.2913 33.048V33.2008C38.2913 33.4602 38.3202 33.6542 38.3588 33.6711C38.4239 33.6954 38.4552 33.6057 38.4721 33.3244L38.4889 33.048L38.5757 33.0335C38.6263 33.0238 38.6793 33.0165 38.6986 33.0141C38.7179 33.0116 38.7372 32.9947 38.7444 32.9777C38.7516 32.9559 38.6697 32.9486 38.3877 32.9486C38.1058 32.9486 38.0238 32.9559 38.031 32.9777Z" fill="#323232"/>
<path fill-rule="evenodd" clip-rule="evenodd" d="M39.0118 32.9652C38.9323 32.9773 38.9178 33.0379 38.9178 33.3483C38.9178 33.678 38.9275 33.6877 39.2986 33.6877C39.4577 33.6877 39.5975 33.678 39.6071 33.6683C39.6433 33.6344 39.5613 33.6028 39.4336 33.6028C39.3661 33.6028 39.2601 33.5956 39.1974 33.5883L39.0865 33.5713V33.4695V33.3677L39.3059 33.3531C39.4288 33.3458 39.5372 33.3289 39.5517 33.3143C39.5878 33.2779 39.4673 33.2392 39.3131 33.2392C39.1492 33.2392 39.0865 33.2076 39.0865 33.1276C39.0865 33.05 39.1613 33.0209 39.3637 33.0209C39.53 33.0209 39.5999 33.004 39.5782 32.97C39.5661 32.9482 39.1396 32.9458 39.0118 32.9652Z" fill="#323232"/>
<path fill-rule="evenodd" clip-rule="evenodd" d="M39.8798 32.965C39.8484 32.9723 39.8388 33.0159 39.8291 33.1856C39.8243 33.302 39.8243 33.4547 39.8291 33.525C39.8388 33.639 39.846 33.6584 39.9039 33.6802C39.9906 33.7142 40.287 33.6923 40.381 33.6439C40.5618 33.5493 40.6341 33.302 40.5329 33.1201C40.4557 32.9844 40.3666 32.948 40.1183 32.9504C40.0099 32.9529 39.9014 32.9577 39.8798 32.965ZM40.2678 33.045C40.3762 33.0741 40.4365 33.1735 40.4365 33.3238C40.4365 33.4159 40.4244 33.4499 40.369 33.5057C40.2943 33.5784 40.1617 33.6172 40.0653 33.5929C40.0219 33.5832 40.0051 33.5566 39.993 33.4887C39.9689 33.3335 39.9762 33.0814 40.0075 33.0498C40.0436 33.0135 40.1521 33.0135 40.2678 33.045Z" fill="#323232"/>
<path fill-rule="evenodd" clip-rule="evenodd" d="M41.2369 32.97C41.1887 32.9991 41.2055 33.644 41.2561 33.6755C41.3164 33.7119 41.3501 33.6537 41.3574 33.4985L41.3646 33.3482L41.5694 33.3579C41.6851 33.3628 41.7815 33.3773 41.7912 33.3943C41.8008 33.4088 41.8104 33.4525 41.8104 33.4937C41.8104 33.6028 41.8369 33.6755 41.8731 33.6755C41.9189 33.6755 41.9333 33.5543 41.9261 33.2391C41.9189 32.9797 41.9165 32.9603 41.8707 32.9603C41.8321 32.9603 41.8201 32.9821 41.808 33.0767C41.8008 33.1421 41.7791 33.2052 41.7598 33.2173C41.743 33.2294 41.6466 33.2391 41.5526 33.2391H41.3766V33.1567C41.3766 32.9918 41.3188 32.9166 41.2369 32.97Z" fill="#323232"/>
<path fill-rule="evenodd" clip-rule="evenodd" d="M44.8109 32.9777C44.7844 32.9923 44.6928 33.0601 44.6085 33.1232C44.4374 33.2565 44.4133 33.2517 44.3916 33.0892C44.3819 33.0165 44.3651 32.9826 44.3361 32.9777C44.2976 32.9704 44.2928 32.9995 44.2928 33.3074C44.2928 33.4917 44.3 33.6517 44.3096 33.659C44.3385 33.6881 44.3867 33.6226 44.4036 33.5329C44.4205 33.4335 44.4735 33.3365 44.5121 33.3365C44.5265 33.3365 44.6181 33.4117 44.7121 33.5063C44.8784 33.6663 44.9459 33.7051 44.9796 33.6542C44.9868 33.6396 44.9218 33.5499 44.835 33.4481C44.7482 33.3487 44.6784 33.2565 44.6784 33.242C44.6784 33.2299 44.7434 33.1668 44.823 33.1062C44.9627 32.9971 44.9868 32.9486 44.9001 32.9486C44.8784 32.9486 44.8374 32.9632 44.8109 32.9777Z" fill="#323232"/>
<path fill-rule="evenodd" clip-rule="evenodd" d="M45.4157 32.992C45.3603 33.0575 45.1361 33.557 45.1361 33.62C45.1361 33.7194 45.2615 33.6709 45.3 33.5545C45.3265 33.4842 45.3313 33.4818 45.4832 33.4818C45.6109 33.4818 45.6519 33.4915 45.6904 33.5303C45.7169 33.557 45.7386 33.5957 45.7386 33.6151C45.7386 33.6564 45.8085 33.6976 45.8543 33.683C45.8688 33.6758 45.8832 33.6539 45.8832 33.6321C45.8832 33.5691 45.623 33.0139 45.5772 32.9775C45.5193 32.9363 45.4639 32.9411 45.4157 32.992ZM45.5748 33.2418C45.5989 33.3242 45.5964 33.3436 45.5675 33.363C45.5193 33.3921 45.4904 33.3897 45.4374 33.3533C45.3964 33.3218 45.3964 33.3169 45.4494 33.2199C45.4808 33.1642 45.5145 33.1254 45.5241 33.1327C45.5362 33.1399 45.5579 33.1884 45.5748 33.2418Z" fill="#323232"/>
<path fill-rule="evenodd" clip-rule="evenodd" d="M46.093 32.9655C46.0833 32.9727 46.0761 33.1328 46.0761 33.317C46.0761 33.6007 46.0809 33.6565 46.1146 33.6686C46.1725 33.6904 46.2038 33.6395 46.2159 33.494L46.2255 33.3607H46.3508C46.4183 33.3607 46.5123 33.3534 46.5605 33.3461L46.6472 33.3316L46.6593 33.494C46.6762 33.6904 46.7027 33.7243 46.775 33.6516C46.8256 33.6007 46.828 33.5813 46.8184 33.3073C46.8087 33.0576 46.8015 33.0115 46.7629 32.9824C46.6979 32.9339 46.6593 32.98 46.6497 33.1134L46.6424 33.2273H46.4376H46.2327L46.2207 33.1182C46.2134 33.0576 46.199 32.9946 46.1894 32.9776C46.1677 32.9461 46.1171 32.9388 46.093 32.9655Z" fill="#323232"/>
<path fill-rule="evenodd" clip-rule="evenodd" d="M47.3824 32.9773C47.3897 32.9943 47.4499 33.0137 47.5174 33.021C47.5849 33.0282 47.6475 33.0428 47.6596 33.0549C47.6692 33.0646 47.6837 33.198 47.6861 33.3483C47.6933 33.5447 47.7054 33.632 47.7271 33.6513C47.7873 33.7023 47.8042 33.6562 47.8187 33.3871C47.8355 33.0598 47.8524 33.0234 47.9801 33.0282C48.0813 33.0307 48.1151 33.0161 48.0886 32.9749C48.0645 32.9337 47.3704 32.9385 47.3824 32.9773Z" fill="#323232"/>
<path fill-rule="evenodd" clip-rule="evenodd" d="M49.3298 33.2711C49.3298 33.6857 49.337 33.7002 49.578 33.7002C49.6744 33.7002 49.7877 33.6905 49.8335 33.676C50.0094 33.6251 50.0769 33.482 49.9877 33.3462C49.954 33.2929 49.9516 33.2711 49.9781 33.2008C50.0118 33.1086 49.9901 33.048 49.9034 32.9874C49.8624 32.9583 49.7853 32.9486 49.5901 32.9486H49.3298V33.2711ZM49.7515 33.0553C49.8383 33.0941 49.8624 33.1547 49.807 33.2105C49.778 33.2396 49.578 33.2493 49.5129 33.225C49.4671 33.208 49.4623 33.0917 49.5033 33.0504C49.5419 33.0116 49.6503 33.0141 49.7515 33.0553ZM49.8552 33.402C49.8961 33.4578 49.8913 33.4917 49.8383 33.5402C49.778 33.5935 49.6262 33.6154 49.5419 33.5814C49.4864 33.5596 49.4744 33.5402 49.4744 33.4699C49.4744 33.4044 49.4864 33.3778 49.5298 33.3608C49.6069 33.3268 49.8166 33.3559 49.8552 33.402Z" fill="#323232"/>
<path fill-rule="evenodd" clip-rule="evenodd" d="M50.5035 32.9771C50.4408 33.0256 50.1661 33.6293 50.195 33.6584C50.2311 33.6948 50.2914 33.6608 50.3444 33.5663C50.395 33.4814 50.3974 33.4814 50.5613 33.4814C50.7204 33.4814 50.7276 33.4838 50.7638 33.5517C50.812 33.6487 50.8963 33.7069 50.9349 33.6729C50.971 33.6414 50.9493 33.5735 50.7927 33.2341C50.6698 32.9674 50.5999 32.9068 50.5035 32.9771ZM50.6264 33.2705C50.636 33.3723 50.5951 33.4038 50.5131 33.3602C50.4505 33.3262 50.4505 33.3092 50.5131 33.2292C50.5782 33.1444 50.6167 33.1589 50.6264 33.2705Z" fill="#323232"/>
</svg>
