<svg width="92" height="57" viewBox="0 0 92 57" fill="none" xmlns="http://www.w3.org/2000/svg">
<path d="M31.3053 46.5388C26.5593 43.3425 23.2794 38.3947 22.1871 32.7837C21.0948 27.1728 22.2795 21.3585 25.4807 16.6198L31.7439 20.8378C29.6631 23.918 28.893 27.6973 29.603 31.3444C30.313 34.9915 32.445 38.2076 35.5299 40.2852L31.3053 46.5388Z" fill="#00D82F"/>
<path d="M55.4456 10.8041C57.7956 12.3867 59.8104 14.416 61.3749 16.7761C62.9394 19.1362 64.023 21.7809 64.5638 24.5591C65.1047 27.3374 65.0922 30.1948 64.5271 32.9682C63.962 35.7416 62.8553 38.3768 61.2702 40.7231C59.6851 43.0695 57.6527 45.0812 55.289 46.6433C52.9253 48.2054 50.2766 49.2874 47.4941 49.8274C44.7116 50.3674 41.8498 50.355 39.0721 49.7907C36.2944 49.2264 33.6553 48.1214 31.3053 46.5388L35.5299 40.2852C37.0574 41.3139 38.7728 42.0322 40.5783 42.399C42.3838 42.7657 44.2439 42.7738 46.0526 42.4228C47.8612 42.0718 49.5829 41.3685 51.1193 40.3531C52.6557 39.3378 53.9767 38.0302 55.007 36.505C56.0373 34.9799 56.7567 33.2671 57.124 31.4643C57.4914 29.6616 57.4995 27.8043 57.1479 25.9984C56.7964 24.1926 56.092 22.4736 55.0751 20.9395C54.0581 19.4054 52.7486 18.0864 51.2211 17.0577L55.4456 10.8041Z" fill="#4DC215"/>
<path d="M25.4807 16.6197C28.682 11.881 33.6374 8.60612 39.2569 7.51547C44.8764 6.42482 50.6996 7.60776 55.4456 10.8041L51.2211 17.0576C48.1362 14.9801 44.3511 14.2111 40.6984 14.9201C37.0457 15.629 33.8247 17.7577 31.7439 20.8378L25.4807 16.6197Z" fill="#FF003D"/>
<path d="M30.8693 12.9212L28.3273 9.65796H17.7961" stroke="black" stroke-width="0.145684"/>
<path d="M31.2322 45.1914L28.6902 48.4547H18.1591" stroke="black" stroke-width="0.145684"/>
<path d="M6.7549 46.8176C6.72812 46.8176 6.71175 46.8042 6.7058 46.7775L6.55851 46.2195C6.55554 46.2106 6.5481 46.2062 6.5362 46.2062H5.46948C5.45757 46.2062 5.45014 46.2106 5.44716 46.2195L5.29987 46.7775C5.29392 46.8042 5.27756 46.8176 5.25078 46.8176H5.01869C5.00381 46.8176 4.99191 46.8132 4.98298 46.8042C4.97703 46.7953 4.97554 46.7834 4.97852 46.7685L5.81315 43.7335C5.8191 43.7067 5.83546 43.6933 5.86224 43.6933H6.14789C6.17467 43.6933 6.19104 43.7067 6.19699 43.7335L7.03162 46.7685L7.03608 46.7819C7.03608 46.8057 7.02121 46.8176 6.99145 46.8176H6.7549ZM5.52304 45.9294C5.52006 45.9324 5.52006 45.9369 5.52304 45.9428C5.52899 45.9458 5.53494 45.9473 5.54089 45.9473H6.46479C6.47074 45.9473 6.4752 45.9458 6.47817 45.9428C6.48413 45.9369 6.48561 45.9324 6.48264 45.9294L6.00953 44.1352C6.00656 44.1293 6.00358 44.1263 6.00061 44.1263C5.99763 44.1263 5.99465 44.1293 5.99168 44.1352L5.52304 45.9294ZM8.49027 43.6889C8.72831 43.6889 8.92023 43.7692 9.06603 43.9299C9.21481 44.0876 9.2892 44.2974 9.2892 44.5592C9.2892 44.8181 9.21481 45.0264 9.06603 45.1841C8.92023 45.3388 8.72831 45.4162 8.49027 45.4162H7.82524C7.81334 45.4162 7.80739 45.4221 7.80739 45.434V46.773C7.80739 46.8027 7.79251 46.8176 7.76276 46.8176H7.53513C7.50538 46.8176 7.4905 46.8027 7.4905 46.773V43.7335C7.4905 43.7038 7.50538 43.6889 7.53513 43.6889H8.49027ZM8.4501 45.1528C8.6078 45.1528 8.73426 45.0993 8.82948 44.9922C8.9247 44.885 8.9723 44.7422 8.9723 44.5637C8.9723 44.3822 8.9247 44.2379 8.82948 44.1307C8.73426 44.0206 8.6078 43.9656 8.4501 43.9656H7.82524C7.81334 43.9656 7.80739 43.9716 7.80739 43.9835V45.135C7.80739 45.1469 7.81334 45.1528 7.82524 45.1528H8.4501ZM10.796 43.6889C11.034 43.6889 11.226 43.7692 11.3718 43.9299C11.5205 44.0876 11.5949 44.2974 11.5949 44.5592C11.5949 44.8181 11.5205 45.0264 11.3718 45.1841C11.226 45.3388 11.034 45.4162 10.796 45.4162H10.131C10.1191 45.4162 10.1131 45.4221 10.1131 45.434V46.773C10.1131 46.8027 10.0982 46.8176 10.0685 46.8176H9.84086C9.81111 46.8176 9.79623 46.8027 9.79623 46.773V43.7335C9.79623 43.7038 9.81111 43.6889 9.84086 43.6889H10.796ZM10.7558 45.1528C10.9135 45.1528 11.04 45.0993 11.1352 44.9922C11.2304 44.885 11.278 44.7422 11.278 44.5637C11.278 44.3822 11.2304 44.2379 11.1352 44.1307C11.04 44.0206 10.9135 43.9656 10.7558 43.9656H10.131C10.1191 43.9656 10.1131 43.9716 10.1131 43.9835V45.135C10.1131 45.1469 10.1191 45.1528 10.131 45.1528H10.7558ZM12.1644 46.8176C12.1347 46.8176 12.1198 46.8027 12.1198 46.773V43.738C12.1198 43.7082 12.1347 43.6933 12.1644 43.6933H12.3921C12.4218 43.6933 12.4367 43.7082 12.4367 43.738V46.5231C12.4367 46.535 12.4427 46.5409 12.4546 46.5409H13.7534C13.7831 46.5409 13.798 46.5558 13.798 46.5855V46.773C13.798 46.8027 13.7831 46.8176 13.7534 46.8176H12.1644ZM15.9913 43.9254C15.9913 43.9552 15.9765 43.9701 15.9467 43.9701H14.6077C14.5958 43.9701 14.5899 43.976 14.5899 43.9879V45.0948C14.5899 45.1067 14.5958 45.1127 14.6077 45.1127H15.5093C15.5391 45.1127 15.5539 45.1275 15.5539 45.1573V45.3447C15.5539 45.3745 15.5391 45.3894 15.5093 45.3894H14.6077C14.5958 45.3894 14.5899 45.3953 14.5899 45.4072V46.5231C14.5899 46.535 14.5958 46.5409 14.6077 46.5409H15.9467C15.9765 46.5409 15.9913 46.5558 15.9913 46.5855V46.773C15.9913 46.8027 15.9765 46.8176 15.9467 46.8176H14.3176C14.2879 46.8176 14.273 46.8027 14.273 46.773V43.738C14.273 43.7082 14.2879 43.6933 14.3176 43.6933H15.9467C15.9765 43.6933 15.9913 43.7082 15.9913 43.738V43.9254ZM17.7222 46.5186C17.7133 46.5335 17.7162 46.5409 17.7311 46.5409H18.9585C18.9883 46.5409 19.0031 46.5558 19.0031 46.5855V46.773C19.0031 46.8027 18.9883 46.8176 18.9585 46.8176H17.3696C17.3398 46.8176 17.325 46.8027 17.325 46.773V46.5766C17.325 46.5588 17.3309 46.5394 17.3428 46.5186C17.6106 46.1556 17.9096 45.739 18.2399 45.2689C18.475 44.9267 18.5925 44.6529 18.5925 44.4476C18.5925 44.2929 18.5479 44.1694 18.4586 44.0772C18.3694 43.982 18.2518 43.9344 18.106 43.9344C17.9632 43.9344 17.8486 43.982 17.7624 44.0772C17.6761 44.1694 17.6344 44.2929 17.6374 44.4476V44.5994C17.6374 44.6291 17.6225 44.644 17.5928 44.644H17.3607C17.3309 44.644 17.316 44.6291 17.316 44.5994V44.4209C17.322 44.1917 17.3979 44.0073 17.5437 43.8674C17.6924 43.7276 17.8829 43.6576 18.115 43.6576C18.353 43.6576 18.5449 43.7305 18.6907 43.8763C18.8365 44.0221 18.9094 44.2126 18.9094 44.4476C18.9094 44.7095 18.7874 45.0189 18.5434 45.376C18.3917 45.5962 18.1521 45.9294 17.8248 46.3758L17.7222 46.5186ZM21.0016 45.376C21.0403 45.5158 21.0596 45.6765 21.0596 45.858C21.0596 46.0098 21.0462 46.1407 21.0194 46.2508C20.9748 46.4442 20.8855 46.593 20.7516 46.6971C20.6207 46.8013 20.4556 46.8533 20.2562 46.8533C20.0539 46.8533 19.8858 46.7998 19.7519 46.6927C19.618 46.5855 19.5302 46.4353 19.4885 46.2419C19.4736 46.1883 19.4647 46.1333 19.4617 46.0767V46.0678C19.4617 46.044 19.4751 46.0321 19.5019 46.0321H19.734C19.7608 46.0321 19.7757 46.044 19.7786 46.0678V46.0857L19.7965 46.1749C19.8233 46.3029 19.8753 46.4011 19.9527 46.4695C20.033 46.5379 20.1342 46.5721 20.2562 46.5721C20.3752 46.5721 20.4734 46.5379 20.5508 46.4695C20.6311 46.3981 20.6847 46.2984 20.7115 46.1705C20.7323 46.0871 20.7427 45.9845 20.7427 45.8625C20.7427 45.7494 20.7308 45.6334 20.707 45.5144C20.6802 45.3953 20.6281 45.3061 20.5508 45.2466C20.4734 45.1841 20.3752 45.1528 20.2562 45.1528C20.1431 45.1528 20.0449 45.1796 19.9616 45.2332C19.8813 45.2838 19.8248 45.3581 19.792 45.4563L19.7831 45.4742C19.7801 45.495 19.7652 45.5054 19.7385 45.5054H19.5019C19.4722 45.5054 19.4573 45.4905 19.4573 45.4608V43.738C19.4573 43.7082 19.4722 43.6933 19.5019 43.6933H20.9168C20.9465 43.6933 20.9614 43.7082 20.9614 43.738V43.9254C20.9614 43.9552 20.9465 43.9701 20.9168 43.9701H19.792C19.7801 43.9701 19.7742 43.976 19.7742 43.9879V45.0814C19.7742 45.0874 19.7757 45.0918 19.7786 45.0948C19.7846 45.0948 19.7905 45.0918 19.7965 45.0859C19.856 45.0204 19.9304 44.9698 20.0197 44.9341C20.1119 44.8954 20.2101 44.8761 20.3142 44.8761C20.4898 44.8761 20.6356 44.9193 20.7516 45.0055C20.8707 45.0889 20.954 45.2123 21.0016 45.376ZM22.2555 44.9207C22.1394 44.9207 22.0323 44.8925 21.9341 44.8359C21.8389 44.7794 21.763 44.7035 21.7065 44.6083C21.65 44.5101 21.6217 44.403 21.6217 44.287C21.6217 44.1709 21.65 44.0653 21.7065 43.9701C21.763 43.8719 21.8389 43.7945 21.9341 43.738C22.0323 43.6814 22.1394 43.6532 22.2555 43.6532C22.3685 43.6532 22.4727 43.6814 22.5679 43.738C22.6661 43.7945 22.7435 43.8719 22.8 43.9701C22.8565 44.0653 22.8848 44.1709 22.8848 44.287C22.8848 44.403 22.8565 44.5101 22.8 44.6083C22.7435 44.7035 22.6661 44.7794 22.5679 44.8359C22.4727 44.8925 22.3685 44.9207 22.2555 44.9207ZM22.1528 46.8176C22.1379 46.8176 22.126 46.8132 22.1171 46.8042C22.1112 46.7923 22.1126 46.7789 22.1216 46.7641L23.7819 43.7246C23.7908 43.7038 23.8087 43.6933 23.8355 43.6933H23.9783C23.9932 43.6933 24.0036 43.6993 24.0095 43.7112C24.0185 43.7201 24.0185 43.732 24.0095 43.7469L22.3492 46.7864C22.3403 46.8072 22.3224 46.8176 22.2956 46.8176H22.1528ZM22.2555 44.7244C22.3745 44.7244 22.4742 44.6827 22.5545 44.5994C22.6378 44.5131 22.6795 44.409 22.6795 44.287C22.6795 44.165 22.6378 44.0623 22.5545 43.979C22.4742 43.8927 22.3745 43.8496 22.2555 43.8496C22.1365 43.8496 22.0353 43.8927 21.952 43.979C21.8687 44.0623 21.827 44.165 21.827 44.287C21.827 44.409 21.8687 44.5131 21.952 44.5994C22.0353 44.6827 22.1365 44.7244 22.2555 44.7244ZM23.8935 46.8578C23.7774 46.8578 23.6703 46.8295 23.5721 46.773C23.4769 46.7165 23.401 46.6391 23.3445 46.5409C23.288 46.4427 23.2597 46.3356 23.2597 46.2195C23.2597 46.1065 23.288 46.0023 23.3445 45.9071C23.401 45.8089 23.4769 45.7316 23.5721 45.675C23.6703 45.6185 23.7774 45.5902 23.8935 45.5902C24.0066 45.5902 24.1107 45.6185 24.2059 45.675C24.3041 45.7316 24.3815 45.8089 24.438 45.9071C24.4945 46.0023 24.5228 46.1065 24.5228 46.2195C24.5228 46.3356 24.4945 46.4427 24.438 46.5409C24.3815 46.6391 24.3041 46.7165 24.2059 46.773C24.1107 46.8295 24.0066 46.8578 23.8935 46.8578ZM23.8935 46.6614C24.0125 46.6614 24.1122 46.6183 24.1925 46.532C24.2758 46.4457 24.3175 46.3415 24.3175 46.2195C24.3175 46.0976 24.2758 45.9949 24.1925 45.9116C24.1122 45.8283 24.0125 45.7866 23.8935 45.7866C23.7745 45.7866 23.6733 45.8283 23.59 45.9116C23.5067 45.9949 23.465 46.0976 23.465 46.2195C23.465 46.3445 23.5052 46.4502 23.5855 46.5364C23.6688 46.6198 23.7715 46.6614 23.8935 46.6614Z" fill="#404040"/>
<path d="M1.73035 8.43903C1.45958 8.43903 1.24088 8.35869 1.07425 8.19801C0.910597 8.03733 0.82877 7.82458 0.82877 7.55976V6.11813C0.82877 5.85331 0.910597 5.64205 1.07425 5.48434C1.24088 5.32367 1.45958 5.24333 1.73035 5.24333C2.0041 5.24333 2.2228 5.32218 2.38645 5.47988C2.55308 5.63758 2.63639 5.84736 2.63639 6.1092V6.14937C2.63639 6.17913 2.62152 6.194 2.59176 6.194L2.36413 6.20293C2.33438 6.20293 2.3195 6.18954 2.3195 6.16276V6.10027C2.3195 5.9277 2.26445 5.78785 2.15436 5.68073C2.04724 5.57361 1.90591 5.52005 1.73035 5.52005C1.5548 5.52005 1.41346 5.57361 1.30634 5.68073C1.19922 5.78487 1.14566 5.92472 1.14566 6.10027V7.58208C1.14566 7.75763 1.19922 7.89897 1.30634 8.00609C1.41346 8.11023 1.5548 8.1623 1.73035 8.1623C1.90591 8.1623 2.04724 8.10874 2.15436 8.00163C2.26445 7.89451 2.3195 7.75466 2.3195 7.58208V7.51959C2.3195 7.49281 2.33438 7.47942 2.36413 7.47942L2.59176 7.49281C2.62152 7.49281 2.63639 7.50769 2.63639 7.53745V7.56869C2.63639 7.83053 2.55308 8.0418 2.38645 8.20247C2.2228 8.36018 2.0041 8.43903 1.73035 8.43903ZM4.79379 8.40332C4.76999 8.40332 4.75362 8.39142 4.74469 8.36761L4.19125 6.98846C4.18827 6.97954 4.18232 6.97507 4.1734 6.97507H3.59763C3.58573 6.97507 3.57978 6.98103 3.57978 6.99293V8.35869C3.57978 8.38844 3.5649 8.40332 3.53515 8.40332H3.30752C3.27777 8.40332 3.26289 8.38844 3.26289 8.35869V5.32367C3.26289 5.29391 3.27777 5.27903 3.30752 5.27903H4.25373C4.40846 5.27903 4.54533 5.31474 4.66436 5.38615C4.78635 5.45756 4.88008 5.55873 4.94554 5.68965C5.01398 5.82058 5.0482 5.97084 5.0482 6.14044C5.0482 6.34278 4.9991 6.51536 4.90091 6.65818C4.80272 6.80101 4.66882 6.89622 4.49921 6.94383C4.48731 6.94978 4.48434 6.95722 4.49029 6.96615L5.06605 8.34976L5.07051 8.36761C5.07051 8.39142 5.05712 8.40332 5.03034 8.40332H4.79379ZM3.59763 5.55576C3.58573 5.55576 3.57978 5.56171 3.57978 5.57361V6.70282C3.57978 6.71472 3.58573 6.72067 3.59763 6.72067H4.21357C4.36829 6.72067 4.49326 6.66711 4.58848 6.55999C4.6837 6.45287 4.7313 6.31302 4.7313 6.14044C4.7313 5.96489 4.6837 5.82355 4.58848 5.71643C4.49326 5.60932 4.36829 5.55576 4.21357 5.55576H3.59763ZM7.2473 8.40332C7.22052 8.40332 7.20415 8.38993 7.1982 8.36315L7.05091 7.80524C7.04794 7.79632 7.0405 7.79185 7.0286 7.79185H5.96188C5.94997 7.79185 5.94254 7.79632 5.93956 7.80524L5.79227 8.36315C5.78632 8.38993 5.76996 8.40332 5.74318 8.40332H5.51109C5.49621 8.40332 5.48431 8.39886 5.47538 8.38993C5.46943 8.381 5.46794 8.3691 5.47092 8.35422L6.30555 5.3192C6.3115 5.29242 6.32786 5.27903 6.35464 5.27903H6.64029C6.66707 5.27903 6.68344 5.29242 6.68939 5.3192L7.52402 8.35422L7.52848 8.36761C7.52848 8.39142 7.5136 8.40332 7.48385 8.40332H7.2473ZM6.01544 7.51513C6.01246 7.51811 6.01246 7.52257 6.01544 7.52852C6.02139 7.5315 6.02734 7.53298 6.03329 7.53298H6.95718C6.96314 7.53298 6.9676 7.5315 6.97057 7.52852C6.97653 7.52257 6.97801 7.51811 6.97504 7.51513L6.50193 5.7209C6.49896 5.71495 6.49598 5.71197 6.493 5.71197C6.49003 5.71197 6.48705 5.71495 6.48408 5.7209L6.01544 7.51513ZM9.55397 5.32367C9.55397 5.29391 9.56885 5.27903 9.5986 5.27903H9.82623C9.85598 5.27903 9.87086 5.29391 9.87086 5.32367V8.35869C9.87086 8.38844 9.85598 8.40332 9.82623 8.40332H9.58521C9.55843 8.40332 9.54058 8.39291 9.53165 8.37208L8.3355 5.98423C8.32955 5.97828 8.32359 5.9753 8.31764 5.9753C8.31467 5.9753 8.31318 5.97977 8.31318 5.98869L8.31764 8.35869C8.31764 8.38844 8.30277 8.40332 8.27301 8.40332H8.04538C8.01563 8.40332 8.00075 8.38844 8.00075 8.35869V5.32367C8.00075 5.29391 8.01563 5.27903 8.04538 5.27903H8.2864C8.31318 5.27903 8.33103 5.28945 8.33996 5.31028L9.53612 7.70705C9.54207 7.713 9.54653 7.71598 9.54951 7.71598C9.55546 7.71598 9.55843 7.71151 9.55843 7.70259L9.55397 5.32367ZM11.9334 6.77423C11.9186 6.78018 11.9186 6.78762 11.9334 6.79654C12.0733 6.86498 12.1804 6.96317 12.2548 7.09112C12.3322 7.21907 12.3723 7.37379 12.3753 7.5553C12.3753 7.8231 12.295 8.03138 12.1343 8.18016C11.9766 8.32893 11.7668 8.40332 11.505 8.40332H10.6257C10.596 8.40332 10.5811 8.38844 10.5811 8.35869V5.32367C10.5811 5.29391 10.596 5.27903 10.6257 5.27903H11.4693C11.743 5.27903 11.9573 5.35045 12.112 5.49327C12.2667 5.63312 12.3441 5.83397 12.3441 6.09581C12.3441 6.26244 12.3084 6.40229 12.2369 6.51536C12.1685 6.62843 12.0673 6.71472 11.9334 6.77423ZM10.9158 5.55576C10.9039 5.55576 10.898 5.56171 10.898 5.57361V6.64926C10.898 6.66116 10.9039 6.66711 10.9158 6.66711H11.4737C11.6463 6.66711 11.7817 6.61801 11.8799 6.51982C11.9811 6.42163 12.0316 6.28922 12.0316 6.12259C12.0316 5.94704 11.9811 5.80867 11.8799 5.70751C11.7817 5.60634 11.6463 5.55576 11.4737 5.55576H10.9158ZM11.496 8.12213C11.6686 8.12213 11.8055 8.06858 11.9067 7.96146C12.0078 7.85434 12.0584 7.70854 12.0584 7.52406C12.0584 7.3366 12.0063 7.18931 11.9022 7.08219C11.801 6.97508 11.6627 6.92152 11.4871 6.92152H10.9158C10.9039 6.92152 10.898 6.92747 10.898 6.93937V8.10428C10.898 8.11618 10.9039 8.12213 10.9158 8.12213H11.496ZM14.6836 5.51112C14.6836 5.54088 14.6687 5.55576 14.639 5.55576H13.3C13.2881 5.55576 13.2822 5.56171 13.2822 5.57361V6.6805C13.2822 6.6924 13.2881 6.69835 13.3 6.69835H14.2016C14.2313 6.69835 14.2462 6.71323 14.2462 6.74299V6.93044C14.2462 6.9602 14.2313 6.97507 14.2016 6.97507H13.3C13.2881 6.97507 13.2822 6.98103 13.2822 6.99293V8.10874C13.2822 8.12065 13.2881 8.1266 13.3 8.1266H14.639C14.6687 8.1266 14.6836 8.14148 14.6836 8.17123V8.35869C14.6836 8.38844 14.6687 8.40332 14.639 8.40332H13.0099C12.9801 8.40332 12.9653 8.38844 12.9653 8.35869V5.32367C12.9653 5.29391 12.9801 5.27903 13.0099 5.27903H14.639C14.6687 5.27903 14.6836 5.29391 14.6836 5.32367V5.51112ZM16.8019 8.40332C16.7781 8.40332 16.7617 8.39142 16.7528 8.36761L16.1994 6.98846C16.1964 6.97954 16.1904 6.97507 16.1815 6.97507H15.6057C15.5938 6.97507 15.5879 6.98103 15.5879 6.99293V8.35869C15.5879 8.38844 15.573 8.40332 15.5433 8.40332H15.3156C15.2859 8.40332 15.271 8.38844 15.271 8.35869V5.32367C15.271 5.29391 15.2859 5.27903 15.3156 5.27903H16.2618C16.4166 5.27903 16.5534 5.31474 16.6725 5.38615C16.7945 5.45756 16.8882 5.55873 16.9536 5.68965C17.0221 5.82058 17.0563 5.97084 17.0563 6.14044C17.0563 6.34278 17.0072 6.51536 16.909 6.65818C16.8108 6.80101 16.6769 6.89622 16.5073 6.94383C16.4954 6.94978 16.4924 6.95722 16.4984 6.96615L17.0742 8.34976L17.0786 8.36761C17.0786 8.39142 17.0652 8.40332 17.0384 8.40332H16.8019ZM15.6057 5.55576C15.5938 5.55576 15.5879 5.56171 15.5879 5.57361V6.70282C15.5879 6.71472 15.5938 6.72067 15.6057 6.72067H16.2217C16.3764 6.72067 16.5014 6.66711 16.5966 6.55999C16.6918 6.45287 16.7394 6.31302 16.7394 6.14044C16.7394 5.96489 16.6918 5.82355 16.5966 5.71643C16.5014 5.60932 16.3764 5.55576 16.2217 5.55576H15.6057ZM19.1599 8.40332C19.1361 8.40332 19.1198 8.39142 19.1108 8.36761L18.5574 6.98846C18.5544 6.97954 18.5485 6.97507 18.5395 6.97507H17.9638C17.9519 6.97507 17.9459 6.98103 17.9459 6.99293V8.35869C17.9459 8.38844 17.931 8.40332 17.9013 8.40332H17.6737C17.6439 8.40332 17.629 8.38844 17.629 8.35869V5.32367C17.629 5.29391 17.6439 5.27903 17.6737 5.27903H18.6199C18.7746 5.27903 18.9115 5.31474 19.0305 5.38615C19.1525 5.45756 19.2462 5.55873 19.3117 5.68965C19.3801 5.82058 19.4143 5.97084 19.4143 6.14044C19.4143 6.34278 19.3652 6.51536 19.267 6.65818C19.1689 6.80101 19.035 6.89622 18.8654 6.94383C18.8535 6.94978 18.8505 6.95722 18.8564 6.96615L19.4322 8.34976L19.4367 8.36761C19.4367 8.39142 19.4233 8.40332 19.3965 8.40332H19.1599ZM17.9638 5.55576C17.9519 5.55576 17.9459 5.56171 17.9459 5.57361V6.70282C17.9459 6.71472 17.9519 6.72067 17.9638 6.72067H18.5797C18.7344 6.72067 18.8594 6.66711 18.9546 6.55999C19.0498 6.45287 19.0974 6.31302 19.0974 6.14044C19.0974 5.96489 19.0498 5.82355 18.9546 5.71643C18.8594 5.60932 18.7344 5.55576 18.5797 5.55576H17.9638ZM20.5552 8.39886C20.5254 8.39886 20.5105 8.38398 20.5105 8.35422V7.02417C20.5105 7.01227 20.509 7.00483 20.5061 7.00185L19.7339 5.33259L19.7294 5.31474C19.7294 5.29094 19.7428 5.27903 19.7696 5.27903H20.0106C20.0344 5.27903 20.0508 5.29094 20.0597 5.31474L20.6578 6.64926C20.6608 6.65521 20.6652 6.65818 20.6712 6.65818C20.6771 6.65818 20.6816 6.65521 20.6846 6.64926L21.2827 5.31474C21.2916 5.29094 21.308 5.27903 21.3318 5.27903H21.5728C21.5877 5.27903 21.5981 5.28498 21.604 5.29689C21.6129 5.30581 21.6144 5.31772 21.6085 5.33259L20.8319 7.00185C20.8289 7.00483 20.8274 7.01227 20.8274 7.02417V8.35422C20.8274 8.38398 20.8125 8.39886 20.7828 8.39886H20.5552ZM23.2924 8.10428C23.2835 8.11916 23.2865 8.1266 23.3014 8.1266H24.5288C24.5585 8.1266 24.5734 8.14148 24.5734 8.17123V8.35869C24.5734 8.38844 24.5585 8.40332 24.5288 8.40332H22.9398C22.9101 8.40332 22.8952 8.38844 22.8952 8.35869V8.1623C22.8952 8.14445 22.9011 8.12511 22.913 8.10428C23.1808 7.74127 23.4799 7.3247 23.8102 6.85457C24.0452 6.51238 24.1628 6.23864 24.1628 6.03333C24.1628 5.8786 24.1181 5.75512 24.0289 5.66287C23.9396 5.56766 23.8221 5.52005 23.6763 5.52005C23.5334 5.52005 23.4189 5.56766 23.3326 5.66287C23.2463 5.75512 23.2046 5.8786 23.2076 6.03333V6.18508C23.2076 6.21483 23.1927 6.22971 23.163 6.22971H22.9309C22.9011 6.22971 22.8863 6.21483 22.8863 6.18508V6.00655C22.8922 5.77743 22.9681 5.59295 23.1139 5.4531C23.2627 5.31325 23.4531 5.24333 23.6852 5.24333C23.9232 5.24333 24.1152 5.31623 24.261 5.46203C24.4068 5.60783 24.4797 5.79826 24.4797 6.03333C24.4797 6.29517 24.3577 6.60462 24.1137 6.96169C23.9619 7.18187 23.7224 7.51513 23.3951 7.96146L23.2924 8.10428ZM26.5718 6.96169C26.6105 7.10153 26.6298 7.26221 26.6298 7.44372C26.6298 7.59547 26.6164 7.72639 26.5897 7.83649C26.545 8.02989 26.4558 8.17867 26.3219 8.28281C26.1909 8.38696 26.0258 8.43903 25.8264 8.43903C25.6241 8.43903 25.456 8.38547 25.3221 8.27835C25.1882 8.17123 25.1004 8.02097 25.0588 7.82756C25.0439 7.774 25.035 7.71895 25.032 7.66242V7.65349C25.032 7.62969 25.0454 7.61779 25.0722 7.61779H25.3042C25.331 7.61779 25.3459 7.62969 25.3489 7.65349V7.67134L25.3667 7.76061C25.3935 7.88856 25.4456 7.98675 25.5229 8.05519C25.6033 8.12362 25.7044 8.15784 25.8264 8.15784C25.9455 8.15784 26.0437 8.12362 26.121 8.05519C26.2014 7.98377 26.2549 7.88409 26.2817 7.75615C26.3025 7.67283 26.3129 7.57018 26.3129 7.44818C26.3129 7.33511 26.301 7.21907 26.2772 7.10005C26.2505 6.98103 26.1984 6.89176 26.121 6.83225C26.0437 6.76976 25.9455 6.73852 25.8264 6.73852C25.7134 6.73852 25.6152 6.7653 25.5319 6.81886C25.4515 6.86944 25.395 6.94383 25.3623 7.04202L25.3533 7.05988C25.3504 7.08071 25.3355 7.09112 25.3087 7.09112H25.0722C25.0424 7.09112 25.0275 7.07624 25.0275 7.04649V5.32367C25.0275 5.29391 25.0424 5.27903 25.0722 5.27903H26.487C26.5168 5.27903 26.5316 5.29391 26.5316 5.32367V5.51112C26.5316 5.54088 26.5168 5.55576 26.487 5.55576H25.3623C25.3504 5.55576 25.3444 5.56171 25.3444 5.57361V6.66711C25.3444 6.67306 25.3459 6.67752 25.3489 6.6805C25.3548 6.6805 25.3608 6.67752 25.3667 6.67157C25.4262 6.60611 25.5006 6.55553 25.5899 6.51982C25.6821 6.48114 25.7803 6.4618 25.8845 6.4618C26.06 6.4618 26.2058 6.50494 26.3219 6.59123C26.4409 6.67455 26.5242 6.79803 26.5718 6.96169ZM27.8257 6.50643C27.7097 6.50643 27.6025 6.47816 27.5044 6.42163C27.4091 6.3651 27.3333 6.28922 27.2767 6.194C27.2202 6.09581 27.1919 5.98869 27.1919 5.87265C27.1919 5.7566 27.2202 5.65097 27.2767 5.55576C27.3333 5.45756 27.4091 5.3802 27.5044 5.32367C27.6025 5.26713 27.7097 5.23886 27.8257 5.23886C27.9388 5.23886 28.0429 5.26713 28.1381 5.32367C28.2363 5.3802 28.3137 5.45756 28.3702 5.55576C28.4268 5.65097 28.455 5.7566 28.455 5.87265C28.455 5.98869 28.4268 6.09581 28.3702 6.194C28.3137 6.28922 28.2363 6.3651 28.1381 6.42163C28.0429 6.47816 27.9388 6.50643 27.8257 6.50643ZM27.7231 8.40332C27.7082 8.40332 27.6963 8.39886 27.6873 8.38993C27.6814 8.37803 27.6829 8.36464 27.6918 8.34976L29.3521 5.31028C29.3611 5.28945 29.3789 5.27903 29.4057 5.27903H29.5485C29.5634 5.27903 29.5738 5.28498 29.5798 5.29689C29.5887 5.30581 29.5887 5.31772 29.5798 5.33259L27.9194 8.37208C27.9105 8.39291 27.8927 8.40332 27.8659 8.40332H27.7231ZM27.8257 6.31005C27.9447 6.31005 28.0444 6.26839 28.1247 6.18508C28.2081 6.09879 28.2497 5.99464 28.2497 5.87265C28.2497 5.75065 28.2081 5.648 28.1247 5.56468C28.0444 5.47839 27.9447 5.43525 27.8257 5.43525C27.7067 5.43525 27.6055 5.47839 27.5222 5.56468C27.4389 5.648 27.3972 5.75065 27.3972 5.87265C27.3972 5.99464 27.4389 6.09879 27.5222 6.18508C27.6055 6.26839 27.7067 6.31005 27.8257 6.31005ZM29.4637 8.44349C29.3477 8.44349 29.2406 8.41522 29.1424 8.35869C29.0472 8.30215 28.9713 8.22479 28.9147 8.1266C28.8582 8.02841 28.8299 7.92129 28.8299 7.80524C28.8299 7.69217 28.8582 7.58803 28.9147 7.49281C28.9713 7.39462 29.0472 7.31726 29.1424 7.26072C29.2406 7.20419 29.3477 7.17592 29.4637 7.17592C29.5768 7.17592 29.6809 7.20419 29.7762 7.26072C29.8743 7.31726 29.9517 7.39462 30.0082 7.49281C30.0648 7.58803 30.093 7.69217 30.093 7.80524C30.093 7.92129 30.0648 8.02841 30.0082 8.1266C29.9517 8.22479 29.8743 8.30215 29.7762 8.35869C29.6809 8.41522 29.5768 8.44349 29.4637 8.44349ZM29.4637 8.24711C29.5827 8.24711 29.6824 8.20396 29.7628 8.11767C29.8461 8.03138 29.8877 7.92724 29.8877 7.80524C29.8877 7.68325 29.8461 7.58059 29.7628 7.49728C29.6824 7.41396 29.5827 7.37231 29.4637 7.37231C29.3447 7.37231 29.2435 7.41396 29.1602 7.49728C29.0769 7.58059 29.0353 7.68325 29.0353 7.80524C29.0353 7.93021 29.0754 8.03584 29.1558 8.12213C29.2391 8.20545 29.3417 8.24711 29.4637 8.24711Z" fill="#404040"/>
<path d="M58.988 42.2584L61.53 45.5217H72.0612" stroke="black" stroke-width="0.145684"/>
<path d="M64.8596 41.1919C64.8596 41.2217 64.8447 41.2365 64.815 41.2365H63.4805C63.4686 41.2365 63.4626 41.2425 63.4626 41.2544V42.3613C63.4626 42.3732 63.4686 42.3791 63.4805 42.3791H64.3776C64.4073 42.3791 64.4222 42.394 64.4222 42.4238V42.6112C64.4222 42.641 64.4073 42.6559 64.3776 42.6559H63.4805C63.4686 42.6559 63.4626 42.6618 63.4626 42.6737V44.0395C63.4626 44.0692 63.4477 44.0841 63.418 44.0841H63.1904C63.1606 44.0841 63.1457 44.0692 63.1457 44.0395V41.0045C63.1457 40.9747 63.1606 40.9598 63.1904 40.9598H64.815C64.8447 40.9598 64.8596 40.9747 64.8596 41.0045V41.1919ZM67.0347 41.1919C67.0347 41.2217 67.0198 41.2365 66.9901 41.2365H65.6511C65.6392 41.2365 65.6332 41.2425 65.6332 41.2544V42.3613C65.6332 42.3732 65.6392 42.3791 65.6511 42.3791H66.5527C66.5824 42.3791 66.5973 42.394 66.5973 42.4238V42.6112C66.5973 42.641 66.5824 42.6559 66.5527 42.6559H65.6511C65.6392 42.6559 65.6332 42.6618 65.6332 42.6737V43.7895C65.6332 43.8014 65.6392 43.8074 65.6511 43.8074H66.9901C67.0198 43.8074 67.0347 43.8223 67.0347 43.852V44.0395C67.0347 44.0692 67.0198 44.0841 66.9901 44.0841H65.361C65.3312 44.0841 65.3163 44.0692 65.3163 44.0395V41.0045C65.3163 40.9747 65.3312 40.9598 65.361 40.9598H66.9901C67.0198 40.9598 67.0347 40.9747 67.0347 41.0045V41.1919ZM67.6667 44.0841C67.6369 44.0841 67.6221 44.0692 67.6221 44.0395V41.0045C67.6221 40.9747 67.6369 40.9598 67.6667 40.9598H67.8943C67.9241 40.9598 67.939 40.9747 67.939 41.0045V44.0395C67.939 44.0692 67.9241 44.0841 67.8943 44.0841H67.6667ZM69.3003 44.1198C69.0354 44.1198 68.8227 44.0424 68.662 43.8877C68.5043 43.733 68.4254 43.5292 68.4254 43.2763V42.9192C68.4254 42.8894 68.4403 42.8746 68.4701 42.8746H68.6977C68.7275 42.8746 68.7423 42.8894 68.7423 42.9192V43.2807C68.7423 43.4503 68.7929 43.5872 68.8941 43.6913C68.9953 43.7925 69.1306 43.8431 69.3003 43.8431C69.4669 43.8431 69.6023 43.791 69.7064 43.6869C69.8106 43.5827 69.8626 43.4473 69.8626 43.2807V41.0045C69.8626 40.9747 69.8775 40.9598 69.9073 40.9598H70.1304C70.1602 40.9598 70.1751 40.9747 70.1751 41.0045V43.2763C70.1751 43.5292 70.0947 43.733 69.934 43.8877C69.7734 44.0424 69.5621 44.1198 69.3003 44.1198ZM71.7474 44.1198C71.5659 44.1198 71.4052 44.0826 71.2653 44.0082C71.1285 43.9309 71.0214 43.8237 70.944 43.6869C70.8696 43.55 70.8324 43.3923 70.8324 43.2138V41.8346C70.8324 41.6561 70.8696 41.4984 70.944 41.3615C71.0214 41.2217 71.1285 41.1145 71.2653 41.0402C71.4052 40.9628 71.5659 40.9241 71.7474 40.9241C71.9289 40.9241 72.0881 40.9628 72.2249 41.0402C72.3648 41.1145 72.4734 41.2217 72.5508 41.3615C72.6281 41.4984 72.6668 41.6561 72.6668 41.8346V43.2138C72.6668 43.3923 72.6281 43.55 72.5508 43.6869C72.4734 43.8237 72.3648 43.9309 72.2249 44.0082C72.0881 44.0826 71.9289 44.1198 71.7474 44.1198ZM71.7474 43.8431C71.9289 43.8431 72.0747 43.7866 72.1848 43.6735C72.2949 43.5604 72.3499 43.4116 72.3499 43.2272V41.8257C72.3499 41.6382 72.2949 41.488 72.1848 41.3749C72.0747 41.2589 71.9289 41.2008 71.7474 41.2008C71.5688 41.2008 71.4245 41.2589 71.3144 41.3749C71.2043 41.488 71.1493 41.6382 71.1493 41.8257V43.2272C71.1493 43.4116 71.2043 43.5604 71.3144 43.6735C71.4245 43.7866 71.5688 43.8431 71.7474 43.8431ZM74.8275 44.0841C74.8007 44.0841 74.7844 44.0707 74.7784 44.0439L74.6311 43.486C74.6282 43.4771 74.6207 43.4726 74.6088 43.4726H73.5421C73.5302 43.4726 73.5228 43.4771 73.5198 43.486L73.3725 44.0439C73.3665 44.0707 73.3502 44.0841 73.3234 44.0841H73.0913C73.0764 44.0841 73.0645 44.0796 73.0556 44.0707C73.0496 44.0618 73.0482 44.0499 73.0511 44.035L73.8858 41C73.8917 40.9732 73.9081 40.9598 73.9349 40.9598H74.2205C74.2473 40.9598 74.2637 40.9732 74.2696 41L75.1042 44.035L75.1087 44.0484C75.1087 44.0722 75.0938 44.0841 75.0641 44.0841H74.8275ZM73.5957 43.1959C73.5927 43.1989 73.5927 43.2034 73.5957 43.2093C73.6016 43.2123 73.6076 43.2138 73.6135 43.2138H74.5374C74.5434 43.2138 74.5478 43.2123 74.5508 43.2093C74.5567 43.2034 74.5582 43.1989 74.5553 43.1959L74.0822 41.4017C74.0792 41.3957 74.0762 41.3928 74.0732 41.3928C74.0703 41.3928 74.0673 41.3957 74.0643 41.4017L73.5957 43.1959ZM77.9117 42.6425C77.9504 42.7823 77.9697 42.943 77.9697 43.1245C77.9697 43.2763 77.9563 43.4072 77.9295 43.5173C77.8849 43.7107 77.7956 43.8595 77.6617 43.9636C77.5308 44.0677 77.3657 44.1198 77.1663 44.1198C76.964 44.1198 76.7959 44.0663 76.662 43.9591C76.5281 43.852 76.4403 43.7018 76.3986 43.5083C76.3837 43.4548 76.3748 43.3997 76.3718 43.3432V43.3343C76.3718 43.3105 76.3852 43.2986 76.412 43.2986H76.6441C76.6709 43.2986 76.6858 43.3105 76.6887 43.3343V43.3521L76.7066 43.4414C76.7334 43.5693 76.7854 43.6675 76.8628 43.736C76.9431 43.8044 77.0443 43.8386 77.1663 43.8386C77.2853 43.8386 77.3835 43.8044 77.4609 43.736C77.5412 43.6646 77.5948 43.5649 77.6216 43.4369C77.6424 43.3536 77.6528 43.251 77.6528 43.129C77.6528 43.0159 77.6409 42.8999 77.6171 42.7808C77.5903 42.6618 77.5382 42.5725 77.4609 42.513C77.3835 42.4506 77.2853 42.4193 77.1663 42.4193C77.0532 42.4193 76.955 42.4461 76.8717 42.4996C76.7914 42.5502 76.7349 42.6246 76.7021 42.7228L76.6932 42.7407C76.6902 42.7615 76.6753 42.7719 76.6486 42.7719H76.412C76.3823 42.7719 76.3674 42.757 76.3674 42.7273V41.0045C76.3674 40.9747 76.3823 40.9598 76.412 40.9598H77.8269C77.8566 40.9598 77.8715 40.9747 77.8715 41.0045V41.1919C77.8715 41.2217 77.8566 41.2365 77.8269 41.2365H76.7021C76.6902 41.2365 76.6843 41.2425 76.6843 41.2544V42.3479C76.6843 42.3538 76.6858 42.3583 76.6887 42.3613C76.6947 42.3613 76.7006 42.3583 76.7066 42.3524C76.7661 42.2869 76.8405 42.2363 76.9298 42.2006C77.022 42.1619 77.1202 42.1426 77.2243 42.1426C77.3999 42.1426 77.5457 42.1857 77.6617 42.272C77.7807 42.3553 77.8641 42.4788 77.9117 42.6425ZM79.2816 44.1287C79.0257 44.1287 78.8204 44.0514 78.6657 43.8966C78.511 43.7419 78.4336 43.5351 78.4336 43.2763V41.7677C78.4336 41.5118 78.511 41.3065 78.6657 41.1517C78.8204 40.997 79.0257 40.9197 79.2816 40.9197C79.5405 40.9197 79.7473 40.997 79.902 41.1517C80.0597 41.3065 80.1386 41.5118 80.1386 41.7677V43.2763C80.1386 43.5351 80.0597 43.7419 79.902 43.8966C79.7473 44.0514 79.5405 44.1287 79.2816 44.1287ZM79.2816 43.852C79.4453 43.852 79.5762 43.8014 79.6744 43.7003C79.7726 43.5991 79.8217 43.4652 79.8217 43.2986V41.7498C79.8217 41.5832 79.7726 41.4493 79.6744 41.3481C79.5762 41.247 79.4453 41.1964 79.2816 41.1964C79.1239 41.1964 78.996 41.247 78.8978 41.3481C78.7996 41.4493 78.7505 41.5832 78.7505 41.7498V43.2986C78.7505 43.4622 78.7996 43.5961 78.8978 43.7003C78.996 43.8014 79.1239 43.852 79.2816 43.852ZM81.4146 42.1872C81.2986 42.1872 81.1915 42.159 81.0933 42.1024C80.9981 42.0459 80.9222 41.97 80.8657 41.8748C80.8091 41.7766 80.7809 41.6695 80.7809 41.5534C80.7809 41.4374 80.8091 41.3318 80.8657 41.2365C80.9222 41.1384 80.9981 41.061 81.0933 41.0045C81.1915 40.9479 81.2986 40.9197 81.4146 40.9197C81.5277 40.9197 81.6318 40.9479 81.7271 41.0045C81.8253 41.061 81.9026 41.1384 81.9592 41.2365C82.0157 41.3318 82.044 41.4374 82.044 41.5534C82.044 41.6695 82.0157 41.7766 81.9592 41.8748C81.9026 41.97 81.8253 42.0459 81.7271 42.1024C81.6318 42.159 81.5277 42.1872 81.4146 42.1872ZM81.312 44.0841C81.2971 44.0841 81.2852 44.0796 81.2763 44.0707C81.2703 44.0588 81.2718 44.0454 81.2807 44.0305L82.9411 40.9911C82.95 40.9702 82.9679 40.9598 82.9946 40.9598H83.1375C83.1523 40.9598 83.1627 40.9658 83.1687 40.9777C83.1776 40.9866 83.1776 40.9985 83.1687 41.0134L81.5084 44.0529C81.4994 44.0737 81.4816 44.0841 81.4548 44.0841H81.312ZM81.4146 41.9908C81.5337 41.9908 81.6333 41.9492 81.7137 41.8659C81.797 41.7796 81.8386 41.6754 81.8386 41.5534C81.8386 41.4314 81.797 41.3288 81.7137 41.2455C81.6333 41.1592 81.5337 41.116 81.4146 41.116C81.2956 41.116 81.1944 41.1592 81.1111 41.2455C81.0278 41.3288 80.9862 41.4314 80.9862 41.5534C80.9862 41.6754 81.0278 41.7796 81.1111 41.8659C81.1944 41.9492 81.2956 41.9908 81.4146 41.9908ZM83.0527 44.1243C82.9366 44.1243 82.8295 44.096 82.7313 44.0395C82.6361 43.9829 82.5602 43.9056 82.5037 43.8074C82.4471 43.7092 82.4189 43.6021 82.4189 43.486C82.4189 43.373 82.4471 43.2688 82.5037 43.1736C82.5602 43.0754 82.6361 42.998 82.7313 42.9415C82.8295 42.885 82.9366 42.8567 83.0527 42.8567C83.1657 42.8567 83.2699 42.885 83.3651 42.9415C83.4633 42.998 83.5406 43.0754 83.5972 43.1736C83.6537 43.2688 83.682 43.373 83.682 43.486C83.682 43.6021 83.6537 43.7092 83.5972 43.8074C83.5406 43.9056 83.4633 43.9829 83.3651 44.0395C83.2699 44.096 83.1657 44.1243 83.0527 44.1243ZM83.0527 43.9279C83.1717 43.9279 83.2714 43.8847 83.3517 43.7985C83.435 43.7122 83.4767 43.608 83.4767 43.486C83.4767 43.364 83.435 43.2614 83.3517 43.1781C83.2714 43.0947 83.1717 43.0531 83.0527 43.0531C82.9336 43.0531 82.8325 43.0947 82.7492 43.1781C82.6658 43.2614 82.6242 43.364 82.6242 43.486C82.6242 43.611 82.6643 43.7166 82.7447 43.8029C82.828 43.8862 82.9307 43.9279 83.0527 43.9279Z" fill="#404040"/>
<path fill-rule="evenodd" clip-rule="evenodd" d="M42.1864 23.9078C39.8506 24.1856 37.9078 25.8361 37.2645 28.0913C37.2028 28.3005 37.1346 28.6175 37.1086 28.794L37.0599 29.1176L37.284 29.4117C37.4075 29.5719 37.5439 29.7484 37.5862 29.8039L37.8213 29.9615L37.8392 29.3104V28.7156L37.9143 28.709H38.158V29.7386V30.7681H37.963L37.8736 30.6831L37.5552 30.2681C37.3798 30.0393 37.0561 29.5192 37.0334 29.4931C36.9684 29.4146 37.0631 30.438 37.1508 30.8662C37.5017 32.6115 38.642 34.1117 40.2339 34.919C41.4067 35.5138 42.7615 35.6871 44.0577 35.406C44.9284 35.2197 45.8121 34.7915 46.4911 34.2326C47.8328 33.1246 48.619 31.4872 48.619 29.7876C48.619 28.6894 48.3299 28.3626 46.8647 27.8004C46.3026 27.5847 45.9778 27.4278 45.6626 27.2219C45.2305 26.9408 45.0226 26.6532 44.4931 25.6204C43.944 24.5451 43.6711 24.179 43.2748 23.9829C43.1026 23.8979 43.0441 23.8881 42.755 23.8816C42.5763 23.8783 42.3196 23.8914 42.1864 23.9078ZM42.2677 26.6957C42.56 26.8297 42.7712 27.0781 43.343 27.9573C43.7036 28.5097 43.8303 28.6502 44.061 28.7613C44.1552 28.8071 44.2592 28.879 44.2916 28.9182C44.3469 28.9934 44.7339 29.1868 44.8054 29.1868C44.8249 29.1868 44.8501 29.0751 44.8501 28.9378V28.709H45.2728C45.6724 28.709 45.8218 28.7221 45.916 28.7613C46.3156 28.928 46.4618 29.4314 46.2214 29.8203C46.1369 29.9543 46.1337 29.9772 46.1694 30.0654C46.2734 30.3073 46.1889 30.8433 45.9648 31.3793C45.7471 31.899 45.2175 32.5494 44.7562 32.8599C44.4736 33.0495 44.009 33.2652 43.6971 33.3502C43.3235 33.4515 42.6185 33.4744 42.2482 33.3992C41.0104 33.1475 40.078 32.3239 39.6394 31.1015C39.5939 30.9708 39.5549 30.8368 39.5549 30.8073C39.5549 30.7551 39.5062 30.7518 39.0026 30.7616L38.6272 30.7812V29.7451V28.709L39.0481 28.7156L39.6491 28.7254L39.7336 28.5097C40.0033 27.8168 40.6628 27.1075 41.371 26.7513C41.7284 26.5682 41.9623 26.5552 42.2677 26.6957ZM47.0271 29.1012V29.4935H47.4494H47.8718V29.1012V28.709H48.1154H48.3591V29.7386V30.7681H48.1154H47.8718V30.3596V29.951H47.4494H47.0271V30.3596V30.7681H46.7997H46.5723V29.7386V28.709H46.7997H47.0271V29.1012Z" fill="#FF1368"/>
<path fill-rule="evenodd" clip-rule="evenodd" d="M38.9377 29.7195V30.3111H39.1976H39.4575V29.9221C39.4575 29.7097 39.4738 29.458 39.49 29.3632C39.5095 29.2685 39.4998 29.1038 39.49 29.0972C39.4803 29.0874 39.3503 29.0711 39.1976 29.0646L38.9215 29.0482L38.9377 29.7195Z" fill="#FF1368"/>
<path fill-rule="evenodd" clip-rule="evenodd" d="M45.1997 29.2252C45.1997 29.3396 45.2868 29.3592 45.5629 29.49C45.8261 29.6142 45.8521 29.6207 45.8878 29.5684C45.9495 29.4834 45.9398 29.3135 45.8683 29.2252C45.8131 29.1566 45.7903 29.0887 45.5629 29.0789H45.1997V29.2252Z" fill="#FF1368"/>
<path fill-rule="evenodd" clip-rule="evenodd" d="M50.4522 28.6699C50.346 28.7054 50.1964 28.7763 50.1241 28.8219C49.9986 28.913 49.9938 28.913 49.9938 28.8067C49.9938 28.7155 49.9648 28.7003 49.8008 28.7003H49.6078V29.7386V30.777H49.7959H49.9841L50.0034 30.0729C50.0179 29.4499 50.0324 29.3486 50.1192 29.222C50.3412 28.913 50.872 28.8928 51.0071 29.1916C51.0457 29.2777 51.0746 29.607 51.0843 30.0425L51.1036 30.7516L51.2966 30.7668L51.4944 30.782L51.48 30.0324L51.4655 29.2828L51.2339 29.1562C51.0795 29.0701 50.9685 28.9586 50.8961 28.8269C50.7707 28.599 50.7224 28.5788 50.4522 28.6699Z" fill="black"/>
<path fill-rule="evenodd" clip-rule="evenodd" d="M34.9479 28.7057C34.586 28.8222 34.2289 29.4148 34.2916 29.7998C34.3302 30.0429 34.3495 30.0682 34.5715 30.1746C34.7018 30.2354 34.861 30.367 34.972 30.5139C35.2133 30.828 35.2229 30.833 35.4159 30.8026C35.691 30.7469 35.995 30.519 36.1252 30.2607C36.2169 30.0733 36.2169 30.0682 36.0046 30.0682C35.8695 30.0682 35.7923 30.0986 35.744 30.1695C35.6524 30.3063 35.4256 30.4228 35.247 30.4228C35.0492 30.4228 34.7935 30.2354 34.7114 30.0277L34.6487 29.8656H35.4497H36.2507L36.2314 29.5921C36.2073 29.273 36.048 28.9944 35.7875 28.8121C35.5993 28.6753 35.194 28.6247 34.9479 28.7057ZM35.5655 29.1312C35.6427 29.1768 35.744 29.2781 35.7826 29.3591L35.8599 29.5111H35.276C34.8851 29.5111 34.697 29.4908 34.697 29.4553C34.697 29.425 34.7693 29.3237 34.861 29.2274C34.9961 29.0856 35.0637 29.0552 35.2229 29.0552C35.3339 29.0552 35.4883 29.0907 35.5655 29.1312Z" fill="black"/>
<path fill-rule="evenodd" clip-rule="evenodd" d="M41.3177 28.7058C41.0764 28.7818 40.7 29.187 40.6325 29.4554C40.4588 30.1341 40.9702 30.7976 41.6699 30.7976C42.5578 30.8027 43.0451 29.7492 42.4757 29.0553C42.1862 28.6956 41.7664 28.569 41.3177 28.7058ZM42.109 29.2224C42.2586 29.3642 42.2875 29.4351 42.3068 29.6428C42.3599 30.2253 41.8967 30.5748 41.3804 30.3519C41.1295 30.2405 41.0088 30.0024 41.033 29.6681C41.0474 29.4301 41.0764 29.3693 41.226 29.2224C41.3804 29.0755 41.4335 29.0553 41.6699 29.0553C41.9063 29.0553 41.9594 29.0755 42.109 29.2224Z" fill="black"/>
<path fill-rule="evenodd" clip-rule="evenodd" d="M36.4824 29.7385V30.7768H36.6995H36.9118L36.9263 30.1335L36.9408 29.4852L37.3751 30.0677C37.9251 30.8122 37.901 30.7869 38.0844 30.7667L38.2436 30.7515V29.7385V28.7255L38.041 28.7103L37.8335 28.6951V29.3029C37.8335 29.9664 37.7949 30.0424 37.6163 29.7689C37.5633 29.6878 37.3702 29.4143 37.1821 29.1611C36.8636 28.7255 36.8395 28.7001 36.6658 28.7001H36.4824V29.7385Z" fill="black"/>
<path fill-rule="evenodd" clip-rule="evenodd" d="M38.6054 29.7336V30.777H39.0783C39.6235 30.777 39.8503 30.7213 40.053 30.5389C40.3039 30.3211 40.4052 30.0527 40.3811 29.6576C40.3666 29.3638 40.3425 29.2828 40.2171 29.1207C39.9565 28.7864 39.8117 28.7256 39.1748 28.7054L38.6054 28.6902V29.7336ZM39.7586 29.2372C40.0385 29.4803 40.0482 29.9615 39.7876 30.2198C39.6863 30.3211 39.6139 30.3414 39.3437 30.3414L39.0156 30.3464L39.0011 29.7234L38.9866 29.1055H39.3002C39.5656 29.1055 39.6332 29.1258 39.7586 29.2372Z" fill="black"/>
<path fill-rule="evenodd" clip-rule="evenodd" d="M42.9002 29.7389V30.7772H43.1173H43.3345V30.4227V30.0681H43.5178C43.6916 30.0681 43.7012 30.0833 43.8797 30.4227L44.0631 30.7772H44.3092H44.5505L44.3912 30.4834C44.3092 30.3264 44.2127 30.1542 44.1837 30.1086C44.1451 30.0377 44.1644 29.9871 44.2995 29.8402C44.4491 29.6832 44.4636 29.6325 44.4636 29.3843C44.4636 29.1615 44.4443 29.0855 44.3478 28.9741C44.1355 28.7411 44.0052 28.7006 43.431 28.7006H42.9002V29.7389ZM43.9714 29.1919C44.0197 29.2375 44.0583 29.3236 44.0583 29.3894C44.0583 29.5869 43.9328 29.6629 43.6192 29.6629H43.3345V29.3843V29.1058H43.6095C43.7929 29.1058 43.9087 29.1311 43.9714 29.1919Z" fill="black"/>
<path fill-rule="evenodd" clip-rule="evenodd" d="M44.8111 29.2676C44.7918 29.5816 44.787 30.0425 44.8015 30.2958L44.8208 30.7516L45.0186 30.7668L45.2116 30.782L45.2261 30.4629L45.2406 30.1438L45.5783 30.1185C45.7665 30.1033 45.9644 30.0628 46.0271 30.0273C46.2877 29.8703 46.4083 29.3892 46.2587 29.0853C46.114 28.7915 45.9644 28.7256 45.3805 28.7104L44.8449 28.6902L44.8111 29.2676ZM45.7955 29.1562C45.9209 29.2271 45.9595 29.4449 45.8679 29.5918C45.8051 29.6981 45.7569 29.7133 45.506 29.7133H45.2165V29.4094V29.1055H45.4625C45.5976 29.1055 45.7472 29.1258 45.7955 29.1562Z" fill="black"/>
<path fill-rule="evenodd" clip-rule="evenodd" d="M46.6159 29.7435V30.7819L46.8234 30.7667L47.026 30.7515V30.3463V29.9411L47.4748 29.9259L47.9187 29.9107V30.3463V30.7819L48.1262 30.7667L48.3288 30.7515V29.7385V28.7255L48.1262 28.7103L47.9187 28.6951V29.1003V29.5105H47.4603H47.0019V29.1053V28.7001H46.8089H46.6159V29.7435Z" fill="black"/>
<path fill-rule="evenodd" clip-rule="evenodd" d="M48.7392 29.7389V30.7772H48.9564H49.1735V29.7389V28.7006H48.9564H48.7392V29.7389Z" fill="black"/>
</svg>
