<svg width="108" height="57" viewBox="0 0 108 57" fill="none" xmlns="http://www.w3.org/2000/svg">
<path d="M61.6645 45.7917C58.9803 47.8856 55.8378 49.3155 52.4941 49.9645C49.1503 50.6135 45.7002 50.463 42.4259 49.5256C39.1515 48.5881 36.1458 46.8902 33.6546 44.5706C31.1633 42.2511 29.2573 39.3757 28.0923 36.1797L35.1914 33.5998C35.9487 35.6772 37.1876 37.5462 38.8069 39.0539C40.4262 40.5616 42.3799 41.6652 44.5082 42.2746C46.6366 42.884 48.8791 42.9817 51.0526 42.5599C53.226 42.1381 55.2686 41.2086 57.0133 39.8476L61.6645 45.7917Z" fill="#5200BA"/>
<path d="M60.4456 10.9412C63.2696 12.843 65.6027 15.3853 67.2541 18.3599C68.9055 21.3346 69.8284 24.6573 69.9473 28.0564C70.0662 31.4554 69.3777 34.8343 67.9381 37.9168C66.4985 40.9992 64.3487 43.6977 61.6645 45.7917L57.0133 39.8476C58.7581 38.4865 60.1554 36.7325 61.0912 34.7289C62.0269 32.7253 62.4744 30.529 62.3971 28.3196C62.3199 26.1102 61.72 23.9505 60.6466 22.0169C59.5732 20.0834 58.0567 18.431 56.2211 17.1947L60.4456 10.9412Z" fill="#DF1104"/>
<path d="M28.0923 36.1797C26.5332 31.9029 26.3703 27.243 27.6267 22.868C28.8831 18.493 31.4945 14.6274 35.0865 11.8254C38.6784 9.02329 43.0667 7.42855 47.6222 7.26972C52.1777 7.11088 56.6666 8.39609 60.4456 10.9412L56.2211 17.1947C53.7647 15.5404 50.8469 14.7051 47.8858 14.8083C44.9247 14.9115 42.0724 15.9481 39.7376 17.7695C37.4028 19.5908 35.7055 22.1034 34.8888 24.9472C34.0721 27.7909 34.178 30.8199 35.1914 33.5998L28.0923 36.1797Z" fill="#FD4C00"/>
<path d="M35.8693 13.056L33.3273 9.79272H22.7961" stroke="black" stroke-width="0.145684"/>
<path d="M36.2322 45.328L33.6902 48.5913H23.1591" stroke="black" stroke-width="0.145684"/>
<path d="M6.55539 9.1127C6.30366 9.1127 6.10281 9.04709 5.95285 8.91587C5.80556 8.78197 5.73192 8.60389 5.73192 8.38162V8.27316C5.73192 8.24638 5.74531 8.23299 5.77209 8.23299H5.96892C5.9957 8.23299 6.00909 8.24638 6.00909 8.27316V8.36555C6.00909 8.51552 6.05997 8.63603 6.16173 8.72708C6.26349 8.81813 6.39873 8.86365 6.56744 8.86365C6.72544 8.86365 6.84997 8.8208 6.94102 8.73511C7.03207 8.64941 7.07759 8.53694 7.07759 8.39769C7.07759 8.30664 7.05617 8.22764 7.01332 8.16069C6.97047 8.09374 6.90754 8.03215 6.82452 7.97591C6.74151 7.91967 6.62234 7.84871 6.46702 7.76301C6.30098 7.67464 6.16976 7.59698 6.07336 7.53003C5.97963 7.46308 5.90331 7.3814 5.84439 7.28499C5.78548 7.18859 5.75602 7.07076 5.75602 6.9315C5.75602 6.71459 5.82565 6.54454 5.9649 6.42135C6.10415 6.29817 6.29027 6.23657 6.52325 6.23657C6.7723 6.23657 6.97047 6.30486 7.11776 6.44144C7.26505 6.57801 7.33869 6.75878 7.33869 6.98372V7.07611C7.33869 7.10289 7.3253 7.11628 7.29852 7.11628H7.09768C7.0709 7.11628 7.05751 7.10289 7.05751 7.07611V6.98774C7.05751 6.83778 7.0093 6.71727 6.9129 6.62622C6.81649 6.53249 6.68393 6.48562 6.51522 6.48562C6.36525 6.48562 6.24742 6.52445 6.16173 6.60211C6.07871 6.67978 6.0372 6.78957 6.0372 6.9315C6.0372 7.02255 6.05729 7.09888 6.09746 7.16047C6.13763 7.22206 6.1952 7.2783 6.27019 7.32918C6.34785 7.38006 6.46568 7.44835 6.62368 7.53404C6.80578 7.63581 6.94503 7.72284 7.04144 7.79515C7.14052 7.86477 7.21819 7.94645 7.27442 8.04018C7.33334 8.13123 7.36279 8.2437 7.36279 8.3776C7.36279 8.60255 7.29049 8.78197 7.14588 8.91587C7.00127 9.04709 6.80444 9.1127 6.55539 9.1127ZM9.41583 6.47759C9.41583 6.50437 9.40244 6.51776 9.37566 6.51776H8.17058C8.15986 6.51776 8.15451 6.52312 8.15451 6.53383V7.53003C8.15451 7.54074 8.15986 7.5461 8.17058 7.5461H8.982C9.00878 7.5461 9.02217 7.55949 9.02217 7.58627V7.75498C9.02217 7.78176 9.00878 7.79515 8.982 7.79515H8.17058C8.15986 7.79515 8.15451 7.8005 8.15451 7.81121V8.81545C8.15451 8.82616 8.15986 8.83152 8.17058 8.83152H9.37566C9.40244 8.83152 9.41583 8.84491 9.41583 8.87169V9.0404C9.41583 9.06718 9.40244 9.08057 9.37566 9.08057H7.90948C7.8827 9.08057 7.86931 9.06718 7.86931 9.0404V6.30888C7.86931 6.2821 7.8827 6.26871 7.90948 6.26871H9.37566C9.40244 6.26871 9.41583 6.2821 9.41583 6.30888V6.47759ZM11.3533 9.08057C11.3292 9.08057 11.3144 9.06852 11.3091 9.04441L11.1765 8.5423C11.1739 8.53426 11.1672 8.53025 11.1564 8.53025H10.1964C10.1857 8.53025 10.179 8.53426 10.1763 8.5423L10.0438 9.04441C10.0384 9.06852 10.0237 9.08057 9.99957 9.08057H9.79069C9.7773 9.08057 9.76659 9.07655 9.75855 9.06852C9.7532 9.06048 9.75186 9.04977 9.75454 9.03638L10.5057 6.30486C10.5111 6.28076 10.5258 6.26871 10.5499 6.26871H10.807C10.8311 6.26871 10.8458 6.28076 10.8512 6.30486L11.6023 9.03638L11.6063 9.04843C11.6063 9.06985 11.593 9.08057 11.5662 9.08057H11.3533ZM10.2446 8.2812C10.2419 8.28387 10.2419 8.28789 10.2446 8.29325C10.25 8.29592 10.2553 8.29726 10.2607 8.29726H11.0922C11.0975 8.29726 11.1016 8.29592 11.1042 8.29325C11.1096 8.28789 11.1109 8.28387 11.1082 8.2812L10.6824 6.66639C10.6798 6.66103 10.6771 6.65835 10.6744 6.65835C10.6717 6.65835 10.6691 6.66103 10.6664 6.66639L10.2446 8.2812ZM14.0527 7.61438C14.0393 7.61974 14.0393 7.62643 14.0527 7.63447C14.1786 7.69606 14.275 7.78443 14.3419 7.89959C14.4115 8.01474 14.4477 8.15399 14.4504 8.31735C14.4504 8.55836 14.3781 8.74582 14.2335 8.87972C14.0915 9.01362 13.9027 9.08057 13.6671 9.08057H12.8757C12.849 9.08057 12.8356 9.06718 12.8356 9.0404V6.30888C12.8356 6.2821 12.849 6.26871 12.8757 6.26871H13.6349C13.8813 6.26871 14.0741 6.33298 14.2134 6.46152C14.3526 6.58739 14.4223 6.76815 14.4223 7.00381C14.4223 7.15377 14.3901 7.27964 14.3258 7.3814C14.2643 7.48316 14.1732 7.56082 14.0527 7.61438ZM13.1368 6.51776C13.1261 6.51776 13.1208 6.52312 13.1208 6.53383V7.50191C13.1208 7.51262 13.1261 7.51798 13.1368 7.51798H13.6389C13.7943 7.51798 13.9161 7.47379 14.0045 7.38542C14.0955 7.29705 14.1411 7.17788 14.1411 7.02791C14.1411 6.86991 14.0955 6.74539 14.0045 6.65434C13.9161 6.56328 13.7943 6.51776 13.6389 6.51776H13.1368ZM13.659 8.8275C13.8144 8.8275 13.9375 8.7793 14.0286 8.68289C14.1196 8.58648 14.1652 8.45526 14.1652 8.28923C14.1652 8.12052 14.1183 7.98796 14.0246 7.89155C13.9335 7.79515 13.809 7.74694 13.651 7.74694H13.1368C13.1261 7.74694 13.1208 7.7523 13.1208 7.76301V8.81143C13.1208 8.82214 13.1261 8.8275 13.1368 8.8275H13.659ZM15.7924 9.1127C15.629 9.1127 15.4844 9.07789 15.3585 9.00826C15.2354 8.93863 15.139 8.84089 15.0693 8.71502C15.0024 8.58916 14.9689 8.44321 14.9689 8.27718V6.30888C14.9689 6.2821 14.9823 6.26871 15.0091 6.26871H15.2139C15.2407 6.26871 15.2541 6.2821 15.2541 6.30888V8.29325C15.2541 8.46464 15.3036 8.60255 15.4027 8.70699C15.5018 8.81143 15.6317 8.86365 15.7924 8.86365C15.9531 8.86365 16.0829 8.81143 16.182 8.70699C16.2811 8.60255 16.3306 8.46464 16.3306 8.29325V6.30888C16.3306 6.2821 16.344 6.26871 16.3708 6.26871H16.5757C16.6025 6.26871 16.6158 6.2821 16.6158 6.30888V8.27718C16.6158 8.44321 16.581 8.58916 16.5114 8.71502C16.4445 8.84089 16.348 8.93863 16.2222 9.00826C16.099 9.07789 15.9557 9.1127 15.7924 9.1127ZM17.9446 9.1127C17.7009 9.1127 17.504 9.0404 17.3541 8.89579C17.2068 8.75118 17.1332 8.5597 17.1332 8.32136V7.02389C17.1332 6.78556 17.2068 6.59542 17.3541 6.45349C17.504 6.30888 17.7009 6.23657 17.9446 6.23657C18.1909 6.23657 18.3878 6.30754 18.5351 6.44947C18.685 6.5914 18.76 6.7802 18.76 7.01586V7.05201C18.76 7.07879 18.7466 7.09218 18.7198 7.09218L18.515 7.10022C18.4882 7.10022 18.4748 7.08816 18.4748 7.06406V7.00783C18.4748 6.8525 18.4253 6.72664 18.3262 6.63023C18.2298 6.53383 18.1026 6.48562 17.9446 6.48562C17.7866 6.48562 17.6594 6.53383 17.563 6.63023C17.4666 6.72396 17.4184 6.84983 17.4184 7.00783V8.34145C17.4184 8.49945 17.4666 8.62665 17.563 8.72306C17.6594 8.81679 17.7866 8.86365 17.9446 8.86365C18.1026 8.86365 18.2298 8.81545 18.3262 8.71904C18.4253 8.62264 18.4748 8.49677 18.4748 8.34145V8.28521C18.4748 8.26111 18.4882 8.24906 18.515 8.24906L18.7198 8.26111C18.7466 8.26111 18.76 8.2745 18.76 8.30128V8.3294C18.76 8.56506 18.685 8.75519 18.5351 8.8998C18.3878 9.04174 18.1909 9.1127 17.9446 9.1127ZM19.364 9.08057C19.3372 9.08057 19.3239 9.06718 19.3239 9.0404V6.30888C19.3239 6.2821 19.3372 6.26871 19.364 6.26871H19.5689C19.5957 6.26871 19.6091 6.2821 19.6091 6.30888V7.6425C19.6091 7.64786 19.6117 7.65188 19.6171 7.65455C19.6225 7.65455 19.6265 7.65187 19.6291 7.64652L20.6494 6.29281C20.6602 6.27674 20.6776 6.26871 20.7017 6.26871H20.9266C20.9427 6.26871 20.9534 6.27406 20.9588 6.28478C20.9641 6.29281 20.9614 6.30352 20.9507 6.31691L20.1473 7.41755C20.1447 7.42559 20.1447 7.43362 20.1473 7.44166L21.023 9.03236C21.0284 9.04307 21.0311 9.05111 21.0311 9.05646C21.0311 9.07253 21.019 9.08057 20.9949 9.08057H20.7619C20.7378 9.08057 20.7218 9.07119 20.7137 9.05245L19.9505 7.6666C19.9451 7.65321 19.9385 7.65321 19.9304 7.6666L19.6171 8.06428C19.6117 8.06964 19.6091 8.07633 19.6091 8.08437V9.0404C19.6091 9.06718 19.5957 9.08057 19.5689 9.08057H19.364ZM22.92 6.26871C22.9468 6.26871 22.9602 6.2821 22.9602 6.30888V6.47759C22.9602 6.50437 22.9468 6.51776 22.92 6.51776H22.2653C22.2546 6.51776 22.2492 6.52312 22.2492 6.53383V9.0404C22.2492 9.06718 22.2358 9.08057 22.209 9.08057H22.0042C21.9774 9.08057 21.964 9.06718 21.964 9.0404V6.53383C21.964 6.52312 21.9586 6.51776 21.9479 6.51776H21.3173C21.2905 6.51776 21.2771 6.50437 21.2771 6.47759V6.30888C21.2771 6.2821 21.2905 6.26871 21.3173 6.26871H22.92ZM24.7642 6.30888C24.7642 6.2821 24.7776 6.26871 24.8043 6.26871H25.0092C25.036 6.26871 25.0494 6.2821 25.0494 6.30888V9.0404C25.0494 9.06718 25.036 9.08057 25.0092 9.08057H24.8043C24.7776 9.08057 24.7642 9.06718 24.7642 9.0404V7.81121C24.7642 7.8005 24.7588 7.79515 24.7481 7.79515H23.7519C23.7412 7.79515 23.7358 7.8005 23.7358 7.81121V9.0404C23.7358 9.06718 23.7224 9.08057 23.6957 9.08057H23.4908C23.464 9.08057 23.4506 9.06718 23.4506 9.0404V6.30888C23.4506 6.2821 23.464 6.26871 23.4908 6.26871H23.6957C23.7224 6.26871 23.7358 6.2821 23.7358 6.30888V7.53003C23.7358 7.54074 23.7412 7.5461 23.7519 7.5461H24.7481C24.7588 7.5461 24.7642 7.54074 24.7642 7.53003V6.30888ZM26.4612 9.1127C26.2979 9.1127 26.1533 9.07923 26.0274 9.01228C25.9042 8.94265 25.8078 8.84624 25.7382 8.72306C25.6712 8.59987 25.6378 8.45794 25.6378 8.29726V7.05603C25.6378 6.89535 25.6712 6.75342 25.7382 6.63023C25.8078 6.50437 25.9042 6.40796 26.0274 6.34101C26.1533 6.27139 26.2979 6.23657 26.4612 6.23657C26.6246 6.23657 26.7679 6.27139 26.8911 6.34101C27.0169 6.40796 27.1147 6.50437 27.1843 6.63023C27.2539 6.75342 27.2887 6.89535 27.2887 7.05603V8.29726C27.2887 8.45794 27.2539 8.59987 27.1843 8.72306C27.1147 8.84624 27.0169 8.94265 26.8911 9.01228C26.7679 9.07923 26.6246 9.1127 26.4612 9.1127ZM26.4612 8.86365C26.6246 8.86365 26.7558 8.81277 26.8549 8.71101C26.954 8.60925 27.0035 8.47535 27.0035 8.30931V7.048C27.0035 6.87928 26.954 6.74405 26.8549 6.64228C26.7558 6.53784 26.6246 6.48562 26.4612 6.48562C26.3006 6.48562 26.1707 6.53784 26.0716 6.64228C25.9725 6.74405 25.923 6.87928 25.923 7.048V8.30931C25.923 8.47535 25.9725 8.60925 26.0716 8.71101C26.1707 8.81277 26.3006 8.86365 26.4612 8.86365ZM29.2573 9.08057C29.2359 9.08057 29.2211 9.06985 29.2131 9.04843L28.715 7.8072C28.7123 7.79916 28.707 7.79515 28.6989 7.79515H28.1807C28.17 7.79515 28.1647 7.8005 28.1647 7.81121V9.0404C28.1647 9.06718 28.1513 9.08057 28.1245 9.08057H27.9196C27.8929 9.08057 27.8795 9.06718 27.8795 9.0404V6.30888C27.8795 6.2821 27.8929 6.26871 27.9196 6.26871H28.7712C28.9105 6.26871 29.0337 6.30084 29.1408 6.36512C29.2506 6.42939 29.3349 6.52044 29.3939 6.63827C29.4554 6.7561 29.4862 6.89133 29.4862 7.04398C29.4862 7.22608 29.4421 7.3814 29.3537 7.50994C29.2653 7.63849 29.1448 7.72418 28.9922 7.76703C28.9814 7.77238 28.9788 7.77908 28.9841 7.78711L29.5023 9.03236L29.5063 9.04843C29.5063 9.06985 29.4943 9.08057 29.4702 9.08057H29.2573ZM28.1807 6.51776C28.17 6.51776 28.1647 6.52312 28.1647 6.53383V7.55011C28.1647 7.56082 28.17 7.56618 28.1807 7.56618H28.7351C28.8743 7.56618 28.9868 7.51798 29.0725 7.42157C29.1582 7.32516 29.201 7.1993 29.201 7.04398C29.201 6.88598 29.1582 6.75878 29.0725 6.66237C28.9868 6.56596 28.8743 6.51776 28.7351 6.51776H28.1807ZM31.3996 6.30888C31.3996 6.2821 31.413 6.26871 31.4398 6.26871H31.6446C31.6714 6.26871 31.6848 6.2821 31.6848 6.30888V9.0404C31.6848 9.06718 31.6714 9.08057 31.6446 9.08057H31.4277C31.4036 9.08057 31.3875 9.07119 31.3795 9.05245L30.303 6.90339C30.2976 6.89803 30.2923 6.89535 30.2869 6.89535C30.2842 6.89535 30.2829 6.89937 30.2829 6.9074L30.2869 9.0404C30.2869 9.06718 30.2735 9.08057 30.2467 9.08057H30.0419C30.0151 9.08057 30.0017 9.06718 30.0017 9.0404V6.30888C30.0017 6.2821 30.0151 6.26871 30.0419 6.26871H30.2588C30.2829 6.26871 30.299 6.27808 30.307 6.29683L31.3835 8.45392C31.3889 8.45928 31.3929 8.46196 31.3956 8.46196C31.4009 8.46196 31.4036 8.45794 31.4036 8.44991L31.3996 6.30888ZM7.33869 11.2687C7.36547 11.2687 7.37886 11.2821 7.37886 11.3089V11.4776C7.37886 11.5044 7.36547 11.5178 7.33869 11.5178H6.68393C6.67322 11.5178 6.66786 11.5231 6.66786 11.5338V14.0404C6.66786 14.0672 6.65447 14.0806 6.62769 14.0806H6.42283C6.39605 14.0806 6.38266 14.0672 6.38266 14.0404V11.5338C6.38266 11.5231 6.37731 11.5178 6.36659 11.5178H5.73593C5.70915 11.5178 5.69577 11.5044 5.69577 11.4776V11.3089C5.69577 11.2821 5.70915 11.2687 5.73593 11.2687H7.33869ZM9.41583 11.4776C9.41583 11.5044 9.40244 11.5178 9.37566 11.5178H8.17058C8.15986 11.5178 8.15451 11.5231 8.15451 11.5338V12.53C8.15451 12.5407 8.15986 12.5461 8.17058 12.5461H8.982C9.00878 12.5461 9.02217 12.5595 9.02217 12.5863V12.755C9.02217 12.7818 9.00878 12.7951 8.982 12.7951H8.17058C8.15986 12.7951 8.15451 12.8005 8.15451 12.8112V13.8154C8.15451 13.8262 8.15986 13.8315 8.17058 13.8315H9.37566C9.40244 13.8315 9.41583 13.8449 9.41583 13.8717V14.0404C9.41583 14.0672 9.40244 14.0806 9.37566 14.0806H7.90948C7.8827 14.0806 7.86931 14.0672 7.86931 14.0404V11.3089C7.86931 11.2821 7.8827 11.2687 7.90948 11.2687H9.37566C9.40244 11.2687 9.41583 11.2821 9.41583 11.3089V11.4776ZM11.3533 14.0806C11.3292 14.0806 11.3144 14.0685 11.3091 14.0444L11.1765 13.5423C11.1739 13.5343 11.1672 13.5302 11.1564 13.5302H10.1964C10.1857 13.5302 10.179 13.5343 10.1763 13.5423L10.0438 14.0444C10.0384 14.0685 10.0237 14.0806 9.99957 14.0806H9.79069C9.7773 14.0806 9.76659 14.0765 9.75855 14.0685C9.7532 14.0605 9.75186 14.0498 9.75454 14.0364L10.5057 11.3049C10.5111 11.2808 10.5258 11.2687 10.5499 11.2687H10.807C10.8311 11.2687 10.8458 11.2808 10.8512 11.3049L11.6023 14.0364L11.6063 14.0484C11.6063 14.0699 11.593 14.0806 11.5662 14.0806H11.3533ZM10.2446 13.2812C10.2419 13.2839 10.2419 13.2879 10.2446 13.2932C10.25 13.2959 10.2553 13.2973 10.2607 13.2973H11.0922C11.0975 13.2973 11.1016 13.2959 11.1042 13.2932C11.1096 13.2879 11.1109 13.2839 11.1082 13.2812L10.6824 11.6664C10.6798 11.661 10.6771 11.6584 10.6744 11.6584C10.6717 11.6584 10.6691 11.661 10.6664 11.6664L10.2446 13.2812ZM14.2375 13.0522C14.2643 13.0522 14.2776 13.0656 14.2776 13.0924V13.2691C14.2776 13.2959 14.2643 13.3093 14.2375 13.3093H14.0888C14.0781 13.3093 14.0728 13.3147 14.0728 13.3254V14.0404C14.0728 14.0672 14.0594 14.0806 14.0326 14.0806H13.8277C13.801 14.0806 13.7876 14.0672 13.7876 14.0404V13.3254C13.7876 13.3147 13.7822 13.3093 13.7715 13.3093H12.6829C12.6561 13.3093 12.6427 13.2959 12.6427 13.2691V13.1165C12.6427 13.0978 12.6454 13.0817 12.6508 13.0683L13.3658 11.3008C13.3738 11.2794 13.3886 11.2687 13.41 11.2687H13.6309C13.6443 11.2687 13.6537 11.2741 13.659 11.2848C13.6644 11.2928 13.6644 11.3035 13.659 11.3169L12.9762 13.0321C12.9735 13.0375 12.9735 13.0429 12.9762 13.0482C12.9788 13.0509 12.9828 13.0522 12.9882 13.0522H13.7715C13.7822 13.0522 13.7876 13.0469 13.7876 13.0362V12.4015C13.7876 12.3747 13.801 12.3613 13.8277 12.3613H14.0326C14.0594 12.3613 14.0728 12.3747 14.0728 12.4015V13.0362C14.0728 13.0469 14.0781 13.0522 14.0888 13.0522H14.2375ZM15.4522 14.1207C15.2219 14.1207 15.0371 14.0511 14.8979 13.9119C14.7586 13.7726 14.689 13.5865 14.689 13.3535V11.9958C14.689 11.7655 14.7586 11.5807 14.8979 11.4414C15.0371 11.3022 15.2219 11.2326 15.4522 11.2326C15.6852 11.2326 15.8713 11.3022 16.0105 11.4414C16.1525 11.5807 16.2234 11.7655 16.2234 11.9958V13.3535C16.2234 13.5865 16.1525 13.7726 16.0105 13.9119C15.8713 14.0511 15.6852 14.1207 15.4522 14.1207ZM15.4522 13.8717C15.5995 13.8717 15.7173 13.8262 15.8057 13.7351C15.8941 13.6441 15.9382 13.5236 15.9382 13.3736V11.9797C15.9382 11.8297 15.8941 11.7092 15.8057 11.6182C15.7173 11.5271 15.5995 11.4816 15.4522 11.4816C15.3103 11.4816 15.1951 11.5271 15.1067 11.6182C15.0184 11.7092 14.9742 11.8297 14.9742 11.9797V13.3736C14.9742 13.5209 15.0184 13.6414 15.1067 13.7351C15.1951 13.8262 15.3103 13.8717 15.4522 13.8717ZM17.3719 12.3734C17.2675 12.3734 17.1711 12.3479 17.0827 12.297C16.997 12.2462 16.9287 12.1779 16.8778 12.0922C16.8269 12.0038 16.8015 11.9074 16.8015 11.803C16.8015 11.6985 16.8269 11.6035 16.8778 11.5178C16.9287 11.4294 16.997 11.3598 17.0827 11.3089C17.1711 11.258 17.2675 11.2326 17.3719 11.2326C17.4737 11.2326 17.5674 11.258 17.6531 11.3089C17.7415 11.3598 17.8111 11.4294 17.862 11.5178C17.9129 11.6035 17.9383 11.6985 17.9383 11.803C17.9383 11.9074 17.9129 12.0038 17.862 12.0922C17.8111 12.1779 17.7415 12.2462 17.6531 12.297C17.5674 12.3479 17.4737 12.3734 17.3719 12.3734ZM17.2795 14.0806C17.2661 14.0806 17.2554 14.0765 17.2474 14.0685C17.242 14.0578 17.2434 14.0458 17.2514 14.0324L18.7457 11.2968C18.7537 11.2781 18.7698 11.2687 18.7939 11.2687H18.9224C18.9358 11.2687 18.9452 11.2741 18.9506 11.2848C18.9586 11.2928 18.9586 11.3035 18.9506 11.3169L17.4563 14.0524C17.4482 14.0712 17.4322 14.0806 17.4081 14.0806H17.2795ZM17.3719 12.1966C17.479 12.1966 17.5687 12.1591 17.641 12.0841C17.716 12.0065 17.7535 11.9128 17.7535 11.803C17.7535 11.6932 17.716 11.6008 17.641 11.5258C17.5687 11.4481 17.479 11.4093 17.3719 11.4093C17.2648 11.4093 17.1737 11.4481 17.0988 11.5258C17.0238 11.6008 16.9863 11.6932 16.9863 11.803C16.9863 11.9128 17.0238 12.0065 17.0988 12.0841C17.1737 12.1591 17.2648 12.1966 17.3719 12.1966ZM18.8461 14.1167C18.7417 14.1167 18.6453 14.0913 18.5569 14.0404C18.4712 13.9895 18.4029 13.9199 18.352 13.8315C18.3012 13.7431 18.2757 13.6467 18.2757 13.5423C18.2757 13.4405 18.3012 13.3468 18.352 13.2611C18.4029 13.1727 18.4712 13.1031 18.5569 13.0522C18.6453 13.0013 18.7417 12.9759 18.8461 12.9759C18.9479 12.9759 19.0416 13.0013 19.1273 13.0522C19.2157 13.1031 19.2853 13.1727 19.3362 13.2611C19.3871 13.3468 19.4125 13.4405 19.4125 13.5423C19.4125 13.6467 19.3871 13.7431 19.3362 13.8315C19.2853 13.9199 19.2157 13.9895 19.1273 14.0404C19.0416 14.0913 18.9479 14.1167 18.8461 14.1167ZM18.8461 13.94C18.9532 13.94 19.043 13.9011 19.1153 13.8235C19.1902 13.7458 19.2277 13.6521 19.2277 13.5423C19.2277 13.4325 19.1902 13.3401 19.1153 13.2651C19.043 13.1901 18.9532 13.1527 18.8461 13.1527C18.739 13.1527 18.648 13.1901 18.573 13.2651C18.498 13.3401 18.4605 13.4325 18.4605 13.5423C18.4605 13.6548 18.4967 13.7498 18.569 13.8275C18.6439 13.9025 18.7363 13.94 18.8461 13.94Z" fill="#404040"/>
<path d="M1.68607 48.067C1.43434 48.067 1.23349 48.0014 1.08353 47.8702C0.936238 47.7363 0.862594 47.5582 0.862594 47.336V47.2275C0.862594 47.2007 0.875984 47.1873 0.902763 47.1873H1.09959C1.12637 47.1873 1.13976 47.2007 1.13976 47.2275V47.3199C1.13976 47.4699 1.19064 47.5904 1.29241 47.6814C1.39417 47.7725 1.52941 47.818 1.69812 47.818C1.85612 47.818 1.98064 47.7752 2.07169 47.6895C2.16274 47.6038 2.20827 47.4913 2.20827 47.352C2.20827 47.261 2.18684 47.182 2.144 47.115C2.10115 47.0481 2.03822 46.9865 1.9552 46.9303C1.87218 46.874 1.75302 46.8031 1.59769 46.7174C1.43166 46.629 1.30044 46.5513 1.20403 46.4844C1.11031 46.4174 1.03398 46.3357 0.975068 46.2393C0.916153 46.1429 0.886695 46.0251 0.886695 45.8858C0.886695 45.6689 0.956322 45.4989 1.09558 45.3757C1.23483 45.2525 1.42095 45.1909 1.65393 45.1909C1.90298 45.1909 2.10115 45.2592 2.24844 45.3958C2.39573 45.5324 2.46937 45.7131 2.46937 45.9381V46.0305C2.46937 46.0572 2.45598 46.0706 2.4292 46.0706H2.22835C2.20157 46.0706 2.18818 46.0572 2.18818 46.0305V45.9421C2.18818 45.7921 2.13998 45.6716 2.04357 45.5806C1.94717 45.4868 1.81461 45.44 1.6459 45.44C1.49593 45.44 1.3781 45.4788 1.29241 45.5565C1.20939 45.6341 1.16788 45.7439 1.16788 45.8858C1.16788 45.9769 1.18797 46.0532 1.22814 46.1148C1.2683 46.1764 1.32588 46.2326 1.40086 46.2835C1.47852 46.3344 1.59635 46.4027 1.75435 46.4884C1.93646 46.5902 2.07571 46.6772 2.17212 46.7495C2.2712 46.8191 2.34886 46.9008 2.4051 46.9945C2.46401 47.0856 2.49347 47.198 2.49347 47.3319C2.49347 47.5569 2.42117 47.7363 2.27656 47.8702C2.13195 48.0014 1.93512 48.067 1.68607 48.067ZM3.88371 45.219C4.09795 45.219 4.27067 45.2913 4.40189 45.436C4.53579 45.5779 4.60274 45.7667 4.60274 46.0023C4.60274 46.2353 4.53579 46.4228 4.40189 46.5647C4.27067 46.704 4.09795 46.7736 3.88371 46.7736H3.28518C3.27447 46.7736 3.26912 46.7789 3.26912 46.7897V47.9947C3.26912 48.0215 3.25573 48.0349 3.22895 48.0349H3.02408C2.9973 48.0349 2.98391 48.0215 2.98391 47.9947V45.2592C2.98391 45.2324 2.9973 45.219 3.02408 45.219H3.88371ZM3.84756 46.5366C3.98949 46.5366 4.1033 46.4884 4.189 46.392C4.27469 46.2956 4.31754 46.167 4.31754 46.0064C4.31754 45.843 4.27469 45.7131 4.189 45.6167C4.1033 45.5176 3.98949 45.4681 3.84756 45.4681H3.28518C3.27447 45.4681 3.26912 45.4734 3.26912 45.4842V46.5205C3.26912 46.5312 3.27447 46.5366 3.28518 46.5366H3.84756ZM6.33881 48.0349C6.31471 48.0349 6.29998 48.0229 6.29463 47.9988L6.16207 47.4966C6.15939 47.4886 6.15269 47.4846 6.14198 47.4846H5.18193C5.17122 47.4846 5.16453 47.4886 5.16185 47.4966L5.02929 47.9988C5.02393 48.0229 5.0092 48.0349 4.9851 48.0349H4.77622C4.76283 48.0349 4.75212 48.0309 4.74409 48.0229C4.73873 48.0148 4.73739 48.0041 4.74007 47.9907L5.49124 45.2592C5.49659 45.2351 5.51132 45.2231 5.53542 45.2231H5.79251C5.81661 45.2231 5.83134 45.2351 5.83669 45.2592L6.58786 47.9907L6.59188 48.0028C6.59188 48.0242 6.57849 48.0349 6.55171 48.0349H6.33881ZM5.23014 47.2355C5.22746 47.2382 5.22746 47.2422 5.23014 47.2476C5.23549 47.2503 5.24085 47.2516 5.2462 47.2516H6.07771C6.08307 47.2516 6.08708 47.2503 6.08976 47.2476C6.09512 47.2422 6.09646 47.2382 6.09378 47.2355L5.66798 45.6207C5.6653 45.6154 5.66263 45.6127 5.65995 45.6127C5.65727 45.6127 5.65459 45.6154 5.65192 45.6207L5.23014 47.2355ZM7.70887 48.067C7.46518 48.067 7.26835 47.9947 7.11838 47.8501C6.97109 47.7055 6.89745 47.514 6.89745 47.2757V45.9782C6.89745 45.7399 6.97109 45.5498 7.11838 45.4078C7.26835 45.2632 7.46518 45.1909 7.70887 45.1909C7.95524 45.1909 8.15207 45.2619 8.29936 45.4038C8.44933 45.5457 8.52431 45.7345 8.52431 45.9702V46.0064C8.52431 46.0331 8.51092 46.0465 8.48414 46.0465L8.27928 46.0546C8.2525 46.0546 8.23911 46.0425 8.23911 46.0184V45.9622C8.23911 45.8068 8.18956 45.681 8.09048 45.5846C7.99407 45.4882 7.86687 45.44 7.70887 45.44C7.55087 45.44 7.42367 45.4882 7.32726 45.5846C7.23085 45.6783 7.18265 45.8042 7.18265 45.9622V47.2958C7.18265 47.4538 7.23085 47.581 7.32726 47.6774C7.42367 47.7711 7.55087 47.818 7.70887 47.818C7.86687 47.818 7.99407 47.7698 8.09048 47.6734C8.18956 47.577 8.23911 47.4511 8.23911 47.2958V47.2396C8.23911 47.2155 8.2525 47.2034 8.27928 47.2034L8.48414 47.2155C8.51092 47.2155 8.52431 47.2288 8.52431 47.2556V47.2837C8.52431 47.5194 8.44933 47.7095 8.29936 47.8541C8.15207 47.9961 7.95524 48.067 7.70887 48.067ZM10.6347 45.4319C10.6347 45.4587 10.6213 45.4721 10.5945 45.4721H9.38943C9.37871 45.4721 9.37336 45.4775 9.37336 45.4882V46.4844C9.37336 46.4951 9.37871 46.5004 9.38943 46.5004H10.2008C10.2276 46.5004 10.241 46.5138 10.241 46.5406V46.7093C10.241 46.7361 10.2276 46.7495 10.2008 46.7495H9.38943C9.37871 46.7495 9.37336 46.7548 9.37336 46.7656V47.7698C9.37336 47.7805 9.37871 47.7859 9.38943 47.7859H10.5945C10.6213 47.7859 10.6347 47.7993 10.6347 47.826V47.9947C10.6347 48.0215 10.6213 48.0349 10.5945 48.0349H9.12832C9.10155 48.0349 9.08816 48.0215 9.08816 47.9947V45.2632C9.08816 45.2364 9.10155 45.2231 9.12832 45.2231H10.5945C10.6213 45.2231 10.6347 45.2364 10.6347 45.2632V45.4319ZM13.51 45.4319C13.51 45.4587 13.4966 45.4721 13.4698 45.4721H12.2688C12.258 45.4721 12.2527 45.4775 12.2527 45.4882V46.4844C12.2527 46.4951 12.258 46.5004 12.2688 46.5004H13.0762C13.1029 46.5004 13.1163 46.5138 13.1163 46.5406V46.7093C13.1163 46.7361 13.1029 46.7495 13.0762 46.7495H12.2688C12.258 46.7495 12.2527 46.7548 12.2527 46.7656V47.9947C12.2527 48.0215 12.2393 48.0349 12.2125 48.0349H12.0077C11.9809 48.0349 11.9675 48.0215 11.9675 47.9947V45.2632C11.9675 45.2364 11.9809 45.2231 12.0077 45.2231H13.4698C13.4966 45.2231 13.51 45.2364 13.51 45.2632V45.4319ZM13.9612 48.0349C13.9344 48.0349 13.921 48.0215 13.921 47.9947V45.2632C13.921 45.2364 13.9344 45.2231 13.9612 45.2231H14.1661C14.1928 45.2231 14.2062 45.2364 14.2062 45.2632V47.7698C14.2062 47.7805 14.2116 47.7859 14.2223 47.7859H15.3912C15.418 47.7859 15.4314 47.7993 15.4314 47.826V47.9947C15.4314 48.0215 15.418 48.0349 15.3912 48.0349H13.9612ZM17.3932 48.0349C17.3691 48.0349 17.3544 48.0229 17.3491 47.9988L17.2165 47.4966C17.2138 47.4886 17.2071 47.4846 17.1964 47.4846H16.2364C16.2256 47.4846 16.219 47.4886 16.2163 47.4966L16.0837 47.9988C16.0784 48.0229 16.0636 48.0349 16.0395 48.0349H15.8307C15.8173 48.0349 15.8065 48.0309 15.7985 48.0229C15.7932 48.0148 15.7918 48.0041 15.7945 47.9907L16.5457 45.2592C16.551 45.2351 16.5658 45.2231 16.5899 45.2231H16.8469C16.871 45.2231 16.8858 45.2351 16.8911 45.2592L17.6423 47.9907L17.6463 48.0028C17.6463 48.0242 17.6329 48.0349 17.6061 48.0349H17.3932ZM16.2846 47.2355C16.2819 47.2382 16.2819 47.2422 16.2846 47.2476C16.2899 47.2503 16.2953 47.2516 16.3006 47.2516H17.1321C17.1375 47.2516 17.1415 47.2503 17.1442 47.2476C17.1495 47.2422 17.1509 47.2382 17.1482 47.2355L16.7224 45.6207C16.7197 45.6154 16.7171 45.6127 16.7144 45.6127C16.7117 45.6127 16.709 45.6154 16.7063 45.6207L16.2846 47.2355ZM19.4492 48.0349C19.4277 48.0349 19.413 48.0242 19.405 48.0028L18.9069 46.7615C18.9042 46.7535 18.8988 46.7495 18.8908 46.7495H18.3726C18.3619 46.7495 18.3566 46.7548 18.3566 46.7656V47.9947C18.3566 48.0215 18.3432 48.0349 18.3164 48.0349H18.1115C18.0847 48.0349 18.0713 48.0215 18.0713 47.9947V45.2632C18.0713 45.2364 18.0847 45.2231 18.1115 45.2231H18.9631C19.1024 45.2231 19.2256 45.2552 19.3327 45.3195C19.4425 45.3837 19.5268 45.4748 19.5857 45.5926C19.6473 45.7104 19.6781 45.8457 19.6781 45.9983C19.6781 46.1804 19.6339 46.3357 19.5456 46.4643C19.4572 46.5928 19.3367 46.6785 19.184 46.7214C19.1733 46.7267 19.1707 46.7334 19.176 46.7415L19.6942 47.9867L19.6982 48.0028C19.6982 48.0242 19.6862 48.0349 19.6621 48.0349H19.4492ZM18.3726 45.4721C18.3619 45.4721 18.3566 45.4775 18.3566 45.4882V46.5045C18.3566 46.5152 18.3619 46.5205 18.3726 46.5205H18.927C19.0662 46.5205 19.1787 46.4723 19.2644 46.3759C19.3501 46.2795 19.3929 46.1536 19.3929 45.9983C19.3929 45.8403 19.3501 45.7131 19.2644 45.6167C19.1787 45.5203 19.0662 45.4721 18.927 45.4721H18.3726ZM21.7401 45.4319C21.7401 45.4587 21.7267 45.4721 21.6999 45.4721H20.4949C20.4841 45.4721 20.4788 45.4775 20.4788 45.4882V46.4844C20.4788 46.4951 20.4841 46.5004 20.4949 46.5004H21.3063C21.3331 46.5004 21.3464 46.5138 21.3464 46.5406V46.7093C21.3464 46.7361 21.3331 46.7495 21.3063 46.7495H20.4949C20.4841 46.7495 20.4788 46.7548 20.4788 46.7656V47.7698C20.4788 47.7805 20.4841 47.7859 20.4949 47.7859H21.6999C21.7267 47.7859 21.7401 47.7993 21.7401 47.826V47.9947C21.7401 48.0215 21.7267 48.0349 21.6999 48.0349H20.2337C20.207 48.0349 20.1936 48.0215 20.1936 47.9947V45.2632C20.1936 45.2364 20.207 45.2231 20.2337 45.2231H21.6999C21.7267 45.2231 21.7401 45.2364 21.7401 45.2632V45.4319ZM22.9476 48.067C22.6959 48.067 22.495 48.0014 22.3451 47.8702C22.1978 47.7363 22.1241 47.5582 22.1241 47.336V47.2275C22.1241 47.2007 22.1375 47.1873 22.1643 47.1873H22.3611C22.3879 47.1873 22.4013 47.2007 22.4013 47.2275V47.3199C22.4013 47.4699 22.4522 47.5904 22.5539 47.6814C22.6557 47.7725 22.7909 47.818 22.9597 47.818C23.1177 47.818 23.2422 47.7752 23.3332 47.6895C23.4243 47.6038 23.4698 47.4913 23.4698 47.352C23.4698 47.261 23.4484 47.182 23.4055 47.115C23.3627 47.0481 23.2998 46.9865 23.2167 46.9303C23.1337 46.874 23.0145 46.8031 22.8592 46.7174C22.6932 46.629 22.562 46.5513 22.4656 46.4844C22.3718 46.4174 22.2955 46.3357 22.2366 46.2393C22.1777 46.1429 22.1482 46.0251 22.1482 45.8858C22.1482 45.6689 22.2179 45.4989 22.3571 45.3757C22.4964 45.2525 22.6825 45.1909 22.9155 45.1909C23.1645 45.1909 23.3627 45.2592 23.51 45.3958C23.6573 45.5324 23.7309 45.7131 23.7309 45.9381V46.0305C23.7309 46.0572 23.7175 46.0706 23.6907 46.0706H23.4899C23.4631 46.0706 23.4497 46.0572 23.4497 46.0305V45.9421C23.4497 45.7921 23.4015 45.6716 23.3051 45.5806C23.2087 45.4868 23.0761 45.44 22.9074 45.44C22.7575 45.44 22.6396 45.4788 22.5539 45.5565C22.4709 45.6341 22.4294 45.7439 22.4294 45.8858C22.4294 45.9769 22.4495 46.0532 22.4897 46.1148C22.5298 46.1764 22.5874 46.2326 22.6624 46.2835C22.7401 46.3344 22.8579 46.4027 23.0159 46.4884C23.198 46.5902 23.3372 46.6772 23.4336 46.7495C23.5327 46.8191 23.6104 46.9008 23.6666 46.9945C23.7255 47.0856 23.755 47.198 23.755 47.3319C23.755 47.5569 23.6827 47.7363 23.5381 47.8702C23.3935 48.0014 23.1967 48.067 22.9476 48.067ZM26.2905 46.7013C26.3414 46.8405 26.3668 46.9999 26.3668 47.1793C26.3668 47.34 26.3467 47.4792 26.3065 47.5971C26.2075 47.9104 25.9879 48.067 25.6478 48.067C25.4657 48.067 25.313 48.0188 25.1898 47.9224C25.0666 47.8234 24.9876 47.6881 24.9528 47.5167C24.9341 47.431 24.9247 47.3333 24.9247 47.2235C24.9247 47.1967 24.9381 47.1833 24.9649 47.1833H25.1698C25.1965 47.1833 25.2099 47.1967 25.2099 47.2235C25.2153 47.3386 25.222 47.4163 25.23 47.4565C25.2541 47.5689 25.3023 47.6573 25.3746 47.7216C25.4469 47.7859 25.538 47.818 25.6478 47.818C25.854 47.818 25.9879 47.7136 26.0495 47.5047C26.0736 47.4083 26.0856 47.2931 26.0856 47.1592C26.0856 46.9985 26.0682 46.866 26.0334 46.7615C25.9638 46.5741 25.8352 46.4804 25.6478 46.4804C25.6049 46.4804 25.5674 46.4884 25.5353 46.5045C25.5192 46.5098 25.5099 46.5125 25.5072 46.5125C25.4965 46.5125 25.4871 46.5071 25.4791 46.4964L25.3746 46.388C25.3612 46.3692 25.3599 46.3505 25.3706 46.3317L25.9972 45.4922C26.0026 45.4868 26.0039 45.4828 26.0013 45.4801C25.9986 45.4748 25.9946 45.4721 25.9892 45.4721H24.985C24.9582 45.4721 24.9448 45.4587 24.9448 45.4319V45.2632C24.9448 45.2364 24.9582 45.2231 24.985 45.2231H26.3146C26.3414 45.2231 26.3547 45.2364 26.3547 45.2632V45.444C26.3547 45.4654 26.3494 45.4828 26.3387 45.4962L25.7562 46.2916C25.7535 46.2942 25.7535 46.2983 25.7562 46.3036C25.7589 46.309 25.7629 46.3116 25.7683 46.3116C25.8941 46.317 26.0013 46.3532 26.0896 46.4201C26.178 46.4871 26.245 46.5808 26.2905 46.7013ZM27.6117 48.0751C27.3814 48.0751 27.1966 48.0055 27.0574 47.8662C26.9181 47.7269 26.8485 47.5408 26.8485 47.3078V45.9501C26.8485 45.7198 26.9181 45.535 27.0574 45.3958C27.1966 45.2565 27.3814 45.1869 27.6117 45.1869C27.8447 45.1869 28.0308 45.2565 28.1701 45.3958C28.312 45.535 28.383 45.7198 28.383 45.9501V47.3078C28.383 47.5408 28.312 47.7269 28.1701 47.8662C28.0308 48.0055 27.8447 48.0751 27.6117 48.0751ZM27.6117 47.826C27.759 47.826 27.8768 47.7805 27.9652 47.6895C28.0536 47.5984 28.0978 47.4779 28.0978 47.3279V45.9341C28.0978 45.7841 28.0536 45.6636 27.9652 45.5725C27.8768 45.4815 27.759 45.436 27.6117 45.436C27.4698 45.436 27.3546 45.4815 27.2662 45.5725C27.1779 45.6636 27.1337 45.7841 27.1337 45.9341V47.3279C27.1337 47.4752 27.1779 47.5957 27.2662 47.6895C27.3546 47.7805 27.4698 47.826 27.6117 47.826ZM29.5314 46.3277C29.427 46.3277 29.3306 46.3023 29.2422 46.2514C29.1565 46.2005 29.0882 46.1322 29.0373 46.0465C28.9865 45.9582 28.961 45.8617 28.961 45.7573C28.961 45.6529 28.9865 45.5578 29.0373 45.4721C29.0882 45.3837 29.1565 45.3141 29.2422 45.2632C29.3306 45.2123 29.427 45.1869 29.5314 45.1869C29.6332 45.1869 29.7269 45.2123 29.8126 45.2632C29.901 45.3141 29.9706 45.3837 30.0215 45.4721C30.0724 45.5578 30.0978 45.6529 30.0978 45.7573C30.0978 45.8617 30.0724 45.9582 30.0215 46.0465C29.9706 46.1322 29.901 46.2005 29.8126 46.2514C29.7269 46.3023 29.6332 46.3277 29.5314 46.3277ZM29.439 48.0349C29.4256 48.0349 29.4149 48.0309 29.4069 48.0229C29.4015 48.0121 29.4029 48.0001 29.4109 47.9867L30.9052 45.2512C30.9133 45.2324 30.9293 45.2231 30.9534 45.2231H31.082C31.0954 45.2231 31.1047 45.2284 31.1101 45.2391C31.1181 45.2472 31.1181 45.2579 31.1101 45.2713L29.6158 48.0068C29.6077 48.0255 29.5917 48.0349 29.5676 48.0349H29.439ZM29.5314 46.151C29.6385 46.151 29.7283 46.1135 29.8006 46.0385C29.8755 45.9608 29.913 45.8671 29.913 45.7573C29.913 45.6475 29.8755 45.5551 29.8006 45.4801C29.7283 45.4025 29.6385 45.3636 29.5314 45.3636C29.4243 45.3636 29.3333 45.4025 29.2583 45.4801C29.1833 45.5551 29.1458 45.6475 29.1458 45.7573C29.1458 45.8671 29.1833 45.9608 29.2583 46.0385C29.3333 46.1135 29.4243 46.151 29.5314 46.151ZM31.0056 48.0711C30.9012 48.0711 30.8048 48.0456 30.7164 47.9947C30.6307 47.9439 30.5624 47.8742 30.5116 47.7859C30.4607 47.6975 30.4352 47.6011 30.4352 47.4966C30.4352 47.3949 30.4607 47.3012 30.5116 47.2155C30.5624 47.1271 30.6307 47.0575 30.7164 47.0066C30.8048 46.9557 30.9012 46.9303 31.0056 46.9303C31.1074 46.9303 31.2011 46.9557 31.2868 47.0066C31.3752 47.0575 31.4448 47.1271 31.4957 47.2155C31.5466 47.3012 31.572 47.3949 31.572 47.4966C31.572 47.6011 31.5466 47.6975 31.4957 47.7859C31.4448 47.8742 31.3752 47.9439 31.2868 47.9947C31.2011 48.0456 31.1074 48.0711 31.0056 48.0711ZM31.0056 47.8943C31.1128 47.8943 31.2025 47.8555 31.2748 47.7778C31.3498 47.7002 31.3873 47.6064 31.3873 47.4966C31.3873 47.3868 31.3498 47.2945 31.2748 47.2195C31.2025 47.1445 31.1128 47.107 31.0056 47.107C30.8985 47.107 30.8075 47.1445 30.7325 47.2195C30.6575 47.2945 30.62 47.3868 30.62 47.4966C30.62 47.6091 30.6562 47.7042 30.7285 47.7818C30.8035 47.8568 30.8958 47.8943 31.0056 47.8943Z" fill="#404040"/>
<path d="M72.8646 14.9521C72.878 14.9334 72.8941 14.924 72.9128 14.924H73.1217C73.1485 14.924 73.1619 14.9374 73.1619 14.9642V17.6957C73.1619 17.7225 73.1485 17.7358 73.1217 17.7358H72.9169C72.8901 17.7358 72.8767 17.7225 72.8767 17.6957V15.5105C72.8767 15.5024 72.874 15.4971 72.8687 15.4944C72.8633 15.4917 72.8593 15.4944 72.8566 15.5024L72.3224 16.4303C72.309 16.4491 72.2929 16.4585 72.2742 16.4585H72.23C72.2112 16.4585 72.1952 16.4491 72.1818 16.4303L71.6435 15.5064C71.6408 15.4984 71.6368 15.4957 71.6314 15.4984C71.6261 15.5011 71.6234 15.5064 71.6234 15.5145V17.6957C71.6234 17.7225 71.61 17.7358 71.5832 17.7358H71.3784C71.3516 17.7358 71.3382 17.7225 71.3382 17.6957V14.9642C71.3382 14.9374 71.3516 14.924 71.3784 14.924H71.5873C71.606 14.924 71.6221 14.9334 71.6355 14.9521L72.242 15.9845C72.2447 15.9871 72.2487 15.9885 72.2541 15.9885C72.2594 15.9885 72.2634 15.9871 72.2661 15.9845L72.8646 14.9521ZM74.5725 17.768C74.4091 17.768 74.2645 17.7345 74.1387 17.6676C74.0155 17.5979 73.9191 17.5015 73.8495 17.3783C73.7825 17.2551 73.749 17.1132 73.749 16.9525V15.7113C73.749 15.5506 73.7825 15.4087 73.8495 15.2855C73.9191 15.1596 74.0155 15.0632 74.1387 14.9963C74.2645 14.9267 74.4091 14.8918 74.5725 14.8918C74.7359 14.8918 74.8791 14.9267 75.0023 14.9963C75.1282 15.0632 75.2259 15.1596 75.2956 15.2855C75.3652 15.4087 75.4 15.5506 75.4 15.7113V16.9525C75.4 17.1132 75.3652 17.2551 75.2956 17.3783C75.2259 17.5015 75.1282 17.5979 75.0023 17.6676C74.8791 17.7345 74.7359 17.768 74.5725 17.768ZM74.5725 17.5189C74.7359 17.5189 74.8671 17.468 74.9662 17.3663C75.0652 17.2645 75.1148 17.1306 75.1148 16.9646V15.7033C75.1148 15.5346 75.0652 15.3993 74.9662 15.2976C74.8671 15.1931 74.7359 15.1409 74.5725 15.1409C74.4118 15.1409 74.2819 15.1931 74.1829 15.2976C74.0838 15.3993 74.0342 15.5346 74.0342 15.7033V16.9646C74.0342 17.1306 74.0838 17.2645 74.1829 17.3663C74.2819 17.468 74.4118 17.5189 74.5725 17.5189ZM77.3685 17.7358C77.3471 17.7358 77.3324 17.7251 77.3244 17.7037L76.8263 16.4625C76.8236 16.4544 76.8182 16.4504 76.8102 16.4504H76.292C76.2813 16.4504 76.2759 16.4558 76.2759 16.4665V17.6957C76.2759 17.7225 76.2625 17.7358 76.2358 17.7358H76.0309C76.0041 17.7358 75.9907 17.7225 75.9907 17.6957V14.9642C75.9907 14.9374 76.0041 14.924 76.0309 14.924H76.8825C77.0217 14.924 77.1449 14.9561 77.2521 15.0204C77.3618 15.0847 77.4462 15.1757 77.5051 15.2935C77.5667 15.4114 77.5975 15.5466 77.5975 15.6993C77.5975 15.8814 77.5533 16.0367 77.465 16.1652C77.3766 16.2938 77.2561 16.3795 77.1034 16.4223C77.0927 16.4277 77.09 16.4344 77.0954 16.4424L77.6136 17.6876L77.6176 17.7037C77.6176 17.7251 77.6055 17.7358 77.5814 17.7358H77.3685ZM76.292 15.173C76.2813 15.173 76.2759 15.1784 76.2759 15.1891V16.2054C76.2759 16.2161 76.2813 16.2215 76.292 16.2215H76.8463C76.9856 16.2215 77.0981 16.1733 77.1838 16.0768C77.2695 15.9804 77.3123 15.8546 77.3123 15.6993C77.3123 15.5413 77.2695 15.414 77.1838 15.3176C77.0981 15.2212 76.9856 15.173 76.8463 15.173H76.292ZM78.8601 17.768C78.6968 17.768 78.5521 17.7345 78.4263 17.6676C78.3031 17.5979 78.2067 17.5015 78.1371 17.3783C78.0701 17.2551 78.0366 17.1132 78.0366 16.9525V15.7113C78.0366 15.5506 78.0701 15.4087 78.1371 15.2855C78.2067 15.1596 78.3031 15.0632 78.4263 14.9963C78.5521 14.9267 78.6968 14.8918 78.8601 14.8918C79.0235 14.8918 79.1667 14.9267 79.2899 14.9963C79.4158 15.0632 79.5135 15.1596 79.5832 15.2855C79.6528 15.4087 79.6876 15.5506 79.6876 15.7113V16.9525C79.6876 17.1132 79.6528 17.2551 79.5832 17.3783C79.5135 17.5015 79.4158 17.5979 79.2899 17.6676C79.1667 17.7345 79.0235 17.768 78.8601 17.768ZM78.8601 17.5189C79.0235 17.5189 79.1547 17.468 79.2538 17.3663C79.3529 17.2645 79.4024 17.1306 79.4024 16.9646V15.7033C79.4024 15.5346 79.3529 15.3993 79.2538 15.2976C79.1547 15.1931 79.0235 15.1409 78.8601 15.1409C78.6994 15.1409 78.5696 15.1931 78.4705 15.2976C78.3714 15.3993 78.3218 15.5346 78.3218 15.7033V16.9646C78.3218 17.1306 78.3714 17.2645 78.4705 17.3663C78.5696 17.468 78.6994 17.5189 78.8601 17.5189ZM81.0134 17.768C80.7698 17.768 80.5729 17.6957 80.423 17.5511C80.2757 17.4065 80.202 17.215 80.202 16.9766V15.6792C80.202 15.4408 80.2757 15.2507 80.423 15.1088C80.5729 14.9642 80.7698 14.8918 81.0134 14.8918C81.2598 14.8918 81.4566 14.9628 81.6039 15.1047C81.7539 15.2467 81.8289 15.4355 81.8289 15.6711V15.7073C81.8289 15.7341 81.8155 15.7475 81.7887 15.7475L81.5839 15.7555C81.5571 15.7555 81.5437 15.7434 81.5437 15.7193V15.6631C81.5437 15.5078 81.4941 15.3819 81.3951 15.2855C81.2986 15.1891 81.1714 15.1409 81.0134 15.1409C80.8554 15.1409 80.7282 15.1891 80.6318 15.2855C80.5354 15.3792 80.4872 15.5051 80.4872 15.6631V16.9967C80.4872 17.1547 80.5354 17.2819 80.6318 17.3783C80.7282 17.4721 80.8554 17.5189 81.0134 17.5189C81.1714 17.5189 81.2986 17.4707 81.3951 17.3743C81.4941 17.2779 81.5437 17.152 81.5437 16.9967V16.9405C81.5437 16.9164 81.5571 16.9043 81.5839 16.9043L81.7887 16.9164C81.8155 16.9164 81.8289 16.9298 81.8289 16.9566V16.9847C81.8289 17.2203 81.7539 17.4105 81.6039 17.5551C81.4566 17.697 81.2598 17.768 81.0134 17.768ZM83.1278 17.768C82.8841 17.768 82.6873 17.6957 82.5373 17.5511C82.3901 17.4065 82.3164 17.215 82.3164 16.9766V15.6792C82.3164 15.4408 82.3901 15.2507 82.5373 15.1088C82.6873 14.9642 82.8841 14.8918 83.1278 14.8918C83.3742 14.8918 83.571 14.9628 83.7183 15.1047C83.8683 15.2467 83.9433 15.4355 83.9433 15.6711V15.7073C83.9433 15.7341 83.9299 15.7475 83.9031 15.7475L83.6982 15.7555C83.6715 15.7555 83.6581 15.7434 83.6581 15.7193V15.6631C83.6581 15.5078 83.6085 15.3819 83.5094 15.2855C83.413 15.1891 83.2858 15.1409 83.1278 15.1409C82.9698 15.1409 82.8426 15.1891 82.7462 15.2855C82.6498 15.3792 82.6016 15.5051 82.6016 15.6631V16.9967C82.6016 17.1547 82.6498 17.2819 82.7462 17.3783C82.8426 17.4721 82.9698 17.5189 83.1278 17.5189C83.2858 17.5189 83.413 17.4707 83.5094 17.3743C83.6085 17.2779 83.6581 17.152 83.6581 16.9967V16.9405C83.6581 16.9164 83.6715 16.9043 83.6982 16.9043L83.9031 16.9164C83.9299 16.9164 83.9433 16.9298 83.9433 16.9566V16.9847C83.9433 17.2203 83.8683 17.4105 83.7183 17.5551C83.571 17.697 83.3742 17.768 83.1278 17.768ZM85.2543 17.768C85.0909 17.768 84.9463 17.7345 84.8204 17.6676C84.6973 17.5979 84.6008 17.5015 84.5312 17.3783C84.4643 17.2551 84.4308 17.1132 84.4308 16.9525V15.7113C84.4308 15.5506 84.4643 15.4087 84.5312 15.2855C84.6008 15.1596 84.6973 15.0632 84.8204 14.9963C84.9463 14.9267 85.0909 14.8918 85.2543 14.8918C85.4176 14.8918 85.5609 14.9267 85.6841 14.9963C85.8099 15.0632 85.9077 15.1596 85.9773 15.2855C86.0469 15.4087 86.0818 15.5506 86.0818 15.7113V16.9525C86.0818 17.1132 86.0469 17.2551 85.9773 17.3783C85.9077 17.5015 85.8099 17.5979 85.6841 17.6676C85.5609 17.7345 85.4176 17.768 85.2543 17.768ZM85.2543 17.5189C85.4176 17.5189 85.5488 17.468 85.6479 17.3663C85.747 17.2645 85.7966 17.1306 85.7966 16.9646V15.7033C85.7966 15.5346 85.747 15.3993 85.6479 15.2976C85.5488 15.1931 85.4176 15.1409 85.2543 15.1409C85.0936 15.1409 84.9637 15.1931 84.8646 15.2976C84.7655 15.3993 84.716 15.5346 84.716 15.7033V16.9646C84.716 17.1306 84.7655 17.2645 84.8646 17.3663C84.9637 17.468 85.0936 17.5189 85.2543 17.5189ZM88.6858 16.4022C88.7366 16.5415 88.7621 16.7008 88.7621 16.8802C88.7621 17.0409 88.742 17.1802 88.7018 17.298C88.6028 17.6113 88.3832 17.768 88.0431 17.768C87.861 17.768 87.7083 17.7198 87.5851 17.6234C87.4619 17.5243 87.3829 17.389 87.3481 17.2177C87.3294 17.132 87.32 17.0342 87.32 16.9244C87.32 16.8976 87.3334 16.8842 87.3602 16.8842H87.565C87.5918 16.8842 87.6052 16.8976 87.6052 16.9244C87.6106 17.0396 87.6173 17.1172 87.6253 17.1574C87.6494 17.2699 87.6976 17.3582 87.7699 17.4225C87.8422 17.4868 87.9333 17.5189 88.0431 17.5189C88.2493 17.5189 88.3832 17.4145 88.4448 17.2056C88.4689 17.1092 88.4809 16.994 88.4809 16.8601C88.4809 16.6995 88.4635 16.5669 88.4287 16.4625C88.3591 16.275 88.2305 16.1813 88.0431 16.1813C88.0002 16.1813 87.9627 16.1893 87.9306 16.2054C87.9145 16.2107 87.9051 16.2134 87.9025 16.2134C87.8918 16.2134 87.8824 16.2081 87.8743 16.1974L87.7699 16.0889C87.7565 16.0701 87.7552 16.0514 87.7659 16.0327L88.3925 15.1931C88.3979 15.1878 88.3992 15.1837 88.3965 15.1811C88.3939 15.1757 88.3899 15.173 88.3845 15.173H87.3803C87.3535 15.173 87.3401 15.1596 87.3401 15.1329V14.9642C87.3401 14.9374 87.3535 14.924 87.3803 14.924H88.7099C88.7366 14.924 88.75 14.9374 88.75 14.9642V15.1449C88.75 15.1663 88.7447 15.1837 88.734 15.1971L88.1515 15.9925C88.1488 15.9952 88.1488 15.9992 88.1515 16.0045C88.1542 16.0099 88.1582 16.0126 88.1636 16.0126C88.2894 16.0179 88.3965 16.0541 88.4849 16.121C88.5733 16.188 88.6402 16.2817 88.6858 16.4022ZM90.007 17.776C89.7767 17.776 89.5919 17.7064 89.4527 17.5671C89.3134 17.4279 89.2438 17.2418 89.2438 17.0088V15.651C89.2438 15.4207 89.3134 15.236 89.4527 15.0967C89.5919 14.9575 89.7767 14.8878 90.007 14.8878C90.24 14.8878 90.4261 14.9575 90.5653 15.0967C90.7073 15.236 90.7782 15.4207 90.7782 15.651V17.0088C90.7782 17.2418 90.7073 17.4279 90.5653 17.5671C90.4261 17.7064 90.24 17.776 90.007 17.776ZM90.007 17.527C90.1543 17.527 90.2721 17.4814 90.3605 17.3904C90.4489 17.2993 90.493 17.1788 90.493 17.0289V15.635C90.493 15.485 90.4489 15.3645 90.3605 15.2735C90.2721 15.1824 90.1543 15.1369 90.007 15.1369C89.8651 15.1369 89.7499 15.1824 89.6615 15.2735C89.5732 15.3645 89.529 15.485 89.529 15.635V17.0289C89.529 17.1761 89.5732 17.2967 89.6615 17.3904C89.7499 17.4814 89.8651 17.527 90.007 17.527ZM91.9267 16.0286C91.8223 16.0286 91.7259 16.0032 91.6375 15.9523C91.5518 15.9014 91.4835 15.8331 91.4326 15.7475C91.3818 15.6591 91.3563 15.5627 91.3563 15.4582C91.3563 15.3538 91.3818 15.2587 91.4326 15.173C91.4835 15.0847 91.5518 15.015 91.6375 14.9642C91.7259 14.9133 91.8223 14.8878 91.9267 14.8878C92.0285 14.8878 92.1222 14.9133 92.2079 14.9642C92.2963 15.015 92.3659 15.0847 92.4168 15.173C92.4677 15.2587 92.4931 15.3538 92.4931 15.4582C92.4931 15.5627 92.4677 15.6591 92.4168 15.7475C92.3659 15.8331 92.2963 15.9014 92.2079 15.9523C92.1222 16.0032 92.0285 16.0286 91.9267 16.0286ZM91.8343 17.7358C91.8209 17.7358 91.8102 17.7318 91.8022 17.7238C91.7968 17.7131 91.7982 17.701 91.8062 17.6876L93.3005 14.9521C93.3085 14.9334 93.3246 14.924 93.3487 14.924H93.4773C93.4906 14.924 93.5 14.9293 93.5054 14.9401C93.5134 14.9481 93.5134 14.9588 93.5054 14.9722L92.0111 17.7077C92.003 17.7265 91.987 17.7358 91.9629 17.7358H91.8343ZM91.9267 15.8519C92.0338 15.8519 92.1235 15.8144 92.1959 15.7394C92.2708 15.6618 92.3083 15.568 92.3083 15.4582C92.3083 15.3484 92.2708 15.256 92.1959 15.1811C92.1235 15.1034 92.0338 15.0646 91.9267 15.0646C91.8196 15.0646 91.7285 15.1034 91.6536 15.1811C91.5786 15.256 91.5411 15.3484 91.5411 15.4582C91.5411 15.568 91.5786 15.6618 91.6536 15.7394C91.7285 15.8144 91.8196 15.8519 91.9267 15.8519ZM93.4009 17.772C93.2965 17.772 93.2001 17.7466 93.1117 17.6957C93.026 17.6448 92.9577 17.5752 92.9068 17.4868C92.856 17.3984 92.8305 17.302 92.8305 17.1976C92.8305 17.0958 92.856 17.0021 92.9068 16.9164C92.9577 16.828 93.026 16.7584 93.1117 16.7075C93.2001 16.6566 93.2965 16.6312 93.4009 16.6312C93.5027 16.6312 93.5964 16.6566 93.6821 16.7075C93.7705 16.7584 93.8401 16.828 93.891 16.9164C93.9419 17.0021 93.9673 17.0958 93.9673 17.1976C93.9673 17.302 93.9419 17.3984 93.891 17.4868C93.8401 17.5752 93.7705 17.6448 93.6821 17.6957C93.5964 17.7466 93.5027 17.772 93.4009 17.772ZM93.4009 17.5952C93.5081 17.5952 93.5978 17.5564 93.6701 17.4788C93.7451 17.4011 93.7825 17.3074 93.7825 17.1976C93.7825 17.0878 93.7451 16.9954 93.6701 16.9204C93.5978 16.8454 93.5081 16.8079 93.4009 16.8079C93.2938 16.8079 93.2028 16.8454 93.1278 16.9204C93.0528 16.9954 93.0153 17.0878 93.0153 17.1976C93.0153 17.31 93.0515 17.4051 93.1238 17.4828C93.1987 17.5578 93.2911 17.5952 93.4009 17.5952Z" fill="#404040"/>
<path d="M67.2216 21.868L69.7636 18.6047H80.2947" stroke="black" stroke-width="0.145684"/>
<path fill-rule="evenodd" clip-rule="evenodd" d="M46.2718 25.6537L46.1644 25.6636L46.1595 25.7999L46.1545 25.9379H46.3263C46.4205 25.9379 46.6336 25.9429 46.7972 25.9495L47.0979 25.9595V27.8659C47.0979 29.7225 47.1045 30.1264 47.1342 30.1264C47.1408 30.1264 47.1904 30.0931 47.2432 30.0516C47.3192 29.9917 47.3622 29.9718 47.4663 29.9485L47.5935 29.9186V27.939V25.9595L48.0594 25.9495C48.4063 25.9412 48.5286 25.9329 48.5385 25.9179C48.5567 25.888 48.555 25.7185 48.5368 25.6902C48.5269 25.6753 48.479 25.6603 48.4245 25.6537C48.3122 25.6387 46.4304 25.6404 46.2718 25.6537Z" fill="black"/>
<path fill-rule="evenodd" clip-rule="evenodd" d="M49.2357 25.6497C49.2027 25.6563 49.201 25.6663 49.1911 26.1416C49.1845 26.4092 49.1796 26.9544 49.1796 27.3533V28.0813H48.8161H48.4526V27.3699C48.4526 26.9793 48.4477 26.5306 48.4411 26.3727L48.4312 26.0868H48.2048H47.9768L47.9653 26.6054C47.9586 26.8912 47.957 27.7805 47.9603 28.5799L47.9653 30.0342L48.0033 30.1157C48.0495 30.2187 48.0495 30.2703 47.9983 30.3916C47.9421 30.5246 47.9454 30.5545 48.0115 30.5811C48.1106 30.6226 48.1982 30.6293 48.2957 30.5994C48.451 30.5545 48.4427 30.6226 48.4493 29.381L48.4559 28.314H48.8177H49.1796V29.2564C49.1796 29.7766 49.1845 30.3068 49.1911 30.4348L49.201 30.6708L49.2638 30.6908C49.3315 30.714 49.4009 30.7024 49.5678 30.6392L49.6587 30.606L49.657 28.5999C49.6554 27.4962 49.6488 26.381 49.6438 26.12L49.6339 25.6463L49.4522 25.6447C49.353 25.643 49.2556 25.6447 49.2357 25.6497Z" fill="black"/>
<path fill-rule="evenodd" clip-rule="evenodd" d="M45.6637 26.2208C45.4539 26.2507 45.3069 26.3288 45.2391 26.4435C45.1797 26.5466 45.1648 26.6746 45.1648 27.0668C45.1648 27.6768 45.1681 27.6818 45.8587 28.7056C46.0272 28.9566 46.052 28.9982 46.1313 29.176C46.2023 29.3339 46.2089 29.3605 46.2221 29.5417C46.2304 29.648 46.2387 29.9406 46.2387 30.1882C46.2387 30.4375 46.2436 30.642 46.2519 30.642C46.2585 30.642 46.3626 30.627 46.4832 30.6071L46.7029 30.5705L46.698 29.9456L46.693 29.3206L46.622 29.1428C46.5427 28.9466 46.3956 28.7006 46.0735 28.2319C45.9578 28.0624 45.819 27.8463 45.7678 27.7533L45.672 27.5821L45.6555 27.1134C45.6389 26.5981 45.6472 26.5034 45.7199 26.4319C45.7662 26.3854 45.8223 26.3704 45.9578 26.3704C46.0883 26.3704 46.1478 26.3953 46.1924 26.4668C46.2288 26.5266 46.2304 26.5416 46.2387 27.0884C46.2453 27.5139 46.2519 27.6535 46.2684 27.6702C46.2948 27.6967 46.6319 27.7084 46.6682 27.6851C46.6897 27.6702 46.693 27.5887 46.698 27.1516C46.7029 26.6064 46.693 26.4851 46.6352 26.4036C46.5955 26.3471 46.4336 26.2657 46.3047 26.2374C46.1874 26.2125 45.7992 26.2025 45.6637 26.2208Z" fill="black"/>
<path fill-rule="evenodd" clip-rule="evenodd" d="M50.6057 26.2514C50.3446 26.288 50.2075 26.3578 50.1282 26.4941C50.0852 26.5656 50.0819 26.5921 50.0704 26.8149C50.0638 26.9478 50.0572 27.8487 50.0572 28.8144L50.0555 30.5712L50.11 30.6111C50.2306 30.7042 50.3265 30.7125 50.4652 30.6443L50.5264 30.6144L50.5313 29.6288L50.5346 28.6448H50.832H51.1294V29.6321V30.6194L51.2368 30.6892L51.3458 30.7607L51.4499 30.7158C51.5094 30.6909 51.5688 30.6593 51.587 30.6476C51.6151 30.626 51.6168 30.5645 51.6217 29.3396C51.6283 27.8553 51.6068 26.6902 51.5705 26.5539C51.516 26.3478 51.3326 26.2664 50.8733 26.2448C50.7824 26.2414 50.6618 26.2431 50.6057 26.2514ZM50.9972 26.4326C51.0336 26.4509 51.0666 26.4858 51.0881 26.5273C51.1178 26.5888 51.1195 26.6387 51.1261 27.4149C51.1294 27.867 51.1261 28.2825 51.1178 28.3373L51.1046 28.4371L50.8733 28.4421C50.7461 28.4454 50.6172 28.4421 50.5891 28.4371L50.5346 28.4271V27.7091C50.5363 26.9079 50.5511 26.5822 50.5891 26.5074C50.647 26.3944 50.8469 26.3578 50.9972 26.4326Z" fill="black"/>
<path fill-rule="evenodd" clip-rule="evenodd" d="M43.4071 26.9864C43.4021 27.0429 43.3972 27.7493 43.3972 28.5554V30.0214L43.5145 30.033C43.5789 30.038 43.6747 30.0579 43.7276 30.0762C43.7821 30.0945 43.8333 30.1095 43.8433 30.1095C43.8614 30.1095 43.868 27.0978 43.8499 26.9615L43.8383 26.885H43.6285H43.4187L43.4071 26.9864Z" fill="black"/>
<path fill-rule="evenodd" clip-rule="evenodd" d="M44.3437 26.9046C44.3189 26.9428 44.2924 30.0077 44.3156 30.124C44.3288 30.1839 44.3536 30.1889 44.3982 30.1407C44.4461 30.0875 44.5171 30.0576 44.6427 30.0359L44.76 30.016L44.7699 29.7833C44.7848 29.4791 44.7848 27.1206 44.7699 26.9927L44.76 26.8929L44.5584 26.8879C44.4097 26.8846 44.3536 26.8896 44.3437 26.9046Z" fill="black"/>
<path fill-rule="evenodd" clip-rule="evenodd" d="M52.0297 26.9132C52.0214 26.9298 52.0132 27.4483 52.0082 28.0666L52.0016 29.1886L52.0545 29.4296C52.1751 29.9764 52.3039 30.4684 52.3634 30.613C52.4394 30.7908 52.6162 30.7177 52.6162 30.5099C52.6162 30.4584 52.6079 30.3637 52.598 30.3005C52.5071 29.6772 52.4873 29.3199 52.4708 27.932L52.4592 26.8932L52.2511 26.8882C52.0644 26.8849 52.0412 26.8866 52.0297 26.9132Z" fill="black"/>
<path fill-rule="evenodd" clip-rule="evenodd" d="M52.9534 26.9038C52.9468 26.9154 52.9352 27.4423 52.9286 28.0722C52.922 28.7038 52.9088 29.2922 52.8989 29.3786C52.8543 29.7875 52.8345 29.9886 52.8361 30.0352C52.8378 30.0618 52.8328 30.1432 52.8245 30.2147C52.8113 30.346 52.8113 30.346 52.8477 30.326C52.8675 30.3161 52.922 30.2712 52.9683 30.2296C53.0162 30.1864 53.0823 30.1299 53.117 30.1033C53.1517 30.0767 53.1913 30.0335 53.2045 30.0086C53.2392 29.9404 53.3565 29.4119 53.3763 29.2274C53.3978 29.0446 53.3929 26.9287 53.3714 26.9071C53.3631 26.9005 53.269 26.8922 53.1616 26.8888C53.0162 26.8838 52.9633 26.8888 52.9534 26.9038Z" fill="black"/>
<path fill-rule="evenodd" clip-rule="evenodd" d="M42.7709 27.5501L42.5495 27.5584L42.3876 28.3811C42.2984 28.8332 42.2224 29.2138 42.2208 29.2271C42.2125 29.2703 42.1795 29.2637 42.1596 29.2171C42.1497 29.1922 42.1316 29.1141 42.1183 29.0459C42.1068 28.9778 42.0456 28.6786 41.9845 28.3811C41.9234 28.0836 41.8606 27.7778 41.8457 27.6996L41.8193 27.5584L41.5897 27.5534L41.36 27.5484L41.3699 28.6736C41.3765 29.2936 41.3815 30.0831 41.3815 30.4288V31.0571H41.6128H41.8441L41.8457 30.4454C41.8457 30.1097 41.8523 29.7972 41.8606 29.7523C41.8672 29.7058 41.8738 29.6742 41.8755 29.6809C41.9135 29.8836 42.0076 30.4039 42.0159 30.4604C42.0341 30.5834 42.0539 30.6 42.1844 30.5983C42.2753 30.5983 42.3001 30.5917 42.3215 30.5634C42.3397 30.5418 42.3711 30.4005 42.4124 30.1579C42.4471 29.9534 42.4818 29.7739 42.4901 29.7606C42.4983 29.744 42.5049 29.7872 42.5049 29.877C42.5049 30.103 42.5248 30.2942 42.5462 30.3025C42.5578 30.3075 42.5991 30.2892 42.6387 30.2626C42.6784 30.236 42.7709 30.1895 42.8436 30.1595C42.9163 30.128 42.9807 30.098 42.989 30.0931C42.9956 30.0881 42.9989 29.5113 42.9973 28.8116L42.9923 27.5417L42.7709 27.5501Z" fill="black"/>
<path fill-rule="evenodd" clip-rule="evenodd" d="M53.8125 27.5703C53.8042 27.582 53.796 28.1222 53.7927 28.772L53.786 29.9521L53.8521 29.9903C53.9859 30.0651 54.0471 30.1831 54.0322 30.3361C54.0206 30.4458 53.9744 30.5521 53.8753 30.6984C53.8042 30.8014 53.7976 30.8197 53.7976 30.9095C53.7976 30.9743 53.8059 31.0159 53.8224 31.0308C53.8505 31.0591 54.0785 31.069 54.5295 31.0607L54.7971 31.0574V30.9344V30.8131L54.5625 30.8014C54.4337 30.7948 54.3246 30.7865 54.3213 30.7848C54.318 30.7815 54.3114 30.4574 54.3065 30.0651L54.2965 29.3504L54.4502 29.3405C54.5344 29.3338 54.6352 29.3288 54.6732 29.3288C54.7558 29.3288 54.7657 29.3089 54.7525 29.1693L54.7426 29.0795H54.5229H54.3015V28.4496C54.3015 28.0208 54.3065 27.8147 54.3197 27.808C54.3296 27.8014 54.4353 27.7914 54.5543 27.7864L54.7723 27.7748V27.6667V27.5587L54.2982 27.5537C53.9331 27.5504 53.8224 27.5554 53.8125 27.5703Z" fill="black"/>
<path fill-rule="evenodd" clip-rule="evenodd" d="M45.163 29.4879C45.1415 29.5445 45.1564 30.1362 45.1828 30.2608C45.1943 30.3107 45.1927 30.3605 45.1828 30.4104C45.158 30.5118 45.1613 30.5966 45.1877 30.6331C45.2092 30.663 45.2142 30.663 45.3893 30.6265C45.4884 30.6049 45.5859 30.5849 45.6074 30.5799L45.6454 30.5716L45.6404 30.0265C45.6371 29.7256 45.6289 29.4746 45.6222 29.468C45.6156 29.4597 45.5132 29.4514 45.3959 29.4481L45.1811 29.4414L45.163 29.4879Z" fill="black"/>
<path fill-rule="evenodd" clip-rule="evenodd" d="M47.4945 30.1946C47.4317 30.2195 47.3524 30.3043 47.2599 30.4423C47.1806 30.5619 46.9179 30.9076 46.9063 30.9076C46.9047 30.9076 46.8749 30.891 46.8419 30.8727C46.7874 30.8395 46.7642 30.8378 46.6222 30.8461C46.3397 30.8611 46.1645 30.9525 45.887 31.2268C45.6573 31.4545 45.4541 31.5874 45.4112 31.5442C45.3996 31.5326 45.4376 31.4744 45.5235 31.373C45.7845 31.0606 45.7845 31.0606 45.773 30.9642C45.7697 30.9326 45.7499 30.9043 45.7102 30.8777C45.6293 30.8229 45.5103 30.8345 45.3269 30.916C45.2509 30.9492 45.1799 30.9808 45.17 30.9858C45.1584 30.9907 45.1419 30.9758 45.1336 30.9525C45.0956 30.8528 44.975 30.8545 44.8825 30.9542C44.8511 30.9874 44.7817 31.0705 44.7289 31.137C44.5669 31.3431 44.2844 31.5625 44.1523 31.5841C43.9788 31.6124 44.1027 31.3697 44.5455 30.8162C44.8693 30.4107 44.9122 30.3342 44.8362 30.2927C44.7834 30.2661 44.6661 30.2727 44.6082 30.3076C44.5802 30.3259 44.4678 30.4506 44.3588 30.5869C44.1407 30.8594 43.8318 31.1702 43.6335 31.3182C43.4105 31.4844 43.1379 31.5924 43.0751 31.5392C43.0041 31.4811 43.09 31.3381 43.4617 30.8943C43.5559 30.7813 43.6566 30.65 43.688 30.6035C43.7492 30.5087 43.7607 30.424 43.7194 30.3641C43.6583 30.276 43.4022 30.2511 43.1726 30.3093C42.8521 30.3907 42.6472 30.5652 42.7744 30.65C42.8273 30.6833 42.8983 30.6617 43.0966 30.5486C43.2585 30.4589 43.4204 30.409 43.4518 30.4406C43.4733 30.4622 43.3807 30.5819 43.1329 30.8495C42.8207 31.1852 42.7232 31.3531 42.7414 31.5193C42.7546 31.6439 42.8967 31.7536 43.0437 31.7553C43.2056 31.7553 43.4419 31.6456 43.6269 31.4811C43.6946 31.4212 43.7591 31.373 43.7723 31.373C43.7987 31.373 43.7987 31.3697 43.769 31.4545C43.7392 31.5409 43.7607 31.609 43.8417 31.6772C43.9491 31.7669 44.0944 31.7736 44.2696 31.6955C44.372 31.6489 44.4298 31.6439 44.4447 31.6805C44.4513 31.6971 44.4777 31.7054 44.5273 31.7054C44.6 31.7054 44.6033 31.7038 44.7206 31.5592C44.8891 31.3531 44.9932 31.2484 45.1072 31.1653C45.3765 30.9708 45.5698 30.9492 45.4343 31.1287C45.4079 31.1619 45.3401 31.2417 45.2823 31.3082C45.1237 31.4894 45.0907 31.6041 45.1749 31.6705C45.2113 31.6988 45.2427 31.7054 45.3418 31.7054C45.4706 31.7054 45.512 31.6905 45.6722 31.5891C45.7152 31.5608 45.7598 31.5392 45.7713 31.5392C45.7829 31.5392 45.806 31.5675 45.8242 31.6041C45.8638 31.6822 45.9283 31.7104 46.0571 31.7104C46.1728 31.7088 46.2835 31.6622 46.3909 31.5708C46.4338 31.5359 46.4751 31.506 46.485 31.506C46.495 31.506 46.5032 31.5293 46.5032 31.5575C46.5032 31.5908 46.5197 31.624 46.5511 31.6572C46.5924 31.6988 46.6123 31.7054 46.6883 31.7054C46.7923 31.7054 46.9162 31.6523 47.0451 31.5525C47.093 31.516 47.136 31.4894 47.1409 31.4944C47.1459 31.4993 47.1624 31.5276 47.1789 31.5592C47.1954 31.5891 47.2434 31.639 47.2863 31.6672C47.3557 31.7154 47.3805 31.7221 47.4697 31.7221C47.6151 31.7221 47.7324 31.6955 47.8579 31.6373C48.005 31.5692 48.1025 31.4894 48.3701 31.2317C48.5469 31.0589 48.6113 31.0074 48.6559 30.9991C48.7815 30.9741 48.7765 30.9907 48.6014 31.1902C48.3354 31.4894 48.2891 31.5957 48.3883 31.6788C48.489 31.7636 48.6989 31.7254 48.9103 31.5841C48.9715 31.5426 49.0326 31.506 49.0425 31.5027C49.0541 31.4993 49.0755 31.5243 49.0921 31.5559C49.1912 31.7503 49.4754 31.7736 49.7909 31.614C49.8504 31.5841 49.9099 31.5475 49.9214 31.5326C49.9545 31.4927 49.9677 31.4977 50.0734 31.5957C50.1907 31.7054 50.2535 31.7287 50.4088 31.7187C50.5624 31.7088 50.6748 31.6539 50.8383 31.5093C51.0019 31.368 51.1126 31.2866 51.1357 31.2949C51.1473 31.2982 51.1522 31.3464 51.1489 31.4245C51.1407 31.6306 51.2018 31.7054 51.3786 31.7054C51.519 31.7054 51.6198 31.6672 51.7305 31.5741C51.785 31.5276 51.8346 31.4944 51.8428 31.4993C51.8494 31.5043 51.856 31.5342 51.856 31.5658C51.856 31.6589 51.9155 31.7054 52.0328 31.7054C52.1402 31.7054 52.2179 31.6739 52.3434 31.5824C52.388 31.5492 52.4359 31.5226 52.4475 31.5226C52.4574 31.5226 52.4805 31.5542 52.4954 31.5908C52.5582 31.752 52.8126 31.7653 53.0224 31.6207C53.1348 31.5442 53.414 31.2633 53.4057 31.2367C53.3875 31.1819 53.3281 31.2101 53.1513 31.3514C52.963 31.506 52.8919 31.5459 52.8275 31.5359C52.7944 31.5309 52.7895 31.5226 52.7911 31.4528C52.7911 31.3514 52.8341 31.2916 52.9927 31.1653C53.3281 30.8993 53.6139 30.6035 53.6849 30.4472C53.7411 30.3259 53.7328 30.2278 53.6668 30.1946C53.604 30.1647 53.4602 30.1929 53.3677 30.2544C53.1827 30.3791 52.7812 30.8412 52.616 31.1237C52.5367 31.2567 52.4359 31.3631 52.3071 31.4495C52.1964 31.5243 52.1237 31.5492 52.1006 31.5259C52.0758 31.501 52.1303 31.4212 52.2856 31.2484C52.35 31.1752 52.4161 31.0905 52.431 31.0606C52.4574 31.0074 52.4558 31.0024 52.4293 30.9824C52.4128 30.9708 52.3715 30.9575 52.3368 30.9509C52.3005 30.9459 52.2492 30.9226 52.2228 30.8993C52.1253 30.8179 51.9287 30.8146 51.7007 30.891C51.638 30.911 51.5256 30.9741 51.4166 31.0489C51.1721 31.2201 51.1258 31.2168 51.1076 31.034C51.0961 30.9176 51.0564 30.8661 50.9573 30.8395C50.726 30.7763 50.3411 30.9425 50.1015 31.2085C49.9346 31.393 49.7116 31.5309 49.5431 31.5509C49.4836 31.5575 49.4605 31.5525 49.4241 31.5226C49.3663 31.4777 49.3663 31.4362 49.4258 31.3315C49.5167 31.1719 49.7364 30.9808 49.8487 30.9625C49.9214 30.9509 49.9247 30.9791 49.8653 31.0672C49.8124 31.1437 49.819 31.1636 49.8933 31.1702C49.9413 31.1736 49.9644 31.1653 50.0139 31.122C50.1362 31.014 50.1395 30.9359 50.0222 30.8677C49.9033 30.7963 49.6505 30.8412 49.4407 30.9691C49.3878 31.0007 49.254 31.1137 49.1433 31.2185C48.8806 31.4694 48.6956 31.5908 48.6477 31.5426C48.6262 31.521 48.7203 31.3913 48.9004 31.2002C49.0656 31.024 49.1053 30.9642 49.0871 30.916C49.0722 30.8777 49.0095 30.8694 48.831 30.881C48.6741 30.8927 48.6675 30.891 48.6675 30.8594C48.6675 30.8412 48.6493 30.8129 48.6262 30.7979C48.5204 30.7281 48.3057 30.8761 48.3668 30.9758C48.3998 31.0273 48.3899 31.0522 48.2941 31.1553C48.1702 31.2916 48.0265 31.398 47.8596 31.4794C47.6167 31.5957 47.4532 31.5675 47.4532 31.4079C47.4532 31.3714 47.4598 31.3365 47.4664 31.3298C47.473 31.3232 47.5589 31.3115 47.6564 31.3049C47.9224 31.2849 48.0678 31.2268 48.1471 31.1104C48.2049 31.0256 48.1999 30.9725 48.1305 30.9093C48.0265 30.8179 47.891 30.8063 47.6746 30.8744C47.544 30.9143 47.4532 30.9824 47.1855 31.2417C46.9328 31.486 46.8171 31.5642 46.7742 31.5193C46.7527 31.4993 46.7593 31.4827 46.8138 31.3963C46.8766 31.2999 47.0864 31.0423 47.4168 30.6583C47.7192 30.3076 47.7753 30.2096 47.6894 30.1863C47.6349 30.1713 47.5424 30.1763 47.4945 30.1946ZM53.5742 30.3808C53.5742 30.4522 53.1017 30.9907 53.039 30.9907C52.9993 30.9907 53.2769 30.6101 53.4272 30.4605C53.5247 30.3625 53.5742 30.3359 53.5742 30.3808ZM46.7742 30.9675C46.8303 30.9891 46.7989 31.0473 46.6486 31.1968C46.4834 31.3614 46.3479 31.4595 46.2174 31.5093C46.0753 31.5642 46.0307 31.5077 46.1166 31.3797C46.2306 31.2068 46.4487 31.0439 46.6436 30.9808C46.7213 30.9558 46.7395 30.9542 46.7742 30.9675ZM47.9967 30.9841C48.0347 31.0207 48.0298 31.0439 47.9769 31.0955C47.9141 31.1553 47.8067 31.1902 47.6795 31.1902H47.5721L47.6101 31.1486C47.6613 31.0938 47.8018 31.0007 47.8662 30.9774C47.9372 30.9525 47.967 30.9542 47.9967 30.9841ZM50.9391 30.9874C50.9391 30.9991 50.9094 31.0256 50.8747 31.0456C50.7954 31.0905 50.7442 31.157 50.759 31.1952C50.764 31.2118 50.7904 31.2351 50.8169 31.25C50.8433 31.2633 50.8648 31.2849 50.8648 31.2982C50.8648 31.3298 50.7855 31.388 50.6335 31.4694C50.4468 31.5708 50.3493 31.5775 50.3047 31.491C50.2436 31.378 50.5195 31.0822 50.7706 30.9891C50.8648 30.9542 50.9391 30.9542 50.9391 30.9874ZM52.1006 30.9675C52.1501 30.9824 52.1468 31.0207 52.084 31.1054C51.9535 31.2833 51.5504 31.5608 51.4612 31.5309C51.3175 31.486 51.6644 31.1021 51.9535 30.9891C52.0394 30.9558 52.0477 30.9542 52.1006 30.9675Z" fill="black"/>
<path fill-rule="evenodd" clip-rule="evenodd" d="M42.533 30.8529C42.5147 30.8696 42.5197 31.0374 42.538 31.0491C42.5563 31.0607 42.671 30.956 42.671 30.9277C42.671 30.9061 42.5895 30.8413 42.5629 30.8413C42.553 30.8413 42.538 30.8463 42.533 30.8529Z" fill="black"/>
<path fill-rule="evenodd" clip-rule="evenodd" d="M41.3685 31.3418L41.3735 31.3966L41.8047 31.4016C42.2789 31.4066 42.4011 31.3966 42.4292 31.3501C42.4424 31.3268 42.4424 31.3168 42.4226 31.3052C42.4077 31.2952 42.1814 31.2886 41.8807 31.2886H41.3636L41.3685 31.3418Z" fill="black"/>
<path fill-rule="evenodd" clip-rule="evenodd" d="M53.7465 31.3052C53.7101 31.3202 53.682 31.3684 53.7002 31.3866C53.7052 31.3916 53.9563 31.3966 54.257 31.3966H54.8055L54.8104 31.3418L54.8154 31.2886L54.2983 31.2902C54.0141 31.2902 53.7663 31.2969 53.7465 31.3052Z" fill="black"/>
<path fill-rule="evenodd" clip-rule="evenodd" d="M42.1531 31.9735C41.9648 32.0284 41.902 32.2644 42.0424 32.399C42.1697 32.5187 42.4142 32.5154 42.5216 32.394C42.6223 32.2793 42.6009 32.1032 42.4786 32.0167C42.401 31.9619 42.2605 31.9436 42.1531 31.9735ZM42.4043 32.0683C42.4274 32.0849 42.4571 32.1264 42.467 32.1597C42.5249 32.3342 42.3217 32.4904 42.168 32.389C42.1036 32.3458 42.0771 32.2943 42.0755 32.2079C42.0755 32.1514 42.0854 32.1281 42.1217 32.0932C42.1465 32.0699 42.1812 32.045 42.1994 32.0367C42.249 32.0151 42.3563 32.0317 42.4043 32.0683Z" fill="black"/>
<path fill-rule="evenodd" clip-rule="evenodd" d="M43.4366 31.9705C43.3887 31.9904 43.3309 32.0669 43.3309 32.1118C43.3309 32.1733 43.4036 32.2298 43.4961 32.2414C43.5903 32.253 43.6877 32.2946 43.701 32.3295C43.7059 32.3428 43.6944 32.3694 43.6762 32.3877C43.6266 32.4375 43.5027 32.4242 43.4218 32.3627C43.3309 32.2929 43.2698 32.3378 43.3524 32.4159C43.4878 32.5439 43.81 32.4857 43.81 32.3328C43.81 32.3079 43.7951 32.2713 43.7786 32.2547C43.7505 32.2264 43.6035 32.1699 43.5572 32.1699C43.5225 32.1699 43.43 32.1151 43.43 32.0935C43.43 32.0602 43.4978 32.0203 43.5556 32.0203C43.5837 32.0203 43.6349 32.0386 43.6679 32.0619C43.734 32.1068 43.7935 32.1167 43.7935 32.0818C43.7935 31.9971 43.5539 31.9223 43.4366 31.9705Z" fill="black"/>
<path fill-rule="evenodd" clip-rule="evenodd" d="M46.9294 31.9697C46.7394 32.0312 46.6684 32.204 46.7659 32.3636C46.8237 32.46 47.0005 32.5099 47.1458 32.47C47.3623 32.4118 47.4151 32.1425 47.2367 32.0162C47.1624 31.9647 47.0153 31.9431 46.9294 31.9697ZM47.1574 32.0628C47.2136 32.0993 47.2516 32.1941 47.24 32.2622C47.2334 32.2905 47.207 32.337 47.1789 32.3636C47.1359 32.4051 47.1161 32.4118 47.0401 32.4118C46.9311 32.4118 46.8683 32.3702 46.8352 32.2755C46.8138 32.2157 46.8154 32.204 46.8435 32.1442C46.8997 32.0278 47.0467 31.9896 47.1574 32.0628Z" fill="black"/>
<path fill-rule="evenodd" clip-rule="evenodd" d="M47.615 31.9838C47.5077 32.027 47.4647 32.0735 47.4531 32.16C47.435 32.278 47.4548 32.3428 47.5275 32.4076C47.6233 32.4957 47.7968 32.5107 47.9256 32.4425C47.995 32.4076 48.0578 32.3029 48.0595 32.2248C48.0611 32.1068 47.9983 32.022 47.8761 31.9788C47.7852 31.9472 47.7026 31.9489 47.615 31.9838ZM47.8529 32.0536C47.9719 32.1267 47.9901 32.2597 47.8942 32.3561C47.7736 32.4791 47.544 32.4043 47.544 32.2414C47.544 32.0735 47.7158 31.9688 47.8529 32.0536Z" fill="black"/>
<path fill-rule="evenodd" clip-rule="evenodd" d="M51.0896 31.9701C50.9838 32.0033 50.9062 32.1313 50.9194 32.2493C50.9293 32.3424 50.9723 32.4006 51.0631 32.4471C51.197 32.5169 51.3787 32.4853 51.4762 32.3773C51.5125 32.3391 51.5175 32.3175 51.5175 32.2227C51.5158 32.0898 51.4861 32.0349 51.3969 31.9983C51.3176 31.9668 51.1507 31.9518 51.0896 31.9701ZM51.3291 32.0582C51.3605 32.0781 51.3985 32.123 51.415 32.1579C51.4448 32.2177 51.4448 32.2211 51.415 32.2809C51.3754 32.3623 51.2911 32.4189 51.2069 32.4189C51.154 32.4189 51.1309 32.4072 51.078 32.354C51.0268 32.3025 51.0136 32.2776 51.0136 32.2277C51.0136 32.0615 51.192 31.9651 51.3291 32.0582Z" fill="black"/>
<path fill-rule="evenodd" clip-rule="evenodd" d="M53.0409 31.9792C52.955 32.0108 52.9203 32.0457 52.8873 32.1321C52.8212 32.3083 52.955 32.4878 53.1533 32.4878C53.2458 32.4878 53.3532 32.4346 53.3912 32.3698C53.4507 32.2717 53.3994 32.2601 53.297 32.3482C53.2508 32.3864 53.2045 32.4113 53.1615 32.4163C53.1037 32.4246 53.0905 32.4196 53.0393 32.3681C52.9418 32.2701 52.9402 32.1753 53.0376 32.0773C53.1087 32.0058 53.1632 32.0058 53.2772 32.0806C53.3763 32.1454 53.416 32.1371 53.3763 32.0623C53.3301 31.9775 53.1599 31.9343 53.0409 31.9792Z" fill="black"/>
<path fill-rule="evenodd" clip-rule="evenodd" d="M53.7299 31.9677C53.6721 31.9794 53.5614 32.0841 53.5416 32.1489C53.5185 32.2204 53.5284 32.2885 53.5779 32.3683C53.6242 32.4431 53.7217 32.4863 53.8456 32.488C53.9381 32.488 53.9447 32.4846 54.0158 32.4132C54.0571 32.3733 54.0868 32.3301 54.0835 32.3184C54.0703 32.2785 54.0257 32.2869 53.9778 32.3351C53.8869 32.4248 53.8258 32.4414 53.7399 32.3966C53.6407 32.345 53.611 32.2038 53.6787 32.104C53.7448 32.0043 53.8241 32.0043 53.9827 32.1073C54.0339 32.1389 54.0372 32.1406 54.0488 32.114C54.0818 32.0242 53.8902 31.9362 53.7299 31.9677Z" fill="black"/>
<path fill-rule="evenodd" clip-rule="evenodd" d="M54.3824 31.9698C54.2437 32.0146 54.1941 32.0994 54.2007 32.2739C54.2024 32.3338 54.2767 32.4185 54.3593 32.4551C54.5064 32.5232 54.731 32.4667 54.7872 32.3471C54.845 32.2257 54.807 32.0844 54.6996 32.013C54.627 31.9648 54.465 31.9432 54.3824 31.9698ZM54.617 32.0562C54.665 32.0745 54.7145 32.1659 54.7145 32.2357C54.7145 32.3288 54.6038 32.4202 54.4915 32.4202C54.4485 32.4202 54.4171 32.4052 54.3709 32.3637C54.3147 32.3105 54.3097 32.2989 54.3097 32.2157C54.3097 32.1493 54.318 32.1144 54.3411 32.0894C54.399 32.0246 54.5047 32.013 54.617 32.0562Z" fill="black"/>
<path fill-rule="evenodd" clip-rule="evenodd" d="M41.4017 31.9907C41.4066 32.0023 41.4397 32.0139 41.476 32.0173C41.514 32.0206 41.5537 32.0339 41.5652 32.0472C41.5784 32.0638 41.59 32.1453 41.5933 32.2716C41.5999 32.4428 41.6049 32.4694 41.628 32.4694C41.6842 32.4694 41.6957 32.4328 41.6957 32.2616C41.6957 32.0572 41.7139 32.0206 41.8114 32.0256C41.8808 32.0272 41.9039 32.0173 41.8857 31.989C41.8692 31.9608 41.3934 31.9641 41.4017 31.9907Z" fill="black"/>
<path fill-rule="evenodd" clip-rule="evenodd" d="M42.8882 32.0093C42.8519 32.0492 42.7148 32.3418 42.6949 32.4232C42.685 32.4631 42.6883 32.4697 42.7164 32.4697C42.7494 32.4697 42.7808 32.4415 42.8106 32.38C42.8254 32.3501 42.8436 32.3451 42.9461 32.3401L43.065 32.3351L43.0881 32.39C43.1294 32.488 43.1988 32.5146 43.1988 32.4315C43.1988 32.3833 43.0534 32.0476 43.0138 32.0044C42.9725 31.9611 42.9312 31.9628 42.8882 32.0093ZM42.994 32.1805C43.0072 32.252 42.9857 32.2786 42.9279 32.2636C42.8783 32.252 42.8717 32.2121 42.9114 32.1573C42.9494 32.1024 42.9807 32.1124 42.994 32.1805Z" fill="black"/>
<path fill-rule="evenodd" clip-rule="evenodd" d="M43.9124 31.9911C43.9174 32.0028 43.9306 32.0144 43.9438 32.0161C43.957 32.0177 43.995 32.0227 44.0297 32.0294L44.0909 32.0393V32.144C44.0909 32.3219 44.1107 32.4549 44.1371 32.4665C44.1817 32.4831 44.2032 32.4216 44.2148 32.2288L44.2263 32.0393L44.2858 32.0294C44.3205 32.0227 44.3569 32.0177 44.3701 32.0161C44.3833 32.0144 44.3965 32.0028 44.4015 31.9911C44.4064 31.9762 44.3502 31.9712 44.1569 31.9712C43.9637 31.9712 43.9075 31.9762 43.9124 31.9911Z" fill="black"/>
<path fill-rule="evenodd" clip-rule="evenodd" d="M44.5849 31.9822C44.5304 31.9905 44.5205 32.032 44.5205 32.2448C44.5205 32.4708 44.5271 32.4775 44.7815 32.4775C44.8906 32.4775 44.9864 32.4708 44.993 32.4642C45.0178 32.4409 44.9616 32.4193 44.8741 32.4193C44.8278 32.4193 44.7551 32.4143 44.7122 32.4093L44.6362 32.3977V32.3279V32.2581L44.7865 32.2481C44.8708 32.2431 44.9451 32.2315 44.955 32.2215C44.9798 32.1966 44.8972 32.17 44.7915 32.17C44.6791 32.17 44.6362 32.1484 44.6362 32.0935C44.6362 32.0403 44.6874 32.0204 44.8261 32.0204C44.9401 32.0204 44.9881 32.0088 44.9732 31.9855C44.9649 31.9705 44.6725 31.9689 44.5849 31.9822Z" fill="black"/>
<path fill-rule="evenodd" clip-rule="evenodd" d="M45.1798 31.9832C45.1583 31.9882 45.1517 32.0181 45.1451 32.1344C45.1418 32.2142 45.1418 32.3189 45.1451 32.3671C45.1517 32.4453 45.1567 32.4586 45.1963 32.4735C45.2558 32.4968 45.459 32.4818 45.5234 32.4486C45.6473 32.3838 45.6969 32.2142 45.6275 32.0896C45.5746 31.9965 45.5135 31.9716 45.3433 31.9732C45.269 31.9749 45.1947 31.9782 45.1798 31.9832ZM45.4458 32.038C45.5201 32.058 45.5614 32.1261 45.5614 32.2292C45.5614 32.2923 45.5532 32.3156 45.5152 32.3538C45.4639 32.4037 45.3731 32.4303 45.307 32.4137C45.2773 32.407 45.2657 32.3887 45.2574 32.3422C45.2409 32.2358 45.2459 32.063 45.2673 32.0414C45.2921 32.0164 45.3665 32.0164 45.4458 32.038Z" fill="black"/>
<path fill-rule="evenodd" clip-rule="evenodd" d="M46.1099 31.9858C46.0768 32.0057 46.0884 32.4478 46.1231 32.4694C46.1644 32.4944 46.1875 32.4545 46.1925 32.3481L46.1974 32.245L46.3379 32.2517C46.4172 32.255 46.4832 32.265 46.4899 32.2766C46.4965 32.2866 46.5031 32.3165 46.5031 32.3448C46.5031 32.4196 46.5212 32.4694 46.546 32.4694C46.5774 32.4694 46.5873 32.3863 46.5824 32.1702C46.5774 31.9924 46.5758 31.9791 46.5444 31.9791C46.5179 31.9791 46.5097 31.9941 46.5014 32.0589C46.4965 32.1038 46.4816 32.147 46.4684 32.1553C46.4568 32.1636 46.3907 32.1702 46.3263 32.1702H46.2057V32.1137C46.2057 32.0007 46.166 31.9492 46.1099 31.9858Z" fill="black"/>
<path fill-rule="evenodd" clip-rule="evenodd" d="M48.5604 31.9911C48.5423 32.0011 48.4795 32.0476 48.4217 32.0909C48.3044 32.1823 48.2878 32.179 48.273 32.0676C48.2664 32.0177 48.2548 31.9945 48.235 31.9911C48.2085 31.9862 48.2052 32.0061 48.2052 32.2172C48.2052 32.3435 48.2102 32.4532 48.2168 32.4582C48.2366 32.4781 48.2697 32.4333 48.2812 32.3718C48.2928 32.3036 48.3291 32.2371 48.3556 32.2371C48.3655 32.2371 48.4283 32.2887 48.4927 32.3535C48.6067 32.4632 48.653 32.4898 48.6761 32.4549C48.681 32.4449 48.6364 32.3834 48.577 32.3136C48.5175 32.2454 48.4696 32.1823 48.4696 32.1723C48.4696 32.164 48.5142 32.1208 48.5687 32.0792C48.6645 32.0044 48.681 31.9712 48.6216 31.9712C48.6067 31.9712 48.5786 31.9812 48.5604 31.9911Z" fill="black"/>
<path fill-rule="evenodd" clip-rule="evenodd" d="M48.9749 32.0021C48.9369 32.047 48.7833 32.3893 48.7833 32.4326C48.7833 32.5007 48.8692 32.4675 48.8956 32.3877C48.9138 32.3395 48.9171 32.3378 49.0212 32.3378C49.1087 32.3378 49.1368 32.3445 49.1632 32.3711C49.1814 32.3893 49.1963 32.4159 49.1963 32.4292C49.1963 32.4575 49.2442 32.4857 49.2756 32.4758C49.2855 32.4708 49.2954 32.4558 49.2954 32.4409C49.2954 32.3977 49.117 32.017 49.0856 31.9921C49.0459 31.9639 49.008 31.9672 48.9749 32.0021ZM49.0839 32.1733C49.1005 32.2298 49.0988 32.2431 49.079 32.2564C49.0459 32.2763 49.0261 32.2747 48.9898 32.2497C48.9617 32.2281 48.9617 32.2248 48.998 32.1583C49.0195 32.1201 49.0426 32.0935 49.0493 32.0985C49.0575 32.1035 49.0724 32.1367 49.0839 32.1733Z" fill="black"/>
<path fill-rule="evenodd" clip-rule="evenodd" d="M49.4391 31.9824C49.4325 31.9874 49.4276 32.0971 49.4276 32.2234C49.4276 32.4179 49.4309 32.4561 49.454 32.4644C49.4937 32.4794 49.5151 32.4445 49.5234 32.3447L49.53 32.2533H49.6159C49.6622 32.2533 49.7266 32.2483 49.7597 32.2434L49.8191 32.2334L49.8274 32.3447C49.839 32.4794 49.8571 32.5026 49.9067 32.4528C49.9414 32.4179 49.943 32.4046 49.9364 32.2168C49.9298 32.0456 49.9249 32.014 49.8984 31.994C49.8538 31.9608 49.8274 31.9924 49.8208 32.0838L49.8158 32.1619H49.6754H49.535L49.5267 32.0871C49.5218 32.0456 49.5118 32.0024 49.5052 31.9907C49.4904 31.9691 49.4557 31.9641 49.4391 31.9824Z" fill="black"/>
<path fill-rule="evenodd" clip-rule="evenodd" d="M50.3232 31.9907C50.3282 32.0023 50.3695 32.0156 50.4157 32.0206C50.462 32.0256 50.505 32.0356 50.5132 32.0439C50.5198 32.0505 50.5297 32.1419 50.5314 32.245C50.5363 32.3796 50.5446 32.4394 50.5595 32.4527C50.6008 32.4876 50.6123 32.4561 50.6223 32.2716C50.6338 32.0472 50.6454 32.0223 50.7329 32.0256C50.8023 32.0272 50.8255 32.0173 50.8073 31.989C50.7908 31.9608 50.315 31.9641 50.3232 31.9907Z" fill="black"/>
<path fill-rule="evenodd" clip-rule="evenodd" d="M51.6581 32.1922C51.6581 32.4765 51.663 32.4864 51.8282 32.4864C51.8943 32.4864 51.972 32.4798 52.0033 32.4698C52.1239 32.4349 52.1702 32.3369 52.1091 32.2438C52.0859 32.2072 52.0843 32.1922 52.1025 32.144C52.1256 32.0809 52.1107 32.0393 52.0513 31.9978C52.0232 31.9778 51.9703 31.9712 51.8365 31.9712H51.6581V32.1922ZM51.9472 32.0443C52.0066 32.0709 52.0232 32.1125 51.9852 32.1507C51.9653 32.1706 51.8282 32.1773 51.7836 32.1607C51.7522 32.149 51.7489 32.0693 51.777 32.041C51.8034 32.0144 51.8778 32.0161 51.9472 32.0443ZM52.0182 32.282C52.0463 32.3202 52.043 32.3435 52.0066 32.3767C51.9653 32.4133 51.8613 32.4283 51.8034 32.405C51.7654 32.39 51.7572 32.3767 51.7572 32.3285C51.7572 32.2837 51.7654 32.2654 51.7952 32.2537C51.848 32.2305 51.9918 32.2504 52.0182 32.282Z" fill="black"/>
<path fill-rule="evenodd" clip-rule="evenodd" d="M52.4626 31.9917C52.4197 32.0249 52.2313 32.4388 52.2512 32.4587C52.2759 32.4836 52.3172 32.4604 52.3536 32.3955C52.3883 32.3374 52.3899 32.3374 52.5023 32.3374C52.6113 32.3374 52.6163 32.339 52.641 32.3856C52.6741 32.4521 52.7319 32.492 52.7583 32.4687C52.7831 32.4471 52.7683 32.4005 52.6609 32.1678C52.5766 31.985 52.5287 31.9435 52.4626 31.9917ZM52.5469 32.1928C52.5535 32.2626 52.5254 32.2842 52.4692 32.2543C52.4263 32.231 52.4263 32.2194 52.4692 32.1645C52.5138 32.1063 52.5403 32.1163 52.5469 32.1928Z" fill="black"/>
</svg>
