<svg width="89" height="57" viewBox="0 0 89 57" fill="none" xmlns="http://www.w3.org/2000/svg">
<path d="M52.4456 10.3589C56.2246 12.904 59.0997 16.5782 60.6587 20.8551C62.2177 25.1319 62.3807 29.7918 61.1243 34.1668C59.8678 38.5418 57.2565 42.4073 53.6645 45.2094C50.0725 48.0115 45.6843 49.6062 41.1288 49.7651C36.5733 49.9239 32.0843 48.6387 28.3053 46.0936C24.5263 43.5485 21.6513 39.8743 20.0923 35.5974C18.5332 31.3206 18.3703 26.6607 19.6267 22.2857C20.8831 17.9107 23.4945 14.0452 27.0865 11.2431L31.7376 17.1872C29.4028 19.0085 27.7055 21.5211 26.8888 24.3649C26.0721 27.2087 26.178 30.2376 27.1914 33.0175C28.2048 35.7975 30.0735 38.1857 32.5299 39.84C34.9862 41.4943 37.904 42.3297 40.8651 42.2265C43.8262 42.1232 46.6785 41.0866 49.0133 39.2653C51.3481 37.444 53.0455 34.9313 53.8622 32.0876C54.6789 29.2438 54.5729 26.2149 53.5596 23.435C52.5462 20.655 50.6774 18.2668 48.2211 16.6125L52.4456 10.3589Z" fill="#FFE600"/>
<path d="M27.0865 11.2431C30.6784 8.44101 35.0667 6.84628 39.6222 6.68744L39.8858 14.226C36.9247 14.3293 34.0724 15.3658 31.7376 17.1872L27.0865 11.2431Z" fill="#FF9900"/>
<path d="M39.6222 6.68744C44.1777 6.5286 48.6666 7.81382 52.4456 10.3589L48.2211 16.6125C45.7647 14.9582 42.8469 14.1228 39.8858 14.226L39.6222 6.68744Z" fill="#9B001C"/>
<path d="M30.5745 10.8532L28.0325 7.58997H17.5013" stroke="black" stroke-width="0.145684"/>
<path d="M48.9418 9.92563L51.4838 6.66235H62.015" stroke="black" stroke-width="0.145684"/>
<path d="M58.7336 4.71179H58.2516L56.8099 3.09609V4.71179H56.4082V1.52502H56.8099V3.06931L58.2159 1.52502H58.6711L57.2875 3.07377L58.7336 4.71179ZM61.4614 4.71179H61.0597V1.87762H60.051C60.0302 2.04127 60.0079 2.21385 59.9841 2.39536C59.9603 2.57389 59.935 2.75093 59.9082 2.92649C59.8844 3.10204 59.8606 3.26718 59.8368 3.42191C59.813 3.57663 59.7892 3.71202 59.7654 3.82807C59.7267 4.02742 59.6791 4.19703 59.6225 4.33688C59.566 4.47673 59.4901 4.58236 59.3949 4.65377C59.3027 4.72518 59.1807 4.76089 59.0289 4.76089C58.9783 4.76089 58.9263 4.75494 58.8727 4.74303C58.8221 4.73411 58.7775 4.72221 58.7388 4.70733V4.37258C58.7715 4.38746 58.8087 4.40085 58.8504 4.41275C58.892 4.42168 58.9367 4.42614 58.9843 4.42614C59.0736 4.42614 59.1435 4.39044 59.1941 4.31902C59.2476 4.24464 59.2893 4.15388 59.319 4.04677C59.3488 3.93667 59.3741 3.82807 59.3949 3.72095C59.4128 3.63466 59.4336 3.5201 59.4574 3.37728C59.4812 3.23148 59.5065 3.06187 59.5333 2.86846C59.563 2.67505 59.5928 2.46528 59.6225 2.23914C59.6553 2.01003 59.6865 1.77199 59.7163 1.52502H61.4614V4.71179ZM66.313 3.11394C66.313 3.36091 66.2832 3.58556 66.2237 3.7879C66.1642 3.99023 66.075 4.1643 65.9559 4.3101C65.8369 4.45292 65.6896 4.56302 65.5141 4.64038C65.3415 4.71774 65.1392 4.75642 64.9071 4.75642C64.6036 4.75642 64.3477 4.69394 64.1394 4.56897C63.9341 4.444 63.7764 4.26695 63.6663 4.03784C63.5562 3.80872 63.4952 3.53795 63.4833 3.22552H62.729V4.71179H62.3273V1.52502H62.729V2.87293H63.4922C63.513 2.59025 63.5785 2.34477 63.6886 2.13649C63.7987 1.92523 63.9549 1.76306 64.1572 1.64999C64.3596 1.53395 64.6065 1.47592 64.8981 1.47592C65.2046 1.47592 65.462 1.54436 65.6703 1.68123C65.8816 1.81513 66.0407 2.00556 66.1479 2.25253C66.258 2.49652 66.313 2.78366 66.313 3.11394ZM63.9028 3.11394C63.9028 3.38174 63.9371 3.61234 64.0055 3.80575C64.0769 3.99916 64.1855 4.14793 64.3313 4.25208C64.4801 4.35622 64.6675 4.40829 64.8937 4.40829C65.1258 4.40829 65.3147 4.35622 65.4605 4.25208C65.6093 4.14793 65.7179 3.99916 65.7863 3.80575C65.8578 3.61234 65.8935 3.38174 65.8935 3.11394C65.8935 2.84615 65.8592 2.61703 65.7908 2.4266C65.7224 2.23319 65.6152 2.0859 65.4694 1.98474C65.3236 1.88059 65.1347 1.82852 64.9026 1.82852C64.6735 1.82852 64.4846 1.88059 64.3358 1.98474C64.187 2.0859 64.0769 2.23319 64.0055 2.4266C63.9371 2.61703 63.9028 2.84615 63.9028 3.11394ZM69.3469 4.71179H68.8649L67.4233 3.09609V4.71179H67.0216V1.52502H67.4233V3.06931L68.8292 1.52502H69.2845L67.9008 3.07377L69.3469 4.71179ZM70.6911 1.52502C70.9559 1.52502 71.1776 1.55031 71.3561 1.6009C71.5377 1.65148 71.673 1.73479 71.7623 1.85084C71.8545 1.96688 71.9007 2.12161 71.9007 2.31502C71.9007 2.43999 71.8769 2.55157 71.8293 2.64976C71.7846 2.74498 71.7162 2.82532 71.6239 2.89078C71.5347 2.95326 71.4246 2.99641 71.2937 3.02021V3.04253C71.4276 3.06336 71.5481 3.10204 71.6552 3.15858C71.7653 3.21511 71.8516 3.29545 71.9141 3.39959C71.9765 3.50373 72.0078 3.63912 72.0078 3.80575C72.0078 3.99916 71.9631 4.1643 71.8739 4.30117C71.7846 4.43507 71.6567 4.53772 71.49 4.60914C71.3264 4.67757 71.13 4.71179 70.9009 4.71179H69.7806V1.52502H70.6911ZM70.7715 2.88185C71.0452 2.88185 71.2327 2.83871 71.3338 2.75242C71.435 2.66315 71.4856 2.53223 71.4856 2.35965C71.4856 2.1841 71.4231 2.05912 71.2981 1.98474C71.1761 1.90737 70.9797 1.86869 70.709 1.86869H70.1823V2.88185H70.7715ZM70.1823 3.2166V4.37258H70.825C71.1077 4.37258 71.3041 4.31754 71.4142 4.20744C71.5243 4.09735 71.5793 3.95304 71.5793 3.77451C71.5793 3.66144 71.554 3.56324 71.5034 3.47993C71.4558 3.39662 71.374 3.33264 71.258 3.28801C71.1449 3.2404 70.9902 3.2166 70.7938 3.2166H70.1823ZM72.6879 1.52502H73.0629V3.27462C73.0629 3.34901 73.0614 3.43083 73.0584 3.5201C73.0584 3.60639 73.0569 3.69268 73.0539 3.77897C73.051 3.86526 73.0465 3.94262 73.0405 4.01106C73.0376 4.07652 73.0346 4.1271 73.0316 4.16281H73.0495L74.8035 1.52502H75.2499V4.71179H74.8749V2.98004C74.8749 2.89971 74.8764 2.81342 74.8794 2.72118C74.8824 2.62596 74.8854 2.53521 74.8883 2.44892C74.8943 2.35965 74.8987 2.2808 74.9017 2.21236C74.9047 2.14393 74.9077 2.09334 74.9106 2.06061H74.8928L73.1343 4.71179H72.6879V1.52502ZM77.4439 3.80575C77.3487 4.01701 77.252 4.19405 77.1538 4.33688C77.0586 4.47673 76.9455 4.58236 76.8146 4.65377C76.6837 4.72221 76.517 4.75642 76.3147 4.75642C76.2314 4.75642 76.1525 4.75047 76.0781 4.73857C76.0067 4.72667 75.9413 4.7103 75.8818 4.68948V4.29224C75.9413 4.31902 76.0052 4.34134 76.0737 4.35919C76.1421 4.37407 76.2135 4.38151 76.2879 4.38151C76.398 4.38151 76.4917 4.36663 76.5691 4.33688C76.6494 4.30415 76.7194 4.25208 76.7789 4.18066C76.8414 4.10925 76.8994 4.01403 76.9529 3.89501L75.7255 1.52502H76.1674L77.0556 3.27908C77.0675 3.29991 77.0794 3.3252 77.0913 3.35496C77.1032 3.38174 77.1151 3.41001 77.127 3.43976C77.1419 3.46952 77.1538 3.49778 77.1627 3.52456H77.1806C77.1895 3.50373 77.1984 3.47993 77.2073 3.45315C77.2193 3.4234 77.2297 3.39513 77.2386 3.36835C77.2505 3.33859 77.2609 3.3133 77.2698 3.29247L78.0375 1.52502H78.4615L77.4439 3.80575ZM80.3005 4.71179L79.2516 1.91779H79.2338C79.2397 1.9773 79.2442 2.05317 79.2472 2.14541C79.2531 2.23765 79.2576 2.33882 79.2606 2.44892C79.2635 2.55603 79.265 2.66613 79.265 2.7792V4.71179H78.8946V1.52502H79.4882L80.4701 4.13603H80.488L81.4877 1.52502H82.0769V4.71179H81.6796V2.75242C81.6796 2.64828 81.6811 2.54562 81.6841 2.44445C81.6871 2.34031 81.6915 2.24361 81.6975 2.15434C81.7035 2.0621 81.7079 1.98474 81.7109 1.92225H81.693L80.6308 4.71179H80.3005ZM56.6448 6.6009C56.6627 6.59197 56.682 6.58751 56.7028 6.58751H56.9438C56.9736 6.58751 56.9885 6.60238 56.9885 6.63214V9.66716C56.9885 9.69691 56.9736 9.71179 56.9438 9.71179H56.7162C56.6865 9.71179 56.6716 9.69691 56.6716 9.66716V6.95349C56.6716 6.94754 56.6686 6.94308 56.6627 6.9401C56.6597 6.93713 56.6552 6.93713 56.6493 6.9401L56.2029 7.10524C56.197 7.10822 56.1895 7.10971 56.1806 7.10971C56.1657 7.10971 56.1553 7.09781 56.1494 7.074L56.1271 6.90886V6.89993C56.1271 6.88506 56.1375 6.87018 56.1583 6.8553L56.6448 6.6009ZM58.4468 9.75642C58.1909 9.75642 57.9856 9.67906 57.8308 9.52433C57.6761 9.36961 57.5988 9.16281 57.5988 8.90394V7.39536C57.5988 7.13946 57.6761 6.93415 57.8308 6.77943C57.9856 6.6247 58.1909 6.54734 58.4468 6.54734C58.7056 6.54734 58.9124 6.6247 59.0672 6.77943C59.2249 6.93415 59.3037 7.13946 59.3037 7.39536V8.90394C59.3037 9.16281 59.2249 9.36961 59.0672 9.52433C58.9124 9.67906 58.7056 9.75642 58.4468 9.75642ZM58.4468 9.4797C58.6104 9.4797 58.7414 9.42912 58.8395 9.32795C58.9377 9.22678 58.9868 9.09289 58.9868 8.92626V7.3775C58.9868 7.21087 58.9377 7.07698 58.8395 6.97581C58.7414 6.87464 58.6104 6.82406 58.4468 6.82406C58.2891 6.82406 58.1611 6.87464 58.0629 6.97581C57.9647 7.07698 57.9156 7.21087 57.9156 7.3775V8.92626C57.9156 9.08991 57.9647 9.22381 58.0629 9.32795C58.1611 9.42912 58.2891 9.4797 58.4468 9.4797ZM60.5798 7.8149C60.4638 7.8149 60.3566 7.78664 60.2584 7.7301C60.1632 7.67357 60.0874 7.59769 60.0308 7.50247C59.9743 7.40428 59.946 7.29716 59.946 7.18112C59.946 7.06507 59.9743 6.95944 60.0308 6.86423C60.0874 6.76604 60.1632 6.68867 60.2584 6.63214C60.3566 6.5756 60.4638 6.54734 60.5798 6.54734C60.6929 6.54734 60.797 6.5756 60.8922 6.63214C60.9904 6.68867 61.0678 6.76604 61.1243 6.86423C61.1809 6.95944 61.2091 7.06507 61.2091 7.18112C61.2091 7.29716 61.1809 7.40428 61.1243 7.50247C61.0678 7.59769 60.9904 7.67357 60.8922 7.7301C60.797 7.78664 60.6929 7.8149 60.5798 7.8149ZM60.4771 9.71179C60.4623 9.71179 60.4504 9.70733 60.4414 9.6984C60.4355 9.6865 60.437 9.67311 60.4459 9.65823L62.1062 6.61875C62.1152 6.59792 62.133 6.58751 62.1598 6.58751H62.3026C62.3175 6.58751 62.3279 6.59346 62.3339 6.60536C62.3428 6.61429 62.3428 6.62619 62.3339 6.64106L60.6735 9.68055C60.6646 9.70138 60.6467 9.71179 60.62 9.71179H60.4771ZM60.5798 7.61852C60.6988 7.61852 60.7985 7.57686 60.8788 7.49355C60.9622 7.40726 61.0038 7.30312 61.0038 7.18112C61.0038 7.05912 60.9622 6.95647 60.8788 6.87315C60.7985 6.78686 60.6988 6.74372 60.5798 6.74372C60.4608 6.74372 60.3596 6.78686 60.2763 6.87315C60.193 6.95647 60.1513 7.05912 60.1513 7.18112C60.1513 7.30312 60.193 7.40726 60.2763 7.49355C60.3596 7.57686 60.4608 7.61852 60.5798 7.61852ZM62.2178 9.75196C62.1018 9.75196 61.9947 9.72369 61.8965 9.66716C61.8012 9.61062 61.7254 9.53326 61.6688 9.43507C61.6123 9.33688 61.584 9.22976 61.584 9.11371C61.584 9.00064 61.6123 8.8965 61.6688 8.80129C61.7254 8.70309 61.8012 8.62573 61.8965 8.5692C61.9947 8.51266 62.1018 8.48439 62.2178 8.48439C62.3309 8.48439 62.435 8.51266 62.5302 8.5692C62.6284 8.62573 62.7058 8.70309 62.7623 8.80129C62.8189 8.8965 62.8471 9.00064 62.8471 9.11371C62.8471 9.22976 62.8189 9.33688 62.7623 9.43507C62.7058 9.53326 62.6284 9.61062 62.5302 9.66716C62.435 9.72369 62.3309 9.75196 62.2178 9.75196ZM62.2178 9.55558C62.3368 9.55558 62.4365 9.51243 62.5169 9.42614C62.6002 9.33985 62.6418 9.23571 62.6418 9.11371C62.6418 8.99172 62.6002 8.88906 62.5169 8.80575C62.4365 8.72243 62.3368 8.68078 62.2178 8.68078C62.0988 8.68078 61.9976 8.72243 61.9143 8.80575C61.831 8.88906 61.7893 8.99172 61.7893 9.11371C61.7893 9.23869 61.8295 9.34432 61.9099 9.43061C61.9932 9.51392 62.0958 9.55558 62.2178 9.55558Z" fill="#404040"/>
<path d="M3.4619 4.73638C3.4619 4.98335 3.43066 5.208 3.36818 5.41033C3.30569 5.60969 3.21196 5.78227 3.08699 5.92807C2.96499 6.07387 2.81175 6.18545 2.62727 6.26282C2.44577 6.34018 2.23451 6.37886 1.99349 6.37886C1.74355 6.37886 1.52633 6.34018 1.34185 6.26282C1.15737 6.18248 1.00413 6.0709 0.882136 5.92807C0.76014 5.78227 0.669387 5.6082 0.609877 5.40587C0.550366 5.20353 0.520611 4.97888 0.520611 4.73192C0.520611 4.40461 0.574171 4.11896 0.681289 3.87497C0.788407 3.63098 0.950573 3.44054 1.16778 3.30367C1.38797 3.1668 1.6647 3.09836 1.99795 3.09836C2.31633 3.09836 2.58413 3.1668 2.80134 3.30367C3.01855 3.43757 3.18221 3.628 3.2923 3.87497C3.40537 4.11896 3.4619 4.4061 3.4619 4.73638ZM0.944622 4.73638C0.944622 5.00418 0.981816 5.23478 1.0562 5.42819C1.13059 5.62159 1.24515 5.77037 1.39987 5.87451C1.55758 5.97865 1.75545 6.03073 1.99349 6.03073C2.23451 6.03073 2.43089 5.97865 2.58264 5.87451C2.73737 5.77037 2.85192 5.62159 2.92631 5.42819C3.0007 5.23478 3.03789 5.00418 3.03789 4.73638C3.03789 4.33469 2.95458 4.02077 2.78795 3.79463C2.62132 3.56552 2.35799 3.45096 1.99795 3.45096C1.75694 3.45096 1.55758 3.50303 1.39987 3.60717C1.24515 3.70834 1.13059 3.85563 1.0562 4.04904C0.981816 4.23947 0.944622 4.46858 0.944622 4.73638ZM5.01177 3.14746C5.42834 3.14746 5.73185 3.22928 5.92228 3.39294C6.11271 3.55659 6.20793 3.78719 6.20793 4.08474C6.20793 4.21566 6.18561 4.34212 6.14098 4.46412C6.09932 4.58314 6.0294 4.69026 5.93121 4.78548C5.83301 4.88069 5.70209 4.95657 5.53844 5.0131C5.37479 5.06666 5.17394 5.09344 4.9359 5.09344H4.56991V6.33423H4.16822V3.14746H5.01177ZM4.97607 3.49113H4.56991V4.74977H4.89126C5.0936 4.74977 5.26172 4.72894 5.39561 4.68728C5.52951 4.64265 5.62919 4.57273 5.69465 4.47751C5.76011 4.38229 5.79284 4.25732 5.79284 4.1026C5.79284 3.89729 5.72738 3.74405 5.59646 3.64288C5.46554 3.54171 5.25874 3.49113 4.97607 3.49113ZM8.64784 6.33423L8.264 5.34785H7.00089L6.62151 6.33423H6.21536L7.46061 3.13407H7.82213L9.06292 6.33423H8.64784ZM7.78643 4.02672C7.7775 4.00292 7.76262 3.95977 7.74179 3.89729C7.72096 3.8348 7.70014 3.77083 7.67931 3.70536C7.66145 3.63693 7.64658 3.58486 7.63467 3.54915C7.6198 3.60866 7.60343 3.66966 7.58558 3.73214C7.5707 3.79165 7.55434 3.8467 7.53648 3.89729C7.52161 3.94787 7.50822 3.99101 7.49631 4.02672L7.13479 4.99079H8.14349L7.78643 4.02672ZM11.9358 6.33423H11.5341V4.84796H9.90055V6.33423H9.49885V3.14746H9.90055V4.49536H11.5341V3.14746H11.9358V6.33423ZM13.6596 4.69621L12.4232 3.14746H12.8696L14.088 4.69175V3.14746H14.4719V4.69175L15.6903 3.14746H16.1367L14.9003 4.69175L16.1768 6.33423H15.7171L14.4719 4.71853V6.33423H14.088V4.71853L12.8383 6.33423H12.3786L13.6596 4.69621ZM16.621 3.14746H16.9959V4.89706C16.9959 4.97144 16.9944 5.05327 16.9915 5.14254C16.9915 5.22883 16.99 5.31512 16.987 5.40141C16.984 5.4877 16.9796 5.56506 16.9736 5.6335C16.9706 5.69896 16.9677 5.74954 16.9647 5.78525H16.9825L18.7366 3.14746H19.1829V6.33423H18.808V4.60248C18.808 4.52214 18.8095 4.43585 18.8125 4.34361C18.8154 4.2484 18.8184 4.15764 18.8214 4.07135C18.8273 3.98209 18.8318 3.90324 18.8348 3.8348C18.8378 3.76636 18.8407 3.71578 18.8437 3.68305H18.8259L17.0673 6.33423H16.621V3.14746ZM22.4794 6.33423H22.0777V4.84796H20.4441V6.33423H20.0425V3.14746H20.4441V4.49536H22.0777V3.14746H22.4794V6.33423ZM25.3502 6.33423L24.9664 5.34785H23.7033L23.3239 6.33423H22.9177L24.163 3.13407H24.5245L25.7653 6.33423H25.3502ZM24.4888 4.02672C24.4799 4.00292 24.465 3.95977 24.4442 3.89729C24.4233 3.8348 24.4025 3.77083 24.3817 3.70536C24.3638 3.63693 24.349 3.58486 24.3371 3.54915C24.3222 3.60866 24.3058 3.66966 24.288 3.73214C24.2731 3.79165 24.2567 3.8467 24.2389 3.89729C24.224 3.94787 24.2106 3.99101 24.1987 4.02672L23.8372 4.99079H24.8459L24.4888 4.02672ZM27.3313 3.22333C27.3492 3.21441 27.3685 3.20994 27.3893 3.20994H27.6304C27.6601 3.20994 27.675 3.22482 27.675 3.25457V6.2896C27.675 6.31935 27.6601 6.33423 27.6304 6.33423H27.4027C27.373 6.33423 27.3581 6.31935 27.3581 6.2896V3.57593C27.3581 3.56998 27.3551 3.56552 27.3492 3.56254C27.3462 3.55956 27.3417 3.55956 27.3358 3.56254L26.8894 3.72768C26.8835 3.73066 26.8761 3.73214 26.8671 3.73214C26.8523 3.73214 26.8418 3.72024 26.8359 3.69644L26.8136 3.5313V3.52237C26.8136 3.50749 26.824 3.49262 26.8448 3.47774L27.3313 3.22333ZM29.1333 6.37886C28.8774 6.37886 28.6721 6.3015 28.5174 6.14677C28.3626 5.99204 28.2853 5.78525 28.2853 5.52638V4.01779C28.2853 3.7619 28.3626 3.55659 28.5174 3.40186C28.6721 3.24714 28.8774 3.16977 29.1333 3.16977C29.3922 3.16977 29.599 3.24714 29.7537 3.40186C29.9114 3.55659 29.9902 3.7619 29.9902 4.01779V5.52638C29.9902 5.78525 29.9114 5.99204 29.7537 6.14677C29.599 6.3015 29.3922 6.37886 29.1333 6.37886ZM29.1333 6.10214C29.2969 6.10214 29.4279 6.05155 29.5261 5.95039C29.6242 5.84922 29.6733 5.71532 29.6733 5.54869V3.99994C29.6733 3.83331 29.6242 3.69941 29.5261 3.59825C29.4279 3.49708 29.2969 3.4465 29.1333 3.4465C28.9756 3.4465 28.8476 3.49708 28.7494 3.59825C28.6513 3.69941 28.6022 3.83331 28.6022 3.99994V5.54869C28.6022 5.71235 28.6513 5.84624 28.7494 5.95039C28.8476 6.05155 28.9756 6.10214 29.1333 6.10214ZM31.2663 4.43734C31.1503 4.43734 31.0431 4.40907 30.945 4.35254C30.8497 4.296 30.7739 4.22013 30.7173 4.12491C30.6608 4.02672 30.6325 3.9196 30.6325 3.80356C30.6325 3.68751 30.6608 3.58188 30.7173 3.48666C30.7739 3.38847 30.8497 3.31111 30.945 3.25457C31.0431 3.19804 31.1503 3.16977 31.2663 3.16977C31.3794 3.16977 31.4835 3.19804 31.5787 3.25457C31.6769 3.31111 31.7543 3.38847 31.8108 3.48666C31.8674 3.58188 31.8956 3.68751 31.8956 3.80356C31.8956 3.9196 31.8674 4.02672 31.8108 4.12491C31.7543 4.22013 31.6769 4.296 31.5787 4.35254C31.4835 4.40907 31.3794 4.43734 31.2663 4.43734ZM31.1637 6.33423C31.1488 6.33423 31.1369 6.32977 31.1279 6.32084C31.122 6.30894 31.1235 6.29555 31.1324 6.28067L32.7927 3.24118C32.8017 3.22036 32.8195 3.20994 32.8463 3.20994H32.9891C33.004 3.20994 33.0144 3.21589 33.0204 3.22779C33.0293 3.23672 33.0293 3.24862 33.0204 3.2635L31.36 6.30299C31.3511 6.32381 31.3333 6.33423 31.3065 6.33423H31.1637ZM31.2663 4.24096C31.3853 4.24096 31.485 4.1993 31.5653 4.11599C31.6487 4.0297 31.6903 3.92555 31.6903 3.80356C31.6903 3.68156 31.6487 3.57891 31.5653 3.49559C31.485 3.4093 31.3853 3.36616 31.2663 3.36616C31.1473 3.36616 31.0461 3.4093 30.9628 3.49559C30.8795 3.57891 30.8378 3.68156 30.8378 3.80356C30.8378 3.92555 30.8795 4.0297 30.9628 4.11599C31.0461 4.1993 31.1473 4.24096 31.2663 4.24096ZM32.9043 6.3744C32.7883 6.3744 32.6812 6.34613 32.583 6.2896C32.4878 6.23306 32.4119 6.1557 32.3553 6.05751C32.2988 5.95931 32.2705 5.8522 32.2705 5.73615C32.2705 5.62308 32.2988 5.51894 32.3553 5.42372C32.4119 5.32553 32.4878 5.24817 32.583 5.19163C32.6812 5.1351 32.7883 5.10683 32.9043 5.10683C33.0174 5.10683 33.1215 5.1351 33.2168 5.19163C33.3149 5.24817 33.3923 5.32553 33.4488 5.42372C33.5054 5.51894 33.5336 5.62308 33.5336 5.73615C33.5336 5.8522 33.5054 5.95931 33.4488 6.05751C33.3923 6.1557 33.3149 6.23306 33.2168 6.2896C33.1215 6.34613 33.0174 6.3744 32.9043 6.3744ZM32.9043 6.17801C33.0233 6.17801 33.123 6.13487 33.2034 6.04858C33.2867 5.96229 33.3283 5.85815 33.3283 5.73615C33.3283 5.61415 33.2867 5.5115 33.2034 5.42819C33.123 5.34487 33.0233 5.30321 32.9043 5.30321C32.7853 5.30321 32.6841 5.34487 32.6008 5.42819C32.5175 5.5115 32.4759 5.61415 32.4759 5.73615C32.4759 5.86112 32.516 5.96675 32.5964 6.05304C32.6797 6.13636 32.7823 6.17801 32.9043 6.17801Z" fill="#404040"/>
<path d="M53.8112 44.5469L56.3532 47.8102H66.8843" stroke="black" stroke-width="0.145684"/>
<path d="M58.6339 43.4922C58.4852 43.4922 58.3498 43.51 58.2278 43.5457C58.1058 43.5785 57.9957 43.6171 57.8975 43.6618L57.7323 43.327C57.8543 43.2675 57.9942 43.2214 58.1519 43.1887C58.3096 43.1559 58.4718 43.1396 58.6384 43.1396C58.8943 43.1396 59.116 43.1797 59.3034 43.2601C59.4939 43.3374 59.6516 43.4475 59.7765 43.5904C59.9015 43.7332 59.9937 43.9013 60.0532 44.0947C60.1157 44.2851 60.147 44.4949 60.147 44.724C60.147 45.0722 60.0904 45.3727 59.9774 45.6256C59.8643 45.8785 59.6932 46.0734 59.4641 46.2103C59.238 46.3472 58.9523 46.4156 58.6071 46.4156C58.4227 46.4156 58.2665 46.4052 58.1385 46.3844C58.0106 46.3635 57.8841 46.3308 57.7591 46.2862V45.938C57.8841 45.9708 58.0106 46.0005 58.1385 46.0273C58.2665 46.0511 58.4018 46.063 58.5447 46.063C58.7381 46.063 58.9062 46.0377 59.049 45.9871C59.1948 45.9336 59.3168 45.8577 59.415 45.7595C59.5132 45.6583 59.5876 45.5349 59.6382 45.3891C59.6887 45.2403 59.717 45.0707 59.723 44.8802H58.1742V44.5276H59.7185C59.7036 44.364 59.6679 44.2182 59.6114 44.0902C59.5548 43.9623 59.479 43.8537 59.3838 43.7644C59.2915 43.6752 59.1814 43.6082 59.0535 43.5636C58.9285 43.516 58.7887 43.4922 58.6339 43.4922ZM63.2927 46.371H62.891V44.8847H61.2575V46.371H60.8558V43.1842H61.2575V44.5321H62.891V43.1842H63.2927V46.371ZM65.9449 46.371H64.164V43.1842H65.9449V43.5368H64.5657V44.5321H65.8645V44.8802H64.5657V46.0184H65.9449V46.371ZM67.4877 43.1842C67.9042 43.1842 68.2077 43.266 68.3982 43.4297C68.5886 43.5933 68.6838 43.8239 68.6838 44.1215C68.6838 44.2524 68.6615 44.3789 68.6169 44.5009C68.5752 44.6199 68.5053 44.727 68.4071 44.8222C68.3089 44.9174 68.178 44.9933 68.0143 45.0498C67.8507 45.1034 67.6498 45.1302 67.4118 45.1302H67.0458V46.371H66.6441V43.1842H67.4877ZM67.4519 43.5279H67.0458V44.7865H67.3671C67.5695 44.7865 67.7376 44.7657 67.8715 44.724C68.0054 44.6794 68.1051 44.6095 68.1705 44.5143C68.236 44.419 68.2687 44.2941 68.2687 44.1393C68.2687 43.934 68.2033 43.7808 68.0723 43.6796C67.9414 43.5785 67.7346 43.5279 67.4519 43.5279ZM71.1452 43.1842V43.5413H69.7482V46.371H69.3465V43.1842H71.1452ZM73.4679 46.371H71.6871V43.1842H73.4679V43.5368H72.0888V44.5321H73.3876V44.8802H72.0888V46.0184H73.4679V46.371ZM75.1758 46.371H74.7741V43.5368H73.7788V43.1842H76.1667V43.5368H75.1758V46.371ZM76.6517 43.1842H77.0266V44.9338C77.0266 45.0082 77.0251 45.09 77.0221 45.1793C77.0221 45.2656 77.0206 45.3519 77.0177 45.4381C77.0147 45.5244 77.0102 45.6018 77.0043 45.6702C77.0013 45.7357 76.9983 45.7863 76.9954 45.822H77.0132L78.7673 43.1842H79.2136V46.371H78.8387V44.6392C78.8387 44.5589 78.8402 44.4726 78.8431 44.3804C78.8461 44.2851 78.8491 44.1944 78.8521 44.1081C78.858 44.0188 78.8625 43.94 78.8655 43.8715C78.8684 43.8031 78.8714 43.7525 78.8744 43.7198H78.8565L77.098 46.371H76.6517V43.1842ZM82.3985 46.371H81.9165L80.4748 44.7553V46.371H80.0731V43.1842H80.4748V44.7285L81.8807 43.1842H82.336L80.9524 44.733L82.3985 46.371ZM59.3614 50.0231C59.421 50.157 59.4507 50.3147 59.4507 50.4962C59.4507 50.6836 59.418 50.8428 59.3525 50.9737C59.293 51.1106 59.2023 51.2177 59.0803 51.2951C58.9583 51.3695 58.8154 51.4067 58.6518 51.4067C58.4881 51.4067 58.3438 51.368 58.2188 51.2906C58.0968 51.2133 58.0046 51.1047 57.9421 50.9648C57.8796 50.8309 57.8484 50.6747 57.8484 50.4962C57.8484 50.3236 57.8767 50.1689 57.9332 50.032C57.9897 49.8951 58.0879 49.791 58.2278 49.7196C58.2426 49.7136 58.2426 49.7062 58.2278 49.6972C58.1266 49.6407 58.0463 49.5619 57.9868 49.4607C57.9064 49.3298 57.8662 49.181 57.8662 49.0144C57.8662 48.8418 57.9049 48.6915 57.9823 48.5636C58.0448 48.4505 58.134 48.3627 58.2501 48.3002C58.3691 48.2348 58.503 48.2021 58.6518 48.2021C58.8035 48.2021 58.9359 48.2333 59.049 48.2958C59.1621 48.3553 59.2513 48.4431 59.3168 48.5591C59.3942 48.6871 59.4329 48.8388 59.4329 49.0144C59.4329 49.181 59.3942 49.3298 59.3168 49.4607C59.2632 49.5529 59.1829 49.6303 59.0758 49.6928C59.0609 49.7017 59.0609 49.7091 59.0758 49.7151C59.2067 49.7835 59.3019 49.8862 59.3614 50.0231ZM58.2501 48.7332C58.2055 48.8165 58.1831 48.9147 58.1831 49.0278C58.1831 49.1498 58.2099 49.2598 58.2635 49.358C58.3022 49.4295 58.3542 49.4845 58.4197 49.5232C58.4852 49.5619 58.561 49.5812 58.6473 49.5812C58.7366 49.5812 58.8154 49.5604 58.8839 49.5187C58.9523 49.4771 59.0059 49.419 59.0445 49.3446C59.0922 49.2584 59.116 49.1512 59.116 49.0233C59.116 48.9043 59.0936 48.8046 59.049 48.7243C59.0103 48.6469 58.9568 48.5874 58.8883 48.5457C58.8199 48.5011 58.7396 48.4788 58.6473 48.4788C58.5551 48.4788 58.4747 48.5011 58.4063 48.5457C58.3379 48.5904 58.2858 48.6528 58.2501 48.7332ZM59.0624 50.8488C59.11 50.7446 59.1338 50.6211 59.1338 50.4783C59.1338 50.3355 59.113 50.2135 59.0713 50.1123C59.0356 50.0231 58.9806 49.9546 58.9062 49.907C58.8348 49.8564 58.7485 49.8311 58.6473 49.8311C58.448 49.8311 58.3081 49.9249 58.2278 50.1123C58.1861 50.2135 58.1653 50.3355 58.1653 50.4783C58.1653 50.6271 58.1891 50.7506 58.2367 50.8488C58.2724 50.938 58.326 51.008 58.3974 51.0585C58.4688 51.1062 58.5536 51.13 58.6518 51.13C58.8452 51.13 58.9821 51.0362 59.0624 50.8488ZM60.824 51.4156C60.5681 51.4156 60.3628 51.3382 60.208 51.1835C60.0533 51.0288 59.9759 50.822 59.9759 50.5631V49.0545C59.9759 48.7986 60.0533 48.5933 60.208 48.4386C60.3628 48.2839 60.5681 48.2065 60.824 48.2065C61.0828 48.2065 61.2896 48.2839 61.4444 48.4386C61.6021 48.5933 61.6809 48.7986 61.6809 49.0545V50.5631C61.6809 50.822 61.6021 51.0288 61.4444 51.1835C61.2896 51.3382 61.0828 51.4156 60.824 51.4156ZM60.824 51.1389C60.9876 51.1389 61.1185 51.0883 61.2167 50.9871C61.3149 50.886 61.364 50.7521 61.364 50.5854V49.0367C61.364 48.8701 61.3149 48.7362 61.2167 48.635C61.1185 48.5338 60.9876 48.4832 60.824 48.4832C60.6663 48.4832 60.5383 48.5338 60.4401 48.635C60.3419 48.7362 60.2928 48.8701 60.2928 49.0367V50.5854C60.2928 50.7491 60.3419 50.883 60.4401 50.9871C60.5383 51.0883 60.6663 51.1389 60.824 51.1389ZM62.957 49.4741C62.8409 49.4741 62.7338 49.4458 62.6356 49.3893C62.5404 49.3327 62.4645 49.2569 62.408 49.1617C62.3515 49.0635 62.3232 48.9563 62.3232 48.8403C62.3232 48.7243 62.3515 48.6186 62.408 48.5234C62.4645 48.4252 62.5404 48.3479 62.6356 48.2913C62.7338 48.2348 62.8409 48.2065 62.957 48.2065C63.0701 48.2065 63.1742 48.2348 63.2694 48.2913C63.3676 48.3479 63.445 48.4252 63.5015 48.5234C63.558 48.6186 63.5863 48.7243 63.5863 48.8403C63.5863 48.9563 63.558 49.0635 63.5015 49.1617C63.445 49.2569 63.3676 49.3327 63.2694 49.3893C63.1742 49.4458 63.0701 49.4741 62.957 49.4741ZM62.8543 51.371C62.8395 51.371 62.8275 51.3665 62.8186 51.3576C62.8127 51.3457 62.8142 51.3323 62.8231 51.3174L64.4834 48.2779C64.4923 48.2571 64.5102 48.2467 64.537 48.2467H64.6798C64.6947 48.2467 64.7051 48.2526 64.711 48.2645C64.72 48.2735 64.72 48.2854 64.711 48.3002L63.0507 51.3397C63.0418 51.3606 63.0239 51.371 62.9972 51.371H62.8543ZM62.957 49.2777C63.076 49.2777 63.1757 49.236 63.256 49.1527C63.3393 49.0664 63.381 48.9623 63.381 48.8403C63.381 48.7183 63.3393 48.6156 63.256 48.5323C63.1757 48.446 63.076 48.4029 62.957 48.4029C62.838 48.4029 62.7368 48.446 62.6535 48.5323C62.5702 48.6156 62.5285 48.7183 62.5285 48.8403C62.5285 48.9623 62.5702 49.0664 62.6535 49.1527C62.7368 49.236 62.838 49.2777 62.957 49.2777ZM64.595 51.4111C64.479 51.4111 64.3718 51.3829 64.2736 51.3263C64.1784 51.2698 64.1026 51.1924 64.046 51.0942C63.9895 50.9961 63.9612 50.8889 63.9612 50.7729C63.9612 50.6598 63.9895 50.5557 64.046 50.4605C64.1026 50.3623 64.1784 50.2849 64.2736 50.2284C64.3718 50.1718 64.479 50.1436 64.595 50.1436C64.7081 50.1436 64.8122 50.1718 64.9074 50.2284C65.0056 50.2849 65.083 50.3623 65.1395 50.4605C65.1961 50.5557 65.2243 50.6598 65.2243 50.7729C65.2243 50.8889 65.1961 50.9961 65.1395 51.0942C65.083 51.1924 65.0056 51.2698 64.9074 51.3263C64.8122 51.3829 64.7081 51.4111 64.595 51.4111ZM64.595 51.2148C64.714 51.2148 64.8137 51.1716 64.894 51.0853C64.9774 50.999 65.019 50.8949 65.019 50.7729C65.019 50.6509 64.9774 50.5482 64.894 50.4649C64.8137 50.3816 64.714 50.34 64.595 50.34C64.476 50.34 64.3748 50.3816 64.2915 50.4649C64.2082 50.5482 64.1665 50.6509 64.1665 50.7729C64.1665 50.8979 64.2067 51.0035 64.287 51.0898C64.3704 51.1731 64.473 51.2148 64.595 51.2148Z" fill="#404040"/>
<path fill-rule="evenodd" clip-rule="evenodd" d="M43.2748 26.3816C43.1859 26.5693 43.097 26.6319 42.8926 26.6319C42.6348 26.6319 42.626 26.6319 42.7859 26.8108C42.9193 26.9628 42.9282 27.0254 42.8393 27.2221L42.7326 27.4635L42.9637 27.3115C43.1681 27.1774 43.2037 27.1774 43.4081 27.3115C43.6303 27.4546 43.6303 27.4546 43.577 27.1953C43.5325 26.9807 43.5681 26.9181 43.7725 26.8108L44.0125 26.6766L43.7636 26.6319C43.5859 26.5962 43.4881 26.5157 43.4437 26.3637L43.3903 26.1401L43.2748 26.3816Z" fill="black"/>
<path fill-rule="evenodd" clip-rule="evenodd" d="M41.4082 26.48C41.4082 26.5336 40.7861 30.0745 40.7505 30.2265C40.715 30.3696 40.7861 30.3875 41.2216 30.3875H41.7282L42.0304 28.6617C42.1904 27.7228 42.3415 26.8376 42.3681 26.6946C42.4037 26.4531 42.4037 26.4531 41.906 26.4531C41.6304 26.4531 41.4082 26.4621 41.4082 26.48Z" fill="black"/>
<path fill-rule="evenodd" clip-rule="evenodd" d="M31.3642 26.7389C30.9109 26.9714 30.6532 27.3917 30.6532 27.8924C30.6532 28.3484 30.9198 28.6435 31.5509 28.876C32.1641 29.0995 32.2619 29.2068 32.0219 29.3767C31.8175 29.5287 31.4798 29.4572 31.2398 29.2247C31.0709 29.0638 31.062 29.0638 30.6354 29.2784C30.4043 29.3946 30.2088 29.5377 30.2088 29.5824C30.2088 29.6271 30.3332 29.8059 30.4843 29.9758C31.1331 30.718 32.6885 30.566 33.0885 29.7165C33.444 28.9743 33.1507 28.42 32.2352 28.0623C31.6931 27.8477 31.5775 27.651 31.933 27.5616C32.1641 27.5079 32.5197 27.651 32.5197 27.803C32.5197 27.8477 32.7241 27.7851 32.9641 27.6599C33.2129 27.5347 33.4085 27.3827 33.4085 27.3201C33.4085 27.186 33.0085 26.7926 32.7241 26.6406C32.413 26.4796 31.7908 26.5243 31.3642 26.7389Z" fill="black"/>
<path fill-rule="evenodd" clip-rule="evenodd" d="M34.4485 27.0969C34.1907 27.1685 34.084 27.2579 34.0129 27.4457C33.9596 27.6066 33.8618 27.705 33.7552 27.705C33.5863 27.705 33.5241 27.857 33.4797 28.3756C33.4619 28.5813 33.4885 28.6439 33.6041 28.6349C33.7374 28.626 33.7552 28.6975 33.7019 29.3055C33.6574 29.9493 33.6663 29.9941 33.8796 30.1997C34.0574 30.3607 34.2085 30.4054 34.564 30.4054C34.8129 30.4054 35.0262 30.3964 35.044 30.3785C35.0617 30.3607 35.1062 30.155 35.1328 29.9136C35.195 29.5112 35.1862 29.4933 34.9817 29.4933C34.724 29.4933 34.6618 29.3771 34.7151 28.9747C34.7595 28.7333 34.7951 28.6886 35.0173 28.6886C35.3106 28.6886 35.3461 28.6439 35.4439 28.1163L35.515 27.705H35.2573C34.9995 27.705 34.9906 27.696 35.0262 27.3473C35.0617 26.9539 35.0351 26.9449 34.4485 27.0969Z" fill="black"/>
<path fill-rule="evenodd" clip-rule="evenodd" d="M36.2883 27.7859C35.524 28.2509 35.2218 29.3686 35.6751 30.066C35.9417 30.4684 36.4928 30.5846 36.9638 30.3432C37.1149 30.2627 37.2305 30.2449 37.2305 30.2985C37.2305 30.3522 37.4438 30.3879 37.7193 30.3879C37.9859 30.3879 38.2081 30.3611 38.2081 30.3164C38.2081 30.2806 38.3059 29.6905 38.4303 29.0109C38.5548 28.3224 38.6525 27.7501 38.6525 27.7322C38.6525 27.6518 37.6837 27.7233 37.6571 27.8038C37.6393 27.8574 37.5327 27.8485 37.3638 27.7591C37.0083 27.5713 36.6261 27.5802 36.2883 27.7859ZM37.2393 28.5996C37.346 28.6622 37.4082 28.7874 37.4082 28.9394C37.4082 29.449 36.9283 29.7262 36.6083 29.4043C36.395 29.1897 36.4305 28.9125 36.715 28.6622C36.9194 28.4833 36.9994 28.4744 37.2393 28.5996Z" fill="black"/>
<path fill-rule="evenodd" clip-rule="evenodd" d="M40.4038 27.7856C40.1461 27.9197 40.075 27.9287 40.075 27.8303C40.075 27.7409 39.9417 27.7051 39.5861 27.7051C39.1506 27.7051 39.0973 27.732 39.0529 27.9019C38.9729 28.3042 38.6529 30.1641 38.6529 30.2714C38.6529 30.3519 38.804 30.3877 39.1328 30.3877H39.6128L39.7195 29.8064C39.8439 29.1358 40.0572 28.8139 40.4305 28.7334C40.5727 28.6977 40.7149 28.644 40.7327 28.6172C40.8127 28.4741 40.8838 27.6157 40.8127 27.6157C40.7682 27.6157 40.5905 27.6962 40.4038 27.7856Z" fill="black"/>
<path fill-rule="evenodd" clip-rule="evenodd" d="M45.3011 27.7412C45.1589 27.8127 45.0523 27.8306 45.0523 27.7859C45.0523 27.7323 44.8389 27.7054 44.5456 27.7233L44.039 27.7502L43.8346 28.9126C43.5591 30.4953 43.5413 30.388 44.1012 30.388H44.5723L44.7234 29.619C44.8834 28.7695 44.99 28.5817 45.2656 28.6175C45.4255 28.6443 45.4522 28.7069 45.4522 29.0467C45.4522 29.2702 45.4167 29.6637 45.3722 29.914L45.3011 30.388H45.79H46.2788L46.3766 29.8246C46.4299 29.5206 46.501 29.0199 46.5365 28.7159C46.5899 28.1883 46.581 28.1525 46.3143 27.8932C46.0122 27.5803 45.6922 27.5356 45.3011 27.7412Z" fill="black"/>
<path fill-rule="evenodd" clip-rule="evenodd" d="M47.7634 27.7407C47.1768 28.0089 46.8035 28.5812 46.7946 29.2429C46.7857 29.7347 46.999 30.0834 47.4612 30.3248C47.8256 30.5215 48.67 30.4858 49.0166 30.2533L49.2477 30.1013L48.9633 29.8062C48.7055 29.5469 48.6611 29.5201 48.43 29.6095C48.2345 29.681 48.1189 29.681 47.9234 29.5737C47.6923 29.4575 47.7278 29.4485 48.5811 29.4217L49.4877 29.3949L49.5499 29.0909C49.5766 28.921 49.5766 28.6438 49.5499 28.4828C49.4255 27.7943 48.5011 27.4098 47.7634 27.7407ZM48.59 28.5275C48.7766 28.7153 48.7055 28.7779 48.2967 28.7779C47.8789 28.7779 47.7812 28.6706 48.0567 28.5186C48.2611 28.3934 48.4567 28.3934 48.59 28.5275Z" fill="black"/>
<path fill-rule="evenodd" clip-rule="evenodd" d="M42.6081 27.8123C42.5459 28.009 42.2082 30.0119 42.2082 30.2086C42.2082 30.3696 42.2615 30.3875 42.6792 30.3875H43.1592L43.3547 29.1982C43.4614 28.5544 43.5769 27.9464 43.5947 27.857C43.6391 27.7228 43.5769 27.705 43.1414 27.705C42.8214 27.705 42.6348 27.7407 42.6081 27.8123Z" fill="black"/>
</svg>
