<svg width="95" height="57" viewBox="0 0 95 57" fill="none" xmlns="http://www.w3.org/2000/svg">
<path d="M36.2233 45.993C32.4443 43.4479 29.5692 39.7737 28.0102 35.4968C26.4512 31.22 26.2882 26.5601 27.5446 22.1851L34.8067 24.2643C33.99 27.108 34.096 30.137 35.1093 32.9169C36.1227 35.6969 37.9915 38.0851 40.4478 39.7394L36.2233 45.993Z" fill="#E30088"/>
<path d="M47.5401 6.58682C52.0956 6.42799 56.5846 7.7132 60.3636 10.2583C64.1426 12.8033 67.0176 16.4776 68.5766 20.7544C70.1357 25.0313 70.2986 29.6911 69.0422 34.0661C67.7858 38.4412 65.1744 42.3067 61.5824 45.1088L56.9313 39.1647C59.2661 37.3433 60.9634 34.8307 61.7801 31.987C62.5968 29.1432 62.4909 26.1143 61.4775 23.3344C60.4641 20.5544 58.5954 18.1661 56.139 16.5118C53.6827 14.8576 50.7649 14.0222 47.8038 14.1254L47.5401 6.58682Z" fill="#007419"/>
<path d="M27.5446 22.1853C28.801 17.8103 31.4123 13.9447 35.0042 11.1426C38.5962 8.34049 42.9844 6.74571 47.5399 6.58683L47.8036 14.1254C44.8426 14.2287 41.9902 15.2653 39.6555 17.0867C37.3207 18.908 35.6233 21.4206 34.8067 24.2644L27.5446 22.1853Z" fill="#FF862E"/>
<path d="M61.5824 45.1093C57.9904 47.9113 53.6022 49.5061 49.0467 49.6649C44.4912 49.8238 40.0023 48.5385 36.2233 45.9935L40.4478 39.7399C42.9042 41.3942 45.822 42.2296 48.7831 42.1263C51.7441 42.0231 54.5965 40.9865 56.9313 39.1652L61.5824 45.1093Z" fill="#FFE600"/>
<path d="M35.7872 12.3755L33.2452 9.1122H22.7141" stroke="black" stroke-width="0.145684"/>
<path d="M31.6073 37.9535L29.0653 41.2168H18.5342" stroke="black" stroke-width="0.145684"/>
<path d="M1.95207 39.778C1.92827 39.778 1.9119 39.7661 1.90298 39.7423L1.34953 38.3632C1.34656 38.3543 1.3406 38.3498 1.33168 38.3498H0.755916C0.744014 38.3498 0.738063 38.3558 0.738063 38.3677V39.7334C0.738063 39.7632 0.723186 39.778 0.693431 39.778H0.465804C0.436049 39.778 0.421171 39.7632 0.421171 39.7334V36.6984C0.421171 36.6686 0.436049 36.6538 0.465804 36.6538H1.41202C1.56674 36.6538 1.70362 36.6895 1.82264 36.7609C1.94463 36.8323 2.03836 36.9335 2.10382 37.0644C2.17226 37.1953 2.20648 37.3456 2.20648 37.5152C2.20648 37.7175 2.15738 37.8901 2.05919 38.0329C1.961 38.1757 1.8271 38.2709 1.6575 38.3186C1.64559 38.3245 1.64262 38.3319 1.64857 38.3409L2.22433 39.7245L2.22879 39.7423C2.22879 39.7661 2.2154 39.778 2.18862 39.778H1.95207ZM0.755916 36.9305C0.744014 36.9305 0.738063 36.9364 0.738063 36.9483V38.0775C0.738063 38.0894 0.744014 38.0954 0.755916 38.0954H1.37185C1.52657 38.0954 1.65155 38.0418 1.74676 37.9347C1.84198 37.8276 1.88959 37.6877 1.88959 37.5152C1.88959 37.3396 1.84198 37.1983 1.74676 37.0912C1.65155 36.984 1.52657 36.9305 1.37185 36.9305H0.755916ZM3.66293 39.8138C3.48143 39.8138 3.32075 39.7751 3.1809 39.6977C3.04403 39.6203 2.93691 39.5117 2.85954 39.3719C2.78516 39.232 2.74796 39.0699 2.74796 38.8854V36.6984C2.74796 36.6686 2.76284 36.6538 2.7926 36.6538H3.02022C3.04998 36.6538 3.06485 36.6686 3.06485 36.6984V38.9032C3.06485 39.0937 3.1199 39.2469 3.23 39.363C3.34009 39.479 3.4844 39.537 3.66293 39.537C3.84146 39.537 3.98578 39.479 4.09587 39.363C4.20596 39.2469 4.26101 39.0937 4.26101 38.9032V36.6984C4.26101 36.6686 4.27589 36.6538 4.30564 36.6538H4.53327C4.56302 36.6538 4.5779 36.6686 4.5779 36.6984V38.8854C4.5779 39.0699 4.53922 39.232 4.46186 39.3719C4.38747 39.5117 4.28035 39.6203 4.1405 39.6977C4.00363 39.7751 3.84444 39.8138 3.66293 39.8138ZM6.03973 39.8138C5.76003 39.8138 5.53687 39.7409 5.37024 39.5951C5.20658 39.4463 5.12476 39.2484 5.12476 39.0014V38.8809C5.12476 38.8512 5.13963 38.8363 5.16939 38.8363H5.38809C5.41784 38.8363 5.43272 38.8512 5.43272 38.8809V38.9836C5.43272 39.1502 5.48926 39.2841 5.60233 39.3853C5.7154 39.4864 5.86566 39.537 6.05312 39.537C6.22867 39.537 6.36703 39.4894 6.4682 39.3942C6.56937 39.299 6.61995 39.174 6.61995 39.0193C6.61995 38.9181 6.59615 38.8303 6.54854 38.756C6.50093 38.6816 6.43101 38.6131 6.33877 38.5506C6.24652 38.4882 6.11411 38.4093 5.94153 38.3141C5.75705 38.2159 5.61125 38.1296 5.50413 38.0552C5.39999 37.9808 5.31519 37.8901 5.24973 37.783C5.18427 37.6758 5.15154 37.5449 5.15154 37.3902C5.15154 37.1492 5.2289 36.9602 5.38363 36.8234C5.53835 36.6865 5.74515 36.6181 6.00402 36.6181C6.28074 36.6181 6.50093 36.6939 6.66458 36.8457C6.82824 36.9974 6.91006 37.1983 6.91006 37.4482V37.5509C6.91006 37.5806 6.89519 37.5955 6.86543 37.5955H6.64227C6.61251 37.5955 6.59763 37.5806 6.59763 37.5509V37.4527C6.59763 37.2861 6.54408 37.1522 6.43696 37.051C6.32984 36.9468 6.18255 36.8948 5.99509 36.8948C5.82847 36.8948 5.69754 36.9379 5.60233 37.0242C5.51009 37.1105 5.46397 37.2325 5.46397 37.3902C5.46397 37.4914 5.48628 37.5762 5.53091 37.6446C5.57555 37.713 5.63952 37.7755 5.72283 37.8321C5.80912 37.8886 5.94005 37.9645 6.1156 38.0597C6.31794 38.1728 6.47266 38.2695 6.57978 38.3498C6.68988 38.4272 6.77617 38.5179 6.83865 38.6221C6.90411 38.7232 6.93684 38.8482 6.93684 38.997C6.93684 39.2469 6.8565 39.4463 6.69583 39.5951C6.53515 39.7409 6.31645 39.8138 6.03973 39.8138ZM8.27136 39.8138C7.99166 39.8138 7.7685 39.7409 7.60187 39.5951C7.43822 39.4463 7.35639 39.2484 7.35639 39.0014V38.8809C7.35639 38.8512 7.37127 38.8363 7.40102 38.8363H7.61972C7.64948 38.8363 7.66436 38.8512 7.66436 38.8809V38.9836C7.66436 39.1502 7.72089 39.2841 7.83396 39.3853C7.94703 39.4864 8.09729 39.537 8.28475 39.537C8.4603 39.537 8.59867 39.4894 8.69983 39.3942C8.801 39.299 8.85158 39.174 8.85158 39.0193C8.85158 38.9181 8.82778 38.8303 8.78017 38.756C8.73256 38.6816 8.66264 38.6131 8.5704 38.5506C8.47816 38.4882 8.34575 38.4093 8.17317 38.3141C7.98869 38.2159 7.84289 38.1296 7.73577 38.0552C7.63162 37.9808 7.54682 37.8901 7.48136 37.783C7.4159 37.6758 7.38317 37.5449 7.38317 37.3902C7.38317 37.1492 7.46053 36.9602 7.61526 36.8234C7.76999 36.6865 7.97678 36.6181 8.23565 36.6181C8.51238 36.6181 8.73256 36.6939 8.89622 36.8457C9.05987 36.9974 9.1417 37.1983 9.1417 37.4482V37.5509C9.1417 37.5806 9.12682 37.5955 9.09706 37.5955H8.8739C8.84415 37.5955 8.82927 37.5806 8.82927 37.5509V37.4527C8.82927 37.2861 8.77571 37.1522 8.66859 37.051C8.56147 36.9468 8.41418 36.8948 8.22673 36.8948C8.0601 36.8948 7.92918 36.9379 7.83396 37.0242C7.74172 37.1105 7.6956 37.2325 7.6956 37.3902C7.6956 37.4914 7.71791 37.5762 7.76255 37.6446C7.80718 37.713 7.87115 37.7755 7.95447 37.8321C8.04076 37.8886 8.17168 37.9645 8.34724 38.0597C8.54957 38.1728 8.7043 38.2695 8.81141 38.3498C8.92151 38.4272 9.0078 38.5179 9.07028 38.6221C9.13575 38.7232 9.16848 38.8482 9.16848 38.997C9.16848 39.2469 9.08814 39.4463 8.92746 39.5951C8.76678 39.7409 8.54808 39.8138 8.27136 39.8138ZM9.79333 39.778C9.76358 39.778 9.7487 39.7632 9.7487 39.7334V36.6984C9.7487 36.6686 9.76358 36.6538 9.79333 36.6538H10.021C10.0507 36.6538 10.0656 36.6686 10.0656 36.6984V39.7334C10.0656 39.7632 10.0507 39.778 10.021 39.778H9.79333ZM12.3209 39.778C12.2941 39.778 12.2778 39.7647 12.2718 39.7379L12.1245 39.18C12.1215 39.171 12.1141 39.1666 12.1022 39.1666H11.0355C11.0236 39.1666 11.0161 39.171 11.0132 39.18L10.8659 39.7379C10.8599 39.7647 10.8436 39.778 10.8168 39.778H10.5847C10.5698 39.778 10.5579 39.7736 10.549 39.7647C10.543 39.7557 10.5415 39.7438 10.5445 39.7289L11.3792 36.6939C11.3851 36.6671 11.4015 36.6538 11.4282 36.6538H11.7139C11.7407 36.6538 11.757 36.6671 11.763 36.6939L12.5976 39.7289L12.6021 39.7423C12.6021 39.7661 12.5872 39.778 12.5575 39.778H12.3209ZM11.089 38.8899C11.0861 38.8928 11.0861 38.8973 11.089 38.9032C11.095 38.9062 11.1009 38.9077 11.1069 38.9077H12.0308C12.0367 38.9077 12.0412 38.9062 12.0442 38.9032C12.0501 38.8973 12.0516 38.8928 12.0486 38.8899L11.5755 37.0956C11.5726 37.0897 11.5696 37.0867 11.5666 37.0867C11.5636 37.0867 11.5607 37.0897 11.5577 37.0956L11.089 38.8899ZM14.6276 36.6984C14.6276 36.6686 14.6425 36.6538 14.6722 36.6538H14.8998C14.9296 36.6538 14.9445 36.6686 14.9445 36.6984V39.7334C14.9445 39.7632 14.9296 39.778 14.8998 39.778H14.6588C14.632 39.778 14.6142 39.7676 14.6053 39.7468L13.4091 37.359C13.4032 37.353 13.3972 37.35 13.3912 37.35C13.3883 37.35 13.3868 37.3545 13.3868 37.3634L13.3912 39.7334C13.3912 39.7632 13.3764 39.778 13.3466 39.778H13.119C13.0892 39.778 13.0744 39.7632 13.0744 39.7334V36.6984C13.0744 36.6686 13.0892 36.6538 13.119 36.6538H13.36C13.3868 36.6538 13.4046 36.6642 13.4136 36.685L14.6097 39.0818C14.6157 39.0877 14.6201 39.0907 14.6231 39.0907C14.6291 39.0907 14.632 39.0862 14.632 39.0773L14.6276 36.6984ZM1.95207 44.778C1.92827 44.778 1.9119 44.7661 1.90298 44.7423L1.34953 43.3632C1.34656 43.3543 1.3406 43.3498 1.33168 43.3498H0.755916C0.744014 43.3498 0.738063 43.3558 0.738063 43.3677V44.7334C0.738063 44.7632 0.723186 44.778 0.693431 44.778H0.465804C0.436049 44.778 0.421171 44.7632 0.421171 44.7334V41.6984C0.421171 41.6686 0.436049 41.6538 0.465804 41.6538H1.41202C1.56674 41.6538 1.70362 41.6895 1.82264 41.7609C1.94463 41.8323 2.03836 41.9335 2.10382 42.0644C2.17226 42.1953 2.20648 42.3456 2.20648 42.5152C2.20648 42.7175 2.15738 42.8901 2.05919 43.0329C1.961 43.1757 1.8271 43.2709 1.6575 43.3186C1.64559 43.3245 1.64262 43.3319 1.64857 43.3409L2.22433 44.7245L2.22879 44.7423C2.22879 44.7661 2.2154 44.778 2.18862 44.778H1.95207ZM0.755916 41.9305C0.744014 41.9305 0.738063 41.9364 0.738063 41.9483V43.0775C0.738063 43.0894 0.744014 43.0954 0.755916 43.0954H1.37185C1.52657 43.0954 1.65155 43.0418 1.74676 42.9347C1.84198 42.8276 1.88959 42.6877 1.88959 42.5152C1.88959 42.3396 1.84198 42.1983 1.74676 42.0912C1.65155 41.984 1.52657 41.9305 1.37185 41.9305H0.755916ZM4.40558 44.778C4.3788 44.778 4.36243 44.7647 4.35648 44.7379L4.20919 44.18C4.20622 44.171 4.19878 44.1666 4.18688 44.1666H3.12016C3.10826 44.1666 3.10082 44.171 3.09784 44.18L2.95055 44.7379C2.9446 44.7647 2.92824 44.778 2.90146 44.778H2.66937C2.65449 44.778 2.64259 44.7736 2.63366 44.7647C2.62771 44.7557 2.62622 44.7438 2.6292 44.7289L3.46383 41.6939C3.46978 41.6671 3.48615 41.6538 3.51292 41.6538H3.79857C3.82535 41.6538 3.84172 41.6671 3.84767 41.6939L4.6823 44.7289L4.68676 44.7423C4.68676 44.7661 4.67189 44.778 4.64213 44.778H4.40558ZM3.17372 43.8899C3.17074 43.8928 3.17074 43.8973 3.17372 43.9032C3.17967 43.9062 3.18562 43.9077 3.19157 43.9077H4.11547C4.12142 43.9077 4.12588 43.9062 4.12886 43.9032C4.13481 43.8973 4.13629 43.8928 4.13332 43.8899L3.66021 42.0956C3.65724 42.0897 3.65426 42.0867 3.65129 42.0867C3.64831 42.0867 3.64534 42.0897 3.64236 42.0956L3.17372 43.8899ZM5.78692 44.8138C5.50723 44.8138 5.28406 44.7409 5.11743 44.5951C4.95378 44.4463 4.87195 44.2484 4.87195 44.0014V43.8809C4.87195 43.8512 4.88683 43.8363 4.91659 43.8363H5.13529C5.16504 43.8363 5.17992 43.8512 5.17992 43.8809V43.9836C5.17992 44.1502 5.23645 44.2841 5.34952 44.3853C5.46259 44.4864 5.61286 44.537 5.80031 44.537C5.97587 44.537 6.11423 44.4894 6.2154 44.3942C6.31657 44.299 6.36715 44.174 6.36715 44.0193C6.36715 43.9181 6.34334 43.8303 6.29574 43.756C6.24813 43.6816 6.1782 43.6131 6.08596 43.5506C5.99372 43.4882 5.86131 43.4093 5.68873 43.3141C5.50425 43.2159 5.35845 43.1296 5.25133 43.0552C5.14719 42.9808 5.06239 42.8901 4.99693 42.783C4.93146 42.6758 4.89873 42.5449 4.89873 42.3902C4.89873 42.1492 4.9761 41.9602 5.13082 41.8234C5.28555 41.6865 5.49235 41.6181 5.75122 41.6181C6.02794 41.6181 6.24813 41.6939 6.41178 41.8457C6.57543 41.9974 6.65726 42.1983 6.65726 42.4482V42.5509C6.65726 42.5806 6.64238 42.5955 6.61263 42.5955H6.38947C6.35971 42.5955 6.34483 42.5806 6.34483 42.5509V42.4527C6.34483 42.2861 6.29127 42.1522 6.18415 42.051C6.07704 41.9468 5.92975 41.8948 5.74229 41.8948C5.57566 41.8948 5.44474 41.9379 5.34952 42.0242C5.25728 42.1105 5.21116 42.2325 5.21116 42.3902C5.21116 42.4914 5.23348 42.5762 5.27811 42.6446C5.32274 42.713 5.38672 42.7755 5.47003 42.8321C5.55632 42.8886 5.68724 42.9645 5.8628 43.0597C6.06513 43.1728 6.21986 43.2695 6.32698 43.3498C6.43707 43.4272 6.52336 43.5179 6.58585 43.6221C6.65131 43.7232 6.68404 43.8482 6.68404 43.997C6.68404 44.2469 6.6037 44.4463 6.44302 44.5951C6.28235 44.7409 6.06365 44.8138 5.78692 44.8138ZM8.22875 41.6493C8.46679 41.6493 8.65871 41.7296 8.80451 41.8903C8.95329 42.048 9.02767 42.2578 9.02767 42.5196C9.02767 42.7785 8.95329 42.9868 8.80451 43.1445C8.65871 43.2992 8.46679 43.3766 8.22875 43.3766H7.56372C7.55182 43.3766 7.54587 43.3825 7.54587 43.3944V44.7334C7.54587 44.7632 7.53099 44.778 7.50124 44.778H7.27361C7.24386 44.778 7.22898 44.7632 7.22898 44.7334V41.6939C7.22898 41.6642 7.24386 41.6493 7.27361 41.6493H8.22875ZM8.18858 43.1132C8.34628 43.1132 8.47274 43.0597 8.56796 42.9526C8.66317 42.8455 8.71078 42.7026 8.71078 42.5241C8.71078 42.3426 8.66317 42.1983 8.56796 42.0912C8.47274 41.9811 8.34628 41.926 8.18858 41.926H7.56372C7.55182 41.926 7.54587 41.932 7.54587 41.9439V43.0954C7.54587 43.1073 7.55182 43.1132 7.56372 43.1132H8.18858ZM10.9049 43.149C10.8901 43.1549 10.8901 43.1623 10.9049 43.1713C11.0448 43.2397 11.1519 43.3379 11.2263 43.4658C11.3036 43.5938 11.3438 43.7485 11.3468 43.93C11.3468 44.1978 11.2665 44.4061 11.1058 44.5549C10.9481 44.7037 10.7383 44.778 10.4765 44.778H9.59719C9.56744 44.778 9.55256 44.7632 9.55256 44.7334V41.6984C9.55256 41.6686 9.56744 41.6538 9.59719 41.6538H10.4408C10.7145 41.6538 10.9287 41.7252 11.0835 41.868C11.2382 42.0078 11.3156 42.2087 11.3156 42.4705C11.3156 42.6372 11.2798 42.777 11.2084 42.8901C11.14 43.0032 11.0388 43.0894 10.9049 43.149ZM9.88731 41.9305C9.8754 41.9305 9.86945 41.9364 9.86945 41.9483V43.024C9.86945 43.0359 9.8754 43.0418 9.88731 43.0418H10.4452C10.6178 43.0418 10.7532 42.9927 10.8514 42.8945C10.9525 42.7964 11.0031 42.6639 11.0031 42.4973C11.0031 42.3218 10.9525 42.1834 10.8514 42.0822C10.7532 41.9811 10.6178 41.9305 10.4452 41.9305H9.88731ZM10.4675 44.4969C10.6401 44.4969 10.777 44.4433 10.8782 44.3362C10.9793 44.2291 11.0299 44.0833 11.0299 43.8988C11.0299 43.7113 10.9778 43.564 10.8737 43.4569C10.7725 43.3498 10.6342 43.2962 10.4586 43.2962H9.88731C9.8754 43.2962 9.86945 43.3022 9.86945 43.3141V44.479C9.86945 44.4909 9.8754 44.4969 9.88731 44.4969H10.4675ZM13.6551 41.8858C13.6551 41.9156 13.6402 41.9305 13.6105 41.9305H12.2715C12.2596 41.9305 12.2536 41.9364 12.2536 41.9483V43.0552C12.2536 43.0671 12.2596 43.0731 12.2715 43.0731H13.1731C13.2028 43.0731 13.2177 43.088 13.2177 43.1177V43.3052C13.2177 43.3349 13.2028 43.3498 13.1731 43.3498H12.2715C12.2596 43.3498 12.2536 43.3558 12.2536 43.3677V44.4835C12.2536 44.4954 12.2596 44.5013 12.2715 44.5013H13.6105C13.6402 44.5013 13.6551 44.5162 13.6551 44.546V44.7334C13.6551 44.7632 13.6402 44.778 13.6105 44.778H11.9814C11.9516 44.778 11.9367 44.7632 11.9367 44.7334V41.6984C11.9367 41.6686 11.9516 41.6538 11.9814 41.6538H13.6105C13.6402 41.6538 13.6551 41.6686 13.6551 41.6984V41.8858ZM15.7734 44.778C15.7496 44.778 15.7332 44.7661 15.7243 44.7423L15.1708 43.3632C15.1679 43.3543 15.1619 43.3498 15.153 43.3498H14.5772C14.5653 43.3498 14.5594 43.3558 14.5594 43.3677V44.7334C14.5594 44.7632 14.5445 44.778 14.5147 44.778H14.2871C14.2574 44.778 14.2425 44.7632 14.2425 44.7334V41.6984C14.2425 41.6686 14.2574 41.6538 14.2871 41.6538H15.2333C15.388 41.6538 15.5249 41.6895 15.6439 41.7609C15.7659 41.8323 15.8597 41.9335 15.9251 42.0644C15.9936 42.1953 16.0278 42.3456 16.0278 42.5152C16.0278 42.7175 15.9787 42.8901 15.8805 43.0329C15.7823 43.1757 15.6484 43.2709 15.4788 43.3186C15.4669 43.3245 15.4639 43.3319 15.4699 43.3409L16.0456 44.7245L16.0501 44.7423C16.0501 44.7661 16.0367 44.778 16.0099 44.778H15.7734ZM14.5772 41.9305C14.5653 41.9305 14.5594 41.9364 14.5594 41.9483V43.0775C14.5594 43.0894 14.5653 43.0954 14.5772 43.0954H15.1932C15.3479 43.0954 15.4729 43.0418 15.5681 42.9347C15.6633 42.8276 15.7109 42.6877 15.7109 42.5152C15.7109 42.3396 15.6633 42.1983 15.5681 42.0912C15.4729 41.984 15.3479 41.9305 15.1932 41.9305H14.5772ZM18.1314 44.778C18.1076 44.778 18.0912 44.7661 18.0823 44.7423L17.5289 43.3632C17.5259 43.3543 17.5199 43.3498 17.511 43.3498H16.9353C16.9234 43.3498 16.9174 43.3558 16.9174 43.3677V44.7334C16.9174 44.7632 16.9025 44.778 16.8728 44.778H16.6451C16.6154 44.778 16.6005 44.7632 16.6005 44.7334V41.6984C16.6005 41.6686 16.6154 41.6538 16.6451 41.6538H17.5914C17.7461 41.6538 17.883 41.6895 18.002 41.7609C18.124 41.8323 18.2177 41.9335 18.2832 42.0644C18.3516 42.1953 18.3858 42.3456 18.3858 42.5152C18.3858 42.7175 18.3367 42.8901 18.2385 43.0329C18.1403 43.1757 18.0064 43.2709 17.8368 43.3186C17.8249 43.3245 17.822 43.3319 17.8279 43.3409L18.4037 44.7245L18.4081 44.7423C18.4081 44.7661 18.3947 44.778 18.368 44.778H18.1314ZM16.9353 41.9305C16.9234 41.9305 16.9174 41.9364 16.9174 41.9483V43.0775C16.9174 43.0894 16.9234 43.0954 16.9353 43.0954H17.5512C17.7059 43.0954 17.8309 43.0418 17.9261 42.9347C18.0213 42.8276 18.0689 42.6877 18.0689 42.5152C18.0689 42.3396 18.0213 42.1983 17.9261 42.0912C17.8309 41.984 17.7059 41.9305 17.5512 41.9305H16.9353ZM19.5266 44.7736C19.4969 44.7736 19.482 44.7587 19.482 44.7289V43.3989C19.482 43.387 19.4805 43.3796 19.4775 43.3766L18.7054 41.7073L18.7009 41.6895C18.7009 41.6657 18.7143 41.6538 18.7411 41.6538H18.9821C19.0059 41.6538 19.0223 41.6657 19.0312 41.6895L19.6293 43.024C19.6323 43.0299 19.6367 43.0329 19.6427 43.0329C19.6486 43.0329 19.6531 43.0299 19.6561 43.024L20.2541 41.6895C20.2631 41.6657 20.2794 41.6538 20.3032 41.6538H20.5443C20.5591 41.6538 20.5696 41.6597 20.5755 41.6716C20.5844 41.6805 20.5859 41.6924 20.58 41.7073L19.8034 43.3766C19.8004 43.3796 19.7989 43.387 19.7989 43.3989V44.7289C19.7989 44.7587 19.784 44.7736 19.7543 44.7736H19.5266ZM22.2639 44.479C22.255 44.4939 22.258 44.5013 22.2728 44.5013H23.5002C23.53 44.5013 23.5449 44.5162 23.5449 44.546V44.7334C23.5449 44.7632 23.53 44.778 23.5002 44.778H21.9113C21.8816 44.778 21.8667 44.7632 21.8667 44.7334V44.537C21.8667 44.5192 21.8726 44.4998 21.8845 44.479C22.1523 44.116 22.4514 43.6994 22.7816 43.2293C23.0167 42.8871 23.1342 42.6134 23.1342 42.4081C23.1342 42.2533 23.0896 42.1298 23.0003 42.0376C22.9111 41.9424 22.7935 41.8948 22.6477 41.8948C22.5049 41.8948 22.3904 41.9424 22.3041 42.0376C22.2178 42.1298 22.1761 42.2533 22.1791 42.4081V42.5598C22.1791 42.5896 22.1642 42.6044 22.1345 42.6044H21.9024C21.8726 42.6044 21.8578 42.5896 21.8578 42.5598V42.3813C21.8637 42.1522 21.9396 41.9677 22.0854 41.8278C22.2342 41.688 22.4246 41.6181 22.6567 41.6181C22.8947 41.6181 23.0866 41.691 23.2324 41.8368C23.3782 41.9826 23.4511 42.173 23.4511 42.4081C23.4511 42.6699 23.3291 42.9793 23.0851 43.3364C22.9334 43.5566 22.6939 43.8899 22.3666 44.3362L22.2639 44.479ZM24.856 44.8227C24.6001 44.8227 24.3947 44.7453 24.24 44.5906C24.0853 44.4359 24.0079 44.2291 24.0079 43.9702V42.4616C24.0079 42.2057 24.0853 42.0004 24.24 41.8457C24.3947 41.691 24.6001 41.6136 24.856 41.6136C25.1148 41.6136 25.3216 41.691 25.4763 41.8457C25.634 42.0004 25.7129 42.2057 25.7129 42.4616V43.9702C25.7129 44.2291 25.634 44.4359 25.4763 44.5906C25.3216 44.7453 25.1148 44.8227 24.856 44.8227ZM24.856 44.546C25.0196 44.546 25.1505 44.4954 25.2487 44.3942C25.3469 44.293 25.396 44.1591 25.396 43.9925V42.4438C25.396 42.2771 25.3469 42.1432 25.2487 42.0421C25.1505 41.9409 25.0196 41.8903 24.856 41.8903C24.6982 41.8903 24.5703 41.9409 24.4721 42.0421C24.3739 42.1432 24.3248 42.2771 24.3248 42.4438V43.9925C24.3248 44.1562 24.3739 44.2901 24.4721 44.3942C24.5703 44.4954 24.6982 44.546 24.856 44.546ZM26.989 42.8812C26.8729 42.8812 26.7658 42.8529 26.6676 42.7964C26.5724 42.7398 26.4965 42.6639 26.44 42.5687C26.3835 42.4705 26.3552 42.3634 26.3552 42.2474C26.3552 42.1313 26.3835 42.0257 26.44 41.9305C26.4965 41.8323 26.5724 41.7549 26.6676 41.6984C26.7658 41.6419 26.8729 41.6136 26.989 41.6136C27.102 41.6136 27.2062 41.6419 27.3014 41.6984C27.3996 41.7549 27.477 41.8323 27.5335 41.9305C27.59 42.0257 27.6183 42.1313 27.6183 42.2474C27.6183 42.3634 27.59 42.4705 27.5335 42.5687C27.477 42.6639 27.3996 42.7398 27.3014 42.7964C27.2062 42.8529 27.102 42.8812 26.989 42.8812ZM26.8863 44.778C26.8714 44.778 26.8595 44.7736 26.8506 44.7647C26.8447 44.7528 26.8461 44.7394 26.8551 44.7245L28.5154 41.685C28.5243 41.6642 28.5422 41.6538 28.569 41.6538H28.7118C28.7267 41.6538 28.7371 41.6597 28.743 41.6716C28.752 41.6805 28.752 41.6924 28.743 41.7073L27.0827 44.7468C27.0738 44.7676 27.0559 44.778 27.0291 44.778H26.8863ZM26.989 42.6848C27.108 42.6848 27.2077 42.6431 27.288 42.5598C27.3713 42.4735 27.413 42.3694 27.413 42.2474C27.413 42.1254 27.3713 42.0227 27.288 41.9394C27.2077 41.8531 27.108 41.81 26.989 41.81C26.87 41.81 26.7688 41.8531 26.6855 41.9394C26.6022 42.0227 26.5605 42.1254 26.5605 42.2474C26.5605 42.3694 26.6022 42.4735 26.6855 42.5598C26.7688 42.6431 26.87 42.6848 26.989 42.6848ZM28.627 44.8182C28.5109 44.8182 28.4038 44.7899 28.3056 44.7334C28.2104 44.6769 28.1345 44.5995 28.078 44.5013C28.0215 44.4031 27.9932 44.296 27.9932 44.18C27.9932 44.0669 28.0215 43.9628 28.078 43.8675C28.1345 43.7693 28.2104 43.692 28.3056 43.6354C28.4038 43.5789 28.5109 43.5506 28.627 43.5506C28.7401 43.5506 28.8442 43.5789 28.9394 43.6354C29.0376 43.692 29.115 43.7693 29.1715 43.8675C29.228 43.9628 29.2563 44.0669 29.2563 44.18C29.2563 44.296 29.228 44.4031 29.1715 44.5013C29.115 44.5995 29.0376 44.6769 28.9394 44.7334C28.8442 44.7899 28.7401 44.8182 28.627 44.8182ZM28.627 44.6218C28.746 44.6218 28.8457 44.5787 28.926 44.4924C29.0093 44.4061 29.051 44.302 29.051 44.18C29.051 44.058 29.0093 43.9553 28.926 43.872C28.8457 43.7887 28.746 43.747 28.627 43.747C28.508 43.747 28.4068 43.7887 28.3235 43.872C28.2402 43.9553 28.1985 44.058 28.1985 44.18C28.1985 44.3049 28.2387 44.4106 28.319 44.4969C28.4023 44.5802 28.505 44.6218 28.627 44.6218Z" fill="#404040"/>
<path d="M59.0239 46.5984L61.5659 49.8617H72.097" stroke="black" stroke-width="0.145684"/>
<path d="M67.3462 45.3552C67.3462 45.3255 67.3611 45.3106 67.3909 45.3106H67.6185C67.6483 45.3106 67.6631 45.3255 67.6631 45.3552V48.3902C67.6631 48.42 67.6483 48.4349 67.6185 48.4349H67.3909C67.3611 48.4349 67.3462 48.42 67.3462 48.3902V47.0245C67.3462 47.0126 67.3403 47.0066 67.3284 47.0066H66.2215C66.2096 47.0066 66.2036 47.0126 66.2036 47.0245V48.3902C66.2036 48.42 66.1888 48.4349 66.159 48.4349H65.9314C65.9016 48.4349 65.8867 48.42 65.8867 48.3902V45.3552C65.8867 45.3255 65.9016 45.3106 65.9314 45.3106H66.159C66.1888 45.3106 66.2036 45.3255 66.2036 45.3552V46.712C66.2036 46.7239 66.2096 46.7299 66.2215 46.7299H67.3284C67.3403 46.7299 67.3462 46.7239 67.3462 46.712V45.3552ZM69.2319 48.4706C69.0504 48.4706 68.8897 48.4334 68.7498 48.359C68.613 48.2816 68.5058 48.1745 68.4285 48.0376C68.3541 47.9008 68.3169 47.7431 68.3169 47.5645V46.1854C68.3169 46.0069 68.3541 45.8491 68.4285 45.7123C68.5058 45.5724 68.613 45.4653 68.7498 45.3909C68.8897 45.3136 69.0504 45.2749 69.2319 45.2749C69.4134 45.2749 69.5726 45.3136 69.7094 45.3909C69.8493 45.4653 69.9579 45.5724 70.0352 45.7123C70.1126 45.8491 70.1513 46.0069 70.1513 46.1854V47.5645C70.1513 47.7431 70.1126 47.9008 70.0352 48.0376C69.9579 48.1745 69.8493 48.2816 69.7094 48.359C69.5726 48.4334 69.4134 48.4706 69.2319 48.4706ZM69.2319 48.1939C69.4134 48.1939 69.5592 48.1373 69.6693 48.0242C69.7794 47.9112 69.8344 47.7624 69.8344 47.5779V46.1765C69.8344 45.989 69.7794 45.8387 69.6693 45.7257C69.5592 45.6096 69.4134 45.5516 69.2319 45.5516C69.0533 45.5516 68.909 45.6096 68.7989 45.7257C68.6888 45.8387 68.6338 45.989 68.6338 46.1765V47.5779C68.6338 47.7624 68.6888 47.9112 68.7989 48.0242C68.909 48.1373 69.0533 48.1939 69.2319 48.1939ZM72.3609 45.3552C72.3609 45.3255 72.3758 45.3106 72.4055 45.3106H72.6331C72.6629 45.3106 72.6778 45.3255 72.6778 45.3552V48.3902C72.6778 48.42 72.6629 48.4349 72.6331 48.4349H72.3921C72.3654 48.4349 72.3475 48.4245 72.3386 48.4036L71.1424 46.0158C71.1365 46.0098 71.1305 46.0069 71.1246 46.0069C71.1216 46.0069 71.1201 46.0113 71.1201 46.0202L71.1246 48.3902C71.1246 48.42 71.1097 48.4349 71.0799 48.4349H70.8523C70.8226 48.4349 70.8077 48.42 70.8077 48.3902V45.3552C70.8077 45.3255 70.8226 45.3106 70.8523 45.3106H71.0933C71.1201 45.3106 71.138 45.321 71.1469 45.3418L72.343 47.7386C72.349 47.7445 72.3535 47.7475 72.3564 47.7475C72.3624 47.7475 72.3654 47.7431 72.3654 47.7341L72.3609 45.3552ZM75.1064 45.5427C75.1064 45.5724 75.0915 45.5873 75.0617 45.5873H73.7227C73.7108 45.5873 73.7049 45.5933 73.7049 45.6052V46.712C73.7049 46.7239 73.7108 46.7299 73.7227 46.7299H74.6243C74.6541 46.7299 74.669 46.7448 74.669 46.7745V46.962C74.669 46.9917 74.6541 47.0066 74.6243 47.0066H73.7227C73.7108 47.0066 73.7049 47.0126 73.7049 47.0245V48.1403C73.7049 48.1522 73.7108 48.1581 73.7227 48.1581H75.0617C75.0915 48.1581 75.1064 48.173 75.1064 48.2028V48.3902C75.1064 48.42 75.0915 48.4349 75.0617 48.4349H73.4326C73.4029 48.4349 73.388 48.42 73.388 48.3902V45.3552C73.388 45.3255 73.4029 45.3106 73.4326 45.3106H75.0617C75.0915 45.3106 75.1064 45.3255 75.1064 45.3552V45.5427ZM76.3141 48.4304C76.2844 48.4304 76.2695 48.4155 76.2695 48.3858V47.0557C76.2695 47.0438 76.268 47.0364 76.265 47.0334L75.4929 45.3641L75.4884 45.3463C75.4884 45.3225 75.5018 45.3106 75.5286 45.3106H75.7696C75.7934 45.3106 75.8098 45.3225 75.8187 45.3463L76.4168 46.6808C76.4198 46.6868 76.4242 46.6897 76.4302 46.6897C76.4361 46.6897 76.4406 46.6868 76.4436 46.6808L77.0416 45.3463C77.0506 45.3225 77.0669 45.3106 77.0907 45.3106H77.3317C77.3466 45.3106 77.357 45.3165 77.363 45.3284C77.3719 45.3374 77.3734 45.3493 77.3675 45.3641L76.5908 47.0334C76.5879 47.0364 76.5864 47.0438 76.5864 47.0557V48.3858C76.5864 48.4155 76.5715 48.4304 76.5418 48.4304H76.3141ZM78.6462 48.4706C78.3755 48.4706 78.1568 48.3902 77.9901 48.2296C77.8265 48.0689 77.7447 47.8561 77.7447 47.5913V46.1497C77.7447 45.8849 77.8265 45.6736 77.9901 45.5159C78.1568 45.3552 78.3755 45.2749 78.6462 45.2749C78.92 45.2749 79.1387 45.3537 79.3023 45.5114C79.469 45.6691 79.5523 45.8789 79.5523 46.1407V46.1809C79.5523 46.2107 79.5374 46.2256 79.5077 46.2256L79.28 46.2345C79.2503 46.2345 79.2354 46.2211 79.2354 46.1943V46.1318C79.2354 45.9592 79.1804 45.8194 79.0703 45.7123C78.9631 45.6052 78.8218 45.5516 78.6462 45.5516C78.4707 45.5516 78.3294 45.6052 78.2222 45.7123C78.1151 45.8164 78.0616 45.9563 78.0616 46.1318V47.6136C78.0616 47.7892 78.1151 47.9305 78.2222 48.0376C78.3294 48.1418 78.4707 48.1939 78.6462 48.1939C78.8218 48.1939 78.9631 48.1403 79.0703 48.0332C79.1804 47.9261 79.2354 47.7862 79.2354 47.6136V47.5511C79.2354 47.5244 79.2503 47.511 79.28 47.511L79.5077 47.5244C79.5374 47.5244 79.5523 47.5392 79.5523 47.569V47.6002C79.5523 47.8621 79.469 48.0733 79.3023 48.234C79.1387 48.3917 78.92 48.4706 78.6462 48.4706ZM81.009 48.4706C80.8275 48.4706 80.6668 48.4334 80.5269 48.359C80.3901 48.2816 80.2829 48.1745 80.2056 48.0376C80.1312 47.9008 80.094 47.7431 80.094 47.5645V46.1854C80.094 46.0069 80.1312 45.8491 80.2056 45.7123C80.2829 45.5724 80.3901 45.4653 80.5269 45.3909C80.6668 45.3136 80.8275 45.2749 81.009 45.2749C81.1905 45.2749 81.3497 45.3136 81.4865 45.3909C81.6264 45.4653 81.735 45.5724 81.8123 45.7123C81.8897 45.8491 81.9284 46.0069 81.9284 46.1854V47.5645C81.9284 47.7431 81.8897 47.9008 81.8123 48.0376C81.735 48.1745 81.6264 48.2816 81.4865 48.359C81.3497 48.4334 81.1905 48.4706 81.009 48.4706ZM81.009 48.1939C81.1905 48.1939 81.3363 48.1373 81.4464 48.0242C81.5565 47.9112 81.6115 47.7624 81.6115 47.5779V46.1765C81.6115 45.989 81.5565 45.8387 81.4464 45.7257C81.3363 45.6096 81.1905 45.5516 81.009 45.5516C80.8304 45.5516 80.6861 45.6096 80.576 45.7257C80.4659 45.8387 80.4109 45.989 80.4109 46.1765V47.5779C80.4109 47.7624 80.4659 47.9112 80.576 48.0242C80.6861 48.1373 80.8304 48.1939 81.009 48.1939ZM84.2763 45.3418C84.2912 45.321 84.3091 45.3106 84.3299 45.3106H84.562C84.5918 45.3106 84.6066 45.3255 84.6066 45.3552V48.3902C84.6066 48.42 84.5918 48.4349 84.562 48.4349H84.3344C84.3046 48.4349 84.2897 48.42 84.2897 48.3902V45.9622C84.2897 45.9533 84.2868 45.9473 84.2808 45.9444C84.2749 45.9414 84.2704 45.9444 84.2674 45.9533L83.6738 46.9843C83.6589 47.0051 83.6411 47.0155 83.6202 47.0155H83.5712C83.5503 47.0155 83.5325 47.0051 83.5176 46.9843L82.9195 45.9578C82.9165 45.9488 82.9121 45.9459 82.9061 45.9488C82.9002 45.9518 82.8972 45.9578 82.8972 45.9667V48.3902C82.8972 48.42 82.8823 48.4349 82.8526 48.4349H82.6249C82.5952 48.4349 82.5803 48.42 82.5803 48.3902V45.3552C82.5803 45.3255 82.5952 45.3106 82.6249 45.3106H82.857C82.8779 45.3106 82.8957 45.321 82.9106 45.3418L83.5845 46.4889C83.5875 46.4919 83.592 46.4933 83.5979 46.4933C83.6039 46.4933 83.6083 46.4919 83.6113 46.4889L84.2763 45.3418ZM86.6962 46.8058C86.6813 46.8117 86.6813 46.8192 86.6962 46.8281C86.836 46.8965 86.9431 46.9947 87.0175 47.1227C87.0949 47.2506 87.1351 47.4053 87.138 47.5868C87.138 47.8546 87.0577 48.0629 86.897 48.2117C86.7393 48.3605 86.5295 48.4349 86.2677 48.4349H85.3884C85.3587 48.4349 85.3438 48.42 85.3438 48.3902V45.3552C85.3438 45.3255 85.3587 45.3106 85.3884 45.3106H86.232C86.5057 45.3106 86.72 45.382 86.8747 45.5248C87.0294 45.6647 87.1068 45.8655 87.1068 46.1274C87.1068 46.294 87.0711 46.4338 86.9997 46.5469C86.9312 46.66 86.8301 46.7463 86.6962 46.8058ZM85.6785 45.5873C85.6666 45.5873 85.6607 45.5933 85.6607 45.6052V46.6808C85.6607 46.6927 85.6666 46.6987 85.6785 46.6987H86.2365C86.409 46.6987 86.5444 46.6496 86.6426 46.5514C86.7438 46.4532 86.7944 46.3208 86.7944 46.1541C86.7944 45.9786 86.7438 45.8402 86.6426 45.7391C86.5444 45.6379 86.409 45.5873 86.2365 45.5873H85.6785ZM86.2588 48.1537C86.4313 48.1537 86.5682 48.1001 86.6694 47.993C86.7706 47.8859 86.8211 47.7401 86.8211 47.5556C86.8211 47.3681 86.7691 47.2209 86.6649 47.1137C86.5638 47.0066 86.4254 46.9531 86.2498 46.9531H85.6785C85.6666 46.9531 85.6607 46.959 85.6607 46.9709V48.1358C85.6607 48.1477 85.6666 48.1537 85.6785 48.1537H86.2588ZM66.1367 53.1358C66.1278 53.1507 66.1307 53.1581 66.1456 53.1581H67.373C67.4028 53.1581 67.4176 53.173 67.4176 53.2028V53.3902C67.4176 53.42 67.4028 53.4349 67.373 53.4349H65.7841C65.7543 53.4349 65.7395 53.42 65.7395 53.3902V53.1939C65.7395 53.176 65.7454 53.1567 65.7573 53.1358C66.0251 52.7728 66.3241 52.3562 66.6544 51.8861C66.8895 51.5439 67.007 51.2702 67.007 51.0649C67.007 50.9101 66.9624 50.7867 66.8731 50.6944C66.7839 50.5992 66.6663 50.5516 66.5205 50.5516C66.3777 50.5516 66.2631 50.5992 66.1769 50.6944C66.0906 50.7867 66.0489 50.9101 66.0519 51.0649V51.2166C66.0519 51.2464 66.037 51.2613 66.0073 51.2613H65.7752C65.7454 51.2613 65.7305 51.2464 65.7305 51.2166V51.0381C65.7365 50.809 65.8124 50.6245 65.9582 50.4846C66.1069 50.3448 66.2974 50.2749 66.5295 50.2749C66.7675 50.2749 66.9594 50.3478 67.1052 50.4936C67.251 50.6394 67.3239 50.8298 67.3239 51.0649C67.3239 51.3267 67.2019 51.6362 66.9579 51.9932C66.8062 52.2134 66.5667 52.5467 66.2393 52.993L66.1367 53.1358ZM68.7287 53.4795C68.4728 53.4795 68.2675 53.4021 68.1128 53.2474C67.9581 53.0927 67.8807 52.8859 67.8807 52.627V51.1184C67.8807 50.8625 67.9581 50.6572 68.1128 50.5025C68.2675 50.3478 68.4728 50.2704 68.7287 50.2704C68.9876 50.2704 69.1944 50.3478 69.3491 50.5025C69.5068 50.6572 69.5857 50.8625 69.5857 51.1184V52.627C69.5857 52.8859 69.5068 53.0927 69.3491 53.2474C69.1944 53.4021 68.9876 53.4795 68.7287 53.4795ZM68.7287 53.2028C68.8924 53.2028 69.0233 53.1522 69.1215 53.051C69.2197 52.9499 69.2688 52.816 69.2688 52.6493V51.1006C69.2688 50.934 69.2197 50.8001 69.1215 50.6989C69.0233 50.5977 68.8924 50.5471 68.7287 50.5471C68.571 50.5471 68.4431 50.5977 68.3449 50.6989C68.2467 50.8001 68.1976 50.934 68.1976 51.1006V52.6493C68.1976 52.813 68.2467 52.9469 68.3449 53.051C68.4431 53.1522 68.571 53.2028 68.7287 53.2028ZM70.8618 51.538C70.7457 51.538 70.6386 51.5097 70.5404 51.4532C70.4452 51.3966 70.3693 51.3208 70.3128 51.2256C70.2562 51.1274 70.228 51.0202 70.228 50.9042C70.228 50.7882 70.2562 50.6825 70.3128 50.5873C70.3693 50.4891 70.4452 50.4117 70.5404 50.3552C70.6386 50.2987 70.7457 50.2704 70.8618 50.2704C70.9748 50.2704 71.079 50.2987 71.1742 50.3552C71.2724 50.4117 71.3497 50.4891 71.4063 50.5873C71.4628 50.6825 71.4911 50.7882 71.4911 50.9042C71.4911 51.0202 71.4628 51.1274 71.4063 51.2256C71.3497 51.3208 71.2724 51.3966 71.1742 51.4532C71.079 51.5097 70.9748 51.538 70.8618 51.538ZM70.7591 53.4349C70.7442 53.4349 70.7323 53.4304 70.7234 53.4215C70.7174 53.4096 70.7189 53.3962 70.7279 53.3813L72.3882 50.3418C72.3971 50.321 72.415 50.3106 72.4418 50.3106H72.5846C72.5995 50.3106 72.6099 50.3165 72.6158 50.3284C72.6247 50.3374 72.6247 50.3493 72.6158 50.3641L70.9555 53.4036C70.9466 53.4245 70.9287 53.4349 70.9019 53.4349H70.7591ZM70.8618 51.3416C70.9808 51.3416 71.0805 51.2999 71.1608 51.2166C71.2441 51.1303 71.2858 51.0262 71.2858 50.9042C71.2858 50.7822 71.2441 50.6795 71.1608 50.5962C71.0805 50.5099 70.9808 50.4668 70.8618 50.4668C70.7427 50.4668 70.6416 50.5099 70.5583 50.5962C70.4749 50.6795 70.4333 50.7822 70.4333 50.9042C70.4333 51.0262 70.4749 51.1303 70.5583 51.2166C70.6416 51.2999 70.7427 51.3416 70.8618 51.3416ZM72.4998 53.475C72.3837 53.475 72.2766 53.4468 72.1784 53.3902C72.0832 53.3337 72.0073 53.2563 71.9508 53.1581C71.8943 53.06 71.866 52.9528 71.866 52.8368C71.866 52.7237 71.8943 52.6196 71.9508 52.5244C72.0073 52.4262 72.0832 52.3488 72.1784 52.2923C72.2766 52.2357 72.3837 52.2075 72.4998 52.2075C72.6128 52.2075 72.717 52.2357 72.8122 52.2923C72.9104 52.3488 72.9878 52.4262 73.0443 52.5244C73.1008 52.6196 73.1291 52.7237 73.1291 52.8368C73.1291 52.9528 73.1008 53.06 73.0443 53.1581C72.9878 53.2563 72.9104 53.3337 72.8122 53.3902C72.717 53.4468 72.6128 53.475 72.4998 53.475ZM72.4998 53.2787C72.6188 53.2787 72.7185 53.2355 72.7988 53.1492C72.8821 53.0629 72.9238 52.9588 72.9238 52.8368C72.9238 52.7148 72.8821 52.6121 72.7988 52.5288C72.7185 52.4455 72.6188 52.4039 72.4998 52.4039C72.3808 52.4039 72.2796 52.4455 72.1963 52.5288C72.113 52.6121 72.0713 52.7148 72.0713 52.8368C72.0713 52.9618 72.1115 53.0674 72.1918 53.1537C72.2751 53.237 72.3778 53.2787 72.4998 53.2787Z" fill="#404040"/>
<path d="M3.41543 7.8932C3.23393 7.8932 3.07325 7.85601 2.9334 7.78162C2.79653 7.70426 2.68941 7.59714 2.61204 7.46027C2.53766 7.32339 2.50046 7.16569 2.50046 6.98716V5.60801C2.50046 5.42948 2.53766 5.27178 2.61204 5.13491C2.68941 4.99506 2.79653 4.88794 2.9334 4.81355C3.07325 4.73619 3.23393 4.69751 3.41543 4.69751C3.59694 4.69751 3.75613 4.73619 3.893 4.81355C4.03285 4.88794 4.14146 4.99506 4.21882 5.13491C4.29618 5.27178 4.33486 5.42948 4.33486 5.60801V6.98716C4.33486 7.16569 4.29618 7.32339 4.21882 7.46027C4.14146 7.59714 4.03285 7.70426 3.893 7.78162C3.75613 7.85601 3.59694 7.8932 3.41543 7.8932ZM3.41543 7.61648C3.59694 7.61648 3.74274 7.55995 3.85283 7.44688C3.96293 7.33381 4.01797 7.18503 4.01797 7.00055V5.59909C4.01797 5.41163 3.96293 5.26136 3.85283 5.1483C3.74274 5.03225 3.59694 4.97423 3.41543 4.97423C3.2369 4.97423 3.09259 5.03225 2.9825 5.1483C2.8724 5.26136 2.81735 5.41163 2.81735 5.59909V7.00055C2.81735 7.18503 2.8724 7.33381 2.9825 7.44688C3.09259 7.55995 3.2369 7.61648 3.41543 7.61648ZM6.34361 6.22841C6.32874 6.23436 6.32874 6.2418 6.34361 6.25072C6.48346 6.31916 6.59058 6.41735 6.66497 6.5453C6.74233 6.67324 6.7825 6.82797 6.78548 7.00948C6.78548 7.27727 6.70514 7.48556 6.54446 7.63433C6.38676 7.78311 6.17699 7.8575 5.91514 7.8575H5.03588C5.00612 7.8575 4.99124 7.84262 4.99124 7.81287V4.77784C4.99124 4.74809 5.00612 4.73321 5.03588 4.73321H5.87943C6.15318 4.73321 6.36742 4.80462 6.52214 4.94745C6.67687 5.0873 6.75423 5.28814 6.75423 5.54999C6.75423 5.71662 6.71853 5.85647 6.64712 5.96954C6.57868 6.08261 6.47751 6.1689 6.34361 6.22841ZM5.32599 5.00993C5.31409 5.00993 5.30814 5.01589 5.30814 5.02779V6.10343C5.30814 6.11534 5.31409 6.12129 5.32599 6.12129H5.8839C6.05648 6.12129 6.19186 6.07219 6.29005 5.974C6.39122 5.87581 6.44181 5.7434 6.44181 5.57677C6.44181 5.40121 6.39122 5.26285 6.29005 5.16169C6.19186 5.06052 6.05648 5.00993 5.8839 5.00993H5.32599ZM5.90621 7.57631C6.07879 7.57631 6.21567 7.52275 6.31683 7.41563C6.418 7.30852 6.46859 7.16272 6.46859 6.97823C6.46859 6.79078 6.41651 6.64349 6.31237 6.53637C6.2112 6.42925 6.07284 6.37569 5.89729 6.37569H5.32599C5.31409 6.37569 5.30814 6.38164 5.30814 6.39355V7.55846C5.30814 7.57036 5.31409 7.57631 5.32599 7.57631H5.90621ZM7.4375 7.8575C7.40774 7.8575 7.39286 7.84262 7.39286 7.81287V4.77784C7.39286 4.74809 7.40774 4.73321 7.4375 4.73321H7.66512C7.69488 4.73321 7.70976 4.74809 7.70976 4.77784V7.56292C7.70976 7.57482 7.71571 7.58078 7.72761 7.58078H9.02642C9.05618 7.58078 9.07105 7.59565 9.07105 7.62541V7.81287C9.07105 7.84262 9.05618 7.8575 9.02642 7.8575H7.4375ZM11.2644 4.9653C11.2644 4.99506 11.2495 5.00993 11.2198 5.00993H9.88079C9.86889 5.00993 9.86293 5.01589 9.86293 5.02779V6.13468C9.86293 6.14658 9.86889 6.15253 9.88079 6.15253H10.7824C10.8121 6.15253 10.827 6.16741 10.827 6.19716V6.38462C10.827 6.41438 10.8121 6.42925 10.7824 6.42925H9.88079C9.86889 6.42925 9.86293 6.4352 9.86293 6.44711V7.56292C9.86293 7.57482 9.86889 7.58078 9.88079 7.58078H11.2198C11.2495 7.58078 11.2644 7.59565 11.2644 7.62541V7.81287C11.2644 7.84262 11.2495 7.8575 11.2198 7.8575H9.59067C9.56092 7.8575 9.54604 7.84262 9.54604 7.81287V4.77784C9.54604 4.74809 9.56092 4.73321 9.59067 4.73321H11.2198C11.2495 4.73321 11.2644 4.74809 11.2644 4.77784V4.9653ZM12.8337 4.72875C13.0717 4.72875 13.2637 4.80909 13.4095 4.96976C13.5582 5.12747 13.6326 5.33724 13.6326 5.59909C13.6326 5.85795 13.5582 6.06624 13.4095 6.22394C13.2637 6.37867 13.0717 6.45603 12.8337 6.45603H12.1687C12.1568 6.45603 12.1508 6.46198 12.1508 6.47389V7.81287C12.1508 7.84262 12.1359 7.8575 12.1062 7.8575H11.8786C11.8488 7.8575 11.8339 7.84262 11.8339 7.81287V4.77338C11.8339 4.74363 11.8488 4.72875 11.8786 4.72875H12.8337ZM12.7935 6.1927C12.9512 6.1927 13.0777 6.13914 13.1729 6.03202C13.2681 5.9249 13.3157 5.78208 13.3157 5.60355C13.3157 5.42204 13.2681 5.27773 13.1729 5.17061C13.0777 5.06052 12.9512 5.00547 12.7935 5.00547H12.1687C12.1568 5.00547 12.1508 5.01142 12.1508 5.02332V6.17485C12.1508 6.18675 12.1568 6.1927 12.1687 6.1927H12.7935ZM14.2021 7.8575C14.1724 7.8575 14.1575 7.84262 14.1575 7.81287V4.77784C14.1575 4.74809 14.1724 4.73321 14.2021 4.73321H14.4298C14.4595 4.73321 14.4744 4.74809 14.4744 4.77784V7.81287C14.4744 7.84262 14.4595 7.8575 14.4298 7.8575H14.2021ZM16.6587 4.77784C16.6587 4.74809 16.6736 4.73321 16.7033 4.73321H16.931C16.9607 4.73321 16.9756 4.74809 16.9756 4.77784V7.81287C16.9756 7.84262 16.9607 7.8575 16.931 7.8575H16.7033C16.6736 7.8575 16.6587 7.84262 16.6587 7.81287V6.44711C16.6587 6.4352 16.6528 6.42925 16.6409 6.42925H15.534C15.5221 6.42925 15.5161 6.4352 15.5161 6.44711V7.81287C15.5161 7.84262 15.5012 7.8575 15.4715 7.8575H15.2439C15.2141 7.8575 15.1992 7.84262 15.1992 7.81287V4.77784C15.1992 4.74809 15.2141 4.73321 15.2439 4.73321H15.4715C15.5012 4.73321 15.5161 4.74809 15.5161 4.77784V6.13468C15.5161 6.14658 15.5221 6.15253 15.534 6.15253H16.6409C16.6528 6.15253 16.6587 6.14658 16.6587 6.13468V4.77784ZM19.2447 7.8575C19.2179 7.8575 19.2015 7.84411 19.1956 7.81733L19.0483 7.25942C19.0453 7.25049 19.0379 7.24603 19.026 7.24603H17.9592C17.9473 7.24603 17.9399 7.25049 17.9369 7.25942L17.7896 7.81733C17.7837 7.84411 17.7673 7.8575 17.7405 7.8575H17.5084C17.4936 7.8575 17.4817 7.85303 17.4727 7.84411C17.4668 7.83518 17.4653 7.82328 17.4683 7.8084L18.3029 4.77338C18.3089 4.7466 18.3252 4.73321 18.352 4.73321H18.6376C18.6644 4.73321 18.6808 4.7466 18.6867 4.77338L19.5214 7.8084L19.5258 7.82179C19.5258 7.8456 19.511 7.8575 19.4812 7.8575H19.2447ZM18.0128 6.96931C18.0098 6.97228 18.0098 6.97675 18.0128 6.9827C18.0187 6.98567 18.0247 6.98716 18.0306 6.98716H18.9545C18.9605 6.98716 18.965 6.98567 18.9679 6.9827C18.9739 6.97675 18.9754 6.97228 18.9724 6.96931L18.4993 5.17508C18.4963 5.16912 18.4933 5.16615 18.4904 5.16615C18.4874 5.16615 18.4844 5.16912 18.4814 5.17508L18.0128 6.96931ZM21.1416 7.55846C21.1326 7.57334 21.1356 7.58078 21.1505 7.58078H22.3779C22.4077 7.58078 22.4225 7.59565 22.4225 7.62541V7.81287C22.4225 7.84262 22.4077 7.8575 22.3779 7.8575H20.789C20.7592 7.8575 20.7443 7.84262 20.7443 7.81287V7.61648C20.7443 7.59863 20.7503 7.57929 20.7622 7.55846C21.03 7.19545 21.329 6.77888 21.6593 6.30874C21.8944 5.96656 22.0119 5.69281 22.0119 5.4875C22.0119 5.33278 21.9673 5.20929 21.878 5.11705C21.7887 5.02184 21.6712 4.97423 21.5254 4.97423C21.3826 4.97423 21.268 5.02184 21.1817 5.11705C21.0955 5.20929 21.0538 5.33278 21.0568 5.4875V5.63925C21.0568 5.66901 21.0419 5.68389 21.0121 5.68389H20.78C20.7503 5.68389 20.7354 5.66901 20.7354 5.63925V5.46072C20.7414 5.23161 20.8172 5.04713 20.963 4.90728C21.1118 4.76743 21.3023 4.69751 21.5343 4.69751C21.7724 4.69751 21.9643 4.77041 22.1101 4.91621C22.2559 5.06201 22.3288 5.25244 22.3288 5.4875C22.3288 5.74935 22.2068 6.0588 21.9628 6.41586C21.8111 6.63605 21.5715 6.96931 21.2442 7.41563L21.1416 7.55846ZM23.7336 7.90213C23.4777 7.90213 23.2724 7.82477 23.1177 7.67004C22.963 7.51531 22.8856 7.30852 22.8856 7.04965V5.54106C22.8856 5.28517 22.963 5.07986 23.1177 4.92513C23.2724 4.77041 23.4777 4.69304 23.7336 4.69304C23.9925 4.69304 24.1993 4.77041 24.354 4.92513C24.5117 5.07986 24.5906 5.28517 24.5906 5.54106V7.04965C24.5906 7.30852 24.5117 7.51531 24.354 7.67004C24.1993 7.82477 23.9925 7.90213 23.7336 7.90213ZM23.7336 7.62541C23.8973 7.62541 24.0282 7.57482 24.1264 7.47366C24.2246 7.37249 24.2737 7.23859 24.2737 7.07196V5.52321C24.2737 5.35658 24.2246 5.22268 24.1264 5.12152C24.0282 5.02035 23.8973 4.96976 23.7336 4.96976C23.5759 4.96976 23.448 5.02035 23.3498 5.12152C23.2516 5.22268 23.2025 5.35658 23.2025 5.52321V7.07196C23.2025 7.23562 23.2516 7.36951 23.3498 7.47366C23.448 7.57482 23.5759 7.62541 23.7336 7.62541ZM25.8666 5.96061C25.7506 5.96061 25.6435 5.93234 25.5453 5.87581C25.4501 5.81927 25.3742 5.7434 25.3177 5.64818C25.2611 5.54999 25.2329 5.44287 25.2329 5.32683C25.2329 5.21078 25.2611 5.10515 25.3177 5.00993C25.3742 4.91174 25.4501 4.83438 25.5453 4.77784C25.6435 4.72131 25.7506 4.69304 25.8666 4.69304C25.9797 4.69304 26.0839 4.72131 26.1791 4.77784C26.2773 4.83438 26.3546 4.91174 26.4112 5.00993C26.4677 5.10515 26.496 5.21078 26.496 5.32683C26.496 5.44287 26.4677 5.54999 26.4112 5.64818C26.3546 5.7434 26.2773 5.81927 26.1791 5.87581C26.0839 5.93234 25.9797 5.96061 25.8666 5.96061ZM25.764 7.8575C25.7491 7.8575 25.7372 7.85303 25.7283 7.84411C25.7223 7.83221 25.7238 7.81882 25.7327 7.80394L27.3931 4.76445C27.402 4.74363 27.4199 4.73321 27.4466 4.73321H27.5895C27.6043 4.73321 27.6148 4.73916 27.6207 4.75106C27.6296 4.75999 27.6296 4.77189 27.6207 4.78677L25.9604 7.82626C25.9514 7.84708 25.9336 7.8575 25.9068 7.8575H25.764ZM25.8666 5.76423C25.9857 5.76423 26.0853 5.72257 26.1657 5.63925C26.249 5.55296 26.2906 5.44882 26.2906 5.32683C26.2906 5.20483 26.249 5.10217 26.1657 5.01886C26.0853 4.93257 25.9857 4.88943 25.8666 4.88943C25.7476 4.88943 25.6465 4.93257 25.5631 5.01886C25.4798 5.10217 25.4382 5.20483 25.4382 5.32683C25.4382 5.44882 25.4798 5.55296 25.5631 5.63925C25.6465 5.72257 25.7476 5.76423 25.8666 5.76423ZM27.5047 7.89767C27.3886 7.89767 27.2815 7.8694 27.1833 7.81287C27.0881 7.75633 27.0122 7.67897 26.9557 7.58078C26.8991 7.48258 26.8709 7.37547 26.8709 7.25942C26.8709 7.14635 26.8991 7.04221 26.9557 6.94699C27.0122 6.8488 27.0881 6.77144 27.1833 6.7149C27.2815 6.65837 27.3886 6.6301 27.5047 6.6301C27.6177 6.6301 27.7219 6.65837 27.8171 6.7149C27.9153 6.77144 27.9926 6.8488 28.0492 6.94699C28.1057 7.04221 28.134 7.14635 28.134 7.25942C28.134 7.37547 28.1057 7.48258 28.0492 7.58078C27.9926 7.67897 27.9153 7.75633 27.8171 7.81287C27.7219 7.8694 27.6177 7.89767 27.5047 7.89767ZM27.5047 7.70128C27.6237 7.70128 27.7234 7.65814 27.8037 7.57185C27.887 7.48556 27.9287 7.38142 27.9287 7.25942C27.9287 7.13742 27.887 7.03477 27.8037 6.95146C27.7234 6.86814 27.6237 6.82648 27.5047 6.82648C27.3856 6.82648 27.2845 6.86814 27.2012 6.95146C27.1178 7.03477 27.0762 7.13742 27.0762 7.25942C27.0762 7.38439 27.1164 7.49002 27.1967 7.57631C27.28 7.65963 27.3827 7.70128 27.5047 7.70128Z" fill="#404040"/>
<path d="M62.8112 13.6125L65.3532 10.3492H75.8843" stroke="black" stroke-width="0.145684"/>
<path d="M67.2391 7.31019C67.2242 7.31614 67.2242 7.32358 67.2391 7.33251C67.379 7.40095 67.4861 7.49914 67.5605 7.62708C67.6378 7.75503 67.678 7.90976 67.681 8.09126C67.681 8.35906 67.6006 8.56735 67.44 8.71612C67.2823 8.8649 67.0725 8.93929 66.8106 8.93929H65.9314C65.9016 8.93929 65.8867 8.92441 65.8867 8.89465V5.85963C65.8867 5.82988 65.9016 5.815 65.9314 5.815H66.7749C67.0487 5.815 67.2629 5.88641 67.4176 6.02924C67.5724 6.16908 67.6497 6.36993 67.6497 6.63178C67.6497 6.79841 67.614 6.93825 67.5426 7.05132C67.4742 7.16439 67.373 7.25068 67.2391 7.31019ZM66.2215 6.09172C66.2096 6.09172 66.2036 6.09767 66.2036 6.10957V7.18522C66.2036 7.19712 66.2096 7.20307 66.2215 7.20307H66.7794C66.952 7.20307 67.0874 7.15398 67.1856 7.05579C67.2867 6.95759 67.3373 6.82518 67.3373 6.65856C67.3373 6.483 67.2867 6.34464 67.1856 6.24347C67.0874 6.1423 66.952 6.09172 66.7794 6.09172H66.2215ZM66.8017 8.6581C66.9743 8.6581 67.1112 8.60454 67.2123 8.49742C67.3135 8.3903 67.3641 8.2445 67.3641 8.06002C67.3641 7.87256 67.312 7.72528 67.2079 7.61816C67.1067 7.51104 66.9683 7.45748 66.7928 7.45748H66.2215C66.2096 7.45748 66.2036 7.46343 66.2036 7.47533V8.64025C66.2036 8.65215 66.2096 8.6581 66.2215 8.6581H66.8017ZM69.9893 6.04709C69.9893 6.07684 69.9744 6.09172 69.9447 6.09172H68.6057C68.5938 6.09172 68.5878 6.09767 68.5878 6.10957V7.21646C68.5878 7.22837 68.5938 7.23432 68.6057 7.23432H69.5073C69.537 7.23432 69.5519 7.24919 69.5519 7.27895V7.46641C69.5519 7.49616 69.537 7.51104 69.5073 7.51104H68.6057C68.5938 7.51104 68.5878 7.51699 68.5878 7.52889V8.64471C68.5878 8.65661 68.5938 8.66256 68.6057 8.66256H69.9447C69.9744 8.66256 69.9893 8.67744 69.9893 8.7072V8.89465C69.9893 8.92441 69.9744 8.93929 69.9447 8.93929H68.3156C68.2858 8.93929 68.2709 8.92441 68.2709 8.89465V5.85963C68.2709 5.82988 68.2858 5.815 68.3156 5.815H69.9447C69.9744 5.815 69.9893 5.82988 69.9893 5.85963V6.04709ZM72.1076 8.93929C72.0838 8.93929 72.0674 8.92738 72.0585 8.90358L71.505 7.52443C71.502 7.5155 71.4961 7.51104 71.4872 7.51104H70.9114C70.8995 7.51104 70.8936 7.51699 70.8936 7.52889V8.89465C70.8936 8.92441 70.8787 8.93929 70.8489 8.93929H70.6213C70.5915 8.93929 70.5767 8.92441 70.5767 8.89465V5.85963C70.5767 5.82988 70.5915 5.815 70.6213 5.815H71.5675C71.7222 5.815 71.8591 5.8507 71.9781 5.92212C72.1001 5.99353 72.1939 6.0947 72.2593 6.22562C72.3278 6.35654 72.362 6.50681 72.362 6.67641C72.362 6.87874 72.3129 7.05132 72.2147 7.19415C72.1165 7.33697 71.9826 7.43219 71.813 7.4798C71.8011 7.48575 71.7981 7.49319 71.8041 7.50211L72.3798 8.88573L72.3843 8.90358C72.3843 8.92738 72.3709 8.93929 72.3441 8.93929H72.1076ZM70.9114 6.09172C70.8995 6.09172 70.8936 6.09767 70.8936 6.10957V7.23878C70.8936 7.25068 70.8995 7.25663 70.9114 7.25663H71.5273C71.6821 7.25663 71.807 7.20307 71.9023 7.09596C71.9975 6.98884 72.0451 6.84899 72.0451 6.67641C72.0451 6.50085 71.9975 6.35952 71.9023 6.2524C71.807 6.14528 71.6821 6.09172 71.5273 6.09172H70.9114ZM73.7515 8.97499C73.4807 8.97499 73.262 8.89614 73.0954 8.73844C72.9317 8.58074 72.8499 8.37096 72.8499 8.10912V6.64517C72.8499 6.38332 72.9317 6.17355 73.0954 6.01585C73.262 5.85814 73.4807 5.77929 73.7515 5.77929C73.93 5.77929 74.0862 5.815 74.2201 5.88641C74.357 5.95782 74.4626 6.0575 74.537 6.18545C74.6144 6.3134 74.6531 6.46068 74.6531 6.62731V6.75228C74.6531 6.78204 74.6382 6.79692 74.6084 6.79692H74.3808C74.351 6.79692 74.3362 6.78204 74.3362 6.75228V6.62731C74.3362 6.45771 74.2826 6.32084 74.1755 6.21669C74.0684 6.10957 73.927 6.05602 73.7515 6.05602C73.5759 6.05602 73.4346 6.10957 73.3275 6.21669C73.2203 6.32084 73.1668 6.46068 73.1668 6.63624V8.11804C73.1668 8.29062 73.2203 8.43047 73.3275 8.53759C73.4376 8.64471 73.5804 8.69827 73.7559 8.69827C73.9315 8.69827 74.0713 8.64769 74.1755 8.54652C74.2826 8.44535 74.3362 8.30848 74.3362 8.1359V7.6494C74.3362 7.6375 74.3302 7.63155 74.3183 7.63155H73.7961C73.7664 7.63155 73.7515 7.61667 73.7515 7.58692V7.39946C73.7515 7.3697 73.7664 7.35483 73.7961 7.35483H74.6084C74.6382 7.35483 74.6531 7.3697 74.6531 7.39946V8.09573C74.6531 8.3665 74.5712 8.58074 74.4076 8.73844C74.2439 8.89614 74.0252 8.97499 73.7515 8.97499ZM76.8145 8.93929C76.7877 8.93929 76.7714 8.9259 76.7654 8.89912L76.6181 8.34121C76.6151 8.33228 76.6077 8.32782 76.5958 8.32782H75.5291C75.5172 8.32782 75.5097 8.33228 75.5068 8.34121L75.3595 8.89912C75.3535 8.9259 75.3372 8.93929 75.3104 8.93929H75.0783C75.0634 8.93929 75.0515 8.93482 75.0426 8.9259C75.0366 8.91697 75.0351 8.90507 75.0381 8.89019L75.8727 5.85517C75.8787 5.82839 75.8951 5.815 75.9218 5.815H76.2075C76.2343 5.815 76.2506 5.82839 76.2566 5.85517L77.0912 8.89019L77.0957 8.90358C77.0957 8.92738 77.0808 8.93929 77.0511 8.93929H76.8145ZM75.5826 8.0511C75.5797 8.05407 75.5797 8.05853 75.5826 8.06449C75.5886 8.06746 75.5945 8.06895 75.6005 8.06895H76.5244C76.5303 8.06895 76.5348 8.06746 76.5378 8.06449C76.5437 8.05853 76.5452 8.05407 76.5422 8.0511L76.0691 6.25686C76.0662 6.25091 76.0632 6.24794 76.0602 6.24794C76.0572 6.24794 76.0543 6.25091 76.0513 6.25686L75.5826 8.0511ZM78.918 5.815C78.9477 5.815 78.9626 5.82988 78.9626 5.85963V6.04709C78.9626 6.07684 78.9477 6.09172 78.918 6.09172H78.1905C78.1786 6.09172 78.1726 6.09767 78.1726 6.10957V8.89465C78.1726 8.92441 78.1577 8.93929 78.128 8.93929H77.9004C77.8706 8.93929 77.8557 8.92441 77.8557 8.89465V6.10957C77.8557 6.09767 77.8498 6.09172 77.8379 6.09172H77.1371C77.1074 6.09172 77.0925 6.07684 77.0925 6.04709V5.85963C77.0925 5.82988 77.1074 5.815 77.1371 5.815H78.918ZM81.2259 6.04709C81.2259 6.07684 81.211 6.09172 81.1813 6.09172H79.8423C79.8304 6.09172 79.8244 6.09767 79.8244 6.10957V7.21646C79.8244 7.22837 79.8304 7.23432 79.8423 7.23432H80.7439C80.7736 7.23432 80.7885 7.24919 80.7885 7.27895V7.46641C80.7885 7.49616 80.7736 7.51104 80.7439 7.51104H79.8423C79.8304 7.51104 79.8244 7.51699 79.8244 7.52889V8.64471C79.8244 8.65661 79.8304 8.66256 79.8423 8.66256H81.1813C81.211 8.66256 81.2259 8.67744 81.2259 8.7072V8.89465C81.2259 8.92441 81.211 8.93929 81.1813 8.93929H79.5522C79.5224 8.93929 79.5076 8.92441 79.5076 8.89465V5.85963C79.5076 5.82988 79.5224 5.815 79.5522 5.815H81.1813C81.211 5.815 81.2259 5.82988 81.2259 5.85963V6.04709ZM83.3786 8.93929C83.3519 8.93929 83.3355 8.9259 83.3295 8.89912L83.1823 8.34121C83.1793 8.33228 83.1718 8.32782 83.1599 8.32782H82.0932C82.0813 8.32782 82.0739 8.33228 82.0709 8.34121L81.9236 8.89912C81.9177 8.9259 81.9013 8.93929 81.8745 8.93929H81.6424C81.6275 8.93929 81.6156 8.93482 81.6067 8.9259C81.6008 8.91697 81.5993 8.90507 81.6023 8.89019L82.4369 5.85517C82.4428 5.82839 82.4592 5.815 82.486 5.815H82.7716C82.7984 5.815 82.8148 5.82839 82.8207 5.85517L83.6554 8.89019L83.6598 8.90358C83.6598 8.92738 83.6449 8.93929 83.6152 8.93929H83.3786ZM82.1468 8.0511C82.1438 8.05407 82.1438 8.05853 82.1468 8.06449C82.1527 8.06746 82.1587 8.06895 82.1646 8.06895H83.0885C83.0945 8.06895 83.0989 8.06746 83.1019 8.06449C83.1079 8.05853 83.1094 8.05407 83.1064 8.0511L82.6333 6.25686C82.6303 6.25091 82.6273 6.24794 82.6243 6.24794C82.6214 6.24794 82.6184 6.25091 82.6154 6.25686L82.1468 8.0511ZM86.5833 7.79669C86.6131 7.79669 86.6279 7.81157 86.6279 7.84132V8.03771C86.6279 8.06746 86.6131 8.08234 86.5833 8.08234H86.4182C86.4063 8.08234 86.4003 8.08829 86.4003 8.10019V8.89465C86.4003 8.92441 86.3854 8.93929 86.3557 8.93929H86.128C86.0983 8.93929 86.0834 8.92441 86.0834 8.89465V8.10019C86.0834 8.08829 86.0775 8.08234 86.0656 8.08234H84.856C84.8263 8.08234 84.8114 8.06746 84.8114 8.03771V7.8681C84.8114 7.84727 84.8144 7.82942 84.8203 7.81454L85.6148 5.8507C85.6237 5.8269 85.6401 5.815 85.6639 5.815H85.9093C85.9242 5.815 85.9346 5.82095 85.9406 5.83285C85.9465 5.84178 85.9465 5.85368 85.9406 5.86856L85.1818 7.77437C85.1789 7.78032 85.1789 7.78627 85.1818 7.79223C85.1848 7.7952 85.1893 7.79669 85.1952 7.79669H86.0656C86.0775 7.79669 86.0834 7.79074 86.0834 7.77884V7.07364C86.0834 7.04388 86.0983 7.02901 86.128 7.02901H86.3557C86.3854 7.02901 86.4003 7.04388 86.4003 7.07364V7.77884C86.4003 7.79074 86.4063 7.79669 86.4182 7.79669H86.5833ZM87.933 8.98392C87.6771 8.98392 87.4718 8.90655 87.3171 8.75183C87.1623 8.5971 87.085 8.3903 87.085 8.13143V6.62285C87.085 6.36696 87.1623 6.16165 87.3171 6.00692C87.4718 5.85219 87.6771 5.77483 87.933 5.77483C88.1919 5.77483 88.3986 5.85219 88.5534 6.00692C88.7111 6.16165 88.7899 6.36696 88.7899 6.62285V8.13143C88.7899 8.3903 88.7111 8.5971 88.5534 8.75183C88.3986 8.90655 88.1919 8.98392 87.933 8.98392ZM87.933 8.7072C88.0966 8.7072 88.2276 8.65661 88.3257 8.55544C88.4239 8.45428 88.473 8.32038 88.473 8.15375V6.605C88.473 6.43837 88.4239 6.30447 88.3257 6.2033C88.2276 6.10214 88.0966 6.05155 87.933 6.05155C87.7753 6.05155 87.6473 6.10214 87.5491 6.2033C87.4509 6.30447 87.4019 6.43837 87.4019 6.605V8.15375C87.4019 8.3174 87.4509 8.4513 87.5491 8.55544C87.6473 8.65661 87.7753 8.7072 87.933 8.7072ZM90.066 7.0424C89.95 7.0424 89.8428 7.01413 89.7446 6.95759C89.6494 6.90106 89.5736 6.82518 89.517 6.72997C89.4605 6.63178 89.4322 6.52466 89.4322 6.40861C89.4322 6.29257 89.4605 6.18694 89.517 6.09172C89.5736 5.99353 89.6494 5.91617 89.7446 5.85963C89.8428 5.8031 89.95 5.77483 90.066 5.77483C90.1791 5.77483 90.2832 5.8031 90.3784 5.85963C90.4766 5.91617 90.554 5.99353 90.6105 6.09172C90.6671 6.18694 90.6953 6.29257 90.6953 6.40861C90.6953 6.52466 90.6671 6.63178 90.6105 6.72997C90.554 6.82518 90.4766 6.90106 90.3784 6.95759C90.2832 7.01413 90.1791 7.0424 90.066 7.0424ZM89.9633 8.93929C89.9485 8.93929 89.9366 8.93482 89.9276 8.9259C89.9217 8.91399 89.9232 8.9006 89.9321 8.88573L91.5924 5.84624C91.6014 5.82541 91.6192 5.815 91.646 5.815H91.7888C91.8037 5.815 91.8141 5.82095 91.8201 5.83285C91.829 5.84178 91.829 5.85368 91.8201 5.86856L90.1597 8.90804C90.1508 8.92887 90.133 8.93929 90.1062 8.93929H89.9633ZM90.066 6.84601C90.185 6.84601 90.2847 6.80436 90.365 6.72104C90.4484 6.63475 90.49 6.53061 90.49 6.40861C90.49 6.28662 90.4484 6.18396 90.365 6.10065C90.2847 6.01436 90.185 5.97121 90.066 5.97121C89.947 5.97121 89.8458 6.01436 89.7625 6.10065C89.6792 6.18396 89.6375 6.28662 89.6375 6.40861C89.6375 6.53061 89.6792 6.63475 89.7625 6.72104C89.8458 6.80436 89.947 6.84601 90.066 6.84601ZM91.704 8.97945C91.588 8.97945 91.4809 8.95119 91.3827 8.89465C91.2875 8.83812 91.2116 8.76075 91.155 8.66256C91.0985 8.56437 91.0702 8.45725 91.0702 8.34121C91.0702 8.22814 91.0985 8.124 91.155 8.02878C91.2116 7.93059 91.2875 7.85322 91.3827 7.79669C91.4809 7.74015 91.588 7.71189 91.704 7.71189C91.8171 7.71189 91.9212 7.74015 92.0165 7.79669C92.1146 7.85322 92.192 7.93059 92.2485 8.02878C92.3051 8.124 92.3333 8.22814 92.3333 8.34121C92.3333 8.45725 92.3051 8.56437 92.2485 8.66256C92.192 8.76075 92.1146 8.83812 92.0165 8.89465C91.9212 8.95119 91.8171 8.97945 91.704 8.97945ZM91.704 8.78307C91.823 8.78307 91.9227 8.73993 92.0031 8.65364C92.0864 8.56735 92.128 8.4632 92.128 8.34121C92.128 8.21921 92.0864 8.11656 92.0031 8.03324C91.9227 7.94993 91.823 7.90827 91.704 7.90827C91.585 7.90827 91.4838 7.94993 91.4005 8.03324C91.3172 8.11656 91.2755 8.21921 91.2755 8.34121C91.2755 8.46618 91.3157 8.57181 91.3961 8.6581C91.4794 8.74141 91.582 8.78307 91.704 8.78307Z" fill="#404040"/>
<path d="M40.7662 30.3461L40.7303 30.3428C40.5268 30.3213 40.3352 30.3067 40.3352 30.1501C40.3352 29.9574 40.6106 29.9213 40.7662 29.9213C40.9473 29.9226 41.1263 29.9599 41.293 30.0309L41.3169 30.0429L41.4247 29.79L41.4007 29.7813C41.2 29.6955 40.9843 29.6504 40.7662 29.6488C40.3352 29.6488 40.0479 29.8536 40.0479 30.1427C40.0479 30.516 40.419 30.5642 40.7183 30.5883H40.7423C41.0056 30.6124 41.1852 30.6474 41.1852 30.8171C41.1852 30.9496 41.0056 31.0339 40.7303 31.0339C40.5272 31.0359 40.3264 30.9905 40.1437 30.9014L40.1197 30.8913L40 31.1443L40.0239 31.1563C40.2427 31.2682 40.4849 31.326 40.7303 31.3249C41.1613 31.3249 41.4726 31.1202 41.4726 30.8191C41.4726 30.3975 41.0176 30.3493 40.7542 30.3252M43.4839 30.249C43.4839 30.3257 43.4536 30.3992 43.3997 30.4534C43.3458 30.5076 43.2727 30.5381 43.1965 30.5381H42.7536V29.9607H43.1965C43.2738 29.9638 43.3469 29.9969 43.4005 30.053C43.454 30.1091 43.4839 30.184 43.4839 30.2618M43.1965 29.6836H42.6338C42.5957 29.6836 42.5592 29.6989 42.5323 29.726C42.5053 29.7531 42.4902 29.7898 42.4902 29.8282V31.3096H42.7655V30.8399H43.2085C43.2834 30.8415 43.3579 30.828 43.4275 30.8003C43.4972 30.7726 43.5606 30.7311 43.6141 30.6784C43.6677 30.6257 43.7102 30.5627 43.7392 30.4933C43.7682 30.4238 43.7832 30.3492 43.7832 30.2738C43.7832 30.1205 43.7226 29.9734 43.6148 29.865C43.5071 29.7566 43.3609 29.6957 43.2085 29.6957M44.6451 29.8282V31.1651C44.6451 31.2034 44.6603 31.2402 44.6872 31.2673C44.7142 31.2944 44.7507 31.3096 44.7888 31.3096H45.8902V31.0326H44.9205V30.6351H45.8304V30.3581H44.9205V29.9607H45.8902V29.6836H44.7888C44.7507 29.6836 44.7142 29.6989 44.6872 29.726C44.6603 29.7531 44.6451 29.7898 44.6451 29.8282ZM47.9973 30.8279C47.948 30.8998 47.8817 30.9583 47.8044 30.9983C47.7271 31.0382 47.6412 31.0583 47.5543 31.0567C47.4072 31.0535 47.2671 30.9925 47.1642 30.8867C47.0612 30.7809 47.0036 30.6387 47.0036 30.4906C47.0036 30.3437 47.0617 30.2028 47.1649 30.0988C47.2682 29.9949 47.4083 29.9366 47.5543 29.9366C47.635 29.937 47.7145 29.9556 47.787 29.991C47.8595 30.0265 47.9232 30.0778 47.9734 30.1413L47.9853 30.1534L48.1889 29.9727L48.1769 29.9561C48.0666 29.8288 47.9204 29.7384 47.7577 29.6969C47.5951 29.6553 47.4237 29.6645 47.2664 29.7234C47.1091 29.7822 46.9733 29.8879 46.8772 30.0263C46.7811 30.1647 46.7291 30.3292 46.7283 30.4981C46.7283 30.7196 46.8149 30.9323 46.9695 31.09C47.1241 31.2478 47.3342 31.338 47.5543 31.3412C47.6849 31.3441 47.8143 31.315 47.9311 31.2562C48.048 31.1974 48.1488 31.1108 48.2248 31.0039L48.2367 30.9866L48.0213 30.818L47.9973 30.8279ZM48.967 29.9607H49.5178V31.3096H49.7931V29.9607H50.3438V29.6836H48.967V29.9607ZM52.2713 30.2377C52.2714 30.2719 52.2645 30.3058 52.2511 30.3373C52.2377 30.3688 52.2181 30.3973 52.1935 30.4209C52.1689 30.4446 52.1397 30.463 52.1078 30.4749C52.0759 30.4869 52.0419 30.4922 52.0079 30.4906H51.4931V29.9607H52.0079C52.0436 29.9606 52.0788 29.9679 52.1116 29.9819C52.1443 29.996 52.1739 30.0166 52.1985 30.0425C52.2232 30.0684 52.2423 30.099 52.2548 30.1326C52.2673 30.1661 52.2729 30.2019 52.2713 30.2377ZM52.5467 30.2377C52.5483 30.1655 52.5355 30.0937 52.5092 30.0266C52.4828 29.9594 52.4434 29.8982 52.3932 29.8466C52.343 29.795 52.2831 29.754 52.2169 29.726C52.1507 29.698 52.0797 29.6836 52.0079 29.6836H51.3734C51.3353 29.6836 51.2988 29.6989 51.2718 29.726C51.2449 29.7531 51.2298 29.7898 51.2298 29.8282V31.3096H51.5051V30.7556H51.8762L52.2593 31.3096H52.5826L52.1755 30.7315C52.282 30.7004 52.3756 30.6355 52.4425 30.5465C52.5094 30.4575 52.5459 30.3492 52.5467 30.2377ZM54.6657 30.6111C54.6657 30.7261 54.6203 30.8363 54.5395 30.9177C54.4587 30.999 54.349 31.0447 54.2347 31.0447C54.1204 31.0447 54.0108 30.999 53.93 30.9177C53.8491 30.8363 53.8037 30.7261 53.8037 30.6111V29.6836H53.5284V30.6111C53.5284 30.7995 53.6028 30.9803 53.7353 31.1135C53.8677 31.2468 54.0474 31.3217 54.2347 31.3217C54.4221 31.3217 54.6017 31.2468 54.7342 31.1135C54.8667 30.9803 54.9411 30.7995 54.9411 30.6111V29.6836H54.6657V30.6111ZM57.3834 29.6596C57.3615 29.6604 57.3401 29.6662 57.3208 29.6767C57.3015 29.6871 57.2848 29.7019 57.272 29.7198L56.7333 30.4906L56.1945 29.7198C56.1807 29.7042 56.1637 29.6919 56.1447 29.6836C56.1257 29.6752 56.1051 29.6712 56.0844 29.6716C56.0463 29.6716 56.0098 29.6868 55.9828 29.7139C55.9559 29.741 55.9407 29.7778 55.9407 29.8161V31.3096H56.2161V30.1895L56.7309 30.9363L57.2457 30.1895V31.2976H57.521V29.8041C57.521 29.7658 57.5059 29.729 57.479 29.7019C57.452 29.6748 57.4155 29.6596 57.3774 29.6596M44.262 32.7068H44.6332V33.574H44.8247V32.7068H45.1959V32.5261H44.262V32.7068ZM46.4529 33.044C46.4529 33.143 46.4138 33.238 46.3442 33.308C46.2746 33.3781 46.1802 33.4174 46.0818 33.4174C45.9834 33.4174 45.889 33.3781 45.8194 33.308C45.7498 33.238 45.7107 33.143 45.7107 33.044C45.7091 32.9976 45.7168 32.9513 45.7332 32.9078C45.7496 32.8644 45.7745 32.8247 45.8064 32.7911C45.8781 32.7197 45.9749 32.6797 46.0758 32.6797C46.1767 32.6797 46.2734 32.7197 46.3452 32.7911C46.3779 32.8243 46.4037 32.8638 46.421 32.9073C46.4382 32.9507 46.4467 32.9972 46.4457 33.044H46.4529ZM46.0818 32.502C46.009 32.4988 45.9364 32.5104 45.8683 32.5362C45.8001 32.5619 45.7379 32.6013 45.6853 32.652C45.6327 32.7027 45.5908 32.7635 45.5623 32.8309C45.5337 32.8983 45.519 32.9708 45.5191 33.044C45.5143 33.1569 45.5432 33.2686 45.6021 33.3648C45.6609 33.461 45.747 33.5373 45.8493 33.5839C45.9516 33.6304 46.0655 33.6451 46.1761 33.6261C46.2868 33.607 46.3893 33.5551 46.4704 33.477C46.5515 33.3989 46.6075 33.2981 46.6313 33.1877C46.655 33.0773 46.6453 32.9623 46.6035 32.8574C46.5617 32.7526 46.4897 32.6627 46.3967 32.5994C46.3038 32.536 46.1941 32.5021 46.0818 32.502ZM47.6022 33.3933H47.2191V33.1404H47.6022C47.6352 33.1402 47.667 33.1525 47.6914 33.1748C47.7157 33.1971 47.7309 33.2278 47.7339 33.2608C47.7339 33.296 47.72 33.3297 47.6954 33.3545C47.6707 33.3793 47.6372 33.3933 47.6022 33.3933ZM47.2191 32.7068H47.5663C47.586 32.7006 47.6069 32.6991 47.6273 32.7026C47.6477 32.706 47.6669 32.7142 47.6836 32.7265C47.7002 32.7388 47.7138 32.7549 47.7231 32.7734C47.7324 32.792 47.7373 32.8125 47.7373 32.8332C47.7373 32.854 47.7324 32.8745 47.7231 32.893C47.7138 32.9116 47.7002 32.9277 47.6836 32.94C47.6669 32.9523 47.6477 32.9605 47.6273 32.9639C47.6069 32.9673 47.586 32.9659 47.5663 32.9597H47.2191V32.7068ZM47.7938 33.032C47.8241 33.0075 47.8483 32.9762 47.8646 32.9407C47.8808 32.9052 47.8887 32.8663 47.8875 32.8272C47.8844 32.7445 47.8489 32.6664 47.7887 32.61C47.7285 32.5536 47.6485 32.5234 47.5663 32.5261H47.1353C47.1225 32.5256 47.1096 32.5278 47.0976 32.5324C47.0856 32.537 47.0746 32.5441 47.0653 32.5531C47.0561 32.5621 47.0487 32.5728 47.0437 32.5848C47.0387 32.5967 47.0361 32.6095 47.0361 32.6225V33.4776C47.0361 33.4906 47.0387 33.5034 47.0437 33.5153C47.0487 33.5272 47.0561 33.538 47.0653 33.547C47.0746 33.556 47.0856 33.563 47.0976 33.5677C47.1096 33.5723 47.1225 33.5744 47.1353 33.574H47.6022C47.6441 33.5756 47.6859 33.5687 47.725 33.5537C47.7642 33.5387 47.7999 33.5159 47.8301 33.4866C47.8603 33.4574 47.8843 33.4223 47.9007 33.3835C47.9171 33.3447 47.9255 33.303 47.9255 33.2608C47.9266 33.2142 47.915 33.1681 47.8917 33.1277C47.8685 33.0873 47.8346 33.0542 47.7938 33.032ZM48.6558 33.1524L48.7994 32.8393L48.9311 33.1524H48.6558ZM48.7994 32.5141C48.7812 32.515 48.7636 32.5212 48.7488 32.5319C48.734 32.5425 48.7224 32.5573 48.7156 32.5743L48.2727 33.586H48.4762L48.5839 33.3331H49.003L49.1107 33.574V33.586H49.3142L48.8713 32.5743C48.8644 32.5573 48.8529 32.5425 48.8381 32.5319C48.8232 32.5212 48.8057 32.515 48.7875 32.5141M50.4635 33.2608C50.4143 33.3177 50.3496 33.3588 50.2774 33.3791C50.2052 33.3993 50.1287 33.3978 50.0573 33.3748C49.9859 33.3517 49.9228 33.308 49.8759 33.2493C49.8289 33.1905 49.8001 33.1191 49.7931 33.044C49.7931 32.9955 49.8028 32.9475 49.8215 32.9029C49.8403 32.8583 49.8679 32.8179 49.9025 32.7842C49.9371 32.7504 49.9782 32.7241 50.0231 32.7067C50.0681 32.6892 50.1161 32.6811 50.1642 32.6827C50.2189 32.6821 50.273 32.6937 50.3226 32.7166C50.3723 32.7395 50.4163 32.7732 50.4516 32.8152L50.4635 32.8272L50.6072 32.7068L50.5952 32.6947C50.5429 32.6347 50.4784 32.5865 50.4062 32.5533C50.334 32.52 50.2556 32.5026 50.1762 32.502C50.1035 32.4988 50.0308 32.5104 49.9627 32.5362C49.8945 32.5619 49.8323 32.6013 49.7797 32.652C49.7271 32.7027 49.6853 32.7635 49.6567 32.8309C49.6281 32.8983 49.6135 32.9708 49.6135 33.044C49.6183 33.1598 49.6582 33.2713 49.7279 33.3635C49.7977 33.4558 49.8939 33.5242 50.0036 33.5597C50.1132 33.5951 50.231 33.5959 50.3411 33.5618C50.4512 33.5278 50.5483 33.4605 50.6192 33.3692L50.6311 33.3572L50.4875 33.2367L50.4635 33.2608ZM51.7565 33.2608C51.7073 33.3177 51.6426 33.3588 51.5704 33.3791C51.4982 33.3993 51.4216 33.3978 51.3503 33.3748C51.2789 33.3517 51.2158 33.308 51.1689 33.2493C51.1219 33.1905 51.0931 33.1191 51.0861 33.044C51.0861 32.9955 51.0957 32.9475 51.1145 32.9029C51.1333 32.8583 51.1608 32.8179 51.1955 32.7842C51.2301 32.7504 51.2711 32.7241 51.3161 32.7067C51.3611 32.6892 51.4091 32.6811 51.4572 32.6827C51.5119 32.6821 51.5659 32.6937 51.6156 32.7166C51.6653 32.7395 51.7093 32.7732 51.7445 32.8152L51.7565 32.8272L51.9002 32.7068L51.8882 32.6947C51.8358 32.6347 51.7714 32.5865 51.6992 32.5533C51.627 32.52 51.5486 32.5026 51.4692 32.502C51.3965 32.4988 51.3238 32.5104 51.2557 32.5362C51.1875 32.5619 51.1253 32.6013 51.0727 32.652C51.0201 32.7027 50.9782 32.7635 50.9497 32.8309C50.9211 32.8983 50.9064 32.9708 50.9065 33.044C50.9112 33.1598 50.9512 33.2713 51.0209 33.3635C51.0907 33.4558 51.1869 33.5242 51.2965 33.5597C51.4062 33.5951 51.524 33.5959 51.6341 33.5618C51.7442 33.5278 51.8413 33.4605 51.9122 33.3692L51.9241 33.3572L51.7685 33.2488L51.7565 33.2608ZM53.0974 33.044C53.0974 33.143 53.0583 33.238 52.9887 33.308C52.9191 33.3781 52.8247 33.4174 52.7263 33.4174C52.6278 33.4174 52.5334 33.3781 52.4638 33.308C52.3942 33.238 52.3551 33.143 52.3551 33.044C52.3536 32.9976 52.3612 32.9513 52.3777 32.9078C52.3941 32.8644 52.419 32.8247 52.4509 32.7911C52.5226 32.7197 52.6194 32.6797 52.7203 32.6797C52.8211 32.6797 52.9179 32.7197 52.9896 32.7911C53.0224 32.8243 53.0482 32.8638 53.0654 32.9073C53.0827 32.9507 53.0911 32.9972 53.0902 33.044H53.0974ZM52.7263 32.502C52.6535 32.4988 52.5809 32.5104 52.5127 32.5362C52.4446 32.5619 52.3823 32.6013 52.3297 32.652C52.2771 32.7027 52.2353 32.7635 52.2067 32.8309C52.1782 32.8983 52.1635 32.9708 52.1636 33.044C52.1588 33.1569 52.1877 33.2686 52.2465 33.3648C52.3054 33.461 52.3915 33.5373 52.4938 33.5839C52.5961 33.6304 52.7099 33.6451 52.8206 33.6261C52.9313 33.607 53.0338 33.5551 53.1149 33.477C53.196 33.3989 53.252 33.2981 53.2757 33.1877C53.2994 33.0773 53.2898 32.9623 53.248 32.8574C53.2062 32.7526 53.1342 32.6627 53.0412 32.5994C52.9482 32.536 52.8385 32.5021 52.7263 32.502Z" fill="black"/>
<path d="M46.1541 27.6479L49.0633 27.142L47.052 25.6485L46.1541 27.6479Z" fill="#0065A7"/>
<path d="M47.0638 25.6004L49.0632 27.0578L50.4639 25.769L47.0638 25.6004Z" fill="#0678AC"/>
<path d="M50.5238 25.6242L51.4217 23.2394L48.2252 23.8898L50.5238 25.6242Z" fill="#2EB56A"/>
<path d="M48.3808 23.7939L51.5773 23.1676L49.3146 22.6497L48.3808 23.7939Z" fill="#A5CE40"/>
<path d="M49.2906 22.5654L51.5653 23.1074L51.7569 20L49.2906 22.5654Z" fill="#F5E431"/>
<path d="M45.5674 25.1183L46.1181 27.5994L47.004 25.588L45.5674 25.1183Z" fill="#9072B3"/>
<path d="M48.0932 23.9745L45.6269 25.0705L46.9798 25.5282L48.0932 23.9745Z" fill="#9360A8"/>
<path d="M46.3692 22.8902L45.6269 24.9619L48.2009 23.8538L46.3692 22.8902Z" fill="#DF599C"/>
<path d="M46.4651 22.8304L48.2011 22.7099L49.2187 22.5895L48.4884 21.3248L46.4651 22.8304Z" fill="#F89A29"/>
<path d="M48.5004 21.2044L49.2427 22.4932L51.6969 20L48.5004 21.2044Z" fill="#FCBC1B"/>
<path d="M46.4651 22.8785L48.2969 23.7939L49.2427 22.6497L46.4651 22.8785Z" fill="#F16165"/>
<path d="M48.1653 23.9745L47.0638 25.5523L50.4639 25.733L48.1653 23.9745Z" fill="#1DA6BA"/>
</svg>
