<svg width="97" height="57" viewBox="0 0 97 57" fill="none" xmlns="http://www.w3.org/2000/svg">
<path d="M49.0467 49.8357C43.3255 50.0352 37.7593 47.9572 33.5725 44.059C29.3857 40.1607 26.9214 34.7615 26.7216 29.049C26.5218 23.3366 28.603 17.7788 32.5072 13.5985C36.4114 9.41812 41.8189 6.95754 47.5401 6.75806L47.8038 14.2966C44.085 14.4263 40.5701 16.0257 38.0324 18.7429C35.4946 21.4602 34.1419 25.0727 34.2717 28.7858C34.4016 32.4989 36.0034 36.0084 38.7248 38.5422C41.4462 41.0761 45.0643 42.4268 48.7831 42.2971L49.0467 49.8357Z" fill="#9B001C"/>
<path d="M47.5401 6.75806C50.373 6.65928 53.1976 7.1186 55.8526 8.10977C58.5077 9.10094 60.9412 10.6046 63.0143 12.5348C65.0874 14.465 66.7594 16.784 67.9349 19.3594C69.1104 21.9348 69.7663 24.7162 69.8652 27.5447C69.9641 30.3732 69.5041 33.1935 68.5114 35.8445C67.5187 38.4955 66.0128 40.9253 64.0796 42.9953C62.1465 45.0652 59.8239 46.7346 57.2445 47.9083C54.6652 49.082 51.8796 49.7369 49.0467 49.8357L48.7831 42.2971C50.6244 42.2329 52.4351 41.8072 54.1116 41.0443C55.7882 40.2814 57.2979 39.1963 58.5545 37.8508C59.811 36.5054 60.7899 34.926 61.4351 33.2028C62.0804 31.4797 62.3794 29.6465 62.3151 27.808C62.2508 25.9694 61.8244 24.1615 61.0604 22.4875C60.2963 20.8135 59.2095 19.3062 57.862 18.0515C56.5145 16.7969 54.9327 15.8195 53.2069 15.1753C51.4811 14.531 49.6451 14.2324 47.8038 14.2966L47.5401 6.75806Z" fill="#440501"/>
<path d="M35.7872 12.5467L33.2452 9.28345H22.7141" stroke="black" stroke-width="0.145684"/>
<path d="M2.13507 5.13655C2.13507 5.16631 2.12019 5.18118 2.09043 5.18118H0.755916C0.744014 5.18118 0.738063 5.18713 0.738063 5.19904V6.30593C0.738063 6.31783 0.744014 6.32378 0.755916 6.32378H1.65303C1.68279 6.32378 1.69767 6.33866 1.69767 6.36841V6.55587C1.69767 6.58562 1.68279 6.6005 1.65303 6.6005H0.755916C0.744014 6.6005 0.738063 6.60645 0.738063 6.61836V7.98411C0.738063 8.01387 0.723186 8.02875 0.693431 8.02875H0.465804C0.436049 8.02875 0.421171 8.01387 0.421171 7.98411V4.94909C0.421171 4.91934 0.436049 4.90446 0.465804 4.90446H2.09043C2.12019 4.90446 2.13507 4.91934 2.13507 4.94909V5.13655ZM2.63642 8.02875C2.60666 8.02875 2.59178 8.01387 2.59178 7.98411V4.94909C2.59178 4.91934 2.60666 4.90446 2.63642 4.90446H2.86404C2.8938 4.90446 2.90868 4.91934 2.90868 4.94909V7.98411C2.90868 8.01387 2.8938 8.02875 2.86404 8.02875H2.63642ZM5.18184 8.02875C5.15803 8.02875 5.14167 8.01685 5.13274 7.99304L4.5793 6.61389C4.57632 6.60497 4.57037 6.6005 4.56144 6.6005H3.98568C3.97378 6.6005 3.96783 6.60645 3.96783 6.61836V7.98411C3.96783 8.01387 3.95295 8.02875 3.9232 8.02875H3.69557C3.66581 8.02875 3.65094 8.01387 3.65094 7.98411V4.94909C3.65094 4.91934 3.66581 4.90446 3.69557 4.90446H4.64178C4.79651 4.90446 4.93338 4.94017 5.0524 5.01158C5.1744 5.08299 5.26813 5.18416 5.33359 5.31508C5.40203 5.446 5.43624 5.59627 5.43624 5.76587C5.43624 5.96821 5.38715 6.14079 5.28896 6.28361C5.19076 6.42643 5.05687 6.52165 4.88726 6.56926C4.87536 6.57521 4.87238 6.58265 4.87834 6.59158L5.4541 7.97519L5.45856 7.99304C5.45856 8.01685 5.44517 8.02875 5.41839 8.02875H5.18184ZM3.98568 5.18118C3.97378 5.18118 3.96783 5.18713 3.96783 5.19904V6.32824C3.96783 6.34015 3.97378 6.3461 3.98568 6.3461H4.60161C4.75634 6.3461 4.88131 6.29254 4.97653 6.18542C5.07174 6.0783 5.11935 5.93845 5.11935 5.76587C5.11935 5.59032 5.07174 5.44898 4.97653 5.34186C4.88131 5.23474 4.75634 5.18118 4.60161 5.18118H3.98568ZM7.72733 5.13655C7.72733 5.16631 7.71245 5.18118 7.6827 5.18118H6.34372C6.33181 5.18118 6.32586 5.18713 6.32586 5.19904V6.30593C6.32586 6.31783 6.33181 6.32378 6.34372 6.32378H7.2453C7.27505 6.32378 7.28993 6.33866 7.28993 6.36841V6.55587C7.28993 6.58562 7.27505 6.6005 7.2453 6.6005H6.34372C6.33181 6.6005 6.32586 6.60645 6.32586 6.61836V7.73417C6.32586 7.74607 6.33181 7.75203 6.34372 7.75203H7.6827C7.71245 7.75203 7.72733 7.7669 7.72733 7.79666V7.98411C7.72733 8.01387 7.71245 8.02875 7.6827 8.02875H6.0536C6.02385 8.02875 6.00897 8.01387 6.00897 7.98411V4.94909C6.00897 4.91934 6.02385 4.90446 6.0536 4.90446H7.6827C7.71245 4.90446 7.72733 4.91934 7.72733 4.94909V5.13655ZM9.73489 8.02875C9.70811 8.02875 9.69175 8.01536 9.6858 7.98858L8.96721 4.95356L8.96275 4.9357C8.96275 4.91488 8.97614 4.90446 9.00292 4.90446H9.24393C9.27071 4.90446 9.28708 4.91785 9.29303 4.94463L9.83755 7.3414C9.84052 7.35033 9.8435 7.35479 9.84647 7.35479C9.85243 7.35479 9.85689 7.35033 9.85986 7.3414L10.3553 4.94463C10.3612 4.91785 10.3776 4.90446 10.4044 4.90446H10.6275C10.6573 4.90446 10.6737 4.91785 10.6766 4.94463L11.1899 7.3414C11.1929 7.35033 11.1959 7.35479 11.1988 7.35479C11.2018 7.35479 11.2048 7.35033 11.2078 7.3414L11.7389 4.94463C11.7449 4.91785 11.7612 4.90446 11.788 4.90446H12.0201C12.0498 4.90446 12.0617 4.92083 12.0558 4.95356L11.3595 7.98858C11.3536 8.01536 11.3372 8.02875 11.3104 8.02875H11.0828C11.056 8.02875 11.0397 8.01536 11.0337 7.98858L10.5249 5.5561C10.5219 5.54717 10.5189 5.54271 10.516 5.54271C10.513 5.54271 10.51 5.54717 10.507 5.5561L10.0027 7.98858C9.99971 8.01536 9.98335 8.02875 9.95359 8.02875H9.73489ZM12.6047 8.02875C12.5749 8.02875 12.56 8.01387 12.56 7.98411V4.94909C12.56 4.91934 12.5749 4.90446 12.6047 4.90446H12.8323C12.8621 4.90446 12.8769 4.91934 12.8769 4.94909V7.98411C12.8769 8.01387 12.8621 8.02875 12.8323 8.02875H12.6047ZM15.1724 4.94909C15.1724 4.91934 15.1873 4.90446 15.217 4.90446H15.4447C15.4744 4.90446 15.4893 4.91934 15.4893 4.94909V7.98411C15.4893 8.01387 15.4744 8.02875 15.4447 8.02875H15.2036C15.1769 8.02875 15.159 8.01833 15.1501 7.9975L13.9539 5.60966C13.948 5.60371 13.942 5.60073 13.9361 5.60073C13.9331 5.60073 13.9316 5.60519 13.9316 5.61412L13.9361 7.98411C13.9361 8.01387 13.9212 8.02875 13.8914 8.02875H13.6638C13.6341 8.02875 13.6192 8.01387 13.6192 7.98411V4.94909C13.6192 4.91934 13.6341 4.90446 13.6638 4.90446H13.9048C13.9316 4.90446 13.9495 4.91488 13.9584 4.9357L15.1546 7.33248C15.1605 7.33843 15.165 7.3414 15.1679 7.3414C15.1739 7.3414 15.1769 7.33694 15.1769 7.32801L15.1724 4.94909ZM17.9179 5.13655C17.9179 5.16631 17.903 5.18118 17.8732 5.18118H16.5343C16.5224 5.18118 16.5164 5.18713 16.5164 5.19904V6.30593C16.5164 6.31783 16.5224 6.32378 16.5343 6.32378H17.4358C17.4656 6.32378 17.4805 6.33866 17.4805 6.36841V6.55587C17.4805 6.58562 17.4656 6.6005 17.4358 6.6005H16.5343C16.5224 6.6005 16.5164 6.60645 16.5164 6.61836V7.73417C16.5164 7.74607 16.5224 7.75203 16.5343 7.75203H17.8732C17.903 7.75203 17.9179 7.7669 17.9179 7.79666V7.98411C17.9179 8.01387 17.903 8.02875 17.8732 8.02875H16.2441C16.2144 8.02875 16.1995 8.01387 16.1995 7.98411V4.94909C16.1995 4.91934 16.2144 4.90446 16.2441 4.90446H17.8732C17.903 4.90446 17.9179 4.91934 17.9179 4.94909V5.13655ZM20.8359 6.58711C20.8746 6.72696 20.894 6.88764 20.894 7.06915C20.894 7.2209 20.8806 7.35182 20.8538 7.46191C20.8092 7.65532 20.7199 7.8041 20.586 7.90824C20.4551 8.01238 20.2899 8.06445 20.0906 8.06445C19.8882 8.06445 19.7201 8.01089 19.5862 7.90378C19.4523 7.79666 19.3646 7.64639 19.3229 7.45299C19.308 7.39943 19.2991 7.34438 19.2961 7.28785V7.27892C19.2961 7.25511 19.3095 7.24321 19.3363 7.24321H19.5684C19.5952 7.24321 19.61 7.25511 19.613 7.27892V7.29677L19.6309 7.38604C19.6576 7.51398 19.7097 7.61218 19.7871 7.68061C19.8674 7.74905 19.9686 7.78327 20.0906 7.78327C20.2096 7.78327 20.3078 7.74905 20.3852 7.68061C20.4655 7.6092 20.5191 7.50952 20.5458 7.38157C20.5667 7.29826 20.5771 7.1956 20.5771 7.07361C20.5771 6.96054 20.5652 6.84449 20.5414 6.72547C20.5146 6.60645 20.4625 6.51719 20.3852 6.45768C20.3078 6.39519 20.2096 6.36395 20.0906 6.36395C19.9775 6.36395 19.8793 6.39073 19.796 6.44429C19.7157 6.49487 19.6591 6.56926 19.6264 6.66745L19.6175 6.6853C19.6145 6.70613 19.5996 6.71655 19.5728 6.71655H19.3363C19.3065 6.71655 19.2917 6.70167 19.2917 6.67191V4.94909C19.2917 4.91934 19.3065 4.90446 19.3363 4.90446H20.7511C20.7809 4.90446 20.7958 4.91934 20.7958 4.94909V5.13655C20.7958 5.16631 20.7809 5.18118 20.7511 5.18118H19.6264C19.6145 5.18118 19.6085 5.18713 19.6085 5.19904V6.29254C19.6085 6.29849 19.61 6.30295 19.613 6.30593C19.619 6.30593 19.6249 6.30295 19.6309 6.297C19.6904 6.23154 19.7648 6.18096 19.854 6.14525C19.9463 6.10657 20.0445 6.08723 20.1486 6.08723C20.3242 6.08723 20.47 6.13037 20.586 6.21666C20.705 6.29998 20.7883 6.42346 20.8359 6.58711ZM22.2059 8.07338C21.95 8.07338 21.7447 7.99602 21.59 7.84129C21.4352 7.68656 21.3579 7.47977 21.3579 7.2209V5.71231C21.3579 5.45642 21.4352 5.25111 21.59 5.09638C21.7447 4.94165 21.95 4.86429 22.2059 4.86429C22.4648 4.86429 22.6716 4.94165 22.8263 5.09638C22.984 5.25111 23.0628 5.45642 23.0628 5.71231V7.2209C23.0628 7.47977 22.984 7.68656 22.8263 7.84129C22.6716 7.99602 22.4648 8.07338 22.2059 8.07338ZM22.2059 7.79666C22.3695 7.79666 22.5005 7.74607 22.5987 7.64491C22.6968 7.54374 22.7459 7.40984 22.7459 7.24321V5.69446C22.7459 5.52783 22.6968 5.39393 22.5987 5.29277C22.5005 5.1916 22.3695 5.14101 22.2059 5.14101C22.0482 5.14101 21.9202 5.1916 21.822 5.29277C21.7239 5.39393 21.6748 5.52783 21.6748 5.69446V7.24321C21.6748 7.40687 21.7239 7.54076 21.822 7.64491C21.9202 7.74607 22.0482 7.79666 22.2059 7.79666ZM24.3389 6.13186C24.2229 6.13186 24.1157 6.10359 24.0176 6.04706C23.9223 5.99052 23.8465 5.91465 23.7899 5.81943C23.7334 5.72124 23.7051 5.61412 23.7051 5.49808C23.7051 5.38203 23.7334 5.2764 23.7899 5.18118C23.8465 5.08299 23.9223 5.00563 24.0176 4.94909C24.1157 4.89256 24.2229 4.86429 24.3389 4.86429C24.452 4.86429 24.5561 4.89256 24.6513 4.94909C24.7495 5.00563 24.8269 5.08299 24.8834 5.18118C24.94 5.2764 24.9682 5.38203 24.9682 5.49808C24.9682 5.61412 24.94 5.72124 24.8834 5.81943C24.8269 5.91465 24.7495 5.99052 24.6513 6.04706C24.5561 6.10359 24.452 6.13186 24.3389 6.13186ZM24.2363 8.02875C24.2214 8.02875 24.2095 8.02428 24.2005 8.01536C24.1946 8.00346 24.1961 7.99007 24.205 7.97519L25.8653 4.9357C25.8743 4.91488 25.8921 4.90446 25.9189 4.90446H26.0617C26.0766 4.90446 26.087 4.91041 26.093 4.92231C26.1019 4.93124 26.1019 4.94314 26.093 4.95802L24.4326 7.9975C24.4237 8.01833 24.4059 8.02875 24.3791 8.02875H24.2363ZM24.3389 5.93548C24.4579 5.93548 24.5576 5.89382 24.6379 5.8105C24.7213 5.72421 24.7629 5.62007 24.7629 5.49808C24.7629 5.37608 24.7213 5.27342 24.6379 5.19011C24.5576 5.10382 24.4579 5.06068 24.3389 5.06068C24.2199 5.06068 24.1187 5.10382 24.0354 5.19011C23.9521 5.27342 23.9104 5.37608 23.9104 5.49808C23.9104 5.62007 23.9521 5.72421 24.0354 5.8105C24.1187 5.89382 24.2199 5.93548 24.3389 5.93548ZM25.9769 8.06892C25.8609 8.06892 25.7538 8.04065 25.6556 7.98411C25.5604 7.92758 25.4845 7.85022 25.4279 7.75203C25.3714 7.65383 25.3431 7.54671 25.3431 7.43067C25.3431 7.3176 25.3714 7.21346 25.4279 7.11824C25.4845 7.02005 25.5604 6.94269 25.6556 6.88615C25.7538 6.82962 25.8609 6.80135 25.9769 6.80135C26.09 6.80135 26.1941 6.82962 26.2894 6.88615C26.3875 6.94269 26.4649 7.02005 26.5214 7.11824C26.578 7.21346 26.6062 7.3176 26.6062 7.43067C26.6062 7.54671 26.578 7.65383 26.5214 7.75203C26.4649 7.85022 26.3875 7.92758 26.2894 7.98411C26.1941 8.04065 26.09 8.06892 25.9769 8.06892ZM25.9769 7.87253C26.0959 7.87253 26.1956 7.82939 26.276 7.7431C26.3593 7.65681 26.4009 7.55267 26.4009 7.43067C26.4009 7.30867 26.3593 7.20602 26.276 7.1227C26.1956 7.03939 26.0959 6.99773 25.9769 6.99773C25.8579 6.99773 25.7567 7.03939 25.6734 7.1227C25.5901 7.20602 25.5485 7.30867 25.5485 7.43067C25.5485 7.55564 25.5886 7.66127 25.669 7.74756C25.7523 7.83088 25.8549 7.87253 25.9769 7.87253Z" fill="#404040"/>
<path d="M63.906 41.884L66.448 45.1472H76.9791" stroke="black" stroke-width="0.145684"/>
<path d="M68.8804 43.7442C68.6096 43.7442 68.3909 43.6639 68.2243 43.5032C68.0607 43.3425 67.9788 43.1298 67.9788 42.865V41.4233C67.9788 41.1585 68.0607 40.9473 68.2243 40.7896C68.3909 40.6289 68.6096 40.5485 68.8804 40.5485C69.1542 40.5485 69.3729 40.6274 69.5365 40.7851C69.7031 40.9428 69.7864 41.1526 69.7864 41.4144V41.4546C69.7864 41.4843 69.7716 41.4992 69.7418 41.4992L69.5142 41.5081C69.4844 41.5081 69.4696 41.4947 69.4696 41.468V41.4055C69.4696 41.2329 69.4145 41.0931 69.3044 40.9859C69.1973 40.8788 69.056 40.8253 68.8804 40.8253C68.7049 40.8253 68.5635 40.8788 68.4564 40.9859C68.3493 41.0901 68.2957 41.2299 68.2957 41.4055V42.8873C68.2957 43.0628 68.3493 43.2042 68.4564 43.3113C68.5635 43.4154 68.7049 43.4675 68.8804 43.4675C69.056 43.4675 69.1973 43.414 69.3044 43.3068C69.4145 43.1997 69.4696 43.0599 69.4696 42.8873V42.8248C69.4696 42.798 69.4844 42.7846 69.5142 42.7846L69.7418 42.798C69.7716 42.798 69.7864 42.8129 69.7864 42.8427V42.8739C69.7864 43.1357 69.7031 43.347 69.5365 43.5077C69.3729 43.6654 69.1542 43.7442 68.8804 43.7442ZM71.9173 43.7085C71.8905 43.7085 71.8741 43.6951 71.8682 43.6684L71.7209 43.1104C71.7179 43.1015 71.7105 43.0971 71.6986 43.0971H70.6319C70.62 43.0971 70.6125 43.1015 70.6095 43.1104L70.4622 43.6684C70.4563 43.6951 70.4399 43.7085 70.4132 43.7085H70.1811C70.1662 43.7085 70.1543 43.7041 70.1454 43.6951C70.1394 43.6862 70.1379 43.6743 70.1409 43.6594L70.9755 40.6244C70.9815 40.5976 70.9978 40.5842 71.0246 40.5842H71.3103C71.337 40.5842 71.3534 40.5976 71.3594 40.6244L72.194 43.6594L72.1985 43.6728C72.1985 43.6966 72.1836 43.7085 72.1538 43.7085H71.9173ZM70.6854 42.8203C70.6824 42.8233 70.6824 42.8278 70.6854 42.8337C70.6914 42.8367 70.6973 42.8382 70.7033 42.8382H71.6272C71.6331 42.8382 71.6376 42.8367 71.6406 42.8337C71.6465 42.8278 71.648 42.8233 71.645 42.8203L71.1719 41.0261C71.1689 41.0202 71.166 41.0172 71.163 41.0172C71.16 41.0172 71.157 41.0202 71.1541 41.0261L70.6854 42.8203ZM74.2016 43.7085C74.1778 43.7085 74.1615 43.6966 74.1525 43.6728L73.5991 42.2937C73.5961 42.2847 73.5902 42.2803 73.5812 42.2803H73.0055C72.9936 42.2803 72.9876 42.2862 72.9876 42.2981V43.6639C72.9876 43.6936 72.9727 43.7085 72.943 43.7085H72.7154C72.6856 43.7085 72.6707 43.6936 72.6707 43.6639V40.6289C72.6707 40.5991 72.6856 40.5842 72.7154 40.5842H73.6616C73.8163 40.5842 73.9532 40.6199 74.0722 40.6914C74.1942 40.7628 74.2879 40.8639 74.3534 40.9949C74.4218 41.1258 74.456 41.276 74.456 41.4457C74.456 41.648 74.4069 41.8206 74.3087 41.9634C74.2106 42.1062 74.0767 42.2014 73.9071 42.249C73.8952 42.255 73.8922 42.2624 73.8981 42.2714L74.4739 43.655L74.4784 43.6728C74.4784 43.6966 74.465 43.7085 74.4382 43.7085H74.2016ZM73.0055 40.861C72.9936 40.861 72.9876 40.8669 72.9876 40.8788V42.008C72.9876 42.0199 72.9936 42.0259 73.0055 42.0259H73.6214C73.7761 42.0259 73.9011 41.9723 73.9963 41.8652C74.0915 41.7581 74.1391 41.6182 74.1391 41.4457C74.1391 41.2701 74.0915 41.1288 73.9963 41.0216C73.9011 40.9145 73.7761 40.861 73.6214 40.861H73.0055ZM75.0734 43.7085C75.0436 43.7085 75.0288 43.6936 75.0288 43.6639V40.6289C75.0288 40.5991 75.0436 40.5842 75.0734 40.5842H75.301C75.3308 40.5842 75.3457 40.5991 75.3457 40.6289V43.6639C75.3457 43.6936 75.3308 43.7085 75.301 43.7085H75.0734ZM77.4403 42.0794C77.4254 42.0854 77.4254 42.0928 77.4403 42.1018C77.5801 42.1702 77.6873 42.2684 77.7616 42.3963C77.839 42.5243 77.8792 42.679 77.8822 42.8605C77.8822 43.1283 77.8018 43.3366 77.6411 43.4854C77.4834 43.6341 77.2737 43.7085 77.0118 43.7085H76.1326C76.1028 43.7085 76.0879 43.6936 76.0879 43.6639V40.6289C76.0879 40.5991 76.1028 40.5842 76.1326 40.5842H76.9761C77.2499 40.5842 77.4641 40.6557 77.6188 40.7985C77.7735 40.9383 77.8509 41.1392 77.8509 41.401C77.8509 41.5676 77.8152 41.7075 77.7438 41.8206C77.6754 41.9336 77.5742 42.0199 77.4403 42.0794ZM76.4227 40.861C76.4108 40.861 76.4048 40.8669 76.4048 40.8788V41.9545C76.4048 41.9664 76.4108 41.9723 76.4227 41.9723H76.9806C77.1532 41.9723 77.2885 41.9232 77.3867 41.825C77.4879 41.7268 77.5385 41.5944 77.5385 41.4278C77.5385 41.2522 77.4879 41.1139 77.3867 41.0127C77.2885 40.9115 77.1532 40.861 76.9806 40.861H76.4227ZM77.0029 43.4273C77.1755 43.4273 77.3123 43.3738 77.4135 43.2667C77.5147 43.1595 77.5653 43.0137 77.5653 42.8293C77.5653 42.6418 77.5132 42.4945 77.409 42.3874C77.3079 42.2803 77.1695 42.2267 76.994 42.2267H76.4227C76.4108 42.2267 76.4048 42.2327 76.4048 42.2446V43.4095C76.4048 43.4214 76.4108 43.4273 76.4227 43.4273H77.0029ZM79.8245 42.0794C79.8096 42.0854 79.8096 42.0928 79.8245 42.1018C79.9643 42.1702 80.0714 42.2684 80.1458 42.3963C80.2232 42.5243 80.2634 42.679 80.2663 42.8605C80.2663 43.1283 80.186 43.3366 80.0253 43.4854C79.8676 43.6341 79.6578 43.7085 79.396 43.7085H78.5167C78.487 43.7085 78.4721 43.6936 78.4721 43.6639V40.6289C78.4721 40.5991 78.487 40.5842 78.5167 40.5842H79.3603C79.634 40.5842 79.8483 40.6557 80.003 40.7985C80.1577 40.9383 80.2351 41.1392 80.2351 41.401C80.2351 41.5676 80.1994 41.7075 80.128 41.8206C80.0595 41.9336 79.9584 42.0199 79.8245 42.0794ZM78.8068 40.861C78.7949 40.861 78.789 40.8669 78.789 40.8788V41.9545C78.789 41.9664 78.7949 41.9723 78.8068 41.9723H79.3648C79.5373 41.9723 79.6727 41.9232 79.7709 41.825C79.8721 41.7268 79.9227 41.5944 79.9227 41.4278C79.9227 41.2522 79.8721 41.1139 79.7709 41.0127C79.6727 40.9115 79.5373 40.861 79.3648 40.861H78.8068ZM79.3871 43.4273C79.5597 43.4273 79.6965 43.3738 79.7977 43.2667C79.8989 43.1595 79.9494 43.0137 79.9494 42.8293C79.9494 42.6418 79.8974 42.4945 79.7932 42.3874C79.6921 42.2803 79.5537 42.2267 79.3781 42.2267H78.8068C78.7949 42.2267 78.789 42.2327 78.789 42.2446V43.4095C78.789 43.4214 78.7949 43.4273 78.8068 43.4273H79.3871ZM82.5746 40.8163C82.5746 40.8461 82.5598 40.861 82.53 40.861H81.191C81.1791 40.861 81.1732 40.8669 81.1732 40.8788V41.9857C81.1732 41.9976 81.1791 42.0036 81.191 42.0036H82.0926C82.1224 42.0036 82.1372 42.0184 82.1372 42.0482V42.2356C82.1372 42.2654 82.1224 42.2803 82.0926 42.2803H81.191C81.1791 42.2803 81.1732 42.2862 81.1732 42.2981V43.414C81.1732 43.4259 81.1791 43.4318 81.191 43.4318H82.53C82.5598 43.4318 82.5746 43.4467 82.5746 43.4764V43.6639C82.5746 43.6936 82.5598 43.7085 82.53 43.7085H80.9009C80.8712 43.7085 80.8563 43.6936 80.8563 43.6639V40.6289C80.8563 40.5991 80.8712 40.5842 80.9009 40.5842H82.53C82.5598 40.5842 82.5746 40.5991 82.5746 40.6289V40.8163ZM84.7274 43.7085C84.7006 43.7085 84.6842 43.6951 84.6783 43.6684L84.531 43.1104C84.528 43.1015 84.5206 43.0971 84.5087 43.0971H83.442C83.43 43.0971 83.4226 43.1015 83.4196 43.1104L83.2723 43.6684C83.2664 43.6951 83.25 43.7085 83.2233 43.7085H82.9912C82.9763 43.7085 82.9644 43.7041 82.9555 43.6951C82.9495 43.6862 82.948 43.6743 82.951 43.6594L83.7856 40.6244C83.7916 40.5976 83.8079 40.5842 83.8347 40.5842H84.1204C84.1471 40.5842 84.1635 40.5976 84.1695 40.6244L85.0041 43.6594L85.0086 43.6728C85.0086 43.6966 84.9937 43.7085 84.9639 43.7085H84.7274ZM83.4955 42.8203C83.4925 42.8233 83.4925 42.8278 83.4955 42.8337C83.5015 42.8367 83.5074 42.8382 83.5134 42.8382H84.4373C84.4432 42.8382 84.4477 42.8367 84.4506 42.8337C84.4566 42.8278 84.4581 42.8233 84.4551 42.8203L83.982 41.0261C83.979 41.0202 83.9761 41.0172 83.9731 41.0172C83.9701 41.0172 83.9671 41.0202 83.9642 41.0261L83.4955 42.8203ZM87.034 40.6289C87.034 40.5991 87.0489 40.5842 87.0787 40.5842H87.3063C87.3361 40.5842 87.3509 40.5991 87.3509 40.6289V43.6639C87.3509 43.6936 87.3361 43.7085 87.3063 43.7085H87.0653C87.0385 43.7085 87.0207 43.6981 87.0117 43.6773L85.8156 41.2894C85.8096 41.2835 85.8037 41.2805 85.7977 41.2805C85.7947 41.2805 85.7933 41.285 85.7933 41.2939L85.7977 43.6639C85.7977 43.6936 85.7828 43.7085 85.7531 43.7085H85.5255C85.4957 43.7085 85.4808 43.6936 85.4808 43.6639V40.6289C85.4808 40.5991 85.4957 40.5842 85.5255 40.5842H85.7665C85.7933 40.5842 85.8111 40.5947 85.82 40.6155L87.0162 43.0123C87.0221 43.0182 87.0266 43.0212 87.0296 43.0212C87.0355 43.0212 87.0385 43.0167 87.0385 43.0078L87.034 40.6289ZM90.5161 43.7085C90.4923 43.7085 90.4759 43.6966 90.467 43.6728L89.9135 42.2937C89.9106 42.2847 89.9046 42.2803 89.8957 42.2803H89.3199C89.308 42.2803 89.3021 42.2862 89.3021 42.2981V43.6639C89.3021 43.6936 89.2872 43.7085 89.2574 43.7085H89.0298C89.0001 43.7085 88.9852 43.6936 88.9852 43.6639V40.6289C88.9852 40.5991 89.0001 40.5842 89.0298 40.5842H89.976C90.1308 40.5842 90.2676 40.6199 90.3867 40.6914C90.5086 40.7628 90.6024 40.8639 90.6678 40.9949C90.7363 41.1258 90.7705 41.276 90.7705 41.4457C90.7705 41.648 90.7214 41.8206 90.6232 41.9634C90.525 42.1062 90.3911 42.2014 90.2215 42.249C90.2096 42.255 90.2066 42.2624 90.2126 42.2714L90.7883 43.655L90.7928 43.6728C90.7928 43.6966 90.7794 43.7085 90.7526 43.7085H90.5161ZM89.3199 40.861C89.308 40.861 89.3021 40.8669 89.3021 40.8788V42.008C89.3021 42.0199 89.308 42.0259 89.3199 42.0259H89.9359C90.0906 42.0259 90.2156 41.9723 90.3108 41.8652C90.406 41.7581 90.4536 41.6182 90.4536 41.4457C90.4536 41.2701 90.406 41.1288 90.3108 41.0216C90.2156 40.9145 90.0906 40.861 89.9359 40.861H89.3199ZM92.227 43.7442C92.0454 43.7442 91.8848 43.7056 91.7449 43.6282C91.608 43.5508 91.5009 43.4422 91.4236 43.3024C91.3492 43.1625 91.312 43.0004 91.312 42.8159V40.6289C91.312 40.5991 91.3269 40.5842 91.3566 40.5842H91.5842C91.614 40.5842 91.6289 40.5991 91.6289 40.6289V42.8337C91.6289 43.0242 91.6839 43.1774 91.794 43.2934C91.9041 43.4095 92.0484 43.4675 92.227 43.4675C92.4055 43.4675 92.5498 43.4095 92.6599 43.2934C92.77 43.1774 92.825 43.0242 92.825 42.8337V40.6289C92.825 40.5991 92.8399 40.5842 92.8697 40.5842H93.0973C93.127 40.5842 93.1419 40.5991 93.1419 40.6289V42.8159C93.1419 43.0004 93.1032 43.1625 93.0259 43.3024C92.9515 43.4422 92.8444 43.5508 92.7045 43.6282C92.5676 43.7056 92.4085 43.7442 92.227 43.7442ZM95.541 40.6155C95.5559 40.5947 95.5738 40.5842 95.5946 40.5842H95.8267C95.8564 40.5842 95.8713 40.5991 95.8713 40.6289V43.6639C95.8713 43.6936 95.8564 43.7085 95.8267 43.7085H95.5991C95.5693 43.7085 95.5544 43.6936 95.5544 43.6639V41.2359C95.5544 41.227 95.5514 41.221 95.5455 41.218C95.5395 41.215 95.5351 41.218 95.5321 41.227L94.9385 42.258C94.9236 42.2788 94.9058 42.2892 94.8849 42.2892H94.8358C94.815 42.2892 94.7972 42.2788 94.7823 42.258L94.1842 41.2314C94.1812 41.2225 94.1768 41.2195 94.1708 41.2225C94.1649 41.2255 94.1619 41.2314 94.1619 41.2403V43.6639C94.1619 43.6936 94.147 43.7085 94.1172 43.7085H93.8896C93.8599 43.7085 93.845 43.6936 93.845 43.6639V40.6289C93.845 40.5991 93.8599 40.5842 93.8896 40.5842H94.1217C94.1425 40.5842 94.1604 40.5947 94.1753 40.6155L94.8492 41.7625C94.8522 41.7655 94.8567 41.767 94.8626 41.767C94.8686 41.767 94.873 41.7655 94.876 41.7625L95.541 40.6155ZM69.5008 47.2669C69.5395 47.4067 69.5588 47.5674 69.5588 47.7489C69.5588 47.9007 69.5454 48.0316 69.5187 48.1417C69.474 48.3351 69.3848 48.4839 69.2509 48.588C69.1199 48.6922 68.9548 48.7442 68.7554 48.7442C68.5531 48.7442 68.385 48.6907 68.2511 48.5836C68.1172 48.4764 68.0294 48.3262 67.9878 48.1328C67.9729 48.0792 67.9639 48.0242 67.961 47.9676V47.9587C67.961 47.9349 67.9744 47.923 68.0011 47.923H68.2332C68.26 47.923 68.2749 47.9349 68.2779 47.9587V47.9766L68.2957 48.0658C68.3225 48.1938 68.3746 48.292 68.4519 48.3604C68.5323 48.4288 68.6334 48.463 68.7554 48.463C68.8745 48.463 68.9726 48.4288 69.05 48.3604C69.1303 48.289 69.1839 48.1893 69.2107 48.0614C69.2315 47.978 69.2419 47.8754 69.2419 47.7534C69.2419 47.6403 69.23 47.5243 69.2062 47.4053C69.1794 47.2862 69.1274 47.197 69.05 47.1375C68.9726 47.075 68.8745 47.0437 68.7554 47.0437C68.6424 47.0437 68.5442 47.0705 68.4609 47.1241C68.3805 47.1747 68.324 47.249 68.2913 47.3472L68.2823 47.3651C68.2794 47.3859 68.2645 47.3963 68.2377 47.3963H68.0011C67.9714 47.3963 67.9565 47.3814 67.9565 47.3517V45.6289C67.9565 45.5991 67.9714 45.5842 68.0011 45.5842H69.416C69.4458 45.5842 69.4606 45.5991 69.4606 45.6289V45.8163C69.4606 45.8461 69.4458 45.861 69.416 45.861H68.2913C68.2794 45.861 68.2734 45.8669 68.2734 45.8788V46.9723C68.2734 46.9783 68.2749 46.9827 68.2779 46.9857C68.2838 46.9857 68.2898 46.9827 68.2957 46.9768C68.3552 46.9113 68.4296 46.8607 68.5189 46.825C68.6111 46.7863 68.7093 46.767 68.8135 46.767C68.989 46.767 69.1348 46.8102 69.2509 46.8964C69.3699 46.9798 69.4532 47.1032 69.5008 47.2669ZM70.8707 48.7532C70.6148 48.7532 70.4095 48.6758 70.2548 48.5211C70.1001 48.3663 70.0227 48.1595 70.0227 47.9007V46.3921C70.0227 46.1362 70.1001 45.9309 70.2548 45.7762C70.4095 45.6214 70.6148 45.5441 70.8707 45.5441C71.1296 45.5441 71.3364 45.6214 71.4911 45.7762C71.6488 45.9309 71.7277 46.1362 71.7277 46.3921V47.9007C71.7277 48.1595 71.6488 48.3663 71.4911 48.5211C71.3364 48.6758 71.1296 48.7532 70.8707 48.7532ZM70.8707 48.4764C71.0344 48.4764 71.1653 48.4259 71.2635 48.3247C71.3617 48.2235 71.4108 48.0896 71.4108 47.923V46.3742C71.4108 46.2076 71.3617 46.0737 71.2635 45.9725C71.1653 45.8714 71.0344 45.8208 70.8707 45.8208C70.713 45.8208 70.5851 45.8714 70.4869 45.9725C70.3887 46.0737 70.3396 46.2076 70.3396 46.3742V47.923C70.3396 48.0866 70.3887 48.2205 70.4869 48.3247C70.5851 48.4259 70.713 48.4764 70.8707 48.4764ZM73.0038 46.8116C72.8877 46.8116 72.7806 46.7834 72.6824 46.7268C72.5872 46.6703 72.5113 46.5944 72.4548 46.4992C72.3982 46.401 72.37 46.2939 72.37 46.1779C72.37 46.0618 72.3982 45.9562 72.4548 45.861C72.5113 45.7628 72.5872 45.6854 72.6824 45.6289C72.7806 45.5723 72.8877 45.5441 73.0038 45.5441C73.1168 45.5441 73.221 45.5723 73.3162 45.6289C73.4144 45.6854 73.4917 45.7628 73.5483 45.861C73.6048 45.9562 73.6331 46.0618 73.6331 46.1779C73.6331 46.2939 73.6048 46.401 73.5483 46.4992C73.4917 46.5944 73.4144 46.6703 73.3162 46.7268C73.221 46.7834 73.1168 46.8116 73.0038 46.8116ZM72.9011 48.7085C72.8862 48.7085 72.8743 48.7041 72.8654 48.6951C72.8595 48.6832 72.8609 48.6698 72.8699 48.655L74.5302 45.6155C74.5391 45.5947 74.557 45.5842 74.5838 45.5842H74.7266C74.7415 45.5842 74.7519 45.5902 74.7578 45.6021C74.7668 45.611 74.7668 45.6229 74.7578 45.6378L73.0975 48.6773C73.0886 48.6981 73.0707 48.7085 73.0439 48.7085H72.9011ZM73.0038 46.6153C73.1228 46.6153 73.2225 46.5736 73.3028 46.4903C73.3861 46.404 73.4278 46.2999 73.4278 46.1779C73.4278 46.0559 73.3861 45.9532 73.3028 45.8699C73.2225 45.7836 73.1228 45.7405 73.0038 45.7405C72.8847 45.7405 72.7836 45.7836 72.7003 45.8699C72.6169 45.9532 72.5753 46.0559 72.5753 46.1779C72.5753 46.2999 72.6169 46.404 72.7003 46.4903C72.7836 46.5736 72.8847 46.6153 73.0038 46.6153ZM74.6418 48.7487C74.5257 48.7487 74.4186 48.7204 74.3204 48.6639C74.2252 48.6074 74.1493 48.53 74.0928 48.4318C74.0363 48.3336 74.008 48.2265 74.008 48.1104C74.008 47.9974 74.0363 47.8932 74.0928 47.798C74.1493 47.6998 74.2252 47.6225 74.3204 47.5659C74.4186 47.5094 74.5257 47.4811 74.6418 47.4811C74.7549 47.4811 74.859 47.5094 74.9542 47.5659C75.0524 47.6225 75.1298 47.6998 75.1863 47.798C75.2428 47.8932 75.2711 47.9974 75.2711 48.1104C75.2711 48.2265 75.2428 48.3336 75.1863 48.4318C75.1298 48.53 75.0524 48.6074 74.9542 48.6639C74.859 48.7204 74.7549 48.7487 74.6418 48.7487ZM74.6418 48.5523C74.7608 48.5523 74.8605 48.5092 74.9408 48.4229C75.0241 48.3366 75.0658 48.2324 75.0658 48.1104C75.0658 47.9885 75.0241 47.8858 74.9408 47.8025C74.8605 47.7192 74.7608 47.6775 74.6418 47.6775C74.5228 47.6775 74.4216 47.7192 74.3383 47.8025C74.255 47.8858 74.2133 47.9885 74.2133 48.1104C74.2133 48.2354 74.2535 48.3411 74.3338 48.4273C74.4171 48.5107 74.5198 48.5523 74.6418 48.5523Z" fill="#404040"/>
<path d="M40.7662 31.3461L40.7303 31.3428C40.5268 31.3213 40.3352 31.3067 40.3352 31.1501C40.3352 30.9574 40.6106 30.9213 40.7662 30.9213C40.9473 30.9226 41.1263 30.9598 41.293 31.0309L41.3169 31.0429L41.4247 30.79L41.4007 30.7813C41.2 30.6954 40.9843 30.6504 40.7662 30.6488C40.3352 30.6488 40.0479 30.8536 40.0479 31.1426C40.0479 31.516 40.419 31.5642 40.7183 31.5883H40.7423C41.0056 31.6124 41.1852 31.6474 41.1852 31.8171C41.1852 31.9496 41.0056 32.0339 40.7303 32.0339C40.5272 32.0359 40.3264 31.9905 40.1437 31.9014L40.1197 31.8913L40 32.1442L40.0239 32.1563C40.2427 32.2682 40.4849 32.326 40.7303 32.3249C41.1613 32.3249 41.4726 32.1202 41.4726 31.819C41.4726 31.3975 41.0176 31.3493 40.7542 31.3252M43.4839 31.249C43.4839 31.3257 43.4536 31.3992 43.3997 31.4534C43.3458 31.5076 43.2727 31.5381 43.1965 31.5381H42.7536V30.9606H43.1965C43.2738 30.9638 43.3469 30.9969 43.4005 31.053C43.454 31.1091 43.4839 31.1839 43.4839 31.2618M43.1965 30.6836H42.6338C42.5957 30.6836 42.5592 30.6989 42.5323 30.726C42.5053 30.7531 42.4902 30.7898 42.4902 30.8282V32.3096H42.7655V31.8399H43.2085C43.2834 31.8415 43.3579 31.828 43.4275 31.8003C43.4972 31.7726 43.5606 31.7311 43.6141 31.6784C43.6677 31.6257 43.7102 31.5627 43.7392 31.4933C43.7682 31.4238 43.7832 31.3492 43.7832 31.2738C43.7832 31.1205 43.7226 30.9734 43.6148 30.865C43.5071 30.7566 43.3609 30.6957 43.2085 30.6957M44.6451 30.8282V32.1651C44.6451 32.2034 44.6603 32.2402 44.6872 32.2673C44.7142 32.2944 44.7507 32.3096 44.7888 32.3096H45.8902V32.0326H44.9205V31.6351H45.8304V31.3581H44.9205V30.9606H45.8902V30.6836H44.7888C44.7507 30.6836 44.7142 30.6989 44.6872 30.726C44.6603 30.7531 44.6451 30.7898 44.6451 30.8282ZM47.9973 31.8278C47.948 31.8998 47.8817 31.9583 47.8044 31.9982C47.7271 32.0382 47.6412 32.0582 47.5543 32.0567C47.4072 32.0535 47.2671 31.9925 47.1642 31.8867C47.0612 31.7809 47.0036 31.6387 47.0036 31.4906C47.0036 31.3437 47.0617 31.2027 47.1649 31.0988C47.2682 30.9949 47.4083 30.9366 47.5543 30.9366C47.635 30.937 47.7145 30.9556 47.787 30.991C47.8595 31.0265 47.9232 31.0778 47.9734 31.1413L47.9853 31.1534L48.1889 30.9727L48.1769 30.9561C48.0666 30.8288 47.9204 30.7384 47.7577 30.6968C47.5951 30.6553 47.4237 30.6645 47.2664 30.7234C47.1091 30.7822 46.9733 30.8879 46.8772 31.0263C46.7811 31.1647 46.7291 31.3292 46.7283 31.4981C46.7283 31.7196 46.8149 31.9322 46.9695 32.09C47.1241 32.2478 47.3342 32.338 47.5543 32.3412C47.6849 32.3441 47.8143 32.315 47.9311 32.2562C48.048 32.1974 48.1488 32.1108 48.2248 32.0039L48.2367 31.9866L48.0213 31.818L47.9973 31.8278ZM48.967 30.9606H49.5178V32.3096H49.7931V30.9606H50.3438V30.6836H48.967V30.9606ZM52.2713 31.2377C52.2714 31.2719 52.2645 31.3058 52.2511 31.3373C52.2377 31.3688 52.2181 31.3973 52.1935 31.4209C52.1689 31.4446 52.1397 31.4629 52.1078 31.4749C52.0759 31.4869 52.0419 31.4922 52.0079 31.4906H51.4931V30.9606H52.0079C52.0436 30.9606 52.0788 30.9678 52.1116 30.9819C52.1443 30.996 52.1739 31.0166 52.1985 31.0425C52.2232 31.0684 52.2423 31.099 52.2548 31.1326C52.2673 31.1661 52.2729 31.2019 52.2713 31.2377ZM52.5467 31.2377C52.5483 31.1655 52.5355 31.0937 52.5092 31.0266C52.4828 30.9594 52.4434 30.8982 52.3932 30.8466C52.343 30.795 52.2831 30.754 52.2169 30.726C52.1507 30.698 52.0797 30.6836 52.0079 30.6836H51.3734C51.3353 30.6836 51.2988 30.6989 51.2718 30.726C51.2449 30.7531 51.2298 30.7898 51.2298 30.8282V32.3096H51.5051V31.7556H51.8762L52.2593 32.3096H52.5826L52.1755 31.7315C52.282 31.7004 52.3756 31.6355 52.4425 31.5465C52.5094 31.4575 52.5459 31.3492 52.5467 31.2377ZM54.6657 31.611C54.6657 31.726 54.6203 31.8363 54.5395 31.9176C54.4587 31.999 54.349 32.0446 54.2347 32.0446C54.1204 32.0446 54.0108 31.999 53.93 31.9176C53.8491 31.8363 53.8037 31.726 53.8037 31.611V30.6836H53.5284V31.611C53.5284 31.7995 53.6028 31.9803 53.7353 32.1135C53.8677 32.2468 54.0474 32.3217 54.2347 32.3217C54.4221 32.3217 54.6017 32.2468 54.7342 32.1135C54.8667 31.9803 54.9411 31.7995 54.9411 31.611V30.6836H54.6657V31.611ZM57.3834 30.6595C57.3615 30.6604 57.3401 30.6662 57.3208 30.6767C57.3015 30.6871 57.2848 30.7018 57.272 30.7198L56.7333 31.4906L56.1945 30.7198C56.1807 30.7042 56.1637 30.6919 56.1447 30.6835C56.1257 30.6752 56.1051 30.6711 56.0844 30.6716C56.0463 30.6716 56.0098 30.6868 55.9828 30.7139C55.9559 30.741 55.9407 30.7778 55.9407 30.8161V32.3096H56.2161V31.1895L56.7309 31.9362L57.2457 31.1895V32.2976H57.521V30.8041C57.521 30.7657 57.5059 30.729 57.479 30.7019C57.452 30.6748 57.4155 30.6595 57.3774 30.6595M44.262 33.7068H44.6332V34.574H44.8247V33.7068H45.1959V33.5261H44.262V33.7068ZM46.4529 34.044C46.4529 34.143 46.4138 34.238 46.3442 34.308C46.2746 34.378 46.1802 34.4174 46.0818 34.4174C45.9834 34.4174 45.889 34.378 45.8194 34.308C45.7498 34.238 45.7107 34.143 45.7107 34.044C45.7091 33.9976 45.7168 33.9513 45.7332 33.9078C45.7496 33.8644 45.7745 33.8247 45.8064 33.7911C45.8781 33.7197 45.9749 33.6797 46.0758 33.6797C46.1767 33.6797 46.2734 33.7197 46.3452 33.7911C46.3779 33.8243 46.4037 33.8638 46.421 33.9073C46.4382 33.9507 46.4467 33.9972 46.4457 34.044H46.4529ZM46.0818 33.502C46.009 33.4988 45.9364 33.5104 45.8683 33.5361C45.8001 33.5619 45.7379 33.6013 45.6853 33.652C45.6327 33.7026 45.5908 33.7635 45.5623 33.8309C45.5337 33.8982 45.519 33.9708 45.5191 34.044C45.5143 34.1569 45.5432 34.2686 45.6021 34.3648C45.6609 34.461 45.747 34.5373 45.8493 34.5839C45.9516 34.6304 46.0655 34.6451 46.1761 34.6261C46.2868 34.607 46.3893 34.5551 46.4704 34.477C46.5515 34.3989 46.6075 34.2981 46.6313 34.1877C46.655 34.0773 46.6453 33.9622 46.6035 33.8574C46.5617 33.7525 46.4897 33.6627 46.3967 33.5993C46.3038 33.536 46.1941 33.5021 46.0818 33.502ZM47.6022 34.3933H47.2191V34.1404H47.6022C47.6352 34.1402 47.667 34.1525 47.6914 34.1748C47.7157 34.1971 47.7309 34.2278 47.7339 34.2608C47.7339 34.2959 47.72 34.3296 47.6954 34.3545C47.6707 34.3793 47.6372 34.3933 47.6022 34.3933ZM47.2191 33.7068H47.5663C47.586 33.7006 47.6069 33.6991 47.6273 33.7026C47.6477 33.706 47.6669 33.7142 47.6836 33.7265C47.7002 33.7388 47.7138 33.7549 47.7231 33.7734C47.7324 33.792 47.7373 33.8124 47.7373 33.8332C47.7373 33.854 47.7324 33.8745 47.7231 33.893C47.7138 33.9116 47.7002 33.9277 47.6836 33.94C47.6669 33.9523 47.6477 33.9605 47.6273 33.9639C47.6069 33.9673 47.586 33.9659 47.5663 33.9597H47.2191V33.7068ZM47.7938 34.032C47.8241 34.0074 47.8483 33.9762 47.8646 33.9407C47.8808 33.9051 47.8887 33.8663 47.8875 33.8272C47.8844 33.7445 47.8489 33.6664 47.7887 33.61C47.7285 33.5535 47.6485 33.5234 47.5663 33.5261H47.1353C47.1225 33.5256 47.1096 33.5278 47.0976 33.5324C47.0856 33.537 47.0746 33.5441 47.0653 33.5531C47.0561 33.562 47.0487 33.5728 47.0437 33.5848C47.0387 33.5967 47.0361 33.6095 47.0361 33.6224V34.4776C47.0361 34.4906 47.0387 34.5034 47.0437 34.5153C47.0487 34.5272 47.0561 34.538 47.0653 34.547C47.0746 34.556 47.0856 34.563 47.0976 34.5676C47.1096 34.5723 47.1225 34.5744 47.1353 34.574H47.6022C47.6441 34.5756 47.6859 34.5687 47.725 34.5537C47.7642 34.5387 47.7999 34.5158 47.8301 34.4866C47.8603 34.4574 47.8843 34.4223 47.9007 34.3835C47.9171 34.3447 47.9255 34.303 47.9255 34.2608C47.9266 34.2141 47.915 34.1681 47.8917 34.1277C47.8685 34.0873 47.8346 34.0542 47.7938 34.032ZM48.6558 34.1524L48.7994 33.8392L48.9311 34.1524H48.6558ZM48.7994 33.5141C48.7812 33.515 48.7636 33.5212 48.7488 33.5319C48.734 33.5425 48.7224 33.5572 48.7156 33.5743L48.2727 34.586H48.4762L48.5839 34.3331H49.003L49.1107 34.574V34.586H49.3142L48.8713 33.5743C48.8644 33.5572 48.8529 33.5425 48.8381 33.5319C48.8232 33.5212 48.8057 33.515 48.7875 33.5141M50.4635 34.2608C50.4143 34.3177 50.3496 34.3588 50.2774 34.3791C50.2052 34.3993 50.1287 34.3978 50.0573 34.3747C49.9859 34.3517 49.9228 34.308 49.8759 34.2492C49.8289 34.1904 49.8001 34.1191 49.7931 34.044C49.7931 33.9955 49.8028 33.9475 49.8215 33.9029C49.8403 33.8582 49.8679 33.8179 49.9025 33.7841C49.9371 33.7504 49.9782 33.7241 50.0231 33.7066C50.0681 33.6892 50.1161 33.6811 50.1642 33.6827C50.2189 33.6821 50.273 33.6937 50.3226 33.7166C50.3723 33.7395 50.4163 33.7732 50.4516 33.8152L50.4635 33.8272L50.6072 33.7068L50.5952 33.6947C50.5429 33.6347 50.4784 33.5865 50.4062 33.5532C50.334 33.52 50.2556 33.5026 50.1762 33.502C50.1035 33.4988 50.0308 33.5104 49.9627 33.5361C49.8945 33.5619 49.8323 33.6013 49.7797 33.652C49.7271 33.7026 49.6853 33.7635 49.6567 33.8309C49.6281 33.8982 49.6135 33.9708 49.6135 34.044C49.6183 34.1598 49.6582 34.2713 49.7279 34.3635C49.7977 34.4557 49.8939 34.5242 50.0036 34.5597C50.1132 34.5951 50.231 34.5959 50.3411 34.5618C50.4512 34.5277 50.5483 34.4605 50.6192 34.3692L50.6311 34.3572L50.4875 34.2367L50.4635 34.2608ZM51.7565 34.2608C51.7073 34.3177 51.6426 34.3588 51.5704 34.3791C51.4982 34.3993 51.4216 34.3978 51.3503 34.3747C51.2789 34.3517 51.2158 34.308 51.1689 34.2492C51.1219 34.1904 51.0931 34.1191 51.0861 34.044C51.0861 33.9955 51.0957 33.9475 51.1145 33.9029C51.1333 33.8582 51.1608 33.8179 51.1955 33.7841C51.2301 33.7504 51.2711 33.7241 51.3161 33.7066C51.3611 33.6892 51.4091 33.6811 51.4572 33.6827C51.5119 33.6821 51.5659 33.6937 51.6156 33.7166C51.6653 33.7395 51.7093 33.7732 51.7445 33.8152L51.7565 33.8272L51.9002 33.7068L51.8882 33.6947C51.8358 33.6347 51.7714 33.5865 51.6992 33.5532C51.627 33.52 51.5486 33.5026 51.4692 33.502C51.3965 33.4988 51.3238 33.5104 51.2557 33.5361C51.1875 33.5619 51.1253 33.6013 51.0727 33.652C51.0201 33.7026 50.9782 33.7635 50.9497 33.8309C50.9211 33.8982 50.9064 33.9708 50.9065 34.044C50.9112 34.1598 50.9512 34.2713 51.0209 34.3635C51.0907 34.4557 51.1869 34.5242 51.2965 34.5597C51.4062 34.5951 51.524 34.5959 51.6341 34.5618C51.7442 34.5277 51.8413 34.4605 51.9122 34.3692L51.9241 34.3572L51.7685 34.2488L51.7565 34.2608ZM53.0974 34.044C53.0974 34.143 53.0583 34.238 52.9887 34.308C52.9191 34.378 52.8247 34.4174 52.7263 34.4174C52.6278 34.4174 52.5334 34.378 52.4638 34.308C52.3942 34.238 52.3551 34.143 52.3551 34.044C52.3536 33.9976 52.3612 33.9513 52.3777 33.9078C52.3941 33.8644 52.419 33.8247 52.4509 33.7911C52.5226 33.7197 52.6194 33.6797 52.7203 33.6797C52.8211 33.6797 52.9179 33.7197 52.9896 33.7911C53.0224 33.8243 53.0482 33.8638 53.0654 33.9073C53.0827 33.9507 53.0911 33.9972 53.0902 34.044H53.0974ZM52.7263 33.502C52.6535 33.4988 52.5809 33.5104 52.5127 33.5361C52.4446 33.5619 52.3823 33.6013 52.3297 33.652C52.2771 33.7026 52.2353 33.7635 52.2067 33.8309C52.1782 33.8982 52.1635 33.9708 52.1636 34.044C52.1588 34.1569 52.1877 34.2686 52.2465 34.3648C52.3054 34.461 52.3915 34.5373 52.4938 34.5839C52.5961 34.6304 52.7099 34.6451 52.8206 34.6261C52.9313 34.607 53.0338 34.5551 53.1149 34.477C53.196 34.3989 53.252 34.2981 53.2757 34.1877C53.2994 34.0773 53.2898 33.9622 53.248 33.8574C53.2062 33.7525 53.1342 33.6627 53.0412 33.5993C52.9482 33.536 52.8385 33.5021 52.7263 33.502Z" fill="black"/>
<path d="M46.1541 28.6479L49.0633 28.142L47.052 26.6485L46.1541 28.6479Z" fill="#0065A7"/>
<path d="M47.0638 26.6004L49.0632 28.0578L50.4639 26.769L47.0638 26.6004Z" fill="#0678AC"/>
<path d="M50.5238 26.6247L51.4217 24.2399L48.2252 24.8903L50.5238 26.6247Z" fill="#2EB56A"/>
<path d="M48.3808 24.7939L51.5773 24.1676L49.3146 23.6497L48.3808 24.7939Z" fill="#A5CE40"/>
<path d="M49.2906 23.5654L51.5653 24.1074L51.7569 21L49.2906 23.5654Z" fill="#F5E431"/>
<path d="M45.5674 26.1183L46.1181 28.5994L47.004 26.588L45.5674 26.1183Z" fill="#9072B3"/>
<path d="M48.0932 24.9745L45.6269 26.0705L46.9798 26.5282L48.0932 24.9745Z" fill="#9360A8"/>
<path d="M46.3692 23.8907L45.6269 25.9624L48.2009 24.8543L46.3692 23.8907Z" fill="#DF599C"/>
<path d="M46.4651 23.8304L48.2011 23.7099L49.2187 23.5895L48.4884 22.3248L46.4651 23.8304Z" fill="#F89A29"/>
<path d="M48.5004 22.2044L49.2427 23.4932L51.6969 21L48.5004 22.2044Z" fill="#FCBC1B"/>
<path d="M46.4651 23.8785L48.2969 24.7939L49.2427 23.6497L46.4651 23.8785Z" fill="#F16165"/>
<path d="M48.1653 24.9745L47.0638 26.5523L50.4639 26.733L48.1653 24.9745Z" fill="#1DA6BA"/>
</svg>
