<svg width="100" height="56" viewBox="0 0 100 56" fill="none" xmlns="http://www.w3.org/2000/svg">
<path d="M73.8922 20.6676C74.8629 23.2897 75.2987 26.0741 75.1749 28.8618C75.0511 31.6495 74.3701 34.386 73.1707 36.9149C71.9713 39.4439 70.277 41.7158 68.1846 43.6009C66.0922 45.4861 63.6427 46.9476 60.9758 47.9019C58.3089 48.8563 55.477 49.2849 52.6417 49.1631C49.8064 49.0414 47.0232 48.3718 44.4511 47.1926C41.879 46.0133 39.5683 44.3475 37.6509 42.2902C35.7336 40.2329 34.2472 37.8244 33.2765 35.2023L40.3843 32.6588C41.0152 34.3631 41.9814 35.9286 43.2276 37.2659C44.4739 38.6031 45.9759 39.6859 47.6477 40.4524C49.3196 41.2189 51.1287 41.6542 52.9716 41.7333C54.8146 41.8124 56.6553 41.5338 58.3888 40.9135C60.1223 40.2932 61.7145 39.3432 63.0745 38.1178C64.4346 36.8925 65.5359 35.4158 66.3155 33.7719C67.0951 32.1281 67.5378 30.3494 67.6182 28.5374C67.6987 26.7254 67.4154 24.9155 66.7844 23.2112L73.8922 20.6676Z" fill="#FFE600"/>
<path d="M32.8104 22.0781C34.0684 17.7647 36.6829 13.9536 40.2792 11.191C43.8756 8.42841 48.2691 6.85614 52.8301 6.69954C57.3912 6.54294 61.8856 7.81005 65.6692 10.3193C69.4527 12.8285 72.3313 16.451 73.8922 20.6676L66.7845 23.2112C65.7699 20.4704 63.8988 18.1158 61.4395 16.4848C58.9802 14.8538 56.0588 14.0302 53.0941 14.1319C50.1294 14.2337 47.2736 15.2557 44.936 17.0514C42.5984 18.8471 40.899 21.3243 40.0813 24.128L32.8104 22.0781Z" fill="#FF007A"/>
<path d="M33.2765 35.2023C31.7156 30.9857 31.5524 26.3915 32.8104 22.0781L40.0813 24.128C39.2636 26.9317 39.3697 29.918 40.3843 32.6588L33.2765 35.2023Z" fill="#00D1FF"/>
<path d="M65.106 11.0666L67.6511 7.84924H78.195" stroke="black" stroke-width="0.145684"/>
<path d="M70.726 5.21225L69.9601 6.43774H69.5254L70.3534 5.14601C70.2485 5.11013 70.1492 5.06045 70.0553 4.99696C69.9642 4.93348 69.8897 4.84654 69.8318 4.73613C69.7738 4.62573 69.7448 4.48358 69.7448 4.30969C69.7448 4.04196 69.8373 3.83771 70.0222 3.69695C70.2071 3.55342 70.4831 3.48166 70.8502 3.48166H71.6783V6.43774H71.3057V5.21225H70.726ZM70.8585 3.80045C70.7012 3.80045 70.5687 3.81839 70.4611 3.85428C70.3534 3.89016 70.2706 3.94674 70.2126 4.02402C70.1574 4.10131 70.1298 4.20205 70.1298 4.32626C70.1298 4.50842 70.1906 4.64919 70.312 4.74855C70.4335 4.84792 70.6211 4.8976 70.8751 4.8976H71.3057V3.80045H70.8585ZM74.1486 3.48166V3.81287H72.8527V6.43774H72.4801V3.48166H74.1486ZM77.1497 4.95556C77.1497 5.18465 77.1208 5.39304 77.0628 5.58073C77.0048 5.76566 76.9179 5.92574 76.802 6.06099C76.6888 6.19623 76.5467 6.29974 76.3755 6.3715C76.2072 6.44326 76.0112 6.47915 75.7876 6.47915C75.5558 6.47915 75.3543 6.44326 75.1832 6.3715C75.012 6.29698 74.8699 6.19347 74.7567 6.06099C74.6436 5.92574 74.5594 5.76428 74.5042 5.57659C74.449 5.3889 74.4214 5.18051 74.4214 4.95142C74.4214 4.64781 74.471 4.38284 74.5704 4.15651C74.6698 3.93018 74.8202 3.75353 75.0217 3.62657C75.2259 3.4996 75.4826 3.43612 75.7918 3.43612C76.0871 3.43612 76.3355 3.4996 76.537 3.62657C76.7385 3.75077 76.8903 3.92742 76.9924 4.15651C77.0973 4.38284 77.1497 4.64919 77.1497 4.95556ZM74.8147 4.95556C74.8147 5.20397 74.8492 5.41788 74.9182 5.59729C74.9872 5.7767 75.0934 5.9147 75.237 6.01131C75.3833 6.10791 75.5668 6.15621 75.7876 6.15621C76.0112 6.15621 76.1934 6.10791 76.3341 6.01131C76.4776 5.9147 76.5839 5.7767 76.6529 5.59729C76.7219 5.41788 76.7564 5.20397 76.7564 4.95556C76.7564 4.58295 76.6791 4.29175 76.5246 4.08199C76.37 3.86946 76.1257 3.76319 75.7918 3.76319C75.5682 3.76319 75.3833 3.81149 75.237 3.9081C75.0934 4.00194 74.9872 4.13857 74.9182 4.31797C74.8492 4.49462 74.8147 4.70715 74.8147 4.95556ZM79.7155 3.48166V6.10653H80.0922V7.2161H79.7362V6.43774H77.7034V7.2161H77.3473V6.10653H77.575C77.6744 5.9354 77.7682 5.74357 77.8565 5.53105C77.9476 5.31852 78.0277 5.09633 78.0967 4.86448C78.1657 4.62987 78.2223 4.39526 78.2664 4.16065C78.3106 3.92604 78.3382 3.69971 78.3492 3.48166H79.7155ZM78.6763 3.81701C78.6653 3.9771 78.6377 4.15789 78.5935 4.35938C78.5521 4.56087 78.4983 4.76787 78.432 4.9804C78.3685 5.19017 78.2968 5.39304 78.2167 5.58901C78.1395 5.78498 78.0567 5.95748 77.9683 6.10653H79.347V3.81701H78.6763ZM82.8471 6.43774H82.4745V5.05907H80.9592V6.43774H80.5866V3.48166H80.9592V4.73199H82.4745V3.48166H82.8471V6.43774ZM83.6553 6.43774V3.48166H84.028V4.73199H84.4834C84.7594 4.73199 84.9761 4.76925 85.1334 4.84378C85.2935 4.9183 85.4066 5.01904 85.4729 5.14601C85.5419 5.27298 85.5764 5.41512 85.5764 5.57245C85.5764 5.74634 85.5391 5.89814 85.4646 6.02787C85.3928 6.15759 85.2797 6.25834 85.1251 6.3301C84.9705 6.40186 84.7718 6.43774 84.5289 6.43774H83.6553ZM84.4958 6.12309C84.7332 6.12309 84.9084 6.07755 85.0216 5.98647C85.1348 5.89538 85.1913 5.75738 85.1913 5.57245C85.1913 5.44548 85.1637 5.34474 85.1085 5.27022C85.0561 5.19569 84.9747 5.14187 84.8643 5.10875C84.7539 5.07563 84.6131 5.05907 84.442 5.05907H84.028V6.12309H84.4958ZM86.0318 6.43774V3.48166H86.4044V6.43774H86.0318ZM89.2255 2.56254C89.2145 2.70055 89.18 2.81647 89.122 2.91032C89.0668 3.00416 88.984 3.07454 88.8736 3.12146C88.7632 3.16839 88.6197 3.19185 88.443 3.19185C88.2636 3.19185 88.1187 3.16839 88.0083 3.12146C87.9007 3.07454 87.822 3.00554 87.7723 2.91446C87.7226 2.82061 87.6923 2.70331 87.6812 2.56254H88.0207C88.0345 2.71159 88.0732 2.81233 88.1367 2.86477C88.2029 2.91446 88.3078 2.9393 88.4513 2.9393C88.5783 2.9393 88.6776 2.91308 88.7494 2.86063C88.8239 2.80543 88.8681 2.70607 88.8819 2.56254H89.2255ZM87.2134 3.48166H87.5612V5.10461C87.5612 5.17361 87.5598 5.24951 87.557 5.33232C87.557 5.41236 87.5557 5.4924 87.5529 5.57245C87.5501 5.65249 87.546 5.72425 87.5405 5.78774C87.5377 5.84846 87.535 5.89538 87.5322 5.9285H87.5488L89.1758 3.48166H89.5899V6.43774H89.2421V4.83136C89.2421 4.75683 89.2435 4.67679 89.2462 4.59123C89.249 4.5029 89.2517 4.41872 89.2545 4.33868C89.26 4.25587 89.2642 4.18273 89.2669 4.11925C89.2697 4.05576 89.2724 4.00884 89.2752 3.97848H89.2586L87.6274 6.43774H87.2134V3.48166ZM71.1028 8.76733C70.9455 8.76733 70.8033 8.79493 70.6763 8.85014C70.5494 8.90258 70.4417 8.98124 70.3534 9.08613C70.2651 9.18825 70.1975 9.31383 70.1505 9.46288C70.1036 9.60917 70.0802 9.77477 70.0802 9.9597C70.0802 10.2026 70.1174 10.4137 70.1919 10.5931C70.2692 10.7726 70.3824 10.9106 70.5314 11.0072C70.6832 11.1038 70.8723 11.1521 71.0986 11.1521C71.2284 11.1521 71.3512 11.141 71.4671 11.119C71.583 11.0969 71.6962 11.0693 71.8066 11.0361V11.3591C71.6962 11.4005 71.5817 11.4308 71.463 11.4502C71.3471 11.4695 71.2077 11.4791 71.0448 11.4791C70.744 11.4791 70.4928 11.417 70.2913 11.2928C70.0898 11.1686 69.938 10.992 69.8359 10.7629C69.7365 10.5338 69.6868 10.2647 69.6868 9.95556C69.6868 9.73199 69.7172 9.52774 69.7779 9.34282C69.8414 9.15789 69.9325 8.9978 70.0512 8.86256C70.1726 8.72731 70.3217 8.62381 70.4983 8.55204C70.675 8.47752 70.8778 8.44026 71.1069 8.44026C71.2587 8.44026 71.405 8.45544 71.5458 8.4858C71.6866 8.51616 71.8121 8.55894 71.9225 8.61415L71.7735 8.9288C71.6824 8.8874 71.5803 8.85014 71.4671 8.81701C71.3567 8.78389 71.2353 8.76733 71.1028 8.76733ZM74.9503 9.95556C74.9503 10.1847 74.9213 10.393 74.8633 10.5807C74.8054 10.7657 74.7184 10.9257 74.6025 11.061C74.4893 11.1962 74.3472 11.2997 74.1761 11.3715C74.0077 11.4433 73.8117 11.4791 73.5882 11.4791C73.3563 11.4791 73.1548 11.4433 72.9837 11.3715C72.8126 11.297 72.6704 11.1935 72.5572 11.061C72.4441 10.9257 72.3599 10.7643 72.3047 10.5766C72.2495 10.3889 72.2219 10.1805 72.2219 9.95142C72.2219 9.64781 72.2716 9.38284 72.3709 9.15651C72.4703 8.93018 72.6207 8.75353 72.8222 8.62657C73.0265 8.4996 73.2832 8.43612 73.5923 8.43612C73.8876 8.43612 74.136 8.4996 74.3375 8.62657C74.539 8.75077 74.6908 8.92742 74.7929 9.15651C74.8978 9.38284 74.9503 9.64919 74.9503 9.95556ZM72.6152 9.95556C72.6152 10.204 72.6497 10.4179 72.7187 10.5973C72.7877 10.7767 72.894 10.9147 73.0375 11.0113C73.1838 11.1079 73.3673 11.1562 73.5882 11.1562C73.8117 11.1562 73.9939 11.1079 74.1347 11.0113C74.2782 10.9147 74.3844 10.7767 74.4534 10.5973C74.5225 10.4179 74.557 10.204 74.557 9.95556C74.557 9.58295 74.4797 9.29175 74.3251 9.08199C74.1705 8.86946 73.9263 8.76319 73.5923 8.76319C73.3687 8.76319 73.1838 8.81149 73.0375 8.9081C72.894 9.00194 72.7877 9.13857 72.7187 9.31797C72.6497 9.49462 72.6152 9.70715 72.6152 9.95556ZM76.3879 8.48166C76.7744 8.48166 77.0559 8.55756 77.2325 8.70937C77.4092 8.86118 77.4975 9.07508 77.4975 9.3511C77.4975 9.47254 77.4768 9.58985 77.4354 9.70301C77.3968 9.81342 77.3319 9.91278 77.2408 10.0011C77.1497 10.0894 77.0283 10.1598 76.8765 10.2123C76.7247 10.2619 76.5384 10.2868 76.3176 10.2868H75.9781V11.4377H75.6055V8.48166H76.3879ZM76.3548 8.80045H75.9781V9.96798H76.2762C76.4638 9.96798 76.6198 9.94866 76.744 9.91002C76.8682 9.86862 76.9607 9.80376 77.0214 9.71543C77.0821 9.62711 77.1125 9.51118 77.1125 9.36766C77.1125 9.17721 77.0518 9.03506 76.9303 8.94122C76.8089 8.84738 76.617 8.80045 76.3548 8.80045ZM78.1122 11.4377V8.48166H79.8676V8.80873H78.4848V9.73199H78.9237C79.219 9.73199 79.4481 9.76925 79.6109 9.84378C79.7738 9.91554 79.887 10.0149 79.9504 10.1419C80.0139 10.2661 80.0457 10.4096 80.0457 10.5724C80.0457 10.7519 80.0098 10.9064 79.938 11.0361C79.869 11.1659 79.7558 11.2652 79.5985 11.3342C79.4412 11.4032 79.2342 11.4377 78.9775 11.4377H78.1122ZM78.9402 11.119C79.2052 11.119 79.3915 11.0748 79.4992 10.9865C79.6068 10.8954 79.6606 10.7574 79.6606 10.5724C79.6606 10.4455 79.6344 10.3447 79.582 10.2702C79.5323 10.1929 79.4495 10.1377 79.3335 10.1046C79.2204 10.0715 79.0686 10.0549 78.8781 10.0549H78.4848V11.119H78.9402ZM82.3113 11.4377H80.6594V8.48166H82.3113V8.80873H81.032V9.73199H82.2368V10.0549H81.032V11.1107H82.3113V11.4377ZM83.8956 11.4377H83.523V8.80873H82.5997V8.48166H84.8147V8.80873H83.8956V11.4377ZM87.4763 10.3779C87.5039 10.3779 87.5177 10.3917 87.5177 10.4193V10.6014C87.5177 10.629 87.5039 10.6428 87.4763 10.6428H87.3231C87.312 10.6428 87.3065 10.6484 87.3065 10.6594V11.3963C87.3065 11.4239 87.2927 11.4377 87.2651 11.4377H87.054C87.0264 11.4377 87.0126 11.4239 87.0126 11.3963V10.6594C87.0126 10.6484 87.007 10.6428 86.996 10.6428H85.874C85.8464 10.6428 85.8326 10.629 85.8326 10.6014V10.4441C85.8326 10.4248 85.8354 10.4082 85.8409 10.3944L86.5779 8.57274C86.5861 8.55066 86.6013 8.53962 86.6234 8.53962H86.8511C86.8649 8.53962 86.8746 8.54514 86.8801 8.55618C86.8856 8.56446 86.8856 8.5755 86.8801 8.5893L86.1763 10.3572C86.1735 10.3627 86.1735 10.3682 86.1763 10.3737C86.179 10.3765 86.1832 10.3779 86.1887 10.3779H86.996C87.007 10.3779 87.0126 10.3723 87.0126 10.3613V9.70715C87.0126 9.67955 87.0264 9.66575 87.054 9.66575H87.2651C87.2927 9.66575 87.3065 9.67955 87.3065 9.70715V10.3613C87.3065 10.3723 87.312 10.3779 87.3231 10.3779H87.4763ZM88.7282 11.4791C88.4909 11.4791 88.3004 11.4074 88.1569 11.2639C88.0134 11.1203 87.9416 10.9285 87.9416 10.6884V9.28899C87.9416 9.05162 88.0134 8.86118 88.1569 8.71765C88.3004 8.57412 88.4909 8.50236 88.7282 8.50236C88.9684 8.50236 89.1602 8.57412 89.3037 8.71765C89.45 8.86118 89.5232 9.05162 89.5232 9.28899V10.6884C89.5232 10.9285 89.45 11.1203 89.3037 11.2639C89.1602 11.4074 88.9684 11.4791 88.7282 11.4791ZM88.7282 11.2225C88.8801 11.2225 89.0015 11.1755 89.0926 11.0817C89.1837 10.9878 89.2292 10.8636 89.2292 10.7091V9.27243C89.2292 9.11787 89.1837 8.99366 89.0926 8.89982C89.0015 8.80597 88.8801 8.75905 88.7282 8.75905C88.582 8.75905 88.4633 8.80597 88.3722 8.89982C88.2811 8.99366 88.2356 9.11787 88.2356 9.27243V10.7091C88.2356 10.8609 88.2811 10.9851 88.3722 11.0817C88.4633 11.1755 88.582 11.2225 88.7282 11.2225ZM90.7069 9.67817C90.5992 9.67817 90.4999 9.65195 90.4088 9.59951C90.3204 9.54706 90.2501 9.47668 90.1976 9.38836C90.1452 9.29727 90.119 9.19791 90.119 9.09027C90.119 8.98262 90.1452 8.88464 90.1976 8.79631C90.2501 8.70523 90.3204 8.63347 90.4088 8.58102C90.4999 8.52858 90.5992 8.50236 90.7069 8.50236C90.8117 8.50236 90.9084 8.52858 90.9967 8.58102C91.0878 8.63347 91.1595 8.70523 91.212 8.79631C91.2644 8.88464 91.2906 8.98262 91.2906 9.09027C91.2906 9.19791 91.2644 9.29727 91.212 9.38836C91.1595 9.47668 91.0878 9.54706 90.9967 9.59951C90.9084 9.65195 90.8117 9.67817 90.7069 9.67817ZM90.6116 11.4377C90.5978 11.4377 90.5868 11.4336 90.5785 11.4253C90.573 11.4143 90.5744 11.4019 90.5827 11.3881L92.1228 8.5686C92.1311 8.54928 92.1476 8.53962 92.1725 8.53962H92.305C92.3188 8.53962 92.3284 8.54514 92.334 8.55618C92.3422 8.56446 92.3422 8.5755 92.334 8.5893L90.7938 11.4088C90.7855 11.4281 90.769 11.4377 90.7441 11.4377H90.6116ZM90.7069 9.496C90.8173 9.496 90.9097 9.45736 90.9843 9.38008C91.0615 9.30003 91.1002 9.20343 91.1002 9.09027C91.1002 8.9771 91.0615 8.88188 90.9843 8.80459C90.9097 8.72455 90.8173 8.68453 90.7069 8.68453C90.5965 8.68453 90.5026 8.72455 90.4253 8.80459C90.348 8.88188 90.3094 8.9771 90.3094 9.09027C90.3094 9.20343 90.348 9.30003 90.4253 9.38008C90.5026 9.45736 90.5965 9.496 90.7069 9.496ZM92.2263 11.475C92.1187 11.475 92.0193 11.4488 91.9282 11.3963C91.8399 11.3439 91.7695 11.2721 91.7171 11.1811C91.6646 11.09 91.6384 10.9906 91.6384 10.883C91.6384 10.7781 91.6646 10.6815 91.7171 10.5931C91.7695 10.5021 91.8399 10.4303 91.9282 10.3779C92.0193 10.3254 92.1187 10.2992 92.2263 10.2992C92.3312 10.2992 92.4278 10.3254 92.5161 10.3779C92.6072 10.4303 92.679 10.5021 92.7314 10.5931C92.7839 10.6815 92.8101 10.7781 92.8101 10.883C92.8101 10.9906 92.7839 11.09 92.7314 11.1811C92.679 11.2721 92.6072 11.3439 92.5161 11.3963C92.4278 11.4488 92.3312 11.475 92.2263 11.475ZM92.2263 11.2928C92.3367 11.2928 92.4292 11.2528 92.5037 11.1728C92.581 11.0927 92.6196 10.9961 92.6196 10.883C92.6196 10.7698 92.581 10.6746 92.5037 10.5973C92.4292 10.52 92.3367 10.4814 92.2263 10.4814C92.1159 10.4814 92.0221 10.52 91.9448 10.5973C91.8675 10.6746 91.8289 10.7698 91.8289 10.883C91.8289 10.9989 91.8661 11.0969 91.9406 11.1769C92.0179 11.2542 92.1131 11.2928 92.2263 11.2928Z" fill="#404040"/>
<path d="M33.881 27.5359L31.339 24.2726H20.8079" stroke="black" stroke-width="0.145684"/>
<path d="M62.9984 45.9163L65.5404 49.1796H76.0715" stroke="black" stroke-width="0.145684"/>
<path d="M1.88709 23.2103L0.914146 20.6186H0.897586C0.903106 20.6738 0.907246 20.7442 0.910006 20.8297C0.915526 20.9153 0.919666 21.0091 0.922427 21.1113C0.925187 21.2106 0.926567 21.3127 0.926567 21.4176V23.2103H0.582932V20.2542H1.13358L2.04441 22.6762H2.06097L2.98837 20.2542H3.53488V23.2103H3.1664V21.3928C3.1664 21.2962 3.16778 21.201 3.17054 21.1071C3.1733 21.0105 3.17744 20.9208 3.18296 20.838C3.18848 20.7524 3.19262 20.6807 3.19538 20.6227H3.17882L2.19346 23.2103H1.88709ZM5.99094 23.2103H4.33901V20.2542H5.99094V20.5813H4.71162V21.5046H5.91641V21.8275H4.71162V22.8833H5.99094V23.2103ZM8.90009 23.2103H8.52747V21.8316H7.01217V23.2103H6.63955V20.2542H7.01217V21.5046H8.52747V20.2542H8.90009V23.2103ZM10.644 23.2103H10.2714V20.5813H9.3481V20.2542H11.5631V20.5813H10.644V23.2103ZM14.5073 21.7281C14.5073 21.9572 14.4783 22.1656 14.4204 22.3533C14.3624 22.5382 14.2755 22.6983 14.1595 22.8336C14.0464 22.9688 13.9042 23.0723 13.7331 23.1441C13.5647 23.2158 13.3688 23.2517 13.1452 23.2517C12.9133 23.2517 12.7119 23.2158 12.5407 23.1441C12.3696 23.0696 12.2275 22.9661 12.1143 22.8336C12.0011 22.6983 11.9169 22.5369 11.8617 22.3492C11.8065 22.1615 11.7789 21.9531 11.7789 21.724C11.7789 21.4204 11.8286 21.1554 11.928 20.9291C12.0273 20.7028 12.1778 20.5261 12.3793 20.3991C12.5835 20.2722 12.8402 20.2087 13.1493 20.2087C13.4447 20.2087 13.6931 20.2722 13.8946 20.3991C14.0961 20.5234 14.2479 20.7 14.35 20.9291C14.4549 21.1554 14.5073 21.4218 14.5073 21.7281ZM12.1722 21.7281C12.1722 21.9766 12.2068 22.1905 12.2758 22.3699C12.3448 22.5493 12.451 22.6873 12.5945 22.7839C12.7408 22.8805 12.9244 22.9288 13.1452 22.9288C13.3688 22.9288 13.5509 22.8805 13.6917 22.7839C13.8352 22.6873 13.9415 22.5493 14.0105 22.3699C14.0795 22.1905 14.114 21.9766 14.114 21.7281C14.114 21.3555 14.0367 21.0643 13.8821 20.8546C13.7276 20.642 13.4833 20.5358 13.1493 20.5358C12.9258 20.5358 12.7408 20.5841 12.5945 20.6807C12.451 20.7745 12.3448 20.9112 12.2758 21.0906C12.2068 21.2672 12.1722 21.4797 12.1722 21.7281ZM17.2097 23.2103H16.8371V20.5813H15.9014C15.8821 20.7331 15.8614 20.8932 15.8393 21.0616C15.8172 21.2272 15.7937 21.3914 15.7689 21.5543C15.7468 21.7171 15.7247 21.8703 15.7027 22.0138C15.6806 22.1573 15.6585 22.2829 15.6364 22.3906C15.6005 22.5755 15.5564 22.7328 15.5039 22.8626C15.4515 22.9923 15.3811 23.0903 15.2928 23.1565C15.2072 23.2227 15.094 23.2559 14.9533 23.2559C14.9064 23.2559 14.8581 23.2503 14.8084 23.2393C14.7615 23.231 14.7201 23.22 14.6842 23.2062V22.8957C14.7145 22.9095 14.749 22.9219 14.7877 22.9329C14.8263 22.9412 14.8677 22.9454 14.9119 22.9454C14.9947 22.9454 15.0595 22.9122 15.1065 22.846C15.1562 22.777 15.1948 22.6928 15.2224 22.5934C15.25 22.4913 15.2735 22.3906 15.2928 22.2912C15.3093 22.2112 15.3287 22.1049 15.3507 21.9724C15.3728 21.8372 15.3963 21.6798 15.4211 21.5004C15.4487 21.321 15.4763 21.1264 15.5039 20.9167C15.5343 20.7041 15.5633 20.4833 15.5909 20.2542H17.2097V23.2103ZM20.5922 21.7281C20.5922 21.9572 20.5632 22.1656 20.5053 22.3533C20.4473 22.5382 20.3604 22.6983 20.2445 22.8336C20.1313 22.9688 19.9891 23.0723 19.818 23.1441C19.6497 23.2158 19.4537 23.2517 19.2301 23.2517C18.9983 23.2517 18.7968 23.2158 18.6256 23.1441C18.4545 23.0696 18.3124 22.9661 18.1992 22.8336C18.086 22.6983 18.0019 22.5369 17.9467 22.3492C17.8915 22.1615 17.8639 21.9531 17.8639 21.724C17.8639 21.4204 17.9135 21.1554 18.0129 20.9291C18.1123 20.7028 18.2627 20.5261 18.4642 20.3991C18.6684 20.2722 18.9251 20.2087 19.2343 20.2087C19.5296 20.2087 19.778 20.2722 19.9795 20.3991C20.181 20.5234 20.3328 20.7 20.4349 20.9291C20.5398 21.1554 20.5922 21.4218 20.5922 21.7281ZM18.2572 21.7281C18.2572 21.9766 18.2917 22.1905 18.3607 22.3699C18.4297 22.5493 18.5359 22.6873 18.6795 22.7839C18.8258 22.8805 19.0093 22.9288 19.2301 22.9288C19.4537 22.9288 19.6359 22.8805 19.7766 22.7839C19.9201 22.6873 20.0264 22.5493 20.0954 22.3699C20.1644 22.1905 20.1989 21.9766 20.1989 21.7281C20.1989 21.3555 20.1216 21.0643 19.9671 20.8546C19.8125 20.642 19.5682 20.5358 19.2343 20.5358C19.0107 20.5358 18.8258 20.5841 18.6795 20.6807C18.5359 20.7745 18.4297 20.9112 18.3607 21.0906C18.2917 21.2672 18.2572 21.4797 18.2572 21.7281ZM22.092 20.2542C22.3377 20.2542 22.5433 20.2777 22.7089 20.3246C22.8773 20.3715 23.0028 20.4488 23.0857 20.5565C23.1712 20.6641 23.214 20.8076 23.214 20.9871C23.214 21.103 23.1919 21.2065 23.1478 21.2976C23.1064 21.3859 23.0429 21.4604 22.9573 21.5211C22.8745 21.5791 22.7724 21.6191 22.6509 21.6412V21.6619C22.7751 21.6812 22.8869 21.7171 22.9863 21.7695C23.0884 21.822 23.1685 21.8965 23.2264 21.9931C23.2844 22.0897 23.3134 22.2153 23.3134 22.3699C23.3134 22.5493 23.272 22.7025 23.1892 22.8294C23.1064 22.9536 22.9877 23.0489 22.8331 23.1151C22.6813 23.1786 22.4991 23.2103 22.2866 23.2103H21.2474V20.2542H22.092ZM22.1665 21.5129C22.4205 21.5129 22.5944 21.4728 22.6882 21.3928C22.782 21.31 22.829 21.1885 22.829 21.0285C22.829 20.8656 22.771 20.7497 22.6551 20.6807C22.5419 20.6089 22.3597 20.573 22.1086 20.573H21.62V21.5129H22.1665ZM21.62 21.8234V22.8957H22.2162C22.4784 22.8957 22.6606 22.8446 22.7627 22.7425C22.8648 22.6404 22.9159 22.5065 22.9159 22.3409C22.9159 22.236 22.8924 22.1449 22.8455 22.0676C22.8014 21.9904 22.7255 21.931 22.6178 21.8896C22.5129 21.8454 22.3694 21.8234 22.1872 21.8234H21.62ZM23.9401 23.2103V20.2542H24.3128V21.5046H24.7682C25.0442 21.5046 25.2609 21.5418 25.4182 21.6164C25.5783 21.6909 25.6914 21.7916 25.7577 21.9186C25.8267 22.0456 25.8612 22.1877 25.8612 22.345C25.8612 22.5189 25.8239 22.6707 25.7494 22.8004C25.6776 22.9302 25.5645 23.0309 25.4099 23.1027C25.2553 23.1744 25.0566 23.2103 24.8137 23.2103H23.9401ZM24.7806 22.8957C25.018 22.8957 25.1932 22.8501 25.3064 22.759C25.4196 22.668 25.4761 22.53 25.4761 22.345C25.4761 22.2181 25.4485 22.1173 25.3933 22.0428C25.3409 21.9683 25.2595 21.9145 25.1491 21.8813C25.0387 21.8482 24.8979 21.8316 24.7268 21.8316H24.3128V22.8957H24.7806ZM26.3166 23.2103V20.2542H26.6892V23.2103H26.3166ZM29.146 23.2103H27.4941V20.2542H29.146V20.5813H27.8667V21.5046H29.0715V21.8275H27.8667V22.8833H29.146V23.2103ZM2.71098 28.2103H2.33837V25.5813H1.40269C1.38337 25.7331 1.36267 25.8932 1.34058 26.0616C1.3185 26.2272 1.29504 26.3914 1.2702 26.5543C1.24812 26.7171 1.22604 26.8703 1.20396 27.0138C1.18188 27.1573 1.1598 27.2829 1.13772 27.3906C1.10183 27.5755 1.05767 27.7328 1.00523 27.8626C0.952788 27.9923 0.882405 28.0903 0.794081 28.1565C0.708518 28.2227 0.595353 28.2559 0.454587 28.2559C0.407665 28.2559 0.359363 28.2503 0.309681 28.2393C0.262759 28.231 0.221357 28.22 0.185476 28.2062V27.8957C0.215837 27.9095 0.250338 27.9219 0.28898 27.9329C0.327622 27.9412 0.369023 27.9454 0.413185 27.9454C0.495989 27.9454 0.560851 27.9122 0.607773 27.846C0.657455 27.777 0.696097 27.6928 0.723698 27.5934C0.751299 27.4913 0.77476 27.3906 0.794081 27.2912C0.810642 27.2112 0.829963 27.1049 0.852044 26.9724C0.874125 26.8372 0.897586 26.6798 0.922427 26.5004C0.950028 26.321 0.977629 26.1264 1.00523 25.9167C1.03559 25.7041 1.06457 25.4833 1.09217 25.2542H2.71098V28.2103ZM5.16614 28.2103H3.51421V25.2542H5.16614V25.5813H3.88682V26.5046H5.09161V26.8275H3.88682V27.8833H5.16614V28.2103ZM7.80618 25.2542V27.8791H8.18293V28.9887H7.82688V28.2103H5.79405V28.9887H5.438V27.8791H5.66571C5.76507 27.708 5.85892 27.5162 5.94724 27.3036C6.03832 27.0911 6.11837 26.8689 6.18737 26.6371C6.25637 26.4025 6.31295 26.1678 6.35712 25.9332C6.40128 25.6986 6.42888 25.4723 6.43992 25.2542H7.80618ZM6.76699 25.5896C6.75595 25.7497 6.72835 25.9305 6.68419 26.132C6.64279 26.3334 6.58897 26.5405 6.52272 26.753C6.45924 26.9628 6.38748 27.1656 6.30743 27.3616C6.23015 27.5576 6.14735 27.7301 6.05902 27.8791H7.4377V25.5896H6.76699ZM10.3292 28.2103H8.6773V25.2542H10.3292V25.5813H9.04991V26.5046H10.2547V26.8275H9.04991V27.8833H10.3292V28.2103ZM13.2384 28.2103H12.8658V26.8316H11.3505V28.2103H10.9778V25.2542H11.3505V26.5046H12.8658V25.2542H13.2384V28.2103ZM16.6259 27.8833V28.9887H16.2699V28.2103H14.0466V25.2542H14.4192V27.8791H15.8972V25.2542H16.2657V27.8833H16.6259ZM17.1153 28.2103V25.2542H17.4879V26.5046H17.9434C18.2194 26.5046 18.436 26.5418 18.5934 26.6164C18.7535 26.6909 18.8666 26.7916 18.9329 26.9186C19.0019 27.0456 19.0364 27.1877 19.0364 27.345C19.0364 27.5189 18.9991 27.6707 18.9246 27.8004C18.8528 27.9302 18.7397 28.0309 18.5851 28.1027C18.4305 28.1744 18.2318 28.2103 17.9889 28.2103H17.1153ZM17.9558 27.8957C18.1932 27.8957 18.3684 27.8501 18.4816 27.759C18.5947 27.668 18.6513 27.53 18.6513 27.345C18.6513 27.2181 18.6237 27.1173 18.5685 27.0428C18.5161 26.9683 18.4347 26.9145 18.3243 26.8813C18.2139 26.8482 18.0731 26.8316 17.902 26.8316H17.4879V27.8957H17.9558ZM19.4918 28.2103V25.2542H19.8644V28.2103H19.4918ZM21.7175 25.3246C21.7341 25.3163 21.752 25.3122 21.7713 25.3122H21.9949C22.0225 25.3122 22.0363 25.326 22.0363 25.3536V28.1689C22.0363 28.1965 22.0225 28.2103 21.9949 28.2103H21.7838C21.7562 28.2103 21.7424 28.1965 21.7424 28.1689V25.6517C21.7424 25.6462 21.7396 25.642 21.7341 25.6393C21.7313 25.6365 21.7272 25.6365 21.7217 25.6393L21.3076 25.7925C21.3021 25.7952 21.2952 25.7966 21.2869 25.7966C21.2731 25.7966 21.2635 25.7856 21.258 25.7635L21.2373 25.6103V25.602C21.2373 25.5882 21.2469 25.5744 21.2662 25.5606L21.7175 25.3246ZM23.389 28.2517C23.1517 28.2517 22.9612 28.18 22.8177 28.0364C22.6742 27.8929 22.6024 27.7011 22.6024 27.461V26.0616C22.6024 25.8242 22.6742 25.6338 22.8177 25.4902C22.9612 25.3467 23.1517 25.2749 23.389 25.2749C23.6292 25.2749 23.821 25.3467 23.9645 25.4902C24.1108 25.6338 24.184 25.8242 24.184 26.0616V27.461C24.184 27.7011 24.1108 27.8929 23.9645 28.0364C23.821 28.18 23.6292 28.2517 23.389 28.2517ZM23.389 27.995C23.5409 27.995 23.6623 27.9481 23.7534 27.8543C23.8445 27.7604 23.89 27.6362 23.89 27.4817V26.045C23.89 25.8904 23.8445 25.7662 23.7534 25.6724C23.6623 25.5786 23.5409 25.5316 23.389 25.5316C23.2428 25.5316 23.1241 25.5786 23.033 25.6724C22.9419 25.7662 22.8964 25.8904 22.8964 26.045V27.4817C22.8964 27.6335 22.9419 27.7577 23.033 27.8543C23.1241 27.9481 23.2428 27.995 23.389 27.995ZM25.3677 26.4508C25.26 26.4508 25.1607 26.4245 25.0696 26.3721C24.9812 26.3196 24.9109 26.2493 24.8584 26.1609C24.806 26.0699 24.7798 25.9705 24.7798 25.8628C24.7798 25.7552 24.806 25.6572 24.8584 25.5689C24.9109 25.4778 24.9812 25.406 25.0696 25.3536C25.1607 25.3012 25.26 25.2749 25.3677 25.2749C25.4725 25.2749 25.5692 25.3012 25.6575 25.3536C25.7486 25.406 25.8203 25.4778 25.8728 25.5689C25.9252 25.6572 25.9514 25.7552 25.9514 25.8628C25.9514 25.9705 25.9252 26.0699 25.8728 26.1609C25.8203 26.2493 25.7486 26.3196 25.6575 26.3721C25.5692 26.4245 25.4725 26.4508 25.3677 26.4508ZM25.2724 28.2103C25.2586 28.2103 25.2476 28.2062 25.2393 28.1979C25.2338 28.1869 25.2352 28.1744 25.2435 28.1606L26.7836 25.3412C26.7919 25.3219 26.8084 25.3122 26.8333 25.3122H26.9658C26.9796 25.3122 26.9892 25.3177 26.9948 25.3288C27.003 25.337 27.003 25.3481 26.9948 25.3619L25.4546 28.1813C25.4463 28.2007 25.4298 28.2103 25.4049 28.2103H25.2724ZM25.3677 26.2686C25.4781 26.2686 25.5705 26.2299 25.6451 26.1527C25.7223 26.0726 25.761 25.976 25.761 25.8628C25.761 25.7497 25.7223 25.6545 25.6451 25.5772C25.5705 25.4971 25.4781 25.4571 25.3677 25.4571C25.2573 25.4571 25.1634 25.4971 25.0861 25.5772C25.0088 25.6545 24.9702 25.7497 24.9702 25.8628C24.9702 25.976 25.0088 26.0726 25.0861 26.1527C25.1634 26.2299 25.2573 26.2686 25.3677 26.2686ZM26.8871 28.2476C26.7795 28.2476 26.6801 28.2214 26.589 28.1689C26.5007 28.1165 26.4303 28.0447 26.3779 27.9536C26.3254 27.8626 26.2992 27.7632 26.2992 27.6555C26.2992 27.5507 26.3254 27.4541 26.3779 27.3657C26.4303 27.2746 26.5007 27.2029 26.589 27.1504C26.6801 27.098 26.7795 27.0718 26.8871 27.0718C26.992 27.0718 27.0886 27.098 27.1769 27.1504C27.268 27.2029 27.3398 27.2746 27.3922 27.3657C27.4447 27.4541 27.4709 27.5507 27.4709 27.6555C27.4709 27.7632 27.4447 27.8626 27.3922 27.9536C27.3398 28.0447 27.268 28.1165 27.1769 28.1689C27.0886 28.2214 26.992 28.2476 26.8871 28.2476ZM26.8871 28.0654C26.9975 28.0654 27.09 28.0254 27.1645 27.9454C27.2418 27.8653 27.2804 27.7687 27.2804 27.6555C27.2804 27.5424 27.2418 27.4472 27.1645 27.3699C27.09 27.2926 26.9975 27.2539 26.8871 27.2539C26.7767 27.2539 26.6829 27.2926 26.6056 27.3699C26.5283 27.4472 26.4897 27.5424 26.4897 27.6555C26.4897 27.7715 26.5269 27.8695 26.6014 27.9495C26.6787 28.0268 26.7739 28.0654 26.8871 28.0654Z" fill="#404040"/>
<path d="M71.8273 44.6012V47.226H72.2041V48.3356H71.848V47.5573H69.8152V48.3356H69.4591V47.226H69.6868C69.7862 47.0549 69.8801 46.8631 69.9684 46.6506C70.0595 46.438 70.1395 46.2158 70.2085 45.984C70.2775 45.7494 70.3341 45.5148 70.3783 45.2802C70.4224 45.0455 70.45 44.8192 70.4611 44.6012H71.8273ZM70.7881 44.9365C70.7771 45.0966 70.7495 45.2774 70.7053 45.4789C70.6639 45.6804 70.6101 45.8874 70.5439 46.0999C70.4804 46.3097 70.4086 46.5125 70.3286 46.7085C70.2513 46.9045 70.1685 47.077 70.0802 47.226H71.4588V44.9365H70.7881ZM72.6984 47.5573V44.6012H73.0711V45.8515H73.5265C73.8025 45.8515 74.0192 45.8888 74.1765 45.9633C74.3366 46.0378 74.4497 46.1386 74.516 46.2655C74.585 46.3925 74.6195 46.5346 74.6195 46.692C74.6195 46.8658 74.5822 47.0176 74.5077 47.1474C74.4359 47.2771 74.3228 47.3778 74.1682 47.4496C74.0136 47.5214 73.8149 47.5573 73.572 47.5573H72.6984ZM73.5389 47.2426C73.7763 47.2426 73.9515 47.1971 74.0647 47.106C74.1779 47.0149 74.2344 46.8769 74.2344 46.692C74.2344 46.565 74.2068 46.4642 74.1516 46.3897C74.0992 46.3152 74.0178 46.2614 73.9074 46.2283C73.797 46.1951 73.6562 46.1786 73.4851 46.1786H73.0711V47.2426H73.5389ZM75.0749 47.5573V44.6012H75.4475V47.5573H75.0749ZM78.5129 47.5573H78.1403V46.1786H76.625V47.5573H76.2524V44.6012H76.625V45.8515H78.1403V44.6012H78.5129V47.5573ZM79.3252 44.6012H79.673V46.2241C79.673 46.2931 79.6716 46.369 79.6689 46.4518C79.6689 46.5319 79.6675 46.6119 79.6647 46.692C79.662 46.772 79.6578 46.8438 79.6523 46.9072C79.6495 46.968 79.6468 47.0149 79.644 47.048H79.6606L81.2877 44.6012H81.7017V47.5573H81.3539V45.9509C81.3539 45.8763 81.3553 45.7963 81.3581 45.7107C81.3608 45.6224 81.3636 45.5382 81.3663 45.4582C81.3719 45.3754 81.376 45.3022 81.3788 45.2388C81.3815 45.1753 81.3843 45.1283 81.387 45.098H81.3705L79.7393 47.5573H79.3252V44.6012ZM83.7369 46.7168C83.6486 46.9128 83.5589 47.077 83.4678 47.2095C83.3795 47.3392 83.2746 47.4372 83.1532 47.5034C83.0317 47.5669 82.8771 47.5987 82.6895 47.5987C82.6122 47.5987 82.539 47.5931 82.47 47.5821C82.4038 47.5711 82.3431 47.5559 82.2879 47.5366V47.1681C82.3431 47.1929 82.4024 47.2136 82.4659 47.2302C82.5294 47.244 82.5956 47.2509 82.6646 47.2509C82.7667 47.2509 82.8537 47.2371 82.9254 47.2095C83 47.1791 83.0648 47.1308 83.12 47.0646C83.178 46.9983 83.2318 46.91 83.2815 46.7996L82.1429 44.6012H82.5528L83.3767 46.2283C83.3878 46.2476 83.3988 46.271 83.4098 46.2986C83.4209 46.3235 83.4319 46.3497 83.443 46.3773C83.4568 46.4049 83.4678 46.4311 83.4761 46.456H83.4926C83.5009 46.4366 83.5092 46.4146 83.5175 46.3897C83.5285 46.3621 83.5382 46.3359 83.5465 46.3111C83.5575 46.2835 83.5672 46.26 83.5754 46.2407L84.2876 44.6012H84.6809L83.7369 46.7168ZM86.3867 47.5573L85.4138 44.9655H85.3972C85.4027 45.0207 85.4069 45.0911 85.4096 45.1767C85.4152 45.2622 85.4193 45.3561 85.4221 45.4582C85.4248 45.5575 85.4262 45.6597 85.4262 45.7646V47.5573H85.0826V44.6012H85.6332L86.544 47.0232H86.5606L87.488 44.6012H88.0345V47.5573H87.666V45.7397C87.666 45.6431 87.6674 45.5479 87.6702 45.454C87.6729 45.3574 87.6771 45.2677 87.6826 45.1849C87.6881 45.0994 87.6923 45.0276 87.695 44.9696H87.6785L86.6931 47.5573H86.3867ZM71.1111 51.22C71.1469 51.3497 71.1649 51.4987 71.1649 51.6671C71.1649 51.8079 71.1525 51.9293 71.1276 52.0314C71.0862 52.2109 71.0034 52.3489 70.8792 52.4455C70.7578 52.5421 70.6046 52.5904 70.4197 52.5904C70.232 52.5904 70.076 52.5407 69.9518 52.4413C69.8276 52.342 69.7462 52.2026 69.7075 52.0232C69.6937 51.9735 69.6855 51.9224 69.6827 51.87V51.8617C69.6827 51.8396 69.6951 51.8286 69.72 51.8286H69.9353C69.9601 51.8286 69.9739 51.8396 69.9767 51.8617V51.8783L69.9932 51.9611C70.0181 52.0798 70.0664 52.1708 70.1381 52.2343C70.2126 52.2978 70.3065 52.3295 70.4197 52.3295C70.5301 52.3295 70.6211 52.2978 70.6929 52.2343C70.7674 52.1681 70.8171 52.0756 70.842 51.9569C70.8613 51.8796 70.8709 51.7844 70.8709 51.6713C70.8709 51.5664 70.8599 51.4587 70.8378 51.3483C70.813 51.2379 70.7647 51.1551 70.6929 51.0999C70.6211 51.0419 70.5301 51.013 70.4197 51.013C70.3148 51.013 70.2237 51.0378 70.1464 51.0875C70.0719 51.1344 70.0194 51.2034 69.9891 51.2945L69.9808 51.3111C69.978 51.3304 69.9642 51.34 69.9394 51.34H69.72C69.6924 51.34 69.6786 51.3262 69.6786 51.2986V49.7005C69.6786 49.6729 69.6924 49.6591 69.72 49.6591H71.0324C71.06 49.6591 71.0738 49.6729 71.0738 49.7005V49.8744C71.0738 49.902 71.06 49.9158 71.0324 49.9158H69.9891C69.978 49.9158 69.9725 49.9213 69.9725 49.9324V50.9467C69.9725 50.9522 69.9739 50.9564 69.9767 50.9591C69.9822 50.9591 69.9877 50.9564 69.9932 50.9509C70.0484 50.8901 70.1174 50.8432 70.2002 50.8101C70.2858 50.7742 70.3769 50.7563 70.4735 50.7563C70.6363 50.7563 70.7716 50.7963 70.8792 50.8763C70.9896 50.9536 71.0669 51.0682 71.1111 51.22ZM72.3818 52.5987C72.1445 52.5987 71.954 52.5269 71.8105 52.3834C71.667 52.2398 71.5952 52.048 71.5952 51.8079V50.4085C71.5952 50.1711 71.667 49.9807 71.8105 49.8372C71.954 49.6936 72.1445 49.6219 72.3818 49.6219C72.622 49.6219 72.8138 49.6936 72.9573 49.8372C73.1036 49.9807 73.1768 50.1711 73.1768 50.4085V51.8079C73.1768 52.048 73.1036 52.2398 72.9573 52.3834C72.8138 52.5269 72.622 52.5987 72.3818 52.5987ZM72.3818 52.342C72.5336 52.342 72.6551 52.295 72.7462 52.2012C72.8373 52.1074 72.8828 51.9831 72.8828 51.8286V50.3919C72.8828 50.2374 72.8373 50.1132 72.7462 50.0193C72.6551 49.9255 72.5336 49.8786 72.3818 49.8786C72.2356 49.8786 72.1169 49.9255 72.0258 50.0193C71.9347 50.1132 71.8892 50.2374 71.8892 50.3919V51.8286C71.8892 51.9804 71.9347 52.1046 72.0258 52.2012C72.1169 52.295 72.2356 52.342 72.3818 52.342ZM74.3605 50.7977C74.2528 50.7977 74.1534 50.7715 74.0624 50.719C73.974 50.6666 73.9037 50.5962 73.8512 50.5079C73.7988 50.4168 73.7726 50.3174 73.7726 50.2098C73.7726 50.1021 73.7988 50.0041 73.8512 49.9158C73.9037 49.8247 73.974 49.753 74.0624 49.7005C74.1534 49.6481 74.2528 49.6219 74.3605 49.6219C74.4653 49.6219 74.5619 49.6481 74.6503 49.7005C74.7414 49.753 74.8131 49.8247 74.8656 49.9158C74.918 50.0041 74.9442 50.1021 74.9442 50.2098C74.9442 50.3174 74.918 50.4168 74.8656 50.5079C74.8131 50.5962 74.7414 50.6666 74.6503 50.719C74.5619 50.7715 74.4653 50.7977 74.3605 50.7977ZM74.2652 52.5573C74.2514 52.5573 74.2404 52.5531 74.2321 52.5448C74.2266 52.5338 74.228 52.5214 74.2363 52.5076L75.7764 49.6881C75.7847 49.6688 75.8012 49.6591 75.8261 49.6591H75.9586C75.9724 49.6591 75.982 49.6646 75.9875 49.6757C75.9958 49.684 75.9958 49.695 75.9875 49.7088L74.4474 52.5283C74.4391 52.5476 74.4226 52.5573 74.3977 52.5573H74.2652ZM74.3605 50.6155C74.4709 50.6155 74.5633 50.5769 74.6378 50.4996C74.7151 50.4195 74.7538 50.3229 74.7538 50.2098C74.7538 50.0966 74.7151 50.0014 74.6378 49.9241C74.5633 49.8441 74.4709 49.804 74.3605 49.804C74.2501 49.804 74.1562 49.8441 74.0789 49.9241C74.0016 50.0014 73.963 50.0966 73.963 50.2098C73.963 50.3229 74.0016 50.4195 74.0789 50.4996C74.1562 50.5769 74.2501 50.6155 74.3605 50.6155ZM75.8799 52.5945C75.7723 52.5945 75.6729 52.5683 75.5818 52.5158C75.4935 52.4634 75.4231 52.3916 75.3707 52.3006C75.3182 52.2095 75.292 52.1101 75.292 52.0025C75.292 51.8976 75.3182 51.801 75.3707 51.7127C75.4231 51.6216 75.4935 51.5498 75.5818 51.4974C75.6729 51.4449 75.7723 51.4187 75.8799 51.4187C75.9848 51.4187 76.0814 51.4449 76.1697 51.4974C76.2608 51.5498 76.3326 51.6216 76.385 51.7127C76.4374 51.801 76.4637 51.8976 76.4637 52.0025C76.4637 52.1101 76.4374 52.2095 76.385 52.3006C76.3326 52.3916 76.2608 52.4634 76.1697 52.5158C76.0814 52.5683 75.9848 52.5945 75.8799 52.5945ZM75.8799 52.4123C75.9903 52.4123 76.0828 52.3723 76.1573 52.2923C76.2346 52.2122 76.2732 52.1156 76.2732 52.0025C76.2732 51.8893 76.2346 51.7941 76.1573 51.7168C76.0828 51.6395 75.9903 51.6009 75.8799 51.6009C75.7695 51.6009 75.6757 51.6395 75.5984 51.7168C75.5211 51.7941 75.4824 51.8893 75.4824 52.0025C75.4824 52.1184 75.5197 52.2164 75.5942 52.2964C75.6715 52.3737 75.7667 52.4123 75.8799 52.4123Z" fill="#404040"/>
<path fill-rule="evenodd" clip-rule="evenodd" d="M55.737 25.9438C55.6482 26.1316 55.5593 26.1942 55.3548 26.1942C55.0971 26.1942 55.0882 26.1942 55.2482 26.373C55.3815 26.525 55.3904 26.5876 55.3015 26.7843L55.1949 27.0258L55.426 26.8738C55.6304 26.7396 55.6659 26.7396 55.8704 26.8738C56.0926 27.0168 56.0926 27.0168 56.0392 26.7575C55.9948 26.5429 56.0303 26.4803 56.2348 26.373L56.4747 26.2389L56.2259 26.1942C56.0481 26.1584 55.9503 26.0779 55.9059 25.9259L55.8526 25.7024L55.737 25.9438Z" fill="black"/>
<path fill-rule="evenodd" clip-rule="evenodd" d="M53.8704 26.0427C53.8704 26.0963 53.2483 29.6373 53.2127 29.7893C53.1772 29.9323 53.2483 29.9502 53.6838 29.9502H54.1904L54.4926 28.2245C54.6526 27.2856 54.8037 26.4004 54.8303 26.2573C54.8659 26.0159 54.8659 26.0159 54.3682 26.0159C54.0926 26.0159 53.8704 26.0248 53.8704 26.0427Z" fill="black"/>
<path fill-rule="evenodd" clip-rule="evenodd" d="M43.8264 26.3018C43.3731 26.5343 43.1154 26.9545 43.1154 27.4553C43.1154 27.9113 43.382 28.2064 44.0131 28.4389C44.6264 28.6624 44.7241 28.7697 44.4841 28.9396C44.2797 29.0916 43.942 29.0201 43.702 28.7876C43.5331 28.6266 43.5242 28.6266 43.0976 28.8412C42.8665 28.9575 42.671 29.1005 42.671 29.1452C42.671 29.19 42.7954 29.3688 42.9465 29.5387C43.5953 30.2808 45.1507 30.1288 45.5507 29.2794C45.9062 28.5372 45.6129 27.9828 44.6975 27.6252C44.1553 27.4106 44.0397 27.2138 44.3953 27.1244C44.6264 27.0708 44.9819 27.2138 44.9819 27.3658C44.9819 27.4106 45.1863 27.348 45.4263 27.2228C45.6751 27.0976 45.8707 26.9456 45.8707 26.883C45.8707 26.7489 45.4707 26.3554 45.1863 26.2034C44.8752 26.0425 44.2531 26.0872 43.8264 26.3018Z" fill="black"/>
<path fill-rule="evenodd" clip-rule="evenodd" d="M46.9107 26.6603C46.6529 26.7318 46.5463 26.8212 46.4752 27.009C46.4218 27.17 46.3241 27.2683 46.2174 27.2683C46.0485 27.2683 45.9863 27.4203 45.9419 27.939C45.9241 28.1446 45.9508 28.2072 46.0663 28.1983C46.1996 28.1893 46.2174 28.2609 46.1641 28.8689C46.1196 29.5127 46.1285 29.5574 46.3418 29.7631C46.5196 29.924 46.6707 29.9687 47.0262 29.9687C47.2751 29.9687 47.4884 29.9598 47.5062 29.9419C47.5239 29.924 47.5684 29.7184 47.5951 29.4769C47.6573 29.0746 47.6484 29.0567 47.444 29.0567C47.1862 29.0567 47.124 28.9404 47.1773 28.5381C47.2218 28.2966 47.2573 28.2519 47.4795 28.2519C47.7728 28.2519 47.8084 28.2072 47.9061 27.6796L47.9772 27.2683H47.7195C47.4617 27.2683 47.4528 27.2594 47.4884 26.9107C47.5239 26.5172 47.4973 26.5083 46.9107 26.6603Z" fill="black"/>
<path fill-rule="evenodd" clip-rule="evenodd" d="M48.7506 27.3483C47.9862 27.8132 47.684 28.931 48.1373 29.6284C48.4039 30.0308 48.955 30.147 49.4261 29.9056C49.5772 29.8251 49.6927 29.8072 49.6927 29.8609C49.6927 29.9145 49.906 29.9503 50.1815 29.9503C50.4482 29.9503 50.6704 29.9235 50.6704 29.8788C50.6704 29.843 50.7682 29.2529 50.8926 28.5733C51.017 27.8848 51.1148 27.3125 51.1148 27.2946C51.1148 27.2141 50.146 27.2857 50.1193 27.3662C50.1016 27.4198 49.9949 27.4109 49.826 27.3214C49.4705 27.1337 49.0883 27.1426 48.7506 27.3483ZM49.7016 28.162C49.8083 28.2246 49.8705 28.3497 49.8705 28.5017C49.8705 29.0114 49.3905 29.2886 49.0705 28.9667C48.8572 28.7521 48.8928 28.4749 49.1772 28.2246C49.3816 28.0457 49.4616 28.0368 49.7016 28.162Z" fill="black"/>
<path fill-rule="evenodd" clip-rule="evenodd" d="M52.8661 27.3479C52.6083 27.482 52.5372 27.4909 52.5372 27.3926C52.5372 27.3032 52.4039 27.2674 52.0484 27.2674C51.6128 27.2674 51.5595 27.2942 51.5151 27.4641C51.4351 27.8665 51.1151 29.7264 51.1151 29.8337C51.1151 29.9141 51.2662 29.9499 51.5951 29.9499H52.075L52.1817 29.3687C52.3061 28.6981 52.5194 28.3762 52.8927 28.2957C53.0349 28.2599 53.1771 28.2063 53.1949 28.1795C53.2749 28.0364 53.346 27.178 53.2749 27.178C53.2305 27.178 53.0527 27.2585 52.8661 27.3479Z" fill="black"/>
<path fill-rule="evenodd" clip-rule="evenodd" d="M57.7633 27.303C57.6211 27.3745 57.5145 27.3924 57.5145 27.3477C57.5145 27.294 57.3012 27.2672 57.0079 27.2851L56.5012 27.3119L56.2968 28.4743C56.0213 30.057 56.0035 29.9497 56.5635 29.9497H57.0345L57.1856 29.1807C57.3456 28.3313 57.4523 28.1435 57.7278 28.1793C57.8878 28.2061 57.9144 28.2687 57.9144 28.6085C57.9144 28.832 57.8789 29.2254 57.8344 29.4758L57.7633 29.9497H58.2522H58.741L58.8388 29.3864C58.8921 29.0824 58.9632 28.5816 58.9988 28.2776C59.0521 27.7501 59.0432 27.7143 58.7766 27.455C58.4744 27.142 58.1544 27.0973 57.7633 27.303Z" fill="black"/>
<path fill-rule="evenodd" clip-rule="evenodd" d="M60.2257 27.3034C59.6391 27.5717 59.2658 28.1439 59.2569 28.8056C59.248 29.2974 59.4613 29.6461 59.9235 29.8876C60.2879 30.0843 61.1323 30.0485 61.4789 29.816L61.71 29.664L61.4256 29.369C61.1678 29.1096 61.1234 29.0828 60.8923 29.1722C60.6967 29.2438 60.5812 29.2438 60.3857 29.1365C60.1546 29.0202 60.1901 29.0113 61.0434 28.9845L61.95 28.9576L62.0122 28.6536C62.0388 28.4837 62.0388 28.2065 62.0122 28.0456C61.8877 27.3571 60.9634 26.9726 60.2257 27.3034ZM61.0523 28.0903C61.2389 28.2781 61.1678 28.3407 60.759 28.3407C60.3412 28.3407 60.2435 28.2334 60.519 28.0813C60.7234 27.9562 60.9189 27.9562 61.0523 28.0903Z" fill="black"/>
<path fill-rule="evenodd" clip-rule="evenodd" d="M55.0703 27.3746C55.0081 27.5714 54.6703 29.5743 54.6703 29.771C54.6703 29.932 54.7237 29.9498 55.1414 29.9498H55.6214L55.8169 28.7606C55.9236 28.1168 56.0391 27.5088 56.0569 27.4193C56.1013 27.2852 56.0391 27.2673 55.6036 27.2673C55.2836 27.2673 55.097 27.3031 55.0703 27.3746Z" fill="black"/>
</svg>
