<svg width="74" height="56" viewBox="0 0 74 56" fill="none" xmlns="http://www.w3.org/2000/svg">
<path d="M31.7662 31.3461L31.7303 31.3428C31.5268 31.3213 31.3352 31.3067 31.3352 31.1501C31.3352 30.9574 31.6106 30.9213 31.7662 30.9213C31.9473 30.9226 32.1263 30.9599 32.293 31.0309L32.3169 31.0429L32.4247 30.79L32.4007 30.7813C32.2 30.6955 31.9843 30.6504 31.7662 30.6488C31.3352 30.6488 31.0479 30.8536 31.0479 31.1427C31.0479 31.516 31.419 31.5642 31.7183 31.5883H31.7423C32.0056 31.6124 32.1852 31.6474 32.1852 31.8171C32.1852 31.9496 32.0056 32.0339 31.7303 32.0339C31.5272 32.0359 31.3264 31.9905 31.1437 31.9014L31.1197 31.8913L31 32.1443L31.0239 32.1563C31.2427 32.2682 31.4849 32.326 31.7303 32.3249C32.1613 32.3249 32.4726 32.1202 32.4726 31.8191C32.4726 31.3975 32.0176 31.3493 31.7542 31.3252M34.4839 31.249C34.4839 31.3257 34.4536 31.3992 34.3997 31.4534C34.3458 31.5076 34.2727 31.5381 34.1965 31.5381H33.7536V30.9607H34.1965C34.2738 30.9638 34.3469 30.9969 34.4005 31.053C34.454 31.1091 34.4839 31.184 34.4839 31.2618M34.1965 30.6836H33.6338C33.5957 30.6836 33.5592 30.6989 33.5323 30.726C33.5053 30.7531 33.4902 30.7898 33.4902 30.8282V32.3096H33.7655V31.8399H34.2085C34.2834 31.8415 34.3579 31.828 34.4275 31.8003C34.4972 31.7726 34.5606 31.7311 34.6141 31.6784C34.6677 31.6257 34.7102 31.5627 34.7392 31.4933C34.7682 31.4238 34.7832 31.3492 34.7832 31.2738C34.7832 31.1205 34.7226 30.9734 34.6148 30.865C34.5071 30.7566 34.3609 30.6957 34.2085 30.6957M35.6451 30.8282V32.1651C35.6451 32.2034 35.6603 32.2402 35.6872 32.2673C35.7142 32.2944 35.7507 32.3096 35.7888 32.3096H36.8902V32.0326H35.9205V31.6351H36.8304V31.3581H35.9205V30.9607H36.8902V30.6836H35.7888C35.7507 30.6836 35.7142 30.6989 35.6872 30.726C35.6603 30.7531 35.6451 30.7898 35.6451 30.8282ZM38.9973 31.8279C38.948 31.8998 38.8817 31.9583 38.8044 31.9983C38.7271 32.0382 38.6412 32.0583 38.5543 32.0567C38.4072 32.0535 38.2671 31.9925 38.1642 31.8867C38.0612 31.7809 38.0036 31.6387 38.0036 31.4906C38.0036 31.3437 38.0617 31.2028 38.1649 31.0988C38.2682 30.9949 38.4083 30.9366 38.5543 30.9366C38.635 30.937 38.7145 30.9556 38.787 30.991C38.8595 31.0265 38.9232 31.0778 38.9734 31.1413L38.9853 31.1534L39.1889 30.9727L39.1769 30.9561C39.0666 30.8288 38.9204 30.7384 38.7577 30.6969C38.5951 30.6553 38.4237 30.6645 38.2664 30.7234C38.1091 30.7822 37.9733 30.8879 37.8772 31.0263C37.7811 31.1647 37.7291 31.3292 37.7283 31.4981C37.7283 31.7196 37.8149 31.9323 37.9695 32.09C38.1241 32.2478 38.3342 32.338 38.5543 32.3412C38.6849 32.3441 38.8143 32.315 38.9311 32.2562C39.048 32.1974 39.1488 32.1108 39.2248 32.0039L39.2367 31.9866L39.0213 31.818L38.9973 31.8279ZM39.967 30.9607H40.5178V32.3096H40.7931V30.9607H41.3438V30.6836H39.967V30.9607ZM43.2713 31.2377C43.2714 31.2719 43.2645 31.3058 43.2511 31.3373C43.2377 31.3688 43.2181 31.3973 43.1935 31.4209C43.1689 31.4446 43.1397 31.463 43.1078 31.4749C43.0759 31.4869 43.0419 31.4922 43.0079 31.4906H42.4931V30.9607H43.0079C43.0436 30.9606 43.0788 30.9679 43.1116 30.9819C43.1443 30.996 43.1739 31.0166 43.1985 31.0425C43.2232 31.0684 43.2423 31.099 43.2548 31.1326C43.2673 31.1661 43.2729 31.2019 43.2713 31.2377ZM43.5467 31.2377C43.5483 31.1655 43.5355 31.0937 43.5092 31.0266C43.4828 30.9594 43.4434 30.8982 43.3932 30.8466C43.343 30.795 43.2831 30.754 43.2169 30.726C43.1507 30.698 43.0797 30.6836 43.0079 30.6836H42.3734C42.3353 30.6836 42.2988 30.6989 42.2718 30.726C42.2449 30.7531 42.2298 30.7898 42.2298 30.8282V32.3096H42.5051V31.7556H42.8762L43.2593 32.3096H43.5826L43.1755 31.7315C43.282 31.7004 43.3756 31.6355 43.4425 31.5465C43.5094 31.4575 43.5459 31.3492 43.5467 31.2377ZM45.6657 31.6111C45.6657 31.7261 45.6203 31.8363 45.5395 31.9177C45.4587 31.999 45.349 32.0447 45.2347 32.0447C45.1204 32.0447 45.0108 31.999 44.93 31.9177C44.8491 31.8363 44.8037 31.7261 44.8037 31.6111V30.6836H44.5284V31.6111C44.5284 31.7995 44.6028 31.9803 44.7353 32.1135C44.8677 32.2468 45.0474 32.3217 45.2347 32.3217C45.4221 32.3217 45.6017 32.2468 45.7342 32.1135C45.8667 31.9803 45.9411 31.7995 45.9411 31.6111V30.6836H45.6657V31.6111ZM48.3834 30.6596C48.3615 30.6604 48.3401 30.6662 48.3208 30.6767C48.3015 30.6871 48.2848 30.7019 48.272 30.7198L47.7333 31.4906L47.1945 30.7198C47.1807 30.7042 47.1637 30.6919 47.1447 30.6836C47.1257 30.6752 47.1051 30.6712 47.0844 30.6716C47.0463 30.6716 47.0098 30.6868 46.9828 30.7139C46.9559 30.741 46.9407 30.7778 46.9407 30.8161V32.3096H47.2161V31.1895L47.7309 31.9363L48.2457 31.1895V32.2976H48.521V30.8041C48.521 30.7658 48.5059 30.729 48.479 30.7019C48.452 30.6748 48.4155 30.6596 48.3774 30.6596M35.262 33.7068H35.6332V34.574H35.8247V33.7068H36.1959V33.5261H35.262V33.7068ZM37.4529 34.044C37.4529 34.143 37.4138 34.238 37.3442 34.308C37.2746 34.3781 37.1802 34.4174 37.0818 34.4174C36.9834 34.4174 36.889 34.3781 36.8194 34.308C36.7498 34.238 36.7107 34.143 36.7107 34.044C36.7091 33.9976 36.7168 33.9513 36.7332 33.9078C36.7496 33.8644 36.7745 33.8247 36.8064 33.7911C36.8781 33.7197 36.9749 33.6797 37.0758 33.6797C37.1767 33.6797 37.2734 33.7197 37.3452 33.7911C37.3779 33.8243 37.4037 33.8638 37.421 33.9073C37.4382 33.9507 37.4467 33.9972 37.4457 34.044H37.4529ZM37.0818 33.502C37.009 33.4988 36.9364 33.5104 36.8683 33.5362C36.8001 33.5619 36.7379 33.6013 36.6853 33.652C36.6327 33.7027 36.5908 33.7635 36.5623 33.8309C36.5337 33.8983 36.519 33.9708 36.5191 34.044C36.5143 34.1569 36.5432 34.2686 36.6021 34.3648C36.6609 34.461 36.747 34.5373 36.8493 34.5839C36.9516 34.6304 37.0655 34.6451 37.1761 34.6261C37.2868 34.607 37.3893 34.5551 37.4704 34.477C37.5515 34.3989 37.6075 34.2981 37.6313 34.1877C37.655 34.0773 37.6453 33.9623 37.6035 33.8574C37.5617 33.7526 37.4897 33.6627 37.3967 33.5994C37.3038 33.536 37.1941 33.5021 37.0818 33.502ZM38.6022 34.3933H38.2191V34.1404H38.6022C38.6352 34.1402 38.667 34.1525 38.6914 34.1748C38.7157 34.1971 38.7309 34.2278 38.7339 34.2608C38.7339 34.296 38.72 34.3297 38.6954 34.3545C38.6707 34.3793 38.6372 34.3933 38.6022 34.3933ZM38.2191 33.7068H38.5663C38.586 33.7006 38.6069 33.6991 38.6273 33.7026C38.6477 33.706 38.6669 33.7142 38.6836 33.7265C38.7002 33.7388 38.7138 33.7549 38.7231 33.7734C38.7324 33.792 38.7373 33.8125 38.7373 33.8332C38.7373 33.854 38.7324 33.8745 38.7231 33.893C38.7138 33.9116 38.7002 33.9277 38.6836 33.94C38.6669 33.9523 38.6477 33.9605 38.6273 33.9639C38.6069 33.9673 38.586 33.9659 38.5663 33.9597H38.2191V33.7068ZM38.7938 34.032C38.8241 34.0075 38.8483 33.9762 38.8646 33.9407C38.8808 33.9052 38.8887 33.8663 38.8875 33.8272C38.8844 33.7445 38.8489 33.6664 38.7887 33.61C38.7285 33.5536 38.6485 33.5234 38.5663 33.5261H38.1353C38.1225 33.5256 38.1096 33.5278 38.0976 33.5324C38.0856 33.537 38.0746 33.5441 38.0653 33.5531C38.0561 33.5621 38.0487 33.5728 38.0437 33.5848C38.0387 33.5967 38.0361 33.6095 38.0361 33.6225V34.4776C38.0361 34.4906 38.0387 34.5034 38.0437 34.5153C38.0487 34.5272 38.0561 34.538 38.0653 34.547C38.0746 34.556 38.0856 34.563 38.0976 34.5677C38.1096 34.5723 38.1225 34.5744 38.1353 34.574H38.6022C38.6441 34.5756 38.6859 34.5687 38.725 34.5537C38.7642 34.5387 38.7999 34.5159 38.8301 34.4866C38.8603 34.4574 38.8843 34.4223 38.9007 34.3835C38.9171 34.3447 38.9255 34.303 38.9255 34.2608C38.9266 34.2142 38.915 34.1681 38.8917 34.1277C38.8685 34.0873 38.8346 34.0542 38.7938 34.032ZM39.6558 34.1524L39.7994 33.8393L39.9311 34.1524H39.6558ZM39.7994 33.5141C39.7812 33.515 39.7636 33.5212 39.7488 33.5319C39.734 33.5425 39.7224 33.5573 39.7156 33.5743L39.2727 34.586H39.4762L39.5839 34.3331H40.003L40.1107 34.574V34.586H40.3142L39.8713 33.5743C39.8644 33.5573 39.8529 33.5425 39.8381 33.5319C39.8232 33.5212 39.8057 33.515 39.7875 33.5141M41.4635 34.2608C41.4143 34.3177 41.3496 34.3588 41.2774 34.3791C41.2052 34.3993 41.1287 34.3978 41.0573 34.3748C40.9859 34.3517 40.9228 34.308 40.8759 34.2493C40.8289 34.1905 40.8001 34.1191 40.7931 34.044C40.7931 33.9955 40.8028 33.9475 40.8215 33.9029C40.8403 33.8583 40.8679 33.8179 40.9025 33.7842C40.9371 33.7504 40.9782 33.7241 41.0231 33.7067C41.0681 33.6892 41.1161 33.6811 41.1642 33.6827C41.2189 33.6821 41.273 33.6937 41.3226 33.7166C41.3723 33.7395 41.4163 33.7732 41.4516 33.8152L41.4635 33.8272L41.6072 33.7068L41.5952 33.6947C41.5429 33.6347 41.4784 33.5865 41.4062 33.5533C41.334 33.52 41.2556 33.5026 41.1762 33.502C41.1035 33.4988 41.0308 33.5104 40.9627 33.5362C40.8945 33.5619 40.8323 33.6013 40.7797 33.652C40.7271 33.7027 40.6853 33.7635 40.6567 33.8309C40.6281 33.8983 40.6135 33.9708 40.6135 34.044C40.6183 34.1598 40.6582 34.2713 40.7279 34.3635C40.7977 34.4558 40.8939 34.5242 41.0036 34.5597C41.1132 34.5951 41.231 34.5959 41.3411 34.5618C41.4512 34.5278 41.5483 34.4605 41.6192 34.3692L41.6311 34.3572L41.4875 34.2367L41.4635 34.2608ZM42.7565 34.2608C42.7073 34.3177 42.6426 34.3588 42.5704 34.3791C42.4982 34.3993 42.4216 34.3978 42.3503 34.3748C42.2789 34.3517 42.2158 34.308 42.1689 34.2493C42.1219 34.1905 42.0931 34.1191 42.0861 34.044C42.0861 33.9955 42.0957 33.9475 42.1145 33.9029C42.1333 33.8583 42.1608 33.8179 42.1955 33.7842C42.2301 33.7504 42.2711 33.7241 42.3161 33.7067C42.3611 33.6892 42.4091 33.6811 42.4572 33.6827C42.5119 33.6821 42.5659 33.6937 42.6156 33.7166C42.6653 33.7395 42.7093 33.7732 42.7445 33.8152L42.7565 33.8272L42.9002 33.7068L42.8882 33.6947C42.8358 33.6347 42.7714 33.5865 42.6992 33.5533C42.627 33.52 42.5486 33.5026 42.4692 33.502C42.3965 33.4988 42.3238 33.5104 42.2557 33.5362C42.1875 33.5619 42.1253 33.6013 42.0727 33.652C42.0201 33.7027 41.9782 33.7635 41.9497 33.8309C41.9211 33.8983 41.9064 33.9708 41.9065 34.044C41.9112 34.1598 41.9512 34.2713 42.0209 34.3635C42.0907 34.4558 42.1869 34.5242 42.2965 34.5597C42.4062 34.5951 42.524 34.5959 42.6341 34.5618C42.7442 34.5278 42.8413 34.4605 42.9122 34.3692L42.9241 34.3572L42.7685 34.2488L42.7565 34.2608ZM44.0974 34.044C44.0974 34.143 44.0583 34.238 43.9887 34.308C43.9191 34.3781 43.8247 34.4174 43.7263 34.4174C43.6278 34.4174 43.5334 34.3781 43.4638 34.308C43.3942 34.238 43.3551 34.143 43.3551 34.044C43.3536 33.9976 43.3612 33.9513 43.3777 33.9078C43.3941 33.8644 43.419 33.8247 43.4509 33.7911C43.5226 33.7197 43.6194 33.6797 43.7203 33.6797C43.8211 33.6797 43.9179 33.7197 43.9896 33.7911C44.0224 33.8243 44.0482 33.8638 44.0654 33.9073C44.0827 33.9507 44.0911 33.9972 44.0902 34.044H44.0974ZM43.7263 33.502C43.6535 33.4988 43.5809 33.5104 43.5127 33.5362C43.4446 33.5619 43.3823 33.6013 43.3297 33.652C43.2771 33.7027 43.2353 33.7635 43.2067 33.8309C43.1782 33.8983 43.1635 33.9708 43.1636 34.044C43.1588 34.1569 43.1877 34.2686 43.2465 34.3648C43.3054 34.461 43.3915 34.5373 43.4938 34.5839C43.5961 34.6304 43.7099 34.6451 43.8206 34.6261C43.9313 34.607 44.0338 34.5551 44.1149 34.477C44.196 34.3989 44.252 34.2981 44.2757 34.1877C44.2994 34.0773 44.2898 33.9623 44.248 33.8574C44.2062 33.7526 44.1342 33.6627 44.0412 33.5994C43.9482 33.536 43.8385 33.5021 43.7263 33.502Z" fill="black"/>
<path d="M37.1541 28.6474L40.0633 28.1415L38.052 26.648L37.1541 28.6474Z" fill="#0065A7"/>
<path d="M38.0639 26.5999L40.0632 28.0573L41.464 26.7685L38.0639 26.5999Z" fill="#0678AC"/>
<path d="M41.5239 26.6247L42.4218 24.2399L39.2253 24.8903L41.5239 26.6247Z" fill="#2EB56A"/>
<path d="M39.3808 24.7934L42.5774 24.1671L40.3146 23.6492L39.3808 24.7934Z" fill="#A5CE40"/>
<path d="M40.2907 23.5654L42.5654 24.1074L42.7569 21L40.2907 23.5654Z" fill="#F5E431"/>
<path d="M36.5674 26.1183L37.1181 28.5994L38.004 26.588L36.5674 26.1183Z" fill="#9072B3"/>
<path d="M39.0932 24.974L36.627 26.07L37.9798 26.5277L39.0932 24.974Z" fill="#9360A8"/>
<path d="M37.3692 23.8902L36.627 25.9619L39.2009 24.8538L37.3692 23.8902Z" fill="#DF599C"/>
<path d="M37.4652 23.8299L39.2011 23.7094L40.2187 23.589L39.4884 22.3243L37.4652 23.8299Z" fill="#F89A29"/>
<path d="M39.5004 22.2044L40.2427 23.4932L42.697 21L39.5004 22.2044Z" fill="#FCBC1B"/>
<path d="M37.4652 23.878L39.2969 24.7934L40.2427 23.6492L37.4652 23.878Z" fill="#F16165"/>
<path d="M39.1653 24.974L38.0639 26.5518L41.464 26.7325L39.1653 24.974Z" fill="#1DA6BA"/>
<path d="M59.3511 20.7301C60.5175 23.8811 60.9089 27.2588 60.4933 30.587C60.0777 33.9152 58.8668 37.0995 56.9597 39.8794C55.0526 42.6594 52.5034 44.9561 49.5205 46.5817C46.5377 48.2074 43.2058 49.1159 39.7975 49.2329L39.5335 41.8005C41.7489 41.7244 43.9146 41.1339 45.8535 40.0772C47.7923 39.0206 49.4493 37.5277 50.6889 35.7207C51.9286 33.9138 52.7156 31.844 52.9858 29.6807C53.2559 27.5173 53.0015 25.3218 52.2433 23.2737L59.3511 20.7301Z" fill="#440501"/>
<path d="M18.2693 22.1406C19.5272 17.8272 22.1418 14.0161 25.7381 11.2535C29.3344 8.49091 33.728 6.91864 38.289 6.76204C42.8501 6.60544 47.3445 7.87255 51.1281 10.3818C54.9116 12.891 57.7902 16.5135 59.3511 20.7301L52.2433 23.2737C51.2287 20.5329 49.3577 18.1783 46.8984 16.5473C44.439 14.9163 41.5177 14.0927 38.553 14.1944C35.5883 14.2962 32.7325 15.3182 30.3949 17.1139C28.0573 18.9096 26.3578 21.3868 25.5402 24.1905L18.2693 22.1406Z" fill="#910146"/>
<path d="M39.7975 49.2329C36.3891 49.3499 33.0009 48.6722 29.91 47.2551C26.8191 45.8379 24.1131 43.7217 22.0134 41.0793C19.9137 38.4369 18.4799 35.3435 17.8292 32.0519C17.1784 28.7603 17.3292 25.3639 18.2693 22.1406L25.5402 24.1905C24.9291 26.2857 24.8311 28.4933 25.2541 30.6328C25.6771 32.7724 26.6091 34.7831 27.9739 36.5007C29.3387 38.2182 31.0975 39.5938 33.1066 40.5149C35.1157 41.436 37.318 41.8766 39.5335 41.8005L39.7975 49.2329Z" fill="#9B001C"/>
<path d="M23.7867 41.2666L21.2416 44.4839H10.6977" stroke="black" stroke-width="0.145684"/>
<path d="M3.91302 40.1693C3.91302 40.1991 3.89814 40.214 3.86839 40.214H2.53387C2.52197 40.214 2.51602 40.2199 2.51602 40.2318V41.3387C2.51602 41.3506 2.52197 41.3566 2.53387 41.3566H3.43099C3.46074 41.3566 3.47562 41.3714 3.47562 41.4012V41.5886C3.47562 41.6184 3.46074 41.6333 3.43099 41.6333H2.53387C2.52197 41.6333 2.51602 41.6392 2.51602 41.6511V43.0169C2.51602 43.0466 2.50114 43.0615 2.47138 43.0615H2.24376C2.214 43.0615 2.19913 43.0466 2.19913 43.0169V39.9819C2.19913 39.9521 2.214 39.9372 2.24376 39.9372H3.86839C3.89814 39.9372 3.91302 39.9521 3.91302 39.9819V40.1693ZM4.41437 43.0615C4.38461 43.0615 4.36974 43.0466 4.36974 43.0169V39.9819C4.36974 39.9521 4.38461 39.9372 4.41437 39.9372H4.642C4.67175 39.9372 4.68663 39.9521 4.68663 39.9819V43.0169C4.68663 43.0466 4.67175 43.0615 4.642 43.0615H4.41437ZM6.95979 43.0615C6.93599 43.0615 6.91962 43.0496 6.9107 43.0258L6.35725 41.6467C6.35428 41.6377 6.34832 41.6333 6.3394 41.6333H5.76364C5.75173 41.6333 5.74578 41.6392 5.74578 41.6511V43.0169C5.74578 43.0466 5.73091 43.0615 5.70115 43.0615H5.47352C5.44377 43.0615 5.42889 43.0466 5.42889 43.0169V39.9819C5.42889 39.9521 5.44377 39.9372 5.47352 39.9372H6.41974C6.57446 39.9372 6.71134 39.9729 6.83036 40.0444C6.95235 40.1158 7.04608 40.2169 7.11154 40.3479C7.17998 40.4788 7.2142 40.629 7.2142 40.7986C7.2142 41.001 7.1651 41.1736 7.06691 41.3164C6.96872 41.4592 6.83482 41.5544 6.66522 41.602C6.65331 41.608 6.65034 41.6154 6.65629 41.6244L7.23205 43.008L7.23651 43.0258C7.23651 43.0496 7.22312 43.0615 7.19634 43.0615H6.95979ZM5.76364 40.214C5.75173 40.214 5.74578 40.2199 5.74578 40.2318V41.361C5.74578 41.3729 5.75173 41.3789 5.76364 41.3789H6.37957C6.53429 41.3789 6.65927 41.3253 6.75448 41.2182C6.8497 41.1111 6.89731 40.9712 6.89731 40.7986C6.89731 40.6231 6.8497 40.4818 6.75448 40.3746C6.65927 40.2675 6.53429 40.214 6.37957 40.214H5.76364ZM9.50528 40.1693C9.50528 40.1991 9.49041 40.214 9.46065 40.214H8.12167C8.10977 40.214 8.10382 40.2199 8.10382 40.2318V41.3387C8.10382 41.3506 8.10977 41.3566 8.12167 41.3566H9.02325C9.05301 41.3566 9.06788 41.3714 9.06788 41.4012V41.5886C9.06788 41.6184 9.05301 41.6333 9.02325 41.6333H8.12167C8.10977 41.6333 8.10382 41.6392 8.10382 41.6511V42.7669C8.10382 42.7788 8.10977 42.7848 8.12167 42.7848H9.46065C9.49041 42.7848 9.50528 42.7997 9.50528 42.8294V43.0169C9.50528 43.0466 9.49041 43.0615 9.46065 43.0615H7.83156C7.8018 43.0615 7.78693 43.0466 7.78693 43.0169V39.9819C7.78693 39.9521 7.8018 39.9372 7.83156 39.9372H9.46065C9.49041 39.9372 9.50528 39.9521 9.50528 39.9819V40.1693ZM11.5128 43.0615C11.4861 43.0615 11.4697 43.0481 11.4638 43.0214L10.7452 39.9863L10.7407 39.9685C10.7407 39.9477 10.7541 39.9372 10.7809 39.9372H11.0219C11.0487 39.9372 11.065 39.9506 11.071 39.9774L11.6155 42.3742C11.6185 42.3831 11.6215 42.3876 11.6244 42.3876C11.6304 42.3876 11.6348 42.3831 11.6378 42.3742L12.1332 39.9774C12.1392 39.9506 12.1556 39.9372 12.1823 39.9372H12.4055C12.4353 39.9372 12.4516 39.9506 12.4546 39.9774L12.9679 42.3742C12.9708 42.3831 12.9738 42.3876 12.9768 42.3876C12.9798 42.3876 12.9827 42.3831 12.9857 42.3742L13.5169 39.9774C13.5228 39.9506 13.5392 39.9372 13.5659 39.9372H13.798C13.8278 39.9372 13.8397 39.9536 13.8337 39.9863L13.1375 43.0214C13.1315 43.0481 13.1152 43.0615 13.0884 43.0615H12.8608C12.834 43.0615 12.8176 43.0481 12.8117 43.0214L12.3028 40.5889C12.2999 40.5799 12.2969 40.5755 12.2939 40.5755C12.2909 40.5755 12.288 40.5799 12.285 40.5889L11.7806 43.0214C11.7777 43.0481 11.7613 43.0615 11.7315 43.0615H11.5128ZM14.3826 43.0615C14.3529 43.0615 14.338 43.0466 14.338 43.0169V39.9819C14.338 39.9521 14.3529 39.9372 14.3826 39.9372H14.6102C14.64 39.9372 14.6549 39.9521 14.6549 39.9819V43.0169C14.6549 43.0466 14.64 43.0615 14.6102 43.0615H14.3826ZM16.9504 39.9819C16.9504 39.9521 16.9652 39.9372 16.995 39.9372H17.2226C17.2524 39.9372 17.2673 39.9521 17.2673 39.9819V43.0169C17.2673 43.0466 17.2524 43.0615 17.2226 43.0615H16.9816C16.9548 43.0615 16.937 43.0511 16.928 43.0303L15.7319 40.6424C15.7259 40.6365 15.72 40.6335 15.714 40.6335C15.7111 40.6335 15.7096 40.638 15.7096 40.6469L15.714 43.0169C15.714 43.0466 15.6992 43.0615 15.6694 43.0615H15.4418C15.412 43.0615 15.3971 43.0466 15.3971 43.0169V39.9819C15.3971 39.9521 15.412 39.9372 15.4418 39.9372H15.6828C15.7096 39.9372 15.7274 39.9477 15.7364 39.9685L16.9325 42.3653C16.9385 42.3712 16.9429 42.3742 16.9459 42.3742C16.9518 42.3742 16.9548 42.3697 16.9548 42.3608L16.9504 39.9819ZM19.6958 40.1693C19.6958 40.1991 19.6809 40.214 19.6512 40.214H18.3122C18.3003 40.214 18.2944 40.2199 18.2944 40.2318V41.3387C18.2944 41.3506 18.3003 41.3566 18.3122 41.3566H19.2138C19.2435 41.3566 19.2584 41.3714 19.2584 41.4012V41.5886C19.2584 41.6184 19.2435 41.6333 19.2138 41.6333H18.3122C18.3003 41.6333 18.2944 41.6392 18.2944 41.6511V42.7669C18.2944 42.7788 18.3003 42.7848 18.3122 42.7848H19.6512C19.6809 42.7848 19.6958 42.7997 19.6958 42.8294V43.0169C19.6958 43.0466 19.6809 43.0615 19.6512 43.0615H18.0221C17.9923 43.0615 17.9775 43.0466 17.9775 43.0169V39.9819C17.9775 39.9521 17.9923 39.9372 18.0221 39.9372H19.6512C19.6809 39.9372 19.6958 39.9521 19.6958 39.9819V40.1693ZM21.0116 41.9368C20.9818 41.9368 20.967 41.9219 20.967 41.8921V41.7047C20.967 41.6749 20.9818 41.6601 21.0116 41.6601H23.453C23.4827 41.6601 23.4976 41.6749 23.4976 41.7047V41.8921C23.4976 41.9219 23.4827 41.9368 23.453 41.9368H21.0116ZM3.54257 46.5797C3.5991 46.7344 3.62737 46.9115 3.62737 47.1108C3.62737 47.2894 3.60505 47.4441 3.56042 47.575C3.45033 47.9232 3.20634 48.0972 2.82845 48.0972C2.62611 48.0972 2.45651 48.0437 2.31963 47.9366C2.18276 47.8265 2.09498 47.6762 2.0563 47.4858C2.03547 47.3905 2.02506 47.2819 2.02506 47.1599C2.02506 47.1302 2.03994 47.1153 2.06969 47.1153H2.29732C2.32707 47.1153 2.34195 47.1302 2.34195 47.1599C2.3479 47.2879 2.35534 47.3742 2.36427 47.4188C2.39105 47.5438 2.44461 47.642 2.52494 47.7134C2.60528 47.7848 2.70645 47.8205 2.82845 47.8205C3.05756 47.8205 3.20634 47.7045 3.27477 47.4724C3.30155 47.3653 3.31494 47.2373 3.31494 47.0885C3.31494 46.91 3.2956 46.7627 3.25692 46.6467C3.17956 46.4384 3.03673 46.3342 2.82845 46.3342C2.78084 46.3342 2.73918 46.3432 2.70347 46.361C2.68562 46.367 2.67521 46.3699 2.67223 46.3699C2.66033 46.3699 2.64992 46.364 2.64099 46.3521L2.52494 46.2316C2.51007 46.2108 2.50858 46.1899 2.52048 46.1691L3.21675 45.2363C3.2227 45.2303 3.22419 45.2259 3.22121 45.2229C3.21824 45.2169 3.21377 45.214 3.20782 45.214H2.09201C2.06225 45.214 2.04737 45.1991 2.04737 45.1693V44.9819C2.04737 44.9521 2.06225 44.9372 2.09201 44.9372H3.56935C3.5991 44.9372 3.61398 44.9521 3.61398 44.9819V45.1827C3.61398 45.2065 3.60803 45.2259 3.59613 45.2407L2.94895 46.1245C2.94598 46.1274 2.94598 46.1319 2.94895 46.1379C2.95193 46.1438 2.95639 46.1468 2.96234 46.1468C3.10219 46.1527 3.22121 46.1929 3.31941 46.2673C3.4176 46.3417 3.49198 46.4458 3.54257 46.5797ZM5.0106 48.1062C4.75471 48.1062 4.5494 48.0288 4.39467 47.8741C4.23994 47.7193 4.16258 47.5125 4.16258 47.2537V45.7451C4.16258 45.4892 4.23994 45.2839 4.39467 45.1292C4.5494 44.9744 4.75471 44.8971 5.0106 44.8971C5.26947 44.8971 5.47627 44.9744 5.63099 45.1292C5.7887 45.2839 5.86755 45.4892 5.86755 45.7451V47.2537C5.86755 47.5125 5.7887 47.7193 5.63099 47.8741C5.47627 48.0288 5.26947 48.1062 5.0106 48.1062ZM5.0106 47.8294C5.17425 47.8294 5.30518 47.7788 5.40337 47.6777C5.50156 47.5765 5.55065 47.4426 5.55065 47.276V45.7272C5.55065 45.5606 5.50156 45.4267 5.40337 45.3255C5.30518 45.2244 5.17425 45.1738 5.0106 45.1738C4.8529 45.1738 4.72495 45.2244 4.62676 45.3255C4.52857 45.4267 4.47947 45.5606 4.47947 45.7272V47.276C4.47947 47.4396 4.52857 47.5735 4.62676 47.6777C4.72495 47.7788 4.8529 47.8294 5.0106 47.8294ZM7.14362 46.1646C7.02758 46.1646 6.92046 46.1364 6.82227 46.0798C6.72705 46.0233 6.65118 45.9474 6.59464 45.8522C6.53811 45.754 6.50984 45.6469 6.50984 45.5309C6.50984 45.4148 6.53811 45.3092 6.59464 45.214C6.65118 45.1158 6.72705 45.0384 6.82227 44.9819C6.92046 44.9253 7.02758 44.8971 7.14362 44.8971C7.25669 44.8971 7.36083 44.9253 7.45605 44.9819C7.55424 45.0384 7.63161 45.1158 7.68814 45.214C7.74468 45.3092 7.77294 45.4148 7.77294 45.5309C7.77294 45.6469 7.74468 45.754 7.68814 45.8522C7.63161 45.9474 7.55424 46.0233 7.45605 46.0798C7.36083 46.1364 7.25669 46.1646 7.14362 46.1646ZM7.04097 48.0615C7.02609 48.0615 7.01419 48.0571 7.00526 48.0481C6.99931 48.0362 7.0008 48.0228 7.00972 48.008L8.67006 44.9685C8.67899 44.9477 8.69684 44.9372 8.72362 44.9372H8.86644C8.88132 44.9372 8.89174 44.9432 8.89769 44.9551C8.90661 44.964 8.90661 44.9759 8.89769 44.9908L7.23735 48.0303C7.22842 48.0511 7.21057 48.0615 7.18379 48.0615H7.04097ZM7.14362 45.9683C7.26264 45.9683 7.36232 45.9266 7.44266 45.8433C7.52598 45.757 7.56763 45.6528 7.56763 45.5309C7.56763 45.4089 7.52598 45.3062 7.44266 45.2229C7.36232 45.1366 7.26264 45.0935 7.14362 45.0935C7.0246 45.0935 6.92343 45.1366 6.84012 45.2229C6.75681 45.3062 6.71515 45.4089 6.71515 45.5309C6.71515 45.6528 6.75681 45.757 6.84012 45.8433C6.92343 45.9266 7.0246 45.9683 7.14362 45.9683ZM8.78164 48.1017C8.6656 48.1017 8.55848 48.0734 8.46029 48.0169C8.36507 47.9604 8.28919 47.883 8.23266 47.7848C8.17612 47.6866 8.14786 47.5795 8.14786 47.4634C8.14786 47.3504 8.17612 47.2462 8.23266 47.151C8.28919 47.0528 8.36507 46.9755 8.46029 46.9189C8.55848 46.8624 8.6656 46.8341 8.78164 46.8341C8.89471 46.8341 8.99885 46.8624 9.09407 46.9189C9.19226 46.9755 9.26963 47.0528 9.32616 47.151C9.38269 47.2462 9.41096 47.3504 9.41096 47.4634C9.41096 47.5795 9.38269 47.6866 9.32616 47.7848C9.26963 47.883 9.19226 47.9604 9.09407 48.0169C8.99885 48.0734 8.89471 48.1017 8.78164 48.1017ZM8.78164 47.9053C8.90066 47.9053 9.00034 47.8622 9.08068 47.7759C9.16399 47.6896 9.20565 47.5854 9.20565 47.4634C9.20565 47.3414 9.16399 47.2388 9.08068 47.1555C9.00034 47.0722 8.90066 47.0305 8.78164 47.0305C8.66262 47.0305 8.56145 47.0722 8.47814 47.1555C8.39483 47.2388 8.35317 47.3414 8.35317 47.4634C8.35317 47.5884 8.39334 47.694 8.47368 47.7803C8.55699 47.8637 8.65965 47.9053 8.78164 47.9053Z" fill="#404040"/>
<path d="M26.3735 12.99L23.8315 9.72668H13.3004" stroke="black" stroke-width="0.145684"/>
<path d="M48.4573 45.9788L50.9993 49.2421H61.5305" stroke="black" stroke-width="0.145684"/>
<path d="M1.3731 8.159C1.0934 8.159 0.870234 8.0861 0.703605 7.9403C0.539952 7.79152 0.458126 7.59365 0.458126 7.34668V7.22617C0.458126 7.19642 0.473003 7.18154 0.502758 7.18154H0.721458C0.751213 7.18154 0.766091 7.19642 0.766091 7.22617V7.32883C0.766091 7.49546 0.822626 7.62936 0.935695 7.73052C1.04876 7.83169 1.19903 7.88227 1.38649 7.88227C1.56204 7.88227 1.7004 7.83467 1.80157 7.73945C1.90274 7.64423 1.95332 7.51926 1.95332 7.36454C1.95332 7.26337 1.92952 7.17559 1.88191 7.1012C1.8343 7.02682 1.76437 6.95838 1.67213 6.89589C1.57989 6.83341 1.44748 6.75456 1.2749 6.65934C1.09042 6.56115 0.944622 6.47486 0.837503 6.40047C0.73336 6.32608 0.648558 6.23533 0.583097 6.12821C0.517636 6.02109 0.484905 5.89017 0.484905 5.73544C0.484905 5.49443 0.562268 5.30548 0.716995 5.16861C0.871722 5.03174 1.07852 4.9633 1.33739 4.9633C1.61411 4.9633 1.8343 5.03917 1.99795 5.19092C2.16161 5.34268 2.24343 5.54352 2.24343 5.79347V5.89612C2.24343 5.92588 2.22855 5.94075 2.1988 5.94075H1.97564C1.94588 5.94075 1.931 5.92588 1.931 5.89612V5.79793C1.931 5.6313 1.87744 5.4974 1.77033 5.39624C1.66321 5.29209 1.51592 5.24002 1.32846 5.24002C1.16183 5.24002 1.03091 5.28317 0.935695 5.36946C0.843454 5.45575 0.797334 5.57774 0.797334 5.73544C0.797334 5.83661 0.81965 5.92141 0.864283 5.98985C0.908916 6.05829 0.972889 6.12077 1.0562 6.17731C1.14249 6.23384 1.27342 6.30972 1.44897 6.40493C1.65131 6.518 1.80603 6.61471 1.91315 6.69505C2.02324 6.77241 2.10953 6.86316 2.17202 6.96731C2.23748 7.06847 2.27021 7.19344 2.27021 7.34222C2.27021 7.59216 2.18987 7.79152 2.0292 7.9403C1.86852 8.0861 1.64982 8.159 1.3731 8.159ZM4.54201 5.03025C4.55689 5.00942 4.57474 4.999 4.59557 4.999H4.82766C4.85742 4.999 4.8723 5.01388 4.8723 5.04364V8.07866C4.8723 8.10841 4.85742 8.12329 4.82766 8.12329H4.60004C4.57028 8.12329 4.5554 8.10841 4.5554 8.07866V5.65064C4.5554 5.64171 4.55243 5.63576 4.54648 5.63279C4.54053 5.62981 4.53606 5.63279 4.53309 5.64171L3.93947 6.67273C3.9246 6.69356 3.90674 6.70397 3.88591 6.70397H3.83682C3.81599 6.70397 3.79814 6.69356 3.78326 6.67273L3.18518 5.64618C3.18221 5.63725 3.17774 5.63428 3.17179 5.63725C3.16584 5.64023 3.16287 5.64618 3.16287 5.6551V8.07866C3.16287 8.10841 3.14799 8.12329 3.11823 8.12329H2.89061C2.86085 8.12329 2.84597 8.10841 2.84597 8.07866V5.04364C2.84597 5.01388 2.86085 4.999 2.89061 4.999H3.1227C3.14352 4.999 3.16138 5.00942 3.17625 5.03025L3.85021 6.17731C3.85318 6.18028 3.85765 6.18177 3.8636 6.18177C3.86955 6.18177 3.87401 6.18028 3.87699 6.17731L4.54201 5.03025ZM7.12251 8.12329C7.09573 8.12329 7.07937 8.1099 7.07342 8.08312L6.92613 7.52521C6.92316 7.51629 6.91572 7.51182 6.90381 7.51182H5.83709C5.82519 7.51182 5.81775 7.51629 5.81478 7.52521L5.66749 8.08312C5.66154 8.1099 5.64517 8.12329 5.61839 8.12329H5.3863C5.37143 8.12329 5.35952 8.11883 5.3506 8.1099C5.34465 8.10097 5.34316 8.08907 5.34613 8.0742L6.18077 5.03917C6.18672 5.01239 6.20308 4.999 6.22986 4.999H6.51551C6.54229 4.999 6.55866 5.01239 6.56461 5.03917L7.39924 8.0742L7.4037 8.08758C7.4037 8.11139 7.38882 8.12329 7.35907 8.12329H7.12251ZM5.89065 7.2351C5.88768 7.23808 5.88768 7.24254 5.89065 7.24849C5.8966 7.25147 5.90256 7.25295 5.90851 7.25295H6.8324C6.83835 7.25295 6.84282 7.25147 6.84579 7.24849C6.85174 7.24254 6.85323 7.23808 6.85026 7.2351L6.37715 5.44087C6.37417 5.43492 6.3712 5.43194 6.36822 5.43194C6.36525 5.43194 6.36227 5.43492 6.3593 5.44087L5.89065 7.2351ZM7.9206 8.12329C7.89085 8.12329 7.87597 8.10841 7.87597 8.07866V5.04364C7.87597 5.01388 7.89085 4.999 7.9206 4.999H8.14823C8.17798 4.999 8.19286 5.01388 8.19286 5.04364V7.82872C8.19286 7.84062 8.19881 7.84657 8.21071 7.84657H9.50953C9.53928 7.84657 9.55416 7.86145 9.55416 7.8912V8.07866C9.55416 8.10841 9.53928 8.12329 9.50953 8.12329H7.9206ZM10.0738 8.12329C10.044 8.12329 10.0291 8.10841 10.0291 8.07866V5.04364C10.0291 5.01388 10.044 4.999 10.0738 4.999H10.3014C10.3312 4.999 10.346 5.01388 10.346 5.04364V7.82872C10.346 7.84062 10.352 7.84657 10.3639 7.84657H11.6627C11.6925 7.84657 11.7073 7.86145 11.7073 7.8912V8.07866C11.7073 8.10841 11.6925 8.12329 11.6627 8.12329H10.0738ZM13.5347 6.4942C13.5198 6.50015 13.5198 6.50759 13.5347 6.51652C13.6745 6.58495 13.7817 6.68314 13.856 6.81109C13.9334 6.93904 13.9736 7.09376 13.9766 7.27527C13.9766 7.54307 13.8962 7.75135 13.7355 7.90013C13.5778 8.0489 13.3681 8.12329 13.1062 8.12329H12.227C12.1972 8.12329 12.1823 8.10841 12.1823 8.07866V5.04364C12.1823 5.01388 12.1972 4.999 12.227 4.999H13.0705C13.3443 4.999 13.5585 5.07042 13.7132 5.21324C13.868 5.35309 13.9453 5.55394 13.9453 5.81578C13.9453 5.98241 13.9096 6.12226 13.8382 6.23533C13.7698 6.3484 13.6686 6.43469 13.5347 6.4942ZM12.5171 5.27573C12.5052 5.27573 12.4992 5.28168 12.4992 5.29358V6.36923C12.4992 6.38113 12.5052 6.38708 12.5171 6.38708H13.075C13.2476 6.38708 13.3829 6.33798 13.4811 6.23979C13.5823 6.1416 13.6329 6.00919 13.6329 5.84256C13.6329 5.66701 13.5823 5.52865 13.4811 5.42748C13.3829 5.32631 13.2476 5.27573 13.075 5.27573H12.5171ZM13.0973 7.84211C13.2699 7.84211 13.4067 7.78855 13.5079 7.68143C13.6091 7.57431 13.6597 7.42851 13.6597 7.24403C13.6597 7.05657 13.6076 6.90928 13.5035 6.80216C13.4023 6.69505 13.2639 6.64149 13.0884 6.64149H12.5171C12.5052 6.64149 12.4992 6.64744 12.4992 6.65934V7.82425C12.4992 7.83615 12.5052 7.84211 12.5171 7.84211H13.0973ZM16.2849 5.23109C16.2849 5.26085 16.27 5.27573 16.2402 5.27573H14.9013C14.8894 5.27573 14.8834 5.28168 14.8834 5.29358V6.40047C14.8834 6.41237 14.8894 6.41832 14.9013 6.41832H15.8028C15.8326 6.41832 15.8475 6.4332 15.8475 6.46296V6.65041C15.8475 6.68017 15.8326 6.69505 15.8028 6.69505H14.9013C14.8894 6.69505 14.8834 6.701 14.8834 6.7129V7.82872C14.8834 7.84062 14.8894 7.84657 14.9013 7.84657H16.2402C16.27 7.84657 16.2849 7.86145 16.2849 7.8912V8.07866C16.2849 8.10841 16.27 8.12329 16.2402 8.12329H14.6111C14.5814 8.12329 14.5665 8.10841 14.5665 8.07866V5.04364C14.5665 5.01388 14.5814 4.999 14.6111 4.999H16.2402C16.27 4.999 16.2849 5.01388 16.2849 5.04364V5.23109ZM18.4031 8.12329C18.3793 8.12329 18.363 8.11139 18.354 8.08758L17.8006 6.70844C17.7976 6.69951 17.7917 6.69505 17.7827 6.69505H17.207C17.1951 6.69505 17.1891 6.701 17.1891 6.7129V8.07866C17.1891 8.10841 17.1743 8.12329 17.1445 8.12329H16.9169C16.8871 8.12329 16.8722 8.10841 16.8722 8.07866V5.04364C16.8722 5.01388 16.8871 4.999 16.9169 4.999H17.8631C18.0178 4.999 18.1547 5.03471 18.2737 5.10612C18.3957 5.17754 18.4894 5.2787 18.5549 5.40962C18.6233 5.54055 18.6575 5.69081 18.6575 5.86041C18.6575 6.06275 18.6085 6.23533 18.5103 6.37815C18.4121 6.52098 18.2782 6.61619 18.1086 6.6638C18.0967 6.66975 18.0937 6.67719 18.0996 6.68612L18.6754 8.06973L18.6799 8.08758C18.6799 8.11139 18.6665 8.12329 18.6397 8.12329H18.4031ZM17.207 5.27573C17.1951 5.27573 17.1891 5.28168 17.1891 5.29358V6.42279C17.1891 6.43469 17.1951 6.44064 17.207 6.44064H17.8229C17.9776 6.44064 18.1026 6.38708 18.1978 6.27996C18.293 6.17284 18.3407 6.03299 18.3407 5.86041C18.3407 5.68486 18.293 5.54352 18.1978 5.4364C18.1026 5.32929 17.9776 5.27573 17.8229 5.27573H17.207ZM20.7612 8.12329C20.7374 8.12329 20.721 8.11139 20.7121 8.08758L20.1586 6.70844C20.1557 6.69951 20.1497 6.69505 20.1408 6.69505H19.565C19.5531 6.69505 19.5472 6.701 19.5472 6.7129V8.07866C19.5472 8.10841 19.5323 8.12329 19.5025 8.12329H19.2749C19.2452 8.12329 19.2303 8.10841 19.2303 8.07866V5.04364C19.2303 5.01388 19.2452 4.999 19.2749 4.999H20.2211C20.3758 4.999 20.5127 5.03471 20.6317 5.10612C20.7537 5.17754 20.8475 5.2787 20.9129 5.40962C20.9814 5.54055 21.0156 5.69081 21.0156 5.86041C21.0156 6.06275 20.9665 6.23533 20.8683 6.37815C20.7701 6.52098 20.6362 6.61619 20.4666 6.6638C20.4547 6.66975 20.4517 6.67719 20.4577 6.68612L21.0334 8.06973L21.0379 8.08758C21.0379 8.11139 21.0245 8.12329 20.9977 8.12329H20.7612ZM19.565 5.27573C19.5531 5.27573 19.5472 5.28168 19.5472 5.29358V6.42279C19.5472 6.43469 19.5531 6.44064 19.565 6.44064H20.181C20.3357 6.44064 20.4606 6.38708 20.5559 6.27996C20.6511 6.17284 20.6987 6.03299 20.6987 5.86041C20.6987 5.68486 20.6511 5.54352 20.5559 5.4364C20.4606 5.32929 20.3357 5.27573 20.181 5.27573H19.565ZM22.1564 8.11883C22.1266 8.11883 22.1118 8.10395 22.1118 8.0742V6.74414C22.1118 6.73224 22.1103 6.7248 22.1073 6.72183L21.3352 5.05256L21.3307 5.03471C21.3307 5.01091 21.3441 4.999 21.3709 4.999H21.6119C21.6357 4.999 21.6521 5.01091 21.661 5.03471L22.2591 6.36923C22.262 6.37518 22.2665 6.37815 22.2724 6.37815C22.2784 6.37815 22.2829 6.37518 22.2858 6.36923L22.8839 5.03471C22.8928 5.01091 22.9092 4.999 22.933 4.999H23.174C23.1889 4.999 23.1993 5.00496 23.2053 5.01686C23.2142 5.02578 23.2157 5.03769 23.2097 5.05256L22.4331 6.72183C22.4301 6.7248 22.4287 6.73224 22.4287 6.74414V8.0742C22.4287 8.10395 22.4138 8.11883 22.384 8.11883H22.1564ZM0.453662 11.9985C0.423907 11.9985 0.40903 11.9837 0.40903 11.9539V11.7665C0.40903 11.7367 0.423907 11.7218 0.453662 11.7218H2.89507C2.92482 11.7218 2.9397 11.7367 2.9397 11.7665V11.9539C2.9397 11.9837 2.92482 11.9985 2.89507 11.9985H0.453662ZM5.92057 11.9807C5.95033 11.9807 5.9652 11.9956 5.9652 12.0253V12.2217C5.9652 12.2515 5.95033 12.2663 5.92057 12.2663H5.75543C5.74353 12.2663 5.73758 12.2723 5.73758 12.2842V13.0787C5.73758 13.1084 5.7227 13.1233 5.69294 13.1233H5.46532C5.43556 13.1233 5.42069 13.1084 5.42069 13.0787V12.2842C5.42069 12.2723 5.41473 12.2663 5.40283 12.2663H4.19329C4.16353 12.2663 4.14865 12.2515 4.14865 12.2217V12.0521C4.14865 12.0313 4.15163 12.0134 4.15758 11.9985L4.95204 10.0347C4.96097 10.0109 4.97733 9.999 5.00114 9.999H5.24662C5.2615 9.999 5.27191 10.005 5.27786 10.0169C5.28381 10.0258 5.28381 10.0377 5.27786 10.0526L4.51911 11.9584C4.51613 11.9643 4.51613 11.9703 4.51911 11.9762C4.52208 11.9792 4.52654 11.9807 4.5325 11.9807H5.40283C5.41473 11.9807 5.42069 11.9747 5.42069 11.9628V11.2576C5.42069 11.2279 5.43556 11.213 5.46532 11.213H5.69294C5.7227 11.213 5.73758 11.2279 5.73758 11.2576V11.9628C5.73758 11.9747 5.74353 11.9807 5.75543 11.9807H5.92057ZM7.27026 13.1679C7.01436 13.1679 6.80905 13.0906 6.65432 12.9358C6.4996 12.7811 6.42224 12.5743 6.42224 12.3154V10.8069C6.42224 10.551 6.4996 10.3457 6.65432 10.1909C6.80905 10.0362 7.01436 9.95883 7.27026 9.95883C7.52913 9.95883 7.73592 10.0362 7.89065 10.1909C8.04835 10.3457 8.1272 10.551 8.1272 10.8069V12.3154C8.1272 12.5743 8.04835 12.7811 7.89065 12.9358C7.73592 13.0906 7.52913 13.1679 7.27026 13.1679ZM7.27026 12.8912C7.43391 12.8912 7.56483 12.8406 7.66302 12.7395C7.76121 12.6383 7.81031 12.5044 7.81031 12.3378V10.789C7.81031 10.6224 7.76121 10.4885 7.66302 10.3873C7.56483 10.2861 7.43391 10.2356 7.27026 10.2356C7.11255 10.2356 6.98461 10.2861 6.88641 10.3873C6.78822 10.4885 6.73913 10.6224 6.73913 10.789V12.3378C6.73913 12.5014 6.78822 12.6353 6.88641 12.7395C6.98461 12.8406 7.11255 12.8912 7.27026 12.8912ZM9.40328 11.2264C9.28723 11.2264 9.18012 11.1981 9.08192 11.1416C8.98671 11.0851 8.91083 11.0092 8.8543 10.914C8.79776 10.8158 8.7695 10.7087 8.7695 10.5926C8.7695 10.4766 8.79776 10.3709 8.8543 10.2757C8.91083 10.1775 8.98671 10.1002 9.08192 10.0436C9.18012 9.9871 9.28723 9.95883 9.40328 9.95883C9.51635 9.95883 9.62049 9.9871 9.71571 10.0436C9.8139 10.1002 9.89126 10.1775 9.9478 10.2757C10.0043 10.3709 10.0326 10.4766 10.0326 10.5926C10.0326 10.7087 10.0043 10.8158 9.9478 10.914C9.89126 11.0092 9.8139 11.0851 9.71571 11.1416C9.62049 11.1981 9.51635 11.2264 9.40328 11.2264ZM9.30062 13.1233C9.28575 13.1233 9.27384 13.1188 9.26492 13.1099C9.25897 13.098 9.26045 13.0846 9.26938 13.0697L10.9297 10.0302C10.9386 10.0094 10.9565 9.999 10.9833 9.999H11.1261C11.141 9.999 11.1514 10.005 11.1573 10.0169C11.1663 10.0258 11.1663 10.0377 11.1573 10.0526L9.49701 13.092C9.48808 13.1129 9.47023 13.1233 9.44345 13.1233H9.30062ZM9.40328 11.03C9.5223 11.03 9.62198 10.9884 9.70232 10.905C9.78563 10.8188 9.82729 10.7146 9.82729 10.5926C9.82729 10.4706 9.78563 10.368 9.70232 10.2847C9.62198 10.1984 9.5223 10.1552 9.40328 10.1552C9.28426 10.1552 9.18309 10.1984 9.09978 10.2847C9.01646 10.368 8.97481 10.4706 8.97481 10.5926C8.97481 10.7146 9.01646 10.8188 9.09978 10.905C9.18309 10.9884 9.28426 11.03 9.40328 11.03ZM11.0413 13.1635C10.9253 13.1635 10.8181 13.1352 10.7199 13.0787C10.6247 13.0221 10.5489 12.9448 10.4923 12.8466C10.4358 12.7484 10.4075 12.6413 10.4075 12.5252C10.4075 12.4121 10.4358 12.308 10.4923 12.2128C10.5489 12.1146 10.6247 12.0372 10.7199 11.9807C10.8181 11.9242 10.9253 11.8959 11.0413 11.8959C11.1544 11.8959 11.2585 11.9242 11.3537 11.9807C11.4519 12.0372 11.5293 12.1146 11.5858 12.2128C11.6424 12.308 11.6706 12.4121 11.6706 12.5252C11.6706 12.6413 11.6424 12.7484 11.5858 12.8466C11.5293 12.9448 11.4519 13.0221 11.3537 13.0787C11.2585 13.1352 11.1544 13.1635 11.0413 13.1635ZM11.0413 12.9671C11.1603 12.9671 11.26 12.9239 11.3403 12.8376C11.4237 12.7514 11.4653 12.6472 11.4653 12.5252C11.4653 12.4032 11.4237 12.3006 11.3403 12.2172C11.26 12.1339 11.1603 12.0923 11.0413 12.0923C10.9223 12.0923 10.8211 12.1339 10.7378 12.2172C10.6545 12.3006 10.6128 12.4032 10.6128 12.5252C10.6128 12.6502 10.653 12.7558 10.7333 12.8421C10.8166 12.9254 10.9193 12.9671 11.0413 12.9671Z" fill="#404040"/>
<path d="M53.6389 47.8386C53.3681 47.8386 53.1494 47.7582 52.9828 47.5975C52.8192 47.4369 52.7373 47.2241 52.7373 46.9593V45.5177C52.7373 45.2528 52.8192 45.0416 52.9828 44.8839C53.1494 44.7232 53.3681 44.6429 53.6389 44.6429C53.9127 44.6429 54.1314 44.7217 54.295 44.8794C54.4616 45.0371 54.545 45.2469 54.545 45.5087V45.5489C54.545 45.5787 54.5301 45.5935 54.5003 45.5935L54.2727 45.6025C54.2429 45.6025 54.2281 45.5891 54.2281 45.5623V45.4998C54.2281 45.3272 54.173 45.1874 54.0629 45.0803C53.9558 44.9731 53.8145 44.9196 53.6389 44.9196C53.4634 44.9196 53.322 44.9731 53.2149 45.0803C53.1078 45.1844 53.0542 45.3243 53.0542 45.4998V46.9816C53.0542 47.1572 53.1078 47.2985 53.2149 47.4056C53.322 47.5098 53.4634 47.5618 53.6389 47.5618C53.8145 47.5618 53.9558 47.5083 54.0629 47.4012C54.173 47.294 54.2281 47.1542 54.2281 46.9816V46.9191C54.2281 46.8924 54.2429 46.879 54.2727 46.879L54.5003 46.8924C54.5301 46.8924 54.545 46.9072 54.545 46.937V46.9682C54.545 47.2301 54.4616 47.4413 54.295 47.602C54.1314 47.7597 53.9127 47.8386 53.6389 47.8386ZM56.6758 47.8029C56.649 47.8029 56.6326 47.7895 56.6267 47.7627L56.4794 47.2048C56.4764 47.1959 56.469 47.1914 56.4571 47.1914H55.3904C55.3785 47.1914 55.371 47.1959 55.3681 47.2048L55.2208 47.7627C55.2148 47.7895 55.1984 47.8029 55.1717 47.8029H54.9396C54.9247 47.8029 54.9128 47.7984 54.9039 47.7895C54.8979 47.7805 54.8964 47.7686 54.8994 47.7538L55.734 44.7187C55.74 44.692 55.7564 44.6786 55.7831 44.6786H56.0688C56.0956 44.6786 56.1119 44.692 56.1179 44.7187L56.9525 47.7538L56.957 47.7672C56.957 47.791 56.9421 47.8029 56.9123 47.8029H56.6758ZM55.4439 46.9147C55.441 46.9176 55.441 46.9221 55.4439 46.9281C55.4499 46.931 55.4558 46.9325 55.4618 46.9325H56.3857C56.3916 46.9325 56.3961 46.931 56.3991 46.9281C56.405 46.9221 56.4065 46.9176 56.4035 46.9147L55.9304 45.1204C55.9274 45.1145 55.9245 45.1115 55.9215 45.1115C55.9185 45.1115 55.9155 45.1145 55.9126 45.1204L55.4439 46.9147ZM58.9601 47.8029C58.9363 47.8029 58.92 47.791 58.911 47.7672L58.3576 46.388C58.3546 46.3791 58.3487 46.3746 58.3398 46.3746H57.764C57.7521 46.3746 57.7461 46.3806 57.7461 46.3925V47.7582C57.7461 47.788 57.7313 47.8029 57.7015 47.8029H57.4739C57.4441 47.8029 57.4292 47.788 57.4292 47.7582V44.7232C57.4292 44.6934 57.4441 44.6786 57.4739 44.6786H58.4201C58.5748 44.6786 58.7117 44.7143 58.8307 44.7857C58.9527 44.8571 59.0464 44.9583 59.1119 45.0892C59.1803 45.2201 59.2146 45.3704 59.2146 45.54C59.2146 45.7423 59.1655 45.9149 59.0673 46.0577C58.9691 46.2005 58.8352 46.2958 58.6656 46.3434C58.6537 46.3493 58.6507 46.3568 58.6566 46.3657L59.2324 47.7493L59.2369 47.7672C59.2369 47.791 59.2235 47.8029 59.1967 47.8029H58.9601ZM57.764 44.9553C57.7521 44.9553 57.7461 44.9612 57.7461 44.9731V46.1024C57.7461 46.1143 57.7521 46.1202 57.764 46.1202H58.3799C58.5346 46.1202 58.6596 46.0666 58.7548 45.9595C58.8501 45.8524 58.8977 45.7126 58.8977 45.54C58.8977 45.3644 58.8501 45.2231 58.7548 45.116C58.6596 45.0089 58.5346 44.9553 58.3799 44.9553H57.764ZM59.8319 47.8029C59.8022 47.8029 59.7873 47.788 59.7873 47.7582V44.7232C59.7873 44.6934 59.8022 44.6786 59.8319 44.6786H60.0595C60.0893 44.6786 60.1042 44.6934 60.1042 44.7232V47.7582C60.1042 47.788 60.0893 47.8029 60.0595 47.8029H59.8319ZM62.1988 46.1738C62.1839 46.1797 62.1839 46.1872 62.1988 46.1961C62.3387 46.2645 62.4458 46.3627 62.5202 46.4907C62.5975 46.6186 62.6377 46.7733 62.6407 46.9548C62.6407 47.2226 62.5603 47.4309 62.3996 47.5797C62.2419 47.7285 62.0322 47.8029 61.7703 47.8029H60.8911C60.8613 47.8029 60.8464 47.788 60.8464 47.7582V44.7232C60.8464 44.6934 60.8613 44.6786 60.8911 44.6786H61.7346C62.0084 44.6786 62.2226 44.75 62.3773 44.8928C62.5321 45.0327 62.6094 45.2335 62.6094 45.4953C62.6094 45.662 62.5737 45.8018 62.5023 45.9149C62.4339 46.028 62.3327 46.1143 62.1988 46.1738ZM61.1812 44.9553C61.1693 44.9553 61.1633 44.9612 61.1633 44.9731V46.0488C61.1633 46.0607 61.1693 46.0666 61.1812 46.0666H61.7391C61.9117 46.0666 62.0471 46.0175 62.1452 45.9194C62.2464 45.8212 62.297 45.6888 62.297 45.5221C62.297 45.3466 62.2464 45.2082 62.1452 45.107C62.0471 45.0059 61.9117 44.9553 61.7391 44.9553H61.1812ZM61.7614 47.5217C61.934 47.5217 62.0709 47.4681 62.172 47.361C62.2732 47.2539 62.3238 47.1081 62.3238 46.9236C62.3238 46.7361 62.2717 46.5888 62.1676 46.4817C62.0664 46.3746 61.928 46.3211 61.7525 46.3211H61.1812C61.1693 46.3211 61.1633 46.327 61.1633 46.3389V47.5038C61.1633 47.5157 61.1693 47.5217 61.1812 47.5217H61.7614ZM64.583 46.1738C64.5681 46.1797 64.5681 46.1872 64.583 46.1961C64.7228 46.2645 64.83 46.3627 64.9043 46.4907C64.9817 46.6186 65.0219 46.7733 65.0249 46.9548C65.0249 47.2226 64.9445 47.4309 64.7838 47.5797C64.6261 47.7285 64.4164 47.8029 64.1545 47.8029H63.2753C63.2455 47.8029 63.2306 47.788 63.2306 47.7582V44.7232C63.2306 44.6934 63.2455 44.6786 63.2753 44.6786H64.1188C64.3926 44.6786 64.6068 44.75 64.7615 44.8928C64.9162 45.0327 64.9936 45.2335 64.9936 45.4953C64.9936 45.662 64.9579 45.8018 64.8865 45.9149C64.8181 46.028 64.7169 46.1143 64.583 46.1738ZM63.5654 44.9553C63.5535 44.9553 63.5475 44.9612 63.5475 44.9731V46.0488C63.5475 46.0607 63.5535 46.0666 63.5654 46.0666H64.1233C64.2959 46.0666 64.4312 46.0175 64.5294 45.9194C64.6306 45.8212 64.6812 45.6888 64.6812 45.5221C64.6812 45.3466 64.6306 45.2082 64.5294 45.107C64.4312 45.0059 64.2959 44.9553 64.1233 44.9553H63.5654ZM64.1456 47.5217C64.3182 47.5217 64.455 47.4681 64.5562 47.361C64.6574 47.2539 64.708 47.1081 64.708 46.9236C64.708 46.7361 64.6559 46.5888 64.5517 46.4817C64.4506 46.3746 64.3122 46.3211 64.1367 46.3211H63.5654C63.5535 46.3211 63.5475 46.327 63.5475 46.3389V47.5038C63.5475 47.5157 63.5535 47.5217 63.5654 47.5217H64.1456ZM67.3332 44.9107C67.3332 44.9404 67.3183 44.9553 67.2885 44.9553H65.9495C65.9376 44.9553 65.9317 44.9612 65.9317 44.9731V46.08C65.9317 46.0919 65.9376 46.0979 65.9495 46.0979H66.8511C66.8809 46.0979 66.8958 46.1128 66.8958 46.1425V46.33C66.8958 46.3597 66.8809 46.3746 66.8511 46.3746H65.9495C65.9376 46.3746 65.9317 46.3806 65.9317 46.3925V47.5083C65.9317 47.5202 65.9376 47.5261 65.9495 47.5261H67.2885C67.3183 47.5261 67.3332 47.541 67.3332 47.5708V47.7582C67.3332 47.788 67.3183 47.8029 67.2885 47.8029H65.6594C65.6297 47.8029 65.6148 47.788 65.6148 47.7582V44.7232C65.6148 44.6934 65.6297 44.6786 65.6594 44.6786H67.2885C67.3183 44.6786 67.3332 44.6934 67.3332 44.7232V44.9107ZM69.4859 47.8029C69.4591 47.8029 69.4427 47.7895 69.4368 47.7627L69.2895 47.2048C69.2865 47.1959 69.2791 47.1914 69.2672 47.1914H68.2005C68.1886 47.1914 68.1811 47.1959 68.1781 47.2048L68.0309 47.7627C68.0249 47.7895 68.0085 47.8029 67.9818 47.8029H67.7497C67.7348 47.8029 67.7229 47.7984 67.714 47.7895C67.708 47.7805 67.7065 47.7686 67.7095 47.7538L68.5441 44.7187C68.5501 44.692 68.5665 44.6786 68.5932 44.6786H68.8789C68.9057 44.6786 68.922 44.692 68.928 44.7187L69.7626 47.7538L69.7671 47.7672C69.7671 47.791 69.7522 47.8029 69.7224 47.8029H69.4859ZM68.254 46.9147C68.251 46.9176 68.251 46.9221 68.254 46.9281C68.26 46.931 68.2659 46.9325 68.2719 46.9325H69.1958C69.2017 46.9325 69.2062 46.931 69.2092 46.9281C69.2151 46.9221 69.2166 46.9176 69.2136 46.9147L68.7405 45.1204C68.7375 45.1145 68.7346 45.1115 68.7316 45.1115C68.7286 45.1115 68.7256 45.1145 68.7227 45.1204L68.254 46.9147ZM71.7926 44.7232C71.7926 44.6934 71.8074 44.6786 71.8372 44.6786H72.0648C72.0946 44.6786 72.1095 44.6934 72.1095 44.7232V47.7582C72.1095 47.788 72.0946 47.8029 72.0648 47.8029H71.8238C71.797 47.8029 71.7792 47.7924 71.7702 47.7716L70.5741 45.3838C70.5681 45.3778 70.5622 45.3748 70.5562 45.3748C70.5533 45.3748 70.5518 45.3793 70.5518 45.3882L70.5562 47.7582C70.5562 47.788 70.5414 47.8029 70.5116 47.8029H70.284C70.2542 47.8029 70.2393 47.788 70.2393 47.7582V44.7232C70.2393 44.6934 70.2542 44.6786 70.284 44.6786H70.525C70.5518 44.6786 70.5696 44.689 70.5786 44.7098L71.7747 47.1066C71.7807 47.1125 71.7851 47.1155 71.7881 47.1155C71.794 47.1155 71.797 47.1111 71.797 47.1021L71.7926 44.7232ZM54.353 52.8029C54.3292 52.8029 54.3129 52.791 54.3039 52.7672L53.7505 51.388C53.7475 51.3791 53.7416 51.3746 53.7326 51.3746H53.1569C53.145 51.3746 53.139 51.3806 53.139 51.3925V52.7582C53.139 52.788 53.1242 52.8029 53.0944 52.8029H52.8668C52.837 52.8029 52.8221 52.788 52.8221 52.7582V49.7232C52.8221 49.6934 52.837 49.6786 52.8668 49.6786H53.813C53.9677 49.6786 54.1046 49.7143 54.2236 49.7857C54.3456 49.8571 54.4393 49.9583 54.5048 50.0892C54.5732 50.2201 54.6074 50.3704 54.6074 50.54C54.6074 50.7423 54.5584 50.9149 54.4602 51.0577C54.362 51.2005 54.2281 51.2958 54.0585 51.3434C54.0466 51.3493 54.0436 51.3568 54.0495 51.3657L54.6253 52.7493L54.6298 52.7672C54.6298 52.791 54.6164 52.8029 54.5896 52.8029H54.353ZM53.1569 49.9553C53.145 49.9553 53.139 49.9612 53.139 49.9731V51.1024C53.139 51.1143 53.145 51.1202 53.1569 51.1202H53.7728C53.9275 51.1202 54.0525 51.0666 54.1477 50.9595C54.2429 50.8524 54.2906 50.7126 54.2906 50.54C54.2906 50.3644 54.2429 50.2231 54.1477 50.116C54.0525 50.0089 53.9275 49.9553 53.7728 49.9553H53.1569ZM56.0639 52.8386C55.8824 52.8386 55.7217 52.7999 55.5819 52.7225C55.445 52.6452 55.3379 52.5365 55.2605 52.3967C55.1861 52.2569 55.1489 52.0947 55.1489 51.9102V49.7232C55.1489 49.6934 55.1638 49.6786 55.1936 49.6786H55.4212C55.4509 49.6786 55.4658 49.6934 55.4658 49.7232V51.9281C55.4658 52.1185 55.5209 52.2717 55.631 52.3878C55.7411 52.5038 55.8854 52.5618 56.0639 52.5618C56.2424 52.5618 56.3867 52.5038 56.4968 52.3878C56.6069 52.2717 56.662 52.1185 56.662 51.9281V49.7232C56.662 49.6934 56.6769 49.6786 56.7066 49.6786H56.9342C56.964 49.6786 56.9789 49.6934 56.9789 49.7232V51.9102C56.9789 52.0947 56.9402 52.2569 56.8628 52.3967C56.7884 52.5365 56.6813 52.6452 56.5415 52.7225C56.4046 52.7999 56.2454 52.8386 56.0639 52.8386ZM59.378 49.7098C59.3929 49.689 59.4107 49.6786 59.4315 49.6786H59.6636C59.6934 49.6786 59.7083 49.6934 59.7083 49.7232V52.7582C59.7083 52.788 59.6934 52.8029 59.6636 52.8029H59.436C59.4063 52.8029 59.3914 52.788 59.3914 52.7582V50.3302C59.3914 50.3213 59.3884 50.3153 59.3824 50.3124C59.3765 50.3094 59.372 50.3124 59.3691 50.3213L58.7754 51.3523C58.7606 51.3731 58.7427 51.3835 58.7219 51.3835H58.6728C58.652 51.3835 58.6341 51.3731 58.6192 51.3523L58.0211 50.3257C58.0182 50.3168 58.0137 50.3138 58.0078 50.3168C58.0018 50.3198 57.9988 50.3257 57.9988 50.3347V52.7582C57.9988 52.788 57.984 52.8029 57.9542 52.8029H57.7266C57.6968 52.8029 57.6819 52.788 57.6819 52.7582V49.7232C57.6819 49.6934 57.6968 49.6786 57.7266 49.6786H57.9587C57.9795 49.6786 57.9973 49.689 58.0122 49.7098L58.6862 50.8569C58.6892 50.8598 58.6936 50.8613 58.6996 50.8613C58.7055 50.8613 58.71 50.8598 58.713 50.8569L59.378 49.7098ZM61.1738 51.6781C61.1441 51.6781 61.1292 51.6632 61.1292 51.6335V51.446C61.1292 51.4163 61.1441 51.4014 61.1738 51.4014H63.6152C63.645 51.4014 63.6599 51.4163 63.6599 51.446V51.6335C63.6599 51.6632 63.645 51.6781 63.6152 51.6781H61.1738ZM66.4265 51.3211C66.483 51.4758 66.5113 51.6528 66.5113 51.8522C66.5113 52.0307 66.489 52.1854 66.4443 52.3164C66.3343 52.6645 66.0903 52.8386 65.7124 52.8386C65.51 52.8386 65.3404 52.785 65.2036 52.6779C65.0667 52.5678 64.9789 52.4175 64.9402 52.2271C64.9194 52.1319 64.909 52.0233 64.909 51.9013C64.909 51.8715 64.9239 51.8566 64.9536 51.8566H65.1812C65.211 51.8566 65.2259 51.8715 65.2259 51.9013C65.2318 52.0292 65.2393 52.1155 65.2482 52.1601C65.275 52.2851 65.3285 52.3833 65.4089 52.4547C65.4892 52.5261 65.5904 52.5618 65.7124 52.5618C65.9415 52.5618 66.0903 52.4458 66.1587 52.2137C66.1855 52.1066 66.1989 51.9786 66.1989 51.8299C66.1989 51.6513 66.1795 51.504 66.1408 51.388C66.0635 51.1797 65.9207 51.0756 65.7124 51.0756C65.6648 51.0756 65.6231 51.0845 65.5874 51.1024C65.5695 51.1083 65.5591 51.1113 65.5562 51.1113C65.5443 51.1113 65.5338 51.1053 65.5249 51.0934L65.4089 50.9729C65.394 50.9521 65.3925 50.9313 65.4044 50.9104L66.1007 49.9776C66.1066 49.9717 66.1081 49.9672 66.1051 49.9642C66.1022 49.9583 66.0977 49.9553 66.0917 49.9553H64.9759C64.9462 49.9553 64.9313 49.9404 64.9313 49.9107V49.7232C64.9313 49.6934 64.9462 49.6786 64.9759 49.6786H66.4533C66.483 49.6786 66.4979 49.6934 66.4979 49.7232V49.924C66.4979 49.9479 66.492 49.9672 66.4801 49.9821L65.8329 50.8658C65.8299 50.8688 65.8299 50.8732 65.8329 50.8792C65.8359 50.8851 65.8403 50.8881 65.8463 50.8881C65.9861 50.8941 66.1051 50.9342 66.2033 51.0086C66.3015 51.083 66.3759 51.1872 66.4265 51.3211ZM67.8945 52.8475C67.6386 52.8475 67.4333 52.7701 67.2786 52.6154C67.1239 52.4607 67.0465 52.2539 67.0465 51.995V50.4864C67.0465 50.2305 67.1239 50.0252 67.2786 49.8705C67.4333 49.7158 67.6386 49.6384 67.8945 49.6384C68.1534 49.6384 68.3602 49.7158 68.5149 49.8705C68.6726 50.0252 68.7515 50.2305 68.7515 50.4864V51.995C68.7515 52.2539 68.6726 52.4607 68.5149 52.6154C68.3602 52.7701 68.1534 52.8475 67.8945 52.8475ZM67.8945 52.5708C68.0582 52.5708 68.1891 52.5202 68.2873 52.419C68.3855 52.3178 68.4346 52.184 68.4346 52.0173V50.4686C68.4346 50.3019 68.3855 50.168 68.2873 50.0669C68.1891 49.9657 68.0582 49.9151 67.8945 49.9151C67.7368 49.9151 67.6089 49.9657 67.5107 50.0669C67.4125 50.168 67.3634 50.3019 67.3634 50.4686V52.0173C67.3634 52.181 67.4125 52.3149 67.5107 52.419C67.6089 52.5202 67.7368 52.5708 67.8945 52.5708ZM70.0275 50.906C69.9115 50.906 69.8044 50.8777 69.7062 50.8212C69.611 50.7646 69.5351 50.6888 69.4786 50.5935C69.422 50.4953 69.3938 50.3882 69.3938 50.2722C69.3938 50.1561 69.422 50.0505 69.4786 49.9553C69.5351 49.8571 69.611 49.7797 69.7062 49.7232C69.8044 49.6667 69.9115 49.6384 70.0275 49.6384C70.1406 49.6384 70.2448 49.6667 70.34 49.7232C70.4382 49.7797 70.5155 49.8571 70.5721 49.9553C70.6286 50.0505 70.6569 50.1561 70.6569 50.2722C70.6569 50.3882 70.6286 50.4953 70.5721 50.5935C70.5155 50.6888 70.4382 50.7646 70.34 50.8212C70.2448 50.8777 70.1406 50.906 70.0275 50.906ZM69.9249 52.8029C69.91 52.8029 69.8981 52.7984 69.8892 52.7895C69.8832 52.7776 69.8847 52.7642 69.8936 52.7493L71.554 49.7098C71.5629 49.689 71.5808 49.6786 71.6075 49.6786H71.7504C71.7652 49.6786 71.7757 49.6845 71.7816 49.6964C71.7905 49.7053 71.7905 49.7173 71.7816 49.7321L70.1213 52.7716C70.1123 52.7924 70.0945 52.8029 70.0677 52.8029H69.9249ZM70.0275 50.7096C70.1466 50.7096 70.2462 50.6679 70.3266 50.5846C70.4099 50.4983 70.4516 50.3942 70.4516 50.2722C70.4516 50.1502 70.4099 50.0475 70.3266 49.9642C70.2462 49.8779 70.1466 49.8348 70.0275 49.8348C69.9085 49.8348 69.8074 49.8779 69.724 49.9642C69.6407 50.0475 69.5991 50.1502 69.5991 50.2722C69.5991 50.3942 69.6407 50.4983 69.724 50.5846C69.8074 50.6679 69.9085 50.7096 70.0275 50.7096ZM71.6656 52.843C71.5495 52.843 71.4424 52.8148 71.3442 52.7582C71.249 52.7017 71.1731 52.6243 71.1166 52.5261C71.06 52.4279 71.0318 52.3208 71.0318 52.2048C71.0318 52.0917 71.06 51.9876 71.1166 51.8924C71.1731 51.7942 71.249 51.7168 71.3442 51.6603C71.4424 51.6037 71.5495 51.5755 71.6656 51.5755C71.7786 51.5755 71.8828 51.6037 71.978 51.6603C72.0762 51.7168 72.1535 51.7942 72.2101 51.8924C72.2666 51.9876 72.2949 52.0917 72.2949 52.2048C72.2949 52.3208 72.2666 52.4279 72.2101 52.5261C72.1535 52.6243 72.0762 52.7017 71.978 52.7582C71.8828 52.8148 71.7786 52.843 71.6656 52.843ZM71.6656 52.6466C71.7846 52.6466 71.8843 52.6035 71.9646 52.5172C72.0479 52.4309 72.0896 52.3268 72.0896 52.2048C72.0896 52.0828 72.0479 51.9801 71.9646 51.8968C71.8843 51.8135 71.7846 51.7718 71.6656 51.7718C71.5465 51.7718 71.4454 51.8135 71.3621 51.8968C71.2787 51.9801 71.2371 52.0828 71.2371 52.2048C71.2371 52.3298 71.2773 52.4354 71.3576 52.5217C71.4409 52.605 71.5436 52.6466 71.6656 52.6466Z" fill="#404040"/>
</svg>
