<svg width="91" height="56" viewBox="0 0 91 56" fill="none" xmlns="http://www.w3.org/2000/svg">
<path d="M66.4331 20.9268C67.5996 24.0777 67.991 27.4554 67.5754 30.7837C67.1597 34.1119 65.9489 37.2961 64.0418 40.0761C62.1347 42.856 59.5855 45.1527 56.6026 46.7784C53.6197 48.4041 50.2879 49.3125 46.8795 49.4296L46.6155 41.9972C48.831 41.9211 50.9967 41.3306 52.9355 40.2739C54.8744 39.2172 56.5314 37.7244 57.771 35.9174C59.0106 34.1104 59.7977 32.0407 60.0679 29.8773C60.338 27.714 60.0836 25.5185 59.3254 23.4703L66.4331 20.9268Z" fill="#FFE500"/>
<path d="M25.3513 22.3373C26.6093 18.0239 29.2238 14.2128 32.8202 11.4502C36.4165 8.68757 40.8101 7.11529 45.3711 6.95869C49.9321 6.80209 54.4265 8.0692 58.2101 10.5784C61.9937 13.0876 64.8722 16.7102 66.4332 20.9268L59.3254 23.4703C58.3108 20.7295 56.4398 18.3749 53.9804 16.7439C51.5211 15.1129 48.5998 14.2893 45.6351 14.3911C42.6704 14.4929 39.8146 15.5149 37.477 17.3106C35.1393 19.1063 33.4399 21.5835 32.6222 24.3872L25.3513 22.3373Z" fill="#91FF8E"/>
<path d="M46.8795 49.4296C43.4711 49.5466 40.083 48.8688 36.992 47.4517C33.9011 46.0346 31.1952 43.9183 29.0955 41.2759C26.9958 38.6336 25.562 35.5401 24.9112 32.2485C24.2605 28.9569 24.4113 25.5606 25.3513 22.3373L32.6222 24.3872C32.0112 26.4823 31.9132 28.6899 32.3362 30.8295C32.7591 32.969 33.6911 34.9798 35.0559 36.6973C36.4207 38.4148 38.1796 39.7904 40.1887 40.7116C42.1978 41.6327 44.4001 42.0732 46.6156 41.9972L46.8795 49.4296Z" fill="#9B001C"/>
<path d="M30.8687 41.4642L28.3236 44.6815H17.7797" stroke="black" stroke-width="0.145684"/>
<path d="M33.4556 13.1881L30.9136 9.9248H20.3824" stroke="black" stroke-width="0.145684"/>
<path d="M55.5394 46.1759L58.0814 49.4392H68.6125" stroke="black" stroke-width="0.145684"/>
<path d="M7.51741 9.08586V10.1584H7.17195V9.4032H5.01486V6.5351H5.37638V9.08184H6.81043V6.5351H7.16794V9.08586H7.51741ZM9.59501 9.4032H7.99226V6.5351H9.59501V6.85244H8.35378V7.74822H9.52271V8.06154H8.35378V9.08586H9.59501V9.4032ZM12.1806 5.64334C12.1699 5.77724 12.1364 5.88972 12.0802 5.98077C12.0266 6.07182 11.9463 6.1401 11.8391 6.18563C11.732 6.23116 11.5928 6.25392 11.4214 6.25392C11.2473 6.25392 11.1067 6.23116 10.9996 6.18563C10.8952 6.1401 10.8188 6.07316 10.7706 5.98478C10.7224 5.89373 10.693 5.77992 10.6823 5.64334H11.0116C11.025 5.78795 11.0625 5.8857 11.1241 5.93658C11.1884 5.98478 11.2902 6.00888 11.4294 6.00888C11.5526 6.00888 11.649 5.98344 11.7186 5.93256C11.7909 5.879 11.8338 5.7826 11.8472 5.64334H12.1806ZM10.2283 6.5351H10.5658V8.10974C10.5658 8.17669 10.5644 8.25034 10.5617 8.33068C10.5617 8.40834 10.5604 8.486 10.5577 8.56366C10.5551 8.64132 10.551 8.71095 10.5457 8.77254C10.543 8.83145 10.5403 8.87698 10.5376 8.90911H10.5537L12.1324 6.5351H12.5341V9.4032H12.1966V7.84463C12.1966 7.77232 12.198 7.69466 12.2007 7.61164C12.2033 7.52595 12.206 7.44427 12.2087 7.36661C12.214 7.28627 12.2181 7.21531 12.2207 7.15371C12.2234 7.09212 12.2261 7.04659 12.2288 7.01714H12.2127L10.63 9.4032H10.2283V6.5351ZM15.3723 9.4032H15.0108V6.85244H14.103C14.0842 6.99973 14.0642 7.15505 14.0427 7.31841C14.0213 7.47908 13.9986 7.63842 13.9745 7.79642C13.953 7.95442 13.9316 8.10305 13.9102 8.2423C13.8888 8.38156 13.8673 8.5034 13.8459 8.60784C13.8111 8.78727 13.7682 8.93991 13.7174 9.06578C13.6665 9.19164 13.5982 9.28671 13.5125 9.35098C13.4295 9.41525 13.3197 9.44738 13.1831 9.44738C13.1376 9.44738 13.0907 9.44203 13.0425 9.43132C12.997 9.42328 12.9568 9.41257 12.922 9.39918V9.09791C12.9515 9.1113 12.9849 9.12335 13.0224 9.13406C13.0599 9.1421 13.1001 9.14611 13.1429 9.14611C13.2233 9.14611 13.2862 9.11398 13.3317 9.04971C13.3799 8.98276 13.4174 8.90108 13.4442 8.80467C13.471 8.70559 13.4938 8.60784 13.5125 8.51144C13.5286 8.43378 13.5473 8.33068 13.5687 8.20213C13.5902 8.07091 13.6129 7.91827 13.637 7.7442C13.6638 7.57013 13.6906 7.38134 13.7174 7.17781C13.7468 6.97161 13.7749 6.75737 13.8017 6.5351H15.3723V9.4032ZM18.6542 7.96513C18.6542 8.1874 18.6261 8.38959 18.5699 8.57169C18.5136 8.75112 18.4293 8.90644 18.3168 9.03766C18.207 9.16888 18.0691 9.2693 17.903 9.33893C17.7397 9.40855 17.5496 9.44337 17.3326 9.44337C17.1077 9.44337 16.9122 9.40855 16.7462 9.33893C16.5801 9.26662 16.4422 9.1662 16.3324 9.03766C16.2226 8.90644 16.141 8.74978 16.0874 8.56767C16.0338 8.38557 16.0071 8.18339 16.0071 7.96112C16.0071 7.66654 16.0553 7.40946 16.1517 7.18986C16.2481 6.97027 16.394 6.79888 16.5895 6.6757C16.7877 6.55251 17.0367 6.49092 17.3367 6.49092C17.6232 6.49092 17.8642 6.55251 18.0597 6.6757C18.2552 6.7962 18.4025 6.96759 18.5016 7.18986C18.6033 7.40946 18.6542 7.66788 18.6542 7.96513ZM16.3887 7.96513C16.3887 8.20615 16.4221 8.41369 16.4891 8.58776C16.556 8.76183 16.6591 8.89572 16.7984 8.98945C16.9403 9.08318 17.1184 9.13005 17.3326 9.13005C17.5496 9.13005 17.7263 9.08318 17.8629 8.98945C18.0021 8.89572 18.1052 8.76183 18.1722 8.58776C18.2391 8.41369 18.2726 8.20615 18.2726 7.96513C18.2726 7.60361 18.1976 7.32108 18.0477 7.11756C17.8977 6.91136 17.6607 6.80826 17.3367 6.80826C17.1197 6.80826 16.9403 6.85512 16.7984 6.94885C16.6591 7.0399 16.556 7.17246 16.4891 7.34653C16.4221 7.51791 16.3887 7.72412 16.3887 7.96513ZM21.4831 9.4032H21.1216V8.06556H19.6514V9.4032H19.2899V6.5351H19.6514V7.74822H21.1216V6.5351H21.4831V9.4032ZM22.2713 6.5351H22.6087V8.10974C22.6087 8.17669 22.6074 8.25034 22.6047 8.33068C22.6047 8.40834 22.6034 8.486 22.6007 8.56366C22.598 8.64132 22.594 8.71095 22.5887 8.77254C22.586 8.83145 22.5833 8.87698 22.5806 8.90911H22.5967L24.1753 6.5351H24.577V9.4032H24.2396V7.84463C24.2396 7.77232 24.241 7.69466 24.2436 7.61164C24.2463 7.52595 24.249 7.44427 24.2517 7.36661C24.257 7.28627 24.261 7.21531 24.2637 7.15371C24.2664 7.09212 24.2691 7.04659 24.2717 7.01714H24.2557L22.673 9.4032H22.2713V6.5351ZM27.3069 5.64334C27.2961 5.77724 27.2627 5.88972 27.2064 5.98077C27.1529 6.07182 27.0725 6.1401 26.9654 6.18563C26.8583 6.23116 26.719 6.25392 26.5477 6.25392C26.3736 6.25392 26.233 6.23116 26.1259 6.18563C26.0214 6.1401 25.9451 6.07316 25.8969 5.98478C25.8487 5.89373 25.8193 5.77992 25.8085 5.64334H26.1379C26.1513 5.78795 26.1888 5.8857 26.2504 5.93658C26.3147 5.98478 26.4164 6.00888 26.5557 6.00888C26.6789 6.00888 26.7753 5.98344 26.8449 5.93256C26.9172 5.879 26.9601 5.7826 26.9735 5.64334H27.3069ZM25.3546 6.5351H25.6921V8.10974C25.6921 8.17669 25.6907 8.25034 25.688 8.33068C25.688 8.40834 25.6867 8.486 25.684 8.56366C25.6813 8.64132 25.6773 8.71095 25.672 8.77254C25.6693 8.83145 25.6666 8.87698 25.6639 8.90911H25.68L27.2587 6.5351H27.6604V9.4032H27.3229V7.84463C27.3229 7.77232 27.3243 7.69466 27.3269 7.61164C27.3296 7.52595 27.3323 7.44427 27.335 7.36661C27.3403 7.28627 27.3444 7.21531 27.347 7.15371C27.3497 7.09212 27.3524 7.04659 27.3551 7.01714H27.339L25.7563 9.4032H25.3546V6.5351ZM6.36053 13.3749C6.38731 13.3749 6.4007 13.3883 6.4007 13.415V13.5918C6.4007 13.6186 6.38731 13.6319 6.36053 13.6319H6.2119C6.20119 13.6319 6.19584 13.6373 6.19584 13.648V14.363C6.19584 14.3898 6.18245 14.4032 6.15567 14.4032H5.9508C5.92402 14.4032 5.91063 14.3898 5.91063 14.363V13.648C5.91063 13.6373 5.90528 13.6319 5.89457 13.6319H4.80598C4.7792 13.6319 4.76581 13.6186 4.76581 13.5918V13.4391C4.76581 13.4204 4.76848 13.4043 4.77384 13.3909L5.48886 11.6235C5.49689 11.6021 5.51162 11.5913 5.53304 11.5913H5.75397C5.76736 11.5913 5.77674 11.5967 5.78209 11.6074C5.78745 11.6154 5.78745 11.6262 5.78209 11.6395L5.09921 13.3548C5.09653 13.3601 5.09653 13.3655 5.09921 13.3708C5.10189 13.3735 5.10591 13.3749 5.11126 13.3749H5.89457C5.90528 13.3749 5.91063 13.3695 5.91063 13.3588V12.7241C5.91063 12.6973 5.92402 12.6839 5.9508 12.6839H6.15567C6.18245 12.6839 6.19584 12.6973 6.19584 12.7241V13.3588C6.19584 13.3695 6.20119 13.3749 6.2119 13.3749H6.36053ZM7.57525 14.4434C7.34494 14.4434 7.16016 14.3737 7.02091 14.2345C6.88166 14.0952 6.81203 13.9091 6.81203 13.6761V12.3184C6.81203 12.0881 6.88166 11.9033 7.02091 11.7641C7.16016 11.6248 7.34494 11.5552 7.57525 11.5552C7.80823 11.5552 7.99435 11.6248 8.1336 11.7641C8.27553 11.9033 8.3465 12.0881 8.3465 12.3184V13.6761C8.3465 13.9091 8.27553 14.0952 8.1336 14.2345C7.99435 14.3737 7.80823 14.4434 7.57525 14.4434ZM7.57525 14.1943C7.72254 14.1943 7.84037 14.1488 7.92874 14.0577C8.01711 13.9667 8.0613 13.8462 8.0613 13.6962V12.3023C8.0613 12.1524 8.01711 12.0319 7.92874 11.9408C7.84037 11.8498 7.72254 11.8042 7.57525 11.8042C7.43332 11.8042 7.31816 11.8498 7.22979 11.9408C7.14142 12.0319 7.09723 12.1524 7.09723 12.3023V13.6962C7.09723 13.8435 7.14142 13.964 7.22979 14.0577C7.31816 14.1488 7.43332 14.1943 7.57525 14.1943ZM9.49497 12.696C9.39053 12.696 9.29412 12.6706 9.20575 12.6197C9.12005 12.5688 9.05177 12.5005 9.00088 12.4148C8.95 12.3264 8.92456 12.23 8.92456 12.1256C8.92456 12.0212 8.95 11.9261 9.00088 11.8404C9.05177 11.752 9.12005 11.6824 9.20575 11.6315C9.29412 11.5806 9.39053 11.5552 9.49497 11.5552C9.59673 11.5552 9.69046 11.5806 9.77615 11.6315C9.86453 11.6824 9.93415 11.752 9.98503 11.8404C10.0359 11.9261 10.0614 12.0212 10.0614 12.1256C10.0614 12.23 10.0359 12.3264 9.98503 12.4148C9.93415 12.5005 9.86453 12.5688 9.77615 12.6197C9.69046 12.6706 9.59673 12.696 9.49497 12.696ZM9.40258 14.4032C9.38919 14.4032 9.37848 14.3992 9.37044 14.3911C9.36509 14.3804 9.36643 14.3684 9.37446 14.355L10.8688 11.6195C10.8768 11.6007 10.8929 11.5913 10.917 11.5913H11.0455C11.0589 11.5913 11.0683 11.5967 11.0736 11.6074C11.0817 11.6154 11.0817 11.6262 11.0736 11.6395L9.57932 14.3751C9.57129 14.3938 9.55522 14.4032 9.53112 14.4032H9.40258ZM9.49497 12.5193C9.60209 12.5193 9.6918 12.4818 9.7641 12.4068C9.83909 12.3291 9.87658 12.2354 9.87658 12.1256C9.87658 12.0158 9.83909 11.9234 9.7641 11.8484C9.6918 11.7708 9.60209 11.7319 9.49497 11.7319C9.38785 11.7319 9.2968 11.7708 9.22182 11.8484C9.14683 11.9234 9.10934 12.0158 9.10934 12.1256C9.10934 12.2354 9.14683 12.3291 9.22182 12.4068C9.2968 12.4818 9.38785 12.5193 9.49497 12.5193ZM10.9692 14.4394C10.8647 14.4394 10.7683 14.4139 10.68 14.363C10.5943 14.3121 10.526 14.2425 10.4751 14.1541C10.4242 14.0658 10.3988 13.9694 10.3988 13.8649C10.3988 13.7632 10.4242 13.6694 10.4751 13.5837C10.526 13.4954 10.5943 13.4257 10.68 13.3749C10.7683 13.324 10.8647 13.2985 10.9692 13.2985C11.0709 13.2985 11.1647 13.324 11.2504 13.3749C11.3387 13.4257 11.4084 13.4954 11.4593 13.5837C11.5101 13.6694 11.5356 13.7632 11.5356 13.8649C11.5356 13.9694 11.5101 14.0658 11.4593 14.1541C11.4084 14.2425 11.3387 14.3121 11.2504 14.363C11.1647 14.4139 11.0709 14.4394 10.9692 14.4394ZM10.9692 14.2626C11.0763 14.2626 11.166 14.2238 11.2383 14.1461C11.3133 14.0685 11.3508 13.9747 11.3508 13.8649C11.3508 13.7551 11.3133 13.6627 11.2383 13.5878C11.166 13.5128 11.0763 13.4753 10.9692 13.4753C10.8621 13.4753 10.771 13.5128 10.696 13.5878C10.621 13.6627 10.5836 13.7551 10.5836 13.8649C10.5836 13.9774 10.6197 14.0725 10.692 14.1501C10.767 14.2251 10.8594 14.2626 10.9692 14.2626Z" fill="#404040"/>
<path d="M2.77937 44.0289H2.34554L1.04807 42.5748V44.0289H0.686549V41.1608H1.04807V42.5507L2.31341 41.1608H2.72314L1.47789 42.5547L2.77937 44.0289ZM5.23438 44.0289H4.87286V41.4782H3.96503C3.94628 41.6255 3.9262 41.7808 3.90478 41.9441C3.88335 42.1048 3.86059 42.2642 3.83649 42.4222C3.81506 42.5802 3.79364 42.7288 3.77222 42.868C3.75079 43.0073 3.72937 43.1291 3.70795 43.2336C3.67313 43.413 3.63029 43.5656 3.5794 43.6915C3.52852 43.8174 3.46023 43.9124 3.37454 43.9767C3.29152 44.041 3.18173 44.0731 3.04515 44.0731C2.99963 44.0731 2.95276 44.0678 2.90456 44.057C2.85903 44.049 2.81886 44.0383 2.78405 44.0249V43.7236C2.81351 43.737 2.84698 43.7491 2.88447 43.7598C2.92196 43.7678 2.96213 43.7718 3.00498 43.7718C3.08532 43.7718 3.14825 43.7397 3.19378 43.6754C3.24198 43.6085 3.27947 43.5268 3.30625 43.4304C3.33303 43.3313 3.35579 43.2336 3.37454 43.1372C3.39061 43.0595 3.40935 42.9564 3.43078 42.8279C3.4522 42.6966 3.47496 42.544 3.49907 42.3699C3.52584 42.1959 3.55262 42.0071 3.5794 41.8035C3.60886 41.5973 3.63698 41.3831 3.66376 41.1608H5.23438V44.0289ZM9.60083 42.5909C9.60083 42.8131 9.57405 43.0153 9.52049 43.1974C9.46693 43.3795 9.38659 43.5362 9.27947 43.6674C9.17235 43.7959 9.03979 43.895 8.8818 43.9647C8.72647 44.0343 8.54437 44.0691 8.33549 44.0691C8.06234 44.0691 7.83203 44.0129 7.64458 43.9004C7.4598 43.7879 7.31787 43.6286 7.21878 43.4224C7.1197 43.2162 7.0648 42.9725 7.05409 42.6913H6.37522V44.0289H6.0137V41.1608H6.37522V42.374H7.06212C7.08087 42.1195 7.13978 41.8986 7.23887 41.7112C7.33795 41.521 7.47854 41.3751 7.66065 41.2733C7.84275 41.1689 8.06502 41.1166 8.32746 41.1166C8.60329 41.1166 8.83493 41.1782 9.02239 41.3014C9.21252 41.4219 9.35579 41.5933 9.4522 41.8156C9.55129 42.0352 9.60083 42.2936 9.60083 42.5909ZM7.43168 42.5909C7.43168 42.8319 7.46248 43.0394 7.52407 43.2135C7.58834 43.3876 7.68609 43.5215 7.81731 43.6152C7.9512 43.7089 8.11992 43.7558 8.32344 43.7558C8.53232 43.7558 8.70237 43.7089 8.83359 43.6152C8.96749 43.5215 9.06524 43.3876 9.12683 43.2135C9.1911 43.0394 9.22323 42.8319 9.22323 42.5909C9.22323 42.3499 9.19244 42.1436 9.13085 41.9723C9.06925 41.7982 8.97285 41.6656 8.84163 41.5746C8.71041 41.4809 8.54036 41.434 8.33147 41.434C8.12527 41.434 7.95522 41.4809 7.82132 41.5746C7.68743 41.6656 7.58834 41.7982 7.52407 41.9723C7.46248 42.1436 7.43168 42.3499 7.43168 42.5909ZM12.3314 44.0289H11.8975L10.6001 42.5748V44.0289H10.2385V41.1608H10.6001V42.5507L11.8654 41.1608H12.2751L11.0299 42.5547L12.3314 44.0289ZM13.5411 41.1608C13.7795 41.1608 13.979 41.1836 14.1397 41.2291C14.303 41.2746 14.4249 41.3496 14.5052 41.4541C14.5882 41.5585 14.6297 41.6978 14.6297 41.8718C14.6297 41.9843 14.6083 42.0847 14.5655 42.1731C14.5253 42.2588 14.4637 42.3311 14.3807 42.39C14.3003 42.4463 14.2012 42.4851 14.0834 42.5065V42.5266C14.2039 42.5453 14.3124 42.5802 14.4088 42.631C14.5079 42.6819 14.5855 42.7542 14.6418 42.848C14.698 42.9417 14.7261 43.0635 14.7261 43.2135C14.7261 43.3876 14.686 43.5362 14.6056 43.6594C14.5253 43.7799 14.4101 43.8723 14.2602 43.9365C14.1129 43.9981 13.9361 44.0289 13.7299 44.0289H12.7217V41.1608H13.5411ZM13.6134 42.382C13.8598 42.382 14.0285 42.3432 14.1196 42.2655C14.2106 42.1852 14.2561 42.0673 14.2561 41.912C14.2561 41.754 14.1999 41.6415 14.0874 41.5746C13.9776 41.505 13.8009 41.4701 13.5572 41.4701H13.0832V42.382H13.6134ZM13.0832 42.6833V43.7236H13.6616C13.916 43.7236 14.0928 43.6741 14.1919 43.575C14.291 43.4759 14.3405 43.3461 14.3405 43.1854C14.3405 43.0836 14.3177 42.9952 14.2722 42.9203C14.2294 42.8453 14.1557 42.7877 14.0513 42.7475C13.9495 42.7047 13.8103 42.6833 13.6335 42.6833H13.0832ZM15.3383 41.1608H15.6757V42.7355C15.6757 42.8024 15.6744 42.8761 15.6717 42.9564C15.6717 43.0341 15.6703 43.1117 15.6677 43.1894C15.665 43.2671 15.661 43.3367 15.6556 43.3983C15.6529 43.4572 15.6503 43.5027 15.6476 43.5348H15.6636L17.2423 41.1608H17.644V44.0289H17.3066V42.4704C17.3066 42.3981 17.3079 42.3204 17.3106 42.2374C17.3133 42.1517 17.3159 42.07 17.3186 41.9923C17.324 41.912 17.328 41.841 17.3307 41.7794C17.3334 41.7179 17.336 41.6723 17.3387 41.6429H17.3226L15.74 44.0289H15.3383V41.1608ZM19.6186 43.2135C19.5329 43.4036 19.4459 43.563 19.3575 43.6915C19.2718 43.8174 19.1701 43.9124 19.0522 43.9767C18.9344 44.0383 18.7844 44.0691 18.6023 44.0691C18.5274 44.0691 18.4564 44.0637 18.3895 44.053C18.3252 44.0423 18.2663 44.0276 18.2127 44.0088V43.6513C18.2663 43.6754 18.3238 43.6955 18.3854 43.7116C18.447 43.725 18.5113 43.7317 18.5782 43.7317C18.6773 43.7317 18.7617 43.7183 18.8313 43.6915C18.9036 43.6621 18.9666 43.6152 19.0201 43.5509C19.0763 43.4866 19.1286 43.4009 19.1768 43.2938L18.0721 41.1608H18.4698L19.2692 42.7395C19.2799 42.7582 19.2906 42.781 19.3013 42.8078C19.312 42.8319 19.3227 42.8573 19.3334 42.8841C19.3468 42.9109 19.3575 42.9363 19.3656 42.9604H19.3816C19.3897 42.9417 19.3977 42.9203 19.4057 42.8962C19.4164 42.8694 19.4258 42.8439 19.4339 42.8198C19.4446 42.7931 19.4539 42.7703 19.462 42.7515L20.1529 41.1608H20.5345L19.6186 43.2135ZM22.1896 44.0289L21.2456 41.5143H21.2295C21.2349 41.5679 21.2389 41.6362 21.2416 41.7192C21.2469 41.8022 21.2509 41.8933 21.2536 41.9923C21.2563 42.0887 21.2576 42.1878 21.2576 42.2896V44.0289H20.9242V41.1608H21.4585L22.3422 43.5107H22.3583L23.2581 41.1608H23.7883V44.0289H23.4308V42.2655C23.4308 42.1718 23.4321 42.0794 23.4348 41.9883C23.4375 41.8946 23.4415 41.8076 23.4469 41.7272C23.4522 41.6442 23.4562 41.5746 23.4589 41.5183H23.4429L22.4868 44.0289H22.1896ZM1.83941 47.6953C1.89029 47.8346 1.91573 47.9939 1.91573 48.1733C1.91573 48.334 1.89565 48.4733 1.85548 48.5911C1.75639 48.9044 1.5368 49.0611 1.1967 49.0611C1.0146 49.0611 0.861955 49.0129 0.738769 48.9165C0.615583 48.8174 0.536583 48.6821 0.501769 48.5107C0.483024 48.4251 0.473651 48.3273 0.473651 48.2175C0.473651 48.1907 0.487041 48.1773 0.51382 48.1773H0.718684C0.745464 48.1773 0.758854 48.1907 0.758854 48.2175C0.764209 48.3327 0.770904 48.4103 0.778938 48.4505C0.80304 48.563 0.851243 48.6513 0.923548 48.7156C0.995853 48.7799 1.0869 48.812 1.1967 48.812C1.4029 48.812 1.5368 48.7076 1.59839 48.4987C1.6225 48.4023 1.63455 48.2871 1.63455 48.1532C1.63455 47.9926 1.61714 47.86 1.58233 47.7556C1.5127 47.5681 1.38416 47.4744 1.1967 47.4744C1.15385 47.4744 1.11636 47.4824 1.08423 47.4985C1.06816 47.5038 1.05879 47.5065 1.05611 47.5065C1.0454 47.5065 1.03602 47.5012 1.02799 47.4904L0.923548 47.382C0.910158 47.3632 0.908819 47.3445 0.919531 47.3257L1.54617 46.4862C1.55153 46.4809 1.55287 46.4768 1.55019 46.4742C1.54751 46.4688 1.5435 46.4661 1.53814 46.4661H0.533905C0.507125 46.4661 0.493736 46.4527 0.493736 46.426V46.2572C0.493736 46.2305 0.507125 46.2171 0.533905 46.2171H1.86351C1.89029 46.2171 1.90368 46.2305 1.90368 46.2572V46.438C1.90368 46.4594 1.89833 46.4768 1.88761 46.4902L1.30516 47.2856C1.30248 47.2883 1.30248 47.2923 1.30516 47.2976C1.30784 47.303 1.31185 47.3057 1.31721 47.3057C1.44307 47.311 1.55019 47.3472 1.63856 47.4141C1.72694 47.4811 1.79388 47.5748 1.83941 47.6953ZM3.16064 49.0691C2.93033 49.0691 2.74555 48.9995 2.6063 48.8602C2.46705 48.721 2.39742 48.5348 2.39742 48.3019V46.9441C2.39742 46.7138 2.46705 46.5291 2.6063 46.3898C2.74555 46.2505 2.93033 46.1809 3.16064 46.1809C3.39362 46.1809 3.57974 46.2505 3.71899 46.3898C3.86092 46.5291 3.93189 46.7138 3.93189 46.9441V48.3019C3.93189 48.5348 3.86092 48.721 3.71899 48.8602C3.57974 48.9995 3.39362 49.0691 3.16064 49.0691ZM3.16064 48.82C3.30793 48.82 3.42576 48.7745 3.51413 48.6835C3.6025 48.5924 3.64669 48.4719 3.64669 48.3219V46.9281C3.64669 46.7781 3.6025 46.6576 3.51413 46.5665C3.42576 46.4755 3.30793 46.43 3.16064 46.43C3.01871 46.43 2.90355 46.4755 2.81518 46.5665C2.72681 46.6576 2.68262 46.7781 2.68262 46.9281V48.3219C2.68262 48.4692 2.72681 48.5897 2.81518 48.6835C2.90355 48.7745 3.01871 48.82 3.16064 48.82ZM5.08036 47.3217C4.97592 47.3217 4.87951 47.2963 4.79114 47.2454C4.70544 47.1945 4.63716 47.1262 4.58627 47.0405C4.53539 46.9522 4.50995 46.8558 4.50995 46.7513C4.50995 46.6469 4.53539 46.5518 4.58627 46.4661C4.63716 46.3778 4.70544 46.3081 4.79114 46.2572C4.87951 46.2064 4.97592 46.1809 5.08036 46.1809C5.18212 46.1809 5.27585 46.2064 5.36154 46.2572C5.44992 46.3081 5.51954 46.3778 5.57042 46.4661C5.62131 46.5518 5.64675 46.6469 5.64675 46.7513C5.64675 46.8558 5.62131 46.9522 5.57042 47.0405C5.51954 47.1262 5.44992 47.1945 5.36154 47.2454C5.27585 47.2963 5.18212 47.3217 5.08036 47.3217ZM4.98797 49.0289C4.97458 49.0289 4.96387 49.0249 4.95583 49.0169C4.95048 49.0062 4.95182 48.9941 4.95985 48.9807L6.45415 46.2452C6.46219 46.2264 6.47825 46.2171 6.50236 46.2171H6.6309C6.64429 46.2171 6.65366 46.2224 6.65902 46.2331C6.66705 46.2412 6.66705 46.2519 6.65902 46.2653L5.16471 49.0008C5.15668 49.0196 5.14061 49.0289 5.11651 49.0289H4.98797ZM5.08036 47.145C5.18748 47.145 5.27719 47.1075 5.34949 47.0325C5.42448 46.9549 5.46197 46.8611 5.46197 46.7513C5.46197 46.6415 5.42448 46.5491 5.34949 46.4742C5.27719 46.3965 5.18748 46.3577 5.08036 46.3577C4.97324 46.3577 4.88219 46.3965 4.80721 46.4742C4.73222 46.5491 4.69473 46.6415 4.69473 46.7513C4.69473 46.8611 4.73222 46.9549 4.80721 47.0325C4.88219 47.1075 4.97324 47.145 5.08036 47.145ZM6.55458 49.0651C6.45013 49.0651 6.35373 49.0396 6.26536 48.9888C6.17966 48.9379 6.11137 48.8683 6.06049 48.7799C6.00961 48.6915 5.98417 48.5951 5.98417 48.4907C5.98417 48.3889 6.00961 48.2952 6.06049 48.2095C6.11137 48.1211 6.17966 48.0515 6.26536 48.0006C6.35373 47.9497 6.45013 47.9243 6.55458 47.9243C6.65634 47.9243 6.75007 47.9497 6.83576 48.0006C6.92413 48.0515 6.99376 48.1211 7.04464 48.2095C7.09552 48.2952 7.12096 48.3889 7.12096 48.4907C7.12096 48.5951 7.09552 48.6915 7.04464 48.7799C6.99376 48.8683 6.92413 48.9379 6.83576 48.9888C6.75007 49.0396 6.65634 49.0651 6.55458 49.0651ZM6.55458 48.8883C6.66169 48.8883 6.75141 48.8495 6.82371 48.7718C6.89869 48.6942 6.93618 48.6005 6.93618 48.4907C6.93618 48.3809 6.89869 48.2885 6.82371 48.2135C6.75141 48.1385 6.66169 48.101 6.55458 48.101C6.44746 48.101 6.35641 48.1385 6.28142 48.2135C6.20644 48.2885 6.16895 48.3809 6.16895 48.4907C6.16895 48.6031 6.2051 48.6982 6.27741 48.7759C6.35239 48.8508 6.44478 48.8883 6.55458 48.8883Z" fill="#404040"/>
<path d="M63.8886 48.3582H63.5271V45.8074H62.6193C62.6005 45.9547 62.5805 46.11 62.559 46.2734C62.5376 46.434 62.5149 46.5934 62.4908 46.7514C62.4693 46.9094 62.4479 47.058 62.4265 47.1973C62.4051 47.3365 62.3836 47.4584 62.3622 47.5628C62.3274 47.7422 62.2845 47.8949 62.2337 48.0207C62.1828 48.1466 62.1145 48.2417 62.0288 48.3059C61.9458 48.3702 61.836 48.4023 61.6994 48.4023C61.6539 48.4023 61.607 48.397 61.5588 48.3863C61.5133 48.3782 61.4731 48.3675 61.4383 48.3541V48.0529C61.4678 48.0663 61.5012 48.0783 61.5387 48.089C61.5762 48.0971 61.6164 48.1011 61.6592 48.1011C61.7396 48.1011 61.8025 48.0689 61.848 48.0047C61.8962 47.9377 61.9337 47.856 61.9605 47.7596C61.9873 47.6605 62.0101 47.5628 62.0288 47.4664C62.0449 47.3887 62.0636 47.2856 62.085 47.1571C62.1065 47.0259 62.1292 46.8732 62.1533 46.6992C62.1801 46.5251 62.2069 46.3363 62.2337 46.1328C62.2631 45.9266 62.2912 45.7123 62.318 45.4901H63.8886V48.3582ZM64.672 45.4901H65.0094V47.0647C65.0094 47.1316 65.0081 47.2053 65.0054 47.2856C65.0054 47.3633 65.004 47.441 65.0014 47.5186C64.9987 47.5963 64.9947 47.6659 64.9893 47.7275C64.9866 47.7864 64.984 47.8319 64.9813 47.8641H64.9974L66.576 45.4901H66.9777V48.3582H66.6403V46.7996C66.6403 46.7273 66.6416 46.6496 66.6443 46.5666C66.647 46.4809 66.6497 46.3992 66.6523 46.3216C66.6577 46.2412 66.6617 46.1703 66.6644 46.1087C66.6671 46.0471 66.6697 46.0015 66.6724 45.9721H66.6563L65.0737 48.3582H64.672V45.4901ZM69.0166 48.3582L68.0726 45.8436H68.0566C68.0619 45.8971 68.0659 45.9654 68.0686 46.0484C68.074 46.1314 68.078 46.2225 68.0807 46.3216C68.0833 46.418 68.0847 46.5171 68.0847 46.6188V48.3582H67.7513V45.4901H68.2855L69.1693 47.84H69.1853L70.0851 45.4901H70.6154V48.3582H70.2578V46.5947C70.2578 46.501 70.2592 46.4086 70.2619 46.3175C70.2645 46.2238 70.2686 46.1368 70.2739 46.0564C70.2793 45.9734 70.2833 45.9038 70.286 45.8476H70.2699L69.3139 48.3582H69.0166ZM73.8981 46.9201C73.8981 47.1424 73.87 47.3445 73.8137 47.5266C73.7575 47.7061 73.6732 47.8614 73.5607 47.9926C73.4509 48.1238 73.313 48.2243 73.1469 48.2939C72.9836 48.3635 72.7934 48.3983 72.5765 48.3983C72.3516 48.3983 72.1561 48.3635 71.9901 48.2939C71.824 48.2216 71.6861 48.1212 71.5763 47.9926C71.4665 47.8614 71.3848 47.7047 71.3313 47.5226C71.2777 47.3405 71.2509 47.1383 71.2509 46.9161C71.2509 46.6215 71.2991 46.3644 71.3956 46.1448C71.492 45.9252 71.6379 45.7538 71.8334 45.6307C72.0316 45.5075 72.2806 45.4459 72.5805 45.4459C72.8671 45.4459 73.1081 45.5075 73.3036 45.6307C73.4991 45.7512 73.6464 45.9226 73.7455 46.1448C73.8472 46.3644 73.8981 46.6228 73.8981 46.9201ZM71.6326 46.9201C71.6326 47.1611 71.666 47.3686 71.733 47.5427C71.7999 47.7168 71.903 47.8507 72.0423 47.9444C72.1842 48.0381 72.3623 48.085 72.5765 48.085C72.7934 48.085 72.9702 48.0381 73.1068 47.9444C73.246 47.8507 73.3491 47.7168 73.4161 47.5427C73.483 47.3686 73.5165 47.1611 73.5165 46.9201C73.5165 46.5586 73.4415 46.276 73.2915 46.0725C73.1416 45.8663 72.9046 45.7632 72.5805 45.7632C72.3636 45.7632 72.1842 45.8101 72.0423 45.9038C71.903 45.9949 71.7999 46.1274 71.733 46.3015C71.666 46.4729 71.6326 46.6791 71.6326 46.9201ZM76.727 48.3582H76.3655V47.0205H74.8953V48.3582H74.5338V45.4901H74.8953V46.7032H76.3655V45.4901H76.727V48.3582ZM79.7044 48.3582H79.3429V47.0205H77.8727V48.3582H77.5112V45.4901H77.8727V46.7032H79.3429V45.4901H79.7044V48.3582ZM80.4886 48.3582V45.4901H80.8501V46.7032H81.292C81.5598 46.7032 81.77 46.7393 81.9226 46.8116C82.078 46.8839 82.1878 46.9817 82.252 47.1049C82.319 47.2281 82.3524 47.366 82.3524 47.5186C82.3524 47.6873 82.3163 47.8346 82.244 47.9605C82.1744 48.0863 82.0646 48.1841 81.9146 48.2537C81.7646 48.3233 81.5718 48.3582 81.3362 48.3582H80.4886ZM81.304 48.0529C81.5343 48.0529 81.7044 48.0087 81.8142 47.9203C81.924 47.8319 81.9789 47.698 81.9789 47.5186C81.9789 47.3954 81.9521 47.2977 81.8985 47.2254C81.8476 47.1531 81.7686 47.1009 81.6615 47.0687C81.5544 47.0366 81.4178 47.0205 81.2518 47.0205H80.8501V48.0529H81.304ZM82.7943 48.3582V45.4901H83.1558V48.3582H82.7943ZM85.893 44.5983C85.8823 44.7322 85.8488 44.8447 85.7925 44.9357C85.739 45.0268 85.6586 45.0951 85.5515 45.1406C85.4444 45.1861 85.3052 45.2089 85.1338 45.2089C84.9597 45.2089 84.8191 45.1861 84.712 45.1406C84.6075 45.0951 84.5312 45.0281 84.483 44.9397C84.4348 44.8487 84.4054 44.7349 84.3946 44.5983H84.724C84.7374 44.7429 84.7749 44.8407 84.8365 44.8915C84.9008 44.9397 85.0025 44.9638 85.1418 44.9638C85.265 44.9638 85.3614 44.9384 85.431 44.8875C85.5033 44.834 85.5462 44.7376 85.5596 44.5983H85.893ZM83.9407 45.4901H84.2782V47.0647C84.2782 47.1316 84.2768 47.2053 84.2741 47.2856C84.2741 47.3633 84.2728 47.441 84.2701 47.5186C84.2674 47.5963 84.2634 47.6659 84.2581 47.7275C84.2554 47.7864 84.2527 47.8319 84.25 47.8641H84.2661L85.8448 45.4901H86.2465V48.3582H85.909V46.7996C85.909 46.7273 85.9104 46.6496 85.9131 46.5666C85.9157 46.4809 85.9184 46.3992 85.9211 46.3216C85.9264 46.2412 85.9305 46.1703 85.9331 46.1087C85.9358 46.0471 85.9385 46.0015 85.9412 45.9721H85.9251L84.3424 48.3582H83.9407V45.4901ZM61.8239 53.3582V50.4901H63.977V53.3582H63.6195V50.8074H62.1855V53.3582H61.8239ZM66.5617 53.3582L66.2162 52.4704H65.0794L64.738 53.3582H64.3725L65.4932 50.478H65.8186L66.9353 53.3582H66.5617ZM65.7864 51.2814C65.7784 51.26 65.765 51.2211 65.7463 51.1649C65.7275 51.1087 65.7088 51.0511 65.69 50.9922C65.674 50.9306 65.6606 50.8837 65.6499 50.8516C65.6365 50.9051 65.6217 50.96 65.6057 51.0163C65.5923 51.0698 65.5775 51.1194 65.5615 51.1649C65.5481 51.2104 65.536 51.2493 65.5253 51.2814L65.2 52.1491H66.1078L65.7864 51.2814ZM69.2839 49.5983C69.2732 49.7322 69.2397 49.8447 69.1834 49.9357C69.1299 50.0268 69.0495 50.0951 68.9424 50.1406C68.8353 50.1861 68.6961 50.2089 68.5247 50.2089C68.3506 50.2089 68.21 50.1861 68.1029 50.1406C67.9984 50.0951 67.9221 50.0281 67.8739 49.9397C67.8257 49.8487 67.7963 49.7349 67.7855 49.5983H68.1149C68.1283 49.7429 68.1658 49.8407 68.2274 49.8915C68.2917 49.9397 68.3934 49.9638 68.5327 49.9638C68.6559 49.9638 68.7523 49.9384 68.8219 49.8875C68.8942 49.834 68.9371 49.7376 68.9505 49.5983H69.2839ZM67.3316 50.4901H67.6691V52.0647C67.6691 52.1316 67.6677 52.2053 67.665 52.2856C67.665 52.3633 67.6637 52.441 67.661 52.5186C67.6583 52.5963 67.6543 52.6659 67.649 52.7275C67.6463 52.7864 67.6436 52.8319 67.6409 52.8641H67.657L69.2357 50.4901H69.6374V53.3582H69.2999V51.7996C69.2999 51.7273 69.3013 51.6496 69.304 51.5666C69.3066 51.4809 69.3093 51.3992 69.312 51.3216C69.3173 51.2412 69.3214 51.1703 69.324 51.1087C69.3267 51.0471 69.3294 51.0015 69.3321 50.9721H69.316L67.7333 53.3582H67.3316V50.4901ZM72.368 52.0245C72.4188 52.1638 72.4443 52.3231 72.4443 52.5025C72.4443 52.6632 72.4242 52.8025 72.384 52.9203C72.2849 53.2336 72.0654 53.3903 71.7253 53.3903C71.5432 53.3903 71.3905 53.3421 71.2673 53.2457C71.1441 53.1466 71.0651 53.0114 71.0303 52.84C71.0116 52.7543 71.0022 52.6565 71.0022 52.5467C71.0022 52.52 71.0156 52.5066 71.0424 52.5066H71.2472C71.274 52.5066 71.2874 52.52 71.2874 52.5467C71.2928 52.6619 71.2995 52.7395 71.3075 52.7797C71.3316 52.8922 71.3798 52.9806 71.4521 53.0448C71.5244 53.1091 71.6155 53.1412 71.7253 53.1412C71.9315 53.1412 72.0654 53.0368 72.1269 52.8279C72.1511 52.7315 72.1631 52.6164 72.1631 52.4825C72.1631 52.3218 72.1457 52.1892 72.1109 52.0848C72.0413 51.8973 71.9127 51.8036 71.7253 51.8036C71.6824 51.8036 71.6449 51.8116 71.6128 51.8277C71.5967 51.8331 71.5873 51.8357 71.5847 51.8357C71.574 51.8357 71.5646 51.8304 71.5565 51.8197L71.4521 51.7112C71.4387 51.6925 71.4374 51.6737 71.4481 51.655L72.0747 50.8154C72.0801 50.8101 72.0814 50.8061 72.0787 50.8034C72.0761 50.798 72.0721 50.7953 72.0667 50.7953H71.0625C71.0357 50.7953 71.0223 50.782 71.0223 50.7552V50.5865C71.0223 50.5597 71.0357 50.5463 71.0625 50.5463H72.3921C72.4188 50.5463 72.4322 50.5597 72.4322 50.5865V50.7672C72.4322 50.7887 72.4269 50.8061 72.4162 50.8194L71.8337 51.6148C71.831 51.6175 71.831 51.6215 71.8337 51.6269C71.8364 51.6322 71.8404 51.6349 71.8458 51.6349C71.9716 51.6402 72.0787 51.6764 72.1671 51.7433C72.2555 51.8103 72.3224 51.904 72.368 52.0245ZM73.6892 53.3983C73.4589 53.3983 73.2741 53.3287 73.1349 53.1894C72.9956 53.0502 72.926 52.8641 72.926 52.6311V51.2734C72.926 51.0431 72.9956 50.8583 73.1349 50.719C73.2741 50.5798 73.4589 50.5101 73.6892 50.5101C73.9222 50.5101 74.1083 50.5798 74.2475 50.719C74.3895 50.8583 74.4604 51.0431 74.4604 51.2734V52.6311C74.4604 52.8641 74.3895 53.0502 74.2475 53.1894C74.1083 53.3287 73.9222 53.3983 73.6892 53.3983ZM73.6892 53.1493C73.8365 53.1493 73.9543 53.1037 74.0427 53.0127C74.1311 52.9216 74.1752 52.8011 74.1752 52.6512V51.2573C74.1752 51.1073 74.1311 50.9868 74.0427 50.8958C73.9543 50.8047 73.8365 50.7592 73.6892 50.7592C73.5473 50.7592 73.4321 50.8047 73.3437 50.8958C73.2554 50.9868 73.2112 51.1073 73.2112 51.2573V52.6512C73.2112 52.7985 73.2554 52.919 73.3437 53.0127C73.4321 53.1037 73.5473 53.1493 73.6892 53.1493ZM75.6089 51.651C75.5045 51.651 75.4081 51.6255 75.3197 51.5746C75.234 51.5238 75.1657 51.4555 75.1148 51.3698C75.0639 51.2814 75.0385 51.185 75.0385 51.0805C75.0385 50.9761 75.0639 50.881 75.1148 50.7953C75.1657 50.707 75.234 50.6373 75.3197 50.5865C75.4081 50.5356 75.5045 50.5101 75.6089 50.5101C75.7107 50.5101 75.8044 50.5356 75.8901 50.5865C75.9785 50.6373 76.0481 50.707 76.099 50.7953C76.1499 50.881 76.1753 50.9761 76.1753 51.0805C76.1753 51.185 76.1499 51.2814 76.099 51.3698C76.0481 51.4555 75.9785 51.5238 75.8901 51.5746C75.8044 51.6255 75.7107 51.651 75.6089 51.651ZM75.5165 53.3582C75.5031 53.3582 75.4924 53.3541 75.4844 53.3461C75.479 53.3354 75.4804 53.3233 75.4884 53.31L76.9827 50.5744C76.9907 50.5557 77.0068 50.5463 77.0309 50.5463H77.1595C77.1728 50.5463 77.1822 50.5517 77.1876 50.5624C77.1956 50.5704 77.1956 50.5811 77.1876 50.5945L75.6933 53.33C75.6852 53.3488 75.6692 53.3582 75.6451 53.3582H75.5165ZM75.6089 51.4742C75.716 51.4742 75.8057 51.4367 75.878 51.3617C75.953 51.2841 75.9905 51.1903 75.9905 51.0805C75.9905 50.9708 75.953 50.8784 75.878 50.8034C75.8057 50.7257 75.716 50.6869 75.6089 50.6869C75.5018 50.6869 75.4107 50.7257 75.3358 50.8034C75.2608 50.8784 75.2233 50.9708 75.2233 51.0805C75.2233 51.1903 75.2608 51.2841 75.3358 51.3617C75.4107 51.4367 75.5018 51.4742 75.6089 51.4742ZM77.0831 53.3943C76.9787 53.3943 76.8823 53.3689 76.7939 53.318C76.7082 53.2671 76.6399 53.1975 76.589 53.1091C76.5382 53.0207 76.5127 52.9243 76.5127 52.8199C76.5127 52.7181 76.5382 52.6244 76.589 52.5387C76.6399 52.4503 76.7082 52.3807 76.7939 52.3298C76.8823 52.2789 76.9787 52.2535 77.0831 52.2535C77.1849 52.2535 77.2786 52.2789 77.3643 52.3298C77.4527 52.3807 77.5223 52.4503 77.5732 52.5387C77.6241 52.6244 77.6495 52.7181 77.6495 52.8199C77.6495 52.9243 77.6241 53.0207 77.5732 53.1091C77.5223 53.1975 77.4527 53.2671 77.3643 53.318C77.2786 53.3689 77.1849 53.3943 77.0831 53.3943ZM77.0831 53.2176C77.1902 53.2176 77.28 53.1787 77.3523 53.1011C77.4272 53.0234 77.4647 52.9297 77.4647 52.8199C77.4647 52.7101 77.4272 52.6177 77.3523 52.5427C77.28 52.4677 77.1902 52.4302 77.0831 52.4302C76.976 52.4302 76.885 52.4677 76.81 52.5427C76.735 52.6177 76.6975 52.7101 76.6975 52.8199C76.6975 52.9324 76.7337 53.0274 76.806 53.1051C76.8809 53.1801 76.9733 53.2176 77.0831 53.2176Z" fill="#404040"/>
<path fill-rule="evenodd" clip-rule="evenodd" d="M49.2748 26.2033C49.1859 26.3911 49.097 26.4537 48.8926 26.4537C48.6348 26.4537 48.626 26.4537 48.7859 26.6325C48.9193 26.7846 48.9282 26.8471 48.8393 27.0439L48.7326 27.2853L48.9637 27.1333C49.1681 26.9992 49.2037 26.9992 49.4081 27.1333C49.6303 27.2763 49.6303 27.2763 49.577 27.017C49.5325 26.8024 49.5681 26.7398 49.7725 26.6325L50.0125 26.4984L49.7636 26.4537C49.5859 26.4179 49.4881 26.3375 49.4437 26.1855L49.3903 25.9619L49.2748 26.2033Z" fill="black"/>
<path fill-rule="evenodd" clip-rule="evenodd" d="M47.4082 26.3022C47.4082 26.3559 46.7861 29.8968 46.7505 30.0488C46.715 30.1919 46.7861 30.2097 47.2216 30.2097H47.7282L48.0304 28.484C48.1904 27.5451 48.3415 26.6599 48.3681 26.5168C48.4037 26.2754 48.4037 26.2754 47.906 26.2754C47.6304 26.2754 47.4082 26.2843 47.4082 26.3022Z" fill="black"/>
<path fill-rule="evenodd" clip-rule="evenodd" d="M37.3642 26.5613C36.9109 26.7938 36.6532 27.214 36.6532 27.7148C36.6532 28.1708 36.9198 28.4659 37.5509 28.6984C38.1641 28.9219 38.2619 29.0292 38.0219 29.1991C37.8175 29.3511 37.4798 29.2796 37.2398 29.0471C37.0709 28.8861 37.062 28.8861 36.6354 29.1008C36.4043 29.217 36.2088 29.3601 36.2088 29.4048C36.2088 29.4495 36.3332 29.6283 36.4843 29.7982C37.1331 30.5404 38.6885 30.3884 39.0885 29.5389C39.444 28.7967 39.1507 28.2423 38.2352 27.8847C37.6931 27.6701 37.5775 27.4734 37.933 27.3839C38.1641 27.3303 38.5197 27.4734 38.5197 27.6254C38.5197 27.6701 38.7241 27.6075 38.9641 27.4823C39.2129 27.3571 39.4085 27.2051 39.4085 27.1425C39.4085 27.0084 39.0085 26.615 38.7241 26.4629C38.413 26.302 37.7908 26.3467 37.3642 26.5613Z" fill="black"/>
<path fill-rule="evenodd" clip-rule="evenodd" d="M40.4485 26.9193C40.1907 26.9909 40.084 27.0803 40.0129 27.2681C39.9596 27.429 39.8618 27.5274 39.7552 27.5274C39.5863 27.5274 39.5241 27.6794 39.4797 28.198C39.4619 28.4036 39.4885 28.4662 39.6041 28.4573C39.7374 28.4484 39.7552 28.5199 39.7019 29.1279C39.6574 29.7717 39.6663 29.8164 39.8796 30.0221C40.0574 30.1831 40.2085 30.2278 40.564 30.2278C40.8129 30.2278 41.0262 30.2188 41.044 30.2009C41.0617 30.1831 41.1062 29.9774 41.1328 29.736C41.195 29.3336 41.1862 29.3157 40.9817 29.3157C40.724 29.3157 40.6618 29.1995 40.7151 28.7971C40.7595 28.5557 40.7951 28.5109 41.0173 28.5109C41.3106 28.5109 41.3461 28.4662 41.4439 27.9387L41.515 27.5274H41.2573C40.9995 27.5274 40.9906 27.5184 41.0262 27.1697C41.0617 26.7763 41.0351 26.7673 40.4485 26.9193Z" fill="black"/>
<path fill-rule="evenodd" clip-rule="evenodd" d="M42.2883 27.6078C41.524 28.0728 41.2218 29.1905 41.6751 29.8879C41.9417 30.2903 42.4928 30.4065 42.9638 30.1651C43.1149 30.0846 43.2305 30.0668 43.2305 30.1204C43.2305 30.1741 43.4438 30.2098 43.7193 30.2098C43.9859 30.2098 44.2081 30.183 44.2081 30.1383C44.2081 30.1025 44.3059 29.5124 44.4303 28.8328C44.5548 28.1443 44.6525 27.572 44.6525 27.5541C44.6525 27.4737 43.6837 27.5452 43.6571 27.6257C43.6393 27.6793 43.5327 27.6704 43.3638 27.581C43.0083 27.3932 42.6261 27.4021 42.2883 27.6078ZM43.2393 28.4215C43.346 28.4841 43.4082 28.6093 43.4082 28.7613C43.4082 29.2709 42.9283 29.5481 42.6083 29.2262C42.395 29.0116 42.4305 28.7344 42.715 28.4841C42.9194 28.3052 42.9994 28.2963 43.2393 28.4215Z" fill="black"/>
<path fill-rule="evenodd" clip-rule="evenodd" d="M46.4038 27.6085C46.1461 27.7426 46.075 27.7516 46.075 27.6532C46.075 27.5638 45.9417 27.528 45.5861 27.528C45.1506 27.528 45.0973 27.5548 45.0529 27.7247C44.9729 28.1271 44.6529 29.987 44.6529 30.0943C44.6529 30.1748 44.804 30.2105 45.1328 30.2105H45.6128L45.7195 29.6293C45.8439 28.9587 46.0572 28.6368 46.4305 28.5563C46.5727 28.5205 46.7149 28.4669 46.7327 28.4401C46.8127 28.297 46.8838 27.4386 46.8127 27.4386C46.7682 27.4386 46.5905 27.5191 46.4038 27.6085Z" fill="black"/>
<path fill-rule="evenodd" clip-rule="evenodd" d="M51.3011 27.5636C51.1589 27.6351 51.0523 27.653 51.0523 27.6083C51.0523 27.5547 50.8389 27.5278 50.5456 27.5457L50.039 27.5725L49.8346 28.735C49.5591 30.3176 49.5413 30.2103 50.1012 30.2103H50.5723L50.7234 29.4414C50.8834 28.5919 50.99 28.4041 51.2656 28.4399C51.4255 28.4667 51.4522 28.5293 51.4522 28.8691C51.4522 29.0926 51.4167 29.4861 51.3722 29.7364L51.3011 30.2103H51.79H52.2788L52.3766 29.647C52.4299 29.343 52.501 28.8423 52.5365 28.5382C52.5899 28.0107 52.581 27.9749 52.3143 27.7156C52.0122 27.4026 51.6922 27.3579 51.3011 27.5636Z" fill="black"/>
<path fill-rule="evenodd" clip-rule="evenodd" d="M53.7634 27.5629C53.1768 27.8312 52.8035 28.4035 52.7946 29.0651C52.7857 29.5569 52.999 29.9057 53.4612 30.1471C53.8256 30.3438 54.67 30.308 55.0166 30.0756L55.2477 29.9236L54.9633 29.6285C54.7055 29.3692 54.6611 29.3423 54.43 29.4318C54.2345 29.5033 54.1189 29.5033 53.9234 29.396C53.6923 29.2798 53.7278 29.2708 54.5811 29.244L55.4877 29.2172L55.5499 28.9131C55.5766 28.7432 55.5766 28.4661 55.5499 28.3051C55.4255 27.6166 54.5011 27.2321 53.7634 27.5629ZM54.59 28.3498C54.7766 28.5376 54.7055 28.6002 54.2967 28.6002C53.8789 28.6002 53.7812 28.4929 54.0567 28.3409C54.2611 28.2157 54.4567 28.2157 54.59 28.3498Z" fill="black"/>
<path fill-rule="evenodd" clip-rule="evenodd" d="M48.6081 27.6351C48.5459 27.8319 48.2082 29.8348 48.2082 30.0315C48.2082 30.1925 48.2615 30.2103 48.6792 30.2103H49.1592L49.3547 29.0211C49.4614 28.3773 49.5769 27.7693 49.5947 27.6798C49.6391 27.5457 49.5769 27.5278 49.1414 27.5278C48.8214 27.5278 48.6348 27.5636 48.6081 27.6351Z" fill="black"/>
</svg>
