<svg width="86" height="56" viewBox="0 0 86 56" fill="none" xmlns="http://www.w3.org/2000/svg">
<path d="M60.1551 14.6266C62.2548 17.269 63.6887 20.3624 64.3394 23.6541C64.9901 26.9457 64.8393 30.342 63.8993 33.5653C62.9592 36.7886 61.2566 39.7474 58.9307 42.1998C56.6048 44.6522 53.7215 46.5285 50.5167 47.6754C47.3119 48.8223 43.8766 49.2071 40.4915 48.7984C37.1065 48.3898 33.8679 47.1992 31.0405 45.3241C28.2131 43.449 25.8772 40.9426 24.2238 38.0098C22.5703 35.077 21.6463 31.8011 21.5273 28.4499L29.0866 28.1904C29.164 30.3687 29.7646 32.498 30.8393 34.4043C31.914 36.3106 33.4324 37.9398 35.2702 39.1586C37.108 40.3774 39.2131 41.1513 41.4134 41.4169C43.6136 41.6826 45.8466 41.4324 47.9297 40.687C50.0129 39.9415 51.8869 38.7219 53.3988 37.1278C54.9107 35.5338 56.0174 33.6105 56.6284 31.5154C57.2394 29.4202 57.3375 27.2126 56.9145 25.0731C56.4915 22.9335 55.5595 20.9228 54.1947 19.2053L60.1551 14.6266Z" fill="#900146"/>
<path d="M22.3513 21.8516C23.4499 18.0847 25.5866 14.6899 28.525 12.0425C31.4635 9.39506 35.0894 7.59815 39.0017 6.85044C42.9141 6.10272 46.9605 6.43331 50.6937 7.80566C54.4269 9.17801 57.7014 11.5387 60.1551 14.6266L54.1947 19.2053C52.5997 17.1981 50.4713 15.6637 48.0448 14.7716C45.6182 13.8796 42.988 13.6647 40.445 14.1507C37.9019 14.6368 35.5451 15.8047 33.6351 17.5256C31.7251 19.2464 30.3363 21.453 29.6222 23.9015L22.3513 21.8516Z" fill="#319900"/>
<path d="M21.5273 28.45C21.4482 26.2216 21.7263 23.9949 22.3513 21.8516L29.6222 23.9015C29.2159 25.2946 29.0352 26.742 29.0866 28.1904L21.5273 28.45Z" fill="#69D200"/>
<path d="M57.3522 13.0046L59.8973 9.78731H70.4412" stroke="black" stroke-width="0.145684"/>
<path d="M65.5674 6.20613C65.5525 6.21208 65.5525 6.21952 65.5674 6.22844C65.7073 6.29688 65.8144 6.39507 65.8888 6.52302C65.9661 6.65097 66.0063 6.80569 66.0093 6.9872C66.0093 7.255 65.9289 7.46328 65.7683 7.61206C65.6106 7.76083 65.4008 7.83522 65.139 7.83522H64.2597C64.2299 7.83522 64.2151 7.82034 64.2151 7.79059V4.75557C64.2151 4.72581 64.2299 4.71093 64.2597 4.71093H65.1032C65.377 4.71093 65.5912 4.78235 65.746 4.92517C65.9007 5.06502 65.978 5.26587 65.978 5.52771C65.978 5.69434 65.9423 5.83419 65.8709 5.94726C65.8025 6.06033 65.7013 6.14662 65.5674 6.20613ZM64.5498 4.98766C64.5379 4.98766 64.5319 4.99361 64.5319 5.00551V6.08116C64.5319 6.09306 64.5379 6.09901 64.5498 6.09901H65.1077C65.2803 6.09901 65.4157 6.04991 65.5139 5.95172C65.615 5.85353 65.6656 5.72112 65.6656 5.55449C65.6656 5.37894 65.615 5.24057 65.5139 5.13941C65.4157 5.03824 65.2803 4.98766 65.1077 4.98766H64.5498ZM65.13 7.55403C65.3026 7.55403 65.4395 7.50048 65.5406 7.39336C65.6418 7.28624 65.6924 7.14044 65.6924 6.95596C65.6924 6.7685 65.6403 6.62121 65.5362 6.51409C65.435 6.40698 65.2967 6.35342 65.1211 6.35342H64.5498C64.5379 6.35342 64.5319 6.35937 64.5319 6.37127V7.53618C64.5319 7.54808 64.5379 7.55403 64.5498 7.55403H65.13ZM68.1476 7.83522C68.1238 7.83522 68.1074 7.82332 68.0985 7.79951L67.545 6.42036C67.5421 6.41144 67.5361 6.40697 67.5272 6.40697H66.9514C66.9395 6.40697 66.9336 6.41293 66.9336 6.42483V7.79059C66.9336 7.82034 66.9187 7.83522 66.8889 7.83522H66.6613C66.6316 7.83522 66.6167 7.82034 66.6167 7.79059V4.75557C66.6167 4.72581 66.6316 4.71093 66.6613 4.71093H67.6075C67.7622 4.71093 67.8991 4.74664 68.0181 4.81805C68.1401 4.88946 68.2339 4.99063 68.2993 5.12155C68.3678 5.25248 68.402 5.40274 68.402 5.57234C68.402 5.77468 68.3529 5.94726 68.2547 6.09008C68.1565 6.23291 68.0226 6.32812 67.853 6.37573C67.8411 6.38168 67.8381 6.38912 67.8441 6.39805L68.4198 7.78166L68.4243 7.79951C68.4243 7.82332 68.4109 7.83522 68.3841 7.83522H68.1476ZM66.9514 4.98766C66.9395 4.98766 66.9336 4.99361 66.9336 5.00551V6.13472C66.9336 6.14662 66.9395 6.15257 66.9514 6.15257H67.5674C67.7221 6.15257 67.8471 6.09901 67.9423 5.99189C68.0375 5.88477 68.0851 5.74492 68.0851 5.57234C68.0851 5.39679 68.0375 5.25545 67.9423 5.14833C67.8471 5.04122 67.7221 4.98766 67.5674 4.98766H66.9514ZM70.6011 7.83522C70.5743 7.83522 70.5579 7.82183 70.552 7.79505L70.4047 7.23714C70.4017 7.22822 70.3943 7.22375 70.3824 7.22375H69.3157C69.3038 7.22375 69.2963 7.22822 69.2933 7.23714L69.1461 7.79505C69.1401 7.82183 69.1237 7.83522 69.097 7.83522H68.8649C68.85 7.83522 68.8381 7.83076 68.8292 7.82183C68.8232 7.8129 68.8217 7.801 68.8247 7.78612L69.6593 4.7511C69.6653 4.72432 69.6817 4.71093 69.7084 4.71093H69.9941C70.0209 4.71093 70.0372 4.72432 70.0432 4.7511L70.8778 7.78612L70.8823 7.79951C70.8823 7.82332 70.8674 7.83522 70.8376 7.83522H70.6011ZM69.3692 6.94703C69.3662 6.95001 69.3662 6.95447 69.3692 6.96042C69.3752 6.9634 69.3811 6.96488 69.3871 6.96488H70.311C70.3169 6.96488 70.3214 6.9634 70.3244 6.96042C70.3303 6.95447 70.3318 6.95001 70.3288 6.94703L69.8557 5.1528C69.8527 5.14685 69.8498 5.14387 69.8468 5.14387C69.8438 5.14387 69.8408 5.14685 69.8379 5.1528L69.3692 6.94703ZM71.2507 7.83522C71.221 7.83522 71.2061 7.82034 71.2061 7.79059V7.58081C71.2061 7.56296 71.2106 7.54362 71.2195 7.52279L72.5763 5.00997C72.5823 4.9951 72.5793 4.98766 72.5674 4.98766H71.2507C71.221 4.98766 71.2061 4.97278 71.2061 4.94302V4.75557C71.2061 4.72581 71.221 4.71093 71.2507 4.71093H72.8888C72.9185 4.71093 72.9334 4.72581 72.9334 4.75557V4.96534C72.9334 4.98022 72.9289 4.99956 72.92 5.02336L71.5632 7.53618C71.5572 7.55106 71.5602 7.5585 71.5721 7.5585H72.8888C72.9185 7.5585 72.9334 7.57338 72.9334 7.60313V7.79059C72.9334 7.82034 72.9185 7.83522 72.8888 7.83522H71.2507ZM73.5523 7.83522C73.5226 7.83522 73.5077 7.82034 73.5077 7.79059V4.75557C73.5077 4.72581 73.5226 4.71093 73.5523 4.71093H73.78C73.8097 4.71093 73.8246 4.72581 73.8246 4.75557V7.79059C73.8246 7.82034 73.8097 7.83522 73.78 7.83522H73.5523ZM74.6115 7.83522C74.5817 7.83522 74.5669 7.82034 74.5669 7.79059V4.75557C74.5669 4.72581 74.5817 4.71093 74.6115 4.71093H74.8391C74.8689 4.71093 74.8838 4.72581 74.8838 4.75557V7.54064C74.8838 7.55255 74.8897 7.5585 74.9016 7.5585H76.2004C76.2302 7.5585 76.2451 7.57338 76.2451 7.60313V7.79059C76.2451 7.82034 76.2302 7.83522 76.2004 7.83522H74.6115ZM76.7647 7.83522C76.7349 7.83522 76.72 7.82034 76.72 7.79059V4.75557C76.72 4.72581 76.7349 4.71093 76.7647 4.71093H76.9923C77.0221 4.71093 77.0369 4.72581 77.0369 4.75557V7.79059C77.0369 7.82034 77.0221 7.83522 76.9923 7.83522H76.7647ZM79.2922 7.83522C79.2655 7.83522 79.2491 7.82183 79.2432 7.79505L79.0959 7.23714C79.0929 7.22822 79.0855 7.22375 79.0735 7.22375H78.0068C77.9949 7.22375 77.9875 7.22822 77.9845 7.23714L77.8372 7.79505C77.8313 7.82183 77.8149 7.83522 77.7881 7.83522H77.556C77.5412 7.83522 77.5293 7.83076 77.5203 7.82183C77.5144 7.8129 77.5129 7.801 77.5159 7.78612L78.3505 4.7511C78.3564 4.72432 78.3728 4.71093 78.3996 4.71093H78.6852C78.712 4.71093 78.7284 4.72432 78.7343 4.7511L79.569 7.78612L79.5734 7.79951C79.5734 7.82332 79.5586 7.83522 79.5288 7.83522H79.2922ZM78.0604 6.94703C78.0574 6.95001 78.0574 6.95447 78.0604 6.96042C78.0663 6.9634 78.0723 6.96488 78.0782 6.96488H79.0021C79.0081 6.96488 79.0126 6.9634 79.0155 6.96042C79.0215 6.95447 79.023 6.95001 79.02 6.94703L78.5469 5.1528C78.5439 5.14685 78.5409 5.14387 78.538 5.14387C78.535 5.14387 78.532 5.14685 78.529 5.1528L78.0604 6.94703ZM81.5989 4.75557C81.5989 4.72581 81.6138 4.71093 81.6436 4.71093H81.8712C81.9009 4.71093 81.9158 4.72581 81.9158 4.75557V7.79059C81.9158 7.82034 81.9009 7.83522 81.8712 7.83522H81.6302C81.6034 7.83522 81.5855 7.82481 81.5766 7.80398L80.3804 5.41613C80.3745 5.41018 80.3685 5.4072 80.3626 5.4072C80.3596 5.4072 80.3581 5.41167 80.3581 5.42059L80.3626 7.79059C80.3626 7.82034 80.3477 7.83522 80.318 7.83522H80.0903C80.0606 7.83522 80.0457 7.82034 80.0457 7.79059V4.75557C80.0457 4.72581 80.0606 4.71093 80.0903 4.71093H80.3314C80.3581 4.71093 80.376 4.72135 80.3849 4.74218L81.5811 7.13895C81.587 7.1449 81.5915 7.14788 81.5945 7.14788C81.6004 7.14788 81.6034 7.14341 81.6034 7.13449L81.5989 4.75557ZM65.8397 9.71093C65.8694 9.71093 65.8843 9.72581 65.8843 9.75557V9.94302C65.8843 9.97278 65.8694 9.98766 65.8397 9.98766H65.1122C65.1003 9.98766 65.0943 9.99361 65.0943 10.0055V12.7906C65.0943 12.8203 65.0794 12.8352 65.0497 12.8352H64.8221C64.7923 12.8352 64.7774 12.8203 64.7774 12.7906V10.0055C64.7774 9.99361 64.7715 9.98766 64.7596 9.98766H64.0588C64.0291 9.98766 64.0142 9.97278 64.0142 9.94302V9.75557C64.0142 9.72581 64.0291 9.71093 64.0588 9.71093H65.8397ZM68.1476 9.94302C68.1476 9.97278 68.1327 9.98766 68.103 9.98766H66.764C66.7521 9.98766 66.7461 9.99361 66.7461 10.0055V11.1124C66.7461 11.1243 66.7521 11.1303 66.764 11.1303H67.6656C67.6953 11.1303 67.7102 11.1451 67.7102 11.1749V11.3623C67.7102 11.3921 67.6953 11.407 67.6656 11.407H66.764C66.7521 11.407 66.7461 11.4129 66.7461 11.4248V12.5406C66.7461 12.5525 66.7521 12.5585 66.764 12.5585H68.103C68.1327 12.5585 68.1476 12.5734 68.1476 12.6031V12.7906C68.1476 12.8203 68.1327 12.8352 68.103 12.8352H66.4739C66.4441 12.8352 66.4293 12.8203 66.4293 12.7906V9.75557C66.4293 9.72581 66.4441 9.71093 66.4739 9.71093H68.103C68.1327 9.71093 68.1476 9.72581 68.1476 9.75557V9.94302ZM70.3003 12.8352C70.2736 12.8352 70.2572 12.8218 70.2512 12.7951L70.104 12.2371C70.101 12.2282 70.0935 12.2238 70.0816 12.2238H69.0149C69.003 12.2238 68.9956 12.2282 68.9926 12.2371L68.8453 12.7951C68.8394 12.8218 68.823 12.8352 68.7962 12.8352H68.5641C68.5492 12.8352 68.5373 12.8308 68.5284 12.8218C68.5225 12.8129 68.521 12.801 68.524 12.7861L69.3586 9.7511C69.3645 9.72432 69.3809 9.71093 69.4077 9.71093H69.6933C69.7201 9.71093 69.7365 9.72432 69.7424 9.7511L70.5771 12.7861L70.5815 12.7995C70.5815 12.8233 70.5666 12.8352 70.5369 12.8352H70.3003ZM69.0685 11.947C69.0655 11.95 69.0655 11.9545 69.0685 11.9604C69.0744 11.9634 69.0804 11.9649 69.0863 11.9649H70.0102C70.0162 11.9649 70.0206 11.9634 70.0236 11.9604C70.0296 11.9545 70.0311 11.95 70.0281 11.947L69.555 10.1528C69.552 10.1468 69.549 10.1439 69.546 10.1439C69.5431 10.1439 69.5401 10.1468 69.5371 10.1528L69.0685 11.947ZM71.7822 11.7105C71.7524 11.7105 71.7375 11.6956 71.7375 11.6658V11.4784C71.7375 11.4486 71.7524 11.4338 71.7822 11.4338H74.2236C74.2533 11.4338 74.2682 11.4486 74.2682 11.4784V11.6658C74.2682 11.6956 74.2533 11.7105 74.2236 11.7105H71.7822ZM77.0348 11.3534C77.0914 11.5081 77.1196 11.6852 77.1196 11.8845C77.1196 12.0631 77.0973 12.2178 77.0527 12.3487C76.9426 12.6969 76.6986 12.8709 76.3207 12.8709C76.1184 12.8709 75.9488 12.8174 75.8119 12.7102C75.675 12.6002 75.5873 12.4499 75.5486 12.2595C75.5278 12.1642 75.5173 12.0556 75.5173 11.9336C75.5173 11.9039 75.5322 11.889 75.562 11.889H75.7896C75.8194 11.889 75.8342 11.9039 75.8342 11.9336C75.8402 12.0616 75.8476 12.1479 75.8565 12.1925C75.8833 12.3175 75.9369 12.4157 76.0172 12.4871C76.0976 12.5585 76.1987 12.5942 76.3207 12.5942C76.5498 12.5942 76.6986 12.4782 76.7671 12.2461C76.7938 12.139 76.8072 12.011 76.8072 11.8622C76.8072 11.6837 76.7879 11.5364 76.7492 11.4204C76.6718 11.2121 76.529 11.1079 76.3207 11.1079C76.2731 11.1079 76.2315 11.1169 76.1958 11.1347C76.1779 11.1407 76.1675 11.1436 76.1645 11.1436C76.1526 11.1436 76.1422 11.1377 76.1333 11.1258L76.0172 11.0053C76.0023 10.9845 76.0009 10.9636 76.0128 10.9428L76.709 10.01C76.715 10.004 76.7165 9.99956 76.7135 9.99658C76.7105 9.99063 76.7061 9.98766 76.7001 9.98766H75.5843C75.5545 9.98766 75.5397 9.97278 75.5397 9.94302V9.75557C75.5397 9.72581 75.5545 9.71093 75.5843 9.71093H77.0616C77.0914 9.71093 77.1063 9.72581 77.1063 9.75557V9.95641C77.1063 9.98022 77.1003 9.99956 77.0884 10.0144L76.4412 10.8982C76.4383 10.9011 76.4383 10.9056 76.4412 10.9116C76.4442 10.9175 76.4487 10.9205 76.4546 10.9205C76.5945 10.9264 76.7135 10.9666 76.8117 11.041C76.9099 11.1154 76.9843 11.2195 77.0348 11.3534ZM79.1902 11.3936C79.2289 11.5334 79.2482 11.6941 79.2482 11.8756C79.2482 12.0274 79.2349 12.1583 79.2081 12.2684C79.1634 12.4618 79.0742 12.6106 78.9403 12.7147C78.8094 12.8189 78.6442 12.8709 78.4449 12.8709C78.2425 12.8709 78.0744 12.8174 77.9405 12.7102C77.8066 12.6031 77.7188 12.4529 77.6772 12.2595C77.6623 12.2059 77.6534 12.1509 77.6504 12.0943V12.0854C77.6504 12.0616 77.6638 12.0497 77.6906 12.0497H77.9227C77.9494 12.0497 77.9643 12.0616 77.9673 12.0854V12.1032L77.9851 12.1925C78.0119 12.3205 78.064 12.4186 78.1414 12.4871C78.2217 12.5555 78.3229 12.5897 78.4449 12.5897C78.5639 12.5897 78.6621 12.5555 78.7394 12.4871C78.8198 12.4157 78.8733 12.316 78.9001 12.188C78.9209 12.1047 78.9314 12.0021 78.9314 11.8801C78.9314 11.767 78.9194 11.651 78.8956 11.5319C78.8689 11.4129 78.8168 11.3237 78.7394 11.2642C78.6621 11.2017 78.5639 11.1704 78.4449 11.1704C78.3318 11.1704 78.2336 11.1972 78.1503 11.2508C78.0699 11.3013 78.0134 11.3757 77.9807 11.4739L77.9717 11.4918C77.9688 11.5126 77.9539 11.523 77.9271 11.523H77.6906C77.6608 11.523 77.6459 11.5081 77.6459 11.4784V9.75557C77.6459 9.72581 77.6608 9.71093 77.6906 9.71093H79.1054C79.1352 9.71093 79.1501 9.72581 79.1501 9.75557V9.94302C79.1501 9.97278 79.1352 9.98766 79.1054 9.98766H77.9807C77.9688 9.98766 77.9628 9.99361 77.9628 10.0055V11.099C77.9628 11.105 77.9643 11.1094 77.9673 11.1124C77.9732 11.1124 77.9792 11.1094 77.9851 11.1035C78.0446 11.038 78.119 10.9874 78.2083 10.9517C78.3005 10.913 78.3987 10.8937 78.5029 10.8937C78.6784 10.8937 78.8242 10.9368 78.9403 11.0231C79.0593 11.1064 79.1426 11.2299 79.1902 11.3936ZM80.4441 10.9383C80.3281 10.9383 80.221 10.9101 80.1228 10.8535C80.0275 10.797 79.9517 10.7211 79.8951 10.6259C79.8386 10.5277 79.8103 10.4206 79.8103 10.3045C79.8103 10.1885 79.8386 10.0829 79.8951 9.98766C79.9517 9.88946 80.0275 9.8121 80.1228 9.75557C80.221 9.69903 80.3281 9.67076 80.4441 9.67076C80.5572 9.67076 80.6613 9.69903 80.7565 9.75557C80.8547 9.8121 80.9321 9.88946 80.9886 9.98766C81.0452 10.0829 81.0734 10.1885 81.0734 10.3045C81.0734 10.4206 81.0452 10.5277 80.9886 10.6259C80.9321 10.7211 80.8547 10.797 80.7565 10.8535C80.6613 10.9101 80.5572 10.9383 80.4441 10.9383ZM80.3415 12.8352C80.3266 12.8352 80.3147 12.8308 80.3058 12.8218C80.2998 12.8099 80.3013 12.7965 80.3102 12.7817L81.9706 9.74218C81.9795 9.72135 81.9973 9.71093 82.0241 9.71093H82.1669C82.1818 9.71093 82.1922 9.71688 82.1982 9.72879C82.2071 9.73771 82.2071 9.74962 82.1982 9.76449L80.5378 12.804C80.5289 12.8248 80.5111 12.8352 80.4843 12.8352H80.3415ZM80.4441 10.7419C80.5631 10.7419 80.6628 10.7003 80.7432 10.617C80.8265 10.5307 80.8681 10.4265 80.8681 10.3045C80.8681 10.1826 80.8265 10.0799 80.7432 9.99658C80.6628 9.91029 80.5631 9.86715 80.4441 9.86715C80.3251 9.86715 80.2239 9.91029 80.1406 9.99658C80.0573 10.0799 80.0156 10.1826 80.0156 10.3045C80.0156 10.4265 80.0573 10.5307 80.1406 10.617C80.2239 10.7003 80.3251 10.7419 80.4441 10.7419ZM82.0821 12.8754C81.9661 12.8754 81.859 12.8471 81.7608 12.7906C81.6656 12.7341 81.5897 12.6567 81.5332 12.5585C81.4766 12.4603 81.4484 12.3532 81.4484 12.2371C81.4484 12.1241 81.4766 12.0199 81.5332 11.9247C81.5897 11.8265 81.6656 11.7492 81.7608 11.6926C81.859 11.6361 81.9661 11.6078 82.0821 11.6078C82.1952 11.6078 82.2994 11.6361 82.3946 11.6926C82.4928 11.7492 82.5701 11.8265 82.6267 11.9247C82.6832 12.0199 82.7115 12.1241 82.7115 12.2371C82.7115 12.3532 82.6832 12.4603 82.6267 12.5585C82.5701 12.6567 82.4928 12.7341 82.3946 12.7906C82.2994 12.8471 82.1952 12.8754 82.0821 12.8754ZM82.0821 12.679C82.2012 12.679 82.3008 12.6359 82.3812 12.5496C82.4645 12.4633 82.5061 12.3591 82.5061 12.2371C82.5061 12.1151 82.4645 12.0125 82.3812 11.9292C82.3008 11.8459 82.2012 11.8042 82.0821 11.8042C81.9631 11.8042 81.862 11.8459 81.7786 11.9292C81.6953 12.0125 81.6537 12.1151 81.6537 12.2371C81.6537 12.3621 81.6938 12.4677 81.7742 12.554C81.8575 12.6373 81.9601 12.679 82.0821 12.679Z" fill="#404040"/>
<path d="M22.881 24.4404L20.339 21.1771H9.80792" stroke="black" stroke-width="0.145684"/>
<path d="M52.5394 45.6907L55.0814 48.954H65.6125" stroke="black" stroke-width="0.145684"/>
<path d="M2.63193 16.8457C2.63193 16.8755 2.61705 16.8903 2.5873 16.8903H1.24832C1.23642 16.8903 1.23046 16.8963 1.23046 16.9082V18.0151C1.23046 18.027 1.23642 18.0329 1.24832 18.0329H2.1499C2.17965 18.0329 2.19453 18.0478 2.19453 18.0776V18.265C2.19453 18.2948 2.17965 18.3097 2.1499 18.3097H1.24832C1.23642 18.3097 1.23046 18.3156 1.23046 18.3275V19.4433C1.23046 19.4552 1.23642 19.4612 1.24832 19.4612H2.5873C2.61705 19.4612 2.63193 19.4761 2.63193 19.5058V19.6933C2.63193 19.723 2.61705 19.7379 2.5873 19.7379H0.958205C0.92845 19.7379 0.913572 19.723 0.913572 19.6933V16.6582C0.913572 16.6285 0.92845 16.6136 0.958205 16.6136H2.5873C2.61705 16.6136 2.63193 16.6285 2.63193 16.6582V16.8457ZM4.20122 16.6091C4.43926 16.6091 4.63118 16.6895 4.77698 16.8502C4.92576 17.0079 5.00015 17.2176 5.00015 17.4795C5.00015 17.7384 4.92576 17.9466 4.77698 18.1043C4.63118 18.2591 4.43926 18.3364 4.20122 18.3364H3.53619C3.52429 18.3364 3.51834 18.3424 3.51834 18.3543V19.6933C3.51834 19.723 3.50346 19.7379 3.47371 19.7379H3.24608C3.21633 19.7379 3.20145 19.723 3.20145 19.6933V16.6538C3.20145 16.624 3.21633 16.6091 3.24608 16.6091H4.20122ZM4.16105 18.0731C4.31875 18.0731 4.44521 18.0195 4.54043 17.9124C4.63565 17.8053 4.68325 17.6625 4.68325 17.484C4.68325 17.3024 4.63565 17.1581 4.54043 17.051C4.44521 16.9409 4.31875 16.8859 4.16105 16.8859H3.53619C3.52429 16.8859 3.51834 16.8918 3.51834 16.9037V18.0552C3.51834 18.0672 3.52429 18.0731 3.53619 18.0731H4.16105ZM5.56967 19.7379C5.53991 19.7379 5.52503 19.723 5.52503 19.6933V16.6582C5.52503 16.6285 5.53991 16.6136 5.56967 16.6136H5.79729C5.82705 16.6136 5.84193 16.6285 5.84193 16.6582V19.6933C5.84193 19.723 5.82705 19.7379 5.79729 19.7379H5.56967ZM7.40096 19.7736C7.13019 19.7736 6.91149 19.6933 6.74486 19.5326C6.58121 19.3719 6.49939 19.1592 6.49939 18.8943V17.4527C6.49939 17.1879 6.58121 16.9766 6.74486 16.8189C6.91149 16.6582 7.13019 16.5779 7.40096 16.5779C7.67471 16.5779 7.89341 16.6568 8.05707 16.8145C8.22369 16.9722 8.30701 17.1819 8.30701 17.4438V17.484C8.30701 17.5137 8.29213 17.5286 8.26238 17.5286L8.03475 17.5375C8.00499 17.5375 7.99012 17.5241 7.99012 17.4973V17.4349C7.99012 17.2623 7.93507 17.1224 7.82498 17.0153C7.71786 16.9082 7.57652 16.8546 7.40096 16.8546C7.22541 16.8546 7.08407 16.9082 6.97695 17.0153C6.86984 17.1195 6.81628 17.2593 6.81628 17.4349V18.9167C6.81628 19.0922 6.86984 19.2336 6.97695 19.3407C7.08407 19.4448 7.22541 19.4969 7.40096 19.4969C7.57652 19.4969 7.71786 19.4433 7.82498 19.3362C7.93507 19.2291 7.99012 19.0892 7.99012 18.9167V18.8542C7.99012 18.8274 8.00499 18.814 8.03475 18.814L8.26238 18.8274C8.29213 18.8274 8.30701 18.8423 8.30701 18.872V18.9033C8.30701 19.1651 8.22369 19.3764 8.05707 19.5371C7.89341 19.6948 7.67471 19.7736 7.40096 19.7736ZM11.5186 16.6449C11.5335 16.624 11.5513 16.6136 11.5722 16.6136H11.8043C11.834 16.6136 11.8489 16.6285 11.8489 16.6582V19.6933C11.8489 19.723 11.834 19.7379 11.8043 19.7379H11.5766C11.5469 19.7379 11.532 19.723 11.532 19.6933V17.2653C11.532 17.2563 11.529 17.2504 11.5231 17.2474C11.5171 17.2444 11.5127 17.2474 11.5097 17.2563L10.9161 18.2873C10.9012 18.3082 10.8833 18.3186 10.8625 18.3186H10.8134C10.7926 18.3186 10.7747 18.3082 10.7599 18.2873L10.1618 17.2608C10.1588 17.2519 10.1543 17.2489 10.1484 17.2519C10.1424 17.2548 10.1395 17.2608 10.1395 17.2697V19.6933C10.1395 19.723 10.1246 19.7379 10.0948 19.7379H9.8672C9.83744 19.7379 9.82257 19.723 9.82257 19.6933V16.6582C9.82257 16.6285 9.83744 16.6136 9.8672 16.6136H10.0993C10.1201 16.6136 10.138 16.624 10.1528 16.6449L10.8268 17.7919C10.8298 17.7949 10.8342 17.7964 10.8402 17.7964C10.8461 17.7964 10.8506 17.7949 10.8536 17.7919L11.5186 16.6449ZM12.6307 19.7379C12.6009 19.7379 12.5861 19.723 12.5861 19.6933V16.6582C12.5861 16.6285 12.6009 16.6136 12.6307 16.6136H12.8583C12.8881 16.6136 12.903 16.6285 12.903 16.6582V19.6933C12.903 19.723 12.8881 19.7379 12.8583 19.7379H12.6307ZM15.1984 16.6582C15.1984 16.6285 15.2133 16.6136 15.2431 16.6136H15.4707C15.5004 16.6136 15.5153 16.6285 15.5153 16.6582V19.6933C15.5153 19.723 15.5004 19.7379 15.4707 19.7379H15.2297C15.2029 19.7379 15.185 19.7275 15.1761 19.7067L13.98 17.3188C13.974 17.3129 13.9681 17.3099 13.9621 17.3099C13.9591 17.3099 13.9576 17.3143 13.9576 17.3233L13.9621 19.6933C13.9621 19.723 13.9472 19.7379 13.9175 19.7379H13.6898C13.6601 19.7379 13.6452 19.723 13.6452 19.6933V16.6582C13.6452 16.6285 13.6601 16.6136 13.6898 16.6136H13.9309C13.9576 16.6136 13.9755 16.624 13.9844 16.6449L15.1806 19.0416C15.1865 19.0476 15.191 19.0506 15.194 19.0506C15.1999 19.0506 15.2029 19.0461 15.2029 19.0372L15.1984 16.6582ZM17.8807 16.6136C17.9104 16.6136 17.9253 16.6285 17.9253 16.6582V16.8457C17.9253 16.8755 17.9104 16.8903 17.8807 16.8903H17.1532C17.1413 16.8903 17.1353 16.8963 17.1353 16.9082V19.6933C17.1353 19.723 17.1204 19.7379 17.0907 19.7379H16.8631C16.8333 19.7379 16.8184 19.723 16.8184 19.6933V16.9082C16.8184 16.8963 16.8125 16.8903 16.8006 16.8903H16.0998C16.0701 16.8903 16.0552 16.8755 16.0552 16.8457V16.6582C16.0552 16.6285 16.0701 16.6136 16.0998 16.6136H17.8807ZM19.1986 18.6132C19.1689 18.6132 19.154 18.5983 19.154 18.5685V18.3811C19.154 18.3513 19.1689 18.3364 19.1986 18.3364H21.64C21.6698 18.3364 21.6847 18.3513 21.6847 18.3811V18.5685C21.6847 18.5983 21.6698 18.6132 21.64 18.6132H19.1986ZM2.35074 23.2963C2.38943 23.4361 2.40877 23.5968 2.40877 23.7783C2.40877 23.93 2.39538 24.061 2.3686 24.1711C2.32396 24.3645 2.2347 24.5132 2.1008 24.6174C1.96988 24.7215 1.80474 24.7736 1.60538 24.7736C1.40304 24.7736 1.23493 24.72 1.10103 24.6129C0.967132 24.5058 0.879354 24.3555 0.837697 24.1621C0.822819 24.1086 0.813893 24.0535 0.810917 23.997V23.9881C0.810917 23.9643 0.824307 23.9524 0.851087 23.9524H1.08318C1.10996 23.9524 1.12483 23.9643 1.12781 23.9881V24.0059L1.14566 24.0952C1.17244 24.2231 1.22451 24.3213 1.30188 24.3898C1.38222 24.4582 1.48338 24.4924 1.60538 24.4924C1.7244 24.4924 1.82259 24.4582 1.89995 24.3898C1.98029 24.3184 2.03385 24.2187 2.06063 24.0907C2.08146 24.0074 2.09187 23.9048 2.09187 23.7828C2.09187 23.6697 2.07997 23.5536 2.05617 23.4346C2.02939 23.3156 1.97732 23.2263 1.89995 23.1668C1.82259 23.1043 1.7244 23.0731 1.60538 23.0731C1.49231 23.0731 1.39412 23.0999 1.3108 23.1534C1.23046 23.204 1.17393 23.2784 1.1412 23.3766L1.13227 23.3945C1.1293 23.4153 1.11442 23.4257 1.08764 23.4257H0.851087C0.821332 23.4257 0.806454 23.4108 0.806454 23.3811V21.6582C0.806454 21.6285 0.821332 21.6136 0.851087 21.6136H2.26594C2.2957 21.6136 2.31057 21.6285 2.31057 21.6582V21.8457C2.31057 21.8755 2.2957 21.8903 2.26594 21.8903H1.1412C1.1293 21.8903 1.12335 21.8963 1.12335 21.9082V23.0017C1.12335 23.0076 1.12483 23.0121 1.12781 23.0151C1.13376 23.0151 1.13971 23.0121 1.14566 23.0062C1.20517 22.9407 1.27956 22.8901 1.36883 22.8544C1.46107 22.8157 1.55926 22.7964 1.6634 22.7964C1.83896 22.7964 1.98476 22.8395 2.1008 22.9258C2.21982 23.0091 2.30314 23.1326 2.35074 23.2963ZM3.60464 22.841C3.4886 22.841 3.38148 22.8127 3.28329 22.7562C3.18807 22.6997 3.1122 22.6238 3.05566 22.5286C2.99913 22.4304 2.97086 22.3233 2.97086 22.2072C2.97086 22.0912 2.99913 21.9856 3.05566 21.8903C3.1122 21.7921 3.18807 21.7148 3.28329 21.6582C3.38148 21.6017 3.4886 21.5734 3.60464 21.5734C3.71771 21.5734 3.82186 21.6017 3.91707 21.6582C4.01526 21.7148 4.09263 21.7921 4.14916 21.8903C4.2057 21.9856 4.23396 22.0912 4.23396 22.2072C4.23396 22.3233 4.2057 22.4304 4.14916 22.5286C4.09263 22.6238 4.01526 22.6997 3.91707 22.7562C3.82186 22.8127 3.71771 22.841 3.60464 22.841ZM3.50199 24.7379C3.48711 24.7379 3.47521 24.7334 3.46628 24.7245C3.46033 24.7126 3.46182 24.6992 3.47075 24.6843L5.13108 21.6449C5.14001 21.624 5.15786 21.6136 5.18464 21.6136H5.32746C5.34234 21.6136 5.35276 21.6196 5.35871 21.6315C5.36763 21.6404 5.36763 21.6523 5.35871 21.6672L3.69837 24.7067C3.68945 24.7275 3.67159 24.7379 3.64481 24.7379H3.50199ZM3.60464 22.6446C3.72366 22.6446 3.82334 22.603 3.90368 22.5197C3.987 22.4334 4.02865 22.3292 4.02865 22.2072C4.02865 22.0852 3.987 21.9826 3.90368 21.8993C3.82334 21.813 3.72366 21.7698 3.60464 21.7698C3.48562 21.7698 3.38446 21.813 3.30114 21.8993C3.21783 21.9826 3.17617 22.0852 3.17617 22.2072C3.17617 22.3292 3.21783 22.4334 3.30114 22.5197C3.38446 22.603 3.48562 22.6446 3.60464 22.6446ZM5.24266 24.7781C5.12662 24.7781 5.0195 24.7498 4.92131 24.6933C4.82609 24.6367 4.75021 24.5594 4.69368 24.4612C4.63715 24.363 4.60888 24.2559 4.60888 24.1398C4.60888 24.0268 4.63715 23.9226 4.69368 23.8274C4.75021 23.7292 4.82609 23.6518 4.92131 23.5953C5.0195 23.5388 5.12662 23.5105 5.24266 23.5105C5.35573 23.5105 5.45987 23.5388 5.55509 23.5953C5.65328 23.6518 5.73065 23.7292 5.78718 23.8274C5.84372 23.9226 5.87198 24.0268 5.87198 24.1398C5.87198 24.2559 5.84372 24.363 5.78718 24.4612C5.73065 24.5594 5.65328 24.6367 5.55509 24.6933C5.45987 24.7498 5.35573 24.7781 5.24266 24.7781ZM5.24266 24.5817C5.36168 24.5817 5.46136 24.5385 5.5417 24.4523C5.62502 24.366 5.66667 24.2618 5.66667 24.1398C5.66667 24.0178 5.62502 23.9152 5.5417 23.8319C5.46136 23.7485 5.36168 23.7069 5.24266 23.7069C5.12364 23.7069 5.02247 23.7485 4.93916 23.8319C4.85585 23.9152 4.81419 24.0178 4.81419 24.1398C4.81419 24.2648 4.85436 24.3704 4.9347 24.4567C5.01801 24.54 5.12067 24.5817 5.24266 24.5817Z" fill="#404040"/>
<path d="M57.3948 47.3675C57.1151 47.3675 56.892 47.2946 56.7253 47.1488C56.5617 47 56.4799 46.8021 56.4799 46.5552V46.4347C56.4799 46.4049 56.4947 46.39 56.5245 46.39H56.7432C56.7729 46.39 56.7878 46.4049 56.7878 46.4347V46.5373C56.7878 46.7039 56.8444 46.8378 56.9574 46.939C57.0705 47.0402 57.2208 47.0908 57.4082 47.0908C57.5838 47.0908 57.7221 47.0431 57.8233 46.9479C57.9245 46.8527 57.975 46.7277 57.975 46.573C57.975 46.4718 57.9512 46.3841 57.9036 46.3097C57.856 46.2353 57.7861 46.1669 57.6939 46.1044C57.6016 46.0419 57.4692 45.963 57.2966 45.8678C57.1122 45.7696 56.9664 45.6833 56.8592 45.609C56.7551 45.5346 56.6703 45.4438 56.6048 45.3367C56.5394 45.2296 56.5066 45.0987 56.5066 44.9439C56.5066 44.7029 56.584 44.514 56.7387 44.3771C56.8935 44.2402 57.1002 44.1718 57.3591 44.1718C57.6358 44.1718 57.856 44.2477 58.0197 44.3994C58.1833 44.5512 58.2652 44.752 58.2652 45.0019V45.1046C58.2652 45.1344 58.2503 45.1492 58.2205 45.1492H57.9974C57.9676 45.1492 57.9527 45.1344 57.9527 45.1046V45.0064C57.9527 44.8398 57.8992 44.7059 57.7921 44.6047C57.6849 44.5006 57.5376 44.4485 57.3502 44.4485C57.1836 44.4485 57.0526 44.4916 56.9574 44.5779C56.8652 44.6642 56.8191 44.7862 56.8191 44.9439C56.8191 45.0451 56.8414 45.1299 56.886 45.1983C56.9306 45.2668 56.9946 45.3293 57.0779 45.3858C57.1642 45.4423 57.2951 45.5182 57.4707 45.6134C57.673 45.7265 57.8278 45.8232 57.9349 45.9035C58.045 45.9809 58.1313 46.0716 58.1937 46.1758C58.2592 46.277 58.2919 46.4019 58.2919 46.5507C58.2919 46.8006 58.2116 47 58.0509 47.1488C57.8902 47.2946 57.6715 47.3675 57.3948 47.3675ZM60.5637 44.2387C60.5786 44.2179 60.5965 44.2075 60.6173 44.2075H60.8494C60.8791 44.2075 60.894 44.2224 60.894 44.2521V47.2871C60.894 47.3169 60.8791 47.3318 60.8494 47.3318H60.6218C60.592 47.3318 60.5771 47.3169 60.5771 47.2871V44.8591C60.5771 44.8502 60.5742 44.8442 60.5682 44.8413C60.5623 44.8383 60.5578 44.8413 60.5548 44.8502L59.9612 45.8812C59.9463 45.902 59.9285 45.9125 59.9076 45.9125H59.8585C59.8377 45.9125 59.8199 45.902 59.805 45.8812L59.2069 44.8547C59.2039 44.8457 59.1995 44.8428 59.1935 44.8457C59.1876 44.8487 59.1846 44.8547 59.1846 44.8636V47.2871C59.1846 47.3169 59.1697 47.3318 59.14 47.3318H58.9123C58.8826 47.3318 58.8677 47.3169 58.8677 47.2871V44.2521C58.8677 44.2224 58.8826 44.2075 58.9123 44.2075H59.1444C59.1653 44.2075 59.1831 44.2179 59.198 44.2387L59.8719 45.3858C59.8749 45.3888 59.8794 45.3903 59.8853 45.3903C59.8913 45.3903 59.8957 45.3888 59.8987 45.3858L60.5637 44.2387ZM63.1442 47.3318C63.1175 47.3318 63.1011 47.3184 63.0951 47.2916L62.9479 46.7337C62.9449 46.7248 62.9374 46.7203 62.9255 46.7203H61.8588C61.8469 46.7203 61.8395 46.7248 61.8365 46.7337L61.6892 47.2916C61.6833 47.3184 61.6669 47.3318 61.6401 47.3318H61.408C61.3932 47.3318 61.3813 47.3273 61.3723 47.3184C61.3664 47.3095 61.3649 47.2976 61.3679 47.2827L62.2025 44.2477C62.2084 44.2209 62.2248 44.2075 62.2516 44.2075H62.5372C62.564 44.2075 62.5804 44.2209 62.5863 44.2477L63.421 47.2827L63.4254 47.2961C63.4254 47.3199 63.4106 47.3318 63.3808 47.3318H63.1442ZM61.9124 46.4436C61.9094 46.4466 61.9094 46.451 61.9124 46.457C61.9183 46.4599 61.9243 46.4614 61.9302 46.4614H62.8541C62.8601 46.4614 62.8645 46.4599 62.8675 46.457C62.8735 46.451 62.875 46.4466 62.872 46.4436L62.3989 44.6493C62.3959 44.6434 62.3929 44.6404 62.39 44.6404C62.387 44.6404 62.384 44.6434 62.381 44.6493L61.9124 46.4436ZM63.9423 47.3318C63.9126 47.3318 63.8977 47.3169 63.8977 47.2871V44.2521C63.8977 44.2224 63.9126 44.2075 63.9423 44.2075H64.17C64.1997 44.2075 64.2146 44.2224 64.2146 44.2521V47.0372C64.2146 47.0491 64.2205 47.055 64.2324 47.055H65.5313C65.561 47.055 65.5759 47.0699 65.5759 47.0997V47.2871C65.5759 47.3169 65.561 47.3318 65.5313 47.3318H63.9423ZM66.0955 47.3318C66.0658 47.3318 66.0509 47.3169 66.0509 47.2871V44.2521C66.0509 44.2224 66.0658 44.2075 66.0955 44.2075H66.3231C66.3529 44.2075 66.3678 44.2224 66.3678 44.2521V47.0372C66.3678 47.0491 66.3737 47.055 66.3856 47.055H67.6844C67.7142 47.055 67.7291 47.0699 67.7291 47.0997V47.2871C67.7291 47.3169 67.7142 47.3318 67.6844 47.3318H66.0955ZM69.5564 45.7027C69.5415 45.7086 69.5415 45.7161 69.5564 45.725C69.6963 45.7934 69.8034 45.8916 69.8778 46.0196C69.9551 46.1475 69.9953 46.3022 69.9983 46.4838C69.9983 46.7515 69.9179 46.9598 69.7573 47.1086C69.5996 47.2574 69.3898 47.3318 69.1279 47.3318H68.2487C68.2189 47.3318 68.2041 47.3169 68.2041 47.2871V44.2521C68.2041 44.2224 68.2189 44.2075 68.2487 44.2075H69.0922C69.366 44.2075 69.5802 44.2789 69.735 44.4217C69.8897 44.5616 69.967 44.7624 69.967 45.0243C69.967 45.1909 69.9313 45.3307 69.8599 45.4438C69.7915 45.5569 69.6903 45.6432 69.5564 45.7027ZM68.5388 44.4842C68.5269 44.4842 68.5209 44.4902 68.5209 44.5021V45.5777C68.5209 45.5896 68.5269 45.5956 68.5388 45.5956H69.0967C69.2693 45.5956 69.4047 45.5465 69.5029 45.4483C69.604 45.3501 69.6546 45.2177 69.6546 45.051C69.6546 44.8755 69.604 44.7371 69.5029 44.636C69.4047 44.5348 69.2693 44.4842 69.0967 44.4842H68.5388ZM69.119 47.0506C69.2916 47.0506 69.4285 46.997 69.5296 46.8899C69.6308 46.7828 69.6814 46.637 69.6814 46.4525C69.6814 46.2651 69.6293 46.1178 69.5252 46.0106C69.424 45.9035 69.2857 45.85 69.1101 45.85H68.5388C68.5269 45.85 68.5209 45.8559 68.5209 45.8678V47.0327C68.5209 47.0446 68.5269 47.0506 68.5388 47.0506H69.119ZM72.3066 44.4396C72.3066 44.4693 72.2917 44.4842 72.262 44.4842H70.923C70.9111 44.4842 70.9051 44.4902 70.9051 44.5021V45.609C70.9051 45.6209 70.9111 45.6268 70.923 45.6268H71.8246C71.8543 45.6268 71.8692 45.6417 71.8692 45.6714V45.8589C71.8692 45.8886 71.8543 45.9035 71.8246 45.9035H70.923C70.9111 45.9035 70.9051 45.9095 70.9051 45.9214V47.0372C70.9051 47.0491 70.9111 47.055 70.923 47.055H72.262C72.2917 47.055 72.3066 47.0699 72.3066 47.0997V47.2871C72.3066 47.3169 72.2917 47.3318 72.262 47.3318H70.6329C70.6031 47.3318 70.5882 47.3169 70.5882 47.2871V44.2521C70.5882 44.2224 70.6031 44.2075 70.6329 44.2075H72.262C72.2917 44.2075 72.3066 44.2224 72.3066 44.2521V44.4396ZM74.4249 47.3318C74.4011 47.3318 74.3847 47.3199 74.3758 47.2961L73.8223 45.9169C73.8194 45.908 73.8134 45.9035 73.8045 45.9035H73.2287C73.2168 45.9035 73.2109 45.9095 73.2109 45.9214V47.2871C73.2109 47.3169 73.196 47.3318 73.1662 47.3318H72.9386C72.9088 47.3318 72.894 47.3169 72.894 47.2871V44.2521C72.894 44.2224 72.9088 44.2075 72.9386 44.2075H73.8848C74.0395 44.2075 74.1764 44.2432 74.2954 44.3146C74.4174 44.386 74.5112 44.4872 74.5766 44.6181C74.6451 44.749 74.6793 44.8993 74.6793 45.0689C74.6793 45.2712 74.6302 45.4438 74.532 45.5866C74.4338 45.7295 74.2999 45.8247 74.1303 45.8723C74.1184 45.8782 74.1154 45.8857 74.1214 45.8946L74.6971 47.2782L74.7016 47.2961C74.7016 47.3199 74.6882 47.3318 74.6614 47.3318H74.4249ZM73.2287 44.4842C73.2168 44.4842 73.2109 44.4902 73.2109 44.5021V45.6313C73.2109 45.6432 73.2168 45.6491 73.2287 45.6491H73.8446C73.9994 45.6491 74.1243 45.5956 74.2196 45.4884C74.3148 45.3813 74.3624 45.2415 74.3624 45.0689C74.3624 44.8933 74.3148 44.752 74.2196 44.6449C74.1243 44.5378 73.9994 44.4842 73.8446 44.4842H73.2287ZM76.7829 47.3318C76.7591 47.3318 76.7427 47.3199 76.7338 47.2961L76.1804 45.9169C76.1774 45.908 76.1714 45.9035 76.1625 45.9035H75.5867C75.5748 45.9035 75.5689 45.9095 75.5689 45.9214V47.2871C75.5689 47.3169 75.554 47.3318 75.5243 47.3318H75.2966C75.2669 47.3318 75.252 47.3169 75.252 47.2871V44.2521C75.252 44.2224 75.2669 44.2075 75.2966 44.2075H76.2428C76.3976 44.2075 76.5344 44.2432 76.6535 44.3146C76.7755 44.386 76.8692 44.4872 76.9347 44.6181C77.0031 44.749 77.0373 44.8993 77.0373 45.0689C77.0373 45.2712 76.9882 45.4438 76.89 45.5866C76.7918 45.7295 76.6579 45.8247 76.4883 45.8723C76.4764 45.8782 76.4735 45.8857 76.4794 45.8946L77.0552 47.2782L77.0596 47.2961C77.0596 47.3199 77.0462 47.3318 77.0195 47.3318H76.7829ZM75.5867 44.4842C75.5748 44.4842 75.5689 44.4902 75.5689 44.5021V45.6313C75.5689 45.6432 75.5748 45.6491 75.5867 45.6491H76.2027C76.3574 45.6491 76.4824 45.5956 76.5776 45.4884C76.6728 45.3813 76.7204 45.2415 76.7204 45.0689C76.7204 44.8933 76.6728 44.752 76.5776 44.6449C76.4824 44.5378 76.3574 44.4842 76.2027 44.4842H75.5867ZM78.1781 47.3273C78.1484 47.3273 78.1335 47.3124 78.1335 47.2827V45.9526C78.1335 45.9407 78.132 45.9333 78.129 45.9303L77.3569 44.261L77.3524 44.2432C77.3524 44.2194 77.3658 44.2075 77.3926 44.2075H77.6336C77.6574 44.2075 77.6738 44.2194 77.6827 44.2432L78.2808 45.5777C78.2838 45.5837 78.2882 45.5866 78.2942 45.5866C78.3001 45.5866 78.3046 45.5837 78.3076 45.5777L78.9056 44.2432C78.9146 44.2194 78.9309 44.2075 78.9547 44.2075H79.1958C79.2106 44.2075 79.221 44.2134 79.227 44.2253C79.2359 44.2343 79.2374 44.2462 79.2315 44.261L78.4549 45.9303C78.4519 45.9333 78.4504 45.9407 78.4504 45.9526V47.2827C78.4504 47.3124 78.4355 47.3273 78.4058 47.3273H78.1781ZM80.5003 46.207C80.4706 46.207 80.4557 46.1922 80.4557 46.1624V45.9749C80.4557 45.9452 80.4706 45.9303 80.5003 45.9303H82.9417C82.9715 45.9303 82.9864 45.9452 82.9864 45.9749V46.1624C82.9864 46.1922 82.9715 46.207 82.9417 46.207H80.5003ZM58.0777 50.9214C58.1194 51.0374 58.1402 51.1892 58.1402 51.3766C58.1402 51.5373 58.1253 51.6667 58.0956 51.7649C58.0509 51.9583 57.9646 52.1071 57.8367 52.2113C57.7087 52.3154 57.5436 52.3675 57.3413 52.3675C57.1508 52.3675 56.9916 52.3199 56.8637 52.2247C56.7387 52.1265 56.6509 51.9896 56.6004 51.814C56.5557 51.6831 56.5334 51.5388 56.5334 51.3811V49.9529C56.5334 49.7148 56.6063 49.5259 56.7521 49.386C56.9009 49.2432 57.0928 49.1718 57.3279 49.1718C57.551 49.1718 57.7325 49.2417 57.8724 49.3816C58.0122 49.5214 58.0822 49.7059 58.0822 49.935V50.0019C58.0822 50.0317 58.0673 50.0466 58.0375 50.0466H57.8099C57.7802 50.0466 57.7653 50.0317 57.7653 50.0019V49.9529C57.7653 49.8041 57.7236 49.6836 57.6403 49.5913C57.557 49.4991 57.4514 49.453 57.3234 49.453C57.1865 49.453 57.0735 49.5006 56.9842 49.5958C56.8949 49.688 56.8503 49.813 56.8503 49.9707V50.6268C56.8503 50.6357 56.8518 50.6417 56.8548 50.6447C56.8607 50.6447 56.8667 50.6417 56.8726 50.6357C56.9827 50.4691 57.1508 50.3858 57.377 50.3858C57.5585 50.3858 57.7073 50.4319 57.8233 50.5241C57.9423 50.6164 58.0271 50.7488 58.0777 50.9214ZM57.7921 51.6846C57.8129 51.5864 57.8233 51.4808 57.8233 51.3677C57.8233 51.2249 57.8084 51.1044 57.7787 51.0062C57.7489 50.8931 57.6954 50.8053 57.618 50.7428C57.5436 50.6804 57.4484 50.6491 57.3323 50.6491C57.2193 50.6491 57.1241 50.6819 57.0467 50.7473C56.9723 50.8128 56.9202 50.902 56.8905 51.0151C56.8637 51.1133 56.8503 51.2323 56.8503 51.3722C56.8503 51.4793 56.8607 51.5879 56.8815 51.698C56.9083 51.82 56.9604 51.9152 57.0378 51.9836C57.1181 52.0521 57.2178 52.0863 57.3368 52.0863C57.4528 52.0863 57.5496 52.0521 57.6269 51.9836C57.7073 51.9152 57.7623 51.8155 57.7921 51.6846ZM59.452 52.3764C59.1961 52.3764 58.9908 52.299 58.8361 52.1443C58.6813 51.9896 58.604 51.7828 58.604 51.5239V50.0153C58.604 49.7594 58.6813 49.5541 58.8361 49.3994C58.9908 49.2447 59.1961 49.1673 59.452 49.1673C59.7109 49.1673 59.9177 49.2447 60.0724 49.3994C60.2301 49.5541 60.309 49.7594 60.309 50.0153V51.5239C60.309 51.7828 60.2301 51.9896 60.0724 52.1443C59.9177 52.299 59.7109 52.3764 59.452 52.3764ZM59.452 52.0997C59.6157 52.0997 59.7466 52.0491 59.8448 51.9479C59.943 51.8468 59.9921 51.7129 59.9921 51.5462V49.9975C59.9921 49.8309 59.943 49.697 59.8448 49.5958C59.7466 49.4946 59.6157 49.444 59.452 49.444C59.2943 49.444 59.1664 49.4946 59.0682 49.5958C58.97 49.697 58.9209 49.8309 58.9209 49.9975V51.5462C58.9209 51.7099 58.97 51.8438 59.0682 51.9479C59.1664 52.0491 59.2943 52.0997 59.452 52.0997ZM61.585 50.4349C61.469 50.4349 61.3619 50.4066 61.2637 50.3501C61.1685 50.2935 61.0926 50.2177 61.036 50.1225C60.9795 50.0243 60.9512 49.9171 60.9512 49.8011C60.9512 49.6851 60.9795 49.5794 61.036 49.4842C61.0926 49.386 61.1685 49.3087 61.2637 49.2521C61.3619 49.1956 61.469 49.1673 61.585 49.1673C61.6981 49.1673 61.8022 49.1956 61.8975 49.2521C61.9956 49.3087 62.073 49.386 62.1295 49.4842C62.1861 49.5794 62.2143 49.6851 62.2143 49.8011C62.2143 49.9171 62.1861 50.0243 62.1295 50.1225C62.073 50.2177 61.9956 50.2935 61.8975 50.3501C61.8022 50.4066 61.6981 50.4349 61.585 50.4349ZM61.4824 52.3318C61.4675 52.3318 61.4556 52.3273 61.4467 52.3184C61.4407 52.3065 61.4422 52.2931 61.4511 52.2782L63.1115 49.2387C63.1204 49.2179 63.1382 49.2075 63.165 49.2075H63.3078C63.3227 49.2075 63.3331 49.2134 63.3391 49.2253C63.348 49.2343 63.348 49.2462 63.3391 49.261L61.6788 52.3005C61.6698 52.3214 61.652 52.3318 61.6252 52.3318H61.4824ZM61.585 50.2385C61.704 50.2385 61.8037 50.1968 61.8841 50.1135C61.9674 50.0272 62.009 49.9231 62.009 49.8011C62.009 49.6791 61.9674 49.5764 61.8841 49.4931C61.8037 49.4068 61.704 49.3637 61.585 49.3637C61.466 49.3637 61.3648 49.4068 61.2815 49.4931C61.1982 49.5764 61.1566 49.6791 61.1566 49.8011C61.1566 49.9231 61.1982 50.0272 61.2815 50.1135C61.3648 50.1968 61.466 50.2385 61.585 50.2385ZM63.223 52.3719C63.107 52.3719 62.9999 52.3437 62.9017 52.2871C62.8065 52.2306 62.7306 52.1532 62.6741 52.055C62.6175 51.9569 62.5893 51.8497 62.5893 51.7337C62.5893 51.6206 62.6175 51.5165 62.6741 51.4213C62.7306 51.3231 62.8065 51.2457 62.9017 51.1892C62.9999 51.1326 63.107 51.1044 63.223 51.1044C63.3361 51.1044 63.4403 51.1326 63.5355 51.1892C63.6337 51.2457 63.711 51.3231 63.7676 51.4213C63.8241 51.5165 63.8524 51.6206 63.8524 51.7337C63.8524 51.8497 63.8241 51.9569 63.7676 52.055C63.711 52.1532 63.6337 52.2306 63.5355 52.2871C63.4403 52.3437 63.3361 52.3719 63.223 52.3719ZM63.223 52.1756C63.3421 52.1756 63.4417 52.1324 63.5221 52.0461C63.6054 51.9598 63.6471 51.8557 63.6471 51.7337C63.6471 51.6117 63.6054 51.509 63.5221 51.4257C63.4417 51.3424 63.3421 51.3008 63.223 51.3008C63.104 51.3008 63.0029 51.3424 62.9195 51.4257C62.8362 51.509 62.7946 51.6117 62.7946 51.7337C62.7946 51.8587 62.8347 51.9643 62.9151 52.0506C62.9984 52.1339 63.1011 52.1756 63.223 52.1756Z" fill="#404040"/>
<path d="M34.7662 31.3461L34.7303 31.3428C34.5268 31.3213 34.3352 31.3067 34.3352 31.1501C34.3352 30.9574 34.6106 30.9213 34.7662 30.9213C34.9473 30.9226 35.1263 30.9598 35.293 31.0309L35.3169 31.0429L35.4247 30.79L35.4007 30.7813C35.2 30.6954 34.9843 30.6504 34.7662 30.6488C34.3352 30.6488 34.0479 30.8536 34.0479 31.1426C34.0479 31.516 34.419 31.5642 34.7183 31.5883H34.7423C35.0056 31.6124 35.1852 31.6474 35.1852 31.8171C35.1852 31.9496 35.0056 32.0339 34.7303 32.0339C34.5272 32.0359 34.3264 31.9905 34.1437 31.9014L34.1197 31.8913L34 32.1442L34.0239 32.1563C34.2427 32.2682 34.4849 32.326 34.7303 32.3249C35.1613 32.3249 35.4726 32.1202 35.4726 31.819C35.4726 31.3975 35.0176 31.3493 34.7542 31.3252M37.4839 31.249C37.4839 31.3257 37.4536 31.3992 37.3997 31.4534C37.3458 31.5076 37.2727 31.5381 37.1965 31.5381H36.7536V30.9606H37.1965C37.2738 30.9638 37.3469 30.9969 37.4005 31.053C37.454 31.1091 37.4839 31.1839 37.4839 31.2618M37.1965 30.6836H36.6338C36.5957 30.6836 36.5592 30.6989 36.5323 30.726C36.5053 30.7531 36.4902 30.7898 36.4902 30.8282V32.3096H36.7655V31.8399H37.2085C37.2834 31.8415 37.3579 31.828 37.4275 31.8003C37.4972 31.7726 37.5606 31.7311 37.6141 31.6784C37.6677 31.6257 37.7102 31.5627 37.7392 31.4933C37.7682 31.4238 37.7832 31.3492 37.7832 31.2738C37.7832 31.1205 37.7226 30.9734 37.6148 30.865C37.5071 30.7566 37.3609 30.6957 37.2085 30.6957M38.6451 30.8282V32.1651C38.6451 32.2034 38.6603 32.2402 38.6872 32.2673C38.7142 32.2944 38.7507 32.3096 38.7888 32.3096H39.8902V32.0326H38.9205V31.6351H39.8304V31.3581H38.9205V30.9606H39.8902V30.6836H38.7888C38.7507 30.6836 38.7142 30.6989 38.6872 30.726C38.6603 30.7531 38.6451 30.7898 38.6451 30.8282ZM41.9973 31.8278C41.948 31.8998 41.8817 31.9583 41.8044 31.9982C41.7271 32.0382 41.6412 32.0582 41.5543 32.0567C41.4072 32.0535 41.2671 31.9925 41.1642 31.8867C41.0612 31.7809 41.0036 31.6387 41.0036 31.4906C41.0036 31.3437 41.0617 31.2027 41.1649 31.0988C41.2682 30.9949 41.4083 30.9366 41.5543 30.9366C41.635 30.937 41.7145 30.9556 41.787 30.991C41.8595 31.0265 41.9232 31.0778 41.9734 31.1413L41.9853 31.1534L42.1889 30.9727L42.1769 30.9561C42.0666 30.8288 41.9204 30.7384 41.7577 30.6968C41.5951 30.6553 41.4237 30.6645 41.2664 30.7234C41.1091 30.7822 40.9733 30.8879 40.8772 31.0263C40.7811 31.1647 40.7291 31.3292 40.7283 31.4981C40.7283 31.7196 40.8149 31.9322 40.9695 32.09C41.1241 32.2478 41.3342 32.338 41.5543 32.3412C41.6849 32.3441 41.8143 32.315 41.9311 32.2562C42.048 32.1974 42.1488 32.1108 42.2248 32.0039L42.2367 31.9866L42.0213 31.818L41.9973 31.8278ZM42.967 30.9606H43.5178V32.3096H43.7931V30.9606H44.3438V30.6836H42.967V30.9606ZM46.2713 31.2377C46.2714 31.2719 46.2645 31.3058 46.2511 31.3373C46.2377 31.3688 46.2181 31.3973 46.1935 31.4209C46.1689 31.4446 46.1397 31.4629 46.1078 31.4749C46.0759 31.4869 46.0419 31.4922 46.0079 31.4906H45.4931V30.9606H46.0079C46.0436 30.9606 46.0788 30.9678 46.1116 30.9819C46.1443 30.996 46.1739 31.0166 46.1985 31.0425C46.2232 31.0684 46.2423 31.099 46.2548 31.1326C46.2673 31.1661 46.2729 31.2019 46.2713 31.2377ZM46.5467 31.2377C46.5483 31.1655 46.5355 31.0937 46.5092 31.0266C46.4828 30.9594 46.4434 30.8982 46.3932 30.8466C46.343 30.795 46.2831 30.754 46.2169 30.726C46.1507 30.698 46.0797 30.6836 46.0079 30.6836H45.3734C45.3353 30.6836 45.2988 30.6989 45.2718 30.726C45.2449 30.7531 45.2298 30.7898 45.2298 30.8282V32.3096H45.5051V31.7556H45.8762L46.2593 32.3096H46.5826L46.1755 31.7315C46.282 31.7004 46.3756 31.6355 46.4425 31.5465C46.5094 31.4575 46.5459 31.3492 46.5467 31.2377ZM48.6657 31.611C48.6657 31.726 48.6203 31.8363 48.5395 31.9176C48.4587 31.999 48.349 32.0446 48.2347 32.0446C48.1204 32.0446 48.0108 31.999 47.93 31.9176C47.8491 31.8363 47.8037 31.726 47.8037 31.611V30.6836H47.5284V31.611C47.5284 31.7995 47.6028 31.9803 47.7353 32.1135C47.8677 32.2468 48.0474 32.3217 48.2347 32.3217C48.4221 32.3217 48.6017 32.2468 48.7342 32.1135C48.8667 31.9803 48.9411 31.7995 48.9411 31.611V30.6836H48.6657V31.611ZM51.3834 30.6595C51.3615 30.6604 51.3401 30.6662 51.3208 30.6767C51.3015 30.6871 51.2848 30.7018 51.272 30.7198L50.7333 31.4906L50.1945 30.7198C50.1807 30.7042 50.1637 30.6919 50.1447 30.6835C50.1257 30.6752 50.1051 30.6711 50.0844 30.6716C50.0463 30.6716 50.0098 30.6868 49.9828 30.7139C49.9559 30.741 49.9407 30.7778 49.9407 30.8161V32.3096H50.2161V31.1895L50.7309 31.9362L51.2457 31.1895V32.2976H51.521V30.8041C51.521 30.7657 51.5059 30.729 51.479 30.7019C51.452 30.6748 51.4155 30.6595 51.3774 30.6595M38.262 33.7068H38.6332V34.574H38.8247V33.7068H39.1959V33.5261H38.262V33.7068ZM40.4529 34.044C40.4529 34.143 40.4138 34.238 40.3442 34.308C40.2746 34.378 40.1802 34.4174 40.0818 34.4174C39.9834 34.4174 39.889 34.378 39.8194 34.308C39.7498 34.238 39.7107 34.143 39.7107 34.044C39.7091 33.9976 39.7168 33.9513 39.7332 33.9078C39.7496 33.8644 39.7745 33.8247 39.8064 33.7911C39.8781 33.7197 39.9749 33.6797 40.0758 33.6797C40.1767 33.6797 40.2734 33.7197 40.3452 33.7911C40.3779 33.8243 40.4037 33.8638 40.421 33.9073C40.4382 33.9507 40.4467 33.9972 40.4457 34.044H40.4529ZM40.0818 33.502C40.009 33.4988 39.9364 33.5104 39.8683 33.5361C39.8001 33.5619 39.7379 33.6013 39.6853 33.652C39.6327 33.7026 39.5908 33.7635 39.5623 33.8309C39.5337 33.8982 39.519 33.9708 39.5191 34.044C39.5143 34.1569 39.5432 34.2686 39.6021 34.3648C39.6609 34.461 39.747 34.5373 39.8493 34.5839C39.9516 34.6304 40.0655 34.6451 40.1761 34.6261C40.2868 34.607 40.3893 34.5551 40.4704 34.477C40.5515 34.3989 40.6075 34.2981 40.6313 34.1877C40.655 34.0773 40.6453 33.9622 40.6035 33.8574C40.5617 33.7525 40.4897 33.6627 40.3967 33.5993C40.3038 33.536 40.1941 33.5021 40.0818 33.502ZM41.6022 34.3933H41.2191V34.1404H41.6022C41.6352 34.1402 41.667 34.1525 41.6914 34.1748C41.7157 34.1971 41.7309 34.2278 41.7339 34.2608C41.7339 34.2959 41.72 34.3296 41.6954 34.3545C41.6707 34.3793 41.6372 34.3933 41.6022 34.3933ZM41.2191 33.7068H41.5663C41.586 33.7006 41.6069 33.6991 41.6273 33.7026C41.6477 33.706 41.6669 33.7142 41.6836 33.7265C41.7002 33.7388 41.7138 33.7549 41.7231 33.7734C41.7324 33.792 41.7373 33.8124 41.7373 33.8332C41.7373 33.854 41.7324 33.8745 41.7231 33.893C41.7138 33.9116 41.7002 33.9277 41.6836 33.94C41.6669 33.9523 41.6477 33.9605 41.6273 33.9639C41.6069 33.9673 41.586 33.9659 41.5663 33.9597H41.2191V33.7068ZM41.7938 34.032C41.8241 34.0074 41.8483 33.9762 41.8646 33.9407C41.8808 33.9051 41.8887 33.8663 41.8875 33.8272C41.8844 33.7445 41.8489 33.6664 41.7887 33.61C41.7285 33.5535 41.6485 33.5234 41.5663 33.5261H41.1353C41.1225 33.5256 41.1096 33.5278 41.0976 33.5324C41.0856 33.537 41.0746 33.5441 41.0653 33.5531C41.0561 33.562 41.0487 33.5728 41.0437 33.5848C41.0387 33.5967 41.0361 33.6095 41.0361 33.6224V34.4776C41.0361 34.4906 41.0387 34.5034 41.0437 34.5153C41.0487 34.5272 41.0561 34.538 41.0653 34.547C41.0746 34.556 41.0856 34.563 41.0976 34.5676C41.1096 34.5723 41.1225 34.5744 41.1353 34.574H41.6022C41.6441 34.5756 41.6859 34.5687 41.725 34.5537C41.7642 34.5387 41.7999 34.5158 41.8301 34.4866C41.8603 34.4574 41.8843 34.4223 41.9007 34.3835C41.9171 34.3447 41.9255 34.303 41.9255 34.2608C41.9266 34.2141 41.915 34.1681 41.8917 34.1277C41.8685 34.0873 41.8346 34.0542 41.7938 34.032ZM42.6558 34.1524L42.7994 33.8392L42.9311 34.1524H42.6558ZM42.7994 33.5141C42.7812 33.515 42.7636 33.5212 42.7488 33.5319C42.734 33.5425 42.7224 33.5572 42.7156 33.5743L42.2727 34.586H42.4762L42.5839 34.3331H43.003L43.1107 34.574V34.586H43.3142L42.8713 33.5743C42.8644 33.5572 42.8529 33.5425 42.8381 33.5319C42.8232 33.5212 42.8057 33.515 42.7875 33.5141M44.4635 34.2608C44.4143 34.3177 44.3496 34.3588 44.2774 34.3791C44.2052 34.3993 44.1287 34.3978 44.0573 34.3747C43.9859 34.3517 43.9228 34.308 43.8759 34.2492C43.8289 34.1904 43.8001 34.1191 43.7931 34.044C43.7931 33.9955 43.8028 33.9475 43.8215 33.9029C43.8403 33.8582 43.8679 33.8179 43.9025 33.7841C43.9371 33.7504 43.9782 33.7241 44.0231 33.7066C44.0681 33.6892 44.1161 33.6811 44.1642 33.6827C44.2189 33.6821 44.273 33.6937 44.3226 33.7166C44.3723 33.7395 44.4163 33.7732 44.4516 33.8152L44.4635 33.8272L44.6072 33.7068L44.5952 33.6947C44.5429 33.6347 44.4784 33.5865 44.4062 33.5532C44.334 33.52 44.2556 33.5026 44.1762 33.502C44.1035 33.4988 44.0308 33.5104 43.9627 33.5361C43.8945 33.5619 43.8323 33.6013 43.7797 33.652C43.7271 33.7026 43.6853 33.7635 43.6567 33.8309C43.6281 33.8982 43.6135 33.9708 43.6135 34.044C43.6183 34.1598 43.6582 34.2713 43.7279 34.3635C43.7977 34.4557 43.8939 34.5242 44.0036 34.5597C44.1132 34.5951 44.231 34.5959 44.3411 34.5618C44.4512 34.5277 44.5483 34.4605 44.6192 34.3692L44.6311 34.3572L44.4875 34.2367L44.4635 34.2608ZM45.7565 34.2608C45.7073 34.3177 45.6426 34.3588 45.5704 34.3791C45.4982 34.3993 45.4216 34.3978 45.3503 34.3747C45.2789 34.3517 45.2158 34.308 45.1689 34.2492C45.1219 34.1904 45.0931 34.1191 45.0861 34.044C45.0861 33.9955 45.0957 33.9475 45.1145 33.9029C45.1333 33.8582 45.1608 33.8179 45.1955 33.7841C45.2301 33.7504 45.2711 33.7241 45.3161 33.7066C45.3611 33.6892 45.4091 33.6811 45.4572 33.6827C45.5119 33.6821 45.5659 33.6937 45.6156 33.7166C45.6653 33.7395 45.7093 33.7732 45.7445 33.8152L45.7565 33.8272L45.9002 33.7068L45.8882 33.6947C45.8358 33.6347 45.7714 33.5865 45.6992 33.5532C45.627 33.52 45.5486 33.5026 45.4692 33.502C45.3965 33.4988 45.3238 33.5104 45.2557 33.5361C45.1875 33.5619 45.1253 33.6013 45.0727 33.652C45.0201 33.7026 44.9782 33.7635 44.9497 33.8309C44.9211 33.8982 44.9064 33.9708 44.9065 34.044C44.9112 34.1598 44.9512 34.2713 45.0209 34.3635C45.0907 34.4557 45.1869 34.5242 45.2965 34.5597C45.4062 34.5951 45.524 34.5959 45.6341 34.5618C45.7442 34.5277 45.8413 34.4605 45.9122 34.3692L45.9241 34.3572L45.7685 34.2488L45.7565 34.2608ZM47.0974 34.044C47.0974 34.143 47.0583 34.238 46.9887 34.308C46.9191 34.378 46.8247 34.4174 46.7263 34.4174C46.6278 34.4174 46.5334 34.378 46.4638 34.308C46.3942 34.238 46.3551 34.143 46.3551 34.044C46.3536 33.9976 46.3612 33.9513 46.3777 33.9078C46.3941 33.8644 46.419 33.8247 46.4509 33.7911C46.5226 33.7197 46.6194 33.6797 46.7203 33.6797C46.8211 33.6797 46.9179 33.7197 46.9896 33.7911C47.0224 33.8243 47.0482 33.8638 47.0654 33.9073C47.0827 33.9507 47.0911 33.9972 47.0902 34.044H47.0974ZM46.7263 33.502C46.6535 33.4988 46.5809 33.5104 46.5127 33.5361C46.4446 33.5619 46.3823 33.6013 46.3297 33.652C46.2771 33.7026 46.2353 33.7635 46.2067 33.8309C46.1782 33.8982 46.1635 33.9708 46.1636 34.044C46.1588 34.1569 46.1877 34.2686 46.2465 34.3648C46.3054 34.461 46.3915 34.5373 46.4938 34.5839C46.5961 34.6304 46.7099 34.6451 46.8206 34.6261C46.9313 34.607 47.0338 34.5551 47.1149 34.477C47.196 34.3989 47.252 34.2981 47.2757 34.1877C47.2994 34.0773 47.2898 33.9622 47.248 33.8574C47.2062 33.7525 47.1342 33.6627 47.0412 33.5993C46.9482 33.536 46.8385 33.5021 46.7263 33.502Z" fill="black"/>
<path d="M40.1541 28.6474L43.0633 28.1415L41.052 26.648L40.1541 28.6474Z" fill="#0065A7"/>
<path d="M41.0639 26.5999L43.0632 28.0573L44.4639 26.7685L41.0639 26.5999Z" fill="#0678AC"/>
<path d="M44.5239 26.6247L45.4218 24.2399L42.2253 24.8903L44.5239 26.6247Z" fill="#2EB56A"/>
<path d="M42.3809 24.7939L45.5774 24.1676L43.3147 23.6497L42.3809 24.7939Z" fill="#A5CE40"/>
<path d="M43.2907 23.5654L45.5654 24.1074L45.7569 21L43.2907 23.5654Z" fill="#F5E431"/>
<path d="M39.5674 26.1183L40.1181 28.5994L41.004 26.588L39.5674 26.1183Z" fill="#9072B3"/>
<path d="M42.0932 24.9745L39.627 26.0705L40.9798 26.5282L42.0932 24.9745Z" fill="#9360A8"/>
<path d="M40.3692 23.8902L39.627 25.9618L42.2009 24.8538L40.3692 23.8902Z" fill="#DF599C"/>
<path d="M40.4651 23.8304L42.2011 23.7099L43.2187 23.5895L42.4884 22.3248L40.4651 23.8304Z" fill="#F89A29"/>
<path d="M42.5004 22.2044L43.2427 23.4932L45.697 21L42.5004 22.2044Z" fill="#FCBC1B"/>
<path d="M40.4651 23.8785L42.2969 24.7939L43.2427 23.6497L40.4651 23.8785Z" fill="#F16165"/>
<path d="M42.1653 24.9745L41.0639 26.5523L44.4639 26.733L42.1653 24.9745Z" fill="#1DA6BA"/>
</svg>
