<svg width="85" height="57" viewBox="0 0 85 57" fill="none" xmlns="http://www.w3.org/2000/svg">
<path d="M63.7233 27.79C63.9233 33.422 61.8397 38.9014 57.9307 43.0229C54.0217 47.1444 48.6077 49.5703 42.8795 49.767C37.1514 49.9637 31.5784 47.915 27.3865 44.0716C23.1947 40.2283 20.7274 34.9051 20.5273 29.2731L28.0866 29.0136C28.2166 32.6744 29.8204 36.1344 32.5451 38.6326C35.2698 41.1308 38.8923 42.4624 42.6156 42.3346C46.3388 42.2067 49.858 40.6299 52.3988 37.9509C54.9396 35.272 56.294 31.7103 56.164 28.0495L63.7233 27.79Z" fill="#FFFBDA"/>
<path d="M21.3513 22.6747C22.7697 17.8114 25.9064 13.6052 30.1973 10.8128C34.4882 8.0204 39.6517 6.82497 44.7591 7.44155C49.8664 8.05812 54.5824 10.4462 58.0587 14.1763C61.5351 17.9065 63.5437 22.7338 63.7233 27.79L56.164 28.0495C56.0473 24.763 54.7417 21.6252 52.482 19.2007C50.2224 16.7761 47.157 15.2238 43.8372 14.823C40.5175 14.4223 37.1612 15.1993 34.3721 17.0144C31.583 18.8294 29.5442 21.5634 28.6222 24.7246L21.3513 22.6747Z" fill="#319900"/>
<path d="M20.5273 29.2731C20.4482 27.0447 20.7263 24.818 21.3513 22.6747L28.6222 24.7246C28.2159 26.1178 28.0352 27.5651 28.0866 29.0136L20.5273 29.2731Z" fill="#69D200"/>
<path d="M56.3522 13.8268L58.8973 10.6094H69.4412" stroke="black" stroke-width="0.145684"/>
<path d="M63.8354 8.69305C63.5706 8.69305 63.3579 8.61569 63.1972 8.46096C63.0395 8.30624 62.9606 8.10242 62.9606 7.8495V7.49244C62.9606 7.46268 62.9755 7.4478 63.0053 7.4478H63.2329C63.2627 7.4478 63.2775 7.46268 63.2775 7.49244V7.85396C63.2775 8.02356 63.3281 8.16044 63.4293 8.26458C63.5305 8.36575 63.6658 8.41633 63.8354 8.41633C64.0021 8.41633 64.1375 8.36426 64.2416 8.26012C64.3457 8.15598 64.3978 8.02059 64.3978 7.85396V5.57769C64.3978 5.54794 64.4127 5.53306 64.4425 5.53306H64.6656C64.6954 5.53306 64.7102 5.54794 64.7102 5.57769V7.8495C64.7102 8.10242 64.6299 8.30624 64.4692 8.46096C64.3086 8.61569 64.0973 8.69305 63.8354 8.69305ZM66.9336 8.65735C66.9068 8.65735 66.8904 8.64396 66.8845 8.61718L66.7372 8.05927C66.7342 8.05034 66.7268 8.04588 66.7149 8.04588H65.6482C65.6363 8.04588 65.6288 8.05034 65.6258 8.05927L65.4786 8.61718C65.4726 8.64396 65.4562 8.65735 65.4295 8.65735H65.1974C65.1825 8.65735 65.1706 8.65289 65.1617 8.64396C65.1557 8.63503 65.1542 8.62313 65.1572 8.60825L65.9918 5.57323C65.9978 5.54645 66.0142 5.53306 66.0409 5.53306H66.3266C66.3534 5.53306 66.3697 5.54645 66.3757 5.57323L67.2103 8.60825L67.2148 8.62164C67.2148 8.64545 67.1999 8.65735 67.1701 8.65735H66.9336ZM65.7017 7.76916C65.6987 7.77213 65.6987 7.7766 65.7017 7.78255C65.7077 7.78552 65.7136 7.78701 65.7196 7.78701H66.6435C66.6494 7.78701 66.6539 7.78552 66.6569 7.78255C66.6628 7.7766 66.6643 7.77213 66.6613 7.76916L66.1882 5.97493C66.1852 5.96897 66.1823 5.966 66.1793 5.966C66.1763 5.966 66.1733 5.96897 66.1704 5.97493L65.7017 7.76916ZM68.3149 8.69305C68.0352 8.69305 67.8121 8.62015 67.6454 8.47435C67.4818 8.32558 67.4 8.12771 67.4 7.88074V7.76023C67.4 7.73048 67.4148 7.7156 67.4446 7.7156H67.6633C67.693 7.7156 67.7079 7.73048 67.7079 7.76023V7.86289C67.7079 8.02952 67.7645 8.16341 67.8775 8.26458C67.9906 8.36575 68.1409 8.41633 68.3283 8.41633C68.5039 8.41633 68.6422 8.36872 68.7434 8.27351C68.8446 8.17829 68.8952 8.05332 68.8952 7.89859C68.8952 7.79743 68.8714 7.70965 68.8237 7.63526C68.7761 7.56087 68.7062 7.49244 68.614 7.42995C68.5217 7.36746 68.3893 7.28861 68.2167 7.1934C68.0323 7.09521 67.8865 7.00892 67.7793 6.93453C67.6752 6.86014 67.5904 6.76939 67.5249 6.66227C67.4595 6.55515 67.4267 6.42423 67.4267 6.2695C67.4267 6.02848 67.5041 5.83954 67.6588 5.70267C67.8136 5.56579 68.0204 5.49736 68.2792 5.49736C68.5559 5.49736 68.7761 5.57323 68.9398 5.72498C69.1034 5.87673 69.1853 6.07758 69.1853 6.32752V6.43018C69.1853 6.45993 69.1704 6.47481 69.1406 6.47481H68.9175C68.8877 6.47481 68.8728 6.45993 68.8728 6.43018V6.33199C68.8728 6.16536 68.8193 6.03146 68.7122 5.93029C68.605 5.82615 68.4578 5.77408 68.2703 5.77408C68.1037 5.77408 67.9727 5.81722 67.8775 5.90351C67.7853 5.9898 67.7392 6.1118 67.7392 6.2695C67.7392 6.37067 67.7615 6.45547 67.8061 6.52391C67.8508 6.59234 67.9147 6.65483 67.998 6.71136C68.0843 6.7679 68.2153 6.84377 68.3908 6.93899C68.5931 7.05206 68.7479 7.14876 68.855 7.2291C68.9651 7.30647 69.0514 7.39722 69.1139 7.50136C69.1793 7.60253 69.212 7.7275 69.212 7.87628C69.212 8.12622 69.1317 8.32558 68.971 8.47435C68.8104 8.62015 68.5917 8.69305 68.3149 8.69305ZM71.4838 5.5643C71.4987 5.54348 71.5166 5.53306 71.5374 5.53306H71.7695C71.7993 5.53306 71.8141 5.54794 71.8141 5.57769V8.61272C71.8141 8.64247 71.7993 8.65735 71.7695 8.65735H71.5419C71.5121 8.65735 71.4972 8.64247 71.4972 8.61272V6.1847C71.4972 6.17577 71.4943 6.16982 71.4883 6.16685C71.4824 6.16387 71.4779 6.16685 71.4749 6.17577L70.8813 7.20679C70.8664 7.22762 70.8486 7.23803 70.8277 7.23803H70.7787C70.7578 7.23803 70.74 7.22762 70.7251 7.20679L70.127 6.18024C70.124 6.17131 70.1196 6.16833 70.1136 6.17131C70.1077 6.17428 70.1047 6.18024 70.1047 6.18916V8.61272C70.1047 8.64247 70.0898 8.65735 70.0601 8.65735H69.8324C69.8027 8.65735 69.7878 8.64247 69.7878 8.61272V5.57769C69.7878 5.54794 69.8027 5.53306 69.8324 5.53306H70.0645C70.0854 5.53306 70.1032 5.54348 70.1181 5.5643L70.792 6.71136C70.795 6.71434 70.7995 6.71583 70.8054 6.71583C70.8114 6.71583 70.8158 6.71434 70.8188 6.71136L71.4838 5.5643ZM72.5959 8.65735C72.5662 8.65735 72.5513 8.64247 72.5513 8.61272V5.57769C72.5513 5.54794 72.5662 5.53306 72.5959 5.53306H72.8236C72.8533 5.53306 72.8682 5.54794 72.8682 5.57769V8.61272C72.8682 8.64247 72.8533 8.65735 72.8236 8.65735H72.5959ZM75.1637 5.57769C75.1637 5.54794 75.1786 5.53306 75.2083 5.53306H75.4359C75.4657 5.53306 75.4806 5.54794 75.4806 5.57769V8.61272C75.4806 8.64247 75.4657 8.65735 75.4359 8.65735H75.1949C75.1681 8.65735 75.1503 8.64693 75.1414 8.62611L73.9452 6.23826C73.9393 6.23231 73.9333 6.22933 73.9273 6.22933C73.9244 6.22933 73.9229 6.23379 73.9229 6.24272L73.9273 8.61272C73.9273 8.64247 73.9125 8.65735 73.8827 8.65735H73.6551C73.6253 8.65735 73.6105 8.64247 73.6105 8.61272V5.57769C73.6105 5.54794 73.6253 5.53306 73.6551 5.53306H73.8961C73.9229 5.53306 73.9407 5.54348 73.9497 5.5643L75.1458 7.96108C75.1518 7.96703 75.1562 7.97001 75.1592 7.97001C75.1652 7.97001 75.1681 7.96554 75.1681 7.95662L75.1637 5.57769ZM77.9091 5.76515C77.9091 5.79491 77.8943 5.80978 77.8645 5.80978H76.5255C76.5136 5.80978 76.5077 5.81574 76.5077 5.82764V6.93453C76.5077 6.94643 76.5136 6.95238 76.5255 6.95238H77.4271C77.4569 6.95238 77.4717 6.96726 77.4717 6.99701V7.18447C77.4717 7.21423 77.4569 7.2291 77.4271 7.2291H76.5255C76.5136 7.2291 76.5077 7.23505 76.5077 7.24696V8.36277C76.5077 8.37468 76.5136 8.38063 76.5255 8.38063H77.8645C77.8943 8.38063 77.9091 8.3955 77.9091 8.42526V8.61272C77.9091 8.64247 77.8943 8.65735 77.8645 8.65735H76.2354C76.2057 8.65735 76.1908 8.64247 76.1908 8.61272V5.57769C76.1908 5.54794 76.2057 5.53306 76.2354 5.53306H77.8645C77.8943 5.53306 77.9091 5.54794 77.9091 5.57769V5.76515ZM64.8397 10.5331C64.8694 10.5331 64.8843 10.5479 64.8843 10.5777V10.7652C64.8843 10.7949 64.8694 10.8098 64.8397 10.8098H64.1122C64.1003 10.8098 64.0943 10.8157 64.0943 10.8276V13.6127C64.0943 13.6425 64.0794 13.6573 64.0497 13.6573H63.8221C63.7923 13.6573 63.7774 13.6425 63.7774 13.6127V10.8276C63.7774 10.8157 63.7715 10.8098 63.7596 10.8098H63.0588C63.0291 10.8098 63.0142 10.7949 63.0142 10.7652V10.5777C63.0142 10.5479 63.0291 10.5331 63.0588 10.5331H64.8397ZM67.1476 10.7652C67.1476 10.7949 67.1327 10.8098 67.103 10.8098H65.764C65.7521 10.8098 65.7461 10.8157 65.7461 10.8276V11.9345C65.7461 11.9464 65.7521 11.9524 65.764 11.9524H66.6656C66.6953 11.9524 66.7102 11.9673 66.7102 11.997V12.1845C66.7102 12.2142 66.6953 12.2291 66.6656 12.2291H65.764C65.7521 12.2291 65.7461 12.2351 65.7461 12.247V13.3628C65.7461 13.3747 65.7521 13.3806 65.764 13.3806H67.103C67.1327 13.3806 67.1476 13.3955 67.1476 13.4253V13.6127C67.1476 13.6425 67.1327 13.6573 67.103 13.6573H65.4739C65.4441 13.6573 65.4293 13.6425 65.4293 13.6127V10.5777C65.4293 10.5479 65.4441 10.5331 65.4739 10.5331H67.103C67.1327 10.5331 67.1476 10.5479 67.1476 10.5777V10.7652ZM69.3003 13.6573C69.2736 13.6573 69.2572 13.644 69.2512 13.6172L69.104 13.0593C69.101 13.0503 69.0935 13.0459 69.0816 13.0459H68.0149C68.003 13.0459 67.9956 13.0503 67.9926 13.0593L67.8453 13.6172C67.8394 13.644 67.823 13.6573 67.7962 13.6573H67.5641C67.5492 13.6573 67.5373 13.6529 67.5284 13.644C67.5225 13.635 67.521 13.6231 67.524 13.6083L68.3586 10.5732C68.3645 10.5465 68.3809 10.5331 68.4077 10.5331H68.6933C68.7201 10.5331 68.7365 10.5465 68.7424 10.5732L69.5771 13.6083L69.5815 13.6216C69.5815 13.6454 69.5666 13.6573 69.5369 13.6573H69.3003ZM68.0685 12.7692C68.0655 12.7721 68.0655 12.7766 68.0685 12.7825C68.0744 12.7855 68.0804 12.787 68.0863 12.787H69.0102C69.0162 12.787 69.0206 12.7855 69.0236 12.7825C69.0296 12.7766 69.0311 12.7721 69.0281 12.7692L68.555 10.9749C68.552 10.969 68.549 10.966 68.546 10.966C68.5431 10.966 68.5401 10.969 68.5371 10.9749L68.0685 12.7692ZM72.505 12.5148C72.5348 12.5148 72.5496 12.5296 72.5496 12.5594V12.7558C72.5496 12.7855 72.5348 12.8004 72.505 12.8004H72.3399C72.328 12.8004 72.322 12.8064 72.322 12.8183V13.6127C72.322 13.6425 72.3071 13.6573 72.2774 13.6573H72.0497C72.02 13.6573 72.0051 13.6425 72.0051 13.6127V12.8183C72.0051 12.8064 71.9992 12.8004 71.9873 12.8004H70.7777C70.748 12.8004 70.7331 12.7855 70.7331 12.7558V12.5862C70.7331 12.5653 70.7361 12.5475 70.742 12.5326L71.5365 10.5688C71.5454 10.545 71.5618 10.5331 71.5856 10.5331H71.831C71.8459 10.5331 71.8563 10.539 71.8623 10.5509C71.8682 10.5598 71.8682 10.5717 71.8623 10.5866L71.1035 12.4924C71.1006 12.4984 71.1006 12.5043 71.1035 12.5103C71.1065 12.5133 71.111 12.5148 71.1169 12.5148H71.9873C71.9992 12.5148 72.0051 12.5088 72.0051 12.4969V11.7917C72.0051 11.7619 72.02 11.7471 72.0497 11.7471H72.2774C72.3071 11.7471 72.322 11.7619 72.322 11.7917V12.4969C72.322 12.5088 72.328 12.5148 72.3399 12.5148H72.505ZM74.542 12.2157C74.5807 12.3556 74.6 12.5162 74.6 12.6977C74.6 12.8495 74.5867 12.9804 74.5599 13.0905C74.5152 13.2839 74.426 13.4327 74.2921 13.5368C74.1612 13.641 73.996 13.6931 73.7967 13.6931C73.5943 13.6931 73.4262 13.6395 73.2923 13.5324C73.1584 13.4253 73.0706 13.275 73.029 13.0816C73.0141 13.028 73.0052 12.973 73.0022 12.9164V12.9075C73.0022 12.8837 73.0156 12.8718 73.0424 12.8718H73.2745C73.3012 12.8718 73.3161 12.8837 73.3191 12.9075V12.9254L73.3369 13.0146C73.3637 13.1426 73.4158 13.2408 73.4932 13.3092C73.5735 13.3777 73.6747 13.4119 73.7967 13.4119C73.9157 13.4119 74.0139 13.3777 74.0912 13.3092C74.1716 13.2378 74.2251 13.1381 74.2519 13.0102C74.2727 12.9269 74.2832 12.8242 74.2832 12.7022C74.2832 12.5891 74.2713 12.4731 74.2474 12.3541C74.2207 12.2351 74.1686 12.1458 74.0912 12.0863C74.0139 12.0238 73.9157 11.9926 73.7967 11.9926C73.6836 11.9926 73.5854 12.0193 73.5021 12.0729C73.4217 12.1235 73.3652 12.1979 73.3325 12.2961L73.3236 12.3139C73.3206 12.3347 73.3057 12.3451 73.2789 12.3451H73.0424C73.0126 12.3451 72.9977 12.3303 72.9977 12.3005V10.5777C72.9977 10.5479 73.0126 10.5331 73.0424 10.5331H74.4572C74.487 10.5331 74.5019 10.5479 74.5019 10.5777V10.7652C74.5019 10.7949 74.487 10.8098 74.4572 10.8098H73.3325C73.3206 10.8098 73.3146 10.8157 73.3146 10.8276V11.9211C73.3146 11.9271 73.3161 11.9316 73.3191 11.9345C73.325 11.9345 73.331 11.9316 73.3369 11.9256C73.3965 11.8601 73.4708 11.8096 73.5601 11.7739C73.6523 11.7352 73.7505 11.7158 73.8547 11.7158C74.0302 11.7158 74.176 11.759 74.2921 11.8453C74.4111 11.9286 74.4944 12.0521 74.542 12.2157ZM75.7959 11.7605C75.6799 11.7605 75.5728 11.7322 75.4746 11.6757C75.3794 11.6191 75.3035 11.5432 75.2469 11.448C75.1904 11.3498 75.1621 11.2427 75.1621 11.1267C75.1621 11.0106 75.1904 10.905 75.2469 10.8098C75.3035 10.7116 75.3794 10.6342 75.4746 10.5777C75.5728 10.5212 75.6799 10.4929 75.7959 10.4929C75.909 10.4929 76.0131 10.5212 76.1084 10.5777C76.2065 10.6342 76.2839 10.7116 76.3404 10.8098C76.397 10.905 76.4252 11.0106 76.4252 11.1267C76.4252 11.2427 76.397 11.3498 76.3404 11.448C76.2839 11.5432 76.2065 11.6191 76.1084 11.6757C76.0131 11.7322 75.909 11.7605 75.7959 11.7605ZM75.6933 13.6573C75.6784 13.6573 75.6665 13.6529 75.6576 13.644C75.6516 13.6321 75.6531 13.6187 75.662 13.6038L77.3224 10.5643C77.3313 10.5435 77.3491 10.5331 77.3759 10.5331H77.5187C77.5336 10.5331 77.544 10.539 77.55 10.5509C77.5589 10.5598 77.5589 10.5717 77.55 10.5866L75.8897 13.6261C75.8807 13.6469 75.8629 13.6573 75.8361 13.6573H75.6933ZM75.7959 11.5641C75.9149 11.5641 76.0146 11.5224 76.095 11.4391C76.1783 11.3528 76.2199 11.2487 76.2199 11.1267C76.2199 11.0047 76.1783 10.902 76.095 10.8187C76.0146 10.7324 75.9149 10.6893 75.7959 10.6893C75.6769 10.6893 75.5757 10.7324 75.4924 10.8187C75.4091 10.902 75.3674 11.0047 75.3674 11.1267C75.3674 11.2487 75.4091 11.3528 75.4924 11.4391C75.5757 11.5224 75.6769 11.5641 75.7959 11.5641ZM77.4339 13.6975C77.3179 13.6975 77.2108 13.6693 77.1126 13.6127C77.0174 13.5562 76.9415 13.4788 76.885 13.3806C76.8284 13.2824 76.8002 13.1753 76.8002 13.0593C76.8002 12.9462 76.8284 12.8421 76.885 12.7468C76.9415 12.6487 77.0174 12.5713 77.1126 12.5148C77.2108 12.4582 77.3179 12.43 77.4339 12.43C77.547 12.43 77.6512 12.4582 77.7464 12.5148C77.8446 12.5713 77.9219 12.6487 77.9785 12.7468C78.035 12.8421 78.0633 12.9462 78.0633 13.0593C78.0633 13.1753 78.035 13.2824 77.9785 13.3806C77.9219 13.4788 77.8446 13.5562 77.7464 13.6127C77.6512 13.6693 77.547 13.6975 77.4339 13.6975ZM77.4339 13.5011C77.553 13.5011 77.6526 13.458 77.733 13.3717C77.8163 13.2854 77.858 13.1813 77.858 13.0593C77.858 12.9373 77.8163 12.8346 77.733 12.7513C77.6526 12.668 77.553 12.6263 77.4339 12.6263C77.3149 12.6263 77.2138 12.668 77.1304 12.7513C77.0471 12.8346 77.0055 12.9373 77.0055 13.0593C77.0055 13.1842 77.0456 13.2899 77.126 13.3762C77.2093 13.4595 77.3119 13.5011 77.4339 13.5011Z" fill="#404040"/>
<path d="M21.881 25.263L19.339 21.9997H8.80792" stroke="black" stroke-width="0.145684"/>
<path d="M51.5394 46.5129L54.0814 49.7762H64.6125" stroke="black" stroke-width="0.145684"/>
<path d="M2.71402 17.6688C2.71402 17.6986 2.69914 17.7135 2.66939 17.7135H1.33041C1.31851 17.7135 1.31256 17.7194 1.31256 17.7313V18.8382C1.31256 18.8501 1.31851 18.8561 1.33041 18.8561H2.23199C2.26174 18.8561 2.27662 18.8709 2.27662 18.9007V19.0881C2.27662 19.1179 2.26174 19.1328 2.23199 19.1328H1.33041C1.31851 19.1328 1.31256 19.1387 1.31256 19.1506V20.2664C1.31256 20.2783 1.31851 20.2843 1.33041 20.2843H2.66939C2.69914 20.2843 2.71402 20.2992 2.71402 20.3289V20.5164C2.71402 20.5461 2.69914 20.561 2.66939 20.561H1.0403C1.01054 20.561 0.995665 20.5461 0.995665 20.5164V17.4814C0.995665 17.4516 1.01054 17.4367 1.0403 17.4367H2.66939C2.69914 17.4367 2.71402 17.4516 2.71402 17.4814V17.6688ZM4.28331 17.4323C4.52135 17.4323 4.71328 17.5126 4.85908 17.6733C5.00785 17.831 5.08224 18.0408 5.08224 18.3026C5.08224 18.5615 5.00785 18.7698 4.85908 18.9275C4.71328 19.0822 4.52135 19.1596 4.28331 19.1596H3.61829C3.60638 19.1596 3.60043 19.1655 3.60043 19.1774V20.5164C3.60043 20.5461 3.58556 20.561 3.5558 20.561H3.32817C3.29842 20.561 3.28354 20.5461 3.28354 20.5164V17.4769C3.28354 17.4471 3.29842 17.4323 3.32817 17.4323H4.28331ZM4.24314 18.8962C4.40085 18.8962 4.52731 18.8427 4.62252 18.7355C4.71774 18.6284 4.76535 18.4856 4.76535 18.3071C4.76535 18.1256 4.71774 17.9813 4.62252 17.8741C4.52731 17.764 4.40085 17.709 4.24314 17.709H3.61829C3.60638 17.709 3.60043 17.7149 3.60043 17.7268V18.8784C3.60043 18.8903 3.60638 18.8962 3.61829 18.8962H4.24314ZM5.65176 20.561C5.622 20.561 5.60713 20.5461 5.60713 20.5164V17.4814C5.60713 17.4516 5.622 17.4367 5.65176 17.4367H5.87938C5.90914 17.4367 5.92402 17.4516 5.92402 17.4814V20.5164C5.92402 20.5461 5.90914 20.561 5.87938 20.561H5.65176ZM7.48306 20.5967C7.21229 20.5967 6.99359 20.5164 6.82696 20.3557C6.6633 20.195 6.58148 19.9823 6.58148 19.7175V18.2758C6.58148 18.011 6.6633 17.7997 6.82696 17.642C6.99359 17.4814 7.21229 17.401 7.48306 17.401C7.7568 17.401 7.9755 17.4799 8.13916 17.6376C8.30579 17.7953 8.3891 18.0051 8.3891 18.2669V18.3071C8.3891 18.3368 8.37422 18.3517 8.34447 18.3517L8.11684 18.3606C8.08709 18.3606 8.07221 18.3472 8.07221 18.3205V18.258C8.07221 18.0854 8.01716 17.9455 7.90707 17.8384C7.79995 17.7313 7.65861 17.6777 7.48306 17.6777C7.3075 17.6777 7.16617 17.7313 7.05905 17.8384C6.95193 17.9426 6.89837 18.0824 6.89837 18.258V19.7398C6.89837 19.9153 6.95193 20.0567 7.05905 20.1638C7.16617 20.2679 7.3075 20.32 7.48306 20.32C7.65861 20.32 7.79995 20.2664 7.90707 20.1593C8.01716 20.0522 8.07221 19.9124 8.07221 19.7398V19.6773C8.07221 19.6505 8.08709 19.6371 8.11684 19.6371L8.34447 19.6505C8.37422 19.6505 8.3891 19.6654 8.3891 19.6951V19.7264C8.3891 19.9882 8.30579 20.1995 8.13916 20.3602C7.9755 20.5179 7.7568 20.5967 7.48306 20.5967ZM11.6007 17.468C11.6156 17.4471 11.6334 17.4367 11.6543 17.4367H11.8863C11.9161 17.4367 11.931 17.4516 11.931 17.4814V20.5164C11.931 20.5461 11.9161 20.561 11.8863 20.561H11.6587C11.629 20.561 11.6141 20.5461 11.6141 20.5164V18.0884C11.6141 18.0794 11.6111 18.0735 11.6052 18.0705C11.5992 18.0675 11.5947 18.0705 11.5918 18.0794L10.9982 19.1105C10.9833 19.1313 10.9654 19.1417 10.9446 19.1417H10.8955C10.8747 19.1417 10.8568 19.1313 10.8419 19.1105L10.2439 18.0839C10.2409 18.075 10.2364 18.072 10.2305 18.075C10.2245 18.078 10.2216 18.0839 10.2216 18.0928V20.5164C10.2216 20.5461 10.2067 20.561 10.1769 20.561H9.94929C9.91954 20.561 9.90466 20.5461 9.90466 20.5164V17.4814C9.90466 17.4516 9.91954 17.4367 9.94929 17.4367H10.1814C10.2022 17.4367 10.2201 17.4471 10.2349 17.468L10.9089 18.615C10.9119 18.618 10.9163 18.6195 10.9223 18.6195C10.9282 18.6195 10.9327 18.618 10.9357 18.615L11.6007 17.468ZM12.7128 20.561C12.683 20.561 12.6682 20.5461 12.6682 20.5164V17.4814C12.6682 17.4516 12.683 17.4367 12.7128 17.4367H12.9404C12.9702 17.4367 12.985 17.4516 12.985 17.4814V20.5164C12.985 20.5461 12.9702 20.561 12.9404 20.561H12.7128ZM15.2805 17.4814C15.2805 17.4516 15.2954 17.4367 15.3252 17.4367H15.5528C15.5825 17.4367 15.5974 17.4516 15.5974 17.4814V20.5164C15.5974 20.5461 15.5825 20.561 15.5528 20.561H15.3118C15.285 20.561 15.2671 20.5506 15.2582 20.5298L14.0621 18.1419C14.0561 18.136 14.0501 18.133 14.0442 18.133C14.0412 18.133 14.0397 18.1375 14.0397 18.1464L14.0442 20.5164C14.0442 20.5461 14.0293 20.561 13.9996 20.561H13.7719C13.7422 20.561 13.7273 20.5461 13.7273 20.5164V17.4814C13.7273 17.4516 13.7422 17.4367 13.7719 17.4367H14.013C14.0397 17.4367 14.0576 17.4471 14.0665 17.468L15.2627 19.8648C15.2686 19.8707 15.2731 19.8737 15.2761 19.8737C15.282 19.8737 15.285 19.8692 15.285 19.8603L15.2805 17.4814ZM17.9628 17.4367C17.9925 17.4367 18.0074 17.4516 18.0074 17.4814V17.6688C18.0074 17.6986 17.9925 17.7135 17.9628 17.7135H17.2353C17.2234 17.7135 17.2174 17.7194 17.2174 17.7313V20.5164C17.2174 20.5461 17.2025 20.561 17.1728 20.561H16.9451C16.9154 20.561 16.9005 20.5461 16.9005 20.5164V17.7313C16.9005 17.7194 16.8946 17.7135 16.8827 17.7135H16.1819C16.1522 17.7135 16.1373 17.6986 16.1373 17.6688V17.4814C16.1373 17.4516 16.1522 17.4367 16.1819 17.4367H17.9628ZM2.43284 24.1194C2.47152 24.2592 2.49086 24.4199 2.49086 24.6014C2.49086 24.7532 2.47747 24.8841 2.45069 24.9942C2.40606 25.1876 2.31679 25.3364 2.18289 25.4405C2.05197 25.5447 1.88683 25.5967 1.68747 25.5967C1.48514 25.5967 1.31702 25.5432 1.18312 25.436C1.04922 25.3289 0.961446 25.1787 0.919789 24.9853C0.904912 24.9317 0.895985 24.8767 0.89301 24.8201V24.8112C0.89301 24.7874 0.906399 24.7755 0.933179 24.7755H1.16527C1.19205 24.7755 1.20693 24.7874 1.2099 24.8112V24.829L1.22775 24.9183C1.25453 25.0463 1.30661 25.1444 1.38397 25.2129C1.46431 25.2813 1.56548 25.3155 1.68747 25.3155C1.80649 25.3155 1.90468 25.2813 1.98205 25.2129C2.06239 25.1415 2.11594 25.0418 2.14272 24.9138C2.16355 24.8305 2.17397 24.7279 2.17397 24.6059C2.17397 24.4928 2.16207 24.3768 2.13826 24.2577C2.11148 24.1387 2.05941 24.0495 1.98205 23.99C1.90468 23.9275 1.80649 23.8962 1.68747 23.8962C1.5744 23.8962 1.47621 23.923 1.3929 23.9766C1.31256 24.0271 1.25602 24.1015 1.22329 24.1997L1.21436 24.2176C1.21139 24.2384 1.19651 24.2488 1.16973 24.2488H0.933179C0.903424 24.2488 0.888546 24.2339 0.888546 24.2042V22.4814C0.888546 22.4516 0.903424 22.4367 0.933179 22.4367H2.34803C2.37779 22.4367 2.39267 22.4516 2.39267 22.4814V22.6688C2.39267 22.6986 2.37779 22.7135 2.34803 22.7135H1.22329C1.21139 22.7135 1.20544 22.7194 1.20544 22.7313V23.8248C1.20544 23.8308 1.20693 23.8352 1.2099 23.8382C1.21585 23.8382 1.2218 23.8352 1.22775 23.8293C1.28726 23.7638 1.36165 23.7132 1.45092 23.6775C1.54316 23.6388 1.64135 23.6195 1.74549 23.6195C1.92105 23.6195 2.06685 23.6626 2.18289 23.7489C2.30191 23.8322 2.38523 23.9557 2.43284 24.1194ZM3.68674 23.6641C3.57069 23.6641 3.46357 23.6359 3.36538 23.5793C3.27016 23.5228 3.19429 23.4469 3.13775 23.3517C3.08122 23.2535 3.05295 23.1464 3.05295 23.0303C3.05295 22.9143 3.08122 22.8087 3.13775 22.7135C3.19429 22.6153 3.27016 22.5379 3.36538 22.4814C3.46357 22.4248 3.57069 22.3966 3.68674 22.3966C3.7998 22.3966 3.90395 22.4248 3.99916 22.4814C4.09736 22.5379 4.17472 22.6153 4.23125 22.7135C4.28779 22.8087 4.31606 22.9143 4.31606 23.0303C4.31606 23.1464 4.28779 23.2535 4.23125 23.3517C4.17472 23.4469 4.09736 23.5228 3.99916 23.5793C3.90395 23.6359 3.7998 23.6641 3.68674 23.6641ZM3.58408 25.561C3.5692 25.561 3.5573 25.5566 3.54837 25.5476C3.54242 25.5357 3.54391 25.5223 3.55284 25.5075L5.21317 22.468C5.2221 22.4471 5.23995 22.4367 5.26673 22.4367H5.40956C5.42443 22.4367 5.43485 22.4427 5.4408 22.4546C5.44973 22.4635 5.44973 22.4754 5.4408 22.4903L3.78046 25.5298C3.77154 25.5506 3.75368 25.561 3.7269 25.561H3.58408ZM3.68674 23.4677C3.80576 23.4677 3.90544 23.4261 3.98577 23.3428C4.06909 23.2565 4.11075 23.1523 4.11075 23.0303C4.11075 22.9084 4.06909 22.8057 3.98577 22.7224C3.90544 22.6361 3.80576 22.5929 3.68674 22.5929C3.56771 22.5929 3.46655 22.6361 3.38323 22.7224C3.29992 22.8057 3.25826 22.9084 3.25826 23.0303C3.25826 23.1523 3.29992 23.2565 3.38323 23.3428C3.46655 23.4261 3.56771 23.4677 3.68674 23.4677ZM5.32475 25.6012C5.20871 25.6012 5.10159 25.5729 5.0034 25.5164C4.90818 25.4599 4.83231 25.3825 4.77577 25.2843C4.71924 25.1861 4.69097 25.079 4.69097 24.9629C4.69097 24.8499 4.71924 24.7457 4.77577 24.6505C4.83231 24.5523 4.90818 24.475 5.0034 24.4184C5.10159 24.3619 5.20871 24.3336 5.32475 24.3336C5.43782 24.3336 5.54197 24.3619 5.63718 24.4184C5.73537 24.475 5.81274 24.5523 5.86927 24.6505C5.92581 24.7457 5.95407 24.8499 5.95407 24.9629C5.95407 25.079 5.92581 25.1861 5.86927 25.2843C5.81274 25.3825 5.73537 25.4599 5.63718 25.5164C5.54197 25.5729 5.43782 25.6012 5.32475 25.6012ZM5.32475 25.4048C5.44377 25.4048 5.54345 25.3617 5.62379 25.2754C5.70711 25.1891 5.74876 25.0849 5.74876 24.9629C5.74876 24.8409 5.70711 24.7383 5.62379 24.655C5.54345 24.5717 5.44377 24.53 5.32475 24.53C5.20573 24.53 5.10457 24.5717 5.02125 24.655C4.93794 24.7383 4.89628 24.8409 4.89628 24.9629C4.89628 25.0879 4.93645 25.1935 5.01679 25.2798C5.1001 25.3631 5.20276 25.4048 5.32475 25.4048Z" fill="#404040"/>
<path d="M56.4573 48.1896C56.1865 48.1896 55.9678 48.1093 55.8012 47.9486C55.6376 47.7879 55.5557 47.5752 55.5557 47.3103V45.8687C55.5557 45.6039 55.6376 45.3926 55.8012 45.2349C55.9678 45.0742 56.1865 44.9939 56.4573 44.9939C56.7311 44.9939 56.9498 45.0728 57.1134 45.2305C57.28 45.3882 57.3634 45.5979 57.3634 45.8598V45.9C57.3634 45.9297 57.3485 45.9446 57.3187 45.9446L57.0911 45.9535C57.0613 45.9535 57.0465 45.9401 57.0465 45.9133V45.8509C57.0465 45.6783 56.9914 45.5384 56.8813 45.4313C56.7742 45.3242 56.6329 45.2706 56.4573 45.2706C56.2818 45.2706 56.1404 45.3242 56.0333 45.4313C55.9262 45.5355 55.8726 45.6753 55.8726 45.8509V47.3327C55.8726 47.5082 55.9262 47.6496 56.0333 47.7567C56.1404 47.8608 56.2818 47.9129 56.4573 47.9129C56.6329 47.9129 56.7742 47.8593 56.8813 47.7522C56.9914 47.6451 57.0465 47.5052 57.0465 47.3327V47.2702C57.0465 47.2434 57.0613 47.23 57.0911 47.23L57.3187 47.2434C57.3485 47.2434 57.3634 47.2583 57.3634 47.288V47.3193C57.3634 47.5811 57.28 47.7924 57.1134 47.9531C56.9498 48.1108 56.7311 48.1896 56.4573 48.1896ZM58.82 48.1896C58.6385 48.1896 58.4778 48.1524 58.338 48.078C58.2011 48.0007 58.094 47.8935 58.0166 47.7567C57.9422 47.6198 57.905 47.4621 57.905 47.2836V45.9044C57.905 45.7259 57.9422 45.5682 58.0166 45.4313C58.094 45.2915 58.2011 45.1843 58.338 45.11C58.4778 45.0326 58.6385 44.9939 58.82 44.9939C59.0015 44.9939 59.1607 45.0326 59.2976 45.11C59.4374 45.1843 59.546 45.2915 59.6234 45.4313C59.7008 45.5682 59.7394 45.7259 59.7394 45.9044V47.2836C59.7394 47.4621 59.7008 47.6198 59.6234 47.7567C59.546 47.8935 59.4374 48.0007 59.2976 48.078C59.1607 48.1524 59.0015 48.1896 58.82 48.1896ZM58.82 47.9129C59.0015 47.9129 59.1473 47.8563 59.2574 47.7433C59.3675 47.6302 59.4226 47.4814 59.4226 47.297V45.8955C59.4226 45.708 59.3675 45.5578 59.2574 45.4447C59.1473 45.3287 59.0015 45.2706 58.82 45.2706C58.6415 45.2706 58.4972 45.3287 58.3871 45.4447C58.277 45.5578 58.2219 45.708 58.2219 45.8955V47.297C58.2219 47.4814 58.277 47.6302 58.3871 47.7433C58.4972 47.8563 58.6415 47.9129 58.82 47.9129ZM61.226 48.1896C61.0445 48.1896 60.8838 48.1524 60.744 48.078C60.6071 48.0007 60.5 47.8935 60.4226 47.7567C60.3482 47.6198 60.311 47.4621 60.311 47.2836V45.9044C60.311 45.7259 60.3482 45.5682 60.4226 45.4313C60.5 45.2915 60.6071 45.1843 60.744 45.11C60.8838 45.0326 61.0445 44.9939 61.226 44.9939C61.4075 44.9939 61.5667 45.0326 61.7036 45.11C61.8434 45.1843 61.952 45.2915 62.0294 45.4313C62.1067 45.5682 62.1454 45.7259 62.1454 45.9044V47.2836C62.1454 47.4621 62.1067 47.6198 62.0294 47.7567C61.952 47.8935 61.8434 48.0007 61.7036 48.078C61.5667 48.1524 61.4075 48.1896 61.226 48.1896ZM61.226 47.9129C61.4075 47.9129 61.5533 47.8563 61.6634 47.7433C61.7735 47.6302 61.8285 47.4814 61.8285 47.297V45.8955C61.8285 45.708 61.7735 45.5578 61.6634 45.4447C61.5533 45.3287 61.4075 45.2706 61.226 45.2706C61.0475 45.2706 60.9032 45.3287 60.7931 45.4447C60.683 45.5578 60.6279 45.708 60.6279 45.8955V47.297C60.6279 47.4814 60.683 47.6302 60.7931 47.7433C60.9032 47.8563 61.0475 47.9129 61.226 47.9129ZM62.8464 48.1539C62.8167 48.1539 62.8018 48.139 62.8018 48.1093V45.0742C62.8018 45.0445 62.8167 45.0296 62.8464 45.0296H63.0741C63.1038 45.0296 63.1187 45.0445 63.1187 45.0742V46.5561C63.1187 46.562 63.1217 46.5665 63.1276 46.5694C63.1336 46.5694 63.138 46.5665 63.141 46.5605L64.2747 45.0564C64.2866 45.0385 64.3059 45.0296 64.3327 45.0296H64.5827C64.6005 45.0296 64.6124 45.0356 64.6184 45.0475C64.6243 45.0564 64.6213 45.0683 64.6094 45.0832L63.7168 46.3061C63.7138 46.315 63.7138 46.324 63.7168 46.3329L64.6898 48.1003C64.6957 48.1122 64.6987 48.1212 64.6987 48.1271C64.6987 48.145 64.6853 48.1539 64.6585 48.1539H64.3997C64.3729 48.1539 64.355 48.1435 64.3461 48.1227L63.4981 46.5828C63.4921 46.568 63.4847 46.568 63.4758 46.5828L63.1276 47.0247C63.1217 47.0306 63.1187 47.0381 63.1187 47.047V48.1093C63.1187 48.139 63.1038 48.1539 63.0741 48.1539H62.8464ZM65.2176 48.1539C65.1878 48.1539 65.1729 48.139 65.1729 48.1093V45.0742C65.1729 45.0445 65.1878 45.0296 65.2176 45.0296H65.4452C65.4749 45.0296 65.4898 45.0445 65.4898 45.0742V48.1093C65.4898 48.139 65.4749 48.1539 65.4452 48.1539H65.2176ZM67.9504 45.2617C67.9504 45.2915 67.9356 45.3063 67.9058 45.3063H66.5668C66.5549 45.3063 66.549 45.3123 66.549 45.3242V46.4311C66.549 46.443 66.5549 46.4489 66.5668 46.4489H67.4684C67.4982 46.4489 67.513 46.4638 67.513 46.4936V46.681C67.513 46.7108 67.4982 46.7257 67.4684 46.7257H66.5668C66.5549 46.7257 66.549 46.7316 66.549 46.7435V47.8593C66.549 47.8712 66.5549 47.8772 66.5668 47.8772H67.9058C67.9356 47.8772 67.9504 47.8921 67.9504 47.9218V48.1093C67.9504 48.139 67.9356 48.1539 67.9058 48.1539H66.2767C66.2469 48.1539 66.2321 48.139 66.2321 48.1093V45.0742C66.2321 45.0445 66.2469 45.0296 66.2767 45.0296H67.9058C67.9356 45.0296 67.9504 45.0445 67.9504 45.0742V45.2617ZM69.2921 48.1896C69.0124 48.1896 68.7892 48.1167 68.6226 47.9709C68.459 47.8221 68.3771 47.6243 68.3771 47.3773V47.2568C68.3771 47.227 68.392 47.2122 68.4218 47.2122H68.6405C68.6702 47.2122 68.6851 47.227 68.6851 47.2568V47.3594C68.6851 47.5261 68.7416 47.66 68.8547 47.7611C68.9678 47.8623 69.118 47.9129 69.3055 47.9129C69.481 47.9129 69.6194 47.8653 69.7206 47.7701C69.8217 47.6748 69.8723 47.5499 69.8723 47.3951C69.8723 47.294 69.8485 47.2062 69.8009 47.1318C69.7533 47.0574 69.6834 46.989 69.5911 46.9265C69.4989 46.864 69.3665 46.7852 69.1939 46.6899C69.0094 46.5918 68.8636 46.5055 68.7565 46.4311C68.6524 46.3567 68.5676 46.2659 68.5021 46.1588C68.4366 46.0517 68.4039 45.9208 68.4039 45.7661C68.4039 45.525 68.4813 45.3361 68.636 45.1992C68.7907 45.0623 68.9975 44.9939 69.2564 44.9939C69.5331 44.9939 69.7533 45.0698 69.917 45.2215C70.0806 45.3733 70.1624 45.5741 70.1624 45.8241V45.9267C70.1624 45.9565 70.1476 45.9714 70.1178 45.9714H69.8946C69.8649 45.9714 69.85 45.9565 69.85 45.9267V45.8285C69.85 45.6619 69.7964 45.528 69.6893 45.4268C69.5822 45.3227 69.4349 45.2706 69.2475 45.2706C69.0808 45.2706 68.9499 45.3138 68.8547 45.4001C68.7625 45.4864 68.7163 45.6084 68.7163 45.7661C68.7163 45.8672 68.7386 45.952 68.7833 46.0205C68.8279 46.0889 68.8919 46.1514 68.9752 46.2079C69.0615 46.2645 69.1924 46.3403 69.368 46.4355C69.5703 46.5486 69.725 46.6453 69.8322 46.7257C69.9422 46.803 70.0285 46.8938 70.091 46.9979C70.1565 47.0991 70.1892 47.2241 70.1892 47.3728C70.1892 47.6228 70.1089 47.8221 69.9482 47.9709C69.7875 48.1167 69.5688 48.1896 69.2921 48.1896ZM72.827 48.1003C72.833 48.1063 72.8359 48.1152 72.8359 48.1271C72.8359 48.145 72.824 48.1539 72.8002 48.1539H72.5458C72.522 48.1539 72.5027 48.145 72.4878 48.1271L72.2646 47.8415C72.2617 47.8355 72.2572 47.834 72.2512 47.837C72.2453 47.837 72.2408 47.8385 72.2379 47.8415C72.1129 47.9635 71.9849 48.0527 71.854 48.1093C71.7231 48.1628 71.5788 48.1896 71.4211 48.1896C71.1741 48.1896 70.9762 48.1271 70.8275 48.0021C70.6817 47.8772 70.6088 47.6972 70.6088 47.4621C70.6088 47.2598 70.6608 47.0857 70.765 46.9399C70.8721 46.7941 71.0209 46.6498 71.2113 46.507C71.2202 46.501 71.2202 46.4936 71.2113 46.4846C71.0476 46.2615 70.9405 46.0993 70.8899 45.9981C70.8423 45.894 70.8185 45.7869 70.8185 45.6768C70.8185 45.4745 70.8825 45.3108 71.0105 45.1858C71.1384 45.0579 71.3065 44.9939 71.5148 44.9939C71.7261 44.9939 71.8986 45.0564 72.0325 45.1814C72.1664 45.3063 72.2334 45.4715 72.2334 45.6768C72.2334 45.8583 72.1828 46.016 72.0816 46.1499C71.9805 46.2808 71.8376 46.4147 71.6532 46.5516C71.6442 46.5546 71.6427 46.562 71.6487 46.5739C71.6725 46.6066 71.7439 46.6989 71.8629 46.8506L72.037 47.0738L72.2557 47.3505C72.2646 47.3624 72.2736 47.3624 72.2825 47.3505C72.3539 47.2523 72.4372 47.1303 72.5324 46.9845C72.5473 46.9607 72.5666 46.9563 72.5904 46.9711L72.7601 47.0693C72.7839 47.0842 72.7898 47.105 72.7779 47.1318C72.6708 47.3044 72.5637 47.4576 72.4566 47.5915C72.4506 47.6005 72.4521 47.6094 72.461 47.6183L72.5458 47.7254C72.6976 47.9278 72.7913 48.0527 72.827 48.1003ZM71.5237 45.284C71.4077 45.284 71.314 45.3212 71.2425 45.3956C71.1711 45.47 71.1354 45.5697 71.1354 45.6946C71.1354 45.772 71.1548 45.8494 71.1934 45.9267C71.2321 46.0041 71.3169 46.132 71.4479 46.3106C71.4568 46.3195 71.4657 46.3195 71.4746 46.3106C71.6204 46.1975 71.7305 46.0934 71.8049 45.9981C71.8793 45.9029 71.9165 45.7958 71.9165 45.6768C71.9165 45.5578 71.8793 45.4626 71.8049 45.3911C71.7335 45.3197 71.6398 45.284 71.5237 45.284ZM71.4434 47.9173C71.5565 47.9173 71.6621 47.8935 71.7603 47.8459C71.8585 47.7954 71.9582 47.7195 72.0593 47.6183C72.0682 47.6094 72.0697 47.6005 72.0638 47.5915L71.8629 47.3237C71.8451 47.3029 71.8213 47.2717 71.7915 47.23C71.735 47.1556 71.6859 47.0931 71.6442 47.0425C71.6026 46.989 71.5684 46.9444 71.5416 46.9086L71.4166 46.748C71.4136 46.739 71.4062 46.7376 71.3943 46.7435C71.2425 46.8655 71.1265 46.9801 71.0462 47.0872C70.9658 47.1943 70.9257 47.3163 70.9257 47.4532C70.9257 47.596 70.9718 47.7091 71.064 47.7924C71.1563 47.8757 71.2827 47.9173 71.4434 47.9173ZM75.1372 45.0609C75.1521 45.04 75.17 45.0296 75.1908 45.0296H75.4229C75.4526 45.0296 75.4675 45.0445 75.4675 45.0742V48.1093C75.4675 48.139 75.4526 48.1539 75.4229 48.1539H75.1953C75.1655 48.1539 75.1506 48.139 75.1506 48.1093V45.6813C75.1506 45.6723 75.1476 45.6664 75.1417 45.6634C75.1357 45.6604 75.1313 45.6634 75.1283 45.6723L74.5347 46.7033C74.5198 46.7242 74.502 46.7346 74.4811 46.7346H74.432C74.4112 46.7346 74.3934 46.7242 74.3785 46.7033L73.7804 45.6768C73.7774 45.6679 73.773 45.6649 73.767 45.6679C73.7611 45.6708 73.7581 45.6768 73.7581 45.6857V48.1093C73.7581 48.139 73.7432 48.1539 73.7134 48.1539H73.4858C73.4561 48.1539 73.4412 48.139 73.4412 48.1093V45.0742C73.4412 45.0445 73.4561 45.0296 73.4858 45.0296H73.7179C73.7387 45.0296 73.7566 45.04 73.7715 45.0609L74.4454 46.2079C74.4484 46.2109 74.4529 46.2124 74.4588 46.2124C74.4648 46.2124 74.4692 46.2109 74.4722 46.2079L75.1372 45.0609ZM76.2493 48.1539C76.2196 48.1539 76.2047 48.139 76.2047 48.1093V45.0742C76.2047 45.0445 76.2196 45.0296 76.2493 45.0296H76.4769C76.5067 45.0296 76.5216 45.0445 76.5216 45.0742V48.1093C76.5216 48.139 76.5067 48.1539 76.4769 48.1539H76.2493ZM77.3085 48.1539C77.2787 48.1539 77.2638 48.139 77.2638 48.1093V45.0742C77.2638 45.0445 77.2787 45.0296 77.3085 45.0296H77.5361C77.5659 45.0296 77.5807 45.0445 77.5807 45.0742V47.8593C77.5807 47.8712 77.5867 47.8772 77.5986 47.8772H78.8974C78.9271 47.8772 78.942 47.8921 78.942 47.9218V48.1093C78.942 48.139 78.9271 48.1539 78.8974 48.1539H77.3085ZM79.4616 48.1539C79.4319 48.1539 79.417 48.139 79.417 48.1093V45.0742C79.417 45.0445 79.4319 45.0296 79.4616 45.0296H79.6893C79.719 45.0296 79.7339 45.0445 79.7339 45.0742V46.5561C79.7339 46.562 79.7369 46.5665 79.7428 46.5694C79.7488 46.5694 79.7532 46.5665 79.7562 46.5605L80.8899 45.0564C80.9018 45.0385 80.9211 45.0296 80.9479 45.0296H81.1979C81.2157 45.0296 81.2276 45.0356 81.2336 45.0475C81.2395 45.0564 81.2365 45.0683 81.2246 45.0832L80.332 46.3061C80.329 46.315 80.329 46.324 80.332 46.3329L81.305 48.1003C81.3109 48.1122 81.3139 48.1212 81.3139 48.1271C81.3139 48.145 81.3005 48.1539 81.2737 48.1539H81.0149C80.9881 48.1539 80.9702 48.1435 80.9613 48.1227L80.1133 46.5828C80.1073 46.568 80.0999 46.568 80.091 46.5828L79.7428 47.0247C79.7369 47.0306 79.7339 47.0381 79.7339 47.047V48.1093C79.7339 48.139 79.719 48.1539 79.6893 48.1539H79.4616ZM57.0777 51.7123C57.1164 51.8521 57.1357 52.0128 57.1357 52.1943C57.1357 52.346 57.1223 52.477 57.0956 52.5871C57.0509 52.7805 56.9617 52.9292 56.8278 53.0334C56.6968 53.1375 56.5317 53.1896 56.3323 53.1896C56.13 53.1896 55.9619 53.136 55.828 53.0289C55.6941 52.9218 55.6063 52.7715 55.5647 52.5781C55.5498 52.5246 55.5409 52.4695 55.5379 52.413V52.4041C55.5379 52.3803 55.5513 52.3684 55.578 52.3684H55.8101C55.8369 52.3684 55.8518 52.3803 55.8548 52.4041V52.4219L55.8726 52.5112C55.8994 52.6391 55.9515 52.7373 56.0288 52.8058C56.1092 52.8742 56.2103 52.9084 56.3323 52.9084C56.4514 52.9084 56.5496 52.8742 56.6269 52.8058C56.7073 52.7344 56.7608 52.6347 56.7876 52.5067C56.8084 52.4234 56.8188 52.3208 56.8188 52.1988C56.8188 52.0857 56.8069 51.9696 56.7831 51.8506C56.7563 51.7316 56.7043 51.6423 56.6269 51.5828C56.5496 51.5203 56.4514 51.4891 56.3323 51.4891C56.2193 51.4891 56.1211 51.5159 56.0378 51.5694C55.9574 51.62 55.9009 51.6944 55.8682 51.7926L55.8592 51.8105C55.8563 51.8313 55.8414 51.8417 55.8146 51.8417H55.578C55.5483 51.8417 55.5334 51.8268 55.5334 51.7971V50.0742C55.5334 50.0445 55.5483 50.0296 55.578 50.0296H56.9929C57.0227 50.0296 57.0375 50.0445 57.0375 50.0742V50.2617C57.0375 50.2915 57.0227 50.3063 56.9929 50.3063H55.8682C55.8563 50.3063 55.8503 50.3123 55.8503 50.3242V51.4177C55.8503 51.4236 55.8518 51.4281 55.8548 51.4311C55.8607 51.4311 55.8667 51.4281 55.8726 51.4222C55.9321 51.3567 56.0065 51.3061 56.0958 51.2704C56.188 51.2317 56.2862 51.2124 56.3904 51.2124C56.5659 51.2124 56.7117 51.2555 56.8278 51.3418C56.9468 51.4251 57.0301 51.5486 57.0777 51.7123ZM58.4476 53.1985C58.1918 53.1985 57.9864 53.1212 57.8317 52.9664C57.677 52.8117 57.5996 52.6049 57.5996 52.346V50.8375C57.5996 50.5816 57.677 50.3763 57.8317 50.2215C57.9864 50.0668 58.1918 49.9894 58.4476 49.9894C58.7065 49.9894 58.9133 50.0668 59.068 50.2215C59.2257 50.3763 59.3046 50.5816 59.3046 50.8375V52.346C59.3046 52.6049 59.2257 52.8117 59.068 52.9664C58.9133 53.1212 58.7065 53.1985 58.4476 53.1985ZM58.4476 52.9218C58.6113 52.9218 58.7422 52.8712 58.8404 52.7701C58.9386 52.6689 58.9877 52.535 58.9877 52.3684V50.8196C58.9877 50.653 58.9386 50.5191 58.8404 50.4179C58.7422 50.3168 58.6113 50.2662 58.4476 50.2662C58.2899 50.2662 58.162 50.3168 58.0638 50.4179C57.9656 50.5191 57.9165 50.653 57.9165 50.8196V52.3684C57.9165 52.532 57.9656 52.6659 58.0638 52.7701C58.162 52.8712 58.2899 52.9218 58.4476 52.9218ZM60.5807 51.257C60.4646 51.257 60.3575 51.2287 60.2593 51.1722C60.1641 51.1157 60.0882 51.0398 60.0317 50.9446C59.9752 50.8464 59.9469 50.7393 59.9469 50.6232C59.9469 50.5072 59.9752 50.4016 60.0317 50.3063C60.0882 50.2081 60.1641 50.1308 60.2593 50.0742C60.3575 50.0177 60.4646 49.9894 60.5807 49.9894C60.6937 49.9894 60.7979 50.0177 60.8931 50.0742C60.9913 50.1308 61.0687 50.2081 61.1252 50.3063C61.1817 50.4016 61.21 50.5072 61.21 50.6232C61.21 50.7393 61.1817 50.8464 61.1252 50.9446C61.0687 51.0398 60.9913 51.1157 60.8931 51.1722C60.7979 51.2287 60.6937 51.257 60.5807 51.257ZM60.478 53.1539C60.4631 53.1539 60.4512 53.1494 60.4423 53.1405C60.4364 53.1286 60.4378 53.1152 60.4468 53.1003L62.1071 50.0609C62.116 50.04 62.1339 50.0296 62.1607 50.0296H62.3035C62.3184 50.0296 62.3288 50.0356 62.3347 50.0475C62.3437 50.0564 62.3437 50.0683 62.3347 50.0832L60.6744 53.1227C60.6655 53.1435 60.6476 53.1539 60.6208 53.1539H60.478ZM60.5807 51.0606C60.6997 51.0606 60.7994 51.019 60.8797 50.9357C60.963 50.8494 61.0047 50.7452 61.0047 50.6232C61.0047 50.5012 60.963 50.3986 60.8797 50.3153C60.7994 50.229 60.6997 50.1858 60.5807 50.1858C60.4616 50.1858 60.3605 50.229 60.2772 50.3153C60.1939 50.3986 60.1522 50.5012 60.1522 50.6232C60.1522 50.7452 60.1939 50.8494 60.2772 50.9357C60.3605 51.019 60.4616 51.0606 60.5807 51.0606ZM62.2187 53.1941C62.1026 53.1941 61.9955 53.1658 61.8973 53.1093C61.8021 53.0527 61.7262 52.9754 61.6697 52.8772C61.6132 52.779 61.5849 52.6719 61.5849 52.5558C61.5849 52.4428 61.6132 52.3386 61.6697 52.2434C61.7262 52.1452 61.8021 52.0678 61.8973 52.0113C61.9955 51.9548 62.1026 51.9265 62.2187 51.9265C62.3318 51.9265 62.4359 51.9548 62.5311 52.0113C62.6293 52.0678 62.7067 52.1452 62.7632 52.2434C62.8197 52.3386 62.848 52.4428 62.848 52.5558C62.848 52.6719 62.8197 52.779 62.7632 52.8772C62.7067 52.9754 62.6293 53.0527 62.5311 53.1093C62.4359 53.1658 62.3318 53.1941 62.2187 53.1941ZM62.2187 52.9977C62.3377 52.9977 62.4374 52.9545 62.5177 52.8683C62.601 52.782 62.6427 52.6778 62.6427 52.5558C62.6427 52.4338 62.601 52.3312 62.5177 52.2479C62.4374 52.1645 62.3377 52.1229 62.2187 52.1229C62.0997 52.1229 61.9985 52.1645 61.9152 52.2479C61.8319 52.3312 61.7902 52.4338 61.7902 52.5558C61.7902 52.6808 61.8304 52.7864 61.9107 52.8727C61.994 52.956 62.0967 52.9977 62.2187 52.9977Z" fill="#404040"/>
<path d="M33.7662 32.3461L33.7303 32.3428C33.5268 32.3213 33.3352 32.3067 33.3352 32.1501C33.3352 31.9574 33.6106 31.9213 33.7662 31.9213C33.9473 31.9226 34.1263 31.9599 34.293 32.0309L34.3169 32.0429L34.4247 31.79L34.4007 31.7813C34.2 31.6954 33.9843 31.6504 33.7662 31.6488C33.3352 31.6488 33.0479 31.8536 33.0479 32.1426C33.0479 32.516 33.419 32.5642 33.7183 32.5883H33.7423C34.0056 32.6124 34.1852 32.6474 34.1852 32.8171C34.1852 32.9496 34.0056 33.0339 33.7303 33.0339C33.5272 33.0359 33.3264 32.9905 33.1437 32.9014L33.1197 32.8913L33 33.1443L33.0239 33.1563C33.2427 33.2682 33.4849 33.326 33.7303 33.3249C34.1613 33.3249 34.4726 33.1202 34.4726 32.8191C34.4726 32.3975 34.0176 32.3493 33.7542 32.3252M36.4839 32.249C36.4839 32.3257 36.4536 32.3992 36.3997 32.4534C36.3458 32.5076 36.2727 32.5381 36.1965 32.5381H35.7536V31.9607H36.1965C36.2738 31.9638 36.3469 31.9969 36.4005 32.053C36.454 32.1091 36.4839 32.1839 36.4839 32.2618M36.1965 31.6836H35.6338C35.5957 31.6836 35.5592 31.6989 35.5323 31.726C35.5053 31.7531 35.4902 31.7898 35.4902 31.8282V33.3096H35.7655V32.8399H36.2085C36.2834 32.8415 36.3579 32.828 36.4275 32.8003C36.4972 32.7726 36.5606 32.7311 36.6141 32.6784C36.6677 32.6257 36.7102 32.5627 36.7392 32.4933C36.7682 32.4238 36.7832 32.3492 36.7832 32.2738C36.7832 32.1205 36.7226 31.9734 36.6148 31.865C36.5071 31.7566 36.3609 31.6957 36.2085 31.6957M37.6451 31.8282V33.1651C37.6451 33.2034 37.6603 33.2402 37.6872 33.2673C37.7142 33.2944 37.7507 33.3096 37.7888 33.3096H38.8902V33.0326H37.9205V32.6351H38.8304V32.3581H37.9205V31.9607H38.8902V31.6836H37.7888C37.7507 31.6836 37.7142 31.6989 37.6872 31.726C37.6603 31.7531 37.6451 31.7898 37.6451 31.8282ZM40.9973 32.8279C40.948 32.8998 40.8817 32.9583 40.8044 32.9983C40.7271 33.0382 40.6412 33.0583 40.5543 33.0567C40.4072 33.0535 40.2671 32.9925 40.1642 32.8867C40.0612 32.7809 40.0036 32.6387 40.0036 32.4906C40.0036 32.3437 40.0617 32.2027 40.1649 32.0988C40.2682 31.9949 40.4083 31.9366 40.5543 31.9366C40.635 31.937 40.7145 31.9556 40.787 31.991C40.8595 32.0265 40.9232 32.0778 40.9734 32.1413L40.9853 32.1534L41.1889 31.9727L41.1769 31.9561C41.0666 31.8288 40.9204 31.7384 40.7577 31.6969C40.5951 31.6553 40.4237 31.6645 40.2664 31.7234C40.1091 31.7822 39.9733 31.8879 39.8772 32.0263C39.7811 32.1647 39.7291 32.3292 39.7283 32.4981C39.7283 32.7196 39.8149 32.9323 39.9695 33.09C40.1241 33.2478 40.3342 33.338 40.5543 33.3412C40.6849 33.3441 40.8143 33.315 40.9311 33.2562C41.048 33.1974 41.1488 33.1108 41.2248 33.0039L41.2367 32.9866L41.0213 32.818L40.9973 32.8279ZM41.967 31.9607H42.5178V33.3096H42.7931V31.9607H43.3438V31.6836H41.967V31.9607ZM45.2713 32.2377C45.2714 32.2719 45.2645 32.3058 45.2511 32.3373C45.2377 32.3688 45.2181 32.3973 45.1935 32.4209C45.1689 32.4446 45.1397 32.4629 45.1078 32.4749C45.0759 32.4869 45.0419 32.4922 45.0079 32.4906H44.4931V31.9607H45.0079C45.0436 31.9606 45.0788 31.9679 45.1116 31.9819C45.1443 31.996 45.1739 32.0166 45.1985 32.0425C45.2232 32.0684 45.2423 32.099 45.2548 32.1326C45.2673 32.1661 45.2729 32.2019 45.2713 32.2377ZM45.5467 32.2377C45.5483 32.1655 45.5355 32.0937 45.5092 32.0266C45.4828 31.9594 45.4434 31.8982 45.3932 31.8466C45.343 31.795 45.2831 31.754 45.2169 31.726C45.1507 31.698 45.0797 31.6836 45.0079 31.6836H44.3734C44.3353 31.6836 44.2988 31.6989 44.2718 31.726C44.2449 31.7531 44.2298 31.7898 44.2298 31.8282V33.3096H44.5051V32.7556H44.8762L45.2593 33.3096H45.5826L45.1755 32.7315C45.282 32.7004 45.3756 32.6355 45.4425 32.5465C45.5094 32.4575 45.5459 32.3492 45.5467 32.2377ZM47.6657 32.6111C47.6657 32.726 47.6203 32.8363 47.5395 32.9177C47.4587 32.999 47.349 33.0446 47.2347 33.0446C47.1204 33.0446 47.0108 32.999 46.93 32.9177C46.8491 32.8363 46.8037 32.726 46.8037 32.6111V31.6836H46.5284V32.6111C46.5284 32.7995 46.6028 32.9803 46.7353 33.1135C46.8677 33.2468 47.0474 33.3217 47.2347 33.3217C47.4221 33.3217 47.6017 33.2468 47.7342 33.1135C47.8667 32.9803 47.9411 32.7995 47.9411 32.6111V31.6836H47.6657V32.6111ZM50.3834 31.6595C50.3615 31.6604 50.3401 31.6662 50.3208 31.6767C50.3015 31.6871 50.2848 31.7019 50.272 31.7198L49.7333 32.4906L49.1945 31.7198C49.1807 31.7042 49.1637 31.6919 49.1447 31.6835C49.1257 31.6752 49.1051 31.6712 49.0844 31.6716C49.0463 31.6716 49.0098 31.6868 48.9828 31.7139C48.9559 31.741 48.9407 31.7778 48.9407 31.8161V33.3096H49.2161V32.1895L49.7309 32.9362L50.2457 32.1895V33.2976H50.521V31.8041C50.521 31.7657 50.5059 31.729 50.479 31.7019C50.452 31.6748 50.4155 31.6595 50.3774 31.6595M37.262 34.7068H37.6332V35.574H37.8247V34.7068H38.1959V34.5261H37.262V34.7068ZM39.4529 35.044C39.4529 35.143 39.4138 35.238 39.3442 35.308C39.2746 35.378 39.1802 35.4174 39.0818 35.4174C38.9834 35.4174 38.889 35.378 38.8194 35.308C38.7498 35.238 38.7107 35.143 38.7107 35.044C38.7091 34.9976 38.7168 34.9513 38.7332 34.9078C38.7496 34.8644 38.7745 34.8247 38.8064 34.7911C38.8781 34.7197 38.9749 34.6797 39.0758 34.6797C39.1767 34.6797 39.2734 34.7197 39.3452 34.7911C39.3779 34.8243 39.4037 34.8638 39.421 34.9073C39.4382 34.9507 39.4467 34.9972 39.4457 35.044H39.4529ZM39.0818 34.502C39.009 34.4988 38.9364 34.5104 38.8683 34.5361C38.8001 34.5619 38.7379 34.6013 38.6853 34.652C38.6327 34.7026 38.5908 34.7635 38.5623 34.8309C38.5337 34.8983 38.519 34.9708 38.5191 35.044C38.5143 35.1569 38.5432 35.2686 38.6021 35.3648C38.6609 35.461 38.747 35.5373 38.8493 35.5839C38.9516 35.6304 39.0655 35.6451 39.1761 35.6261C39.2868 35.607 39.3893 35.5551 39.4704 35.477C39.5515 35.3989 39.6075 35.2981 39.6313 35.1877C39.655 35.0773 39.6453 34.9623 39.6035 34.8574C39.5617 34.7526 39.4897 34.6627 39.3967 34.5993C39.3038 34.536 39.1941 34.5021 39.0818 34.502ZM40.6022 35.3933H40.2191V35.1404H40.6022C40.6352 35.1402 40.667 35.1525 40.6914 35.1748C40.7157 35.1971 40.7309 35.2278 40.7339 35.2608C40.7339 35.2959 40.72 35.3296 40.6954 35.3545C40.6707 35.3793 40.6372 35.3933 40.6022 35.3933ZM40.2191 34.7068H40.5663C40.586 34.7006 40.6069 34.6991 40.6273 34.7026C40.6477 34.706 40.6669 34.7142 40.6836 34.7265C40.7002 34.7388 40.7138 34.7549 40.7231 34.7734C40.7324 34.792 40.7373 34.8125 40.7373 34.8332C40.7373 34.854 40.7324 34.8745 40.7231 34.893C40.7138 34.9116 40.7002 34.9277 40.6836 34.94C40.6669 34.9523 40.6477 34.9605 40.6273 34.9639C40.6069 34.9673 40.586 34.9659 40.5663 34.9597H40.2191V34.7068ZM40.7938 35.032C40.8241 35.0075 40.8483 34.9762 40.8646 34.9407C40.8808 34.9051 40.8887 34.8663 40.8875 34.8272C40.8844 34.7445 40.8489 34.6664 40.7887 34.61C40.7285 34.5536 40.6485 34.5234 40.5663 34.5261H40.1353C40.1225 34.5256 40.1096 34.5278 40.0976 34.5324C40.0856 34.537 40.0746 34.5441 40.0653 34.5531C40.0561 34.5621 40.0487 34.5728 40.0437 34.5848C40.0387 34.5967 40.0361 34.6095 40.0361 34.6225V35.4776C40.0361 35.4906 40.0387 35.5034 40.0437 35.5153C40.0487 35.5272 40.0561 35.538 40.0653 35.547C40.0746 35.556 40.0856 35.563 40.0976 35.5677C40.1096 35.5723 40.1225 35.5744 40.1353 35.574H40.6022C40.6441 35.5756 40.6859 35.5687 40.725 35.5537C40.7642 35.5387 40.7999 35.5159 40.8301 35.4866C40.8603 35.4574 40.8843 35.4223 40.9007 35.3835C40.9171 35.3447 40.9255 35.303 40.9255 35.2608C40.9266 35.2142 40.915 35.1681 40.8917 35.1277C40.8685 35.0873 40.8346 35.0542 40.7938 35.032ZM41.6558 35.1524L41.7994 34.8393L41.9311 35.1524H41.6558ZM41.7994 34.5141C41.7812 34.515 41.7636 34.5212 41.7488 34.5319C41.734 34.5425 41.7224 34.5573 41.7156 34.5743L41.2727 35.586H41.4762L41.5839 35.3331H42.003L42.1107 35.574V35.586H42.3142L41.8713 34.5743C41.8644 34.5573 41.8529 34.5425 41.8381 34.5319C41.8232 34.5212 41.8057 34.515 41.7875 34.5141M43.4635 35.2608C43.4143 35.3177 43.3496 35.3588 43.2774 35.3791C43.2052 35.3993 43.1287 35.3978 43.0573 35.3748C42.9859 35.3517 42.9228 35.308 42.8759 35.2492C42.8289 35.1905 42.8001 35.1191 42.7931 35.044C42.7931 34.9955 42.8028 34.9475 42.8215 34.9029C42.8403 34.8583 42.8679 34.8179 42.9025 34.7842C42.9371 34.7504 42.9782 34.7241 43.0231 34.7066C43.0681 34.6892 43.1161 34.6811 43.1642 34.6827C43.2189 34.6821 43.273 34.6937 43.3226 34.7166C43.3723 34.7395 43.4163 34.7732 43.4516 34.8152L43.4635 34.8272L43.6072 34.7068L43.5952 34.6947C43.5429 34.6347 43.4784 34.5865 43.4062 34.5532C43.334 34.52 43.2556 34.5026 43.1762 34.502C43.1035 34.4988 43.0308 34.5104 42.9627 34.5361C42.8945 34.5619 42.8323 34.6013 42.7797 34.652C42.7271 34.7026 42.6853 34.7635 42.6567 34.8309C42.6281 34.8983 42.6135 34.9708 42.6135 35.044C42.6183 35.1598 42.6582 35.2713 42.7279 35.3635C42.7977 35.4558 42.8939 35.5242 43.0036 35.5597C43.1132 35.5951 43.231 35.5959 43.3411 35.5618C43.4512 35.5278 43.5483 35.4605 43.6192 35.3692L43.6311 35.3572L43.4875 35.2367L43.4635 35.2608ZM44.7565 35.2608C44.7073 35.3177 44.6426 35.3588 44.5704 35.3791C44.4982 35.3993 44.4216 35.3978 44.3503 35.3748C44.2789 35.3517 44.2158 35.308 44.1689 35.2492C44.1219 35.1905 44.0931 35.1191 44.0861 35.044C44.0861 34.9955 44.0957 34.9475 44.1145 34.9029C44.1333 34.8583 44.1608 34.8179 44.1955 34.7842C44.2301 34.7504 44.2711 34.7241 44.3161 34.7066C44.3611 34.6892 44.4091 34.6811 44.4572 34.6827C44.5119 34.6821 44.5659 34.6937 44.6156 34.7166C44.6653 34.7395 44.7093 34.7732 44.7445 34.8152L44.7565 34.8272L44.9002 34.7068L44.8882 34.6947C44.8358 34.6347 44.7714 34.5865 44.6992 34.5532C44.627 34.52 44.5486 34.5026 44.4692 34.502C44.3965 34.4988 44.3238 34.5104 44.2557 34.5361C44.1875 34.5619 44.1253 34.6013 44.0727 34.652C44.0201 34.7026 43.9782 34.7635 43.9497 34.8309C43.9211 34.8983 43.9064 34.9708 43.9065 35.044C43.9112 35.1598 43.9512 35.2713 44.0209 35.3635C44.0907 35.4558 44.1869 35.5242 44.2965 35.5597C44.4062 35.5951 44.524 35.5959 44.6341 35.5618C44.7442 35.5278 44.8413 35.4605 44.9122 35.3692L44.9241 35.3572L44.7685 35.2488L44.7565 35.2608ZM46.0974 35.044C46.0974 35.143 46.0583 35.238 45.9887 35.308C45.9191 35.378 45.8247 35.4174 45.7263 35.4174C45.6278 35.4174 45.5334 35.378 45.4638 35.308C45.3942 35.238 45.3551 35.143 45.3551 35.044C45.3536 34.9976 45.3612 34.9513 45.3777 34.9078C45.3941 34.8644 45.419 34.8247 45.4509 34.7911C45.5226 34.7197 45.6194 34.6797 45.7203 34.6797C45.8211 34.6797 45.9179 34.7197 45.9896 34.7911C46.0224 34.8243 46.0482 34.8638 46.0654 34.9073C46.0827 34.9507 46.0911 34.9972 46.0902 35.044H46.0974ZM45.7263 34.502C45.6535 34.4988 45.5809 34.5104 45.5127 34.5361C45.4446 34.5619 45.3823 34.6013 45.3297 34.652C45.2771 34.7026 45.2353 34.7635 45.2067 34.8309C45.1782 34.8983 45.1635 34.9708 45.1636 35.044C45.1588 35.1569 45.1877 35.2686 45.2465 35.3648C45.3054 35.461 45.3915 35.5373 45.4938 35.5839C45.5961 35.6304 45.7099 35.6451 45.8206 35.6261C45.9313 35.607 46.0338 35.5551 46.1149 35.477C46.196 35.3989 46.252 35.2981 46.2757 35.1877C46.2994 35.0773 46.2898 34.9623 46.248 34.8574C46.2062 34.7526 46.1342 34.6627 46.0412 34.5993C45.9482 34.536 45.8385 34.5021 45.7263 34.502Z" fill="black"/>
<path d="M39.1541 29.6484L42.0633 29.1425L40.052 27.649L39.1541 29.6484Z" fill="#0065A7"/>
<path d="M40.0639 27.6009L42.0632 29.0583L43.4639 27.7695L40.0639 27.6009Z" fill="#0678AC"/>
<path d="M43.5239 27.6247L44.4218 25.2399L41.2253 25.8903L43.5239 27.6247Z" fill="#2EB56A"/>
<path d="M41.3809 25.7944L44.5774 25.1681L42.3147 24.6502L41.3809 25.7944Z" fill="#A5CE40"/>
<path d="M42.2907 24.5654L44.5654 25.1074L44.7569 22L42.2907 24.5654Z" fill="#F5E431"/>
<path d="M38.5674 27.1188L39.1181 29.5999L40.004 27.5885L38.5674 27.1188Z" fill="#9072B3"/>
<path d="M41.0932 25.9745L38.627 27.0705L39.9798 27.5282L41.0932 25.9745Z" fill="#9360A8"/>
<path d="M39.3692 24.8902L38.627 26.9619L41.2009 25.8538L39.3692 24.8902Z" fill="#DF599C"/>
<path d="M39.4651 24.8304L41.2011 24.7099L42.2187 24.5895L41.4884 23.3248L39.4651 24.8304Z" fill="#F89A29"/>
<path d="M41.5004 23.2044L42.2427 24.4932L44.697 22L41.5004 23.2044Z" fill="#FCBC1B"/>
<path d="M39.4651 24.879L41.2969 25.7944L42.2427 24.6502L39.4651 24.879Z" fill="#F16165"/>
<path d="M41.1653 25.9745L40.0639 27.5523L43.4639 27.733L41.1653 25.9745Z" fill="#1DA6BA"/>
</svg>
