<svg width="97" height="57" viewBox="0 0 97 57" fill="none" xmlns="http://www.w3.org/2000/svg">
<path fill-rule="evenodd" clip-rule="evenodd" d="M47.8153 17.2591C47.8153 17.2817 47.6716 18.3111 47.5011 19.5391C47.3306 20.7671 47.187 21.8191 47.187 21.8687V21.968L47.5954 21.8642C47.9454 21.7739 48.1114 21.6926 48.7532 21.3044C49.1616 21.0515 49.5251 20.8303 49.5565 20.8077C49.6058 20.7807 49.4533 20.442 48.8968 19.3314C48.089 17.7106 47.8197 17.1914 47.8153 17.2591Z" fill="black"/>
<path fill-rule="evenodd" clip-rule="evenodd" d="M48.8788 21.4439C48.5377 21.6426 48.2685 21.8141 48.2774 21.8232C48.2864 21.8367 48.632 21.76 49.0403 21.6561L49.7853 21.471L49.6866 21.2724C49.6372 21.164 49.5699 21.0737 49.5475 21.0782C49.5205 21.0782 49.2199 21.2453 48.8788 21.4439Z" fill="black"/>
<path fill-rule="evenodd" clip-rule="evenodd" d="M48.4748 22.0216C47.8151 22.2158 47.2587 22.3873 47.2407 22.4054C47.2093 22.437 50.1038 22.3964 50.1353 22.3648C50.1442 22.3557 50.0769 22.1932 49.9827 22.0036C49.8795 21.7914 49.7897 21.6605 49.7448 21.665C49.7089 21.6695 49.1345 21.8275 48.4748 22.0216Z" fill="black"/>
<path fill-rule="evenodd" clip-rule="evenodd" d="M48.2281 22.839C47.6761 22.857 47.2183 22.8796 47.2049 22.8931C47.1914 22.9022 47.703 23.295 48.3403 23.76C48.9775 24.2295 49.5205 24.6268 49.5474 24.6494C49.5878 24.6765 51.6297 24.6043 51.6656 24.5726C51.6746 24.5681 51.3919 24.1618 51.0374 23.6742L50.4001 22.7893L49.8122 22.7983C49.4936 22.7983 48.7801 22.8164 48.2281 22.839Z" fill="black"/>
<path fill-rule="evenodd" clip-rule="evenodd" d="M47.187 23.2182C47.344 23.6335 47.3844 23.6696 47.7749 23.7735C47.9768 23.8277 48.1518 23.8683 48.1608 23.8593C48.1743 23.8412 47.2004 23.1053 47.1645 23.1053C47.1556 23.1053 47.1645 23.1549 47.187 23.2182Z" fill="black"/>
<path fill-rule="evenodd" clip-rule="evenodd" d="M47.4742 23.8596C47.4921 23.9002 47.5864 24.1214 47.6896 24.3562L47.8736 24.7761L48.3493 24.749C48.6095 24.7309 48.9461 24.7084 49.0942 24.6903L49.3635 24.6632L48.9192 24.3517C48.4839 24.0447 48.4031 24.0131 47.7344 23.8551C47.4742 23.7964 47.4517 23.7964 47.4742 23.8596Z" fill="black"/>
<path fill-rule="evenodd" clip-rule="evenodd" d="M47.38 25.1013C47.3934 25.16 47.4293 25.3451 47.4607 25.5122L47.5191 25.8192L48.2595 26.5009C48.6679 26.8757 49.0583 27.2323 49.1212 27.291L49.2378 27.3994L49.4533 26.3023C49.5699 25.6973 49.6776 25.16 49.6866 25.1013L49.7091 25.002H48.5333H47.3575L47.38 25.1013Z" fill="black"/>
<path fill-rule="evenodd" clip-rule="evenodd" d="M45.5579 25.778C45.4906 26.1843 45.4367 26.5275 45.4367 26.5455C45.4367 26.5816 47.2183 27.1821 47.2677 27.1595C47.3036 27.146 45.7553 25.0556 45.706 25.0511C45.6925 25.0466 45.6252 25.3762 45.5579 25.778Z" fill="black"/>
<path fill-rule="evenodd" clip-rule="evenodd" d="M50.3287 25.0787C50.3287 25.1194 50.9884 26.7221 51.0108 26.7402C51.0736 26.7853 52.7655 27.3948 52.7834 27.3768C52.7969 27.3632 52.6174 26.835 52.3885 26.1984L51.9667 25.0471H51.1499C50.6967 25.0471 50.3287 25.0607 50.3287 25.0787Z" fill="black"/>
<path fill-rule="evenodd" clip-rule="evenodd" d="M44.3598 27.7784C44.3598 27.8236 44.813 28.713 44.831 28.6995C44.84 28.6904 44.8041 28.4737 44.7547 28.2164L44.6604 27.7559H44.5124C44.4271 27.7559 44.3598 27.7649 44.3598 27.7784Z" fill="black"/>
<path fill-rule="evenodd" clip-rule="evenodd" d="M44.8534 27.7827C44.8534 27.8053 44.8848 28.0265 44.9207 28.2748C44.9566 28.5232 44.988 28.7534 44.988 28.7805C44.988 28.8257 45.1136 28.8392 45.4592 28.8392C45.8721 28.8392 45.9439 28.8527 46.0202 28.9295C46.1324 29.0424 46.1368 29.2094 46.0291 29.3042C45.9663 29.3629 45.8586 29.381 45.5804 29.381H45.2124V29.9227V30.4645H45.5714C45.8721 30.4645 45.9439 30.4781 46.0202 30.5548C46.0695 30.6045 46.1099 30.6857 46.1099 30.7354C46.1099 30.7851 46.0695 30.8663 46.0202 30.916C45.9439 30.9927 45.8721 31.0063 45.5714 31.0063H45.2124V31.5526V32.0989L45.7195 32.0808C46.1234 32.0673 46.258 32.0447 46.4061 31.9679C46.7068 31.8099 46.8594 31.6519 47.003 31.3584C47.187 30.9882 47.2004 30.5232 47.0299 30.1575L46.9222 29.9227L47.0299 29.6835C47.1152 29.5029 47.1421 29.3765 47.1421 29.1101C47.1421 28.6857 47.0209 28.4013 46.7247 28.1304C46.4016 27.8324 46.2715 27.7918 45.5175 27.7647C45.1495 27.7556 44.8534 27.7602 44.8534 27.7827Z" fill="black"/>
<path fill-rule="evenodd" clip-rule="evenodd" d="M47.3216 28.4877C47.3216 29.1198 47.3306 29.192 47.4248 29.3545C47.5819 29.6299 47.7524 29.6977 48.2999 29.6977C48.7487 29.6977 48.7621 29.6931 48.8115 29.5848C48.8564 29.481 48.8878 29.4719 49.1481 29.4719C49.3007 29.4719 49.4308 29.4539 49.4308 29.4358C49.4308 29.4132 49.3994 29.3049 49.359 29.1875C49.2962 29.0024 49.2737 28.9753 49.1615 28.9753H49.0314L49.0942 28.8218C49.1526 28.6773 49.1481 28.6412 49.0404 28.3477C48.9775 28.1672 48.9102 28.0407 48.8878 28.0588C48.8698 28.0769 48.7307 28.4516 48.5737 28.885C48.2954 29.6525 48.2864 29.6706 48.273 29.4584C48.2595 29.2552 48.255 29.2462 48.1249 29.2462C48.0441 29.2462 47.9499 29.2056 47.8826 29.1333C47.7748 29.0295 47.7704 29.0024 47.7704 28.4109V27.8015H47.546H47.3216V28.4877Z" fill="black"/>
<path fill-rule="evenodd" clip-rule="evenodd" d="M49.0181 27.824C49.0047 27.8376 49.1438 28.2575 49.3188 28.7631L49.6464 29.6751L49.9022 29.6887C50.1356 29.7022 50.158 29.6932 50.1266 29.6209C50.1086 29.5758 49.965 29.1875 49.808 28.7541C49.4355 27.7473 49.4669 27.8015 49.2336 27.8015C49.1303 27.8015 49.0316 27.8105 49.0181 27.824Z" fill="black"/>
<path fill-rule="evenodd" clip-rule="evenodd" d="M50.8537 27.8601C50.1132 28.0949 49.9561 29.0882 50.5889 29.5351C50.7325 29.639 50.8402 29.6751 51.0466 29.6886L51.3159 29.7067V29.4764C51.3159 29.2552 51.3114 29.2462 51.1947 29.2462C51.0152 29.2462 50.7639 29.1062 50.7011 28.9753C50.6024 28.7766 50.6293 28.6186 50.7953 28.4516C50.921 28.3252 50.9838 28.2981 51.1319 28.2981H51.3159V28.0498V27.8015L51.1723 27.806C51.0915 27.806 50.9479 27.8331 50.8537 27.8601Z" fill="black"/>
<path fill-rule="evenodd" clip-rule="evenodd" d="M51.4506 28.7496V29.6977H51.6749H51.8993V28.7496V27.8015H51.6749H51.4506V28.7496Z" fill="black"/>
<path fill-rule="evenodd" clip-rule="evenodd" d="M52.3796 27.828C52.3616 27.8461 52.3482 27.9454 52.3482 28.0447C52.3482 28.2434 52.2584 28.3878 52.0924 28.4736C52.0026 28.5188 51.9892 28.5639 51.9892 28.7716C51.9892 28.9748 52.0026 29.0199 52.0789 29.0425C52.2315 29.0921 52.3482 29.2863 52.3482 29.4985V29.6971H52.5995H52.8553L52.8284 29.4172C52.8104 29.205 52.77 29.0921 52.6668 28.9432C52.5412 28.7626 52.5322 28.7355 52.595 28.6768C52.7296 28.5413 52.8104 28.3201 52.8149 28.0718L52.8194 27.8235L52.6174 27.8099C52.5052 27.8009 52.3975 27.8099 52.3796 27.828Z" fill="black"/>
<path fill-rule="evenodd" clip-rule="evenodd" d="M43.7763 30.2389C43.7763 31.6385 43.7898 32.0042 43.8347 31.9861C43.8616 31.9771 44.095 31.8688 44.3508 31.7514L44.8085 31.5347L44.7995 30.3112L44.7861 29.0922L44.427 28.8709C44.2296 28.749 44.0007 28.6091 43.9244 28.5594L43.7763 28.4691V30.2389Z" fill="black"/>
<path fill-rule="evenodd" clip-rule="evenodd" d="M47.3216 30.6317C47.3216 31.4805 47.3665 31.6521 47.6312 31.8778C48.08 32.257 48.7936 32.099 49.0314 31.5708C49.1032 31.4173 49.1167 31.2683 49.1167 30.6317V29.8777H48.807H48.4974L48.5153 30.5685C48.5333 31.3947 48.5063 31.476 48.2326 31.494C47.9319 31.5166 47.905 31.4399 47.905 30.5911V29.8777H47.6133H47.3216V30.6317Z" fill="black"/>
<path fill-rule="evenodd" clip-rule="evenodd" d="M49.2515 30.1486V30.415L49.7586 30.4286L50.2612 30.4421V30.555V30.6678L49.7586 30.6814L49.2515 30.6949V31.3947V32.0945L49.4893 32.081L49.7227 32.0674V31.6611V31.2548L49.8977 31.2412C49.9964 31.2322 50.1221 31.2367 50.1804 31.2502C50.2792 31.2773 50.2837 31.2954 50.2837 31.6837V32.09H50.5978H50.9119V31.6927C50.9119 31.4037 50.8895 31.2593 50.8312 31.1419C50.7549 30.9884 50.7549 30.9748 50.8356 30.7852C50.9389 30.5459 50.9119 30.3428 50.7459 30.1441C50.5574 29.9229 50.4003 29.8777 49.79 29.8777H49.2515V30.1486Z" fill="black"/>
<path fill-rule="evenodd" clip-rule="evenodd" d="M51.0467 30.9839V32.09H51.3384H51.6301V30.9839V29.8777H51.3384H51.0467V30.9839Z" fill="black"/>
<path fill-rule="evenodd" clip-rule="evenodd" d="M51.7648 30.1442C51.7648 30.4151 51.7648 30.4196 51.8905 30.4196C51.9578 30.4196 52.061 30.4512 52.1148 30.4919C52.2091 30.5596 52.2136 30.5867 52.2136 31.3271V32.0901H52.5322H52.8508L52.8329 31.2594L52.8194 30.4287L52.6803 30.2571C52.4604 29.9817 52.3302 29.9095 52.0341 29.8869L51.7648 29.8688V30.1442Z" fill="black"/>
<path fill-rule="evenodd" clip-rule="evenodd" d="M53.7169 30.4099C53.4476 30.5183 53.2098 30.6221 53.1918 30.6402C53.1739 30.6537 53.2502 31.0014 53.3579 31.4122C53.4701 31.8186 53.5598 32.1797 53.5598 32.2113C53.5598 32.243 53.5733 32.27 53.5957 32.27C53.6316 32.27 54.2464 30.3016 54.224 30.2474C54.215 30.2248 53.9906 30.2971 53.7169 30.4099Z" fill="black"/>
<path fill-rule="evenodd" clip-rule="evenodd" d="M51.5492 32.6316C51.4998 32.7445 51.1812 33.4036 50.8446 34.0989C49.8708 36.099 49.5612 36.7536 49.5881 36.7762C49.6015 36.7897 49.6464 36.7672 49.6868 36.731C49.7317 36.6949 50.3151 36.2028 50.9793 35.6339C51.6479 35.0696 52.2089 34.591 52.2268 34.573C52.2538 34.5504 51.8095 32.9251 51.6569 32.4736C51.6479 32.4465 51.5986 32.5187 51.5492 32.6316Z" fill="black"/>
<path fill-rule="evenodd" clip-rule="evenodd" d="M45.0014 33.0786C44.2026 33.3179 43.5564 33.5255 43.5654 33.5391C43.6013 33.6249 44.9117 34.7581 44.9386 34.7265C45.0912 34.5549 46.4779 32.6722 46.4644 32.6587C46.4554 32.6497 45.7957 32.8393 45.0014 33.0786Z" fill="black"/>
<path fill-rule="evenodd" clip-rule="evenodd" d="M51.9083 32.835C52.016 33.2549 52.3705 34.3926 52.3974 34.3926C52.4154 34.3926 52.5231 34.3068 52.6353 34.1984L52.8417 34.0088L52.4199 33.4309C51.9532 32.7898 51.8724 32.695 51.9083 32.835Z" fill="black"/>
<path fill-rule="evenodd" clip-rule="evenodd" d="M46.1547 33.6343C45.8226 34.0632 45.4636 34.5328 45.3559 34.6727C45.2482 34.8127 45.1674 34.9481 45.1719 34.9707C45.1808 34.9933 45.6072 35.3861 46.1143 35.8421C46.6259 36.2981 47.2048 36.8218 47.4067 37.0069C47.6984 37.2732 47.7702 37.3184 47.7523 37.2326C47.7343 37.1739 47.5099 36.1716 47.2497 35.0023C46.9894 33.8375 46.774 32.8758 46.765 32.8713C46.7605 32.8623 46.4823 33.2099 46.1547 33.6343Z" fill="black"/>
<path fill-rule="evenodd" clip-rule="evenodd" d="M50.1443 33.4578C49.6417 33.7873 49.0404 34.1756 48.816 34.3201C48.5871 34.4646 48.3986 34.6 48.3986 34.6181C48.3986 34.6361 48.5198 35.0379 48.6724 35.503C48.8205 35.9725 48.973 36.4556 49.0134 36.573C49.0493 36.6949 49.0897 36.7806 49.1032 36.7716C49.1436 36.7265 51.0912 32.8889 51.0778 32.8753C51.0688 32.8663 50.6514 33.1282 50.1443 33.4578Z" fill="black"/>
<path d="M46.7521 27.4624L46.752 26.8541L48.6678 27.5029L46.7521 27.4624Z" fill="#FF9D00"/>
<path d="M45.1406 28.2759L45.1407 27.741L45.4925 27.741L46.1542 28.8249L45.1406 28.2759Z" fill="#FF9D00"/>
<path d="M54.6994 30.4437L54.5587 29.965L55.6145 29.1767L54.6994 30.4437Z" fill="#FF9D00"/>
<path d="M54.3334 33.9207L53.4887 32.3722L54.5586 32.5129L54.3334 33.9207Z" fill="#FF9D00"/>
<path d="M49.9128 34.2591L50.2648 33.3863L52.3343 32.6824L49.9128 34.2591Z" fill="#FF9D00"/>
<path d="M45.0139 33.1329L47.5338 32.246L47.7168 32.5532L45.0139 33.1329Z" fill="#FF9D00"/>
<path d="M46.2245 32.063L45.3658 32.063L46.2245 31.6125L46.2245 32.063Z" fill="#FF9D00"/>
<path d="M55.5862 29.9374L55.1076 30.2048L55.0231 30.1907L55.7692 29.2616L55.5862 29.9374Z" fill="#FF9D00"/>
<path d="M49.0531 26.8948L48.9517 26.1448L50.1276 27.3004L49.0531 26.8948Z" fill="#FF9D00"/>
<path d="M51.1008 26.246L51.3442 25.0904L51.6077 25.5364L51.1008 26.246Z" fill="#FF9D00"/>
<path d="M52.3173 27.3811L52.3579 26.8945L53.9392 27.4419L52.3173 27.3811Z" fill="#FF9D00"/>
<path d="M49.1288 50.0756C44.5733 50.2344 40.0843 48.9492 36.3053 46.4042C32.5263 43.8591 29.6513 40.1848 28.0923 35.908L35.1914 33.3281C36.2048 36.108 38.0735 38.4963 40.5299 40.1506C42.9862 41.8049 45.904 42.6403 48.8651 42.537L49.1288 50.0756Z" fill="#F5FFBA"/>
<path d="M47.6222 6.99799C50.455 6.89921 53.2796 7.35852 55.9347 8.3497C58.5898 9.34087 61.0233 10.8445 63.0964 12.7747C65.1695 14.7049 66.8415 17.0239 68.0169 19.5994C69.1924 22.1748 69.8483 24.9561 69.9473 27.7846C70.0462 30.6132 69.5862 33.4334 68.5935 36.0844C67.6008 38.7355 66.0949 41.1653 64.1617 43.2352C62.2285 45.3051 59.906 46.9745 57.3266 48.1482C54.7472 49.3219 51.9616 49.9768 49.1288 50.0756L48.8651 42.537C50.7065 42.4728 52.5171 42.0471 54.1937 41.2842C55.8703 40.5213 57.38 39.4362 58.6365 38.0907C59.8931 36.7453 60.8719 35.1659 61.5172 33.4428C62.1624 31.7196 62.4614 29.8864 62.3971 28.0479C62.3328 26.2094 61.9065 24.4015 61.1424 22.7275C60.3784 21.0534 59.2916 19.5461 57.9441 18.2914C56.5966 17.0368 55.0148 16.0594 53.289 15.4152C51.5632 14.7709 49.7272 14.4724 47.8858 14.5366L47.6222 6.99799Z" fill="#8AFF52"/>
<path d="M28.0923 35.908C26.9272 32.712 26.5363 29.286 26.9514 25.9103C27.3665 22.5345 28.5759 19.3048 30.4807 16.4851C32.3855 13.6654 34.9316 11.3359 37.9109 9.68705C40.8901 8.03815 44.2179 7.11669 47.6222 6.99799L47.8858 14.5366C45.6731 14.6137 43.51 15.2127 41.5735 16.2845C39.637 17.3562 37.982 18.8704 36.7439 20.7032C35.5058 22.536 34.7197 24.6353 34.4498 26.8296C34.18 29.0238 34.4341 31.2507 35.1914 33.3281L28.0923 35.908Z" fill="#FF4C00"/>
<path d="M35.8693 12.7861L33.3273 9.52283H22.7961" stroke="black" stroke-width="0.145684"/>
<path d="M36.2322 45.0563L33.6902 48.3196H23.1591" stroke="black" stroke-width="0.145684"/>
<path d="M11.9694 46.8804C11.9427 46.8804 11.9263 46.867 11.9203 46.8402L11.7731 46.2823C11.7701 46.2734 11.7626 46.2689 11.7507 46.2689H10.684C10.6721 46.2689 10.6647 46.2734 10.6617 46.2823L10.5144 46.8402C10.5085 46.867 10.4921 46.8804 10.4653 46.8804H10.2332C10.2183 46.8804 10.2064 46.8759 10.1975 46.867C10.1916 46.8581 10.1901 46.8462 10.1931 46.8313L11.0277 43.7963C11.0336 43.7695 11.05 43.7561 11.0768 43.7561H11.3624C11.3892 43.7561 11.4056 43.7695 11.4115 43.7963L12.2462 46.8313L12.2506 46.8447C12.2506 46.8685 12.2357 46.8804 12.206 46.8804H11.9694ZM10.7376 45.9922C10.7346 45.9952 10.7346 45.9996 10.7376 46.0056C10.7435 46.0085 10.7495 46.01 10.7554 46.01H11.6793C11.6853 46.01 11.6897 46.0085 11.6927 46.0056C11.6987 45.9996 11.7002 45.9952 11.6972 45.9922L11.2241 44.1979C11.2211 44.192 11.2181 44.189 11.2151 44.189C11.2122 44.189 11.2092 44.192 11.2062 44.1979L10.7376 45.9922ZM14.2761 43.8007C14.2761 43.771 14.291 43.7561 14.3207 43.7561H14.5484C14.5781 43.7561 14.593 43.771 14.593 43.8007V46.8357C14.593 46.8655 14.5781 46.8804 14.5484 46.8804H14.3074C14.2806 46.8804 14.2627 46.87 14.2538 46.8491L13.0576 44.4613C13.0517 44.4553 13.0457 44.4524 13.0398 44.4524C13.0368 44.4524 13.0353 44.4568 13.0353 44.4657L13.0398 46.8357C13.0398 46.8655 13.0249 46.8804 12.9952 46.8804H12.7675C12.7378 46.8804 12.7229 46.8655 12.7229 46.8357V43.8007C12.7229 43.771 12.7378 43.7561 12.7675 43.7561H13.0085C13.0353 43.7561 13.0532 43.7665 13.0621 43.7873L14.2583 46.1841C14.2642 46.1901 14.2687 46.193 14.2716 46.193C14.2776 46.193 14.2806 46.1886 14.2806 46.1796L14.2761 43.8007ZM16.8468 46.8804C16.82 46.8804 16.8036 46.867 16.7977 46.8402L16.6504 46.2823C16.6474 46.2734 16.64 46.2689 16.6281 46.2689H15.5614C15.5495 46.2689 15.542 46.2734 15.539 46.2823L15.3917 46.8402C15.3858 46.867 15.3694 46.8804 15.3427 46.8804H15.1106C15.0957 46.8804 15.0838 46.8759 15.0749 46.867C15.0689 46.8581 15.0674 46.8462 15.0704 46.8313L15.905 43.7963C15.911 43.7695 15.9273 43.7561 15.9541 43.7561H16.2398C16.2666 43.7561 16.2829 43.7695 16.2889 43.7963L17.1235 46.8313L17.128 46.8447C17.128 46.8685 17.1131 46.8804 17.0833 46.8804H16.8468ZM15.6149 45.9922C15.6119 45.9952 15.6119 45.9996 15.6149 46.0056C15.6209 46.0085 15.6268 46.01 15.6328 46.01H16.5567C16.5626 46.01 16.5671 46.0085 16.5701 46.0056C16.576 45.9996 16.5775 45.9952 16.5745 45.9922L16.1014 44.1979C16.0984 44.192 16.0955 44.189 16.0925 44.189C16.0895 44.189 16.0865 44.192 16.0836 44.1979L15.6149 45.9922ZM19.1534 43.8007C19.1534 43.771 19.1683 43.7561 19.1981 43.7561H19.4257C19.4555 43.7561 19.4703 43.771 19.4703 43.8007V46.8357C19.4703 46.8655 19.4555 46.8804 19.4257 46.8804H19.1847C19.1579 46.8804 19.1401 46.87 19.1311 46.8491L17.935 44.4613C17.929 44.4553 17.9231 44.4524 17.9171 44.4524C17.9141 44.4524 17.9127 44.4568 17.9127 44.4657L17.9171 46.8357C17.9171 46.8655 17.9022 46.8804 17.8725 46.8804H17.6449C17.6151 46.8804 17.6002 46.8655 17.6002 46.8357V43.8007C17.6002 43.771 17.6151 43.7561 17.6449 43.7561H17.8859C17.9127 43.7561 17.9305 43.7665 17.9394 43.7873L19.1356 46.1841C19.1415 46.1901 19.146 46.193 19.149 46.193C19.1549 46.193 19.1579 46.1886 19.1579 46.1796L19.1534 43.8007ZM21.7241 46.8804C21.6973 46.8804 21.681 46.867 21.675 46.8402L21.5277 46.2823C21.5248 46.2734 21.5173 46.2689 21.5054 46.2689H20.4387C20.4268 46.2689 20.4194 46.2734 20.4164 46.2823L20.2691 46.8402C20.2631 46.867 20.2468 46.8804 20.22 46.8804H19.9879C19.973 46.8804 19.9611 46.8759 19.9522 46.867C19.9462 46.8581 19.9448 46.8462 19.9477 46.8313L20.7824 43.7963C20.7883 43.7695 20.8047 43.7561 20.8315 43.7561H21.1171C21.1439 43.7561 21.1603 43.7695 21.1662 43.7963L22.0008 46.8313L22.0053 46.8447C22.0053 46.8685 21.9904 46.8804 21.9607 46.8804H21.7241ZM20.4923 45.9922C20.4893 45.9952 20.4893 45.9996 20.4923 46.0056C20.4982 46.0085 20.5042 46.01 20.5101 46.01H21.434C21.44 46.01 21.4444 46.0085 21.4474 46.0056C21.4533 45.9996 21.4548 45.9952 21.4519 45.9922L20.9787 44.1979C20.9758 44.192 20.9728 44.189 20.9698 44.189C20.9668 44.189 20.9639 44.192 20.9609 44.1979L20.4923 45.9922ZM23.1055 46.9161C22.8258 46.9161 22.6026 46.8432 22.436 46.6974C22.2723 46.5486 22.1905 46.3507 22.1905 46.1038V45.9833C22.1905 45.9535 22.2054 45.9386 22.2351 45.9386H22.4538C22.4836 45.9386 22.4985 45.9535 22.4985 45.9833V46.0859C22.4985 46.2525 22.555 46.3864 22.6681 46.4876C22.7811 46.5888 22.9314 46.6394 23.1188 46.6394C23.2944 46.6394 23.4328 46.5917 23.5339 46.4965C23.6351 46.4013 23.6857 46.2763 23.6857 46.1216C23.6857 46.0204 23.6619 45.9327 23.6143 45.8583C23.5667 45.7839 23.4967 45.7155 23.4045 45.653C23.3123 45.5905 23.1798 45.5116 23.0073 45.4164C22.8228 45.3182 22.677 45.2319 22.5699 45.1576C22.4657 45.0832 22.3809 44.9924 22.3155 44.8853C22.25 44.7782 22.2173 44.6473 22.2173 44.4925C22.2173 44.2515 22.2946 44.0626 22.4494 43.9257C22.6041 43.7888 22.8109 43.7204 23.0698 43.7204C23.3465 43.7204 23.5667 43.7963 23.7303 43.948C23.894 44.0998 23.9758 44.3006 23.9758 44.5505V44.6532C23.9758 44.683 23.9609 44.6978 23.9312 44.6978H23.708C23.6782 44.6978 23.6634 44.683 23.6634 44.6532V44.555C23.6634 44.3884 23.6098 44.2545 23.5027 44.1533C23.3956 44.0492 23.2483 43.9971 23.0608 43.9971C22.8942 43.9971 22.7633 44.0402 22.6681 44.1265C22.5758 44.2128 22.5297 44.3348 22.5297 44.4925C22.5297 44.5937 22.552 44.6785 22.5966 44.7469C22.6413 44.8154 22.7053 44.8779 22.7886 44.9344C22.8749 44.9909 23.0058 45.0668 23.1813 45.162C23.3837 45.2751 23.5384 45.3718 23.6455 45.4521C23.7556 45.5295 23.8419 45.6202 23.9044 45.7244C23.9698 45.8256 24.0026 45.9505 24.0026 46.0993C24.0026 46.3492 23.9222 46.5486 23.7616 46.6974C23.6009 46.8432 23.3822 46.9161 23.1055 46.9161ZM11.2107 51.9161C10.931 51.9161 10.7078 51.8432 10.5412 51.6974C10.3775 51.5486 10.2957 51.3507 10.2957 51.1038V50.9833C10.2957 50.9535 10.3106 50.9386 10.3403 50.9386H10.559C10.5888 50.9386 10.6037 50.9535 10.6037 50.9833V51.0859C10.6037 51.2525 10.6602 51.3864 10.7733 51.4876C10.8863 51.5888 11.0366 51.6394 11.2241 51.6394C11.3996 51.6394 11.538 51.5917 11.6392 51.4965C11.7403 51.4013 11.7909 51.2763 11.7909 51.1216C11.7909 51.0204 11.7671 50.9327 11.7195 50.8583C11.6719 50.7839 11.602 50.7155 11.5097 50.653C11.4175 50.5905 11.2851 50.5116 11.1125 50.4164C10.928 50.3182 10.7822 50.2319 10.6751 50.1576C10.5709 50.0832 10.4861 49.9924 10.4207 49.8853C10.3552 49.7782 10.3225 49.6473 10.3225 49.4925C10.3225 49.2515 10.3999 49.0626 10.5546 48.9257C10.7093 48.7888 10.9161 48.7204 11.175 48.7204C11.4517 48.7204 11.6719 48.7963 11.8355 48.948C11.9992 49.0998 12.081 49.3006 12.081 49.5505V49.6532C12.081 49.683 12.0661 49.6978 12.0364 49.6978H11.8132C11.7835 49.6978 11.7686 49.683 11.7686 49.6532V49.555C11.7686 49.3884 11.715 49.2545 11.6079 49.1533C11.5008 49.0492 11.3535 48.9971 11.166 48.9971C10.9994 48.9971 10.8685 49.0402 10.7733 49.1265C10.681 49.2128 10.6349 49.3348 10.6349 49.4925C10.6349 49.5937 10.6572 49.6785 10.7019 49.7469C10.7465 49.8154 10.8105 49.8779 10.8938 49.9344C10.9801 49.9909 11.111 50.0668 11.2866 50.162C11.4889 50.2751 11.6436 50.3718 11.7507 50.4521C11.8608 50.5295 11.9471 50.6202 12.0096 50.7244C12.0751 50.8256 12.1078 50.9505 12.1078 51.0993C12.1078 51.3492 12.0275 51.5486 11.8668 51.6974C11.7061 51.8432 11.4874 51.9161 11.2107 51.9161ZM14.1475 48.8007C14.1475 48.771 14.1624 48.7561 14.1921 48.7561H14.4198C14.4495 48.7561 14.4644 48.771 14.4644 48.8007V51.8357C14.4644 51.8655 14.4495 51.8804 14.4198 51.8804H14.1921C14.1624 51.8804 14.1475 51.8655 14.1475 51.8357V50.47C14.1475 50.4581 14.1416 50.4521 14.1297 50.4521H13.0228C13.0109 50.4521 13.0049 50.4581 13.0049 50.47V51.8357C13.0049 51.8655 12.99 51.8804 12.9603 51.8804H12.7327C12.7029 51.8804 12.688 51.8655 12.688 51.8357V48.8007C12.688 48.771 12.7029 48.7561 12.7327 48.7561H12.9603C12.99 48.7561 13.0049 48.771 13.0049 48.8007V50.1576C13.0049 50.1695 13.0109 50.1754 13.0228 50.1754H14.1297C14.1416 50.1754 14.1475 50.1695 14.1475 50.1576V48.8007ZM16.0331 51.9161C15.8516 51.9161 15.691 51.8789 15.5511 51.8045C15.4142 51.7271 15.3071 51.62 15.2297 51.4831C15.1554 51.3463 15.1182 51.1886 15.1182 51.01V49.6309C15.1182 49.4524 15.1554 49.2947 15.2297 49.1578C15.3071 49.0179 15.4142 48.9108 15.5511 48.8364C15.691 48.7591 15.8516 48.7204 16.0331 48.7204C16.2146 48.7204 16.3738 48.7591 16.5107 48.8364C16.6506 48.9108 16.7592 49.0179 16.8365 49.1578C16.9139 49.2947 16.9526 49.4524 16.9526 49.6309V51.01C16.9526 51.1886 16.9139 51.3463 16.8365 51.4831C16.7592 51.62 16.6506 51.7271 16.5107 51.8045C16.3738 51.8789 16.2146 51.9161 16.0331 51.9161ZM16.0331 51.6394C16.2146 51.6394 16.3604 51.5828 16.4705 51.4698C16.5806 51.3567 16.6357 51.2079 16.6357 51.0234V49.622C16.6357 49.4345 16.5806 49.2842 16.4705 49.1712C16.3604 49.0551 16.2146 48.9971 16.0331 48.9971C15.8546 48.9971 15.7103 49.0551 15.6002 49.1712C15.4901 49.2842 15.4351 49.4345 15.4351 49.622V51.0234C15.4351 51.2079 15.4901 51.3567 15.6002 51.4698C15.7103 51.5828 15.8546 51.6394 16.0331 51.6394ZM18.4257 51.9161C18.155 51.9161 17.9363 51.8357 17.7696 51.6751C17.606 51.5144 17.5241 51.3016 17.5241 51.0368V49.5952C17.5241 49.3304 17.606 49.1191 17.7696 48.9614C17.9363 48.8007 18.155 48.7204 18.4257 48.7204C18.6995 48.7204 18.9182 48.7992 19.0818 48.9569C19.2485 49.1146 19.3318 49.3244 19.3318 49.5863V49.6264C19.3318 49.6562 19.3169 49.6711 19.2871 49.6711L19.0595 49.68C19.0298 49.68 19.0149 49.6666 19.0149 49.6398V49.5773C19.0149 49.4047 18.9598 49.2649 18.8497 49.1578C18.7426 49.0507 18.6013 48.9971 18.4257 48.9971C18.2502 48.9971 18.1088 49.0507 18.0017 49.1578C17.8946 49.2619 17.841 49.4018 17.841 49.5773V51.0591C17.841 51.2347 17.8946 51.376 18.0017 51.4831C18.1088 51.5873 18.2502 51.6394 18.4257 51.6394C18.6013 51.6394 18.7426 51.5858 18.8497 51.4787C18.9598 51.3716 19.0149 51.2317 19.0149 51.0591V50.9966C19.0149 50.9699 19.0298 50.9565 19.0595 50.9565L19.2871 50.9699C19.3169 50.9699 19.3318 50.9847 19.3318 51.0145V51.0457C19.3318 51.3076 19.2485 51.5188 19.0818 51.6795C18.9182 51.8372 18.6995 51.9161 18.4257 51.9161ZM20.0029 51.8804C19.9731 51.8804 19.9583 51.8655 19.9583 51.8357V48.8007C19.9583 48.771 19.9731 48.7561 20.0029 48.7561H20.2305C20.2603 48.7561 20.2752 48.771 20.2752 48.8007V50.2825C20.2752 50.2885 20.2781 50.2929 20.2841 50.2959C20.29 50.2959 20.2945 50.2929 20.2975 50.287L21.4311 48.7829C21.443 48.765 21.4624 48.7561 21.4892 48.7561H21.7391C21.757 48.7561 21.7689 48.762 21.7748 48.7739C21.7808 48.7829 21.7778 48.7948 21.7659 48.8096L20.8732 50.0326C20.8703 50.0415 20.8703 50.0504 20.8732 50.0594L21.8462 51.8268C21.8522 51.8387 21.8552 51.8476 21.8552 51.8536C21.8552 51.8714 21.8418 51.8804 21.815 51.8804H21.5561C21.5293 51.8804 21.5115 51.87 21.5026 51.8491L20.6545 50.3093C20.6486 50.2944 20.6411 50.2944 20.6322 50.3093L20.2841 50.7512C20.2781 50.7571 20.2752 50.7646 20.2752 50.7735V51.8357C20.2752 51.8655 20.2603 51.8804 20.2305 51.8804H20.0029ZM23.4728 51.5813C23.4639 51.5962 23.4669 51.6036 23.4818 51.6036H24.7092C24.7389 51.6036 24.7538 51.6185 24.7538 51.6483V51.8357C24.7538 51.8655 24.7389 51.8804 24.7092 51.8804H23.1202C23.0905 51.8804 23.0756 51.8655 23.0756 51.8357V51.6394C23.0756 51.6215 23.0816 51.6022 23.0935 51.5813C23.3613 51.2183 23.6603 50.8017 23.9906 50.3316C24.2256 49.9894 24.3432 49.7157 24.3432 49.5104C24.3432 49.3557 24.2985 49.2322 24.2093 49.1399C24.12 49.0447 24.0025 48.9971 23.8567 48.9971C23.7139 48.9971 23.5993 49.0447 23.513 49.1399C23.4267 49.2322 23.3851 49.3557 23.388 49.5104V49.6621C23.388 49.6919 23.3732 49.7068 23.3434 49.7068H23.1113C23.0816 49.7068 23.0667 49.6919 23.0667 49.6621V49.4836C23.0726 49.2545 23.1485 49.07 23.2943 48.9302C23.4431 48.7903 23.6335 48.7204 23.8656 48.7204C24.1037 48.7204 24.2956 48.7933 24.4414 48.9391C24.5872 49.0849 24.6601 49.2753 24.6601 49.5104C24.6601 49.7722 24.5381 50.0817 24.2941 50.4387C24.1423 50.6589 23.9028 50.9922 23.5755 51.4385L23.4728 51.5813ZM26.0649 51.925C25.809 51.925 25.6037 51.8476 25.449 51.6929C25.2942 51.5382 25.2169 51.3314 25.2169 51.0725V49.5639C25.2169 49.308 25.2942 49.1027 25.449 48.948C25.6037 48.7933 25.809 48.7159 26.0649 48.7159C26.3238 48.7159 26.5306 48.7933 26.6853 48.948C26.843 49.1027 26.9218 49.308 26.9218 49.5639V51.0725C26.9218 51.3314 26.843 51.5382 26.6853 51.6929C26.5306 51.8476 26.3238 51.925 26.0649 51.925ZM26.0649 51.6483C26.2285 51.6483 26.3595 51.5977 26.4577 51.4965C26.5558 51.3954 26.6049 51.2615 26.6049 51.0948V49.5461C26.6049 49.3795 26.5558 49.2456 26.4577 49.1444C26.3595 49.0432 26.2285 48.9926 26.0649 48.9926C25.9072 48.9926 25.7792 49.0432 25.681 49.1444C25.5829 49.2456 25.5338 49.3795 25.5338 49.5461V51.0948C25.5338 51.2585 25.5829 51.3924 25.681 51.4965C25.7792 51.5977 25.9072 51.6483 26.0649 51.6483ZM28.1979 49.9835C28.0819 49.9835 27.9747 49.9552 27.8766 49.8987C27.7813 49.8421 27.7055 49.7663 27.6489 49.6711C27.5924 49.5729 27.5641 49.4657 27.5641 49.3497C27.5641 49.2337 27.5924 49.128 27.6489 49.0328C27.7055 48.9346 27.7813 48.8573 27.8766 48.8007C27.9747 48.7442 28.0819 48.7159 28.1979 48.7159C28.311 48.7159 28.4151 48.7442 28.5103 48.8007C28.6085 48.8573 28.6859 48.9346 28.7424 49.0328C28.799 49.128 28.8272 49.2337 28.8272 49.3497C28.8272 49.4657 28.799 49.5729 28.7424 49.6711C28.6859 49.7663 28.6085 49.8421 28.5103 49.8987C28.4151 49.9552 28.311 49.9835 28.1979 49.9835ZM28.0953 51.8804C28.0804 51.8804 28.0685 51.8759 28.0595 51.867C28.0536 51.8551 28.0551 51.8417 28.064 51.8268L29.7243 48.7873C29.7333 48.7665 29.7511 48.7561 29.7779 48.7561H29.9207C29.9356 48.7561 29.946 48.762 29.952 48.7739C29.9609 48.7829 29.9609 48.7948 29.952 48.8096L28.2916 51.8491C28.2827 51.87 28.2649 51.8804 28.2381 51.8804H28.0953ZM28.1979 49.7871C28.3169 49.7871 28.4166 49.7454 28.4969 49.6621C28.5803 49.5758 28.6219 49.4717 28.6219 49.3497C28.6219 49.2277 28.5803 49.125 28.4969 49.0417C28.4166 48.9554 28.3169 48.9123 28.1979 48.9123C28.0789 48.9123 27.9777 48.9554 27.8944 49.0417C27.8111 49.125 27.7694 49.2277 27.7694 49.3497C27.7694 49.4717 27.8111 49.5758 27.8944 49.6621C27.9777 49.7454 28.0789 49.7871 28.1979 49.7871ZM29.8359 51.9205C29.7199 51.9205 29.6128 51.8923 29.5146 51.8357C29.4194 51.7792 29.3435 51.7018 29.2869 51.6036C29.2304 51.5055 29.2021 51.3983 29.2021 51.2823C29.2021 51.1692 29.2304 51.0651 29.2869 50.9699C29.3435 50.8717 29.4194 50.7943 29.5146 50.7378C29.6128 50.6812 29.7199 50.653 29.8359 50.653C29.949 50.653 30.0531 50.6812 30.1484 50.7378C30.2465 50.7943 30.3239 50.8717 30.3804 50.9699C30.437 51.0651 30.4652 51.1692 30.4652 51.2823C30.4652 51.3983 30.437 51.5055 30.3804 51.6036C30.3239 51.7018 30.2465 51.7792 30.1484 51.8357C30.0531 51.8923 29.949 51.9205 29.8359 51.9205ZM29.8359 51.7242C29.9549 51.7242 30.0546 51.681 30.135 51.5947C30.2183 51.5084 30.2599 51.4043 30.2599 51.2823C30.2599 51.1603 30.2183 51.0576 30.135 50.9743C30.0546 50.891 29.9549 50.8494 29.8359 50.8494C29.7169 50.8494 29.6157 50.891 29.5324 50.9743C29.4491 51.0576 29.4075 51.1603 29.4075 51.2823C29.4075 51.4073 29.4476 51.5129 29.528 51.5992C29.6113 51.6825 29.7139 51.7242 29.8359 51.7242Z" fill="#404040"/>
<path d="M2.03407 8.2677C2.01027 8.2677 1.9939 8.2558 1.98498 8.23199L1.43153 6.85284C1.42856 6.84392 1.4226 6.83945 1.41368 6.83945H0.837917C0.826015 6.83945 0.820064 6.84541 0.820064 6.85731V8.22307C0.820064 8.25282 0.805186 8.2677 0.775431 8.2677H0.547805C0.51805 8.2677 0.503172 8.25282 0.503172 8.22307V5.18805C0.503172 5.15829 0.51805 5.14341 0.547805 5.14341H1.49402C1.64874 5.14341 1.78562 5.17912 1.90464 5.25053C2.02663 5.32194 2.12036 5.42311 2.18582 5.55403C2.25426 5.68496 2.28848 5.83522 2.28848 6.00482C2.28848 6.20716 2.23938 6.37974 2.14119 6.52256C2.043 6.66539 1.9091 6.7606 1.7395 6.80821C1.72759 6.81416 1.72462 6.8216 1.73057 6.83053L2.30633 8.21414L2.3108 8.23199C2.3108 8.2558 2.29741 8.2677 2.27063 8.2677H2.03407ZM0.837917 5.42014C0.826015 5.42014 0.820064 5.42609 0.820064 5.43799V6.5672C0.820064 6.5791 0.826015 6.58505 0.837917 6.58505H1.45385C1.60857 6.58505 1.73355 6.53149 1.82876 6.42437C1.92398 6.31725 1.97159 6.1774 1.97159 6.00482C1.97159 5.82927 1.92398 5.68793 1.82876 5.58081C1.73355 5.4737 1.60857 5.42014 1.45385 5.42014H0.837917ZM2.90584 8.2677C2.87608 8.2677 2.86121 8.25282 2.86121 8.22307V5.18805C2.86121 5.15829 2.87608 5.14341 2.90584 5.14341H3.13347C3.16322 5.14341 3.1781 5.15829 3.1781 5.18805V8.22307C3.1781 8.25282 3.16322 8.2677 3.13347 8.2677H2.90584ZM4.67465 8.30341C4.39495 8.30341 4.17179 8.23051 4.00516 8.08471C3.84151 7.93593 3.75968 7.73806 3.75968 7.49109V7.37058C3.75968 7.34083 3.77456 7.32595 3.80432 7.32595H4.02302C4.05277 7.32595 4.06765 7.34083 4.06765 7.37058V7.47324C4.06765 7.63987 4.12418 7.77377 4.23725 7.87493C4.35032 7.9761 4.50059 8.02668 4.68804 8.02668C4.8636 8.02668 5.00196 7.97908 5.10313 7.88386C5.20429 7.78864 5.25488 7.66367 5.25488 7.50894C5.25488 7.40778 5.23107 7.32 5.18346 7.24561C5.13586 7.17122 5.06593 7.10279 4.97369 7.0403C4.88145 6.97782 4.74904 6.89897 4.57646 6.80375C4.39198 6.70556 4.24618 6.61927 4.13906 6.54488C4.03492 6.47049 3.95012 6.37974 3.88465 6.27262C3.81919 6.1655 3.78646 6.03458 3.78646 5.87985C3.78646 5.63884 3.86383 5.44989 4.01855 5.31302C4.17328 5.17614 4.38008 5.10771 4.63895 5.10771C4.91567 5.10771 5.13586 5.18358 5.29951 5.33533C5.46316 5.48709 5.54499 5.68793 5.54499 5.93788V6.04053C5.54499 6.07029 5.53011 6.08516 5.50036 6.08516H5.27719C5.24744 6.08516 5.23256 6.07029 5.23256 6.04053V5.94234C5.23256 5.77571 5.179 5.64181 5.07188 5.54064C4.96476 5.4365 4.81748 5.38443 4.63002 5.38443C4.46339 5.38443 4.33247 5.42757 4.23725 5.51386C4.14501 5.60015 4.09889 5.72215 4.09889 5.87985C4.09889 5.98102 4.12121 6.06582 4.16584 6.13426C4.21047 6.2027 4.27445 6.26518 4.35776 6.32172C4.44405 6.37825 4.57497 6.45413 4.75053 6.54934C4.95286 6.66241 5.10759 6.75912 5.21471 6.83945C5.3248 6.91682 5.41109 7.00757 5.47358 7.11171C5.53904 7.21288 5.57177 7.33785 5.57177 7.48663C5.57177 7.73657 5.49143 7.93593 5.33075 8.08471C5.17008 8.23051 4.95138 8.30341 4.67465 8.30341ZM6.19663 8.2677C6.16687 8.2677 6.15199 8.25282 6.15199 8.22307V5.18805C6.15199 5.15829 6.16687 5.14341 6.19663 5.14341H6.42425C6.45401 5.14341 6.46889 5.15829 6.46889 5.18805V8.22307C6.46889 8.25282 6.45401 8.2677 6.42425 8.2677H6.19663ZM8.76436 5.18805C8.76436 5.15829 8.77924 5.14341 8.809 5.14341H9.03662C9.06638 5.14341 9.08126 5.15829 9.08126 5.18805V8.22307C9.08126 8.25282 9.06638 8.2677 9.03662 8.2677H8.79561C8.76883 8.2677 8.75097 8.25729 8.74205 8.23646L7.54589 5.84861C7.53994 5.84266 7.53399 5.83968 7.52804 5.83968C7.52506 5.83968 7.52358 5.84415 7.52358 5.85307L7.52804 8.22307C7.52804 8.25282 7.51316 8.2677 7.48341 8.2677H7.25578C7.22603 8.2677 7.21115 8.25282 7.21115 8.22307V5.18805C7.21115 5.15829 7.22603 5.14341 7.25578 5.14341H7.4968C7.52358 5.14341 7.54143 5.15383 7.55036 5.17466L8.74651 7.57143C8.75246 7.57738 8.75693 7.58036 8.7599 7.58036C8.76585 7.58036 8.76883 7.57589 8.76883 7.56697L8.76436 5.18805ZM10.6388 8.30341C10.368 8.30341 10.1493 8.22456 9.98266 8.06685C9.81901 7.90915 9.73718 7.69938 9.73718 7.43753V5.97358C9.73718 5.71174 9.81901 5.50196 9.98266 5.34426C10.1493 5.18656 10.368 5.10771 10.6388 5.10771C10.8173 5.10771 10.9735 5.14341 11.1074 5.21483C11.2443 5.28624 11.3499 5.38592 11.4243 5.51386C11.5017 5.64181 11.5403 5.7891 11.5403 5.95573V6.0807C11.5403 6.11045 11.5255 6.12533 11.4957 6.12533H11.2681C11.2383 6.12533 11.2235 6.11045 11.2235 6.0807V5.95573C11.2235 5.78612 11.1699 5.64925 11.0628 5.54511C10.9557 5.43799 10.8143 5.38443 10.6388 5.38443C10.4632 5.38443 10.3219 5.43799 10.2148 5.54511C10.1076 5.64925 10.0541 5.7891 10.0541 5.96465V7.44646C10.0541 7.61904 10.1076 7.75889 10.2148 7.86601C10.3248 7.97312 10.4677 8.02668 10.6432 8.02668C10.8188 8.02668 10.9586 7.9761 11.0628 7.87493C11.1699 7.77377 11.2235 7.63689 11.2235 7.46431V6.97782C11.2235 6.96591 11.2175 6.95996 11.2056 6.95996H10.6834C10.6536 6.95996 10.6388 6.94509 10.6388 6.91533V6.72787C10.6388 6.69812 10.6536 6.68324 10.6834 6.68324H11.4957C11.5255 6.68324 11.5403 6.69812 11.5403 6.72787V7.42414C11.5403 7.69491 11.4585 7.90915 11.2949 8.06685C11.1312 8.22456 10.9125 8.30341 10.6388 8.30341ZM13.8453 8.30341C13.5656 8.30341 13.3424 8.23051 13.1758 8.08471C13.0121 7.93593 12.9303 7.73806 12.9303 7.49109V7.37058C12.9303 7.34083 12.9452 7.32595 12.9749 7.32595H13.1936C13.2234 7.32595 13.2383 7.34083 13.2383 7.37058V7.47324C13.2383 7.63987 13.2948 7.77377 13.4079 7.87493C13.5209 7.9761 13.6712 8.02668 13.8587 8.02668C14.0342 8.02668 14.1726 7.97908 14.2737 7.88386C14.3749 7.78864 14.4255 7.66367 14.4255 7.50894C14.4255 7.40778 14.4017 7.32 14.3541 7.24561C14.3065 7.17122 14.2365 7.10279 14.1443 7.0403C14.0521 6.97782 13.9197 6.89897 13.7471 6.80375C13.5626 6.70556 13.4168 6.61927 13.3097 6.54488C13.2055 6.47049 13.1207 6.37974 13.0553 6.27262C12.9898 6.1655 12.9571 6.03458 12.9571 5.87985C12.9571 5.63884 13.0344 5.44989 13.1892 5.31302C13.3439 5.17614 13.5507 5.10771 13.8096 5.10771C14.0863 5.10771 14.3065 5.18358 14.4701 5.33533C14.6338 5.48709 14.7156 5.68793 14.7156 5.93788V6.04053C14.7156 6.07029 14.7007 6.08516 14.671 6.08516H14.4478C14.4181 6.08516 14.4032 6.07029 14.4032 6.04053V5.94234C14.4032 5.77571 14.3496 5.64181 14.2425 5.54064C14.1354 5.4365 13.9881 5.38443 13.8006 5.38443C13.634 5.38443 13.5031 5.42757 13.4079 5.51386C13.3156 5.60015 13.2695 5.72215 13.2695 5.87985C13.2695 5.98102 13.2918 6.06582 13.3365 6.13426C13.3811 6.2027 13.4451 6.26518 13.5284 6.32172C13.6147 6.37825 13.7456 6.45413 13.9211 6.54934C14.1235 6.66241 14.2782 6.75912 14.3853 6.83945C14.4954 6.91682 14.5817 7.00757 14.6442 7.11171C14.7097 7.21288 14.7424 7.33785 14.7424 7.48663C14.7424 7.73657 14.662 7.93593 14.5014 8.08471C14.3407 8.23051 14.122 8.30341 13.8453 8.30341ZM16.8688 5.14341C16.8985 5.14341 16.9134 5.15829 16.9134 5.18805V5.3755C16.9134 5.40526 16.8985 5.42014 16.8688 5.42014H16.1413C16.1294 5.42014 16.1234 5.42609 16.1234 5.43799V8.22307C16.1234 8.25282 16.1085 8.2677 16.0788 8.2677H15.8512C15.8214 8.2677 15.8065 8.25282 15.8065 8.22307V5.43799C15.8065 5.42609 15.8006 5.42014 15.7887 5.42014H15.0879C15.0582 5.42014 15.0433 5.40526 15.0433 5.3755V5.18805C15.0433 5.15829 15.0582 5.14341 15.0879 5.14341H16.8688ZM18.7709 8.2677C18.7441 8.2677 18.7278 8.25431 18.7218 8.22753L18.5745 7.66962C18.5715 7.6607 18.5641 7.65623 18.5522 7.65623H17.4855C17.4736 7.65623 17.4661 7.6607 17.4632 7.66962L17.3159 8.22753C17.3099 8.25431 17.2936 8.2677 17.2668 8.2677H17.0347C17.0198 8.2677 17.0079 8.26324 16.999 8.25431C16.993 8.24538 16.9915 8.23348 16.9945 8.2186L17.8292 5.18358C17.8351 5.1568 17.8515 5.14341 17.8783 5.14341H18.1639C18.1907 5.14341 18.207 5.1568 18.213 5.18358L19.0476 8.2186L19.0521 8.23199C19.0521 8.2558 19.0372 8.2677 19.0075 8.2677H18.7709ZM17.539 7.37951C17.5361 7.38249 17.5361 7.38695 17.539 7.3929C17.545 7.39588 17.5509 7.39736 17.5569 7.39736H18.4808C18.4867 7.39736 18.4912 7.39588 18.4942 7.3929C18.5001 7.38695 18.5016 7.38249 18.4986 7.37951L18.0255 5.58528C18.0226 5.57933 18.0196 5.57635 18.0166 5.57635C18.0136 5.57635 18.0107 5.57933 18.0077 5.58528L17.539 7.37951ZM21.0553 8.2677C21.0315 8.2677 21.0151 8.2558 21.0062 8.23199L20.4527 6.85284C20.4497 6.84392 20.4438 6.83945 20.4349 6.83945H19.8591C19.8472 6.83945 19.8413 6.84541 19.8413 6.85731V8.22307C19.8413 8.25282 19.8264 8.2677 19.7966 8.2677H19.569C19.5392 8.2677 19.5244 8.25282 19.5244 8.22307V5.18805C19.5244 5.15829 19.5392 5.14341 19.569 5.14341H20.5152C20.6699 5.14341 20.8068 5.17912 20.9258 5.25053C21.0478 5.32194 21.1415 5.42311 21.207 5.55403C21.2754 5.68496 21.3097 5.83522 21.3097 6.00482C21.3097 6.20716 21.2606 6.37974 21.1624 6.52256C21.0642 6.66539 20.9303 6.7606 20.7607 6.80821C20.7488 6.81416 20.7458 6.8216 20.7518 6.83053L21.3275 8.21414L21.332 8.23199C21.332 8.2558 21.3186 8.2677 21.2918 8.2677H21.0553ZM19.8591 5.42014C19.8472 5.42014 19.8413 5.42609 19.8413 5.43799V6.5672C19.8413 6.5791 19.8472 6.58505 19.8591 6.58505H20.475C20.6298 6.58505 20.7547 6.53149 20.8499 6.42437C20.9452 6.31725 20.9928 6.1774 20.9928 6.00482C20.9928 5.82927 20.9452 5.68793 20.8499 5.58081C20.7547 5.4737 20.6298 5.42014 20.475 5.42014H19.8591ZM24.1194 6.7859C24.1759 6.94062 24.2042 7.11767 24.2042 7.31702C24.2042 7.49556 24.1818 7.65028 24.1372 7.7812C24.0271 8.12934 23.7831 8.30341 23.4052 8.30341C23.2029 8.30341 23.0333 8.24985 22.8964 8.14273C22.7596 8.03263 22.6718 7.88237 22.6331 7.69194C22.6123 7.59672 22.6018 7.48812 22.6018 7.36612C22.6018 7.33637 22.6167 7.32149 22.6465 7.32149H22.8741C22.9039 7.32149 22.9187 7.33637 22.9187 7.36612C22.9247 7.49407 22.9321 7.58036 22.9411 7.62499C22.9678 7.74996 23.0214 7.84815 23.1017 7.91957C23.1821 7.99098 23.2832 8.02668 23.4052 8.02668C23.6344 8.02668 23.7831 7.91064 23.8516 7.67855C23.8783 7.57143 23.8917 7.44348 23.8917 7.29471C23.8917 7.11618 23.8724 6.96889 23.8337 6.85284C23.7563 6.64456 23.6135 6.54042 23.4052 6.54042C23.3576 6.54042 23.316 6.54934 23.2803 6.5672C23.2624 6.57315 23.252 6.57612 23.249 6.57612C23.2371 6.57612 23.2267 6.57017 23.2178 6.55827L23.1017 6.43776C23.0869 6.41693 23.0854 6.3961 23.0973 6.37528L23.7935 5.44245C23.7995 5.4365 23.801 5.43204 23.798 5.42906C23.795 5.42311 23.7906 5.42014 23.7846 5.42014H22.6688C22.639 5.42014 22.6242 5.40526 22.6242 5.3755V5.18805C22.6242 5.15829 22.639 5.14341 22.6688 5.14341H24.1461C24.1759 5.14341 24.1908 5.15829 24.1908 5.18805V5.38889C24.1908 5.4127 24.1848 5.43204 24.1729 5.44692L23.5257 6.33064C23.5228 6.33362 23.5228 6.33808 23.5257 6.34403C23.5287 6.34998 23.5332 6.35296 23.5391 6.35296C23.679 6.35891 23.798 6.39908 23.8962 6.47347C23.9944 6.54785 24.0688 6.652 24.1194 6.7859ZM25.5874 8.31233C25.3315 8.31233 25.1262 8.23497 24.9715 8.08024C24.8167 7.92552 24.7394 7.71872 24.7394 7.45985V5.95126C24.7394 5.69537 24.8167 5.49006 24.9715 5.33533C25.1262 5.18061 25.3315 5.10324 25.5874 5.10324C25.8463 5.10324 26.0531 5.18061 26.2078 5.33533C26.3655 5.49006 26.4443 5.69537 26.4443 5.95126V7.45985C26.4443 7.71872 26.3655 7.92552 26.2078 8.08024C26.0531 8.23497 25.8463 8.31233 25.5874 8.31233ZM25.5874 8.03561C25.751 8.03561 25.882 7.98503 25.9802 7.88386C26.0784 7.78269 26.1274 7.64879 26.1274 7.48217V5.93341C26.1274 5.76678 26.0784 5.63289 25.9802 5.53172C25.882 5.43055 25.751 5.37997 25.5874 5.37997C25.4297 5.37997 25.3017 5.43055 25.2036 5.53172C25.1054 5.63289 25.0563 5.76678 25.0563 5.93341V7.48217C25.0563 7.64582 25.1054 7.77972 25.2036 7.88386C25.3017 7.98503 25.4297 8.03561 25.5874 8.03561ZM27.7204 6.37081C27.6044 6.37081 27.4973 6.34254 27.3991 6.28601C27.3038 6.22948 27.228 6.1536 27.1714 6.05838C27.1149 5.96019 27.0866 5.85307 27.0866 5.73703C27.0866 5.62098 27.1149 5.51535 27.1714 5.42014C27.228 5.32194 27.3038 5.24458 27.3991 5.18805C27.4973 5.13151 27.6044 5.10324 27.7204 5.10324C27.8335 5.10324 27.9376 5.13151 28.0328 5.18805C28.131 5.24458 28.2084 5.32194 28.2649 5.42014C28.3215 5.51535 28.3497 5.62098 28.3497 5.73703C28.3497 5.85307 28.3215 5.96019 28.2649 6.05838C28.2084 6.1536 28.131 6.22948 28.0328 6.28601C27.9376 6.34254 27.8335 6.37081 27.7204 6.37081ZM27.6178 8.2677C27.6029 8.2677 27.591 8.26324 27.5821 8.25431C27.5761 8.24241 27.5776 8.22902 27.5865 8.21414L29.2469 5.17466C29.2558 5.15383 29.2736 5.14341 29.3004 5.14341H29.4432C29.4581 5.14341 29.4685 5.14936 29.4745 5.16127C29.4834 5.17019 29.4834 5.1821 29.4745 5.19697L27.8141 8.23646C27.8052 8.25729 27.7874 8.2677 27.7606 8.2677H27.6178ZM27.7204 6.17443C27.8394 6.17443 27.9391 6.13277 28.0195 6.04946C28.1028 5.96317 28.1444 5.85902 28.1444 5.73703C28.1444 5.61503 28.1028 5.51238 28.0195 5.42906C27.9391 5.34277 27.8394 5.29963 27.7204 5.29963C27.6014 5.29963 27.5002 5.34277 27.4169 5.42906C27.3336 5.51238 27.2919 5.61503 27.2919 5.73703C27.2919 5.85902 27.3336 5.96317 27.4169 6.04946C27.5002 6.13277 27.6014 6.17443 27.7204 6.17443ZM29.3584 8.30787C29.2424 8.30787 29.1353 8.2796 29.0371 8.22307C28.9419 8.16653 28.866 8.08917 28.8095 7.99098C28.7529 7.89279 28.7246 7.78567 28.7246 7.66962C28.7246 7.55655 28.7529 7.45241 28.8095 7.35719C28.866 7.259 28.9419 7.18164 29.0371 7.1251C29.1353 7.06857 29.2424 7.0403 29.3584 7.0403C29.4715 7.0403 29.5756 7.06857 29.6709 7.1251C29.7691 7.18164 29.8464 7.259 29.903 7.35719C29.9595 7.45241 29.9878 7.55655 29.9878 7.66962C29.9878 7.78567 29.9595 7.89279 29.903 7.99098C29.8464 8.08917 29.7691 8.16653 29.6709 8.22307C29.5756 8.2796 29.4715 8.30787 29.3584 8.30787ZM29.3584 8.11149C29.4775 8.11149 29.5771 8.06834 29.6575 7.98205C29.7408 7.89576 29.7824 7.79162 29.7824 7.66962C29.7824 7.54763 29.7408 7.44497 29.6575 7.36166C29.5771 7.27834 29.4775 7.23669 29.3584 7.23669C29.2394 7.23669 29.1382 7.27834 29.0549 7.36166C28.9716 7.44497 28.93 7.54763 28.93 7.66962C28.93 7.79459 28.9701 7.90022 29.0505 7.98651C29.1338 8.06983 29.2364 8.11149 29.3584 8.11149Z" fill="#404040"/>
<path d="M63.988 42.1234L66.53 45.3867H77.0612" stroke="black" stroke-width="0.145684"/>
<path d="M68.1904 43.9479C68.1606 43.9479 68.1457 43.9331 68.1457 43.9033V40.8683C68.1457 40.8385 68.1606 40.8237 68.1904 40.8237H68.418C68.4477 40.8237 68.4626 40.8385 68.4626 40.8683V43.6534C68.4626 43.6653 68.4686 43.6712 68.4805 43.6712H69.7793C69.809 43.6712 69.8239 43.6861 69.8239 43.7158V43.9033C69.8239 43.9331 69.809 43.9479 69.7793 43.9479H68.1904ZM72.0173 41.0557C72.0173 41.0855 72.0024 41.1004 71.9726 41.1004H70.6336C70.6217 41.1004 70.6158 41.1063 70.6158 41.1182V42.2251C70.6158 42.237 70.6217 42.243 70.6336 42.243H71.5352C71.565 42.243 71.5799 42.2578 71.5799 42.2876V42.4751C71.5799 42.5048 71.565 42.5197 71.5352 42.5197H70.6336C70.6217 42.5197 70.6158 42.5256 70.6158 42.5375V43.6534C70.6158 43.6653 70.6217 43.6712 70.6336 43.6712H71.9726C72.0024 43.6712 72.0173 43.6861 72.0173 43.7158V43.9033C72.0173 43.9331 72.0024 43.9479 71.9726 43.9479H70.3435C70.3138 43.9479 70.2989 43.9331 70.2989 43.9033V40.8683C70.2989 40.8385 70.3138 40.8237 70.3435 40.8237H71.9726C72.0024 40.8237 72.0173 40.8385 72.0173 40.8683V41.0557ZM74.2962 40.8549C74.3111 40.8341 74.3289 40.8237 74.3498 40.8237H74.5819C74.6116 40.8237 74.6265 40.8385 74.6265 40.8683V43.9033C74.6265 43.9331 74.6116 43.9479 74.5819 43.9479H74.3542C74.3245 43.9479 74.3096 43.9331 74.3096 43.9033V41.4753C74.3096 41.4664 74.3066 41.4604 74.3007 41.4574C74.2947 41.4545 74.2903 41.4574 74.2873 41.4664L73.6937 42.4974C73.6788 42.5182 73.6609 42.5286 73.6401 42.5286H73.591C73.5702 42.5286 73.5523 42.5182 73.5375 42.4974L72.9394 41.4708C72.9364 41.4619 72.9319 41.4589 72.926 41.4619C72.92 41.4649 72.9171 41.4708 72.9171 41.4798V43.9033C72.9171 43.9331 72.9022 43.9479 72.8724 43.9479H72.6448C72.615 43.9479 72.6002 43.9331 72.6002 43.9033V40.8683C72.6002 40.8385 72.615 40.8237 72.6448 40.8237H72.8769C72.8977 40.8237 72.9156 40.8341 72.9304 40.8549L73.6044 42.002C73.6074 42.0049 73.6118 42.0064 73.6178 42.0064C73.6237 42.0064 73.6282 42.0049 73.6312 42.002L74.2962 40.8549ZM76.1938 43.9836C76.0123 43.9836 75.8516 43.9464 75.7118 43.8721C75.5749 43.7947 75.4678 43.6876 75.3904 43.5507C75.316 43.4138 75.2789 43.2561 75.2789 43.0776V41.6985C75.2789 41.5199 75.316 41.3622 75.3904 41.2253C75.4678 41.0855 75.5749 40.9784 75.7118 40.904C75.8516 40.8266 76.0123 40.7879 76.1938 40.7879C76.3753 40.7879 76.5345 40.8266 76.6714 40.904C76.8112 40.9784 76.9199 41.0855 76.9972 41.2253C77.0746 41.3622 77.1133 41.5199 77.1133 41.6985V43.0776C77.1133 43.2561 77.0746 43.4138 76.9972 43.5507C76.9199 43.6876 76.8112 43.7947 76.6714 43.8721C76.5345 43.9464 76.3753 43.9836 76.1938 43.9836ZM76.1938 43.7069C76.3753 43.7069 76.5211 43.6504 76.6312 43.5373C76.7413 43.4242 76.7964 43.2755 76.7964 43.091V41.6895C76.7964 41.5021 76.7413 41.3518 76.6312 41.2387C76.5211 41.1227 76.3753 41.0647 76.1938 41.0647C76.0153 41.0647 75.871 41.1227 75.7609 41.2387C75.6508 41.3518 75.5957 41.5021 75.5957 41.6895V43.091C75.5957 43.2755 75.6508 43.4242 75.7609 43.5373C75.871 43.6504 76.0153 43.7069 76.1938 43.7069ZM79.3229 40.8683C79.3229 40.8385 79.3377 40.8237 79.3675 40.8237H79.5951C79.6249 40.8237 79.6397 40.8385 79.6397 40.8683V43.9033C79.6397 43.9331 79.6249 43.9479 79.5951 43.9479H79.3541C79.3273 43.9479 79.3095 43.9375 79.3005 43.9167L78.1044 41.5288C78.0984 41.5229 78.0925 41.5199 78.0865 41.5199C78.0836 41.5199 78.0821 41.5244 78.0821 41.5333L78.0865 43.9033C78.0865 43.9331 78.0717 43.9479 78.0419 43.9479H77.8143C77.7845 43.9479 77.7696 43.9331 77.7696 43.9033V40.8683C77.7696 40.8385 77.7845 40.8237 77.8143 40.8237H78.0553C78.0821 40.8237 78.0999 40.8341 78.1088 40.8549L79.305 43.2517C79.311 43.2576 79.3154 43.2606 79.3184 43.2606C79.3243 43.2606 79.3273 43.2561 79.3273 43.2472L79.3229 40.8683ZM82.9656 40.8549C82.9805 40.8341 82.9983 40.8237 83.0191 40.8237H83.2512C83.281 40.8237 83.2959 40.8385 83.2959 40.8683V43.9033C83.2959 43.9331 83.281 43.9479 83.2512 43.9479H83.0236C82.9938 43.9479 82.979 43.9331 82.979 43.9033V41.4753C82.979 41.4664 82.976 41.4604 82.97 41.4574C82.9641 41.4545 82.9596 41.4574 82.9567 41.4664L82.363 42.4974C82.3482 42.5182 82.3303 42.5286 82.3095 42.5286H82.2604C82.2396 42.5286 82.2217 42.5182 82.2068 42.4974L81.6087 41.4708C81.6058 41.4619 81.6013 41.4589 81.5954 41.4619C81.5894 41.4649 81.5864 41.4708 81.5864 41.4798V43.9033C81.5864 43.9331 81.5716 43.9479 81.5418 43.9479H81.3142C81.2844 43.9479 81.2695 43.9331 81.2695 43.9033V40.8683C81.2695 40.8385 81.2844 40.8237 81.3142 40.8237H81.5463C81.5671 40.8237 81.5849 40.8341 81.5998 40.8549L82.2738 42.002C82.2767 42.0049 82.2812 42.0064 82.2872 42.0064C82.2931 42.0064 82.2976 42.0049 82.3006 42.002L82.9656 40.8549ZM84.0777 43.9479C84.0479 43.9479 84.033 43.9331 84.033 43.9033V40.8683C84.033 40.8385 84.0479 40.8237 84.0777 40.8237H84.3053C84.335 40.8237 84.3499 40.8385 84.3499 40.8683V43.9033C84.3499 43.9331 84.335 43.9479 84.3053 43.9479H84.0777ZM86.6454 40.8683C86.6454 40.8385 86.6603 40.8237 86.69 40.8237H86.9177C86.9474 40.8237 86.9623 40.8385 86.9623 40.8683V43.9033C86.9623 43.9331 86.9474 43.9479 86.9177 43.9479H86.6766C86.6499 43.9479 86.632 43.9375 86.6231 43.9167L85.4269 41.5288C85.421 41.5229 85.415 41.5199 85.4091 41.5199C85.4061 41.5199 85.4046 41.5244 85.4046 41.5333L85.4091 43.9033C85.4091 43.9331 85.3942 43.9479 85.3644 43.9479H85.1368C85.1071 43.9479 85.0922 43.9331 85.0922 43.9033V40.8683C85.0922 40.8385 85.1071 40.8237 85.1368 40.8237H85.3778C85.4046 40.8237 85.4225 40.8341 85.4314 40.8549L86.6275 43.2517C86.6335 43.2576 86.638 43.2606 86.6409 43.2606C86.6469 43.2606 86.6499 43.2561 86.6499 43.2472L86.6454 40.8683ZM89.3276 40.8237C89.3574 40.8237 89.3723 40.8385 89.3723 40.8683V41.0557C89.3723 41.0855 89.3574 41.1004 89.3276 41.1004H88.6001C88.5882 41.1004 88.5823 41.1063 88.5823 41.1182V43.9033C88.5823 43.9331 88.5674 43.9479 88.5377 43.9479H88.31C88.2803 43.9479 88.2654 43.9331 88.2654 43.9033V41.1182C88.2654 41.1063 88.2594 41.1004 88.2475 41.1004H87.5468C87.5171 41.1004 87.5022 41.0855 87.5022 41.0557V40.8683C87.5022 40.8385 87.5171 40.8237 87.5468 40.8237H89.3276ZM69.5829 47.5063C69.6216 47.6462 69.6409 47.8068 69.6409 47.9883C69.6409 48.1401 69.6275 48.271 69.6007 48.3811C69.5561 48.5745 69.4668 48.7233 69.3329 48.8274C69.202 48.9316 69.0369 48.9836 68.8375 48.9836C68.6352 48.9836 68.4671 48.9301 68.3332 48.823C68.1993 48.7158 68.1115 48.5656 68.0698 48.3722C68.055 48.3186 68.046 48.2636 68.0431 48.207V48.1981C68.0431 48.1743 68.0565 48.1624 68.0832 48.1624H68.3153C68.3421 48.1624 68.357 48.1743 68.36 48.1981V48.216L68.3778 48.3052C68.4046 48.4332 68.4567 48.5314 68.534 48.5998C68.6144 48.6682 68.7155 48.7025 68.8375 48.7025C68.9565 48.7025 69.0547 48.6682 69.1321 48.5998C69.2124 48.5284 69.266 48.4287 69.2928 48.3008C69.3136 48.2174 69.324 48.1148 69.324 47.9928C69.324 47.8797 69.3121 47.7637 69.2883 47.6447C69.2615 47.5256 69.2095 47.4364 69.1321 47.3769C69.0547 47.3144 68.9565 47.2831 68.8375 47.2831C68.7245 47.2831 68.6263 47.3099 68.543 47.3635C68.4626 47.4141 68.4061 47.4884 68.3733 47.5866L68.3644 47.6045C68.3614 47.6253 68.3466 47.6357 68.3198 47.6357H68.0832C68.0535 47.6357 68.0386 47.6209 68.0386 47.5911V45.8683C68.0386 45.8385 68.0535 45.8237 68.0832 45.8237H69.4981C69.5278 45.8237 69.5427 45.8385 69.5427 45.8683V46.0557C69.5427 46.0855 69.5278 46.1004 69.4981 46.1004H68.3733C68.3614 46.1004 68.3555 46.1063 68.3555 46.1182V47.2117C68.3555 47.2177 68.357 47.2221 68.36 47.2251C68.3659 47.2251 68.3719 47.2221 68.3778 47.2162C68.4373 47.1507 68.5117 47.1001 68.601 47.0644C68.6932 47.0258 68.7914 47.0064 68.8955 47.0064C69.0711 47.0064 69.2169 47.0496 69.3329 47.1359C69.452 47.2192 69.5353 47.3426 69.5829 47.5063ZM70.9528 48.9926C70.6969 48.9926 70.4916 48.9152 70.3369 48.7605C70.1822 48.6058 70.1048 48.399 70.1048 48.1401V46.6315C70.1048 46.3756 70.1822 46.1703 70.3369 46.0156C70.4916 45.8608 70.6969 45.7835 70.9528 45.7835C71.2117 45.7835 71.4185 45.8608 71.5732 46.0156C71.7309 46.1703 71.8098 46.3756 71.8098 46.6315V48.1401C71.8098 48.399 71.7309 48.6058 71.5732 48.7605C71.4185 48.9152 71.2117 48.9926 70.9528 48.9926ZM70.9528 48.7158C71.1165 48.7158 71.2474 48.6653 71.3456 48.5641C71.4438 48.4629 71.4929 48.329 71.4929 48.1624V46.6136C71.4929 46.447 71.4438 46.3131 71.3456 46.212C71.2474 46.1108 71.1165 46.0602 70.9528 46.0602C70.7951 46.0602 70.6672 46.1108 70.569 46.212C70.4708 46.3131 70.4217 46.447 70.4217 46.6136V48.1624C70.4217 48.3261 70.4708 48.46 70.569 48.5641C70.6672 48.6653 70.7951 48.7158 70.9528 48.7158ZM73.0859 47.051C72.9698 47.051 72.8627 47.0228 72.7645 46.9662C72.6693 46.9097 72.5934 46.8338 72.5369 46.7386C72.4803 46.6404 72.4521 46.5333 72.4521 46.4173C72.4521 46.3012 72.4803 46.1956 72.5369 46.1004C72.5934 46.0022 72.6693 45.9248 72.7645 45.8683C72.8627 45.8117 72.9698 45.7835 73.0859 45.7835C73.1989 45.7835 73.3031 45.8117 73.3983 45.8683C73.4965 45.9248 73.5738 46.0022 73.6304 46.1004C73.6869 46.1956 73.7152 46.3012 73.7152 46.4173C73.7152 46.5333 73.6869 46.6404 73.6304 46.7386C73.5738 46.8338 73.4965 46.9097 73.3983 46.9662C73.3031 47.0228 73.1989 47.051 73.0859 47.051ZM72.9832 48.9479C72.9683 48.9479 72.9564 48.9435 72.9475 48.9345C72.9415 48.9226 72.943 48.9093 72.952 48.8944L74.6123 45.8549C74.6212 45.8341 74.6391 45.8237 74.6659 45.8237H74.8087C74.8236 45.8237 74.834 45.8296 74.8399 45.8415C74.8488 45.8504 74.8488 45.8623 74.8399 45.8772L73.1796 48.9167C73.1707 48.9375 73.1528 48.9479 73.126 48.9479H72.9832ZM73.0859 46.8547C73.2049 46.8547 73.3046 46.813 73.3849 46.7297C73.4682 46.6434 73.5099 46.5393 73.5099 46.4173C73.5099 46.2953 73.4682 46.1926 73.3849 46.1093C73.3046 46.023 73.2049 45.9799 73.0859 45.9799C72.9668 45.9799 72.8657 46.023 72.7824 46.1093C72.699 46.1926 72.6574 46.2953 72.6574 46.4173C72.6574 46.5393 72.699 46.6434 72.7824 46.7297C72.8657 46.813 72.9668 46.8547 73.0859 46.8547ZM74.7239 48.9881C74.6078 48.9881 74.5007 48.9598 74.4025 48.9033C74.3073 48.8468 74.2314 48.7694 74.1749 48.6712C74.1184 48.573 74.0901 48.4659 74.0901 48.3499C74.0901 48.2368 74.1184 48.1326 74.1749 48.0374C74.2314 47.9392 74.3073 47.8619 74.4025 47.8053C74.5007 47.7488 74.6078 47.7205 74.7239 47.7205C74.8369 47.7205 74.9411 47.7488 75.0363 47.8053C75.1345 47.8619 75.2119 47.9392 75.2684 48.0374C75.3249 48.1326 75.3532 48.2368 75.3532 48.3499C75.3532 48.4659 75.3249 48.573 75.2684 48.6712C75.2119 48.7694 75.1345 48.8468 75.0363 48.9033C74.9411 48.9598 74.8369 48.9881 74.7239 48.9881ZM74.7239 48.7917C74.8429 48.7917 74.9426 48.7486 75.0229 48.6623C75.1062 48.576 75.1479 48.4719 75.1479 48.3499C75.1479 48.2279 75.1062 48.1252 75.0229 48.0419C74.9426 47.9586 74.8429 47.9169 74.7239 47.9169C74.6049 47.9169 74.5037 47.9586 74.4204 48.0419C74.3371 48.1252 74.2954 48.2279 74.2954 48.3499C74.2954 48.4748 74.3356 48.5805 74.4159 48.6668C74.4992 48.7501 74.6019 48.7917 74.7239 48.7917Z" fill="#404040"/>
</svg>
