<svg width="92" height="57" viewBox="0 0 92 57" fill="none" xmlns="http://www.w3.org/2000/svg">
<path d="M34.7662 31.3466L34.7303 31.3433C34.5268 31.3218 34.3352 31.3072 34.3352 31.1506C34.3352 30.9579 34.6106 30.9218 34.7662 30.9218C34.9473 30.9231 35.1263 30.9604 35.293 31.0314L35.3169 31.0434L35.4247 30.7905L35.4007 30.7818C35.2 30.696 34.9843 30.6509 34.7662 30.6494C34.3352 30.6494 34.0479 30.8541 34.0479 31.1432C34.0479 31.5165 34.419 31.5647 34.7183 31.5888H34.7423C35.0056 31.6129 35.1852 31.6479 35.1852 31.8177C35.1852 31.9501 35.0056 32.0345 34.7303 32.0345C34.5272 32.0364 34.3264 31.991 34.1437 31.902L34.1197 31.8918L34 32.1448L34.0239 32.1568C34.2427 32.2687 34.4849 32.3265 34.7303 32.3254C35.1613 32.3254 35.4726 32.1207 35.4726 31.8196C35.4726 31.398 35.0176 31.3499 34.7542 31.3258M37.4839 31.2495C37.4839 31.3262 37.4536 31.3997 37.3997 31.4539C37.3458 31.5081 37.2727 31.5386 37.1965 31.5386H36.7536V30.9612H37.1965C37.2738 30.9643 37.3469 30.9974 37.4005 31.0535C37.454 31.1097 37.4839 31.1845 37.4839 31.2623M37.1965 30.6842H36.6338C36.5957 30.6842 36.5592 30.6994 36.5323 30.7265C36.5053 30.7536 36.4902 30.7904 36.4902 30.8287V32.3101H36.7655V31.8404H37.2085C37.2834 31.842 37.3579 31.8286 37.4275 31.8008C37.4972 31.7731 37.5606 31.7317 37.6141 31.6789C37.6677 31.6262 37.7102 31.5633 37.7392 31.4938C37.7682 31.4243 37.7832 31.3497 37.7832 31.2743C37.7832 31.121 37.7226 30.974 37.6148 30.8655C37.5071 30.7571 37.3609 30.6962 37.2085 30.6962M38.6451 30.8287V32.1656C38.6451 32.2039 38.6603 32.2407 38.6872 32.2678C38.7142 32.2949 38.7507 32.3101 38.7888 32.3101H39.8902V32.0331H38.9205V31.6357H39.8304V31.3586H38.9205V30.9612H39.8902V30.6842H38.7888C38.7507 30.6842 38.7142 30.6994 38.6872 30.7265C38.6603 30.7536 38.6451 30.7904 38.6451 30.8287ZM41.9973 31.8284C41.948 31.9003 41.8817 31.9589 41.8044 31.9988C41.7271 32.0387 41.6412 32.0588 41.5543 32.0572C41.4072 32.0541 41.2671 31.993 41.1642 31.8872C41.0612 31.7814 41.0036 31.6392 41.0036 31.4911C41.0036 31.3442 41.0617 31.2033 41.1649 31.0994C41.2682 30.9955 41.4083 30.9371 41.5543 30.9371C41.635 30.9375 41.7145 30.9561 41.787 30.9916C41.8595 31.027 41.9232 31.0783 41.9734 31.1418L41.9853 31.1539L42.1889 30.9732L42.1769 30.9566C42.0666 30.8294 41.9204 30.7389 41.7577 30.6974C41.5951 30.6558 41.4237 30.6651 41.2664 30.7239C41.1091 30.7828 40.9733 30.8884 40.8772 31.0268C40.7811 31.1652 40.7291 31.3298 40.7283 31.4986C40.7283 31.7201 40.8149 31.9328 40.9695 32.0905C41.1241 32.2483 41.3342 32.3385 41.5543 32.3417C41.6849 32.3447 41.8143 32.3155 41.9311 32.2567C42.048 32.1979 42.1488 32.1113 42.2248 32.0045L42.2367 31.9871L42.0213 31.8185L41.9973 31.8284ZM42.967 30.9612H43.5178V32.3101H43.7931V30.9612H44.3438V30.6842H42.967V30.9612ZM46.2713 31.2382C46.2714 31.2725 46.2645 31.3064 46.2511 31.3379C46.2377 31.3694 46.2181 31.3978 46.1935 31.4214C46.1689 31.4451 46.1397 31.4635 46.1078 31.4754C46.0759 31.4874 46.0419 31.4928 46.0079 31.4911H45.4931V30.9612H46.0079C46.0436 30.9611 46.0788 30.9684 46.1116 30.9824C46.1443 30.9965 46.1739 31.0171 46.1985 31.043C46.2232 31.0689 46.2423 31.0995 46.2548 31.1331C46.2673 31.1666 46.2729 31.2024 46.2713 31.2382ZM46.5467 31.2382C46.5483 31.166 46.5355 31.0942 46.5092 31.0271C46.4828 30.9599 46.4434 30.8988 46.3932 30.8471C46.343 30.7955 46.2831 30.7545 46.2169 30.7265C46.1507 30.6986 46.0797 30.6841 46.0079 30.6842H45.3734C45.3353 30.6842 45.2988 30.6994 45.2718 30.7265C45.2449 30.7536 45.2298 30.7904 45.2298 30.8287V32.3101H45.5051V31.7561H45.8762L46.2593 32.3101H46.5826L46.1755 31.732C46.282 31.7009 46.3756 31.636 46.4425 31.547C46.5094 31.4581 46.5459 31.3497 46.5467 31.2382ZM48.6657 31.6116C48.6657 31.7266 48.6203 31.8369 48.5395 31.9182C48.4587 31.9995 48.349 32.0452 48.2347 32.0452C48.1204 32.0452 48.0108 31.9995 47.93 31.9182C47.8491 31.8369 47.8037 31.7266 47.8037 31.6116V30.6842H47.5284V31.6116C47.5284 31.8 47.6028 31.9808 47.7353 32.1141C47.8677 32.2473 48.0474 32.3222 48.2347 32.3222C48.4221 32.3222 48.6017 32.2473 48.7342 32.1141C48.8667 31.9808 48.9411 31.8 48.9411 31.6116V30.6842H48.6657V31.6116ZM51.3834 30.6601C51.3615 30.6609 51.3401 30.6668 51.3208 30.6772C51.3015 30.6876 51.2848 30.7024 51.272 30.7203L50.7333 31.4911L50.1945 30.7203C50.1807 30.7047 50.1637 30.6924 50.1447 30.6841C50.1257 30.6758 50.1051 30.6717 50.0844 30.6721C50.0463 30.6721 50.0098 30.6873 49.9828 30.7144C49.9559 30.7416 49.9407 30.7783 49.9407 30.8166V32.3101H50.2161V31.19L50.7309 31.9368L51.2457 31.19V32.2981H51.521V30.8046C51.521 30.7663 51.5059 30.7295 51.479 30.7024C51.452 30.6753 51.4155 30.6601 51.3774 30.6601M38.262 33.7073H38.6332V34.5745H38.8247V33.7073H39.1959V33.5266H38.262V33.7073ZM40.4529 34.0445C40.4529 34.1436 40.4138 34.2385 40.3442 34.3086C40.2746 34.3786 40.1802 34.4179 40.0818 34.4179C39.9834 34.4179 39.889 34.3786 39.8194 34.3086C39.7498 34.2385 39.7107 34.1436 39.7107 34.0445C39.7091 33.9981 39.7168 33.9518 39.7332 33.9084C39.7496 33.8649 39.7745 33.8252 39.8064 33.7916C39.8781 33.7203 39.9749 33.6802 40.0758 33.6802C40.1767 33.6802 40.2734 33.7203 40.3452 33.7916C40.3779 33.8248 40.4037 33.8644 40.421 33.9078C40.4382 33.9512 40.4467 33.9977 40.4457 34.0445H40.4529ZM40.0818 33.5025C40.009 33.4993 39.9364 33.5109 39.8683 33.5367C39.8001 33.5624 39.7379 33.6019 39.6853 33.6525C39.6327 33.7032 39.5908 33.764 39.5623 33.8314C39.5337 33.8988 39.519 33.9713 39.5191 34.0445C39.5143 34.1574 39.5432 34.2691 39.6021 34.3653C39.6609 34.4615 39.747 34.5378 39.8493 34.5844C39.9516 34.6309 40.0655 34.6457 40.1761 34.6266C40.2868 34.6076 40.3893 34.5556 40.4704 34.4775C40.5515 34.3994 40.6075 34.2986 40.6313 34.1882C40.655 34.0778 40.6453 33.9628 40.6035 33.8579C40.5617 33.7531 40.4897 33.6632 40.3967 33.5999C40.3038 33.5365 40.1941 33.5026 40.0818 33.5025ZM41.6022 34.3938H41.2191V34.1409H41.6022C41.6352 34.1408 41.667 34.153 41.6914 34.1753C41.7157 34.1976 41.7309 34.2283 41.7339 34.2613C41.7339 34.2965 41.72 34.3302 41.6954 34.355C41.6707 34.3799 41.6372 34.3938 41.6022 34.3938ZM41.2191 33.7073H41.5663C41.586 33.7011 41.6069 33.6997 41.6273 33.7031C41.6477 33.7065 41.6669 33.7147 41.6836 33.727C41.7002 33.7393 41.7138 33.7554 41.7231 33.774C41.7324 33.7925 41.7373 33.813 41.7373 33.8338C41.7373 33.8545 41.7324 33.875 41.7231 33.8936C41.7138 33.9121 41.7002 33.9282 41.6836 33.9405C41.6669 33.9528 41.6477 33.961 41.6273 33.9644C41.6069 33.9679 41.586 33.9664 41.5663 33.9602H41.2191V33.7073ZM41.7938 34.0325C41.8241 34.008 41.8483 33.9767 41.8646 33.9412C41.8808 33.9057 41.8887 33.8668 41.8875 33.8277C41.8844 33.745 41.8489 33.6669 41.7887 33.6105C41.7285 33.5541 41.6485 33.5239 41.5663 33.5266H41.1353C41.1225 33.5262 41.1096 33.5283 41.0976 33.5329C41.0856 33.5376 41.0746 33.5446 41.0653 33.5536C41.0561 33.5626 41.0487 33.5734 41.0437 33.5853C41.0387 33.5972 41.0361 33.61 41.0361 33.623V34.4781C41.0361 34.4911 41.0387 34.5039 41.0437 34.5158C41.0487 34.5278 41.0561 34.5385 41.0653 34.5475C41.0746 34.5565 41.0856 34.5635 41.0976 34.5682C41.1096 34.5728 41.1225 34.575 41.1353 34.5745H41.6022C41.6441 34.5761 41.6859 34.5692 41.725 34.5542C41.7642 34.5392 41.7999 34.5164 41.8301 34.4871C41.8603 34.4579 41.8843 34.4228 41.9007 34.384C41.9171 34.3452 41.9255 34.3035 41.9255 34.2613C41.9266 34.2147 41.915 34.1686 41.8917 34.1282C41.8685 34.0878 41.8346 34.0547 41.7938 34.0325ZM42.6558 34.1529L42.7994 33.8398L42.9311 34.1529H42.6558ZM42.7994 33.5146C42.7812 33.5155 42.7636 33.5217 42.7488 33.5324C42.734 33.5431 42.7224 33.5578 42.7156 33.5748L42.2727 34.5865H42.4762L42.5839 34.3336H43.003L43.1107 34.5745V34.5865H43.3142L42.8713 33.5748C42.8644 33.5578 42.8529 33.5431 42.8381 33.5324C42.8232 33.5217 42.8057 33.5155 42.7875 33.5146M44.4635 34.2613C44.4143 34.3182 44.3496 34.3594 44.2774 34.3796C44.2052 34.3999 44.1287 34.3984 44.0573 34.3753C43.9859 34.3522 43.9228 34.3086 43.8759 34.2498C43.8289 34.191 43.8001 34.1196 43.7931 34.0445C43.7931 33.9961 43.8028 33.9481 43.8215 33.9034C43.8403 33.8588 43.8679 33.8184 43.9025 33.7847C43.9371 33.751 43.9782 33.7246 44.0231 33.7072C44.0681 33.6897 44.1161 33.6816 44.1642 33.6832C44.2189 33.6826 44.273 33.6942 44.3226 33.7171C44.3723 33.74 44.4163 33.7737 44.4516 33.8157L44.4635 33.8277L44.6072 33.7073L44.5952 33.6952C44.5429 33.6352 44.4784 33.587 44.4062 33.5538C44.334 33.5206 44.2556 33.5031 44.1762 33.5025C44.1035 33.4993 44.0308 33.5109 43.9627 33.5367C43.8945 33.5624 43.8323 33.6019 43.7797 33.6525C43.7271 33.7032 43.6853 33.764 43.6567 33.8314C43.6281 33.8988 43.6135 33.9713 43.6135 34.0445C43.6183 34.1603 43.6582 34.2718 43.7279 34.3641C43.7977 34.4563 43.8939 34.5247 44.0036 34.5602C44.1132 34.5957 44.231 34.5964 44.3411 34.5623C44.4512 34.5283 44.5483 34.4611 44.6192 34.3697L44.6311 34.3577L44.4875 34.2372L44.4635 34.2613ZM45.7565 34.2613C45.7073 34.3182 45.6426 34.3594 45.5704 34.3796C45.4982 34.3999 45.4216 34.3984 45.3503 34.3753C45.2789 34.3522 45.2158 34.3086 45.1689 34.2498C45.1219 34.191 45.0931 34.1196 45.0861 34.0445C45.0861 33.9961 45.0957 33.9481 45.1145 33.9034C45.1333 33.8588 45.1608 33.8184 45.1955 33.7847C45.2301 33.751 45.2711 33.7246 45.3161 33.7072C45.3611 33.6897 45.4091 33.6816 45.4572 33.6832C45.5119 33.6826 45.5659 33.6942 45.6156 33.7171C45.6653 33.74 45.7093 33.7737 45.7445 33.8157L45.7565 33.8277L45.9002 33.7073L45.8882 33.6952C45.8358 33.6352 45.7714 33.587 45.6992 33.5538C45.627 33.5206 45.5486 33.5031 45.4692 33.5025C45.3965 33.4993 45.3238 33.5109 45.2557 33.5367C45.1875 33.5624 45.1253 33.6019 45.0727 33.6525C45.0201 33.7032 44.9782 33.764 44.9497 33.8314C44.9211 33.8988 44.9064 33.9713 44.9065 34.0445C44.9112 34.1603 44.9512 34.2718 45.0209 34.3641C45.0907 34.4563 45.1869 34.5247 45.2965 34.5602C45.4062 34.5957 45.524 34.5964 45.6341 34.5623C45.7442 34.5283 45.8413 34.4611 45.9122 34.3697L45.9241 34.3577L45.7685 34.2493L45.7565 34.2613ZM47.0974 34.0445C47.0974 34.1436 47.0583 34.2385 46.9887 34.3086C46.9191 34.3786 46.8247 34.4179 46.7263 34.4179C46.6278 34.4179 46.5334 34.3786 46.4638 34.3086C46.3942 34.2385 46.3551 34.1436 46.3551 34.0445C46.3536 33.9981 46.3612 33.9518 46.3777 33.9084C46.3941 33.8649 46.419 33.8252 46.4509 33.7916C46.5226 33.7203 46.6194 33.6802 46.7203 33.6802C46.8211 33.6802 46.9179 33.7203 46.9896 33.7916C47.0224 33.8248 47.0482 33.8644 47.0654 33.9078C47.0827 33.9512 47.0911 33.9977 47.0902 34.0445H47.0974ZM46.7263 33.5025C46.6535 33.4993 46.5809 33.5109 46.5127 33.5367C46.4446 33.5624 46.3823 33.6019 46.3297 33.6525C46.2771 33.7032 46.2353 33.764 46.2067 33.8314C46.1782 33.8988 46.1635 33.9713 46.1636 34.0445C46.1588 34.1574 46.1877 34.2691 46.2465 34.3653C46.3054 34.4615 46.3915 34.5378 46.4938 34.5844C46.5961 34.6309 46.7099 34.6457 46.8206 34.6266C46.9313 34.6076 47.0338 34.5556 47.1149 34.4775C47.196 34.3994 47.252 34.2986 47.2757 34.1882C47.2994 34.0778 47.2898 33.9628 47.248 33.8579C47.2062 33.7531 47.1342 33.6632 47.0412 33.5999C46.9482 33.5365 46.8385 33.5026 46.7263 33.5025Z" fill="black"/>
<path d="M40.1541 28.6484L43.0633 28.1425L41.052 26.649L40.1541 28.6484Z" fill="#0065A7"/>
<path d="M41.0639 26.6009L43.0632 28.0583L44.4639 26.7695L41.0639 26.6009Z" fill="#0678AC"/>
<path d="M44.5239 26.6247L45.4218 24.2399L42.2253 24.8903L44.5239 26.6247Z" fill="#2EB56A"/>
<path d="M42.3808 24.7944L45.5774 24.1681L43.3146 23.6501L42.3808 24.7944Z" fill="#A5CE40"/>
<path d="M43.2907 23.5654L45.5654 24.1074L45.7569 21L43.2907 23.5654Z" fill="#F5E431"/>
<path d="M39.5674 26.1188L40.1181 28.5999L41.004 26.5885L39.5674 26.1188Z" fill="#9072B3"/>
<path d="M42.0932 24.9745L39.627 26.0705L40.9798 26.5282L42.0932 24.9745Z" fill="#9360A8"/>
<path d="M40.3692 23.8912L39.627 25.9629L42.2009 24.8548L40.3692 23.8912Z" fill="#DF599C"/>
<path d="M40.4652 23.8304L42.2011 23.7099L43.2187 23.5895L42.4884 22.3248L40.4652 23.8304Z" fill="#F89A29"/>
<path d="M42.5004 22.2044L43.2427 23.4932L45.697 21L42.5004 22.2044Z" fill="#FCBC1B"/>
<path d="M40.4652 23.879L42.2969 24.7944L43.2427 23.6501L40.4652 23.879Z" fill="#F16165"/>
<path d="M42.1653 24.9745L41.0639 26.5523L44.4639 26.733L42.1653 24.9745Z" fill="#1DA6BA"/>
<path d="M44.1288 49.6564C39.5733 49.8152 35.0843 48.53 31.3053 45.985C27.5263 43.4399 24.6513 39.7656 23.0923 35.4888L30.1914 32.9089C31.2048 35.6888 33.0735 38.0771 35.5299 39.7314C37.9862 41.3857 40.904 42.2211 43.8651 42.1178L44.1288 49.6564Z" fill="#FCA6E4"/>
<path d="M55.4456 10.2502C59.2246 12.7953 62.0997 16.4696 63.6587 20.7464C65.2177 25.0233 65.3807 29.6831 64.1242 34.0582C62.8678 38.4332 60.2565 42.2987 56.6645 45.1008C53.0725 47.9029 48.6842 49.4976 44.1287 49.6564L43.8651 42.1178C46.8262 42.0146 49.6785 40.978 52.0133 39.1567C54.3481 37.3353 56.0455 34.8227 56.8622 31.979C57.6789 29.1352 57.5729 26.1063 56.5596 23.3263C55.5462 20.5464 53.6774 18.1581 51.2211 16.5038L55.4456 10.2502Z" fill="#409219"/>
<path d="M23.0923 35.4888C21.5332 31.212 21.3703 26.5521 22.6267 22.1771C23.8831 17.8021 26.4945 13.9365 30.0865 11.1345C33.6784 8.33238 38.0666 6.73764 42.6222 6.5788C47.1777 6.41996 51.6666 7.70517 55.4456 10.2502L51.2211 16.5038C48.7647 14.8495 45.8469 14.0141 42.8858 14.1174C39.9247 14.2206 37.0724 15.2572 34.7376 17.0786C32.4028 18.8999 30.7054 21.4125 29.8888 24.2563C29.0721 27.1 29.178 30.1289 30.1914 32.9089L23.0923 35.4888Z" fill="#004E1F"/>
<path d="M30.8693 12.3674L28.3273 9.10413H17.7961" stroke="black" stroke-width="0.145684"/>
<path d="M31.2322 44.6375L28.6902 47.9008H18.1591" stroke="black" stroke-width="0.145684"/>
<path d="M6.05863 46.2979C5.78786 46.2979 5.56916 46.2191 5.40253 46.0614C5.23887 45.9037 5.15705 45.6939 5.15705 45.432V43.9681C5.15705 43.7062 5.23887 43.4965 5.40253 43.3388C5.56916 43.1811 5.78786 43.1022 6.05863 43.1022C6.23716 43.1022 6.39337 43.1379 6.52727 43.2093C6.66414 43.2807 6.76978 43.3804 6.84416 43.5084C6.92153 43.6363 6.96021 43.7836 6.96021 43.9502V44.0752C6.96021 44.105 6.94533 44.1198 6.91558 44.1198H6.68795C6.65819 44.1198 6.64332 44.105 6.64332 44.0752V43.9502C6.64332 43.7806 6.58976 43.6438 6.48264 43.5396C6.37552 43.4325 6.23418 43.3789 6.05863 43.3789C5.88307 43.3789 5.74174 43.4325 5.63462 43.5396C5.5275 43.6438 5.47394 43.7836 5.47394 43.9592V45.441C5.47394 45.6135 5.5275 45.7534 5.63462 45.8605C5.74471 45.9676 5.88754 46.0212 6.06309 46.0212C6.23865 46.0212 6.3785 45.9706 6.48264 45.8694C6.58976 45.7683 6.64332 45.6314 6.64332 45.4588V44.9723C6.64332 44.9604 6.63736 44.9545 6.62546 44.9545H6.10326C6.07351 44.9545 6.05863 44.9396 6.05863 44.9098V44.7224C6.05863 44.6926 6.07351 44.6777 6.10326 44.6777H6.91558C6.94533 44.6777 6.96021 44.6926 6.96021 44.7224V45.4186C6.96021 45.6894 6.87838 45.9037 6.71473 46.0614C6.55107 46.2191 6.33237 46.2979 6.05863 46.2979ZM7.66195 46.2622C7.6322 46.2622 7.61732 46.2473 7.61732 46.2176V43.1826C7.61732 43.1528 7.6322 43.1379 7.66195 43.1379H7.88958C7.91933 43.1379 7.93421 43.1528 7.93421 43.1826V46.2176C7.93421 46.2473 7.91933 46.2622 7.88958 46.2622H7.66195ZM10.2297 43.1826C10.2297 43.1528 10.2446 43.1379 10.2743 43.1379H10.5019C10.5317 43.1379 10.5466 43.1528 10.5466 43.1826V46.2176C10.5466 46.2473 10.5317 46.2622 10.5019 46.2622H10.2609C10.2342 46.2622 10.2163 46.2518 10.2074 46.231L9.01122 43.8431C9.00527 43.8372 8.99932 43.8342 8.99337 43.8342C8.99039 43.8342 8.9889 43.8387 8.9889 43.8476L8.99337 46.2176C8.99337 46.2473 8.97849 46.2622 8.94873 46.2622H8.72111C8.69135 46.2622 8.67647 46.2473 8.67647 46.2176V43.1826C8.67647 43.1528 8.69135 43.1379 8.72111 43.1379H8.96212C8.9889 43.1379 9.00675 43.1483 9.01568 43.1692L10.2118 45.5659C10.2178 45.5719 10.2223 45.5749 10.2252 45.5749C10.2312 45.5749 10.2342 45.5704 10.2342 45.5615L10.2297 43.1826ZM12.1041 46.2979C11.8333 46.2979 11.6146 46.2191 11.448 46.0614C11.2843 45.9037 11.2025 45.6939 11.2025 45.432V43.9681C11.2025 43.7062 11.2843 43.4965 11.448 43.3388C11.6146 43.1811 11.8333 43.1022 12.1041 43.1022C12.2826 43.1022 12.4388 43.1379 12.5727 43.2093C12.7096 43.2807 12.8152 43.3804 12.8896 43.5084C12.967 43.6363 13.0057 43.7836 13.0057 43.9502V44.0752C13.0057 44.105 12.9908 44.1198 12.961 44.1198H12.7334C12.7037 44.1198 12.6888 44.105 12.6888 44.0752V43.9502C12.6888 43.7806 12.6352 43.6438 12.5281 43.5396C12.421 43.4325 12.2796 43.3789 12.1041 43.3789C11.9285 43.3789 11.7872 43.4325 11.6801 43.5396C11.573 43.6438 11.5194 43.7836 11.5194 43.9592V45.441C11.5194 45.6135 11.573 45.7534 11.6801 45.8605C11.7902 45.9676 11.933 46.0212 12.1086 46.0212C12.2841 46.0212 12.424 45.9706 12.5281 45.8694C12.6352 45.7683 12.6888 45.6314 12.6888 45.4588V44.9723C12.6888 44.9604 12.6828 44.9545 12.6709 44.9545H12.1487C12.119 44.9545 12.1041 44.9396 12.1041 44.9098V44.7224C12.1041 44.6926 12.119 44.6777 12.1487 44.6777H12.961C12.9908 44.6777 13.0057 44.6926 13.0057 44.7224V45.4186C13.0057 45.6894 12.9238 45.9037 12.7602 46.0614C12.5965 46.2191 12.3778 46.2979 12.1041 46.2979ZM15.3811 43.37C15.3811 43.3998 15.3663 43.4146 15.3365 43.4146H13.9975C13.9856 43.4146 13.9797 43.4206 13.9797 43.4325V44.5394C13.9797 44.5513 13.9856 44.5572 13.9975 44.5572H14.8991C14.9289 44.5572 14.9437 44.5721 14.9437 44.6019V44.7893C14.9437 44.8191 14.9289 44.834 14.8991 44.834H13.9975C13.9856 44.834 13.9797 44.8399 13.9797 44.8518V45.9676C13.9797 45.9795 13.9856 45.9855 13.9975 45.9855H15.3365C15.3663 45.9855 15.3811 46.0004 15.3811 46.0301V46.2176C15.3811 46.2473 15.3663 46.2622 15.3365 46.2622H13.7074C13.6777 46.2622 13.6628 46.2473 13.6628 46.2176V43.1826C13.6628 43.1528 13.6777 43.1379 13.7074 43.1379H15.3365C15.3663 43.1379 15.3811 43.1528 15.3811 43.1826V43.37ZM17.4994 46.2622C17.4756 46.2622 17.4592 46.2503 17.4503 46.2265L16.8969 44.8474C16.8939 44.8384 16.8879 44.834 16.879 44.834H16.3033C16.2914 44.834 16.2854 44.8399 16.2854 44.8518V46.2176C16.2854 46.2473 16.2705 46.2622 16.2408 46.2622H16.0131C15.9834 46.2622 15.9685 46.2473 15.9685 46.2176V43.1826C15.9685 43.1528 15.9834 43.1379 16.0131 43.1379H16.9594C17.1141 43.1379 17.251 43.1736 17.37 43.245C17.492 43.3165 17.5857 43.4176 17.6512 43.5485C17.7196 43.6795 17.7538 43.8297 17.7538 43.9993C17.7538 44.2017 17.7047 44.3742 17.6065 44.5171C17.5083 44.6599 17.3744 44.7551 17.2048 44.8027C17.1929 44.8087 17.19 44.8161 17.1959 44.825L17.7717 46.2086L17.7761 46.2265C17.7761 46.2503 17.7627 46.2622 17.736 46.2622H17.4994ZM16.3033 43.4146C16.2914 43.4146 16.2854 43.4206 16.2854 43.4325V44.5617C16.2854 44.5736 16.2914 44.5796 16.3033 44.5796H16.9192C17.0739 44.5796 17.1989 44.526 17.2941 44.4189C17.3893 44.3118 17.4369 44.1719 17.4369 43.9993C17.4369 43.8238 17.3893 43.6824 17.2941 43.5753C17.1989 43.4682 17.0739 43.4146 16.9192 43.4146H16.3033ZM6.05863 51.2979C5.78786 51.2979 5.56916 51.2176 5.40253 51.0569C5.23887 50.8962 5.15705 50.6835 5.15705 50.4186V48.977C5.15705 48.7122 5.23887 48.5009 5.40253 48.3432C5.56916 48.1826 5.78786 48.1022 6.05863 48.1022C6.33237 48.1022 6.55107 48.1811 6.71473 48.3388C6.88136 48.4965 6.96467 48.7062 6.96467 48.9681V49.0083C6.96467 49.038 6.94979 49.0529 6.92004 49.0529L6.69241 49.0618C6.66266 49.0618 6.64778 49.0484 6.64778 49.0216V48.9592C6.64778 48.7866 6.59273 48.6467 6.48264 48.5396C6.37552 48.4325 6.23418 48.3789 6.05863 48.3789C5.88307 48.3789 5.74174 48.4325 5.63462 48.5396C5.5275 48.6438 5.47394 48.7836 5.47394 48.9592V50.441C5.47394 50.6165 5.5275 50.7579 5.63462 50.865C5.74174 50.9691 5.88307 51.0212 6.05863 51.0212C6.23418 51.0212 6.37552 50.9676 6.48264 50.8605C6.59273 50.7534 6.64778 50.6135 6.64778 50.441V50.3785C6.64778 50.3517 6.66266 50.3383 6.69241 50.3383L6.92004 50.3517C6.94979 50.3517 6.96467 50.3666 6.96467 50.3963V50.4276C6.96467 50.6894 6.88136 50.9007 6.71473 51.0614C6.55107 51.2191 6.33237 51.2979 6.05863 51.2979ZM9.0955 51.2622C9.06872 51.2622 9.05235 51.2488 9.0464 51.222L8.89911 50.6641C8.89614 50.6552 8.8887 50.6507 8.8768 50.6507H7.81008C7.79817 50.6507 7.79074 50.6552 7.78776 50.6641L7.64047 51.222C7.63452 51.2488 7.61816 51.2622 7.59138 51.2622H7.35929C7.34441 51.2622 7.33251 51.2577 7.32358 51.2488C7.31763 51.2399 7.31614 51.228 7.31912 51.2131L8.15375 48.1781C8.1597 48.1513 8.17606 48.1379 8.20284 48.1379H8.48849C8.51527 48.1379 8.53164 48.1513 8.53759 48.1781L9.37222 51.2131L9.37668 51.2265C9.37668 51.2503 9.36181 51.2622 9.33205 51.2622H9.0955ZM7.86364 50.374C7.86066 50.377 7.86066 50.3815 7.86364 50.3874C7.86959 50.3904 7.87554 50.3919 7.88149 50.3919H8.80538C8.81134 50.3919 8.8158 50.3904 8.81877 50.3874C8.82473 50.3815 8.82621 50.377 8.82324 50.374L8.35013 48.5798C8.34716 48.5738 8.34418 48.5709 8.3412 48.5709C8.33823 48.5709 8.33525 48.5738 8.33228 48.5798L7.86364 50.374ZM11.4022 48.1826C11.4022 48.1528 11.417 48.1379 11.4468 48.1379H11.6744C11.7042 48.1379 11.7191 48.1528 11.7191 48.1826V51.2176C11.7191 51.2473 11.7042 51.2622 11.6744 51.2622H11.4334C11.4066 51.2622 11.3888 51.2518 11.3799 51.231L10.1837 48.8431C10.1777 48.8372 10.1718 48.8342 10.1658 48.8342C10.1629 48.8342 10.1614 48.8387 10.1614 48.8476L10.1658 51.2176C10.1658 51.2473 10.151 51.2622 10.1212 51.2622H9.89358C9.86383 51.2622 9.84895 51.2473 9.84895 51.2176V48.1826C9.84895 48.1528 9.86383 48.1379 9.89358 48.1379H10.1346C10.1614 48.1379 10.1792 48.1483 10.1882 48.1692L11.3843 50.5659C11.3903 50.5719 11.3947 50.5749 11.3977 50.5749C11.4037 50.5749 11.4066 50.5704 11.4066 50.5615L11.4022 48.1826ZM12.4739 51.2622C12.4442 51.2622 12.4293 51.2473 12.4293 51.2176V48.1826C12.4293 48.1528 12.4442 48.1379 12.4739 48.1379H13.3442C13.6091 48.1379 13.8174 48.2138 13.9691 48.3655C14.1238 48.5173 14.2012 48.7241 14.2012 48.9859V50.4142C14.2012 50.676 14.1238 50.8828 13.9691 51.0346C13.8174 51.1863 13.6091 51.2622 13.3442 51.2622H12.4739ZM12.7462 50.9676C12.7462 50.9795 12.7521 50.9855 12.764 50.9855H13.3487C13.5124 50.9825 13.6418 50.9289 13.737 50.8248C13.8322 50.7177 13.8813 50.5719 13.8843 50.3874V49.0127C13.8843 48.8282 13.8367 48.6824 13.7415 48.5753C13.6463 48.4682 13.5153 48.4146 13.3487 48.4146H12.764C12.7521 48.4146 12.7462 48.4206 12.7462 48.4325V50.9676ZM14.893 51.2622C14.8632 51.2622 14.8483 51.2473 14.8483 51.2176V48.1826C14.8483 48.1528 14.8632 48.1379 14.893 48.1379H15.1206C15.1503 48.1379 15.1652 48.1528 15.1652 48.1826V51.2176C15.1652 51.2473 15.1503 51.2622 15.1206 51.2622H14.893ZM17.6258 48.37C17.6258 48.3998 17.611 48.4146 17.5812 48.4146H16.2422C16.2303 48.4146 16.2244 48.4206 16.2244 48.4325V49.5394C16.2244 49.5513 16.2303 49.5572 16.2422 49.5572H17.1438C17.1736 49.5572 17.1884 49.5721 17.1884 49.6019V49.7893C17.1884 49.8191 17.1736 49.834 17.1438 49.834H16.2422C16.2303 49.834 16.2244 49.8399 16.2244 49.8518V50.9676C16.2244 50.9795 16.2303 50.9855 16.2422 50.9855H17.5812C17.611 50.9855 17.6258 51.0004 17.6258 51.0301V51.2176C17.6258 51.2473 17.611 51.2622 17.5812 51.2622H15.9521C15.9224 51.2622 15.9075 51.2473 15.9075 51.2176V48.1826C15.9075 48.1528 15.9224 48.1379 15.9521 48.1379H17.5812C17.611 48.1379 17.6258 48.1528 17.6258 48.1826V48.37ZM18.9675 51.2979C18.6878 51.2979 18.4646 51.225 18.298 51.0792C18.1344 50.9304 18.0525 50.7326 18.0525 50.4856V50.3651C18.0525 50.3353 18.0674 50.3205 18.0972 50.3205H18.3159C18.3456 50.3205 18.3605 50.3353 18.3605 50.3651V50.4677C18.3605 50.6344 18.417 50.7683 18.5301 50.8694C18.6432 50.9706 18.7934 51.0212 18.9809 51.0212C19.1565 51.0212 19.2948 50.9736 19.396 50.8784C19.4972 50.7831 19.5477 50.6582 19.5477 50.5035C19.5477 50.4023 19.5239 50.3145 19.4763 50.2401C19.4287 50.1657 19.3588 50.0973 19.2665 50.0348C19.1743 49.9723 19.0419 49.8935 18.8693 49.7983C18.6848 49.7001 18.539 49.6138 18.4319 49.5394C18.3278 49.465 18.243 49.3742 18.1775 49.2671C18.1121 49.16 18.0793 49.0291 18.0793 48.8744C18.0793 48.6333 18.1567 48.4444 18.3114 48.3075C18.4661 48.1707 18.6729 48.1022 18.9318 48.1022C19.2085 48.1022 19.4287 48.1781 19.5924 48.3298C19.756 48.4816 19.8378 48.6824 19.8378 48.9324V49.035C19.8378 49.0648 19.823 49.0797 19.7932 49.0797H19.5701C19.5403 49.0797 19.5254 49.0648 19.5254 49.035V48.9368C19.5254 48.7702 19.4719 48.6363 19.3647 48.5352C19.2576 48.431 19.1103 48.3789 18.9229 48.3789C18.7562 48.3789 18.6253 48.4221 18.5301 48.5084C18.4379 48.5947 18.3917 48.7167 18.3917 48.8744C18.3917 48.9755 18.4141 49.0603 18.4587 49.1288C18.5033 49.1972 18.5673 49.2597 18.6506 49.3162C18.7369 49.3728 18.8678 49.4486 19.0434 49.5438C19.2457 49.6569 19.4004 49.7536 19.5076 49.834C19.6177 49.9113 19.7039 50.0021 19.7664 50.1062C19.8319 50.2074 19.8646 50.3324 19.8646 50.4811C19.8646 50.7311 19.7843 50.9304 19.6236 51.0792C19.4629 51.225 19.2442 51.2979 18.9675 51.2979ZM21.5883 50.9632C21.5794 50.978 21.5824 50.9855 21.5972 50.9855H22.8246C22.8544 50.9855 22.8693 51.0004 22.8693 51.0301V51.2176C22.8693 51.2473 22.8544 51.2622 22.8246 51.2622H21.2357C21.206 51.2622 21.1911 51.2473 21.1911 51.2176V51.0212C21.1911 51.0033 21.197 50.984 21.2089 50.9632C21.4767 50.6002 21.7758 50.1836 22.1061 49.7135C22.3411 49.3713 22.4587 49.0975 22.4587 48.8922C22.4587 48.7375 22.414 48.614 22.3248 48.5218C22.2355 48.4265 22.118 48.3789 21.9722 48.3789C21.8293 48.3789 21.7148 48.4265 21.6285 48.5218C21.5422 48.614 21.5005 48.7375 21.5035 48.8922V49.044C21.5035 49.0737 21.4886 49.0886 21.4589 49.0886H21.2268C21.197 49.0886 21.1822 49.0737 21.1822 49.044V48.8654C21.1881 48.6363 21.264 48.4518 21.4098 48.312C21.5586 48.1721 21.749 48.1022 21.9811 48.1022C22.2191 48.1022 22.411 48.1751 22.5568 48.3209C22.7026 48.4667 22.7755 48.6571 22.7755 48.8922C22.7755 49.1541 22.6536 49.4635 22.4096 49.8206C22.2578 50.0408 22.0183 50.374 21.691 50.8203L21.5883 50.9632ZM24.1804 51.3068C23.9245 51.3068 23.7192 51.2295 23.5644 51.0747C23.4097 50.92 23.3323 50.7132 23.3323 50.4544V48.9458C23.3323 48.6899 23.4097 48.4846 23.5644 48.3298C23.7192 48.1751 23.9245 48.0978 24.1804 48.0978C24.4392 48.0978 24.646 48.1751 24.8008 48.3298C24.9585 48.4846 25.0373 48.6899 25.0373 48.9458V50.4544C25.0373 50.7132 24.9585 50.92 24.8008 51.0747C24.646 51.2295 24.4392 51.3068 24.1804 51.3068ZM24.1804 51.0301C24.344 51.0301 24.4749 50.9795 24.5731 50.8784C24.6713 50.7772 24.7204 50.6433 24.7204 50.4767V48.9279C24.7204 48.7613 24.6713 48.6274 24.5731 48.5262C24.4749 48.4251 24.344 48.3745 24.1804 48.3745C24.0227 48.3745 23.8947 48.4251 23.7965 48.5262C23.6983 48.6274 23.6492 48.7613 23.6492 48.9279V50.4767C23.6492 50.6403 23.6983 50.7742 23.7965 50.8784C23.8947 50.9795 24.0227 51.0301 24.1804 51.0301ZM26.3134 49.3653C26.1973 49.3653 26.0902 49.3371 25.992 49.2805C25.8968 49.224 25.8209 49.1481 25.7644 49.0529C25.7079 48.9547 25.6796 48.8476 25.6796 48.7315C25.6796 48.6155 25.7079 48.5099 25.7644 48.4146C25.8209 48.3165 25.8968 48.2391 25.992 48.1826C26.0902 48.126 26.1973 48.0978 26.3134 48.0978C26.4265 48.0978 26.5306 48.126 26.6258 48.1826C26.724 48.2391 26.8014 48.3165 26.8579 48.4146C26.9144 48.5099 26.9427 48.6155 26.9427 48.7315C26.9427 48.8476 26.9144 48.9547 26.8579 49.0529C26.8014 49.1481 26.724 49.224 26.6258 49.2805C26.5306 49.3371 26.4265 49.3653 26.3134 49.3653ZM26.2107 51.2622C26.1959 51.2622 26.1839 51.2577 26.175 51.2488C26.1691 51.2369 26.1706 51.2235 26.1795 51.2086L27.8398 48.1692C27.8487 48.1483 27.8666 48.1379 27.8934 48.1379H28.0362C28.0511 48.1379 28.0615 48.1439 28.0674 48.1558C28.0764 48.1647 28.0764 48.1766 28.0674 48.1915L26.4071 51.231C26.3982 51.2518 26.3803 51.2622 26.3536 51.2622H26.2107ZM26.3134 49.1689C26.4324 49.1689 26.5321 49.1273 26.6124 49.044C26.6957 48.9577 26.7374 48.8535 26.7374 48.7315C26.7374 48.6095 26.6957 48.5069 26.6124 48.4236C26.5321 48.3373 26.4324 48.2941 26.3134 48.2941C26.1944 48.2941 26.0932 48.3373 26.0099 48.4236C25.9266 48.5069 25.8849 48.6095 25.8849 48.7315C25.8849 48.8535 25.9266 48.9577 26.0099 49.044C26.0932 49.1273 26.1944 49.1689 26.3134 49.1689ZM27.9514 51.3024C27.8354 51.3024 27.7282 51.2741 27.63 51.2176C27.5348 51.161 27.459 51.0837 27.4024 50.9855C27.3459 50.8873 27.3176 50.7802 27.3176 50.6641C27.3176 50.5511 27.3459 50.4469 27.4024 50.3517C27.459 50.2535 27.5348 50.1761 27.63 50.1196C27.7282 50.0631 27.8354 50.0348 27.9514 50.0348C28.0645 50.0348 28.1686 50.0631 28.2638 50.1196C28.362 50.1761 28.4394 50.2535 28.4959 50.3517C28.5525 50.4469 28.5807 50.5511 28.5807 50.6641C28.5807 50.7802 28.5525 50.8873 28.4959 50.9855C28.4394 51.0837 28.362 51.161 28.2638 51.2176C28.1686 51.2741 28.0645 51.3024 27.9514 51.3024ZM27.9514 51.106C28.0704 51.106 28.1701 51.0628 28.2504 50.9766C28.3338 50.8903 28.3754 50.7861 28.3754 50.6641C28.3754 50.5421 28.3338 50.4395 28.2504 50.3562C28.1701 50.2728 28.0704 50.2312 27.9514 50.2312C27.8324 50.2312 27.7312 50.2728 27.6479 50.3562C27.5646 50.4395 27.5229 50.5421 27.5229 50.6641C27.5229 50.7891 27.5631 50.8947 27.6434 50.981C27.7268 51.0643 27.8294 51.106 27.9514 51.106Z" fill="#404040"/>
<path d="M1.73035 7.88416C1.45958 7.88416 1.24088 7.8053 1.07425 7.6476C0.910597 7.4899 0.82877 7.28013 0.82877 7.01828V5.55433C0.82877 5.29249 0.910597 5.08271 1.07425 4.92501C1.24088 4.76731 1.45958 4.68846 1.73035 4.68846C1.90888 4.68846 2.0651 4.72416 2.19899 4.79558C2.33587 4.86699 2.4415 4.96667 2.51589 5.09461C2.59325 5.22256 2.63193 5.36985 2.63193 5.53648V5.66145C2.63193 5.6912 2.61705 5.70608 2.5873 5.70608H2.35967C2.32992 5.70608 2.31504 5.6912 2.31504 5.66145V5.53648C2.31504 5.36687 2.26148 5.23 2.15436 5.12586C2.04724 5.01874 1.90591 4.96518 1.73035 4.96518C1.5548 4.96518 1.41346 5.01874 1.30634 5.12586C1.19922 5.23 1.14566 5.36985 1.14566 5.5454V7.02721C1.14566 7.19979 1.19922 7.33964 1.30634 7.44676C1.41643 7.55387 1.55926 7.60743 1.73481 7.60743C1.91037 7.60743 2.05022 7.55685 2.15436 7.45568C2.26148 7.35451 2.31504 7.21764 2.31504 7.04506V6.55857C2.31504 6.54666 2.30909 6.54071 2.29719 6.54071H1.77498C1.74523 6.54071 1.73035 6.52584 1.73035 6.49608V6.30862C1.73035 6.27887 1.74523 6.26399 1.77498 6.26399H2.5873C2.61705 6.26399 2.63193 6.27887 2.63193 6.30862V7.00489C2.63193 7.27566 2.5501 7.4899 2.38645 7.6476C2.2228 7.8053 2.0041 7.88416 1.73035 7.88416ZM4.81994 7.84845C4.79614 7.84845 4.77977 7.83655 4.77085 7.81274L4.2174 6.43359C4.21443 6.42467 4.20847 6.4202 4.19955 6.4202H3.62379C3.61188 6.4202 3.60593 6.42616 3.60593 6.43806V7.80382C3.60593 7.83357 3.59106 7.84845 3.5613 7.84845H3.33367C3.30392 7.84845 3.28904 7.83357 3.28904 7.80382V4.7688C3.28904 4.73904 3.30392 4.72416 3.33367 4.72416H4.27989C4.43461 4.72416 4.57149 4.75987 4.69051 4.83128C4.8125 4.90269 4.90623 5.00386 4.97169 5.13478C5.04013 5.26571 5.07435 5.41597 5.07435 5.58557C5.07435 5.78791 5.02525 5.96049 4.92706 6.10331C4.82887 6.24614 4.69497 6.34135 4.52537 6.38896C4.51346 6.39491 4.51049 6.40235 4.51644 6.41128L5.0922 7.79489L5.09666 7.81274C5.09666 7.83655 5.08327 7.84845 5.0565 7.84845H4.81994ZM3.62379 5.00089C3.61188 5.00089 3.60593 5.00684 3.60593 5.01874V6.14795C3.60593 6.15985 3.61188 6.1658 3.62379 6.1658H4.23972C4.39444 6.1658 4.51942 6.11224 4.61463 6.00512C4.70985 5.898 4.75746 5.75815 4.75746 5.58557C4.75746 5.41002 4.70985 5.26868 4.61463 5.16156C4.51942 5.05444 4.39444 5.00089 4.23972 5.00089H3.62379ZM7.27345 7.84845C7.24667 7.84845 7.2303 7.83506 7.22435 7.80828L7.07706 7.25037C7.07409 7.24145 7.06665 7.23698 7.05475 7.23698H5.98803C5.97613 7.23698 5.96869 7.24145 5.96571 7.25037L5.81842 7.80828C5.81247 7.83506 5.79611 7.84845 5.76933 7.84845H5.53724C5.52236 7.84845 5.51046 7.84399 5.50153 7.83506C5.49558 7.82613 5.49409 7.81423 5.49707 7.79935L6.3317 4.76433C6.33765 4.73755 6.35402 4.72416 6.3808 4.72416H6.66644C6.69322 4.72416 6.70959 4.73755 6.71554 4.76433L7.55017 7.79935L7.55463 7.81274C7.55463 7.83655 7.53976 7.84845 7.51 7.84845H7.27345ZM6.04159 6.96026C6.03861 6.96324 6.03861 6.9677 6.04159 6.97365C6.04754 6.97662 6.05349 6.97811 6.05944 6.97811H6.98334C6.98929 6.97811 6.99375 6.97662 6.99673 6.97365C7.00268 6.9677 7.00416 6.96324 7.00119 6.96026L6.52808 5.16603C6.52511 5.16008 6.52213 5.1571 6.51916 5.1571C6.51618 5.1571 6.51321 5.16008 6.51023 5.16603L6.04159 6.96026ZM9.58012 4.7688C9.58012 4.73904 9.595 4.72416 9.62475 4.72416H9.85238C9.88213 4.72416 9.89701 4.73904 9.89701 4.7688V7.80382C9.89701 7.83357 9.88213 7.84845 9.85238 7.84845H9.61136C9.58458 7.84845 9.56673 7.83804 9.5578 7.81721L8.36165 5.42936C8.3557 5.42341 8.34975 5.42043 8.3438 5.42043C8.34082 5.42043 8.33933 5.4249 8.33933 5.43382L8.3438 7.80382C8.3438 7.83357 8.32892 7.84845 8.29916 7.84845H8.07154C8.04178 7.84845 8.0269 7.83357 8.0269 7.80382V4.7688C8.0269 4.73904 8.04178 4.72416 8.07154 4.72416H8.31255C8.33933 4.72416 8.35719 4.73458 8.36611 4.75541L9.56227 7.15218C9.56822 7.15813 9.57268 7.16111 9.57566 7.16111C9.58161 7.16111 9.58458 7.15664 9.58458 7.14772L9.58012 4.7688ZM12.1604 4.7688C12.1604 4.73904 12.1753 4.72416 12.2051 4.72416H12.4327C12.4625 4.72416 12.4773 4.73904 12.4773 4.7688V7.80382C12.4773 7.83357 12.4625 7.84845 12.4327 7.84845H12.1917C12.1649 7.84845 12.1471 7.83804 12.1381 7.81721L10.942 5.42936C10.936 5.42341 10.9301 5.42043 10.9241 5.42043C10.9211 5.42043 10.9197 5.4249 10.9197 5.43382L10.9241 7.80382C10.9241 7.83357 10.9092 7.84845 10.8795 7.84845H10.6519C10.6221 7.84845 10.6072 7.83357 10.6072 7.80382V4.7688C10.6072 4.73904 10.6221 4.72416 10.6519 4.72416H10.8929C10.9197 4.72416 10.9375 4.73458 10.9464 4.75541L12.1426 7.15218C12.1485 7.15813 12.153 7.16111 12.156 7.16111C12.1619 7.16111 12.1649 7.15664 12.1649 7.14772L12.1604 4.7688ZM13.8385 7.84399C13.8087 7.84399 13.7938 7.82911 13.7938 7.79935V6.4693C13.7938 6.4574 13.7923 6.44996 13.7894 6.44698L13.0172 4.77772L13.0128 4.75987C13.0128 4.73607 13.0261 4.72416 13.0529 4.72416H13.2939C13.3177 4.72416 13.3341 4.73607 13.343 4.75987L13.9411 6.09439C13.9441 6.10034 13.9486 6.10331 13.9545 6.10331C13.9605 6.10331 13.9649 6.10034 13.9679 6.09439L14.566 4.75987C14.5749 4.73607 14.5913 4.72416 14.6151 4.72416H14.8561C14.871 4.72416 14.8814 4.73011 14.8873 4.74202C14.8963 4.75094 14.8977 4.76284 14.8918 4.77772L14.1152 6.44698C14.1122 6.44996 14.1107 6.4574 14.1107 6.4693V7.79935C14.1107 7.82911 14.0958 7.84399 14.0661 7.84399H13.8385ZM17.8388 7.84845C17.8121 7.84845 17.7957 7.83506 17.7897 7.80828L17.6425 7.25037C17.6395 7.24145 17.632 7.23698 17.6201 7.23698H16.5534C16.5415 7.23698 16.5341 7.24145 16.5311 7.25037L16.3838 7.80828C16.3779 7.83506 16.3615 7.84845 16.3347 7.84845H16.1026C16.0877 7.84845 16.0758 7.84399 16.0669 7.83506C16.061 7.82613 16.0595 7.81423 16.0625 7.79935L16.8971 4.76433C16.903 4.73755 16.9194 4.72416 16.9462 4.72416H17.2318C17.2586 4.72416 17.275 4.73755 17.2809 4.76433L18.1156 7.79935L18.12 7.81274C18.12 7.83655 18.1051 7.84845 18.0754 7.84845H17.8388ZM16.607 6.96026C16.604 6.96324 16.604 6.9677 16.607 6.97365C16.6129 6.97662 16.6189 6.97811 16.6248 6.97811H17.5487C17.5547 6.97811 17.5591 6.97662 17.5621 6.97365C17.5681 6.9677 17.5696 6.96324 17.5666 6.96026L17.0935 5.16603C17.0905 5.16008 17.0875 5.1571 17.0845 5.1571C17.0816 5.1571 17.0786 5.16008 17.0756 5.16603L16.607 6.96026ZM19.5742 4.7197C19.8123 4.7197 20.0042 4.80004 20.15 4.96072C20.2987 5.11842 20.3731 5.32819 20.3731 5.59004C20.3731 5.84891 20.2987 6.05719 20.15 6.21489C20.0042 6.36962 19.8123 6.44698 19.5742 6.44698H18.9092C18.8973 6.44698 18.8913 6.45294 18.8913 6.46484V7.80382C18.8913 7.83357 18.8765 7.84845 18.8467 7.84845H18.6191C18.5893 7.84845 18.5744 7.83357 18.5744 7.80382V4.76433C18.5744 4.73458 18.5893 4.7197 18.6191 4.7197H19.5742ZM19.534 6.18365C19.6917 6.18365 19.8182 6.13009 19.9134 6.02297C20.0086 5.91586 20.0562 5.77303 20.0562 5.5945C20.0562 5.41299 20.0086 5.26868 19.9134 5.16156C19.8182 5.05147 19.6917 4.99642 19.534 4.99642H18.9092C18.8973 4.99642 18.8913 5.00237 18.8913 5.01428V6.1658C18.8913 6.1777 18.8973 6.18365 18.9092 6.18365H19.534ZM21.8799 4.7197C22.118 4.7197 22.3099 4.80004 22.4557 4.96072C22.6045 5.11842 22.6789 5.32819 22.6789 5.59004C22.6789 5.84891 22.6045 6.05719 22.4557 6.21489C22.3099 6.36962 22.118 6.44698 21.8799 6.44698H21.2149C21.203 6.44698 21.1971 6.45294 21.1971 6.46484V7.80382C21.1971 7.83357 21.1822 7.84845 21.1524 7.84845H20.9248C20.895 7.84845 20.8802 7.83357 20.8802 7.80382V4.76433C20.8802 4.73458 20.895 4.7197 20.9248 4.7197H21.8799ZM21.8398 6.18365C21.9975 6.18365 22.1239 6.13009 22.2191 6.02297C22.3144 5.91586 22.362 5.77303 22.362 5.5945C22.362 5.41299 22.3144 5.26868 22.2191 5.16156C22.1239 5.05147 21.9975 4.99642 21.8398 4.99642H21.2149C21.203 4.99642 21.1971 5.00237 21.1971 5.01428V6.1658C21.1971 6.1777 21.203 6.18365 21.2149 6.18365H21.8398ZM23.2484 7.84845C23.2186 7.84845 23.2038 7.83357 23.2038 7.80382V4.7688C23.2038 4.73904 23.2186 4.72416 23.2484 4.72416H23.476C23.5058 4.72416 23.5206 4.73904 23.5206 4.7688V7.55387C23.5206 7.56578 23.5266 7.57173 23.5385 7.57173H24.8373C24.8671 7.57173 24.8819 7.5866 24.8819 7.61636V7.80382C24.8819 7.83357 24.8671 7.84845 24.8373 7.84845H23.2484ZM27.0753 4.95625C27.0753 4.98601 27.0604 5.00089 27.0307 5.00089H25.6917C25.6798 5.00089 25.6738 5.00684 25.6738 5.01874V6.12563C25.6738 6.13753 25.6798 6.14348 25.6917 6.14348H26.5933C26.623 6.14348 26.6379 6.15836 26.6379 6.18811V6.37557C26.6379 6.40533 26.623 6.4202 26.5933 6.4202H25.6917C25.6798 6.4202 25.6738 6.42616 25.6738 6.43806V7.55387C25.6738 7.56578 25.6798 7.57173 25.6917 7.57173H27.0307C27.0604 7.57173 27.0753 7.5866 27.0753 7.61636V7.80382C27.0753 7.83357 27.0604 7.84845 27.0307 7.84845H25.4016C25.3718 7.84845 25.3569 7.83357 25.3569 7.80382V4.7688C25.3569 4.73904 25.3718 4.72416 25.4016 4.72416H27.0307C27.0604 4.72416 27.0753 4.73904 27.0753 4.7688V4.95625ZM2.47125 11.7059C2.50101 11.7059 2.51589 11.7207 2.51589 11.7505V11.9469C2.51589 11.9766 2.50101 11.9915 2.47125 11.9915H2.30611C2.29421 11.9915 2.28826 11.9975 2.28826 12.0094V12.8038C2.28826 12.8336 2.27338 12.8484 2.24363 12.8484H2.016C1.98624 12.8484 1.97137 12.8336 1.97137 12.8038V12.0094C1.97137 11.9975 1.96542 11.9915 1.95351 11.9915H0.743968C0.714213 11.9915 0.699336 11.9766 0.699336 11.9469V11.7773C0.699336 11.7564 0.702311 11.7386 0.708262 11.7237L1.50272 9.75987C1.51165 9.73607 1.52802 9.72416 1.55182 9.72416H1.7973C1.81218 9.72416 1.82259 9.73011 1.82854 9.74202C1.83449 9.75094 1.83449 9.76284 1.82854 9.77772L1.06979 11.6835C1.06681 11.6895 1.06681 11.6954 1.06979 11.7014C1.07276 11.7044 1.07723 11.7059 1.08318 11.7059H1.95351C1.96542 11.7059 1.97137 11.6999 1.97137 11.688V10.9828C1.97137 10.953 1.98624 10.9382 2.016 10.9382H2.24363C2.27338 10.9382 2.28826 10.953 2.28826 10.9828V11.688C2.28826 11.6999 2.29421 11.7059 2.30611 11.7059H2.47125ZM3.82094 12.8931C3.56504 12.8931 3.35973 12.8157 3.20501 12.661C3.05028 12.5063 2.97292 12.2995 2.97292 12.0406V10.532C2.97292 10.2761 3.05028 10.0708 3.20501 9.91608C3.35973 9.76136 3.56504 9.68399 3.82094 9.68399C4.07981 9.68399 4.2866 9.76136 4.44133 9.91608C4.59903 10.0708 4.67788 10.2761 4.67788 10.532V12.0406C4.67788 12.2995 4.59903 12.5063 4.44133 12.661C4.2866 12.8157 4.07981 12.8931 3.82094 12.8931ZM3.82094 12.6164C3.98459 12.6164 4.11551 12.5658 4.2137 12.4646C4.3119 12.3634 4.36099 12.2295 4.36099 12.0629V10.5142C4.36099 10.3475 4.3119 10.2136 4.2137 10.1125C4.11551 10.0113 3.98459 9.96072 3.82094 9.96072C3.66324 9.96072 3.53529 10.0113 3.4371 10.1125C3.3389 10.2136 3.28981 10.3475 3.28981 10.5142V12.0629C3.28981 12.2266 3.3389 12.3605 3.4371 12.4646C3.53529 12.5658 3.66324 12.6164 3.82094 12.6164ZM5.95396 10.9516C5.83792 10.9516 5.7308 10.9233 5.6326 10.8668C5.53739 10.8102 5.46151 10.7343 5.40498 10.6391C5.34844 10.5409 5.32018 10.4338 5.32018 10.3178C5.32018 10.2017 5.34844 10.0961 5.40498 10.0009C5.46151 9.90269 5.53739 9.82533 5.6326 9.7688C5.7308 9.71226 5.83792 9.68399 5.95396 9.68399C6.06703 9.68399 6.17117 9.71226 6.26639 9.7688C6.36458 9.82533 6.44194 9.90269 6.49848 10.0009C6.55501 10.0961 6.58328 10.2017 6.58328 10.3178C6.58328 10.4338 6.55501 10.5409 6.49848 10.6391C6.44194 10.7343 6.36458 10.8102 6.26639 10.8668C6.17117 10.9233 6.06703 10.9516 5.95396 10.9516ZM5.8513 12.8484C5.83643 12.8484 5.82453 12.844 5.8156 12.8351C5.80965 12.8232 5.81114 12.8098 5.82006 12.7949L7.4804 9.75541C7.48932 9.73458 7.50718 9.72416 7.53396 9.72416H7.67678C7.69166 9.72416 7.70207 9.73011 7.70802 9.74202C7.71695 9.75094 7.71695 9.76284 7.70802 9.77772L6.04769 12.8172C6.03876 12.838 6.02091 12.8484 5.99413 12.8484H5.8513ZM5.95396 10.7552C6.07298 10.7552 6.17266 10.7135 6.253 10.6302C6.33631 10.5439 6.37797 10.4398 6.37797 10.3178C6.37797 10.1958 6.33631 10.0931 6.253 10.0098C6.17266 9.92352 6.07298 9.88038 5.95396 9.88038C5.83494 9.88038 5.73377 9.92352 5.65046 10.0098C5.56714 10.0931 5.52549 10.1958 5.52549 10.3178C5.52549 10.4398 5.56714 10.5439 5.65046 10.6302C5.73377 10.7135 5.83494 10.7552 5.95396 10.7552ZM7.59198 12.8886C7.47593 12.8886 7.36882 12.8604 7.27062 12.8038C7.17541 12.7473 7.09953 12.6699 7.043 12.5717C6.98646 12.4735 6.9582 12.3664 6.9582 12.2504C6.9582 12.1373 6.98646 12.0332 7.043 11.9379C7.09953 11.8398 7.17541 11.7624 7.27062 11.7059C7.36882 11.6493 7.47593 11.6211 7.59198 11.6211C7.70505 11.6211 7.80919 11.6493 7.90441 11.7059C8.0026 11.7624 8.07996 11.8398 8.1365 11.9379C8.19303 12.0332 8.2213 12.1373 8.2213 12.2504C8.2213 12.3664 8.19303 12.4735 8.1365 12.5717C8.07996 12.6699 8.0026 12.7473 7.90441 12.8038C7.80919 12.8604 7.70505 12.8886 7.59198 12.8886ZM7.59198 12.6922C7.711 12.6922 7.81068 12.6491 7.89102 12.5628C7.97433 12.4765 8.01599 12.3724 8.01599 12.2504C8.01599 12.1284 7.97433 12.0257 7.89102 11.9424C7.81068 11.8591 7.711 11.8174 7.59198 11.8174C7.47296 11.8174 7.37179 11.8591 7.28848 11.9424C7.20516 12.0257 7.16351 12.1284 7.16351 12.2504C7.16351 12.3753 7.20367 12.481 7.28401 12.5673C7.36733 12.6506 7.46998 12.6922 7.59198 12.6922Z" fill="#404040"/>
<path d="M58.988 41.7046L61.53 44.9679H72.0612" stroke="black" stroke-width="0.145684"/>
<path d="M63.7661 43.5644C63.5013 43.5644 63.2885 43.487 63.1279 43.3323C62.9702 43.1776 62.8913 42.9738 62.8913 42.7208V42.3638C62.8913 42.334 62.9062 42.3191 62.9359 42.3191H63.1636C63.1933 42.3191 63.2082 42.334 63.2082 42.3638V42.7253C63.2082 42.8949 63.2588 43.0318 63.36 43.1359C63.4611 43.2371 63.5965 43.2877 63.7661 43.2877C63.9327 43.2877 64.0681 43.2356 64.1723 43.1315C64.2764 43.0273 64.3285 42.8919 64.3285 42.7253V40.449C64.3285 40.4193 64.3434 40.4044 64.3731 40.4044H64.5963C64.626 40.4044 64.6409 40.4193 64.6409 40.449V42.7208C64.6409 42.9738 64.5606 43.1776 64.3999 43.3323C64.2392 43.487 64.028 43.5644 63.7661 43.5644ZM66.2654 43.5644C66.0839 43.5644 65.9233 43.5257 65.7834 43.4483C65.6465 43.371 65.5394 43.2624 65.4621 43.1225C65.3877 42.9827 65.3505 42.8205 65.3505 42.636V40.449C65.3505 40.4193 65.3653 40.4044 65.3951 40.4044H65.6227C65.6525 40.4044 65.6674 40.4193 65.6674 40.449V42.6539C65.6674 42.8443 65.7224 42.9976 65.8325 43.1136C65.9426 43.2296 66.0869 43.2877 66.2654 43.2877C66.444 43.2877 66.5883 43.2296 66.6984 43.1136C66.8085 42.9976 66.8635 42.8443 66.8635 42.6539V40.449C66.8635 40.4193 66.8784 40.4044 66.9081 40.4044H67.1358C67.1655 40.4044 67.1804 40.4193 67.1804 40.449V42.636C67.1804 42.8205 67.1417 42.9827 67.0644 43.1225C66.99 43.2624 66.8829 43.371 66.743 43.4483C66.6061 43.5257 66.4469 43.5644 66.2654 43.5644ZM69.4106 40.449C69.4106 40.4193 69.4255 40.4044 69.4553 40.4044H69.6829C69.7127 40.4044 69.7275 40.4193 69.7275 40.449V43.4841C69.7275 43.5138 69.7127 43.5287 69.6829 43.5287H69.4419C69.4151 43.5287 69.3973 43.5183 69.3883 43.4974L68.1922 41.1096C68.1862 41.1036 68.1803 41.1007 68.1743 41.1007C68.1713 41.1007 68.1699 41.1051 68.1699 41.1141L68.1743 43.4841C68.1743 43.5138 68.1594 43.5287 68.1297 43.5287H67.9021C67.8723 43.5287 67.8574 43.5138 67.8574 43.4841V40.449C67.8574 40.4193 67.8723 40.4044 67.9021 40.4044H68.1431C68.1699 40.4044 68.1877 40.4148 68.1966 40.4356L69.3928 42.8324C69.3987 42.8384 69.4032 42.8413 69.4062 42.8413C69.4121 42.8413 69.4151 42.8369 69.4151 42.828L69.4106 40.449ZM71.285 43.5644C71.0143 43.5644 70.7956 43.4855 70.6289 43.3278C70.4653 43.1701 70.3835 42.9604 70.3835 42.6985V41.2346C70.3835 40.9727 70.4653 40.7629 70.6289 40.6052C70.7956 40.4475 71.0143 40.3687 71.285 40.3687C71.4636 40.3687 71.6198 40.4044 71.7537 40.4758C71.8906 40.5472 71.9962 40.6469 72.0706 40.7749C72.1479 40.9028 72.1866 41.0501 72.1866 41.2167V41.3417C72.1866 41.3714 72.1717 41.3863 72.142 41.3863H71.9144C71.8846 41.3863 71.8697 41.3714 71.8697 41.3417V41.2167C71.8697 41.0471 71.8162 40.9102 71.7091 40.8061C71.6019 40.699 71.4606 40.6454 71.285 40.6454C71.1095 40.6454 70.9682 40.699 70.861 40.8061C70.7539 40.9102 70.7004 41.0501 70.7004 41.2256V42.7074C70.7004 42.88 70.7539 43.0199 70.861 43.127C70.9711 43.2341 71.114 43.2877 71.2895 43.2877C71.4651 43.2877 71.6049 43.2371 71.7091 43.1359C71.8162 43.0348 71.8697 42.8979 71.8697 42.7253V42.2388C71.8697 42.2269 71.8638 42.2209 71.8519 42.2209H71.3297C71.2999 42.2209 71.285 42.2061 71.285 42.1763V41.9889C71.285 41.9591 71.2999 41.9442 71.3297 41.9442H72.142C72.1717 41.9442 72.1866 41.9591 72.1866 41.9889V42.6851C72.1866 42.9559 72.1048 43.1701 71.9411 43.3278C71.7775 43.4855 71.5588 43.5644 71.285 43.5644ZM72.8884 43.5287C72.8586 43.5287 72.8437 43.5138 72.8437 43.4841V40.449C72.8437 40.4193 72.8586 40.4044 72.8884 40.4044H73.116C73.1457 40.4044 73.1606 40.4193 73.1606 40.449V43.2341C73.1606 43.246 73.1666 43.252 73.1785 43.252H74.4773C74.507 43.252 74.5219 43.2668 74.5219 43.2966V43.4841C74.5219 43.5138 74.507 43.5287 74.4773 43.5287H72.8884ZM76.7153 40.6365C76.7153 40.6662 76.7004 40.6811 76.6706 40.6811H75.3317C75.3198 40.6811 75.3138 40.6871 75.3138 40.699V41.8059C75.3138 41.8178 75.3198 41.8237 75.3317 41.8237H76.2332C76.263 41.8237 76.2779 41.8386 76.2779 41.8684V42.0558C76.2779 42.0856 76.263 42.1004 76.2332 42.1004H75.3317C75.3198 42.1004 75.3138 42.1064 75.3138 42.1183V43.2341C75.3138 43.246 75.3198 43.252 75.3317 43.252H76.6706C76.7004 43.252 76.7153 43.2668 76.7153 43.2966V43.4841C76.7153 43.5138 76.7004 43.5287 76.6706 43.5287H75.0415C75.0118 43.5287 74.9969 43.5138 74.9969 43.4841V40.449C74.9969 40.4193 75.0118 40.4044 75.0415 40.4044H76.6706C76.7004 40.4044 76.7153 40.4193 76.7153 40.449V40.6365ZM79.8877 40.4356C79.9026 40.4148 79.9205 40.4044 79.9413 40.4044H80.1734C80.2032 40.4044 80.218 40.4193 80.218 40.449V43.4841C80.218 43.5138 80.2032 43.5287 80.1734 43.5287H79.9458C79.916 43.5287 79.9011 43.5138 79.9011 43.4841V41.056C79.9011 41.0471 79.8982 41.0412 79.8922 41.0382C79.8863 41.0352 79.8818 41.0382 79.8788 41.0471L79.2852 42.0781C79.2703 42.099 79.2525 42.1094 79.2316 42.1094H79.1826C79.1617 42.1094 79.1439 42.099 79.129 42.0781L78.5309 41.0516C78.5279 41.0426 78.5235 41.0397 78.5175 41.0426C78.5116 41.0456 78.5086 41.0516 78.5086 41.0605V43.4841C78.5086 43.5138 78.4937 43.5287 78.464 43.5287H78.2363C78.2066 43.5287 78.1917 43.5138 78.1917 43.4841V40.449C78.1917 40.4193 78.2066 40.4044 78.2363 40.4044H78.4684C78.4893 40.4044 78.5071 40.4148 78.522 40.4356L79.1959 41.5827C79.1989 41.5857 79.2034 41.5872 79.2093 41.5872C79.2153 41.5872 79.2197 41.5857 79.2227 41.5827L79.8877 40.4356ZM80.9998 43.5287C80.9701 43.5287 80.9552 43.5138 80.9552 43.4841V40.449C80.9552 40.4193 80.9701 40.4044 80.9998 40.4044H81.2275C81.2572 40.4044 81.2721 40.4193 81.2721 40.449V43.4841C81.2721 43.5138 81.2572 43.5287 81.2275 43.5287H80.9998ZM81.8492 43.5287C81.8343 43.5287 81.8239 43.5242 81.818 43.5153C81.812 43.5034 81.812 43.49 81.818 43.4751L82.6035 41.9799C82.6095 41.971 82.6095 41.9621 82.6035 41.9532L81.818 40.458C81.815 40.452 81.8135 40.4446 81.8135 40.4356C81.8135 40.4148 81.8254 40.4044 81.8492 40.4044H82.0947C82.1215 40.4044 82.1393 40.4148 82.1483 40.4356L82.7731 41.672C82.7761 41.6779 82.7805 41.6809 82.7865 41.6809C82.7924 41.6809 82.7969 41.6779 82.7999 41.672L83.4247 40.4356C83.4337 40.4148 83.4515 40.4044 83.4783 40.4044H83.7238C83.7387 40.4044 83.7491 40.4104 83.755 40.4223C83.761 40.4312 83.761 40.4431 83.755 40.458L82.965 41.9576C82.9621 41.9665 82.9621 41.9755 82.965 41.9844L83.755 43.4751C83.758 43.4811 83.7595 43.4885 83.7595 43.4974C83.7595 43.5183 83.7476 43.5287 83.7238 43.5287H83.4783C83.4515 43.5287 83.4337 43.5183 83.4247 43.4974L82.7999 42.2656C82.7969 42.2596 82.7924 42.2567 82.7865 42.2567C82.7805 42.2567 82.7761 42.2596 82.7731 42.2656L82.1483 43.4974C82.1393 43.5183 82.1215 43.5287 82.0947 43.5287H81.8492ZM64.7034 47.3861C64.7332 47.3861 64.748 47.401 64.748 47.4307V47.6271C64.748 47.6569 64.7332 47.6717 64.7034 47.6717H64.5383C64.5264 47.6717 64.5204 47.6777 64.5204 47.6896V48.4841C64.5204 48.5138 64.5055 48.5287 64.4758 48.5287H64.2481C64.2184 48.5287 64.2035 48.5138 64.2035 48.4841V47.6896C64.2035 47.6777 64.1976 47.6717 64.1857 47.6717H62.9761C62.9464 47.6717 62.9315 47.6569 62.9315 47.6271V47.4575C62.9315 47.4367 62.9345 47.4188 62.9404 47.4039L63.7349 45.4401C63.7438 45.4163 63.7602 45.4044 63.784 45.4044H64.0294C64.0443 45.4044 64.0547 45.4104 64.0607 45.4223C64.0666 45.4312 64.0666 45.4431 64.0607 45.458L63.3019 47.3638C63.299 47.3697 63.299 47.3757 63.3019 47.3816C63.3049 47.3846 63.3094 47.3861 63.3153 47.3861H64.1857C64.1976 47.3861 64.2035 47.3801 64.2035 47.3682V46.663C64.2035 46.6333 64.2184 46.6184 64.2481 46.6184H64.4758C64.5055 46.6184 64.5204 46.6333 64.5204 46.663V47.3682C64.5204 47.3801 64.5264 47.3861 64.5383 47.3861H64.7034ZM66.0531 48.5733C65.7972 48.5733 65.5919 48.496 65.4372 48.3412C65.2824 48.1865 65.2051 47.9797 65.2051 47.7208V46.2123C65.2051 45.9564 65.2824 45.751 65.4372 45.5963C65.5919 45.4416 65.7972 45.3642 66.0531 45.3642C66.312 45.3642 66.5188 45.4416 66.6735 45.5963C66.8312 45.751 66.91 45.9564 66.91 46.2123V47.7208C66.91 47.9797 66.8312 48.1865 66.6735 48.3412C66.5188 48.496 66.312 48.5733 66.0531 48.5733ZM66.0531 48.2966C66.2167 48.2966 66.3477 48.246 66.4459 48.1448C66.544 48.0437 66.5931 47.9098 66.5931 47.7432V46.1944C66.5931 46.0278 66.544 45.8939 66.4459 45.7927C66.3477 45.6915 66.2167 45.641 66.0531 45.641C65.8954 45.641 65.7674 45.6915 65.6692 45.7927C65.5711 45.8939 65.522 46.0278 65.522 46.1944V47.7432C65.522 47.9068 65.5711 48.0407 65.6692 48.1448C65.7674 48.246 65.8954 48.2966 66.0531 48.2966ZM68.1861 46.6318C68.0701 46.6318 67.9629 46.6035 67.8648 46.547C67.7695 46.4905 67.6937 46.4146 67.6371 46.3194C67.5806 46.2212 67.5523 46.1141 67.5523 45.998C67.5523 45.882 67.5806 45.7763 67.6371 45.6811C67.6937 45.5829 67.7695 45.5056 67.8648 45.449C67.9629 45.3925 68.0701 45.3642 68.1861 45.3642C68.2992 45.3642 68.4033 45.3925 68.4985 45.449C68.5967 45.5056 68.6741 45.5829 68.7306 45.6811C68.7872 45.7763 68.8154 45.882 68.8154 45.998C68.8154 46.1141 68.7872 46.2212 68.7306 46.3194C68.6741 46.4146 68.5967 46.4905 68.4985 46.547C68.4033 46.6035 68.2992 46.6318 68.1861 46.6318ZM68.0835 48.5287C68.0686 48.5287 68.0567 48.5242 68.0477 48.5153C68.0418 48.5034 68.0433 48.49 68.0522 48.4751L69.7125 45.4356C69.7215 45.4148 69.7393 45.4044 69.7661 45.4044H69.9089C69.9238 45.4044 69.9342 45.4104 69.9402 45.4223C69.9491 45.4312 69.9491 45.4431 69.9402 45.458L68.2798 48.4974C68.2709 48.5183 68.2531 48.5287 68.2263 48.5287H68.0835ZM68.1861 46.4354C68.3051 46.4354 68.4048 46.3938 68.4851 46.3104C68.5685 46.2242 68.6101 46.12 68.6101 45.998C68.6101 45.876 68.5685 45.7734 68.4851 45.69C68.4048 45.6038 68.3051 45.5606 68.1861 45.5606C68.0671 45.5606 67.9659 45.6038 67.8826 45.69C67.7993 45.7734 67.7576 45.876 67.7576 45.998C67.7576 46.12 67.7993 46.2242 67.8826 46.3104C67.9659 46.3938 68.0671 46.4354 68.1861 46.4354ZM69.8241 48.5689C69.7081 48.5689 69.601 48.5406 69.5028 48.4841C69.4076 48.4275 69.3317 48.3502 69.2751 48.252C69.2186 48.1538 69.1903 48.0467 69.1903 47.9306C69.1903 47.8175 69.2186 47.7134 69.2751 47.6182C69.3317 47.52 69.4076 47.4426 69.5028 47.3861C69.601 47.3296 69.7081 47.3013 69.8241 47.3013C69.9372 47.3013 70.0413 47.3296 70.1366 47.3861C70.2347 47.4426 70.3121 47.52 70.3686 47.6182C70.4252 47.7134 70.4534 47.8175 70.4534 47.9306C70.4534 48.0467 70.4252 48.1538 70.3686 48.252C70.3121 48.3502 70.2347 48.4275 70.1366 48.4841C70.0413 48.5406 69.9372 48.5689 69.8241 48.5689ZM69.8241 48.3725C69.9431 48.3725 70.0428 48.3293 70.1232 48.243C70.2065 48.1567 70.2481 48.0526 70.2481 47.9306C70.2481 47.8086 70.2065 47.706 70.1232 47.6226C70.0428 47.5393 69.9431 47.4977 69.8241 47.4977C69.7051 47.4977 69.6039 47.5393 69.5206 47.6226C69.4373 47.706 69.3957 47.8086 69.3957 47.9306C69.3957 48.0556 69.4358 48.1612 69.5162 48.2475C69.5995 48.3308 69.7021 48.3725 69.8241 48.3725Z" fill="#404040"/>
</svg>
