<svg width="89" height="57" viewBox="0 0 89 57" fill="none" xmlns="http://www.w3.org/2000/svg">
<path fill-rule="evenodd" clip-rule="evenodd" d="M39.7396 17.2802C39.7396 17.3028 39.596 18.3321 39.4255 19.5601C39.255 20.7882 39.1114 21.8401 39.1114 21.8898V21.9891L39.5197 21.8853C39.8698 21.795 40.0358 21.7137 40.6776 21.3254C41.0859 21.0726 41.4494 20.8514 41.4808 20.8288C41.5302 20.8017 41.3776 20.4631 40.8212 19.3525C40.0134 17.7317 39.7441 17.2125 39.7396 17.2802Z" fill="black"/>
<path fill-rule="evenodd" clip-rule="evenodd" d="M40.8032 21.4645C40.4621 21.6631 40.1929 21.8347 40.2018 21.8437C40.2108 21.8573 40.5564 21.7805 40.9648 21.6767L41.7097 21.4916L41.611 21.2929C41.5616 21.1846 41.4943 21.0943 41.4719 21.0988C41.4449 21.0988 41.1443 21.2658 40.8032 21.4645Z" fill="black"/>
<path fill-rule="evenodd" clip-rule="evenodd" d="M40.3993 22.0422C39.7396 22.2363 39.1831 22.4079 39.1651 22.426C39.1337 22.4576 42.0283 22.4169 42.0597 22.3853C42.0687 22.3763 42.0014 22.2138 41.9071 22.0241C41.8039 21.812 41.7141 21.681 41.6693 21.6855C41.6334 21.6901 41.0589 21.8481 40.3993 22.0422Z" fill="black"/>
<path fill-rule="evenodd" clip-rule="evenodd" d="M40.1524 22.8595C39.6005 22.8775 39.1427 22.9001 39.1293 22.9137C39.1158 22.9227 39.6274 23.3155 40.2646 23.7805C40.9019 24.25 41.4449 24.6473 41.4718 24.6699C41.5122 24.697 43.5541 24.6248 43.59 24.5932C43.599 24.5886 43.3163 24.1823 42.9617 23.6947L42.3245 22.8098L41.7366 22.8188C41.418 22.8188 40.7044 22.8369 40.1524 22.8595Z" fill="black"/>
<path fill-rule="evenodd" clip-rule="evenodd" d="M39.1114 23.2382C39.2685 23.6536 39.3088 23.6897 39.6993 23.7936C39.9012 23.8477 40.0762 23.8884 40.0852 23.8793C40.0987 23.8613 39.1249 23.1254 39.0889 23.1254C39.08 23.1254 39.0889 23.175 39.1114 23.2382Z" fill="black"/>
<path fill-rule="evenodd" clip-rule="evenodd" d="M39.3986 23.8797C39.4165 23.9203 39.5108 24.1415 39.614 24.3763L39.798 24.7962L40.2737 24.7691C40.5339 24.751 40.8705 24.7284 41.0186 24.7104L41.2879 24.6833L40.8436 24.3718C40.4083 24.0648 40.3275 24.0332 39.6589 23.8751C39.3986 23.8164 39.3761 23.8164 39.3986 23.8797Z" fill="black"/>
<path fill-rule="evenodd" clip-rule="evenodd" d="M39.3044 25.1219C39.3179 25.1806 39.3538 25.3657 39.3852 25.5328L39.4435 25.8398L40.184 26.5215C40.5924 26.8962 40.9828 27.2529 41.0456 27.3116L41.1623 27.4199L41.3777 26.3228C41.4944 25.7179 41.6021 25.1806 41.6111 25.1219L41.6335 25.0226H40.4577H39.282L39.3044 25.1219Z" fill="black"/>
<path fill-rule="evenodd" clip-rule="evenodd" d="M37.4823 25.7996C37.415 26.2059 37.3611 26.549 37.3611 26.5671C37.3611 26.6032 39.1428 27.2037 39.1921 27.1811C39.228 27.1675 37.6798 25.0772 37.6304 25.0727C37.6169 25.0682 37.5496 25.3977 37.4823 25.7996Z" fill="black"/>
<path fill-rule="evenodd" clip-rule="evenodd" d="M42.2531 25.0987C42.2531 25.1394 42.9127 26.7421 42.9352 26.7602C42.998 26.8053 44.6899 27.4148 44.7078 27.3968C44.7213 27.3832 44.5418 26.855 44.3129 26.2184L43.8911 25.0671H43.0743C42.621 25.0671 42.2531 25.0807 42.2531 25.0987Z" fill="black"/>
<path fill-rule="evenodd" clip-rule="evenodd" d="M36.2842 27.7989C36.2842 27.8441 36.7374 28.7335 36.7554 28.72C36.7644 28.7109 36.7285 28.4942 36.6791 28.2369L36.5849 27.7764H36.4368C36.3515 27.7764 36.2842 27.7854 36.2842 27.7989Z" fill="black"/>
<path fill-rule="evenodd" clip-rule="evenodd" d="M36.7778 27.8033C36.7778 27.8259 36.8092 28.0471 36.8451 28.2954C36.881 28.5437 36.9124 28.774 36.9124 28.8011C36.9124 28.8462 37.0381 28.8598 37.3836 28.8598C37.7965 28.8598 37.8683 28.8733 37.9446 28.9501C38.0568 29.0629 38.0612 29.23 37.9535 29.3248C37.8907 29.3835 37.783 29.4015 37.5048 29.4015H37.1368V29.9433V30.4851H37.4958C37.7965 30.4851 37.8683 30.4986 37.9446 30.5754C37.9939 30.625 38.0343 30.7063 38.0343 30.756C38.0343 30.8056 37.9939 30.8869 37.9446 30.9366C37.8683 31.0133 37.7965 31.0269 37.4958 31.0269H37.1368V31.5732V32.1194L37.6439 32.1014C38.0478 32.0878 38.1824 32.0653 38.3305 31.9885C38.6312 31.8305 38.7838 31.6725 38.9274 31.379C39.1114 31.0088 39.1248 30.5438 38.9543 30.1781L38.8466 29.9433L38.9543 29.704C39.0396 29.5234 39.0665 29.397 39.0665 29.1307C39.0665 28.7063 38.9453 28.4218 38.6491 28.1509C38.326 27.853 38.1959 27.8123 37.4419 27.7852C37.074 27.7762 36.7778 27.7807 36.7778 27.8033Z" fill="black"/>
<path fill-rule="evenodd" clip-rule="evenodd" d="M39.2461 28.5078C39.2461 29.1399 39.255 29.2121 39.3493 29.3746C39.5063 29.65 39.6769 29.7177 40.2244 29.7177C40.6731 29.7177 40.6866 29.7132 40.736 29.6049C40.7808 29.501 40.8123 29.492 41.0725 29.492C41.2251 29.492 41.3553 29.4739 41.3553 29.4559C41.3553 29.4333 41.3239 29.325 41.2835 29.2076C41.2206 29.0225 41.1982 28.9954 41.086 28.9954H40.9559L41.0187 28.8419C41.077 28.6974 41.0725 28.6613 40.9648 28.3678C40.902 28.1872 40.8347 28.0608 40.8123 28.0789C40.7943 28.0969 40.6552 28.4717 40.4981 28.9051C40.2199 29.6726 40.2109 29.6907 40.1974 29.4785C40.184 29.2753 40.1795 29.2663 40.0494 29.2663C39.9686 29.2663 39.8743 29.2256 39.807 29.1534C39.6993 29.0496 39.6948 29.0225 39.6948 28.431V27.8215H39.4704H39.2461V28.5078Z" fill="black"/>
<path fill-rule="evenodd" clip-rule="evenodd" d="M40.9426 27.8441C40.9291 27.8577 41.0682 28.2775 41.2432 28.7832L41.5708 29.6952L41.8266 29.7087C42.06 29.7223 42.0824 29.7133 42.051 29.641C42.0331 29.5959 41.8895 29.2076 41.7324 28.7742C41.3599 27.7674 41.3913 27.8216 41.158 27.8216C41.0547 27.8216 40.956 27.8306 40.9426 27.8441Z" fill="black"/>
<path fill-rule="evenodd" clip-rule="evenodd" d="M42.7781 27.8802C42.0377 28.115 41.8806 29.1082 42.5133 29.5552C42.6569 29.6591 42.7647 29.6952 42.9711 29.7087L43.2403 29.7268V29.4965C43.2403 29.2753 43.2359 29.2663 43.1192 29.2663C42.9397 29.2663 42.6884 29.1263 42.6255 28.9954C42.5268 28.7967 42.5537 28.6387 42.7198 28.4717C42.8454 28.3452 42.9083 28.3182 43.0564 28.3182H43.2403V28.0698V27.8215L43.0967 27.826C43.016 27.826 42.8724 27.8531 42.7781 27.8802Z" fill="black"/>
<path fill-rule="evenodd" clip-rule="evenodd" d="M43.3749 28.7696V29.7177H43.5993H43.8237V28.7696V27.8215H43.5993H43.3749V28.7696Z" fill="black"/>
<path fill-rule="evenodd" clip-rule="evenodd" d="M44.304 27.8486C44.286 27.8667 44.2726 27.966 44.2726 28.0653C44.2726 28.264 44.1828 28.4085 44.0168 28.4942C43.927 28.5394 43.9135 28.5845 43.9135 28.7922C43.9135 28.9954 43.927 29.0405 44.0033 29.0631C44.1559 29.1128 44.2726 29.3069 44.2726 29.5191V29.7178H44.5239H44.7797L44.7527 29.4378C44.7348 29.2256 44.6944 29.1128 44.5912 28.9638C44.4655 28.7832 44.4566 28.7561 44.5194 28.6974C44.654 28.562 44.7348 28.3407 44.7393 28.0924L44.7438 27.8441L44.5418 27.8306C44.4296 27.8215 44.3219 27.8306 44.304 27.8486Z" fill="black"/>
<path fill-rule="evenodd" clip-rule="evenodd" d="M35.7008 30.2599C35.7008 31.6595 35.7142 32.0252 35.7591 32.0071C35.786 31.9981 36.0194 31.8897 36.2752 31.7724L36.7329 31.5557L36.724 30.3321L36.7105 29.1132L36.3515 28.8919C36.154 28.77 35.9252 28.6301 35.8489 28.5804L35.7008 28.4901V30.2599Z" fill="black"/>
<path fill-rule="evenodd" clip-rule="evenodd" d="M39.2461 30.6528C39.2461 31.5016 39.2909 31.6731 39.5557 31.8989C40.0045 32.2781 40.718 32.1201 40.9559 31.5918C41.0277 31.4383 41.0411 31.2894 41.0411 30.6528V29.8988H40.7315H40.4218L40.4398 30.5896C40.4577 31.4158 40.4308 31.497 40.1571 31.5151C39.8564 31.5377 39.8295 31.4609 39.8295 30.6121V29.8988H39.5378H39.2461V30.6528Z" fill="black"/>
<path fill-rule="evenodd" clip-rule="evenodd" d="M41.1759 30.1697V30.4361L41.683 30.4496L42.1856 30.4632V30.576V30.6889L41.683 30.7024L41.1759 30.716V31.4158V32.1156L41.4137 32.102L41.6471 32.0885V31.6821V31.2758L41.8221 31.2623C41.9208 31.2532 42.0465 31.2578 42.1048 31.2713C42.2036 31.2984 42.208 31.3164 42.208 31.7047V32.1111H42.5222H42.8363V31.7137C42.8363 31.4248 42.8139 31.2803 42.7555 31.1629C42.6792 31.0094 42.6792 30.9959 42.76 30.8063C42.8632 30.567 42.8363 30.3638 42.6703 30.1652C42.4818 29.944 42.3247 29.8988 41.7144 29.8988H41.1759V30.1697Z" fill="black"/>
<path fill-rule="evenodd" clip-rule="evenodd" d="M42.971 31.0049V32.1111H43.2627H43.5544V31.0049V29.8988H43.2627H42.971V31.0049Z" fill="black"/>
<path fill-rule="evenodd" clip-rule="evenodd" d="M43.6892 30.1648C43.6892 30.4357 43.6892 30.4402 43.8148 30.4402C43.8821 30.4402 43.9854 30.4718 44.0392 30.5124C44.1335 30.5802 44.1379 30.6073 44.1379 31.3477V32.1107H44.4566H44.7752L44.7572 31.28L44.7438 30.4492L44.6047 30.2777C44.3848 30.0023 44.2546 29.93 43.9584 29.9075L43.6892 29.8894V30.1648Z" fill="black"/>
<path fill-rule="evenodd" clip-rule="evenodd" d="M45.6413 30.4316C45.372 30.5399 45.1342 30.6437 45.1162 30.6618C45.0983 30.6754 45.1746 31.023 45.2823 31.4338C45.3945 31.8402 45.4842 32.2014 45.4842 32.233C45.4842 32.2646 45.4977 32.2916 45.5201 32.2916C45.556 32.2916 46.1708 30.3232 46.1484 30.269C46.1394 30.2464 45.915 30.3187 45.6413 30.4316Z" fill="black"/>
<path fill-rule="evenodd" clip-rule="evenodd" d="M43.4736 32.6521C43.4242 32.765 43.1056 33.4241 42.769 34.1194C41.7952 36.1195 41.4855 36.7741 41.5125 36.7967C41.5259 36.8102 41.5708 36.7877 41.6112 36.7515C41.6561 36.7154 42.2395 36.2233 42.9036 35.6545C43.5723 35.0901 44.1333 34.6115 44.1512 34.5935C44.1781 34.5709 43.7339 32.9456 43.5813 32.4941C43.5723 32.467 43.5229 32.5393 43.4736 32.6521Z" fill="black"/>
<path fill-rule="evenodd" clip-rule="evenodd" d="M36.9258 33.0996C36.127 33.3389 35.4808 33.5466 35.4897 33.5601C35.5256 33.6459 36.836 34.7791 36.863 34.7475C37.0156 34.576 38.4022 32.6933 38.3888 32.6798C38.3798 32.6707 37.7201 32.8603 36.9258 33.0996Z" fill="black"/>
<path fill-rule="evenodd" clip-rule="evenodd" d="M43.8327 32.8555C43.9404 33.2754 44.295 34.4131 44.3219 34.4131C44.3398 34.4131 44.4475 34.3274 44.5597 34.219L44.7662 34.0294L44.3443 33.4515C43.8776 32.8104 43.7968 32.7156 43.8327 32.8555Z" fill="black"/>
<path fill-rule="evenodd" clip-rule="evenodd" d="M38.0791 33.6549C37.747 34.0838 37.388 34.5533 37.2803 34.6933C37.1726 34.8333 37.0918 34.9687 37.0963 34.9913C37.1053 35.0138 37.5316 35.4066 38.0387 35.8626C38.5503 36.3186 39.1292 36.8423 39.3312 37.0274C39.6229 37.2938 39.6947 37.339 39.6767 37.2532C39.6588 37.1945 39.4344 36.1922 39.1741 35.0229C38.9138 33.8581 38.6984 32.8964 38.6894 32.8919C38.6849 32.8829 38.4067 33.2305 38.0791 33.6549Z" fill="black"/>
<path fill-rule="evenodd" clip-rule="evenodd" d="M42.0687 33.4788C41.5661 33.8083 40.9647 34.1966 40.7404 34.3411C40.5115 34.4856 40.323 34.621 40.323 34.6391C40.323 34.6571 40.4442 35.0589 40.5967 35.524C40.7448 35.9935 40.8974 36.4766 40.9378 36.594C40.9737 36.7159 41.0141 36.8016 41.0276 36.7926C41.068 36.7475 43.0156 32.9099 43.0021 32.8963C42.9932 32.8873 42.5758 33.1492 42.0687 33.4788Z" fill="black"/>
<path d="M38.67 27.4834L38.6699 26.8751L40.5857 27.5239L38.67 27.4834Z" fill="#FF9D00"/>
<path d="M37.0586 28.2965L37.0587 27.7615L37.4105 27.7615L38.0722 28.8455L37.0586 28.2965Z" fill="#FF9D00"/>
<path d="M46.6173 30.4642L46.4766 29.9856L47.5324 29.1972L46.6173 30.4642Z" fill="#FF9D00"/>
<path d="M46.2513 33.9423L45.4066 32.3937L46.4766 32.5345L46.2513 33.9423Z" fill="#FF9D00"/>
<path d="M41.8308 34.2801L42.1828 33.4074L44.2522 32.7035L41.8308 34.2801Z" fill="#FF9D00"/>
<path d="M36.9319 33.154L39.4518 32.2671L39.6348 32.5742L36.9319 33.154Z" fill="#FF9D00"/>
<path d="M38.1425 32.0835L37.2837 32.0835L38.1425 31.633L38.1425 32.0835Z" fill="#FF9D00"/>
<path d="M47.5041 29.9579L47.0255 30.2253L46.941 30.2112L47.6871 29.2821L47.5041 29.9579Z" fill="#FF9D00"/>
<path d="M40.9711 26.9158L40.8697 26.1657L42.0456 27.3214L40.9711 26.9158Z" fill="#FF9D00"/>
<path d="M43.0188 26.2676L43.2622 25.112L43.5256 25.558L43.0188 26.2676Z" fill="#FF9D00"/>
<path d="M44.2352 27.4027L44.2758 26.9161L45.8571 27.4635L44.2352 27.4027Z" fill="#FF9D00"/>
<path d="M41.0467 50.0968C36.4912 50.2557 32.0023 48.9705 28.2233 46.4254C24.4443 43.8803 21.5692 40.2061 20.0102 35.9292L27.1093 33.3493C28.1227 36.1293 29.9915 38.5175 32.4478 40.1718C34.9042 41.8261 37.822 42.6615 40.7831 42.5583L41.0467 50.0968Z" fill="#FFCB45"/>
<path d="M52.3636 10.6907C56.1426 13.2357 59.0176 16.91 60.5766 21.1869C62.1357 25.4637 62.2986 30.1236 61.0422 34.4986C59.7857 38.8736 57.1744 42.7392 53.5824 45.5412C49.9904 48.3433 45.6022 49.938 41.0466 50.0968L40.783 42.5583C43.7441 42.455 46.5965 41.4185 48.9313 39.5971C51.266 37.7758 52.9634 35.2632 53.7801 32.4194C54.5968 29.5756 54.4909 26.5467 53.4775 23.7668C52.4641 20.9868 50.5954 18.5985 48.139 16.9442L52.3636 10.6907Z" fill="#FFF9E3"/>
<path d="M20.0102 35.9292C18.4512 31.6524 18.2882 26.9925 19.5446 22.6175C20.8011 18.2425 23.4124 14.377 27.0044 11.5749C30.5964 8.77281 34.9846 7.17807 39.5401 7.01923C44.0956 6.86039 48.5846 8.1456 52.3636 10.6907L48.139 16.9442C45.6827 15.29 42.7648 14.4546 39.8038 14.5578C36.8427 14.6611 33.9903 15.6976 31.6555 17.519C29.3208 19.3403 27.6234 21.8529 26.8067 24.6967C25.99 27.5405 26.096 30.5694 27.1093 33.3493L20.0102 35.9292Z" fill="#FF4D00"/>
<path d="M27.7872 12.808L25.2452 9.54468H14.7141" stroke="black" stroke-width="0.145684"/>
<path d="M28.1501 45.0775L25.6081 48.3408H15.077" stroke="black" stroke-width="0.145684"/>
<path d="M3.8874 46.9031C3.86063 46.9031 3.84426 46.8897 3.83831 46.8629L3.69102 46.305C3.68805 46.2961 3.68061 46.2916 3.6687 46.2916H2.60198C2.59008 46.2916 2.58264 46.2961 2.57967 46.305L2.43238 46.8629C2.42643 46.8897 2.41006 46.9031 2.38328 46.9031H2.15119C2.13632 46.9031 2.12441 46.8986 2.11549 46.8897C2.10954 46.8808 2.10805 46.8689 2.11102 46.854L2.94566 43.819C2.95161 43.7922 2.96797 43.7788 2.99475 43.7788H3.2804C3.30718 43.7788 3.32355 43.7922 3.3295 43.819L4.16413 46.854L4.16859 46.8674C4.16859 46.8912 4.15371 46.9031 4.12396 46.9031H3.8874ZM2.65554 46.0149C2.65257 46.0179 2.65257 46.0223 2.65554 46.0283C2.66149 46.0313 2.66745 46.0327 2.6734 46.0327H3.59729C3.60324 46.0327 3.60771 46.0313 3.61068 46.0283C3.61663 46.0223 3.61812 46.0179 3.61515 46.0149L3.14204 44.2207C3.13906 44.2147 3.13609 44.2117 3.13311 44.2117C3.13014 44.2117 3.12716 44.2147 3.12419 44.2207L2.65554 46.0149ZM6.19408 43.8234C6.19408 43.7937 6.20895 43.7788 6.23871 43.7788H6.46634C6.49609 43.7788 6.51097 43.7937 6.51097 43.8234V46.8584C6.51097 46.8882 6.49609 46.9031 6.46634 46.9031H6.22532C6.19854 46.9031 6.18069 46.8927 6.17176 46.8718L4.9756 44.484C4.96965 44.478 4.9637 44.4751 4.95775 44.4751C4.95478 44.4751 4.95329 44.4795 4.95329 44.4884L4.95775 46.8584C4.95775 46.8882 4.94287 46.9031 4.91312 46.9031H4.68549C4.65574 46.9031 4.64086 46.8882 4.64086 46.8584V43.8234C4.64086 43.7937 4.65574 43.7788 4.68549 43.7788H4.92651C4.95329 43.7788 4.97114 43.7892 4.98007 43.81L6.17622 46.2068C6.18217 46.2128 6.18664 46.2157 6.18961 46.2157C6.19556 46.2157 6.19854 46.2113 6.19854 46.2023L6.19408 43.8234ZM8.76474 46.9031C8.73796 46.9031 8.7216 46.8897 8.71565 46.8629L8.56836 46.305C8.56538 46.2961 8.55795 46.2916 8.54604 46.2916H7.47932C7.46742 46.2916 7.45998 46.2961 7.45701 46.305L7.30972 46.8629C7.30377 46.8897 7.2874 46.9031 7.26062 46.9031H7.02853C7.01366 46.9031 7.00175 46.8986 6.99283 46.8897C6.98688 46.8808 6.98539 46.8689 6.98836 46.854L7.82299 43.819C7.82895 43.7922 7.84531 43.7788 7.87209 43.7788H8.15774C8.18452 43.7788 8.20088 43.7922 8.20684 43.819L9.04147 46.854L9.04593 46.8674C9.04593 46.8912 9.03105 46.9031 9.0013 46.9031H8.76474ZM7.53288 46.0149C7.52991 46.0179 7.52991 46.0223 7.53288 46.0283C7.53883 46.0313 7.54478 46.0327 7.55074 46.0327H8.47463C8.48058 46.0327 8.48505 46.0313 8.48802 46.0283C8.49397 46.0223 8.49546 46.0179 8.49248 46.0149L8.01938 44.2207C8.0164 44.2147 8.01343 44.2117 8.01045 44.2117C8.00748 44.2117 8.0045 44.2147 8.00153 44.2207L7.53288 46.0149ZM11.0714 43.8234C11.0714 43.7937 11.0863 43.7788 11.116 43.7788H11.3437C11.3734 43.7788 11.3883 43.7937 11.3883 43.8234V46.8584C11.3883 46.8882 11.3734 46.9031 11.3437 46.9031H11.1027C11.0759 46.9031 11.058 46.8927 11.0491 46.8718L9.85294 44.484C9.84699 44.478 9.84104 44.4751 9.83509 44.4751C9.83212 44.4751 9.83063 44.4795 9.83063 44.4884L9.83509 46.8584C9.83509 46.8882 9.82021 46.9031 9.79046 46.9031H9.56283C9.53308 46.9031 9.5182 46.8882 9.5182 46.8584V43.8234C9.5182 43.7937 9.53308 43.7788 9.56283 43.7788H9.80385C9.83063 43.7788 9.84848 43.7892 9.85741 43.81L11.0536 46.2068C11.0595 46.2128 11.064 46.2157 11.067 46.2157C11.0729 46.2157 11.0759 46.2113 11.0759 46.2023L11.0714 43.8234ZM13.6421 46.9031C13.6153 46.9031 13.5989 46.8897 13.593 46.8629L13.4457 46.305C13.4427 46.2961 13.4353 46.2916 13.4234 46.2916H12.3567C12.3448 46.2916 12.3373 46.2961 12.3343 46.305L12.1871 46.8629C12.1811 46.8897 12.1647 46.9031 12.138 46.9031H11.9059C11.891 46.9031 11.8791 46.8986 11.8702 46.8897C11.8642 46.8808 11.8627 46.8689 11.8657 46.854L12.7003 43.819C12.7063 43.7922 12.7226 43.7788 12.7494 43.7788H13.0351C13.0619 43.7788 13.0782 43.7922 13.0842 43.819L13.9188 46.854L13.9233 46.8674C13.9233 46.8912 13.9084 46.9031 13.8786 46.9031H13.6421ZM12.4102 46.0149C12.4072 46.0179 12.4072 46.0223 12.4102 46.0283C12.4162 46.0313 12.4221 46.0327 12.4281 46.0327H13.352C13.3579 46.0327 13.3624 46.0313 13.3654 46.0283C13.3713 46.0223 13.3728 46.0179 13.3698 46.0149L12.8967 44.2207C12.8937 44.2147 12.8908 44.2117 12.8878 44.2117C12.8848 44.2117 12.8818 44.2147 12.8789 44.2207L12.4102 46.0149ZM15.0234 46.9388C14.7437 46.9388 14.5206 46.8659 14.3539 46.7201C14.1903 46.5713 14.1085 46.3734 14.1085 46.1265V46.006C14.1085 45.9762 14.1233 45.9613 14.1531 45.9613H14.3718C14.4015 45.9613 14.4164 45.9762 14.4164 46.006V46.1086C14.4164 46.2752 14.473 46.4091 14.586 46.5103C14.6991 46.6115 14.8494 46.6621 15.0368 46.6621C15.2124 46.6621 15.3507 46.6145 15.4519 46.5192C15.5531 46.424 15.6037 46.299 15.6037 46.1443C15.6037 46.0432 15.5798 45.9554 15.5322 45.881C15.4846 45.8066 15.4147 45.7382 15.3225 45.6757C15.2302 45.6132 15.0978 45.5343 14.9252 45.4391C14.7408 45.3409 14.595 45.2546 14.4878 45.1803C14.3837 45.1059 14.2989 45.0151 14.2334 44.908C14.168 44.8009 14.1352 44.67 14.1352 44.5152C14.1352 44.2742 14.2126 44.0853 14.3673 43.9484C14.5221 43.8115 14.7289 43.7431 14.9877 43.7431C15.2644 43.7431 15.4846 43.819 15.6483 43.9707C15.8119 44.1225 15.8938 44.3233 15.8938 44.5733V44.6759C15.8938 44.7057 15.8789 44.7205 15.8491 44.7205H15.626C15.5962 44.7205 15.5813 44.7057 15.5813 44.6759V44.5777C15.5813 44.4111 15.5278 44.2772 15.4207 44.176C15.3135 44.0719 15.1663 44.0198 14.9788 44.0198C14.8122 44.0198 14.6812 44.063 14.586 44.1492C14.4938 44.2355 14.4477 44.3575 14.4477 44.5152C14.4477 44.6164 14.47 44.7012 14.5146 44.7696C14.5592 44.8381 14.6232 44.9006 14.7065 44.9571C14.7928 45.0136 14.9237 45.0895 15.0993 45.1847C15.3016 45.2978 15.4564 45.3945 15.5635 45.4748C15.6736 45.5522 15.7599 45.6429 15.8224 45.7471C15.8878 45.8483 15.9205 45.9732 15.9205 46.122C15.9205 46.3719 15.8402 46.5713 15.6795 46.7201C15.5189 46.8659 15.3002 46.9388 15.0234 46.9388ZM3.12865 51.9388C2.84895 51.9388 2.62579 51.8659 2.45916 51.7201C2.29551 51.5713 2.21368 51.3734 2.21368 51.1265V51.006C2.21368 50.9762 2.22856 50.9613 2.25831 50.9613H2.47701C2.50677 50.9613 2.52165 50.9762 2.52165 51.006V51.1086C2.52165 51.2752 2.57818 51.4091 2.69125 51.5103C2.80432 51.6115 2.95458 51.6621 3.14204 51.6621C3.31759 51.6621 3.45596 51.6145 3.55712 51.5192C3.65829 51.424 3.70887 51.299 3.70887 51.1443C3.70887 51.0432 3.68507 50.9554 3.63746 50.881C3.58985 50.8066 3.51993 50.7382 3.42769 50.6757C3.33545 50.6132 3.20304 50.5343 3.03046 50.4391C2.84598 50.3409 2.70018 50.2546 2.59306 50.1803C2.48891 50.1059 2.40411 50.0151 2.33865 49.908C2.27319 49.8009 2.24046 49.67 2.24046 49.5152C2.24046 49.2742 2.31782 49.0853 2.47255 48.9484C2.62728 48.8115 2.83407 48.7431 3.09294 48.7431C3.36967 48.7431 3.58985 48.819 3.75351 48.9707C3.91716 49.1225 3.99899 49.3233 3.99899 49.5733V49.6759C3.99899 49.7057 3.98411 49.7205 3.95435 49.7205H3.73119C3.70144 49.7205 3.68656 49.7057 3.68656 49.6759V49.5777C3.68656 49.4111 3.633 49.2772 3.52588 49.176C3.41876 49.0719 3.27147 49.0198 3.08402 49.0198C2.91739 49.0198 2.78647 49.063 2.69125 49.1492C2.59901 49.2355 2.55289 49.3575 2.55289 49.5152C2.55289 49.6164 2.5752 49.7012 2.61984 49.7696C2.66447 49.8381 2.72844 49.9006 2.81176 49.9571C2.89805 50.0136 3.02897 50.0895 3.20453 50.1847C3.40686 50.2978 3.56159 50.3945 3.6687 50.4748C3.7788 50.5522 3.86509 50.6429 3.92757 50.7471C3.99304 50.8483 4.02577 50.9732 4.02577 51.122C4.02577 51.3719 3.94543 51.5713 3.78475 51.7201C3.62407 51.8659 3.40537 51.9388 3.12865 51.9388ZM6.06548 48.8234C6.06548 48.7937 6.08036 48.7788 6.11011 48.7788H6.33774C6.36749 48.7788 6.38237 48.7937 6.38237 48.8234V51.8584C6.38237 51.8882 6.36749 51.9031 6.33774 51.9031H6.11011C6.08036 51.9031 6.06548 51.8882 6.06548 51.8584V50.4927C6.06548 50.4808 6.05953 50.4748 6.04763 50.4748H4.94074C4.92883 50.4748 4.92288 50.4808 4.92288 50.4927V51.8584C4.92288 51.8882 4.908 51.9031 4.87825 51.9031H4.65062C4.62087 51.9031 4.60599 51.8882 4.60599 51.8584V48.8234C4.60599 48.7937 4.62087 48.7788 4.65062 48.7788H4.87825C4.908 48.7788 4.92288 48.7937 4.92288 48.8234V50.1803C4.92288 50.1922 4.92883 50.1981 4.94074 50.1981H6.04763C6.05953 50.1981 6.06548 50.1922 6.06548 50.1803V48.8234ZM7.9511 51.9388C7.7696 51.9388 7.60892 51.9016 7.46907 51.8272C7.3322 51.7498 7.22508 51.6427 7.14772 51.5058C7.07333 51.369 7.03613 51.2113 7.03613 51.0327V49.6536C7.03613 49.4751 7.07333 49.3174 7.14772 49.1805C7.22508 49.0406 7.3322 48.9335 7.46907 48.8591C7.60892 48.7818 7.7696 48.7431 7.9511 48.7431C8.13261 48.7431 8.2918 48.7818 8.42867 48.8591C8.56852 48.9335 8.67713 49.0406 8.75449 49.1805C8.83186 49.3174 8.87054 49.4751 8.87054 49.6536V51.0327C8.87054 51.2113 8.83186 51.369 8.75449 51.5058C8.67713 51.6427 8.56852 51.7498 8.42867 51.8272C8.2918 51.9016 8.13261 51.9388 7.9511 51.9388ZM7.9511 51.6621C8.13261 51.6621 8.27841 51.6055 8.3885 51.4925C8.4986 51.3794 8.55365 51.2306 8.55365 51.0461V49.6447C8.55365 49.4572 8.4986 49.3069 8.3885 49.1939C8.27841 49.0778 8.13261 49.0198 7.9511 49.0198C7.77257 49.0198 7.62826 49.0778 7.51817 49.1939C7.40807 49.3069 7.35303 49.4572 7.35303 49.6447V51.0461C7.35303 51.2306 7.40807 51.3794 7.51817 51.4925C7.62826 51.6055 7.77257 51.6621 7.9511 51.6621ZM10.3437 51.9388C10.0729 51.9388 9.85422 51.8584 9.68759 51.6978C9.52394 51.5371 9.44211 51.3243 9.44211 51.0595V49.6179C9.44211 49.3531 9.52394 49.1418 9.68759 48.9841C9.85422 48.8234 10.0729 48.7431 10.3437 48.7431C10.6174 48.7431 10.8361 48.8219 10.9998 48.9796C11.1664 49.1373 11.2497 49.3471 11.2497 49.609V49.6491C11.2497 49.6789 11.2349 49.6938 11.2051 49.6938L10.9775 49.7027C10.9477 49.7027 10.9328 49.6893 10.9328 49.6625V49.6C10.9328 49.4275 10.8778 49.2876 10.7677 49.1805C10.6606 49.0734 10.5192 49.0198 10.3437 49.0198C10.1681 49.0198 10.0268 49.0734 9.91968 49.1805C9.81257 49.2846 9.75901 49.4245 9.75901 49.6V51.0818C9.75901 51.2574 9.81257 51.3987 9.91968 51.5058C10.0268 51.61 10.1681 51.6621 10.3437 51.6621C10.5192 51.6621 10.6606 51.6085 10.7677 51.5014C10.8778 51.3943 10.9328 51.2544 10.9328 51.0818V51.0193C10.9328 50.9926 10.9477 50.9792 10.9775 50.9792L11.2051 50.9926C11.2349 50.9926 11.2497 51.0074 11.2497 51.0372V51.0684C11.2497 51.3303 11.1664 51.5416 10.9998 51.7022C10.8361 51.8599 10.6174 51.9388 10.3437 51.9388ZM11.9209 51.9031C11.8911 51.9031 11.8762 51.8882 11.8762 51.8584V48.8234C11.8762 48.7937 11.8911 48.7788 11.9209 48.7788H12.1485C12.1782 48.7788 12.1931 48.7937 12.1931 48.8234V50.3052C12.1931 50.3112 12.1961 50.3156 12.2021 50.3186C12.208 50.3186 12.2125 50.3156 12.2154 50.3097L13.3491 48.8056C13.361 48.7877 13.3804 48.7788 13.4071 48.7788H13.6571C13.6749 48.7788 13.6868 48.7847 13.6928 48.7966C13.6987 48.8056 13.6958 48.8175 13.6839 48.8323L12.7912 50.0553C12.7882 50.0642 12.7882 50.0731 12.7912 50.0821L13.7642 51.8495C13.7701 51.8614 13.7731 51.8703 13.7731 51.8763C13.7731 51.8941 13.7597 51.9031 13.733 51.9031H13.4741C13.4473 51.9031 13.4294 51.8927 13.4205 51.8718L12.5725 50.332C12.5666 50.3171 12.5591 50.3171 12.5502 50.332L12.2021 50.7739C12.1961 50.7798 12.1931 50.7873 12.1931 50.7962V51.8584C12.1931 51.8882 12.1782 51.9031 12.1485 51.9031H11.9209ZM15.3908 51.604C15.3819 51.6189 15.3849 51.6264 15.3997 51.6264H16.6271C16.6569 51.6264 16.6718 51.6412 16.6718 51.671V51.8584C16.6718 51.8882 16.6569 51.9031 16.6271 51.9031H15.0382C15.0085 51.9031 14.9936 51.8882 14.9936 51.8584V51.6621C14.9936 51.6442 14.9995 51.6249 15.0114 51.604C15.2792 51.241 15.5783 50.8245 15.9086 50.3543C16.1436 50.0121 16.2611 49.7384 16.2611 49.5331C16.2611 49.3784 16.2165 49.2549 16.1273 49.1626C16.038 49.0674 15.9205 49.0198 15.7747 49.0198C15.6318 49.0198 15.5173 49.0674 15.431 49.1626C15.3447 49.2549 15.303 49.3784 15.306 49.5331V49.6848C15.306 49.7146 15.2911 49.7295 15.2614 49.7295H15.0293C14.9995 49.7295 14.9847 49.7146 14.9847 49.6848V49.5063C14.9906 49.2772 15.0665 49.0927 15.2123 48.9529C15.3611 48.813 15.5515 48.7431 15.7836 48.7431C16.0216 48.7431 16.2135 48.816 16.3593 48.9618C16.5051 49.1076 16.578 49.298 16.578 49.5331C16.578 49.7949 16.456 50.1044 16.2121 50.4614C16.0603 50.6816 15.8208 51.0149 15.4935 51.4612L15.3908 51.604ZM17.9829 51.9477C17.727 51.9477 17.5216 51.8703 17.3669 51.7156C17.2122 51.5609 17.1348 51.3541 17.1348 51.0952V49.5866C17.1348 49.3307 17.2122 49.1254 17.3669 48.9707C17.5216 48.816 17.727 48.7386 17.9829 48.7386C18.2417 48.7386 18.4485 48.816 18.6032 48.9707C18.7609 49.1254 18.8398 49.3307 18.8398 49.5866V51.0952C18.8398 51.3541 18.7609 51.5609 18.6032 51.7156C18.4485 51.8703 18.2417 51.9477 17.9829 51.9477ZM17.9829 51.671C18.1465 51.671 18.2774 51.6204 18.3756 51.5192C18.4738 51.4181 18.5229 51.2842 18.5229 51.1175V49.5688C18.5229 49.4022 18.4738 49.2683 18.3756 49.1671C18.2774 49.0659 18.1465 49.0153 17.9829 49.0153C17.8252 49.0153 17.6972 49.0659 17.599 49.1671C17.5008 49.2683 17.4517 49.4022 17.4517 49.5688V51.1175C17.4517 51.2812 17.5008 51.4151 17.599 51.5192C17.6972 51.6204 17.8252 51.671 17.9829 51.671ZM20.1159 50.0062C19.9998 50.0062 19.8927 49.9779 19.7945 49.9214C19.6993 49.8649 19.6234 49.789 19.5669 49.6938C19.5104 49.5956 19.4821 49.4884 19.4821 49.3724C19.4821 49.2564 19.5104 49.1507 19.5669 49.0555C19.6234 48.9573 19.6993 48.88 19.7945 48.8234C19.8927 48.7669 19.9998 48.7386 20.1159 48.7386C20.2289 48.7386 20.3331 48.7669 20.4283 48.8234C20.5265 48.88 20.6039 48.9573 20.6604 49.0555C20.7169 49.1507 20.7452 49.2564 20.7452 49.3724C20.7452 49.4884 20.7169 49.5956 20.6604 49.6938C20.6039 49.789 20.5265 49.8649 20.4283 49.9214C20.3331 49.9779 20.2289 50.0062 20.1159 50.0062ZM20.0132 51.9031C19.9983 51.9031 19.9864 51.8986 19.9775 51.8897C19.9716 51.8778 19.9731 51.8644 19.982 51.8495L21.6423 48.81C21.6512 48.7892 21.6691 48.7788 21.6959 48.7788H21.8387C21.8536 48.7788 21.864 48.7847 21.8699 48.7966C21.8789 48.8056 21.8789 48.8175 21.8699 48.8323L20.2096 51.8718C20.2007 51.8927 20.1828 51.9031 20.156 51.9031H20.0132ZM20.1159 49.8098C20.2349 49.8098 20.3346 49.7681 20.4149 49.6848C20.4982 49.5985 20.5399 49.4944 20.5399 49.3724C20.5399 49.2504 20.4982 49.1478 20.4149 49.0644C20.3346 48.9781 20.2349 48.935 20.1159 48.935C19.9969 48.935 19.8957 48.9781 19.8124 49.0644C19.7291 49.1478 19.6874 49.2504 19.6874 49.3724C19.6874 49.4944 19.7291 49.5985 19.8124 49.6848C19.8957 49.7681 19.9969 49.8098 20.1159 49.8098ZM21.7539 51.9432C21.6378 51.9432 21.5307 51.915 21.4325 51.8584C21.3373 51.8019 21.2614 51.7245 21.2049 51.6264C21.1484 51.5282 21.1201 51.421 21.1201 51.305C21.1201 51.1919 21.1484 51.0878 21.2049 50.9926C21.2614 50.8944 21.3373 50.817 21.4325 50.7605C21.5307 50.7039 21.6378 50.6757 21.7539 50.6757C21.867 50.6757 21.9711 50.7039 22.0663 50.7605C22.1645 50.817 22.2419 50.8944 22.2984 50.9926C22.3549 51.0878 22.3832 51.1919 22.3832 51.305C22.3832 51.421 22.3549 51.5282 22.2984 51.6264C22.2419 51.7245 22.1645 51.8019 22.0663 51.8584C21.9711 51.915 21.867 51.9432 21.7539 51.9432ZM21.7539 51.7469C21.8729 51.7469 21.9726 51.7037 22.0529 51.6174C22.1362 51.5311 22.1779 51.427 22.1779 51.305C22.1779 51.183 22.1362 51.0803 22.0529 50.997C21.9726 50.9137 21.8729 50.8721 21.7539 50.8721C21.6349 50.8721 21.5337 50.9137 21.4504 50.997C21.3671 51.0803 21.3254 51.183 21.3254 51.305C21.3254 51.43 21.3656 51.5356 21.4459 51.6219C21.5292 51.7052 21.6319 51.7469 21.7539 51.7469Z" fill="#404040"/>
<path d="M2.60869 8.10547C2.58488 8.10547 2.56852 8.09357 2.55959 8.06976L2.00615 6.69061C2.00317 6.68169 1.99722 6.67722 1.98829 6.67722H1.41253C1.40063 6.67722 1.39468 6.68317 1.39468 6.69508V8.06084C1.39468 8.09059 1.3798 8.10547 1.35005 8.10547H1.12242C1.09267 8.10547 1.07779 8.09059 1.07779 8.06084V5.02581C1.07779 4.99606 1.09267 4.98118 1.12242 4.98118H2.06863C2.22336 4.98118 2.36023 5.01689 2.47925 5.0883C2.60125 5.15971 2.69498 5.26088 2.76044 5.3918C2.82888 5.52273 2.86309 5.67299 2.86309 5.84259C2.86309 6.04493 2.814 6.21751 2.71581 6.36033C2.61761 6.50316 2.48372 6.59837 2.31411 6.64598C2.30221 6.65193 2.29923 6.65937 2.30519 6.6683L2.88095 8.05191L2.88541 8.06976C2.88541 8.09357 2.87202 8.10547 2.84524 8.10547H2.60869ZM1.41253 5.2579C1.40063 5.2579 1.39468 5.26386 1.39468 5.27576V6.40496C1.39468 6.41687 1.40063 6.42282 1.41253 6.42282H2.02846C2.18319 6.42282 2.30816 6.36926 2.40338 6.26214C2.49859 6.15502 2.5462 6.01517 2.5462 5.84259C2.5462 5.66704 2.49859 5.5257 2.40338 5.41858C2.30816 5.31146 2.18319 5.2579 2.02846 5.2579H1.41253ZM3.48045 8.10547C3.4507 8.10547 3.43582 8.09059 3.43582 8.06084V5.02581C3.43582 4.99606 3.4507 4.98118 3.48045 4.98118H3.70808C3.73784 4.98118 3.75271 4.99606 3.75271 5.02581V8.06084C3.75271 8.09059 3.73784 8.10547 3.70808 8.10547H3.48045ZM5.24927 8.14117C4.96957 8.14117 4.74641 8.06827 4.57978 7.92247C4.41612 7.7737 4.3343 7.57583 4.3343 7.32886V7.20835C4.3343 7.1786 4.34918 7.16372 4.37893 7.16372H4.59763C4.62739 7.16372 4.64226 7.1786 4.64226 7.20835V7.31101C4.64226 7.47764 4.6988 7.61153 4.81187 7.7127C4.92494 7.81387 5.0752 7.86445 5.26266 7.86445C5.43821 7.86445 5.57657 7.81684 5.67774 7.72163C5.77891 7.62641 5.82949 7.50144 5.82949 7.34671C5.82949 7.24555 5.80569 7.15777 5.75808 7.08338C5.71047 7.00899 5.64055 6.94056 5.54831 6.87807C5.45607 6.81558 5.32366 6.73673 5.15108 6.64152C4.96659 6.54333 4.82079 6.45704 4.71368 6.38265C4.60953 6.30826 4.52473 6.21751 4.45927 6.11039C4.39381 6.00327 4.36108 5.87235 4.36108 5.71762C4.36108 5.4766 4.43844 5.28766 4.59317 5.15079C4.74789 5.01391 4.95469 4.94548 5.21356 4.94548C5.49028 4.94548 5.71047 5.02135 5.87413 5.1731C6.03778 5.32485 6.11961 5.5257 6.11961 5.77564V5.8783C6.11961 5.90805 6.10473 5.92293 6.07497 5.92293H5.85181C5.82205 5.92293 5.80718 5.90805 5.80718 5.8783V5.78011C5.80718 5.61348 5.75362 5.47958 5.6465 5.37841C5.53938 5.27427 5.39209 5.2222 5.20464 5.2222C5.03801 5.2222 4.90708 5.26534 4.81187 5.35163C4.71963 5.43792 4.67351 5.55992 4.67351 5.71762C4.67351 5.81879 4.69582 5.90359 4.74046 5.97203C4.78509 6.04046 4.84906 6.10295 4.93238 6.15948C5.01867 6.21602 5.14959 6.29189 5.32514 6.38711C5.52748 6.50018 5.6822 6.59688 5.78932 6.67722C5.89942 6.75459 5.98571 6.84534 6.04819 6.94948C6.11365 7.05065 6.14638 7.17562 6.14638 7.3244C6.14638 7.57434 6.06605 7.7737 5.90537 7.92247C5.74469 8.06827 5.52599 8.14117 5.24927 8.14117ZM6.77124 8.10547C6.74149 8.10547 6.72661 8.09059 6.72661 8.06084V5.02581C6.72661 4.99606 6.74149 4.98118 6.77124 4.98118H6.99887C7.02862 4.98118 7.0435 4.99606 7.0435 5.02581V8.06084C7.0435 8.09059 7.02862 8.10547 6.99887 8.10547H6.77124ZM9.33898 5.02581C9.33898 4.99606 9.35386 4.98118 9.38361 4.98118H9.61124C9.64099 4.98118 9.65587 4.99606 9.65587 5.02581V8.06084C9.65587 8.09059 9.64099 8.10547 9.61124 8.10547H9.37022C9.34344 8.10547 9.32559 8.09505 9.31666 8.07423L8.12051 5.68638C8.11456 5.68043 8.10861 5.67745 8.10265 5.67745C8.09968 5.67745 8.09819 5.68192 8.09819 5.69084L8.10265 8.06084C8.10265 8.09059 8.08778 8.10547 8.05802 8.10547H7.8304C7.80064 8.10547 7.78576 8.09059 7.78576 8.06084V5.02581C7.78576 4.99606 7.80064 4.98118 7.8304 4.98118H8.07141C8.09819 4.98118 8.11604 4.9916 8.12497 5.01243L9.32113 7.4092C9.32708 7.41515 9.33154 7.41813 9.33452 7.41813C9.34047 7.41813 9.34344 7.41366 9.34344 7.40474L9.33898 5.02581ZM11.2134 8.14117C10.9426 8.14117 10.7239 8.06232 10.5573 7.90462C10.3936 7.74692 10.3118 7.53715 10.3118 7.2753V5.81135C10.3118 5.5495 10.3936 5.33973 10.5573 5.18203C10.7239 5.02433 10.9426 4.94548 11.2134 4.94548C11.3919 4.94548 11.5481 4.98118 11.682 5.05259C11.8189 5.12401 11.9245 5.22369 11.9989 5.35163C12.0763 5.47958 12.115 5.62687 12.115 5.7935V5.91847C12.115 5.94822 12.1001 5.9631 12.0703 5.9631H11.8427C11.8129 5.9631 11.7981 5.94822 11.7981 5.91847V5.7935C11.7981 5.62389 11.7445 5.48702 11.6374 5.38288C11.5303 5.27576 11.3889 5.2222 11.2134 5.2222C11.0378 5.2222 10.8965 5.27576 10.7894 5.38288C10.6822 5.48702 10.6287 5.62687 10.6287 5.80242V7.28423C10.6287 7.45681 10.6822 7.59666 10.7894 7.70377C10.8995 7.81089 11.0423 7.86445 11.2178 7.86445C11.3934 7.86445 11.5332 7.81387 11.6374 7.7127C11.7445 7.61153 11.7981 7.47466 11.7981 7.30208V6.81558C11.7981 6.80368 11.7921 6.79773 11.7802 6.79773H11.258C11.2283 6.79773 11.2134 6.78285 11.2134 6.7531V6.56564C11.2134 6.53589 11.2283 6.52101 11.258 6.52101H12.0703C12.1001 6.52101 12.115 6.53589 12.115 6.56564V7.26191C12.115 7.53268 12.0331 7.74692 11.8695 7.90462C11.7058 8.06232 11.4871 8.14117 11.2134 8.14117ZM14.4199 8.14117C14.1402 8.14117 13.917 8.06827 13.7504 7.92247C13.5867 7.7737 13.5049 7.57583 13.5049 7.32886V7.20835C13.5049 7.1786 13.5198 7.16372 13.5495 7.16372H13.7682C13.798 7.16372 13.8129 7.1786 13.8129 7.20835V7.31101C13.8129 7.47764 13.8694 7.61153 13.9825 7.7127C14.0956 7.81387 14.2458 7.86445 14.4333 7.86445C14.6088 7.86445 14.7472 7.81684 14.8484 7.72163C14.9495 7.62641 15.0001 7.50144 15.0001 7.34671C15.0001 7.24555 14.9763 7.15777 14.9287 7.08338C14.8811 7.00899 14.8112 6.94056 14.7189 6.87807C14.6267 6.81558 14.4943 6.73673 14.3217 6.64152C14.1372 6.54333 13.9914 6.45704 13.8843 6.38265C13.7802 6.30826 13.6953 6.21751 13.6299 6.11039C13.5644 6.00327 13.5317 5.87235 13.5317 5.71762C13.5317 5.4766 13.6091 5.28766 13.7638 5.15079C13.9185 5.01391 14.1253 4.94548 14.3842 4.94548C14.6609 4.94548 14.8811 5.02135 15.0447 5.1731C15.2084 5.32485 15.2902 5.5257 15.2902 5.77564V5.8783C15.2902 5.90805 15.2753 5.92293 15.2456 5.92293H15.0224C14.9927 5.92293 14.9778 5.90805 14.9778 5.8783V5.78011C14.9778 5.61348 14.9242 5.47958 14.8171 5.37841C14.71 5.27427 14.5627 5.2222 14.3753 5.2222C14.2086 5.2222 14.0777 5.26534 13.9825 5.35163C13.8902 5.43792 13.8441 5.55992 13.8441 5.71762C13.8441 5.81879 13.8664 5.90359 13.9111 5.97203C13.9557 6.04046 14.0197 6.10295 14.103 6.15948C14.1893 6.21602 14.3202 6.29189 14.4958 6.38711C14.6981 6.50018 14.8528 6.59688 14.9599 6.67722C15.07 6.75459 15.1563 6.84534 15.2188 6.94948C15.2843 7.05065 15.317 7.17562 15.317 7.3244C15.317 7.57434 15.2367 7.7737 15.076 7.92247C14.9153 8.06827 14.6966 8.14117 14.4199 8.14117ZM17.4434 4.98118C17.4732 4.98118 17.488 4.99606 17.488 5.02581V5.21327C17.488 5.24303 17.4732 5.2579 17.4434 5.2579H16.7159C16.704 5.2579 16.698 5.26386 16.698 5.27576V8.06084C16.698 8.09059 16.6832 8.10547 16.6534 8.10547H16.4258C16.396 8.10547 16.3811 8.09059 16.3811 8.06084V5.27576C16.3811 5.26386 16.3752 5.2579 16.3633 5.2579H15.6626C15.6328 5.2579 15.6179 5.24303 15.6179 5.21327V5.02581C15.6179 4.99606 15.6328 4.98118 15.6626 4.98118H17.4434ZM19.3455 8.10547C19.3187 8.10547 19.3024 8.09208 19.2964 8.0653L19.1491 7.50739C19.1462 7.49846 19.1387 7.494 19.1268 7.494H18.0601C18.0482 7.494 18.0408 7.49846 18.0378 7.50739L17.8905 8.0653C17.8845 8.09208 17.8682 8.10547 17.8414 8.10547H17.6093C17.5944 8.10547 17.5825 8.10101 17.5736 8.09208C17.5677 8.08315 17.5662 8.07125 17.5691 8.05637L18.4038 5.02135C18.4097 4.99457 18.4261 4.98118 18.4529 4.98118H18.7385C18.7653 4.98118 18.7817 4.99457 18.7876 5.02135L19.6222 8.05637L19.6267 8.06976C19.6267 8.09357 19.6118 8.10547 19.5821 8.10547H19.3455ZM18.1137 7.21728C18.1107 7.22025 18.1107 7.22472 18.1137 7.23067C18.1196 7.23364 18.1256 7.23513 18.1315 7.23513H19.0554C19.0614 7.23513 19.0658 7.23364 19.0688 7.23067C19.0747 7.22472 19.0762 7.22025 19.0733 7.21728L18.6002 5.42305C18.5972 5.41709 18.5942 5.41412 18.5912 5.41412C18.5883 5.41412 18.5853 5.41709 18.5823 5.42305L18.1137 7.21728ZM21.6299 8.10547C21.6061 8.10547 21.5897 8.09357 21.5808 8.06976L21.0273 6.69061C21.0244 6.68169 21.0184 6.67722 21.0095 6.67722H20.4337C20.4218 6.67722 20.4159 6.68317 20.4159 6.69508V8.06084C20.4159 8.09059 20.401 8.10547 20.3712 8.10547H20.1436C20.1139 8.10547 20.099 8.09059 20.099 8.06084V5.02581C20.099 4.99606 20.1139 4.98118 20.1436 4.98118H21.0898C21.2445 4.98118 21.3814 5.01689 21.5004 5.0883C21.6224 5.15971 21.7162 5.26088 21.7816 5.3918C21.8501 5.52273 21.8843 5.67299 21.8843 5.84259C21.8843 6.04493 21.8352 6.21751 21.737 6.36033C21.6388 6.50316 21.5049 6.59837 21.3353 6.64598C21.3234 6.65193 21.3204 6.65937 21.3264 6.6683L21.9021 8.05191L21.9066 8.06976C21.9066 8.09357 21.8932 8.10547 21.8664 8.10547H21.6299ZM20.4337 5.2579C20.4218 5.2579 20.4159 5.26386 20.4159 5.27576V6.40496C20.4159 6.41687 20.4218 6.42282 20.4337 6.42282H21.0497C21.2044 6.42282 21.3293 6.36926 21.4246 6.26214C21.5198 6.15502 21.5674 6.01517 21.5674 5.84259C21.5674 5.66704 21.5198 5.5257 21.4246 5.41858C21.3293 5.31146 21.2044 5.2579 21.0497 5.2579H20.4337ZM24.9082 6.96287C24.938 6.96287 24.9528 6.97775 24.9528 7.00751V7.20389C24.9528 7.23364 24.938 7.24852 24.9082 7.24852H24.7431C24.7312 7.24852 24.7252 7.25447 24.7252 7.26637V8.06084C24.7252 8.09059 24.7103 8.10547 24.6806 8.10547H24.453C24.4232 8.10547 24.4083 8.09059 24.4083 8.06084V7.26637C24.4083 7.25447 24.4024 7.24852 24.3905 7.24852H23.1809C23.1512 7.24852 23.1363 7.23364 23.1363 7.20389V7.03428C23.1363 7.01346 23.1393 6.9956 23.1452 6.98073L23.9397 5.01689C23.9486 4.99308 23.965 4.98118 23.9888 4.98118H24.2343C24.2491 4.98118 24.2596 4.98713 24.2655 4.99904C24.2715 5.00796 24.2715 5.01986 24.2655 5.03474L23.5067 6.94056C23.5038 6.94651 23.5038 6.95246 23.5067 6.95841C23.5097 6.96138 23.5142 6.96287 23.5201 6.96287H24.3905C24.4024 6.96287 24.4083 6.95692 24.4083 6.94502V6.23982C24.4083 6.21007 24.4232 6.19519 24.453 6.19519H24.6806C24.7103 6.19519 24.7252 6.21007 24.7252 6.23982V6.94502C24.7252 6.95692 24.7312 6.96287 24.7431 6.96287H24.9082ZM26.2579 8.1501C26.002 8.1501 25.7967 8.07274 25.642 7.91801C25.4872 7.76328 25.4099 7.55649 25.4099 7.29762V5.78903C25.4099 5.53314 25.4872 5.32783 25.642 5.1731C25.7967 5.01838 26.002 4.94101 26.2579 4.94101C26.5168 4.94101 26.7236 5.01838 26.8783 5.1731C27.036 5.32783 27.1148 5.53314 27.1148 5.78903V7.29762C27.1148 7.55649 27.036 7.76328 26.8783 7.91801C26.7236 8.07274 26.5168 8.1501 26.2579 8.1501ZM26.2579 7.87338C26.4216 7.87338 26.5525 7.8228 26.6507 7.72163C26.7489 7.62046 26.798 7.48656 26.798 7.31993V5.77118C26.798 5.60455 26.7489 5.47065 26.6507 5.36949C26.5525 5.26832 26.4216 5.21774 26.2579 5.21774C26.1002 5.21774 25.9722 5.26832 25.8741 5.36949C25.7759 5.47065 25.7268 5.60455 25.7268 5.77118V7.31993C25.7268 7.48359 25.7759 7.61748 25.8741 7.72163C25.9722 7.8228 26.1002 7.87338 26.2579 7.87338ZM28.3909 6.20858C28.2749 6.20858 28.1678 6.18031 28.0696 6.12378C27.9743 6.06724 27.8985 5.99137 27.8419 5.89615C27.7854 5.79796 27.7571 5.69084 27.7571 5.5748C27.7571 5.45875 27.7854 5.35312 27.8419 5.2579C27.8985 5.15971 27.9743 5.08235 28.0696 5.02581C28.1678 4.96928 28.2749 4.94101 28.3909 4.94101C28.504 4.94101 28.6081 4.96928 28.7033 5.02581C28.8015 5.08235 28.8789 5.15971 28.9354 5.2579C28.992 5.35312 29.0202 5.45875 29.0202 5.5748C29.0202 5.69084 28.992 5.79796 28.9354 5.89615C28.8789 5.99137 28.8015 6.06724 28.7033 6.12378C28.6081 6.18031 28.504 6.20858 28.3909 6.20858ZM28.2883 8.10547C28.2734 8.10547 28.2615 8.10101 28.2526 8.09208C28.2466 8.08018 28.2481 8.06679 28.257 8.05191L29.9174 5.01243C29.9263 4.9916 29.9441 4.98118 29.9709 4.98118H30.1137C30.1286 4.98118 30.139 4.98713 30.145 4.99904C30.1539 5.00796 30.1539 5.01986 30.145 5.03474L28.4846 8.07423C28.4757 8.09505 28.4579 8.10547 28.4311 8.10547H28.2883ZM28.3909 6.0122C28.5099 6.0122 28.6096 5.97054 28.69 5.88723C28.7733 5.80094 28.8149 5.69679 28.8149 5.5748C28.8149 5.4528 28.7733 5.35015 28.69 5.26683C28.6096 5.18054 28.5099 5.1374 28.3909 5.1374C28.2719 5.1374 28.1707 5.18054 28.0874 5.26683C28.0041 5.35015 27.9624 5.4528 27.9624 5.5748C27.9624 5.69679 28.0041 5.80094 28.0874 5.88723C28.1707 5.97054 28.2719 6.0122 28.3909 6.0122ZM30.0289 8.14564C29.9129 8.14564 29.8058 8.11737 29.7076 8.06084C29.6124 8.0043 29.5365 7.92694 29.48 7.82875C29.4234 7.73055 29.3952 7.62344 29.3952 7.50739C29.3952 7.39432 29.4234 7.29018 29.48 7.19496C29.5365 7.09677 29.6124 7.01941 29.7076 6.96287C29.8058 6.90634 29.9129 6.87807 30.0289 6.87807C30.142 6.87807 30.2462 6.90634 30.3414 6.96287C30.4396 7.01941 30.5169 7.09677 30.5735 7.19496C30.63 7.29018 30.6583 7.39432 30.6583 7.50739C30.6583 7.62344 30.63 7.73055 30.5735 7.82875C30.5169 7.92694 30.4396 8.0043 30.3414 8.06084C30.2462 8.11737 30.142 8.14564 30.0289 8.14564ZM30.0289 7.94925C30.148 7.94925 30.2476 7.90611 30.328 7.81982C30.4113 7.73353 30.453 7.62939 30.453 7.50739C30.453 7.3854 30.4113 7.28274 30.328 7.19943C30.2476 7.11611 30.148 7.07445 30.0289 7.07445C29.9099 7.07445 29.8088 7.11611 29.7254 7.19943C29.6421 7.28274 29.6005 7.3854 29.6005 7.50739C29.6005 7.63236 29.6406 7.73799 29.721 7.82428C29.8043 7.9076 29.9069 7.94925 30.0289 7.94925Z" fill="#404040"/>
<path d="M55.906 42.1452L58.448 45.4084H68.9791" stroke="black" stroke-width="0.145684"/>
<path d="M60.8179 44.0054C60.5382 44.0054 60.3151 43.9325 60.1484 43.7867C59.9848 43.638 59.9029 43.4401 59.9029 43.1931V43.0726C59.9029 43.0429 59.9178 43.028 59.9476 43.028H60.1663C60.196 43.028 60.2109 43.0429 60.2109 43.0726V43.1753C60.2109 43.3419 60.2674 43.4758 60.3805 43.577C60.4936 43.6781 60.6439 43.7287 60.8313 43.7287C61.0069 43.7287 61.1452 43.6811 61.2464 43.5859C61.3476 43.4907 61.3981 43.3657 61.3981 43.211C61.3981 43.1098 61.3743 43.022 61.3267 42.9476C61.2791 42.8733 61.2092 42.8048 61.117 42.7423C61.0247 42.6798 60.8923 42.601 60.7197 42.5058C60.5352 42.4076 60.3894 42.3213 60.2823 42.2469C60.1782 42.1725 60.0934 42.0818 60.0279 41.9746C59.9625 41.8675 59.9297 41.7366 59.9297 41.5819C59.9297 41.3409 60.0071 41.1519 60.1618 41.015C60.3165 40.8782 60.5233 40.8097 60.7822 40.8097C61.0589 40.8097 61.2791 40.8856 61.4428 41.0374C61.6064 41.1891 61.6883 41.39 61.6883 41.6399V41.7426C61.6883 41.7723 61.6734 41.7872 61.6436 41.7872H61.4205C61.3907 41.7872 61.3758 41.7723 61.3758 41.7426V41.6444C61.3758 41.4777 61.3223 41.3438 61.2152 41.2427C61.108 41.1385 60.9607 41.0865 60.7733 41.0865C60.6067 41.0865 60.4757 41.1296 60.3805 41.2159C60.2883 41.3022 60.2422 41.4242 60.2422 41.5819C60.2422 41.683 60.2645 41.7678 60.3091 41.8363C60.3537 41.9047 60.4177 41.9672 60.501 42.0237C60.5873 42.0803 60.7182 42.1562 60.8938 42.2514C61.0961 42.3644 61.2509 42.4611 61.358 42.5415C61.4681 42.6188 61.5544 42.7096 61.6168 42.8137C61.6823 42.9149 61.715 43.0399 61.715 43.1887C61.715 43.4386 61.6347 43.638 61.474 43.7867C61.3133 43.9325 61.0946 44.0054 60.8179 44.0054ZM63.1254 44.0054C62.9439 44.0054 62.7832 43.9682 62.6434 43.8939C62.5065 43.8165 62.3994 43.7094 62.322 43.5725C62.2477 43.4356 62.2105 43.2779 62.2105 43.0994V41.7202C62.2105 41.5417 62.2477 41.384 62.322 41.2471C62.3994 41.1073 62.5065 41.0002 62.6434 40.9258C62.7832 40.8484 62.9439 40.8097 63.1254 40.8097C63.3069 40.8097 63.4661 40.8484 63.603 40.9258C63.7428 41.0002 63.8515 41.1073 63.9288 41.2471C64.0062 41.384 64.0449 41.5417 64.0449 41.7202V43.0994C64.0449 43.2779 64.0062 43.4356 63.9288 43.5725C63.8515 43.7094 63.7428 43.8165 63.603 43.8939C63.4661 43.9682 63.3069 44.0054 63.1254 44.0054ZM63.1254 43.7287C63.3069 43.7287 63.4527 43.6722 63.5628 43.5591C63.6729 43.446 63.728 43.2973 63.728 43.1128V41.7113C63.728 41.5239 63.6729 41.3736 63.5628 41.2605C63.4527 41.1445 63.3069 41.0865 63.1254 41.0865C62.9469 41.0865 62.8026 41.1445 62.6925 41.2605C62.5824 41.3736 62.5274 41.5239 62.5274 41.7113V43.1128C62.5274 43.2973 62.5824 43.446 62.6925 43.5591C62.8026 43.6722 62.9469 43.7287 63.1254 43.7287ZM66.3928 40.8767C66.4077 40.8559 66.4255 40.8454 66.4464 40.8454H66.6785C66.7082 40.8454 66.7231 40.8603 66.7231 40.8901V43.9251C66.7231 43.9548 66.7082 43.9697 66.6785 43.9697H66.4508C66.4211 43.9697 66.4062 43.9548 66.4062 43.9251V41.4971C66.4062 41.4882 66.4032 41.4822 66.3973 41.4792C66.3913 41.4762 66.3869 41.4792 66.3839 41.4882L65.7903 42.5192C65.7754 42.54 65.7575 42.5504 65.7367 42.5504H65.6876C65.6668 42.5504 65.6489 42.54 65.6341 42.5192L65.036 41.4926C65.033 41.4837 65.0285 41.4807 65.0226 41.4837C65.0166 41.4867 65.0137 41.4926 65.0137 41.5015V43.9251C65.0137 43.9548 64.9988 43.9697 64.969 43.9697H64.7414C64.7117 43.9697 64.6968 43.9548 64.6968 43.9251V40.8901C64.6968 40.8603 64.7117 40.8454 64.7414 40.8454H64.9735C64.9943 40.8454 65.0122 40.8559 65.0271 40.8767L65.701 42.0237C65.704 42.0267 65.7085 42.0282 65.7144 42.0282C65.7204 42.0282 65.7248 42.0267 65.7278 42.0237L66.3928 40.8767ZM69.1786 41.0775C69.1786 41.1073 69.1638 41.1222 69.134 41.1222H67.795C67.7831 41.1222 67.7772 41.1281 67.7772 41.14V42.2469C67.7772 42.2588 67.7831 42.2648 67.795 42.2648H68.6966C68.7264 42.2648 68.7412 42.2796 68.7412 42.3094V42.4968C68.7412 42.5266 68.7264 42.5415 68.6966 42.5415H67.795C67.7831 42.5415 67.7772 42.5474 67.7772 42.5593V43.6752C67.7772 43.6871 67.7831 43.693 67.795 43.693H69.134C69.1638 43.693 69.1786 43.7079 69.1786 43.7376V43.9251C69.1786 43.9548 69.1638 43.9697 69.134 43.9697H67.5049C67.4751 43.9697 67.4603 43.9548 67.4603 43.9251V40.8901C67.4603 40.8603 67.4751 40.8454 67.5049 40.8454H69.134C69.1638 40.8454 69.1786 40.8603 69.1786 40.8901V41.0775ZM71.3906 40.8454C71.4204 40.8454 71.4353 40.8603 71.4353 40.8901V41.0775C71.4353 41.1073 71.4204 41.1222 71.3906 41.1222H70.6631C70.6512 41.1222 70.6453 41.1281 70.6453 41.14V43.9251C70.6453 43.9548 70.6304 43.9697 70.6006 43.9697H70.373C70.3433 43.9697 70.3284 43.9548 70.3284 43.9251V41.14C70.3284 41.1281 70.3224 41.1222 70.3105 41.1222H69.6098C69.58 41.1222 69.5652 41.1073 69.5652 41.0775V40.8901C69.5652 40.8603 69.58 40.8454 69.6098 40.8454H71.3906ZM73.4397 40.8901C73.4397 40.8603 73.4546 40.8454 73.4843 40.8454H73.7119C73.7417 40.8454 73.7566 40.8603 73.7566 40.8901V43.9251C73.7566 43.9548 73.7417 43.9697 73.7119 43.9697H73.4843C73.4546 43.9697 73.4397 43.9548 73.4397 43.9251V42.5593C73.4397 42.5474 73.4337 42.5415 73.4218 42.5415H72.3149C72.303 42.5415 72.2971 42.5474 72.2971 42.5593V43.9251C72.2971 43.9548 72.2822 43.9697 72.2525 43.9697H72.0248C71.9951 43.9697 71.9802 43.9548 71.9802 43.9251V40.8901C71.9802 40.8603 71.9951 40.8454 72.0248 40.8454H72.2525C72.2822 40.8454 72.2971 40.8603 72.2971 40.8901V42.2469C72.2971 42.2588 72.303 42.2648 72.3149 42.2648H73.4218C73.4337 42.2648 73.4397 42.2588 73.4397 42.2469V40.8901ZM74.5398 43.9697C74.51 43.9697 74.4951 43.9548 74.4951 43.9251V40.8901C74.4951 40.8603 74.51 40.8454 74.5398 40.8454H74.7674C74.7972 40.8454 74.812 40.8603 74.812 40.8901V43.9251C74.812 43.9548 74.7972 43.9697 74.7674 43.9697H74.5398ZM77.1075 40.8901C77.1075 40.8603 77.1224 40.8454 77.1521 40.8454H77.3798C77.4095 40.8454 77.4244 40.8603 77.4244 40.8901V43.9251C77.4244 43.9548 77.4095 43.9697 77.3798 43.9697H77.1388C77.112 43.9697 77.0941 43.9593 77.0852 43.9385L75.889 41.5506C75.8831 41.5447 75.8771 41.5417 75.8712 41.5417C75.8682 41.5417 75.8667 41.5462 75.8667 41.5551L75.8712 43.9251C75.8712 43.9548 75.8563 43.9697 75.8266 43.9697H75.5989C75.5692 43.9697 75.5543 43.9548 75.5543 43.9251V40.8901C75.5543 40.8603 75.5692 40.8454 75.5989 40.8454H75.8399C75.8667 40.8454 75.8846 40.8559 75.8935 40.8767L77.0897 43.2735C77.0956 43.2794 77.1001 43.2824 77.1031 43.2824C77.109 43.2824 77.112 43.2779 77.112 43.269L77.1075 40.8901ZM78.9819 44.0054C78.7111 44.0054 78.4924 43.9266 78.3258 43.7689C78.1622 43.6112 78.0803 43.4014 78.0803 43.1396V41.6756C78.0803 41.4138 78.1622 41.204 78.3258 41.0463C78.4924 40.8886 78.7111 40.8097 78.9819 40.8097C79.1604 40.8097 79.3167 40.8454 79.4506 40.9169C79.5874 40.9883 79.6931 41.0879 79.7674 41.2159C79.8448 41.3438 79.8835 41.4911 79.8835 41.6578V41.7827C79.8835 41.8125 79.8686 41.8274 79.8389 41.8274H79.6112C79.5815 41.8274 79.5666 41.8125 79.5666 41.7827V41.6578C79.5666 41.4882 79.513 41.3513 79.4059 41.2471C79.2988 41.14 79.1575 41.0865 78.9819 41.0865C78.8064 41.0865 78.665 41.14 78.5579 41.2471C78.4508 41.3513 78.3972 41.4911 78.3972 41.6667V43.1485C78.3972 43.3211 78.4508 43.4609 78.5579 43.568C78.668 43.6752 78.8108 43.7287 78.9864 43.7287C79.1619 43.7287 79.3018 43.6781 79.4059 43.577C79.513 43.4758 79.5666 43.3389 79.5666 43.1663V42.6798C79.5666 42.6679 79.5607 42.662 79.5487 42.662H79.0265C78.9968 42.662 78.9819 42.6471 78.9819 42.6174V42.4299C78.9819 42.4001 78.9968 42.3853 79.0265 42.3853H79.8389C79.8686 42.3853 79.8835 42.4001 79.8835 42.4299V43.1262C79.8835 43.3969 79.8017 43.6112 79.638 43.7689C79.4744 43.9266 79.2557 44.0054 78.9819 44.0054ZM61.6883 45.8454C61.718 45.8454 61.7329 45.8603 61.7329 45.8901V46.0775C61.7329 46.1073 61.718 46.1222 61.6883 46.1222H60.9607C60.9488 46.1222 60.9429 46.1281 60.9429 46.14V48.9251C60.9429 48.9548 60.928 48.9697 60.8983 48.9697H60.6706C60.6409 48.9697 60.626 48.9548 60.626 48.9251V46.14C60.626 46.1281 60.62 46.1222 60.6081 46.1222H59.9074C59.8777 46.1222 59.8628 46.1073 59.8628 46.0775V45.8901C59.8628 45.8603 59.8777 45.8454 59.9074 45.8454H61.6883ZM63.8087 48.9697C63.7849 48.9697 63.7686 48.9578 63.7596 48.934L63.2062 47.5549C63.2032 47.5459 63.1973 47.5415 63.1883 47.5415H62.6126C62.6007 47.5415 62.5947 47.5474 62.5947 47.5593V48.9251C62.5947 48.9548 62.5798 48.9697 62.5501 48.9697H62.3225C62.2927 48.9697 62.2778 48.9548 62.2778 48.9251V45.8901C62.2778 45.8603 62.2927 45.8454 62.3225 45.8454H63.2687C63.4234 45.8454 63.5603 45.8811 63.6793 45.9526C63.8013 46.024 63.895 46.1251 63.9605 46.2561C64.0289 46.387 64.0631 46.5372 64.0631 46.7069C64.0631 46.9092 64.014 47.0818 63.9158 47.2246C63.8177 47.3674 63.6838 47.4626 63.5142 47.5102C63.5022 47.5162 63.4993 47.5236 63.5052 47.5326L64.081 48.9162L64.0854 48.934C64.0854 48.9578 64.0721 48.9697 64.0453 48.9697H63.8087ZM62.6126 46.1222C62.6007 46.1222 62.5947 46.1281 62.5947 46.14V47.2692C62.5947 47.2811 62.6007 47.2871 62.6126 47.2871H63.2285C63.3832 47.2871 63.5082 47.2335 63.6034 47.1264C63.6986 47.0193 63.7462 46.8794 63.7462 46.7069C63.7462 46.5313 63.6986 46.39 63.6034 46.2828C63.5082 46.1757 63.3832 46.1222 63.2285 46.1222H62.6126ZM65.466 49.0054C65.2845 49.0054 65.1238 48.9682 64.984 48.8939C64.8471 48.8165 64.74 48.7094 64.6626 48.5725C64.5883 48.4356 64.5511 48.2779 64.5511 48.0994V46.7202C64.5511 46.5417 64.5883 46.384 64.6626 46.2471C64.74 46.1073 64.8471 46.0002 64.984 45.9258C65.1238 45.8484 65.2845 45.8097 65.466 45.8097C65.6475 45.8097 65.8067 45.8484 65.9436 45.9258C66.0834 46.0002 66.1921 46.1073 66.2694 46.2471C66.3468 46.384 66.3855 46.5417 66.3855 46.7202V48.0994C66.3855 48.2779 66.3468 48.4356 66.2694 48.5725C66.1921 48.7094 66.0834 48.8165 65.9436 48.8939C65.8067 48.9682 65.6475 49.0054 65.466 49.0054ZM65.466 48.7287C65.6475 48.7287 65.7933 48.6722 65.9034 48.5591C66.0135 48.446 66.0686 48.2973 66.0686 48.1128V46.7113C66.0686 46.5239 66.0135 46.3736 65.9034 46.2605C65.7933 46.1445 65.6475 46.0865 65.466 46.0865C65.2875 46.0865 65.1432 46.1445 65.0331 46.2605C64.923 46.3736 64.868 46.5239 64.868 46.7113V48.1128C64.868 48.2973 64.923 48.446 65.0331 48.5591C65.1432 48.6722 65.2875 48.7287 65.466 48.7287ZM68.0238 45.841C68.2618 45.841 68.4537 45.9213 68.5995 46.082C68.7483 46.2397 68.8227 46.4495 68.8227 46.7113C68.8227 46.9702 68.7483 47.1785 68.5995 47.3362C68.4537 47.4909 68.2618 47.5683 68.0238 47.5683H67.3587C67.3468 47.5683 67.3409 47.5742 67.3409 47.5861V48.9251C67.3409 48.9548 67.326 48.9697 67.2962 48.9697H67.0686C67.0389 48.9697 67.024 48.9548 67.024 48.9251V45.8856C67.024 45.8559 67.0389 45.841 67.0686 45.841H68.0238ZM67.9836 47.3049C68.1413 47.3049 68.2678 47.2514 68.363 47.1443C68.4582 47.0371 68.5058 46.8943 68.5058 46.7158C68.5058 46.5343 68.4582 46.39 68.363 46.2828C68.2678 46.1727 68.1413 46.1177 67.9836 46.1177H67.3587C67.3468 46.1177 67.3409 46.1237 67.3409 46.1356V47.2871C67.3409 47.299 67.3468 47.3049 67.3587 47.3049H67.9836ZM69.3922 48.9697C69.3624 48.9697 69.3476 48.9548 69.3476 48.9251V45.8901C69.3476 45.8603 69.3624 45.8454 69.3922 45.8454H69.6198C69.6496 45.8454 69.6645 45.8603 69.6645 45.8901V48.9251C69.6645 48.9548 69.6496 48.9697 69.6198 48.9697H69.3922ZM71.2235 49.0054C70.9527 49.0054 70.734 48.9251 70.5674 48.7644C70.4037 48.6037 70.3219 48.391 70.3219 48.1262V46.6845C70.3219 46.4197 70.4037 46.2085 70.5674 46.0508C70.734 45.8901 70.9527 45.8097 71.2235 45.8097C71.4972 45.8097 71.7159 45.8886 71.8796 46.0463C72.0462 46.204 72.1295 46.4138 72.1295 46.6756V46.7158C72.1295 46.7455 72.1147 46.7604 72.0849 46.7604L71.8573 46.7693C71.8275 46.7693 71.8127 46.7559 71.8127 46.7292V46.6667C71.8127 46.4941 71.7576 46.3543 71.6475 46.2471C71.5404 46.14 71.3991 46.0865 71.2235 46.0865C71.0479 46.0865 70.9066 46.14 70.7995 46.2471C70.6924 46.3513 70.6388 46.4911 70.6388 46.6667V48.1485C70.6388 48.324 70.6924 48.4654 70.7995 48.5725C70.9066 48.6766 71.0479 48.7287 71.2235 48.7287C71.3991 48.7287 71.5404 48.6752 71.6475 48.568C71.7576 48.4609 71.8127 48.3211 71.8127 48.1485V48.086C71.8127 48.0592 71.8275 48.0458 71.8573 48.0458L72.0849 48.0592C72.1147 48.0592 72.1295 48.0741 72.1295 48.1039V48.1351C72.1295 48.3969 72.0462 48.6082 71.8796 48.7689C71.7159 48.9266 71.4972 49.0054 71.2235 49.0054ZM74.2604 48.9697C74.2336 48.9697 74.2172 48.9563 74.2113 48.9296L74.064 48.3716C74.061 48.3627 74.0536 48.3583 74.0417 48.3583H72.975C72.963 48.3583 72.9556 48.3627 72.9526 48.3716L72.8053 48.9296C72.7994 48.9563 72.783 48.9697 72.7563 48.9697H72.5242C72.5093 48.9697 72.4974 48.9653 72.4885 48.9563C72.4825 48.9474 72.481 48.9355 72.484 48.9206L73.3186 45.8856C73.3246 45.8588 73.3409 45.8454 73.3677 45.8454H73.6534C73.6801 45.8454 73.6965 45.8588 73.7025 45.8856L74.5371 48.9206L74.5416 48.934C74.5416 48.9578 74.5267 48.9697 74.4969 48.9697H74.2604ZM73.0285 48.0815C73.0255 48.0845 73.0255 48.089 73.0285 48.0949C73.0345 48.0979 73.0404 48.0994 73.0464 48.0994H73.9703C73.9762 48.0994 73.9807 48.0979 73.9836 48.0949C73.9896 48.089 73.9911 48.0845 73.9881 48.0815L73.515 46.2873C73.512 46.2814 73.5091 46.2784 73.5061 46.2784C73.5031 46.2784 73.5001 46.2814 73.4972 46.2873L73.0285 48.0815ZM75.0585 48.9697C75.0287 48.9697 75.0138 48.9548 75.0138 48.9251V45.8901C75.0138 45.8603 75.0287 45.8454 75.0585 45.8454H75.2861C75.3158 45.8454 75.3307 45.8603 75.3307 45.8901V48.6752C75.3307 48.6871 75.3367 48.693 75.3486 48.693H76.6474C76.6771 48.693 76.692 48.7079 76.692 48.7376V48.9251C76.692 48.9548 76.6771 48.9697 76.6474 48.9697H75.0585ZM79.6182 47.8271C79.648 47.8271 79.6628 47.842 79.6628 47.8718V48.0681C79.6628 48.0979 79.648 48.1128 79.6182 48.1128H79.4531C79.4412 48.1128 79.4352 48.1187 79.4352 48.1306V48.9251C79.4352 48.9548 79.4203 48.9697 79.3906 48.9697H79.163C79.1332 48.9697 79.1183 48.9548 79.1183 48.9251V48.1306C79.1183 48.1187 79.1124 48.1128 79.1005 48.1128H77.8909C77.8612 48.1128 77.8463 48.0979 77.8463 48.0681V47.8985C77.8463 47.8777 77.8493 47.8599 77.8552 47.845L78.6497 45.8811C78.6586 45.8573 78.675 45.8454 78.6988 45.8454H78.9443C78.9591 45.8454 78.9695 45.8514 78.9755 45.8633C78.9814 45.8722 78.9814 45.8841 78.9755 45.899L78.2167 47.8048C78.2138 47.8108 78.2138 47.8167 78.2167 47.8227C78.2197 47.8256 78.2242 47.8271 78.2301 47.8271H79.1005C79.1124 47.8271 79.1183 47.8212 79.1183 47.8093V47.1041C79.1183 47.0743 79.1332 47.0594 79.163 47.0594H79.3906C79.4203 47.0594 79.4352 47.0743 79.4352 47.1041V47.8093C79.4352 47.8212 79.4412 47.8271 79.4531 47.8271H79.6182ZM80.9679 49.0144C80.712 49.0144 80.5067 48.937 80.352 48.7823C80.1972 48.6275 80.1199 48.4207 80.1199 48.1619V46.6533C80.1199 46.3974 80.1972 46.1921 80.352 46.0374C80.5067 45.8826 80.712 45.8053 80.9679 45.8053C81.2268 45.8053 81.4336 45.8826 81.5883 46.0374C81.746 46.1921 81.8248 46.3974 81.8248 46.6533V48.1619C81.8248 48.4207 81.746 48.6275 81.5883 48.7823C81.4336 48.937 81.2268 49.0144 80.9679 49.0144ZM80.9679 48.7376C81.1315 48.7376 81.2625 48.6871 81.3607 48.5859C81.4589 48.4847 81.5079 48.3508 81.5079 48.1842V46.6354C81.5079 46.4688 81.4589 46.3349 81.3607 46.2337C81.2625 46.1326 81.1315 46.082 80.9679 46.082C80.8102 46.082 80.6822 46.1326 80.5841 46.2337C80.4859 46.3349 80.4368 46.4688 80.4368 46.6354V48.1842C80.4368 48.3478 80.4859 48.4817 80.5841 48.5859C80.6822 48.6871 80.8102 48.7376 80.9679 48.7376ZM83.1009 47.0728C82.9849 47.0728 82.8778 47.0446 82.7796 46.988C82.6843 46.9315 82.6085 46.8556 82.5519 46.7604C82.4954 46.6622 82.4671 46.5551 82.4671 46.4391C82.4671 46.323 82.4954 46.2174 82.5519 46.1222C82.6085 46.024 82.6843 45.9466 82.7796 45.8901C82.8778 45.8335 82.9849 45.8053 83.1009 45.8053C83.214 45.8053 83.3181 45.8335 83.4133 45.8901C83.5115 45.9466 83.5889 46.024 83.6454 46.1222C83.702 46.2174 83.7302 46.323 83.7302 46.4391C83.7302 46.5551 83.702 46.6622 83.6454 46.7604C83.5889 46.8556 83.5115 46.9315 83.4133 46.988C83.3181 47.0446 83.214 47.0728 83.1009 47.0728ZM82.9983 48.9697C82.9834 48.9697 82.9715 48.9653 82.9626 48.9563C82.9566 48.9444 82.9581 48.931 82.967 48.9162L84.6274 45.8767C84.6363 45.8559 84.6541 45.8454 84.6809 45.8454H84.8237C84.8386 45.8454 84.849 45.8514 84.855 45.8633C84.8639 45.8722 84.8639 45.8841 84.855 45.899L83.1946 48.9385C83.1857 48.9593 83.1679 48.9697 83.1411 48.9697H82.9983ZM83.1009 46.8765C83.2199 46.8765 83.3196 46.8348 83.4 46.7515C83.4833 46.6652 83.5249 46.5611 83.5249 46.4391C83.5249 46.3171 83.4833 46.2144 83.4 46.1311C83.3196 46.0448 83.2199 46.0017 83.1009 46.0017C82.9819 46.0017 82.8807 46.0448 82.7974 46.1311C82.7141 46.2144 82.6724 46.3171 82.6724 46.4391C82.6724 46.5611 82.7141 46.6652 82.7974 46.7515C82.8807 46.8348 82.9819 46.8765 83.1009 46.8765ZM84.7389 49.0099C84.6229 49.0099 84.5158 48.9816 84.4176 48.9251C84.3224 48.8686 84.2465 48.7912 84.19 48.693C84.1334 48.5948 84.1052 48.4877 84.1052 48.3716C84.1052 48.2586 84.1334 48.1544 84.19 48.0592C84.2465 47.961 84.3224 47.8837 84.4176 47.8271C84.5158 47.7706 84.6229 47.7423 84.7389 47.7423C84.852 47.7423 84.9561 47.7706 85.0514 47.8271C85.1496 47.8837 85.2269 47.961 85.2835 48.0592C85.34 48.1544 85.3683 48.2586 85.3683 48.3716C85.3683 48.4877 85.34 48.5948 85.2835 48.693C85.2269 48.7912 85.1496 48.8686 85.0514 48.9251C84.9561 48.9816 84.852 49.0099 84.7389 49.0099ZM84.7389 48.8135C84.858 48.8135 84.9576 48.7704 85.038 48.6841C85.1213 48.5978 85.1629 48.4936 85.1629 48.3716C85.1629 48.2497 85.1213 48.147 85.038 48.0637C84.9576 47.9804 84.858 47.9387 84.7389 47.9387C84.6199 47.9387 84.5187 47.9804 84.4354 48.0637C84.3521 48.147 84.3105 48.2497 84.3105 48.3716C84.3105 48.4966 84.3506 48.6023 84.431 48.6885C84.5143 48.7719 84.6169 48.8135 84.7389 48.8135Z" fill="#404040"/>
</svg>
