<svg width="102" height="58" viewBox="0 0 102 58" fill="none" xmlns="http://www.w3.org/2000/svg">
<path d="M35.2076 9.01757C37.8357 7.95734 40.6473 7.42436 43.4818 7.44906C46.3162 7.47376 49.1181 8.05565 51.7273 9.16151C54.3366 10.2674 56.7021 11.8756 58.6889 13.8942C60.6757 15.9129 62.2448 18.3025 63.3066 20.9267C64.3685 23.5508 64.9023 26.3581 64.8775 29.1883C64.8528 32.0184 64.27 34.8159 63.1625 37.4212C62.0549 40.0264 60.4443 42.3884 58.4225 44.3721C56.4007 46.3558 54.0074 47.9226 51.3793 48.9828L48.5492 41.9889C50.2575 41.2997 51.8132 40.2814 53.1273 38.9919C54.4415 37.7025 55.4884 36.1672 56.2083 34.4738C56.9282 32.7804 57.307 30.962 57.3231 29.1224C57.3392 27.2828 56.9922 25.4581 56.302 23.7524C55.6118 22.0467 54.5919 20.4934 53.3005 19.1813C52.0091 17.8692 50.4715 16.8239 48.7755 16.105C47.0795 15.3862 45.2583 15.008 43.4159 14.9919C41.5734 14.9759 39.7459 15.3223 38.0376 16.0115L35.2076 9.01757Z" fill="#33FF00"/>
<path d="M51.3793 48.9828C48.7511 50.043 45.9395 50.576 43.105 50.5513C40.2706 50.5266 37.4687 49.9447 34.8595 48.8388C32.2503 47.733 29.8847 46.1248 27.8979 44.1061C25.9112 42.0875 24.342 39.6978 23.2802 37.0737C22.2183 34.4495 21.6846 31.6422 21.7093 28.8121C21.734 25.982 22.3168 23.1844 23.4244 20.5792C24.5319 17.9739 26.1426 15.612 28.1643 13.6282C30.1861 11.6445 32.5794 10.0778 35.2076 9.01756L38.0376 16.0115C36.3293 16.7006 34.7737 17.719 33.4595 19.0084C32.1454 20.2978 31.0984 21.8331 30.3785 23.5265C29.6586 25.2199 29.2798 27.0383 29.2637 28.8779C29.2477 30.7175 29.5946 32.5422 30.2848 34.2479C30.975 35.9536 31.9949 37.5069 33.2864 38.819C34.5778 40.1312 36.1154 41.1765 37.8114 41.8953C39.5074 42.6141 41.3286 42.9923 43.171 43.0084C45.0134 43.0245 46.8409 42.678 48.5492 41.9889L51.3793 48.9828Z" fill="#FFF172"/>
<path d="M30.7872 13.2503L28.2452 9.98706H17.7141" stroke="black" stroke-width="0.145684"/>
<path d="M2.0116 7.80481C1.99821 7.81017 1.99821 7.81686 2.0116 7.8249C2.13746 7.88649 2.23387 7.97486 2.30082 8.09002C2.37044 8.20517 2.4066 8.34442 2.40928 8.50778C2.40928 8.74879 2.33697 8.93625 2.19236 9.07015C2.05043 9.20405 1.86163 9.271 1.62597 9.271H0.834635C0.807855 9.271 0.794466 9.25761 0.794466 9.23083V6.49931C0.794466 6.47253 0.807855 6.45914 0.834635 6.45914H1.59384C1.84021 6.45914 2.03302 6.52341 2.17228 6.65195C2.31153 6.77782 2.38116 6.95858 2.38116 7.19424C2.38116 7.3442 2.34902 7.47007 2.28475 7.57183C2.22316 7.67359 2.13211 7.75125 2.0116 7.80481ZM1.09574 6.70819C1.08502 6.70819 1.07967 6.71354 1.07967 6.72426V7.69234C1.07967 7.70305 1.08502 7.70841 1.09574 7.70841H1.59785C1.75318 7.70841 1.87502 7.66422 1.96339 7.57585C2.05445 7.48748 2.09997 7.36831 2.09997 7.21834C2.09997 7.06034 2.05445 6.93582 1.96339 6.84476C1.87502 6.75371 1.75318 6.70819 1.59785 6.70819H1.09574ZM1.61794 9.01793C1.77326 9.01793 1.89645 8.96973 1.9875 8.87332C2.07855 8.77691 2.12407 8.64569 2.12407 8.47966C2.12407 8.31095 2.07721 8.17839 1.98348 8.08198C1.89243 7.98558 1.7679 7.93737 1.6099 7.93737H1.09574C1.08502 7.93737 1.07967 7.94273 1.07967 7.95344V9.00186C1.07967 9.01257 1.08502 9.01793 1.09574 9.01793H1.61794ZM4.22744 9.271C4.20334 9.271 4.18861 9.25895 4.18326 9.23484L4.0507 8.73273C4.04802 8.72469 4.04132 8.72068 4.03061 8.72068H3.07056C3.05985 8.72068 3.05316 8.72469 3.05048 8.73273L2.91792 9.23484C2.91256 9.25895 2.89784 9.271 2.87373 9.271H2.66485C2.65146 9.271 2.64075 9.26698 2.63272 9.25895C2.62736 9.25091 2.62602 9.2402 2.6287 9.22681L3.37987 6.49529C3.38522 6.47119 3.39995 6.45914 3.42405 6.45914H3.68114C3.70524 6.45914 3.71997 6.47119 3.72532 6.49529L4.47649 9.22681L4.48051 9.23886C4.48051 9.26028 4.46712 9.271 4.44034 9.271H4.22744ZM3.11877 8.47163C3.11609 8.4743 3.11609 8.47832 3.11877 8.48368C3.12412 8.48635 3.12948 8.48769 3.13483 8.48769H3.96634C3.9717 8.48769 3.97571 8.48635 3.97839 8.48368C3.98375 8.47832 3.98509 8.4743 3.98241 8.47163L3.55661 6.85682C3.55394 6.85146 3.55126 6.84878 3.54858 6.84878C3.5459 6.84878 3.54322 6.85146 3.54055 6.85682L3.11877 8.47163ZM6.30345 6.49931C6.30345 6.47253 6.31684 6.45914 6.34362 6.45914H6.54848C6.57526 6.45914 6.58865 6.47253 6.58865 6.49931V9.23083C6.58865 9.25761 6.57526 9.271 6.54848 9.271H6.33156C6.30746 9.271 6.2914 9.26162 6.28336 9.24288L5.20682 7.09381C5.20147 7.08846 5.19611 7.08578 5.19075 7.08578C5.18808 7.08578 5.18674 7.0898 5.18674 7.09783L5.19075 9.23083C5.19075 9.25761 5.17736 9.271 5.15058 9.271H4.94572C4.91894 9.271 4.90555 9.25761 4.90555 9.23083V6.49931C4.90555 6.47253 4.91894 6.45914 4.94572 6.45914H5.16264C5.18674 6.45914 5.2028 6.46851 5.21084 6.48726L6.28738 8.64435C6.29273 8.64971 6.29675 8.65239 6.29943 8.65239C6.30479 8.65239 6.30746 8.64837 6.30746 8.64034L6.30345 6.49931ZM8.61705 9.271C8.59294 9.271 8.57822 9.25895 8.57286 9.23484L8.4403 8.73273C8.43762 8.72469 8.43093 8.72068 8.42022 8.72068H7.46017C7.44946 8.72068 7.44276 8.72469 7.44008 8.73273L7.30752 9.23484C7.30217 9.25895 7.28744 9.271 7.26334 9.271H7.05446C7.04107 9.271 7.03036 9.26698 7.02232 9.25895C7.01697 9.25091 7.01563 9.2402 7.0183 9.22681L7.76947 6.49529C7.77483 6.47119 7.78956 6.45914 7.81366 6.45914H8.07074C8.09484 6.45914 8.10957 6.47119 8.11493 6.49529L8.8661 9.22681L8.87011 9.23886C8.87011 9.26028 8.85672 9.271 8.82994 9.271H8.61705ZM7.50837 8.47163C7.50569 8.4743 7.50569 8.47832 7.50837 8.48368C7.51373 8.48635 7.51908 8.48769 7.52444 8.48769H8.35595C8.3613 8.48769 8.36532 8.48635 8.368 8.48368C8.37335 8.47832 8.37469 8.4743 8.37201 8.47163L7.94622 6.85682C7.94354 6.85146 7.94086 6.84878 7.93818 6.84878C7.93551 6.84878 7.93283 6.85146 7.93015 6.85682L7.50837 8.47163ZM10.6931 6.49931C10.6931 6.47253 10.7064 6.45914 10.7332 6.45914H10.9381C10.9649 6.45914 10.9783 6.47253 10.9783 6.49931V9.23083C10.9783 9.25761 10.9649 9.271 10.9381 9.271H10.7212C10.6971 9.271 10.681 9.26162 10.673 9.24288L9.59643 7.09381C9.59107 7.08846 9.58571 7.08578 9.58036 7.08578C9.57768 7.08578 9.57634 7.0898 9.57634 7.09783L9.58036 9.23083C9.58036 9.25761 9.56697 9.271 9.54019 9.271H9.33533C9.30855 9.271 9.29516 9.25761 9.29516 9.23083V6.49931C9.29516 6.47253 9.30855 6.45914 9.33533 6.45914H9.55224C9.57634 6.45914 9.59241 6.46851 9.60044 6.48726L10.677 8.64435C10.6823 8.64971 10.6864 8.65239 10.689 8.65239C10.6944 8.65239 10.6971 8.64837 10.6971 8.64034L10.6931 6.49931ZM13.0067 9.271C12.9825 9.271 12.9678 9.25895 12.9625 9.23484L12.8299 8.73273C12.8272 8.72469 12.8205 8.72068 12.8098 8.72068H11.8498C11.8391 8.72068 11.8324 8.72469 11.8297 8.73273L11.6971 9.23484C11.6918 9.25895 11.677 9.271 11.6529 9.271H11.4441C11.4307 9.271 11.42 9.26698 11.4119 9.25895C11.4066 9.25091 11.4052 9.2402 11.4079 9.22681L12.1591 6.49529C12.1644 6.47119 12.1792 6.45914 12.2033 6.45914H12.4603C12.4844 6.45914 12.4992 6.47119 12.5045 6.49529L13.2557 9.22681L13.2597 9.23886C13.2597 9.26028 13.2463 9.271 13.2195 9.271H13.0067ZM11.898 8.47163C11.8953 8.4743 11.8953 8.47832 11.898 8.48368C11.9033 8.48635 11.9087 8.48769 11.914 8.48769H12.7455C12.7509 8.48769 12.7549 8.48635 12.7576 8.48368C12.763 8.47832 12.7643 8.4743 12.7616 8.47163L12.3358 6.85682C12.3331 6.85146 12.3305 6.84878 12.3278 6.84878C12.3251 6.84878 12.3224 6.85146 12.3198 6.85682L11.898 8.47163ZM16.0114 6.48726C16.0247 6.46851 16.0408 6.45914 16.0596 6.45914H16.2684C16.2952 6.45914 16.3086 6.47253 16.3086 6.49931V9.23083C16.3086 9.25761 16.2952 9.271 16.2684 9.271H16.0636C16.0368 9.271 16.0234 9.25761 16.0234 9.23083V7.04561C16.0234 7.03758 16.0207 7.03222 16.0154 7.02954C16.01 7.02687 16.006 7.02954 16.0033 7.03758L15.4691 7.96549C15.4557 7.98424 15.4396 7.99361 15.4209 7.99361H15.3767C15.3579 7.99361 15.3419 7.98424 15.3285 7.96549L14.7902 7.04159C14.7875 7.03356 14.7835 7.03088 14.7782 7.03356C14.7728 7.03624 14.7701 7.04159 14.7701 7.04963V9.23083C14.7701 9.25761 14.7567 9.271 14.7299 9.271H14.5251C14.4983 9.271 14.4849 9.25761 14.4849 9.23083V6.49931C14.4849 6.47253 14.4983 6.45914 14.5251 6.45914H14.734C14.7527 6.45914 14.7688 6.46851 14.7822 6.48726L15.3887 7.51961C15.3914 7.52229 15.3954 7.52363 15.4008 7.52363C15.4061 7.52363 15.4102 7.52229 15.4128 7.51961L16.0114 6.48726ZM18.3338 9.271C18.3097 9.271 18.295 9.25895 18.2896 9.23484L18.1571 8.73273C18.1544 8.72469 18.1477 8.72068 18.137 8.72068H17.1769C17.1662 8.72068 17.1595 8.72469 17.1568 8.73273L17.0243 9.23484C17.0189 9.25895 17.0042 9.271 16.9801 9.271H16.7712C16.7578 9.271 16.7471 9.26698 16.7391 9.25895C16.7337 9.25091 16.7324 9.2402 16.7351 9.22681L17.4862 6.49529C17.4916 6.47119 17.5063 6.45914 17.5304 6.45914H17.7875C17.8116 6.45914 17.8263 6.47119 17.8317 6.49529L18.5829 9.22681L18.5869 9.23886C18.5869 9.26028 18.5735 9.271 18.5467 9.271H18.3338ZM17.2251 8.47163C17.2224 8.4743 17.2224 8.47832 17.2251 8.48368C17.2305 8.48635 17.2358 8.48769 17.2412 8.48769H18.0727C18.0781 8.48769 18.0821 8.48635 18.0848 8.48368C18.0901 8.47832 18.0914 8.4743 18.0888 8.47163L17.663 6.85682C17.6603 6.85146 17.6576 6.84878 17.6549 6.84878C17.6523 6.84878 17.6496 6.85146 17.6469 6.85682L17.2251 8.47163ZM20.5343 6.48726C20.5477 6.46851 20.5638 6.45914 20.5825 6.45914H20.7914C20.8182 6.45914 20.8316 6.47253 20.8316 6.49931V9.23083C20.8316 9.25761 20.8182 9.271 20.7914 9.271H20.5866C20.5598 9.271 20.5464 9.25761 20.5464 9.23083V7.04561C20.5464 7.03758 20.5437 7.03222 20.5383 7.02954C20.533 7.02687 20.529 7.02954 20.5263 7.03758L19.992 7.96549C19.9787 7.98424 19.9626 7.99361 19.9438 7.99361H19.8997C19.8809 7.99361 19.8648 7.98424 19.8515 7.96549L19.3132 7.04159C19.3105 7.03356 19.3065 7.03088 19.3011 7.03356C19.2958 7.03624 19.2931 7.04159 19.2931 7.04963V9.23083C19.2931 9.25761 19.2797 9.271 19.2529 9.271H19.0481C19.0213 9.271 19.0079 9.25761 19.0079 9.23083V6.49931C19.0079 6.47253 19.0213 6.45914 19.0481 6.45914H19.2569C19.2757 6.45914 19.2918 6.46851 19.3051 6.48726L19.9117 7.51961C19.9144 7.52229 19.9184 7.52363 19.9238 7.52363C19.9291 7.52363 19.9331 7.52229 19.9358 7.51961L20.5343 6.48726ZM22.8568 9.271C22.8327 9.271 22.818 9.25895 22.8126 9.23484L22.68 8.73273C22.6774 8.72469 22.6707 8.72068 22.66 8.72068H21.6999C21.6892 8.72068 21.6825 8.72469 21.6798 8.73273L21.5473 9.23484C21.5419 9.25895 21.5272 9.271 21.5031 9.271H21.2942C21.2808 9.271 21.2701 9.26698 21.2621 9.25895C21.2567 9.25091 21.2554 9.2402 21.258 9.22681L22.0092 6.49529C22.0146 6.47119 22.0293 6.45914 22.0534 6.45914H22.3105C22.3346 6.45914 22.3493 6.47119 22.3547 6.49529L23.1058 9.22681L23.1098 9.23886C23.1098 9.26028 23.0965 9.271 23.0697 9.271H22.8568ZM21.7481 8.47163C21.7454 8.4743 21.7454 8.47832 21.7481 8.48368C21.7535 8.48635 21.7588 8.48769 21.7642 8.48769H22.5957C22.601 8.48769 22.6051 8.48635 22.6077 8.48368C22.6131 8.47832 22.6144 8.4743 22.6117 8.47163L22.186 6.85682C22.1833 6.85146 22.1806 6.84878 22.1779 6.84878C22.1752 6.84878 22.1726 6.85146 22.1699 6.85682L21.7481 8.47163ZM25.6325 7.97352C25.6673 8.09939 25.6847 8.244 25.6847 8.40735C25.6847 8.54393 25.6727 8.66176 25.6486 8.76084C25.6084 8.93491 25.5281 9.06881 25.4076 9.16254C25.2897 9.25627 25.1411 9.30313 24.9617 9.30313C24.7796 9.30313 24.6283 9.25493 24.5078 9.15852C24.3873 9.06212 24.3083 8.92688 24.2708 8.75281C24.2574 8.70461 24.2494 8.65507 24.2467 8.60418V8.59615C24.2467 8.57473 24.2587 8.56401 24.2828 8.56401H24.4917C24.5158 8.56401 24.5292 8.57473 24.5319 8.59615V8.61222L24.5479 8.69256C24.572 8.80771 24.6189 8.89608 24.6885 8.95767C24.7608 9.01927 24.8519 9.05006 24.9617 9.05006C25.0688 9.05006 25.1572 9.01927 25.2268 8.95767C25.2991 8.8934 25.3473 8.80369 25.3714 8.68854C25.3902 8.61356 25.3995 8.52117 25.3995 8.41137C25.3995 8.30961 25.3888 8.20517 25.3674 8.09805C25.3433 7.99093 25.2964 7.91059 25.2268 7.85703C25.1572 7.8008 25.0688 7.77268 24.9617 7.77268C24.8599 7.77268 24.7716 7.79678 24.6966 7.84498C24.6243 7.89051 24.5734 7.95746 24.5439 8.04583L24.5359 8.0619C24.5332 8.08064 24.5198 8.09002 24.4957 8.09002H24.2828C24.256 8.09002 24.2427 8.07663 24.2427 8.04985V6.49931C24.2427 6.47253 24.256 6.45914 24.2828 6.45914H25.5562C25.583 6.45914 25.5964 6.47253 25.5964 6.49931V6.66802C25.5964 6.6948 25.583 6.70819 25.5562 6.70819H24.5439C24.5332 6.70819 24.5279 6.71354 24.5279 6.72426V7.70841C24.5279 7.71376 24.5292 7.71778 24.5319 7.72046C24.5372 7.72046 24.5426 7.71778 24.5479 7.71242C24.6015 7.65351 24.6685 7.60798 24.7488 7.57585C24.8318 7.54103 24.9202 7.52363 25.0139 7.52363C25.1719 7.52363 25.3031 7.56246 25.4076 7.64012C25.5147 7.7151 25.5897 7.82624 25.6325 7.97352ZM26.8655 9.31117C26.6352 9.31117 26.4504 9.24154 26.3111 9.10228C26.1719 8.96303 26.1022 8.77691 26.1022 8.54393V7.1862C26.1022 6.9559 26.1719 6.77112 26.3111 6.63187C26.4504 6.49261 26.6352 6.42299 26.8655 6.42299C27.0985 6.42299 27.2846 6.49261 27.4238 6.63187C27.5658 6.77112 27.6367 6.9559 27.6367 7.1862V8.54393C27.6367 8.77691 27.5658 8.96303 27.4238 9.10228C27.2846 9.24154 27.0985 9.31117 26.8655 9.31117ZM26.8655 9.06212C27.0128 9.06212 27.1306 9.01659 27.219 8.92554C27.3073 8.83449 27.3515 8.71398 27.3515 8.56401V7.17014C27.3515 7.02017 27.3073 6.89966 27.219 6.80861C27.1306 6.71756 27.0128 6.67204 26.8655 6.67204C26.7235 6.67204 26.6084 6.71756 26.52 6.80861C26.4316 6.89966 26.3875 7.02017 26.3875 7.17014V8.56401C26.3875 8.7113 26.4316 8.83181 26.52 8.92554C26.6084 9.01659 26.7235 9.06212 26.8655 9.06212ZM28.7852 7.5638C28.6807 7.5638 28.5843 7.53836 28.496 7.48747C28.4103 7.43659 28.342 7.36831 28.2911 7.28261C28.2402 7.19424 28.2148 7.09783 28.2148 6.99339C28.2148 6.88895 28.2402 6.79388 28.2911 6.70819C28.342 6.61982 28.4103 6.55019 28.496 6.49931C28.5843 6.44843 28.6807 6.42299 28.7852 6.42299C28.887 6.42299 28.9807 6.44843 29.0664 6.49931C29.1547 6.55019 29.2244 6.61982 29.2753 6.70819C29.3261 6.79388 29.3516 6.88895 29.3516 6.99339C29.3516 7.09783 29.3261 7.19424 29.2753 7.28261C29.2244 7.36831 29.1547 7.43659 29.0664 7.48747C28.9807 7.53836 28.887 7.5638 28.7852 7.5638ZM28.6928 9.271C28.6794 9.271 28.6687 9.26698 28.6607 9.25895C28.6553 9.24823 28.6566 9.23618 28.6647 9.22279L30.159 6.48726C30.167 6.46851 30.1831 6.45914 30.2072 6.45914H30.3357C30.3491 6.45914 30.3585 6.46449 30.3638 6.47521C30.3719 6.48324 30.3719 6.49395 30.3638 6.50734L28.8695 9.24288C28.8615 9.26162 28.8454 9.271 28.8213 9.271H28.6928ZM28.7852 7.38705C28.8923 7.38705 28.982 7.34956 29.0543 7.27458C29.1293 7.19692 29.1668 7.10319 29.1668 6.99339C29.1668 6.8836 29.1293 6.79121 29.0543 6.71622C28.982 6.63856 28.8923 6.59973 28.7852 6.59973C28.6781 6.59973 28.587 6.63856 28.512 6.71622C28.4371 6.79121 28.3996 6.8836 28.3996 6.99339C28.3996 7.10319 28.4371 7.19692 28.512 7.27458C28.587 7.34956 28.6781 7.38705 28.7852 7.38705ZM30.2594 9.30715C30.155 9.30715 30.0586 9.28171 29.9702 9.23083C29.8845 9.17995 29.8162 9.11032 29.7653 9.02195C29.7144 8.93357 29.689 8.83717 29.689 8.73273C29.689 8.63096 29.7144 8.53724 29.7653 8.45154C29.8162 8.36317 29.8845 8.29354 29.9702 8.24266C30.0586 8.19178 30.155 8.16634 30.2594 8.16634C30.3612 8.16634 30.4549 8.19178 30.5406 8.24266C30.629 8.29354 30.6986 8.36317 30.7495 8.45154C30.8004 8.53724 30.8258 8.63096 30.8258 8.73273C30.8258 8.83717 30.8004 8.93357 30.7495 9.02195C30.6986 9.11032 30.629 9.17995 30.5406 9.23083C30.4549 9.28171 30.3612 9.30715 30.2594 9.30715ZM30.2594 9.1304C30.3665 9.1304 30.4562 9.09157 30.5285 9.01391C30.6035 8.93625 30.641 8.84252 30.641 8.73273C30.641 8.62293 30.6035 8.53054 30.5285 8.45556C30.4562 8.38057 30.3665 8.34308 30.2594 8.34308C30.1523 8.34308 30.0612 8.38057 29.9863 8.45556C29.9113 8.53054 29.8738 8.62293 29.8738 8.73273C29.8738 8.8452 29.9099 8.94027 29.9822 9.01793C30.0572 9.09291 30.1496 9.1304 30.2594 9.1304Z" fill="#404040"/>
<path d="M65.2182 43.8984C65.1914 43.8984 65.178 43.885 65.178 43.8583V41.1267C65.178 41.1 65.1914 41.0866 65.2182 41.0866H65.423C65.4498 41.0866 65.4632 41.1 65.4632 41.1267V42.4604C65.4632 42.4657 65.4659 42.4697 65.4712 42.4724C65.4766 42.4724 65.4806 42.4697 65.4833 42.4644L66.5036 41.1107C66.5143 41.0946 66.5317 41.0866 66.5558 41.0866H66.7808C66.7968 41.0866 66.8075 41.0919 66.8129 41.1026C66.8183 41.1107 66.8156 41.1214 66.8049 41.1348L66.0015 42.2354C65.9988 42.2435 65.9988 42.2515 66.0015 42.2595L66.8772 43.8502C66.8825 43.8609 66.8852 43.869 66.8852 43.8743C66.8852 43.8904 66.8732 43.8984 66.8491 43.8984H66.6161C66.592 43.8984 66.5759 43.8891 66.5679 43.8703L65.8047 42.4845C65.7993 42.4711 65.7926 42.4711 65.7846 42.4845L65.4712 42.8822C65.4659 42.8875 65.4632 42.8942 65.4632 42.9022V43.8583C65.4632 43.885 65.4498 43.8984 65.423 43.8984H65.2182ZM67.3522 43.8984C67.3254 43.8984 67.312 43.885 67.312 43.8583V41.1267C67.312 41.1 67.3254 41.0866 67.3522 41.0866H67.557C67.5838 41.0866 67.5972 41.1 67.5972 41.1267V43.8583C67.5972 43.885 67.5838 43.8984 67.557 43.8984H67.3522ZM68.7392 43.8984C68.7151 43.8984 68.7004 43.8864 68.6951 43.8623L68.0483 41.1308L68.0443 41.1147C68.0443 41.096 68.0564 41.0866 68.0805 41.0866H68.2974C68.3215 41.0866 68.3362 41.0986 68.3416 41.1227L68.8316 43.2798C68.8343 43.2879 68.837 43.2919 68.8397 43.2919C68.845 43.2919 68.849 43.2879 68.8517 43.2798L69.2976 41.1227C69.303 41.0986 69.3177 41.0866 69.3418 41.0866H69.5426C69.5694 41.0866 69.5841 41.0986 69.5868 41.1227L70.0488 43.2798C70.0514 43.2879 70.0541 43.2919 70.0568 43.2919C70.0595 43.2919 70.0622 43.2879 70.0648 43.2798L70.5429 41.1227C70.5482 41.0986 70.5629 41.0866 70.587 41.0866H70.7959C70.8227 41.0866 70.8334 41.1013 70.8281 41.1308L70.2014 43.8623C70.1961 43.8864 70.1813 43.8984 70.1572 43.8984H69.9524C69.9283 43.8984 69.9135 43.8864 69.9082 43.8623L69.4502 41.6731C69.4476 41.665 69.4449 41.661 69.4422 41.661C69.4395 41.661 69.4369 41.665 69.4342 41.6731L68.9803 43.8623C68.9776 43.8864 68.9629 43.8984 68.9361 43.8984H68.7392ZM71.322 43.8984C71.2953 43.8984 71.2819 43.885 71.2819 43.8583V41.1267C71.2819 41.1 71.2953 41.0866 71.322 41.0866H71.5269C71.5537 41.0866 71.5671 41.1 71.5671 41.1267V43.8583C71.5671 43.885 71.5537 43.8984 71.5269 43.8984H71.322ZM73.7181 43.9306C73.4664 43.9306 73.2656 43.865 73.1156 43.7337C72.9683 43.5998 72.8947 43.4218 72.8947 43.1995V43.091C72.8947 43.0643 72.9081 43.0509 72.9348 43.0509H73.1317C73.1585 43.0509 73.1718 43.0643 73.1718 43.091V43.1834C73.1718 43.3334 73.2227 43.4539 73.3245 43.5449C73.4263 43.636 73.5615 43.6815 73.7302 43.6815C73.8882 43.6815 74.0127 43.6387 74.1038 43.553C74.1948 43.4673 74.2404 43.3548 74.2404 43.2156C74.2404 43.1245 74.2189 43.0455 74.1761 42.9786C74.1332 42.9116 74.0703 42.85 73.9873 42.7938C73.9043 42.7375 73.7851 42.6666 73.6298 42.5809C73.4637 42.4925 73.3325 42.4148 73.2361 42.3479C73.1424 42.2809 73.0661 42.1993 73.0072 42.1029C72.9482 42.0065 72.9188 41.8886 72.9188 41.7494C72.9188 41.5325 72.9884 41.3624 73.1277 41.2392C73.2669 41.116 73.453 41.0544 73.686 41.0544C73.9351 41.0544 74.1332 41.1227 74.2805 41.2593C74.4278 41.3959 74.5015 41.5766 74.5015 41.8016V41.894C74.5015 41.9208 74.4881 41.9342 74.4613 41.9342H74.2604C74.2337 41.9342 74.2203 41.9208 74.2203 41.894V41.8056C74.2203 41.6556 74.1721 41.5351 74.0757 41.4441C73.9792 41.3504 73.8467 41.3035 73.678 41.3035C73.528 41.3035 73.4102 41.3423 73.3245 41.42C73.2415 41.4976 73.2 41.6074 73.2 41.7494C73.2 41.8404 73.22 41.9167 73.2602 41.9783C73.3004 42.0399 73.358 42.0962 73.4329 42.1471C73.5106 42.1979 73.6284 42.2662 73.7864 42.3519C73.9685 42.4537 74.1078 42.5407 74.2042 42.613C74.3033 42.6826 74.3809 42.7643 74.4372 42.8581C74.4961 42.9491 74.5256 43.0616 74.5256 43.1955C74.5256 43.4204 74.4532 43.5998 74.3086 43.7337C74.164 43.865 73.9672 43.9306 73.7181 43.9306ZM76.5702 41.1147C76.5836 41.096 76.5996 41.0866 76.6184 41.0866H76.8273C76.854 41.0866 76.8674 41.1 76.8674 41.1267V43.8583C76.8674 43.885 76.854 43.8984 76.8273 43.8984H76.6224C76.5956 43.8984 76.5822 43.885 76.5822 43.8583V41.6731C76.5822 41.665 76.5795 41.6597 76.5742 41.657C76.5688 41.6543 76.5648 41.657 76.5621 41.665L76.0279 42.5929C76.0145 42.6117 75.9984 42.6211 75.9797 42.6211H75.9355C75.9168 42.6211 75.9007 42.6117 75.8873 42.5929L75.349 41.669C75.3463 41.661 75.3423 41.6583 75.337 41.661C75.3316 41.6637 75.3289 41.669 75.3289 41.6771V43.8583C75.3289 43.885 75.3156 43.8984 75.2888 43.8984H75.0839C75.0571 43.8984 75.0437 43.885 75.0437 43.8583V41.1267C75.0437 41.1 75.0571 41.0866 75.0839 41.0866H75.2928C75.3115 41.0866 75.3276 41.096 75.341 41.1147L75.9476 42.1471C75.9502 42.1497 75.9542 42.1511 75.9596 42.1511C75.965 42.1511 75.969 42.1497 75.9717 42.1471L76.5702 41.1147ZM78.278 43.9306C78.1147 43.9306 77.9701 43.8971 77.8442 43.8301C77.721 43.7605 77.6246 43.6641 77.555 43.5409C77.488 43.4177 77.4546 43.2758 77.4546 43.1151V41.8739C77.4546 41.7132 77.488 41.5713 77.555 41.4481C77.6246 41.3222 77.721 41.2258 77.8442 41.1589C77.9701 41.0893 78.1147 41.0544 78.278 41.0544C78.4414 41.0544 78.5847 41.0893 78.7078 41.1589C78.8337 41.2258 78.9315 41.3222 79.0011 41.4481C79.0707 41.5713 79.1055 41.7132 79.1055 41.8739V43.1151C79.1055 43.2758 79.0707 43.4177 79.0011 43.5409C78.9315 43.6641 78.8337 43.7605 78.7078 43.8301C78.5847 43.8971 78.4414 43.9306 78.278 43.9306ZM78.278 43.6815C78.4414 43.6815 78.5726 43.6306 78.6717 43.5289C78.7708 43.4271 78.8203 43.2932 78.8203 43.1272V41.8659C78.8203 41.6972 78.7708 41.5619 78.6717 41.4602C78.5726 41.3557 78.4414 41.3035 78.278 41.3035C78.1174 41.3035 77.9875 41.3557 77.8884 41.4602C77.7893 41.5619 77.7398 41.6972 77.7398 41.8659V43.1272C77.7398 43.2932 77.7893 43.4271 77.8884 43.5289C77.9875 43.6306 78.1174 43.6815 78.278 43.6815ZM80.4434 43.9306C80.2801 43.9306 80.1354 43.8971 80.0096 43.8301C79.8864 43.7605 79.79 43.6641 79.7204 43.5409C79.6534 43.4177 79.6199 43.2758 79.6199 43.1151V41.8739C79.6199 41.7132 79.6534 41.5713 79.7204 41.4481C79.79 41.3222 79.8864 41.2258 80.0096 41.1589C80.1354 41.0893 80.2801 41.0544 80.4434 41.0544C80.6068 41.0544 80.75 41.0893 80.8732 41.1589C80.9991 41.2258 81.0968 41.3222 81.1665 41.4481C81.2361 41.5713 81.2709 41.7132 81.2709 41.8739V43.1151C81.2709 43.2758 81.2361 43.4177 81.1665 43.5409C81.0968 43.6641 80.9991 43.7605 80.8732 43.8301C80.75 43.8971 80.6068 43.9306 80.4434 43.9306ZM80.4434 43.6815C80.6068 43.6815 80.738 43.6306 80.8371 43.5289C80.9362 43.4271 80.9857 43.2932 80.9857 43.1272V41.8659C80.9857 41.6972 80.9362 41.5619 80.8371 41.4602C80.738 41.3557 80.6068 41.3035 80.4434 41.3035C80.2827 41.3035 80.1529 41.3557 80.0538 41.4602C79.9547 41.5619 79.9051 41.6972 79.9051 41.8659V43.1272C79.9051 43.2932 79.9547 43.4271 80.0538 43.5289C80.1529 43.6306 80.2827 43.6815 80.4434 43.6815ZM83.3081 41.0866C83.3349 41.0866 83.3483 41.1 83.3483 41.1267V41.2955C83.3483 41.3222 83.3349 41.3356 83.3081 41.3356H82.6534C82.6426 41.3356 82.6373 41.341 82.6373 41.3517V43.8583C82.6373 43.885 82.6239 43.8984 82.5971 43.8984H82.3923C82.3655 43.8984 82.3521 43.885 82.3521 43.8583V41.3517C82.3521 41.341 82.3467 41.3356 82.336 41.3356H81.7054C81.6786 41.3356 81.6652 41.3222 81.6652 41.2955V41.1267C81.6652 41.1 81.6786 41.0866 81.7054 41.0866H83.3081ZM85.1523 41.1267C85.1523 41.1 85.1657 41.0866 85.1924 41.0866H85.3973C85.4241 41.0866 85.4375 41.1 85.4375 41.1267V43.8583C85.4375 43.885 85.4241 43.8984 85.3973 43.8984H85.1924C85.1657 43.8984 85.1523 43.885 85.1523 43.8583V42.6291C85.1523 42.6184 85.1469 42.613 85.1362 42.613H84.14C84.1293 42.613 84.1239 42.6184 84.1239 42.6291V43.8583C84.1239 43.885 84.1105 43.8984 84.0838 43.8984H83.8789C83.8521 43.8984 83.8387 43.885 83.8387 43.8583V41.1267C83.8387 41.1 83.8521 41.0866 83.8789 41.0866H84.0838C84.1105 41.0866 84.1239 41.1 84.1239 41.1267V42.3479C84.1239 42.3586 84.1293 42.364 84.14 42.364H85.1362C85.1469 42.364 85.1523 42.3586 85.1523 42.3479V41.1267ZM86.1424 43.8984C86.1156 43.8984 86.1022 43.885 86.1022 43.8583V41.1267C86.1022 41.1 86.1156 41.0866 86.1424 41.0866H86.3472C86.374 41.0866 86.3874 41.1 86.3874 41.1267V43.8583C86.3874 43.885 86.374 43.8984 86.3472 43.8984H86.1424ZM88.6019 41.2955C88.6019 41.3222 88.5886 41.3356 88.5618 41.3356H87.3567C87.346 41.3356 87.3406 41.341 87.3406 41.3517V42.3479C87.3406 42.3586 87.346 42.364 87.3567 42.364H88.1681C88.1949 42.364 88.2083 42.3774 88.2083 42.4041V42.5728C88.2083 42.5996 88.1949 42.613 88.1681 42.613H87.3567C87.346 42.613 87.3406 42.6184 87.3406 42.6291V43.6333C87.3406 43.644 87.346 43.6494 87.3567 43.6494H88.5618C88.5886 43.6494 88.6019 43.6628 88.6019 43.6896V43.8583C88.6019 43.885 88.5886 43.8984 88.5618 43.8984H87.0956C87.0688 43.8984 87.0554 43.885 87.0554 43.8583V41.1267C87.0554 41.1 87.0688 41.0866 87.0956 41.0866H88.5618C88.5886 41.0866 88.6019 41.1 88.6019 41.1267V41.2955ZM91.2282 42.601C91.263 42.7268 91.2804 42.8714 91.2804 43.0348C91.2804 43.1714 91.2684 43.2892 91.2443 43.3883C91.2041 43.5624 91.1238 43.6963 91.0033 43.79C90.8854 43.8837 90.7368 43.9306 90.5574 43.9306C90.3753 43.9306 90.224 43.8824 90.1035 43.786C89.983 43.6896 89.904 43.5543 89.8665 43.3803C89.8531 43.332 89.845 43.2825 89.8424 43.2316V43.2236C89.8424 43.2022 89.8544 43.1915 89.8785 43.1915H90.0874C90.1115 43.1915 90.1249 43.2022 90.1276 43.2236V43.2397L90.1436 43.32C90.1677 43.4352 90.2146 43.5235 90.2842 43.5851C90.3565 43.6467 90.4476 43.6775 90.5574 43.6775C90.6645 43.6775 90.7529 43.6467 90.8225 43.5851C90.8948 43.5208 90.943 43.4311 90.9671 43.316C90.9859 43.241 90.9952 43.1486 90.9952 43.0388C90.9952 42.9371 90.9845 42.8326 90.9631 42.7255C90.939 42.6184 90.8921 42.538 90.8225 42.4845C90.7529 42.4282 90.6645 42.4001 90.5574 42.4001C90.4556 42.4001 90.3672 42.4242 90.2923 42.4724C90.22 42.5179 90.1691 42.5849 90.1396 42.6733L90.1316 42.6893C90.1289 42.7081 90.1155 42.7175 90.0914 42.7175H89.8785C89.8517 42.7175 89.8383 42.7041 89.8383 42.6773V41.1267C89.8383 41.1 89.8517 41.0866 89.8785 41.0866H91.1519C91.1787 41.0866 91.1921 41.1 91.1921 41.1267V41.2955C91.1921 41.3222 91.1787 41.3356 91.1519 41.3356H90.1396C90.1289 41.3356 90.1235 41.341 90.1235 41.3517V42.3358C90.1235 42.3412 90.1249 42.3452 90.1276 42.3479C90.1329 42.3479 90.1383 42.3452 90.1436 42.3399C90.1972 42.2809 90.2641 42.2354 90.3445 42.2033C90.4275 42.1685 90.5159 42.1511 90.6096 42.1511C90.7676 42.1511 90.8988 42.1899 91.0033 42.2676C91.1104 42.3425 91.1854 42.4537 91.2282 42.601ZM92.4612 43.9386C92.2309 43.9386 92.0461 43.869 91.9068 43.7297C91.7676 43.5905 91.6979 43.4044 91.6979 43.1714V41.8136C91.6979 41.5833 91.7676 41.3986 91.9068 41.2593C92.0461 41.1201 92.2309 41.0504 92.4612 41.0504C92.6941 41.0504 92.8803 41.1201 93.0195 41.2593C93.1614 41.3986 93.2324 41.5833 93.2324 41.8136V43.1714C93.2324 43.4044 93.1614 43.5905 93.0195 43.7297C92.8803 43.869 92.6941 43.9386 92.4612 43.9386ZM92.4612 43.6896C92.6084 43.6896 92.7263 43.644 92.8146 43.553C92.903 43.4619 92.9472 43.3414 92.9472 43.1915V41.7976C92.9472 41.6476 92.903 41.5271 92.8146 41.4361C92.7263 41.345 92.6084 41.2995 92.4612 41.2995C92.3192 41.2995 92.2041 41.345 92.1157 41.4361C92.0273 41.5271 91.9831 41.6476 91.9831 41.7976V43.1915C91.9831 43.3387 92.0273 43.4593 92.1157 43.553C92.2041 43.644 92.3192 43.6896 92.4612 43.6896ZM94.3809 42.1912C94.2764 42.1912 94.18 42.1658 94.0917 42.1149C94.006 42.064 93.9377 41.9957 93.8868 41.9101C93.8359 41.8217 93.8105 41.7253 93.8105 41.6208C93.8105 41.5164 93.8359 41.4213 93.8868 41.3356C93.9377 41.2473 94.006 41.1776 94.0917 41.1267C94.18 41.0759 94.2764 41.0504 94.3809 41.0504C94.4826 41.0504 94.5764 41.0759 94.6621 41.1267C94.7504 41.1776 94.8201 41.2473 94.8709 41.3356C94.9218 41.4213 94.9473 41.5164 94.9473 41.6208C94.9473 41.7253 94.9218 41.8217 94.8709 41.9101C94.8201 41.9957 94.7504 42.064 94.6621 42.1149C94.5764 42.1658 94.4826 42.1912 94.3809 42.1912ZM94.2885 43.8984C94.2751 43.8984 94.2644 43.8944 94.2564 43.8864C94.251 43.8757 94.2523 43.8636 94.2604 43.8502L95.7547 41.1147C95.7627 41.096 95.7788 41.0866 95.8029 41.0866H95.9314C95.9448 41.0866 95.9542 41.0919 95.9595 41.1026C95.9676 41.1107 95.9676 41.1214 95.9595 41.1348L94.4652 43.8703C94.4572 43.8891 94.4411 43.8984 94.417 43.8984H94.2885ZM94.3809 42.0145C94.488 42.0145 94.5777 41.977 94.65 41.902C94.725 41.8244 94.7625 41.7306 94.7625 41.6208C94.7625 41.511 94.725 41.4186 94.65 41.3437C94.5777 41.266 94.488 41.2272 94.3809 41.2272C94.2738 41.2272 94.1827 41.266 94.1077 41.3437C94.0327 41.4186 93.9952 41.511 93.9952 41.6208C93.9952 41.7306 94.0327 41.8244 94.1077 41.902C94.1827 41.977 94.2738 42.0145 94.3809 42.0145ZM95.8551 43.9346C95.7507 43.9346 95.6542 43.9091 95.5659 43.8583C95.4802 43.8074 95.4119 43.7378 95.361 43.6494C95.3101 43.561 95.2847 43.4646 95.2847 43.3602C95.2847 43.2584 95.3101 43.1647 95.361 43.079C95.4119 42.9906 95.4802 42.921 95.5659 42.8701C95.6542 42.8192 95.7507 42.7938 95.8551 42.7938C95.9569 42.7938 96.0506 42.8192 96.1363 42.8701C96.2247 42.921 96.2943 42.9906 96.3452 43.079C96.396 43.1647 96.4215 43.2584 96.4215 43.3602C96.4215 43.4646 96.396 43.561 96.3452 43.6494C96.2943 43.7378 96.2247 43.8074 96.1363 43.8583C96.0506 43.9091 95.9569 43.9346 95.8551 43.9346ZM95.8551 43.7578C95.9622 43.7578 96.0519 43.719 96.1242 43.6414C96.1992 43.5637 96.2367 43.47 96.2367 43.3602C96.2367 43.2504 96.1992 43.158 96.1242 43.083C96.0519 43.008 95.9622 42.9705 95.8551 42.9705C95.748 42.9705 95.6569 43.008 95.5819 43.083C95.507 43.158 95.4695 43.2504 95.4695 43.3602C95.4695 43.4726 95.5056 43.5677 95.5779 43.6454C95.6529 43.7204 95.7453 43.7578 95.8551 43.7578Z" fill="#404040"/>
<path d="M59.9753 41.5219L62.5173 44.7852H73.0484" stroke="black" stroke-width="0.145684"/>
<path fill-rule="evenodd" clip-rule="evenodd" d="M40.7341 25.8424L40.6267 25.8524L40.6217 25.9887L40.6168 26.1266H40.7886C40.8827 26.1266 41.0959 26.1316 41.2594 26.1382L41.5601 26.1482V28.0546C41.5601 29.9112 41.5667 30.3151 41.5965 30.3151C41.6031 30.3151 41.6526 30.2818 41.7055 30.2403C41.7815 30.1804 41.8245 30.1605 41.9285 30.1372L42.0557 30.1073V28.1278V26.1482L42.5216 26.1382C42.8686 26.1299 42.9908 26.1216 43.0008 26.1067C43.0189 26.0767 43.0173 25.9072 42.9991 25.879C42.9892 25.864 42.9413 25.849 42.8868 25.8424C42.7744 25.8274 40.8927 25.8291 40.7341 25.8424Z" fill="black"/>
<path fill-rule="evenodd" clip-rule="evenodd" d="M43.6979 25.8393C43.6649 25.846 43.6633 25.856 43.6533 26.3313C43.6467 26.5989 43.6418 27.1441 43.6418 27.543V28.271H43.2783H42.9148V27.5596C42.9148 27.169 42.9099 26.7203 42.9033 26.5624L42.8934 26.2765H42.667H42.439L42.4275 26.7951C42.4209 27.0809 42.4192 27.9701 42.4225 28.7696L42.4275 30.2239L42.4655 30.3054C42.5117 30.4084 42.5117 30.46 42.4605 30.5813C42.4043 30.7143 42.4077 30.7442 42.4737 30.7708C42.5729 30.8123 42.6604 30.819 42.7579 30.7891C42.9132 30.7442 42.9049 30.8123 42.9115 29.5707L42.9182 28.5037H43.28H43.6418V29.4461C43.6418 29.9663 43.6467 30.4965 43.6533 30.6245L43.6633 30.8605L43.726 30.8805C43.7938 30.9037 43.8632 30.8921 44.03 30.8289L44.1209 30.7957L44.1192 28.7896C44.1176 27.6859 44.111 26.5707 44.106 26.3097L44.0961 25.836L43.9144 25.8344C43.8152 25.8327 43.7178 25.8344 43.6979 25.8393Z" fill="black"/>
<path fill-rule="evenodd" clip-rule="evenodd" d="M40.1259 26.4095C39.9161 26.4394 39.7691 26.5176 39.7013 26.6323C39.6419 26.7353 39.627 26.8633 39.627 27.2555C39.627 27.8655 39.6303 27.8705 40.3209 28.8944C40.4894 29.1453 40.5142 29.1869 40.5935 29.3647C40.6645 29.5226 40.6711 29.5492 40.6843 29.7304C40.6926 29.8368 40.7009 30.1293 40.7009 30.3769C40.7009 30.6263 40.7058 30.8307 40.7141 30.8307C40.7207 30.8307 40.8248 30.8157 40.9454 30.7958L41.1651 30.7592L41.1601 30.1343L41.1552 29.5093L41.0841 29.3315C41.0048 29.1354 40.8578 28.8894 40.5356 28.4207C40.42 28.2511 40.2812 28.0351 40.23 27.942L40.1342 27.7708L40.1177 27.3021C40.1011 26.7868 40.1094 26.6921 40.1821 26.6206C40.2284 26.5741 40.2845 26.5591 40.42 26.5591C40.5505 26.5591 40.61 26.584 40.6546 26.6555C40.6909 26.7154 40.6926 26.7303 40.7009 27.2771C40.7075 27.7026 40.7141 27.8423 40.7306 27.8589C40.757 27.8855 41.0941 27.8971 41.1304 27.8738C41.1519 27.8589 41.1552 27.7774 41.1601 27.3403C41.1651 26.7951 41.1552 26.6738 41.0974 26.5924C41.0577 26.5358 40.8958 26.4544 40.7669 26.4262C40.6496 26.4012 40.2614 26.3912 40.1259 26.4095Z" fill="black"/>
<path fill-rule="evenodd" clip-rule="evenodd" d="M45.0679 26.4421C44.8068 26.4787 44.6697 26.5485 44.5904 26.6848C44.5474 26.7562 44.5441 26.7828 44.5326 27.0055C44.526 27.1385 44.5194 28.0394 44.5194 29.005L44.5177 30.7619L44.5722 30.8018C44.6928 30.8948 44.7886 30.9031 44.9274 30.835L44.9886 30.8051L44.9935 29.8195L44.9968 28.8355H45.2942H45.5916V29.8228V30.8101L45.699 30.8799L45.808 30.9513L45.9121 30.9065C45.9716 30.8815 46.031 30.85 46.0492 30.8383C46.0773 30.8167 46.0789 30.7552 46.0839 29.5303C46.0905 28.046 46.069 26.8809 46.0327 26.7446C45.9782 26.5385 45.7948 26.4571 45.3355 26.4354C45.2446 26.4321 45.124 26.4338 45.0679 26.4421ZM45.4594 26.6233C45.4957 26.6415 45.5288 26.6764 45.5503 26.718C45.58 26.7795 45.5817 26.8294 45.5883 27.6056C45.5916 28.0576 45.5883 28.4732 45.58 28.528L45.5668 28.6277L45.3355 28.6327C45.2083 28.636 45.0794 28.6327 45.0513 28.6277L44.9968 28.6178V27.8997C44.9985 27.0986 45.0133 26.7728 45.0513 26.6981C45.1092 26.585 45.3091 26.5485 45.4594 26.6233Z" fill="black"/>
<path fill-rule="evenodd" clip-rule="evenodd" d="M37.8693 27.1751C37.8643 27.2316 37.8593 27.938 37.8593 28.7441V30.2101L37.9766 30.2217C38.0411 30.2267 38.1369 30.2467 38.1898 30.2649C38.2443 30.2832 38.2955 30.2982 38.3054 30.2982C38.3236 30.2982 38.3302 27.2865 38.312 27.1502L38.3005 27.0737H38.0906H37.8808L37.8693 27.1751Z" fill="black"/>
<path fill-rule="evenodd" clip-rule="evenodd" d="M38.8059 27.0933C38.7811 27.1315 38.7547 30.1964 38.7778 30.3128C38.791 30.3726 38.8158 30.3776 38.8604 30.3294C38.9083 30.2762 38.9794 30.2463 39.1049 30.2247L39.2222 30.2047L39.2321 29.972C39.247 29.6679 39.247 27.3094 39.2321 27.1814L39.2222 27.0817L39.0207 27.0767C38.872 27.0733 38.8158 27.0783 38.8059 27.0933Z" fill="black"/>
<path fill-rule="evenodd" clip-rule="evenodd" d="M46.4919 27.1019C46.4836 27.1185 46.4754 27.6371 46.4704 28.2554L46.4638 29.3773L46.5167 29.6183C46.6373 30.1651 46.7661 30.6571 46.8256 30.8017C46.9016 30.9795 47.0784 30.9064 47.0784 30.6986C47.0784 30.6471 47.0701 30.5524 47.0602 30.4892C46.9694 29.8659 46.9495 29.5086 46.933 28.1207L46.9214 27.0819L46.7133 27.0769C46.5266 27.0736 46.5035 27.0753 46.4919 27.1019Z" fill="black"/>
<path fill-rule="evenodd" clip-rule="evenodd" d="M47.4156 27.0915C47.409 27.1032 47.3975 27.6301 47.3908 28.26C47.3842 28.8916 47.371 29.48 47.3611 29.5664C47.3165 29.9753 47.2967 30.1764 47.2983 30.2229C47.3 30.2495 47.295 30.3309 47.2868 30.4024C47.2735 30.5337 47.2735 30.5337 47.3099 30.5138C47.3297 30.5038 47.3842 30.4589 47.4305 30.4174C47.4784 30.3742 47.5445 30.3177 47.5792 30.2911C47.6139 30.2645 47.6535 30.2213 47.6667 30.1963C47.7014 30.1282 47.8187 29.5996 47.8386 29.4151C47.86 29.2323 47.8551 27.1165 47.8336 27.0949C47.8253 27.0882 47.7312 27.0799 47.6238 27.0766C47.4784 27.0716 47.4255 27.0766 47.4156 27.0915Z" fill="black"/>
<path fill-rule="evenodd" clip-rule="evenodd" d="M37.2332 27.7388L37.0118 27.7471L36.8499 28.5698C36.7607 29.0219 36.6847 29.4025 36.683 29.4158C36.6748 29.459 36.6417 29.4524 36.6219 29.4059C36.612 29.3809 36.5938 29.3028 36.5806 29.2347C36.569 29.1665 36.5079 28.8673 36.4468 28.5698C36.3856 28.2723 36.3229 27.9665 36.308 27.8884L36.2816 27.7471L36.0519 27.7421L35.8223 27.7371L35.8322 28.8624C35.8388 29.4823 35.8437 30.2718 35.8437 30.6175V31.2458H36.075H36.3063L36.308 30.6341C36.308 30.2984 36.3146 29.9859 36.3229 29.941C36.3295 29.8945 36.3361 29.8629 36.3377 29.8696C36.3757 30.0724 36.4699 30.5926 36.4782 30.6491C36.4963 30.7721 36.5162 30.7887 36.6467 30.7871C36.7375 30.7871 36.7623 30.7804 36.7838 30.7521C36.802 30.7305 36.8334 30.5893 36.8747 30.3466C36.9094 30.1422 36.944 29.9627 36.9523 29.9494C36.9606 29.9327 36.9672 29.976 36.9672 30.0657C36.9672 30.2917 36.987 30.4829 37.0085 30.4912C37.02 30.4962 37.0613 30.4779 37.101 30.4513C37.1406 30.4247 37.2332 30.3782 37.3059 30.3483C37.3786 30.3167 37.443 30.2868 37.4512 30.2818C37.4579 30.2768 37.4612 29.7 37.4595 29.0003L37.4545 27.7305L37.2332 27.7388Z" fill="black"/>
<path fill-rule="evenodd" clip-rule="evenodd" d="M48.2747 27.7591C48.2664 27.7707 48.2581 28.3109 48.2548 28.9608L48.2482 30.1408L48.3143 30.1791C48.4481 30.2539 48.5093 30.3719 48.4944 30.5248C48.4828 30.6345 48.4366 30.7408 48.3374 30.8871C48.2664 30.9902 48.2598 31.0084 48.2598 31.0982C48.2598 31.163 48.2681 31.2046 48.2846 31.2195C48.3127 31.2478 48.5407 31.2578 48.9917 31.2494L49.2593 31.2461V31.1231V31.0018L49.0247 30.9902C48.8959 30.9835 48.7868 30.9752 48.7835 30.9735C48.7802 30.9702 48.7736 30.6461 48.7686 30.2539L48.7587 29.5392L48.9124 29.5292C48.9966 29.5225 49.0974 29.5176 49.1354 29.5176C49.218 29.5176 49.2279 29.4976 49.2147 29.358L49.2048 29.2682H48.9851H48.7637V28.6383C48.7637 28.2095 48.7686 28.0034 48.7819 27.9967C48.7918 27.9901 48.8975 27.9801 49.0165 27.9751L49.2345 27.9635V27.8555V27.7474L48.7604 27.7424C48.3953 27.7391 48.2846 27.7441 48.2747 27.7591Z" fill="black"/>
<path fill-rule="evenodd" clip-rule="evenodd" d="M39.6252 29.6767C39.6037 29.7332 39.6186 30.3249 39.645 30.4495C39.6566 30.4994 39.6549 30.5493 39.645 30.5991C39.6203 30.7005 39.6236 30.7853 39.65 30.8218C39.6715 30.8518 39.6764 30.8518 39.8515 30.8152C39.9507 30.7936 40.0481 30.7736 40.0696 30.7687L40.1076 30.7603L40.1027 30.2152C40.0994 29.9143 40.0911 29.6634 40.0845 29.6567C40.0779 29.6484 39.9755 29.6401 39.8582 29.6368L39.6434 29.6301L39.6252 29.6767Z" fill="black"/>
<path fill-rule="evenodd" clip-rule="evenodd" d="M41.9567 30.3833C41.8939 30.4083 41.8146 30.493 41.7221 30.631C41.6428 30.7506 41.3801 31.0964 41.3685 31.0964C41.3669 31.0964 41.3372 31.0797 41.3041 31.0615C41.2496 31.0282 41.2265 31.0266 41.0844 31.0349C40.8019 31.0498 40.6268 31.1412 40.3492 31.4155C40.1196 31.6432 39.9163 31.7762 39.8734 31.7329C39.8618 31.7213 39.8998 31.6631 39.9857 31.5617C40.2468 31.2493 40.2468 31.2493 40.2352 31.1529C40.2319 31.1213 40.2121 31.093 40.1724 31.0664C40.0915 31.0116 39.9725 31.0232 39.7891 31.1047C39.7131 31.1379 39.6421 31.1695 39.6322 31.1745C39.6206 31.1795 39.6041 31.1645 39.5958 31.1412C39.5578 31.0415 39.4372 31.0432 39.3447 31.1429C39.3133 31.1761 39.2439 31.2592 39.1911 31.3257C39.0292 31.5318 38.7467 31.7512 38.6145 31.7728C38.441 31.8011 38.5649 31.5584 39.0077 31.0049C39.3315 30.5994 39.3745 30.5229 39.2985 30.4814C39.2456 30.4548 39.1283 30.4614 39.0705 30.4963C39.0424 30.5146 38.93 30.6393 38.821 30.7756C38.6029 31.0482 38.294 31.359 38.0957 31.5069C37.8727 31.6731 37.6001 31.7811 37.5373 31.728C37.4663 31.6698 37.5522 31.5268 37.9239 31.0831C38.0181 30.97 38.1189 30.8387 38.1502 30.7922C38.2114 30.6975 38.2229 30.6127 38.1816 30.5529C38.1205 30.4648 37.8644 30.4398 37.6348 30.498C37.3143 30.5795 37.1094 30.754 37.2366 30.8387C37.2895 30.872 37.3605 30.8504 37.5588 30.7373C37.7207 30.6476 37.8826 30.5977 37.914 30.6293C37.9355 30.6509 37.843 30.7706 37.5951 31.0382C37.2829 31.3739 37.1854 31.5418 37.2036 31.708C37.2168 31.8327 37.3589 31.9424 37.5059 31.944C37.6678 31.944 37.9041 31.8343 38.0891 31.6698C38.1569 31.6099 38.2213 31.5617 38.2345 31.5617C38.2609 31.5617 38.2609 31.5584 38.2312 31.6432C38.2015 31.7296 38.2229 31.7978 38.3039 31.8659C38.4113 31.9557 38.5567 31.9623 38.7318 31.8842C38.8342 31.8377 38.892 31.8327 38.9069 31.8692C38.9135 31.8859 38.94 31.8942 38.9895 31.8942C39.0622 31.8942 39.0655 31.8925 39.1828 31.7479C39.3513 31.5418 39.4554 31.4371 39.5694 31.354C39.8387 31.1595 40.032 31.1379 39.8965 31.3174C39.8701 31.3507 39.8024 31.4304 39.7445 31.4969C39.5859 31.6781 39.5529 31.7928 39.6371 31.8593C39.6735 31.8875 39.7049 31.8942 39.804 31.8942C39.9329 31.8942 39.9742 31.8792 40.1344 31.7778C40.1774 31.7496 40.222 31.728 40.2336 31.728C40.2451 31.728 40.2682 31.7562 40.2864 31.7928C40.3261 31.8709 40.3905 31.8991 40.5194 31.8991C40.635 31.8975 40.7457 31.8509 40.8531 31.7595C40.896 31.7246 40.9373 31.6947 40.9473 31.6947C40.9572 31.6947 40.9654 31.718 40.9654 31.7462C40.9654 31.7795 40.982 31.8127 41.0133 31.846C41.0546 31.8875 41.0745 31.8942 41.1505 31.8942C41.2546 31.8942 41.3785 31.841 41.5073 31.7413C41.5552 31.7047 41.5982 31.6781 41.6031 31.6831C41.6081 31.6881 41.6246 31.7163 41.6411 31.7479C41.6577 31.7778 41.7056 31.8277 41.7485 31.8559C41.8179 31.9041 41.8427 31.9108 41.9319 31.9108C42.0773 31.9108 42.1946 31.8842 42.3202 31.826C42.4672 31.7579 42.5647 31.6781 42.8323 31.4205C43.0091 31.2476 43.0735 31.1961 43.1181 31.1878C43.2437 31.1628 43.2387 31.1795 43.0636 31.3789C42.7976 31.6781 42.7514 31.7845 42.8505 31.8676C42.9513 31.9523 43.1611 31.9141 43.3726 31.7728C43.4337 31.7313 43.4948 31.6947 43.5047 31.6914C43.5163 31.6881 43.5378 31.713 43.5543 31.7446C43.6534 31.939 43.9376 31.9623 44.2531 31.8027C44.3126 31.7728 44.3721 31.7363 44.3836 31.7213C44.4167 31.6814 44.4299 31.6864 44.5356 31.7845C44.6529 31.8942 44.7157 31.9174 44.871 31.9075C45.0247 31.8975 45.137 31.8426 45.3006 31.698C45.4641 31.5568 45.5748 31.4753 45.5979 31.4836C45.6095 31.487 45.6145 31.5352 45.6112 31.6133C45.6029 31.8194 45.664 31.8942 45.8408 31.8942C45.9812 31.8942 46.082 31.8559 46.1927 31.7629C46.2472 31.7163 46.2968 31.6831 46.305 31.6881C46.3117 31.6931 46.3183 31.723 46.3183 31.7545C46.3183 31.8476 46.3777 31.8942 46.495 31.8942C46.6024 31.8942 46.6801 31.8626 46.8056 31.7712C46.8502 31.7379 46.8982 31.7113 46.9097 31.7113C46.9196 31.7113 46.9428 31.7429 46.9576 31.7795C47.0204 31.9407 47.2748 31.954 47.4846 31.8094C47.597 31.7329 47.8762 31.452 47.8679 31.4255C47.8498 31.3706 47.7903 31.3989 47.6135 31.5401C47.4252 31.6947 47.3541 31.7346 47.2897 31.7246C47.2567 31.7196 47.2517 31.7113 47.2534 31.6415C47.2534 31.5401 47.2963 31.4803 47.4549 31.354C47.7903 31.088 48.0761 30.7922 48.1471 30.636C48.2033 30.5146 48.1951 30.4166 48.129 30.3833C48.0662 30.3534 47.9225 30.3817 47.8299 30.4432C47.6449 30.5678 47.2434 31.0299 47.0782 31.3124C46.9989 31.4454 46.8982 31.5518 46.7693 31.6382C46.6586 31.713 46.5859 31.7379 46.5628 31.7147C46.538 31.6897 46.5925 31.6099 46.7478 31.4371C46.8122 31.364 46.8783 31.2792 46.8932 31.2493C46.9196 31.1961 46.918 31.1911 46.8915 31.1712C46.875 31.1595 46.8337 31.1462 46.799 31.1396C46.7627 31.1346 46.7115 31.1113 46.685 31.088C46.5876 31.0066 46.391 31.0033 46.163 31.0797C46.1002 31.0997 45.9878 31.1628 45.8788 31.2376C45.6343 31.4088 45.588 31.4055 45.5699 31.2227C45.5583 31.1063 45.5186 31.0548 45.4195 31.0282C45.1882 30.9651 44.8033 31.1313 44.5637 31.3972C44.3969 31.5817 44.1738 31.7196 44.0053 31.7396C43.9458 31.7462 43.9227 31.7413 43.8864 31.7113C43.8285 31.6665 43.8285 31.6249 43.888 31.5202C43.9789 31.3606 44.1986 31.1695 44.311 31.1512C44.3836 31.1396 44.3869 31.1678 44.3275 31.2559C44.2746 31.3324 44.2812 31.3523 44.3556 31.359C44.4035 31.3623 44.4266 31.354 44.4762 31.3108C44.5984 31.2027 44.6017 31.1246 44.4844 31.0565C44.3655 30.985 44.1127 31.0299 43.9029 31.1579C43.85 31.1894 43.7162 31.3025 43.6055 31.4072C43.3428 31.6581 43.1578 31.7795 43.1099 31.7313C43.0884 31.7097 43.1826 31.58 43.3626 31.3889C43.5279 31.2127 43.5675 31.1529 43.5493 31.1047C43.5345 31.0664 43.4717 31.0581 43.2933 31.0698C43.1363 31.0814 43.1297 31.0797 43.1297 31.0482C43.1297 31.0299 43.1115 31.0016 43.0884 30.9867C42.9827 30.9169 42.7679 31.0648 42.829 31.1645C42.8621 31.216 42.8521 31.241 42.7563 31.344C42.6324 31.4803 42.4887 31.5867 42.3218 31.6681C42.079 31.7845 41.9154 31.7562 41.9154 31.5966C41.9154 31.5601 41.922 31.5252 41.9286 31.5185C41.9352 31.5119 42.0211 31.5002 42.1186 31.4936C42.3846 31.4737 42.53 31.4155 42.6093 31.2991C42.6671 31.2144 42.6621 31.1612 42.5928 31.098C42.4887 31.0066 42.3532 30.995 42.1368 31.0631C42.0063 31.103 41.9154 31.1712 41.6478 31.4304C41.395 31.6748 41.2793 31.7529 41.2364 31.708C41.2149 31.6881 41.2215 31.6714 41.276 31.585C41.3388 31.4886 41.5486 31.231 41.879 30.847C42.1814 30.4963 42.2376 30.3983 42.1516 30.375C42.0971 30.3601 42.0046 30.365 41.9567 30.3833ZM48.0365 30.5695C48.0365 30.6409 47.564 31.1795 47.5012 31.1795C47.4615 31.1795 47.7391 30.7988 47.8894 30.6493C47.9869 30.5512 48.0365 30.5246 48.0365 30.5695ZM41.2364 31.1562C41.2926 31.1778 41.2612 31.236 41.1108 31.3856C40.9456 31.5501 40.8101 31.6482 40.6796 31.698C40.5375 31.7529 40.4929 31.6964 40.5788 31.5684C40.6928 31.3955 40.9109 31.2327 41.1059 31.1695C41.1835 31.1446 41.2017 31.1429 41.2364 31.1562ZM42.4589 31.1728C42.4969 31.2094 42.492 31.2327 42.4391 31.2842C42.3763 31.344 42.2689 31.3789 42.1417 31.3789H42.0343L42.0723 31.3374C42.1236 31.2825 42.264 31.1894 42.3284 31.1662C42.3995 31.1412 42.4292 31.1429 42.4589 31.1728ZM45.4013 31.1761C45.4013 31.1878 45.3716 31.2144 45.3369 31.2343C45.2576 31.2792 45.2064 31.3457 45.2213 31.3839C45.2262 31.4005 45.2527 31.4238 45.2791 31.4388C45.3055 31.452 45.327 31.4737 45.327 31.487C45.327 31.5185 45.2477 31.5767 45.0957 31.6581C44.909 31.7595 44.8115 31.7662 44.7669 31.6798C44.7058 31.5667 44.9817 31.2709 45.2328 31.1778C45.327 31.1429 45.4013 31.1429 45.4013 31.1761ZM46.5628 31.1562C46.6123 31.1712 46.609 31.2094 46.5463 31.2941C46.4157 31.472 46.0126 31.7496 45.9234 31.7196C45.7797 31.6748 46.1266 31.2908 46.4157 31.1778C46.5016 31.1446 46.5099 31.1429 46.5628 31.1562Z" fill="black"/>
<path fill-rule="evenodd" clip-rule="evenodd" d="M36.9953 31.0417C36.977 31.0583 36.982 31.2262 37.0003 31.2378C37.0185 31.2494 37.1332 31.1447 37.1332 31.1165C37.1332 31.0949 37.0518 31.03 37.0252 31.03C37.0152 31.03 37.0003 31.035 36.9953 31.0417Z" fill="black"/>
<path fill-rule="evenodd" clip-rule="evenodd" d="M35.8308 31.5315L35.8357 31.5863L36.2669 31.5913C36.7411 31.5963 36.8633 31.5863 36.8914 31.5398C36.9046 31.5165 36.9046 31.5065 36.8848 31.4949C36.8699 31.4849 36.6436 31.4783 36.3429 31.4783H35.8258L35.8308 31.5315Z" fill="black"/>
<path fill-rule="evenodd" clip-rule="evenodd" d="M48.2087 31.4949C48.1723 31.5099 48.1442 31.5581 48.1624 31.5763C48.1673 31.5813 48.4185 31.5863 48.7192 31.5863H49.2677L49.2726 31.5315L49.2776 31.4783L48.7605 31.4799C48.4763 31.4799 48.2285 31.4866 48.2087 31.4949Z" fill="black"/>
<path fill-rule="evenodd" clip-rule="evenodd" d="M36.6153 32.1622C36.427 32.2171 36.3642 32.4531 36.5046 32.5877C36.6318 32.7074 36.8764 32.7041 36.9837 32.5828C37.0845 32.4681 37.063 32.2919 36.9408 32.2055C36.8631 32.1506 36.7227 32.1323 36.6153 32.1622ZM36.8664 32.257C36.8896 32.2736 36.9193 32.3152 36.9292 32.3484C36.9871 32.5229 36.7838 32.6792 36.6302 32.5778C36.5658 32.5346 36.5393 32.483 36.5377 32.3966C36.5377 32.3401 36.5476 32.3168 36.5839 32.2819C36.6087 32.2586 36.6434 32.2337 36.6616 32.2254C36.7112 32.2038 36.8185 32.2204 36.8664 32.257Z" fill="black"/>
<path fill-rule="evenodd" clip-rule="evenodd" d="M37.8988 32.1602C37.8509 32.1801 37.793 32.2566 37.793 32.3015C37.793 32.363 37.8657 32.4195 37.9583 32.4311C38.0524 32.4427 38.1499 32.4843 38.1631 32.5192C38.1681 32.5325 38.1565 32.5591 38.1383 32.5774C38.0888 32.6272 37.9649 32.6139 37.8839 32.5524C37.793 32.4826 37.7319 32.5275 37.8145 32.6056C37.95 32.7336 38.2722 32.6754 38.2722 32.5225C38.2722 32.4976 38.2573 32.461 38.2408 32.4444C38.2127 32.4161 38.0656 32.3596 38.0194 32.3596C37.9847 32.3596 37.8922 32.3048 37.8922 32.2832C37.8922 32.2499 37.9599 32.21 38.0177 32.21C38.0458 32.21 38.097 32.2283 38.1301 32.2516C38.1962 32.2965 38.2556 32.3064 38.2556 32.2715C38.2556 32.1868 38.0161 32.112 37.8988 32.1602Z" fill="black"/>
<path fill-rule="evenodd" clip-rule="evenodd" d="M41.3917 32.1584C41.2017 32.2199 41.1306 32.3927 41.2281 32.5523C41.2859 32.6487 41.4627 32.6986 41.6081 32.6587C41.8245 32.6005 41.8774 32.3313 41.699 32.2049C41.6246 32.1534 41.4776 32.1318 41.3917 32.1584ZM41.6197 32.2515C41.6758 32.288 41.7138 32.3828 41.7023 32.4509C41.6957 32.4792 41.6692 32.5257 41.6411 32.5523C41.5982 32.5939 41.5784 32.6005 41.5024 32.6005C41.3933 32.6005 41.3305 32.559 41.2975 32.4642C41.276 32.4044 41.2777 32.3927 41.3058 32.3329C41.3619 32.2166 41.509 32.1783 41.6197 32.2515Z" fill="black"/>
<path fill-rule="evenodd" clip-rule="evenodd" d="M42.0773 32.1735C41.9699 32.2167 41.9269 32.2632 41.9154 32.3497C41.8972 32.4677 41.917 32.5325 41.9897 32.5973C42.0855 32.6854 42.259 32.7004 42.3879 32.6322C42.4572 32.5973 42.52 32.4926 42.5217 32.4145C42.5233 32.2965 42.4606 32.2117 42.3383 32.1685C42.2474 32.1369 42.1648 32.1386 42.0773 32.1735ZM42.3152 32.2433C42.4341 32.3164 42.4523 32.4494 42.3565 32.5458C42.2359 32.6688 42.0062 32.594 42.0062 32.4311C42.0062 32.2632 42.178 32.1585 42.3152 32.2433Z" fill="black"/>
<path fill-rule="evenodd" clip-rule="evenodd" d="M45.5517 32.1598C45.446 32.193 45.3683 32.321 45.3816 32.439C45.3915 32.5321 45.4344 32.5903 45.5253 32.6368C45.6591 32.7066 45.8408 32.675 45.9383 32.567C45.9747 32.5288 45.9796 32.5072 45.9796 32.4124C45.978 32.2795 45.9482 32.2246 45.859 32.188C45.7797 32.1565 45.6129 32.1415 45.5517 32.1598ZM45.7913 32.2479C45.8227 32.2678 45.8607 32.3127 45.8772 32.3476C45.9069 32.4074 45.9069 32.4108 45.8772 32.4706C45.8375 32.552 45.7533 32.6085 45.669 32.6085C45.6162 32.6085 45.593 32.5969 45.5402 32.5437C45.489 32.4922 45.4757 32.4673 45.4757 32.4174C45.4757 32.2512 45.6542 32.1548 45.7913 32.2479Z" fill="black"/>
<path fill-rule="evenodd" clip-rule="evenodd" d="M47.5032 32.1669C47.4172 32.1985 47.3826 32.2334 47.3495 32.3198C47.2834 32.496 47.4172 32.6755 47.6155 32.6755C47.708 32.6755 47.8154 32.6223 47.8534 32.5575C47.9129 32.4595 47.8617 32.4478 47.7592 32.5359C47.713 32.5741 47.6667 32.5991 47.6238 32.6041C47.5659 32.6124 47.5527 32.6074 47.5015 32.5559C47.404 32.4578 47.4024 32.3631 47.4999 32.265C47.5709 32.1935 47.6254 32.1935 47.7394 32.2683C47.8385 32.3331 47.8782 32.3248 47.8385 32.25C47.7923 32.1653 47.6221 32.1221 47.5032 32.1669Z" fill="black"/>
<path fill-rule="evenodd" clip-rule="evenodd" d="M48.1921 32.1555C48.1343 32.1671 48.0236 32.2718 48.0038 32.3366C47.9807 32.4081 47.9906 32.4763 48.0401 32.556C48.0864 32.6308 48.1839 32.674 48.3078 32.6757C48.4003 32.6757 48.4069 32.6724 48.4779 32.6009C48.5192 32.561 48.549 32.5178 48.5457 32.5062C48.5325 32.4663 48.4879 32.4746 48.4399 32.5228C48.3491 32.6126 48.2879 32.6292 48.202 32.5843C48.1029 32.5328 48.0732 32.3915 48.1409 32.2918C48.207 32.192 48.2863 32.192 48.4449 32.2951C48.4961 32.3267 48.4994 32.3283 48.511 32.3017C48.544 32.212 48.3524 32.1239 48.1921 32.1555Z" fill="black"/>
<path fill-rule="evenodd" clip-rule="evenodd" d="M48.8447 32.1585C48.7059 32.2034 48.6563 32.2881 48.6629 32.4626C48.6646 32.5225 48.7389 32.6072 48.8215 32.6438C48.9686 32.712 49.1933 32.6554 49.2494 32.5358C49.3073 32.4144 49.2693 32.2732 49.1619 32.2017C49.0892 32.1535 48.9273 32.1319 48.8447 32.1585ZM49.0793 32.2449C49.1272 32.2632 49.1767 32.3546 49.1767 32.4244C49.1767 32.5175 49.066 32.6089 48.9537 32.6089C48.9107 32.6089 48.8794 32.5939 48.8331 32.5524C48.7769 32.4992 48.772 32.4876 48.772 32.4045C48.772 32.338 48.7802 32.3031 48.8034 32.2781C48.8612 32.2133 48.9669 32.2017 49.0793 32.2449Z" fill="black"/>
<path fill-rule="evenodd" clip-rule="evenodd" d="M35.8639 32.1804C35.8688 32.192 35.9019 32.2036 35.9382 32.207C35.9762 32.2103 36.0159 32.2236 36.0274 32.2369C36.0407 32.2535 36.0522 32.335 36.0555 32.4613C36.0621 32.6325 36.0671 32.6591 36.0902 32.6591C36.1464 32.6591 36.158 32.6225 36.158 32.4513C36.158 32.2469 36.1761 32.2103 36.2736 32.2153C36.343 32.2169 36.3661 32.207 36.3479 32.1787C36.3314 32.1505 35.8556 32.1538 35.8639 32.1804Z" fill="black"/>
<path fill-rule="evenodd" clip-rule="evenodd" d="M37.3504 32.1981C37.3141 32.238 37.1769 32.5305 37.1571 32.6119C37.1472 32.6518 37.1505 32.6585 37.1786 32.6585C37.2116 32.6585 37.243 32.6302 37.2728 32.5687C37.2876 32.5388 37.3058 32.5338 37.4082 32.5288L37.5272 32.5238L37.5503 32.5787C37.5916 32.6767 37.661 32.7033 37.661 32.6202C37.661 32.572 37.5156 32.2363 37.476 32.1931C37.4347 32.1499 37.3934 32.1515 37.3504 32.1981ZM37.4562 32.3693C37.4694 32.4407 37.4479 32.4673 37.3901 32.4524C37.3405 32.4407 37.3339 32.4008 37.3735 32.346C37.4115 32.2911 37.4429 32.3011 37.4562 32.3693Z" fill="black"/>
<path fill-rule="evenodd" clip-rule="evenodd" d="M38.3746 32.1799C38.3796 32.1915 38.3928 32.2031 38.406 32.2048C38.4192 32.2065 38.4572 32.2114 38.4919 32.2181L38.553 32.2281V32.3328C38.553 32.5106 38.5728 32.6436 38.5993 32.6552C38.6439 32.6718 38.6654 32.6103 38.6769 32.4175L38.6885 32.2281L38.748 32.2181C38.7827 32.2114 38.819 32.2065 38.8322 32.2048C38.8454 32.2031 38.8587 32.1915 38.8636 32.1799C38.8686 32.1649 38.8124 32.1599 38.6191 32.1599C38.4258 32.1599 38.3696 32.1649 38.3746 32.1799Z" fill="black"/>
<path fill-rule="evenodd" clip-rule="evenodd" d="M39.0472 32.1709C38.9927 32.1792 38.9828 32.2207 38.9828 32.4335C38.9828 32.6595 38.9894 32.6662 39.2438 32.6662C39.3528 32.6662 39.4487 32.6595 39.4553 32.6529C39.48 32.6296 39.4239 32.608 39.3363 32.608C39.29 32.608 39.2174 32.603 39.1744 32.598L39.0984 32.5864V32.5166V32.4468L39.2487 32.4368C39.333 32.4318 39.4073 32.4202 39.4173 32.4102C39.442 32.3853 39.3594 32.3587 39.2537 32.3587C39.1414 32.3587 39.0984 32.3371 39.0984 32.2822C39.0984 32.2291 39.1496 32.2091 39.2884 32.2091C39.4024 32.2091 39.4503 32.1975 39.4354 32.1742C39.4272 32.1592 39.1348 32.1576 39.0472 32.1709Z" fill="black"/>
<path fill-rule="evenodd" clip-rule="evenodd" d="M39.642 32.1719C39.6205 32.1769 39.6139 32.2068 39.6073 32.3232C39.604 32.4029 39.604 32.5077 39.6073 32.5559C39.6139 32.634 39.6188 32.6473 39.6585 32.6622C39.718 32.6855 39.9212 32.6705 39.9856 32.6373C40.1095 32.5725 40.1591 32.4029 40.0897 32.2783C40.0368 32.1852 39.9757 32.1603 39.8055 32.1619C39.7312 32.1636 39.6568 32.1669 39.642 32.1719ZM39.908 32.2268C39.9823 32.2467 40.0236 32.3149 40.0236 32.4179C40.0236 32.4811 40.0153 32.5043 39.9773 32.5426C39.9261 32.5924 39.8353 32.619 39.7692 32.6024C39.7394 32.5957 39.7279 32.5775 39.7196 32.5309C39.7031 32.4246 39.7081 32.2517 39.7295 32.2301C39.7543 32.2052 39.8287 32.2052 39.908 32.2268Z" fill="black"/>
<path fill-rule="evenodd" clip-rule="evenodd" d="M40.5721 32.1745C40.5391 32.1944 40.5506 32.6365 40.5853 32.6581C40.6266 32.6831 40.6498 32.6432 40.6547 32.5368L40.6597 32.4338L40.8001 32.4404C40.8794 32.4437 40.9455 32.4537 40.9521 32.4653C40.9587 32.4753 40.9653 32.5052 40.9653 32.5335C40.9653 32.6083 40.9835 32.6581 41.0083 32.6581C41.0397 32.6581 41.0496 32.575 41.0446 32.359C41.0397 32.1811 41.038 32.1678 41.0066 32.1678C40.9802 32.1678 40.9719 32.1828 40.9637 32.2476C40.9587 32.2925 40.9438 32.3357 40.9306 32.344C40.9191 32.3523 40.853 32.359 40.7885 32.359H40.6679V32.3025C40.6679 32.1894 40.6283 32.1379 40.5721 32.1745Z" fill="black"/>
<path fill-rule="evenodd" clip-rule="evenodd" d="M43.0227 32.1799C43.0045 32.1898 42.9417 32.2364 42.8839 32.2796C42.7666 32.371 42.7501 32.3677 42.7352 32.2563C42.7286 32.2065 42.717 32.1832 42.6972 32.1799C42.6708 32.1749 42.6675 32.1948 42.6675 32.4059C42.6675 32.5322 42.6724 32.6419 42.679 32.6469C42.6989 32.6668 42.7319 32.622 42.7435 32.5605C42.755 32.4923 42.7914 32.4258 42.8178 32.4258C42.8277 32.4258 42.8905 32.4774 42.9549 32.5422C43.0689 32.6519 43.1152 32.6785 43.1383 32.6436C43.1433 32.6336 43.0987 32.5721 43.0392 32.5023C42.9797 32.4342 42.9318 32.371 42.9318 32.361C42.9318 32.3527 42.9764 32.3095 43.0309 32.2679C43.1268 32.1932 43.1433 32.1599 43.0838 32.1599C43.0689 32.1599 43.0409 32.1699 43.0227 32.1799Z" fill="black"/>
<path fill-rule="evenodd" clip-rule="evenodd" d="M43.4372 32.1908C43.3992 32.2357 43.2455 32.5781 43.2455 32.6213C43.2455 32.6894 43.3314 32.6562 43.3579 32.5764C43.376 32.5282 43.3793 32.5265 43.4834 32.5265C43.571 32.5265 43.5991 32.5332 43.6255 32.5598C43.6437 32.5781 43.6585 32.6047 43.6585 32.618C43.6585 32.6462 43.7065 32.6745 43.7378 32.6645C43.7478 32.6595 43.7577 32.6445 43.7577 32.6296C43.7577 32.5864 43.5792 32.2058 43.5478 32.1808C43.5082 32.1526 43.4702 32.1559 43.4372 32.1908ZM43.5462 32.362C43.5627 32.4185 43.5611 32.4318 43.5412 32.4451C43.5082 32.465 43.4884 32.4634 43.452 32.4385C43.4239 32.4168 43.4239 32.4135 43.4603 32.347C43.4818 32.3088 43.5049 32.2822 43.5115 32.2872C43.5198 32.2922 43.5346 32.3254 43.5462 32.362Z" fill="black"/>
<path fill-rule="evenodd" clip-rule="evenodd" d="M43.9013 32.1721C43.8947 32.1771 43.8898 32.2868 43.8898 32.4131C43.8898 32.6076 43.8931 32.6458 43.9162 32.6541C43.9559 32.6691 43.9773 32.6342 43.9856 32.5344L43.9922 32.443H44.0781C44.1244 32.443 44.1888 32.438 44.2218 32.4331L44.2813 32.4231L44.2896 32.5344C44.3011 32.6691 44.3193 32.6923 44.3689 32.6425C44.4036 32.6076 44.4052 32.5943 44.3986 32.4065C44.392 32.2353 44.3871 32.2037 44.3606 32.1837C44.316 32.1505 44.2896 32.1821 44.283 32.2735L44.278 32.3516H44.1376H43.9972L43.9889 32.2768C43.9839 32.2353 43.974 32.192 43.9674 32.1804C43.9526 32.1588 43.9179 32.1538 43.9013 32.1721Z" fill="black"/>
<path fill-rule="evenodd" clip-rule="evenodd" d="M44.7855 32.1804C44.7904 32.192 44.8317 32.2053 44.878 32.2103C44.9243 32.2153 44.9672 32.2253 44.9755 32.2336C44.9821 32.2402 44.992 32.3316 44.9936 32.4347C44.9986 32.5693 45.0069 32.6291 45.0217 32.6424C45.063 32.6773 45.0746 32.6458 45.0845 32.4613C45.0961 32.2369 45.1076 32.212 45.1952 32.2153C45.2646 32.2169 45.2877 32.207 45.2695 32.1787C45.253 32.1505 44.7772 32.1538 44.7855 32.1804Z" fill="black"/>
<path fill-rule="evenodd" clip-rule="evenodd" d="M46.1202 32.381C46.1202 32.6652 46.1252 32.6752 46.2904 32.6752C46.3565 32.6752 46.4341 32.6685 46.4655 32.6585C46.5861 32.6236 46.6324 32.5256 46.5713 32.4325C46.5481 32.3959 46.5465 32.381 46.5647 32.3328C46.5878 32.2696 46.5729 32.2281 46.5134 32.1865C46.4854 32.1666 46.4325 32.1599 46.2987 32.1599H46.1202V32.381ZM46.4094 32.233C46.4688 32.2596 46.4854 32.3012 46.4474 32.3394C46.4275 32.3594 46.2904 32.366 46.2458 32.3494C46.2144 32.3378 46.2111 32.258 46.2392 32.2297C46.2656 32.2031 46.34 32.2048 46.4094 32.233ZM46.4804 32.4707C46.5085 32.509 46.5052 32.5322 46.4688 32.5655C46.4275 32.602 46.3234 32.617 46.2656 32.5937C46.2276 32.5788 46.2194 32.5655 46.2194 32.5173C46.2194 32.4724 46.2276 32.4541 46.2574 32.4425C46.3102 32.4192 46.454 32.4391 46.4804 32.4707Z" fill="black"/>
<path fill-rule="evenodd" clip-rule="evenodd" d="M46.9249 32.1804C46.8819 32.2136 46.6936 32.6275 46.7134 32.6474C46.7382 32.6724 46.7795 32.6491 46.8158 32.5843C46.8505 32.5261 46.8522 32.5261 46.9645 32.5261C47.0736 32.5261 47.0785 32.5278 47.1033 32.5743C47.1363 32.6408 47.1942 32.6807 47.2206 32.6574C47.2454 32.6358 47.2305 32.5893 47.1231 32.3566C47.0389 32.1737 46.991 32.1322 46.9249 32.1804ZM47.0091 32.3815C47.0157 32.4513 46.9877 32.4729 46.9315 32.443C46.8885 32.4197 46.8885 32.4081 46.9315 32.3532C46.9761 32.2951 47.0025 32.305 47.0091 32.3815Z" fill="black"/>
</svg>
