<svg width="92" height="57" viewBox="0 0 92 57" fill="none" xmlns="http://www.w3.org/2000/svg">
<path d="M29.0293 42.1745C26.0957 38.7371 24.3442 34.4748 24.0259 29.9985L31.5713 29.4797C31.7783 32.3893 32.9167 35.1598 34.8235 37.3941L29.0293 42.1745Z" fill="#FF007A"/>
<path d="M37.4887 8.81512C42.803 6.70405 48.7525 6.7551 54.0285 8.95703C59.3045 11.159 63.4748 15.3314 65.6219 20.5565C67.769 25.7816 67.7171 31.6312 65.4775 36.8187C63.238 42.0061 58.9943 46.1064 53.68 48.2174L50.8466 41.322C54.3008 39.9498 57.0592 37.2847 58.5149 33.9128C59.9706 30.541 60.0044 26.7387 58.6087 23.3424C57.2131 19.9461 54.5024 17.234 51.0731 15.8028C47.6437 14.3715 43.7764 14.3383 40.3222 15.7105L37.4887 8.81512Z" fill="#FF9900"/>
<path d="M24.0259 29.9985C23.7075 25.5222 24.8386 21.0617 27.2571 17.2563C29.6755 13.451 33.2572 10.496 37.4887 8.81511L40.3222 15.7105C37.5717 16.8031 35.2436 18.7238 33.6716 21.1973C32.0996 23.6708 31.3644 26.5701 31.5713 29.4797L24.0259 29.9985Z" fill="#FF00B8"/>
<path d="M53.68 48.2174C49.4485 49.8984 44.7844 50.219 40.3561 49.1335C35.9279 48.0479 31.9628 45.6119 29.0292 42.1745L34.8235 37.3941C36.7304 39.6284 39.3076 41.2119 42.186 41.9175C45.0644 42.6231 48.0961 42.4146 50.8465 41.322L53.68 48.2174Z" fill="#FF0000"/>
<path d="M57.106 11.6463L59.6511 8.42896H70.195" stroke="black" stroke-width="0.145684"/>
<path d="M63.3471 4.14941C63.3609 4.13009 63.3774 4.12043 63.3967 4.12043H63.612C63.6396 4.12043 63.6534 4.13423 63.6534 4.16183V6.97715C63.6534 7.00475 63.6396 7.01855 63.612 7.01855H63.4009C63.3733 7.01855 63.3595 7.00475 63.3595 6.97715V4.7249C63.3595 4.71662 63.3567 4.7111 63.3512 4.70834C63.3457 4.70558 63.3415 4.70834 63.3388 4.71662L62.7881 5.673C62.7743 5.69232 62.7578 5.70198 62.7385 5.70198H62.6929C62.6736 5.70198 62.657 5.69232 62.6432 5.673L62.0884 4.72076C62.0857 4.71248 62.0815 4.70972 62.076 4.71248C62.0705 4.71524 62.0677 4.72076 62.0677 4.72904V6.97715C62.0677 7.00475 62.0539 7.01855 62.0263 7.01855H61.8152C61.7876 7.01855 61.7738 7.00475 61.7738 6.97715V4.16183C61.7738 4.13423 61.7876 4.12043 61.8152 4.12043H62.0305C62.0498 4.12043 62.0664 4.13009 62.0802 4.14941L62.7053 5.21344C62.7081 5.2162 62.7122 5.21758 62.7177 5.21758C62.7233 5.21758 62.7274 5.2162 62.7302 5.21344L63.3471 4.14941ZM65.7408 7.01855C65.7159 7.01855 65.7007 7.00613 65.6952 6.98129L65.5586 6.46377C65.5558 6.45549 65.5489 6.45135 65.5379 6.45135H64.5484C64.5373 6.45135 64.5304 6.45549 64.5277 6.46377L64.3911 6.98129C64.3855 7.00613 64.3704 7.01855 64.3455 7.01855H64.1302C64.1164 7.01855 64.1054 7.01441 64.0971 7.00613C64.0916 6.99785 64.0902 6.98681 64.093 6.97301L64.8672 4.15769C64.8727 4.13285 64.8879 4.12043 64.9127 4.12043H65.1777C65.2025 4.12043 65.2177 4.13285 65.2232 4.15769L65.9974 6.97301L66.0016 6.98543C66.0016 7.00751 65.9878 7.01855 65.9602 7.01855H65.7408ZM64.5981 6.19466C64.5953 6.19742 64.5953 6.20156 64.5981 6.20708C64.6036 6.20984 64.6091 6.21122 64.6146 6.21122H65.4716C65.4772 6.21122 65.4813 6.20984 65.4841 6.20708C65.4896 6.20156 65.491 6.19742 65.4882 6.19466L65.0493 4.53031C65.0466 4.52479 65.0438 4.52203 65.0411 4.52203C65.0383 4.52203 65.0355 4.52479 65.0328 4.53031L64.5981 6.19466ZM67.8804 4.16183C67.8804 4.13423 67.8942 4.12043 67.9219 4.12043H68.133C68.1606 4.12043 68.1744 4.13423 68.1744 4.16183V6.97715C68.1744 7.00475 68.1606 7.01855 68.133 7.01855H67.9094C67.8846 7.01855 67.868 7.00889 67.8597 6.98957L66.7502 4.77458C66.7447 4.76906 66.7391 4.7663 66.7336 4.7663C66.7309 4.7663 66.7295 4.77044 66.7295 4.77872L66.7336 6.97715C66.7336 7.00475 66.7198 7.01855 66.6922 7.01855H66.4811C66.4535 7.01855 66.4397 7.00475 66.4397 6.97715V4.16183C66.4397 4.13423 66.4535 4.12043 66.4811 4.12043H66.7046C66.7295 4.12043 66.746 4.13009 66.7543 4.14941L67.8639 6.37269C67.8694 6.37821 67.8735 6.38097 67.8763 6.38097C67.8818 6.38097 67.8846 6.37683 67.8846 6.36855L67.8804 4.16183ZM69.6192 7.05168C69.368 7.05168 69.1651 6.97853 69.0106 6.83225C68.8587 6.68596 68.7828 6.49137 68.7828 6.24848V4.89051C68.7828 4.64761 68.8587 4.45303 69.0106 4.30674C69.1651 4.16045 69.368 4.08731 69.6192 4.08731C69.7848 4.08731 69.9297 4.12043 70.0539 4.18668C70.1808 4.25292 70.2788 4.34538 70.3478 4.46407C70.4196 4.58275 70.4555 4.71938 70.4555 4.87394V4.98987C70.4555 5.01747 70.4417 5.03127 70.4141 5.03127H70.2029C70.1753 5.03127 70.1615 5.01747 70.1615 4.98987V4.87394C70.1615 4.71662 70.1118 4.58965 70.0125 4.49305C69.9131 4.39368 69.782 4.344 69.6192 4.344C69.4563 4.344 69.3252 4.39368 69.2258 4.49305C69.1265 4.58965 69.0768 4.71938 69.0768 4.88222V6.25676C69.0768 6.41685 69.1265 6.54657 69.2258 6.64594C69.328 6.7453 69.4605 6.79499 69.6233 6.79499C69.7861 6.79499 69.9159 6.74806 70.0125 6.65422C70.1118 6.56038 70.1615 6.43341 70.1615 6.27332V5.82204C70.1615 5.811 70.156 5.80548 70.145 5.80548H69.6606C69.633 5.80548 69.6192 5.79168 69.6192 5.76408V5.59019C69.6192 5.56259 69.633 5.54879 69.6606 5.54879H70.4141C70.4417 5.54879 70.4555 5.56259 70.4555 5.59019V6.23606C70.4555 6.48723 70.3796 6.68596 70.2278 6.83225C70.076 6.97853 69.8731 7.05168 69.6192 7.05168ZM71.8351 7.05168C71.6667 7.05168 71.5177 7.01717 71.388 6.94817C71.261 6.87641 71.1616 6.77704 71.0899 6.65008C71.0209 6.52311 70.9864 6.37683 70.9864 6.21122V4.93191C70.9864 4.7663 71.0209 4.62001 71.0899 4.49305C71.1616 4.36332 71.261 4.26396 71.388 4.19496C71.5177 4.12319 71.6667 4.08731 71.8351 4.08731C72.0035 4.08731 72.1511 4.12319 72.2781 4.19496C72.4078 4.26396 72.5086 4.36332 72.5803 4.49305C72.6521 4.62001 72.688 4.7663 72.688 4.93191V6.21122C72.688 6.37683 72.6521 6.52311 72.5803 6.65008C72.5086 6.77704 72.4078 6.87641 72.2781 6.94817C72.1511 7.01717 72.0035 7.05168 71.8351 7.05168ZM71.8351 6.79499C72.0035 6.79499 72.1387 6.74254 72.2408 6.63766C72.343 6.53277 72.394 6.39477 72.394 6.22364V4.92363C72.394 4.74974 72.343 4.61035 72.2408 4.50547C72.1387 4.39782 72.0035 4.344 71.8351 4.344C71.6695 4.344 71.5356 4.39782 71.4335 4.50547C71.3314 4.61035 71.2803 4.74974 71.2803 4.92363V6.22364C71.2803 6.39477 71.3314 6.53277 71.4335 6.63766C71.5356 6.74254 71.6695 6.79499 71.8351 6.79499ZM74.8254 7.05168C74.5659 7.05168 74.3589 6.98405 74.2043 6.84881C74.0525 6.7108 73.9766 6.52725 73.9766 6.29816V6.18638C73.9766 6.15878 73.9904 6.14498 74.018 6.14498H74.2209C74.2485 6.14498 74.2623 6.15878 74.2623 6.18638V6.2816C74.2623 6.43617 74.3147 6.56038 74.4196 6.65422C74.5245 6.74806 74.6639 6.79499 74.8378 6.79499C75.0006 6.79499 75.129 6.75082 75.2228 6.6625C75.3167 6.57418 75.3636 6.45825 75.3636 6.31473C75.3636 6.22088 75.3415 6.13946 75.2973 6.07045C75.2532 6.00145 75.1883 5.93797 75.1028 5.88001C75.0172 5.82204 74.8944 5.7489 74.7343 5.66058C74.5632 5.56949 74.4279 5.48945 74.3285 5.42045C74.2319 5.35144 74.1533 5.26726 74.0926 5.1679C74.0318 5.06853 74.0015 4.94709 74.0015 4.80356C74.0015 4.57999 74.0732 4.40472 74.2168 4.27776C74.3603 4.15079 74.5521 4.08731 74.7922 4.08731C75.0489 4.08731 75.2532 4.15769 75.405 4.29846C75.5568 4.43923 75.6327 4.62553 75.6327 4.85738V4.95261C75.6327 4.98021 75.6189 4.99401 75.5913 4.99401H75.3843C75.3567 4.99401 75.3429 4.98021 75.3429 4.95261V4.86152C75.3429 4.70696 75.2932 4.58275 75.1938 4.48891C75.0945 4.3923 74.9579 4.344 74.784 4.344C74.6294 4.344 74.508 4.38402 74.4196 4.46407C74.3341 4.54411 74.2913 4.65728 74.2913 4.80356C74.2913 4.89741 74.312 4.97607 74.3534 5.03955C74.3948 5.10303 74.4541 5.161 74.5314 5.21344C74.6115 5.26588 74.7329 5.33626 74.8957 5.42459C75.0834 5.52947 75.227 5.61918 75.3263 5.6937C75.4284 5.76546 75.5085 5.84965 75.5665 5.94625C75.6272 6.04009 75.6575 6.15602 75.6575 6.29402C75.6575 6.52587 75.583 6.7108 75.434 6.84881C75.2849 6.98405 75.0821 7.05168 74.8254 7.05168ZM76.2372 7.01855C76.2096 7.01855 76.1958 7.00475 76.1958 6.97715V4.16183C76.1958 4.13423 76.2096 4.12043 76.2372 4.12043H76.4483C76.4759 4.12043 76.4897 4.13423 76.4897 4.16183V6.7453C76.4897 6.75634 76.4952 6.76186 76.5063 6.76186H77.7111C77.7387 6.76186 77.7525 6.77566 77.7525 6.80327V6.97715C77.7525 7.00475 77.7387 7.01855 77.7111 7.01855H76.2372ZM78.2345 7.01855C78.2069 7.01855 78.1931 7.00475 78.1931 6.97715V4.16183C78.1931 4.13423 78.2069 4.12043 78.2345 4.12043H78.4456C78.4732 4.12043 78.487 4.13423 78.487 4.16183V6.97715C78.487 7.00475 78.4732 7.01855 78.4456 7.01855H78.2345ZM80.6163 4.16183C80.6163 4.13423 80.6301 4.12043 80.6577 4.12043H80.8689C80.8965 4.12043 80.9103 4.13423 80.9103 4.16183V6.97715C80.9103 7.00475 80.8965 7.01855 80.8689 7.01855H80.6453C80.6205 7.01855 80.6039 7.00889 80.5956 6.98957L79.4861 4.77458C79.4805 4.76906 79.475 4.7663 79.4695 4.7663C79.4667 4.7663 79.4654 4.77044 79.4654 4.77872L79.4695 6.97715C79.4695 7.00475 79.4557 7.01855 79.4281 7.01855H79.217C79.1894 7.01855 79.1756 7.00475 79.1756 6.97715V4.16183C79.1756 4.13423 79.1894 4.12043 79.217 4.12043H79.4405C79.4654 4.12043 79.4819 4.13009 79.4902 4.14941L80.5998 6.37269C80.6053 6.37821 80.6094 6.38097 80.6122 6.38097C80.6177 6.38097 80.6205 6.37683 80.6205 6.36855L80.6163 4.16183ZM82.355 7.05168C82.1039 7.05168 81.901 6.97853 81.7464 6.83225C81.5946 6.68596 81.5187 6.49137 81.5187 6.24848V4.89051C81.5187 4.64761 81.5946 4.45303 81.7464 4.30674C81.901 4.16045 82.1039 4.08731 82.355 4.08731C82.5207 4.08731 82.6656 4.12043 82.7898 4.18668C82.9167 4.25292 83.0147 4.34538 83.0837 4.46407C83.1555 4.58275 83.1914 4.71938 83.1914 4.87394V4.98987C83.1914 5.01747 83.1776 5.03127 83.15 5.03127H82.9388C82.9112 5.03127 82.8974 5.01747 82.8974 4.98987V4.87394C82.8974 4.71662 82.8477 4.58965 82.7484 4.49305C82.649 4.39368 82.5179 4.344 82.355 4.344C82.1922 4.344 82.0611 4.39368 81.9617 4.49305C81.8624 4.58965 81.8127 4.71938 81.8127 4.88222V6.25676C81.8127 6.41685 81.8624 6.54657 81.9617 6.64594C82.0639 6.7453 82.1963 6.79499 82.3592 6.79499C82.522 6.79499 82.6518 6.74806 82.7484 6.65422C82.8477 6.56038 82.8974 6.43341 82.8974 6.27332V5.82204C82.8974 5.811 82.8919 5.80548 82.8808 5.80548H82.3964C82.3688 5.80548 82.355 5.79168 82.355 5.76408V5.59019C82.355 5.56259 82.3688 5.54879 82.3964 5.54879H83.15C83.1776 5.54879 83.1914 5.56259 83.1914 5.59019V6.23606C83.1914 6.48723 83.1155 6.68596 82.9637 6.83225C82.8118 6.97853 82.609 7.05168 82.355 7.05168ZM63.1111 10.6813C63.1469 10.811 63.1649 10.9601 63.1649 11.1284C63.1649 11.2692 63.1525 11.3906 63.1276 11.4928C63.0862 11.6722 63.0034 11.8102 62.8792 11.9068C62.7578 12.0034 62.6046 12.0517 62.4197 12.0517C62.232 12.0517 62.076 12.002 61.9518 11.9026C61.8276 11.8033 61.7462 11.6639 61.7075 11.4845C61.6937 11.4348 61.6855 11.3837 61.6827 11.3313V11.323C61.6827 11.3009 61.6951 11.2899 61.72 11.2899H61.9353C61.9601 11.2899 61.9739 11.3009 61.9767 11.323V11.3396L61.9932 11.4224C62.0181 11.5411 62.0664 11.6321 62.1381 11.6956C62.2126 11.7591 62.3065 11.7908 62.4197 11.7908C62.5301 11.7908 62.6211 11.7591 62.6929 11.6956C62.7674 11.6294 62.8171 11.5369 62.842 11.4182C62.8613 11.3409 62.8709 11.2457 62.8709 11.1326C62.8709 11.0277 62.8599 10.92 62.8378 10.8096C62.813 10.6992 62.7647 10.6164 62.6929 10.5612C62.6211 10.5033 62.5301 10.4743 62.4197 10.4743C62.3148 10.4743 62.2237 10.4991 62.1464 10.5488C62.0719 10.5957 62.0194 10.6647 61.9891 10.7558L61.9808 10.7724C61.978 10.7917 61.9642 10.8013 61.9394 10.8013H61.72C61.6924 10.8013 61.6786 10.7875 61.6786 10.7599V9.16183C61.6786 9.13423 61.6924 9.12043 61.72 9.12043H63.0324C63.06 9.12043 63.0738 9.13423 63.0738 9.16183V9.33572C63.0738 9.36332 63.06 9.37712 63.0324 9.37712H61.9891C61.978 9.37712 61.9725 9.38264 61.9725 9.39368V10.408C61.9725 10.4135 61.9739 10.4177 61.9767 10.4204C61.9822 10.4204 61.9877 10.4177 61.9932 10.4122C62.0484 10.3514 62.1174 10.3045 62.2002 10.2714C62.2858 10.2355 62.3769 10.2176 62.4735 10.2176C62.6363 10.2176 62.7716 10.2576 62.8792 10.3376C62.9896 10.4149 63.0669 10.5295 63.1111 10.6813ZM64.3818 12.06C64.1445 12.06 63.954 11.9882 63.8105 11.8447C63.667 11.7011 63.5952 11.5093 63.5952 11.2692V9.8698C63.5952 9.63243 63.667 9.44199 63.8105 9.29846C63.954 9.15493 64.1445 9.08317 64.3818 9.08317C64.622 9.08317 64.8138 9.15493 64.9573 9.29846C65.1036 9.44199 65.1768 9.63243 65.1768 9.8698V11.2692C65.1768 11.5093 65.1036 11.7011 64.9573 11.8447C64.8138 11.9882 64.622 12.06 64.3818 12.06ZM64.3818 11.8033C64.5336 11.8033 64.6551 11.7563 64.7462 11.6625C64.8373 11.5687 64.8828 11.4445 64.8828 11.2899V9.85324C64.8828 9.69868 64.8373 9.57447 64.7462 9.48063C64.6551 9.38678 64.5336 9.33986 64.3818 9.33986C64.2356 9.33986 64.1169 9.38678 64.0258 9.48063C63.9347 9.57447 63.8892 9.69868 63.8892 9.85324V11.2899C63.8892 11.4417 63.9347 11.5659 64.0258 11.6625C64.1169 11.7563 64.2356 11.8033 64.3818 11.8033ZM66.3605 10.259C66.2528 10.259 66.1534 10.2328 66.0624 10.1803C65.974 10.1279 65.9037 10.0575 65.8512 9.96917C65.7988 9.87808 65.7726 9.77872 65.7726 9.67108C65.7726 9.56343 65.7988 9.46545 65.8512 9.37712C65.9037 9.28604 65.974 9.21428 66.0624 9.16183C66.1534 9.10939 66.2528 9.08317 66.3605 9.08317C66.4653 9.08317 66.5619 9.10939 66.6503 9.16183C66.7414 9.21428 66.8131 9.28604 66.8656 9.37712C66.918 9.46545 66.9442 9.56343 66.9442 9.67108C66.9442 9.77872 66.918 9.87808 66.8656 9.96917C66.8131 10.0575 66.7414 10.1279 66.6503 10.1803C66.5619 10.2328 66.4653 10.259 66.3605 10.259ZM66.2652 12.0186C66.2514 12.0186 66.2404 12.0144 66.2321 12.0061C66.2266 11.9951 66.228 11.9827 66.2363 11.9689L67.7764 9.14941C67.7847 9.13009 67.8012 9.12043 67.8261 9.12043H67.9586C67.9724 9.12043 67.982 9.12595 67.9875 9.13699C67.9958 9.14527 67.9958 9.15631 67.9875 9.17011L66.4474 11.9896C66.4391 12.0089 66.4226 12.0186 66.3977 12.0186H66.2652ZM66.3605 10.0768C66.4709 10.0768 66.5633 10.0382 66.6378 9.96089C66.7151 9.88084 66.7538 9.78424 66.7538 9.67108C66.7538 9.55791 66.7151 9.46269 66.6378 9.3854C66.5633 9.30536 66.4709 9.26534 66.3605 9.26534C66.2501 9.26534 66.1562 9.30536 66.0789 9.3854C66.0016 9.46269 65.963 9.55791 65.963 9.67108C65.963 9.78424 66.0016 9.88084 66.0789 9.96089C66.1562 10.0382 66.2501 10.0768 66.3605 10.0768ZM67.8799 12.0558C67.7723 12.0558 67.6729 12.0296 67.5818 11.9772C67.4935 11.9247 67.4231 11.8529 67.3707 11.7619C67.3182 11.6708 67.292 11.5714 67.292 11.4638C67.292 11.3589 67.3182 11.2623 67.3707 11.174C67.4231 11.0829 67.4935 11.0111 67.5818 10.9587C67.6729 10.9062 67.7723 10.88 67.8799 10.88C67.9848 10.88 68.0814 10.9062 68.1697 10.9587C68.2608 11.0111 68.3326 11.0829 68.385 11.174C68.4374 11.2623 68.4637 11.3589 68.4637 11.4638C68.4637 11.5714 68.4374 11.6708 68.385 11.7619C68.3326 11.8529 68.2608 11.9247 68.1697 11.9772C68.0814 12.0296 67.9848 12.0558 67.8799 12.0558ZM67.8799 11.8736C67.9903 11.8736 68.0828 11.8336 68.1573 11.7536C68.2346 11.6735 68.2732 11.5769 68.2732 11.4638C68.2732 11.3506 68.2346 11.2554 68.1573 11.1781C68.0828 11.1008 67.9903 11.0622 67.8799 11.0622C67.7695 11.0622 67.6757 11.1008 67.5984 11.1781C67.5211 11.2554 67.4824 11.3506 67.4824 11.4638C67.4824 11.5797 67.5197 11.6777 67.5942 11.7577C67.6715 11.835 67.7667 11.8736 67.8799 11.8736Z" fill="#404040"/>
<path d="M25.881 33.5279L23.339 30.2646H12.8079" stroke="black" stroke-width="0.145684"/>
<path d="M32.8474 45.2209L30.3054 48.4841H19.7743" stroke="black" stroke-width="0.145684"/>
<path d="M31.2913 15.1312L28.7493 11.8679H18.2182" stroke="black" stroke-width="0.145684"/>
<path d="M5.66854 10.299C5.40909 10.299 5.20208 10.2314 5.04751 10.0961C4.8957 9.95812 4.8198 9.77457 4.8198 9.54548V9.43369C4.8198 9.40609 4.8336 9.39229 4.8612 9.39229H5.06407C5.09167 9.39229 5.10547 9.40609 5.10547 9.43369V9.52892C5.10547 9.68348 5.15792 9.80769 5.2628 9.90153C5.36768 9.99538 5.50707 10.0423 5.68096 10.0423C5.8438 10.0423 5.97215 9.99814 6.06599 9.90981C6.15984 9.82149 6.20676 9.70557 6.20676 9.56204C6.20676 9.4682 6.18468 9.38677 6.14052 9.31777C6.09636 9.24877 6.03149 9.18528 5.94593 9.12732C5.86037 9.06936 5.73754 8.99622 5.57745 8.90789C5.40633 8.81681 5.27108 8.73676 5.17172 8.66776C5.07511 8.59876 4.99645 8.51458 4.93573 8.41521C4.875 8.31585 4.84464 8.1944 4.84464 8.05088C4.84464 7.82731 4.91641 7.65204 5.05993 7.52507C5.20346 7.39811 5.39529 7.33463 5.63542 7.33463C5.89211 7.33463 6.09636 7.40501 6.24816 7.54577C6.39997 7.68654 6.47587 7.87285 6.47587 8.1047V8.19992C6.47587 8.22752 6.46207 8.24132 6.43447 8.24132H6.22746C6.19986 8.24132 6.18606 8.22752 6.18606 8.19992V8.10884C6.18606 7.95427 6.13638 7.83007 6.03701 7.73622C5.93765 7.63962 5.80102 7.59132 5.62714 7.59132C5.47257 7.59132 5.35112 7.63134 5.2628 7.71138C5.17724 7.79143 5.13446 7.90459 5.13446 8.05088C5.13446 8.14472 5.15516 8.22338 5.19656 8.28687C5.23796 8.35035 5.2973 8.40831 5.37459 8.46075C5.45463 8.5132 5.57607 8.58358 5.73892 8.6719C5.92661 8.77679 6.07013 8.86649 6.1695 8.94101C6.27162 9.01278 6.35167 9.09696 6.40963 9.19356C6.47035 9.28741 6.50071 9.40333 6.50071 9.54134C6.50071 9.77319 6.42619 9.95812 6.27714 10.0961C6.1281 10.2314 5.92523 10.299 5.66854 10.299ZM8.47318 7.36775C8.50078 7.36775 8.51458 7.38155 8.51458 7.40915V7.58304C8.51458 7.61064 8.50078 7.62444 8.47318 7.62444H7.79833C7.78729 7.62444 7.78177 7.62996 7.78177 7.641V10.2245C7.78177 10.2521 7.76797 10.2659 7.74037 10.2659H7.52922C7.50162 10.2659 7.48782 10.2521 7.48782 10.2245V7.641C7.48782 7.62996 7.4823 7.62444 7.47126 7.62444H6.82125C6.79365 7.62444 6.77985 7.61064 6.77985 7.58304V7.40915C6.77985 7.38155 6.79365 7.36775 6.82125 7.36775H8.47318ZM10.4402 10.2659C10.4181 10.2659 10.4029 10.2548 10.3946 10.2327L9.88123 8.95343C9.87847 8.94515 9.87295 8.94101 9.86467 8.94101H9.33059C9.31955 8.94101 9.31403 8.94653 9.31403 8.95757V10.2245C9.31403 10.2521 9.30022 10.2659 9.27262 10.2659H9.06147C9.03387 10.2659 9.02007 10.2521 9.02007 10.2245V7.40915C9.02007 7.38155 9.03387 7.36775 9.06147 7.36775H9.93919C10.0827 7.36775 10.2097 7.40087 10.3201 7.46711C10.4333 7.53335 10.5202 7.6272 10.5809 7.74864C10.6444 7.87009 10.6761 8.00947 10.6761 8.1668C10.6761 8.35449 10.6306 8.51458 10.5395 8.64706C10.4484 8.77955 10.3242 8.86787 10.1669 8.91203C10.1559 8.91755 10.1531 8.92445 10.1586 8.93273L10.6927 10.2162L10.6968 10.2327C10.6968 10.2548 10.6844 10.2659 10.6596 10.2659H10.4402ZM9.33059 7.62444C9.31955 7.62444 9.31403 7.62996 9.31403 7.641V8.68846C9.31403 8.6995 9.31955 8.70502 9.33059 8.70502H9.90193C10.0455 8.70502 10.1614 8.65534 10.2497 8.55598C10.338 8.45661 10.3822 8.32689 10.3822 8.1668C10.3822 8.00395 10.338 7.87285 10.2497 7.77348C10.1614 7.67412 10.0455 7.62444 9.90193 7.62444H9.33059ZM12.7161 10.2659C12.6912 10.2659 12.676 10.2534 12.6705 10.2286L12.5339 9.71109C12.5311 9.70281 12.5242 9.69867 12.5132 9.69867H11.5237C11.5126 9.69867 11.5057 9.70281 11.503 9.71109L11.3664 10.2286C11.3608 10.2534 11.3457 10.2659 11.3208 10.2659H11.1055C11.0917 10.2659 11.0807 10.2617 11.0724 10.2534C11.0669 10.2452 11.0655 10.2341 11.0683 10.2203L11.8425 7.40501C11.848 7.38017 11.8632 7.36775 11.888 7.36775H12.153C12.1778 7.36775 12.193 7.38017 12.1985 7.40501L12.9727 10.2203L12.9769 10.2327C12.9769 10.2548 12.9631 10.2659 12.9355 10.2659H12.7161ZM11.5734 9.44197C11.5706 9.44473 11.5706 9.44887 11.5734 9.4544C11.5789 9.45716 11.5844 9.45854 11.5899 9.45854H12.4469C12.4525 9.45854 12.4566 9.45716 12.4594 9.4544C12.4649 9.44887 12.4663 9.44473 12.4635 9.44197L12.0246 7.77762C12.0219 7.7721 12.0191 7.76934 12.0164 7.76934C12.0136 7.76934 12.0108 7.7721 12.0081 7.77762L11.5734 9.44197ZM13.6892 10.2659C13.6644 10.2659 13.6492 10.2534 13.6437 10.2286L12.9771 7.41329L12.973 7.39673C12.973 7.37741 12.9854 7.36775 13.0102 7.36775H13.2338C13.2586 7.36775 13.2738 7.38017 13.2793 7.40501L13.7844 9.62828C13.7872 9.63656 13.79 9.6407 13.7927 9.6407C13.7982 9.6407 13.8024 9.63656 13.8051 9.62828L14.2647 7.40501C14.2702 7.38017 14.2854 7.36775 14.3102 7.36775H14.5173C14.5449 7.36775 14.56 7.38017 14.5628 7.40501L15.0389 9.62828C15.0417 9.63656 15.0444 9.6407 15.0472 9.6407C15.05 9.6407 15.0527 9.63656 15.0555 9.62828L15.5482 7.40501C15.5537 7.38017 15.5689 7.36775 15.5937 7.36775H15.809C15.8366 7.36775 15.8476 7.38293 15.8421 7.41329L15.1962 10.2286C15.1907 10.2534 15.1755 10.2659 15.1507 10.2659H14.9396C14.9147 10.2659 14.8995 10.2534 14.894 10.2286L14.422 7.97221C14.4193 7.96393 14.4165 7.95979 14.4137 7.95979C14.411 7.95979 14.4082 7.96393 14.4055 7.97221L13.9376 10.2286C13.9349 10.2534 13.9197 10.2659 13.8921 10.2659H13.6892ZM17.536 8.75471C17.5222 8.76023 17.5222 8.76713 17.536 8.77541C17.6657 8.83889 17.7651 8.92997 17.8341 9.04866C17.9059 9.16734 17.9431 9.31087 17.9459 9.47924C17.9459 9.72765 17.8714 9.92085 17.7223 10.0589C17.576 10.1969 17.3815 10.2659 17.1386 10.2659H16.323C16.2953 10.2659 16.2815 10.2521 16.2815 10.2245V7.40915C16.2815 7.38155 16.2953 7.36775 16.323 7.36775H17.1054C17.3594 7.36775 17.5581 7.43399 17.7016 7.56648C17.8452 7.6962 17.9169 7.88251 17.9169 8.1254C17.9169 8.27997 17.8838 8.40969 17.8176 8.51458C17.7541 8.61946 17.6602 8.6995 17.536 8.75471ZM16.5921 7.62444C16.581 7.62444 16.5755 7.62996 16.5755 7.641V8.63878C16.5755 8.64982 16.581 8.65534 16.5921 8.65534H17.1096C17.2697 8.65534 17.3953 8.6098 17.4863 8.51872C17.5802 8.42763 17.6271 8.30481 17.6271 8.15024C17.6271 7.98739 17.5802 7.85905 17.4863 7.7652C17.3953 7.67136 17.2697 7.62444 17.1096 7.62444H16.5921ZM17.1303 10.005C17.2904 10.005 17.4173 9.95536 17.5112 9.85599C17.605 9.75663 17.6519 9.62138 17.6519 9.45025C17.6519 9.27637 17.6036 9.13974 17.507 9.04038C17.4132 8.94101 17.2849 8.89133 17.122 8.89133H16.5921C16.581 8.89133 16.5755 8.89685 16.5755 8.90789V9.98848C16.5755 9.99952 16.581 10.005 16.5921 10.005H17.1303ZM20.0871 7.58304C20.0871 7.61064 20.0733 7.62444 20.0457 7.62444H18.8037C18.7926 7.62444 18.7871 7.62996 18.7871 7.641V8.66776C18.7871 8.6788 18.7926 8.68432 18.8037 8.68432H19.64C19.6676 8.68432 19.6814 8.69812 19.6814 8.72572V8.89961C19.6814 8.92721 19.6676 8.94101 19.64 8.94101H18.8037C18.7926 8.94101 18.7871 8.94653 18.7871 8.95757V9.99262C18.7871 10.0037 18.7926 10.0092 18.8037 10.0092H20.0457C20.0733 10.0092 20.0871 10.023 20.0871 10.0506V10.2245C20.0871 10.2521 20.0733 10.2659 20.0457 10.2659H18.5345C18.5069 10.2659 18.4931 10.2521 18.4931 10.2245V7.40915C18.4931 7.38155 18.5069 7.36775 18.5345 7.36775H20.0457C20.0733 7.36775 20.0871 7.38155 20.0871 7.40915V7.58304ZM22.052 10.2659C22.03 10.2659 22.0148 10.2548 22.0065 10.2327L21.4931 8.95343C21.4904 8.94515 21.4848 8.94101 21.4766 8.94101H20.9425C20.9314 8.94101 20.9259 8.94653 20.9259 8.95757V10.2245C20.9259 10.2521 20.9121 10.2659 20.8845 10.2659H20.6734C20.6458 10.2659 20.632 10.2521 20.632 10.2245V7.40915C20.632 7.38155 20.6458 7.36775 20.6734 7.36775H21.5511C21.6946 7.36775 21.8216 7.40087 21.932 7.46711C22.0451 7.53335 22.1321 7.6272 22.1928 7.74864C22.2563 7.87009 22.288 8.00947 22.288 8.1668C22.288 8.35449 22.2425 8.51458 22.1514 8.64706C22.0603 8.77955 21.9361 8.86787 21.7788 8.91203C21.7678 8.91755 21.765 8.92445 21.7705 8.93273L22.3046 10.2162L22.3087 10.2327C22.3087 10.2548 22.2963 10.2659 22.2715 10.2659H22.052ZM20.9425 7.62444C20.9314 7.62444 20.9259 7.62996 20.9259 7.641V8.68846C20.9259 8.6995 20.9314 8.70502 20.9425 8.70502H21.5138C21.6573 8.70502 21.7733 8.65534 21.8616 8.55598C21.9499 8.45661 21.9941 8.32689 21.9941 8.1668C21.9941 8.00395 21.9499 7.87285 21.8616 7.77348C21.7733 7.67412 21.6573 7.62444 21.5138 7.62444H20.9425ZM24.2394 10.2659C24.2173 10.2659 24.2021 10.2548 24.1938 10.2327L23.6805 8.95343C23.6777 8.94515 23.6722 8.94101 23.6639 8.94101H23.1298C23.1188 8.94101 23.1133 8.94653 23.1133 8.95757V10.2245C23.1133 10.2521 23.0995 10.2659 23.0719 10.2659H22.8607C22.8331 10.2659 22.8193 10.2521 22.8193 10.2245V7.40915C22.8193 7.38155 22.8331 7.36775 22.8607 7.36775H23.7384C23.8819 7.36775 24.0089 7.40087 24.1193 7.46711C24.2325 7.53335 24.3194 7.6272 24.3801 7.74864C24.4436 7.87009 24.4754 8.00947 24.4754 8.1668C24.4754 8.35449 24.4298 8.51458 24.3387 8.64706C24.2477 8.77955 24.1235 8.86787 23.9661 8.91203C23.9551 8.91755 23.9523 8.92445 23.9579 8.93273L24.4919 10.2162L24.4961 10.2327C24.4961 10.2548 24.4837 10.2659 24.4588 10.2659H24.2394ZM23.1298 7.62444C23.1188 7.62444 23.1133 7.62996 23.1133 7.641V8.68846C23.1133 8.6995 23.1188 8.70502 23.1298 8.70502H23.7012C23.8447 8.70502 23.9606 8.65534 24.0489 8.55598C24.1373 8.45661 24.1814 8.32689 24.1814 8.1668C24.1814 8.00395 24.1373 7.87285 24.0489 7.77348C23.9606 7.67412 23.8447 7.62444 23.7012 7.62444H23.1298ZM25.5336 10.2617C25.506 10.2617 25.4922 10.2479 25.4922 10.2203V8.98656C25.4922 8.97551 25.4908 8.96861 25.4881 8.96585L24.7718 7.41743L24.7677 7.40087C24.7677 7.37879 24.7801 7.36775 24.8049 7.36775H25.0285C25.0506 7.36775 25.0658 7.37879 25.074 7.40087L25.6288 8.63878C25.6316 8.6443 25.6357 8.64706 25.6413 8.64706C25.6468 8.64706 25.6509 8.6443 25.6537 8.63878L26.2085 7.40087C26.2167 7.37879 26.2319 7.36775 26.254 7.36775H26.4776C26.4914 7.36775 26.501 7.37327 26.5066 7.38431C26.5148 7.39259 26.5162 7.40363 26.5107 7.41743L25.7903 8.96585C25.7875 8.96861 25.7862 8.97551 25.7862 8.98656V10.2203C25.7862 10.2479 25.7724 10.2617 25.7448 10.2617H25.5336ZM5.01025 15.2659C4.98265 15.2659 4.96885 15.2521 4.96885 15.2245V12.4091C4.96885 12.3815 4.98265 12.3677 5.01025 12.3677H5.2214C5.249 12.3677 5.2628 12.3815 5.2628 12.4091V14.9926C5.2628 15.0037 5.26832 15.0092 5.27936 15.0092H6.48415C6.51175 15.0092 6.52555 15.023 6.52555 15.0506V15.2245C6.52555 15.2521 6.51175 15.2659 6.48415 15.2659H5.01025ZM8.56013 12.583C8.56013 12.6106 8.54633 12.6244 8.51872 12.6244H7.27667C7.26563 12.6244 7.26011 12.63 7.26011 12.641V13.6678C7.26011 13.6788 7.26563 13.6843 7.27667 13.6843H8.11299C8.14059 13.6843 8.15439 13.6981 8.15439 13.7257V13.8996C8.15439 13.9272 8.14059 13.941 8.11299 13.941H7.27667C7.26563 13.941 7.26011 13.9465 7.26011 13.9576V14.9926C7.26011 15.0037 7.26563 15.0092 7.27667 15.0092H8.51872C8.54633 15.0092 8.56013 15.023 8.56013 15.0506V15.2245C8.56013 15.2521 8.54633 15.2659 8.51872 15.2659H7.00756C6.97996 15.2659 6.96616 15.2521 6.96616 15.2245V12.4091C6.96616 12.3815 6.97996 12.3677 7.00756 12.3677H8.51872C8.54633 12.3677 8.56013 12.3815 8.56013 12.4091V12.583ZM9.86263 15.299C9.61146 15.299 9.40859 15.2245 9.25403 15.0754C9.10222 14.9264 9.02632 14.729 9.02632 14.4834V13.1461C9.02632 12.9004 9.10222 12.7045 9.25403 12.5582C9.40859 12.4091 9.61146 12.3346 9.86263 12.3346C10.1166 12.3346 10.3194 12.4078 10.4712 12.5541C10.6258 12.7003 10.7031 12.8949 10.7031 13.1378V13.1751C10.7031 13.2027 10.6893 13.2165 10.6617 13.2165L10.4505 13.2248C10.4229 13.2248 10.4091 13.2123 10.4091 13.1875V13.1295C10.4091 12.9695 10.3581 12.8397 10.2559 12.7404C10.1566 12.641 10.0255 12.5913 9.86263 12.5913C9.69978 12.5913 9.56868 12.641 9.46931 12.7404C9.36995 12.837 9.32027 12.9667 9.32027 13.1295V14.5041C9.32027 14.6669 9.36995 14.798 9.46931 14.8974C9.56868 14.994 9.69978 15.0423 9.86263 15.0423C10.0255 15.0423 10.1566 14.9926 10.2559 14.8933C10.3581 14.7939 10.4091 14.6642 10.4091 14.5041V14.4461C10.4091 14.4213 10.4229 14.4089 10.4505 14.4089L10.6617 14.4213C10.6893 14.4213 10.7031 14.4351 10.7031 14.4627V14.4917C10.7031 14.7345 10.6258 14.9305 10.4712 15.0796C10.3194 15.2258 10.1166 15.299 9.86263 15.299ZM12.6381 12.4091C12.6381 12.3815 12.6519 12.3677 12.6795 12.3677H12.8906C12.9182 12.3677 12.932 12.3815 12.932 12.4091V15.2245C12.932 15.2521 12.9182 15.2659 12.8906 15.2659H12.6795C12.6519 15.2659 12.6381 15.2521 12.6381 15.2245V13.9576C12.6381 13.9465 12.6325 13.941 12.6215 13.941H11.5947C11.5837 13.941 11.5782 13.9465 11.5782 13.9576V15.2245C11.5782 15.2521 11.5644 15.2659 11.5368 15.2659H11.3256C11.298 15.2659 11.2842 15.2521 11.2842 15.2245V12.4091C11.2842 12.3815 11.298 12.3677 11.3256 12.3677H11.5368C11.5644 12.3677 11.5782 12.3815 11.5782 12.4091V13.6678C11.5782 13.6788 11.5837 13.6843 11.5947 13.6843H12.6215C12.6325 13.6843 12.6381 13.6788 12.6381 13.6678V12.4091ZM15.1949 12.583C15.1949 12.6106 15.1811 12.6244 15.1535 12.6244H13.9115C13.9004 12.6244 13.8949 12.63 13.8949 12.641V13.6678C13.8949 13.6788 13.9004 13.6843 13.9115 13.6843H14.7478C14.7754 13.6843 14.7892 13.6981 14.7892 13.7257V13.8996C14.7892 13.9272 14.7754 13.941 14.7478 13.941H13.9115C13.9004 13.941 13.8949 13.9465 13.8949 13.9576V14.9926C13.8949 15.0037 13.9004 15.0092 13.9115 15.0092H15.1535C15.1811 15.0092 15.1949 15.023 15.1949 15.0506V15.2245C15.1949 15.2521 15.1811 15.2659 15.1535 15.2659H13.6424C13.6147 15.2659 13.6009 15.2521 13.6009 15.2245V12.4091C13.6009 12.3815 13.6147 12.3677 13.6424 12.3677H15.1535C15.1811 12.3677 15.1949 12.3815 15.1949 12.4091V12.583ZM17.3337 12.583C17.3337 12.6106 17.3199 12.6244 17.2923 12.6244H16.0503C16.0392 12.6244 16.0337 12.63 16.0337 12.641V13.6678C16.0337 13.6788 16.0392 13.6843 16.0503 13.6843H16.8866C16.9142 13.6843 16.928 13.6981 16.928 13.7257V13.8996C16.928 13.9272 16.9142 13.941 16.8866 13.941H16.0503C16.0392 13.941 16.0337 13.9465 16.0337 13.9576V14.9926C16.0337 15.0037 16.0392 15.0092 16.0503 15.0092H17.2923C17.3199 15.0092 17.3337 15.023 17.3337 15.0506V15.2245C17.3337 15.2521 17.3199 15.2659 17.2923 15.2659H15.7812C15.7536 15.2659 15.7398 15.2521 15.7398 15.2245V12.4091C15.7398 12.3815 15.7536 12.3677 15.7812 12.3677H17.2923C17.3199 12.3677 17.3337 12.3815 17.3337 12.4091V12.583ZM18.9393 14.9885C18.931 15.0023 18.9338 15.0092 18.9476 15.0092H20.0861C20.1137 15.0092 20.1275 15.023 20.1275 15.0506V15.2245C20.1275 15.2521 20.1137 15.2659 20.0861 15.2659H18.6122C18.5846 15.2659 18.5708 15.2521 18.5708 15.2245V15.0423C18.5708 15.0257 18.5763 15.0078 18.5874 14.9885C18.8358 14.6517 19.1132 14.2653 19.4195 13.8292C19.6376 13.5118 19.7466 13.2579 19.7466 13.0674C19.7466 12.9239 19.7052 12.8094 19.6224 12.7238C19.5396 12.6355 19.4306 12.5913 19.2953 12.5913C19.1629 12.5913 19.0566 12.6355 18.9765 12.7238C18.8965 12.8094 18.8579 12.9239 18.8606 13.0674V13.2082C18.8606 13.2358 18.8468 13.2496 18.8192 13.2496H18.6039C18.5763 13.2496 18.5625 13.2358 18.5625 13.2082V13.0426C18.568 12.8301 18.6384 12.6589 18.7737 12.5292C18.9117 12.3995 19.0883 12.3346 19.3036 12.3346C19.5244 12.3346 19.7025 12.4022 19.8377 12.5375C19.9729 12.6727 20.0406 12.8494 20.0406 13.0674C20.0406 13.3103 19.9274 13.5974 19.7011 13.9286C19.5603 14.1328 19.3381 14.442 19.0345 14.856L18.9393 14.9885ZM21.3437 15.3073C21.1063 15.3073 20.9159 15.2355 20.7723 15.092C20.6288 14.9485 20.5571 14.7566 20.5571 14.5165V13.1171C20.5571 12.8797 20.6288 12.6893 20.7723 12.5458C20.9159 12.4022 21.1063 12.3305 21.3437 12.3305C21.5838 12.3305 21.7756 12.4022 21.9192 12.5458C22.0655 12.6893 22.1386 12.8797 22.1386 13.1171V14.5165C22.1386 14.7566 22.0655 14.9485 21.9192 15.092C21.7756 15.2355 21.5838 15.3073 21.3437 15.3073ZM21.3437 15.0506C21.4955 15.0506 21.6169 15.0037 21.708 14.9098C21.7991 14.816 21.8447 14.6918 21.8447 14.5372V13.1006C21.8447 12.946 21.7991 12.8218 21.708 12.7279C21.6169 12.6341 21.4955 12.5872 21.3437 12.5872C21.1974 12.5872 21.0787 12.6341 20.9876 12.7279C20.8966 12.8218 20.851 12.946 20.851 13.1006V14.5372C20.851 14.689 20.8966 14.8132 20.9876 14.9098C21.0787 15.0037 21.1974 15.0506 21.3437 15.0506ZM23.3223 13.5063C23.2147 13.5063 23.1153 13.4801 23.0242 13.4276C22.9359 13.3752 22.8655 13.3048 22.8131 13.2165C22.7606 13.1254 22.7344 13.026 22.7344 12.9184C22.7344 12.8107 22.7606 12.7128 22.8131 12.6244C22.8655 12.5334 22.9359 12.4616 23.0242 12.4091C23.1153 12.3567 23.2147 12.3305 23.3223 12.3305C23.4272 12.3305 23.5238 12.3567 23.6121 12.4091C23.7032 12.4616 23.775 12.5334 23.8274 12.6244C23.8798 12.7128 23.9061 12.8107 23.9061 12.9184C23.9061 13.026 23.8798 13.1254 23.8274 13.2165C23.775 13.3048 23.7032 13.3752 23.6121 13.4276C23.5238 13.4801 23.4272 13.5063 23.3223 13.5063ZM23.2271 15.2659C23.2133 15.2659 23.2022 15.2617 23.194 15.2534C23.1884 15.2424 23.1898 15.23 23.1981 15.2162L24.7382 12.3967C24.7465 12.3774 24.7631 12.3677 24.7879 12.3677H24.9204C24.9342 12.3677 24.9439 12.3733 24.9494 12.3843C24.9577 12.3926 24.9577 12.4036 24.9494 12.4174L23.4092 15.2369C23.401 15.2562 23.3844 15.2659 23.3596 15.2659H23.2271ZM23.3223 13.3241C23.4327 13.3241 23.5252 13.2855 23.5997 13.2082C23.677 13.1282 23.7156 13.0316 23.7156 12.9184C23.7156 12.8052 23.677 12.71 23.5997 12.6327C23.5252 12.5527 23.4327 12.5127 23.3223 12.5127C23.2119 12.5127 23.1181 12.5527 23.0408 12.6327C22.9635 12.71 22.9248 12.8052 22.9248 12.9184C22.9248 13.0316 22.9635 13.1282 23.0408 13.2082C23.1181 13.2855 23.2119 13.3241 23.3223 13.3241ZM24.8417 15.3031C24.7341 15.3031 24.6347 15.2769 24.5437 15.2245C24.4553 15.172 24.3849 15.1003 24.3325 15.0092C24.2801 14.9181 24.2538 14.8187 24.2538 14.7111C24.2538 14.6062 24.2801 14.5096 24.3325 14.4213C24.3849 14.3302 24.4553 14.2584 24.5437 14.206C24.6347 14.1535 24.7341 14.1273 24.8417 14.1273C24.9466 14.1273 25.0432 14.1535 25.1316 14.206C25.2226 14.2584 25.2944 14.3302 25.3468 14.4213C25.3993 14.5096 25.4255 14.6062 25.4255 14.7111C25.4255 14.8187 25.3993 14.9181 25.3468 15.0092C25.2944 15.1003 25.2226 15.172 25.1316 15.2245C25.0432 15.2769 24.9466 15.3031 24.8417 15.3031ZM24.8417 15.121C24.9522 15.121 25.0446 15.0809 25.1191 15.0009C25.1964 14.9209 25.2351 14.8243 25.2351 14.7111C25.2351 14.5979 25.1964 14.5027 25.1191 14.4254C25.0446 14.3481 24.9522 14.3095 24.8417 14.3095C24.7313 14.3095 24.6375 14.3481 24.5602 14.4254C24.4829 14.5027 24.4443 14.5979 24.4443 14.7111C24.4443 14.827 24.4816 14.925 24.5561 15.005C24.6334 15.0823 24.7286 15.121 24.8417 15.121Z" fill="#404040"/>
<path d="M1.55138 26.2996C1.77219 26.2996 1.95022 26.3742 2.08546 26.5232C2.22347 26.6695 2.29247 26.8641 2.29247 27.107C2.29247 27.3471 2.22347 27.5403 2.08546 27.6866C1.95022 27.8301 1.77219 27.9019 1.55138 27.9019H0.934492C0.923452 27.9019 0.917932 27.9074 0.917932 27.9185V29.1605C0.917932 29.1881 0.904131 29.2019 0.87653 29.2019H0.665381C0.63778 29.2019 0.623979 29.1881 0.623979 29.1605V26.341C0.623979 26.3134 0.63778 26.2996 0.665381 26.2996H1.55138ZM1.51412 27.6576C1.6604 27.6576 1.77771 27.6079 1.86603 27.5086C1.95436 27.4092 1.99852 27.2767 1.99852 27.1111C1.99852 26.9427 1.95436 26.8089 1.86603 26.7095C1.77771 26.6074 1.6604 26.5563 1.51412 26.5563H0.934492C0.923452 26.5563 0.917932 26.5619 0.917932 26.5729V27.6411C0.917932 27.6521 0.923452 27.6576 0.934492 27.6576H1.51412ZM2.82076 29.2019C2.79316 29.2019 2.77936 29.1881 2.77936 29.1605V26.3452C2.77936 26.3176 2.79316 26.3038 2.82076 26.3038H3.03191C3.05951 26.3038 3.07331 26.3176 3.07331 26.3452V29.1605C3.07331 29.1881 3.05951 29.2019 3.03191 29.2019H2.82076ZM5.20262 26.3452C5.20262 26.3176 5.21642 26.3038 5.24403 26.3038H5.45517C5.48278 26.3038 5.49658 26.3176 5.49658 26.3452V29.1605C5.49658 29.1881 5.48278 29.2019 5.45517 29.2019H5.2316C5.20676 29.2019 5.1902 29.1922 5.18192 29.1729L4.07236 26.9579C4.06684 26.9524 4.06132 26.9496 4.0558 26.9496C4.05304 26.9496 4.05166 26.9538 4.05166 26.9621L4.0558 29.1605C4.0558 29.1881 4.04199 29.2019 4.01439 29.2019H3.80324C3.77564 29.2019 3.76184 29.1881 3.76184 29.1605V26.3452C3.76184 26.3176 3.77564 26.3038 3.80324 26.3038H4.02681C4.05166 26.3038 4.06822 26.3134 4.0765 26.3328L5.18606 28.556C5.19158 28.5616 5.19572 28.5643 5.19848 28.5643C5.204 28.5643 5.20676 28.5602 5.20676 28.5519L5.20262 26.3452ZM6.22508 29.2019C6.19748 29.2019 6.18368 29.1881 6.18368 29.1605V26.3452C6.18368 26.3176 6.19748 26.3038 6.22508 26.3038H6.43623C6.46384 26.3038 6.47764 26.3176 6.47764 26.3452V27.7197C6.47764 27.7252 6.4804 27.7294 6.48592 27.7321C6.49144 27.7321 6.49558 27.7294 6.49834 27.7239L7.54994 26.3286C7.56098 26.3121 7.57892 26.3038 7.60376 26.3038H7.83561C7.85217 26.3038 7.86321 26.3093 7.86873 26.3203C7.87425 26.3286 7.87149 26.3397 7.86045 26.3535L7.03242 27.4879C7.02966 27.4962 7.02966 27.5044 7.03242 27.5127L7.93498 29.1522C7.9405 29.1633 7.94326 29.1715 7.94326 29.1771C7.94326 29.1936 7.93084 29.2019 7.906 29.2019H7.66587C7.64102 29.2019 7.62446 29.1922 7.61618 29.1729L6.82955 27.7446C6.82403 27.7308 6.81713 27.7308 6.80885 27.7446L6.48592 28.1544C6.4804 28.16 6.47764 28.1669 6.47764 28.1751V29.1605C6.47764 29.1881 6.46384 29.2019 6.43623 29.2019H6.22508ZM9.95228 26.3328C9.96608 26.3134 9.98264 26.3038 10.002 26.3038H10.2172C10.2448 26.3038 10.2586 26.3176 10.2586 26.3452V29.1605C10.2586 29.1881 10.2448 29.2019 10.2172 29.2019H10.0061C9.9785 29.2019 9.9647 29.1881 9.9647 29.1605V26.9082C9.9647 26.9 9.96194 26.8944 9.95642 26.8917C9.9509 26.8889 9.94676 26.8917 9.944 26.9L9.39335 27.8563C9.37955 27.8757 9.36299 27.8853 9.34367 27.8853H9.29813C9.27881 27.8853 9.26225 27.8757 9.24845 27.8563L8.69366 26.9041C8.6909 26.8958 8.68676 26.8931 8.68124 26.8958C8.67572 26.8986 8.67296 26.9041 8.67296 26.9124V29.1605C8.67296 29.1881 8.65916 29.2019 8.63156 29.2019H8.42041C8.39281 29.2019 8.37901 29.1881 8.37901 29.1605V26.3452C8.37901 26.3176 8.39281 26.3038 8.42041 26.3038H8.6357C8.65502 26.3038 8.67158 26.3134 8.68538 26.3328L9.31055 27.3968C9.31331 27.3995 9.31745 27.4009 9.32297 27.4009C9.32849 27.4009 9.33263 27.3995 9.33539 27.3968L9.95228 26.3328ZM12.346 29.2019C12.3211 29.2019 12.306 29.1895 12.3004 29.1646L12.1638 28.6471C12.161 28.6388 12.1541 28.6347 12.1431 28.6347H11.1536C11.1426 28.6347 11.1357 28.6388 11.1329 28.6471L10.9963 29.1646C10.9908 29.1895 10.9756 29.2019 10.9507 29.2019H10.7354C10.7216 29.2019 10.7106 29.1978 10.7023 29.1895C10.6968 29.1812 10.6954 29.1702 10.6982 29.1564L11.4724 26.341C11.4779 26.3162 11.4931 26.3038 11.5179 26.3038H11.7829C11.8078 26.3038 11.8229 26.3162 11.8285 26.341L12.6027 29.1564L12.6068 29.1688C12.6068 29.1909 12.593 29.2019 12.5654 29.2019H12.346ZM11.2033 28.378C11.2005 28.3808 11.2005 28.3849 11.2033 28.3904C11.2088 28.3932 11.2143 28.3946 11.2198 28.3946H12.0769C12.0824 28.3946 12.0865 28.3932 12.0893 28.3904C12.0948 28.3849 12.0962 28.3808 12.0934 28.378L11.6546 26.7137C11.6518 26.7081 11.649 26.7054 11.6463 26.7054C11.6435 26.7054 11.6408 26.7081 11.638 26.7137L11.2033 28.378ZM14.4857 26.3452C14.4857 26.3176 14.4995 26.3038 14.5271 26.3038H14.7382C14.7658 26.3038 14.7796 26.3176 14.7796 26.3452V29.1605C14.7796 29.1881 14.7658 29.2019 14.7382 29.2019H14.5147C14.4898 29.2019 14.4732 29.1922 14.465 29.1729L13.3554 26.9579C13.3499 26.9524 13.3444 26.9496 13.3388 26.9496C13.3361 26.9496 13.3347 26.9538 13.3347 26.9621L13.3388 29.1605C13.3388 29.1881 13.325 29.2019 13.2974 29.2019H13.0863C13.0587 29.2019 13.0449 29.1881 13.0449 29.1605V26.3452C13.0449 26.3176 13.0587 26.3038 13.0863 26.3038H13.3099C13.3347 26.3038 13.3513 26.3134 13.3595 26.3328L14.4691 28.556C14.4746 28.5616 14.4788 28.5643 14.4815 28.5643C14.487 28.5643 14.4898 28.5602 14.4898 28.5519L14.4857 26.3452ZM16.573 26.3162C16.5895 26.3079 16.6075 26.3038 16.6268 26.3038H16.8504C16.878 26.3038 16.8918 26.3176 16.8918 26.3452V29.1605C16.8918 29.1881 16.878 29.2019 16.8504 29.2019H16.6392C16.6116 29.2019 16.5978 29.1881 16.5978 29.1605V26.6433C16.5978 26.6378 16.595 26.6336 16.5895 26.6309C16.5868 26.6281 16.5826 26.6281 16.5771 26.6309L16.1631 26.784C16.1576 26.7868 16.1507 26.7882 16.1424 26.7882C16.1286 26.7882 16.1189 26.7771 16.1134 26.7551L16.0927 26.6019V26.5936C16.0927 26.5798 16.1024 26.566 16.1217 26.5522L16.573 26.3162ZM18.2445 29.2433C18.0071 29.2433 17.8167 29.1715 17.6732 29.028C17.5296 28.8845 17.4579 28.6927 17.4579 28.4525V27.0532C17.4579 26.8158 17.5296 26.6253 17.6732 26.4818C17.8167 26.3383 18.0071 26.2665 18.2445 26.2665C18.4846 26.2665 18.6765 26.3383 18.82 26.4818C18.9663 26.6253 19.0394 26.8158 19.0394 27.0532V28.4525C19.0394 28.6927 18.9663 28.8845 18.82 29.028C18.6765 29.1715 18.4846 29.2433 18.2445 29.2433ZM18.2445 28.9866C18.3963 28.9866 18.5177 28.9397 18.6088 28.8458C18.6999 28.752 18.7455 28.6278 18.7455 28.4732V27.0366C18.7455 26.882 18.6999 26.7578 18.6088 26.664C18.5177 26.5701 18.3963 26.5232 18.2445 26.5232C18.0982 26.5232 17.9795 26.5701 17.8884 26.664C17.7974 26.7578 17.7518 26.882 17.7518 27.0366V28.4732C17.7518 28.625 17.7974 28.7492 17.8884 28.8458C17.9795 28.9397 18.0982 28.9866 18.2445 28.9866ZM20.2231 27.4423C20.1155 27.4423 20.0161 27.4161 19.925 27.3637C19.8367 27.3112 19.7663 27.2408 19.7139 27.1525C19.6614 27.0614 19.6352 26.9621 19.6352 26.8544C19.6352 26.7468 19.6614 26.6488 19.7139 26.5605C19.7663 26.4694 19.8367 26.3976 19.925 26.3452C20.0161 26.2927 20.1155 26.2665 20.2231 26.2665C20.328 26.2665 20.4246 26.2927 20.5129 26.3452C20.604 26.3976 20.6758 26.4694 20.7282 26.5605C20.7807 26.6488 20.8069 26.7468 20.8069 26.8544C20.8069 26.9621 20.7807 27.0614 20.7282 27.1525C20.6758 27.2408 20.604 27.3112 20.5129 27.3637C20.4246 27.4161 20.328 27.4423 20.2231 27.4423ZM20.1279 29.2019C20.1141 29.2019 20.103 29.1978 20.0948 29.1895C20.0892 29.1784 20.0906 29.166 20.0989 29.1522L21.639 26.3328C21.6473 26.3134 21.6639 26.3038 21.6887 26.3038H21.8212C21.835 26.3038 21.8447 26.3093 21.8502 26.3203C21.8585 26.3286 21.8585 26.3397 21.8502 26.3535L20.3101 29.1729C20.3018 29.1922 20.2852 29.2019 20.2604 29.2019H20.1279ZM20.2231 27.2602C20.3335 27.2602 20.426 27.2215 20.5005 27.1442C20.5778 27.0642 20.6164 26.9676 20.6164 26.8544C20.6164 26.7413 20.5778 26.646 20.5005 26.5688C20.426 26.4887 20.3335 26.4487 20.2231 26.4487C20.1127 26.4487 20.0189 26.4887 19.9416 26.5688C19.8643 26.646 19.8257 26.7413 19.8257 26.8544C19.8257 26.9676 19.8643 27.0642 19.9416 27.1442C20.0189 27.2215 20.1127 27.2602 20.2231 27.2602ZM21.7426 29.2392C21.6349 29.2392 21.5355 29.2129 21.4445 29.1605C21.3561 29.1081 21.2858 29.0363 21.2333 28.9452C21.1809 28.8541 21.1546 28.7548 21.1546 28.6471C21.1546 28.5422 21.1809 28.4456 21.2333 28.3573C21.2858 28.2662 21.3561 28.1945 21.4445 28.142C21.5355 28.0896 21.6349 28.0634 21.7426 28.0634C21.8474 28.0634 21.944 28.0896 22.0324 28.142C22.1234 28.1945 22.1952 28.2662 22.2477 28.3573C22.3001 28.4456 22.3263 28.5422 22.3263 28.6471C22.3263 28.7548 22.3001 28.8541 22.2477 28.9452C22.1952 29.0363 22.1234 29.1081 22.0324 29.1605C21.944 29.2129 21.8474 29.2392 21.7426 29.2392ZM21.7426 29.057C21.853 29.057 21.9454 29.017 22.0199 28.9369C22.0972 28.8569 22.1359 28.7603 22.1359 28.6471C22.1359 28.534 22.0972 28.4387 22.0199 28.3614C21.9454 28.2842 21.853 28.2455 21.7426 28.2455C21.6321 28.2455 21.5383 28.2842 21.461 28.3614C21.3837 28.4387 21.3451 28.534 21.3451 28.6471C21.3451 28.763 21.3824 28.861 21.4569 28.9411C21.5342 29.0184 21.6294 29.057 21.7426 29.057Z" fill="#404040"/>
<path d="M8.01207 47.0569C7.98999 47.0569 7.9748 47.0458 7.96652 47.0238L7.45314 45.7444C7.45038 45.7362 7.44486 45.732 7.43658 45.732H6.9025C6.89146 45.732 6.88594 45.7375 6.88594 45.7486V47.0155C6.88594 47.0431 6.87214 47.0569 6.84454 47.0569H6.63339C6.60579 47.0569 6.59199 47.0431 6.59199 47.0155V44.2002C6.59199 44.1726 6.60579 44.1588 6.63339 44.1588H7.51111C7.65463 44.1588 7.7816 44.1919 7.892 44.2581C8.00517 44.3244 8.09211 44.4182 8.15283 44.5397C8.21631 44.6611 8.24806 44.8005 8.24806 44.9578C8.24806 45.1455 8.20251 45.3056 8.11143 45.4381C8.02035 45.5706 7.89614 45.6589 7.73881 45.703C7.72777 45.7086 7.72501 45.7155 7.73053 45.7237L8.26462 47.0072L8.26876 47.0238C8.26876 47.0458 8.25634 47.0569 8.2315 47.0569H8.01207ZM6.9025 44.4155C6.89146 44.4155 6.88594 44.421 6.88594 44.432V45.4795C6.88594 45.4905 6.89146 45.496 6.9025 45.496H7.47384C7.61737 45.496 7.73329 45.4464 7.82162 45.347C7.90994 45.2476 7.9541 45.1179 7.9541 44.9578C7.9541 44.795 7.90994 44.6639 7.82162 44.5645C7.73329 44.4651 7.61737 44.4155 7.47384 44.4155H6.9025ZM10.288 47.0569C10.2631 47.0569 10.2479 47.0445 10.2424 47.0196L10.1058 46.5021C10.103 46.4938 10.0961 46.4897 10.0851 46.4897H9.09559C9.08455 46.4897 9.07765 46.4938 9.07489 46.5021L8.93827 47.0196C8.93275 47.0445 8.91757 47.0569 8.89273 47.0569H8.67744C8.66364 47.0569 8.6526 47.0527 8.64432 47.0445C8.6388 47.0362 8.63742 47.0251 8.64018 47.0113L9.41439 44.196C9.41991 44.1712 9.43509 44.1588 9.45993 44.1588H9.7249C9.74974 44.1588 9.76492 44.1712 9.77044 44.196L10.5447 47.0113L10.5488 47.0238C10.5488 47.0458 10.535 47.0569 10.5074 47.0569H10.288ZM9.14528 46.233C9.14252 46.2358 9.14252 46.2399 9.14528 46.2454C9.1508 46.2482 9.15632 46.2496 9.16184 46.2496H10.0189C10.0244 46.2496 10.0285 46.2482 10.0313 46.2454C10.0368 46.2399 10.0382 46.2358 10.0354 46.233L9.59656 44.5686C9.5938 44.5631 9.59104 44.5604 9.58828 44.5604C9.58552 44.5604 9.58276 44.5631 9.58 44.5686L9.14528 46.233ZM11.5693 47.09C11.3099 47.09 11.1029 47.0224 10.9483 46.8871C10.7965 46.7491 10.7206 46.5656 10.7206 46.3365V46.2247C10.7206 46.1971 10.7344 46.1833 10.762 46.1833H10.9649C10.9925 46.1833 11.0063 46.1971 11.0063 46.2247V46.3199C11.0063 46.4745 11.0587 46.5987 11.1636 46.6925C11.2685 46.7864 11.4078 46.8333 11.5817 46.8333C11.7446 46.8333 11.8729 46.7892 11.9668 46.7008C12.0606 46.6125 12.1075 46.4966 12.1075 46.3531C12.1075 46.2592 12.0855 46.1778 12.0413 46.1088C11.9971 46.0398 11.9323 45.9763 11.8467 45.9183C11.7611 45.8604 11.6383 45.7872 11.4782 45.6989C11.3071 45.6078 11.1719 45.5278 11.0725 45.4588C10.9759 45.3898 10.8972 45.3056 10.8365 45.2062C10.7758 45.1069 10.7454 44.9854 10.7454 44.8419C10.7454 44.6183 10.8172 44.4431 10.9607 44.3161C11.1042 44.1891 11.2961 44.1256 11.5362 44.1256C11.7929 44.1256 11.9971 44.196 12.1489 44.3368C12.3007 44.4776 12.3767 44.6639 12.3767 44.8957V44.9909C12.3767 45.0185 12.3628 45.0323 12.3352 45.0323H12.1282C12.1006 45.0323 12.0868 45.0185 12.0868 44.9909V44.8999C12.0868 44.7453 12.0372 44.6211 11.9378 44.5272C11.8384 44.4306 11.7018 44.3823 11.5279 44.3823C11.3733 44.3823 11.2519 44.4224 11.1636 44.5024C11.078 44.5824 11.0352 44.6956 11.0352 44.8419C11.0352 44.9357 11.0559 45.0144 11.0973 45.0779C11.1387 45.1414 11.1981 45.1993 11.2754 45.2518C11.3554 45.3042 11.4769 45.3746 11.6397 45.4629C11.8274 45.5678 11.9709 45.6575 12.0703 45.732C12.1724 45.8038 12.2524 45.888 12.3104 45.9846C12.3711 46.0784 12.4015 46.1943 12.4015 46.3324C12.4015 46.5642 12.327 46.7491 12.1779 46.8871C12.0289 47.0224 11.826 47.09 11.5693 47.09ZM13.8344 44.1546C14.0552 44.1546 14.2332 44.2291 14.3685 44.3782C14.5065 44.5245 14.5755 44.7191 14.5755 44.962C14.5755 45.2021 14.5065 45.3953 14.3685 45.5416C14.2332 45.6851 14.0552 45.7569 13.8344 45.7569H13.2175C13.2065 45.7569 13.2009 45.7624 13.2009 45.7734V47.0155C13.2009 47.0431 13.1871 47.0569 13.1595 47.0569H12.9484C12.9208 47.0569 12.907 47.0431 12.907 47.0155V44.196C12.907 44.1684 12.9208 44.1546 12.9484 44.1546H13.8344ZM13.7971 45.5126C13.9434 45.5126 14.0607 45.4629 14.149 45.3636C14.2374 45.2642 14.2815 45.1317 14.2815 44.9661C14.2815 44.7977 14.2374 44.6639 14.149 44.5645C14.0607 44.4624 13.9434 44.4113 13.7971 44.4113H13.2175C13.2065 44.4113 13.2009 44.4168 13.2009 44.4279V45.496C13.2009 45.5071 13.2065 45.5126 13.2175 45.5126H13.7971ZM16.3168 45.5457C16.303 45.5512 16.303 45.5581 16.3168 45.5664C16.4466 45.6299 16.5459 45.721 16.6149 45.8397C16.6867 45.9584 16.724 46.1019 16.7267 46.2703C16.7267 46.5187 16.6522 46.7119 16.5031 46.8499C16.3569 46.9879 16.1623 47.0569 15.9194 47.0569H15.1038C15.0762 47.0569 15.0624 47.0431 15.0624 47.0155V44.2002C15.0624 44.1726 15.0762 44.1588 15.1038 44.1588H15.8863C16.1402 44.1588 16.3389 44.225 16.4824 44.3575C16.626 44.4872 16.6977 44.6735 16.6977 44.9164C16.6977 45.071 16.6646 45.2007 16.5984 45.3056C16.5349 45.4105 16.441 45.4905 16.3168 45.5457ZM15.3729 44.4155C15.3618 44.4155 15.3563 44.421 15.3563 44.432V45.4298C15.3563 45.4408 15.3618 45.4464 15.3729 45.4464H15.8904C16.0505 45.4464 16.1761 45.4008 16.2672 45.3097C16.361 45.2186 16.4079 45.0958 16.4079 44.9413C16.4079 44.7784 16.361 44.6501 16.2672 44.5562C16.1761 44.4624 16.0505 44.4155 15.8904 44.4155H15.3729ZM15.9111 46.7961C16.0712 46.7961 16.1981 46.7464 16.292 46.647C16.3858 46.5476 16.4328 46.4124 16.4328 46.2413C16.4328 46.0674 16.3845 45.9308 16.2879 45.8314C16.194 45.732 16.0657 45.6823 15.9028 45.6823H15.3729C15.3618 45.6823 15.3563 45.6879 15.3563 45.6989V46.7795C15.3563 46.7905 15.3618 46.7961 15.3729 46.7961H15.9111ZM18.8679 44.3741C18.8679 44.4017 18.8541 44.4155 18.8265 44.4155H17.5845C17.5734 44.4155 17.5679 44.421 17.5679 44.432V45.4588C17.5679 45.4698 17.5734 45.4753 17.5845 45.4753H18.4208C18.4484 45.4753 18.4622 45.4891 18.4622 45.5167V45.6906C18.4622 45.7182 18.4484 45.732 18.4208 45.732H17.5845C17.5734 45.732 17.5679 45.7375 17.5679 45.7486V46.7836C17.5679 46.7947 17.5734 46.8002 17.5845 46.8002H18.8265C18.8541 46.8002 18.8679 46.814 18.8679 46.8416V47.0155C18.8679 47.0431 18.8541 47.0569 18.8265 47.0569H17.3154C17.2878 47.0569 17.274 47.0431 17.274 47.0155V44.2002C17.274 44.1726 17.2878 44.1588 17.3154 44.1588H18.8265C18.8541 44.1588 18.8679 44.1726 18.8679 44.2002V44.3741ZM20.8329 47.0569C20.8108 47.0569 20.7956 47.0458 20.7873 47.0238L20.2739 45.7444C20.2712 45.7362 20.2657 45.732 20.2574 45.732H19.7233C19.7123 45.732 19.7067 45.7375 19.7067 45.7486V47.0155C19.7067 47.0431 19.6929 47.0569 19.6653 47.0569H19.4542C19.4266 47.0569 19.4128 47.0431 19.4128 47.0155V44.2002C19.4128 44.1726 19.4266 44.1588 19.4542 44.1588H20.3319C20.4754 44.1588 20.6024 44.1919 20.7128 44.2581C20.826 44.3244 20.9129 44.4182 20.9736 44.5397C21.0371 44.6611 21.0688 44.8005 21.0688 44.9578C21.0688 45.1455 21.0233 45.3056 20.9322 45.4381C20.8411 45.5706 20.7169 45.6589 20.5596 45.703C20.5486 45.7086 20.5458 45.7155 20.5513 45.7237L21.0854 47.0072L21.0895 47.0238C21.0895 47.0458 21.0771 47.0569 21.0523 47.0569H20.8329ZM19.7233 44.4155C19.7123 44.4155 19.7067 44.421 19.7067 44.432V45.4795C19.7067 45.4905 19.7123 45.496 19.7233 45.496H20.2946C20.4382 45.496 20.5541 45.4464 20.6424 45.347C20.7307 45.2476 20.7749 45.1179 20.7749 44.9578C20.7749 44.795 20.7307 44.6639 20.6424 44.5645C20.5541 44.4651 20.4382 44.4155 20.2946 44.4155H19.7233ZM23.0202 47.0569C22.9981 47.0569 22.9829 47.0458 22.9747 47.0238L22.4613 45.7444C22.4585 45.7362 22.453 45.732 22.4447 45.732H21.9106C21.8996 45.732 21.8941 45.7375 21.8941 45.7486V47.0155C21.8941 47.0431 21.8803 47.0569 21.8527 47.0569H21.6415C21.6139 47.0569 21.6001 47.0431 21.6001 47.0155V44.2002C21.6001 44.1726 21.6139 44.1588 21.6415 44.1588H22.5192C22.6628 44.1588 22.7897 44.1919 22.9001 44.2581C23.0133 44.3244 23.1002 44.4182 23.161 44.5397C23.2244 44.6611 23.2562 44.8005 23.2562 44.9578C23.2562 45.1455 23.2106 45.3056 23.1196 45.4381C23.0285 45.5706 22.9043 45.6589 22.7469 45.703C22.7359 45.7086 22.7331 45.7155 22.7387 45.7237L23.2727 47.0072L23.2769 47.0238C23.2769 47.0458 23.2645 47.0569 23.2396 47.0569H23.0202ZM21.9106 44.4155C21.8996 44.4155 21.8941 44.421 21.8941 44.432V45.4795C21.8941 45.4905 21.8996 45.496 21.9106 45.496H22.482C22.6255 45.496 22.7414 45.4464 22.8297 45.347C22.9181 45.2476 22.9622 45.1179 22.9622 44.9578C22.9622 44.795 22.9181 44.6639 22.8297 44.5645C22.7414 44.4651 22.6255 44.4155 22.482 44.4155H21.9106ZM24.3144 47.0527C24.2868 47.0527 24.273 47.0389 24.273 47.0113V45.7776C24.273 45.7665 24.2716 45.7596 24.2689 45.7569L23.5526 44.2084L23.5485 44.1919C23.5485 44.1698 23.5609 44.1588 23.5857 44.1588H23.8093C23.8314 44.1588 23.8466 44.1698 23.8549 44.1919L24.4096 45.4298C24.4124 45.4353 24.4165 45.4381 24.4221 45.4381C24.4276 45.4381 24.4317 45.4353 24.4345 45.4298L24.9893 44.1919C24.9975 44.1698 25.0127 44.1588 25.0348 44.1588H25.2584C25.2722 44.1588 25.2818 44.1643 25.2874 44.1753C25.2956 44.1836 25.297 44.1946 25.2915 44.2084L24.5711 45.7569C24.5684 45.7596 24.567 45.7665 24.567 45.7776V47.0113C24.567 47.0389 24.5532 47.0527 24.5256 47.0527H24.3144ZM6.82384 51.7795C6.81556 51.7933 6.81832 51.8002 6.83212 51.8002H7.97066C7.99827 51.8002 8.01207 51.814 8.01207 51.8416V52.0155C8.01207 52.0431 7.99827 52.0569 7.97066 52.0569H6.49676C6.46916 52.0569 6.45536 52.0431 6.45536 52.0155V51.8333C6.45536 51.8168 6.46088 51.7988 6.47192 51.7795C6.72033 51.4428 6.99772 51.0563 7.3041 50.6202C7.52215 50.3028 7.63117 50.0489 7.63117 49.8585C7.63117 49.7149 7.58977 49.6004 7.50697 49.5148C7.42416 49.4265 7.31514 49.3823 7.17989 49.3823C7.04741 49.3823 6.94114 49.4265 6.8611 49.5148C6.78105 49.6004 6.74241 49.7149 6.74517 49.8585V49.9992C6.74517 50.0268 6.73137 50.0406 6.70377 50.0406H6.48848C6.46088 50.0406 6.44708 50.0268 6.44708 49.9992V49.8336C6.4526 49.6211 6.52298 49.45 6.65823 49.3202C6.79624 49.1905 6.97288 49.1256 7.18817 49.1256C7.40898 49.1256 7.58701 49.1933 7.72225 49.3285C7.8575 49.4638 7.92512 49.6404 7.92512 49.8585C7.92512 50.1013 7.81196 50.3884 7.58563 50.7196C7.44486 50.9239 7.22267 51.233 6.91906 51.647L6.82384 51.7795ZM9.22824 52.0983C8.99087 52.0983 8.80042 52.0265 8.6569 51.883C8.51337 51.7395 8.44161 51.5476 8.44161 51.3075V49.9081C8.44161 49.6708 8.51337 49.4803 8.6569 49.3368C8.80042 49.1933 8.99087 49.1215 9.22824 49.1215C9.46837 49.1215 9.6602 49.1933 9.80373 49.3368C9.95001 49.4803 10.0232 49.6708 10.0232 49.9081V51.3075C10.0232 51.5476 9.95001 51.7395 9.80373 51.883C9.6602 52.0265 9.46837 52.0983 9.22824 52.0983ZM9.22824 51.8416C9.38005 51.8416 9.50149 51.7947 9.59258 51.7008C9.68366 51.607 9.7292 51.4828 9.7292 51.3282V49.8916C9.7292 49.737 9.68366 49.6128 9.59258 49.519C9.50149 49.4251 9.38005 49.3782 9.22824 49.3782C9.08196 49.3782 8.96327 49.4251 8.87219 49.519C8.7811 49.6128 8.73556 49.737 8.73556 49.8916V51.3282C8.73556 51.48 8.7811 51.6042 8.87219 51.7008C8.96327 51.7947 9.08196 51.8416 9.22824 51.8416ZM11.2069 50.2973C11.0992 50.2973 10.9998 50.2711 10.9088 50.2186C10.8204 50.1662 10.7501 50.0958 10.6976 50.0075C10.6452 49.9164 10.619 49.8171 10.619 49.7094C10.619 49.6018 10.6452 49.5038 10.6976 49.4155C10.7501 49.3244 10.8204 49.2526 10.9088 49.2002C10.9998 49.1477 11.0992 49.1215 11.2069 49.1215C11.3117 49.1215 11.4083 49.1477 11.4967 49.2002C11.5878 49.2526 11.6595 49.3244 11.712 49.4155C11.7644 49.5038 11.7906 49.6018 11.7906 49.7094C11.7906 49.8171 11.7644 49.9164 11.712 50.0075C11.6595 50.0958 11.5878 50.1662 11.4967 50.2186C11.4083 50.2711 11.3117 50.2973 11.2069 50.2973ZM11.1116 52.0569C11.0978 52.0569 11.0868 52.0527 11.0785 52.0445C11.073 52.0334 11.0744 52.021 11.0827 52.0072L12.6228 49.1877C12.6311 49.1684 12.6476 49.1588 12.6725 49.1588H12.805C12.8188 49.1588 12.8284 49.1643 12.8339 49.1753C12.8422 49.1836 12.8422 49.1946 12.8339 49.2084L11.2938 52.0279C11.2855 52.0472 11.269 52.0569 11.2441 52.0569H11.1116ZM11.2069 50.1151C11.3173 50.1151 11.4097 50.0765 11.4842 49.9992C11.5615 49.9192 11.6002 49.8226 11.6002 49.7094C11.6002 49.5962 11.5615 49.501 11.4842 49.4237C11.4097 49.3437 11.3173 49.3037 11.2069 49.3037C11.0965 49.3037 11.0026 49.3437 10.9253 49.4237C10.848 49.501 10.8094 49.5962 10.8094 49.7094C10.8094 49.8226 10.848 49.9192 10.9253 49.9992C11.0026 50.0765 11.0965 50.1151 11.2069 50.1151ZM12.7263 52.0941C12.6187 52.0941 12.5193 52.0679 12.4282 52.0155C12.3399 51.963 12.2695 51.8913 12.2171 51.8002C12.1646 51.7091 12.1384 51.6097 12.1384 51.5021C12.1384 51.3972 12.1646 51.3006 12.2171 51.2123C12.2695 51.1212 12.3399 51.0494 12.4282 50.997C12.5193 50.9446 12.6187 50.9183 12.7263 50.9183C12.8312 50.9183 12.9278 50.9446 13.0161 50.997C13.1072 51.0494 13.179 51.1212 13.2314 51.2123C13.2838 51.3006 13.3101 51.3972 13.3101 51.5021C13.3101 51.6097 13.2838 51.7091 13.2314 51.8002C13.179 51.8913 13.1072 51.963 13.0161 52.0155C12.9278 52.0679 12.8312 52.0941 12.7263 52.0941ZM12.7263 51.912C12.8367 51.912 12.9292 51.872 13.0037 51.7919C13.081 51.7119 13.1196 51.6153 13.1196 51.5021C13.1196 51.3889 13.081 51.2937 13.0037 51.2164C12.9292 51.1391 12.8367 51.1005 12.7263 51.1005C12.6159 51.1005 12.5221 51.1391 12.4448 51.2164C12.3675 51.2937 12.3288 51.3889 12.3288 51.5021C12.3288 51.618 12.3661 51.716 12.4406 51.7961C12.5179 51.8733 12.6131 51.912 12.7263 51.912Z" fill="#404040"/>
<path fill-rule="evenodd" clip-rule="evenodd" d="M43.2718 24.672L43.1644 24.682L43.1594 24.8182L43.1545 24.9562H43.3263C43.4205 24.9562 43.6336 24.9612 43.7971 24.9678L44.0978 24.9778V26.8842C44.0978 28.7408 44.1044 29.1447 44.1342 29.1447C44.1408 29.1447 44.1904 29.1114 44.2432 29.0699C44.3192 29.01 44.3622 28.9901 44.4663 28.9668L44.5935 28.9369V26.9574V24.9778L45.0594 24.9678C45.4063 24.9595 45.5286 24.9512 45.5385 24.9363C45.5566 24.9063 45.555 24.7368 45.5368 24.7085C45.5269 24.6936 45.479 24.6786 45.4245 24.672C45.3121 24.657 43.4304 24.6587 43.2718 24.672Z" fill="black"/>
<path fill-rule="evenodd" clip-rule="evenodd" d="M46.2357 24.6689C46.2027 24.6756 46.201 24.6856 46.1911 25.1609C46.1845 25.4285 46.1796 25.9737 46.1796 26.3726V27.1006H45.8161H45.4526V26.3892C45.4526 25.9986 45.4477 25.5498 45.4411 25.3919L45.4312 25.1061H45.2048H44.9768L44.9653 25.6246C44.9586 25.9105 44.957 26.7997 44.9603 27.5992L44.9653 29.0535L45.0033 29.135C45.0495 29.238 45.0495 29.2895 44.9983 29.4109C44.9421 29.5438 44.9454 29.5738 45.0115 29.6004C45.1106 29.6419 45.1982 29.6486 45.2957 29.6186C45.451 29.5738 45.4427 29.6419 45.4493 28.4003L45.4559 27.3333H45.8177H46.1796V28.2757C46.1796 28.7959 46.1845 29.3261 46.1911 29.4541L46.201 29.6901L46.2638 29.7101C46.3315 29.7333 46.4009 29.7217 46.5678 29.6585L46.6587 29.6253L46.657 27.6191C46.6554 26.5155 46.6488 25.4003 46.6438 25.1393L46.6339 24.6656L46.4522 24.664C46.353 24.6623 46.2556 24.664 46.2357 24.6689Z" fill="black"/>
<path fill-rule="evenodd" clip-rule="evenodd" d="M42.6637 25.2391C42.4539 25.269 42.3068 25.3472 42.2391 25.4618C42.1796 25.5649 42.1648 25.6929 42.1648 26.0851C42.1648 26.6951 42.1681 26.7001 42.8586 27.7239C43.0272 27.9749 43.0519 28.0165 43.1312 28.1943C43.2023 28.3522 43.2089 28.3788 43.2221 28.56C43.2304 28.6663 43.2386 28.9589 43.2386 29.2065C43.2386 29.4558 43.2436 29.6603 43.2519 29.6603C43.2585 29.6603 43.3625 29.6453 43.4831 29.6254L43.7029 29.5888L43.6979 28.9639L43.693 28.3389L43.6219 28.1611C43.5426 27.9649 43.3956 27.719 43.0734 27.2502C42.9578 27.0807 42.819 26.8646 42.7678 26.7716L42.672 26.6004L42.6554 26.1317C42.6389 25.6164 42.6472 25.5217 42.7199 25.4502C42.7661 25.4037 42.8223 25.3887 42.9578 25.3887C43.0883 25.3887 43.1478 25.4136 43.1924 25.4851C43.2287 25.5449 43.2304 25.5599 43.2386 26.1067C43.2452 26.5322 43.2519 26.6718 43.2684 26.6885C43.2948 26.7151 43.6318 26.7267 43.6682 26.7034C43.6897 26.6885 43.693 26.607 43.6979 26.1699C43.7029 25.6247 43.693 25.5034 43.6351 25.422C43.5955 25.3654 43.4336 25.284 43.3047 25.2557C43.1874 25.2308 42.7992 25.2208 42.6637 25.2391Z" fill="black"/>
<path fill-rule="evenodd" clip-rule="evenodd" d="M47.6057 25.2717C47.3446 25.3082 47.2075 25.3781 47.1282 25.5143C47.0852 25.5858 47.0819 25.6124 47.0704 25.8351C47.0638 25.9681 47.0572 26.8689 47.0572 27.8346L47.0555 29.5915L47.11 29.6313C47.2306 29.7244 47.3265 29.7327 47.4652 29.6646L47.5264 29.6347L47.5313 28.649L47.5346 27.6651H47.832H48.1294V28.6524V29.6397L48.2368 29.7095L48.3458 29.7809L48.4499 29.7361C48.5094 29.7111 48.5688 29.6795 48.587 29.6679C48.6151 29.6463 48.6168 29.5848 48.6217 28.3598C48.6283 26.8756 48.6068 25.7105 48.5705 25.5742C48.516 25.3681 48.3326 25.2866 47.8733 25.265C47.7824 25.2617 47.6618 25.2634 47.6057 25.2717ZM47.9972 25.4528C48.0336 25.4711 48.0666 25.506 48.0881 25.5476C48.1178 25.6091 48.1195 25.6589 48.1261 26.4351C48.1294 26.8872 48.1261 27.3028 48.1178 27.3576L48.1046 27.4573L47.8733 27.4623C47.7461 27.4656 47.6172 27.4623 47.5891 27.4573L47.5346 27.4474V26.7293C47.5363 25.9282 47.5511 25.6024 47.5891 25.5276C47.647 25.4146 47.8469 25.3781 47.9972 25.4528Z" fill="black"/>
<path fill-rule="evenodd" clip-rule="evenodd" d="M40.4071 26.0052C40.4021 26.0617 40.3972 26.7681 40.3972 27.5742V29.0402L40.5145 29.0518C40.5789 29.0568 40.6747 29.0767 40.7276 29.095C40.7821 29.1133 40.8333 29.1283 40.8433 29.1283C40.8614 29.1283 40.868 26.1166 40.8499 25.9803L40.8383 25.9038H40.6285H40.4187L40.4071 26.0052Z" fill="black"/>
<path fill-rule="evenodd" clip-rule="evenodd" d="M41.3437 25.9234C41.3189 25.9616 41.2924 29.0265 41.3156 29.1428C41.3288 29.2027 41.3536 29.2077 41.3982 29.1595C41.4461 29.1063 41.5171 29.0764 41.6427 29.0547L41.76 29.0348L41.7699 28.8021C41.7848 28.4979 41.7848 26.1394 41.7699 26.0115L41.76 25.9117L41.5584 25.9067C41.4097 25.9034 41.3536 25.9084 41.3437 25.9234Z" fill="black"/>
<path fill-rule="evenodd" clip-rule="evenodd" d="M49.0297 25.932C49.0214 25.9486 49.0132 26.4671 49.0082 27.0854L49.0016 28.2074L49.0545 28.4484C49.1751 28.9952 49.3039 29.4872 49.3634 29.6318C49.4394 29.8096 49.6162 29.7365 49.6162 29.5287C49.6162 29.4772 49.6079 29.3825 49.598 29.3193C49.5071 28.696 49.4873 28.3387 49.4708 26.9508L49.4592 25.912L49.2511 25.907C49.0644 25.9037 49.0412 25.9054 49.0297 25.932Z" fill="black"/>
<path fill-rule="evenodd" clip-rule="evenodd" d="M49.9534 25.9226C49.9468 25.9342 49.9352 26.4611 49.9286 27.091C49.922 27.7226 49.9088 28.311 49.8989 28.3974C49.8543 28.8063 49.8345 29.0074 49.8361 29.054C49.8378 29.0806 49.8328 29.162 49.8245 29.2335C49.8113 29.3648 49.8113 29.3648 49.8477 29.3448C49.8675 29.3349 49.922 29.29 49.9683 29.2484C50.0162 29.2052 50.0823 29.1487 50.117 29.1221C50.1517 29.0955 50.1913 29.0523 50.2045 29.0274C50.2392 28.9592 50.3565 28.4307 50.3763 28.2462C50.3978 28.0634 50.3929 25.9475 50.3714 25.9259C50.3631 25.9193 50.269 25.911 50.1616 25.9076C50.0162 25.9026 49.9633 25.9076 49.9534 25.9226Z" fill="black"/>
<path fill-rule="evenodd" clip-rule="evenodd" d="M39.7709 26.5684L39.5495 26.5767L39.3876 27.3994C39.2984 27.8515 39.2224 28.2321 39.2208 28.2454C39.2125 28.2886 39.1795 28.282 39.1596 28.2354C39.1497 28.2105 39.1316 28.1324 39.1183 28.0642C39.1068 27.9961 39.0456 27.6969 38.9845 27.3994C38.9234 27.1019 38.8606 26.7961 38.8457 26.718L38.8193 26.5767L38.5897 26.5717L38.36 26.5667L38.3699 27.6919C38.3765 28.3119 38.3815 29.1014 38.3815 29.4471V30.0754H38.6128H38.8441L38.8457 29.4637C38.8457 29.128 38.8523 28.8155 38.8606 28.7706C38.8672 28.7241 38.8738 28.6925 38.8755 28.6992C38.9135 28.9019 39.0076 29.4222 39.0159 29.4787C39.0341 29.6017 39.0539 29.6183 39.1844 29.6166C39.2753 29.6166 39.3001 29.61 39.3215 29.5817C39.3397 29.5601 39.3711 29.4189 39.4124 29.1762C39.4471 28.9718 39.4818 28.7922 39.4901 28.7789C39.4983 28.7623 39.5049 28.8055 39.5049 28.8953C39.5049 29.1213 39.5248 29.3125 39.5462 29.3208C39.5578 29.3258 39.5991 29.3075 39.6387 29.2809C39.6784 29.2543 39.7709 29.2078 39.8436 29.1778C39.9163 29.1463 39.9807 29.1164 39.989 29.1114C39.9956 29.1064 39.9989 28.5296 39.9973 27.8299L39.9923 26.5601L39.7709 26.5684Z" fill="black"/>
<path fill-rule="evenodd" clip-rule="evenodd" d="M50.8125 26.5891C50.8042 26.6008 50.796 27.141 50.7927 27.7908L50.786 28.9709L50.8521 29.0091C50.9859 29.0839 51.0471 29.2019 51.0322 29.3549C51.0206 29.4646 50.9744 29.5709 50.8753 29.7172C50.8042 29.8202 50.7976 29.8385 50.7976 29.9283C50.7976 29.9931 50.8059 30.0346 50.8224 30.0496C50.8505 30.0779 51.0785 30.0878 51.5295 30.0795L51.7971 30.0762V29.9532V29.8319L51.5625 29.8202C51.4337 29.8136 51.3246 29.8053 51.3213 29.8036C51.318 29.8003 51.3114 29.4762 51.3065 29.0839L51.2965 28.3692L51.4502 28.3593C51.5344 28.3526 51.6352 28.3476 51.6732 28.3476C51.7558 28.3476 51.7657 28.3277 51.7525 28.1881L51.7426 28.0983H51.5229H51.3015V27.4684C51.3015 27.0396 51.3065 26.8335 51.3197 26.8268C51.3296 26.8202 51.4353 26.8102 51.5543 26.8052L51.7723 26.7936V26.6855V26.5775L51.2982 26.5725C50.9331 26.5692 50.8224 26.5742 50.8125 26.5891Z" fill="black"/>
<path fill-rule="evenodd" clip-rule="evenodd" d="M42.163 28.5063C42.1415 28.5628 42.1564 29.1545 42.1828 29.2791C42.1944 29.329 42.1927 29.3789 42.1828 29.4287C42.158 29.5301 42.1613 29.6149 42.1878 29.6514C42.2092 29.6814 42.2142 29.6814 42.3893 29.6448C42.4885 29.6232 42.5859 29.6032 42.6074 29.5982L42.6454 29.5899L42.6404 29.0448C42.6371 28.7439 42.6289 28.493 42.6223 28.4863C42.6157 28.478 42.5132 28.4697 42.3959 28.4664L42.1812 28.4597L42.163 28.5063Z" fill="black"/>
<path fill-rule="evenodd" clip-rule="evenodd" d="M44.4945 29.2124C44.4317 29.2374 44.3524 29.3221 44.2599 29.4601C44.1806 29.5797 43.9179 29.9255 43.9064 29.9255C43.9047 29.9255 43.875 29.9088 43.8419 29.8906C43.7874 29.8573 43.7643 29.8557 43.6222 29.864C43.3397 29.8789 43.1646 29.9703 42.887 30.2446C42.6574 30.4723 42.4542 30.6053 42.4112 30.562C42.3996 30.5504 42.4376 30.4922 42.5235 30.3908C42.7846 30.0784 42.7846 30.0784 42.773 29.982C42.7697 29.9504 42.7499 29.9221 42.7102 29.8955C42.6293 29.8407 42.5103 29.8523 42.3269 29.9338C42.2509 29.967 42.1799 29.9986 42.17 30.0036C42.1584 30.0086 42.1419 29.9936 42.1336 29.9703C42.0957 29.8706 41.975 29.8723 41.8825 29.972C41.8511 30.0052 41.7818 30.0883 41.7289 30.1548C41.567 30.3609 41.2845 30.5803 41.1523 30.6019C40.9788 30.6302 41.1027 30.3875 41.5455 29.834C41.8693 29.4285 41.9123 29.352 41.8363 29.3105C41.7834 29.2839 41.6661 29.2905 41.6083 29.3254C41.5802 29.3437 41.4679 29.4684 41.3588 29.6047C41.1407 29.8773 40.8318 30.1881 40.6335 30.336C40.4105 30.5022 40.1379 30.6102 40.0751 30.5571C40.0041 30.4989 40.09 30.3559 40.4617 29.9122C40.5559 29.7991 40.6567 29.6678 40.6881 29.6213C40.7492 29.5266 40.7607 29.4418 40.7194 29.382C40.6583 29.2939 40.4022 29.2689 40.1726 29.3271C39.8521 29.4086 39.6472 29.5831 39.7744 29.6678C39.8273 29.7011 39.8983 29.6795 40.0966 29.5665C40.2585 29.4767 40.4204 29.4268 40.4518 29.4584C40.4733 29.48 40.3808 29.5997 40.1329 29.8673C39.8207 30.203 39.7232 30.3709 39.7414 30.5371C39.7546 30.6618 39.8967 30.7715 40.0437 30.7731C40.2056 30.7731 40.4419 30.6634 40.6269 30.4989C40.6947 30.439 40.7591 30.3908 40.7723 30.3908C40.7987 30.3908 40.7987 30.3875 40.769 30.4723C40.7393 30.5587 40.7607 30.6269 40.8417 30.695C40.9491 30.7848 41.0945 30.7914 41.2696 30.7133C41.372 30.6668 41.4299 30.6618 41.4447 30.6983C41.4513 30.715 41.4778 30.7233 41.5273 30.7233C41.6 30.7233 41.6033 30.7216 41.7206 30.577C41.8891 30.3709 41.9932 30.2662 42.1072 30.1831C42.3765 29.9886 42.5698 29.967 42.4343 30.1465C42.4079 30.1798 42.3402 30.2595 42.2823 30.326C42.1237 30.5072 42.0907 30.6219 42.175 30.6884C42.2113 30.7166 42.2427 30.7233 42.3418 30.7233C42.4707 30.7233 42.512 30.7083 42.6722 30.6069C42.7152 30.5787 42.7598 30.5571 42.7714 30.5571C42.7829 30.5571 42.8061 30.5853 42.8242 30.6219C42.8639 30.7 42.9283 30.7283 43.0572 30.7283C43.1728 30.7266 43.2835 30.6801 43.3909 30.5886C43.4339 30.5537 43.4752 30.5238 43.4851 30.5238C43.495 30.5238 43.5032 30.5471 43.5032 30.5753C43.5032 30.6086 43.5198 30.6418 43.5512 30.6751C43.5925 30.7166 43.6123 30.7233 43.6883 30.7233C43.7924 30.7233 43.9163 30.6701 44.0451 30.5704C44.093 30.5338 44.136 30.5072 44.141 30.5122C44.1459 30.5172 44.1624 30.5454 44.179 30.577C44.1955 30.6069 44.2434 30.6568 44.2863 30.685C44.3557 30.7332 44.3805 30.7399 44.4697 30.7399C44.6151 30.7399 44.7324 30.7133 44.858 30.6551C45.005 30.587 45.1025 30.5072 45.3701 30.2496C45.5469 30.0767 45.6113 30.0252 45.6559 30.0169C45.7815 29.9919 45.7765 30.0086 45.6014 30.208C45.3354 30.5072 45.2892 30.6136 45.3883 30.6967C45.4891 30.7814 45.6989 30.7432 45.9104 30.6019C45.9715 30.5604 46.0326 30.5238 46.0425 30.5205C46.0541 30.5172 46.0756 30.5421 46.0921 30.5737C46.1912 30.7681 46.4754 30.7914 46.7909 30.6318C46.8504 30.6019 46.9099 30.5654 46.9215 30.5504C46.9545 30.5105 46.9677 30.5155 47.0734 30.6136C47.1907 30.7233 47.2535 30.7465 47.4088 30.7366C47.5625 30.7266 47.6748 30.6717 47.8384 30.5271C48.0019 30.3859 48.1126 30.3044 48.1358 30.3127C48.1473 30.3161 48.1523 30.3643 48.149 30.4424C48.1407 30.6485 48.2018 30.7233 48.3786 30.7233C48.519 30.7233 48.6198 30.685 48.7305 30.592C48.785 30.5454 48.8346 30.5122 48.8429 30.5172C48.8495 30.5222 48.8561 30.5521 48.8561 30.5836C48.8561 30.6767 48.9155 30.7233 49.0328 30.7233C49.1402 30.7233 49.2179 30.6917 49.3434 30.6003C49.3881 30.567 49.436 30.5404 49.4475 30.5404C49.4574 30.5404 49.4806 30.572 49.4954 30.6086C49.5582 30.7698 49.8126 30.7831 50.0225 30.6385C50.1348 30.562 50.414 30.2811 50.4058 30.2546C50.3876 30.1997 50.3281 30.228 50.1513 30.3692C49.963 30.5238 49.8919 30.5637 49.8275 30.5537C49.7945 30.5487 49.7895 30.5404 49.7912 30.4706C49.7912 30.3692 49.8341 30.3094 49.9927 30.1831C50.3281 29.9172 50.6139 29.6213 50.685 29.4651C50.7411 29.3437 50.7329 29.2457 50.6668 29.2124C50.604 29.1825 50.4603 29.2108 50.3678 29.2723C50.1827 29.3969 49.7813 29.859 49.616 30.1415C49.5367 30.2745 49.436 30.3809 49.3071 30.4673C49.1964 30.5421 49.1237 30.567 49.1006 30.5438C49.0758 30.5188 49.1303 30.439 49.2856 30.2662C49.3501 30.1931 49.4161 30.1083 49.431 30.0784C49.4574 30.0252 49.4558 30.0202 49.4294 30.0003C49.4128 29.9886 49.3715 29.9753 49.3368 29.9687C49.3005 29.9637 49.2493 29.9404 49.2228 29.9172C49.1254 29.8357 48.9288 29.8324 48.7008 29.9088C48.638 29.9288 48.5257 29.9919 48.4166 30.0667C48.1721 30.2379 48.1258 30.2346 48.1077 30.0518C48.0961 29.9354 48.0565 29.8839 47.9573 29.8573C47.726 29.7942 47.3411 29.9604 47.1015 30.2263C46.9347 30.4108 46.7116 30.5487 46.5431 30.5687C46.4836 30.5753 46.4605 30.5704 46.4242 30.5404C46.3663 30.4956 46.3663 30.454 46.4258 30.3493C46.5167 30.1897 46.7364 29.9986 46.8488 29.9803C46.9215 29.9687 46.9248 29.9969 46.8653 30.085C46.8124 30.1615 46.819 30.1814 46.8934 30.1881C46.9413 30.1914 46.9644 30.1831 47.014 30.1399C47.1362 30.0318 47.1395 29.9537 47.0222 29.8856C46.9033 29.8141 46.6505 29.859 46.4407 29.987C46.3878 30.0185 46.254 30.1316 46.1433 30.2363C45.8806 30.4872 45.6956 30.6086 45.6477 30.5604C45.6262 30.5388 45.7204 30.4091 45.9005 30.218C46.0657 30.0418 46.1053 29.982 46.0871 29.9338C46.0723 29.8955 46.0095 29.8872 45.8311 29.8989C45.6741 29.9105 45.6675 29.9088 45.6675 29.8773C45.6675 29.859 45.6493 29.8307 45.6262 29.8158C45.5205 29.746 45.3057 29.8939 45.3668 29.9936C45.3999 30.0451 45.39 30.0701 45.2941 30.1731C45.1702 30.3094 45.0265 30.4158 44.8596 30.4972C44.6168 30.6136 44.4532 30.5853 44.4532 30.4258C44.4532 30.3892 44.4598 30.3543 44.4664 30.3476C44.473 30.341 44.5589 30.3293 44.6564 30.3227C44.9224 30.3028 45.0678 30.2446 45.1471 30.1282C45.2049 30.0435 45.2 29.9903 45.1306 29.9271C45.0265 29.8357 44.891 29.8241 44.6746 29.8922C44.5441 29.9321 44.4532 30.0003 44.1856 30.2595C43.9328 30.5039 43.8171 30.582 43.7742 30.5371C43.7527 30.5172 43.7593 30.5005 43.8138 30.4141C43.8766 30.3177 44.0864 30.0601 44.4169 29.6761C44.7192 29.3254 44.7754 29.2274 44.6895 29.2041C44.6349 29.1892 44.5424 29.1941 44.4945 29.2124ZM50.5743 29.3986C50.5743 29.47 50.1018 30.0086 50.039 30.0086C49.9993 30.0086 50.2769 29.6279 50.4272 29.4784C50.5247 29.3803 50.5743 29.3537 50.5743 29.3986ZM43.7742 29.9853C43.8304 30.0069 43.799 30.0651 43.6486 30.2147C43.4834 30.3792 43.3479 30.4773 43.2174 30.5271C43.0754 30.582 43.0307 30.5255 43.1167 30.3975C43.2306 30.2246 43.4487 30.0618 43.6437 29.9986C43.7213 29.9737 43.7395 29.972 43.7742 29.9853ZM44.9968 30.0019C45.0347 30.0385 45.0298 30.0618 44.9769 30.1133C44.9141 30.1731 44.8068 30.208 44.6795 30.208H44.5722L44.6102 30.1665C44.6614 30.1116 44.8018 30.0185 44.8662 29.9953C44.9373 29.9703 44.967 29.972 44.9968 30.0019ZM47.9392 30.0052C47.9392 30.0169 47.9094 30.0435 47.8747 30.0634C47.7954 30.1083 47.7442 30.1748 47.7591 30.213C47.764 30.2296 47.7905 30.2529 47.8169 30.2679C47.8433 30.2811 47.8648 30.3028 47.8648 30.3161C47.8648 30.3476 47.7855 30.4058 47.6335 30.4872C47.4468 30.5886 47.3494 30.5953 47.3047 30.5089C47.2436 30.3958 47.5195 30.1 47.7706 30.0069C47.8648 29.972 47.9392 29.972 47.9392 30.0052ZM49.1006 29.9853C49.1501 30.0003 49.1468 30.0385 49.0841 30.1233C48.9535 30.3011 48.5504 30.5787 48.4612 30.5487C48.3175 30.5039 48.6644 30.1199 48.9535 30.0069C49.0395 29.9737 49.0477 29.972 49.1006 29.9853Z" fill="black"/>
<path fill-rule="evenodd" clip-rule="evenodd" d="M39.533 29.8708C39.5147 29.8874 39.5197 30.0553 39.538 30.0669C39.5563 30.0785 39.671 29.9738 39.671 29.9456C39.671 29.924 39.5895 29.8591 39.5629 29.8591C39.553 29.8591 39.538 29.8641 39.533 29.8708Z" fill="black"/>
<path fill-rule="evenodd" clip-rule="evenodd" d="M38.3685 30.361L38.3735 30.4159L38.8047 30.4209C39.2789 30.4259 39.4011 30.4159 39.4292 30.3694C39.4424 30.3461 39.4424 30.3361 39.4226 30.3245C39.4077 30.3145 39.1814 30.3079 38.8807 30.3079H38.3636L38.3685 30.361Z" fill="black"/>
<path fill-rule="evenodd" clip-rule="evenodd" d="M50.7465 30.3245C50.7101 30.3394 50.682 30.3876 50.7002 30.4059C50.7052 30.4109 50.9563 30.4159 51.257 30.4159H51.8055L51.8104 30.361L51.8154 30.3079L51.2983 30.3095C51.0141 30.3095 50.7663 30.3162 50.7465 30.3245Z" fill="black"/>
<path fill-rule="evenodd" clip-rule="evenodd" d="M39.1531 30.9913C38.9648 31.0462 38.902 31.2822 39.0424 31.4168C39.1697 31.5365 39.4142 31.5332 39.5216 31.4119C39.6223 31.2972 39.6009 31.121 39.4786 31.0346C39.401 30.9797 39.2605 30.9614 39.1531 30.9913ZM39.4043 31.0861C39.4274 31.1027 39.4571 31.1443 39.467 31.1775C39.5249 31.352 39.3217 31.5083 39.168 31.4069C39.1036 31.3637 39.0771 31.3121 39.0755 31.2257C39.0755 31.1692 39.0854 31.1459 39.1217 31.111C39.1465 31.0877 39.1812 31.0628 39.1994 31.0545C39.249 31.0329 39.3563 31.0495 39.4043 31.0861Z" fill="black"/>
<path fill-rule="evenodd" clip-rule="evenodd" d="M40.4367 30.9893C40.3887 31.0092 40.3309 31.0857 40.3309 31.1306C40.3309 31.1921 40.4036 31.2486 40.4961 31.2602C40.5903 31.2718 40.6878 31.3134 40.701 31.3483C40.7059 31.3616 40.6944 31.3882 40.6762 31.4065C40.6266 31.4563 40.5027 31.443 40.4218 31.3815C40.3309 31.3117 40.2698 31.3566 40.3524 31.4347C40.4879 31.5627 40.81 31.5045 40.81 31.3516C40.81 31.3267 40.7952 31.2901 40.7786 31.2735C40.7506 31.2452 40.6035 31.1887 40.5573 31.1887C40.5226 31.1887 40.43 31.1339 40.43 31.1123C40.43 31.079 40.4978 31.0391 40.5556 31.0391C40.5837 31.0391 40.6349 31.0574 40.6679 31.0807C40.734 31.1256 40.7935 31.1355 40.7935 31.1006C40.7935 31.0159 40.554 30.9411 40.4367 30.9893Z" fill="black"/>
<path fill-rule="evenodd" clip-rule="evenodd" d="M43.9294 30.9875C43.7394 31.049 43.6684 31.2219 43.7658 31.3814C43.8237 31.4778 44.0004 31.5277 44.1458 31.4878C44.3622 31.4296 44.4151 31.1604 44.2367 31.034C44.1623 30.9825 44.0153 30.9609 43.9294 30.9875ZM44.1574 31.0806C44.2136 31.1171 44.2515 31.2119 44.24 31.28C44.2334 31.3083 44.2069 31.3548 44.1789 31.3814C44.1359 31.423 44.1161 31.4296 44.0401 31.4296C43.931 31.4296 43.8683 31.3881 43.8352 31.2933C43.8137 31.2335 43.8154 31.2219 43.8435 31.162C43.8996 31.0457 44.0467 31.0074 44.1574 31.0806Z" fill="black"/>
<path fill-rule="evenodd" clip-rule="evenodd" d="M44.615 31.0026C44.5077 31.0458 44.4647 31.0923 44.4531 31.1788C44.435 31.2968 44.4548 31.3616 44.5275 31.4264C44.6233 31.5145 44.7968 31.5295 44.9256 31.4613C44.995 31.4264 45.0578 31.3217 45.0595 31.2436C45.0611 31.1256 44.9983 31.0408 44.8761 30.9976C44.7852 30.966 44.7026 30.9677 44.615 31.0026ZM44.8529 31.0724C44.9719 31.1455 44.9901 31.2785 44.8942 31.3749C44.7736 31.4979 44.544 31.4231 44.544 31.2602C44.544 31.0923 44.7158 30.9876 44.8529 31.0724Z" fill="black"/>
<path fill-rule="evenodd" clip-rule="evenodd" d="M48.0896 30.9899C47.9838 31.0231 47.9062 31.1511 47.9194 31.2691C47.9293 31.3622 47.9723 31.4203 48.0631 31.4669C48.197 31.5367 48.3787 31.5051 48.4762 31.3971C48.5125 31.3588 48.5175 31.3372 48.5175 31.2425C48.5158 31.1095 48.4861 31.0547 48.3969 31.0181C48.3176 30.9865 48.1507 30.9716 48.0896 30.9899ZM48.3291 31.078C48.3605 31.0979 48.3985 31.1428 48.415 31.1777C48.4448 31.2375 48.4448 31.2408 48.415 31.3007C48.3754 31.3821 48.2911 31.4386 48.2069 31.4386C48.154 31.4386 48.1309 31.427 48.078 31.3738C48.0268 31.3223 48.0136 31.2973 48.0136 31.2475C48.0136 31.0813 48.192 30.9849 48.3291 31.078Z" fill="black"/>
<path fill-rule="evenodd" clip-rule="evenodd" d="M50.0409 30.997C49.955 31.0286 49.9203 31.0635 49.8873 31.1499C49.8212 31.3261 49.955 31.5056 50.1533 31.5056C50.2458 31.5056 50.3532 31.4524 50.3912 31.3876C50.4507 31.2895 50.3994 31.2779 50.297 31.366C50.2508 31.4042 50.2045 31.4292 50.1615 31.4341C50.1037 31.4424 50.0905 31.4375 50.0393 31.3859C49.9418 31.2879 49.9402 31.1931 50.0376 31.0951C50.1087 31.0236 50.1632 31.0236 50.2772 31.0984C50.3763 31.1632 50.416 31.1549 50.3763 31.0801C50.3301 30.9953 50.1599 30.9521 50.0409 30.997Z" fill="black"/>
<path fill-rule="evenodd" clip-rule="evenodd" d="M50.7299 30.9856C50.6721 30.9972 50.5614 31.1019 50.5416 31.1667C50.5185 31.2382 50.5284 31.3063 50.5779 31.3861C50.6242 31.4609 50.7217 31.5041 50.8456 31.5058C50.9381 31.5058 50.9447 31.5025 51.0158 31.431C51.0571 31.3911 51.0868 31.3479 51.0835 31.3363C51.0703 31.2964 51.0257 31.3047 50.9778 31.3529C50.8869 31.4426 50.8258 31.4593 50.7399 31.4144C50.6407 31.3628 50.611 31.2216 50.6787 31.1218C50.7448 31.0221 50.8241 31.0221 50.9827 31.1252C51.0339 31.1568 51.0372 31.1584 51.0488 31.1318C51.0818 31.0421 50.8902 30.954 50.7299 30.9856Z" fill="black"/>
<path fill-rule="evenodd" clip-rule="evenodd" d="M51.3824 30.9876C51.2436 31.0325 51.1941 31.1172 51.2007 31.2917C51.2023 31.3516 51.2767 31.4363 51.3593 31.4729C51.5063 31.5411 51.731 31.4845 51.7872 31.3649C51.845 31.2435 51.807 31.1023 51.6996 31.0308C51.6269 30.9826 51.465 30.961 51.3824 30.9876ZM51.617 31.074C51.6649 31.0923 51.7145 31.1837 51.7145 31.2535C51.7145 31.3466 51.6038 31.438 51.4915 31.438C51.4485 31.438 51.4171 31.423 51.3708 31.3815C51.3147 31.3283 51.3097 31.3167 51.3097 31.2336C51.3097 31.1671 51.318 31.1322 51.3411 31.1073C51.3989 31.0424 51.5047 31.0308 51.617 31.074Z" fill="black"/>
<path fill-rule="evenodd" clip-rule="evenodd" d="M38.4017 31.01C38.4066 31.0216 38.4397 31.0332 38.476 31.0366C38.514 31.0399 38.5537 31.0532 38.5652 31.0665C38.5784 31.0831 38.59 31.1645 38.5933 31.2909C38.5999 31.4621 38.6049 31.4886 38.628 31.4886C38.6842 31.4886 38.6957 31.4521 38.6957 31.2809C38.6957 31.0765 38.7139 31.0399 38.8114 31.0449C38.8808 31.0465 38.9039 31.0366 38.8857 31.0083C38.8692 30.98 38.3934 30.9834 38.4017 31.01Z" fill="black"/>
<path fill-rule="evenodd" clip-rule="evenodd" d="M39.8882 31.0286C39.8519 31.0685 39.7148 31.361 39.6949 31.4425C39.685 31.4824 39.6883 31.489 39.7164 31.489C39.7494 31.489 39.7808 31.4608 39.8106 31.3993C39.8254 31.3694 39.8436 31.3644 39.9461 31.3594L40.065 31.3544L40.0881 31.4092C40.1294 31.5073 40.1988 31.5339 40.1988 31.4508C40.1988 31.4026 40.0534 31.0669 40.0138 31.0236C39.9725 30.9804 39.9312 30.9821 39.8882 31.0286ZM39.994 31.1998C40.0072 31.2713 39.9857 31.2979 39.9279 31.2829C39.8783 31.2713 39.8717 31.2314 39.9114 31.1766C39.9494 31.1217 39.9807 31.1317 39.994 31.1998Z" fill="black"/>
<path fill-rule="evenodd" clip-rule="evenodd" d="M40.9124 31.0094C40.9174 31.0211 40.9306 31.0327 40.9438 31.0344C40.957 31.036 40.995 31.041 41.0297 31.0477L41.0909 31.0576V31.1624C41.0909 31.3402 41.1107 31.4732 41.1371 31.4848C41.1817 31.5014 41.2032 31.4399 41.2148 31.2471L41.2263 31.0576L41.2858 31.0477C41.3205 31.041 41.3569 31.036 41.3701 31.0344C41.3833 31.0327 41.3965 31.0211 41.4015 31.0094C41.4064 30.9945 41.3502 30.9895 41.1569 30.9895C40.9637 30.9895 40.9075 30.9945 40.9124 31.0094Z" fill="black"/>
<path fill-rule="evenodd" clip-rule="evenodd" d="M41.5849 31.0014C41.5304 31.0098 41.5205 31.0513 41.5205 31.2641C41.5205 31.4901 41.5271 31.4968 41.7815 31.4968C41.8906 31.4968 41.9864 31.4901 41.993 31.4835C42.0178 31.4602 41.9616 31.4386 41.8741 31.4386C41.8278 31.4386 41.7551 31.4336 41.7122 31.4286L41.6362 31.417V31.3472V31.2774L41.7865 31.2674C41.8708 31.2624 41.9451 31.2508 41.955 31.2408C41.9798 31.2159 41.8972 31.1893 41.7915 31.1893C41.6791 31.1893 41.6362 31.1677 41.6362 31.1128C41.6362 31.0596 41.6874 31.0397 41.8261 31.0397C41.9401 31.0397 41.9881 31.028 41.9732 31.0048C41.9649 30.9898 41.6725 30.9882 41.5849 31.0014Z" fill="black"/>
<path fill-rule="evenodd" clip-rule="evenodd" d="M42.1798 31.0015C42.1583 31.0065 42.1517 31.0364 42.1451 31.1528C42.1418 31.2325 42.1418 31.3372 42.1451 31.3854C42.1517 31.4636 42.1567 31.4769 42.1963 31.4918C42.2558 31.5151 42.459 31.5001 42.5234 31.4669C42.6473 31.4021 42.6969 31.2325 42.6275 31.1079C42.5746 31.0148 42.5135 30.9899 42.3433 30.9915C42.269 30.9932 42.1947 30.9965 42.1798 31.0015ZM42.4458 31.0564C42.5201 31.0763 42.5614 31.1444 42.5614 31.2475C42.5614 31.3107 42.5532 31.3339 42.5152 31.3722C42.4639 31.422 42.3731 31.4486 42.307 31.432C42.2773 31.4253 42.2657 31.4071 42.2574 31.3605C42.2409 31.2541 42.2459 31.0813 42.2673 31.0597C42.2921 31.0347 42.3665 31.0347 42.4458 31.0564Z" fill="black"/>
<path fill-rule="evenodd" clip-rule="evenodd" d="M43.1098 31.005C43.0768 31.025 43.0884 31.4671 43.1231 31.4887C43.1644 31.5136 43.1875 31.4738 43.1924 31.3674L43.1974 31.2643L43.3378 31.271C43.4171 31.2743 43.4832 31.2843 43.4898 31.2959C43.4964 31.3059 43.503 31.3358 43.503 31.3641C43.503 31.4388 43.5212 31.4887 43.546 31.4887C43.5774 31.4887 43.5873 31.4056 43.5823 31.1895C43.5774 31.0117 43.5757 30.9984 43.5443 30.9984C43.5179 30.9984 43.5096 31.0134 43.5014 31.0782C43.4964 31.123 43.4816 31.1663 43.4683 31.1746C43.4568 31.1829 43.3907 31.1895 43.3263 31.1895H43.2057V31.133C43.2057 31.02 43.166 30.9685 43.1098 31.005Z" fill="black"/>
<path fill-rule="evenodd" clip-rule="evenodd" d="M45.5604 31.0094C45.5423 31.0194 45.4795 31.066 45.4217 31.1092C45.3044 31.2006 45.2878 31.1973 45.273 31.0859C45.2664 31.036 45.2548 31.0128 45.235 31.0094C45.2085 31.0045 45.2052 31.0244 45.2052 31.2355C45.2052 31.3618 45.2102 31.4715 45.2168 31.4765C45.2366 31.4964 45.2697 31.4516 45.2812 31.3901C45.2928 31.3219 45.3291 31.2554 45.3556 31.2554C45.3655 31.2554 45.4283 31.307 45.4927 31.3718C45.6067 31.4815 45.653 31.5081 45.6761 31.4732C45.681 31.4632 45.6364 31.4017 45.577 31.3319C45.5175 31.2637 45.4696 31.2006 45.4696 31.1906C45.4696 31.1823 45.5142 31.1391 45.5687 31.0975C45.6645 31.0227 45.681 30.9895 45.6216 30.9895C45.6067 30.9895 45.5786 30.9995 45.5604 31.0094Z" fill="black"/>
<path fill-rule="evenodd" clip-rule="evenodd" d="M45.9749 31.0204C45.9369 31.0653 45.7833 31.4077 45.7833 31.4509C45.7833 31.519 45.8692 31.4858 45.8956 31.406C45.9138 31.3578 45.9171 31.3561 46.0212 31.3561C46.1087 31.3561 46.1368 31.3628 46.1632 31.3894C46.1814 31.4077 46.1963 31.4342 46.1963 31.4475C46.1963 31.4758 46.2442 31.5041 46.2756 31.4941C46.2855 31.4891 46.2954 31.4741 46.2954 31.4592C46.2954 31.416 46.117 31.0353 46.0856 31.0104C46.0459 30.9822 46.008 30.9855 45.9749 31.0204ZM46.0839 31.1916C46.1005 31.2481 46.0988 31.2614 46.079 31.2747C46.0459 31.2946 46.0261 31.293 45.9898 31.268C45.9617 31.2464 45.9617 31.2431 45.998 31.1766C46.0195 31.1384 46.0426 31.1118 46.0493 31.1168C46.0575 31.1218 46.0724 31.155 46.0839 31.1916Z" fill="black"/>
<path fill-rule="evenodd" clip-rule="evenodd" d="M46.4391 31.0017C46.4325 31.0067 46.4276 31.1164 46.4276 31.2427C46.4276 31.4372 46.4309 31.4754 46.454 31.4837C46.4937 31.4987 46.5151 31.4638 46.5234 31.364L46.53 31.2726H46.6159C46.6622 31.2726 46.7266 31.2676 46.7597 31.2626L46.8191 31.2527L46.8274 31.364C46.839 31.4987 46.8571 31.5219 46.9067 31.4721C46.9414 31.4372 46.943 31.4239 46.9364 31.236C46.9298 31.0649 46.9249 31.0333 46.8984 31.0133C46.8538 30.9801 46.8274 31.0117 46.8208 31.1031L46.8158 31.1812H46.6754H46.535L46.5267 31.1064C46.5218 31.0649 46.5118 31.0216 46.5052 31.01C46.4904 30.9884 46.4557 30.9834 46.4391 31.0017Z" fill="black"/>
<path fill-rule="evenodd" clip-rule="evenodd" d="M47.3232 31.01C47.3282 31.0216 47.3695 31.0349 47.4157 31.0399C47.462 31.0449 47.505 31.0548 47.5132 31.0632C47.5198 31.0698 47.5297 31.1612 47.5314 31.2643C47.5363 31.3989 47.5446 31.4587 47.5595 31.472C47.6008 31.5069 47.6123 31.4754 47.6223 31.2909C47.6338 31.0665 47.6454 31.0415 47.7329 31.0449C47.8023 31.0465 47.8255 31.0366 47.8073 31.0083C47.7908 30.98 47.315 30.9834 47.3232 31.01Z" fill="black"/>
<path fill-rule="evenodd" clip-rule="evenodd" d="M48.658 31.2106C48.658 31.4948 48.6629 31.5047 48.8282 31.5047C48.8942 31.5047 48.9719 31.4981 49.0033 31.4881C49.1239 31.4532 49.1701 31.3552 49.109 31.2621C49.0859 31.2255 49.0842 31.2106 49.1024 31.1624C49.1255 31.0992 49.1107 31.0576 49.0512 31.0161C49.0231 30.9962 48.9702 30.9895 48.8364 30.9895H48.658V31.2106ZM48.9471 31.0626C49.0066 31.0892 49.0231 31.1308 48.9851 31.169C48.9653 31.189 48.8282 31.1956 48.7835 31.179C48.7522 31.1673 48.7489 31.0876 48.7769 31.0593C48.8034 31.0327 48.8777 31.0344 48.9471 31.0626ZM49.0181 31.3003C49.0462 31.3385 49.0429 31.3618 49.0066 31.3951C48.9653 31.4316 48.8612 31.4466 48.8034 31.4233C48.7654 31.4083 48.7571 31.3951 48.7571 31.3469C48.7571 31.302 48.7654 31.2837 48.7951 31.2721C48.848 31.2488 48.9917 31.2687 49.0181 31.3003Z" fill="black"/>
<path fill-rule="evenodd" clip-rule="evenodd" d="M49.4627 31.01C49.4197 31.0432 49.2314 31.4571 49.2512 31.477C49.276 31.502 49.3173 31.4787 49.3536 31.4139C49.3883 31.3557 49.39 31.3557 49.5023 31.3557C49.6113 31.3557 49.6163 31.3573 49.6411 31.4039C49.6741 31.4704 49.7319 31.5103 49.7584 31.487C49.7832 31.4654 49.7683 31.4188 49.6609 31.1862C49.5766 31.0033 49.5287 30.9618 49.4627 31.01ZM49.5469 31.2111C49.5535 31.2809 49.5254 31.3025 49.4693 31.2726C49.4263 31.2493 49.4263 31.2377 49.4693 31.1828C49.5139 31.1247 49.5403 31.1346 49.5469 31.2111Z" fill="black"/>
</svg>
