<svg width="84" height="57" viewBox="0 0 84 57" fill="none" xmlns="http://www.w3.org/2000/svg">
<path d="M37.3063 7.26265C43.0344 7.06597 48.6074 9.11465 52.7993 12.958C56.9911 16.8013 59.4585 22.1245 59.6585 27.7565C59.8585 33.3885 57.7749 38.8679 53.8659 42.9894C49.957 47.1109 44.5429 49.5368 38.8148 49.7335L38.5508 42.3011C42.2741 42.1733 45.7932 40.5964 48.334 37.9175C50.8749 35.2385 52.2292 31.6769 52.0992 28.0161C51.9692 24.3553 50.3654 20.8952 47.6407 18.397C44.916 15.8989 41.2936 14.5672 37.5703 14.6951L37.3063 7.26265Z" fill="#FF0E56"/>
<path d="M38.8147 49.7335C33.0866 49.9302 27.5136 47.8815 23.3218 44.0382C19.1299 40.1948 16.6626 34.8716 16.4625 29.2396C16.2625 23.6077 18.3462 18.1282 22.2551 14.0067C26.1641 9.88524 31.5782 7.45932 37.3063 7.26265L37.5703 14.6951C33.847 14.8229 30.3278 16.3997 27.787 19.0787C25.2462 21.7577 23.8918 25.3193 24.0218 28.9801C24.1519 32.6409 25.7556 36.101 28.4803 38.5991C31.205 41.0973 34.8275 42.429 38.5508 42.3011L38.8147 49.7335Z" fill="#FFE39B"/>
<path d="M53.4304 16.0407L55.9755 12.8234H66.5194" stroke="black" stroke-width="0.145684"/>
<path d="M22.8039 41.7677L20.2588 44.985H9.7149" stroke="black" stroke-width="0.145684"/>
<path d="M2.63274 40.529C2.64762 40.5082 2.66547 40.4978 2.6863 40.4978H2.91839C2.94814 40.4978 2.96302 40.5127 2.96302 40.5424V43.5774C2.96302 43.6072 2.94814 43.6221 2.91839 43.6221H2.69076C2.66101 43.6221 2.64613 43.6072 2.64613 43.5774V41.1494C2.64613 41.1405 2.64315 41.1345 2.6372 41.1316C2.63125 41.1286 2.62679 41.1316 2.62381 41.1405L2.0302 42.1715C2.01532 42.1923 1.99747 42.2028 1.97664 42.2028H1.92754C1.90671 42.2028 1.88886 42.1923 1.87398 42.1715L1.27591 41.145C1.27293 41.136 1.26847 41.1331 1.26252 41.136C1.25656 41.139 1.25359 41.145 1.25359 41.1539V43.5774C1.25359 43.6072 1.23871 43.6221 1.20896 43.6221H0.98133C0.951575 43.6221 0.936697 43.6072 0.936697 43.5774V40.5424C0.936697 40.5127 0.951575 40.4978 0.98133 40.4978H1.21342C1.23425 40.4978 1.2521 40.5082 1.26698 40.529L1.94093 41.6761C1.94391 41.6791 1.94837 41.6805 1.95432 41.6805C1.96027 41.6805 1.96474 41.6791 1.96771 41.6761L2.63274 40.529ZM3.74482 43.6221C3.71507 43.6221 3.70019 43.6072 3.70019 43.5774V40.5424C3.70019 40.5127 3.71507 40.4978 3.74482 40.4978H3.97245C4.00221 40.4978 4.01708 40.5127 4.01708 40.5424V43.5774C4.01708 43.6072 4.00221 43.6221 3.97245 43.6221H3.74482ZM4.80398 43.6221C4.77422 43.6221 4.75935 43.6072 4.75935 43.5774V40.5424C4.75935 40.5127 4.77422 40.4978 4.80398 40.4978H5.0316C5.06136 40.4978 5.07624 40.5127 5.07624 40.5424V43.3275C5.07624 43.3394 5.08219 43.3453 5.09409 43.3453H6.3929C6.42266 43.3453 6.43753 43.3602 6.43753 43.39V43.5774C6.43753 43.6072 6.42266 43.6221 6.3929 43.6221H4.80398ZM6.95716 43.6221C6.9274 43.6221 6.91252 43.6072 6.91252 43.5774V40.5424C6.91252 40.5127 6.9274 40.4978 6.95716 40.4978H7.18478C7.21454 40.4978 7.22941 40.5127 7.22941 40.5424V42.0242C7.22941 42.0302 7.23239 42.0346 7.23834 42.0376C7.24429 42.0376 7.24876 42.0346 7.25173 42.0287L8.3854 40.5246C8.3973 40.5067 8.41664 40.4978 8.44342 40.4978H8.69337C8.71122 40.4978 8.72312 40.5037 8.72907 40.5156C8.73502 40.5246 8.73205 40.5365 8.72015 40.5513L7.82749 41.7743C7.82452 41.7832 7.82452 41.7921 7.82749 41.8011L8.80048 43.5685C8.80644 43.5804 8.80941 43.5893 8.80941 43.5953C8.80941 43.6131 8.79602 43.6221 8.76924 43.6221H8.51037C8.48359 43.6221 8.46574 43.6117 8.45681 43.5908L7.60879 42.051C7.60284 42.0361 7.5954 42.0361 7.58648 42.051L7.23834 42.4929C7.23239 42.4988 7.22941 42.5063 7.22941 42.5152V43.5774C7.22941 43.6072 7.21454 43.6221 7.18478 43.6221H6.95716ZM9.90403 43.6176C9.87427 43.6176 9.85939 43.6027 9.85939 43.573V42.2429C9.85939 42.231 9.85791 42.2236 9.85493 42.2206L9.08279 40.5513L9.07832 40.5335C9.07832 40.5097 9.09171 40.4978 9.11849 40.4978H9.35951C9.38331 40.4978 9.39968 40.5097 9.4086 40.5335L10.0067 41.868C10.0097 41.874 10.0141 41.8769 10.0201 41.8769C10.026 41.8769 10.0305 41.874 10.0335 41.868L10.6315 40.5335C10.6405 40.5097 10.6568 40.4978 10.6806 40.4978H10.9217C10.9365 40.4978 10.9469 40.5037 10.9529 40.5156C10.9618 40.5246 10.9633 40.5365 10.9574 40.5513L10.1807 42.2206C10.1778 42.2236 10.1763 42.231 10.1763 42.2429V43.573C10.1763 43.6027 10.1614 43.6176 10.1317 43.6176H9.90403ZM2.47206 48.6221C2.44826 48.6221 2.43189 48.6102 2.42296 48.5864L1.86952 47.2072C1.86654 47.1983 1.86059 47.1938 1.85167 47.1938H1.27591C1.264 47.1938 1.25805 47.1998 1.25805 47.2117V48.5774C1.25805 48.6072 1.24317 48.6221 1.21342 48.6221H0.985793C0.956038 48.6221 0.94116 48.6072 0.94116 48.5774V45.5424C0.94116 45.5127 0.956038 45.4978 0.985793 45.4978H1.93201C2.08673 45.4978 2.22361 45.5335 2.34263 45.6049C2.46462 45.6763 2.55835 45.7775 2.62381 45.9084C2.69225 46.0393 2.72647 46.1896 2.72647 46.3592C2.72647 46.5615 2.67737 46.7341 2.57918 46.8769C2.48099 47.0198 2.34709 47.115 2.17749 47.1626C2.16558 47.1685 2.16261 47.176 2.16856 47.1849L2.74432 48.5685L2.74878 48.5864C2.74878 48.6102 2.73539 48.6221 2.70861 48.6221H2.47206ZM1.27591 45.7745C1.264 45.7745 1.25805 45.7805 1.25805 45.7924V46.9216C1.25805 46.9335 1.264 46.9394 1.27591 46.9394H1.89184C2.04656 46.9394 2.17153 46.8859 2.26675 46.7787C2.36197 46.6716 2.40958 46.5318 2.40958 46.3592C2.40958 46.1836 2.36197 46.0423 2.26675 45.9352C2.17153 45.8281 2.04656 45.7745 1.89184 45.7745H1.27591ZM3.34383 48.6221C3.31407 48.6221 3.29919 48.6072 3.29919 48.5774V45.5424C3.29919 45.5127 3.31407 45.4978 3.34383 45.4978H3.57145C3.60121 45.4978 3.61609 45.5127 3.61609 45.5424V48.5774C3.61609 48.6072 3.60121 48.6221 3.57145 48.6221H3.34383ZM5.17513 48.6578C4.90436 48.6578 4.68565 48.5774 4.51903 48.4168C4.35537 48.2561 4.27355 48.0433 4.27355 47.7785V46.3369C4.27355 46.0721 4.35537 45.8608 4.51903 45.7031C4.68565 45.5424 4.90436 45.4621 5.17513 45.4621C5.44887 45.4621 5.66757 45.5409 5.83123 45.6986C5.99786 45.8563 6.08117 46.0661 6.08117 46.328V46.3681C6.08117 46.3979 6.06629 46.4128 6.03654 46.4128L5.80891 46.4217C5.77916 46.4217 5.76428 46.4083 5.76428 46.3815V46.319C5.76428 46.1464 5.70923 46.0066 5.59914 45.8995C5.49202 45.7924 5.35068 45.7388 5.17513 45.7388C4.99957 45.7388 4.85823 45.7924 4.75112 45.8995C4.644 46.0036 4.59044 46.1435 4.59044 46.319V47.8008C4.59044 47.9764 4.644 48.1177 4.75112 48.2248C4.85823 48.329 4.99957 48.3811 5.17513 48.3811C5.35068 48.3811 5.49202 48.3275 5.59914 48.2204C5.70923 48.1133 5.76428 47.9734 5.76428 47.8008V47.7383C5.76428 47.7116 5.77916 47.6982 5.80891 47.6982L6.03654 47.7116C6.06629 47.7116 6.08117 47.7264 6.08117 47.7562V47.7874C6.08117 48.0493 5.99786 48.2605 5.83123 48.4212C5.66757 48.5789 5.44887 48.6578 5.17513 48.6578ZM8.42602 45.7299C8.42602 45.7596 8.41115 45.7745 8.38139 45.7745H7.04241C7.03051 45.7745 7.02456 45.7805 7.02456 45.7924V46.8992C7.02456 46.9112 7.03051 46.9171 7.04241 46.9171H7.94399C7.97375 46.9171 7.98862 46.932 7.98862 46.9617V47.1492C7.98862 47.1789 7.97375 47.1938 7.94399 47.1938H7.04241C7.03051 47.1938 7.02456 47.1998 7.02456 47.2117V48.3275C7.02456 48.3394 7.03051 48.3453 7.04241 48.3453H8.38139C8.41115 48.3453 8.42602 48.3602 8.42602 48.39V48.5774C8.42602 48.6072 8.41115 48.6221 8.38139 48.6221H6.7523C6.72254 48.6221 6.70767 48.6072 6.70767 48.5774V45.5424C6.70767 45.5127 6.72254 45.4978 6.7523 45.4978H8.38139C8.41115 45.4978 8.42602 45.5127 8.42602 45.5424V45.7299ZM11.3441 47.1804C11.3828 47.3203 11.4021 47.481 11.4021 47.6625C11.4021 47.8142 11.3887 47.9451 11.3619 48.0552C11.3173 48.2486 11.228 48.3974 11.0942 48.5016C10.9632 48.6057 10.7981 48.6578 10.5987 48.6578C10.3964 48.6578 10.2283 48.6042 10.0944 48.4971C9.96048 48.39 9.8727 48.2397 9.83105 48.0463C9.81617 47.9927 9.80724 47.9377 9.80427 47.8812V47.8722C9.80427 47.8484 9.81766 47.8365 9.84444 47.8365H10.0765C10.1033 47.8365 10.1182 47.8484 10.1212 47.8722V47.8901L10.139 47.9794C10.1658 48.1073 10.2179 48.2055 10.2952 48.2739C10.3756 48.3424 10.4767 48.3766 10.5987 48.3766C10.7177 48.3766 10.8159 48.3424 10.8933 48.2739C10.9736 48.2025 11.0272 48.1028 11.054 47.9749C11.0748 47.8916 11.0852 47.7889 11.0852 47.6669C11.0852 47.5539 11.0733 47.4378 11.0495 47.3188C11.0227 47.1998 10.9707 47.1105 10.8933 47.051C10.8159 46.9885 10.7177 46.9573 10.5987 46.9573C10.4857 46.9573 10.3875 46.9841 10.3042 47.0376C10.2238 47.0882 10.1673 47.1626 10.1345 47.2608L10.1256 47.2786C10.1226 47.2995 10.1078 47.3099 10.081 47.3099H9.84444C9.81468 47.3099 9.7998 47.295 9.7998 47.2652V45.5424C9.7998 45.5127 9.81468 45.4978 9.84444 45.4978H11.2593C11.289 45.4978 11.3039 45.5127 11.3039 45.5424V45.7299C11.3039 45.7596 11.289 45.7745 11.2593 45.7745H10.1345C10.1226 45.7745 10.1167 45.7805 10.1167 45.7924V46.8859C10.1167 46.8918 10.1182 46.8963 10.1212 46.8992C10.1271 46.8992 10.1331 46.8963 10.139 46.8903C10.1985 46.8249 10.2729 46.7743 10.3622 46.7386C10.4544 46.6999 10.5526 46.6805 10.6568 46.6805C10.8323 46.6805 10.9781 46.7237 11.0942 46.81C11.2132 46.8933 11.2965 47.0168 11.3441 47.1804ZM12.714 48.6667C12.4581 48.6667 12.2528 48.5893 12.0981 48.4346C11.9434 48.2799 11.866 48.0731 11.866 47.8142V46.3056C11.866 46.0497 11.9434 45.8444 12.0981 45.6897C12.2528 45.535 12.4581 45.4576 12.714 45.4576C12.9729 45.4576 13.1797 45.535 13.3344 45.6897C13.4921 45.8444 13.571 46.0497 13.571 46.3056V47.8142C13.571 48.0731 13.4921 48.2799 13.3344 48.4346C13.1797 48.5893 12.9729 48.6667 12.714 48.6667ZM12.714 48.39C12.8777 48.39 13.0086 48.3394 13.1068 48.2382C13.205 48.1371 13.2541 48.0032 13.2541 47.8365V46.2878C13.2541 46.1212 13.205 45.9873 13.1068 45.8861C13.0086 45.7849 12.8777 45.7343 12.714 45.7343C12.5563 45.7343 12.4284 45.7849 12.3302 45.8861C12.232 45.9873 12.1829 46.1212 12.1829 46.2878V47.8365C12.1829 48.0002 12.232 48.1341 12.3302 48.2382C12.4284 48.3394 12.5563 48.39 12.714 48.39ZM14.8471 46.7252C14.731 46.7252 14.6239 46.6969 14.5257 46.6404C14.4305 46.5838 14.3546 46.508 14.2981 46.4128C14.2415 46.3146 14.2133 46.2074 14.2133 46.0914C14.2133 45.9754 14.2415 45.8697 14.2981 45.7745C14.3546 45.6763 14.4305 45.599 14.5257 45.5424C14.6239 45.4859 14.731 45.4576 14.8471 45.4576C14.9601 45.4576 15.0643 45.4859 15.1595 45.5424C15.2577 45.599 15.335 45.6763 15.3916 45.7745C15.4481 45.8697 15.4764 45.9754 15.4764 46.0914C15.4764 46.2074 15.4481 46.3146 15.3916 46.4128C15.335 46.508 15.2577 46.5838 15.1595 46.6404C15.0643 46.6969 14.9601 46.7252 14.8471 46.7252ZM14.7444 48.6221C14.7295 48.6221 14.7176 48.6176 14.7087 48.6087C14.7027 48.5968 14.7042 48.5834 14.7132 48.5685L16.3735 45.529C16.3824 45.5082 16.4003 45.4978 16.4271 45.4978H16.5699C16.5848 45.4978 16.5952 45.5037 16.6011 45.5156C16.6101 45.5246 16.6101 45.5365 16.6011 45.5513L14.9408 48.5908C14.9319 48.6117 14.914 48.6221 14.8872 48.6221H14.7444ZM14.8471 46.5288C14.9661 46.5288 15.0658 46.4871 15.1461 46.4038C15.2294 46.3175 15.2711 46.2134 15.2711 46.0914C15.2711 45.9694 15.2294 45.8667 15.1461 45.7834C15.0658 45.6971 14.9661 45.654 14.8471 45.654C14.728 45.654 14.6269 45.6971 14.5436 45.7834C14.4602 45.8667 14.4186 45.9694 14.4186 46.0914C14.4186 46.2134 14.4602 46.3175 14.5436 46.4038C14.6269 46.4871 14.728 46.5288 14.8471 46.5288ZM16.4851 48.6622C16.369 48.6622 16.2619 48.634 16.1637 48.5774C16.0685 48.5209 15.9926 48.4435 15.9361 48.3453C15.8796 48.2472 15.8513 48.14 15.8513 48.024C15.8513 47.9109 15.8796 47.8068 15.9361 47.7116C15.9926 47.6134 16.0685 47.536 16.1637 47.4795C16.2619 47.4229 16.369 47.3947 16.4851 47.3947C16.5981 47.3947 16.7023 47.4229 16.7975 47.4795C16.8957 47.536 16.9731 47.6134 17.0296 47.7116C17.0861 47.8068 17.1144 47.9109 17.1144 48.024C17.1144 48.14 17.0861 48.2472 17.0296 48.3453C16.9731 48.4435 16.8957 48.5209 16.7975 48.5774C16.7023 48.634 16.5981 48.6622 16.4851 48.6622ZM16.4851 48.4659C16.6041 48.4659 16.7038 48.4227 16.7841 48.3364C16.8674 48.2501 16.9091 48.146 16.9091 48.024C16.9091 47.902 16.8674 47.7993 16.7841 47.716C16.7038 47.6327 16.6041 47.5911 16.4851 47.5911C16.3661 47.5911 16.2649 47.6327 16.1816 47.716C16.0983 47.7993 16.0566 47.902 16.0566 48.024C16.0566 48.149 16.0968 48.2546 16.1771 48.3409C16.2604 48.4242 16.3631 48.4659 16.4851 48.4659Z" fill="#404040"/>
<path d="M57.5678 7.91471C57.8059 7.91471 57.9978 7.99505 58.1436 8.15572C58.2924 8.31343 58.3667 8.5232 58.3667 8.78504C58.3667 9.04391 58.2924 9.2522 58.1436 9.4099C57.9978 9.56463 57.8059 9.64199 57.5678 9.64199H56.9028C56.8909 9.64199 56.8849 9.64794 56.8849 9.65984V10.9988C56.8849 11.0286 56.8701 11.0435 56.8403 11.0435H56.6127C56.5829 11.0435 56.5681 11.0286 56.5681 10.9988V7.95934C56.5681 7.92958 56.5829 7.91471 56.6127 7.91471H57.5678ZM57.5277 9.37866C57.6854 9.37866 57.8118 9.3251 57.907 9.21798C58.0022 9.11086 58.0499 8.96804 58.0499 8.78951C58.0499 8.608 58.0022 8.46369 57.907 8.35657C57.8118 8.24648 57.6854 8.19143 57.5277 8.19143H56.9028C56.8909 8.19143 56.8849 8.19738 56.8849 8.20928V9.36081C56.8849 9.37271 56.8909 9.37866 56.9028 9.37866H57.5277ZM58.9363 11.0435C58.9065 11.0435 58.8916 11.0286 58.8916 10.9988V7.9638C58.8916 7.93405 58.9065 7.91917 58.9363 7.91917H59.1639C59.1936 7.91917 59.2085 7.93405 59.2085 7.9638V10.9988C59.2085 11.0286 59.1936 11.0435 59.1639 11.0435H58.9363ZM61.504 7.9638C61.504 7.93405 61.5189 7.91917 61.5486 7.91917H61.7763C61.806 7.91917 61.8209 7.93405 61.8209 7.9638V10.9988C61.8209 11.0286 61.806 11.0435 61.7763 11.0435H61.5352C61.5085 11.0435 61.4906 11.033 61.4817 11.0122L60.2855 8.62437C60.2796 8.61842 60.2736 8.61544 60.2677 8.61544C60.2647 8.61544 60.2632 8.6199 60.2632 8.62883L60.2677 10.9988C60.2677 11.0286 60.2528 11.0435 60.223 11.0435H59.9954C59.9657 11.0435 59.9508 11.0286 59.9508 10.9988V7.9638C59.9508 7.93405 59.9657 7.91917 59.9954 7.91917H60.2364C60.2632 7.91917 60.2811 7.92958 60.29 7.95041L61.4862 10.3472C61.4921 10.3531 61.4966 10.3561 61.4995 10.3561C61.5055 10.3561 61.5085 10.3517 61.5085 10.3427L61.504 7.9638ZM62.6063 11.0435C62.5765 11.0435 62.5616 11.0286 62.5616 10.9988V7.9638C62.5616 7.93405 62.5765 7.91917 62.6063 7.91917H62.8339C62.8636 7.91917 62.8785 7.93405 62.8785 7.9638V9.44561C62.8785 9.45156 62.8815 9.45602 62.8874 9.459C62.8934 9.459 62.8979 9.45602 62.9008 9.45007L64.0345 7.94595C64.0464 7.9281 64.0657 7.91917 64.0925 7.91917H64.3425C64.3603 7.91917 64.3722 7.92512 64.3782 7.93702C64.3841 7.94595 64.3812 7.95785 64.3692 7.97273L63.4766 9.19566C63.4736 9.20459 63.4736 9.21352 63.4766 9.22244L64.4496 10.9899C64.4555 11.0018 64.4585 11.0107 64.4585 11.0167C64.4585 11.0345 64.4451 11.0435 64.4183 11.0435H64.1595C64.1327 11.0435 64.1148 11.033 64.1059 11.0122L63.2579 9.47239C63.2519 9.45751 63.2445 9.45751 63.2356 9.47239L62.8874 9.91425C62.8815 9.9202 62.8785 9.92764 62.8785 9.93657V10.9988C62.8785 11.0286 62.8636 11.0435 62.8339 11.0435H62.6063ZM66.6243 7.95041C66.6392 7.92958 66.657 7.91917 66.6779 7.91917H66.91C66.9397 7.91917 66.9546 7.93405 66.9546 7.9638V10.9988C66.9546 11.0286 66.9397 11.0435 66.91 11.0435H66.6823C66.6526 11.0435 66.6377 11.0286 66.6377 10.9988V8.57081C66.6377 8.56188 66.6347 8.55593 66.6288 8.55295C66.6228 8.54998 66.6184 8.55295 66.6154 8.56188L66.0218 9.5929C66.0069 9.61372 65.989 9.62414 65.9682 9.62414H65.9191C65.8983 9.62414 65.8804 9.61372 65.8656 9.5929L65.2675 8.56634C65.2645 8.55742 65.26 8.55444 65.2541 8.55742C65.2481 8.56039 65.2452 8.56634 65.2452 8.57527V10.9988C65.2452 11.0286 65.2303 11.0435 65.2005 11.0435H64.9729C64.9432 11.0435 64.9283 11.0286 64.9283 10.9988V7.9638C64.9283 7.93405 64.9432 7.91917 64.9729 7.91917H65.205C65.2258 7.91917 65.2437 7.92958 65.2586 7.95041L65.9325 9.09747C65.9355 9.10045 65.9399 9.10194 65.9459 9.10194C65.9518 9.10194 65.9563 9.10045 65.9593 9.09747L66.6243 7.95041ZM69.2048 11.0435C69.178 11.0435 69.1617 11.0301 69.1557 11.0033L69.0084 10.4454C69.0055 10.4365 68.998 10.432 68.9861 10.432H67.9194C67.9075 10.432 67.9001 10.4365 67.8971 10.4454L67.7498 11.0033C67.7438 11.0301 67.7275 11.0435 67.7007 11.0435H67.4686C67.4537 11.0435 67.4418 11.039 67.4329 11.0301C67.4269 11.0211 67.4255 11.0092 67.4284 10.9944L68.2631 7.95934C68.269 7.93256 68.2854 7.91917 68.3122 7.91917H68.5978C68.6246 7.91917 68.641 7.93256 68.6469 7.95934L69.4815 10.9944L69.486 11.0078C69.486 11.0316 69.4711 11.0435 69.4414 11.0435H69.2048ZM67.973 10.1553C67.97 10.1582 67.97 10.1627 67.973 10.1687C67.9789 10.1716 67.9849 10.1731 67.9908 10.1731H68.9147C68.9207 10.1731 68.9251 10.1716 68.9281 10.1687C68.934 10.1627 68.9355 10.1582 68.9326 10.1553L68.4594 8.36103C68.4565 8.35508 68.4535 8.35211 68.4505 8.35211C68.4475 8.35211 68.4446 8.35508 68.4416 8.36103L67.973 10.1553ZM71.5115 7.9638C71.5115 7.93405 71.5264 7.91917 71.5561 7.91917H71.7837C71.8135 7.91917 71.8284 7.93405 71.8284 7.9638V10.9988C71.8284 11.0286 71.8135 11.0435 71.7837 11.0435H71.5427C71.5159 11.0435 71.4981 11.033 71.4892 11.0122L70.293 8.62437C70.2871 8.61842 70.2811 8.61544 70.2752 8.61544C70.2722 8.61544 70.2707 8.6199 70.2707 8.62883L70.2752 10.9988C70.2752 11.0286 70.2603 11.0435 70.2305 11.0435H70.0029C69.9731 11.0435 69.9583 11.0286 69.9583 10.9988V7.9638C69.9583 7.93405 69.9731 7.91917 70.0029 7.91917H70.2439C70.2707 7.91917 70.2886 7.92958 70.2975 7.95041L71.4936 10.3472C71.4996 10.3531 71.504 10.3561 71.507 10.3561C71.513 10.3561 71.5159 10.3517 71.5159 10.3427L71.5115 7.9638ZM74.8998 9.60182C74.9385 9.74167 74.9578 9.90235 74.9578 10.0839C74.9578 10.2356 74.9444 10.3665 74.9177 10.4766C74.873 10.67 74.7838 10.8188 74.6499 10.9229C74.5189 11.0271 74.3538 11.0792 74.1544 11.0792C73.9521 11.0792 73.784 11.0256 73.6501 10.9185C73.5162 10.8114 73.4284 10.6611 73.3868 10.4677C73.3719 10.4141 73.363 10.3591 73.36 10.3026V10.2936C73.36 10.2698 73.3734 10.2579 73.4001 10.2579H73.6322C73.659 10.2579 73.6739 10.2698 73.6769 10.2936V10.3115L73.6947 10.4007C73.7215 10.5287 73.7736 10.6269 73.8509 10.6953C73.9313 10.7638 74.0324 10.798 74.1544 10.798C74.2735 10.798 74.3717 10.7638 74.449 10.6953C74.5294 10.6239 74.5829 10.5242 74.6097 10.3963C74.6305 10.313 74.6409 10.2103 74.6409 10.0883C74.6409 9.97525 74.629 9.8592 74.6052 9.74018C74.5784 9.62116 74.5264 9.5319 74.449 9.47239C74.3717 9.4099 74.2735 9.37866 74.1544 9.37866C74.0414 9.37866 73.9432 9.40544 73.8599 9.459C73.7795 9.50958 73.723 9.58397 73.6903 9.68216L73.6813 9.70001C73.6784 9.72084 73.6635 9.73126 73.6367 9.73126H73.4001C73.3704 9.73126 73.3555 9.71638 73.3555 9.68662V7.9638C73.3555 7.93405 73.3704 7.91917 73.4001 7.91917H74.815C74.8448 7.91917 74.8596 7.93405 74.8596 7.9638V8.15126C74.8596 8.18102 74.8448 8.19589 74.815 8.19589H73.6903C73.6784 8.19589 73.6724 8.20184 73.6724 8.21375V9.30725C73.6724 9.3132 73.6739 9.31766 73.6769 9.32064C73.6828 9.32064 73.6888 9.31766 73.6947 9.31171C73.7542 9.24625 73.8286 9.19566 73.9179 9.15996C74.0101 9.12128 74.1083 9.10194 74.2125 9.10194C74.388 9.10194 74.5338 9.14508 74.6499 9.23137C74.7689 9.31469 74.8522 9.43817 74.8998 9.60182ZM76.2697 11.0881C76.0139 11.0881 75.8085 11.0107 75.6538 10.856C75.4991 10.7013 75.4217 10.4945 75.4217 10.2356V8.72702C75.4217 8.47113 75.4991 8.26582 75.6538 8.11109C75.8085 7.95636 76.0139 7.879 76.2697 7.879C76.5286 7.879 76.7354 7.95636 76.8901 8.11109C77.0478 8.26582 77.1267 8.47113 77.1267 8.72702V10.2356C77.1267 10.4945 77.0478 10.7013 76.8901 10.856C76.7354 11.0107 76.5286 11.0881 76.2697 11.0881ZM76.2697 10.8114C76.4334 10.8114 76.5643 10.7608 76.6625 10.6596C76.7607 10.5584 76.8098 10.4246 76.8098 10.2579V8.70917C76.8098 8.54254 76.7607 8.40864 76.6625 8.30747C76.5643 8.20631 76.4334 8.15572 76.2697 8.15572C76.112 8.15572 75.9841 8.20631 75.8859 8.30747C75.7877 8.40864 75.7386 8.54254 75.7386 8.70917V10.2579C75.7386 10.4216 75.7877 10.5555 75.8859 10.6596C75.9841 10.7608 76.112 10.8114 76.2697 10.8114ZM78.4028 9.14657C78.2867 9.14657 78.1796 9.1183 78.0814 9.06177C77.9862 9.00523 77.9103 8.92936 77.8538 8.83414C77.7973 8.73595 77.769 8.62883 77.769 8.51278C77.769 8.39674 77.7973 8.29111 77.8538 8.19589C77.9103 8.0977 77.9862 8.02034 78.0814 7.9638C78.1796 7.90727 78.2867 7.879 78.4028 7.879C78.5158 7.879 78.62 7.90727 78.7152 7.9638C78.8134 8.02034 78.8908 8.0977 78.9473 8.19589C79.0038 8.29111 79.0321 8.39674 79.0321 8.51278C79.0321 8.62883 79.0038 8.73595 78.9473 8.83414C78.8908 8.92936 78.8134 9.00523 78.7152 9.06177C78.62 9.1183 78.5158 9.14657 78.4028 9.14657ZM78.3001 11.0435C78.2852 11.0435 78.2733 11.039 78.2644 11.0301C78.2585 11.0182 78.2599 11.0048 78.2689 10.9899L79.9292 7.95041C79.9381 7.92958 79.956 7.91917 79.9828 7.91917H80.1256C80.1405 7.91917 80.1509 7.92512 80.1568 7.93702C80.1658 7.94595 80.1658 7.95785 80.1568 7.97273L78.4965 11.0122C78.4876 11.033 78.4697 11.0435 78.4429 11.0435H78.3001ZM78.4028 8.95019C78.5218 8.95019 78.6215 8.90853 78.7018 8.82521C78.7851 8.73892 78.8268 8.63478 78.8268 8.51278C78.8268 8.39079 78.7851 8.28813 78.7018 8.20482C78.6215 8.11853 78.5218 8.07538 78.4028 8.07538C78.2837 8.07538 78.1826 8.11853 78.0993 8.20482C78.016 8.28813 77.9743 8.39079 77.9743 8.51278C77.9743 8.63478 78.016 8.73892 78.0993 8.82521C78.1826 8.90853 78.2837 8.95019 78.4028 8.95019ZM80.0408 11.0836C79.9247 11.0836 79.8176 11.0554 79.7194 10.9988C79.6242 10.9423 79.5483 10.8649 79.4918 10.7667C79.4353 10.6685 79.407 10.5614 79.407 10.4454C79.407 10.3323 79.4353 10.2282 79.4918 10.133C79.5483 10.0348 79.6242 9.9574 79.7194 9.90086C79.8176 9.84433 79.9247 9.81606 80.0408 9.81606C80.1539 9.81606 80.258 9.84433 80.3532 9.90086C80.4514 9.9574 80.5288 10.0348 80.5853 10.133C80.6418 10.2282 80.6701 10.3323 80.6701 10.4454C80.6701 10.5614 80.6418 10.6685 80.5853 10.7667C80.5288 10.8649 80.4514 10.9423 80.3532 10.9988C80.258 11.0554 80.1539 11.0836 80.0408 11.0836ZM80.0408 10.8872C80.1598 10.8872 80.2595 10.8441 80.3398 10.7578C80.4231 10.6715 80.4648 10.5674 80.4648 10.4454C80.4648 10.3234 80.4231 10.2207 80.3398 10.1374C80.2595 10.0541 80.1598 10.0124 80.0408 10.0124C79.9218 10.0124 79.8206 10.0541 79.7373 10.1374C79.654 10.2207 79.6123 10.3234 79.6123 10.4454C79.6123 10.5704 79.6525 10.676 79.7328 10.7623C79.8161 10.8456 79.9188 10.8872 80.0408 10.8872Z" fill="#404040"/>
<path fill-rule="evenodd" clip-rule="evenodd" d="M35.0937 23.7703L34.9423 23.7844L34.9353 23.9765L34.9283 24.171H35.1705C35.3033 24.171 35.6037 24.178 35.8343 24.1874L36.2581 24.2014V26.8889C36.2581 29.506 36.2675 30.0753 36.3094 30.0753C36.3187 30.0753 36.3886 30.0285 36.4631 29.9699C36.5702 29.8856 36.6308 29.8574 36.7775 29.8246L36.9568 29.7825V26.992V24.2014L37.6136 24.1874C38.1027 24.1757 38.275 24.1639 38.289 24.1429C38.3146 24.1007 38.3123 23.8617 38.2866 23.8219C38.2727 23.8008 38.2051 23.7797 38.1283 23.7703C37.9699 23.7492 35.3172 23.7516 35.0937 23.7703Z" fill="#323232"/>
<path fill-rule="evenodd" clip-rule="evenodd" d="M39.2717 23.7667C39.2251 23.7761 39.2228 23.7901 39.2088 24.4602C39.1995 24.8375 39.1925 25.606 39.1925 26.1683V27.1945H38.6802H38.1678V26.1917C38.1678 25.6411 38.1608 25.0085 38.1515 24.7859L38.1375 24.3829H37.8184H37.4971L37.4808 25.1139C37.4714 25.5169 37.4691 26.7704 37.4738 27.8974L37.4808 29.9475L37.5343 30.0624C37.5995 30.2076 37.5995 30.2803 37.5273 30.4513C37.4481 30.6387 37.4528 30.6809 37.546 30.7184C37.6857 30.777 37.8091 30.7863 37.9465 30.7442C38.1655 30.6809 38.1538 30.777 38.1631 29.0267L38.1724 27.5225H38.6825H39.1925V28.851C39.1925 29.5844 39.1995 30.3318 39.2088 30.5122L39.2228 30.8449L39.3113 30.873C39.4068 30.9058 39.5046 30.8894 39.7398 30.8004L39.8679 30.7535L39.8656 27.9255C39.8633 26.3698 39.8539 24.7976 39.8469 24.4298L39.833 23.762L39.5768 23.7597C39.4371 23.7573 39.2996 23.7597 39.2717 23.7667Z" fill="#323232"/>
<path fill-rule="evenodd" clip-rule="evenodd" d="M34.2364 24.5701C33.9406 24.6123 33.7334 24.7224 33.6379 24.8841C33.554 25.0293 33.5331 25.2098 33.5331 25.7627C33.5331 26.6226 33.5377 26.6296 34.5112 28.0729C34.7488 28.4267 34.7837 28.4853 34.8955 28.736C34.9957 28.9586 35.005 28.996 35.0236 29.2514C35.0352 29.4014 35.0469 29.8138 35.0469 30.1629C35.0469 30.5143 35.0539 30.8025 35.0655 30.8025C35.0748 30.8025 35.2216 30.7814 35.3916 30.7533L35.7013 30.7018L35.6943 29.8208L35.6873 28.9398L35.5872 28.6891C35.4754 28.4126 35.2681 28.0659 34.814 27.4051C34.651 27.1662 34.4553 26.8616 34.3831 26.7304L34.2481 26.489L34.2248 25.8283C34.2015 25.102 34.2131 24.9684 34.3156 24.8677C34.3808 24.8021 34.46 24.781 34.651 24.781C34.835 24.781 34.9188 24.8161 34.9817 24.9169C35.0329 25.0012 35.0352 25.0223 35.0469 25.7932C35.0562 26.393 35.0655 26.5898 35.0888 26.6132C35.1261 26.6507 35.6012 26.6671 35.6524 26.6343C35.6827 26.6132 35.6873 26.4984 35.6943 25.8822C35.7013 25.1137 35.6873 24.9427 35.6058 24.8278C35.5499 24.7482 35.3217 24.6334 35.14 24.5935C34.9747 24.5584 34.4274 24.5443 34.2364 24.5701Z" fill="#323232"/>
<path fill-rule="evenodd" clip-rule="evenodd" d="M41.2025 24.6171C40.8346 24.6686 40.6413 24.7671 40.5295 24.9592C40.4689 25.0599 40.4643 25.0974 40.448 25.4114C40.4386 25.5988 40.4293 26.8687 40.4293 28.23L40.427 30.7066L40.5039 30.7628C40.6739 30.894 40.8089 30.9057 41.0046 30.8097L41.0907 30.7675L41.0977 29.3781L41.1024 27.991H41.5216H41.9408V29.3828V30.7745L42.0922 30.8729L42.2459 30.9737L42.3926 30.9104C42.4765 30.8753 42.5603 30.8308 42.5859 30.8144C42.6255 30.7839 42.6278 30.6972 42.6348 28.9704C42.6441 26.8781 42.6139 25.2357 42.5626 25.0435C42.4858 24.753 42.2273 24.6382 41.5798 24.6077C41.4517 24.603 41.2817 24.6054 41.2025 24.6171ZM41.7545 24.8725C41.8057 24.8983 41.8523 24.9475 41.8826 25.006C41.9245 25.0927 41.9268 25.163 41.9362 26.2572C41.9408 26.8945 41.9362 27.4803 41.9245 27.5576L41.9059 27.6982L41.5798 27.7052C41.4005 27.7099 41.2188 27.7052 41.1792 27.6982L41.1024 27.6841V26.6719C41.1047 25.5426 41.1257 25.0834 41.1792 24.9779C41.2608 24.8186 41.5426 24.7671 41.7545 24.8725Z" fill="#323232"/>
<path fill-rule="evenodd" clip-rule="evenodd" d="M31.0549 25.6501C31.0479 25.7298 31.041 26.7256 31.041 27.8619V29.9285L31.2063 29.9449C31.2971 29.9519 31.4322 29.98 31.5067 30.0058C31.5836 30.0315 31.6558 30.0526 31.6698 30.0526C31.6954 30.0526 31.7047 25.8071 31.6791 25.615L31.6628 25.5072H31.367H31.0712L31.0549 25.6501Z" fill="#323232"/>
<path fill-rule="evenodd" clip-rule="evenodd" d="M32.3754 25.5356C32.3405 25.5894 32.3032 29.91 32.3358 30.074C32.3544 30.1583 32.3894 30.1653 32.4522 30.0974C32.5198 30.0224 32.6199 29.9802 32.7969 29.9498L32.9623 29.9217L32.9763 29.5936C32.9972 29.1649 32.9972 25.8402 32.9763 25.6597L32.9623 25.5192L32.6781 25.5121C32.4685 25.5074 32.3894 25.5145 32.3754 25.5356Z" fill="#323232"/>
<path fill-rule="evenodd" clip-rule="evenodd" d="M43.2103 25.5467C43.1986 25.5701 43.187 26.3011 43.18 27.1727L43.1707 28.7543L43.2452 29.094C43.4152 29.8648 43.5969 30.5584 43.6807 30.7622C43.7879 31.0129 44.037 30.9098 44.037 30.617C44.037 30.5443 44.0254 30.4108 44.0114 30.3217C43.8833 29.4431 43.8554 28.9394 43.8321 26.9829L43.8158 25.5186L43.5224 25.5115C43.2592 25.5069 43.2266 25.5092 43.2103 25.5467Z" fill="#323232"/>
<path fill-rule="evenodd" clip-rule="evenodd" d="M44.5123 25.5325C44.503 25.5489 44.4867 26.2916 44.4774 27.1796C44.4681 28.07 44.4495 28.8994 44.4355 29.0212C44.3726 29.5976 44.3447 29.8811 44.347 29.9467C44.3493 29.9842 44.3423 30.099 44.3307 30.1998C44.3121 30.3849 44.3121 30.3849 44.3633 30.3568C44.3912 30.3427 44.4681 30.2794 44.5333 30.2209C44.6008 30.1599 44.694 30.0803 44.7429 30.0428C44.7918 30.0053 44.8477 29.9444 44.8663 29.9092C44.9152 29.8132 45.0806 29.0681 45.1086 28.808C45.1388 28.5503 45.1318 25.5677 45.1016 25.5372C45.0899 25.5278 44.9572 25.5161 44.8058 25.5114C44.6008 25.5044 44.5263 25.5114 44.5123 25.5325Z" fill="#323232"/>
<path fill-rule="evenodd" clip-rule="evenodd" d="M30.1583 26.4446L29.8462 26.4563L29.6179 27.6161C29.4922 28.2534 29.385 28.7899 29.3827 28.8087C29.3711 28.8696 29.3245 28.8602 29.2965 28.7946C29.2826 28.7595 29.257 28.6493 29.2383 28.5533C29.222 28.4572 29.1358 28.0355 29.0497 27.6161C28.9635 27.1967 28.875 26.7656 28.854 26.6554L28.8168 26.4563L28.4931 26.4493L28.1693 26.4422L28.1833 28.0284C28.1926 28.9024 28.1996 30.0153 28.1996 30.5027V31.3883H28.5257H28.8517L28.854 30.5261C28.854 30.0528 28.8634 29.6123 28.875 29.5491C28.8843 29.4835 28.8936 29.4389 28.896 29.4483C28.9495 29.7342 29.0823 30.4675 29.0939 30.5472C29.1195 30.7206 29.1475 30.744 29.3315 30.7416C29.4596 30.7416 29.4945 30.7323 29.5248 30.6924C29.5504 30.662 29.5946 30.4628 29.6529 30.1208C29.7018 29.8326 29.7507 29.5795 29.7623 29.5608C29.774 29.5373 29.7833 29.5983 29.7833 29.7248C29.7833 30.0434 29.8112 30.3129 29.8415 30.3246C29.8578 30.3316 29.916 30.3058 29.9719 30.2684C30.0278 30.2309 30.1583 30.1653 30.2607 30.1231C30.3632 30.0786 30.454 30.0364 30.4657 30.0294C30.475 30.0223 30.4796 29.2093 30.4773 28.2229L30.4703 26.4329L30.1583 26.4446Z" fill="#323232"/>
<path fill-rule="evenodd" clip-rule="evenodd" d="M45.7235 26.4729C45.7118 26.4893 45.7002 27.2508 45.6955 28.1669L45.6862 29.8305L45.7793 29.8844C45.968 29.9898 46.0542 30.1561 46.0332 30.3717C46.0169 30.5263 45.9517 30.6763 45.812 30.8825C45.7118 31.0277 45.7025 31.0535 45.7025 31.18C45.7025 31.2714 45.7141 31.33 45.7374 31.3511C45.777 31.3909 46.0984 31.405 46.7342 31.3932L47.1115 31.3886V31.2152V31.0441L46.7808 31.0277C46.5991 31.0184 46.4454 31.0067 46.4408 31.0043C46.4361 30.9996 46.4268 30.5427 46.4198 29.9898L46.4058 28.9823L46.6224 28.9682C46.7412 28.9589 46.8833 28.9518 46.9368 28.9518C47.0533 28.9518 47.0672 28.9237 47.0486 28.7269L47.0346 28.6004H46.7249H46.4128V27.7124C46.4128 27.1079 46.4198 26.8174 46.4384 26.808C46.4524 26.7986 46.6015 26.7846 46.7691 26.7775L47.0766 26.7611V26.6088V26.4565L46.4082 26.4495C45.8935 26.4448 45.7374 26.4519 45.7235 26.4729Z" fill="#323232"/>
<path fill-rule="evenodd" clip-rule="evenodd" d="M33.5306 29.1763C33.5003 29.256 33.5213 30.0901 33.5586 30.2658C33.5749 30.3361 33.5725 30.4064 33.5586 30.4767C33.5236 30.6196 33.5283 30.7391 33.5655 30.7907C33.5958 30.8328 33.6028 30.8328 33.8497 30.7813C33.9894 30.7508 34.1268 30.7227 34.1571 30.7157L34.2107 30.704L34.2037 29.9355C34.199 29.5114 34.1874 29.1576 34.178 29.1482C34.1687 29.1365 34.0243 29.1248 33.859 29.1201L33.5562 29.1107L33.5306 29.1763Z" fill="#323232"/>
<path fill-rule="evenodd" clip-rule="evenodd" d="M36.8163 30.1726C36.7278 30.2077 36.616 30.3272 36.4856 30.5217C36.3738 30.6904 36.0035 31.1777 35.9872 31.1777C35.9849 31.1777 35.943 31.1543 35.8964 31.1285C35.8196 31.0816 35.7869 31.0793 35.5867 31.091C35.1884 31.1121 34.9415 31.241 34.5503 31.6276C34.2266 31.9486 33.9401 32.136 33.8795 32.0751C33.8632 32.0587 33.9168 31.9767 34.0379 31.8338C34.4059 31.3933 34.4059 31.3933 34.3896 31.2574C34.3849 31.2129 34.357 31.173 34.3011 31.1355C34.187 31.0582 34.0193 31.0746 33.7608 31.1894C33.6536 31.2363 33.5535 31.2808 33.5395 31.2878C33.5232 31.2949 33.4999 31.2738 33.4883 31.241C33.4347 31.1004 33.2647 31.1027 33.1343 31.2433C33.09 31.2902 32.9922 31.4073 32.9177 31.501C32.6895 31.7916 32.2912 32.1009 32.1049 32.1313C31.8604 32.1711 32.035 31.8291 32.6592 31.0488C33.1157 30.4772 33.1762 30.3694 33.0691 30.3108C32.9946 30.2733 32.8292 30.2827 32.7477 30.3319C32.7081 30.3577 32.5497 30.5334 32.396 30.7255C32.0886 31.1098 31.6531 31.5479 31.3736 31.7564C31.0592 31.9907 30.6749 32.143 30.5864 32.0681C30.4863 31.986 30.6074 31.7845 31.1314 31.159C31.2642 30.9996 31.4062 30.8145 31.4505 30.7489C31.5366 30.6154 31.5529 30.4959 31.4947 30.4115C31.4085 30.2874 31.0476 30.2522 30.7238 30.3342C30.272 30.449 29.9832 30.6951 30.1626 30.8145C30.2371 30.8614 30.3372 30.8309 30.6167 30.6716C30.8449 30.5451 31.0732 30.4748 31.1174 30.5193C31.1477 30.5498 31.0173 30.7185 30.6679 31.0957C30.2278 31.569 30.0904 31.8056 30.116 32.0399C30.1346 32.2157 30.3349 32.3703 30.5422 32.3726C30.7704 32.3726 31.1035 32.218 31.3643 31.986C31.4598 31.9017 31.5506 31.8338 31.5692 31.8338C31.6065 31.8338 31.6065 31.8291 31.5646 31.9486C31.5227 32.0704 31.5529 32.1665 31.6671 32.2625C31.8184 32.389 32.0234 32.3984 32.2703 32.2883C32.4146 32.2227 32.4962 32.2157 32.5171 32.2672C32.5264 32.2906 32.5637 32.3024 32.6336 32.3024C32.736 32.3024 32.7407 32.3 32.9061 32.0962C33.1436 31.8056 33.2903 31.658 33.451 31.5409C33.8306 31.2667 34.1031 31.2363 33.9122 31.4893C33.8749 31.5362 33.7794 31.6487 33.6979 31.7424C33.4743 31.9978 33.4277 32.1594 33.5465 32.2531C33.5977 32.293 33.642 32.3024 33.7817 32.3024C33.9634 32.3024 34.0216 32.2813 34.2475 32.1383C34.3081 32.0985 34.371 32.0681 34.3873 32.0681C34.4036 32.0681 34.4362 32.1079 34.4618 32.1594C34.5177 32.2696 34.6085 32.3094 34.7902 32.3094C34.9532 32.307 35.1092 32.2414 35.2606 32.1126C35.3212 32.0634 35.3794 32.0212 35.3934 32.0212C35.4073 32.0212 35.419 32.054 35.419 32.0938C35.419 32.1407 35.4423 32.1875 35.4865 32.2344C35.5447 32.293 35.5727 32.3024 35.6798 32.3024C35.8265 32.3024 36.0012 32.2274 36.1829 32.0868C36.2504 32.0353 36.311 31.9978 36.3179 32.0048C36.3249 32.0118 36.3482 32.0517 36.3715 32.0962C36.3948 32.1383 36.4623 32.2086 36.5229 32.2485C36.6207 32.3164 36.6556 32.3258 36.7814 32.3258C36.9863 32.3258 37.1517 32.2883 37.3287 32.2063C37.536 32.1102 37.6734 31.9978 38.0507 31.6346C38.2999 31.3909 38.3907 31.3183 38.4536 31.3066C38.6306 31.2714 38.6236 31.2949 38.3767 31.576C38.0018 31.9978 37.9366 32.1477 38.0763 32.2649C38.2184 32.3844 38.5141 32.3305 38.8122 32.1313C38.8984 32.0727 38.9846 32.0212 38.9985 32.0165C39.0148 32.0118 39.0451 32.047 39.0684 32.0915C39.2081 32.3656 39.6087 32.3984 40.0536 32.1735C40.1374 32.1313 40.2212 32.0798 40.2375 32.0587C40.2841 32.0024 40.3027 32.0095 40.4518 32.1477C40.6172 32.3024 40.7057 32.3352 40.9246 32.3211C41.1412 32.307 41.2995 32.2297 41.5301 32.0259C41.7607 31.8267 41.9167 31.7119 41.9493 31.7236C41.9656 31.7283 41.9726 31.7963 41.9679 31.9064C41.9563 32.1969 42.0425 32.3024 42.2917 32.3024C42.4896 32.3024 42.6317 32.2485 42.7877 32.1173C42.8646 32.0517 42.9344 32.0048 42.9461 32.0118C42.9554 32.0188 42.9647 32.061 42.9647 32.1055C42.9647 32.2367 43.0486 32.3024 43.2139 32.3024C43.3653 32.3024 43.4748 32.2578 43.6518 32.129C43.7146 32.0821 43.7822 32.0446 43.7985 32.0446C43.8125 32.0446 43.8451 32.0891 43.866 32.1407C43.9545 32.368 44.3132 32.3867 44.6089 32.1829C44.7673 32.0751 45.1609 31.6791 45.1493 31.6416C45.1236 31.5643 45.0398 31.6041 44.7906 31.8033C44.5251 32.0212 44.425 32.0774 44.3341 32.0634C44.2876 32.0563 44.2806 32.0446 44.2829 31.9462C44.2829 31.8033 44.3434 31.7189 44.567 31.5409C45.0398 31.166 45.4427 30.7489 45.5428 30.5287C45.622 30.3577 45.6104 30.2194 45.5172 30.1726C45.4287 30.1304 45.2261 30.1702 45.0957 30.2569C44.8349 30.4326 44.2689 31.084 44.036 31.4823C43.9242 31.6697 43.7822 31.8197 43.6005 31.9415C43.4445 32.047 43.342 32.0821 43.3094 32.0493C43.2745 32.0142 43.3513 31.9017 43.5702 31.658C43.6611 31.5549 43.7542 31.4354 43.7752 31.3933C43.8125 31.3183 43.8101 31.3113 43.7729 31.2831C43.7496 31.2667 43.6913 31.248 43.6424 31.2386C43.5912 31.2316 43.519 31.1988 43.4817 31.166C43.3443 31.0512 43.0672 31.0465 42.7458 31.1543C42.6573 31.1824 42.4989 31.2714 42.3452 31.3769C42.0005 31.6182 41.9353 31.6135 41.9097 31.3558C41.8934 31.1918 41.8375 31.1191 41.6978 31.0816C41.3717 30.9926 40.8291 31.2269 40.4914 31.6018C40.2562 31.8619 39.9418 32.0563 39.7042 32.0845C39.6204 32.0938 39.5878 32.0868 39.5365 32.0446C39.455 31.9814 39.455 31.9228 39.5389 31.7752C39.6669 31.5502 39.9767 31.2808 40.1351 31.255C40.2375 31.2386 40.2422 31.2785 40.1584 31.4026C40.0838 31.5104 40.0931 31.5385 40.1979 31.5479C40.2655 31.5526 40.2981 31.5409 40.368 31.48C40.5403 31.3277 40.545 31.2175 40.3796 31.1215C40.2119 31.0207 39.8556 31.084 39.5598 31.2644C39.4853 31.3089 39.2966 31.4682 39.1406 31.6159C38.7703 31.9696 38.5095 32.1407 38.4419 32.0727C38.4117 32.0423 38.5444 31.8595 38.7983 31.5901C39.0311 31.3417 39.087 31.2574 39.0614 31.1894C39.0405 31.1355 38.952 31.1238 38.7004 31.1402C38.4792 31.1566 38.4699 31.1543 38.4699 31.1098C38.4699 31.084 38.4443 31.0442 38.4117 31.0231C38.2626 30.9247 37.9598 31.1332 38.046 31.2738C38.0926 31.3464 38.0786 31.3816 37.9435 31.5268C37.7689 31.7189 37.5662 31.8689 37.331 31.9837C36.9887 32.1477 36.7581 32.1079 36.7581 31.883C36.7581 31.8314 36.7674 31.7822 36.7767 31.7728C36.7861 31.7635 36.9072 31.7471 37.0446 31.7377C37.4195 31.7096 37.6245 31.6276 37.7363 31.4636C37.8178 31.3441 37.8108 31.2691 37.713 31.1801C37.5663 31.0512 37.3753 31.0348 37.0702 31.1309C36.8862 31.1871 36.7581 31.2831 36.3808 31.6487C36.0245 31.9931 35.8615 32.1032 35.8009 32.0399C35.7706 32.0118 35.78 31.9884 35.8568 31.8666C35.9453 31.7307 36.2411 31.3675 36.7069 30.8263C37.1331 30.3319 37.2123 30.1936 37.0911 30.1608C37.0143 30.1398 36.8839 30.1468 36.8163 30.1726ZM45.3868 30.435C45.3868 30.5357 44.7207 31.2949 44.6322 31.2949C44.5763 31.2949 44.9676 30.7583 45.1795 30.5474C45.3169 30.4092 45.3868 30.3717 45.3868 30.435ZM35.8009 31.2621C35.8801 31.2925 35.8359 31.3745 35.6239 31.5854C35.391 31.8174 35.2001 31.9556 35.0161 32.0259C34.8158 32.1032 34.7529 32.0235 34.874 31.8431C35.0347 31.5995 35.3421 31.3698 35.6169 31.2808C35.7264 31.2457 35.752 31.2433 35.8009 31.2621ZM37.5243 31.2855C37.5779 31.337 37.5709 31.3698 37.4964 31.4425C37.4079 31.5268 37.2565 31.576 37.0772 31.576H36.9258L36.9794 31.5174C37.0516 31.4401 37.2495 31.3089 37.3403 31.2761C37.4405 31.241 37.4824 31.2433 37.5243 31.2855ZM41.6722 31.2902C41.6722 31.3066 41.6302 31.3441 41.5813 31.3722C41.4695 31.4354 41.3973 31.5292 41.4183 31.5831C41.4253 31.6065 41.4626 31.6393 41.4998 31.6604C41.5371 31.6791 41.5674 31.7096 41.5674 31.7283C41.5674 31.7728 41.4556 31.8548 41.2413 31.9696C40.9781 32.1126 40.8407 32.1219 40.7778 32.0001C40.6917 31.8408 41.0806 31.4237 41.4346 31.2925C41.5674 31.2433 41.6722 31.2433 41.6722 31.2902ZM43.3094 31.2621C43.3793 31.2831 43.3746 31.337 43.2861 31.4565C43.1021 31.7072 42.5339 32.0985 42.4081 32.0563C42.2055 31.9931 42.6946 31.4518 43.1021 31.2925C43.2232 31.2457 43.2349 31.2433 43.3094 31.2621Z" fill="#323232"/>
<path fill-rule="evenodd" clip-rule="evenodd" d="M29.8228 31.0998C29.797 31.1232 29.804 31.3598 29.8298 31.3762C29.8556 31.3927 30.0172 31.245 30.0172 31.2052C30.0172 31.1748 29.9024 31.0834 29.865 31.0834C29.8509 31.0834 29.8298 31.0904 29.8228 31.0998Z" fill="#323232"/>
<path fill-rule="evenodd" clip-rule="evenodd" d="M28.1807 31.7913L28.1877 31.8686L28.7955 31.8756C29.4639 31.8827 29.6363 31.8686 29.6759 31.803C29.6945 31.7702 29.6945 31.7561 29.6666 31.7397C29.6456 31.7257 29.3265 31.7163 28.9027 31.7163H28.1737L28.1807 31.7913Z" fill="#323232"/>
<path fill-rule="evenodd" clip-rule="evenodd" d="M45.6298 31.7397C45.5786 31.7608 45.539 31.8288 45.5646 31.8545C45.5716 31.8616 45.9256 31.8686 46.3494 31.8686H47.1226L47.1296 31.7913L47.1366 31.7163L46.4077 31.7187C46.0071 31.7187 45.6578 31.728 45.6298 31.7397Z" fill="#323232"/>
<path fill-rule="evenodd" clip-rule="evenodd" d="M29.2871 32.6793C29.0216 32.7567 28.9331 33.0894 29.131 33.2791C29.3104 33.4478 29.6551 33.4432 29.8064 33.2721C29.9485 33.1104 29.9182 32.8621 29.7459 32.7403C29.6364 32.6629 29.4385 32.6372 29.2871 32.6793ZM29.6411 32.8129C29.6737 32.8363 29.7156 32.8949 29.7296 32.9417C29.8111 33.1878 29.5246 33.408 29.308 33.2651C29.2172 33.2042 29.1799 33.1315 29.1776 33.0097C29.1776 32.93 29.1916 32.8972 29.2428 32.848C29.2778 32.8152 29.3267 32.7801 29.3523 32.7684C29.4222 32.7379 29.5735 32.7613 29.6411 32.8129Z" fill="#323232"/>
<path fill-rule="evenodd" clip-rule="evenodd" d="M31.0964 32.6766C31.0288 32.7048 30.9473 32.8125 30.9473 32.8758C30.9473 32.9625 31.0498 33.0422 31.1802 33.0586C31.313 33.075 31.4504 33.1335 31.469 33.1827C31.476 33.2015 31.4597 33.239 31.4341 33.2647C31.3642 33.335 31.1895 33.3163 31.0754 33.2296C30.9473 33.1312 30.8611 33.1944 30.9776 33.3046C31.1686 33.485 31.6227 33.403 31.6227 33.1874C31.6227 33.1523 31.6017 33.1007 31.5785 33.0773C31.5389 33.0375 31.3316 32.9578 31.2664 32.9578C31.2175 32.9578 31.0871 32.8805 31.0871 32.85C31.0871 32.8032 31.1825 32.7469 31.2641 32.7469C31.3036 32.7469 31.3758 32.7727 31.4224 32.8055C31.5156 32.8688 31.5994 32.8828 31.5994 32.8336C31.5994 32.7141 31.2617 32.6087 31.0964 32.6766Z" fill="#323232"/>
<path fill-rule="evenodd" clip-rule="evenodd" d="M36.0205 32.6748C35.7527 32.7615 35.6526 33.0052 35.79 33.2301C35.8715 33.366 36.1207 33.4363 36.3256 33.38C36.6307 33.298 36.7052 32.9185 36.4537 32.7404C36.3489 32.6678 36.1416 32.6373 36.0205 32.6748ZM36.3419 32.806C36.4211 32.8575 36.4747 32.9911 36.4584 33.0872C36.4491 33.127 36.4118 33.1926 36.3722 33.2301C36.3116 33.2887 36.2837 33.298 36.1766 33.298C36.0229 33.298 35.9344 33.2395 35.8878 33.1059C35.8575 33.0216 35.8598 33.0052 35.8994 32.9208C35.9786 32.7568 36.1859 32.7029 36.3419 32.806Z" fill="#323232"/>
<path fill-rule="evenodd" clip-rule="evenodd" d="M36.9869 32.696C36.8356 32.7569 36.775 32.8225 36.7587 32.9443C36.7331 33.1107 36.761 33.2021 36.8635 33.2934C36.9986 33.4176 37.2431 33.4387 37.4248 33.3426C37.5226 33.2934 37.6111 33.1458 37.6134 33.0357C37.6158 32.8694 37.5273 32.7499 37.3549 32.6889C37.2268 32.6444 37.1104 32.6468 36.9869 32.696ZM37.3223 32.7944C37.49 32.8975 37.5156 33.0849 37.3805 33.2208C37.2105 33.3942 36.8868 33.2888 36.8868 33.0591C36.8868 32.8225 37.129 32.6749 37.3223 32.7944Z" fill="#323232"/>
<path fill-rule="evenodd" clip-rule="evenodd" d="M41.8849 32.6773C41.7359 32.7242 41.6264 32.9046 41.645 33.0709C41.659 33.2021 41.7196 33.2842 41.8477 33.3498C42.0363 33.4482 42.2925 33.4036 42.4299 33.2514C42.4811 33.1975 42.4881 33.167 42.4881 33.0335C42.4858 32.846 42.4439 32.7687 42.3181 32.7171C42.2063 32.6726 41.9711 32.6515 41.8849 32.6773ZM42.2226 32.8015C42.2669 32.8296 42.3204 32.8929 42.3437 32.9421C42.3856 33.0264 42.3856 33.0311 42.3437 33.1155C42.2878 33.2303 42.1691 33.3099 42.0503 33.3099C41.9758 33.3099 41.9431 33.2935 41.8686 33.2185C41.7964 33.1459 41.7778 33.1108 41.7778 33.0405C41.7778 32.8062 42.0293 32.6703 42.2226 32.8015Z" fill="#323232"/>
<path fill-rule="evenodd" clip-rule="evenodd" d="M44.6357 32.686C44.5145 32.7305 44.4656 32.7797 44.4191 32.9016C44.3259 33.1499 44.5145 33.403 44.794 33.403C44.9244 33.403 45.0758 33.328 45.1294 33.2366C45.2132 33.0984 45.141 33.082 44.9966 33.2062C44.9314 33.2601 44.8662 33.2952 44.8057 33.3022C44.7242 33.314 44.7055 33.3069 44.6333 33.2343C44.4959 33.0961 44.4936 32.9625 44.631 32.8243C44.7311 32.7235 44.808 32.7235 44.9687 32.8289C45.1084 32.9203 45.1643 32.9086 45.1084 32.8032C45.0432 32.6837 44.8033 32.6228 44.6357 32.686Z" fill="#323232"/>
<path fill-rule="evenodd" clip-rule="evenodd" d="M45.6068 32.6699C45.5253 32.6863 45.3693 32.8339 45.3413 32.9253C45.3087 33.026 45.3227 33.1221 45.3926 33.2345C45.4578 33.34 45.5952 33.4009 45.7698 33.4032C45.9003 33.4032 45.9096 33.3986 46.0097 33.2978C46.068 33.2416 46.1099 33.1807 46.1052 33.1643C46.0866 33.108 46.0237 33.1197 45.9562 33.1877C45.8281 33.3142 45.7419 33.3376 45.6208 33.2744C45.4811 33.2017 45.4391 33.0026 45.5346 32.862C45.6278 32.7214 45.7396 32.7214 45.9631 32.8667C46.0353 32.9112 46.04 32.9136 46.0563 32.8761C46.1029 32.7495 45.8327 32.6254 45.6068 32.6699Z" fill="#323232"/>
<path fill-rule="evenodd" clip-rule="evenodd" d="M46.5268 32.6744C46.3312 32.7377 46.2613 32.8572 46.2706 33.1032C46.273 33.1875 46.3778 33.307 46.4942 33.3586C46.7015 33.4546 47.0182 33.375 47.0974 33.2063C47.1789 33.0352 47.1254 32.8361 46.974 32.7353C46.8715 32.6674 46.6433 32.6369 46.5268 32.6744ZM46.8575 32.7963C46.9251 32.822 46.9949 32.9509 46.9949 33.0493C46.9949 33.1805 46.8389 33.3094 46.6805 33.3094C46.62 33.3094 46.5757 33.2883 46.5105 33.2297C46.4313 33.1547 46.4244 33.1383 46.4244 33.0212C46.4244 32.9275 46.436 32.8783 46.4686 32.8431C46.5501 32.7517 46.6992 32.7353 46.8575 32.7963Z" fill="#323232"/>
<path fill-rule="evenodd" clip-rule="evenodd" d="M28.2279 32.7058C28.2349 32.7222 28.2814 32.7386 28.3327 32.7433C28.3862 32.7479 28.4421 32.7667 28.4584 32.7854C28.4771 32.8089 28.4934 32.9237 28.498 33.1017C28.5073 33.3431 28.5143 33.3805 28.5469 33.3805C28.6261 33.3805 28.6424 33.329 28.6424 33.0877C28.6424 32.7995 28.668 32.7479 28.8054 32.755C28.9033 32.7573 28.9359 32.7433 28.9102 32.7034C28.887 32.6636 28.2162 32.6683 28.2279 32.7058Z" fill="#323232"/>
<path fill-rule="evenodd" clip-rule="evenodd" d="M30.3233 32.7306C30.272 32.7868 30.0787 33.1992 30.0508 33.314C30.0368 33.3702 30.0415 33.3796 30.081 33.3796C30.1276 33.3796 30.1719 33.3398 30.2138 33.2531C30.2348 33.2109 30.2604 33.2039 30.4048 33.1968L30.5725 33.1898L30.6051 33.2671C30.6633 33.4054 30.7611 33.4429 30.7611 33.3257C30.7611 33.2578 30.5561 32.7845 30.5003 32.7236C30.442 32.6626 30.3838 32.665 30.3233 32.7306ZM30.4723 32.9719C30.4909 33.0727 30.4607 33.1102 30.3792 33.0891C30.3093 33.0727 30.3 33.0164 30.3559 32.9391C30.4094 32.8618 30.4537 32.8759 30.4723 32.9719Z" fill="#323232"/>
<path fill-rule="evenodd" clip-rule="evenodd" d="M31.7674 32.7051C31.7744 32.7215 31.793 32.7379 31.8116 32.7403C31.8303 32.7426 31.8838 32.7496 31.9327 32.759L32.0189 32.7731V32.9207C32.0189 33.1714 32.0469 33.3588 32.0841 33.3752C32.147 33.3986 32.1773 33.312 32.1936 33.0402L32.2099 32.7731L32.2937 32.759C32.3426 32.7496 32.3939 32.7426 32.4125 32.7403C32.4311 32.7379 32.4498 32.7215 32.4567 32.7051C32.4637 32.684 32.3846 32.677 32.1121 32.677C31.8396 32.677 31.7604 32.684 31.7674 32.7051Z" fill="#323232"/>
<path fill-rule="evenodd" clip-rule="evenodd" d="M32.7152 32.6933C32.6383 32.705 32.6243 32.7635 32.6243 33.0634C32.6243 33.3821 32.6336 33.3915 32.9923 33.3915C33.146 33.3915 33.2811 33.3821 33.2904 33.3727C33.3253 33.3399 33.2462 33.3095 33.1227 33.3095C33.0575 33.3095 32.955 33.3024 32.8945 33.2954L32.7874 33.279V33.1806V33.0822L32.9993 33.0681C33.1181 33.0611 33.2229 33.0447 33.2368 33.0306C33.2718 32.9955 33.1553 32.958 33.0063 32.958C32.8479 32.958 32.7874 32.9276 32.7874 32.8502C32.7874 32.7753 32.8596 32.7471 33.0552 32.7471C33.2159 32.7471 33.2834 32.7307 33.2625 32.6979C33.2508 32.6769 32.8386 32.6745 32.7152 32.6933Z" fill="#323232"/>
<path fill-rule="evenodd" clip-rule="evenodd" d="M33.5539 32.6932C33.5236 32.7003 33.5143 32.7424 33.505 32.9065C33.5003 33.0189 33.5003 33.1665 33.505 33.2345C33.5143 33.3446 33.5213 33.3633 33.5772 33.3844C33.661 33.4172 33.9475 33.3961 34.0383 33.3493C34.213 33.2579 34.2828 33.0189 34.185 32.8432C34.1105 32.712 34.0243 32.6768 33.7844 32.6792C33.6796 32.6815 33.5748 32.6862 33.5539 32.6932ZM33.9288 32.7706C34.0336 32.7987 34.0918 32.8947 34.0918 33.04C34.0918 33.129 34.0802 33.1618 34.0266 33.2157C33.9544 33.286 33.8264 33.3235 33.7332 33.3001C33.6913 33.2907 33.675 33.2649 33.6633 33.1993C33.64 33.0494 33.647 32.8057 33.6773 32.7752C33.7122 32.7401 33.817 32.7401 33.9288 32.7706Z" fill="#323232"/>
<path fill-rule="evenodd" clip-rule="evenodd" d="M34.8653 32.6979C34.8188 32.726 34.8351 33.3493 34.884 33.3797C34.9422 33.4149 34.9748 33.3586 34.9818 33.2087L34.9888 33.0634L35.1867 33.0728C35.2985 33.0775 35.3917 33.0915 35.401 33.1079C35.4103 33.122 35.4196 33.1642 35.4196 33.204C35.4196 33.3094 35.4452 33.3797 35.4802 33.3797C35.5244 33.3797 35.5384 33.2626 35.5314 32.958C35.5244 32.7073 35.5221 32.6885 35.4779 32.6885C35.4406 32.6885 35.4289 32.7096 35.4173 32.801C35.4103 32.8643 35.3894 32.9252 35.3707 32.9369C35.3544 32.9486 35.2613 32.958 35.1704 32.958H35.0004V32.8783C35.0004 32.719 34.9445 32.6464 34.8653 32.6979Z" fill="#323232"/>
<path fill-rule="evenodd" clip-rule="evenodd" d="M38.3191 32.7051C38.2935 32.7192 38.205 32.7848 38.1235 32.8457C37.9582 32.9746 37.9349 32.9699 37.9139 32.8129C37.9046 32.7426 37.8883 32.7098 37.8603 32.7051C37.8231 32.6981 37.8184 32.7262 37.8184 33.0238C37.8184 33.2018 37.8254 33.3565 37.8347 33.3635C37.8627 33.3916 37.9092 33.3284 37.9256 33.2417C37.9419 33.1456 37.9931 33.0519 38.0304 33.0519C38.0443 33.0519 38.1328 33.1245 38.2237 33.2159C38.3844 33.3705 38.4496 33.408 38.4822 33.3588C38.4892 33.3448 38.4263 33.2581 38.3424 33.1597C38.2586 33.0636 38.191 32.9746 38.191 32.9605C38.191 32.9488 38.2539 32.8879 38.3308 32.8293C38.4659 32.7239 38.4892 32.677 38.4053 32.677C38.3844 32.677 38.3448 32.6911 38.3191 32.7051Z" fill="#323232"/>
<path fill-rule="evenodd" clip-rule="evenodd" d="M38.9036 32.7193C38.8501 32.7825 38.6335 33.2652 38.6335 33.3261C38.6335 33.4222 38.7546 33.3753 38.7919 33.2628C38.8175 33.1949 38.8221 33.1925 38.9689 33.1925C39.0923 33.1925 39.1319 33.2019 39.1691 33.2394C39.1948 33.2652 39.2157 33.3027 39.2157 33.3214C39.2157 33.3612 39.2833 33.4011 39.3275 33.387C39.3415 33.38 39.3555 33.3589 39.3555 33.3378C39.3555 33.2769 39.1039 32.7403 39.0597 32.7052C39.0038 32.6654 38.9502 32.6701 38.9036 32.7193ZM39.0574 32.9606C39.0806 33.0402 39.0783 33.059 39.0504 33.0777C39.0038 33.1058 38.9758 33.1035 38.9246 33.0684C38.885 33.0379 38.885 33.0332 38.9362 32.9395C38.9665 32.8856 38.9991 32.8481 39.0084 32.8551C39.0201 32.8622 39.041 32.909 39.0574 32.9606Z" fill="#323232"/>
<path fill-rule="evenodd" clip-rule="evenodd" d="M39.558 32.6933C39.5487 32.7003 39.5417 32.855 39.5417 33.033C39.5417 33.3072 39.5464 33.3611 39.579 33.3728C39.6349 33.3939 39.6652 33.3447 39.6768 33.2041L39.6861 33.0752H39.8072C39.8724 33.0752 39.9633 33.0682 40.0098 33.0612L40.0937 33.0471L40.1053 33.2041C40.1216 33.3939 40.1472 33.4267 40.2171 33.3564C40.266 33.3072 40.2683 33.2884 40.259 33.0237C40.2497 32.7823 40.2427 32.7378 40.2055 32.7097C40.1426 32.6628 40.1053 32.7074 40.096 32.8362L40.089 32.9463H39.8911H39.6931L39.6815 32.8409C39.6745 32.7823 39.6605 32.7214 39.6512 32.705C39.6302 32.6746 39.5813 32.6675 39.558 32.6933Z" fill="#323232"/>
<path fill-rule="evenodd" clip-rule="evenodd" d="M40.8043 32.7058C40.8112 32.7222 40.8695 32.7409 40.9347 32.7479C40.9999 32.755 41.0604 32.769 41.0721 32.7807C41.0814 32.7901 41.0954 32.919 41.0977 33.0642C41.1047 33.254 41.1163 33.3384 41.1373 33.3571C41.1955 33.4063 41.2118 33.3618 41.2258 33.1017C41.2421 32.7854 41.2584 32.7503 41.3818 32.755C41.4796 32.7573 41.5123 32.7433 41.4866 32.7034C41.4633 32.6636 40.7926 32.6683 40.8043 32.7058Z" fill="#323232"/>
<path fill-rule="evenodd" clip-rule="evenodd" d="M42.686 32.9886C42.686 33.3893 42.693 33.4033 42.9259 33.4033C43.0191 33.4033 43.1285 33.394 43.1728 33.3799C43.3428 33.3307 43.408 33.1925 43.3218 33.0613C43.2892 33.0097 43.2869 32.9886 43.3125 32.9207C43.3451 32.8316 43.3242 32.7731 43.2403 32.7145C43.2007 32.6864 43.1262 32.677 42.9376 32.677H42.686V32.9886ZM43.0936 32.7801C43.1774 32.8176 43.2007 32.8762 43.1472 32.93C43.1192 32.9582 42.9259 32.9675 42.863 32.9441C42.8188 32.9277 42.8141 32.8152 42.8537 32.7754C42.891 32.7379 42.9958 32.7403 43.0936 32.7801ZM43.1937 33.1151C43.2333 33.169 43.2287 33.2018 43.1774 33.2487C43.1192 33.3002 42.9725 33.3213 42.891 33.2885C42.8374 33.2674 42.8258 33.2487 42.8258 33.1807C42.8258 33.1175 42.8374 33.0917 42.8793 33.0753C42.9539 33.0425 43.1565 33.0706 43.1937 33.1151Z" fill="#323232"/>
<path fill-rule="evenodd" clip-rule="evenodd" d="M43.8203 32.7052C43.7598 32.752 43.4943 33.3354 43.5222 33.3636C43.5572 33.3987 43.6154 33.3659 43.6666 33.2745C43.7155 33.1925 43.7179 33.1925 43.8762 33.1925C44.0299 33.1925 44.0369 33.1949 44.0719 33.2605C44.1184 33.3542 44.1999 33.4104 44.2372 33.3776C44.2721 33.3472 44.2512 33.2816 44.0998 32.9535C43.981 32.6958 43.9135 32.6372 43.8203 32.7052ZM43.9391 32.9887C43.9484 33.0871 43.9088 33.1175 43.8296 33.0754C43.7691 33.0426 43.7691 33.0262 43.8296 32.9489C43.8925 32.8668 43.9298 32.8809 43.9391 32.9887Z" fill="#323232"/>
</svg>
