<svg width="81" height="53" viewBox="0 0 81 53" fill="none" xmlns="http://www.w3.org/2000/svg">
<path d="M36.9253 46.743C32.7679 46.8927 28.6712 45.6814 25.2225 43.2827C21.7737 40.884 19.15 37.421 17.7272 33.3901L24.2059 30.9585C25.1307 33.5786 26.8362 35.8296 29.0778 37.3887C31.3195 38.9479 33.9823 39.7352 36.6847 39.6379L36.9253 46.743Z" fill="#F5FFBA"/>
<path d="M47.2531 9.60288C50.7019 12.0016 53.3257 15.4646 54.7484 19.4955C56.1712 23.5264 56.3199 27.9183 55.1733 32.0417C54.0267 36.1652 51.6435 39.8084 48.3654 42.4494C45.0874 45.0903 41.0826 46.5933 36.9252 46.743L36.6846 39.6379C39.3869 39.5406 41.99 38.5637 44.1208 36.8471C46.2515 35.1305 47.8006 32.7623 48.5459 30.0821C49.2912 27.4019 49.1945 24.5471 48.2697 21.927C47.3449 19.3069 45.6394 17.056 43.3978 15.4968L47.2531 9.60288Z" fill="#409219"/>
<path d="M17.7272 33.3901C16.3044 29.3592 16.1557 24.9673 17.3023 20.8439C18.4489 16.7205 20.8321 13.0772 24.1101 10.4362C27.3882 7.7953 31.3929 6.29227 35.5503 6.14256C39.7077 5.99285 43.8044 7.20416 47.2531 9.60287L43.3978 15.4968C41.1561 13.9377 38.4933 13.1503 35.7909 13.2476C33.0886 13.3449 30.4856 14.3219 28.3548 16.0385C26.2241 17.7551 24.675 20.1233 23.9297 22.8035C23.1844 25.4837 23.2811 28.3385 24.2059 30.9585L17.7272 33.3901Z" fill="#C6EAAA"/>
<path d="M24.8245 11.5977L22.5047 8.52209H12.8939" stroke="black" stroke-width="0.145684"/>
<path d="M25.1558 42.012L22.8359 45.0876H13.2252" stroke="black" stroke-width="0.145684"/>
<path d="M1.70961 43.9618C1.67985 43.9618 1.66498 43.9469 1.66498 43.9172V40.8821C1.66498 40.8524 1.67985 40.8375 1.70961 40.8375H1.93724C1.96699 40.8375 1.98187 40.8524 1.98187 40.8821V43.6672C1.98187 43.6791 1.98782 43.6851 1.99972 43.6851H3.29853C3.32829 43.6851 3.34316 43.6999 3.34316 43.7297V43.9172C3.34316 43.9469 3.32829 43.9618 3.29853 43.9618H1.70961ZM5.53651 41.0696C5.53651 41.0994 5.52163 41.1142 5.49188 41.1142H4.1529C4.141 41.1142 4.13505 41.1202 4.13505 41.1321V42.239C4.13505 42.2509 4.141 42.2568 4.1529 42.2568H5.05448C5.08423 42.2568 5.09911 42.2717 5.09911 42.3015V42.4889C5.09911 42.5187 5.08423 42.5335 5.05448 42.5335H4.1529C4.141 42.5335 4.13505 42.5395 4.13505 42.5514V43.6672C4.13505 43.6791 4.141 43.6851 4.1529 43.6851H5.49188C5.52163 43.6851 5.53651 43.6999 5.53651 43.7297V43.9172C5.53651 43.9469 5.52163 43.9618 5.49188 43.9618H3.86279C3.83303 43.9618 3.81815 43.9469 3.81815 43.9172V40.8821C3.81815 40.8524 3.83303 40.8375 3.86279 40.8375H5.49188C5.52163 40.8375 5.53651 40.8524 5.53651 40.8821V41.0696ZM7.81546 40.8687C7.83034 40.8479 7.84819 40.8375 7.86902 40.8375H8.10111C8.13087 40.8375 8.14574 40.8524 8.14574 40.8821V43.9172C8.14574 43.9469 8.13087 43.9618 8.10111 43.9618H7.87348C7.84373 43.9618 7.82885 43.9469 7.82885 43.9172V41.4891C7.82885 41.4802 7.82588 41.4743 7.81993 41.4713C7.81397 41.4683 7.80951 41.4713 7.80654 41.4802L7.21292 42.5112C7.19804 42.5321 7.18019 42.5425 7.15936 42.5425H7.11027C7.08944 42.5425 7.07158 42.5321 7.05671 42.5112L6.45863 41.4847C6.45565 41.4758 6.45119 41.4728 6.44524 41.4758C6.43929 41.4787 6.43631 41.4847 6.43631 41.4936V43.9172C6.43631 43.9469 6.42143 43.9618 6.39168 43.9618H6.16405C6.1343 43.9618 6.11942 43.9469 6.11942 43.9172V40.8821C6.11942 40.8524 6.1343 40.8375 6.16405 40.8375H6.39614C6.41697 40.8375 6.43482 40.8479 6.4497 40.8687L7.12366 42.0158C7.12663 42.0188 7.13109 42.0203 7.13705 42.0203C7.143 42.0203 7.14746 42.0188 7.15044 42.0158L7.81546 40.8687ZM9.71308 43.9975C9.53158 43.9975 9.3709 43.9603 9.23105 43.8859C9.09418 43.8086 8.98706 43.7014 8.90969 43.5646C8.83531 43.4277 8.79811 43.27 8.79811 43.0915V41.7123C8.79811 41.5338 8.83531 41.3761 8.90969 41.2392C8.98706 41.0994 9.09418 40.9922 9.23105 40.9178C9.3709 40.8405 9.53158 40.8018 9.71308 40.8018C9.89459 40.8018 10.0538 40.8405 10.1907 40.9178C10.3305 40.9922 10.4391 41.0994 10.5165 41.2392C10.5938 41.3761 10.6325 41.5338 10.6325 41.7123V43.0915C10.6325 43.27 10.5938 43.4277 10.5165 43.5646C10.4391 43.7014 10.3305 43.8086 10.1907 43.8859C10.0538 43.9603 9.89459 43.9975 9.71308 43.9975ZM9.71308 43.7208C9.89459 43.7208 10.0404 43.6642 10.1505 43.5512C10.2606 43.4381 10.3156 43.2893 10.3156 43.1048V41.7034C10.3156 41.5159 10.2606 41.3657 10.1505 41.2526C10.0404 41.1365 9.89459 41.0785 9.71308 41.0785C9.53455 41.0785 9.39024 41.1365 9.28015 41.2526C9.17005 41.3657 9.115 41.5159 9.115 41.7034V43.1048C9.115 43.2893 9.17005 43.4381 9.28015 43.5512C9.39024 43.6642 9.53455 43.7208 9.71308 43.7208ZM12.8421 40.8821C12.8421 40.8524 12.857 40.8375 12.8867 40.8375H13.1144C13.1441 40.8375 13.159 40.8524 13.159 40.8821V43.9172C13.159 43.9469 13.1441 43.9618 13.1144 43.9618H12.8734C12.8466 43.9618 12.8287 43.9514 12.8198 43.9305L11.6236 41.5427C11.6177 41.5368 11.6117 41.5338 11.6058 41.5338C11.6028 41.5338 11.6013 41.5382 11.6013 41.5472L11.6058 43.9172C11.6058 43.9469 11.5909 43.9618 11.5612 43.9618H11.3335C11.3038 43.9618 11.2889 43.9469 11.2889 43.9172V40.8821C11.2889 40.8524 11.3038 40.8375 11.3335 40.8375H11.5745C11.6013 40.8375 11.6192 40.8479 11.6281 40.8687L12.8243 43.2655C12.8302 43.2715 12.8347 43.2744 12.8376 43.2744C12.8436 43.2744 12.8466 43.27 12.8466 43.2611L12.8421 40.8821ZM13.7346 42.7121C13.7048 42.7121 13.69 42.6972 13.69 42.6674V42.48C13.69 42.4502 13.7048 42.4354 13.7346 42.4354H14.904C14.9337 42.4354 14.9486 42.4502 14.9486 42.48V42.6674C14.9486 42.6972 14.9337 42.7121 14.904 42.7121H13.7346ZM1.70961 48.9618C1.67985 48.9618 1.66498 48.9469 1.66498 48.9172V45.8821C1.66498 45.8524 1.67985 45.8375 1.70961 45.8375H1.93724C1.96699 45.8375 1.98187 45.8524 1.98187 45.8821V48.6672C1.98187 48.6791 1.98782 48.6851 1.99972 48.6851H3.29853C3.32829 48.6851 3.34316 48.6999 3.34316 48.7297V48.9172C3.34316 48.9469 3.32829 48.9618 3.29853 48.9618H1.70961ZM3.86279 48.9618C3.83303 48.9618 3.81815 48.9469 3.81815 48.9172V45.8821C3.81815 45.8524 3.83303 45.8375 3.86279 45.8375H4.09041C4.12017 45.8375 4.13505 45.8524 4.13505 45.8821V48.9172C4.13505 48.9469 4.12017 48.9618 4.09041 48.9618H3.86279ZM6.56889 45.8687C6.58376 45.8479 6.60162 45.8375 6.62244 45.8375H6.85453C6.88429 45.8375 6.89917 45.8524 6.89917 45.8821V48.9172C6.89917 48.9469 6.88429 48.9618 6.85453 48.9618H6.62691C6.59715 48.9618 6.58228 48.9469 6.58228 48.9172V46.4891C6.58228 46.4802 6.5793 46.4743 6.57335 46.4713C6.5674 46.4683 6.56293 46.4713 6.55996 46.4802L5.96634 47.5112C5.95147 47.5321 5.93361 47.5425 5.91279 47.5425H5.86369C5.84286 47.5425 5.82501 47.5321 5.81013 47.5112L5.21205 46.4847C5.20908 46.4758 5.20461 46.4728 5.19866 46.4758C5.19271 46.4787 5.18974 46.4847 5.18974 46.4936V48.9172C5.18974 48.9469 5.17486 48.9618 5.1451 48.9618H4.91748C4.88772 48.9618 4.87284 48.9469 4.87284 48.9172V45.8821C4.87284 45.8524 4.88772 45.8375 4.91748 45.8375H5.14957C5.1704 45.8375 5.18825 45.8479 5.20313 45.8687L5.87708 47.0158C5.88005 47.0188 5.88452 47.0203 5.89047 47.0203C5.89642 47.0203 5.90088 47.0188 5.90386 47.0158L6.56889 45.8687ZM9.3547 46.0696C9.3547 46.0994 9.33982 46.1142 9.31006 46.1142H7.97108C7.95918 46.1142 7.95323 46.1202 7.95323 46.1321V47.239C7.95323 47.2509 7.95918 47.2568 7.97108 47.2568H8.87266C8.90242 47.2568 8.9173 47.2717 8.9173 47.3015V47.4889C8.9173 47.5187 8.90242 47.5335 8.87266 47.5335H7.97108C7.95918 47.5335 7.95323 47.5395 7.95323 47.5514V48.6672C7.95323 48.6791 7.95918 48.6851 7.97108 48.6851H9.31006C9.33982 48.6851 9.3547 48.6999 9.3547 48.7297V48.9172C9.3547 48.9469 9.33982 48.9618 9.31006 48.9618H7.68097C7.65122 48.9618 7.63634 48.9469 7.63634 48.9172V45.8821C7.63634 45.8524 7.65122 45.8375 7.68097 45.8375H9.31006C9.33982 45.8375 9.3547 45.8524 9.3547 45.8821V46.0696ZM11.0855 48.6628C11.0766 48.6776 11.0796 48.6851 11.0945 48.6851H12.3219C12.3516 48.6851 12.3665 48.6999 12.3665 48.7297V48.9172C12.3665 48.9469 12.3516 48.9618 12.3219 48.9618H10.7329C10.7032 48.9618 10.6883 48.9469 10.6883 48.9172V48.7208C10.6883 48.7029 10.6943 48.6836 10.7062 48.6628C10.974 48.2997 11.273 47.8832 11.6033 47.413C11.8383 47.0709 11.9559 46.7971 11.9559 46.5918C11.9559 46.4371 11.9112 46.3136 11.822 46.2213C11.7327 46.1261 11.6152 46.0785 11.4694 46.0785C11.3266 46.0785 11.212 46.1261 11.1257 46.2213C11.0394 46.3136 10.9978 46.4371 11.0007 46.5918V46.7435C11.0007 46.7733 10.9859 46.7882 10.9561 46.7882H10.724C10.6943 46.7882 10.6794 46.7733 10.6794 46.7435V46.565C10.6853 46.3359 10.7612 46.1514 10.907 46.0116C11.0558 45.8717 11.2462 45.8018 11.4783 45.8018C11.7163 45.8018 11.9083 45.8747 12.0541 46.0205C12.1999 46.1663 12.2728 46.3567 12.2728 46.5918C12.2728 46.8536 12.1508 47.1631 11.9068 47.5202C11.755 47.7403 11.5155 48.0736 11.1882 48.5199L11.0855 48.6628ZM13.6776 49.0064C13.4217 49.0064 13.2164 48.9291 13.0616 48.7743C12.9069 48.6196 12.8296 48.4128 12.8296 48.1539V46.6454C12.8296 46.3895 12.9069 46.1842 13.0616 46.0294C13.2164 45.8747 13.4217 45.7973 13.6776 45.7973C13.9364 45.7973 14.1432 45.8747 14.298 46.0294C14.4557 46.1842 14.5345 46.3895 14.5345 46.6454V48.1539C14.5345 48.4128 14.4557 48.6196 14.298 48.7743C14.1432 48.9291 13.9364 49.0064 13.6776 49.0064ZM13.6776 48.7297C13.8412 48.7297 13.9722 48.6791 14.0703 48.578C14.1685 48.4768 14.2176 48.3429 14.2176 48.1763V46.6275C14.2176 46.4609 14.1685 46.327 14.0703 46.2258C13.9722 46.1246 13.8412 46.0741 13.6776 46.0741C13.5199 46.0741 13.3919 46.1246 13.2937 46.2258C13.1955 46.327 13.1464 46.4609 13.1464 46.6275V48.1763C13.1464 48.3399 13.1955 48.4738 13.2937 48.578C13.3919 48.6791 13.5199 48.7297 13.6776 48.7297ZM15.8106 47.0649C15.6946 47.0649 15.5874 47.0366 15.4892 46.9801C15.394 46.9236 15.3182 46.8477 15.2616 46.7525C15.2051 46.6543 15.1768 46.5472 15.1768 46.4311C15.1768 46.3151 15.2051 46.2094 15.2616 46.1142C15.3182 46.016 15.394 45.9387 15.4892 45.8821C15.5874 45.8256 15.6946 45.7973 15.8106 45.7973C15.9237 45.7973 16.0278 45.8256 16.123 45.8821C16.2212 45.9387 16.2986 46.016 16.3551 46.1142C16.4117 46.2094 16.4399 46.3151 16.4399 46.4311C16.4399 46.5472 16.4117 46.6543 16.3551 46.7525C16.2986 46.8477 16.2212 46.9236 16.123 46.9801C16.0278 47.0366 15.9237 47.0649 15.8106 47.0649ZM15.7079 48.9618C15.6931 48.9618 15.6812 48.9573 15.6722 48.9484C15.6663 48.9365 15.6678 48.9231 15.6767 48.9082L17.337 45.8687C17.346 45.8479 17.3638 45.8375 17.3906 45.8375H17.5334C17.5483 45.8375 17.5587 45.8435 17.5647 45.8554C17.5736 45.8643 17.5736 45.8762 17.5647 45.8911L15.9043 48.9305C15.8954 48.9514 15.8776 48.9618 15.8508 48.9618H15.7079ZM15.8106 46.8685C15.9296 46.8685 16.0293 46.8269 16.1096 46.7435C16.193 46.6573 16.2346 46.5531 16.2346 46.4311C16.2346 46.3091 16.193 46.2065 16.1096 46.1232C16.0293 46.0369 15.9296 45.9937 15.8106 45.9937C15.6916 45.9937 15.5904 46.0369 15.5071 46.1232C15.4238 46.2065 15.3821 46.3091 15.3821 46.4311C15.3821 46.5531 15.4238 46.6573 15.5071 46.7435C15.5904 46.8269 15.6916 46.8685 15.8106 46.8685ZM17.4486 49.002C17.3326 49.002 17.2255 48.9737 17.1273 48.9172C17.032 48.8606 16.9562 48.7833 16.8996 48.6851C16.8431 48.5869 16.8148 48.4798 16.8148 48.3637C16.8148 48.2506 16.8431 48.1465 16.8996 48.0513C16.9562 47.9531 17.032 47.8757 17.1273 47.8192C17.2255 47.7627 17.3326 47.7344 17.4486 47.7344C17.5617 47.7344 17.6658 47.7627 17.761 47.8192C17.8592 47.8757 17.9366 47.9531 17.9931 48.0513C18.0497 48.1465 18.0779 48.2506 18.0779 48.3637C18.0779 48.4798 18.0497 48.5869 17.9931 48.6851C17.9366 48.7833 17.8592 48.8606 17.761 48.9172C17.6658 48.9737 17.5617 49.002 17.4486 49.002ZM17.4486 48.8056C17.5676 48.8056 17.6673 48.7624 17.7477 48.6761C17.831 48.5899 17.8726 48.4857 17.8726 48.3637C17.8726 48.2417 17.831 48.1391 17.7477 48.0557C17.6673 47.9724 17.5676 47.9308 17.4486 47.9308C17.3296 47.9308 17.2284 47.9724 17.1451 48.0557C17.0618 48.1391 17.0201 48.2417 17.0201 48.3637C17.0201 48.4887 17.0603 48.5943 17.1407 48.6806C17.224 48.7639 17.3266 48.8056 17.4486 48.8056Z" fill="#404040"/>
<path d="M1.99477 7.39612C1.96799 7.39612 1.95162 7.38273 1.94567 7.35595L1.79838 6.79804C1.79541 6.78911 1.78797 6.78465 1.77607 6.78465H0.709345C0.697443 6.78465 0.690004 6.78911 0.687028 6.79804L0.539741 7.35595C0.53379 7.38273 0.517424 7.39612 0.490645 7.39612H0.258555C0.243677 7.39612 0.231775 7.39165 0.222849 7.38273C0.216898 7.3738 0.21541 7.3619 0.218385 7.34702L1.05302 4.312C1.05897 4.28522 1.07533 4.27183 1.10211 4.27183H1.38776C1.41454 4.27183 1.43091 4.28522 1.43686 4.312L2.27149 7.34702L2.27595 7.36041C2.27595 7.38422 2.26107 7.39612 2.23132 7.39612H1.99477ZM0.762904 6.50793C0.759929 6.5109 0.759929 6.51537 0.762904 6.52132C0.768855 6.52429 0.774806 6.52578 0.780757 6.52578H1.70465C1.7106 6.52578 1.71507 6.52429 1.71804 6.52132C1.72399 6.51537 1.72548 6.5109 1.72251 6.50793L1.2494 4.7137C1.24642 4.70774 1.24345 4.70477 1.24047 4.70477C1.2375 4.70477 1.23452 4.70774 1.23155 4.7137L0.762904 6.50793ZM3.73014 4.26737C3.96818 4.26737 4.1601 4.34771 4.3059 4.50838C4.45468 4.66609 4.52906 4.87586 4.52906 5.13771C4.52906 5.39657 4.45468 5.60486 4.3059 5.76256C4.1601 5.91729 3.96818 5.99465 3.73014 5.99465H3.06511C3.05321 5.99465 3.04726 6.0006 3.04726 6.01251V7.35149C3.04726 7.38124 3.03238 7.39612 3.00263 7.39612H2.775C2.74525 7.39612 2.73037 7.38124 2.73037 7.35149V4.312C2.73037 4.28225 2.74525 4.26737 2.775 4.26737H3.73014ZM3.68997 5.73132C3.84767 5.73132 3.97413 5.67776 4.06935 5.57064C4.16456 5.46352 4.21217 5.3207 4.21217 5.14217C4.21217 4.96066 4.16456 4.81635 4.06935 4.70923C3.97413 4.59914 3.84767 4.54409 3.68997 4.54409H3.06511C3.05321 4.54409 3.04726 4.55004 3.04726 4.56194V5.71347C3.04726 5.72537 3.05321 5.73132 3.06511 5.73132H3.68997ZM6.03587 4.26737C6.27391 4.26737 6.46583 4.34771 6.61163 4.50838C6.76041 4.66609 6.83479 4.87586 6.83479 5.13771C6.83479 5.39657 6.76041 5.60486 6.61163 5.76256C6.46583 5.91729 6.27391 5.99465 6.03587 5.99465H5.37084C5.35894 5.99465 5.35299 6.0006 5.35299 6.01251V7.35149C5.35299 7.38124 5.33811 7.39612 5.30836 7.39612H5.08073C5.05098 7.39612 5.0361 7.38124 5.0361 7.35149V4.312C5.0361 4.28225 5.05098 4.26737 5.08073 4.26737H6.03587ZM5.9957 5.73132C6.1534 5.73132 6.27986 5.67776 6.37508 5.57064C6.47029 5.46352 6.5179 5.3207 6.5179 5.14217C6.5179 4.96066 6.47029 4.81635 6.37508 4.70923C6.27986 4.59914 6.1534 4.54409 5.9957 4.54409H5.37084C5.35894 4.54409 5.35299 4.55004 5.35299 4.56194V5.71347C5.35299 5.72537 5.35894 5.73132 5.37084 5.73132H5.9957ZM7.40431 7.39612C7.37456 7.39612 7.35968 7.38124 7.35968 7.35149V4.31646C7.35968 4.28671 7.37456 4.27183 7.40431 4.27183H7.63194C7.6617 4.27183 7.67657 4.28671 7.67657 4.31646V7.10154C7.67657 7.11344 7.68252 7.1194 7.69443 7.1194H8.99324C9.02299 7.1194 9.03787 7.13427 9.03787 7.16403V7.35149C9.03787 7.38124 9.02299 7.39612 8.99324 7.39612H7.40431ZM11.2312 4.50392C11.2312 4.53368 11.2163 4.54855 11.1866 4.54855H9.8476C9.8357 4.54855 9.82975 4.55451 9.82975 4.56641V5.6733C9.82975 5.6852 9.8357 5.69115 9.8476 5.69115H10.7492C10.7789 5.69115 10.7938 5.70603 10.7938 5.73578V5.92324C10.7938 5.953 10.7789 5.96787 10.7492 5.96787H9.8476C9.8357 5.96787 9.82975 5.97382 9.82975 5.98573V7.10154C9.82975 7.11344 9.8357 7.1194 9.8476 7.1194H11.1866C11.2163 7.1194 11.2312 7.13427 11.2312 7.16403V7.35149C11.2312 7.38124 11.2163 7.39612 11.1866 7.39612H9.55749C9.52774 7.39612 9.51286 7.38124 9.51286 7.35149V4.31646C9.51286 4.28671 9.52774 4.27183 9.55749 4.27183H11.1866C11.2163 4.27183 11.2312 4.28671 11.2312 4.31646V4.50392ZM0.526351 12.3961C0.496596 12.3961 0.481718 12.3812 0.481718 12.3515V9.31646C0.481718 9.28671 0.496596 9.27183 0.526351 9.27183H1.39669C1.66151 9.27183 1.86979 9.34771 2.02155 9.49946C2.17627 9.65121 2.25364 9.85801 2.25364 10.1199V11.5481C2.25364 11.8099 2.17627 12.0167 2.02155 12.1685C1.86979 12.3202 1.66151 12.3961 1.39669 12.3961H0.526351ZM0.79861 12.1015C0.79861 12.1134 0.804561 12.1194 0.816463 12.1194H1.40115C1.5648 12.1164 1.69424 12.0629 1.78946 11.9587C1.88467 11.8516 1.93377 11.7058 1.93674 11.5213V10.1466C1.93674 9.96215 1.88913 9.81635 1.79392 9.70923C1.6987 9.60211 1.56778 9.54855 1.40115 9.54855H0.816463C0.804561 9.54855 0.79861 9.55451 0.79861 9.56641V12.1015ZM4.43167 12.3961C4.40787 12.3961 4.3915 12.3842 4.38258 12.3604L3.82913 10.9813C3.82616 10.9723 3.82021 10.9679 3.81128 10.9679H3.23552C3.22362 10.9679 3.21767 10.9738 3.21767 10.9857V12.3515C3.21767 12.3812 3.20279 12.3961 3.17303 12.3961H2.94541C2.91565 12.3961 2.90077 12.3812 2.90077 12.3515V9.31646C2.90077 9.28671 2.91565 9.27183 2.94541 9.27183H3.89162C4.04635 9.27183 4.18322 9.30754 4.30224 9.37895C4.42424 9.45036 4.51796 9.55153 4.58343 9.68245C4.65186 9.81337 4.68608 9.96364 4.68608 10.1332C4.68608 10.3356 4.63698 10.5082 4.53879 10.651C4.4406 10.7938 4.3067 10.889 4.1371 10.9366C4.1252 10.9426 4.12222 10.95 4.12817 10.9589L4.70393 12.3426L4.7084 12.3604C4.7084 12.3842 4.69501 12.3961 4.66823 12.3961H4.43167ZM3.23552 9.54855C3.22362 9.54855 3.21767 9.55451 3.21767 9.56641V10.6956C3.21767 10.7075 3.22362 10.7135 3.23552 10.7135H3.85145C4.00618 10.7135 4.13115 10.6599 4.22636 10.5528C4.32158 10.4457 4.36919 10.3058 4.36919 10.1332C4.36919 9.95769 4.32158 9.81635 4.22636 9.70923C4.13115 9.60211 4.00618 9.54855 3.85145 9.54855H3.23552ZM6.08898 12.4318C5.90747 12.4318 5.74679 12.3946 5.60694 12.3202C5.47007 12.2429 5.36295 12.1358 5.28559 11.9989C5.2112 11.862 5.17401 11.7043 5.17401 11.5258V10.1466C5.17401 9.9681 5.2112 9.8104 5.28559 9.67353C5.36295 9.53368 5.47007 9.42656 5.60694 9.35217C5.74679 9.27481 5.90747 9.23613 6.08898 9.23613C6.27048 9.23613 6.42967 9.27481 6.56655 9.35217C6.70639 9.42656 6.815 9.53368 6.89236 9.67353C6.96973 9.8104 7.00841 9.9681 7.00841 10.1466V11.5258C7.00841 11.7043 6.96973 11.862 6.89236 11.9989C6.815 12.1358 6.70639 12.2429 6.56655 12.3202C6.42967 12.3946 6.27048 12.4318 6.08898 12.4318ZM6.08898 12.1551C6.27048 12.1551 6.41628 12.0986 6.52638 11.9855C6.63647 11.8724 6.69152 11.7237 6.69152 11.5392V10.1377C6.69152 9.95025 6.63647 9.79998 6.52638 9.68692C6.41628 9.57087 6.27048 9.51285 6.08898 9.51285C5.91045 9.51285 5.76613 9.57087 5.65604 9.68692C5.54595 9.79998 5.4909 9.95025 5.4909 10.1377V11.5392C5.4909 11.7237 5.54595 11.8724 5.65604 11.9855C5.76613 12.0986 5.91045 12.1551 6.08898 12.1551ZM8.64671 9.26737C8.88475 9.26737 9.07667 9.34771 9.22247 9.50838C9.37124 9.66609 9.44563 9.87586 9.44563 10.1377C9.44563 10.3966 9.37124 10.6049 9.22247 10.7626C9.07667 10.9173 8.88475 10.9947 8.64671 10.9947H7.98168C7.96978 10.9947 7.96383 11.0006 7.96383 11.0125V12.3515C7.96383 12.3812 7.94895 12.3961 7.91919 12.3961H7.69157C7.66181 12.3961 7.64693 12.3812 7.64693 12.3515V9.312C7.64693 9.28225 7.66181 9.26737 7.69157 9.26737H8.64671ZM8.60654 10.7313C8.76424 10.7313 8.8907 10.6778 8.98591 10.5706C9.08113 10.4635 9.12874 10.3207 9.12874 10.1422C9.12874 9.96066 9.08113 9.81635 8.98591 9.70923C8.8907 9.59914 8.76424 9.54409 8.60654 9.54409H7.98168C7.96978 9.54409 7.96383 9.55004 7.96383 9.56194V10.7135C7.96383 10.7254 7.96978 10.7313 7.98168 10.7313H8.60654ZM10.7248 12.4318C10.4451 12.4318 10.2219 12.3589 10.0553 12.2131C9.89167 12.0643 9.80984 11.8665 9.80984 11.6195V11.499C9.80984 11.4692 9.82472 11.4544 9.85447 11.4544H10.0732C10.1029 11.4544 10.1178 11.4692 10.1178 11.499V11.6017C10.1178 11.7683 10.1743 11.9022 10.2874 12.0034C10.4005 12.1045 10.5507 12.1551 10.7382 12.1551C10.9138 12.1551 11.0521 12.1075 11.1533 12.0123C11.2545 11.9171 11.305 11.7921 11.305 11.6374C11.305 11.5362 11.2812 11.4484 11.2336 11.374C11.186 11.2996 11.1161 11.2312 11.0238 11.1687C10.9316 11.1062 10.7992 11.0274 10.6266 10.9322C10.4421 10.834 10.2963 10.7477 10.1892 10.6733C10.0851 10.5989 10.0003 10.5082 9.93481 10.401C9.86935 10.2939 9.83662 10.163 9.83662 10.0083C9.83662 9.76725 9.91398 9.57831 10.0687 9.44144C10.2234 9.30456 10.4302 9.23613 10.6891 9.23613C10.9658 9.23613 11.186 9.312 11.3497 9.46375C11.5133 9.6155 11.5951 9.81635 11.5951 10.0663V10.1689C11.5951 10.1987 11.5803 10.2136 11.5505 10.2136H11.3274C11.2976 10.2136 11.2827 10.1987 11.2827 10.1689V10.0708C11.2827 9.90413 11.2292 9.77023 11.122 9.66906C11.0149 9.56492 10.8676 9.51285 10.6802 9.51285C10.5135 9.51285 10.3826 9.55599 10.2874 9.64228C10.1952 9.72857 10.149 9.85057 10.149 10.0083C10.149 10.1094 10.1714 10.1942 10.216 10.2627C10.2606 10.3311 10.3246 10.3936 10.4079 10.4501C10.4942 10.5067 10.6251 10.5825 10.8007 10.6778C11.003 10.7908 11.1577 10.8875 11.2649 10.9679C11.375 11.0452 11.4612 11.136 11.5237 11.2401C11.5892 11.3413 11.6219 11.4663 11.6219 11.615C11.6219 11.865 11.5416 12.0643 11.3809 12.2131C11.2202 12.3589 11.0015 12.4318 10.7248 12.4318ZM14.6534 11.2535C14.6831 11.2535 14.698 11.2684 14.698 11.2982V11.4945C14.698 11.5243 14.6831 11.5392 14.6534 11.5392H14.4882C14.4763 11.5392 14.4704 11.5451 14.4704 11.557V12.3515C14.4704 12.3812 14.4555 12.3961 14.4257 12.3961H14.1981C14.1683 12.3961 14.1535 12.3812 14.1535 12.3515V11.557C14.1535 11.5451 14.1475 11.5392 14.1356 11.5392H12.9261C12.8963 11.5392 12.8814 11.5243 12.8814 11.4945V11.3249C12.8814 11.3041 12.8844 11.2863 12.8904 11.2714L13.6848 9.30754C13.6938 9.28373 13.7101 9.27183 13.7339 9.27183H13.9794C13.9943 9.27183 14.0047 9.27778 14.0106 9.28968C14.0166 9.29861 14.0166 9.31051 14.0106 9.32539L13.2519 11.2312C13.2489 11.2372 13.2489 11.2431 13.2519 11.2491C13.2549 11.252 13.2593 11.2535 13.2653 11.2535H14.1356C14.1475 11.2535 14.1535 11.2476 14.1535 11.2357V10.5305C14.1535 10.5007 14.1683 10.4858 14.1981 10.4858H14.4257C14.4555 10.4858 14.4704 10.5007 14.4704 10.5305V11.2357C14.4704 11.2476 14.4763 11.2535 14.4882 11.2535H14.6534ZM16.003 12.4408C15.7471 12.4408 15.5418 12.3634 15.3871 12.2087C15.2324 12.0539 15.155 11.8471 15.155 11.5883V10.0797C15.155 9.82379 15.2324 9.61848 15.3871 9.46375C15.5418 9.30903 15.7471 9.23166 16.003 9.23166C16.2619 9.23166 16.4687 9.30903 16.6234 9.46375C16.7811 9.61848 16.86 9.82379 16.86 10.0797V11.5883C16.86 11.8471 16.7811 12.0539 16.6234 12.2087C16.4687 12.3634 16.2619 12.4408 16.003 12.4408ZM16.003 12.164C16.1667 12.164 16.2976 12.1134 16.3958 12.0123C16.494 11.9111 16.5431 11.7772 16.5431 11.6106V10.0618C16.5431 9.8952 16.494 9.7613 16.3958 9.66014C16.2976 9.55897 16.1667 9.50838 16.003 9.50838C15.8453 9.50838 15.7174 9.55897 15.6192 9.66014C15.521 9.7613 15.4719 9.8952 15.4719 10.0618V11.6106C15.4719 11.7742 15.521 11.9081 15.6192 12.0123C15.7174 12.1134 15.8453 12.164 16.003 12.164ZM18.1361 10.4992C18.02 10.4992 17.9129 10.471 17.8147 10.4144C17.7195 10.3579 17.6436 10.282 17.5871 10.1868C17.5305 10.0886 17.5023 9.98149 17.5023 9.86545C17.5023 9.7494 17.5305 9.64377 17.5871 9.54855C17.6436 9.45036 17.7195 9.373 17.8147 9.31646C17.9129 9.25993 18.02 9.23166 18.1361 9.23166C18.2491 9.23166 18.3533 9.25993 18.4485 9.31646C18.5467 9.373 18.624 9.45036 18.6806 9.54855C18.7371 9.64377 18.7654 9.7494 18.7654 9.86545C18.7654 9.98149 18.7371 10.0886 18.6806 10.1868C18.624 10.282 18.5467 10.3579 18.4485 10.4144C18.3533 10.471 18.2491 10.4992 18.1361 10.4992ZM18.0334 12.3961C18.0185 12.3961 18.0066 12.3917 17.9977 12.3827C17.9918 12.3708 17.9932 12.3574 18.0022 12.3426L19.6625 9.30307C19.6714 9.28225 19.6893 9.27183 19.7161 9.27183H19.8589C19.8738 9.27183 19.8842 9.27778 19.8901 9.28968C19.8991 9.29861 19.8991 9.31051 19.8901 9.32539L18.2298 12.3649C18.2209 12.3857 18.203 12.3961 18.1762 12.3961H18.0334ZM18.1361 10.3028C18.2551 10.3028 18.3548 10.2612 18.4351 10.1779C18.5184 10.0916 18.5601 9.98744 18.5601 9.86545C18.5601 9.74345 18.5184 9.64079 18.4351 9.55748C18.3548 9.47119 18.2551 9.42805 18.1361 9.42805C18.017 9.42805 17.9159 9.47119 17.8326 9.55748C17.7492 9.64079 17.7076 9.74345 17.7076 9.86545C17.7076 9.98744 17.7492 10.0916 17.8326 10.1779C17.9159 10.2612 18.017 10.3028 18.1361 10.3028ZM19.7741 12.4363C19.658 12.4363 19.5509 12.408 19.4527 12.3515C19.3575 12.295 19.2816 12.2176 19.2251 12.1194C19.1686 12.0212 19.1403 11.9141 19.1403 11.798C19.1403 11.685 19.1686 11.5808 19.2251 11.4856C19.2816 11.3874 19.3575 11.3101 19.4527 11.2535C19.5509 11.197 19.658 11.1687 19.7741 11.1687C19.8872 11.1687 19.9913 11.197 20.0865 11.2535C20.1847 11.3101 20.2621 11.3874 20.3186 11.4856C20.3751 11.5808 20.4034 11.685 20.4034 11.798C20.4034 11.9141 20.3751 12.0212 20.3186 12.1194C20.2621 12.2176 20.1847 12.295 20.0865 12.3515C19.9913 12.408 19.8872 12.4363 19.7741 12.4363ZM19.7741 12.2399C19.8931 12.2399 19.9928 12.1968 20.0731 12.1105C20.1564 12.0242 20.1981 11.92 20.1981 11.798C20.1981 11.676 20.1564 11.5734 20.0731 11.4901C19.9928 11.4068 19.8931 11.3651 19.7741 11.3651C19.6551 11.3651 19.5539 11.4068 19.4706 11.4901C19.3873 11.5734 19.3456 11.676 19.3456 11.798C19.3456 11.923 19.3858 12.0286 19.4661 12.1149C19.5494 12.1982 19.6521 12.2399 19.7741 12.2399Z" fill="#404040"/>
<path d="M50.4859 39.2483L52.8058 42.324H62.4166" stroke="black" stroke-width="0.145684"/>
<path d="M54.3573 41.1978C54.3275 41.1978 54.3126 41.1829 54.3126 41.1531V38.1181C54.3126 38.0883 54.3275 38.0735 54.3573 38.0735H54.5849C54.6146 38.0735 54.6295 38.0883 54.6295 38.1181V39.5999C54.6295 39.6059 54.6325 39.6103 54.6384 39.6133C54.6444 39.6133 54.6489 39.6103 54.6518 39.6044L55.7855 38.1002C55.7974 38.0824 55.8167 38.0735 55.8435 38.0735H56.0935C56.1113 38.0735 56.1232 38.0794 56.1292 38.0913C56.1351 38.1002 56.1321 38.1121 56.1202 38.127L55.2276 39.35C55.2246 39.3589 55.2246 39.3678 55.2276 39.3767L56.2006 41.1442C56.2065 41.1561 56.2095 41.165 56.2095 41.171C56.2095 41.1888 56.1961 41.1978 56.1693 41.1978H55.9105C55.8837 41.1978 55.8658 41.1873 55.8569 41.1665L55.0089 39.6267C55.0029 39.6118 54.9955 39.6118 54.9866 39.6267L54.6384 40.0685C54.6325 40.0745 54.6295 40.0819 54.6295 40.0909V41.1531C54.6295 41.1829 54.6146 41.1978 54.5849 41.1978H54.3573ZM56.7284 41.1978C56.6986 41.1978 56.6837 41.1829 56.6837 41.1531V38.1181C56.6837 38.0883 56.6986 38.0735 56.7284 38.0735H56.956C56.9857 38.0735 57.0006 38.0883 57.0006 38.1181V41.1531C57.0006 41.1829 56.9857 41.1978 56.956 41.1978H56.7284ZM58.2695 41.1978C58.2428 41.1978 58.2264 41.1844 58.2205 41.1576L57.5019 38.1226L57.4974 38.1047C57.4974 38.0839 57.5108 38.0735 57.5376 38.0735H57.7786C57.8054 38.0735 57.8217 38.0869 57.8277 38.1136L58.3722 40.5104C58.3752 40.5193 58.3782 40.5238 58.3811 40.5238C58.3871 40.5238 58.3915 40.5193 58.3945 40.5104L58.8899 38.1136C58.8959 38.0869 58.9123 38.0735 58.939 38.0735H59.1622C59.192 38.0735 59.2083 38.0869 59.2113 38.1136L59.7246 40.5104C59.7276 40.5193 59.7305 40.5238 59.7335 40.5238C59.7365 40.5238 59.7395 40.5193 59.7424 40.5104L60.2736 38.1136C60.2795 38.0869 60.2959 38.0735 60.3227 38.0735H60.5547C60.5845 38.0735 60.5964 38.0898 60.5904 38.1226L59.8942 41.1576C59.8882 41.1844 59.8719 41.1978 59.8451 41.1978H59.6175C59.5907 41.1978 59.5743 41.1844 59.5684 41.1576L59.0595 38.7251C59.0566 38.7162 59.0536 38.7117 59.0506 38.7117C59.0476 38.7117 59.0447 38.7162 59.0417 38.7251L58.5373 41.1576C58.5344 41.1844 58.518 41.1978 58.4883 41.1978H58.2695ZM61.1393 41.1978C61.1096 41.1978 61.0947 41.1829 61.0947 41.1531V38.1181C61.0947 38.0883 61.1096 38.0735 61.1393 38.0735H61.367C61.3967 38.0735 61.4116 38.0883 61.4116 38.1181V41.1531C61.4116 41.1829 61.3967 41.1978 61.367 41.1978H61.1393ZM55.0669 46.2335C54.7872 46.2335 54.5641 46.1606 54.3974 46.0148C54.2338 45.866 54.1519 45.6681 54.1519 45.4211V45.3006C54.1519 45.2709 54.1668 45.256 54.1966 45.256H54.4153C54.445 45.256 54.4599 45.2709 54.4599 45.3006V45.4033C54.4599 45.5699 54.5164 45.7038 54.6295 45.805C54.7426 45.9062 54.8928 45.9567 55.0803 45.9567C55.2559 45.9567 55.3942 45.9091 55.4954 45.8139C55.5966 45.7187 55.6471 45.5937 55.6471 45.439C55.6471 45.3378 55.6233 45.2501 55.5757 45.1757C55.5281 45.1013 55.4582 45.0328 55.366 44.9704C55.2737 44.9079 55.1413 44.829 54.9687 44.7338C54.7842 44.6356 54.6384 44.5493 54.5313 44.4749C54.4272 44.4005 54.3424 44.3098 54.2769 44.2027C54.2115 44.0956 54.1787 43.9646 54.1787 43.8099C54.1787 43.5689 54.2561 43.3799 54.4108 43.2431C54.5655 43.1062 54.7723 43.0378 55.0312 43.0378C55.3079 43.0378 55.5281 43.1136 55.6918 43.2654C55.8554 43.4171 55.9372 43.618 55.9372 43.8679V43.9706C55.9372 44.0003 55.9224 44.0152 55.8926 44.0152H55.6695C55.6397 44.0152 55.6248 44.0003 55.6248 43.9706V43.8724C55.6248 43.7058 55.5713 43.5719 55.4641 43.4707C55.357 43.3666 55.2097 43.3145 55.0223 43.3145C54.8557 43.3145 54.7247 43.3576 54.6295 43.4439C54.5373 43.5302 54.4912 43.6522 54.4912 43.8099C54.4912 43.9111 54.5135 43.9959 54.5581 44.0643C54.6027 44.1327 54.6667 44.1952 54.75 44.2518C54.8363 44.3083 54.9672 44.3842 55.1428 44.4794C55.3451 44.5925 55.4998 44.6892 55.607 44.7695C55.7171 44.8469 55.8034 44.9376 55.8658 45.0418C55.9313 45.1429 55.964 45.2679 55.964 45.4167C55.964 45.6666 55.8837 45.866 55.723 46.0148C55.5623 46.1606 55.3436 46.2335 55.0669 46.2335ZM58.2358 43.1047C58.2507 43.0839 58.2686 43.0735 58.2894 43.0735H58.5215C58.5512 43.0735 58.5661 43.0883 58.5661 43.1181V46.1531C58.5661 46.1829 58.5512 46.1978 58.5215 46.1978H58.2939C58.2641 46.1978 58.2492 46.1829 58.2492 46.1531V43.7251C58.2492 43.7162 58.2462 43.7102 58.2403 43.7073C58.2343 43.7043 58.2299 43.7073 58.2269 43.7162L57.6333 44.7472C57.6184 44.768 57.6006 44.7784 57.5797 44.7784H57.5306C57.5098 44.7784 57.492 44.768 57.4771 44.7472L56.879 43.7206C56.876 43.7117 56.8716 43.7087 56.8656 43.7117C56.8597 43.7147 56.8567 43.7206 56.8567 43.7296V46.1531C56.8567 46.1829 56.8418 46.1978 56.812 46.1978H56.5844C56.5547 46.1978 56.5398 46.1829 56.5398 46.1531V43.1181C56.5398 43.0883 56.5547 43.0735 56.5844 43.0735H56.8165C56.8373 43.0735 56.8552 43.0839 56.8701 43.1047L57.544 44.2518C57.547 44.2547 57.5515 44.2562 57.5574 44.2562C57.5634 44.2562 57.5678 44.2547 57.5708 44.2518L58.2358 43.1047ZM60.1335 46.2335C59.9519 46.2335 59.7913 46.1963 59.6514 46.1219C59.5145 46.0445 59.4074 45.9374 59.3301 45.8005C59.2557 45.6636 59.2185 45.5059 59.2185 45.3274V43.9483C59.2185 43.7697 59.2557 43.612 59.3301 43.4752C59.4074 43.3353 59.5145 43.2282 59.6514 43.1538C59.7913 43.0764 59.9519 43.0378 60.1335 43.0378C60.315 43.0378 60.4741 43.0764 60.611 43.1538C60.7509 43.2282 60.8595 43.3353 60.9368 43.4752C61.0142 43.612 61.0529 43.7697 61.0529 43.9483V45.3274C61.0529 45.5059 61.0142 45.6636 60.9368 45.8005C60.8595 45.9374 60.7509 46.0445 60.611 46.1219C60.4741 46.1963 60.315 46.2335 60.1335 46.2335ZM60.1335 45.9567C60.315 45.9567 60.4608 45.9002 60.5709 45.7871C60.6809 45.6741 60.736 45.5253 60.736 45.3408V43.9393C60.736 43.7519 60.6809 43.6016 60.5709 43.4886C60.4608 43.3725 60.315 43.3145 60.1335 43.3145C59.9549 43.3145 59.8106 43.3725 59.7005 43.4886C59.5904 43.6016 59.5354 43.7519 59.5354 43.9393V45.3408C59.5354 45.5253 59.5904 45.6741 59.7005 45.7871C59.8106 45.9002 59.9549 45.9567 60.1335 45.9567ZM62.5394 46.2335C62.3579 46.2335 62.1972 46.1963 62.0574 46.1219C61.9205 46.0445 61.8134 45.9374 61.736 45.8005C61.6617 45.6636 61.6245 45.5059 61.6245 45.3274V43.9483C61.6245 43.7697 61.6617 43.612 61.736 43.4752C61.8134 43.3353 61.9205 43.2282 62.0574 43.1538C62.1972 43.0764 62.3579 43.0378 62.5394 43.0378C62.7209 43.0378 62.8801 43.0764 63.017 43.1538C63.1569 43.2282 63.2655 43.3353 63.3428 43.4752C63.4202 43.612 63.4589 43.7697 63.4589 43.9483V45.3274C63.4589 45.5059 63.4202 45.6636 63.3428 45.8005C63.2655 45.9374 63.1569 46.0445 63.017 46.1219C62.8801 46.1963 62.7209 46.2335 62.5394 46.2335ZM62.5394 45.9567C62.7209 45.9567 62.8667 45.9002 62.9768 45.7871C63.0869 45.6741 63.142 45.5253 63.142 45.3408V43.9393C63.142 43.7519 63.0869 43.6016 62.9768 43.4886C62.8667 43.3725 62.7209 43.3145 62.5394 43.3145C62.3609 43.3145 62.2166 43.3725 62.1065 43.4886C61.9964 43.6016 61.9414 43.7519 61.9414 43.9393V45.3408C61.9414 45.5253 61.9964 45.6741 62.1065 45.7871C62.2166 45.9002 62.3609 45.9567 62.5394 45.9567ZM65.7224 43.0735C65.7522 43.0735 65.7671 43.0883 65.7671 43.1181V43.3056C65.7671 43.3353 65.7522 43.3502 65.7224 43.3502H64.9949C64.983 43.3502 64.9771 43.3561 64.9771 43.368V46.1531C64.9771 46.1829 64.9622 46.1978 64.9324 46.1978H64.7048C64.6751 46.1978 64.6602 46.1829 64.6602 46.1531V43.368C64.6602 43.3561 64.6542 43.3502 64.6423 43.3502H63.9416C63.9118 43.3502 63.897 43.3353 63.897 43.3056V43.1181C63.897 43.0883 63.9118 43.0735 63.9416 43.0735H65.7224ZM67.7715 43.1181C67.7715 43.0883 67.7864 43.0735 67.8161 43.0735H68.0438C68.0735 43.0735 68.0884 43.0883 68.0884 43.1181V46.1531C68.0884 46.1829 68.0735 46.1978 68.0438 46.1978H67.8161C67.7864 46.1978 67.7715 46.1829 67.7715 46.1531V44.7874C67.7715 44.7755 67.7655 44.7695 67.7536 44.7695H66.6468C66.6349 44.7695 66.6289 44.7755 66.6289 44.7874V46.1531C66.6289 46.1829 66.614 46.1978 66.5843 46.1978H66.3566C66.3269 46.1978 66.312 46.1829 66.312 46.1531V43.1181C66.312 43.0883 66.3269 43.0735 66.3566 43.0735H66.5843C66.614 43.0735 66.6289 43.0883 66.6289 43.1181V44.4749C66.6289 44.4868 66.6349 44.4928 66.6468 44.4928H67.7536C67.7655 44.4928 67.7715 44.4868 67.7715 44.4749V43.1181ZM68.8716 46.1978C68.8418 46.1978 68.827 46.1829 68.827 46.1531V43.1181C68.827 43.0883 68.8418 43.0735 68.8716 43.0735H69.0992C69.129 43.0735 69.1438 43.0883 69.1438 43.1181V46.1531C69.1438 46.1829 69.129 46.1978 69.0992 46.1978H68.8716ZM71.6045 43.3056C71.6045 43.3353 71.5896 43.3502 71.5598 43.3502H70.2209C70.209 43.3502 70.203 43.3561 70.203 43.368V44.4749C70.203 44.4868 70.209 44.4928 70.2209 44.4928H71.1224C71.1522 44.4928 71.1671 44.5077 71.1671 44.5374V44.7249C71.1671 44.7546 71.1522 44.7695 71.1224 44.7695H70.2209C70.209 44.7695 70.203 44.7755 70.203 44.7874V45.9032C70.203 45.9151 70.209 45.921 70.2209 45.921H71.5598C71.5896 45.921 71.6045 45.9359 71.6045 45.9657V46.1531C71.6045 46.1829 71.5896 46.1978 71.5598 46.1978H69.9307C69.901 46.1978 69.8861 46.1829 69.8861 46.1531V43.1181C69.8861 43.0883 69.901 43.0735 69.9307 43.0735H71.5598C71.5896 43.0735 71.6045 43.0883 71.6045 43.1181V43.3056ZM55.8703 50.0552C55.9001 50.0552 55.9149 50.07 55.9149 50.0998V50.2962C55.9149 50.3259 55.9001 50.3408 55.8703 50.3408H55.7052C55.6933 50.3408 55.6873 50.3468 55.6873 50.3587V51.1531C55.6873 51.1829 55.6724 51.1978 55.6427 51.1978H55.415C55.3853 51.1978 55.3704 51.1829 55.3704 51.1531V50.3587C55.3704 50.3468 55.3645 50.3408 55.3526 50.3408H54.143C54.1133 50.3408 54.0984 50.3259 54.0984 50.2962V50.1266C54.0984 50.1057 54.1014 50.0879 54.1073 50.073L54.9018 48.1092C54.9107 48.0854 54.9271 48.0735 54.9509 48.0735H55.1963C55.2112 48.0735 55.2216 48.0794 55.2276 48.0913C55.2335 48.1002 55.2335 48.1121 55.2276 48.127L54.4688 50.0328C54.4659 50.0388 54.4659 50.0447 54.4688 50.0507C54.4718 50.0537 54.4763 50.0552 54.4822 50.0552H55.3526C55.3645 50.0552 55.3704 50.0492 55.3704 50.0373V49.3321C55.3704 49.3024 55.3853 49.2875 55.415 49.2875H55.6427C55.6724 49.2875 55.6873 49.3024 55.6873 49.3321V50.0373C55.6873 50.0492 55.6933 50.0552 55.7052 50.0552H55.8703ZM57.22 51.2424C56.9641 51.2424 56.7588 51.165 56.6041 51.0103C56.4493 50.8556 56.372 50.6488 56.372 50.3899V48.8813C56.372 48.6254 56.4493 48.4201 56.6041 48.2654C56.7588 48.1107 56.9641 48.0333 57.22 48.0333C57.4789 48.0333 57.6857 48.1107 57.8404 48.2654C57.9981 48.4201 58.0769 48.6254 58.0769 48.8813V50.3899C58.0769 50.6488 57.9981 50.8556 57.8404 51.0103C57.6857 51.165 57.4789 51.2424 57.22 51.2424ZM57.22 50.9657C57.3836 50.9657 57.5146 50.9151 57.6128 50.8139C57.7109 50.7127 57.76 50.5788 57.76 50.4122V48.8635C57.76 48.6968 57.7109 48.5629 57.6128 48.4618C57.5146 48.3606 57.3836 48.31 57.22 48.31C57.0623 48.31 56.9343 48.3606 56.8361 48.4618C56.738 48.5629 56.6889 48.6968 56.6889 48.8635V50.4122C56.6889 50.5759 56.738 50.7098 56.8361 50.8139C56.9343 50.9151 57.0623 50.9657 57.22 50.9657ZM59.353 49.3009C59.237 49.3009 59.1298 49.2726 59.0317 49.2161C58.9364 49.1595 58.8606 49.0837 58.804 48.9884C58.7475 48.8902 58.7192 48.7831 58.7192 48.6671C58.7192 48.551 58.7475 48.4454 58.804 48.3502C58.8606 48.252 58.9364 48.1746 59.0317 48.1181C59.1298 48.0616 59.237 48.0333 59.353 48.0333C59.4661 48.0333 59.5702 48.0616 59.6654 48.1181C59.7636 48.1746 59.841 48.252 59.8975 48.3502C59.9541 48.4454 59.9823 48.551 59.9823 48.6671C59.9823 48.7831 59.9541 48.8902 59.8975 48.9884C59.841 49.0837 59.7636 49.1595 59.6654 49.2161C59.5702 49.2726 59.4661 49.3009 59.353 49.3009ZM59.2504 51.1978C59.2355 51.1978 59.2236 51.1933 59.2146 51.1844C59.2087 51.1725 59.2102 51.1591 59.2191 51.1442L60.8794 48.1047C60.8884 48.0839 60.9062 48.0735 60.933 48.0735H61.0758C61.0907 48.0735 61.1011 48.0794 61.1071 48.0913C61.116 48.1002 61.116 48.1121 61.1071 48.127L59.4467 51.1665C59.4378 51.1873 59.42 51.1978 59.3932 51.1978H59.2504ZM59.353 49.1045C59.472 49.1045 59.5717 49.0628 59.652 48.9795C59.7354 48.8932 59.777 48.7891 59.777 48.6671C59.777 48.5451 59.7354 48.4424 59.652 48.3591C59.5717 48.2728 59.472 48.2297 59.353 48.2297C59.234 48.2297 59.1328 48.2728 59.0495 48.3591C58.9662 48.4424 58.9245 48.5451 58.9245 48.6671C58.9245 48.7891 58.9662 48.8932 59.0495 48.9795C59.1328 49.0628 59.234 49.1045 59.353 49.1045ZM60.991 51.2379C60.875 51.2379 60.7679 51.2097 60.6697 51.1531C60.5745 51.0966 60.4986 51.0192 60.442 50.921C60.3855 50.8228 60.3572 50.7157 60.3572 50.5997C60.3572 50.4866 60.3855 50.3825 60.442 50.2872C60.4986 50.1891 60.5745 50.1117 60.6697 50.0552C60.7679 49.9986 60.875 49.9704 60.991 49.9704C61.1041 49.9704 61.2082 49.9986 61.3035 50.0552C61.4016 50.1117 61.479 50.1891 61.5355 50.2872C61.5921 50.3825 61.6203 50.4866 61.6203 50.5997C61.6203 50.7157 61.5921 50.8228 61.5355 50.921C61.479 51.0192 61.4016 51.0966 61.3035 51.1531C61.2082 51.2097 61.1041 51.2379 60.991 51.2379ZM60.991 51.0415C61.11 51.0415 61.2097 50.9984 61.2901 50.9121C61.3734 50.8258 61.415 50.7217 61.415 50.5997C61.415 50.4777 61.3734 50.375 61.2901 50.2917C61.2097 50.2084 61.11 50.1667 60.991 50.1667C60.872 50.1667 60.7708 50.2084 60.6875 50.2917C60.6042 50.375 60.5626 50.4777 60.5626 50.5997C60.5626 50.7246 60.6027 50.8303 60.6831 50.9166C60.7664 50.9999 60.869 51.0415 60.991 51.0415Z" fill="#404040"/>
<path fill-rule="evenodd" clip-rule="evenodd" d="M34.3192 21.0141L34.181 21.0273L34.1747 21.2084L34.1683 21.3917H34.3893C34.5105 21.3917 34.7846 21.3983 34.9951 21.4072L35.3819 21.4204V23.9533C35.3819 26.4199 35.3904 26.9565 35.4286 26.9565C35.4371 26.9565 35.5009 26.9124 35.5689 26.8572C35.6667 26.7777 35.7219 26.7512 35.8558 26.7203L36.0195 26.6805V24.0505V21.4204L36.6189 21.4072C37.0652 21.3961 37.2225 21.3851 37.2352 21.3652C37.2586 21.3255 37.2565 21.1002 37.2331 21.0627C37.2204 21.0428 37.1587 21.0229 37.0886 21.0141C36.944 20.9942 34.5232 20.9964 34.3192 21.0141Z" fill="#323232"/>
<path fill-rule="evenodd" clip-rule="evenodd" d="M38.1321 21.0094C38.0896 21.0182 38.0875 21.0315 38.0747 21.6631C38.0662 22.0186 38.0599 22.7429 38.0599 23.2729V24.2401H37.5923H37.1247V23.295C37.1247 22.776 37.1183 22.1798 37.1098 21.97L37.0971 21.5902H36.8059H36.5126L36.4977 22.2792C36.4892 22.659 36.4871 23.8404 36.4913 24.9026L36.4977 26.8348L36.5466 26.943C36.6061 27.0799 36.6061 27.1484 36.5402 27.3096C36.4679 27.4863 36.4722 27.526 36.5572 27.5613C36.6847 27.6166 36.7974 27.6254 36.9228 27.5856C37.1226 27.526 37.1119 27.6166 37.1204 25.967L37.1289 24.5493H37.5944H38.0599V25.8014C38.0599 26.4925 38.0662 27.197 38.0747 27.367L38.0875 27.6806L38.1683 27.7071C38.2554 27.738 38.3447 27.7226 38.5593 27.6386L38.6762 27.5945L38.6741 24.9291C38.672 23.4628 38.6635 21.981 38.6571 21.6343L38.6444 21.005L38.4106 21.0028C38.283 21.0006 38.1576 21.0028 38.1321 21.0094Z" fill="#323232"/>
<path fill-rule="evenodd" clip-rule="evenodd" d="M33.5369 21.7667C33.2669 21.8065 33.0778 21.9103 32.9906 22.0626C32.9141 22.1996 32.895 22.3696 32.895 22.8908C32.895 23.7012 32.8992 23.7078 33.7877 25.0681C34.0044 25.4016 34.0363 25.4568 34.1383 25.693C34.2297 25.9028 34.2382 25.9382 34.2552 26.1789C34.2659 26.3202 34.2765 26.7089 34.2765 27.0379C34.2765 27.3691 34.2829 27.6407 34.2935 27.6407C34.302 27.6407 34.4359 27.6209 34.5911 27.5944L34.8737 27.5458L34.8674 26.7155L34.861 25.8852L34.7696 25.6489C34.6676 25.3883 34.4784 25.0615 34.064 24.4387C33.9152 24.2135 33.7366 23.9264 33.6708 23.8028L33.5475 23.5753L33.5262 22.9526C33.505 22.268 33.5156 22.1421 33.6091 22.0472C33.6686 21.9854 33.7409 21.9655 33.9152 21.9655C34.0831 21.9655 34.1596 21.9986 34.217 22.0936C34.2637 22.1731 34.2659 22.1929 34.2765 22.9195C34.285 23.4848 34.2935 23.6703 34.3148 23.6924C34.3488 23.7277 34.7823 23.7431 34.8291 23.7122C34.8567 23.6924 34.861 23.5841 34.8674 23.0034C34.8737 22.2791 34.861 22.1179 34.7866 22.0096C34.7356 21.9346 34.5273 21.8264 34.3615 21.7888C34.2106 21.7557 33.7111 21.7424 33.5369 21.7667Z" fill="#323232"/>
<path fill-rule="evenodd" clip-rule="evenodd" d="M39.8942 21.8114C39.5584 21.86 39.382 21.9527 39.28 22.1338C39.2247 22.2287 39.2205 22.2641 39.2056 22.56C39.1971 22.7366 39.1886 23.9335 39.1886 25.2165L39.1865 27.5507L39.2566 27.6037C39.4118 27.7273 39.535 27.7384 39.7136 27.6478L39.7922 27.6081L39.7986 26.2986L39.8028 24.9913H40.1854H40.568V26.303V27.6147L40.7061 27.7075L40.8464 27.8024L40.9803 27.7428C41.0568 27.7097 41.1333 27.6677 41.1567 27.6523C41.1928 27.6236 41.195 27.5418 41.2013 25.9143C41.2098 23.9424 41.1822 22.3944 41.1355 22.2133C41.0653 21.9395 40.8294 21.8313 40.2385 21.8025C40.1216 21.7981 39.9665 21.8003 39.8942 21.8114ZM40.3979 22.0521C40.4447 22.0764 40.4872 22.1227 40.5148 22.178C40.5531 22.2597 40.5552 22.3259 40.5637 23.3572C40.568 23.9578 40.5637 24.5099 40.5531 24.5828L40.5361 24.7153L40.2385 24.7219C40.0749 24.7263 39.9091 24.7219 39.873 24.7153L39.8028 24.702V23.748C39.805 22.6836 39.8241 22.2508 39.873 22.1515C39.9474 22.0013 40.2045 21.9527 40.3979 22.0521Z" fill="#323232"/>
<path fill-rule="evenodd" clip-rule="evenodd" d="M30.6334 22.7847C30.627 22.8598 30.6207 23.7983 30.6207 24.8693V26.817L30.7716 26.8325C30.8545 26.8391 30.9777 26.8656 31.0457 26.8899C31.1159 26.9142 31.1818 26.9341 31.1945 26.9341C31.2179 26.9341 31.2264 22.9327 31.203 22.7516L31.1881 22.65H30.9182H30.6483L30.6334 22.7847Z" fill="#323232"/>
<path fill-rule="evenodd" clip-rule="evenodd" d="M31.8384 22.6766C31.8066 22.7274 31.7726 26.7994 31.8023 26.954C31.8193 27.0335 31.8512 27.0401 31.9086 26.9761C31.9702 26.9054 32.0616 26.8657 32.2231 26.837L32.3741 26.8105L32.3868 26.5013C32.4059 26.0972 32.4059 22.9637 32.3868 22.7936L32.3741 22.6611L32.1148 22.6545C31.9235 22.6501 31.8512 22.6567 31.8384 22.6766Z" fill="#323232"/>
<path fill-rule="evenodd" clip-rule="evenodd" d="M41.7265 22.6875C41.7158 22.7096 41.7052 23.3986 41.6988 24.22L41.6903 25.7106L41.7584 26.0308C41.9135 26.7574 42.0793 27.411 42.1558 27.6031C42.2536 27.8394 42.481 27.7422 42.481 27.4662C42.481 27.3978 42.4704 27.2719 42.4576 27.188C42.3407 26.3599 42.3152 25.8851 42.294 24.0412L42.2791 22.661L42.0113 22.6544C41.7711 22.65 41.7413 22.6522 41.7265 22.6875Z" fill="#323232"/>
<path fill-rule="evenodd" clip-rule="evenodd" d="M42.9148 22.6747C42.9063 22.6902 42.8914 23.3902 42.8829 24.2271C42.8744 25.0663 42.8574 25.848 42.8446 25.9628C42.7872 26.5061 42.7617 26.7733 42.7639 26.8351C42.766 26.8704 42.7596 26.9786 42.749 27.0736C42.732 27.248 42.732 27.248 42.7787 27.2215C42.8042 27.2083 42.8744 27.1487 42.9339 27.0935C42.9955 27.036 43.0805 26.961 43.1252 26.9256C43.1698 26.8903 43.2208 26.8329 43.2378 26.7998C43.2824 26.7092 43.4334 26.007 43.4589 25.7619C43.4865 25.519 43.4801 22.7078 43.4525 22.6791C43.4419 22.6703 43.3207 22.6592 43.1826 22.6548C42.9955 22.6482 42.9275 22.6548 42.9148 22.6747Z" fill="#323232"/>
<path fill-rule="evenodd" clip-rule="evenodd" d="M29.8151 23.5334L29.5303 23.5444L29.322 24.6375C29.2072 25.2382 29.1095 25.7439 29.1073 25.7615C29.0967 25.8189 29.0542 25.8101 29.0287 25.7483C29.0159 25.7152 28.9926 25.6114 28.9756 25.5208C28.9607 25.4303 28.882 25.0328 28.8034 24.6375C28.7248 24.2422 28.644 23.8359 28.6249 23.7321L28.5909 23.5444L28.2954 23.5378L28 23.5312L28.0128 25.0262C28.0213 25.8499 28.0276 26.8988 28.0276 27.3581V28.1928H28.3252H28.6227L28.6249 27.3802C28.6249 26.9341 28.6334 26.519 28.644 26.4593C28.6525 26.3975 28.661 26.3556 28.6631 26.3644C28.712 26.6338 28.8332 27.325 28.8438 27.4001C28.8672 27.5635 28.8927 27.5856 29.0606 27.5834C29.1775 27.5834 29.2094 27.5745 29.237 27.537C29.2604 27.5083 29.3007 27.3206 29.3539 26.9982C29.3985 26.7265 29.4431 26.488 29.4538 26.4704C29.4644 26.4483 29.4729 26.5057 29.4729 26.625C29.4729 26.9253 29.4984 27.1792 29.526 27.1903C29.5409 27.1969 29.5941 27.1726 29.6451 27.1373C29.6961 27.1019 29.8151 27.0401 29.9086 27.0004C30.0021 26.9584 30.085 26.9187 30.0956 26.912C30.1041 26.9054 30.1084 26.1391 30.1063 25.2095L30.0999 23.5223L29.8151 23.5334Z" fill="#323232"/>
<path fill-rule="evenodd" clip-rule="evenodd" d="M44.02 23.5598C44.0094 23.5752 43.9988 24.2929 43.9945 25.1563L43.986 26.7242L44.071 26.775C44.2432 26.8744 44.3218 27.0312 44.3027 27.2343C44.2878 27.3801 44.2283 27.5214 44.1008 27.7157C44.0094 27.8526 44.0009 27.8769 44.0009 27.9962C44.0009 28.0823 44.0115 28.1375 44.0328 28.1574C44.0689 28.1949 44.3622 28.2082 44.9425 28.1971L45.2868 28.1927V28.0293V27.8681L44.985 27.8526C44.8192 27.8438 44.6789 27.8328 44.6747 27.8306C44.6704 27.8261 44.6619 27.3955 44.6555 26.8744L44.6428 25.9248L44.8404 25.9116C44.9488 25.9027 45.0785 25.8961 45.1274 25.8961C45.2336 25.8961 45.2464 25.8696 45.2294 25.6841L45.2166 25.5649H44.934H44.6491V24.7279C44.6491 24.1582 44.6555 23.8844 44.6725 23.8756C44.6853 23.8667 44.8213 23.8535 44.9743 23.8468L45.2549 23.8314V23.6878V23.5443L44.6449 23.5377C44.1752 23.5333 44.0328 23.5399 44.02 23.5598Z" fill="#323232"/>
<path fill-rule="evenodd" clip-rule="evenodd" d="M32.8927 26.1083C32.8651 26.1834 32.8842 26.9696 32.9182 27.1352C32.9331 27.2014 32.931 27.2677 32.9182 27.3339C32.8864 27.4686 32.8906 27.5813 32.9246 27.6298C32.9523 27.6696 32.9586 27.6696 33.1839 27.621C33.3114 27.5923 33.4368 27.5658 33.4645 27.5592L33.5134 27.5481L33.507 26.8238C33.5027 26.4241 33.4921 26.0907 33.4836 26.0818C33.4751 26.0708 33.3433 26.0598 33.1924 26.0553L32.9161 26.0465L32.8927 26.1083Z" fill="#323232"/>
<path fill-rule="evenodd" clip-rule="evenodd" d="M35.8913 27.047C35.8105 27.0802 35.7085 27.1928 35.5895 27.3761C35.4874 27.5351 35.1495 27.9944 35.1346 27.9944C35.1325 27.9944 35.0942 27.9723 35.0517 27.948C34.9816 27.9038 34.9518 27.9016 34.7691 27.9127C34.4056 27.9325 34.1803 28.054 33.8233 28.4184C33.5278 28.7209 33.2664 28.8976 33.2111 28.8401C33.1963 28.8247 33.2451 28.7474 33.3557 28.6127C33.6915 28.1975 33.6915 28.1975 33.6766 28.0695C33.6723 28.0275 33.6468 27.99 33.5958 27.9546C33.4917 27.8818 33.3387 27.8972 33.1027 28.0054C33.005 28.0496 32.9136 28.0915 32.9008 28.0982C32.886 28.1048 32.8647 28.0849 32.8541 28.054C32.8052 27.9215 32.65 27.9237 32.531 28.0562C32.4906 28.1004 32.4014 28.2108 32.3333 28.2991C32.1251 28.5729 31.7616 28.8644 31.5916 28.8931C31.3684 28.9307 31.5278 28.6083 32.0974 27.8729C32.514 27.3341 32.5693 27.2325 32.4715 27.1773C32.4035 27.142 32.2526 27.1508 32.1782 27.1972C32.1421 27.2215 31.9975 27.3871 31.8573 27.5682C31.5767 27.9303 31.1793 28.3433 30.9242 28.5398C30.6373 28.7606 30.2866 28.9042 30.2058 28.8335C30.1144 28.7562 30.2249 28.5663 30.7032 27.9767C30.8243 27.8265 30.954 27.6521 30.9943 27.5903C31.073 27.4644 31.0879 27.3518 31.0347 27.2723C30.9561 27.1552 30.6266 27.1221 30.3312 27.1994C29.9189 27.3076 29.6553 27.5395 29.819 27.6521C29.887 27.6963 29.9784 27.6676 30.2334 27.5174C30.4417 27.3981 30.65 27.3319 30.6904 27.3739C30.718 27.4026 30.599 27.5616 30.2802 27.9171C29.8785 28.3632 29.7531 28.5862 29.7765 28.807C29.7935 28.9726 29.9763 29.1184 30.1654 29.1206C30.3737 29.1206 30.6777 28.9749 30.9157 28.7562C31.0028 28.6767 31.0857 28.6127 31.1027 28.6127C31.1367 28.6127 31.1367 28.6083 31.0985 28.7209C31.0602 28.8357 31.0879 28.9263 31.192 29.0168C31.3302 29.1361 31.5172 29.1449 31.7425 29.0411C31.8743 28.9793 31.9486 28.9726 31.9678 29.0212C31.9763 29.0433 32.0103 29.0543 32.074 29.0543C32.1676 29.0543 32.1718 29.0521 32.3227 28.86C32.5395 28.5862 32.6734 28.4471 32.8201 28.3367C33.1665 28.0783 33.4152 28.0496 33.2409 28.2881C33.2069 28.3322 33.1197 28.4382 33.0454 28.5266C32.8413 28.7673 32.7988 28.9196 32.9072 29.008C32.954 29.0455 32.9943 29.0543 33.1219 29.0543C33.2877 29.0543 33.3408 29.0345 33.547 28.8998C33.6022 28.8622 33.6596 28.8335 33.6745 28.8335C33.6894 28.8335 33.7191 28.8711 33.7425 28.9196C33.7935 29.0234 33.8764 29.061 34.0422 29.061C34.1909 29.0588 34.3334 28.9969 34.4715 28.8755C34.5268 28.8291 34.5799 28.7894 34.5926 28.7894C34.6054 28.7894 34.616 28.8203 34.616 28.8578C34.616 28.902 34.6373 28.9461 34.6777 28.9903C34.7308 29.0455 34.7563 29.0543 34.8541 29.0543C34.988 29.0543 35.1474 28.9837 35.3132 28.8512C35.3748 28.8026 35.4301 28.7673 35.4364 28.7739C35.4428 28.7805 35.4641 28.8181 35.4853 28.86C35.5066 28.8998 35.5682 28.966 35.6235 29.0036C35.7127 29.0676 35.7446 29.0764 35.8594 29.0764C36.0464 29.0764 36.1973 29.0411 36.3589 28.9638C36.548 28.8733 36.6734 28.7673 37.0177 28.425C37.2452 28.1953 37.328 28.1269 37.3854 28.1158C37.547 28.0827 37.5406 28.1048 37.3153 28.3698C36.9731 28.7673 36.9136 28.9086 37.0411 29.019C37.1708 29.1316 37.4407 29.0808 37.7127 28.8931C37.7914 28.8379 37.87 28.7894 37.8828 28.7849C37.8977 28.7805 37.9253 28.8136 37.9465 28.8556C38.0741 29.114 38.4396 29.1449 38.8456 28.9329C38.9221 28.8931 38.9986 28.8446 39.0135 28.8247C39.056 28.7717 39.073 28.7783 39.209 28.9086C39.3599 29.0543 39.4407 29.0853 39.6405 29.072C39.8381 29.0588 39.9827 28.9859 40.1931 28.7938C40.4035 28.6061 40.5459 28.4979 40.5757 28.5089C40.5905 28.5133 40.5969 28.5774 40.5927 28.6811C40.582 28.955 40.6607 29.0543 40.8881 29.0543C41.0688 29.0543 41.1984 29.0036 41.3408 28.8799C41.4109 28.8181 41.4747 28.7739 41.4853 28.7805C41.4938 28.7871 41.5023 28.8269 41.5023 28.8689C41.5023 28.9925 41.5789 29.0543 41.7298 29.0543C41.8679 29.0543 41.9678 29.0124 42.1293 28.8909C42.1867 28.8468 42.2484 28.8114 42.2632 28.8114C42.276 28.8114 42.3057 28.8534 42.3249 28.902C42.4056 29.1162 42.7329 29.1338 43.0029 28.9417C43.1474 28.8401 43.5066 28.4669 43.496 28.4316C43.4726 28.3587 43.3961 28.3963 43.1687 28.584C42.9264 28.7894 42.835 28.8424 42.7521 28.8291C42.7096 28.8225 42.7032 28.8114 42.7053 28.7187C42.7053 28.584 42.7606 28.5045 42.9646 28.3367C43.3961 27.9833 43.7638 27.5903 43.8552 27.3827C43.9274 27.2215 43.9168 27.0912 43.8318 27.047C43.751 27.0073 43.5661 27.0448 43.4471 27.1265C43.209 27.2921 42.6926 27.906 42.48 28.2815C42.378 28.4581 42.2484 28.5994 42.0826 28.7143C41.9402 28.8136 41.8467 28.8468 41.8169 28.8159C41.785 28.7827 41.8552 28.6767 42.0549 28.4471C42.1378 28.3499 42.2228 28.2373 42.242 28.1975C42.276 28.1269 42.2739 28.1202 42.2399 28.0937C42.2186 28.0783 42.1655 28.0606 42.1208 28.0518C42.0741 28.0452 42.0082 28.0143 41.9742 27.9833C41.8488 27.8751 41.5959 27.8707 41.3025 27.9723C41.2218 27.9988 41.0773 28.0827 40.937 28.1821C40.6224 28.4095 40.5629 28.4051 40.5395 28.1622C40.5247 28.0076 40.4736 27.9392 40.3461 27.9038C40.0486 27.8199 39.5533 28.0408 39.2452 28.3941C39.0305 28.6392 38.7436 28.8225 38.5268 28.849C38.4503 28.8578 38.4205 28.8512 38.3737 28.8114C38.2994 28.7518 38.2994 28.6966 38.3759 28.5575C38.4928 28.3455 38.7754 28.0915 38.92 28.0672C39.0135 28.0518 39.0177 28.0893 38.9412 28.2064C38.8732 28.308 38.8817 28.3345 38.9774 28.3433C39.039 28.3477 39.0687 28.3367 39.1325 28.2792C39.2898 28.1357 39.294 28.0319 39.1431 27.9414C38.9901 27.8464 38.6649 27.906 38.395 28.0761C38.327 28.118 38.1548 28.2682 38.0124 28.4073C37.6745 28.7408 37.4364 28.902 37.3748 28.8379C37.3472 28.8092 37.4683 28.637 37.7 28.383C37.9125 28.149 37.9635 28.0695 37.9402 28.0054C37.921 27.9546 37.8403 27.9436 37.6107 27.959C37.4088 27.9745 37.4003 27.9723 37.4003 27.9303C37.4003 27.906 37.3769 27.8685 37.3472 27.8486C37.2111 27.7559 36.9348 27.9524 37.0135 28.0849C37.056 28.1534 37.0432 28.1865 36.92 28.3234C36.7606 28.5045 36.5757 28.6458 36.361 28.754C36.0486 28.9086 35.8381 28.8711 35.8381 28.6591C35.8381 28.6105 35.8466 28.5641 35.8551 28.5553C35.8636 28.5464 35.9742 28.531 36.0996 28.5222C36.4418 28.4957 36.6288 28.4184 36.7308 28.2638C36.8052 28.1512 36.7988 28.0805 36.7096 27.9966C36.5757 27.8751 36.4014 27.8597 36.1229 27.9502C35.955 28.0032 35.8381 28.0937 35.4938 28.4382C35.1686 28.7629 35.0199 28.8666 34.9646 28.807C34.937 28.7805 34.9455 28.7584 35.0156 28.6436C35.0964 28.5155 35.3663 28.1732 35.7914 27.6631C36.1803 27.1972 36.2526 27.0669 36.1421 27.036C36.0719 27.0161 35.9529 27.0227 35.8913 27.047ZM43.7128 27.2944C43.7128 27.3893 43.1049 28.1048 43.0241 28.1048C42.9731 28.1048 43.3302 27.5991 43.5236 27.4004C43.649 27.2701 43.7128 27.2347 43.7128 27.2944ZM34.9646 28.0739C35.0369 28.1026 34.9965 28.1799 34.8031 28.3786C34.5905 28.5972 34.4162 28.7275 34.2483 28.7938C34.0655 28.8666 34.0082 28.7916 34.1187 28.6215C34.2653 28.3919 34.5459 28.1755 34.7967 28.0915C34.8966 28.0584 34.92 28.0562 34.9646 28.0739ZM36.5374 28.096C36.5863 28.1445 36.5799 28.1755 36.5119 28.2439C36.4311 28.3234 36.293 28.3698 36.1293 28.3698H35.9912L36.04 28.3146C36.1059 28.2417 36.2866 28.118 36.3695 28.0871C36.4609 28.054 36.4991 28.0562 36.5374 28.096ZM40.3227 28.1004C40.3227 28.1158 40.2845 28.1512 40.2398 28.1777C40.1378 28.2373 40.0719 28.3256 40.0911 28.3764C40.0974 28.3985 40.1315 28.4294 40.1655 28.4493C40.1995 28.4669 40.2271 28.4957 40.2271 28.5133C40.2271 28.5553 40.1251 28.6326 39.9295 28.7408C39.6894 28.8755 39.564 28.8843 39.5066 28.7695C39.4279 28.6193 39.7829 28.2262 40.1059 28.1026C40.2271 28.0562 40.3227 28.0562 40.3227 28.1004ZM41.8169 28.0739C41.8807 28.0937 41.8764 28.1445 41.7956 28.2572C41.6277 28.4934 41.1091 28.8622 40.9944 28.8225C40.8095 28.7629 41.2558 28.2527 41.6277 28.1026C41.7383 28.0584 41.7489 28.0562 41.8169 28.0739Z" fill="#323232"/>
<path fill-rule="evenodd" clip-rule="evenodd" d="M29.5089 27.9213C29.4854 27.9434 29.4918 28.1665 29.5153 28.1819C29.5389 28.1974 29.6864 28.0583 29.6864 28.0207C29.6864 27.992 29.5816 27.9059 29.5474 27.9059C29.5346 27.9059 29.5153 27.9125 29.5089 27.9213Z" fill="#323232"/>
<path fill-rule="evenodd" clip-rule="evenodd" d="M28.0103 28.5727L28.0167 28.6456L28.5714 28.6522C29.1814 28.6589 29.3387 28.6456 29.3748 28.5838C29.3918 28.5529 29.3918 28.5396 29.3663 28.5242C29.3472 28.5109 29.056 28.5021 28.6692 28.5021H28.0039L28.0103 28.5727Z" fill="#323232"/>
<path fill-rule="evenodd" clip-rule="evenodd" d="M43.9345 28.5242C43.8877 28.544 43.8516 28.6081 43.875 28.6324C43.8813 28.639 44.2044 28.6456 44.5912 28.6456H45.2969L45.3032 28.5727L45.3096 28.5021L44.6444 28.5043C44.2788 28.5043 43.96 28.5131 43.9345 28.5242Z" fill="#323232"/>
<path fill-rule="evenodd" clip-rule="evenodd" d="M29.02 29.4094C28.7778 29.4822 28.697 29.7958 28.8776 29.9747C29.0413 30.1337 29.3559 30.1293 29.494 29.9681C29.6237 29.8157 29.596 29.5816 29.4388 29.4668C29.3389 29.3939 29.1582 29.3696 29.02 29.4094ZM29.3431 29.5352C29.3729 29.5573 29.4111 29.6125 29.4239 29.6567C29.4983 29.8886 29.2368 30.0961 29.0392 29.9614C28.9563 29.904 28.9223 29.8356 28.9202 29.7207C28.9202 29.6457 28.9329 29.6147 28.9797 29.5684C29.0115 29.5375 29.0562 29.5043 29.0796 29.4933C29.1433 29.4646 29.2815 29.4867 29.3431 29.5352Z" fill="#323232"/>
<path fill-rule="evenodd" clip-rule="evenodd" d="M30.6712 29.4075C30.6096 29.434 30.5352 29.5355 30.5352 29.5952C30.5352 29.6769 30.6287 29.752 30.7477 29.7674C30.8689 29.7829 30.9943 29.8381 31.0113 29.8845C31.0177 29.9021 31.0028 29.9375 30.9794 29.9617C30.9156 30.028 30.7562 30.0103 30.6521 29.9286C30.5352 29.8359 30.4566 29.8955 30.5628 29.9993C30.7371 30.1693 31.1516 30.092 31.1516 29.8889C31.1516 29.8557 31.1324 29.8072 31.1112 29.7851C31.075 29.7475 30.8859 29.6725 30.8264 29.6725C30.7817 29.6725 30.6627 29.5996 30.6627 29.5709C30.6627 29.5267 30.7499 29.4737 30.8242 29.4737C30.8604 29.4737 30.9263 29.498 30.9688 29.5289C31.0538 29.5885 31.1303 29.6018 31.1303 29.5554C31.1303 29.4428 30.8221 29.3434 30.6712 29.4075Z" fill="#323232"/>
<path fill-rule="evenodd" clip-rule="evenodd" d="M35.1651 29.4053C34.9206 29.487 34.8292 29.7167 34.9546 29.9287C35.029 30.0568 35.2564 30.123 35.4435 30.07C35.7219 29.9927 35.7899 29.635 35.5604 29.4671C35.4647 29.3987 35.2756 29.37 35.1651 29.4053ZM35.4584 29.529C35.5306 29.5776 35.5795 29.7034 35.5646 29.794C35.5561 29.8315 35.5221 29.8933 35.486 29.9287C35.4307 29.9839 35.4052 29.9927 35.3075 29.9927C35.1672 29.9927 35.0864 29.9375 35.0439 29.8116C35.0163 29.7321 35.0184 29.7167 35.0545 29.6372C35.1268 29.4826 35.316 29.4318 35.4584 29.529Z" fill="#323232"/>
<path fill-rule="evenodd" clip-rule="evenodd" d="M36.047 29.4251C35.9088 29.4825 35.8536 29.5443 35.8387 29.6591C35.8153 29.8159 35.8408 29.9021 35.9344 29.9882C36.0576 30.1052 36.2808 30.1251 36.4466 30.0346C36.5358 29.9882 36.6166 29.8491 36.6187 29.7453C36.6209 29.5885 36.5401 29.4759 36.3828 29.4184C36.2659 29.3765 36.1596 29.3787 36.047 29.4251ZM36.3531 29.5178C36.5061 29.615 36.5295 29.7916 36.4062 29.9197C36.251 30.0831 35.9556 29.9838 35.9556 29.7674C35.9556 29.5443 36.1766 29.4052 36.3531 29.5178Z" fill="#323232"/>
<path fill-rule="evenodd" clip-rule="evenodd" d="M40.517 29.4075C40.381 29.4517 40.2811 29.6217 40.2981 29.7785C40.3108 29.9022 40.3661 29.9794 40.483 30.0413C40.6551 30.134 40.8889 30.0921 41.0143 29.9485C41.0611 29.8977 41.0675 29.869 41.0675 29.7432C41.0653 29.5665 41.0271 29.4936 40.9123 29.445C40.8103 29.4031 40.5956 29.3832 40.517 29.4075ZM40.8252 29.5245C40.8655 29.551 40.9144 29.6107 40.9357 29.657C40.9739 29.7365 40.9739 29.741 40.9357 29.8205C40.8847 29.9287 40.7763 30.0037 40.6679 30.0037C40.5999 30.0037 40.5701 29.9883 40.5021 29.9176C40.4362 29.8492 40.4192 29.816 40.4192 29.7498C40.4192 29.529 40.6488 29.4009 40.8252 29.5245Z" fill="#323232"/>
<path fill-rule="evenodd" clip-rule="evenodd" d="M43.0273 29.4161C42.9168 29.4581 42.8721 29.5045 42.8296 29.6193C42.7446 29.8534 42.9168 30.0919 43.1718 30.0919C43.2908 30.0919 43.429 30.0212 43.4779 29.9351C43.5544 29.8048 43.4885 29.7893 43.3567 29.9064C43.2972 29.9572 43.2377 29.9903 43.1824 29.9969C43.108 30.008 43.091 30.0013 43.0252 29.9329C42.8998 29.8026 42.8976 29.6767 43.023 29.5464C43.1144 29.4515 43.1846 29.4515 43.3312 29.5508C43.4587 29.637 43.5097 29.6259 43.4587 29.5265C43.3992 29.4139 43.1803 29.3565 43.0273 29.4161Z" fill="#323232"/>
<path fill-rule="evenodd" clip-rule="evenodd" d="M43.9136 29.4009C43.8392 29.4164 43.6968 29.5555 43.6713 29.6416C43.6415 29.7366 43.6543 29.8271 43.718 29.9331C43.7776 30.0325 43.903 30.0899 44.0624 30.0921C44.1814 30.0921 44.1899 30.0877 44.2813 29.9927C44.3344 29.9397 44.3727 29.8823 44.3684 29.8669C44.3514 29.8139 44.294 29.8249 44.2324 29.8889C44.1155 30.0082 44.0369 30.0303 43.9263 29.9707C43.7988 29.9022 43.7605 29.7145 43.8477 29.582C43.9327 29.4495 44.0347 29.4495 44.2388 29.5864C44.3047 29.6284 44.3089 29.6306 44.3238 29.5952C44.3663 29.476 44.1197 29.359 43.9136 29.4009Z" fill="#323232"/>
<path fill-rule="evenodd" clip-rule="evenodd" d="M44.7532 29.4054C44.5747 29.465 44.5109 29.5777 44.5194 29.8095C44.5215 29.889 44.6172 30.0017 44.7235 30.0502C44.9126 30.1408 45.2017 30.0657 45.2739 29.9067C45.3483 29.7455 45.2994 29.5578 45.1613 29.4628C45.0678 29.3988 44.8595 29.3701 44.7532 29.4054ZM45.055 29.5203C45.1167 29.5445 45.1804 29.666 45.1804 29.7587C45.1804 29.8824 45.038 30.0039 44.8935 30.0039C44.8382 30.0039 44.7978 29.984 44.7383 29.9288C44.6661 29.8581 44.6597 29.8427 44.6597 29.7322C44.6597 29.6439 44.6703 29.5975 44.7001 29.5644C44.7745 29.4783 44.9105 29.4628 45.055 29.5203Z" fill="#323232"/>
<path fill-rule="evenodd" clip-rule="evenodd" d="M28.0534 29.4341C28.0598 29.4496 28.1023 29.465 28.149 29.4695C28.1979 29.4739 28.2489 29.4915 28.2638 29.5092C28.2808 29.5313 28.2957 29.6395 28.2999 29.8073C28.3084 30.0348 28.3148 30.0701 28.3446 30.0701C28.4168 30.0701 28.4317 30.0215 28.4317 29.7941C28.4317 29.5225 28.4551 29.4739 28.5805 29.4805C28.6698 29.4827 28.6995 29.4695 28.6761 29.4319C28.6549 29.3944 28.0428 29.3988 28.0534 29.4341Z" fill="#323232"/>
<path fill-rule="evenodd" clip-rule="evenodd" d="M29.9656 29.4584C29.9189 29.5114 29.7425 29.9 29.717 30.0082C29.7042 30.0612 29.7085 30.0701 29.7446 30.0701C29.7871 30.0701 29.8275 30.0325 29.8657 29.9508C29.8849 29.9111 29.9082 29.9044 30.04 29.8978L30.193 29.8912L30.2228 29.9641C30.2759 30.0944 30.3652 30.1297 30.3652 30.0193C30.3652 29.9552 30.1782 29.5092 30.1272 29.4517C30.074 29.3943 30.0209 29.3965 29.9656 29.4584ZM30.1017 29.6858C30.1187 29.7808 30.091 29.8161 30.0166 29.7962C29.9529 29.7808 29.9444 29.7278 29.9954 29.6549C30.0443 29.582 30.0846 29.5953 30.1017 29.6858Z" fill="#323232"/>
<path fill-rule="evenodd" clip-rule="evenodd" d="M31.2835 29.434C31.2899 29.4494 31.3069 29.4649 31.3239 29.4671C31.3409 29.4693 31.3898 29.4759 31.4344 29.4848L31.5131 29.498V29.6371C31.5131 29.8734 31.5386 30.0501 31.5726 30.0655C31.63 30.0876 31.6576 30.0059 31.6725 29.7498L31.6874 29.498L31.7639 29.4848C31.8085 29.4759 31.8553 29.4693 31.8723 29.4671C31.8893 29.4649 31.9063 29.4494 31.9126 29.434C31.919 29.4141 31.8468 29.4075 31.5981 29.4075C31.3494 29.4075 31.2771 29.4141 31.2835 29.434Z" fill="#323232"/>
<path fill-rule="evenodd" clip-rule="evenodd" d="M32.1486 29.4229C32.0784 29.4339 32.0657 29.4891 32.0657 29.7718C32.0657 30.0721 32.0742 30.0809 32.4015 30.0809C32.5418 30.0809 32.665 30.0721 32.6735 30.0633C32.7054 30.0324 32.6332 30.0036 32.5205 30.0036C32.461 30.0036 32.3675 29.997 32.3122 29.9904L32.2145 29.9749V29.8822V29.7894L32.4079 29.7762C32.5163 29.7696 32.6119 29.7541 32.6247 29.7409C32.6565 29.7077 32.5503 29.6724 32.4142 29.6724C32.2697 29.6724 32.2145 29.6437 32.2145 29.5708C32.2145 29.5002 32.2803 29.4737 32.4589 29.4737C32.6055 29.4737 32.6672 29.4582 32.648 29.4273C32.6374 29.4074 32.2612 29.4052 32.1486 29.4229Z" fill="#323232"/>
<path fill-rule="evenodd" clip-rule="evenodd" d="M32.9139 29.4229C32.8863 29.4295 32.8778 29.4693 32.8693 29.6238C32.8651 29.7298 32.8651 29.869 32.8693 29.933C32.8778 30.0368 32.8842 30.0545 32.9352 30.0743C33.0117 30.1053 33.2731 30.0854 33.356 30.0412C33.5154 29.9551 33.5792 29.7298 33.4899 29.5642C33.4219 29.4406 33.3433 29.4074 33.1244 29.4096C33.0287 29.4119 32.9331 29.4163 32.9139 29.4229ZM33.2561 29.4958C33.3518 29.5223 33.4049 29.6128 33.4049 29.7497C33.4049 29.8336 33.3943 29.8646 33.3454 29.9153C33.2795 29.9816 33.1626 30.0169 33.0776 29.9948C33.0393 29.986 33.0245 29.9617 33.0138 29.8999C32.9926 29.7586 32.999 29.5289 33.0266 29.5002C33.0585 29.4671 33.1541 29.4671 33.2561 29.4958Z" fill="#323232"/>
<path fill-rule="evenodd" clip-rule="evenodd" d="M34.1108 29.4276C34.0683 29.4541 34.0832 30.0415 34.1278 30.0702C34.1809 30.1033 34.2107 30.0503 34.2171 29.909L34.2234 29.7721L34.4041 29.7809C34.5061 29.7853 34.5911 29.7986 34.5996 29.814C34.6081 29.8273 34.6166 29.867 34.6166 29.9046C34.6166 30.0039 34.64 30.0702 34.6719 30.0702C34.7123 30.0702 34.725 29.9598 34.7187 29.6727C34.7123 29.4364 34.7102 29.4187 34.6698 29.4187C34.6358 29.4187 34.6251 29.4386 34.6145 29.5247C34.6081 29.5844 34.589 29.6418 34.572 29.6528C34.5571 29.6639 34.4721 29.6727 34.3892 29.6727H34.2341V29.5976C34.2341 29.4474 34.1831 29.379 34.1108 29.4276Z" fill="#323232"/>
<path fill-rule="evenodd" clip-rule="evenodd" d="M37.2627 29.434C37.2394 29.4472 37.1586 29.5091 37.0842 29.5665C36.9333 29.6879 36.9121 29.6835 36.8929 29.5356C36.8844 29.4693 36.8695 29.4384 36.844 29.434C36.81 29.4273 36.8058 29.4538 36.8058 29.7343C36.8058 29.9021 36.8122 30.0479 36.8207 30.0545C36.8462 30.081 36.8887 30.0214 36.9036 29.9397C36.9184 29.8491 36.9652 29.7608 36.9992 29.7608C37.0119 29.7608 37.0927 29.8293 37.1756 29.9154C37.3223 30.0611 37.3818 30.0965 37.4115 30.0501C37.4179 30.0368 37.3605 29.9551 37.284 29.8624C37.2075 29.7718 37.1459 29.6879 37.1459 29.6747C37.1459 29.6636 37.2032 29.6062 37.2734 29.551C37.3966 29.4516 37.4179 29.4075 37.3414 29.4075C37.3223 29.4075 37.2861 29.4207 37.2627 29.434Z" fill="#323232"/>
<path fill-rule="evenodd" clip-rule="evenodd" d="M37.7962 29.4474C37.7473 29.507 37.5496 29.9619 37.5496 30.0193C37.5496 30.1099 37.6601 30.0657 37.6941 29.9597C37.7175 29.8957 37.7218 29.8934 37.8557 29.8934C37.9683 29.8934 38.0045 29.9023 38.0385 29.9376C38.0618 29.9619 38.081 29.9972 38.081 30.0149C38.081 30.0524 38.1426 30.09 38.183 30.0767C38.1957 30.0701 38.2085 30.0502 38.2085 30.0304C38.2085 29.9729 37.979 29.4673 37.9386 29.4341C37.8876 29.3966 37.8387 29.401 37.7962 29.4474ZM37.9364 29.6748C37.9577 29.7499 37.9556 29.7676 37.9301 29.7852C37.8876 29.8117 37.8621 29.8095 37.8153 29.7764C37.7792 29.7477 37.7792 29.7433 37.8259 29.655C37.8536 29.6042 37.8833 29.5688 37.8918 29.5755C37.9024 29.5821 37.9216 29.6262 37.9364 29.6748Z" fill="#323232"/>
<path fill-rule="evenodd" clip-rule="evenodd" d="M38.3934 29.4229C38.3849 29.4295 38.3785 29.5752 38.3785 29.7431C38.3785 30.0014 38.3828 30.0522 38.4125 30.0633C38.4636 30.0831 38.4912 30.0368 38.5018 29.9043L38.5103 29.7828H38.6208C38.6803 29.7828 38.7632 29.7762 38.8057 29.7696L38.8823 29.7563L38.8929 29.9043C38.9078 30.0831 38.9311 30.114 38.9949 30.0478C39.0395 30.0014 39.0417 29.9838 39.0332 29.7342C39.0247 29.5068 39.0183 29.4648 38.9843 29.4383C38.9269 29.3942 38.8929 29.4361 38.8844 29.5576L38.878 29.6614H38.6974H38.5167L38.5061 29.562C38.4997 29.5068 38.4869 29.4494 38.4784 29.4339C38.4593 29.4052 38.4147 29.3986 38.3934 29.4229Z" fill="#323232"/>
<path fill-rule="evenodd" clip-rule="evenodd" d="M39.5307 29.4341C39.5371 29.4496 39.5902 29.4673 39.6497 29.4739C39.7092 29.4805 39.7645 29.4938 39.7751 29.5048C39.7836 29.5136 39.7964 29.6351 39.7985 29.772C39.8049 29.9509 39.8155 30.0304 39.8346 30.048C39.8878 30.0944 39.9027 30.0524 39.9154 29.8073C39.9303 29.5092 39.9452 29.4761 40.0578 29.4805C40.1471 29.4827 40.1768 29.4695 40.1535 29.4319C40.1322 29.3944 39.5201 29.3988 39.5307 29.4341Z" fill="#323232"/>
<path fill-rule="evenodd" clip-rule="evenodd" d="M41.248 29.7012C41.248 30.0788 41.2544 30.092 41.467 30.092C41.552 30.092 41.6519 30.0832 41.6923 30.07C41.8474 30.0236 41.9069 29.8933 41.8283 29.7696C41.7985 29.721 41.7964 29.7012 41.8198 29.6371C41.8495 29.5532 41.8304 29.498 41.7539 29.4428C41.7178 29.4163 41.6497 29.4075 41.4776 29.4075H41.248V29.7012ZM41.62 29.5046C41.6965 29.54 41.7178 29.5952 41.6689 29.646C41.6434 29.6725 41.467 29.6813 41.4096 29.6592C41.3692 29.6438 41.3649 29.5378 41.4011 29.5002C41.4351 29.4649 41.5307 29.4671 41.62 29.5046ZM41.7114 29.8204C41.7475 29.8712 41.7433 29.9021 41.6965 29.9463C41.6434 29.9949 41.5095 30.0147 41.4351 29.9838C41.3862 29.964 41.3756 29.9463 41.3756 29.8822C41.3756 29.8226 41.3862 29.7983 41.4245 29.7829C41.4925 29.752 41.6774 29.7785 41.7114 29.8204Z" fill="#323232"/>
<path fill-rule="evenodd" clip-rule="evenodd" d="M42.2831 29.4341C42.2279 29.4783 41.9856 30.0282 42.0111 30.0547C42.043 30.0878 42.0961 30.0569 42.1429 29.9708C42.1875 29.8935 42.1896 29.8935 42.3342 29.8935C42.4744 29.8935 42.4808 29.8957 42.5127 29.9575C42.5552 30.0458 42.6296 30.0988 42.6636 30.0679C42.6955 30.0392 42.6763 29.9774 42.5382 29.6682C42.4298 29.4253 42.3682 29.3701 42.2831 29.4341ZM42.3915 29.7013C42.4 29.7941 42.3639 29.8228 42.2916 29.7831C42.2364 29.7521 42.2364 29.7367 42.2916 29.6638C42.349 29.5865 42.383 29.5998 42.3915 29.7013Z" fill="#323232"/>
</svg>
