<svg width="90" height="57" viewBox="0 0 90 57" fill="none" xmlns="http://www.w3.org/2000/svg">
<path fill-rule="evenodd" clip-rule="evenodd" d="M38.2775 17.4507C38.2775 17.4733 38.1339 18.5027 37.9633 19.7307C37.7928 20.9587 37.6492 22.0106 37.6492 22.0603V22.1596L38.0576 22.0558C38.4076 21.9655 38.5737 21.8842 39.2154 21.496C39.6238 21.2431 39.9873 21.0219 40.0187 20.9993C40.0681 20.9722 39.9155 20.6336 39.359 19.523C38.5512 17.9022 38.282 17.383 38.2775 17.4507Z" fill="black"/>
<path fill-rule="evenodd" clip-rule="evenodd" d="M39.3411 21.6355C39.0001 21.8342 38.7308 22.0057 38.7398 22.0148C38.7488 22.0283 39.0943 21.9515 39.5027 21.8477L40.2476 21.6626L40.1489 21.464C40.0995 21.3556 40.0322 21.2653 40.0098 21.2698C39.9829 21.2698 39.6822 21.4369 39.3411 21.6355Z" fill="black"/>
<path fill-rule="evenodd" clip-rule="evenodd" d="M38.9371 22.2137C38.2774 22.4079 37.721 22.5794 37.703 22.5975C37.6716 22.6291 40.5661 22.5884 40.5976 22.5568C40.6065 22.5478 40.5392 22.3853 40.445 22.1957C40.3418 21.9835 40.252 21.8525 40.2071 21.857C40.1712 21.8616 39.5968 22.0196 38.9371 22.2137Z" fill="black"/>
<path fill-rule="evenodd" clip-rule="evenodd" d="M38.6903 23.031C38.1383 23.0491 37.6806 23.0717 37.6671 23.0852C37.6537 23.0943 38.1653 23.487 38.8025 23.9521C39.4398 24.4216 39.9828 24.8189 40.0097 24.8415C40.0501 24.8686 42.092 24.7963 42.1279 24.7647C42.1369 24.7602 41.8541 24.3539 41.4996 23.8663L40.8624 22.9814L40.2745 22.9904C39.9558 22.9904 39.2423 23.0085 38.6903 23.031Z" fill="black"/>
<path fill-rule="evenodd" clip-rule="evenodd" d="M37.6493 23.4102C37.8063 23.8256 37.8467 23.8617 38.2371 23.9656C38.4391 24.0197 38.6141 24.0604 38.6231 24.0513C38.6365 24.0333 37.6627 23.2974 37.6268 23.2974C37.6178 23.2974 37.6268 23.347 37.6493 23.4102Z" fill="black"/>
<path fill-rule="evenodd" clip-rule="evenodd" d="M37.9364 24.0507C37.9544 24.0913 38.0486 24.3125 38.1518 24.5473L38.3358 24.9672L38.8115 24.9401C39.0718 24.922 39.4084 24.8995 39.5565 24.8814L39.8257 24.8543L39.3815 24.5428C38.9462 24.2358 38.8654 24.2042 38.1967 24.0462C37.9364 23.9875 37.914 23.9875 37.9364 24.0507Z" fill="black"/>
<path fill-rule="evenodd" clip-rule="evenodd" d="M37.8422 25.2929C37.8557 25.3516 37.8916 25.5367 37.923 25.7038L37.9813 26.0108L38.7218 26.6925C39.1302 27.0672 39.5206 27.4239 39.5834 27.4826L39.7001 27.591L39.9155 26.4939C40.0322 25.8889 40.1399 25.3516 40.1489 25.2929L40.1713 25.1936H38.9956H37.8198L37.8422 25.2929Z" fill="black"/>
<path fill-rule="evenodd" clip-rule="evenodd" d="M36.0202 25.9706C35.9529 26.377 35.899 26.7201 35.899 26.7382C35.899 26.7743 37.6806 27.3747 37.73 27.3522C37.7659 27.3386 36.2176 25.2483 36.1683 25.2438C36.1548 25.2392 36.0875 25.5688 36.0202 25.9706Z" fill="black"/>
<path fill-rule="evenodd" clip-rule="evenodd" d="M40.791 25.2703C40.791 25.3109 41.4506 26.9137 41.4731 26.9318C41.5359 26.9769 43.2278 27.5864 43.2457 27.5683C43.2592 27.5548 43.0797 27.0266 42.8508 26.39L42.429 25.2387H41.6122C41.1589 25.2387 40.791 25.2523 40.791 25.2703Z" fill="black"/>
<path fill-rule="evenodd" clip-rule="evenodd" d="M34.8221 27.9705C34.8221 28.0157 35.2753 28.9051 35.2933 28.8915C35.3022 28.8825 35.2663 28.6658 35.217 28.4084L35.1227 27.9479H34.9746C34.8894 27.9479 34.8221 27.957 34.8221 27.9705Z" fill="black"/>
<path fill-rule="evenodd" clip-rule="evenodd" d="M35.3156 27.9743C35.3156 27.9969 35.347 28.2181 35.3829 28.4664C35.4188 28.7147 35.4502 28.945 35.4502 28.9721C35.4502 29.0172 35.5759 29.0308 35.9214 29.0308C36.3343 29.0308 36.4061 29.0443 36.4824 29.1211C36.5946 29.2339 36.5991 29.401 36.4914 29.4958C36.4286 29.5545 36.3209 29.5726 36.0426 29.5726H35.6746V30.1143V30.6561H36.0336C36.3343 30.6561 36.4061 30.6697 36.4824 30.7464C36.5318 30.7961 36.5722 30.8773 36.5722 30.927C36.5722 30.9767 36.5318 31.0579 36.4824 31.1076C36.4061 31.1843 36.3343 31.1979 36.0336 31.1979H35.6746V31.7442V32.2905L36.1817 32.2724C36.5856 32.2589 36.7203 32.2363 36.8683 32.1595C37.169 32.0015 37.3216 31.8435 37.4652 31.55C37.6492 31.1798 37.6627 30.7148 37.4921 30.3491L37.3844 30.1143L37.4921 29.8751C37.5774 29.6945 37.6043 29.568 37.6043 29.3017C37.6043 28.8773 37.4832 28.5928 37.187 28.322C36.8639 28.024 36.7337 27.9834 35.9798 27.9563C35.6118 27.9472 35.3156 27.9517 35.3156 27.9743Z" fill="black"/>
<path fill-rule="evenodd" clip-rule="evenodd" d="M37.7839 28.6788C37.7839 29.3109 37.7929 29.3831 37.8872 29.5456C38.0442 29.821 38.2148 29.8888 38.7622 29.8888C39.211 29.8888 39.2245 29.8843 39.2738 29.7759C39.3187 29.6721 39.3501 29.663 39.6104 29.663C39.763 29.663 39.8931 29.645 39.8931 29.6269C39.8931 29.6043 39.8617 29.496 39.8213 29.3786C39.7585 29.1935 39.7361 29.1664 39.6239 29.1664H39.4937L39.5566 29.0129C39.6149 28.8684 39.6104 28.8323 39.5027 28.5388C39.4399 28.3583 39.3726 28.2318 39.3501 28.2499C39.3322 28.268 39.1931 28.6427 39.036 29.0761C38.7578 29.8436 38.7488 29.8617 38.7353 29.6495C38.7219 29.4463 38.7174 29.4373 38.5872 29.4373C38.5065 29.4373 38.4122 29.3967 38.3449 29.3244C38.2372 29.2206 38.2327 29.1935 38.2327 28.6021V27.9926H38.0083H37.7839V28.6788Z" fill="black"/>
<path fill-rule="evenodd" clip-rule="evenodd" d="M39.4804 28.0152C39.467 28.0287 39.6061 28.4486 39.7811 28.9542L40.1087 29.8662L40.3645 29.8798C40.5979 29.8933 40.6203 29.8843 40.5889 29.812C40.5709 29.7669 40.4273 29.3786 40.2703 28.9452C39.8978 27.9384 39.9292 27.9926 39.6958 27.9926C39.5926 27.9926 39.4939 28.0016 39.4804 28.0152Z" fill="black"/>
<path fill-rule="evenodd" clip-rule="evenodd" d="M41.316 28.0512C40.5756 28.286 40.4185 29.2793 41.0512 29.7262C41.1949 29.8301 41.3026 29.8662 41.509 29.8797L41.7783 29.8978V29.6675C41.7783 29.4463 41.7738 29.4373 41.6571 29.4373C41.4776 29.4373 41.2263 29.2973 41.1634 29.1664C41.0647 28.9677 41.0916 28.8097 41.2577 28.6427C41.3833 28.5163 41.4462 28.4892 41.5943 28.4892H41.7783V28.2409V27.9926L41.6346 27.9971C41.5539 27.9971 41.4103 28.0242 41.316 28.0512Z" fill="black"/>
<path fill-rule="evenodd" clip-rule="evenodd" d="M41.9128 28.9407V29.8888H42.1372H42.3616V28.9407V27.9926H42.1372H41.9128V28.9407Z" fill="black"/>
<path fill-rule="evenodd" clip-rule="evenodd" d="M42.8419 28.0196C42.8239 28.0377 42.8105 28.137 42.8105 28.2364C42.8105 28.435 42.7207 28.5795 42.5547 28.6653C42.4649 28.7104 42.4514 28.7556 42.4514 28.9632C42.4514 29.1664 42.4649 29.2116 42.5412 29.2341C42.6938 29.2838 42.8105 29.4779 42.8105 29.6901V29.8888H43.0618H43.3176L43.2906 29.6089C43.2727 29.3967 43.2323 29.2838 43.1291 29.1348C43.0034 28.9542 42.9945 28.9271 43.0573 28.8684C43.1919 28.733 43.2727 28.5118 43.2772 28.2634L43.2817 28.0151L43.0797 28.0016C42.9675 27.9926 42.8598 28.0016 42.8419 28.0196Z" fill="black"/>
<path fill-rule="evenodd" clip-rule="evenodd" d="M34.2386 30.431C34.2386 31.8306 34.2521 32.1963 34.297 32.1782C34.3239 32.1692 34.5573 32.0608 34.8131 31.9434L35.2708 31.7267L35.2618 30.5032L35.2484 29.2842L34.8894 29.063C34.6919 28.9411 34.463 28.8012 34.3867 28.7515L34.2386 28.6612V30.431Z" fill="black"/>
<path fill-rule="evenodd" clip-rule="evenodd" d="M37.7839 30.8238C37.7839 31.6726 37.8288 31.8441 38.0936 32.0699C38.5424 32.4491 39.2559 32.2911 39.4937 31.7629C39.5655 31.6094 39.579 31.4604 39.579 30.8238V30.0698H39.2694H38.9597L38.9777 30.7606C38.9956 31.5868 38.9687 31.6681 38.6949 31.6861C38.3943 31.7087 38.3673 31.6319 38.3673 30.7832V30.0698H38.0756H37.7839V30.8238Z" fill="black"/>
<path fill-rule="evenodd" clip-rule="evenodd" d="M39.7138 30.3407V30.6071L40.2209 30.6206L40.7235 30.6342V30.747V30.8599L40.2209 30.8735L39.7138 30.887V31.5868V32.2866L39.9517 32.273L40.185 32.2595V31.8532V31.4468L40.36 31.4333C40.4588 31.4243 40.5844 31.4288 40.6428 31.4423C40.7415 31.4694 40.746 31.4875 40.746 31.8757V32.2821H41.0601H41.3742V31.8848C41.3742 31.5958 41.3518 31.4513 41.2935 31.334C41.2172 31.1805 41.2172 31.1669 41.298 30.9773C41.4012 30.738 41.3742 30.5348 41.2082 30.3362C41.0197 30.115 40.8627 30.0698 40.2523 30.0698H39.7138V30.3407Z" fill="black"/>
<path fill-rule="evenodd" clip-rule="evenodd" d="M41.5089 31.1759V32.2821H41.8006H42.0923V31.1759V30.0698H41.8006H41.5089V31.1759Z" fill="black"/>
<path fill-rule="evenodd" clip-rule="evenodd" d="M42.2271 30.3358C42.2271 30.6067 42.2271 30.6112 42.3527 30.6112C42.4201 30.6112 42.5233 30.6428 42.5771 30.6835C42.6714 30.7512 42.6758 30.7783 42.6758 31.5187V32.2817H42.9945H43.3131L43.2951 31.451L43.2817 30.6203L43.1426 30.4487C42.9227 30.1733 42.7925 30.1011 42.4963 30.0785L42.2271 30.0604V30.3358Z" fill="black"/>
<path fill-rule="evenodd" clip-rule="evenodd" d="M44.1792 30.6026C43.9099 30.7109 43.6721 30.8148 43.6541 30.8328C43.6362 30.8464 43.7125 31.194 43.8202 31.6049C43.9323 32.0112 44.0221 32.3724 44.0221 32.404C44.0221 32.4356 44.0356 32.4627 44.058 32.4627C44.0939 32.4627 44.7087 30.4942 44.6863 30.44C44.6773 30.4175 44.4529 30.4897 44.1792 30.6026Z" fill="black"/>
<path fill-rule="evenodd" clip-rule="evenodd" d="M42.0115 32.8237C41.9621 32.9366 41.6435 33.5957 41.3069 34.291C40.3331 36.291 40.0235 36.9457 40.0504 36.9683C40.0639 36.9818 40.1087 36.9592 40.1491 36.9231C40.194 36.887 40.7774 36.3949 41.4416 35.826C42.1102 35.2617 42.6712 34.7831 42.6891 34.765C42.7161 34.7425 42.2718 33.1172 42.1192 32.6657C42.1102 32.6386 42.0609 32.7108 42.0115 32.8237Z" fill="black"/>
<path fill-rule="evenodd" clip-rule="evenodd" d="M35.4638 33.2706C34.665 33.5099 34.0187 33.7176 34.0277 33.7312C34.0636 33.8169 35.374 34.9501 35.4009 34.9185C35.5535 34.747 36.9402 32.8643 36.9267 32.8508C36.9178 32.8417 36.2581 33.0314 35.4638 33.2706Z" fill="black"/>
<path fill-rule="evenodd" clip-rule="evenodd" d="M42.3706 33.0266C42.4783 33.4464 42.8329 34.5842 42.8598 34.5842C42.8777 34.5842 42.9854 34.4984 43.0976 34.39L43.3041 34.2004L42.8822 33.6225C42.4155 32.9814 42.3347 32.8866 42.3706 33.0266Z" fill="black"/>
<path fill-rule="evenodd" clip-rule="evenodd" d="M36.617 33.8259C36.2849 34.2548 35.9259 34.7244 35.8182 34.8643C35.7105 35.0043 35.6297 35.1397 35.6342 35.1623C35.6432 35.1849 36.0695 35.5777 36.5766 36.0336C37.0882 36.4896 37.6671 37.0134 37.869 37.1985C38.1607 37.4648 38.2325 37.51 38.2146 37.4242C38.1966 37.3655 37.9723 36.3632 37.712 35.1939C37.4517 34.0291 37.2363 33.0674 37.2273 33.0629C37.2228 33.0539 36.9446 33.4015 36.617 33.8259Z" fill="black"/>
<path fill-rule="evenodd" clip-rule="evenodd" d="M40.6066 33.6498C40.104 33.9794 39.5026 34.3677 39.2783 34.5122C39.0494 34.6566 38.8609 34.7921 38.8609 34.8101C38.8609 34.8282 38.9821 35.23 39.1346 35.695C39.2827 36.1646 39.4353 36.6477 39.4757 36.765C39.5116 36.8869 39.552 36.9727 39.5655 36.9637C39.6059 36.9185 41.5535 33.081 41.54 33.0674C41.5311 33.0584 41.1137 33.3203 40.6066 33.6498Z" fill="black"/>
<path d="M27.7642 46.5962C23.9852 44.0511 21.1102 40.3769 19.5512 36.1L26.6503 33.5201C27.6636 36.3 29.5324 38.6883 31.9888 40.3426L27.7642 46.5962Z" fill="#FCFFEA"/>
<path d="M51.9045 10.8614C55.6835 13.4065 58.5586 17.0808 60.1176 21.3576L53.0185 23.9375C52.0051 21.1576 50.1363 18.7693 47.68 17.115L51.9045 10.8614Z" fill="#641D00"/>
<path d="M60.1133 21.3478C61.6748 25.6239 61.8405 30.2837 60.5866 34.6593C59.3328 39.0349 56.7237 42.9017 53.1333 45.7055C49.543 48.5093 45.1557 50.1062 40.6003 50.2672C36.0449 50.4282 31.5552 49.1451 27.7747 46.6018L31.9956 40.3462C34.4529 41.9994 37.3712 42.8334 40.3323 42.7287C43.2933 42.6241 46.145 41.5861 48.4787 39.7636C50.8125 37.9412 52.5084 35.4278 53.3234 32.5836C54.1384 29.7394 54.0307 26.7106 53.0157 23.9311L60.1133 21.3478Z" fill="#DE6C03"/>
<path d="M19.5512 36.1C17.9921 31.8232 17.8291 27.1633 19.0856 22.7883C20.342 18.4133 22.9534 14.5477 26.5453 11.7457C30.1373 8.94359 34.5255 7.34885 39.0811 7.19C43.6366 7.03116 48.1255 8.31637 51.9045 10.8614L47.68 17.115C45.2236 15.4607 42.3058 14.6253 39.3447 14.7286C36.3836 14.8318 33.5313 15.8684 31.1965 17.6898C28.8617 19.5111 27.1643 22.0237 26.3477 24.8675C25.531 27.7112 25.6369 30.7401 26.6503 33.5201L19.5512 36.1Z" fill="#97391B"/>
<path d="M27.3282 12.9792L24.7862 9.71588H14.2551" stroke="black" stroke-width="0.145684"/>
<path d="M27.6912 45.2483L25.1492 48.5116H14.6181" stroke="black" stroke-width="0.145684"/>
<path d="M2.67287 46.8745C2.64609 46.8745 2.62972 46.8611 2.62377 46.8343L2.47648 46.2764C2.47351 46.2674 2.46607 46.263 2.45417 46.263H1.38745C1.37554 46.263 1.3681 46.2674 1.36513 46.2764L1.21784 46.8343C1.21189 46.8611 1.19552 46.8745 1.16875 46.8745H0.936655C0.921778 46.8745 0.909876 46.87 0.900949 46.8611C0.894998 46.8521 0.893511 46.8402 0.896486 46.8254L1.73112 43.7903C1.73707 43.7636 1.75343 43.7502 1.78021 43.7502H2.06586C2.09264 43.7502 2.10901 43.7636 2.11496 43.7903L2.94959 46.8254L2.95405 46.8387C2.95405 46.8625 2.93917 46.8745 2.90942 46.8745H2.67287ZM1.441 45.9863C1.43803 45.9892 1.43803 45.9937 1.441 45.9997C1.44696 46.0026 1.45291 46.0041 1.45886 46.0041H2.38275C2.3887 46.0041 2.39317 46.0026 2.39614 45.9997C2.40209 45.9937 2.40358 45.9892 2.40061 45.9863L1.9275 44.192C1.92453 44.1861 1.92155 44.1831 1.91857 44.1831C1.9156 44.1831 1.91262 44.1861 1.90965 44.192L1.441 45.9863ZM3.47095 46.8745C3.4412 46.8745 3.42632 46.8596 3.42632 46.8298V43.7948C3.42632 43.765 3.4412 43.7502 3.47095 43.7502H3.69858C3.72834 43.7502 3.74321 43.765 3.74321 43.7948V46.5799C3.74321 46.5918 3.74916 46.5977 3.76107 46.5977H5.05988C5.08963 46.5977 5.10451 46.6126 5.10451 46.6424V46.8298C5.10451 46.8596 5.08963 46.8745 5.05988 46.8745H3.47095ZM7.27108 43.7814C7.28595 43.7606 7.30381 43.7502 7.32464 43.7502H7.55673C7.58648 43.7502 7.60136 43.765 7.60136 43.7948V46.8298C7.60136 46.8596 7.58648 46.8745 7.55673 46.8745H7.3291C7.29934 46.8745 7.28447 46.8596 7.28447 46.8298V44.4018C7.28447 44.3929 7.28149 44.3869 7.27554 44.3839C7.26959 44.381 7.26513 44.3839 7.26215 44.3929L6.66854 45.4239C6.65366 45.4447 6.6358 45.4551 6.61498 45.4551H6.56588C6.54505 45.4551 6.5272 45.4447 6.51232 45.4239L5.91424 44.3973C5.91127 44.3884 5.9068 44.3854 5.90085 44.3884C5.8949 44.3914 5.89193 44.3973 5.89193 44.4063V46.8298C5.89193 46.8596 5.87705 46.8745 5.84729 46.8745H5.61967C5.58991 46.8745 5.57504 46.8596 5.57504 46.8298V43.7948C5.57504 43.765 5.58991 43.7502 5.61967 43.7502H5.85176C5.87259 43.7502 5.89044 43.7606 5.90532 43.7814L6.57927 44.9285C6.58225 44.9314 6.58671 44.9329 6.59266 44.9329C6.59861 44.9329 6.60307 44.9314 6.60605 44.9285L7.27108 43.7814ZM9.1687 46.9102C8.98719 46.9102 8.82651 46.873 8.68666 46.7986C8.54979 46.7212 8.44267 46.6141 8.36531 46.4772C8.29092 46.3403 8.25373 46.1826 8.25373 46.0041V44.625C8.25373 44.4464 8.29092 44.2887 8.36531 44.1519C8.44267 44.012 8.54979 43.9049 8.68666 43.8305C8.82651 43.7531 8.98719 43.7145 9.1687 43.7145C9.3502 43.7145 9.50939 43.7531 9.64627 43.8305C9.78612 43.9049 9.89472 44.012 9.97208 44.1519C10.0494 44.2887 10.0881 44.4464 10.0881 44.625V46.0041C10.0881 46.1826 10.0494 46.3403 9.97208 46.4772C9.89472 46.6141 9.78612 46.7212 9.64627 46.7986C9.50939 46.873 9.3502 46.9102 9.1687 46.9102ZM9.1687 46.6334C9.3502 46.6334 9.496 46.5769 9.6061 46.4638C9.71619 46.3508 9.77124 46.202 9.77124 46.0175V44.616C9.77124 44.4286 9.71619 44.2783 9.6061 44.1652C9.496 44.0492 9.3502 43.9912 9.1687 43.9912C8.99017 43.9912 8.84585 44.0492 8.73576 44.1652C8.62567 44.2783 8.57062 44.4286 8.57062 44.616V46.0175C8.57062 46.202 8.62567 46.3508 8.73576 46.4638C8.84585 46.5769 8.99017 46.6334 9.1687 46.6334ZM12.2977 43.7948C12.2977 43.765 12.3126 43.7502 12.3424 43.7502H12.57C12.5997 43.7502 12.6146 43.765 12.6146 43.7948V46.8298C12.6146 46.8596 12.5997 46.8745 12.57 46.8745H12.329C12.3022 46.8745 12.2843 46.864 12.2754 46.8432L11.0793 44.4554C11.0733 44.4494 11.0674 44.4464 11.0614 44.4464C11.0584 44.4464 11.0569 44.4509 11.0569 44.4598L11.0614 46.8298C11.0614 46.8596 11.0465 46.8745 11.0168 46.8745H10.7891C10.7594 46.8745 10.7445 46.8596 10.7445 46.8298V43.7948C10.7445 43.765 10.7594 43.7502 10.7891 43.7502H11.0302C11.0569 43.7502 11.0748 43.7606 11.0837 43.7814L12.2799 46.1782C12.2858 46.1841 12.2903 46.1871 12.2933 46.1871C12.2992 46.1871 12.3022 46.1826 12.3022 46.1737L12.2977 43.7948ZM13.3695 46.8745C13.3397 46.8745 13.3248 46.8596 13.3248 46.8298V43.7948C13.3248 43.765 13.3397 43.7502 13.3695 43.7502H14.2398C14.5046 43.7502 14.7129 43.826 14.8647 43.9778C15.0194 44.1295 15.0968 44.3363 15.0968 44.5982V46.0264C15.0968 46.2883 15.0194 46.4951 14.8647 46.6468C14.7129 46.7986 14.5046 46.8745 14.2398 46.8745H13.3695ZM13.6417 46.5799C13.6417 46.5918 13.6477 46.5977 13.6596 46.5977H14.2443C14.4079 46.5948 14.5374 46.5412 14.6326 46.4371C14.7278 46.3299 14.7769 46.1841 14.7799 45.9997V44.625C14.7799 44.4405 14.7323 44.2947 14.637 44.1876C14.5418 44.0804 14.4109 44.0269 14.2443 44.0269H13.6596C13.6477 44.0269 13.6417 44.0328 13.6417 44.0447V46.5799ZM16.682 46.8745C16.6523 46.8745 16.6374 46.8596 16.6374 46.8298V43.7948C16.6374 43.765 16.6523 43.7502 16.682 43.7502H16.9097C16.9394 43.7502 16.9543 43.765 16.9543 43.7948V46.8298C16.9543 46.8596 16.9394 46.8745 16.9097 46.8745H16.682ZM18.5133 46.9102C18.2426 46.9102 18.0239 46.8298 17.8572 46.6691C17.6936 46.5085 17.6118 46.2957 17.6118 46.0309V44.5893C17.6118 44.3244 17.6936 44.1132 17.8572 43.9555C18.0239 43.7948 18.2426 43.7145 18.5133 43.7145C18.7871 43.7145 19.0058 43.7933 19.1694 43.951C19.3361 44.1087 19.4194 44.3185 19.4194 44.5803V44.6205C19.4194 44.6503 19.4045 44.6651 19.3748 44.6651L19.1471 44.6741C19.1174 44.6741 19.1025 44.6607 19.1025 44.6339V44.5714C19.1025 44.3988 19.0475 44.259 18.9374 44.1519C18.8302 44.0447 18.6889 43.9912 18.5133 43.9912C18.3378 43.9912 18.1965 44.0447 18.0893 44.1519C17.9822 44.256 17.9287 44.3958 17.9287 44.5714V46.0532C17.9287 46.2288 17.9822 46.3701 18.0893 46.4772C18.1965 46.5814 18.3378 46.6334 18.5133 46.6334C18.6889 46.6334 18.8302 46.5799 18.9374 46.4728C19.0475 46.3656 19.1025 46.2258 19.1025 46.0532V45.9907C19.1025 45.9639 19.1174 45.9506 19.1471 45.9506L19.3748 45.9639C19.4045 45.9639 19.4194 45.9788 19.4194 46.0086V46.0398C19.4194 46.3017 19.3361 46.5129 19.1694 46.6736C19.0058 46.8313 18.7871 46.9102 18.5133 46.9102ZM21.7642 43.9823C21.7642 44.012 21.7494 44.0269 21.7196 44.0269H20.3806C20.3687 44.0269 20.3628 44.0328 20.3628 44.0447V45.1516C20.3628 45.1635 20.3687 45.1695 20.3806 45.1695H21.2822C21.312 45.1695 21.3268 45.1844 21.3268 45.2141V45.4016C21.3268 45.4313 21.312 45.4462 21.2822 45.4462H20.3806C20.3687 45.4462 20.3628 45.4522 20.3628 45.4641V46.5799C20.3628 46.5918 20.3687 46.5977 20.3806 46.5977H21.7196C21.7494 46.5977 21.7642 46.6126 21.7642 46.6424V46.8298C21.7642 46.8596 21.7494 46.8745 21.7196 46.8745H20.0905C20.0608 46.8745 20.0459 46.8596 20.0459 46.8298V43.7948C20.0459 43.765 20.0608 43.7502 20.0905 43.7502H21.7196C21.7494 43.7502 21.7642 43.765 21.7642 43.7948V43.9823ZM1.9766 51.9102C1.70583 51.9102 1.48713 51.8298 1.3205 51.6691C1.15684 51.5085 1.07502 51.2957 1.07502 51.0309V49.5893C1.07502 49.3244 1.15684 49.1132 1.3205 48.9555C1.48713 48.7948 1.70583 48.7145 1.9766 48.7145C2.25034 48.7145 2.46904 48.7933 2.6327 48.951C2.79933 49.1087 2.88264 49.3185 2.88264 49.5803V49.6205C2.88264 49.6503 2.86776 49.6651 2.83801 49.6651L2.61038 49.6741C2.58063 49.6741 2.56575 49.6607 2.56575 49.6339V49.5714C2.56575 49.3988 2.5107 49.259 2.40061 49.1519C2.29349 49.0447 2.15215 48.9912 1.9766 48.9912C1.80104 48.9912 1.6597 49.0447 1.55259 49.1519C1.44547 49.256 1.39191 49.3958 1.39191 49.5714V51.0532C1.39191 51.2288 1.44547 51.3701 1.55259 51.4772C1.6597 51.5814 1.80104 51.6334 1.9766 51.6334C2.15215 51.6334 2.29349 51.5799 2.40061 51.4728C2.5107 51.3656 2.56575 51.2258 2.56575 51.0532V50.9907C2.56575 50.9639 2.58063 50.9506 2.61038 50.9506L2.83801 50.9639C2.86776 50.9639 2.88264 50.9788 2.88264 51.0086V51.0398C2.88264 51.3017 2.79933 51.5129 2.6327 51.6736C2.46904 51.8313 2.25034 51.9102 1.9766 51.9102ZM5.04004 51.8745C5.01623 51.8745 4.99987 51.8625 4.99094 51.8387L4.4375 50.4596C4.43452 50.4507 4.42857 50.4462 4.41964 50.4462H3.84388C3.83198 50.4462 3.82603 50.4522 3.82603 50.4641V51.8298C3.82603 51.8596 3.81115 51.8745 3.7814 51.8745H3.55377C3.52401 51.8745 3.50914 51.8596 3.50914 51.8298V48.7948C3.50914 48.765 3.52401 48.7502 3.55377 48.7502H4.49998C4.65471 48.7502 4.79158 48.7859 4.9106 48.8573C5.0326 48.9287 5.12633 49.0299 5.19179 49.1608C5.26022 49.2917 5.29444 49.442 5.29444 49.6116C5.29444 49.8139 5.24535 49.9865 5.14715 50.1293C5.04896 50.2721 4.91506 50.3674 4.74546 50.415C4.73356 50.4209 4.73058 50.4284 4.73653 50.4373L5.3123 51.8209L5.31676 51.8387C5.31676 51.8625 5.30337 51.8745 5.27659 51.8745H5.04004ZM3.84388 49.0269C3.83198 49.0269 3.82603 49.0328 3.82603 49.0447V50.1739C3.82603 50.1858 3.83198 50.1918 3.84388 50.1918H4.45981C4.61454 50.1918 4.73951 50.1382 4.83473 50.0311C4.92994 49.924 4.97755 49.7842 4.97755 49.6116C4.97755 49.436 4.92994 49.2947 4.83473 49.1876C4.73951 49.0804 4.61454 49.0269 4.45981 49.0269H3.84388ZM7.58553 48.9823C7.58553 49.012 7.57065 49.0269 7.5409 49.0269H6.20192C6.19001 49.0269 6.18406 49.0328 6.18406 49.0447V50.1516C6.18406 50.1635 6.19001 50.1695 6.20192 50.1695H7.1035C7.13325 50.1695 7.14813 50.1844 7.14813 50.2141V50.4016C7.14813 50.4313 7.13325 50.4462 7.1035 50.4462H6.20192C6.19001 50.4462 6.18406 50.4522 6.18406 50.4641V51.5799C6.18406 51.5918 6.19001 51.5977 6.20192 51.5977H7.5409C7.57065 51.5977 7.58553 51.6126 7.58553 51.6424V51.8298C7.58553 51.8596 7.57065 51.8745 7.5409 51.8745H5.9118C5.88205 51.8745 5.86717 51.8596 5.86717 51.8298V48.7948C5.86717 48.765 5.88205 48.7502 5.9118 48.7502H7.5409C7.57065 48.7502 7.58553 48.765 7.58553 48.7948V48.9823ZM9.73825 51.8745C9.71147 51.8745 9.69511 51.8611 9.68916 51.8343L9.54187 51.2764C9.53889 51.2674 9.53145 51.263 9.51955 51.263H8.45283C8.44093 51.263 8.43349 51.2674 8.43051 51.2764L8.28323 51.8343C8.27728 51.8611 8.26091 51.8745 8.23413 51.8745H8.00204C7.98716 51.8745 7.97526 51.87 7.96634 51.8611C7.96038 51.8521 7.9589 51.8402 7.96187 51.8254L8.7965 48.7903C8.80245 48.7636 8.81882 48.7502 8.8456 48.7502H9.13125C9.15803 48.7502 9.17439 48.7636 9.18034 48.7903L10.015 51.8254L10.0194 51.8387C10.0194 51.8625 10.0046 51.8745 9.97481 51.8745H9.73825ZM8.50639 50.9863C8.50341 50.9892 8.50341 50.9937 8.50639 50.9997C8.51234 51.0026 8.51829 51.0041 8.52424 51.0041H9.44814C9.45409 51.0041 9.45855 51.0026 9.46153 50.9997C9.46748 50.9937 9.46897 50.9892 9.46599 50.9863L8.99289 49.192C8.98991 49.1861 8.98694 49.1831 8.98396 49.1831C8.98098 49.1831 8.97801 49.1861 8.97503 49.192L8.50639 50.9863ZM12.1833 48.7814C12.1982 48.7606 12.216 48.7502 12.2368 48.7502H12.4689C12.4987 48.7502 12.5136 48.765 12.5136 48.7948V51.8298C12.5136 51.8596 12.4987 51.8745 12.4689 51.8745H12.2413C12.2116 51.8745 12.1967 51.8596 12.1967 51.8298V49.4018C12.1967 49.3929 12.1937 49.3869 12.1877 49.3839C12.1818 49.381 12.1773 49.3839 12.1744 49.3929L11.5807 50.4239C11.5659 50.4447 11.548 50.4551 11.5272 50.4551H11.4781C11.4573 50.4551 11.4394 50.4447 11.4245 50.4239L10.8265 49.3973C10.8235 49.3884 10.819 49.3854 10.8131 49.3884C10.8071 49.3914 10.8041 49.3973 10.8041 49.4063V51.8298C10.8041 51.8596 10.7893 51.8745 10.7595 51.8745H10.5319C10.5021 51.8745 10.4872 51.8596 10.4872 51.8298V48.7948C10.4872 48.765 10.5021 48.7502 10.5319 48.7502H10.764C10.7848 48.7502 10.8026 48.7606 10.8175 48.7814L11.4915 49.9285C11.4945 49.9314 11.4989 49.9329 11.5049 49.9329C11.5108 49.9329 11.5153 49.9314 11.5183 49.9285L12.1833 48.7814ZM14.4433 48.7636C14.4612 48.7546 14.4805 48.7502 14.5013 48.7502H14.7423C14.7721 48.7502 14.787 48.765 14.787 48.7948V51.8298C14.787 51.8596 14.7721 51.8745 14.7423 51.8745H14.5147C14.485 51.8745 14.4701 51.8596 14.4701 51.8298V49.1162C14.4701 49.1102 14.4671 49.1057 14.4612 49.1028C14.4582 49.0998 14.4537 49.0998 14.4478 49.1028L14.0014 49.2679C13.9955 49.2709 13.988 49.2724 13.9791 49.2724C13.9642 49.2724 13.9538 49.2605 13.9479 49.2367L13.9256 49.0715V49.0626C13.9256 49.0477 13.936 49.0328 13.9568 49.018L14.4433 48.7636ZM16.2453 51.9191C15.9894 51.9191 15.7841 51.8417 15.6293 51.687C15.4746 51.5323 15.3973 51.3255 15.3973 51.0666V49.558C15.3973 49.3021 15.4746 49.0968 15.6293 48.9421C15.7841 48.7874 15.9894 48.71 16.2453 48.71C16.5041 48.71 16.7109 48.7874 16.8657 48.9421C17.0234 49.0968 17.1022 49.3021 17.1022 49.558V51.0666C17.1022 51.3255 17.0234 51.5323 16.8657 51.687C16.7109 51.8417 16.5041 51.9191 16.2453 51.9191ZM16.2453 51.6424C16.4089 51.6424 16.5399 51.5918 16.638 51.4906C16.7362 51.3894 16.7853 51.2555 16.7853 51.0889V49.5402C16.7853 49.3735 16.7362 49.2396 16.638 49.1385C16.5399 49.0373 16.4089 48.9867 16.2453 48.9867C16.0876 48.9867 15.9596 49.0373 15.8614 49.1385C15.7632 49.2396 15.7141 49.3735 15.7141 49.5402V51.0889C15.7141 51.2526 15.7632 51.3865 15.8614 51.4906C15.9596 51.5918 16.0876 51.6424 16.2453 51.6424ZM18.3783 49.9776C18.2623 49.9776 18.1551 49.9493 18.0569 49.8928C17.9617 49.8362 17.8859 49.7604 17.8293 49.6651C17.7728 49.5669 17.7445 49.4598 17.7445 49.3438C17.7445 49.2277 17.7728 49.1221 17.8293 49.0269C17.8859 48.9287 17.9617 48.8513 18.0569 48.7948C18.1551 48.7383 18.2623 48.71 18.3783 48.71C18.4914 48.71 18.5955 48.7383 18.6907 48.7948C18.7889 48.8513 18.8663 48.9287 18.9228 49.0269C18.9794 49.1221 19.0076 49.2277 19.0076 49.3438C19.0076 49.4598 18.9794 49.5669 18.9228 49.6651C18.8663 49.7604 18.7889 49.8362 18.6907 49.8928C18.5955 49.9493 18.4914 49.9776 18.3783 49.9776ZM18.2756 51.8745C18.2608 51.8745 18.2489 51.87 18.2399 51.8611C18.234 51.8492 18.2355 51.8358 18.2444 51.8209L19.9047 48.7814C19.9137 48.7606 19.9315 48.7502 19.9583 48.7502H20.1011C20.116 48.7502 20.1264 48.7561 20.1324 48.768C20.1413 48.7769 20.1413 48.7888 20.1324 48.8037L18.472 51.8432C18.4631 51.864 18.4452 51.8745 18.4185 51.8745H18.2756ZM18.3783 49.7812C18.4973 49.7812 18.597 49.7395 18.6773 49.6562C18.7607 49.5699 18.8023 49.4658 18.8023 49.3438C18.8023 49.2218 18.7607 49.1191 18.6773 49.0358C18.597 48.9495 18.4973 48.9064 18.3783 48.9064C18.2593 48.9064 18.1581 48.9495 18.0748 49.0358C17.9915 49.1191 17.9498 49.2218 17.9498 49.3438C17.9498 49.4658 17.9915 49.5699 18.0748 49.6562C18.1581 49.7395 18.2593 49.7812 18.3783 49.7812ZM20.0163 51.9146C19.9003 51.9146 19.7932 51.8864 19.695 51.8298C19.5997 51.7733 19.5239 51.6959 19.4673 51.5977C19.4108 51.4995 19.3825 51.3924 19.3825 51.2764C19.3825 51.1633 19.4108 51.0592 19.4673 50.9639C19.5239 50.8658 19.5997 50.7884 19.695 50.7319C19.7932 50.6753 19.9003 50.6471 20.0163 50.6471C20.1294 50.6471 20.2335 50.6753 20.3287 50.7319C20.4269 50.7884 20.5043 50.8658 20.5608 50.9639C20.6174 51.0592 20.6456 51.1633 20.6456 51.2764C20.6456 51.3924 20.6174 51.4995 20.5608 51.5977C20.5043 51.6959 20.4269 51.7733 20.3287 51.8298C20.2335 51.8864 20.1294 51.9146 20.0163 51.9146ZM20.0163 51.7182C20.1353 51.7182 20.235 51.6751 20.3154 51.5888C20.3987 51.5025 20.4403 51.3984 20.4403 51.2764C20.4403 51.1544 20.3987 51.0517 20.3154 50.9684C20.235 50.8851 20.1353 50.8434 20.0163 50.8434C19.8973 50.8434 19.7961 50.8851 19.7128 50.9684C19.6295 51.0517 19.5878 51.1544 19.5878 51.2764C19.5878 51.4013 19.628 51.507 19.7084 51.5933C19.7917 51.6766 19.8943 51.7182 20.0163 51.7182Z" fill="#404040"/>
<path d="M1.97117 6.64758C1.9563 6.65353 1.9563 6.66097 1.97117 6.6699C2.11102 6.73833 2.21814 6.83653 2.29253 6.96447C2.36989 7.09242 2.41006 7.24715 2.41304 7.42865C2.41304 7.69645 2.3327 7.90473 2.17202 8.05351C2.01432 8.20228 1.80454 8.27667 1.5427 8.27667H0.663436C0.633681 8.27667 0.618803 8.26179 0.618803 8.23204V5.19702C0.618803 5.16726 0.633681 5.15239 0.663436 5.15239H1.50699C1.78074 5.15239 1.99498 5.2238 2.1497 5.36662C2.30443 5.50647 2.38179 5.70732 2.38179 5.96916C2.38179 6.13579 2.34609 6.27564 2.27468 6.38871C2.20624 6.50178 2.10507 6.58807 1.97117 6.64758ZM0.953548 5.42911C0.941646 5.42911 0.935695 5.43506 0.935695 5.44696V6.52261C0.935695 6.53451 0.941646 6.54046 0.953548 6.54046H1.51146C1.68404 6.54046 1.81942 6.49137 1.91761 6.39317C2.01878 6.29498 2.06936 6.16257 2.06936 5.99594C2.06936 5.82039 2.01878 5.68203 1.91761 5.58086C1.81942 5.47969 1.68404 5.42911 1.51146 5.42911H0.953548ZM1.53377 7.99549C1.70635 7.99549 1.84323 7.94193 1.94439 7.83481C2.04556 7.72769 2.09614 7.58189 2.09614 7.39741C2.09614 7.20995 2.04407 7.06266 1.93993 6.95555C1.83876 6.84843 1.7004 6.79487 1.52485 6.79487H0.953548C0.941646 6.79487 0.935695 6.80082 0.935695 6.81272V7.97763C0.935695 7.98954 0.941646 7.99549 0.953548 7.99549H1.53377ZM4.55132 8.27667C4.52752 8.27667 4.51116 8.26477 4.50223 8.24097L3.94878 6.86182C3.94581 6.85289 3.93986 6.84843 3.93093 6.84843H3.35517C3.34327 6.84843 3.33732 6.85438 3.33732 6.86628V8.23204C3.33732 8.26179 3.32244 8.27667 3.29268 8.27667H3.06506C3.0353 8.27667 3.02042 8.26179 3.02042 8.23204V5.19702C3.02042 5.16726 3.0353 5.15239 3.06506 5.15239H4.01127C4.166 5.15239 4.30287 5.18809 4.42189 5.2595C4.54389 5.33092 4.63761 5.43208 4.70308 5.56301C4.77151 5.69393 4.80573 5.84419 4.80573 6.0138C4.80573 6.21613 4.75663 6.38871 4.65844 6.53154C4.56025 6.67436 4.42635 6.76958 4.25675 6.81718C4.24485 6.82314 4.24187 6.83057 4.24782 6.8395L4.82358 8.22311L4.82805 8.24097C4.82805 8.26477 4.81466 8.27667 4.78788 8.27667H4.55132ZM3.35517 5.42911C3.34327 5.42911 3.33732 5.43506 3.33732 5.44696V6.57617C3.33732 6.58807 3.34327 6.59402 3.35517 6.59402H3.9711C4.12583 6.59402 4.2508 6.54046 4.34601 6.43334C4.44123 6.32622 4.48884 6.18638 4.48884 6.0138C4.48884 5.83824 4.44123 5.6969 4.34601 5.58979C4.2508 5.48267 4.12583 5.42911 3.9711 5.42911H3.35517ZM6.20863 8.31238C6.02712 8.31238 5.86644 8.27518 5.72659 8.2008C5.58972 8.12343 5.4826 8.01632 5.40524 7.87944C5.33085 7.74257 5.29366 7.58487 5.29366 7.40634V6.02719C5.29366 5.84866 5.33085 5.69095 5.40524 5.55408C5.4826 5.41423 5.58972 5.30711 5.72659 5.23272C5.86644 5.15536 6.02712 5.11668 6.20863 5.11668C6.39013 5.11668 6.54932 5.15536 6.6862 5.23272C6.82604 5.30711 6.93465 5.41423 7.01201 5.55408C7.08938 5.69095 7.12806 5.84866 7.12806 6.02719V7.40634C7.12806 7.58487 7.08938 7.74257 7.01201 7.87944C6.93465 8.01632 6.82604 8.12343 6.6862 8.2008C6.54932 8.27518 6.39013 8.31238 6.20863 8.31238ZM6.20863 8.03566C6.39013 8.03566 6.53593 7.97912 6.64603 7.86605C6.75612 7.75298 6.81117 7.60421 6.81117 7.41973V6.01826C6.81117 5.8308 6.75612 5.68054 6.64603 5.56747C6.53593 5.45142 6.39013 5.3934 6.20863 5.3934C6.0301 5.3934 5.88578 5.45142 5.77569 5.56747C5.66559 5.68054 5.61055 5.8308 5.61055 6.01826V7.41973C5.61055 7.60421 5.66559 7.75298 5.77569 7.86605C5.88578 7.97912 6.0301 8.03566 6.20863 8.03566ZM8.28931 8.27667C8.26253 8.27667 8.24617 8.26328 8.24021 8.2365L7.52163 5.20148L7.51717 5.18363C7.51717 5.1628 7.53056 5.15239 7.55733 5.15239H7.79835C7.82513 5.15239 7.8415 5.16578 7.84745 5.19256L8.39197 7.58933C8.39494 7.59826 8.39792 7.60272 8.40089 7.60272C8.40684 7.60272 8.41131 7.59826 8.41428 7.58933L8.9097 5.19256C8.91566 5.16578 8.93202 5.15239 8.9588 5.15239H9.18196C9.21172 5.15239 9.22808 5.16578 9.23106 5.19256L9.74434 7.58933C9.74731 7.59826 9.75029 7.60272 9.75326 7.60272C9.75624 7.60272 9.75921 7.59826 9.76219 7.58933L10.2933 5.19256C10.2993 5.16578 10.3156 5.15239 10.3424 5.15239H10.5745C10.6043 5.15239 10.6162 5.16875 10.6102 5.20148L9.91394 8.2365C9.90799 8.26328 9.89162 8.27667 9.86484 8.27667H9.63722C9.61044 8.27667 9.59407 8.26328 9.58812 8.2365L9.07931 5.80402C9.07633 5.7951 9.07336 5.79063 9.07038 5.79063C9.06741 5.79063 9.06443 5.7951 9.06146 5.80402L8.55711 8.2365C8.55413 8.26328 8.53777 8.27667 8.50801 8.27667H8.28931ZM12.6372 5.19702C12.6372 5.16726 12.652 5.15239 12.6818 5.15239H12.9094C12.9392 5.15239 12.9541 5.16726 12.9541 5.19702V8.23204C12.9541 8.26179 12.9392 8.27667 12.9094 8.27667H12.6684C12.6416 8.27667 12.6238 8.26626 12.6148 8.24543L11.4187 5.85758C11.4127 5.85163 11.4068 5.84866 11.4008 5.84866C11.3979 5.84866 11.3964 5.85312 11.3964 5.86205L11.4008 8.23204C11.4008 8.26179 11.386 8.27667 11.3562 8.27667H11.1286C11.0988 8.27667 11.0839 8.26179 11.0839 8.23204V5.19702C11.0839 5.16726 11.0988 5.15239 11.1286 5.15239H11.3696C11.3964 5.15239 11.4142 5.1628 11.4232 5.18363L12.6193 7.5804C12.6253 7.58635 12.6297 7.58933 12.6327 7.58933C12.6386 7.58933 12.6416 7.58487 12.6416 7.57594L12.6372 5.19702ZM13.7394 8.27667C13.7097 8.27667 13.6948 8.26179 13.6948 8.23204V5.19702C13.6948 5.16726 13.7097 5.15239 13.7394 5.15239H13.967C13.9968 5.15239 14.0117 5.16726 14.0117 5.19702V8.23204C14.0117 8.26179 13.9968 8.27667 13.967 8.27667H13.7394ZM16.4723 5.38448C16.4723 5.41423 16.4574 5.42911 16.4277 5.42911H15.0887C15.0768 5.42911 15.0708 5.43506 15.0708 5.44696V6.55385C15.0708 6.56575 15.0768 6.5717 15.0887 6.5717H15.9903C16.02 6.5717 16.0349 6.58658 16.0349 6.61634V6.80379C16.0349 6.83355 16.02 6.84843 15.9903 6.84843H15.0887C15.0768 6.84843 15.0708 6.85438 15.0708 6.86628V7.9821C15.0708 7.994 15.0768 7.99995 15.0887 7.99995H16.4277C16.4574 7.99995 16.4723 8.01483 16.4723 8.04458V8.23204C16.4723 8.26179 16.4574 8.27667 16.4277 8.27667H14.7986C14.7688 8.27667 14.7539 8.26179 14.7539 8.23204V5.19702C14.7539 5.16726 14.7688 5.15239 14.7986 5.15239H16.4277C16.4574 5.15239 16.4723 5.16726 16.4723 5.19702V5.38448ZM19.5109 7.13408C19.5406 7.13408 19.5555 7.14895 19.5555 7.17871V7.37509C19.5555 7.40485 19.5406 7.41973 19.5109 7.41973H19.3457C19.3338 7.41973 19.3279 7.42568 19.3279 7.43758V8.23204C19.3279 8.26179 19.313 8.27667 19.2832 8.27667H19.0556C19.0259 8.27667 19.011 8.26179 19.011 8.23204V7.43758C19.011 7.42568 19.005 7.41973 18.9931 7.41973H17.7836C17.7538 7.41973 17.739 7.40485 17.739 7.37509V7.20549C17.739 7.18466 17.7419 7.16681 17.7479 7.15193L18.5423 5.18809C18.5513 5.16429 18.5676 5.15239 18.5914 5.15239H18.8369C18.8518 5.15239 18.8622 5.15834 18.8682 5.17024C18.8741 5.17917 18.8741 5.19107 18.8682 5.20594L18.1094 7.11176C18.1064 7.11771 18.1064 7.12366 18.1094 7.12961C18.1124 7.13259 18.1168 7.13408 18.1228 7.13408H18.9931C19.005 7.13408 19.011 7.12813 19.011 7.11622V6.41103C19.011 6.38127 19.0259 6.36639 19.0556 6.36639H19.2832C19.313 6.36639 19.3279 6.38127 19.3279 6.41103V7.11622C19.3279 7.12813 19.3338 7.13408 19.3457 7.13408H19.5109ZM20.8606 8.32131C20.6047 8.32131 20.3993 8.24394 20.2446 8.08922C20.0899 7.93449 20.0125 7.72769 20.0125 7.46882V5.96024C20.0125 5.70434 20.0899 5.49903 20.2446 5.34431C20.3993 5.18958 20.6047 5.11222 20.8606 5.11222C21.1194 5.11222 21.3262 5.18958 21.4809 5.34431C21.6386 5.49903 21.7175 5.70434 21.7175 5.96024V7.46882C21.7175 7.72769 21.6386 7.93449 21.4809 8.08922C21.3262 8.24394 21.1194 8.32131 20.8606 8.32131ZM20.8606 8.04458C21.0242 8.04458 21.1551 7.994 21.2533 7.89283C21.3515 7.79166 21.4006 7.65777 21.4006 7.49114V5.94238C21.4006 5.77576 21.3515 5.64186 21.2533 5.54069C21.1551 5.43952 21.0242 5.38894 20.8606 5.38894C20.7029 5.38894 20.5749 5.43952 20.4767 5.54069C20.3785 5.64186 20.3294 5.77576 20.3294 5.94238V7.49114C20.3294 7.65479 20.3785 7.78869 20.4767 7.89283C20.5749 7.994 20.7029 8.04458 20.8606 8.04458ZM22.9936 6.37978C22.8775 6.37978 22.7704 6.35152 22.6722 6.29498C22.577 6.23845 22.5011 6.16257 22.4446 6.06736C22.3881 5.96916 22.3598 5.86205 22.3598 5.746C22.3598 5.62996 22.3881 5.52432 22.4446 5.42911C22.5011 5.33092 22.577 5.25355 22.6722 5.19702C22.7704 5.14048 22.8775 5.11222 22.9936 5.11222C23.1066 5.11222 23.2108 5.14048 23.306 5.19702C23.4042 5.25355 23.4816 5.33092 23.5381 5.42911C23.5946 5.52432 23.6229 5.62996 23.6229 5.746C23.6229 5.86205 23.5946 5.96916 23.5381 6.06736C23.4816 6.16257 23.4042 6.23845 23.306 6.29498C23.2108 6.35152 23.1066 6.37978 22.9936 6.37978ZM22.8909 8.27667C22.876 8.27667 22.8641 8.27221 22.8552 8.26328C22.8493 8.25138 22.8508 8.23799 22.8597 8.22311L24.52 5.18363C24.5289 5.1628 24.5468 5.15239 24.5736 5.15239H24.7164C24.7313 5.15239 24.7417 5.15834 24.7476 5.17024C24.7566 5.17917 24.7566 5.19107 24.7476 5.20594L23.0873 8.24543C23.0784 8.26626 23.0605 8.27667 23.0337 8.27667H22.8909ZM22.9936 6.1834C23.1126 6.1834 23.2123 6.14174 23.2926 6.05843C23.3759 5.97214 23.4176 5.868 23.4176 5.746C23.4176 5.624 23.3759 5.52135 23.2926 5.43803C23.2123 5.35175 23.1126 5.3086 22.9936 5.3086C22.8746 5.3086 22.7734 5.35175 22.6901 5.43803C22.6068 5.52135 22.5651 5.624 22.5651 5.746C22.5651 5.868 22.6068 5.97214 22.6901 6.05843C22.7734 6.14174 22.8746 6.1834 22.9936 6.1834ZM24.6316 8.31684C24.5156 8.31684 24.4084 8.28857 24.3102 8.23204C24.215 8.1755 24.1391 8.09814 24.0826 7.99995C24.0261 7.90176 23.9978 7.79464 23.9978 7.67859C23.9978 7.56553 24.0261 7.46138 24.0826 7.36617C24.1391 7.26797 24.215 7.19061 24.3102 7.13408C24.4084 7.07754 24.5156 7.04927 24.6316 7.04927C24.7447 7.04927 24.8488 7.07754 24.944 7.13408C25.0422 7.19061 25.1196 7.26797 25.1761 7.36617C25.2326 7.46138 25.2609 7.56553 25.2609 7.67859C25.2609 7.79464 25.2326 7.90176 25.1761 7.99995C25.1196 8.09814 25.0422 8.1755 24.944 8.23204C24.8488 8.28857 24.7447 8.31684 24.6316 8.31684ZM24.6316 8.12046C24.7506 8.12046 24.8503 8.07731 24.9306 7.99102C25.0139 7.90473 25.0556 7.80059 25.0556 7.67859C25.0556 7.5566 25.0139 7.45394 24.9306 7.37063C24.8503 7.28731 24.7506 7.24566 24.6316 7.24566C24.5126 7.24566 24.4114 7.28731 24.3281 7.37063C24.2448 7.45394 24.2031 7.5566 24.2031 7.67859C24.2031 7.80357 24.2433 7.9092 24.3236 7.99549C24.4069 8.0788 24.5096 8.12046 24.6316 8.12046Z" fill="#404040"/>
<path d="M55.447 42.3159L57.989 45.5792H68.5201" stroke="black" stroke-width="0.145684"/>
<path d="M60.4348 44.1761C60.2533 44.1761 60.0927 44.139 59.9528 44.0646C59.8159 43.9872 59.7088 43.8801 59.6315 43.7432C59.5571 43.6063 59.5199 43.4486 59.5199 43.2701V41.891C59.5199 41.7124 59.5571 41.5547 59.6315 41.4178C59.7088 41.278 59.8159 41.1709 59.9528 41.0965C60.0927 41.0191 60.2533 40.9804 60.4348 40.9804C60.6163 40.9804 60.7755 41.0191 60.9124 41.0965C61.0523 41.1709 61.1609 41.278 61.2382 41.4178C61.3156 41.5547 61.3543 41.7124 61.3543 41.891V43.2701C61.3543 43.4486 61.3156 43.6063 61.2382 43.7432C61.1609 43.8801 61.0523 43.9872 60.9124 44.0646C60.7755 44.139 60.6163 44.1761 60.4348 44.1761ZM60.4348 43.8994C60.6163 43.8994 60.7621 43.8429 60.8722 43.7298C60.9823 43.6168 61.0374 43.468 61.0374 43.2835V41.882C61.0374 41.6946 60.9823 41.5443 60.8722 41.4312C60.7621 41.3152 60.6163 41.2572 60.4348 41.2572C60.2563 41.2572 60.112 41.3152 60.0019 41.4312C59.8918 41.5443 59.8368 41.6946 59.8368 41.882V43.2835C59.8368 43.468 59.8918 43.6168 60.0019 43.7298C60.112 43.8429 60.2563 43.8994 60.4348 43.8994ZM63.5416 44.1404C63.5177 44.1404 63.5014 44.1285 63.4925 44.1047L62.939 42.7256C62.936 42.7167 62.9301 42.7122 62.9212 42.7122H62.3454C62.3335 42.7122 62.3275 42.7181 62.3275 42.73V44.0958C62.3275 44.1256 62.3127 44.1404 62.2829 44.1404H62.0553C62.0255 44.1404 62.0107 44.1256 62.0107 44.0958V41.0608C62.0107 41.031 62.0255 41.0162 62.0553 41.0162H63.0015C63.1562 41.0162 63.2931 41.0519 63.4121 41.1233C63.5341 41.1947 63.6278 41.2959 63.6933 41.4268C63.7617 41.5577 63.796 41.708 63.796 41.8776C63.796 42.0799 63.7469 42.2525 63.6487 42.3953C63.5505 42.5381 63.4166 42.6333 63.247 42.681C63.2351 42.6869 63.2321 42.6943 63.2381 42.7033L63.8138 44.0869L63.8183 44.1047C63.8183 44.1285 63.8049 44.1404 63.7781 44.1404H63.5416ZM62.3454 41.2929C62.3335 41.2929 62.3275 41.2988 62.3275 41.3107V42.4399C62.3275 42.4518 62.3335 42.4578 62.3454 42.4578H62.9613C63.1161 42.4578 63.241 42.4042 63.3362 42.2971C63.4315 42.19 63.4791 42.0501 63.4791 41.8776C63.4791 41.702 63.4315 41.5607 63.3362 41.4536C63.241 41.3464 63.1161 41.2929 62.9613 41.2929H62.3454ZM65.9951 44.1404C65.9683 44.1404 65.9519 44.1271 65.946 44.1003L65.7987 43.5424C65.7957 43.5334 65.7883 43.529 65.7764 43.529H64.7096C64.6977 43.529 64.6903 43.5334 64.6873 43.5424L64.54 44.1003C64.5341 44.1271 64.5177 44.1404 64.4909 44.1404H64.2588C64.244 44.1404 64.2321 44.136 64.2231 44.1271C64.2172 44.1181 64.2157 44.1062 64.2187 44.0913L65.0533 41.0563C65.0593 41.0295 65.0756 41.0162 65.1024 41.0162H65.3881C65.4148 41.0162 65.4312 41.0295 65.4372 41.0563L66.2718 44.0913L66.2762 44.1047C66.2762 44.1285 66.2614 44.1404 66.2316 44.1404H65.9951ZM64.7632 43.2523C64.7602 43.2552 64.7602 43.2597 64.7632 43.2656C64.7691 43.2686 64.7751 43.2701 64.7811 43.2701H65.7049C65.7109 43.2701 65.7154 43.2686 65.7183 43.2656C65.7243 43.2597 65.7258 43.2552 65.7228 43.2523L65.2497 41.458C65.2467 41.4521 65.2437 41.4491 65.2408 41.4491C65.2378 41.4491 65.2348 41.4521 65.2318 41.458L64.7632 43.2523ZM68.3017 41.0608C68.3017 41.031 68.3166 41.0162 68.3464 41.0162H68.574C68.6037 41.0162 68.6186 41.031 68.6186 41.0608V44.0958C68.6186 44.1256 68.6037 44.1404 68.574 44.1404H68.333C68.3062 44.1404 68.2883 44.13 68.2794 44.1092L67.0833 41.7214C67.0773 41.7154 67.0714 41.7124 67.0654 41.7124C67.0624 41.7124 67.0609 41.7169 67.0609 41.7258L67.0654 44.0958C67.0654 44.1256 67.0505 44.1404 67.0208 44.1404H66.7931C66.7634 44.1404 66.7485 44.1256 66.7485 44.0958V41.0608C66.7485 41.031 66.7634 41.0162 66.7931 41.0162H67.0342C67.0609 41.0162 67.0788 41.0266 67.0877 41.0474L68.2839 43.4442C68.2898 43.4501 68.2943 43.4531 68.2973 43.4531C68.3032 43.4531 68.3062 43.4486 68.3062 43.4397L68.3017 41.0608ZM70.1761 44.1761C69.9054 44.1761 69.6867 44.0973 69.52 43.9396C69.3564 43.7819 69.2745 43.5721 69.2745 43.3103V41.8463C69.2745 41.5845 69.3564 41.3747 69.52 41.217C69.6867 41.0593 69.9054 40.9804 70.1761 40.9804C70.3547 40.9804 70.5109 41.0162 70.6448 41.0876C70.7816 41.159 70.8873 41.2587 70.9617 41.3866C71.039 41.5146 71.0777 41.6618 71.0777 41.8285V41.9534C71.0777 41.9832 71.0628 41.9981 71.0331 41.9981H70.8054C70.7757 41.9981 70.7608 41.9832 70.7608 41.9534V41.8285C70.7608 41.6589 70.7073 41.522 70.6001 41.4178C70.493 41.3107 70.3517 41.2572 70.1761 41.2572C70.0006 41.2572 69.8592 41.3107 69.7521 41.4178C69.645 41.522 69.5914 41.6618 69.5914 41.8374V43.3192C69.5914 43.4918 69.645 43.6316 69.7521 43.7387C69.8622 43.8459 70.005 43.8994 70.1806 43.8994C70.3561 43.8994 70.496 43.8488 70.6001 43.7477C70.7073 43.6465 70.7608 43.5096 70.7608 43.3371V42.8506C70.7608 42.8387 70.7549 42.8327 70.743 42.8327H70.2208C70.191 42.8327 70.1761 42.8178 70.1761 42.7881V42.6006C70.1761 42.5709 70.191 42.556 70.2208 42.556H71.0331C71.0628 42.556 71.0777 42.5709 71.0777 42.6006V43.2969C71.0777 43.5677 70.9959 43.7819 70.8322 43.9396C70.6686 44.0973 70.4499 44.1761 70.1761 44.1761ZM73.4532 41.2482C73.4532 41.278 73.4383 41.2929 73.4085 41.2929H72.0696C72.0577 41.2929 72.0517 41.2988 72.0517 41.3107V42.4176C72.0517 42.4295 72.0577 42.4355 72.0696 42.4355H72.9711C73.0009 42.4355 73.0158 42.4504 73.0158 42.4801V42.6676C73.0158 42.6973 73.0009 42.7122 72.9711 42.7122H72.0696C72.0577 42.7122 72.0517 42.7181 72.0517 42.73V43.8459C72.0517 43.8578 72.0577 43.8637 72.0696 43.8637H73.4085C73.4383 43.8637 73.4532 43.8786 73.4532 43.9084V44.0958C73.4532 44.1256 73.4383 44.1404 73.4085 44.1404H71.7795C71.7497 44.1404 71.7348 44.1256 71.7348 44.0958V41.0608C71.7348 41.031 71.7497 41.0162 71.7795 41.0162H73.4085C73.4383 41.0162 73.4532 41.031 73.4532 41.0608V41.2482ZM60.4215 49.1761C60.1507 49.1761 59.932 49.0958 59.7654 48.9351C59.6017 48.7745 59.5199 48.5617 59.5199 48.2969V46.8552C59.5199 46.5904 59.6017 46.3792 59.7654 46.2215C59.932 46.0608 60.1507 45.9804 60.4215 45.9804C60.6952 45.9804 60.9139 46.0593 61.0776 46.217C61.2442 46.3747 61.3275 46.5845 61.3275 46.8463V46.8865C61.3275 46.9162 61.3126 46.9311 61.2829 46.9311L61.0552 46.9401C61.0255 46.9401 61.0106 46.9267 61.0106 46.8999V46.8374C61.0106 46.6648 60.9556 46.525 60.8455 46.4178C60.7383 46.3107 60.597 46.2572 60.4215 46.2572C60.2459 46.2572 60.1046 46.3107 59.9974 46.4178C59.8903 46.522 59.8368 46.6618 59.8368 46.8374V48.3192C59.8368 48.4948 59.8903 48.6361 59.9974 48.7432C60.1046 48.8474 60.2459 48.8994 60.4215 48.8994C60.597 48.8994 60.7383 48.8459 60.8455 48.7387C60.9556 48.6316 61.0106 48.4918 61.0106 48.3192V48.2567C61.0106 48.2299 61.0255 48.2165 61.0552 48.2165L61.2829 48.2299C61.3126 48.2299 61.3275 48.2448 61.3275 48.2746V48.3058C61.3275 48.5677 61.2442 48.7789 61.0776 48.9396C60.9139 49.0973 60.6952 49.1761 60.4215 49.1761ZM62.7842 49.1761C62.6027 49.1761 62.442 49.139 62.3021 49.0646C62.1653 48.9872 62.0581 48.8801 61.9808 48.7432C61.9064 48.6063 61.8692 48.4486 61.8692 48.2701V46.891C61.8692 46.7124 61.9064 46.5547 61.9808 46.4178C62.0581 46.278 62.1653 46.1709 62.3021 46.0965C62.442 46.0191 62.6027 45.9804 62.7842 45.9804C62.9657 45.9804 63.1249 46.0191 63.2617 46.0965C63.4016 46.1709 63.5102 46.278 63.5875 46.4178C63.6649 46.5547 63.7036 46.7124 63.7036 46.891V48.2701C63.7036 48.4486 63.6649 48.6063 63.5875 48.7432C63.5102 48.8801 63.4016 48.9872 63.2617 49.0646C63.1249 49.139 62.9657 49.1761 62.7842 49.1761ZM62.7842 48.8994C62.9657 48.8994 63.1115 48.8429 63.2216 48.7298C63.3317 48.6168 63.3867 48.468 63.3867 48.2835V46.882C63.3867 46.6946 63.3317 46.5443 63.2216 46.4312C63.1115 46.3152 62.9657 46.2572 62.7842 46.2572C62.6056 46.2572 62.4613 46.3152 62.3512 46.4312C62.2411 46.5443 62.1861 46.6946 62.1861 46.882V48.2835C62.1861 48.468 62.2411 48.6168 62.3512 48.7298C62.4613 48.8429 62.6056 48.8994 62.7842 48.8994ZM65.1901 49.1761C65.0086 49.1761 64.848 49.139 64.7081 49.0646C64.5712 48.9872 64.4641 48.8801 64.3867 48.7432C64.3124 48.6063 64.2752 48.4486 64.2752 48.2701V46.891C64.2752 46.7124 64.3124 46.5547 64.3867 46.4178C64.4641 46.278 64.5712 46.1709 64.7081 46.0965C64.848 46.0191 65.0086 45.9804 65.1901 45.9804C65.3716 45.9804 65.5308 46.0191 65.6677 46.0965C65.8076 46.1709 65.9162 46.278 65.9935 46.4178C66.0709 46.5547 66.1096 46.7124 66.1096 46.891V48.2701C66.1096 48.4486 66.0709 48.6063 65.9935 48.7432C65.9162 48.8801 65.8076 48.9872 65.6677 49.0646C65.5308 49.139 65.3716 49.1761 65.1901 49.1761ZM65.1901 48.8994C65.3716 48.8994 65.5174 48.8429 65.6275 48.7298C65.7376 48.6168 65.7927 48.468 65.7927 48.2835V46.882C65.7927 46.6946 65.7376 46.5443 65.6275 46.4312C65.5174 46.3152 65.3716 46.2572 65.1901 46.2572C65.0116 46.2572 64.8673 46.3152 64.7572 46.4312C64.6471 46.5443 64.5921 46.6946 64.5921 46.882V48.2835C64.5921 48.468 64.6471 48.6168 64.7572 48.7298C64.8673 48.8429 65.0116 48.8994 65.1901 48.8994ZM66.8106 49.1404C66.7808 49.1404 66.7659 49.1256 66.7659 49.0958V46.0608C66.7659 46.031 66.7808 46.0162 66.8106 46.0162H67.0382C67.068 46.0162 67.0828 46.031 67.0828 46.0608V47.5426C67.0828 47.5485 67.0858 47.553 67.0918 47.556C67.0977 47.556 67.1022 47.553 67.1052 47.5471L68.2388 46.0429C68.2507 46.0251 68.2701 46.0162 68.2969 46.0162H68.5468C68.5646 46.0162 68.5765 46.0221 68.5825 46.034C68.5885 46.0429 68.5855 46.0548 68.5736 46.0697L67.6809 47.2926C67.6779 47.3016 67.6779 47.3105 67.6809 47.3194L68.6539 49.0869C68.6599 49.0988 68.6628 49.1077 68.6628 49.1137C68.6628 49.1315 68.6494 49.1404 68.6227 49.1404H68.3638C68.337 49.1404 68.3192 49.13 68.3102 49.1092L67.4622 47.5694C67.4563 47.5545 67.4488 47.5545 67.4399 47.5694L67.0918 48.0112C67.0858 48.0172 67.0828 48.0246 67.0828 48.0336V49.0958C67.0828 49.1256 67.068 49.1404 67.0382 49.1404H66.8106ZM69.1817 49.1404C69.1519 49.1404 69.1371 49.1256 69.1371 49.0958V46.0608C69.1371 46.031 69.1519 46.0162 69.1817 46.0162H69.4093C69.4391 46.0162 69.454 46.031 69.454 46.0608V49.0958C69.454 49.1256 69.4391 49.1404 69.4093 49.1404H69.1817ZM71.9146 46.2482C71.9146 46.278 71.8997 46.2929 71.8699 46.2929H70.531C70.5191 46.2929 70.5131 46.2988 70.5131 46.3107V47.4176C70.5131 47.4295 70.5191 47.4355 70.531 47.4355H71.4325C71.4623 47.4355 71.4772 47.4504 71.4772 47.4801V47.6676C71.4772 47.6973 71.4623 47.7122 71.4325 47.7122H70.531C70.5191 47.7122 70.5131 47.7181 70.5131 47.73V48.8459C70.5131 48.8578 70.5191 48.8637 70.531 48.8637H71.8699C71.8997 48.8637 71.9146 48.8786 71.9146 48.9084V49.0958C71.9146 49.1256 71.8997 49.1404 71.8699 49.1404H70.2408C70.2111 49.1404 70.1962 49.1256 70.1962 49.0958V46.0608C70.1962 46.031 70.2111 46.0162 70.2408 46.0162H71.8699C71.8997 46.0162 71.9146 46.031 71.9146 46.0608V46.2482ZM73.2562 49.1761C72.9765 49.1761 72.7534 49.1032 72.5867 48.9574C72.4231 48.8087 72.3413 48.6108 72.3413 48.3638V48.2433C72.3413 48.2136 72.3561 48.1987 72.3859 48.1987H72.6046C72.6344 48.1987 72.6492 48.2136 72.6492 48.2433V48.346C72.6492 48.5126 72.7058 48.6465 72.8188 48.7477C72.9319 48.8488 73.0822 48.8994 73.2696 48.8994C73.4452 48.8994 73.5835 48.8518 73.6847 48.7566C73.7859 48.6614 73.8365 48.5364 73.8365 48.3817C73.8365 48.2805 73.8127 48.1927 73.765 48.1184C73.7174 48.044 73.6475 47.9755 73.5553 47.913C73.463 47.8506 73.3306 47.7717 73.158 47.6765C72.9736 47.5783 72.8278 47.492 72.7206 47.4176C72.6165 47.3432 72.5317 47.2525 72.4662 47.1454C72.4008 47.0382 72.368 46.9073 72.368 46.7526C72.368 46.5116 72.4454 46.3226 72.6001 46.1858C72.7549 46.0489 72.9617 45.9804 73.2205 45.9804C73.4973 45.9804 73.7174 46.0563 73.8811 46.2081C74.0447 46.3598 74.1266 46.5607 74.1266 46.8106V46.9133C74.1266 46.943 74.1117 46.9579 74.0819 46.9579H73.8588C73.829 46.9579 73.8141 46.943 73.8141 46.9133V46.8151C73.8141 46.6485 73.7606 46.5146 73.6535 46.4134C73.5463 46.3092 73.3991 46.2572 73.2116 46.2572C73.045 46.2572 72.9141 46.3003 72.8188 46.3866C72.7266 46.4729 72.6805 46.5949 72.6805 46.7526C72.6805 46.8538 72.7028 46.9386 72.7474 47.007C72.7921 47.0754 72.856 47.1379 72.9393 47.1945C73.0256 47.251 73.1566 47.3269 73.3321 47.4221C73.5344 47.5352 73.6892 47.6319 73.7963 47.7122C73.9064 47.7896 73.9927 47.8803 74.0552 47.9845C74.1206 48.0856 74.1534 48.2106 74.1534 48.3594C74.1534 48.6093 74.073 48.8087 73.9123 48.9574C73.7517 49.1032 73.533 49.1761 73.2562 49.1761ZM77.1848 47.9978C77.2145 47.9978 77.2294 48.0127 77.2294 48.0425V48.2389C77.2294 48.2686 77.2145 48.2835 77.1848 48.2835H77.0196C77.0077 48.2835 77.0018 48.2894 77.0018 48.3013V49.0958C77.0018 49.1256 76.9869 49.1404 76.9572 49.1404H76.7295C76.6998 49.1404 76.6849 49.1256 76.6849 49.0958V48.3013C76.6849 48.2894 76.6789 48.2835 76.667 48.2835H75.4575C75.4277 48.2835 75.4129 48.2686 75.4129 48.2389V48.0693C75.4129 48.0484 75.4158 48.0306 75.4218 48.0157L76.2163 46.0519C76.2252 46.0281 76.2415 46.0162 76.2653 46.0162H76.5108C76.5257 46.0162 76.5361 46.0221 76.5421 46.034C76.548 46.0429 76.548 46.0548 76.5421 46.0697L75.7833 47.9755C75.7803 47.9815 75.7803 47.9874 75.7833 47.9934C75.7863 47.9964 75.7908 47.9978 75.7967 47.9978H76.667C76.6789 47.9978 76.6849 47.9919 76.6849 47.98V47.2748C76.6849 47.245 76.6998 47.2302 76.7295 47.2302H76.9572C76.9869 47.2302 77.0018 47.245 77.0018 47.2748V47.98C77.0018 47.9919 77.0077 47.9978 77.0196 47.9978H77.1848ZM78.5345 49.1851C78.2786 49.1851 78.0733 49.1077 77.9185 48.953C77.7638 48.7983 77.6864 48.5915 77.6864 48.3326V46.824C77.6864 46.5681 77.7638 46.3628 77.9185 46.2081C78.0733 46.0533 78.2786 45.976 78.5345 45.976C78.7933 45.976 79.0001 46.0533 79.1549 46.2081C79.3126 46.3628 79.3914 46.5681 79.3914 46.824V48.3326C79.3914 48.5915 79.3126 48.7983 79.1549 48.953C79.0001 49.1077 78.7933 49.1851 78.5345 49.1851ZM78.5345 48.9084C78.6981 48.9084 78.829 48.8578 78.9272 48.7566C79.0254 48.6554 79.0745 48.5215 79.0745 48.3549V46.8062C79.0745 46.6395 79.0254 46.5056 78.9272 46.4045C78.829 46.3033 78.6981 46.2527 78.5345 46.2527C78.3768 46.2527 78.2488 46.3033 78.1506 46.4045C78.0524 46.5056 78.0033 46.6395 78.0033 46.8062V48.3549C78.0033 48.5186 78.0524 48.6525 78.1506 48.7566C78.2488 48.8578 78.3768 48.9084 78.5345 48.9084ZM80.6675 47.2436C80.5514 47.2436 80.4443 47.2153 80.3461 47.1588C80.2509 47.1022 80.175 47.0263 80.1185 46.9311C80.062 46.8329 80.0337 46.7258 80.0337 46.6098C80.0337 46.4937 80.062 46.3881 80.1185 46.2929C80.175 46.1947 80.2509 46.1173 80.3461 46.0608C80.4443 46.0043 80.5514 45.976 80.6675 45.976C80.7806 45.976 80.8847 46.0043 80.9799 46.0608C81.0781 46.1173 81.1555 46.1947 81.212 46.2929C81.2685 46.3881 81.2968 46.4937 81.2968 46.6098C81.2968 46.7258 81.2685 46.8329 81.212 46.9311C81.1555 47.0263 81.0781 47.1022 80.9799 47.1588C80.8847 47.2153 80.7806 47.2436 80.6675 47.2436ZM80.5648 49.1404C80.55 49.1404 80.5381 49.136 80.5291 49.1271C80.5232 49.1152 80.5247 49.1018 80.5336 49.0869L82.1939 46.0474C82.2029 46.0266 82.2207 46.0162 82.2475 46.0162H82.3903C82.4052 46.0162 82.4156 46.0221 82.4216 46.034C82.4305 46.0429 82.4305 46.0548 82.4216 46.0697L80.7612 49.1092C80.7523 49.13 80.7344 49.1404 80.7077 49.1404H80.5648ZM80.6675 47.0472C80.7865 47.0472 80.8862 47.0055 80.9665 46.9222C81.0498 46.8359 81.0915 46.7318 81.0915 46.6098C81.0915 46.4878 81.0498 46.3851 80.9665 46.3018C80.8862 46.2155 80.7865 46.1724 80.6675 46.1724C80.5485 46.1724 80.4473 46.2155 80.364 46.3018C80.2807 46.3851 80.239 46.4878 80.239 46.6098C80.239 46.7318 80.2807 46.8359 80.364 46.9222C80.4473 47.0055 80.5485 47.0472 80.6675 47.0472ZM82.3055 49.1806C82.1895 49.1806 82.0823 49.1523 81.9842 49.0958C81.8889 49.0393 81.8131 48.9619 81.7565 48.8637C81.7 48.7655 81.6717 48.6584 81.6717 48.5424C81.6717 48.4293 81.7 48.3252 81.7565 48.2299C81.8131 48.1317 81.8889 48.0544 81.9842 47.9978C82.0823 47.9413 82.1895 47.913 82.3055 47.913C82.4186 47.913 82.5227 47.9413 82.6179 47.9978C82.7161 48.0544 82.7935 48.1317 82.85 48.2299C82.9066 48.3252 82.9348 48.4293 82.9348 48.5424C82.9348 48.6584 82.9066 48.7655 82.85 48.8637C82.7935 48.9619 82.7161 49.0393 82.6179 49.0958C82.5227 49.1523 82.4186 49.1806 82.3055 49.1806ZM82.3055 48.9842C82.4245 48.9842 82.5242 48.9411 82.6045 48.8548C82.6879 48.7685 82.7295 48.6644 82.7295 48.5424C82.7295 48.4204 82.6879 48.3177 82.6045 48.2344C82.5242 48.1511 82.4245 48.1094 82.3055 48.1094C82.1865 48.1094 82.0853 48.1511 82.002 48.2344C81.9187 48.3177 81.877 48.4204 81.877 48.5424C81.877 48.6673 81.9172 48.773 81.9975 48.8593C82.0809 48.9426 82.1835 48.9842 82.3055 48.9842Z" fill="#404040"/>
<path d="M55.9753 16.4171L58.5204 13.1998H69.0643" stroke="black" stroke-width="0.145684"/>
<path d="M59.0956 11.1654C59.0658 11.1654 59.051 11.1505 59.051 11.1208V8.08575C59.051 8.056 59.0658 8.04112 59.0956 8.04112H59.3232C59.353 8.04112 59.3679 8.056 59.3679 8.08575V9.56756C59.3679 9.57351 59.3708 9.57797 59.3768 9.58095C59.3827 9.58095 59.3872 9.57797 59.3902 9.57202L60.5238 8.0679C60.5357 8.05005 60.5551 8.04112 60.5819 8.04112H60.8318C60.8497 8.04112 60.8616 8.04707 60.8675 8.05897C60.8735 8.0679 60.8705 8.0798 60.8586 8.09468L59.9659 9.31761C59.963 9.32654 59.963 9.33547 59.9659 9.34439L60.9389 11.1118C60.9449 11.1237 60.9479 11.1327 60.9479 11.1386C60.9479 11.1565 60.9345 11.1654 60.9077 11.1654H60.6488C60.622 11.1654 60.6042 11.155 60.5953 11.1342L59.7472 9.59434C59.7413 9.57946 59.7338 9.57946 59.7249 9.59434L59.3768 10.0362C59.3708 10.0421 59.3679 10.0496 59.3679 10.0585V11.1208C59.3679 11.1505 59.353 11.1654 59.3232 11.1654H59.0956ZM62.2087 11.2011C62.0271 11.2011 61.8665 11.1639 61.7266 11.0895C61.5897 11.0122 61.4826 10.905 61.4053 10.7682C61.3309 10.6313 61.2937 10.4736 61.2937 10.2951V8.91592C61.2937 8.73739 61.3309 8.57969 61.4053 8.44281C61.4826 8.30296 61.5897 8.19585 61.7266 8.12146C61.8665 8.04409 62.0271 8.00541 62.2087 8.00541C62.3902 8.00541 62.5493 8.04409 62.6862 8.12146C62.8261 8.19585 62.9347 8.30296 63.012 8.44281C63.0894 8.57969 63.1281 8.73739 63.1281 8.91592V10.2951C63.1281 10.4736 63.0894 10.6313 63.012 10.7682C62.9347 10.905 62.8261 11.0122 62.6862 11.0895C62.5493 11.1639 62.3902 11.2011 62.2087 11.2011ZM62.2087 10.9244C62.3902 10.9244 62.536 10.8679 62.6461 10.7548C62.7561 10.6417 62.8112 10.4929 62.8112 10.3085V8.90699C62.8112 8.71954 62.7561 8.56927 62.6461 8.4562C62.536 8.34016 62.3902 8.28214 62.2087 8.28214C62.0301 8.28214 61.8858 8.34016 61.7757 8.4562C61.6656 8.56927 61.6106 8.71954 61.6106 8.90699V10.3085C61.6106 10.4929 61.6656 10.6417 61.7757 10.7548C61.8858 10.8679 62.0301 10.9244 62.2087 10.9244ZM65.3377 8.08575C65.3377 8.056 65.3526 8.04112 65.3823 8.04112H65.6099C65.6397 8.04112 65.6546 8.056 65.6546 8.08575V11.1208C65.6546 11.1505 65.6397 11.1654 65.6099 11.1654H65.3689C65.3421 11.1654 65.3243 11.155 65.3154 11.1342L64.1192 8.74631C64.1133 8.74036 64.1073 8.73739 64.1014 8.73739C64.0984 8.73739 64.0969 8.74185 64.0969 8.75078L64.1014 11.1208C64.1014 11.1505 64.0865 11.1654 64.0567 11.1654H63.8291C63.7993 11.1654 63.7845 11.1505 63.7845 11.1208V8.08575C63.7845 8.056 63.7993 8.04112 63.8291 8.04112H64.0701C64.0969 8.04112 64.1147 8.05153 64.1237 8.07236L65.3198 10.4691C65.3258 10.4751 65.3302 10.4781 65.3332 10.4781C65.3392 10.4781 65.3421 10.4736 65.3421 10.4647L65.3377 8.08575ZM67.9083 11.1654C67.8816 11.1654 67.8652 11.152 67.8593 11.1252L67.712 10.5673C67.709 10.5584 67.7016 10.5539 67.6896 10.5539H66.6229C66.611 10.5539 66.6036 10.5584 66.6006 10.5673L66.4533 11.1252C66.4474 11.152 66.431 11.1654 66.4042 11.1654H66.1721C66.1573 11.1654 66.1454 11.1609 66.1364 11.152C66.1305 11.1431 66.129 11.1312 66.132 11.1163L66.9666 8.08129C66.9726 8.05451 66.9889 8.04112 67.0157 8.04112H67.3013C67.3281 8.04112 67.3445 8.05451 67.3504 8.08129L68.1851 11.1163L68.1895 11.1297C68.1895 11.1535 68.1747 11.1654 68.1449 11.1654H67.9083ZM66.6765 10.2772C66.6735 10.2802 66.6735 10.2847 66.6765 10.2906C66.6824 10.2936 66.6884 10.2951 66.6943 10.2951H67.6182C67.6242 10.2951 67.6287 10.2936 67.6316 10.2906C67.6376 10.2847 67.6391 10.2802 67.6361 10.2772L67.163 8.48298C67.16 8.47703 67.157 8.47406 67.1541 8.47406C67.1511 8.47406 67.1481 8.47703 67.1451 8.48298L66.6765 10.2772ZM70.3721 11.2011C70.1013 11.2011 69.8826 11.1208 69.716 10.9601C69.5524 10.7994 69.4705 10.5867 69.4705 10.3218V8.88021C69.4705 8.61539 69.5524 8.40413 69.716 8.24643C69.8826 8.08575 70.1013 8.00541 70.3721 8.00541C70.6459 8.00541 70.8646 8.08426 71.0282 8.24197C71.1948 8.39967 71.2782 8.60944 71.2782 8.87129V8.91146C71.2782 8.94121 71.2633 8.95609 71.2335 8.95609L71.0059 8.96501C70.9761 8.96501 70.9613 8.95163 70.9613 8.92485V8.86236C70.9613 8.68978 70.9062 8.54993 70.7961 8.44281C70.689 8.33569 70.5477 8.28214 70.3721 8.28214C70.1966 8.28214 70.0552 8.33569 69.9481 8.44281C69.841 8.54696 69.7874 8.6868 69.7874 8.86236V10.3442C69.7874 10.5197 69.841 10.6611 69.9481 10.7682C70.0552 10.8723 70.1966 10.9244 70.3721 10.9244C70.5477 10.9244 70.689 10.8708 70.7961 10.7637C70.9062 10.6566 70.9613 10.5167 70.9613 10.3442V10.2817C70.9613 10.2549 70.9761 10.2415 71.0059 10.2415L71.2335 10.2549C71.2633 10.2549 71.2782 10.2698 71.2782 10.2995V10.3308C71.2782 10.5926 71.1948 10.8039 71.0282 10.9646C70.8646 11.1223 70.6459 11.2011 70.3721 11.2011ZM72.7348 11.2011C72.5533 11.2011 72.3926 11.1639 72.2528 11.0895C72.1159 11.0122 72.0088 10.905 71.9314 10.7682C71.857 10.6313 71.8198 10.4736 71.8198 10.2951V8.91592C71.8198 8.73739 71.857 8.57969 71.9314 8.44281C72.0088 8.30296 72.1159 8.19585 72.2528 8.12146C72.3926 8.04409 72.5533 8.00541 72.7348 8.00541C72.9163 8.00541 73.0755 8.04409 73.2124 8.12146C73.3522 8.19585 73.4608 8.30296 73.5382 8.44281C73.6156 8.57969 73.6542 8.73739 73.6542 8.91592V10.2951C73.6542 10.4736 73.6156 10.6313 73.5382 10.7682C73.4608 10.905 73.3522 11.0122 73.2124 11.0895C73.0755 11.1639 72.9163 11.2011 72.7348 11.2011ZM72.7348 10.9244C72.9163 10.9244 73.0621 10.8679 73.1722 10.7548C73.2823 10.6417 73.3374 10.4929 73.3374 10.3085V8.90699C73.3374 8.71954 73.2823 8.56927 73.1722 8.4562C73.0621 8.34016 72.9163 8.28214 72.7348 8.28214C72.5563 8.28214 72.412 8.34016 72.3019 8.4562C72.1918 8.56927 72.1367 8.71954 72.1367 8.90699V10.3085C72.1367 10.4929 72.1918 10.6417 72.3019 10.7548C72.412 10.8679 72.5563 10.9244 72.7348 10.9244ZM76.0245 8.27321C76.0245 8.30296 76.0096 8.31784 75.9799 8.31784H74.6454C74.6335 8.31784 74.6275 8.32379 74.6275 8.33569V9.44258C74.6275 9.45449 74.6335 9.46044 74.6454 9.46044H75.5425C75.5722 9.46044 75.5871 9.47531 75.5871 9.50507V9.69253C75.5871 9.72228 75.5722 9.73716 75.5425 9.73716H74.6454C74.6335 9.73716 74.6275 9.74311 74.6275 9.75501V11.1208C74.6275 11.1505 74.6126 11.1654 74.5829 11.1654H74.3553C74.3255 11.1654 74.3106 11.1505 74.3106 11.1208V8.08575C74.3106 8.056 74.3255 8.04112 74.3553 8.04112H75.9799C76.0096 8.04112 76.0245 8.056 76.0245 8.08575V8.27321ZM78.1951 8.27321C78.1951 8.30296 78.1803 8.31784 78.1505 8.31784H76.816C76.8041 8.31784 76.7981 8.32379 76.7981 8.33569V9.44258C76.7981 9.45449 76.8041 9.46044 76.816 9.46044H77.7131C77.7429 9.46044 77.7577 9.47531 77.7577 9.50507V9.69253C77.7577 9.72228 77.7429 9.73716 77.7131 9.73716H76.816C76.8041 9.73716 76.7981 9.74311 76.7981 9.75501V11.1208C76.7981 11.1505 76.7833 11.1654 76.7535 11.1654H76.5259C76.4961 11.1654 76.4812 11.1505 76.4812 11.1208V8.08575C76.4812 8.056 76.4961 8.04112 76.5259 8.04112H78.1505C78.1803 8.04112 78.1951 8.056 78.1951 8.08575V8.27321ZM80.3702 8.27321C80.3702 8.30296 80.3553 8.31784 80.3256 8.31784H78.9866C78.9747 8.31784 78.9687 8.32379 78.9687 8.33569V9.44258C78.9687 9.45449 78.9747 9.46044 78.9866 9.46044H79.8882C79.9179 9.46044 79.9328 9.47531 79.9328 9.50507V9.69253C79.9328 9.72228 79.9179 9.73716 79.8882 9.73716H78.9866C78.9747 9.73716 78.9687 9.74311 78.9687 9.75501V10.8708C78.9687 10.8827 78.9747 10.8887 78.9866 10.8887H80.3256C80.3553 10.8887 80.3702 10.9036 80.3702 10.9333V11.1208C80.3702 11.1505 80.3553 11.1654 80.3256 11.1654H78.6965C78.6667 11.1654 78.6518 11.1505 78.6518 11.1208V8.08575C78.6518 8.056 78.6667 8.04112 78.6965 8.04112H80.3256C80.3553 8.04112 80.3702 8.056 80.3702 8.08575V8.27321ZM82.6759 8.27321C82.6759 8.30296 82.6611 8.31784 82.6313 8.31784H81.2923C81.2804 8.31784 81.2745 8.32379 81.2745 8.33569V9.44258C81.2745 9.45449 81.2804 9.46044 81.2923 9.46044H82.1939C82.2237 9.46044 82.2385 9.47531 82.2385 9.50507V9.69253C82.2385 9.72228 82.2237 9.73716 82.1939 9.73716H81.2923C81.2804 9.73716 81.2745 9.74311 81.2745 9.75501V10.8708C81.2745 10.8827 81.2804 10.8887 81.2923 10.8887H82.6313C82.6611 10.8887 82.6759 10.9036 82.6759 10.9333V11.1208C82.6759 11.1505 82.6611 11.1654 82.6313 11.1654H81.0022C80.9725 11.1654 80.9576 11.1505 80.9576 11.1208V8.08575C80.9576 8.056 80.9725 8.04112 81.0022 8.04112H82.6313C82.6611 8.04112 82.6759 8.056 82.6759 8.08575V8.27321ZM59.35 13.0545C59.3679 13.0456 59.3872 13.0411 59.408 13.0411H59.649C59.6788 13.0411 59.6937 13.056 59.6937 13.0858V16.1208C59.6937 16.1505 59.6788 16.1654 59.649 16.1654H59.4214C59.3917 16.1654 59.3768 16.1505 59.3768 16.1208V13.4071C59.3768 13.4012 59.3738 13.3967 59.3679 13.3937C59.3649 13.3907 59.3604 13.3907 59.3545 13.3937L58.9081 13.5589C58.9022 13.5618 58.8947 13.5633 58.8858 13.5633C58.8709 13.5633 58.8605 13.5514 58.8546 13.5276L58.8323 13.3625V13.3535C58.8323 13.3387 58.8427 13.3238 58.8635 13.3089L59.35 13.0545ZM61.152 16.21C60.8961 16.21 60.6908 16.1327 60.536 15.9779C60.3813 15.8232 60.304 15.6164 60.304 15.3576V13.849C60.304 13.5931 60.3813 13.3878 60.536 13.233C60.6908 13.0783 60.8961 13.0009 61.152 13.0009C61.4108 13.0009 61.6176 13.0783 61.7724 13.233C61.9301 13.3878 62.0089 13.5931 62.0089 13.849V15.3576C62.0089 15.6164 61.9301 15.8232 61.7724 15.9779C61.6176 16.1327 61.4108 16.21 61.152 16.21ZM61.152 15.9333C61.3156 15.9333 61.4466 15.8827 61.5447 15.7816C61.6429 15.6804 61.692 15.5465 61.692 15.3799V13.8311C61.692 13.6645 61.6429 13.5306 61.5447 13.4294C61.4466 13.3283 61.3156 13.2777 61.152 13.2777C60.9943 13.2777 60.8663 13.3283 60.7681 13.4294C60.6699 13.5306 60.6208 13.6645 60.6208 13.8311V15.3799C60.6208 15.5435 60.6699 15.6774 60.7681 15.7816C60.8663 15.8827 60.9943 15.9333 61.152 15.9333ZM63.285 14.2685C63.169 14.2685 63.0618 14.2402 62.9636 14.1837C62.8684 14.1272 62.7926 14.0513 62.736 13.9561C62.6795 13.8579 62.6512 13.7508 62.6512 13.6347C62.6512 13.5187 62.6795 13.4131 62.736 13.3178C62.7926 13.2196 62.8684 13.1423 62.9636 13.0858C63.0618 13.0292 63.169 13.0009 63.285 13.0009C63.3981 13.0009 63.5022 13.0292 63.5974 13.0858C63.6956 13.1423 63.773 13.2196 63.8295 13.3178C63.8861 13.4131 63.9143 13.5187 63.9143 13.6347C63.9143 13.7508 63.8861 13.8579 63.8295 13.9561C63.773 14.0513 63.6956 14.1272 63.5974 14.1837C63.5022 14.2402 63.3981 14.2685 63.285 14.2685ZM63.1823 16.1654C63.1675 16.1654 63.1556 16.1609 63.1466 16.152C63.1407 16.1401 63.1422 16.1267 63.1511 16.1118L64.8114 13.0724C64.8204 13.0515 64.8382 13.0411 64.865 13.0411H65.0078C65.0227 13.0411 65.0331 13.0471 65.0391 13.059C65.048 13.0679 65.048 13.0798 65.0391 13.0947L63.3787 16.1342C63.3698 16.155 63.3519 16.1654 63.3252 16.1654H63.1823ZM63.285 14.0721C63.404 14.0721 63.5037 14.0305 63.584 13.9472C63.6674 13.8609 63.709 13.7567 63.709 13.6347C63.709 13.5127 63.6674 13.4101 63.584 13.3268C63.5037 13.2405 63.404 13.1973 63.285 13.1973C63.166 13.1973 63.0648 13.2405 62.9815 13.3268C62.8982 13.4101 62.8565 13.5127 62.8565 13.6347C62.8565 13.7567 62.8982 13.8609 62.9815 13.9472C63.0648 14.0305 63.166 14.0721 63.285 14.0721ZM64.923 16.2056C64.807 16.2056 64.6999 16.1773 64.6017 16.1208C64.5064 16.0642 64.4306 15.9869 64.374 15.8887C64.3175 15.7905 64.2892 15.6834 64.2892 15.5673C64.2892 15.4543 64.3175 15.3501 64.374 15.2549C64.4306 15.1567 64.5064 15.0793 64.6017 15.0228C64.6999 14.9663 64.807 14.938 64.923 14.938C65.0361 14.938 65.1402 14.9663 65.2354 15.0228C65.3336 15.0793 65.411 15.1567 65.4675 15.2549C65.5241 15.3501 65.5523 15.4543 65.5523 15.5673C65.5523 15.6834 65.5241 15.7905 65.4675 15.8887C65.411 15.9869 65.3336 16.0642 65.2354 16.1208C65.1402 16.1773 65.0361 16.2056 64.923 16.2056ZM64.923 16.0092C65.042 16.0092 65.1417 15.966 65.2221 15.8798C65.3054 15.7935 65.347 15.6893 65.347 15.5673C65.347 15.4453 65.3054 15.3427 65.2221 15.2594C65.1417 15.176 65.042 15.1344 64.923 15.1344C64.804 15.1344 64.7028 15.176 64.6195 15.2594C64.5362 15.3427 64.4945 15.4453 64.4945 15.5673C64.4945 15.6923 64.5347 15.7979 64.6151 15.8842C64.6984 15.9675 64.801 16.0092 64.923 16.0092Z" fill="#404040"/>
</svg>
