<svg width="75" height="57" viewBox="0 0 75 57" fill="none" xmlns="http://www.w3.org/2000/svg">
<path d="M59.8922 21.1127C61.0586 24.2637 61.45 27.6414 61.0344 30.9696C60.6188 34.2979 59.4079 37.4821 57.5008 40.2621C55.5937 43.042 53.0445 45.3387 50.0616 46.9644C47.0788 48.59 43.747 49.4985 40.3386 49.6155L40.0746 42.1831C42.29 42.1071 44.4557 41.5166 46.3946 40.4599C48.3335 39.4032 49.9904 37.9103 51.23 36.1034C52.4697 34.2964 53.2567 32.2266 53.5269 30.0633C53.7971 27.9 53.5426 25.7045 52.7844 23.6563L59.8922 21.1127Z" fill="#FFFB94"/>
<path d="M18.8104 22.5233C20.0684 18.2099 22.6829 14.3988 26.2792 11.6361C29.8756 8.87354 34.2691 7.30127 38.8301 7.14467C43.3912 6.98806 47.8856 8.25518 51.6692 10.7644C55.4527 13.2736 58.3313 16.8961 59.8922 21.1127L52.7845 23.6563C51.7699 20.9155 49.8988 18.5609 47.4395 16.9299C44.9802 15.2989 42.0588 14.4753 39.0941 14.5771C36.1294 14.6789 33.2736 15.7008 30.936 17.4965C28.5984 19.2922 26.899 21.7694 26.0813 24.5732L18.8104 22.5233Z" fill="#A2013B"/>
<path d="M40.3386 49.6155C36.9302 49.7326 33.542 49.0548 30.4511 47.6377C27.3602 46.2206 24.6542 44.1043 22.5545 41.4619C20.4548 38.8195 19.021 35.7261 18.3703 32.4345C17.7195 29.1429 17.8703 25.7466 18.8104 22.5233L26.0813 24.5732C25.4702 26.6683 25.3722 28.8759 25.7952 31.0155C26.2182 33.155 27.1502 35.1657 28.515 36.8833C29.8798 38.6008 31.6386 39.9764 33.6477 40.8975C35.6568 41.8187 37.8591 42.2592 40.0746 42.1831L40.3386 49.6155Z" fill="#FFF847"/>
<path d="M24.3277 41.6502L21.7826 44.8675H11.2387" stroke="black" stroke-width="0.145684"/>
<path d="M3.72206 40.3164C3.9601 40.3164 4.15202 40.3967 4.29782 40.5574C4.4466 40.7151 4.52098 40.9249 4.52098 41.1867C4.52098 41.4456 4.4466 41.6539 4.29782 41.8116C4.15202 41.9663 3.9601 42.0437 3.72206 42.0437H3.05703C3.04513 42.0437 3.03918 42.0496 3.03918 42.0615V43.4005C3.03918 43.4303 3.0243 43.4451 2.99455 43.4451H2.76692C2.73717 43.4451 2.72229 43.4303 2.72229 43.4005V40.361C2.72229 40.3313 2.73717 40.3164 2.76692 40.3164H3.72206ZM3.68189 41.7803C3.83959 41.7803 3.96605 41.7268 4.06127 41.6197C4.15648 41.5125 4.20409 41.3697 4.20409 41.1912C4.20409 41.0097 4.15648 40.8654 4.06127 40.7582C3.96605 40.6481 3.83959 40.5931 3.68189 40.5931H3.05703C3.04513 40.5931 3.03918 40.5991 3.03918 40.611V41.7625C3.03918 41.7744 3.04513 41.7803 3.05703 41.7803H3.68189ZM5.0905 43.4451C5.06075 43.4451 5.04587 43.4303 5.04587 43.4005V40.3655C5.04587 40.3357 5.06075 40.3208 5.0905 40.3208H5.31813C5.34789 40.3208 5.36276 40.3357 5.36276 40.3655V43.4005C5.36276 43.4303 5.34789 43.4451 5.31813 43.4451H5.0905ZM7.65824 40.3655C7.65824 40.3357 7.67312 40.3208 7.70287 40.3208H7.9305C7.96026 40.3208 7.97513 40.3357 7.97513 40.3655V43.4005C7.97513 43.4303 7.96026 43.4451 7.9305 43.4451H7.68949C7.66271 43.4451 7.64485 43.4347 7.63593 43.4139L6.43977 41.026C6.43382 41.0201 6.42787 41.0171 6.42192 41.0171C6.41894 41.0171 6.41745 41.0216 6.41745 41.0305L6.42192 43.4005C6.42192 43.4303 6.40704 43.4451 6.37728 43.4451H6.14966C6.1199 43.4451 6.10503 43.4303 6.10503 43.4005V40.3655C6.10503 40.3357 6.1199 40.3208 6.14966 40.3208H6.39067C6.41745 40.3208 6.43531 40.3313 6.44423 40.3521L7.64039 42.7489C7.64634 42.7548 7.6508 42.7578 7.65378 42.7578C7.65973 42.7578 7.66271 42.7533 7.66271 42.7444L7.65824 40.3655ZM10.4037 40.5529C10.4037 40.5827 10.3888 40.5976 10.3591 40.5976H9.0201C9.00819 40.5976 9.00224 40.6035 9.00224 40.6154V41.7223C9.00224 41.7342 9.00819 41.7402 9.0201 41.7402H9.92168C9.95143 41.7402 9.96631 41.755 9.96631 41.7848V41.9723C9.96631 42.002 9.95143 42.0169 9.92168 42.0169H9.0201C9.00819 42.0169 9.00224 42.0228 9.00224 42.0347V43.1506C9.00224 43.1625 9.00819 43.1684 9.0201 43.1684H10.3591C10.3888 43.1684 10.4037 43.1833 10.4037 43.213V43.4005C10.4037 43.4303 10.3888 43.4451 10.3591 43.4451H8.72998C8.70023 43.4451 8.68535 43.4303 8.68535 43.4005V40.3655C8.68535 40.3357 8.70023 40.3208 8.72998 40.3208H10.3591C10.3888 40.3208 10.4037 40.3357 10.4037 40.3655V40.5529ZM12.5564 43.4451C12.5297 43.4451 12.5133 43.4317 12.5073 43.405L12.36 42.8471C12.3571 42.8381 12.3496 42.8337 12.3377 42.8337H11.271C11.2591 42.8337 11.2517 42.8381 11.2487 42.8471L11.1014 43.405C11.0955 43.4317 11.0791 43.4451 11.0523 43.4451H10.8202C10.8053 43.4451 10.7934 43.4407 10.7845 43.4317C10.7786 43.4228 10.7771 43.4109 10.7801 43.396L11.6147 40.361C11.6206 40.3342 11.637 40.3208 11.6638 40.3208H11.9494C11.9762 40.3208 11.9926 40.3342 11.9985 40.361L12.8332 43.396L12.8376 43.4094C12.8376 43.4332 12.8227 43.4451 12.793 43.4451H12.5564ZM11.3246 42.5569C11.3216 42.5599 11.3216 42.5644 11.3246 42.5703C11.3305 42.5733 11.3365 42.5748 11.3424 42.5748H12.2663C12.2723 42.5748 12.2767 42.5733 12.2797 42.5703C12.2857 42.5644 12.2871 42.5599 12.2842 42.5569L11.8111 40.7627C11.8081 40.7568 11.8051 40.7538 11.8021 40.7538C11.7992 40.7538 11.7962 40.7568 11.7932 40.7627L11.3246 42.5569ZM14.2918 40.3164C14.5298 40.3164 14.7218 40.3967 14.8676 40.5574C15.0163 40.7151 15.0907 40.9249 15.0907 41.1867C15.0907 41.4456 15.0163 41.6539 14.8676 41.8116C14.7218 41.9663 14.5298 42.0437 14.2918 42.0437H13.6268C13.6149 42.0437 13.6089 42.0496 13.6089 42.0615V43.4005C13.6089 43.4303 13.594 43.4451 13.5643 43.4451H13.3367C13.3069 43.4451 13.292 43.4303 13.292 43.4005V40.361C13.292 40.3313 13.3069 40.3164 13.3367 40.3164H14.2918ZM14.2516 41.7803C14.4093 41.7803 14.5358 41.7268 14.631 41.6197C14.7262 41.5125 14.7738 41.3697 14.7738 41.1912C14.7738 41.0097 14.7262 40.8654 14.631 40.7582C14.5358 40.6481 14.4093 40.5931 14.2516 40.5931H13.6268C13.6149 40.5931 13.6089 40.5991 13.6089 40.611V41.7625C13.6089 41.7744 13.6149 41.7803 13.6268 41.7803H14.2516ZM16.5975 40.3164C16.8356 40.3164 17.0275 40.3967 17.1733 40.5574C17.3221 40.7151 17.3965 40.9249 17.3965 41.1867C17.3965 41.4456 17.3221 41.6539 17.1733 41.8116C17.0275 41.9663 16.8356 42.0437 16.5975 42.0437H15.9325C15.9206 42.0437 15.9147 42.0496 15.9147 42.0615V43.4005C15.9147 43.4303 15.8998 43.4451 15.87 43.4451H15.6424C15.6126 43.4451 15.5978 43.4303 15.5978 43.4005V40.361C15.5978 40.3313 15.6126 40.3164 15.6424 40.3164H16.5975ZM16.5574 41.7803C16.7151 41.7803 16.8415 41.7268 16.9367 41.6197C17.032 41.5125 17.0796 41.3697 17.0796 41.1912C17.0796 41.0097 17.032 40.8654 16.9367 40.7582C16.8415 40.6481 16.7151 40.5931 16.5574 40.5931H15.9325C15.9206 40.5931 15.9147 40.5991 15.9147 40.611V41.7625C15.9147 41.7744 15.9206 41.7803 15.9325 41.7803H16.5574ZM17.966 43.4451C17.9362 43.4451 17.9213 43.4303 17.9213 43.4005V40.3655C17.9213 40.3357 17.9362 40.3208 17.966 40.3208H18.1936C18.2234 40.3208 18.2382 40.3357 18.2382 40.3655V43.1506C18.2382 43.1625 18.2442 43.1684 18.2561 43.1684H19.5549C19.5847 43.1684 19.5995 43.1833 19.5995 43.213V43.4005C19.5995 43.4303 19.5847 43.4451 19.5549 43.4451H17.966ZM21.7929 40.5529C21.7929 40.5827 21.778 40.5976 21.7483 40.5976H20.4093C20.3974 40.5976 20.3914 40.6035 20.3914 40.6154V41.7223C20.3914 41.7342 20.3974 41.7402 20.4093 41.7402H21.3109C21.3406 41.7402 21.3555 41.755 21.3555 41.7848V41.9723C21.3555 42.002 21.3406 42.0169 21.3109 42.0169H20.4093C20.3974 42.0169 20.3914 42.0228 20.3914 42.0347V43.1506C20.3914 43.1625 20.3974 43.1684 20.4093 43.1684H21.7483C21.778 43.1684 21.7929 43.1833 21.7929 43.213V43.4005C21.7929 43.4303 21.778 43.4451 21.7483 43.4451H20.1192C20.0894 43.4451 20.0745 43.4303 20.0745 43.4005V40.3655C20.0745 40.3357 20.0894 40.3208 20.1192 40.3208H21.7483C21.778 40.3208 21.7929 40.3357 21.7929 40.3655V40.5529ZM4.08358 46.9633C4.14012 47.1181 4.16839 47.2951 4.16839 47.4945C4.16839 47.673 4.14607 47.8277 4.10144 47.9586C3.99134 48.3068 3.74735 48.4808 3.36946 48.4808C3.16713 48.4808 2.99752 48.4273 2.86065 48.3202C2.72378 48.2101 2.636 48.0598 2.59732 47.8694C2.57649 47.7742 2.56607 47.6655 2.56607 47.5435C2.56607 47.5138 2.58095 47.4989 2.61071 47.4989H2.83833C2.86809 47.4989 2.88297 47.5138 2.88297 47.5435C2.88892 47.6715 2.89636 47.7578 2.90528 47.8024C2.93206 47.9274 2.98562 48.0256 3.06596 48.097C3.1463 48.1684 3.24747 48.2041 3.36946 48.2041C3.59858 48.2041 3.74735 48.0881 3.81579 47.856C3.84257 47.7489 3.85596 47.6209 3.85596 47.4721C3.85596 47.2936 3.83662 47.1463 3.79794 47.0303C3.72057 46.822 3.57775 46.7178 3.36946 46.7178C3.32185 46.7178 3.2802 46.7268 3.24449 46.7446C3.22664 46.7506 3.21622 46.7536 3.21325 46.7536C3.20135 46.7536 3.19093 46.7476 3.182 46.7357L3.06596 46.6152C3.05108 46.5944 3.04959 46.5735 3.0615 46.5527L3.75777 45.6199C3.76372 45.6139 3.7652 45.6095 3.76223 45.6065C3.75925 45.6005 3.75479 45.5976 3.74884 45.5976H2.63302C2.60327 45.5976 2.58839 45.5827 2.58839 45.5529V45.3655C2.58839 45.3357 2.60327 45.3208 2.63302 45.3208H4.11036C4.14012 45.3208 4.155 45.3357 4.155 45.3655V45.5663C4.155 45.5901 4.14905 45.6095 4.13714 45.6243L3.48997 46.5081C3.48699 46.511 3.48699 46.5155 3.48997 46.5215C3.49295 46.5274 3.49741 46.5304 3.50336 46.5304C3.64321 46.5363 3.76223 46.5765 3.86042 46.6509C3.95861 46.7253 4.033 46.8294 4.08358 46.9633ZM5.55162 48.4898C5.29572 48.4898 5.09041 48.4124 4.93568 48.2577C4.78096 48.1029 4.70359 47.8961 4.70359 47.6373V46.1287C4.70359 45.8728 4.78096 45.6675 4.93568 45.5128C5.09041 45.358 5.29572 45.2807 5.55162 45.2807C5.81048 45.2807 6.01728 45.358 6.17201 45.5128C6.32971 45.6675 6.40856 45.8728 6.40856 46.1287V47.6373C6.40856 47.8961 6.32971 48.1029 6.17201 48.2577C6.01728 48.4124 5.81048 48.4898 5.55162 48.4898ZM5.55162 48.213C5.71527 48.213 5.84619 48.1625 5.94438 48.0613C6.04257 47.9601 6.09167 47.8262 6.09167 47.6596V46.1108C6.09167 45.9442 6.04257 45.8103 5.94438 45.7091C5.84619 45.608 5.71527 45.5574 5.55162 45.5574C5.39391 45.5574 5.26597 45.608 5.16777 45.7091C5.06958 45.8103 5.02049 45.9442 5.02049 46.1108V47.6596C5.02049 47.8232 5.06958 47.9571 5.16777 48.0613C5.26597 48.1625 5.39391 48.213 5.55162 48.213ZM7.68464 46.5482C7.56859 46.5482 7.46147 46.52 7.36328 46.4634C7.26807 46.4069 7.19219 46.331 7.13566 46.2358C7.07912 46.1376 7.05085 46.0305 7.05085 45.9145C7.05085 45.7984 7.07912 45.6928 7.13566 45.5976C7.19219 45.4994 7.26807 45.422 7.36328 45.3655C7.46147 45.3089 7.56859 45.2807 7.68464 45.2807C7.79771 45.2807 7.90185 45.3089 7.99707 45.3655C8.09526 45.422 8.17262 45.4994 8.22916 45.5976C8.28569 45.6928 8.31396 45.7984 8.31396 45.9145C8.31396 46.0305 8.28569 46.1376 8.22916 46.2358C8.17262 46.331 8.09526 46.4069 7.99707 46.4634C7.90185 46.52 7.79771 46.5482 7.68464 46.5482ZM7.58198 48.4451C7.56711 48.4451 7.5552 48.4407 7.54628 48.4317C7.54033 48.4198 7.54181 48.4064 7.55074 48.3916L9.21108 45.3521C9.22 45.3313 9.23786 45.3208 9.26463 45.3208H9.40746C9.42234 45.3208 9.43275 45.3268 9.4387 45.3387C9.44763 45.3476 9.44763 45.3595 9.4387 45.3744L7.77837 48.4139C7.76944 48.4347 7.75159 48.4451 7.72481 48.4451H7.58198ZM7.68464 46.3519C7.80366 46.3519 7.90334 46.3102 7.98368 46.2269C8.06699 46.1406 8.10865 46.0365 8.10865 45.9145C8.10865 45.7925 8.06699 45.6898 7.98368 45.6065C7.90334 45.5202 7.80366 45.4771 7.68464 45.4771C7.56562 45.4771 7.46445 45.5202 7.38114 45.6065C7.29782 45.6898 7.25616 45.7925 7.25616 45.9145C7.25616 46.0365 7.29782 46.1406 7.38114 46.2269C7.46445 46.3102 7.56562 46.3519 7.68464 46.3519ZM9.32266 48.4853C9.20661 48.4853 9.09949 48.457 9.0013 48.4005C8.90609 48.344 8.83021 48.2666 8.77368 48.1684C8.71714 48.0702 8.68887 47.9631 8.68887 47.8471C8.68887 47.734 8.71714 47.6298 8.77368 47.5346C8.83021 47.4364 8.90609 47.3591 9.0013 47.3025C9.09949 47.246 9.20661 47.2177 9.32266 47.2177C9.43573 47.2177 9.53987 47.246 9.63509 47.3025C9.73328 47.3591 9.81064 47.4364 9.86718 47.5346C9.92371 47.6298 9.95198 47.734 9.95198 47.8471C9.95198 47.9631 9.92371 48.0702 9.86718 48.1684C9.81064 48.2666 9.73328 48.344 9.63509 48.4005C9.53987 48.457 9.43573 48.4853 9.32266 48.4853ZM9.32266 48.2889C9.44168 48.2889 9.54136 48.2458 9.6217 48.1595C9.70501 48.0732 9.74667 47.969 9.74667 47.8471C9.74667 47.7251 9.70501 47.6224 9.6217 47.5391C9.54136 47.4558 9.44168 47.4141 9.32266 47.4141C9.20364 47.4141 9.10247 47.4558 9.01916 47.5391C8.93584 47.6224 8.89418 47.7251 8.89418 47.8471C8.89418 47.972 8.93435 48.0777 9.01469 48.1639C9.09801 48.2473 9.20066 48.2889 9.32266 48.2889Z" fill="#404040"/>
<path d="M26.9145 13.3736L24.3725 10.1103H13.8414" stroke="black" stroke-width="0.145684"/>
<path d="M48.9984 46.3624L51.5404 49.6257H62.0715" stroke="black" stroke-width="0.145684"/>
<path d="M1.9766 8.5426C1.70583 8.5426 1.48713 8.46226 1.3205 8.30159C1.15684 8.14091 1.07502 7.92816 1.07502 7.66334V6.2217C1.07502 5.95688 1.15684 5.74562 1.3205 5.58792C1.48713 5.42724 1.70583 5.3469 1.9766 5.3469C2.25034 5.3469 2.46904 5.42576 2.6327 5.58346C2.79933 5.74116 2.88264 5.95093 2.88264 6.21278V6.25295C2.88264 6.2827 2.86776 6.29758 2.83801 6.29758L2.61038 6.30651C2.58063 6.30651 2.56575 6.29312 2.56575 6.26634V6.20385C2.56575 6.03127 2.5107 5.89142 2.40061 5.7843C2.29349 5.67719 2.15215 5.62363 1.9766 5.62363C1.80104 5.62363 1.6597 5.67719 1.55259 5.7843C1.44547 5.88845 1.39191 6.0283 1.39191 6.20385V7.68566C1.39191 7.86121 1.44547 8.00255 1.55259 8.10967C1.6597 8.21381 1.80104 8.26588 1.9766 8.26588C2.15215 8.26588 2.29349 8.21232 2.40061 8.1052C2.5107 7.99808 2.56575 7.85824 2.56575 7.68566V7.62317C2.56575 7.59639 2.58063 7.583 2.61038 7.583L2.83801 7.59639C2.86776 7.59639 2.88264 7.61127 2.88264 7.64102V7.67227C2.88264 7.93411 2.79933 8.14537 2.6327 8.30605C2.46904 8.46375 2.25034 8.5426 1.9766 8.5426ZM5.04004 8.5069C5.01623 8.5069 4.99987 8.49499 4.99094 8.47119L4.4375 7.09204C4.43452 7.08311 4.42857 7.07865 4.41964 7.07865H3.84388C3.83198 7.07865 3.82603 7.0846 3.82603 7.0965V8.46226C3.82603 8.49202 3.81115 8.5069 3.7814 8.5069H3.55377C3.52401 8.5069 3.50914 8.49202 3.50914 8.46226V5.42724C3.50914 5.39749 3.52401 5.38261 3.55377 5.38261H4.49998C4.65471 5.38261 4.79158 5.41832 4.9106 5.48973C5.0326 5.56114 5.12633 5.66231 5.19179 5.79323C5.26022 5.92415 5.29444 6.07442 5.29444 6.24402C5.29444 6.44636 5.24535 6.61894 5.14715 6.76176C5.04896 6.90458 4.91506 6.9998 4.74546 7.04741C4.73356 7.05336 4.73058 7.0608 4.73653 7.06973L5.3123 8.45334L5.31676 8.47119C5.31676 8.49499 5.30337 8.5069 5.27659 8.5069H5.04004ZM3.84388 5.65933C3.83198 5.65933 3.82603 5.66528 3.82603 5.67719V6.80639C3.82603 6.81829 3.83198 6.82425 3.84388 6.82425H4.45981C4.61454 6.82425 4.73951 6.77069 4.83473 6.66357C4.92994 6.55645 4.97755 6.4166 4.97755 6.24402C4.97755 6.06847 4.92994 5.92713 4.83473 5.82001C4.73951 5.71289 4.61454 5.65933 4.45981 5.65933H3.84388ZM7.49354 8.5069C7.46676 8.5069 7.4504 8.49351 7.44445 8.46673L7.29716 7.90882C7.29418 7.89989 7.28674 7.89543 7.27484 7.89543H6.20812C6.19622 7.89543 6.18878 7.89989 6.18581 7.90882L6.03852 8.46673C6.03257 8.49351 6.0162 8.5069 5.98942 8.5069H5.75733C5.74245 8.5069 5.73055 8.50243 5.72163 8.49351C5.71568 8.48458 5.71419 8.47268 5.71716 8.4578L6.55179 5.42278C6.55774 5.396 6.57411 5.38261 6.60089 5.38261H6.88654C6.91332 5.38261 6.92968 5.396 6.93563 5.42278L7.77027 8.4578L7.77473 8.47119C7.77473 8.49499 7.75985 8.5069 7.7301 8.5069H7.49354ZM6.26168 7.61871C6.25871 7.62168 6.25871 7.62615 6.26168 7.6321C6.26763 7.63507 6.27358 7.63656 6.27953 7.63656H7.20343C7.20938 7.63656 7.21384 7.63507 7.21682 7.6321C7.22277 7.62615 7.22426 7.62168 7.22128 7.61871L6.74818 5.82447C6.7452 5.81852 6.74223 5.81555 6.73925 5.81555C6.73628 5.81555 6.7333 5.81852 6.73032 5.82447L6.26168 7.61871ZM9.80021 5.42724C9.80021 5.39749 9.81509 5.38261 9.84485 5.38261H10.0725C10.1022 5.38261 10.1171 5.39749 10.1171 5.42724V8.46226C10.1171 8.49202 10.1022 8.5069 10.0725 8.5069H9.83146C9.80468 8.5069 9.78682 8.49648 9.7779 8.47565L8.58174 6.08781C8.57579 6.08186 8.56984 6.07888 8.56389 6.07888C8.56091 6.07888 8.55943 6.08334 8.55943 6.09227L8.56389 8.46226C8.56389 8.49202 8.54901 8.5069 8.51926 8.5069H8.29163C8.26188 8.5069 8.247 8.49202 8.247 8.46226V5.42724C8.247 5.39749 8.26188 5.38261 8.29163 5.38261H8.53265C8.55943 5.38261 8.57728 5.39302 8.58621 5.41385L9.78236 7.81063C9.78831 7.81658 9.79278 7.81955 9.79575 7.81955C9.8017 7.81955 9.80468 7.81509 9.80468 7.80616L9.80021 5.42724ZM12.1797 6.8778C12.1648 6.88376 12.1648 6.89119 12.1797 6.90012C12.3195 6.96856 12.4267 7.06675 12.501 7.1947C12.5784 7.32264 12.6186 7.47737 12.6216 7.65888C12.6216 7.92667 12.5412 8.13496 12.3805 8.28373C12.2228 8.43251 12.0131 8.5069 11.7512 8.5069H10.872C10.8422 8.5069 10.8273 8.49202 10.8273 8.46226V5.42724C10.8273 5.39749 10.8422 5.38261 10.872 5.38261H11.7155C11.9893 5.38261 12.2035 5.45402 12.3582 5.59685C12.513 5.7367 12.5903 5.93754 12.5903 6.19939C12.5903 6.36602 12.5546 6.50587 12.4832 6.61894C12.4148 6.732 12.3136 6.81829 12.1797 6.8778ZM11.1621 5.65933C11.1502 5.65933 11.1442 5.66528 11.1442 5.67719V6.75283C11.1442 6.76474 11.1502 6.77069 11.1621 6.77069H11.72C11.8926 6.77069 12.0279 6.72159 12.1261 6.6234C12.2273 6.52521 12.2779 6.3928 12.2779 6.22617C12.2779 6.05061 12.2273 5.91225 12.1261 5.81108C12.0279 5.70992 11.8926 5.65933 11.72 5.65933H11.1621ZM11.7423 8.22571C11.9149 8.22571 12.0517 8.17215 12.1529 8.06503C12.2541 7.95792 12.3047 7.81212 12.3047 7.62763C12.3047 7.44018 12.2526 7.29289 12.1485 7.18577C12.0473 7.07865 11.9089 7.02509 11.7334 7.02509H11.1621C11.1502 7.02509 11.1442 7.03104 11.1442 7.04295V8.20786C11.1442 8.21976 11.1502 8.22571 11.1621 8.22571H11.7423ZM14.9299 5.6147C14.9299 5.64446 14.915 5.65933 14.8852 5.65933H13.5463C13.5344 5.65933 13.5284 5.66528 13.5284 5.67719V6.78408C13.5284 6.79598 13.5344 6.80193 13.5463 6.80193H14.4478C14.4776 6.80193 14.4925 6.81681 14.4925 6.84656V7.03402C14.4925 7.06377 14.4776 7.07865 14.4478 7.07865H13.5463C13.5344 7.07865 13.5284 7.0846 13.5284 7.0965V8.21232C13.5284 8.22422 13.5344 8.23017 13.5463 8.23017H14.8852C14.915 8.23017 14.9299 8.24505 14.9299 8.27481V8.46226C14.9299 8.49202 14.915 8.5069 14.8852 8.5069H13.2561C13.2264 8.5069 13.2115 8.49202 13.2115 8.46226V5.42724C13.2115 5.39749 13.2264 5.38261 13.2561 5.38261H14.8852C14.915 5.38261 14.9299 5.39749 14.9299 5.42724V5.6147ZM17.0481 8.5069C17.0243 8.5069 17.008 8.49499 16.999 8.47119L16.4456 7.09204C16.4426 7.08311 16.4367 7.07865 16.4277 7.07865H15.852C15.8401 7.07865 15.8341 7.0846 15.8341 7.0965V8.46226C15.8341 8.49202 15.8193 8.5069 15.7895 8.5069H15.5619C15.5321 8.5069 15.5172 8.49202 15.5172 8.46226V5.42724C15.5172 5.39749 15.5321 5.38261 15.5619 5.38261H16.5081C16.6628 5.38261 16.7997 5.41832 16.9187 5.48973C17.0407 5.56114 17.1344 5.66231 17.1999 5.79323C17.2683 5.92415 17.3025 6.07442 17.3025 6.24402C17.3025 6.44636 17.2535 6.61894 17.1553 6.76176C17.0571 6.90458 16.9232 6.9998 16.7536 7.04741C16.7417 7.05336 16.7387 7.0608 16.7446 7.06973L17.3204 8.45334L17.3249 8.47119C17.3249 8.49499 17.3115 8.5069 17.2847 8.5069H17.0481ZM15.852 5.65933C15.8401 5.65933 15.8341 5.66528 15.8341 5.67719V6.80639C15.8341 6.81829 15.8401 6.82425 15.852 6.82425H16.4679C16.6226 6.82425 16.7476 6.77069 16.8428 6.66357C16.938 6.55645 16.9857 6.4166 16.9857 6.24402C16.9857 6.06847 16.938 5.92713 16.8428 5.82001C16.7476 5.71289 16.6226 5.65933 16.4679 5.65933H15.852ZM19.4062 8.5069C19.3824 8.5069 19.366 8.49499 19.3571 8.47119L18.8036 7.09204C18.8007 7.08311 18.7947 7.07865 18.7858 7.07865H18.21C18.1981 7.07865 18.1922 7.0846 18.1922 7.0965V8.46226C18.1922 8.49202 18.1773 8.5069 18.1475 8.5069H17.9199C17.8902 8.5069 17.8753 8.49202 17.8753 8.46226V5.42724C17.8753 5.39749 17.8902 5.38261 17.9199 5.38261H18.8661C19.0208 5.38261 19.1577 5.41832 19.2767 5.48973C19.3987 5.56114 19.4925 5.66231 19.5579 5.79323C19.6264 5.92415 19.6606 6.07442 19.6606 6.24402C19.6606 6.44636 19.6115 6.61894 19.5133 6.76176C19.4151 6.90458 19.2812 6.9998 19.1116 7.04741C19.0997 7.05336 19.0967 7.0608 19.1027 7.06973L19.6784 8.45334L19.6829 8.47119C19.6829 8.49499 19.6695 8.5069 19.6427 8.5069H19.4062ZM18.21 5.65933C18.1981 5.65933 18.1922 5.66528 18.1922 5.67719V6.80639C18.1922 6.81829 18.1981 6.82425 18.21 6.82425H18.826C18.9807 6.82425 19.1056 6.77069 19.2009 6.66357C19.2961 6.55645 19.3437 6.4166 19.3437 6.24402C19.3437 6.06847 19.2961 5.92713 19.2009 5.82001C19.1056 5.71289 18.9807 5.65933 18.826 5.65933H18.21ZM20.8014 8.50243C20.7716 8.50243 20.7568 8.48756 20.7568 8.4578V7.12775C20.7568 7.11585 20.7553 7.10841 20.7523 7.10543L19.9802 5.43617L19.9757 5.41832C19.9757 5.39451 19.9891 5.38261 20.0159 5.38261H20.2569C20.2807 5.38261 20.2971 5.39451 20.306 5.41832L20.9041 6.75283C20.907 6.75878 20.9115 6.76176 20.9174 6.76176C20.9234 6.76176 20.9279 6.75878 20.9308 6.75283L21.5289 5.41832C21.5378 5.39451 21.5542 5.38261 21.578 5.38261H21.819C21.8339 5.38261 21.8443 5.38856 21.8503 5.40046C21.8592 5.40939 21.8607 5.42129 21.8547 5.43617L21.0781 7.10543C21.0751 7.10841 21.0737 7.11585 21.0737 7.12775V8.4578C21.0737 8.48756 21.0588 8.50243 21.029 8.50243H20.8014ZM2.7175 12.3643C2.74725 12.3643 2.76213 12.3792 2.76213 12.4089V12.6053C2.76213 12.6351 2.74725 12.6499 2.7175 12.6499H2.55236C2.54046 12.6499 2.5345 12.6559 2.5345 12.6678V13.4623C2.5345 13.492 2.51963 13.5069 2.48987 13.5069H2.26225C2.23249 13.5069 2.21761 13.492 2.21761 13.4623V12.6678C2.21761 12.6559 2.21166 12.6499 2.19976 12.6499H0.990215C0.96046 12.6499 0.945582 12.6351 0.945582 12.6053V12.4357C0.945582 12.4149 0.948558 12.397 0.954509 12.3822L1.74897 10.4183C1.7579 10.3945 1.77426 10.3826 1.79807 10.3826H2.04355C2.05842 10.3826 2.06884 10.3886 2.07479 10.4005C2.08074 10.4094 2.08074 10.4213 2.07479 10.4362L1.31603 12.342C1.31306 12.3479 1.31306 12.3539 1.31603 12.3598C1.31901 12.3628 1.32347 12.3643 1.32942 12.3643H2.19976C2.21166 12.3643 2.21761 12.3583 2.21761 12.3464V11.6413C2.21761 11.6115 2.23249 11.5966 2.26225 11.5966H2.48987C2.51963 11.5966 2.5345 11.6115 2.5345 11.6413V12.3464C2.5345 12.3583 2.54046 12.3643 2.55236 12.3643H2.7175ZM4.06718 13.5515C3.81129 13.5515 3.60598 13.4742 3.45125 13.3194C3.29653 13.1647 3.21916 12.9579 3.21916 12.699V11.1905C3.21916 10.9346 3.29653 10.7293 3.45125 10.5745C3.60598 10.4198 3.81129 10.3424 4.06718 10.3424C4.32605 10.3424 4.53285 10.4198 4.68758 10.5745C4.84528 10.7293 4.92413 10.9346 4.92413 11.1905V12.699C4.92413 12.9579 4.84528 13.1647 4.68758 13.3194C4.53285 13.4742 4.32605 13.5515 4.06718 13.5515ZM4.06718 13.2748C4.23084 13.2748 4.36176 13.2242 4.45995 13.1231C4.55814 13.0219 4.60724 12.888 4.60724 12.7214V11.1726C4.60724 11.006 4.55814 10.8721 4.45995 10.7709C4.36176 10.6697 4.23084 10.6192 4.06718 10.6192C3.90948 10.6192 3.78153 10.6697 3.68334 10.7709C3.58515 10.8721 3.53605 11.006 3.53605 11.1726V12.7214C3.53605 12.885 3.58515 13.0189 3.68334 13.1231C3.78153 13.2242 3.90948 13.2748 4.06718 13.2748ZM6.20021 11.61C6.08416 11.61 5.97704 11.5817 5.87885 11.5252C5.78363 11.4687 5.70776 11.3928 5.65122 11.2976C5.59469 11.1994 5.56642 11.0923 5.56642 10.9762C5.56642 10.8602 5.59469 10.7545 5.65122 10.6593C5.70776 10.5611 5.78363 10.4838 5.87885 10.4272C5.97704 10.3707 6.08416 10.3424 6.20021 10.3424C6.31328 10.3424 6.41742 10.3707 6.51264 10.4272C6.61083 10.4838 6.68819 10.5611 6.74472 10.6593C6.80126 10.7545 6.82953 10.8602 6.82953 10.9762C6.82953 11.0923 6.80126 11.1994 6.74472 11.2976C6.68819 11.3928 6.61083 11.4687 6.51264 11.5252C6.41742 11.5817 6.31328 11.61 6.20021 11.61ZM6.09755 13.5069C6.08267 13.5069 6.07077 13.5024 6.06185 13.4935C6.05589 13.4816 6.05738 13.4682 6.06631 13.4533L7.72664 10.4139C7.73557 10.393 7.75342 10.3826 7.7802 10.3826H7.92303C7.9379 10.3826 7.94832 10.3886 7.95427 10.4005C7.9632 10.4094 7.9632 10.4213 7.95427 10.4362L6.29394 13.4757C6.28501 13.4965 6.26716 13.5069 6.24038 13.5069H6.09755ZM6.20021 11.4136C6.31923 11.4136 6.41891 11.372 6.49925 11.2887C6.58256 11.2024 6.62422 11.0982 6.62422 10.9762C6.62422 10.8542 6.58256 10.7516 6.49925 10.6683C6.41891 10.582 6.31923 10.5388 6.20021 10.5388C6.08119 10.5388 5.98002 10.582 5.8967 10.6683C5.81339 10.7516 5.77173 10.8542 5.77173 10.9762C5.77173 11.0982 5.81339 11.2024 5.8967 11.2887C5.98002 11.372 6.08119 11.4136 6.20021 11.4136ZM7.83823 13.5471C7.72218 13.5471 7.61506 13.5188 7.51687 13.4623C7.42165 13.4057 7.34578 13.3284 7.28924 13.2302C7.23271 13.132 7.20444 13.0249 7.20444 12.9088C7.20444 12.7957 7.23271 12.6916 7.28924 12.5964C7.34578 12.4982 7.42165 12.4208 7.51687 12.3643C7.61506 12.3078 7.72218 12.2795 7.83823 12.2795C7.95129 12.2795 8.05544 12.3078 8.15065 12.3643C8.24885 12.4208 8.32621 12.4982 8.38274 12.5964C8.43928 12.6916 8.46755 12.7957 8.46755 12.9088C8.46755 13.0249 8.43928 13.132 8.38274 13.2302C8.32621 13.3284 8.24885 13.4057 8.15065 13.4623C8.05544 13.5188 7.95129 13.5471 7.83823 13.5471ZM7.83823 13.3507C7.95725 13.3507 8.05693 13.3075 8.13726 13.2212C8.22058 13.135 8.26224 13.0308 8.26224 12.9088C8.26224 12.7868 8.22058 12.6842 8.13726 12.6009C8.05693 12.5175 7.95725 12.4759 7.83823 12.4759C7.7192 12.4759 7.61804 12.5175 7.53472 12.6009C7.45141 12.6842 7.40975 12.7868 7.40975 12.9088C7.40975 13.0338 7.44992 13.1394 7.53026 13.2257C7.61357 13.309 7.71623 13.3507 7.83823 13.3507Z" fill="#404040"/>
<path d="M54.7155 46.5583C54.7006 46.5643 54.7006 46.5717 54.7155 46.5807C54.8554 46.6491 54.9625 46.7473 55.0369 46.8752C55.1142 47.0032 55.1544 47.1579 55.1574 47.3394C55.1574 47.6072 55.0771 47.8155 54.9164 47.9643C54.7587 48.1131 54.5489 48.1874 54.2871 48.1874H53.4078C53.378 48.1874 53.3632 48.1726 53.3632 48.1428V45.1078C53.3632 45.078 53.378 45.0632 53.4078 45.0632H54.2513C54.5251 45.0632 54.7393 45.1346 54.8941 45.2774C55.0488 45.4172 55.1261 45.6181 55.1261 45.8799C55.1261 46.0466 55.0904 46.1864 55.019 46.2995C54.9506 46.4125 54.8494 46.4988 54.7155 46.5583ZM53.6979 45.3399C53.686 45.3399 53.68 45.3458 53.68 45.3577V46.4334C53.68 46.4453 53.686 46.4512 53.6979 46.4512H54.2558C54.4284 46.4512 54.5638 46.4021 54.662 46.3039C54.7631 46.2057 54.8137 46.0733 54.8137 45.9067C54.8137 45.7312 54.7631 45.5928 54.662 45.4916C54.5638 45.3905 54.4284 45.3399 54.2558 45.3399H53.6979ZM54.2781 47.9063C54.4507 47.9063 54.5876 47.8527 54.6887 47.7456C54.7899 47.6385 54.8405 47.4927 54.8405 47.3082C54.8405 47.1207 54.7884 46.9734 54.6843 46.8663C54.5831 46.7592 54.4448 46.7056 54.2692 46.7056H53.6979C53.686 46.7056 53.68 46.7116 53.68 46.7235V47.8884C53.68 47.9003 53.686 47.9063 53.6979 47.9063H54.2781ZM57.1776 48.1874C57.1508 48.1874 57.1344 48.174 57.1285 48.1473L56.9812 47.5894C56.9782 47.5804 56.9708 47.576 56.9589 47.576H55.8922C55.8803 47.576 55.8728 47.5804 55.8698 47.5894L55.7226 48.1473C55.7166 48.174 55.7002 48.1874 55.6735 48.1874H55.4414C55.4265 48.1874 55.4146 48.183 55.4057 48.174C55.3997 48.1651 55.3982 48.1532 55.4012 48.1383L56.2358 45.1033C56.2418 45.0765 56.2581 45.0632 56.2849 45.0632H56.5706C56.5974 45.0632 56.6137 45.0765 56.6197 45.1033L57.4543 48.1383L57.4588 48.1517C57.4588 48.1755 57.4439 48.1874 57.4141 48.1874H57.1776ZM55.9457 47.2992C55.9427 47.3022 55.9427 47.3067 55.9457 47.3126C55.9517 47.3156 55.9576 47.3171 55.9636 47.3171H56.8875C56.8934 47.3171 56.8979 47.3156 56.9009 47.3126C56.9068 47.3067 56.9083 47.3022 56.9053 47.2992L56.4322 45.505C56.4292 45.4991 56.4263 45.4961 56.4233 45.4961C56.4203 45.4961 56.4173 45.4991 56.4144 45.505L55.9457 47.2992ZM59.4842 45.1078C59.4842 45.078 59.4991 45.0632 59.5289 45.0632H59.7565C59.7863 45.0632 59.8011 45.078 59.8011 45.1078V48.1428C59.8011 48.1726 59.7863 48.1874 59.7565 48.1874H59.5155C59.4887 48.1874 59.4709 48.177 59.4619 48.1562L58.2658 45.7683C58.2598 45.7624 58.2539 45.7594 58.2479 45.7594C58.2449 45.7594 58.2435 45.7639 58.2435 45.7728L58.2479 48.1428C58.2479 48.1726 58.233 48.1874 58.2033 48.1874H57.9757C57.9459 48.1874 57.931 48.1726 57.931 48.1428V45.1078C57.931 45.078 57.9459 45.0632 57.9757 45.0632H58.2167C58.2435 45.0632 58.2613 45.0736 58.2702 45.0944L59.4664 47.4912C59.4723 47.4971 59.4768 47.5001 59.4798 47.5001C59.4857 47.5001 59.4887 47.4956 59.4887 47.4867L59.4842 45.1078ZM62.0549 48.1874C62.0281 48.1874 62.0118 48.174 62.0058 48.1473L61.8585 47.5894C61.8556 47.5804 61.8481 47.576 61.8362 47.576H60.7695C60.7576 47.576 60.7502 47.5804 60.7472 47.5894L60.5999 48.1473C60.5939 48.174 60.5776 48.1874 60.5508 48.1874H60.3187C60.3038 48.1874 60.2919 48.183 60.283 48.174C60.277 48.1651 60.2756 48.1532 60.2785 48.1383L61.1132 45.1033C61.1191 45.0765 61.1355 45.0632 61.1623 45.0632H61.4479C61.4747 45.0632 61.4911 45.0765 61.497 45.1033L62.3316 48.1383L62.3361 48.1517C62.3361 48.1755 62.3212 48.1874 62.2915 48.1874H62.0549ZM60.8231 47.2992C60.8201 47.3022 60.8201 47.3067 60.8231 47.3126C60.829 47.3156 60.835 47.3171 60.8409 47.3171H61.7648C61.7708 47.3171 61.7752 47.3156 61.7782 47.3126C61.7841 47.3067 61.7856 47.3022 61.7827 47.2992L61.3096 45.505C61.3066 45.4991 61.3036 45.4961 61.3006 45.4961C61.2976 45.4961 61.2947 45.4991 61.2917 45.505L60.8231 47.2992ZM64.3616 45.1078C64.3616 45.078 64.3765 45.0632 64.4062 45.0632H64.6338C64.6636 45.0632 64.6785 45.078 64.6785 45.1078V48.1428C64.6785 48.1726 64.6636 48.1874 64.6338 48.1874H64.3928C64.3661 48.1874 64.3482 48.177 64.3393 48.1562L63.1431 45.7683C63.1372 45.7624 63.1312 45.7594 63.1253 45.7594C63.1223 45.7594 63.1208 45.7639 63.1208 45.7728L63.1253 48.1428C63.1253 48.1726 63.1104 48.1874 63.0806 48.1874H62.853C62.8232 48.1874 62.8084 48.1726 62.8084 48.1428V45.1078C62.8084 45.078 62.8232 45.0632 62.853 45.0632H63.094C63.1208 45.0632 63.1387 45.0736 63.1476 45.0944L64.3437 47.4912C64.3497 47.4971 64.3541 47.5001 64.3571 47.5001C64.3631 47.5001 64.3661 47.4956 64.3661 47.4867L64.3616 45.1078ZM66.9323 48.1874C66.9055 48.1874 66.8891 48.174 66.8832 48.1473L66.7359 47.5894C66.7329 47.5804 66.7255 47.576 66.7136 47.576H65.6468C65.6349 47.576 65.6275 47.5804 65.6245 47.5894L65.4772 48.1473C65.4713 48.174 65.4549 48.1874 65.4281 48.1874H65.196C65.1812 48.1874 65.1693 48.183 65.1603 48.174C65.1544 48.1651 65.1529 48.1532 65.1559 48.1383L65.9905 45.1033C65.9965 45.0765 66.0128 45.0632 66.0396 45.0632H66.3252C66.352 45.0632 66.3684 45.0765 66.3743 45.1033L67.209 48.1383L67.2134 48.1517C67.2134 48.1755 67.1986 48.1874 67.1688 48.1874H66.9323ZM65.7004 47.2992C65.6974 47.3022 65.6974 47.3067 65.7004 47.3126C65.7063 47.3156 65.7123 47.3171 65.7182 47.3171H66.6421C66.6481 47.3171 66.6526 47.3156 66.6555 47.3126C66.6615 47.3067 66.663 47.3022 66.66 47.2992L66.1869 45.505C66.1839 45.4991 66.1809 45.4961 66.178 45.4961C66.175 45.4961 66.172 45.4991 66.169 45.505L65.7004 47.2992ZM54.7066 51.7056C54.7631 51.8604 54.7914 52.0374 54.7914 52.2368C54.7914 52.4153 54.7691 52.57 54.7245 52.7009C54.6144 53.0491 54.3704 53.2231 53.9925 53.2231C53.7901 53.2231 53.6205 53.1696 53.4837 53.0625C53.3468 52.9524 53.259 52.8021 53.2203 52.6117C53.1995 52.5165 53.1891 52.4079 53.1891 52.2859C53.1891 52.2561 53.204 52.2412 53.2337 52.2412H53.4613C53.4911 52.2412 53.506 52.2561 53.506 52.2859C53.5119 52.4138 53.5194 52.5001 53.5283 52.5447C53.5551 52.6697 53.6086 52.7679 53.689 52.8393C53.7693 52.9107 53.8705 52.9464 53.9925 52.9464C54.2216 52.9464 54.3704 52.8304 54.4388 52.5983C54.4656 52.4912 54.479 52.3632 54.479 52.2144C54.479 52.0359 54.4596 51.8886 54.421 51.7726C54.3436 51.5643 54.2008 51.4602 53.9925 51.4602C53.9449 51.4602 53.9032 51.4691 53.8675 51.4869C53.8497 51.4929 53.8392 51.4959 53.8363 51.4959C53.8244 51.4959 53.8139 51.4899 53.805 51.478L53.689 51.3575C53.6741 51.3367 53.6726 51.3158 53.6845 51.295L54.3808 50.3622C54.3867 50.3562 54.3882 50.3518 54.3852 50.3488C54.3823 50.3429 54.3778 50.3399 54.3719 50.3399H53.256C53.2263 50.3399 53.2114 50.325 53.2114 50.2952V50.1078C53.2114 50.078 53.2263 50.0632 53.256 50.0632H54.7334C54.7631 50.0632 54.778 50.078 54.778 50.1078V50.3086C54.778 50.3324 54.7721 50.3518 54.7602 50.3667L54.113 51.2504C54.11 51.2534 54.11 51.2578 54.113 51.2638C54.116 51.2697 54.1204 51.2727 54.1264 51.2727C54.2662 51.2786 54.3852 51.3188 54.4834 51.3932C54.5816 51.4676 54.656 51.5717 54.7066 51.7056ZM56.1746 53.2321C55.9187 53.2321 55.7134 53.1547 55.5587 53C55.404 52.8453 55.3266 52.6385 55.3266 52.3796V50.871C55.3266 50.6151 55.404 50.4098 55.5587 50.2551C55.7134 50.1003 55.9187 50.023 56.1746 50.023C56.4335 50.023 56.6403 50.1003 56.795 50.2551C56.9527 50.4098 57.0316 50.6151 57.0316 50.871V52.3796C57.0316 52.6385 56.9527 52.8453 56.795 53C56.6403 53.1547 56.4335 53.2321 56.1746 53.2321ZM56.1746 52.9553C56.3383 52.9553 56.4692 52.9048 56.5674 52.8036C56.6656 52.7024 56.7147 52.5685 56.7147 52.4019V50.8532C56.7147 50.6865 56.6656 50.5526 56.5674 50.4515C56.4692 50.3503 56.3383 50.2997 56.1746 50.2997C56.0169 50.2997 55.889 50.3503 55.7908 50.4515C55.6926 50.5526 55.6435 50.6865 55.6435 50.8532V52.4019C55.6435 52.5656 55.6926 52.6995 55.7908 52.8036C55.889 52.9048 56.0169 52.9553 56.1746 52.9553ZM58.3077 51.2906C58.1916 51.2906 58.0845 51.2623 57.9863 51.2057C57.8911 51.1492 57.8152 51.0733 57.7587 50.9781C57.7021 50.8799 57.6739 50.7728 57.6739 50.6568C57.6739 50.5407 57.7021 50.4351 57.7587 50.3399C57.8152 50.2417 57.8911 50.1643 57.9863 50.1078C58.0845 50.0513 58.1916 50.023 58.3077 50.023C58.4207 50.023 58.5249 50.0513 58.6201 50.1078C58.7183 50.1643 58.7956 50.2417 58.8522 50.3399C58.9087 50.4351 58.937 50.5407 58.937 50.6568C58.937 50.7728 58.9087 50.8799 58.8522 50.9781C58.7956 51.0733 58.7183 51.1492 58.6201 51.2057C58.5249 51.2623 58.4207 51.2906 58.3077 51.2906ZM58.205 53.1874C58.1901 53.1874 58.1782 53.183 58.1693 53.174C58.1633 53.1621 58.1648 53.1488 58.1738 53.1339L59.8341 50.0944C59.843 50.0736 59.8609 50.0632 59.8877 50.0632H60.0305C60.0454 50.0632 60.0558 50.0691 60.0617 50.081C60.0706 50.0899 60.0706 50.1018 60.0617 50.1167L58.4014 53.1562C58.3925 53.177 58.3746 53.1874 58.3478 53.1874H58.205ZM58.3077 51.0942C58.4267 51.0942 58.5264 51.0525 58.6067 50.9692C58.69 50.8829 58.7317 50.7788 58.7317 50.6568C58.7317 50.5348 58.69 50.4321 58.6067 50.3488C58.5264 50.2625 58.4267 50.2194 58.3077 50.2194C58.1886 50.2194 58.0875 50.2625 58.0042 50.3488C57.9208 50.4321 57.8792 50.5348 57.8792 50.6568C57.8792 50.7788 57.9208 50.8829 58.0042 50.9692C58.0875 51.0525 58.1886 51.0942 58.3077 51.0942ZM59.9457 53.2276C59.8296 53.2276 59.7225 53.1993 59.6243 53.1428C59.5291 53.0863 59.4532 53.0089 59.3967 52.9107C59.3402 52.8125 59.3119 52.7054 59.3119 52.5894C59.3119 52.4763 59.3402 52.3721 59.3967 52.2769C59.4532 52.1787 59.5291 52.1014 59.6243 52.0448C59.7225 51.9883 59.8296 51.96 59.9457 51.96C60.0587 51.96 60.1629 51.9883 60.2581 52.0448C60.3563 52.1014 60.4337 52.1787 60.4902 52.2769C60.5467 52.3721 60.575 52.4763 60.575 52.5894C60.575 52.7054 60.5467 52.8125 60.4902 52.9107C60.4337 53.0089 60.3563 53.0863 60.2581 53.1428C60.1629 53.1993 60.0587 53.2276 59.9457 53.2276ZM59.9457 53.0312C60.0647 53.0312 60.1644 52.9881 60.2447 52.9018C60.328 52.8155 60.3697 52.7114 60.3697 52.5894C60.3697 52.4674 60.328 52.3647 60.2447 52.2814C60.1644 52.1981 60.0647 52.1564 59.9457 52.1564C59.8267 52.1564 59.7255 52.1981 59.6422 52.2814C59.5589 52.3647 59.5172 52.4674 59.5172 52.5894C59.5172 52.7143 59.5574 52.82 59.6377 52.9063C59.721 52.9896 59.8237 53.0312 59.9457 53.0312Z" fill="#404040"/>
<path fill-rule="evenodd" clip-rule="evenodd" d="M38.6487 22.3876C36.3128 22.6654 34.3701 24.316 33.7268 26.5712C33.6651 26.7803 33.5968 27.0974 33.5709 27.2739L33.5221 27.5974L33.7463 27.8916C33.8697 28.0518 34.0062 28.2282 34.0484 28.2838L34.2835 28.4413L34.3014 27.7903V27.1954L34.3766 27.1889H34.6202V28.2184V29.248H34.4253L34.3358 29.163L34.0174 28.7479C33.842 28.5191 33.5183 27.9991 33.4956 27.9729C33.4306 27.8945 33.5254 28.9179 33.6131 29.346C33.964 31.0914 35.1043 32.5916 36.6962 33.3989C37.869 33.9937 39.2237 34.1669 40.52 33.8858C41.3906 33.6995 42.2743 33.2714 42.9533 32.7125C44.2951 31.6045 45.0813 29.967 45.0813 28.2675C45.0813 27.1693 44.7921 26.8424 43.3269 26.2803C42.7649 26.0646 42.44 25.9077 42.1249 25.7018C41.6928 25.4207 41.4849 25.1331 40.9553 24.1003C40.4063 23.025 40.1334 22.6589 39.737 22.4628C39.5648 22.3778 39.5064 22.368 39.2172 22.3615C39.0385 22.3582 38.7819 22.3713 38.6487 22.3876ZM38.7299 25.1756C39.0223 25.3096 39.2335 25.558 39.8052 26.4372C40.1659 26.9895 40.2926 27.1301 40.5232 27.2412C40.6174 27.2869 40.7214 27.3589 40.7539 27.3981C40.8091 27.4732 41.1961 27.6666 41.2676 27.6666C41.2871 27.6666 41.3124 27.555 41.3124 27.4177V27.1889H41.735C42.1346 27.1889 42.2841 27.202 42.3783 27.2412C42.7779 27.4079 42.9241 27.9112 42.6837 28.3001C42.5992 28.4342 42.5959 28.457 42.6317 28.5453C42.7356 28.7871 42.6512 29.3232 42.427 29.8592C42.2093 30.3789 41.6798 31.0293 41.2185 31.3398C40.9358 31.5293 40.4712 31.745 40.1594 31.83C39.7858 31.9313 39.0808 31.9542 38.7104 31.879C37.4726 31.6274 36.5402 30.8037 36.1017 29.5814C36.0562 29.4506 36.0172 29.3166 36.0172 29.2872C36.0172 29.2349 35.9685 29.2316 35.4649 29.2414L35.0895 29.2611V28.225V27.1889L35.5104 27.1954L36.1114 27.2052L36.1959 26.9895C36.4655 26.2966 37.125 25.5874 37.8332 25.2311C38.1906 25.0481 38.4245 25.035 38.7299 25.1756ZM43.4894 27.5811V27.9733H43.9117H44.334V27.5811V27.1889H44.5777H44.8214V28.2184V29.248H44.5777H44.334V28.8394V28.4309H43.9117H43.4894V28.8394V29.248H43.2619H43.0345V28.2184V27.1889H43.2619H43.4894V27.5811Z" fill="#FF1368"/>
<path fill-rule="evenodd" clip-rule="evenodd" d="M35.3999 28.1985V28.7901H35.6598H35.9197V28.4011C35.9197 28.1887 35.936 27.937 35.9522 27.8422C35.9717 27.7475 35.9619 27.5828 35.9522 27.5762C35.9425 27.5664 35.8125 27.5501 35.6598 27.5436L35.3837 27.5272L35.3999 28.1985Z" fill="#FF1368"/>
<path fill-rule="evenodd" clip-rule="evenodd" d="M41.6619 27.7048C41.6619 27.8192 41.749 27.8388 42.0251 27.9696C42.2883 28.0938 42.3143 28.1003 42.35 28.048C42.4117 27.963 42.402 27.7931 42.3305 27.7048C42.2753 27.6362 42.2525 27.5683 42.0251 27.5585H41.6619V27.7048Z" fill="#FF1368"/>
<path fill-rule="evenodd" clip-rule="evenodd" d="M46.9144 27.1494C46.8082 27.1848 46.6587 27.2557 46.5863 27.3013C46.4608 27.3925 46.456 27.3925 46.456 27.2861C46.456 27.1949 46.427 27.1797 46.263 27.1797H46.07V28.2181V29.2564H46.2582H46.4463L46.4657 28.5524C46.4801 27.9294 46.4946 27.8281 46.5815 27.7014C46.8034 27.3925 47.3342 27.3722 47.4693 27.6711C47.5079 27.7572 47.5369 28.0864 47.5465 28.522L47.5658 29.2311L47.7588 29.2463L47.9567 29.2615L47.9422 28.5118L47.9277 27.7622L47.6961 27.6356C47.5417 27.5495 47.4307 27.4381 47.3583 27.3064C47.2329 27.0784 47.1846 27.0582 46.9144 27.1494Z" fill="black"/>
<path fill-rule="evenodd" clip-rule="evenodd" d="M31.4101 27.1847C31.0482 27.3012 30.6911 27.8938 30.7538 28.2787C30.7924 28.5218 30.8117 28.5472 31.0337 28.6535C31.164 28.7143 31.3232 28.846 31.4342 28.9929C31.6755 29.3069 31.6851 29.312 31.8781 29.2816C32.1532 29.2259 32.4571 28.9979 32.5874 28.7396C32.6791 28.5522 32.6791 28.5472 32.4668 28.5472C32.3317 28.5472 32.2545 28.5775 32.2062 28.6485C32.1146 28.7852 31.8878 28.9017 31.7092 28.9017C31.5114 28.9017 31.2557 28.7143 31.1736 28.5066L31.1109 28.3446H31.9119H32.7129L32.6936 28.071C32.6695 27.7519 32.5102 27.4734 32.2497 27.291C32.0615 27.1543 31.6562 27.1036 31.4101 27.1847ZM32.0277 27.6101C32.1049 27.6557 32.2062 27.757 32.2448 27.838L32.322 27.99H31.7382C31.3473 27.99 31.1591 27.9697 31.1591 27.9343C31.1591 27.9039 31.2315 27.8026 31.3232 27.7064C31.4583 27.5645 31.5259 27.5341 31.6851 27.5341C31.7961 27.5341 31.9505 27.5696 32.0277 27.6101Z" fill="black"/>
<path fill-rule="evenodd" clip-rule="evenodd" d="M37.7799 27.1847C37.5386 27.2607 37.1622 27.6659 37.0947 27.9343C36.921 28.6131 37.4325 29.2766 38.1321 29.2766C39.02 29.2816 39.5073 28.2281 38.938 27.5342C38.6484 27.1746 38.2286 27.048 37.7799 27.1847ZM38.5712 27.7014C38.7208 27.8432 38.7498 27.9141 38.7691 28.1217C38.8221 28.7042 38.3589 29.0537 37.8426 28.8308C37.5917 28.7194 37.4711 28.4814 37.4952 28.1471C37.5097 27.909 37.5386 27.8482 37.6882 27.7014C37.8426 27.5545 37.8957 27.5342 38.1321 27.5342C38.3686 27.5342 38.4216 27.5545 38.5712 27.7014Z" fill="black"/>
<path fill-rule="evenodd" clip-rule="evenodd" d="M32.9446 28.2185V29.2568H33.1617H33.374L33.3885 28.6136L33.403 27.9653L33.8373 28.5477C34.3873 29.2923 34.3632 29.267 34.5466 29.2467L34.7058 29.2315V28.2185V27.2055L34.5031 27.1903L34.2957 27.1751V27.7829C34.2957 28.4464 34.2571 28.5224 34.0785 28.2489C34.0254 28.1679 33.8324 27.8943 33.6442 27.6411C33.3258 27.2055 33.3017 27.1802 33.1279 27.1802H32.9446V28.2185Z" fill="black"/>
<path fill-rule="evenodd" clip-rule="evenodd" d="M35.0677 28.2135V29.2569H35.5405C36.0858 29.2569 36.3126 29.2012 36.5152 29.0188C36.7662 28.801 36.8675 28.5326 36.8434 28.1375C36.8289 27.8438 36.8048 27.7627 36.6793 27.6006C36.4187 27.2663 36.274 27.2056 35.637 27.1853L35.0677 27.1701V28.2135ZM36.2209 27.7171C36.5008 27.9602 36.5104 28.4414 36.2499 28.6997C36.1485 28.801 36.0761 28.8213 35.8059 28.8213L35.4778 28.8264L35.4633 28.2034L35.4489 27.5854H35.7625C36.0279 27.5854 36.0954 27.6057 36.2209 27.7171Z" fill="black"/>
<path fill-rule="evenodd" clip-rule="evenodd" d="M39.3625 28.2184V29.2567H39.5796H39.7968V28.9022V28.5476H39.9801C40.1538 28.5476 40.1635 28.5628 40.342 28.9022L40.5254 29.2567H40.7715H41.0127L40.8535 28.9629C40.7715 28.8059 40.675 28.6337 40.646 28.5881C40.6074 28.5172 40.6267 28.4666 40.7618 28.3197C40.9114 28.1627 40.9259 28.112 40.9259 27.8638C40.9259 27.641 40.9066 27.565 40.8101 27.4536C40.5978 27.2206 40.4675 27.1801 39.8933 27.1801H39.3625V28.2184ZM40.4337 27.6714C40.482 27.7169 40.5206 27.8031 40.5206 27.8689C40.5206 28.0664 40.3951 28.1424 40.0815 28.1424H39.7968V27.8638V27.5853H40.0718C40.2552 27.5853 40.371 27.6106 40.4337 27.6714Z" fill="black"/>
<path fill-rule="evenodd" clip-rule="evenodd" d="M41.2733 27.7475C41.254 28.0615 41.2492 28.5225 41.2637 28.7757L41.283 29.2316L41.4808 29.2468L41.6738 29.262L41.6883 28.9429L41.7028 28.6238L42.0405 28.5984C42.2287 28.5832 42.4266 28.5427 42.4893 28.5073C42.7499 28.3503 42.8705 27.8691 42.7209 27.5652C42.5761 27.2714 42.4266 27.2056 41.8427 27.1904L41.3071 27.1701L41.2733 27.7475ZM42.2577 27.6361C42.3831 27.707 42.4217 27.9248 42.3301 28.0717C42.2673 28.178 42.2191 28.1932 41.9682 28.1932H41.6786V27.8893V27.5854H41.9247C42.0598 27.5854 42.2094 27.6057 42.2577 27.6361Z" fill="black"/>
<path fill-rule="evenodd" clip-rule="evenodd" d="M43.0781 28.2236V29.2619L43.2856 29.2467L43.4882 29.2315V28.8263V28.4211L43.937 28.4059L44.3809 28.3907V28.8263V29.2619L44.5884 29.2467L44.791 29.2315V28.2185V27.2055L44.5884 27.1903L44.3809 27.1751V27.5803V27.9906H43.9225H43.4641V27.5854V27.1802H43.2711H43.0781V28.2236Z" fill="black"/>
<path fill-rule="evenodd" clip-rule="evenodd" d="M45.2014 28.2184V29.2567H45.4186H45.6357V28.2184V27.1801H45.4186H45.2014V28.2184Z" fill="black"/>
</svg>
