<svg width="80" height="52" viewBox="0 0 80 52" fill="none" xmlns="http://www.w3.org/2000/svg">
<path d="M34.0908 5.9373C39.3838 5.75557 44.5334 7.6486 48.4068 11.2C52.2802 14.7513 54.5601 19.6701 54.7449 24.8742C54.9297 30.0783 53.0044 35.1415 49.3924 38.9498C45.7804 42.7582 40.7777 44.9998 35.4847 45.1816L35.2408 38.3138C38.6812 38.1957 41.933 36.7386 44.2808 34.2632C46.6286 31.7878 47.88 28.4967 47.7599 25.114C47.6398 21.7314 46.1578 18.5342 43.6401 16.2258C41.1224 13.9174 37.7752 12.6869 34.3348 12.805L34.0908 5.9373Z" fill="#FFDE97"/>
<path d="M35.4847 45.1816C30.1917 45.3633 25.0421 43.4703 21.1687 39.9189C17.2953 36.3676 15.0154 31.4488 14.8306 26.2447C14.6458 21.0405 16.5711 15.9774 20.1831 12.169C23.7951 8.36065 28.7979 6.11903 34.0908 5.9373L34.3348 12.805C30.8943 12.9232 27.6425 14.3802 25.2947 16.8557C22.947 19.3311 21.6955 22.6222 21.8156 26.0048C21.9358 29.3875 23.4177 32.5847 25.9354 34.8931C28.4531 37.2015 31.8003 38.432 35.2408 38.3138L35.4847 45.1816Z" fill="#96E9A8"/>
<path d="M48.99 14.0486L51.3417 11.0757H61.0846" stroke="black" stroke-width="0.145684"/>
<path d="M20.6902 37.8214L18.3385 40.7943H8.59564" stroke="black" stroke-width="0.145684"/>
<path d="M1.72282 38.2855C1.70794 38.2914 1.70794 38.2988 1.72282 38.3078C1.86267 38.3762 1.96979 38.4744 2.04418 38.6024C2.12154 38.7303 2.16171 38.885 2.16468 39.0665C2.16468 39.3343 2.08435 39.5426 1.92367 39.6914C1.76597 39.8402 1.55619 39.9146 1.29435 39.9146H0.415084C0.385329 39.9146 0.370451 39.8997 0.370451 39.8699V36.8349C0.370451 36.8051 0.385329 36.7903 0.415084 36.7903H1.25864C1.53239 36.7903 1.74662 36.8617 1.90135 37.0045C2.05608 37.1444 2.13344 37.3452 2.13344 37.607C2.13344 37.7737 2.09774 37.9135 2.02632 38.0266C1.95789 38.1397 1.85672 38.2259 1.72282 38.2855ZM0.705196 37.067C0.693294 37.067 0.687343 37.0729 0.687343 37.0848V38.1605C0.687343 38.1724 0.693294 38.1783 0.705196 38.1783H1.2631C1.43568 38.1783 1.57107 38.1292 1.66926 38.0311C1.77043 37.9329 1.82101 37.8005 1.82101 37.6338C1.82101 37.4583 1.77043 37.3199 1.66926 37.2187C1.57107 37.1176 1.43568 37.067 1.2631 37.067H0.705196ZM1.28542 39.6334C1.458 39.6334 1.59487 39.5798 1.69604 39.4727C1.79721 39.3656 1.84779 39.2198 1.84779 39.0353C1.84779 38.8478 1.79572 38.7005 1.69158 38.5934C1.59041 38.4863 1.45205 38.4327 1.27649 38.4327H0.705196C0.693294 38.4327 0.687343 38.4387 0.687343 38.4506V39.6155C0.687343 39.6274 0.693294 39.6334 0.705196 39.6334H1.28542ZM4.473 37.0224C4.473 37.0521 4.45812 37.067 4.42836 37.067H3.08938C3.07748 37.067 3.07153 37.0729 3.07153 37.0848V38.1917C3.07153 38.2036 3.07748 38.2096 3.08938 38.2096H3.99096C4.02072 38.2096 4.03559 38.2245 4.03559 38.2542V38.4417C4.03559 38.4714 4.02072 38.4863 3.99096 38.4863H3.08938C3.07748 38.4863 3.07153 38.4923 3.07153 38.5042V39.62C3.07153 39.6319 3.07748 39.6378 3.08938 39.6378H4.42836C4.45812 39.6378 4.473 39.6527 4.473 39.6825V39.8699C4.473 39.8997 4.45812 39.9146 4.42836 39.9146H2.79927C2.76951 39.9146 2.75464 39.8997 2.75464 39.8699V36.8349C2.75464 36.8051 2.76951 36.7903 2.79927 36.7903H4.42836C4.45812 36.7903 4.473 36.8051 4.473 36.8349V37.0224ZM6.59127 39.9146C6.56746 39.9146 6.5511 39.9026 6.54217 39.8788L5.98873 38.4997C5.98575 38.4908 5.9798 38.4863 5.97087 38.4863H5.39511C5.38321 38.4863 5.37726 38.4923 5.37726 38.5042V39.8699C5.37726 39.8997 5.36238 39.9146 5.33263 39.9146H5.105C5.07525 39.9146 5.06037 39.8997 5.06037 39.8699V36.8349C5.06037 36.8051 5.07525 36.7903 5.105 36.7903H6.05121C6.20594 36.7903 6.34281 36.826 6.46183 36.8974C6.58383 36.9688 6.67756 37.07 6.74302 37.2009C6.81146 37.3318 6.84567 37.4821 6.84567 37.6517C6.84567 37.854 6.79658 38.0266 6.69839 38.1694C6.60019 38.3122 6.4663 38.4075 6.29669 38.4551C6.28479 38.461 6.28181 38.4685 6.28777 38.4774L6.86353 39.861L6.86799 39.8788C6.86799 39.9026 6.8546 39.9146 6.82782 39.9146H6.59127ZM5.39511 37.067C5.38321 37.067 5.37726 37.0729 5.37726 37.0848V38.214C5.37726 38.2259 5.38321 38.2319 5.39511 38.2319H6.01104C6.16577 38.2319 6.29074 38.1783 6.38596 38.0712C6.48117 37.9641 6.52878 37.8243 6.52878 37.6517C6.52878 37.4761 6.48117 37.3348 6.38596 37.2277C6.29074 37.1205 6.16577 37.067 6.01104 37.067H5.39511ZM8.9493 39.9146C8.9255 39.9146 8.90913 39.9026 8.90021 39.8788L8.34676 38.4997C8.34379 38.4908 8.33783 38.4863 8.32891 38.4863H7.75315C7.74124 38.4863 7.73529 38.4923 7.73529 38.5042V39.8699C7.73529 39.8997 7.72042 39.9146 7.69066 39.9146H7.46303C7.43328 39.9146 7.4184 39.8997 7.4184 39.8699V36.8349C7.4184 36.8051 7.43328 36.7903 7.46303 36.7903H8.40925C8.56397 36.7903 8.70085 36.826 8.81987 36.8974C8.94186 36.9688 9.03559 37.07 9.10105 37.2009C9.16949 37.3318 9.20371 37.4821 9.20371 37.6517C9.20371 37.854 9.15461 38.0266 9.05642 38.1694C8.95823 38.3122 8.82433 38.4075 8.65473 38.4551C8.64282 38.461 8.63985 38.4685 8.6458 38.4774L9.22156 39.861L9.22602 39.8788C9.22602 39.9026 9.21264 39.9146 9.18586 39.9146H8.9493ZM7.75315 37.067C7.74124 37.067 7.73529 37.0729 7.73529 37.0848V38.214C7.73529 38.2259 7.74124 38.2319 7.75315 38.2319H8.36908C8.5238 38.2319 8.64878 38.1783 8.74399 38.0712C8.83921 37.9641 8.88682 37.8243 8.88682 37.6517C8.88682 37.4761 8.83921 37.3348 8.74399 37.2277C8.64878 37.1205 8.5238 37.067 8.36908 37.067H7.75315ZM10.3445 39.9101C10.3148 39.9101 10.2999 39.8952 10.2999 39.8655V38.5354C10.2999 38.5235 10.2984 38.5161 10.2954 38.5131L9.52329 36.8438L9.51882 36.826C9.51882 36.8022 9.53221 36.7903 9.55899 36.7903H9.80001C9.82381 36.7903 9.84018 36.8022 9.8491 36.826L10.4472 38.1605C10.4502 38.1664 10.4546 38.1694 10.4606 38.1694C10.4665 38.1694 10.471 38.1664 10.474 38.1605L11.072 36.826C11.081 36.8022 11.0973 36.7903 11.1211 36.7903H11.3622C11.377 36.7903 11.3874 36.7962 11.3934 36.8081C11.4023 36.817 11.4038 36.8289 11.3979 36.8438L10.6212 38.5131C10.6183 38.5161 10.6168 38.5235 10.6168 38.5354V39.8655C10.6168 39.8952 10.6019 39.9101 10.5722 39.9101H10.3445ZM1.82994 41.8349C1.82994 41.8051 1.84482 41.7903 1.87457 41.7903H2.1022C2.13195 41.7903 2.14683 41.8051 2.14683 41.8349V44.8699C2.14683 44.8997 2.13195 44.9146 2.1022 44.9146H1.87457C1.84482 44.9146 1.82994 44.8997 1.82994 44.8699V43.5042C1.82994 43.4923 1.82399 43.4863 1.81209 43.4863H0.705196C0.693294 43.4863 0.687343 43.4923 0.687343 43.5042V44.8699C0.687343 44.8997 0.672466 44.9146 0.64271 44.9146H0.415084C0.385329 44.9146 0.370451 44.8997 0.370451 44.8699V41.8349C0.370451 41.8051 0.385329 41.7903 0.415084 41.7903H0.64271C0.672466 41.7903 0.687343 41.8051 0.687343 41.8349V43.1917C0.687343 43.2036 0.693294 43.2096 0.705196 43.2096H1.81209C1.82399 43.2096 1.82994 43.2036 1.82994 43.1917V41.8349ZM3.71556 44.9503C3.53406 44.9503 3.37338 44.9131 3.23353 44.8387C3.09666 44.7613 2.98954 44.6542 2.91218 44.5173C2.83779 44.3804 2.8006 44.2227 2.8006 44.0442V42.6651C2.8006 42.4865 2.83779 42.3288 2.91218 42.192C2.98954 42.0521 3.09666 41.945 3.23353 41.8706C3.37338 41.7932 3.53406 41.7546 3.71556 41.7546C3.89707 41.7546 4.05626 41.7932 4.19313 41.8706C4.33298 41.945 4.44159 42.0521 4.51895 42.192C4.59632 42.3288 4.635 42.4865 4.635 42.6651V44.0442C4.635 44.2227 4.59632 44.3804 4.51895 44.5173C4.44159 44.6542 4.33298 44.7613 4.19313 44.8387C4.05626 44.9131 3.89707 44.9503 3.71556 44.9503ZM3.71556 44.6735C3.89707 44.6735 4.04287 44.617 4.15296 44.5039C4.26306 44.3909 4.31811 44.2421 4.31811 44.0576V42.6561C4.31811 42.4687 4.26306 42.3184 4.15296 42.2053C4.04287 42.0893 3.89707 42.0313 3.71556 42.0313C3.53703 42.0313 3.39272 42.0893 3.28263 42.2053C3.17253 42.3184 3.11749 42.4687 3.11749 42.6561V44.0576C3.11749 44.2421 3.17253 44.3909 3.28263 44.5039C3.39272 44.617 3.53703 44.6735 3.71556 44.6735ZM5.33601 44.9146C5.30625 44.9146 5.29138 44.8997 5.29138 44.8699V41.8349C5.29138 41.8051 5.30625 41.7903 5.33601 41.7903H5.56364C5.59339 41.7903 5.60827 41.8051 5.60827 41.8349V44.62C5.60827 44.6319 5.61422 44.6378 5.62612 44.6378H6.92493C6.95469 44.6378 6.96956 44.6527 6.96956 44.6825V44.8699C6.96956 44.8997 6.95469 44.9146 6.92493 44.9146H5.33601ZM7.48919 44.9146C7.45943 44.9146 7.44455 44.8997 7.44455 44.8699V41.8349C7.44455 41.8051 7.45943 41.7903 7.48919 41.7903H7.71681C7.74657 41.7903 7.76145 41.8051 7.76145 41.8349V44.62C7.76145 44.6319 7.7674 44.6378 7.7793 44.6378H9.07811C9.10786 44.6378 9.12274 44.6527 9.12274 44.6825V44.8699C9.12274 44.8997 9.10786 44.9146 9.07811 44.9146H7.48919ZM10.3389 44.9503C10.0592 44.9503 9.83609 44.8774 9.66946 44.7316C9.5058 44.5828 9.42398 44.3849 9.42398 44.1379V44.0174C9.42398 43.9877 9.43886 43.9728 9.46861 43.9728H9.68731C9.71707 43.9728 9.73194 43.9877 9.73194 44.0174V44.1201C9.73194 44.2867 9.78848 44.4206 9.90155 44.5218C10.0146 44.623 10.1649 44.6735 10.3523 44.6735C10.5279 44.6735 10.6663 44.6259 10.7674 44.5307C10.8686 44.4355 10.9192 44.3105 10.9192 44.1558C10.9192 44.0546 10.8954 43.9669 10.8478 43.8925C10.8002 43.8181 10.7302 43.7496 10.638 43.6872C10.5457 43.6247 10.4133 43.5458 10.2408 43.4506C10.0563 43.3524 9.91047 43.2661 9.80336 43.1917C9.69921 43.1173 9.61441 43.0266 9.54895 42.9195C9.48349 42.8124 9.45076 42.6814 9.45076 42.5267C9.45076 42.2857 9.52812 42.0967 9.68285 41.9599C9.83757 41.823 10.0444 41.7546 10.3032 41.7546C10.58 41.7546 10.8002 41.8304 10.9638 41.9822C11.1275 42.1339 11.2093 42.3348 11.2093 42.5847V42.6874C11.2093 42.7171 11.1944 42.732 11.1647 42.732H10.9415C10.9117 42.732 10.8969 42.7171 10.8969 42.6874V42.5892C10.8969 42.4226 10.8433 42.2887 10.7362 42.1875C10.6291 42.0834 10.4818 42.0313 10.2943 42.0313C10.1277 42.0313 9.99676 42.0744 9.90155 42.1607C9.80931 42.247 9.76319 42.369 9.76319 42.5267C9.76319 42.6279 9.7855 42.7127 9.83014 42.7811C9.87477 42.8495 9.93874 42.912 10.0221 42.9686C10.1083 43.0251 10.2393 43.101 10.4148 43.1962C10.6172 43.3093 10.7719 43.406 10.879 43.4863C10.9891 43.5637 11.0754 43.6544 11.1379 43.7586C11.2033 43.8597 11.2361 43.9847 11.2361 44.1335C11.2361 44.3834 11.1557 44.5828 10.995 44.7316C10.8344 44.8774 10.6157 44.9503 10.3389 44.9503ZM14.147 43.4729C14.1857 43.6128 14.205 43.7734 14.205 43.9549C14.205 44.1067 14.1916 44.2376 14.1648 44.3477C14.1202 44.5411 14.0309 44.6899 13.897 44.794C13.7661 44.8982 13.601 44.9503 13.4016 44.9503C13.1993 44.9503 13.0312 44.8967 12.8973 44.7896C12.7634 44.6825 12.6756 44.5322 12.6339 44.3388C12.6191 44.2852 12.6101 44.2302 12.6072 44.1736V44.1647C12.6072 44.1409 12.6205 44.129 12.6473 44.129H12.8794C12.9062 44.129 12.9211 44.1409 12.9241 44.1647V44.1826L12.9419 44.2718C12.9687 44.3998 13.0208 44.498 13.0981 44.5664C13.1785 44.6349 13.2796 44.6691 13.4016 44.6691C13.5206 44.6691 13.6188 44.6349 13.6962 44.5664C13.7765 44.495 13.8301 44.3953 13.8569 44.2674C13.8777 44.1841 13.8881 44.0814 13.8881 43.9594C13.8881 43.8463 13.8762 43.7303 13.8524 43.6113C13.8256 43.4923 13.7736 43.403 13.6962 43.3435C13.6188 43.281 13.5206 43.2498 13.4016 43.2498C13.2886 43.2498 13.1904 43.2765 13.107 43.3301C13.0267 43.3807 12.9702 43.4551 12.9374 43.5533L12.9285 43.5711C12.9255 43.5919 12.9107 43.6024 12.8839 43.6024H12.6473C12.6176 43.6024 12.6027 43.5875 12.6027 43.5577V41.8349C12.6027 41.8051 12.6176 41.7903 12.6473 41.7903H14.0622C14.0919 41.7903 14.1068 41.8051 14.1068 41.8349V42.0224C14.1068 42.0521 14.0919 42.067 14.0622 42.067H12.9374C12.9255 42.067 12.9196 42.0729 12.9196 42.0848V43.1783C12.9196 43.1843 12.9211 43.1888 12.9241 43.1917C12.93 43.1917 12.936 43.1888 12.9419 43.1828C13.0014 43.1173 13.0758 43.0668 13.1651 43.0311C13.2573 42.9924 13.3555 42.973 13.4596 42.973C13.6352 42.973 13.781 43.0162 13.897 43.1025C14.0161 43.1858 14.0994 43.3093 14.147 43.4729ZM15.5169 44.9592C15.261 44.9592 15.0557 44.8818 14.901 44.7271C14.7463 44.5724 14.6689 44.3656 14.6689 44.1067V42.5981C14.6689 42.3422 14.7463 42.1369 14.901 41.9822C15.0557 41.8275 15.261 41.7501 15.5169 41.7501C15.7758 41.7501 15.9826 41.8275 16.1373 41.9822C16.295 42.1369 16.3739 42.3422 16.3739 42.5981V44.1067C16.3739 44.3656 16.295 44.5724 16.1373 44.7271C15.9826 44.8818 15.7758 44.9592 15.5169 44.9592ZM15.5169 44.6825C15.6806 44.6825 15.8115 44.6319 15.9097 44.5307C16.0079 44.4295 16.057 44.2956 16.057 44.129V42.5803C16.057 42.4136 16.0079 42.2797 15.9097 42.1786C15.8115 42.0774 15.6806 42.0268 15.5169 42.0268C15.3592 42.0268 15.2313 42.0774 15.1331 42.1786C15.0349 42.2797 14.9858 42.4136 14.9858 42.5803V44.129C14.9858 44.2927 15.0349 44.4266 15.1331 44.5307C15.2313 44.6319 15.3592 44.6825 15.5169 44.6825ZM17.65 43.0177C17.5339 43.0177 17.4268 42.9894 17.3286 42.9329C17.2334 42.8763 17.1575 42.8005 17.101 42.7052C17.0444 42.607 17.0162 42.4999 17.0162 42.3839C17.0162 42.2678 17.0444 42.1622 17.101 42.067C17.1575 41.9688 17.2334 41.8914 17.3286 41.8349C17.4268 41.7784 17.5339 41.7501 17.65 41.7501C17.763 41.7501 17.8672 41.7784 17.9624 41.8349C18.0606 41.8914 18.1379 41.9688 18.1945 42.067C18.251 42.1622 18.2793 42.2678 18.2793 42.3839C18.2793 42.4999 18.251 42.607 18.1945 42.7052C18.1379 42.8005 18.0606 42.8763 17.9624 42.9329C17.8672 42.9894 17.763 43.0177 17.65 43.0177ZM17.5473 44.9146C17.5324 44.9146 17.5205 44.9101 17.5116 44.9012C17.5056 44.8893 17.5071 44.8759 17.5161 44.861L19.1764 41.8215C19.1853 41.8007 19.2032 41.7903 19.2299 41.7903H19.3728C19.3877 41.7903 19.3981 41.7962 19.404 41.8081C19.4129 41.817 19.4129 41.8289 19.404 41.8438L17.7437 44.8833C17.7348 44.9041 17.7169 44.9146 17.6901 44.9146H17.5473ZM17.65 42.8213C17.769 42.8213 17.8687 42.7796 17.949 42.6963C18.0323 42.61 18.074 42.5059 18.074 42.3839C18.074 42.2619 18.0323 42.1592 17.949 42.0759C17.8687 41.9896 17.769 41.9465 17.65 41.9465C17.5309 41.9465 17.4298 41.9896 17.3465 42.0759C17.2631 42.1592 17.2215 42.2619 17.2215 42.3839C17.2215 42.5059 17.2631 42.61 17.3465 42.6963C17.4298 42.7796 17.5309 42.8213 17.65 42.8213ZM19.288 44.9547C19.1719 44.9547 19.0648 44.9265 18.9666 44.8699C18.8714 44.8134 18.7955 44.736 18.739 44.6378C18.6825 44.5396 18.6542 44.4325 18.6542 44.3165C18.6542 44.2034 18.6825 44.0993 18.739 44.004C18.7955 43.9059 18.8714 43.8285 18.9666 43.772C19.0648 43.7154 19.1719 43.6872 19.288 43.6872C19.401 43.6872 19.5052 43.7154 19.6004 43.772C19.6986 43.8285 19.776 43.9059 19.8325 44.004C19.889 44.0993 19.9173 44.2034 19.9173 44.3165C19.9173 44.4325 19.889 44.5396 19.8325 44.6378C19.776 44.736 19.6986 44.8134 19.6004 44.8699C19.5052 44.9265 19.401 44.9547 19.288 44.9547ZM19.288 44.7583C19.407 44.7583 19.5067 44.7152 19.587 44.6289C19.6703 44.5426 19.712 44.4385 19.712 44.3165C19.712 44.1945 19.6703 44.0918 19.587 44.0085C19.5067 43.9252 19.407 43.8835 19.288 43.8835C19.169 43.8835 19.0678 43.9252 18.9845 44.0085C18.9012 44.0918 18.8595 44.1945 18.8595 44.3165C18.8595 44.4414 18.8997 44.5471 18.98 44.6334C19.0633 44.7167 19.166 44.7583 19.288 44.7583Z" fill="#404040"/>
<path d="M55.7929 6.71378C56.0309 6.71378 56.2228 6.79412 56.3686 6.9548C56.5174 7.1125 56.5918 7.32227 56.5918 7.58412C56.5918 7.84299 56.5174 8.05127 56.3686 8.20897C56.2228 8.3637 56.0309 8.44106 55.7929 8.44106H55.1278C55.1159 8.44106 55.11 8.44701 55.11 8.45892V9.7979C55.11 9.82765 55.0951 9.84253 55.0653 9.84253H54.8377C54.808 9.84253 54.7931 9.82765 54.7931 9.7979V6.75841C54.7931 6.72866 54.808 6.71378 54.8377 6.71378H55.7929ZM55.7527 8.17773C55.9104 8.17773 56.0369 8.12417 56.1321 8.01705C56.2273 7.90993 56.2749 7.76711 56.2749 7.58858C56.2749 7.40707 56.2273 7.26276 56.1321 7.15564C56.0369 7.04555 55.9104 6.9905 55.7527 6.9905H55.1278C55.1159 6.9905 55.11 6.99645 55.11 7.00835V8.15988C55.11 8.17178 55.1159 8.17773 55.1278 8.17773H55.7527ZM58.5208 9.84253C58.494 9.84253 58.4776 9.82914 58.4717 9.80236L58.3244 9.24445C58.3214 9.23553 58.314 9.23106 58.3021 9.23106H57.2353C57.2234 9.23106 57.216 9.23553 57.213 9.24445L57.0657 9.80236C57.0598 9.82914 57.0434 9.84253 57.0166 9.84253H56.7845C56.7697 9.84253 56.7578 9.83807 56.7488 9.82914C56.7429 9.82021 56.7414 9.80831 56.7444 9.79343L57.579 6.75841C57.585 6.73163 57.6013 6.71824 57.6281 6.71824H57.9137C57.9405 6.71824 57.9569 6.73163 57.9628 6.75841L58.7975 9.79343L58.8019 9.80682C58.8019 9.83063 58.7871 9.84253 58.7573 9.84253H58.5208ZM57.2889 8.95434C57.2859 8.95731 57.2859 8.96178 57.2889 8.96773C57.2948 8.9707 57.3008 8.97219 57.3067 8.97219H58.2306C58.2366 8.97219 58.2411 8.9707 58.244 8.96773C58.25 8.96178 58.2515 8.95731 58.2485 8.95434L57.7754 7.16011C57.7724 7.15416 57.7694 7.15118 57.7665 7.15118C57.7635 7.15118 57.7605 7.15416 57.7575 7.16011L57.2889 8.95434ZM60.8051 9.84253C60.7813 9.84253 60.7649 9.83063 60.756 9.80682L60.2026 8.42767C60.1996 8.41875 60.1936 8.41428 60.1847 8.41428H59.609C59.5971 8.41428 59.5911 8.42023 59.5911 8.43214V9.7979C59.5911 9.82765 59.5762 9.84253 59.5465 9.84253H59.3188C59.2891 9.84253 59.2742 9.82765 59.2742 9.7979V6.76288C59.2742 6.73312 59.2891 6.71824 59.3188 6.71824H60.2651C60.4198 6.71824 60.5567 6.75395 60.6757 6.82536C60.7977 6.89677 60.8914 6.99794 60.9569 7.12886C61.0253 7.25979 61.0595 7.41005 61.0595 7.57965C61.0595 7.78199 61.0104 7.95457 60.9122 8.09739C60.814 8.24022 60.6801 8.33543 60.5105 8.38304C60.4986 8.38899 60.4957 8.39643 60.5016 8.40536L61.0774 9.78897L61.0818 9.80682C61.0818 9.83063 61.0684 9.84253 61.0417 9.84253H60.8051ZM59.609 6.99497C59.5971 6.99497 59.5911 7.00092 59.5911 7.01282V8.14202C59.5911 8.15393 59.5971 8.15988 59.609 8.15988H60.2249C60.3796 8.15988 60.5046 8.10632 60.5998 7.9992C60.695 7.89208 60.7426 7.75223 60.7426 7.57965C60.7426 7.4041 60.695 7.26276 60.5998 7.15564C60.5046 7.04852 60.3796 6.99497 60.2249 6.99497H59.609ZM63.2586 9.84253C63.2318 9.84253 63.2155 9.82914 63.2095 9.80236L63.0622 9.24445C63.0593 9.23553 63.0518 9.23106 63.0399 9.23106H61.9732C61.9613 9.23106 61.9539 9.23553 61.9509 9.24445L61.8036 9.80236C61.7976 9.82914 61.7813 9.84253 61.7545 9.84253H61.5224C61.5075 9.84253 61.4956 9.83807 61.4867 9.82914C61.4807 9.82021 61.4793 9.80831 61.4822 9.79343L62.3169 6.75841C62.3228 6.73163 62.3392 6.71824 62.366 6.71824H62.6516C62.6784 6.71824 62.6948 6.73163 62.7007 6.75841L63.5353 9.79343L63.5398 9.80682C63.5398 9.83063 63.5249 9.84253 63.4952 9.84253H63.2586ZM62.0268 8.95434C62.0238 8.95731 62.0238 8.96178 62.0268 8.96773C62.0327 8.9707 62.0387 8.97219 62.0446 8.97219H62.9685C62.9745 8.97219 62.9789 8.9707 62.9819 8.96773C62.9878 8.96178 62.9893 8.95731 62.9864 8.95434L62.5132 7.16011C62.5103 7.15416 62.5073 7.15118 62.5043 7.15118C62.5013 7.15118 62.4984 7.15416 62.4954 7.16011L62.0268 8.95434ZM64.0567 9.84253C64.0269 9.84253 64.0121 9.82765 64.0121 9.7979V6.76288C64.0121 6.73312 64.0269 6.71824 64.0567 6.71824H64.927C65.1919 6.71824 65.4001 6.79412 65.5519 6.94587C65.7066 7.09762 65.784 7.30442 65.784 7.56626V8.99451C65.784 9.25635 65.7066 9.46315 65.5519 9.6149C65.4001 9.76665 65.1919 9.84253 64.927 9.84253H64.0567ZM64.329 9.54795C64.329 9.55986 64.3349 9.56581 64.3468 9.56581H64.9315C65.0952 9.56283 65.2246 9.50927 65.3198 9.40513C65.415 9.29801 65.4641 9.15221 65.4671 8.96773V7.59304C65.4671 7.40856 65.4195 7.26276 65.3243 7.15564C65.2291 7.04852 65.0981 6.99497 64.9315 6.99497H64.3468C64.3349 6.99497 64.329 7.00092 64.329 7.01282V9.54795ZM66.4758 9.84253C66.446 9.84253 66.4311 9.82765 66.4311 9.7979V6.76288C66.4311 6.73312 66.446 6.71824 66.4758 6.71824H66.7034C66.7331 6.71824 66.748 6.73312 66.748 6.76288V9.7979C66.748 9.82765 66.7331 9.84253 66.7034 9.84253H66.4758ZM68.2446 9.87824C67.9649 9.87824 67.7417 9.80534 67.5751 9.65954C67.4114 9.51076 67.3296 9.31289 67.3296 9.06592V8.94541C67.3296 8.91566 67.3445 8.90078 67.3742 8.90078H67.5929C67.6227 8.90078 67.6376 8.91566 67.6376 8.94541V9.04807C67.6376 9.2147 67.6941 9.34859 67.8072 9.44976C67.9202 9.55093 68.0705 9.60151 68.258 9.60151C68.4335 9.60151 68.5719 9.5539 68.673 9.45869C68.7742 9.36347 68.8248 9.2385 68.8248 9.08377C68.8248 8.98261 68.801 8.89483 68.7534 8.82044C68.7058 8.74605 68.6359 8.67762 68.5436 8.61513C68.4514 8.55265 68.319 8.47379 68.1464 8.37858C67.9619 8.28039 67.8161 8.1941 67.709 8.11971C67.6048 8.04532 67.52 7.95457 67.4546 7.84745C67.3891 7.74033 67.3564 7.60941 67.3564 7.45468C67.3564 7.21367 67.4337 7.02472 67.5885 6.88785C67.7432 6.75097 67.95 6.68254 68.2089 6.68254C68.4856 6.68254 68.7058 6.75841 68.8694 6.91016C69.0331 7.06191 69.1149 7.26276 69.1149 7.5127V7.61536C69.1149 7.64511 69.1 7.65999 69.0703 7.65999H68.8471C68.8174 7.65999 68.8025 7.64511 68.8025 7.61536V7.51717C68.8025 7.35054 68.7489 7.21664 68.6418 7.11547C68.5347 7.01133 68.3874 6.95926 68.1999 6.95926C68.0333 6.95926 67.9024 7.0024 67.8072 7.08869C67.7149 7.17498 67.6688 7.29698 67.6688 7.45468C67.6688 7.55585 67.6911 7.64065 67.7358 7.70909C67.7804 7.77752 67.8444 7.84001 67.9277 7.89655C68.014 7.95308 68.1449 8.02896 68.3204 8.12417C68.5228 8.23724 68.6775 8.33395 68.7846 8.41428C68.8947 8.49165 68.981 8.5824 69.0435 8.68654C69.109 8.78771 69.1417 8.91268 69.1417 9.06146C69.1417 9.3114 69.0613 9.51076 68.9007 9.65954C68.74 9.80534 68.5213 9.87824 68.2446 9.87824ZM71.4228 6.95033C71.4228 6.98009 71.408 6.99497 71.3782 6.99497H70.0392C70.0273 6.99497 70.0214 7.00092 70.0214 7.01282V8.11971C70.0214 8.13161 70.0273 8.13756 70.0392 8.13756H70.9408C70.9706 8.13756 70.9854 8.15244 70.9854 8.18219V8.36965C70.9854 8.39941 70.9706 8.41428 70.9408 8.41428H70.0392C70.0273 8.41428 70.0214 8.42023 70.0214 8.43214V9.54795C70.0214 9.55986 70.0273 9.56581 70.0392 9.56581H71.3782C71.408 9.56581 71.4228 9.58068 71.4228 9.61044V9.7979C71.4228 9.82765 71.408 9.84253 71.3782 9.84253H69.7491C69.7194 9.84253 69.7045 9.82765 69.7045 9.7979V6.76288C69.7045 6.73312 69.7194 6.71824 69.7491 6.71824H71.3782C71.408 6.71824 71.4228 6.73312 71.4228 6.76288V6.95033ZM56.2481 13.4009C56.2868 13.5407 56.3061 13.7014 56.3061 13.8829C56.3061 14.0347 56.2927 14.1656 56.266 14.2757C56.2213 14.4691 56.1321 14.6179 55.9982 14.722C55.8672 14.8262 55.7021 14.8782 55.5027 14.8782C55.3004 14.8782 55.1323 14.8247 54.9984 14.7176C54.8645 14.6104 54.7767 14.4602 54.7351 14.2668C54.7202 14.2132 54.7113 14.1582 54.7083 14.1016V14.0927C54.7083 14.0689 54.7217 14.057 54.7485 14.057H54.9805C55.0073 14.057 55.0222 14.0689 55.0252 14.0927V14.1106L55.043 14.1998C55.0698 14.3278 55.1219 14.426 55.1992 14.4944C55.2796 14.5628 55.3808 14.597 55.5027 14.597C55.6218 14.597 55.72 14.5628 55.7973 14.4944C55.8777 14.423 55.9312 14.3233 55.958 14.1954C55.9788 14.112 55.9892 14.0094 55.9892 13.8874C55.9892 13.7743 55.9773 13.6583 55.9535 13.5393C55.9268 13.4202 55.8747 13.331 55.7973 13.2715C55.72 13.209 55.6218 13.1777 55.5027 13.1777C55.3897 13.1777 55.2915 13.2045 55.2082 13.2581C55.1278 13.3087 55.0713 13.383 55.0386 13.4812L55.0296 13.4991C55.0267 13.5199 55.0118 13.5303 54.985 13.5303H54.7485C54.7187 13.5303 54.7038 13.5155 54.7038 13.4857V11.7629C54.7038 11.7331 54.7187 11.7182 54.7485 11.7182H56.1633C56.1931 11.7182 56.2079 11.7331 56.2079 11.7629V11.9503C56.2079 11.9801 56.1931 11.995 56.1633 11.995H55.0386C55.0267 11.995 55.0207 12.0009 55.0207 12.0128V13.1063C55.0207 13.1123 55.0222 13.1167 55.0252 13.1197C55.0311 13.1197 55.0371 13.1167 55.043 13.1108C55.1025 13.0453 55.1769 12.9947 55.2662 12.959C55.3584 12.9203 55.4566 12.901 55.5608 12.901C55.7363 12.901 55.8821 12.9442 55.9982 13.0304C56.1172 13.1138 56.2005 13.2372 56.2481 13.4009ZM57.6181 14.8872C57.3622 14.8872 57.1569 14.8098 57.0021 14.6551C56.8474 14.5003 56.77 14.2935 56.77 14.0347V12.5261C56.77 12.2702 56.8474 12.0649 57.0021 11.9102C57.1569 11.7554 57.3622 11.6781 57.6181 11.6781C57.8769 11.6781 58.0837 11.7554 58.2385 11.9102C58.3962 12.0649 58.475 12.2702 58.475 12.5261V14.0347C58.475 14.2935 58.3962 14.5003 58.2385 14.6551C58.0837 14.8098 57.8769 14.8872 57.6181 14.8872ZM57.6181 14.6104C57.7817 14.6104 57.9126 14.5599 58.0108 14.4587C58.109 14.3575 58.1581 14.2236 58.1581 14.057V12.5082C58.1581 12.3416 58.109 12.2077 58.0108 12.1065C57.9126 12.0054 57.7817 11.9548 57.6181 11.9548C57.4604 11.9548 57.3324 12.0054 57.2342 12.1065C57.136 12.2077 57.0869 12.3416 57.0869 12.5082V14.057C57.0869 14.2206 57.136 14.3545 57.2342 14.4587C57.3324 14.5599 57.4604 14.6104 57.6181 14.6104ZM59.7511 12.9456C59.635 12.9456 59.5279 12.9174 59.4297 12.8608C59.3345 12.8043 59.2586 12.7284 59.2021 12.6332C59.1456 12.535 59.1173 12.4279 59.1173 12.3119C59.1173 12.1958 59.1456 12.0902 59.2021 11.995C59.2586 11.8968 59.3345 11.8194 59.4297 11.7629C59.5279 11.7063 59.635 11.6781 59.7511 11.6781C59.8641 11.6781 59.9683 11.7063 60.0635 11.7629C60.1617 11.8194 60.2391 11.8968 60.2956 11.995C60.3521 12.0902 60.3804 12.1958 60.3804 12.3119C60.3804 12.4279 60.3521 12.535 60.2956 12.6332C60.2391 12.7284 60.1617 12.8043 60.0635 12.8608C59.9683 12.9174 59.8641 12.9456 59.7511 12.9456ZM59.6484 14.8425C59.6335 14.8425 59.6216 14.8381 59.6127 14.8291C59.6068 14.8172 59.6083 14.8038 59.6172 14.789L61.2775 11.7495C61.2864 11.7287 61.3043 11.7182 61.3311 11.7182H61.4739C61.4888 11.7182 61.4992 11.7242 61.5051 11.7361C61.5141 11.745 61.5141 11.7569 61.5051 11.7718L59.8448 14.8113C59.8359 14.8321 59.818 14.8425 59.7912 14.8425H59.6484ZM59.7511 12.7493C59.8701 12.7493 59.9698 12.7076 60.0501 12.6243C60.1334 12.538 60.1751 12.4339 60.1751 12.3119C60.1751 12.1899 60.1334 12.0872 60.0501 12.0039C59.9698 11.9176 59.8701 11.8745 59.7511 11.8745C59.6321 11.8745 59.5309 11.9176 59.4476 12.0039C59.3643 12.0872 59.3226 12.1899 59.3226 12.3119C59.3226 12.4339 59.3643 12.538 59.4476 12.6243C59.5309 12.7076 59.6321 12.7493 59.7511 12.7493ZM61.3891 14.8827C61.2731 14.8827 61.1659 14.8544 61.0677 14.7979C60.9725 14.7414 60.8967 14.664 60.8401 14.5658C60.7836 14.4676 60.7553 14.3605 60.7553 14.2445C60.7553 14.1314 60.7836 14.0272 60.8401 13.932C60.8967 13.8338 60.9725 13.7565 61.0677 13.6999C61.1659 13.6434 61.2731 13.6151 61.3891 13.6151C61.5022 13.6151 61.6063 13.6434 61.7015 13.6999C61.7997 13.7565 61.8771 13.8338 61.9336 13.932C61.9902 14.0272 62.0184 14.1314 62.0184 14.2445C62.0184 14.3605 61.9902 14.4676 61.9336 14.5658C61.8771 14.664 61.7997 14.7414 61.7015 14.7979C61.6063 14.8544 61.5022 14.8827 61.3891 14.8827ZM61.3891 14.6863C61.5081 14.6863 61.6078 14.6432 61.6881 14.5569C61.7715 14.4706 61.8131 14.3664 61.8131 14.2445C61.8131 14.1225 61.7715 14.0198 61.6881 13.9365C61.6078 13.8532 61.5081 13.8115 61.3891 13.8115C61.2701 13.8115 61.1689 13.8532 61.0856 13.9365C61.0023 14.0198 60.9606 14.1225 60.9606 14.2445C60.9606 14.3694 61.0008 14.4751 61.0811 14.5613C61.1644 14.6447 61.2671 14.6863 61.3891 14.6863Z" fill="#404040"/>
<path fill-rule="evenodd" clip-rule="evenodd" d="M32.4132 21.1918L32.2733 21.2048L32.2669 21.3823L32.2604 21.562H32.4842C32.6069 21.562 32.8845 21.5685 33.0975 21.5772L33.4892 21.5902V24.0734C33.4892 26.4917 33.4978 27.0178 33.5365 27.0178C33.5452 27.0178 33.6097 26.9745 33.6786 26.9204C33.7776 26.8424 33.8335 26.8165 33.9691 26.7862L34.1348 26.7472V24.1687V21.5902L34.7417 21.5772C35.1936 21.5663 35.3528 21.5555 35.3657 21.536C35.3894 21.4971 35.3873 21.2762 35.3636 21.2394C35.3507 21.2199 35.2883 21.2005 35.2173 21.1918C35.0709 21.1723 32.6198 21.1745 32.4132 21.1918Z" fill="#323232"/>
<path fill-rule="evenodd" clip-rule="evenodd" d="M36.2738 21.1875C36.2308 21.1961 36.2286 21.2091 36.2157 21.8283C36.2071 22.1769 36.2006 22.887 36.2006 23.4066V24.3549H35.7272H35.2538V23.4283C35.2538 22.9195 35.2473 22.3349 35.2387 22.1293L35.2258 21.7569H34.931H34.634L34.6189 22.4324C34.6103 22.8047 34.6082 23.963 34.6125 25.0044L34.6189 26.8988L34.6684 27.0048C34.7287 27.1391 34.7287 27.2062 34.662 27.3642C34.5888 27.5374 34.5931 27.5764 34.6792 27.611C34.8083 27.6652 34.9224 27.6738 35.0493 27.6349C35.2516 27.5764 35.2409 27.6652 35.2495 26.0479L35.2581 24.658H35.7294H36.2006V25.8855C36.2006 26.5632 36.2071 27.2538 36.2157 27.4205L36.2286 27.728L36.3104 27.7539C36.3986 27.7842 36.489 27.7691 36.7064 27.6868L36.8247 27.6435L36.8226 25.0304C36.8204 23.5928 36.8118 22.1401 36.8054 21.8002L36.7924 21.1832L36.5557 21.181C36.4266 21.1788 36.2996 21.181 36.2738 21.1875Z" fill="#323232"/>
<path fill-rule="evenodd" clip-rule="evenodd" d="M31.6211 21.9303C31.3478 21.9693 31.1563 22.071 31.068 22.2204C30.9906 22.3547 30.9712 22.5214 30.9712 23.0323C30.9712 23.8269 30.9755 23.8334 31.875 25.167C32.0945 25.4939 32.1268 25.548 32.2301 25.7797C32.3226 25.9854 32.3313 26.02 32.3485 26.256C32.3592 26.3945 32.37 26.7756 32.37 27.0982C32.37 27.4229 32.3764 27.6892 32.3872 27.6892C32.3958 27.6892 32.5314 27.6697 32.6885 27.6438L32.9747 27.5961L32.9682 26.7821L32.9618 25.968L32.8693 25.7364C32.766 25.4809 32.5744 25.1605 32.1548 24.55C32.0042 24.3291 31.8234 24.0477 31.7567 23.9264L31.6319 23.7035L31.6103 23.0929C31.5888 22.4218 31.5996 22.2984 31.6943 22.2053C31.7545 22.1446 31.8277 22.1252 32.0042 22.1252C32.1742 22.1252 32.2516 22.1576 32.3097 22.2507C32.3571 22.3287 32.3592 22.3482 32.37 23.0604C32.3786 23.6147 32.3872 23.7965 32.4087 23.8182C32.4432 23.8528 32.8822 23.868 32.9295 23.8377C32.9575 23.8182 32.9618 23.7121 32.9682 23.1427C32.9747 22.4326 32.9618 22.2745 32.8865 22.1685C32.8348 22.0949 32.6239 21.9888 32.4561 21.952C32.3033 21.9195 31.7976 21.9065 31.6211 21.9303Z" fill="#323232"/>
<path fill-rule="evenodd" clip-rule="evenodd" d="M38.058 21.9734C37.718 22.021 37.5394 22.112 37.4361 22.2895C37.3801 22.3826 37.3758 22.4172 37.3607 22.7073C37.3521 22.8805 37.3435 24.054 37.3435 25.3118L37.3414 27.6002L37.4124 27.6522C37.5695 27.7734 37.6943 27.7843 37.8751 27.6955L37.9547 27.6565L37.9611 26.3727L37.9654 25.091H38.3528H38.7402V26.377V27.663L38.88 27.754L39.0221 27.847L39.1577 27.7886C39.2351 27.7561 39.3126 27.715 39.3363 27.6998C39.3729 27.6717 39.375 27.5916 39.3815 25.996C39.3901 24.0626 39.3621 22.545 39.3148 22.3674C39.2437 22.099 39.0049 21.9929 38.4066 21.9647C38.2882 21.9604 38.1312 21.9626 38.058 21.9734ZM38.568 22.2094C38.6154 22.2332 38.6584 22.2787 38.6864 22.3328C38.7251 22.4129 38.7273 22.4778 38.7359 23.4889C38.7402 24.0778 38.7359 24.619 38.7251 24.6905L38.7079 24.8204L38.4066 24.8269C38.2409 24.8312 38.073 24.8269 38.0365 24.8204L37.9654 24.8074V23.8721C37.9676 22.8286 37.987 22.4042 38.0365 22.3068C38.1118 22.1596 38.3722 22.112 38.568 22.2094Z" fill="#323232"/>
<path fill-rule="evenodd" clip-rule="evenodd" d="M28.6813 22.9282C28.6749 23.0018 28.6684 23.9219 28.6684 24.972V26.8815L28.8212 26.8967C28.9051 26.9032 29.0299 26.9291 29.0988 26.9529C29.1698 26.9768 29.2365 26.9962 29.2494 26.9962C29.2731 26.9962 29.2817 23.0733 29.258 22.8957L29.243 22.7961H28.9697H28.6964L28.6813 22.9282Z" fill="#323232"/>
<path fill-rule="evenodd" clip-rule="evenodd" d="M29.9015 22.822C29.8692 22.8718 29.8347 26.8641 29.8649 27.0156C29.8821 27.0936 29.9144 27.1001 29.9725 27.0373C30.0349 26.968 30.1274 26.929 30.291 26.9009L30.4438 26.8749L30.4567 26.5718C30.476 26.1756 30.476 23.1035 30.4567 22.9367L30.4438 22.8068L30.1812 22.8004C29.9875 22.796 29.9144 22.8025 29.9015 22.822Z" fill="#323232"/>
<path fill-rule="evenodd" clip-rule="evenodd" d="M39.9132 22.8329C39.9024 22.8546 39.8917 23.5301 39.8852 24.3355L39.8766 25.7968L39.9455 26.1108C40.1025 26.823 40.2704 27.4639 40.3479 27.6522C40.4469 27.8839 40.6771 27.7886 40.6771 27.518C40.6771 27.4509 40.6664 27.3275 40.6535 27.2452C40.5351 26.4333 40.5093 25.9679 40.4878 24.1601L40.4727 22.807L40.2015 22.8005C39.9584 22.7961 39.9282 22.7983 39.9132 22.8329Z" fill="#323232"/>
<path fill-rule="evenodd" clip-rule="evenodd" d="M41.1163 22.8201C41.1077 22.8353 41.0927 23.5216 41.0841 24.3421C41.0754 25.1648 41.0582 25.9312 41.0453 26.0438C40.9872 26.5764 40.9614 26.8384 40.9635 26.899C40.9657 26.9336 40.9592 27.0397 40.9485 27.1328C40.9313 27.3039 40.9313 27.3039 40.9786 27.2779C41.0044 27.2649 41.0754 27.2064 41.1357 27.1523C41.1981 27.096 41.2842 27.0224 41.3294 26.9878C41.3746 26.9531 41.4262 26.8968 41.4434 26.8644C41.4886 26.7756 41.6414 26.0871 41.6672 25.8468C41.6952 25.6087 41.6888 22.8526 41.6608 22.8245C41.65 22.8158 41.5274 22.805 41.3875 22.8007C41.1981 22.7942 41.1292 22.8007 41.1163 22.8201Z" fill="#323232"/>
<path fill-rule="evenodd" clip-rule="evenodd" d="M27.8528 23.6619L27.5644 23.6728L27.3535 24.7444C27.2373 25.3333 27.1383 25.8291 27.1361 25.8464C27.1254 25.9027 27.0823 25.8941 27.0565 25.8334C27.0436 25.801 27.0199 25.6992 27.0027 25.6105C26.9877 25.5217 26.908 25.132 26.8284 24.7444C26.7488 24.3569 26.667 23.9586 26.6476 23.8568L26.6132 23.6728L26.3141 23.6663L26.015 23.6598L26.0279 25.1255C26.0365 25.933 26.0429 26.9614 26.0429 27.4117V28.2301H26.3442H26.6455L26.6476 27.4334C26.6476 26.9961 26.6562 26.589 26.667 26.5306C26.6756 26.47 26.6842 26.4288 26.6864 26.4375C26.7359 26.7016 26.8585 27.3793 26.8693 27.4529C26.893 27.6131 26.9188 27.6347 27.0888 27.6326C27.2072 27.6326 27.2394 27.6239 27.2674 27.5871C27.2911 27.559 27.332 27.3749 27.3858 27.0588C27.431 26.7925 27.4762 26.5587 27.4869 26.5414C27.4977 26.5198 27.5063 26.576 27.5063 26.693C27.5063 26.9874 27.5321 27.2364 27.5601 27.2472C27.5752 27.2537 27.629 27.2299 27.6806 27.1952C27.7323 27.1606 27.8528 27.1 27.9475 27.061C28.0421 27.0199 28.1261 26.9809 28.1368 26.9744C28.1454 26.9679 28.1497 26.2167 28.1476 25.3052L28.1411 23.6511L27.8528 23.6619Z" fill="#323232"/>
<path fill-rule="evenodd" clip-rule="evenodd" d="M42.2354 23.6881C42.2247 23.7032 42.2139 24.4069 42.2096 25.2534L42.201 26.7905L42.2871 26.8403C42.4614 26.9378 42.541 27.0915 42.5216 27.2907C42.5066 27.4335 42.4463 27.5721 42.3172 27.7626C42.2247 27.8969 42.2161 27.9207 42.2161 28.0376C42.2161 28.122 42.2268 28.1761 42.2483 28.1956C42.2849 28.2324 42.5819 28.2454 43.1694 28.2346L43.518 28.2303V28.0701V27.912L43.2124 27.8969C43.0446 27.8882 42.9025 27.8774 42.8982 27.8752C42.8939 27.8709 42.8853 27.4487 42.8789 26.9378L42.866 26.0068L43.0661 25.9938C43.1758 25.9852 43.3071 25.9787 43.3566 25.9787C43.4642 25.9787 43.4771 25.9527 43.4599 25.7708L43.447 25.6539H43.1608H42.8724V24.8334C42.8724 24.2748 42.8789 24.0063 42.8961 23.9977C42.909 23.989 43.0467 23.976 43.2017 23.9695L43.4857 23.9544V23.8137V23.6729L42.8681 23.6664C42.3925 23.6621 42.2483 23.6686 42.2354 23.6881Z" fill="#323232"/>
<path fill-rule="evenodd" clip-rule="evenodd" d="M30.9689 26.1867C30.9409 26.2603 30.9603 27.0311 30.9947 27.1934C31.0098 27.2584 31.0076 27.3233 30.9947 27.3883C30.9624 27.5204 30.9667 27.6308 31.0012 27.6784C31.0292 27.7174 31.0356 27.7174 31.2637 27.6697C31.3928 27.6416 31.5198 27.6156 31.5478 27.6091L31.5973 27.5983L31.5908 26.8882C31.5865 26.4963 31.5758 26.1694 31.5672 26.1607C31.5585 26.1499 31.4251 26.1391 31.2723 26.1348L30.9926 26.1261L30.9689 26.1867Z" fill="#323232"/>
<path fill-rule="evenodd" clip-rule="evenodd" d="M34.005 27.1068C33.9232 27.1392 33.8199 27.2497 33.6994 27.4293C33.5961 27.5852 33.254 28.0355 33.2389 28.0355C33.2367 28.0355 33.198 28.0139 33.155 27.9901C33.084 27.9468 33.0538 27.9446 32.8688 27.9554C32.5008 27.9749 32.2727 28.094 31.9111 28.4512C31.612 28.7478 31.3473 28.921 31.2913 28.8647C31.2763 28.8496 31.3258 28.7738 31.4377 28.6418C31.7777 28.2347 31.7777 28.2347 31.7626 28.1092C31.7583 28.068 31.7325 28.0312 31.6809 27.9966C31.5754 27.9251 31.4205 27.9403 31.1816 28.0464C31.0826 28.0897 30.9901 28.1308 30.9771 28.1373C30.9621 28.1438 30.9406 28.1243 30.9298 28.094C30.8803 27.9641 30.7232 27.9663 30.6027 28.0962C30.5618 28.1395 30.4714 28.2477 30.4026 28.3343C30.1917 28.6028 29.8237 28.8886 29.6515 28.9167C29.4256 28.9535 29.587 28.6374 30.1637 27.9165C30.5855 27.3882 30.6414 27.2886 30.5424 27.2345C30.4736 27.1999 30.3208 27.2085 30.2455 27.254C30.2089 27.2778 30.0625 27.4402 29.9205 27.6177C29.6365 27.9728 29.234 28.3776 28.9758 28.5703C28.6853 28.7868 28.3302 28.9275 28.2484 28.8583C28.1559 28.7825 28.2678 28.5963 28.752 28.0182C28.8746 27.871 29.0059 27.7 29.0468 27.6394C29.1264 27.5159 29.1415 27.4055 29.0877 27.3276C29.0081 27.2128 28.6745 27.1804 28.3754 27.2561C27.9579 27.3622 27.691 27.5896 27.8567 27.7C27.9256 27.7433 28.0181 27.7151 28.2764 27.5679C28.4873 27.451 28.6982 27.386 28.7391 27.4272C28.767 27.4553 28.6465 27.6112 28.3237 27.9598C27.917 28.3971 27.79 28.6158 27.8137 28.8323C27.8309 28.9946 28.016 29.1375 28.2075 29.1397C28.4184 29.1397 28.7262 28.9968 28.9672 28.7825C29.0554 28.7045 29.1393 28.6418 29.1566 28.6418C29.191 28.6418 29.191 28.6374 29.1523 28.7478C29.1135 28.8604 29.1415 28.9492 29.2469 29.0379C29.3868 29.1549 29.5762 29.1635 29.8043 29.0618C29.9377 29.0011 30.0131 28.9946 30.0324 29.0423C30.041 29.0639 30.0755 29.0748 30.14 29.0748C30.2347 29.0748 30.239 29.0726 30.3918 28.8842C30.6113 28.6158 30.7469 28.4794 30.8954 28.3711C31.2461 28.1178 31.4979 28.0897 31.3215 28.3235C31.287 28.3668 31.1988 28.4707 31.1235 28.5573C30.9169 28.7933 30.8739 28.9427 30.9836 29.0293C31.0309 29.0661 31.0718 29.0748 31.201 29.0748C31.3688 29.0748 31.4226 29.0553 31.6314 28.9232C31.6873 28.8864 31.7454 28.8583 31.7605 28.8583C31.7755 28.8583 31.8057 28.8951 31.8293 28.9427C31.881 29.0444 31.9649 29.0812 32.1328 29.0812C32.2834 29.0791 32.4276 29.0185 32.5675 28.8994C32.6234 28.8539 32.6772 28.815 32.6901 28.815C32.7031 28.815 32.7138 28.8453 32.7138 28.8821C32.7138 28.9254 32.7353 28.9687 32.7762 29.012C32.83 29.0661 32.8558 29.0748 32.9548 29.0748C33.0904 29.0748 33.2518 29.0055 33.4197 28.8756C33.4821 28.8279 33.538 28.7933 33.5445 28.7998C33.5509 28.8063 33.5725 28.8431 33.594 28.8842C33.6155 28.9232 33.6779 28.9882 33.7339 29.025C33.8242 29.0877 33.8565 29.0964 33.9727 29.0964C34.1621 29.0964 34.3149 29.0618 34.4785 28.986C34.67 28.8972 34.7969 28.7933 35.1456 28.4577C35.3758 28.2326 35.4598 28.1655 35.5179 28.1546C35.6814 28.1221 35.675 28.1438 35.4469 28.4036C35.1004 28.7933 35.0401 28.9319 35.1692 29.0401C35.3005 29.1505 35.5738 29.1007 35.8493 28.9167C35.9289 28.8626 36.0085 28.815 36.0214 28.8106C36.0365 28.8063 36.0645 28.8388 36.086 28.8799C36.2151 29.1332 36.5853 29.1635 36.9963 28.9557C37.0738 28.9167 37.1512 28.8691 37.1663 28.8496C37.2093 28.7976 37.2266 28.8041 37.3643 28.9319C37.5171 29.0748 37.5989 29.1051 37.8011 29.0921C38.0013 29.0791 38.1476 29.0076 38.3607 28.8193C38.5737 28.6353 38.7179 28.5292 38.748 28.54C38.7631 28.5443 38.7695 28.6071 38.7652 28.7089C38.7545 28.9773 38.8341 29.0748 39.0644 29.0748C39.2473 29.0748 39.3786 29.025 39.5227 28.9037C39.5938 28.8431 39.6583 28.7998 39.6691 28.8063C39.6777 28.8128 39.6863 28.8518 39.6863 28.8929C39.6863 29.0141 39.7638 29.0748 39.9166 29.0748C40.0564 29.0748 40.1576 29.0336 40.3211 28.9145C40.3792 28.8712 40.4416 28.8366 40.4567 28.8366C40.4696 28.8366 40.4997 28.8777 40.5191 28.9254C40.6009 29.1354 40.9323 29.1527 41.2056 28.9643C41.3519 28.8647 41.7156 28.4989 41.7049 28.4642C41.6812 28.3928 41.6037 28.4296 41.3735 28.6136C41.1281 28.815 41.0356 28.8669 40.9517 28.8539C40.9086 28.8474 40.9022 28.8366 40.9043 28.7457C40.9043 28.6136 40.9603 28.5357 41.1669 28.3711C41.6037 28.0247 41.976 27.6394 42.0686 27.4358C42.1417 27.2778 42.131 27.1501 42.0449 27.1068C41.9631 27.0678 41.7759 27.1046 41.6554 27.1847C41.4143 27.3471 40.8914 27.9489 40.6762 28.317C40.5729 28.4902 40.4416 28.6288 40.2738 28.7413C40.1296 28.8388 40.0349 28.8712 40.0048 28.8409C39.9725 28.8085 40.0435 28.7045 40.2458 28.4794C40.3297 28.3841 40.4158 28.2737 40.4352 28.2347C40.4696 28.1655 40.4675 28.159 40.433 28.133C40.4115 28.1178 40.3577 28.1005 40.3125 28.0918C40.2652 28.0853 40.1985 28.055 40.164 28.0247C40.0371 27.9186 39.781 27.9143 39.484 28.0139C39.4022 28.0399 39.2559 28.1221 39.1139 28.2196C38.7954 28.4426 38.7351 28.4382 38.7114 28.2001C38.6964 28.0485 38.6447 27.9814 38.5156 27.9468C38.2143 27.8645 37.7129 28.081 37.4009 28.4274C37.1835 28.6677 36.893 28.8474 36.6735 28.8734C36.596 28.8821 36.5659 28.8756 36.5185 28.8366C36.4432 28.7781 36.4432 28.724 36.5207 28.5876C36.6391 28.3798 36.9253 28.1308 37.0716 28.107C37.1663 28.0918 37.1706 28.1286 37.0931 28.2434C37.0243 28.343 37.0329 28.369 37.1297 28.3776C37.1921 28.382 37.2223 28.3711 37.2868 28.3148C37.4461 28.1741 37.4504 28.0724 37.2976 27.9836C37.1426 27.8905 36.8134 27.949 36.5401 28.1157C36.4712 28.1568 36.2969 28.304 36.1527 28.4404C35.8105 28.7673 35.5695 28.9254 35.5071 28.8626C35.4791 28.8344 35.6018 28.6656 35.8364 28.4166C36.0516 28.1871 36.1032 28.1092 36.0795 28.0464C36.0602 27.9966 35.9784 27.9858 35.746 28.0009C35.5415 28.0161 35.5329 28.0139 35.5329 27.9728C35.5329 27.9489 35.5093 27.9121 35.4791 27.8927C35.3414 27.8017 35.0616 27.9944 35.1413 28.1243C35.1843 28.1914 35.1714 28.2239 35.0466 28.3581C34.8852 28.5357 34.698 28.6742 34.4806 28.7803C34.1643 28.9319 33.9512 28.8951 33.9512 28.6872C33.9512 28.6396 33.9598 28.5941 33.9684 28.5855C33.977 28.5768 34.0889 28.5616 34.2159 28.553C34.5624 28.527 34.7518 28.4512 34.8551 28.2997C34.9304 28.1893 34.9239 28.12 34.8335 28.0377C34.698 27.9186 34.5215 27.9035 34.2396 27.9922C34.0696 28.0442 33.9512 28.133 33.6026 28.4707C33.2733 28.789 33.1227 28.8907 33.0667 28.8323C33.0388 28.8063 33.0474 28.7846 33.1184 28.6721C33.2002 28.5465 33.4735 28.2109 33.9039 27.7108C34.2977 27.254 34.3709 27.1262 34.2589 27.0959C34.1879 27.0765 34.0674 27.0829 34.005 27.1068ZM41.9244 27.3492C41.9244 27.4423 41.3089 28.1438 41.2271 28.1438C41.1755 28.1438 41.537 27.648 41.7328 27.4532C41.8598 27.3254 41.9244 27.2908 41.9244 27.3492ZM33.0667 28.1135C33.1399 28.1416 33.099 28.2174 32.9032 28.4123C32.688 28.6266 32.5115 28.7543 32.3415 28.8193C32.1564 28.8907 32.0983 28.8171 32.2102 28.6504C32.3587 28.4253 32.6428 28.2131 32.8967 28.1308C32.9979 28.0983 33.0215 28.0962 33.0667 28.1135ZM34.6592 28.1351C34.7087 28.1828 34.7023 28.2131 34.6334 28.2802C34.5516 28.3581 34.4117 28.4036 34.246 28.4036H34.1062L34.1557 28.3495C34.2224 28.278 34.4053 28.1568 34.4892 28.1265C34.5817 28.094 34.6205 28.0962 34.6592 28.1351ZM38.4919 28.1395C38.4919 28.1546 38.4532 28.1893 38.408 28.2152C38.3047 28.2737 38.238 28.3603 38.2574 28.4101C38.2638 28.4317 38.2983 28.4621 38.3327 28.4815C38.3671 28.4989 38.3951 28.527 38.3951 28.5443C38.3951 28.5855 38.2918 28.6612 38.0938 28.7673C37.8506 28.8994 37.7237 28.908 37.6656 28.7955C37.5859 28.6482 37.9453 28.2629 38.2724 28.1416C38.3951 28.0962 38.4919 28.0962 38.4919 28.1395ZM40.0048 28.1135C40.0693 28.133 40.065 28.1828 39.9833 28.2932C39.8133 28.5248 39.2882 28.8864 39.172 28.8474C38.9847 28.789 39.4367 28.2889 39.8133 28.1416C39.9252 28.0983 39.9359 28.0962 40.0048 28.1135Z" fill="#323232"/>
<path fill-rule="evenodd" clip-rule="evenodd" d="M27.5428 27.9641C27.519 27.9858 27.5255 28.2044 27.5493 28.2196C27.5731 28.2348 27.7225 28.0984 27.7225 28.0616C27.7225 28.0334 27.6164 27.949 27.5817 27.949C27.5688 27.949 27.5493 27.9555 27.5428 27.9641Z" fill="#323232"/>
<path fill-rule="evenodd" clip-rule="evenodd" d="M26.0254 28.6027L26.0319 28.6742L26.5936 28.6807C27.2112 28.6872 27.3704 28.6742 27.407 28.6136C27.4242 28.5832 27.4242 28.5703 27.3984 28.5551C27.379 28.5421 27.0842 28.5334 26.6926 28.5334H26.019L26.0254 28.6027Z" fill="#323232"/>
<path fill-rule="evenodd" clip-rule="evenodd" d="M42.1489 28.5551C42.1016 28.5746 42.065 28.6374 42.0886 28.6612C42.0951 28.6677 42.4222 28.6742 42.8139 28.6742H43.5283L43.5348 28.6027L43.5412 28.5334L42.8677 28.5356C42.4975 28.5356 42.1747 28.5443 42.1489 28.5551Z" fill="#323232"/>
<path fill-rule="evenodd" clip-rule="evenodd" d="M27.0477 29.423C26.8024 29.4945 26.7206 29.8019 26.9036 29.9773C27.0693 30.1332 27.3878 30.1288 27.5276 29.9708C27.6589 29.8214 27.6309 29.5919 27.4717 29.4793C27.3705 29.4079 27.1876 29.3841 27.0477 29.423ZM27.3749 29.5464C27.405 29.5681 27.4437 29.6222 27.4566 29.6655C27.5319 29.8928 27.2673 30.0964 27.0671 29.9643C26.9832 29.908 26.9488 29.8409 26.9466 29.7283C26.9466 29.6547 26.9595 29.6244 27.0069 29.5789C27.0391 29.5486 27.0843 29.5161 27.108 29.5053C27.1726 29.4772 27.3124 29.4988 27.3749 29.5464Z" fill="#323232"/>
<path fill-rule="evenodd" clip-rule="evenodd" d="M28.7196 29.4212C28.6572 29.4472 28.5819 29.5468 28.5819 29.6053C28.5819 29.6854 28.6765 29.759 28.7971 29.7741C28.9197 29.7893 29.0467 29.8434 29.0639 29.8889C29.0704 29.9062 29.0553 29.9408 29.0316 29.9646C28.9671 30.0296 28.8057 30.0123 28.7002 29.9322C28.5819 29.8412 28.5022 29.8997 28.6098 30.0015C28.7863 30.1682 29.2059 30.0924 29.2059 29.8932C29.2059 29.8607 29.1866 29.8131 29.1651 29.7914C29.1285 29.7546 28.9369 29.681 28.8767 29.681C28.8315 29.681 28.711 29.6096 28.711 29.5814C28.711 29.5381 28.7992 29.4862 28.8745 29.4862C28.9111 29.4862 28.9778 29.51 29.0209 29.5403C29.1069 29.5988 29.1844 29.6118 29.1844 29.5663C29.1844 29.4559 28.8724 29.3584 28.7196 29.4212Z" fill="#323232"/>
<path fill-rule="evenodd" clip-rule="evenodd" d="M33.2696 29.4187C33.0222 29.4988 32.9296 29.724 33.0566 29.9318C33.1319 30.0574 33.3622 30.1223 33.5516 30.0704C33.8335 29.9946 33.9023 29.6438 33.6699 29.4793C33.5731 29.4122 33.3816 29.384 33.2696 29.4187ZM33.5666 29.5399C33.6398 29.5876 33.6893 29.711 33.6742 29.7997C33.6656 29.8365 33.6312 29.8972 33.5946 29.9318C33.5386 29.9859 33.5128 29.9946 33.4138 29.9946C33.2718 29.9946 33.19 29.9405 33.147 29.817C33.119 29.7391 33.1212 29.724 33.1577 29.646C33.2309 29.4945 33.4224 29.4447 33.5666 29.5399Z" fill="#323232"/>
<path fill-rule="evenodd" clip-rule="evenodd" d="M34.1627 29.4386C34.0228 29.4949 33.9668 29.5555 33.9518 29.6681C33.9281 29.8218 33.9539 29.9063 34.0486 29.9907C34.1734 30.1055 34.3994 30.1249 34.5672 30.0362C34.6576 29.9907 34.7394 29.8543 34.7415 29.7526C34.7437 29.5988 34.6619 29.4884 34.5027 29.4321C34.3843 29.391 34.2767 29.3932 34.1627 29.4386ZM34.4725 29.5296C34.6275 29.6248 34.6512 29.798 34.5263 29.9236C34.3692 30.0838 34.0701 29.9864 34.0701 29.7742C34.0701 29.5555 34.2939 29.4192 34.4725 29.5296Z" fill="#323232"/>
<path fill-rule="evenodd" clip-rule="evenodd" d="M38.6885 29.4212C38.5508 29.4645 38.4497 29.6312 38.4669 29.7849C38.4798 29.9062 38.5357 29.982 38.6541 30.0426C38.8284 30.1335 39.0651 30.0924 39.1921 29.9516C39.2394 29.9018 39.2459 29.8737 39.2459 29.7503C39.2437 29.5771 39.205 29.5057 39.0888 29.458C38.9855 29.4169 38.7682 29.3974 38.6885 29.4212ZM39.0006 29.536C39.0415 29.5619 39.091 29.6204 39.1125 29.6659C39.1512 29.7438 39.1512 29.7481 39.1125 29.8261C39.0608 29.9322 38.9511 30.0058 38.8413 30.0058C38.7725 30.0058 38.7423 29.9906 38.6735 29.9213C38.6068 29.8542 38.5895 29.8217 38.5895 29.7568C38.5895 29.5403 38.822 29.4147 39.0006 29.536Z" fill="#323232"/>
<path fill-rule="evenodd" clip-rule="evenodd" d="M41.2303 29.4301C41.1184 29.4712 41.0732 29.5167 41.0301 29.6292C40.9441 29.8587 41.1184 30.0926 41.3766 30.0926C41.4971 30.0926 41.637 30.0233 41.6865 29.9388C41.764 29.8111 41.6973 29.796 41.5638 29.9107C41.5036 29.9605 41.4433 29.993 41.3874 29.9995C41.3121 30.0103 41.2948 30.0038 41.2281 29.9367C41.1012 29.8089 41.099 29.6855 41.226 29.5578C41.3185 29.4647 41.3895 29.4647 41.538 29.5621C41.6671 29.6466 41.7188 29.6357 41.6671 29.5383C41.6069 29.4279 41.3852 29.3716 41.2303 29.4301Z" fill="#323232"/>
<path fill-rule="evenodd" clip-rule="evenodd" d="M42.1276 29.4147C42.0523 29.4298 41.9081 29.5662 41.8823 29.6506C41.8522 29.7437 41.8651 29.8325 41.9297 29.9364C41.9899 30.0339 42.1169 30.0901 42.2783 30.0923C42.3988 30.0923 42.4074 30.088 42.4999 29.9949C42.5537 29.9429 42.5925 29.8866 42.5882 29.8715C42.571 29.8195 42.5129 29.8303 42.4504 29.8931C42.3321 30.01 42.2525 30.0317 42.1406 29.9732C42.0114 29.9061 41.9727 29.7221 42.0609 29.5922C42.147 29.4623 42.2503 29.4623 42.4569 29.5965C42.5236 29.6377 42.5279 29.6398 42.543 29.6052C42.586 29.4883 42.3364 29.3735 42.1276 29.4147Z" fill="#323232"/>
<path fill-rule="evenodd" clip-rule="evenodd" d="M42.9778 29.4186C42.797 29.477 42.7324 29.5874 42.741 29.8147C42.7432 29.8927 42.84 30.0031 42.9476 30.0507C43.1392 30.1395 43.4318 30.0659 43.505 29.91C43.5803 29.752 43.5308 29.5679 43.3909 29.4748C43.2963 29.4121 43.0854 29.3839 42.9778 29.4186ZM43.2833 29.5311C43.3458 29.5549 43.4103 29.674 43.4103 29.765C43.4103 29.8862 43.2661 30.0053 43.1198 30.0053C43.0638 30.0053 43.023 29.9858 42.9627 29.9317C42.8895 29.8624 42.8831 29.8472 42.8831 29.739C42.8831 29.6524 42.8938 29.6069 42.924 29.5744C42.9993 29.49 43.137 29.4748 43.2833 29.5311Z" fill="#323232"/>
<path fill-rule="evenodd" clip-rule="evenodd" d="M26.069 29.447C26.0755 29.4622 26.1185 29.4773 26.1659 29.4816C26.2154 29.486 26.267 29.5033 26.2821 29.5206C26.2993 29.5423 26.3143 29.6483 26.3186 29.8129C26.3273 30.0359 26.3337 30.0705 26.3638 30.0705C26.437 30.0705 26.4521 30.0229 26.4521 29.7999C26.4521 29.5336 26.4757 29.486 26.6027 29.4925C26.6931 29.4946 26.7232 29.4816 26.6996 29.4448C26.678 29.408 26.0583 29.4124 26.069 29.447Z" fill="#323232"/>
<path fill-rule="evenodd" clip-rule="evenodd" d="M28.0052 29.4709C27.9579 29.5228 27.7793 29.9039 27.7534 30.0099C27.7405 30.0619 27.7448 30.0706 27.7814 30.0706C27.8245 30.0706 27.8653 30.0338 27.9041 29.9537C27.9235 29.9147 27.9471 29.9082 28.0805 29.9017L28.2355 29.8952L28.2656 29.9666C28.3194 30.0944 28.4098 30.129 28.4098 30.0208C28.4098 29.958 28.2204 29.5207 28.1688 29.4644C28.115 29.4081 28.0612 29.4102 28.0052 29.4709ZM28.143 29.6938C28.1602 29.7869 28.1322 29.8216 28.0569 29.8021C27.9923 29.7869 27.9837 29.735 28.0354 29.6635C28.0849 29.5921 28.1257 29.6051 28.143 29.6938Z" fill="#323232"/>
<path fill-rule="evenodd" clip-rule="evenodd" d="M29.3396 29.4472C29.3461 29.4624 29.3633 29.4776 29.3805 29.4797C29.3977 29.4819 29.4472 29.4884 29.4924 29.497L29.572 29.51V29.6464C29.572 29.8781 29.5979 30.0513 29.6323 30.0664C29.6904 30.0881 29.7184 30.008 29.7334 29.7568L29.7485 29.51L29.826 29.497C29.8712 29.4884 29.9185 29.4819 29.9357 29.4797C29.9529 29.4776 29.9702 29.4624 29.9766 29.4472C29.9831 29.4278 29.9099 29.4213 29.6581 29.4213C29.4063 29.4213 29.3332 29.4278 29.3396 29.4472Z" fill="#323232"/>
<path fill-rule="evenodd" clip-rule="evenodd" d="M30.2154 29.4364C30.1444 29.4473 30.1315 29.5014 30.1315 29.7785C30.1315 30.0729 30.1401 30.0816 30.4715 30.0816C30.6135 30.0816 30.7383 30.0729 30.7469 30.0643C30.7792 30.034 30.7061 30.0058 30.592 30.0058C30.5317 30.0058 30.4371 29.9993 30.3811 29.9928L30.2821 29.9777V29.8867V29.7958L30.4779 29.7828C30.5877 29.7763 30.6845 29.7612 30.6974 29.7482C30.7297 29.7157 30.6221 29.6811 30.4844 29.6811C30.3381 29.6811 30.2821 29.6529 30.2821 29.5815C30.2821 29.5122 30.3488 29.4862 30.5296 29.4862C30.6781 29.4862 30.7405 29.4711 30.7211 29.4408C30.7104 29.4213 30.3295 29.4191 30.2154 29.4364Z" fill="#323232"/>
<path fill-rule="evenodd" clip-rule="evenodd" d="M30.9904 29.4364C30.9624 29.4429 30.9538 29.4819 30.9452 29.6334C30.9409 29.7374 30.9409 29.8738 30.9452 29.9365C30.9538 30.0383 30.9602 30.0556 31.0119 30.0751C31.0894 30.1054 31.3541 30.0859 31.438 30.0426C31.5994 29.9582 31.664 29.7374 31.5736 29.575C31.5047 29.4537 31.4251 29.4213 31.2034 29.4234C31.1066 29.4256 31.0097 29.4299 30.9904 29.4364ZM31.3368 29.5079C31.4337 29.5339 31.4875 29.6226 31.4875 29.7568C31.4875 29.8391 31.4767 29.8694 31.4272 29.9192C31.3605 29.9842 31.2422 30.0188 31.1561 29.9972C31.1173 29.9885 31.1023 29.9647 31.0915 29.9041C31.07 29.7655 31.0765 29.5403 31.1044 29.5122C31.1367 29.4797 31.2336 29.4797 31.3368 29.5079Z" fill="#323232"/>
<path fill-rule="evenodd" clip-rule="evenodd" d="M32.2022 29.4407C32.1592 29.4667 32.1743 30.0426 32.2194 30.0707C32.2732 30.1032 32.3034 30.0512 32.3098 29.9127L32.3163 29.7784L32.4992 29.7871C32.6025 29.7914 32.6886 29.8044 32.6972 29.8196C32.7058 29.8326 32.7144 29.8715 32.7144 29.9083C32.7144 30.0058 32.7381 30.0707 32.7704 30.0707C32.8112 30.0707 32.8242 29.9625 32.8177 29.681C32.8112 29.4494 32.8091 29.432 32.7682 29.432C32.7338 29.432 32.723 29.4515 32.7123 29.536C32.7058 29.5944 32.6864 29.6507 32.6692 29.6615C32.6542 29.6723 32.5681 29.681 32.4841 29.681H32.327V29.6074C32.327 29.4602 32.2754 29.3931 32.2022 29.4407Z" fill="#323232"/>
<path fill-rule="evenodd" clip-rule="evenodd" d="M35.3936 29.4472C35.37 29.4602 35.2882 29.5209 35.2129 29.5771C35.0601 29.6962 35.0386 29.6919 35.0192 29.5468C35.0106 29.4819 34.9955 29.4516 34.9697 29.4472C34.9353 29.4407 34.931 29.4667 34.931 29.7417C34.931 29.9062 34.9374 30.0491 34.946 30.0556C34.9719 30.0816 35.0149 30.0231 35.03 29.943C35.045 29.8543 35.0924 29.7677 35.1268 29.7677C35.1397 29.7677 35.2215 29.8348 35.3054 29.9192C35.4539 30.0621 35.5142 30.0967 35.5443 30.0513C35.5507 30.0383 35.4926 29.9582 35.4152 29.8673C35.3377 29.7785 35.2753 29.6962 35.2753 29.6832C35.2753 29.6724 35.3334 29.6161 35.4044 29.562C35.5292 29.4646 35.5507 29.4213 35.4733 29.4213C35.4539 29.4213 35.4173 29.4343 35.3936 29.4472Z" fill="#323232"/>
<path fill-rule="evenodd" clip-rule="evenodd" d="M35.9337 29.4601C35.8842 29.5185 35.6841 29.9645 35.6841 30.0208C35.6841 30.1096 35.796 30.0663 35.8304 29.9623C35.8541 29.8995 35.8584 29.8974 35.994 29.8974C36.1081 29.8974 36.1446 29.906 36.1791 29.9407C36.2027 29.9645 36.2221 29.9991 36.2221 30.0165C36.2221 30.0533 36.2845 30.0901 36.3254 30.0771C36.3383 30.0706 36.3512 30.0511 36.3512 30.0316C36.3512 29.9753 36.1188 29.4795 36.0779 29.4471C36.0263 29.4103 35.9768 29.4146 35.9337 29.4601ZM36.0758 29.683C36.0973 29.7567 36.0951 29.774 36.0693 29.7913C36.0263 29.8173 36.0005 29.8151 35.9531 29.7826C35.9165 29.7545 35.9165 29.7502 35.9639 29.6636C35.9918 29.6138 36.022 29.5791 36.0306 29.5856C36.0413 29.5921 36.0607 29.6354 36.0758 29.683Z" fill="#323232"/>
<path fill-rule="evenodd" clip-rule="evenodd" d="M36.5384 29.4364C36.5298 29.4429 36.5233 29.5857 36.5233 29.7503C36.5233 30.0036 36.5276 30.0534 36.5578 30.0642C36.6094 30.0837 36.6374 30.0382 36.6482 29.9083L36.6568 29.7893H36.7687C36.8289 29.7893 36.9129 29.7828 36.9559 29.7763L37.0334 29.7633L37.0441 29.9083C37.0592 30.0837 37.0829 30.114 37.1474 30.0491C37.1926 30.0036 37.1948 29.9863 37.1862 29.7416C37.1776 29.5186 37.1711 29.4775 37.1367 29.4515C37.0786 29.4082 37.0441 29.4494 37.0355 29.5684L37.0291 29.6702H36.8461H36.6632L36.6525 29.5728C36.646 29.5186 36.6331 29.4623 36.6245 29.4472C36.6051 29.419 36.5599 29.4125 36.5384 29.4364Z" fill="#323232"/>
<path fill-rule="evenodd" clip-rule="evenodd" d="M37.69 29.447C37.6964 29.4622 37.7502 29.4795 37.8105 29.486C37.8707 29.4925 37.9267 29.5055 37.9374 29.5163C37.946 29.5249 37.959 29.644 37.9611 29.7782C37.9676 29.9536 37.9783 30.0315 37.9977 30.0489C38.0515 30.0943 38.0666 30.0532 38.0795 29.8129C38.0945 29.5206 38.1096 29.4881 38.2237 29.4925C38.314 29.4946 38.3442 29.4816 38.3205 29.4448C38.299 29.408 37.6792 29.4124 37.69 29.447Z" fill="#323232"/>
<path fill-rule="evenodd" clip-rule="evenodd" d="M39.4288 29.7092C39.4288 30.0794 39.4352 30.0924 39.6504 30.0924C39.7365 30.0924 39.8377 30.0838 39.8785 30.0708C40.0356 30.0253 40.0959 29.8976 40.0163 29.7763C39.9861 29.7287 39.984 29.7092 40.0077 29.6464C40.0378 29.5642 40.0184 29.51 39.9409 29.4559C39.9044 29.4299 39.8355 29.4213 39.6612 29.4213H39.4288V29.7092ZM39.8054 29.5165C39.8828 29.5512 39.9044 29.6053 39.8549 29.6551C39.829 29.6811 39.6504 29.6897 39.5923 29.6681C39.5514 29.6529 39.5471 29.549 39.5837 29.5122C39.6181 29.4776 39.715 29.4797 39.8054 29.5165ZM39.8979 29.8261C39.9345 29.8759 39.9302 29.9062 39.8828 29.9495C39.829 29.9972 39.6935 30.0166 39.6181 29.9863C39.5687 29.9668 39.5579 29.9495 39.5579 29.8867C39.5579 29.8283 39.5687 29.8045 39.6074 29.7893C39.6763 29.759 39.8635 29.785 39.8979 29.8261Z" fill="#323232"/>
<path fill-rule="evenodd" clip-rule="evenodd" d="M40.4769 29.4472C40.4209 29.4905 40.1756 30.0296 40.2014 30.0556C40.2337 30.0881 40.2875 30.0577 40.3348 29.9733C40.38 29.8975 40.3822 29.8975 40.5285 29.8975C40.6706 29.8975 40.677 29.8997 40.7093 29.9603C40.7523 30.0469 40.8277 30.0989 40.8621 30.0686C40.8944 30.0404 40.875 29.9798 40.7351 29.6767C40.6254 29.4386 40.563 29.3844 40.4769 29.4472ZM40.5866 29.7092C40.5952 29.8001 40.5587 29.8283 40.4855 29.7893C40.4295 29.759 40.4295 29.7438 40.4855 29.6724C40.5436 29.5966 40.578 29.6096 40.5866 29.7092Z" fill="#323232"/>
</svg>
