<svg width="96" height="51" viewBox="0 0 96 51" fill="none" xmlns="http://www.w3.org/2000/svg">
<path d="M59.433 41.9362C56.0424 44.8843 51.7823 46.6764 47.2632 47.0556C42.7441 47.4347 38.1981 46.3815 34.2768 44.0469C30.3554 41.7123 27.26 38.2161 25.4341 34.0594C23.6083 29.9027 23.1457 25.299 24.1128 20.9079L31.4672 22.6118C30.8386 25.466 31.1392 28.4584 32.326 31.1602C33.5128 33.8621 35.5249 36.1346 38.0738 37.6521C40.6227 39.1696 43.5775 39.8542 46.5149 39.6078C49.4523 39.3613 52.2214 38.1965 54.4253 36.2802L59.433 41.9362Z" fill="#33FF00"/>
<path d="M66.1379 30.6442C65.1708 35.0353 62.8237 38.9881 59.4331 41.9362L54.4254 36.2802C56.6293 34.3639 58.1549 31.7945 58.7835 28.9404L66.1379 30.6442Z" fill="#00FFF0"/>
<path d="M42.9874 4.49661C46.3644 4.21327 49.7733 4.72872 52.9355 6.00082C56.0976 7.27292 58.9231 9.26554 61.181 11.8158C63.4389 14.366 65.0651 17.4015 65.9266 20.6739C66.7881 23.9464 66.8605 27.3629 66.1378 30.6443L58.7834 28.9404C59.2532 26.8075 59.2061 24.5868 58.6461 22.4597C58.0862 20.3326 57.0291 18.3595 55.5615 16.7019C54.0939 15.0442 52.2573 13.749 50.2019 12.9222C48.1465 12.0953 45.9307 11.7603 43.7357 11.9444L42.9874 4.49661Z" fill="#42FF00"/>
<path d="M24.1128 20.9079C25.0799 16.5169 27.427 12.5641 30.8176 9.61597C34.2082 6.66784 38.4683 4.87577 42.9874 4.49661L43.7357 11.9444C40.7983 12.1909 38.0292 13.3557 35.8253 15.272C33.6214 17.1883 32.0958 19.7576 31.4672 22.6118L24.1128 20.9079Z" fill="#00C820"/>
<path d="M29.8687 39.0444L27.3236 42.2617H16.7797" stroke="black" stroke-width="0.145684"/>
<path d="M29.1422 12.7401L26.6002 9.47681H16.0691" stroke="black" stroke-width="0.145684"/>
<path d="M62.0574 37.2646L64.5994 40.5278H75.1305" stroke="black" stroke-width="0.145684"/>
<path d="M58.2702 12.7401L60.8122 9.47681H71.3433" stroke="black" stroke-width="0.145684"/>
<path d="M7.12426 6.00396C7.12426 6.03074 7.11087 6.04413 7.08409 6.04413H5.88303C5.87232 6.04413 5.86696 6.04948 5.86696 6.06019V7.0564C5.86696 7.06711 5.87232 7.07246 5.88303 7.07246H6.69043C6.71721 7.07246 6.7306 7.08585 6.7306 7.11263V7.28134C6.7306 7.30812 6.71721 7.32151 6.69043 7.32151H5.88303C5.87232 7.32151 5.86696 7.32687 5.86696 7.33758V8.56676C5.86696 8.59354 5.85357 8.60693 5.82679 8.60693H5.62193C5.59515 8.60693 5.58176 8.59354 5.58176 8.56676V5.83525C5.58176 5.80847 5.59515 5.79508 5.62193 5.79508H7.08409C7.11087 5.79508 7.12426 5.80847 7.12426 5.83525V6.00396ZM9.08183 6.00396C9.08183 6.03074 9.06844 6.04413 9.04166 6.04413H7.83658C7.82587 6.04413 7.82051 6.04948 7.82051 6.06019V7.0564C7.82051 7.06711 7.82587 7.07246 7.83658 7.07246H8.648C8.67478 7.07246 8.68817 7.08585 8.68817 7.11263V7.28134C8.68817 7.30812 8.67478 7.32151 8.648 7.32151H7.83658C7.82587 7.32151 7.82051 7.32687 7.82051 7.33758V8.34182C7.82051 8.35253 7.82587 8.35788 7.83658 8.35788H9.04166C9.06844 8.35788 9.08183 8.37127 9.08183 8.39805V8.56676C9.08183 8.59354 9.06844 8.60693 9.04166 8.60693H7.57548C7.5487 8.60693 7.53531 8.59354 7.53531 8.56676V5.83525C7.53531 5.80847 7.5487 5.79508 7.57548 5.79508H9.04166C9.06844 5.79508 9.08183 5.80847 9.08183 5.83525V6.00396ZM9.65063 8.60693C9.62386 8.60693 9.61047 8.59354 9.61047 8.56676V5.83525C9.61047 5.80847 9.62386 5.79508 9.65063 5.79508H9.8555C9.88228 5.79508 9.89567 5.80847 9.89567 5.83525V8.56676C9.89567 8.59354 9.88228 8.60693 9.8555 8.60693H9.65063ZM11.1208 8.63907C10.8825 8.63907 10.691 8.56944 10.5464 8.43019C10.4045 8.29093 10.3335 8.10749 10.3335 7.87987V7.55851C10.3335 7.53173 10.3469 7.51834 10.3737 7.51834H10.5785C10.6053 7.51834 10.6187 7.53173 10.6187 7.55851V7.88388C10.6187 8.03653 10.6642 8.15971 10.7553 8.25344C10.8463 8.34449 10.9682 8.39002 11.1208 8.39002C11.2708 8.39002 11.3926 8.34315 11.4864 8.24943C11.5801 8.1557 11.627 8.03385 11.627 7.88388V5.83525C11.627 5.80847 11.6404 5.79508 11.6671 5.79508H11.868C11.8948 5.79508 11.9082 5.80847 11.9082 5.83525V7.87987C11.9082 8.10749 11.8358 8.29093 11.6912 8.43019C11.5466 8.56944 11.3565 8.63907 11.1208 8.63907ZM13.3232 8.63907C13.1599 8.63907 13.0153 8.60559 12.8894 8.53865C12.7662 8.46902 12.6698 8.37261 12.6002 8.24943C12.5332 8.12624 12.4998 7.98431 12.4998 7.82363V6.5824C12.4998 6.42172 12.5332 6.27979 12.6002 6.1566C12.6698 6.03074 12.7662 5.93433 12.8894 5.86738C13.0153 5.79775 13.1599 5.76294 13.3232 5.76294C13.4866 5.76294 13.6299 5.79775 13.7531 5.86738C13.8789 5.93433 13.9767 6.03074 14.0463 6.1566C14.1159 6.27979 14.1507 6.42172 14.1507 6.5824V7.82363C14.1507 7.98431 14.1159 8.12624 14.0463 8.24943C13.9767 8.37261 13.8789 8.46902 13.7531 8.53865C13.6299 8.60559 13.4866 8.63907 13.3232 8.63907ZM13.3232 8.39002C13.4866 8.39002 13.6178 8.33914 13.7169 8.23738C13.816 8.13561 13.8655 8.00171 13.8655 7.83568V6.57436C13.8655 6.40565 13.816 6.27041 13.7169 6.16865C13.6178 6.06421 13.4866 6.01199 13.3232 6.01199C13.1626 6.01199 13.0327 6.06421 12.9336 6.16865C12.8345 6.27041 12.785 6.40565 12.785 6.57436V7.83568C12.785 8.00171 12.8345 8.13561 12.9336 8.23738C13.0327 8.33914 13.1626 8.39002 13.3232 8.39002ZM16.0954 8.60693C16.0713 8.60693 16.0565 8.59488 16.0512 8.57078L15.9186 8.06866C15.916 8.06063 15.9093 8.05661 15.8985 8.05661H14.9385C14.9278 8.05661 14.9211 8.06063 14.9184 8.06866L14.7859 8.57078C14.7805 8.59488 14.7658 8.60693 14.7417 8.60693H14.5328C14.5194 8.60693 14.5087 8.60292 14.5007 8.59488C14.4953 8.58685 14.494 8.57614 14.4966 8.56275L15.2478 5.83123C15.2532 5.80713 15.2679 5.79508 15.292 5.79508H15.5491C15.5732 5.79508 15.5879 5.80713 15.5933 5.83123L16.3444 8.56275L16.3484 8.5748C16.3484 8.59622 16.3351 8.60693 16.3083 8.60693H16.0954ZM14.9867 7.80756C14.984 7.81024 14.984 7.81426 14.9867 7.81961C14.9921 7.82229 14.9974 7.82363 15.0028 7.82363H15.8343C15.8396 7.82363 15.8436 7.82229 15.8463 7.81961C15.8517 7.81426 15.853 7.81024 15.8503 7.80756L15.4245 6.19275C15.4219 6.1874 15.4192 6.18472 15.4165 6.18472C15.4138 6.18472 15.4112 6.1874 15.4085 6.19275L14.9867 7.80756ZM17.8026 8.3378C17.7946 8.35119 17.7972 8.35788 17.8106 8.35788H18.9153C18.9421 8.35788 18.9555 8.37127 18.9555 8.39805V8.56676C18.9555 8.59354 18.9421 8.60693 18.9153 8.60693H17.4853C17.4585 8.60693 17.4451 8.59354 17.4451 8.56676V8.39002C17.4451 8.37395 17.4505 8.35654 17.4612 8.3378C17.7022 8.01109 17.9713 7.63617 18.2686 7.21306C18.4801 6.90509 18.5859 6.65872 18.5859 6.47394C18.5859 6.33468 18.5457 6.22355 18.4654 6.14053C18.3851 6.05484 18.2793 6.01199 18.1481 6.01199C18.0195 6.01199 17.9164 6.05484 17.8388 6.14053C17.7611 6.22355 17.7236 6.33468 17.7263 6.47394V6.61051C17.7263 6.63729 17.7129 6.65068 17.6861 6.65068H17.4772C17.4505 6.65068 17.4371 6.63729 17.4371 6.61051V6.44984C17.4424 6.24363 17.5107 6.0776 17.6419 5.95174C17.7758 5.82587 17.9472 5.76294 18.1561 5.76294C18.3703 5.76294 18.5431 5.82855 18.6743 5.95977C18.8055 6.09099 18.8711 6.26238 18.8711 6.47394C18.8711 6.7096 18.7613 6.98811 18.5417 7.30946C18.4051 7.50763 18.1896 7.80756 17.895 8.20926L17.8026 8.3378ZM20.1354 8.6471C19.9051 8.6471 19.7204 8.57748 19.5811 8.43822C19.4419 8.29897 19.3722 8.11285 19.3722 7.87987V6.52214C19.3722 6.29184 19.4419 6.10706 19.5811 5.9678C19.7204 5.82855 19.9051 5.75892 20.1354 5.75892C20.3684 5.75892 20.5545 5.82855 20.6938 5.9678C20.8357 6.10706 20.9067 6.29184 20.9067 6.52214V7.87987C20.9067 8.11285 20.8357 8.29897 20.6938 8.43822C20.5545 8.57748 20.3684 8.6471 20.1354 8.6471ZM20.1354 8.39805C20.2827 8.39805 20.4006 8.35253 20.4889 8.26148C20.5773 8.17043 20.6215 8.04992 20.6215 7.89995V6.50607C20.6215 6.35611 20.5773 6.2356 20.4889 6.14455C20.4006 6.0535 20.2827 6.00797 20.1354 6.00797C19.9935 6.00797 19.8784 6.0535 19.79 6.14455C19.7016 6.2356 19.6574 6.35611 19.6574 6.50607V7.89995C19.6574 8.04724 19.7016 8.16775 19.79 8.26148C19.8784 8.35253 19.9935 8.39805 20.1354 8.39805ZM22.0552 6.89973C21.9507 6.89973 21.8543 6.87429 21.7659 6.82341C21.6802 6.77253 21.612 6.70424 21.5611 6.61855C21.5102 6.53018 21.4848 6.43377 21.4848 6.32933C21.4848 6.22489 21.5102 6.12982 21.5611 6.04413C21.612 5.95575 21.6802 5.88613 21.7659 5.83525C21.8543 5.78436 21.9507 5.75892 22.0552 5.75892C22.1569 5.75892 22.2507 5.78436 22.3363 5.83525C22.4247 5.88613 22.4943 5.95575 22.5452 6.04413C22.5961 6.12982 22.6216 6.22489 22.6216 6.32933C22.6216 6.43377 22.5961 6.53018 22.5452 6.61855C22.4943 6.70424 22.4247 6.77253 22.3363 6.82341C22.2507 6.87429 22.1569 6.89973 22.0552 6.89973ZM21.9628 8.60693C21.9494 8.60693 21.9387 8.60292 21.9306 8.59488C21.9253 8.58417 21.9266 8.57212 21.9347 8.55873L23.429 5.82319C23.437 5.80445 23.4531 5.79508 23.4772 5.79508H23.6057C23.6191 5.79508 23.6285 5.80043 23.6338 5.81114C23.6419 5.81918 23.6419 5.82989 23.6338 5.84328L22.1395 8.57882C22.1315 8.59756 22.1154 8.60693 22.0913 8.60693H21.9628ZM22.0552 6.72299C22.1623 6.72299 22.252 6.6855 22.3243 6.61051C22.3993 6.53285 22.4368 6.43913 22.4368 6.32933C22.4368 6.21953 22.3993 6.12714 22.3243 6.05216C22.252 5.9745 22.1623 5.93567 22.0552 5.93567C21.948 5.93567 21.857 5.9745 21.782 6.05216C21.707 6.12714 21.6695 6.21953 21.6695 6.32933C21.6695 6.43913 21.707 6.53285 21.782 6.61051C21.857 6.6855 21.948 6.72299 22.0552 6.72299ZM23.5294 8.64309C23.4249 8.64309 23.3285 8.61765 23.2402 8.56676C23.1545 8.51588 23.0862 8.44626 23.0353 8.35788C22.9844 8.26951 22.959 8.1731 22.959 8.06866C22.959 7.9669 22.9844 7.87317 23.0353 7.78748C23.0862 7.69911 23.1545 7.62948 23.2402 7.5786C23.3285 7.52772 23.4249 7.50228 23.5294 7.50228C23.6311 7.50228 23.7249 7.52772 23.8106 7.5786C23.8989 7.62948 23.9686 7.69911 24.0194 7.78748C24.0703 7.87317 24.0958 7.9669 24.0958 8.06866C24.0958 8.1731 24.0703 8.26951 24.0194 8.35788C23.9686 8.44626 23.8989 8.51588 23.8106 8.56676C23.7249 8.61765 23.6311 8.64309 23.5294 8.64309ZM23.5294 8.46634C23.6365 8.46634 23.7262 8.42751 23.7985 8.34985C23.8735 8.27219 23.911 8.17846 23.911 8.06866C23.911 7.95887 23.8735 7.86648 23.7985 7.79149C23.7262 7.71651 23.6365 7.67902 23.5294 7.67902C23.4223 7.67902 23.3312 7.71651 23.2562 7.79149C23.1812 7.86648 23.1438 7.95887 23.1438 8.06866C23.1438 8.18114 23.1799 8.27621 23.2522 8.35387C23.3272 8.42885 23.4196 8.46634 23.5294 8.46634Z" fill="#404040"/>
<path d="M0.752543 41.6113C0.725763 41.6113 0.712373 41.5979 0.712373 41.5712V38.8396C0.712373 38.8129 0.725763 38.7995 0.752543 38.7995H0.957407C0.984186 38.7995 0.997576 38.8129 0.997576 38.8396V40.1733C0.997576 40.1786 1.00025 40.1826 1.00561 40.1853C1.01097 40.1853 1.01498 40.1826 1.01766 40.1773L2.03796 38.8236C2.04868 38.8075 2.06608 38.7995 2.09018 38.7995H2.31513C2.3312 38.7995 2.34191 38.8048 2.34727 38.8155C2.35262 38.8236 2.34995 38.8343 2.33923 38.8477L1.53585 39.9483C1.53317 39.9563 1.53317 39.9644 1.53585 39.9724L2.41154 41.5631C2.41689 41.5738 2.41957 41.5819 2.41957 41.5872C2.41957 41.6033 2.40752 41.6113 2.38342 41.6113H2.15044C2.12634 41.6113 2.11027 41.602 2.10223 41.5832L1.33902 40.1974C1.33366 40.184 1.32696 40.184 1.31893 40.1974L1.00561 40.595C1.00025 40.6004 0.997576 40.6071 0.997576 40.6151V41.5712C0.997576 41.5979 0.984186 41.6113 0.957407 41.6113H0.752543ZM2.88654 41.6113C2.85976 41.6113 2.84637 41.5979 2.84637 41.5712V38.8396C2.84637 38.8129 2.85976 38.7995 2.88654 38.7995H3.09141C3.11819 38.7995 3.13157 38.8129 3.13157 38.8396V41.5712C3.13157 41.5979 3.11819 41.6113 3.09141 41.6113H2.88654ZM4.27361 41.6113C4.24951 41.6113 4.23478 41.5993 4.22942 41.5752L3.5827 38.8437L3.57868 38.8276C3.57868 38.8088 3.59073 38.7995 3.61483 38.7995H3.83175C3.85585 38.7995 3.87058 38.8115 3.87593 38.8356L4.366 40.9927C4.36868 41.0008 4.37135 41.0048 4.37403 41.0048C4.37939 41.0048 4.38341 41.0008 4.38608 40.9927L4.83196 38.8356C4.83732 38.8115 4.85205 38.7995 4.87615 38.7995H5.077C5.10378 38.7995 5.11851 38.8115 5.12118 38.8356L5.58313 40.9927C5.58581 41.0008 5.58849 41.0048 5.59117 41.0048C5.59384 41.0048 5.59652 41.0008 5.5992 40.9927L6.07722 38.8356C6.08257 38.8115 6.0973 38.7995 6.1214 38.7995H6.33028C6.35706 38.7995 6.36777 38.8142 6.36242 38.8437L5.73578 41.5752C5.73042 41.5993 5.71569 41.6113 5.69159 41.6113H5.48673C5.46262 41.6113 5.44789 41.5993 5.44254 41.5752L4.98461 39.3859C4.98193 39.3779 4.97925 39.3739 4.97657 39.3739C4.9739 39.3739 4.97122 39.3779 4.96854 39.3859L4.51463 41.5752C4.51195 41.5993 4.49722 41.6113 4.47044 41.6113H4.27361ZM6.85641 41.6113C6.82963 41.6113 6.81624 41.5979 6.81624 41.5712V38.8396C6.81624 38.8129 6.82963 38.7995 6.85641 38.7995H7.06127C7.08805 38.7995 7.10144 38.8129 7.10144 38.8396V41.5712C7.10144 41.5979 7.08805 41.6113 7.06127 41.6113H6.85641ZM9.25251 41.6435C9.00078 41.6435 8.79994 41.5779 8.64997 41.4466C8.50268 41.3127 8.42904 41.1347 8.42904 40.9124V40.8039C8.42904 40.7771 8.44243 40.7638 8.46921 40.7638H8.66604C8.69282 40.7638 8.70621 40.7771 8.70621 40.8039V40.8963C8.70621 41.0463 8.75709 41.1668 8.85885 41.2578C8.96061 41.3489 9.09585 41.3944 9.26456 41.3944C9.42256 41.3944 9.54709 41.3516 9.63814 41.2659C9.72919 41.1802 9.77471 41.0677 9.77471 40.9284C9.77471 40.8374 9.75329 40.7584 9.71044 40.6914C9.66759 40.6245 9.60466 40.5629 9.52165 40.5067C9.43863 40.4504 9.31946 40.3795 9.16414 40.2938C8.99811 40.2054 8.86689 40.1277 8.77048 40.0608C8.67675 39.9938 8.60043 39.9122 8.54151 39.8158C8.4826 39.7193 8.45314 39.6015 8.45314 39.4623C8.45314 39.2454 8.52277 39.0753 8.66202 38.9521C8.80128 38.8289 8.98739 38.7673 9.22038 38.7673C9.46943 38.7673 9.66759 38.8356 9.81488 38.9722C9.96217 39.1088 10.0358 39.2895 10.0358 39.5145V39.6069C10.0358 39.6337 10.0224 39.647 9.99564 39.647H9.7948C9.76802 39.647 9.75463 39.6337 9.75463 39.6069V39.5185C9.75463 39.3685 9.70643 39.248 9.61002 39.157C9.51361 39.0632 9.38105 39.0164 9.21234 39.0164C9.06238 39.0164 8.94455 39.0552 8.85885 39.1329C8.77583 39.2105 8.73433 39.3203 8.73433 39.4623C8.73433 39.5533 8.75441 39.6296 8.79458 39.6912C8.83475 39.7528 8.89233 39.8091 8.96731 39.8599C9.04497 39.9108 9.1628 39.9791 9.3208 40.0648C9.5029 40.1666 9.64215 40.2536 9.73856 40.3259C9.83765 40.3955 9.91531 40.4772 9.97154 40.5709C10.0305 40.662 10.0599 40.7745 10.0599 40.9084C10.0599 41.1333 9.98761 41.3127 9.843 41.4466C9.69839 41.5779 9.50156 41.6435 9.25251 41.6435ZM12.1045 38.8276C12.1179 38.8088 12.134 38.7995 12.1527 38.7995H12.3616C12.3884 38.7995 12.4018 38.8129 12.4018 38.8396V41.5712C12.4018 41.5979 12.3884 41.6113 12.3616 41.6113H12.1568C12.13 41.6113 12.1166 41.5979 12.1166 41.5712V39.3859C12.1166 39.3779 12.1139 39.3726 12.1086 39.3699C12.1032 39.3672 12.0992 39.3699 12.0965 39.3779L11.5623 40.3058C11.5489 40.3246 11.5328 40.3339 11.514 40.3339H11.4699C11.4511 40.3339 11.435 40.3246 11.4217 40.3058L10.8834 39.3819C10.8807 39.3739 10.8767 39.3712 10.8713 39.3739C10.866 39.3766 10.8633 39.3819 10.8633 39.39V41.5712C10.8633 41.5979 10.8499 41.6113 10.8231 41.6113H10.6183C10.5915 41.6113 10.5781 41.5979 10.5781 41.5712V38.8396C10.5781 38.8129 10.5915 38.7995 10.6183 38.7995H10.8272C10.8459 38.7995 10.862 38.8088 10.8754 38.8276L11.4819 39.8599C11.4846 39.8626 11.4886 39.864 11.494 39.864C11.4993 39.864 11.5033 39.8626 11.506 39.8599L12.1045 38.8276ZM13.8124 41.6435C13.649 41.6435 13.5044 41.61 13.3786 41.543C13.2554 41.4734 13.159 41.377 13.0893 41.2538C13.0224 41.1306 12.9889 40.9887 12.9889 40.828V39.5868C12.9889 39.4261 13.0224 39.2842 13.0893 39.161C13.159 39.0351 13.2554 38.9387 13.3786 38.8718C13.5044 38.8021 13.649 38.7673 13.8124 38.7673C13.9758 38.7673 14.119 38.8021 14.2422 38.8718C14.3681 38.9387 14.4658 39.0351 14.5354 39.161C14.6051 39.2842 14.6399 39.4261 14.6399 39.5868V40.828C14.6399 40.9887 14.6051 41.1306 14.5354 41.2538C14.4658 41.377 14.3681 41.4734 14.2422 41.543C14.119 41.61 13.9758 41.6435 13.8124 41.6435ZM13.8124 41.3944C13.9758 41.3944 14.107 41.3435 14.2061 41.2418C14.3051 41.14 14.3547 41.0061 14.3547 40.8401V39.5788C14.3547 39.41 14.3051 39.2748 14.2061 39.173C14.107 39.0686 13.9758 39.0164 13.8124 39.0164C13.6517 39.0164 13.5218 39.0686 13.4228 39.173C13.3237 39.2748 13.2741 39.41 13.2741 39.5788V40.8401C13.2741 41.0061 13.3237 41.14 13.4228 41.2418C13.5218 41.3435 13.6517 41.3944 13.8124 41.3944ZM15.9778 41.6435C15.8144 41.6435 15.6698 41.61 15.5439 41.543C15.4208 41.4734 15.3244 41.377 15.2547 41.2538C15.1878 41.1306 15.1543 40.9887 15.1543 40.828V39.5868C15.1543 39.4261 15.1878 39.2842 15.2547 39.161C15.3244 39.0351 15.4208 38.9387 15.5439 38.8718C15.6698 38.8021 15.8144 38.7673 15.9778 38.7673C16.1411 38.7673 16.2844 38.8021 16.4076 38.8718C16.5335 38.9387 16.6312 39.0351 16.7008 39.161C16.7705 39.2842 16.8053 39.4261 16.8053 39.5868V40.828C16.8053 40.9887 16.7705 41.1306 16.7008 41.2538C16.6312 41.377 16.5335 41.4734 16.4076 41.543C16.2844 41.61 16.1411 41.6435 15.9778 41.6435ZM15.9778 41.3944C16.1411 41.3944 16.2724 41.3435 16.3714 41.2418C16.4705 41.14 16.5201 41.0061 16.5201 40.8401V39.5788C16.5201 39.41 16.4705 39.2748 16.3714 39.173C16.2724 39.0686 16.1411 39.0164 15.9778 39.0164C15.8171 39.0164 15.6872 39.0686 15.5881 39.173C15.489 39.2748 15.4395 39.41 15.4395 39.5788V40.8401C15.4395 41.0061 15.489 41.14 15.5881 41.2418C15.6872 41.3435 15.8171 41.3944 15.9778 41.3944ZM18.8425 38.7995C18.8693 38.7995 18.8827 38.8129 18.8827 38.8396V39.0084C18.8827 39.0351 18.8693 39.0485 18.8425 39.0485H18.1877C18.177 39.0485 18.1717 39.0539 18.1717 39.0646V41.5712C18.1717 41.5979 18.1583 41.6113 18.1315 41.6113H17.9266C17.8998 41.6113 17.8865 41.5979 17.8865 41.5712V39.0646C17.8865 39.0539 17.8811 39.0485 17.8704 39.0485H17.2397C17.2129 39.0485 17.1996 39.0351 17.1996 39.0084V38.8396C17.1996 38.8129 17.2129 38.7995 17.2397 38.7995H18.8425ZM20.6866 38.8396C20.6866 38.8129 20.7 38.7995 20.7268 38.7995H20.9317C20.9584 38.7995 20.9718 38.8129 20.9718 38.8396V41.5712C20.9718 41.5979 20.9584 41.6113 20.9317 41.6113H20.7268C20.7 41.6113 20.6866 41.5979 20.6866 41.5712V40.342C20.6866 40.3313 20.6813 40.3259 20.6706 40.3259H19.6744C19.6637 40.3259 19.6583 40.3313 19.6583 40.342V41.5712C19.6583 41.5979 19.6449 41.6113 19.6181 41.6113H19.4133C19.3865 41.6113 19.3731 41.5979 19.3731 41.5712V38.8396C19.3731 38.8129 19.3865 38.7995 19.4133 38.7995H19.6181C19.6449 38.7995 19.6583 38.8129 19.6583 38.8396V40.0608C19.6583 40.0715 19.6637 40.0769 19.6744 40.0769H20.6706C20.6813 40.0769 20.6866 40.0715 20.6866 40.0608V38.8396ZM21.6767 41.6113C21.6499 41.6113 21.6365 41.5979 21.6365 41.5712V38.8396C21.6365 38.8129 21.6499 38.7995 21.6767 38.7995H21.8816C21.9084 38.7995 21.9217 38.8129 21.9217 38.8396V41.5712C21.9217 41.5979 21.9084 41.6113 21.8816 41.6113H21.6767ZM24.1363 39.0084C24.1363 39.0351 24.1229 39.0485 24.0961 39.0485H22.8911C22.8803 39.0485 22.875 39.0539 22.875 39.0646V40.0608C22.875 40.0715 22.8803 40.0769 22.8911 40.0769H23.7025C23.7293 40.0769 23.7426 40.0902 23.7426 40.117V40.2857C23.7426 40.3125 23.7293 40.3259 23.7025 40.3259H22.8911C22.8803 40.3259 22.875 40.3313 22.875 40.342V41.3462C22.875 41.3569 22.8803 41.3623 22.8911 41.3623H24.0961C24.1229 41.3623 24.1363 41.3757 24.1363 41.4024V41.5712C24.1363 41.5979 24.1229 41.6113 24.0961 41.6113H22.63C22.6032 41.6113 22.5898 41.5979 22.5898 41.5712V38.8396C22.5898 38.8129 22.6032 38.7995 22.63 38.7995H24.0961C24.1229 38.7995 24.1363 38.8129 24.1363 38.8396V39.0084ZM2.11429 45.583C2.14106 45.583 2.15445 45.5964 2.15445 45.6232V45.7999C2.15445 45.8267 2.14106 45.8401 2.11429 45.8401H1.96566C1.95495 45.8401 1.94959 45.8454 1.94959 45.8561V46.5712C1.94959 46.5979 1.9362 46.6113 1.90942 46.6113H1.70456C1.67778 46.6113 1.66439 46.5979 1.66439 46.5712V45.8561C1.66439 45.8454 1.65903 45.8401 1.64832 45.8401H0.55973C0.53295 45.8401 0.51956 45.8267 0.51956 45.7999V45.6473C0.51956 45.6285 0.522238 45.6124 0.527594 45.5991L1.24261 43.8316C1.25064 43.8102 1.26537 43.7995 1.2868 43.7995H1.50773C1.52112 43.7995 1.53049 43.8048 1.53585 43.8155C1.5412 43.8236 1.5412 43.8343 1.53585 43.8477L0.852966 45.5629C0.850288 45.5683 0.850288 45.5736 0.852966 45.579C0.855644 45.5817 0.859661 45.583 0.865017 45.583H1.64832C1.65903 45.583 1.66439 45.5776 1.66439 45.5669V44.9322C1.66439 44.9055 1.67778 44.8921 1.70456 44.8921H1.90942C1.9362 44.8921 1.94959 44.9055 1.94959 44.9322V45.5669C1.94959 45.5776 1.95495 45.583 1.96566 45.583H2.11429ZM3.329 46.6515C3.0987 46.6515 2.91392 46.5819 2.77466 46.4426C2.63541 46.3034 2.56578 46.1172 2.56578 45.8843V44.5265C2.56578 44.2962 2.63541 44.1115 2.77466 43.9722C2.91392 43.8329 3.0987 43.7633 3.329 43.7633C3.56198 43.7633 3.7481 43.8329 3.88736 43.9722C4.02929 44.1115 4.10025 44.2962 4.10025 44.5265V45.8843C4.10025 46.1172 4.02929 46.3034 3.88736 46.4426C3.7481 46.5819 3.56198 46.6515 3.329 46.6515ZM3.329 46.4024C3.47629 46.4024 3.59412 46.3569 3.68249 46.2659C3.77086 46.1748 3.81505 46.0543 3.81505 45.9043V44.5105C3.81505 44.3605 3.77086 44.24 3.68249 44.1489C3.59412 44.0579 3.47629 44.0124 3.329 44.0124C3.18707 44.0124 3.07192 44.0579 2.98354 44.1489C2.89517 44.24 2.85099 44.3605 2.85099 44.5105V45.9043C2.85099 46.0516 2.89517 46.1721 2.98354 46.2659C3.07192 46.3569 3.18707 46.4024 3.329 46.4024ZM5.24872 44.9041C5.14428 44.9041 5.04787 44.8787 4.9595 44.8278C4.87381 44.7769 4.80552 44.7086 4.75464 44.6229C4.70376 44.5346 4.67832 44.4382 4.67832 44.3337C4.67832 44.2293 4.70376 44.1342 4.75464 44.0485C4.80552 43.9601 4.87381 43.8905 4.9595 43.8396C5.04787 43.7888 5.14428 43.7633 5.24872 43.7633C5.35048 43.7633 5.44421 43.7888 5.52991 43.8396C5.61828 43.8905 5.68791 43.9601 5.73879 44.0485C5.78967 44.1342 5.81511 44.2293 5.81511 44.3337C5.81511 44.4382 5.78967 44.5346 5.73879 44.6229C5.68791 44.7086 5.61828 44.7769 5.52991 44.8278C5.44421 44.8787 5.35048 44.9041 5.24872 44.9041ZM5.15633 46.6113C5.14294 46.6113 5.13223 46.6073 5.1242 46.5993C5.11884 46.5886 5.12018 46.5765 5.12821 46.5631L6.62251 43.8276C6.63055 43.8088 6.64662 43.7995 6.67072 43.7995H6.79926C6.81265 43.7995 6.82202 43.8048 6.82738 43.8155C6.83541 43.8236 6.83541 43.8343 6.82738 43.8477L5.33308 46.5832C5.32504 46.602 5.30898 46.6113 5.28487 46.6113H5.15633ZM5.24872 44.7274C5.35584 44.7274 5.44555 44.6899 5.51786 44.6149C5.59284 44.5372 5.63033 44.4435 5.63033 44.3337C5.63033 44.2239 5.59284 44.1315 5.51786 44.0566C5.44555 43.9789 5.35584 43.9401 5.24872 43.9401C5.1416 43.9401 5.05055 43.9789 4.97557 44.0566C4.90059 44.1315 4.8631 44.2239 4.8631 44.3337C4.8631 44.4435 4.90059 44.5372 4.97557 44.6149C5.05055 44.6899 5.1416 44.7274 5.24872 44.7274ZM6.72294 46.6475C6.6185 46.6475 6.52209 46.622 6.43372 46.5712C6.34802 46.5203 6.27974 46.4507 6.22885 46.3623C6.17797 46.2739 6.15253 46.1775 6.15253 46.0731C6.15253 45.9713 6.17797 45.8776 6.22885 45.7919C6.27974 45.7035 6.34802 45.6339 6.43372 45.583C6.52209 45.5321 6.6185 45.5067 6.72294 45.5067C6.8247 45.5067 6.91843 45.5321 7.00412 45.583C7.0925 45.6339 7.16212 45.7035 7.213 45.7919C7.26389 45.8776 7.28933 45.9713 7.28933 46.0731C7.28933 46.1775 7.26389 46.2739 7.213 46.3623C7.16212 46.4507 7.0925 46.5203 7.00412 46.5712C6.91843 46.622 6.8247 46.6475 6.72294 46.6475ZM6.72294 46.4707C6.83006 46.4707 6.91977 46.4319 6.99207 46.3542C7.06706 46.2766 7.10455 46.1829 7.10455 46.0731C7.10455 45.9633 7.06706 45.8709 6.99207 45.7959C6.91977 45.7209 6.83006 45.6834 6.72294 45.6834C6.61582 45.6834 6.52477 45.7209 6.44979 45.7959C6.3748 45.8709 6.33731 45.9633 6.33731 46.0731C6.33731 46.1855 6.37346 46.2806 6.44577 46.3583C6.52075 46.4332 6.61314 46.4707 6.72294 46.4707Z" fill="#404040"/>
<path d="M69.8847 36.8438C69.8847 36.8706 69.8713 36.884 69.8446 36.884H68.6435C68.6328 36.884 68.6274 36.8893 68.6274 36.9V37.8962C68.6274 37.907 68.6328 37.9123 68.6435 37.9123H69.4509C69.4777 37.9123 69.4911 37.9257 69.4911 37.9525V38.1212C69.4911 38.148 69.4777 38.1614 69.4509 38.1614H68.6435C68.6328 38.1614 68.6274 38.1667 68.6274 38.1774V39.4066C68.6274 39.4334 68.614 39.4468 68.5873 39.4468H68.3824C68.3556 39.4468 68.3422 39.4334 68.3422 39.4066V36.6751C68.3422 36.6483 68.3556 36.6349 68.3824 36.6349H69.8446C69.8713 36.6349 69.8847 36.6483 69.8847 36.6751V36.8438ZM71.6736 39.4468C71.6522 39.4468 71.6374 39.4361 71.6294 39.4146L71.1313 38.1734C71.1286 38.1654 71.1233 38.1614 71.1152 38.1614H70.597C70.5863 38.1614 70.581 38.1667 70.581 38.1774V39.4066C70.581 39.4334 70.5676 39.4468 70.5408 39.4468H70.3359C70.3092 39.4468 70.2958 39.4334 70.2958 39.4066V36.6751C70.2958 36.6483 70.3092 36.6349 70.3359 36.6349H71.1875C71.3268 36.6349 71.45 36.6671 71.5571 36.7313C71.6669 36.7956 71.7512 36.8866 71.8102 37.0045C71.8718 37.1223 71.9026 37.2575 71.9026 37.4102C71.9026 37.5923 71.8584 37.7476 71.77 37.8762C71.6816 38.0047 71.5611 38.0904 71.4085 38.1332C71.3978 38.1386 71.3951 38.1453 71.4004 38.1533L71.9186 39.3986L71.9226 39.4146C71.9226 39.4361 71.9106 39.4468 71.8865 39.4468H71.6736ZM70.597 36.884C70.5863 36.884 70.581 36.8893 70.581 36.9V37.9163C70.581 37.927 70.5863 37.9324 70.597 37.9324H71.1514C71.2906 37.9324 71.4031 37.8842 71.4888 37.7878C71.5745 37.6914 71.6173 37.5655 71.6173 37.4102C71.6173 37.2522 71.5745 37.125 71.4888 37.0286C71.4031 36.9322 71.2906 36.884 71.1514 36.884H70.597ZM73.1652 39.4789C73.0018 39.4789 72.8572 39.4454 72.7313 39.3785C72.6081 39.3089 72.5117 39.2125 72.4421 39.0893C72.3752 38.9661 72.3417 38.8242 72.3417 38.6635V37.4222C72.3417 37.2616 72.3752 37.1196 72.4421 36.9964C72.5117 36.8706 72.6081 36.7742 72.7313 36.7072C72.8572 36.6376 73.0018 36.6028 73.1652 36.6028C73.3285 36.6028 73.4718 36.6376 73.595 36.7072C73.7208 36.7742 73.8186 36.8706 73.8882 36.9964C73.9578 37.1196 73.9926 37.2616 73.9926 37.4222V38.6635C73.9926 38.8242 73.9578 38.9661 73.8882 39.0893C73.8186 39.2125 73.7208 39.3089 73.595 39.3785C73.4718 39.4454 73.3285 39.4789 73.1652 39.4789ZM73.1652 39.2299C73.3285 39.2299 73.4597 39.179 73.5588 39.0772C73.6579 38.9755 73.7074 38.8416 73.7074 38.6755V37.4142C73.7074 37.2455 73.6579 37.1103 73.5588 37.0085C73.4597 36.9041 73.3285 36.8518 73.1652 36.8518C73.0045 36.8518 72.8746 36.9041 72.7755 37.0085C72.6764 37.1103 72.6269 37.2455 72.6269 37.4142V38.6755C72.6269 38.8416 72.6764 38.9755 72.7755 39.0772C72.8746 39.179 73.0045 39.2299 73.1652 39.2299ZM75.2623 39.4789C75.0105 39.4789 74.8097 39.4133 74.6597 39.2821C74.5124 39.1482 74.4388 38.9701 74.4388 38.7478V38.6394C74.4388 38.6126 74.4522 38.5992 74.4789 38.5992H74.6758C74.7026 38.5992 74.7159 38.6126 74.7159 38.6394V38.7318C74.7159 38.8817 74.7668 39.0022 74.8686 39.0933C74.9704 39.1843 75.1056 39.2299 75.2743 39.2299C75.4323 39.2299 75.5568 39.187 75.6479 39.1013C75.7389 39.0156 75.7845 38.9032 75.7845 38.7639C75.7845 38.6728 75.763 38.5938 75.7202 38.5269C75.6773 38.4599 75.6144 38.3984 75.5314 38.3421C75.4484 38.2859 75.3292 38.2149 75.1739 38.1292C75.0078 38.0408 74.8766 37.9632 74.7802 37.8962C74.6865 37.8293 74.6102 37.7476 74.5513 37.6512C74.4923 37.5548 74.4629 37.437 74.4629 37.2977C74.4629 37.0808 74.5325 36.9107 74.6718 36.7876C74.811 36.6644 74.9971 36.6028 75.2301 36.6028C75.4792 36.6028 75.6773 36.6711 75.8246 36.8076C75.9719 36.9442 76.0456 37.125 76.0456 37.3499V37.4423C76.0456 37.4691 76.0322 37.4825 76.0054 37.4825H75.8045C75.7778 37.4825 75.7644 37.4691 75.7644 37.4423V37.354C75.7644 37.204 75.7162 37.0835 75.6198 36.9924C75.5234 36.8987 75.3908 36.8518 75.2221 36.8518C75.0721 36.8518 74.9543 36.8907 74.8686 36.9683C74.7856 37.046 74.7441 37.1558 74.7441 37.2977C74.7441 37.3888 74.7642 37.4651 74.8043 37.5267C74.8445 37.5883 74.9021 37.6445 74.977 37.6954C75.0547 37.7463 75.1725 37.8146 75.3305 37.9003C75.5126 38.002 75.6519 38.0891 75.7483 38.1614C75.8474 38.231 75.925 38.3127 75.9813 38.4064C76.0402 38.4974 76.0697 38.6099 76.0697 38.7438C76.0697 38.9688 75.9974 39.1482 75.8527 39.2821C75.7081 39.4133 75.5113 39.4789 75.2623 39.4789ZM77.9834 36.6349C78.0102 36.6349 78.0236 36.6483 78.0236 36.6751V36.8438C78.0236 36.8706 78.0102 36.884 77.9834 36.884H77.3287C77.3179 36.884 77.3126 36.8893 77.3126 36.9V39.4066C77.3126 39.4334 77.2992 39.4468 77.2724 39.4468H77.0676C77.0408 39.4468 77.0274 39.4334 77.0274 39.4066V36.9C77.0274 36.8893 77.022 36.884 77.0113 36.884H76.3807C76.3539 36.884 76.3405 36.8706 76.3405 36.8438V36.6751C76.3405 36.6483 76.3539 36.6349 76.3807 36.6349H77.9834ZM79.0724 39.4428C79.0456 39.4428 79.0322 39.4294 79.0322 39.4026V38.2055C79.0322 38.1948 79.0309 38.1881 79.0282 38.1855L78.3333 36.6831L78.3292 36.6671C78.3292 36.6456 78.3413 36.6349 78.3654 36.6349H78.5823C78.6037 36.6349 78.6185 36.6456 78.6265 36.6671L79.1648 37.8681C79.1674 37.8735 79.1715 37.8762 79.1768 37.8762C79.1822 37.8762 79.1862 37.8735 79.1889 37.8681L79.7271 36.6671C79.7352 36.6456 79.7499 36.6349 79.7713 36.6349H79.9882C80.0016 36.6349 80.011 36.6403 80.0164 36.651C80.0244 36.659 80.0257 36.6697 80.0204 36.6831L79.3214 38.1855C79.3188 38.1881 79.3174 38.1948 79.3174 38.2055V39.4026C79.3174 39.4294 79.304 39.4428 79.2772 39.4428H79.0724ZM81.5801 36.647C81.5962 36.6389 81.6136 36.6349 81.6323 36.6349H81.8492C81.876 36.6349 81.8894 36.6483 81.8894 36.6751V39.4066C81.8894 39.4334 81.876 39.4468 81.8492 39.4468H81.6444C81.6176 39.4468 81.6042 39.4334 81.6042 39.4066V36.9643C81.6042 36.959 81.6015 36.9549 81.5962 36.9523C81.5935 36.9496 81.5895 36.9496 81.5841 36.9523L81.1824 37.1009C81.1771 37.1036 81.1704 37.1049 81.1623 37.1049C81.149 37.1049 81.1396 37.0942 81.1342 37.0728L81.1141 36.9241V36.9161C81.1141 36.9027 81.1235 36.8893 81.1423 36.8759L81.5801 36.647ZM83.2019 39.4869C82.9716 39.4869 82.7868 39.4173 82.6476 39.2781C82.5083 39.1388 82.4387 38.9527 82.4387 38.7197V37.362C82.4387 37.1317 82.5083 36.9469 82.6476 36.8076C82.7868 36.6684 82.9716 36.5988 83.2019 36.5988C83.4349 36.5988 83.621 36.6684 83.7602 36.8076C83.9022 36.9469 83.9731 37.1317 83.9731 37.362V38.7197C83.9731 38.9527 83.9022 39.1388 83.7602 39.2781C83.621 39.4173 83.4349 39.4869 83.2019 39.4869ZM83.2019 39.2379C83.3492 39.2379 83.467 39.1924 83.5554 39.1013C83.6438 39.0103 83.6879 38.8898 83.6879 38.7398V37.3459C83.6879 37.196 83.6438 37.0754 83.5554 36.9844C83.467 36.8933 83.3492 36.8478 83.2019 36.8478C83.06 36.8478 82.9448 36.8933 82.8564 36.9844C82.7681 37.0754 82.7239 37.196 82.7239 37.3459V38.7398C82.7239 38.8871 82.7681 39.0076 82.8564 39.1013C82.9448 39.1924 83.06 39.2379 83.2019 39.2379ZM85.1216 37.7396C85.0172 37.7396 84.9208 37.7141 84.8324 37.6633C84.7467 37.6124 84.6784 37.5441 84.6275 37.4584C84.5766 37.37 84.5512 37.2736 84.5512 37.1692C84.5512 37.0647 84.5766 36.9697 84.6275 36.884C84.6784 36.7956 84.7467 36.726 84.8324 36.6751C84.9208 36.6242 85.0172 36.5988 85.1216 36.5988C85.2234 36.5988 85.3171 36.6242 85.4028 36.6751C85.4912 36.726 85.5608 36.7956 85.6117 36.884C85.6626 36.9697 85.688 37.0647 85.688 37.1692C85.688 37.2736 85.6626 37.37 85.6117 37.4584C85.5608 37.5441 85.4912 37.6124 85.4028 37.6633C85.3171 37.7141 85.2234 37.7396 85.1216 37.7396ZM85.0292 39.4468C85.0158 39.4468 85.0051 39.4428 84.9971 39.4347C84.9917 39.424 84.9931 39.412 85.0011 39.3986L86.4954 36.663C86.5034 36.6443 86.5195 36.6349 86.5436 36.6349H86.6721C86.6855 36.6349 86.6949 36.6403 86.7003 36.651C86.7083 36.659 86.7083 36.6697 86.7003 36.6831L85.206 39.4187C85.1979 39.4374 85.1819 39.4468 85.1578 39.4468H85.0292ZM85.1216 37.5628C85.2287 37.5628 85.3184 37.5253 85.3907 37.4504C85.4657 37.3727 85.5032 37.279 85.5032 37.1692C85.5032 37.0594 85.4657 36.967 85.3907 36.892C85.3184 36.8143 85.2287 36.7755 85.1216 36.7755C85.0145 36.7755 84.9234 36.8143 84.8485 36.892C84.7735 36.967 84.736 37.0594 84.736 37.1692C84.736 37.279 84.7735 37.3727 84.8485 37.4504C84.9234 37.5253 85.0145 37.5628 85.1216 37.5628ZM86.5958 39.4829C86.4914 39.4829 86.395 39.4575 86.3066 39.4066C86.2209 39.3557 86.1526 39.2861 86.1017 39.1977C86.0509 39.1094 86.0254 39.0129 86.0254 38.9085C86.0254 38.8067 86.0509 38.713 86.1017 38.6273C86.1526 38.5389 86.2209 38.4693 86.3066 38.4184C86.395 38.3676 86.4914 38.3421 86.5958 38.3421C86.6976 38.3421 86.7913 38.3676 86.877 38.4184C86.9654 38.4693 87.035 38.5389 87.0859 38.6273C87.1368 38.713 87.1622 38.8067 87.1622 38.9085C87.1622 39.0129 87.1368 39.1094 87.0859 39.1977C87.035 39.2861 86.9654 39.3557 86.877 39.4066C86.7913 39.4575 86.6976 39.4829 86.5958 39.4829ZM86.5958 39.3062C86.7029 39.3062 86.7927 39.2674 86.865 39.1897C86.9399 39.112 86.9774 39.0183 86.9774 38.9085C86.9774 38.7987 86.9399 38.7063 86.865 38.6313C86.7927 38.5564 86.7029 38.5189 86.5958 38.5189C86.4887 38.5189 86.3977 38.5564 86.3227 38.6313C86.2477 38.7063 86.2102 38.7987 86.2102 38.9085C86.2102 39.021 86.2464 39.116 86.3187 39.1937C86.3936 39.2687 86.486 39.3062 86.5958 39.3062Z" fill="#404040"/>
<path d="M68.2656 6.00396C68.2656 6.03074 68.2522 6.04413 68.2255 6.04413H67.0204C67.0097 6.04413 67.0043 6.04948 67.0043 6.06019V7.0564C67.0043 7.06711 67.0097 7.07246 67.0204 7.07246H67.8318C67.8586 7.07246 67.872 7.08585 67.872 7.11263V7.28134C67.872 7.30812 67.8586 7.32151 67.8318 7.32151H67.0204C67.0097 7.32151 67.0043 7.32687 67.0043 7.33758V8.34182C67.0043 8.35253 67.0097 8.35788 67.0204 8.35788H68.2255C68.2522 8.35788 68.2656 8.37127 68.2656 8.39805V8.56676C68.2656 8.59354 68.2522 8.60693 68.2255 8.60693H66.7593C66.7325 8.60693 66.7191 8.59354 66.7191 8.56676V5.83525C66.7191 5.80847 66.7325 5.79508 66.7593 5.79508H68.2255C68.2522 5.79508 68.2656 5.80847 68.2656 5.83525V6.00396ZM69.4731 8.63907C69.2214 8.63907 69.0206 8.57346 68.8706 8.44224C68.7233 8.30834 68.6497 8.13026 68.6497 7.90799V7.79953C68.6497 7.77275 68.6631 7.75936 68.6898 7.75936H68.8867C68.9134 7.75936 68.9268 7.77275 68.9268 7.79953V7.89192C68.9268 8.04188 68.9777 8.16239 69.0795 8.25344C69.1812 8.34449 69.3165 8.39002 69.4852 8.39002C69.6432 8.39002 69.7677 8.34717 69.8588 8.26148C69.9498 8.17578 69.9953 8.06331 69.9953 7.92405C69.9953 7.833 69.9739 7.754 69.9311 7.68705C69.8882 7.62011 69.8253 7.55851 69.7423 7.50228C69.6593 7.44604 69.5401 7.37507 69.3848 7.28938C69.2187 7.201 69.0875 7.12334 68.9911 7.0564C68.8974 6.98945 68.8211 6.90777 68.7621 6.81136C68.7032 6.71496 68.6738 6.59712 68.6738 6.45787C68.6738 6.24096 68.7434 6.07091 68.8826 5.94772C69.0219 5.82453 69.208 5.76294 69.441 5.76294C69.6901 5.76294 69.8882 5.83123 70.0355 5.9678C70.1828 6.10438 70.2564 6.28514 70.2564 6.51009V6.60248C70.2564 6.62926 70.2431 6.64265 70.2163 6.64265H70.0154C69.9886 6.64265 69.9753 6.62926 69.9753 6.60248V6.51411C69.9753 6.36414 69.9271 6.24363 69.8306 6.15258C69.7342 6.05886 69.6017 6.01199 69.433 6.01199C69.283 6.01199 69.1652 6.05082 69.0795 6.12848C68.9965 6.20614 68.955 6.31594 68.955 6.45787C68.955 6.54892 68.975 6.62524 69.0152 6.68684C69.0554 6.74843 69.113 6.80467 69.1879 6.85555C69.2656 6.90643 69.3834 6.97472 69.5414 7.06041C69.7235 7.16217 69.8628 7.24921 69.9592 7.32151C70.0583 7.39114 70.1359 7.47282 70.1922 7.56655C70.2511 7.6576 70.2805 7.77007 70.2805 7.90397C70.2805 8.12892 70.2082 8.30834 70.0636 8.44224C69.919 8.57346 69.7222 8.63907 69.4731 8.63907ZM72.1943 5.79508C72.2211 5.79508 72.2345 5.80847 72.2345 5.83525V6.00396C72.2345 6.03074 72.2211 6.04413 72.1943 6.04413H71.5395C71.5288 6.04413 71.5235 6.04948 71.5235 6.06019V8.56676C71.5235 8.59354 71.5101 8.60693 71.4833 8.60693H71.2784C71.2517 8.60693 71.2383 8.59354 71.2383 8.56676V6.06019C71.2383 6.04948 71.2329 6.04413 71.2222 6.04413H70.5915C70.5648 6.04413 70.5514 6.03074 70.5514 6.00396V5.83525C70.5514 5.80847 70.5648 5.79508 70.5915 5.79508H72.1943ZM74.1027 8.60693C74.0813 8.60693 74.0666 8.59622 74.0585 8.5748L73.5604 7.33356C73.5578 7.32553 73.5524 7.32151 73.5444 7.32151H73.0262C73.0155 7.32151 73.0101 7.32687 73.0101 7.33758V8.56676C73.0101 8.59354 72.9967 8.60693 72.9699 8.60693H72.7651C72.7383 8.60693 72.7249 8.59354 72.7249 8.56676V5.83525C72.7249 5.80847 72.7383 5.79508 72.7651 5.79508H73.6167C73.7559 5.79508 73.8791 5.82721 73.9862 5.89148C74.096 5.95575 74.1804 6.0468 74.2393 6.16463C74.3009 6.28246 74.3317 6.4177 74.3317 6.57035C74.3317 6.75245 74.2875 6.90777 74.1991 7.03631C74.1108 7.16485 73.9902 7.25055 73.8376 7.29339C73.8269 7.29875 73.8242 7.30545 73.8296 7.31348L74.3478 8.55873L74.3518 8.5748C74.3518 8.59622 74.3397 8.60693 74.3156 8.60693H74.1027ZM73.0262 6.04413C73.0155 6.04413 73.0101 6.04948 73.0101 6.06019V7.07648C73.0101 7.08719 73.0155 7.09255 73.0262 7.09255H73.5805C73.7198 7.09255 73.8322 7.04434 73.9179 6.94794C74.0036 6.85153 74.0465 6.72567 74.0465 6.57035C74.0465 6.41235 74.0036 6.28514 73.9179 6.18874C73.8322 6.09233 73.7198 6.04413 73.5805 6.04413H73.0262ZM76.3109 8.60693C76.2868 8.60693 76.272 8.59488 76.2667 8.57078L76.1341 8.06866C76.1315 8.06063 76.1248 8.05661 76.114 8.05661H75.154C75.1433 8.05661 75.1366 8.06063 75.1339 8.06866L75.0014 8.57078C74.996 8.59488 74.9813 8.60693 74.9572 8.60693H74.7483C74.7349 8.60693 74.7242 8.60292 74.7162 8.59488C74.7108 8.58685 74.7095 8.57614 74.7121 8.56275L75.4633 5.83123C75.4687 5.80713 75.4834 5.79508 75.5075 5.79508H75.7646C75.7887 5.79508 75.8034 5.80713 75.8088 5.83123L76.5599 8.56275L76.5639 8.5748C76.5639 8.59622 76.5506 8.60693 76.5238 8.60693H76.3109ZM75.2022 7.80756C75.1995 7.81024 75.1995 7.81426 75.2022 7.81961C75.2076 7.82229 75.2129 7.82363 75.2183 7.82363H76.0498C76.0551 7.82363 76.0591 7.82229 76.0618 7.81961C76.0672 7.81426 76.0685 7.81024 76.0658 7.80756L75.64 6.19275C75.6374 6.1874 75.6347 6.18472 75.632 6.18472C75.6293 6.18472 75.6267 6.1874 75.624 6.19275L75.2022 7.80756ZM77.6809 8.63907C77.4372 8.63907 77.2404 8.5681 77.0904 8.42617C76.9432 8.28424 76.8695 8.09544 76.8695 7.85978V6.54223C76.8695 6.30657 76.9432 6.11777 77.0904 5.97584C77.2404 5.83391 77.4372 5.76294 77.6809 5.76294C77.8416 5.76294 77.9822 5.79508 78.1027 5.85935C78.2259 5.92362 78.321 6.01333 78.3879 6.12848C78.4575 6.24363 78.4924 6.37619 78.4924 6.52616V6.63863C78.4924 6.66541 78.479 6.6788 78.4522 6.6788H78.2473C78.2205 6.6788 78.2072 6.66541 78.2072 6.63863V6.52616C78.2072 6.37352 78.159 6.25033 78.0625 6.1566C77.9661 6.06019 77.8389 6.01199 77.6809 6.01199C77.5229 6.01199 77.3957 6.06019 77.2993 6.1566C77.2029 6.25033 77.1547 6.37619 77.1547 6.53419V7.86782C77.1547 8.02314 77.2029 8.149 77.2993 8.24541C77.3984 8.34182 77.527 8.39002 77.685 8.39002C77.843 8.39002 77.9688 8.34449 78.0625 8.25344C78.159 8.16239 78.2072 8.03921 78.2072 7.88388V7.44604C78.2072 7.43533 78.2018 7.42997 78.1911 7.42997H77.7211C77.6943 7.42997 77.6809 7.41658 77.6809 7.3898V7.22109C77.6809 7.19431 77.6943 7.18092 77.7211 7.18092H78.4522C78.479 7.18092 78.4924 7.19431 78.4924 7.22109V7.84773C78.4924 8.09143 78.4187 8.28424 78.2714 8.42617C78.1241 8.5681 77.9273 8.63907 77.6809 8.63907ZM79.8309 8.63907C79.6676 8.63907 79.5229 8.60559 79.3971 8.53865C79.2739 8.46902 79.1775 8.37261 79.1079 8.24943C79.0409 8.12624 79.0074 7.98431 79.0074 7.82363V6.5824C79.0074 6.42172 79.0409 6.27979 79.1079 6.1566C79.1775 6.03074 79.2739 5.93433 79.3971 5.86738C79.5229 5.79775 79.6676 5.76294 79.8309 5.76294C79.9943 5.76294 80.1375 5.79775 80.2607 5.86738C80.3866 5.93433 80.4843 6.03074 80.554 6.1566C80.6236 6.27979 80.6584 6.42172 80.6584 6.5824V7.82363C80.6584 7.98431 80.6236 8.12624 80.554 8.24943C80.4843 8.37261 80.3866 8.46902 80.2607 8.53865C80.1375 8.60559 79.9943 8.63907 79.8309 8.63907ZM79.8309 8.39002C79.9943 8.39002 80.1255 8.33914 80.2246 8.23738C80.3237 8.13561 80.3732 8.00171 80.3732 7.83568V6.57436C80.3732 6.40565 80.3237 6.27041 80.2246 6.16865C80.1255 6.06421 79.9943 6.01199 79.8309 6.01199C79.6702 6.01199 79.5404 6.06421 79.4413 6.16865C79.3422 6.27041 79.2926 6.40565 79.2926 6.57436V7.83568C79.2926 8.00171 79.3422 8.13561 79.4413 8.23738C79.5404 8.33914 79.6702 8.39002 79.8309 8.39002ZM82.647 5.83525C82.647 5.80847 82.6604 5.79508 82.6872 5.79508H82.8921C82.9188 5.79508 82.9322 5.80847 82.9322 5.83525V8.56676C82.9322 8.59354 82.9188 8.60693 82.8921 8.60693H82.6752C82.6511 8.60693 82.635 8.59756 82.627 8.57882L81.5504 6.42975C81.5451 6.4244 81.5397 6.42172 81.5343 6.42172C81.5317 6.42172 81.5303 6.42574 81.5303 6.43377L81.5343 8.56676C81.5343 8.59354 81.521 8.60693 81.4942 8.60693H81.2893C81.2625 8.60693 81.2491 8.59354 81.2491 8.56676V5.83525C81.2491 5.80847 81.2625 5.79508 81.2893 5.79508H81.5062C81.5303 5.79508 81.5464 5.80445 81.5544 5.82319L82.631 7.98029C82.6363 7.98565 82.6403 7.98832 82.643 7.98832C82.6484 7.98832 82.6511 7.98431 82.6511 7.97627L82.647 5.83525ZM85.6122 7.27331C85.663 7.41256 85.6885 7.5719 85.6885 7.75133C85.6885 7.912 85.6684 8.05126 85.6282 8.16909C85.5291 8.48241 85.3096 8.63907 84.9695 8.63907C84.7874 8.63907 84.6347 8.59087 84.5115 8.49446C84.3883 8.39537 84.3093 8.26014 84.2745 8.08875C84.2558 8.00305 84.2464 7.90531 84.2464 7.79551C84.2464 7.76873 84.2598 7.75534 84.2866 7.75534H84.4914C84.5182 7.75534 84.5316 7.76873 84.5316 7.79551C84.537 7.91066 84.5437 7.98832 84.5517 8.02849C84.5758 8.14097 84.624 8.22934 84.6963 8.29361C84.7686 8.35788 84.8597 8.39002 84.9695 8.39002C85.1757 8.39002 85.3096 8.28558 85.3711 8.0767C85.3952 7.98029 85.4073 7.86514 85.4073 7.73124C85.4073 7.57056 85.3899 7.438 85.3551 7.33356C85.2855 7.14611 85.1569 7.05238 84.9695 7.05238C84.9266 7.05238 84.8891 7.06041 84.857 7.07648C84.8409 7.08184 84.8315 7.08451 84.8289 7.08451C84.8181 7.08451 84.8088 7.07916 84.8007 7.06845L84.6963 6.95999C84.6829 6.94124 84.6816 6.9225 84.6923 6.90375L85.3189 6.06421C85.3243 6.05886 85.3256 6.05484 85.3229 6.05216C85.3203 6.0468 85.3162 6.04413 85.3109 6.04413H84.3067C84.2799 6.04413 84.2665 6.03074 84.2665 6.00396V5.83525C84.2665 5.80847 84.2799 5.79508 84.3067 5.79508H85.6363C85.663 5.79508 85.6764 5.80847 85.6764 5.83525V6.01601C85.6764 6.03743 85.6711 6.05484 85.6604 6.06823L85.0779 6.86358C85.0752 6.86626 85.0752 6.87028 85.0779 6.87563C85.0806 6.88099 85.0846 6.88367 85.09 6.88367C85.2158 6.88902 85.3229 6.92518 85.4113 6.99212C85.4997 7.05907 85.5666 7.1528 85.6122 7.27331ZM86.9334 8.6471C86.7031 8.6471 86.5183 8.57748 86.3791 8.43822C86.2398 8.29897 86.1702 8.11285 86.1702 7.87987V6.52214C86.1702 6.29184 86.2398 6.10706 86.3791 5.9678C86.5183 5.82855 86.7031 5.75892 86.9334 5.75892C87.1664 5.75892 87.3525 5.82855 87.4917 5.9678C87.6337 6.10706 87.7046 6.29184 87.7046 6.52214V7.87987C87.7046 8.11285 87.6337 8.29897 87.4917 8.43822C87.3525 8.57748 87.1664 8.6471 86.9334 8.6471ZM86.9334 8.39805C87.0807 8.39805 87.1985 8.35253 87.2869 8.26148C87.3753 8.17043 87.4194 8.04992 87.4194 7.89995V6.50607C87.4194 6.35611 87.3753 6.2356 87.2869 6.14455C87.1985 6.0535 87.0807 6.00797 86.9334 6.00797C86.7915 6.00797 86.6763 6.0535 86.5879 6.14455C86.4996 6.2356 86.4554 6.35611 86.4554 6.50607V7.89995C86.4554 8.04724 86.4996 8.16775 86.5879 8.26148C86.6763 8.35253 86.7915 8.39805 86.9334 8.39805ZM88.8531 6.89973C88.7487 6.89973 88.6523 6.87429 88.5639 6.82341C88.4782 6.77253 88.4099 6.70424 88.359 6.61855C88.3081 6.53018 88.2827 6.43377 88.2827 6.32933C88.2827 6.22489 88.3081 6.12982 88.359 6.04413C88.4099 5.95575 88.4782 5.88613 88.5639 5.83525C88.6523 5.78436 88.7487 5.75892 88.8531 5.75892C88.9549 5.75892 89.0486 5.78436 89.1343 5.83525C89.2227 5.88613 89.2923 5.95575 89.3432 6.04413C89.3941 6.12982 89.4195 6.22489 89.4195 6.32933C89.4195 6.43377 89.3941 6.53018 89.3432 6.61855C89.2923 6.70424 89.2227 6.77253 89.1343 6.82341C89.0486 6.87429 88.9549 6.89973 88.8531 6.89973ZM88.7607 8.60693C88.7473 8.60693 88.7366 8.60292 88.7286 8.59488C88.7232 8.58417 88.7246 8.57212 88.7326 8.55873L90.2269 5.82319C90.2349 5.80445 90.251 5.79508 90.2751 5.79508H90.4037C90.417 5.79508 90.4264 5.80043 90.4318 5.81114C90.4398 5.81918 90.4398 5.82989 90.4318 5.84328L88.9375 8.57882C88.9294 8.59756 88.9134 8.60693 88.8893 8.60693H88.7607ZM88.8531 6.72299C88.9602 6.72299 89.0499 6.6855 89.1222 6.61051C89.1972 6.53285 89.2347 6.43913 89.2347 6.32933C89.2347 6.21953 89.1972 6.12714 89.1222 6.05216C89.0499 5.9745 88.9602 5.93567 88.8531 5.93567C88.746 5.93567 88.6549 5.9745 88.58 6.05216C88.505 6.12714 88.4675 6.21953 88.4675 6.32933C88.4675 6.43913 88.505 6.53285 88.58 6.61051C88.6549 6.6855 88.746 6.72299 88.8531 6.72299ZM90.3273 8.64309C90.2229 8.64309 90.1265 8.61765 90.0381 8.56676C89.9524 8.51588 89.8841 8.44626 89.8332 8.35788C89.7824 8.26951 89.7569 8.1731 89.7569 8.06866C89.7569 7.9669 89.7824 7.87317 89.8332 7.78748C89.8841 7.69911 89.9524 7.62948 90.0381 7.5786C90.1265 7.52772 90.2229 7.50228 90.3273 7.50228C90.4291 7.50228 90.5228 7.52772 90.6085 7.5786C90.6969 7.62948 90.7665 7.69911 90.8174 7.78748C90.8683 7.87317 90.8937 7.9669 90.8937 8.06866C90.8937 8.1731 90.8683 8.26951 90.8174 8.35788C90.7665 8.44626 90.6969 8.51588 90.6085 8.56676C90.5228 8.61765 90.4291 8.64309 90.3273 8.64309ZM90.3273 8.46634C90.4344 8.46634 90.5242 8.42751 90.5965 8.34985C90.6714 8.27219 90.7089 8.17846 90.7089 8.06866C90.7089 7.95887 90.6714 7.86648 90.5965 7.79149C90.5242 7.71651 90.4344 7.67902 90.3273 7.67902C90.2202 7.67902 90.1292 7.71651 90.0542 7.79149C89.9792 7.86648 89.9417 7.95887 89.9417 8.06866C89.9417 8.18114 89.9779 8.27621 90.0502 8.35387C90.1251 8.42885 90.2175 8.46634 90.3273 8.46634Z" fill="#404040"/>
<path fill-rule="evenodd" clip-rule="evenodd" d="M42.2717 22.4745L42.1644 22.4844L42.1594 22.6207L42.1544 22.7587H42.3263C42.4204 22.7587 42.6336 22.7637 42.7971 22.7703L43.0978 22.7803V24.6867C43.0978 26.5433 43.1044 26.9472 43.1341 26.9472C43.1408 26.9472 43.1903 26.9139 43.2432 26.8724C43.3192 26.8125 43.3621 26.7926 43.4662 26.7693L43.5934 26.7394V24.7598V22.7803L44.0593 22.7703C44.4063 22.762 44.5285 22.7537 44.5384 22.7387C44.5566 22.7088 44.555 22.5393 44.5368 22.511C44.5269 22.4961 44.479 22.4811 44.4244 22.4745C44.3121 22.4595 42.4304 22.4612 42.2717 22.4745Z" fill="black"/>
<path fill-rule="evenodd" clip-rule="evenodd" d="M45.2357 22.4714C45.2026 22.4781 45.201 22.4881 45.1911 22.9634C45.1845 23.231 45.1795 23.7762 45.1795 24.1751V24.9031H44.816H44.4526V24.1917C44.4526 23.8011 44.4476 23.3523 44.441 23.1944L44.4311 22.9086H44.2048H43.9768L43.9652 23.4271C43.9586 23.713 43.9569 24.6022 43.9602 25.4017L43.9652 26.856L44.0032 26.9375C44.0495 27.0405 44.0495 27.092 43.9982 27.2134C43.9421 27.3463 43.9454 27.3763 44.0115 27.4028C44.1106 27.4444 44.1981 27.4511 44.2956 27.4211C44.4509 27.3763 44.4427 27.4444 44.4493 26.2028L44.4559 25.1358H44.8177H45.1795V26.0782C45.1795 26.5984 45.1845 27.1286 45.1911 27.2566L45.201 27.4926L45.2638 27.5125C45.3315 27.5358 45.4009 27.5242 45.5677 27.461L45.6586 27.4278L45.657 25.4216C45.6553 24.318 45.6487 23.2027 45.6437 22.9418L45.6338 22.4681L45.4521 22.4664C45.353 22.4648 45.2555 22.4664 45.2357 22.4714Z" fill="black"/>
<path fill-rule="evenodd" clip-rule="evenodd" d="M41.6637 23.0416C41.4539 23.0715 41.3068 23.1496 41.2391 23.2643C41.1796 23.3674 41.1647 23.4954 41.1647 23.8876C41.1647 24.4976 41.168 24.5026 41.8586 25.5264C42.0271 25.7774 42.0519 25.819 42.1312 25.9968C42.2023 26.1547 42.2089 26.1813 42.2221 26.3625C42.2303 26.4688 42.2386 26.7614 42.2386 27.009C42.2386 27.2583 42.2436 27.4628 42.2518 27.4628C42.2584 27.4628 42.3625 27.4478 42.4831 27.4279L42.7028 27.3913L42.6979 26.7664L42.6929 26.1414L42.6219 25.9636C42.5426 25.7674 42.3956 25.5214 42.0734 25.0527C41.9577 24.8832 41.819 24.6671 41.7678 24.5741L41.6719 24.4029L41.6554 23.9342C41.6389 23.4189 41.6471 23.3242 41.7198 23.2527C41.7661 23.2062 41.8223 23.1912 41.9577 23.1912C42.0883 23.1912 42.1477 23.2161 42.1923 23.2876C42.2287 23.3474 42.2303 23.3624 42.2386 23.9092C42.2452 24.3347 42.2518 24.4743 42.2683 24.491C42.2948 24.5175 42.6318 24.5292 42.6682 24.5059C42.6896 24.491 42.6929 24.4095 42.6979 23.9724C42.7028 23.4272 42.6929 23.3059 42.6351 23.2244C42.5955 23.1679 42.4336 23.0865 42.3047 23.0582C42.1874 23.0333 41.7991 23.0233 41.6637 23.0416Z" fill="black"/>
<path fill-rule="evenodd" clip-rule="evenodd" d="M46.6056 23.0732C46.3446 23.1098 46.2074 23.1796 46.1281 23.3159C46.0852 23.3873 46.0819 23.4139 46.0703 23.6366C46.0637 23.7696 46.0571 24.6705 46.0571 25.6361L46.0555 27.393L46.11 27.4329C46.2306 27.5259 46.3264 27.5342 46.4652 27.4661L46.5263 27.4362L46.5313 26.4506L46.5346 25.4666H46.8319H47.1293V26.4539V27.4412L47.2367 27.511L47.3457 27.5824L47.4498 27.5376C47.5093 27.5126 47.5688 27.4811 47.587 27.4694C47.615 27.4478 47.6167 27.3863 47.6216 26.1614C47.6283 24.6771 47.6068 23.512 47.5704 23.3757C47.5159 23.1696 47.3325 23.0882 46.8732 23.0665C46.7824 23.0632 46.6618 23.0649 46.6056 23.0732ZM46.9972 23.2544C47.0335 23.2726 47.0665 23.3075 47.088 23.3491C47.1178 23.4106 47.1194 23.4605 47.126 24.2367C47.1293 24.6887 47.126 25.1043 47.1178 25.1591L47.1045 25.2588L46.8732 25.2638C46.746 25.2672 46.6172 25.2638 46.5891 25.2588L46.5346 25.2489V24.5308C46.5362 23.7297 46.5511 23.404 46.5891 23.3292C46.6469 23.2161 46.8468 23.1796 46.9972 23.2544Z" fill="black"/>
<path fill-rule="evenodd" clip-rule="evenodd" d="M39.407 23.8072C39.4021 23.8637 39.3971 24.5701 39.3971 25.3762V26.8422L39.5144 26.8538C39.5789 26.8588 39.6747 26.8787 39.7275 26.897C39.7821 26.9153 39.8333 26.9303 39.8432 26.9303C39.8614 26.9303 39.868 23.9186 39.8498 23.7823L39.8382 23.7058H39.6284H39.4186L39.407 23.8072Z" fill="black"/>
<path fill-rule="evenodd" clip-rule="evenodd" d="M40.3437 23.7254C40.3189 23.7636 40.2924 26.8285 40.3156 26.9448C40.3288 27.0047 40.3536 27.0097 40.3982 26.9615C40.4461 26.9083 40.5171 26.8784 40.6427 26.8567L40.76 26.8368L40.7699 26.6041C40.7848 26.2999 40.7848 23.9414 40.7699 23.8135L40.76 23.7137L40.5584 23.7087C40.4097 23.7054 40.3536 23.7104 40.3437 23.7254Z" fill="black"/>
<path fill-rule="evenodd" clip-rule="evenodd" d="M48.0296 23.734C48.0214 23.7506 48.0131 24.2691 48.0081 24.8874L48.0015 26.0094L48.0544 26.2504C48.175 26.7972 48.3039 27.2892 48.3633 27.4338C48.4393 27.6116 48.6161 27.5385 48.6161 27.3307C48.6161 27.2792 48.6078 27.1845 48.5979 27.1213C48.5071 26.498 48.4872 26.1407 48.4707 24.7528L48.4592 23.714L48.251 23.709C48.0643 23.7057 48.0412 23.7074 48.0296 23.734Z" fill="black"/>
<path fill-rule="evenodd" clip-rule="evenodd" d="M48.9533 23.7236C48.9467 23.7353 48.9352 24.2621 48.9286 24.8921C48.922 25.5237 48.9087 26.112 48.8988 26.1985C48.8542 26.6073 48.8344 26.8085 48.836 26.855C48.8377 26.8816 48.8327 26.963 48.8245 27.0345C48.8113 27.1658 48.8113 27.1658 48.8476 27.1459C48.8674 27.1359 48.922 27.091 48.9682 27.0495C49.0161 27.0062 49.0822 26.9497 49.1169 26.9231C49.1516 26.8965 49.1912 26.8533 49.2045 26.8284C49.2392 26.7603 49.3565 26.2317 49.3763 26.0472C49.3978 25.8644 49.3928 23.7485 49.3713 23.7269C49.3631 23.7203 49.2689 23.712 49.1615 23.7087C49.0161 23.7037 48.9633 23.7087 48.9533 23.7236Z" fill="black"/>
<path fill-rule="evenodd" clip-rule="evenodd" d="M38.7709 24.3709L38.5495 24.3792L38.3876 25.2019C38.2984 25.654 38.2224 26.0346 38.2207 26.0479C38.2124 26.0911 38.1794 26.0845 38.1596 26.0379C38.1497 26.013 38.1315 25.9349 38.1183 25.8667C38.1067 25.7986 38.0456 25.4994 37.9845 25.2019C37.9233 24.9044 37.8605 24.5986 37.8457 24.5204L37.8192 24.3792L37.5896 24.3742L37.36 24.3692L37.3699 25.4944C37.3765 26.1144 37.3814 26.9039 37.3814 27.2496V27.8779H37.6127H37.844L37.8457 27.2662C37.8457 26.9305 37.8523 26.618 37.8605 26.5731C37.8672 26.5266 37.8738 26.495 37.8754 26.5017C37.9134 26.7044 38.0076 27.2247 38.0158 27.2812C38.034 27.4042 38.0538 27.4208 38.1844 27.4191C38.2752 27.4191 38.3 27.4125 38.3215 27.3842C38.3397 27.3626 38.371 27.2213 38.4123 26.9787C38.447 26.7742 38.4817 26.5947 38.49 26.5814C38.4983 26.5648 38.5049 26.608 38.5049 26.6978C38.5049 26.9238 38.5247 27.115 38.5462 27.1233C38.5577 27.1283 38.599 27.11 38.6387 27.0834C38.6783 27.0568 38.7709 27.0103 38.8435 26.9803C38.9162 26.9488 38.9807 26.9188 38.9889 26.9139C38.9955 26.9089 38.9988 26.3321 38.9972 25.6324L38.9922 24.3625L38.7709 24.3709Z" fill="black"/>
<path fill-rule="evenodd" clip-rule="evenodd" d="M49.8124 24.3911C49.8042 24.4028 49.7959 24.943 49.7926 25.5928L49.786 26.7729L49.8521 26.8111C49.9859 26.8859 50.047 27.0039 50.0322 27.1569C50.0206 27.2666 49.9744 27.3729 49.8752 27.5192C49.8042 27.6222 49.7976 27.6405 49.7976 27.7303C49.7976 27.7951 49.8058 27.8367 49.8224 27.8516C49.8504 27.8799 50.0784 27.8898 50.5295 27.8815L50.7971 27.8782V27.7552V27.6339L50.5625 27.6222C50.4336 27.6156 50.3246 27.6073 50.3213 27.6056C50.318 27.6023 50.3114 27.2782 50.3064 26.8859L50.2965 26.1712L50.4502 26.1613C50.5344 26.1546 50.6352 26.1496 50.6732 26.1496C50.7558 26.1496 50.7657 26.1297 50.7525 25.9901L50.7426 25.9003H50.5229H50.3015V25.2704C50.3015 24.8416 50.3064 24.6355 50.3196 24.6288C50.3296 24.6222 50.4353 24.6122 50.5542 24.6072L50.7723 24.5956V24.4875V24.3795L50.2982 24.3745C49.933 24.3712 49.8224 24.3762 49.8124 24.3911Z" fill="black"/>
<path fill-rule="evenodd" clip-rule="evenodd" d="M41.1629 26.3078C41.1415 26.3643 41.1563 26.956 41.1828 27.0806C41.1943 27.1305 41.1927 27.1804 41.1828 27.2302C41.158 27.3316 41.1613 27.4164 41.1877 27.4529C41.2092 27.4829 41.2141 27.4829 41.3893 27.4463C41.4884 27.4247 41.5859 27.4047 41.6073 27.3998L41.6453 27.3915L41.6404 26.8463C41.6371 26.5454 41.6288 26.2945 41.6222 26.2878C41.6156 26.2795 41.5132 26.2712 41.3959 26.2679L41.1811 26.2612L41.1629 26.3078Z" fill="black"/>
<path fill-rule="evenodd" clip-rule="evenodd" d="M43.4944 27.0154C43.4317 27.0403 43.3524 27.1251 43.2598 27.2631C43.1805 27.3827 42.9179 27.7284 42.9063 27.7284C42.9046 27.7284 42.8749 27.7118 42.8419 27.6935C42.7873 27.6603 42.7642 27.6586 42.6221 27.6669C42.3396 27.6819 42.1645 27.7733 41.8869 28.0476C41.6573 28.2753 41.4541 28.4082 41.4111 28.365C41.3996 28.3534 41.4376 28.2952 41.5235 28.1938C41.7845 27.8814 41.7845 27.8814 41.773 27.785C41.7696 27.7534 41.7498 27.7251 41.7102 27.6985C41.6292 27.6437 41.5103 27.6553 41.3269 27.7368C41.2509 27.77 41.1798 27.8016 41.1699 27.8066C41.1584 27.8115 41.1418 27.7966 41.1336 27.7733C41.0956 27.6736 40.975 27.6753 40.8825 27.775C40.8511 27.8082 40.7817 27.8913 40.7288 27.9578C40.5669 28.1639 40.2844 28.3833 40.1522 28.4049C39.9788 28.4332 40.1027 28.1905 40.5454 27.637C40.8693 27.2315 40.9122 27.155 40.8362 27.1135C40.7833 27.0869 40.666 27.0935 40.6082 27.1284C40.5801 27.1467 40.4678 27.2714 40.3587 27.4077C40.1407 27.6802 39.8317 27.9911 39.6335 28.139C39.4104 28.3052 39.1378 28.4132 39.0751 28.36C39.004 28.3019 39.0899 28.1589 39.4617 27.7151C39.5558 27.6021 39.6566 27.4708 39.688 27.4243C39.7491 27.3295 39.7607 27.2448 39.7194 27.1849C39.6583 27.0968 39.4022 27.0719 39.1725 27.1301C38.852 27.2115 38.6472 27.386 38.7744 27.4708C38.8272 27.5041 38.8983 27.4825 39.0965 27.3694C39.2584 27.2797 39.4204 27.2298 39.4517 27.2614C39.4732 27.283 39.3807 27.4027 39.1329 27.6703C38.8206 28.006 38.7232 28.1739 38.7413 28.3401C38.7546 28.4647 38.8966 28.5744 39.0437 28.5761C39.2056 28.5761 39.4418 28.4664 39.6269 28.3019C39.6946 28.242 39.759 28.1938 39.7723 28.1938C39.7987 28.1938 39.7987 28.1905 39.7689 28.2753C39.7392 28.3617 39.7607 28.4298 39.8416 28.498C39.949 28.5877 40.0944 28.5944 40.2695 28.5163C40.372 28.4697 40.4298 28.4647 40.4447 28.5013C40.4513 28.5179 40.4777 28.5262 40.5273 28.5262C40.6 28.5262 40.6033 28.5246 40.7206 28.38C40.8891 28.1739 40.9932 28.0692 41.1072 27.9861C41.3764 27.7916 41.5697 27.77 41.4343 27.9495C41.4078 27.9827 41.3401 28.0625 41.2823 28.129C41.1237 28.3102 41.0906 28.4249 41.1749 28.4913C41.2112 28.5196 41.2426 28.5262 41.3418 28.5262C41.4706 28.5262 41.5119 28.5113 41.6722 28.4099C41.7151 28.3816 41.7597 28.36 41.7713 28.36C41.7829 28.36 41.806 28.3883 41.8242 28.4249C41.8638 28.503 41.9283 28.5312 42.0571 28.5312C42.1728 28.5296 42.2835 28.483 42.3908 28.3916C42.4338 28.3567 42.4751 28.3268 42.485 28.3268C42.4949 28.3268 42.5032 28.3501 42.5032 28.3783C42.5032 28.4116 42.5197 28.4448 42.5511 28.478C42.5924 28.5196 42.6122 28.5262 42.6882 28.5262C42.7923 28.5262 42.9162 28.4731 43.0451 28.3733C43.093 28.3368 43.1359 28.3102 43.1409 28.3152C43.1459 28.3201 43.1624 28.3484 43.1789 28.38C43.1954 28.4099 43.2433 28.4598 43.2863 28.488C43.3557 28.5362 43.3805 28.5429 43.4697 28.5429C43.6151 28.5429 43.7324 28.5163 43.8579 28.4581C44.005 28.39 44.1024 28.3102 44.3701 28.0525C44.5468 27.8797 44.6113 27.8282 44.6559 27.8199C44.7814 27.7949 44.7765 27.8115 44.6014 28.011C44.3354 28.3102 44.2891 28.4165 44.3882 28.4996C44.489 28.5844 44.6988 28.5462 44.9103 28.4049C44.9714 28.3634 45.0326 28.3268 45.0425 28.3235C45.054 28.3201 45.0755 28.3451 45.092 28.3767C45.1912 28.5711 45.4753 28.5944 45.7909 28.4348C45.8504 28.4049 45.9098 28.3683 45.9214 28.3534C45.9544 28.3135 45.9677 28.3185 46.0734 28.4165C46.1907 28.5262 46.2535 28.5495 46.4088 28.5395C46.5624 28.5296 46.6748 28.4747 46.8383 28.3301C47.0019 28.1888 47.1126 28.1074 47.1357 28.1157C47.1473 28.119 47.1522 28.1672 47.1489 28.2454C47.1407 28.4514 47.2018 28.5262 47.3786 28.5262C47.519 28.5262 47.6198 28.488 47.7305 28.3949C47.785 28.3484 47.8345 28.3152 47.8428 28.3201C47.8494 28.3251 47.856 28.355 47.856 28.3866C47.856 28.4797 47.9155 28.5262 48.0328 28.5262C48.1402 28.5262 48.2178 28.4947 48.3434 28.4032C48.388 28.37 48.4359 28.3434 48.4475 28.3434C48.4574 28.3434 48.4805 28.375 48.4954 28.4116C48.5582 28.5728 48.8126 28.5861 49.0224 28.4415C49.1347 28.365 49.4139 28.0841 49.4057 28.0575C49.3875 28.0027 49.328 28.0309 49.1513 28.1722C48.9629 28.3268 48.8919 28.3667 48.8275 28.3567C48.7944 28.3517 48.7895 28.3434 48.7911 28.2736C48.7911 28.1722 48.8341 28.1124 48.9927 27.9861C49.328 27.7201 49.6139 27.4243 49.6849 27.268C49.7411 27.1467 49.7328 27.0486 49.6667 27.0154C49.6039 26.9855 49.4602 27.0137 49.3677 27.0752C49.1827 27.1999 48.7812 27.662 48.616 27.9445C48.5367 28.0775 48.4359 28.1839 48.307 28.2703C48.1963 28.3451 48.1237 28.37 48.1005 28.3467C48.0757 28.3218 48.1303 28.242 48.2856 28.0692C48.35 27.996 48.4161 27.9113 48.4309 27.8814C48.4574 27.8282 48.4557 27.8232 48.4293 27.8032C48.4128 27.7916 48.3715 27.7783 48.3368 27.7717C48.3004 27.7667 48.2492 27.7434 48.2228 27.7201C48.1253 27.6387 47.9287 27.6354 47.7007 27.7118C47.6379 27.7318 47.5256 27.7949 47.4166 27.8697C47.172 28.0409 47.1258 28.0376 47.1076 27.8548C47.096 27.7384 47.0564 27.6869 46.9573 27.6603C46.726 27.5971 46.341 27.7633 46.1015 28.0293C45.9346 28.2138 45.7116 28.3517 45.5431 28.3717C45.4836 28.3783 45.4605 28.3733 45.4241 28.3434C45.3663 28.2985 45.3663 28.257 45.4258 28.1523C45.5166 27.9927 45.7364 27.8016 45.8487 27.7833C45.9214 27.7717 45.9247 27.7999 45.8652 27.888C45.8124 27.9645 45.819 27.9844 45.8933 27.9911C45.9412 27.9944 45.9643 27.9861 46.0139 27.9428C46.1362 27.8348 46.1395 27.7567 46.0222 27.6886C45.9032 27.6171 45.6504 27.662 45.4406 27.7899C45.3878 27.8215 45.2539 27.9345 45.1433 28.0393C44.8806 28.2902 44.6955 28.4116 44.6476 28.3634C44.6261 28.3418 44.7203 28.2121 44.9004 28.021C45.0656 27.8448 45.1053 27.785 45.0871 27.7368C45.0722 27.6985 45.0094 27.6902 44.831 27.7018C44.6741 27.7135 44.6674 27.7118 44.6674 27.6802C44.6674 27.662 44.6493 27.6337 44.6261 27.6187C44.5204 27.5489 44.3056 27.6969 44.3668 27.7966C44.3998 27.8481 44.3899 27.873 44.2941 27.9761C44.1702 28.1124 44.0264 28.2188 43.8596 28.3002C43.6167 28.4165 43.4531 28.3883 43.4531 28.2287C43.4531 28.1922 43.4598 28.1573 43.4664 28.1506C43.473 28.144 43.5589 28.1323 43.6564 28.1257C43.9223 28.1057 44.0677 28.0476 44.147 27.9312C44.2049 27.8464 44.1999 27.7933 44.1305 27.7301C44.0264 27.6387 43.891 27.6271 43.6745 27.6952C43.544 27.7351 43.4531 27.8032 43.1855 28.0625C42.9327 28.3068 42.8171 28.385 42.7741 28.3401C42.7527 28.3201 42.7593 28.3035 42.8138 28.2171C42.8766 28.1207 43.0864 27.8631 43.4168 27.4791C43.7191 27.1284 43.7753 27.0304 43.6894 27.0071C43.6349 26.9921 43.5424 26.9971 43.4944 27.0154ZM49.5742 27.2016C49.5742 27.273 49.1017 27.8115 49.0389 27.8115C48.9993 27.8115 49.2768 27.4309 49.4272 27.2813C49.5246 27.1833 49.5742 27.1567 49.5742 27.2016ZM42.7741 27.7883C42.8303 27.8099 42.7989 27.8681 42.6486 28.0176C42.4834 28.1822 42.3479 28.2803 42.2174 28.3301C42.0753 28.385 42.0307 28.3285 42.1166 28.2005C42.2306 28.0276 42.4487 27.8647 42.6436 27.8016C42.7213 27.7766 42.7394 27.775 42.7741 27.7883ZM43.9967 27.8049C44.0347 27.8415 44.0297 27.8647 43.9769 27.9163C43.9141 27.9761 43.8067 28.011 43.6795 28.011H43.5721L43.6101 27.9694C43.6613 27.9146 43.8017 27.8215 43.8662 27.7982C43.9372 27.7733 43.967 27.775 43.9967 27.8049ZM46.9391 27.8082C46.9391 27.8199 46.9094 27.8464 46.8747 27.8664C46.7954 27.9113 46.7441 27.9778 46.759 28.016C46.764 28.0326 46.7904 28.0559 46.8168 28.0708C46.8433 28.0841 46.8647 28.1057 46.8647 28.119C46.8647 28.1506 46.7854 28.2088 46.6335 28.2902C46.4468 28.3916 46.3493 28.3983 46.3047 28.3118C46.2436 28.1988 46.5195 27.903 46.7706 27.8099C46.8647 27.775 46.9391 27.775 46.9391 27.8082ZM48.1005 27.7883C48.1501 27.8032 48.1468 27.8415 48.084 27.9262C47.9535 28.1041 47.5504 28.3816 47.4612 28.3517C47.3174 28.3068 47.6644 27.9229 47.9535 27.8099C48.0394 27.7766 48.0477 27.775 48.1005 27.7883Z" fill="black"/>
<path fill-rule="evenodd" clip-rule="evenodd" d="M38.533 27.6728C38.5147 27.6894 38.5197 27.8573 38.5379 27.8689C38.5562 27.8805 38.6709 27.7758 38.6709 27.7476C38.6709 27.726 38.5895 27.6611 38.5629 27.6611C38.5529 27.6611 38.5379 27.6661 38.533 27.6728Z" fill="black"/>
<path fill-rule="evenodd" clip-rule="evenodd" d="M37.3685 28.1626L37.3735 28.2174L37.8047 28.2224C38.2788 28.2274 38.4011 28.2174 38.4292 28.1709C38.4424 28.1476 38.4424 28.1376 38.4226 28.126C38.4077 28.116 38.1813 28.1094 37.8807 28.1094H37.3636L37.3685 28.1626Z" fill="black"/>
<path fill-rule="evenodd" clip-rule="evenodd" d="M49.7464 28.126C49.7101 28.141 49.682 28.1892 49.7001 28.2074C49.7051 28.2124 49.9562 28.2174 50.2569 28.2174H50.8054L50.8104 28.1626L50.8153 28.1094L50.2982 28.111C50.014 28.111 49.7662 28.1177 49.7464 28.126Z" fill="black"/>
<path fill-rule="evenodd" clip-rule="evenodd" d="M38.1531 28.7943C37.9647 28.8492 37.902 29.0852 38.0424 29.2198C38.1696 29.3395 38.4141 29.3362 38.5215 29.2148C38.6223 29.1002 38.6008 28.924 38.4785 28.8375C38.4009 28.7827 38.2605 28.7644 38.1531 28.7943ZM38.4042 28.8891C38.4273 28.9057 38.4571 28.9472 38.467 28.9805C38.5248 29.155 38.3216 29.3112 38.1679 29.2098C38.1035 29.1666 38.0771 29.1151 38.0754 29.0287C38.0754 28.9722 38.0853 28.9489 38.1217 28.914C38.1465 28.8907 38.1812 28.8658 38.1993 28.8575C38.2489 28.8359 38.3563 28.8525 38.4042 28.8891Z" fill="black"/>
<path fill-rule="evenodd" clip-rule="evenodd" d="M39.4366 28.7913C39.3887 28.8112 39.3309 28.8877 39.3309 28.9326C39.3309 28.9941 39.4035 29.0506 39.4961 29.0622C39.5902 29.0738 39.6877 29.1154 39.7009 29.1503C39.7059 29.1636 39.6943 29.1902 39.6761 29.2085C39.6266 29.2583 39.5027 29.245 39.4217 29.1835C39.3309 29.1137 39.2697 29.1586 39.3523 29.2367C39.4878 29.3647 39.81 29.3065 39.81 29.1536C39.81 29.1287 39.7951 29.0921 39.7786 29.0755C39.7505 29.0472 39.6035 28.9907 39.5572 28.9907C39.5225 28.9907 39.43 28.9359 39.43 28.9143C39.43 28.881 39.4977 28.8411 39.5555 28.8411C39.5836 28.8411 39.6348 28.8594 39.6679 28.8827C39.734 28.9276 39.7934 28.9375 39.7934 28.9026C39.7934 28.8179 39.5539 28.7431 39.4366 28.7913Z" fill="black"/>
<path fill-rule="evenodd" clip-rule="evenodd" d="M42.9294 28.7905C42.7394 28.852 42.6683 29.0248 42.7658 29.1844C42.8236 29.2808 43.0004 29.3307 43.1458 29.2908C43.3622 29.2326 43.4151 28.9633 43.2366 28.837C43.1623 28.7855 43.0153 28.7639 42.9294 28.7905ZM43.1573 28.8836C43.2135 28.9201 43.2515 29.0149 43.24 29.083C43.2333 29.1113 43.2069 29.1578 43.1788 29.1844C43.1359 29.2259 43.116 29.2326 43.04 29.2326C42.931 29.2326 42.8682 29.191 42.8352 29.0963C42.8137 29.0365 42.8154 29.0248 42.8434 28.965C42.8996 28.8486 43.0467 28.8104 43.1573 28.8836Z" fill="black"/>
<path fill-rule="evenodd" clip-rule="evenodd" d="M43.615 28.8046C43.5076 28.8478 43.4646 28.8943 43.4531 28.9808C43.4349 29.0988 43.4547 29.1636 43.5274 29.2284C43.6232 29.3165 43.7967 29.3315 43.9256 29.2633C43.995 29.2284 44.0577 29.1237 44.0594 29.0456C44.0611 28.9276 43.9983 28.8428 43.876 28.7996C43.7851 28.768 43.7025 28.7697 43.615 28.8046ZM43.8529 28.8744C43.9718 28.9475 43.99 29.0805 43.8942 29.1769C43.7736 29.2999 43.5439 29.2251 43.5439 29.0622C43.5439 28.8943 43.7158 28.7896 43.8529 28.8744Z" fill="black"/>
<path fill-rule="evenodd" clip-rule="evenodd" d="M47.0895 28.7899C46.9838 28.8232 46.9061 28.9511 46.9193 29.0691C46.9293 29.1622 46.9722 29.2204 47.0631 29.2669C47.1969 29.3367 47.3786 29.3052 47.4761 29.1971C47.5125 29.1589 47.5174 29.1373 47.5174 29.0425C47.5158 28.9096 47.486 28.8547 47.3968 28.8182C47.3175 28.7866 47.1506 28.7716 47.0895 28.7899ZM47.3291 28.878C47.3605 28.8979 47.3985 28.9428 47.415 28.9777C47.4447 29.0376 47.4447 29.0409 47.415 29.1007C47.3753 29.1822 47.2911 29.2387 47.2068 29.2387C47.1539 29.2387 47.1308 29.227 47.0779 29.1739C47.0267 29.1223 47.0135 29.0974 47.0135 29.0475C47.0135 28.8813 47.1919 28.7849 47.3291 28.878Z" fill="black"/>
<path fill-rule="evenodd" clip-rule="evenodd" d="M49.0409 28.799C48.955 28.8306 48.9203 28.8655 48.8872 28.9519C48.8211 29.1281 48.955 29.3076 49.1532 29.3076C49.2457 29.3076 49.3531 29.2544 49.3911 29.1896C49.4506 29.0915 49.3994 29.0799 49.297 29.168C49.2507 29.2062 49.2044 29.2312 49.1615 29.2361C49.1037 29.2445 49.0904 29.2395 49.0392 29.1879C48.9418 29.0899 48.9401 28.9951 49.0376 28.8971C49.1086 28.8256 49.1631 28.8256 49.2771 28.9004C49.3763 28.9652 49.4159 28.9569 49.3763 28.8821C49.33 28.7973 49.1598 28.7541 49.0409 28.799Z" fill="black"/>
<path fill-rule="evenodd" clip-rule="evenodd" d="M49.7299 28.7876C49.6721 28.7992 49.5614 28.9039 49.5415 28.9687C49.5184 29.0402 49.5283 29.1083 49.5779 29.1881C49.6241 29.2629 49.7216 29.3061 49.8455 29.3078C49.938 29.3078 49.9447 29.3045 50.0157 29.233C50.057 29.1931 50.0867 29.1499 50.0834 29.1383C50.0702 29.0984 50.0256 29.1067 49.9777 29.1549C49.8868 29.2446 49.8257 29.2613 49.7398 29.2164C49.6407 29.1649 49.6109 29.0236 49.6787 28.9238C49.7447 28.8241 49.824 28.8241 49.9826 28.9272C50.0339 28.9588 50.0372 28.9604 50.0487 28.9338C50.0818 28.8441 49.8901 28.756 49.7299 28.7876Z" fill="black"/>
<path fill-rule="evenodd" clip-rule="evenodd" d="M50.3824 28.7906C50.2436 28.8354 50.194 28.9202 50.2006 29.0947C50.2023 29.1546 50.2766 29.2393 50.3593 29.2759C50.5063 29.344 50.731 29.2875 50.7871 29.1679C50.845 29.0465 50.807 28.9052 50.6996 28.8338C50.6269 28.7856 50.465 28.764 50.3824 28.7906ZM50.617 28.877C50.6649 28.8953 50.7145 28.9867 50.7145 29.0565C50.7145 29.1496 50.6038 29.241 50.4914 29.241C50.4485 29.241 50.4171 29.226 50.3708 29.1845C50.3146 29.1313 50.3097 29.1197 50.3097 29.0365C50.3097 28.9701 50.3179 28.9352 50.3411 28.9102C50.3989 28.8454 50.5046 28.8338 50.617 28.877Z" fill="black"/>
<path fill-rule="evenodd" clip-rule="evenodd" d="M37.4017 28.8115C37.4066 28.8231 37.4397 28.8347 37.476 28.8381C37.514 28.8414 37.5537 28.8547 37.5652 28.868C37.5784 28.8846 37.59 28.9661 37.5933 29.0924C37.5999 29.2636 37.6049 29.2902 37.628 29.2902C37.6842 29.2902 37.6957 29.2536 37.6957 29.0824C37.6957 28.878 37.7139 28.8414 37.8114 28.8464C37.8808 28.848 37.9039 28.8381 37.8857 28.8098C37.8692 28.7816 37.3934 28.7849 37.4017 28.8115Z" fill="black"/>
<path fill-rule="evenodd" clip-rule="evenodd" d="M38.8882 28.8301C38.8518 28.87 38.7147 29.1626 38.6949 29.244C38.685 29.2839 38.6883 29.2905 38.7163 29.2905C38.7494 29.2905 38.7808 29.2623 38.8105 29.2008C38.8254 29.1709 38.8436 29.1659 38.946 29.1609L39.0649 29.1559L39.0881 29.2108C39.1294 29.3088 39.1988 29.3354 39.1988 29.2523C39.1988 29.2041 39.0534 28.8684 39.0137 28.8252C38.9724 28.7819 38.9311 28.7836 38.8882 28.8301ZM38.9939 29.0013C39.0071 29.0728 38.9856 29.0994 38.9278 29.0844C38.8783 29.0728 38.8716 29.0329 38.9113 28.9781C38.9493 28.9232 38.9807 28.9332 38.9939 29.0013Z" fill="black"/>
<path fill-rule="evenodd" clip-rule="evenodd" d="M39.9124 28.8119C39.9173 28.8236 39.9305 28.8352 39.9438 28.8369C39.957 28.8385 39.995 28.8435 40.0297 28.8502L40.0908 28.8601V28.9648C40.0908 29.1427 40.1106 29.2757 40.1371 29.2873C40.1817 29.3039 40.2031 29.2424 40.2147 29.0496L40.2263 28.8601L40.2858 28.8502C40.3204 28.8435 40.3568 28.8385 40.37 28.8369C40.3832 28.8352 40.3964 28.8236 40.4014 28.8119C40.4064 28.797 40.3502 28.792 40.1569 28.792C39.9636 28.792 39.9074 28.797 39.9124 28.8119Z" fill="black"/>
<path fill-rule="evenodd" clip-rule="evenodd" d="M40.5849 28.803C40.5304 28.8113 40.5204 28.8528 40.5204 29.0656C40.5204 29.2916 40.5271 29.2983 40.7815 29.2983C40.8905 29.2983 40.9863 29.2916 40.9929 29.285C41.0177 29.2617 40.9616 29.2401 40.874 29.2401C40.8277 29.2401 40.755 29.2351 40.7121 29.2301L40.6361 29.2185V29.1487V29.0789L40.7864 29.0689C40.8707 29.0639 40.945 29.0523 40.955 29.0423C40.9797 29.0174 40.8971 28.9908 40.7914 28.9908C40.679 28.9908 40.6361 28.9692 40.6361 28.9143C40.6361 28.8611 40.6873 28.8412 40.8261 28.8412C40.9401 28.8412 40.988 28.8296 40.9731 28.8063C40.9649 28.7913 40.6724 28.7897 40.5849 28.803Z" fill="black"/>
<path fill-rule="evenodd" clip-rule="evenodd" d="M41.1797 28.804C41.1582 28.809 41.1516 28.8389 41.145 28.9552C41.1417 29.035 41.1417 29.1397 41.145 29.1879C41.1516 29.2661 41.1566 29.2794 41.1962 29.2943C41.2557 29.3176 41.4589 29.3026 41.5234 29.2694C41.6473 29.2046 41.6968 29.035 41.6274 28.9104C41.5746 28.8173 41.5134 28.7924 41.3433 28.794C41.2689 28.7957 41.1946 28.799 41.1797 28.804ZM41.4457 28.8588C41.5201 28.8788 41.5614 28.9469 41.5614 29.05C41.5614 29.1131 41.5531 29.1364 41.5151 29.1746C41.4639 29.2245 41.373 29.2511 41.3069 29.2345C41.2772 29.2278 41.2656 29.2095 41.2574 29.163C41.2408 29.0566 41.2458 28.8838 41.2673 28.8622C41.2921 28.8372 41.3664 28.8372 41.4457 28.8588Z" fill="black"/>
<path fill-rule="evenodd" clip-rule="evenodd" d="M42.1098 28.8066C42.0768 28.8265 42.0883 29.2686 42.123 29.2902C42.1643 29.3152 42.1875 29.2753 42.1924 29.1689L42.1974 29.0658L42.3378 29.0725C42.4171 29.0758 42.4832 29.0858 42.4898 29.0974C42.4964 29.1074 42.503 29.1373 42.503 29.1656C42.503 29.2404 42.5212 29.2902 42.546 29.2902C42.5774 29.2902 42.5873 29.2071 42.5823 28.991C42.5774 28.8132 42.5757 28.7999 42.5443 28.7999C42.5179 28.7999 42.5096 28.8149 42.5014 28.8797C42.4964 28.9246 42.4815 28.9678 42.4683 28.9761C42.4567 28.9844 42.3907 28.991 42.3262 28.991H42.2056V28.9345C42.2056 28.8215 42.166 28.77 42.1098 28.8066Z" fill="black"/>
<path fill-rule="evenodd" clip-rule="evenodd" d="M44.5604 28.8119C44.5422 28.8219 44.4794 28.8684 44.4216 28.9117C44.3043 29.0031 44.2878 28.9998 44.2729 28.8884C44.2663 28.8385 44.2547 28.8153 44.2349 28.8119C44.2085 28.807 44.2052 28.8269 44.2052 29.038C44.2052 29.1643 44.2101 29.274 44.2167 29.279C44.2366 29.2989 44.2696 29.2541 44.2812 29.1926C44.2927 29.1244 44.3291 29.0579 44.3555 29.0579C44.3654 29.0579 44.4282 29.1095 44.4926 29.1743C44.6066 29.284 44.6529 29.3106 44.676 29.2757C44.681 29.2657 44.6364 29.2042 44.5769 29.1344C44.5174 29.0662 44.4695 29.0031 44.4695 28.9931C44.4695 28.9848 44.5141 28.9416 44.5686 28.9C44.6645 28.8252 44.681 28.792 44.6215 28.792C44.6066 28.792 44.5785 28.802 44.5604 28.8119Z" fill="black"/>
<path fill-rule="evenodd" clip-rule="evenodd" d="M44.9748 28.8229C44.9368 28.8678 44.7832 29.2101 44.7832 29.2534C44.7832 29.3215 44.8691 29.2883 44.8955 29.2085C44.9137 29.1603 44.917 29.1586 45.0211 29.1586C45.1087 29.1586 45.1368 29.1653 45.1632 29.1919C45.1814 29.2101 45.1962 29.2367 45.1962 29.25C45.1962 29.2783 45.2441 29.3065 45.2755 29.2966C45.2854 29.2916 45.2954 29.2766 45.2954 29.2617C45.2954 29.2185 45.1169 28.8378 45.0855 28.8129C45.0459 28.7847 45.0079 28.788 44.9748 28.8229ZM45.0839 28.9941C45.1004 29.0506 45.0988 29.0639 45.0789 29.0772C45.0459 29.0971 45.0261 29.0955 44.9897 29.0705C44.9616 29.0489 44.9616 29.0456 44.998 28.9791C45.0195 28.9409 45.0426 28.9143 45.0492 28.9193C45.0575 28.9243 45.0723 28.9575 45.0839 28.9941Z" fill="black"/>
<path fill-rule="evenodd" clip-rule="evenodd" d="M45.4391 28.8032C45.4325 28.8082 45.4275 28.9179 45.4275 29.0442C45.4275 29.2387 45.4308 29.2769 45.454 29.2852C45.4936 29.3002 45.5151 29.2653 45.5233 29.1655L45.53 29.0741H45.6159C45.6621 29.0741 45.7266 29.0691 45.7596 29.0642L45.8191 29.0542L45.8273 29.1655C45.8389 29.3002 45.8571 29.3234 45.9066 29.2736C45.9413 29.2387 45.943 29.2254 45.9364 29.0376C45.9298 28.8664 45.9248 28.8348 45.8984 28.8148C45.8538 28.7816 45.8273 28.8132 45.8207 28.9046L45.8158 28.9827H45.6753H45.5349L45.5266 28.9079C45.5217 28.8664 45.5118 28.8232 45.5052 28.8115C45.4903 28.7899 45.4556 28.7849 45.4391 28.8032Z" fill="black"/>
<path fill-rule="evenodd" clip-rule="evenodd" d="M46.3232 28.8115C46.3281 28.8231 46.3694 28.8364 46.4157 28.8414C46.4619 28.8464 46.5049 28.8564 46.5132 28.8647C46.5198 28.8713 46.5297 28.9627 46.5313 29.0658C46.5363 29.2004 46.5445 29.2602 46.5594 29.2735C46.6007 29.3084 46.6123 29.2769 46.6222 29.0924C46.6338 28.868 46.6453 28.8431 46.7329 28.8464C46.8023 28.848 46.8254 28.8381 46.8072 28.8098C46.7907 28.7816 46.3149 28.7849 46.3232 28.8115Z" fill="black"/>
<path fill-rule="evenodd" clip-rule="evenodd" d="M47.658 29.013C47.658 29.2973 47.6629 29.3072 47.8282 29.3072C47.8942 29.3072 47.9719 29.3006 48.0033 29.2906C48.1239 29.2557 48.1701 29.1577 48.109 29.0646C48.0859 29.028 48.0842 29.0131 48.1024 28.9648C48.1255 28.9017 48.1107 28.8601 48.0512 28.8186C48.0231 28.7986 47.9702 28.792 47.8364 28.792H47.658V29.013ZM47.9471 28.8651C48.0066 28.8917 48.0231 28.9333 47.9851 28.9715C47.9653 28.9914 47.8282 28.9981 47.7835 28.9815C47.7522 28.9698 47.7489 28.8901 47.7769 28.8618C47.8034 28.8352 47.8777 28.8369 47.9471 28.8651ZM48.0181 29.1028C48.0462 29.141 48.0429 29.1643 48.0066 29.1975C47.9653 29.2341 47.8612 29.2491 47.8034 29.2258C47.7654 29.2108 47.7571 29.1975 47.7571 29.1493C47.7571 29.1045 47.7654 29.0862 47.7951 29.0745C47.848 29.0513 47.9917 29.0712 48.0181 29.1028Z" fill="black"/>
<path fill-rule="evenodd" clip-rule="evenodd" d="M48.4626 28.8125C48.4196 28.8457 48.2313 29.2596 48.2511 29.2795C48.2759 29.3044 48.3172 29.2812 48.3536 29.2163C48.3882 29.1582 48.3899 29.1582 48.5022 29.1582C48.6113 29.1582 48.6162 29.1598 48.641 29.2064C48.6741 29.2729 48.7319 29.3128 48.7583 29.2895C48.7831 29.2679 48.7682 29.2213 48.6608 28.9886C48.5766 28.8058 48.5287 28.7643 48.4626 28.8125ZM48.5468 29.0136C48.5535 29.0834 48.5254 29.105 48.4692 29.0751C48.4262 29.0518 48.4262 29.0402 48.4692 28.9853C48.5138 28.9271 48.5402 28.9371 48.5468 29.0136Z" fill="black"/>
</svg>
