<svg width="78" height="57" viewBox="0 0 78 57" fill="none" xmlns="http://www.w3.org/2000/svg">
<path d="M63.4331 21.3729C64.5996 24.5239 64.991 27.9016 64.5754 31.2298C64.1597 34.558 62.9489 37.7423 61.0418 40.5222C59.1347 43.3022 56.5855 45.5989 53.6026 47.2246C50.6197 48.8502 47.2879 49.7587 43.8795 49.8757L43.6155 42.4433C45.831 42.3673 47.9967 41.7768 49.9355 40.7201C51.8744 39.6634 53.5314 38.1705 54.771 36.3636C56.0106 34.5566 56.7977 32.4868 57.0679 30.3235C57.338 28.1601 57.0836 25.9646 56.3254 23.9165L63.4331 21.3729Z" fill="#FF327C"/>
<path d="M22.3513 22.7834C23.6093 18.4701 26.2238 14.6589 29.8202 11.8963C33.4165 9.13373 37.8101 7.56146 42.3711 7.40486C46.9321 7.24826 51.4265 8.51537 55.2101 11.0246C58.9937 13.5338 61.8722 17.1563 63.4332 21.3729L56.3254 23.9165C55.3108 21.1757 53.4398 18.8211 50.9804 17.1901C48.5211 15.5591 45.5998 14.7355 42.6351 14.8373C39.6704 14.9391 36.8146 15.961 34.477 17.7567C32.1393 19.5524 30.4399 22.0296 29.6222 24.8333L22.3513 22.7834Z" fill="#D6429A"/>
<path d="M43.8795 49.8757C40.4711 49.9928 37.083 49.315 33.992 47.8979C30.9011 46.4807 28.1952 44.3645 26.0955 41.7221C23.9958 39.0797 22.562 35.9863 21.9112 32.6947C21.2605 29.4031 21.4113 26.0068 22.3513 22.7835L29.6222 24.8333C29.0112 26.9285 28.9132 29.1361 29.3362 31.2756C29.7591 33.4152 30.6911 35.4259 32.0559 37.1435C33.4207 38.861 35.1796 40.2366 37.1887 41.1577C39.1978 42.0789 41.4001 42.5194 43.6156 42.4433L43.8795 49.8757Z" fill="#FF0633"/>
<path d="M27.8687 41.9088L25.3236 45.1262H14.7797" stroke="black" stroke-width="0.145684"/>
<path d="M1.12685 43.4295C0.847151 43.4295 0.623988 43.3566 0.457359 43.2108C0.293706 43.062 0.211879 42.8642 0.211879 42.6172V42.4967C0.211879 42.4669 0.226757 42.452 0.256512 42.452H0.475212C0.504967 42.452 0.519845 42.4669 0.519845 42.4967V42.5993C0.519845 42.766 0.576379 42.8999 0.689449 43.001C0.802518 43.1022 0.952781 43.1528 1.14024 43.1528C1.31579 43.1528 1.45416 43.1052 1.55532 43.01C1.65649 42.9147 1.70707 42.7898 1.70707 42.635C1.70707 42.5339 1.68327 42.4461 1.63566 42.3717C1.58805 42.2973 1.51813 42.2289 1.42589 42.1664C1.33365 42.1039 1.20124 42.0251 1.02866 41.9298C0.844175 41.8317 0.698375 41.7454 0.591257 41.671C0.487114 41.5966 0.402312 41.5058 0.336851 41.3987C0.271389 41.2916 0.238659 41.1607 0.238659 41.006C0.238659 40.7649 0.316022 40.576 0.470749 40.4391C0.625475 40.3022 0.832273 40.2338 1.09114 40.2338C1.36787 40.2338 1.58805 40.3097 1.75171 40.4614C1.91536 40.6132 1.99719 40.814 1.99719 41.064V41.1666C1.99719 41.1964 1.98231 41.2113 1.95255 41.2113H1.72939C1.69963 41.2113 1.68476 41.1964 1.68476 41.1666V41.0684C1.68476 40.9018 1.6312 40.7679 1.52408 40.6667C1.41696 40.5626 1.26967 40.5105 1.08222 40.5105C0.915588 40.5105 0.784665 40.5537 0.689449 40.64C0.597208 40.7263 0.551087 40.8482 0.551087 41.006C0.551087 41.1071 0.573404 41.1919 0.618037 41.2604C0.662669 41.3288 0.726643 41.3913 0.809957 41.4478C0.896247 41.5043 1.02717 41.5802 1.20272 41.6754C1.40506 41.7885 1.55979 41.8852 1.6669 41.9656C1.777 42.0429 1.86329 42.1337 1.92577 42.2378C1.99123 42.339 2.02397 42.464 2.02397 42.6127C2.02397 42.8627 1.94363 43.062 1.78295 43.2108C1.62227 43.3566 1.40357 43.4295 1.12685 43.4295ZM4.15036 40.2695C4.18012 40.2695 4.195 40.2844 4.195 40.3141V40.5016C4.195 40.5314 4.18012 40.5462 4.15036 40.5462H3.42285C3.41095 40.5462 3.405 40.5522 3.405 40.5641V43.3492C3.405 43.3789 3.39012 43.3938 3.36036 43.3938H3.13274C3.10298 43.3938 3.08811 43.3789 3.08811 43.3492V40.5641C3.08811 40.5522 3.08215 40.5462 3.07025 40.5462H2.36952C2.33976 40.5462 2.32489 40.5314 2.32489 40.5016V40.3141C2.32489 40.2844 2.33976 40.2695 2.36952 40.2695H4.15036ZM6.27083 43.3938C6.24703 43.3938 6.23066 43.3819 6.22174 43.3581L5.66829 41.9789C5.66532 41.97 5.65937 41.9656 5.65044 41.9656H5.07468C5.06278 41.9656 5.05682 41.9715 5.05682 41.9834V43.3492C5.05682 43.3789 5.04195 43.3938 5.01219 43.3938H4.78457C4.75481 43.3938 4.73993 43.3789 4.73993 43.3492V40.3141C4.73993 40.2844 4.75481 40.2695 4.78457 40.2695H5.73078C5.8855 40.2695 6.02238 40.3052 6.1414 40.3766C6.26339 40.448 6.35712 40.5492 6.42258 40.6801C6.49102 40.8111 6.52524 40.9613 6.52524 41.1309C6.52524 41.3333 6.47614 41.5058 6.37795 41.6487C6.27976 41.7915 6.14586 41.8867 5.97626 41.9343C5.96436 41.9403 5.96138 41.9477 5.96733 41.9566L6.54309 43.3402L6.54756 43.3581C6.54756 43.3819 6.53417 43.3938 6.50739 43.3938H6.27083ZM5.07468 40.5462C5.06278 40.5462 5.05682 40.5522 5.05682 40.5641V41.6933C5.05682 41.7052 5.06278 41.7111 5.07468 41.7111H5.69061C5.84534 41.7111 5.97031 41.6576 6.06552 41.5505C6.16074 41.4434 6.20835 41.3035 6.20835 41.1309C6.20835 40.9554 6.16074 40.814 6.06552 40.7069C5.97031 40.5998 5.84534 40.5462 5.69061 40.5462H5.07468ZM8.72434 43.3938C8.69756 43.3938 8.68119 43.3804 8.67524 43.3536L8.52796 42.7957C8.52498 42.7868 8.51754 42.7823 8.50564 42.7823H7.43892C7.42702 42.7823 7.41958 42.7868 7.4166 42.7957L7.26931 43.3536C7.26336 43.3804 7.247 43.3938 7.22022 43.3938H6.98813C6.97325 43.3938 6.96135 43.3893 6.95242 43.3804C6.94647 43.3715 6.94498 43.3596 6.94796 43.3447L7.78259 40.3097C7.78854 40.2829 7.80491 40.2695 7.83169 40.2695H8.11734C8.14412 40.2695 8.16048 40.2829 8.16643 40.3097L9.00106 43.3447L9.00553 43.3581C9.00553 43.3819 8.99065 43.3938 8.96089 43.3938H8.72434ZM7.49248 42.5056C7.4895 42.5086 7.4895 42.513 7.49248 42.519C7.49843 42.522 7.50438 42.5235 7.51033 42.5235H8.43423C8.44018 42.5235 8.44464 42.522 8.44762 42.519C8.45357 42.513 8.45506 42.5086 8.45208 42.5056L7.97897 40.7114C7.976 40.7054 7.97302 40.7024 7.97005 40.7024C7.96707 40.7024 7.9641 40.7054 7.96112 40.7114L7.49248 42.5056ZM9.77345 43.3938C9.74667 43.3938 9.73031 43.3804 9.72436 43.3536L9.00577 40.3186L9.00131 40.3008C9.00131 40.2799 9.0147 40.2695 9.04148 40.2695H9.28249C9.30927 40.2695 9.32564 40.2829 9.33159 40.3097L9.87611 42.7065C9.87908 42.7154 9.88206 42.7198 9.88503 42.7198C9.89098 42.7198 9.89545 42.7154 9.89842 42.7065L10.3938 40.3097C10.3998 40.2829 10.4162 40.2695 10.4429 40.2695H10.6661C10.6959 40.2695 10.7122 40.2829 10.7152 40.3097L11.2285 42.7065C11.2315 42.7154 11.2344 42.7198 11.2374 42.7198C11.2404 42.7198 11.2434 42.7154 11.2463 42.7065L11.7775 40.3097C11.7834 40.2829 11.7998 40.2695 11.8266 40.2695H12.0586C12.0884 40.2695 12.1003 40.2859 12.0944 40.3186L11.3981 43.3536C11.3921 43.3804 11.3758 43.3938 11.349 43.3938H11.1214C11.0946 43.3938 11.0782 43.3804 11.0723 43.3536L10.5634 40.9211C10.5605 40.9122 10.5575 40.9078 10.5545 40.9078C10.5515 40.9078 10.5486 40.9122 10.5456 40.9211L10.0412 43.3536C10.0383 43.3804 10.0219 43.3938 9.99215 43.3938H9.77345ZM13.9205 41.7647C13.9056 41.7707 13.9056 41.7781 13.9205 41.787C14.0603 41.8555 14.1674 41.9537 14.2418 42.0816C14.3192 42.2095 14.3593 42.3643 14.3623 42.5458C14.3623 42.8136 14.282 43.0219 14.1213 43.1706C13.9636 43.3194 13.7538 43.3938 13.492 43.3938H12.6127C12.583 43.3938 12.5681 43.3789 12.5681 43.3492V40.3141C12.5681 40.2844 12.583 40.2695 12.6127 40.2695H13.4563C13.73 40.2695 13.9443 40.3409 14.099 40.4837C14.2537 40.6236 14.3311 40.8244 14.3311 41.0863C14.3311 41.2529 14.2954 41.3928 14.224 41.5058C14.1555 41.6189 14.0544 41.7052 13.9205 41.7647ZM12.9028 40.5462C12.8909 40.5462 12.885 40.5522 12.885 40.5641V41.6397C12.885 41.6516 12.8909 41.6576 12.9028 41.6576H13.4607C13.6333 41.6576 13.7687 41.6085 13.8669 41.5103C13.9681 41.4121 14.0186 41.2797 14.0186 41.1131C14.0186 40.9375 13.9681 40.7992 13.8669 40.698C13.7687 40.5968 13.6333 40.5462 13.4607 40.5462H12.9028ZM13.4831 43.1126C13.6556 43.1126 13.7925 43.0591 13.8937 42.9519C13.9948 42.8448 14.0454 42.699 14.0454 42.5145C14.0454 42.3271 13.9934 42.1798 13.8892 42.0727C13.788 41.9656 13.6497 41.912 13.4741 41.912H12.9028C12.8909 41.912 12.885 41.9179 12.885 41.9298V43.0948C12.885 43.1067 12.8909 43.1126 12.9028 43.1126H13.4831ZM16.6706 40.5016C16.6706 40.5314 16.6557 40.5462 16.626 40.5462H15.287C15.2751 40.5462 15.2692 40.5522 15.2692 40.5641V41.671C15.2692 41.6829 15.2751 41.6888 15.287 41.6888H16.1886C16.2183 41.6888 16.2332 41.7037 16.2332 41.7335V41.9209C16.2332 41.9507 16.2183 41.9656 16.1886 41.9656H15.287C15.2751 41.9656 15.2692 41.9715 15.2692 41.9834V43.0992C15.2692 43.1111 15.2751 43.1171 15.287 43.1171H16.626C16.6557 43.1171 16.6706 43.132 16.6706 43.1617V43.3492C16.6706 43.3789 16.6557 43.3938 16.626 43.3938H14.9969C14.9671 43.3938 14.9523 43.3789 14.9523 43.3492V40.3141C14.9523 40.2844 14.9671 40.2695 14.9969 40.2695H16.626C16.6557 40.2695 16.6706 40.2844 16.6706 40.3141V40.5016ZM18.7889 43.3938C18.7651 43.3938 18.7487 43.3819 18.7398 43.3581L18.1864 41.9789C18.1834 41.97 18.1774 41.9656 18.1685 41.9656H17.5927C17.5808 41.9656 17.5749 41.9715 17.5749 41.9834V43.3492C17.5749 43.3789 17.56 43.3938 17.5303 43.3938H17.3026C17.2729 43.3938 17.258 43.3789 17.258 43.3492V40.3141C17.258 40.2844 17.2729 40.2695 17.3026 40.2695H18.2488C18.4036 40.2695 18.5404 40.3052 18.6595 40.3766C18.7815 40.448 18.8752 40.5492 18.9407 40.6801C19.0091 40.8111 19.0433 40.9613 19.0433 41.1309C19.0433 41.3333 18.9942 41.5058 18.896 41.6487C18.7978 41.7915 18.6639 41.8867 18.4943 41.9343C18.4824 41.9403 18.4794 41.9477 18.4854 41.9566L19.0612 43.3402L19.0656 43.3581C19.0656 43.3819 19.0522 43.3938 19.0255 43.3938H18.7889ZM17.5927 40.5462C17.5808 40.5462 17.5749 40.5522 17.5749 40.5641V41.6933C17.5749 41.7052 17.5808 41.7111 17.5927 41.7111H18.2087C18.3634 41.7111 18.4884 41.6576 18.5836 41.5505C18.6788 41.4434 18.7264 41.3035 18.7264 41.1309C18.7264 40.9554 18.6788 40.814 18.5836 40.7069C18.4884 40.5998 18.3634 40.5462 18.2087 40.5462H17.5927ZM21.1469 43.3938C21.1231 43.3938 21.1068 43.3819 21.0978 43.3581L20.5444 41.9789C20.5414 41.97 20.5355 41.9656 20.5265 41.9656H19.9508C19.9389 41.9656 19.9329 41.9715 19.9329 41.9834V43.3492C19.9329 43.3789 19.918 43.3938 19.8883 43.3938H19.6607C19.6309 43.3938 19.616 43.3789 19.616 43.3492V40.3141C19.616 40.2844 19.6309 40.2695 19.6607 40.2695H20.6069C20.7616 40.2695 20.8985 40.3052 21.0175 40.3766C21.1395 40.448 21.2332 40.5492 21.2987 40.6801C21.3671 40.8111 21.4013 40.9613 21.4013 41.1309C21.4013 41.3333 21.3522 41.5058 21.2541 41.6487C21.1559 41.7915 21.022 41.8867 20.8524 41.9343C20.8405 41.9403 20.8375 41.9477 20.8434 41.9566L21.4192 43.3402L21.4237 43.3581C21.4237 43.3819 21.4103 43.3938 21.3835 43.3938H21.1469ZM19.9508 40.5462C19.9389 40.5462 19.9329 40.5522 19.9329 40.5641V41.6933C19.9329 41.7052 19.9389 41.7111 19.9508 41.7111H20.5667C20.7214 41.7111 20.8464 41.6576 20.9416 41.5505C21.0368 41.4434 21.0844 41.3035 21.0844 41.1309C21.0844 40.9554 21.0368 40.814 20.9416 40.7069C20.8464 40.5998 20.7214 40.5462 20.5667 40.5462H19.9508ZM22.5422 43.3893C22.5124 43.3893 22.4975 43.3745 22.4975 43.3447V42.0146C22.4975 42.0027 22.496 41.9953 22.4931 41.9923L21.7209 40.3231L21.7165 40.3052C21.7165 40.2814 21.7298 40.2695 21.7566 40.2695H21.9976C22.0214 40.2695 22.0378 40.2814 22.0467 40.3052L22.6448 41.6397C22.6478 41.6457 22.6523 41.6487 22.6582 41.6487C22.6642 41.6487 22.6686 41.6457 22.6716 41.6397L23.2697 40.3052C23.2786 40.2814 23.295 40.2695 23.3188 40.2695H23.5598C23.5747 40.2695 23.5851 40.2755 23.591 40.2874C23.6 40.2963 23.6014 40.3082 23.5955 40.3231L22.8189 41.9923C22.8159 41.9953 22.8144 42.0027 22.8144 42.0146V43.3447C22.8144 43.3745 22.7995 43.3893 22.7698 43.3893H22.5422ZM1.716 46.912C1.77253 47.0667 1.8008 47.2438 1.8008 47.4431C1.8008 47.6217 1.77849 47.7764 1.73385 47.9073C1.62376 48.2554 1.37977 48.4295 1.00188 48.4295C0.799543 48.4295 0.629939 48.3759 0.493065 48.2688C0.356192 48.1587 0.268414 48.0085 0.229732 47.818C0.208904 47.7228 0.198489 47.6142 0.198489 47.4922C0.198489 47.4625 0.213367 47.4476 0.243122 47.4476H0.470749C0.500504 47.4476 0.515381 47.4625 0.515381 47.4922C0.521332 47.6202 0.528771 47.7065 0.537698 47.7511C0.564477 47.8761 0.618037 47.9743 0.698375 48.0457C0.778714 48.1171 0.879881 48.1528 1.00188 48.1528C1.23099 48.1528 1.37977 48.0367 1.4482 47.8046C1.47498 47.6975 1.48837 47.5696 1.48837 47.4208C1.48837 47.2423 1.46903 47.095 1.43035 46.9789C1.35299 46.7707 1.21016 46.6665 1.00188 46.6665C0.954269 46.6665 0.912612 46.6754 0.876906 46.6933C0.859053 46.6992 0.848639 46.7022 0.845663 46.7022C0.833761 46.7022 0.823347 46.6963 0.81442 46.6844L0.698375 46.5639C0.683498 46.543 0.68201 46.5222 0.693912 46.5014L1.39018 45.5686C1.39613 45.5626 1.39762 45.5581 1.39464 45.5552C1.39167 45.5492 1.38721 45.5462 1.38126 45.5462H0.265438C0.235683 45.5462 0.220806 45.5314 0.220806 45.5016V45.3141C0.220806 45.2844 0.235683 45.2695 0.265438 45.2695H1.74278C1.77253 45.2695 1.78741 45.2844 1.78741 45.3141V45.515C1.78741 45.5388 1.78146 45.5581 1.76956 45.573L1.12239 46.4567C1.11941 46.4597 1.11941 46.4642 1.12239 46.4701C1.12536 46.4761 1.12982 46.4791 1.13578 46.4791C1.27562 46.485 1.39464 46.5252 1.49284 46.5996C1.59103 46.674 1.66542 46.7781 1.716 46.912ZM3.18403 48.4384C2.92814 48.4384 2.72283 48.3611 2.5681 48.2063C2.41337 48.0516 2.33601 47.8448 2.33601 47.5859V46.0774C2.33601 45.8215 2.41337 45.6162 2.5681 45.4614C2.72283 45.3067 2.92814 45.2293 3.18403 45.2293C3.4429 45.2293 3.6497 45.3067 3.80443 45.4614C3.96213 45.6162 4.04098 45.8215 4.04098 46.0774V47.5859C4.04098 47.8448 3.96213 48.0516 3.80443 48.2063C3.6497 48.3611 3.4429 48.4384 3.18403 48.4384ZM3.18403 48.1617C3.34768 48.1617 3.47861 48.1111 3.5768 48.01C3.67499 47.9088 3.72409 47.7749 3.72409 47.6083V46.0595C3.72409 45.8929 3.67499 45.759 3.5768 45.6578C3.47861 45.5566 3.34768 45.5061 3.18403 45.5061C3.02633 45.5061 2.89838 45.5566 2.80019 45.6578C2.702 45.759 2.6529 45.8929 2.6529 46.0595V47.6083C2.6529 47.7719 2.702 47.9058 2.80019 48.01C2.89838 48.1111 3.02633 48.1617 3.18403 48.1617ZM5.31705 46.4969C5.20101 46.4969 5.09389 46.4686 4.9957 46.4121C4.90048 46.3556 4.82461 46.2797 4.76807 46.1845C4.71154 46.0863 4.68327 45.9792 4.68327 45.8631C4.68327 45.7471 4.71154 45.6415 4.76807 45.5462C4.82461 45.448 4.90048 45.3707 4.9957 45.3141C5.09389 45.2576 5.20101 45.2293 5.31705 45.2293C5.43012 45.2293 5.53427 45.2576 5.62948 45.3141C5.72767 45.3707 5.80504 45.448 5.86157 45.5462C5.91811 45.6415 5.94637 45.7471 5.94637 45.8631C5.94637 45.9792 5.91811 46.0863 5.86157 46.1845C5.80504 46.2797 5.72767 46.3556 5.62948 46.4121C5.53427 46.4686 5.43012 46.4969 5.31705 46.4969ZM5.2144 48.3938C5.19952 48.3938 5.18762 48.3893 5.17869 48.3804C5.17274 48.3685 5.17423 48.3551 5.18316 48.3402L6.84349 45.3008C6.85242 45.2799 6.87027 45.2695 6.89705 45.2695H7.03987C7.05475 45.2695 7.06517 45.2755 7.07112 45.2874C7.08004 45.2963 7.08004 45.3082 7.07112 45.3231L5.41078 48.3626C5.40186 48.3834 5.384 48.3938 5.35722 48.3938H5.2144ZM5.31705 46.3005C5.43607 46.3005 5.53575 46.2589 5.61609 46.1756C5.69941 46.0893 5.74106 45.9851 5.74106 45.8631C5.74106 45.7411 5.69941 45.6385 5.61609 45.5552C5.53575 45.4689 5.43607 45.4257 5.31705 45.4257C5.19803 45.4257 5.09687 45.4689 5.01355 45.5552C4.93024 45.6385 4.88858 45.7411 4.88858 45.8631C4.88858 45.9851 4.93024 46.0893 5.01355 46.1756C5.09687 46.2589 5.19803 46.3005 5.31705 46.3005ZM6.95507 48.434C6.83903 48.434 6.73191 48.4057 6.63372 48.3492C6.5385 48.2926 6.46263 48.2153 6.40609 48.1171C6.34956 48.0189 6.32129 47.9118 6.32129 47.7957C6.32129 47.6827 6.34956 47.5785 6.40609 47.4833C6.46263 47.3851 6.5385 47.3077 6.63372 47.2512C6.73191 47.1947 6.83903 47.1664 6.95507 47.1664C7.06814 47.1664 7.17229 47.1947 7.2675 47.2512C7.36569 47.3077 7.44306 47.3851 7.49959 47.4833C7.55613 47.5785 7.58439 47.6827 7.58439 47.7957C7.58439 47.9118 7.55613 48.0189 7.49959 48.1171C7.44306 48.2153 7.36569 48.2926 7.2675 48.3492C7.17229 48.4057 7.06814 48.434 6.95507 48.434ZM6.95507 48.2376C7.07409 48.2376 7.17377 48.1944 7.25411 48.1081C7.33743 48.0219 7.37908 47.9177 7.37908 47.7957C7.37908 47.6737 7.33743 47.5711 7.25411 47.4878C7.17377 47.4044 7.07409 47.3628 6.95507 47.3628C6.83605 47.3628 6.73489 47.4044 6.65157 47.4878C6.56826 47.5711 6.5266 47.6737 6.5266 47.7957C6.5266 47.9207 6.56677 48.0263 6.64711 48.1126C6.73042 48.1959 6.83308 48.2376 6.95507 48.2376Z" fill="#404040"/>
<path d="M30.4556 13.6322L27.9136 10.369H17.3824" stroke="black" stroke-width="0.145684"/>
<path d="M52.5394 46.6216L55.0814 49.8849H65.6125" stroke="black" stroke-width="0.145684"/>
<path d="M5.51767 8.80225C5.2469 8.80225 5.0282 8.7234 4.86157 8.56569C4.69792 8.40799 4.61609 8.19822 4.61609 7.93637V6.47242C4.61609 6.21058 4.69792 6.0008 4.86157 5.8431C5.0282 5.6854 5.2469 5.60655 5.51767 5.60655C5.6962 5.60655 5.85242 5.64225 5.98632 5.71367C6.12319 5.78508 6.22882 5.88476 6.30321 6.0127C6.38057 6.14065 6.41925 6.28794 6.41925 6.45457V6.57954C6.41925 6.6093 6.40438 6.62417 6.37462 6.62417H6.14699C6.11724 6.62417 6.10236 6.6093 6.10236 6.57954V6.45457C6.10236 6.28496 6.0488 6.14809 5.94168 6.04395C5.83457 5.93683 5.69323 5.88327 5.51767 5.88327C5.34212 5.88327 5.20078 5.93683 5.09366 6.04395C4.98654 6.14809 4.93299 6.28794 4.93299 6.46349V7.9453C4.93299 8.11788 4.98654 8.25773 5.09366 8.36485C5.20376 8.47196 5.34658 8.52552 5.52214 8.52552C5.69769 8.52552 5.83754 8.47494 5.94168 8.37377C6.0488 8.27261 6.10236 8.13573 6.10236 7.96315V7.47666C6.10236 7.46475 6.09641 7.4588 6.08451 7.4588H5.56231C5.53255 7.4588 5.51767 7.44393 5.51767 7.41417V7.22671C5.51767 7.19696 5.53255 7.18208 5.56231 7.18208H6.37462C6.40438 7.18208 6.41925 7.19696 6.41925 7.22671V7.92298C6.41925 8.19375 6.33743 8.40799 6.17377 8.56569C6.01012 8.7234 5.79142 8.80225 5.51767 8.80225ZM8.60726 8.76654C8.58346 8.76654 8.5671 8.75464 8.55817 8.73083L8.00472 7.35169C8.00175 7.34276 7.9958 7.3383 7.98687 7.3383H7.41111C7.39921 7.3383 7.39326 7.34425 7.39326 7.35615V8.72191C7.39326 8.75166 7.37838 8.76654 7.34862 8.76654H7.121C7.09124 8.76654 7.07636 8.75166 7.07636 8.72191V5.68689C7.07636 5.65713 7.09124 5.64225 7.121 5.64225H8.06721C8.22194 5.64225 8.35881 5.67796 8.47783 5.74937C8.59983 5.82078 8.69355 5.92195 8.75902 6.05287C8.82745 6.1838 8.86167 6.33406 8.86167 6.50366C8.86167 6.706 8.81258 6.87858 8.71438 7.0214C8.61619 7.16423 8.48229 7.25944 8.31269 7.30705C8.30079 7.313 8.29781 7.32044 8.30376 7.32937L8.87952 8.71298L8.88399 8.73083C8.88399 8.75464 8.8706 8.76654 8.84382 8.76654H8.60726ZM7.41111 5.91898C7.39921 5.91898 7.39326 5.92493 7.39326 5.93683V7.06604C7.39326 7.07794 7.39921 7.08389 7.41111 7.08389H8.02704C8.18177 7.08389 8.30674 7.03033 8.40195 6.92321C8.49717 6.81609 8.54478 6.67624 8.54478 6.50366C8.54478 6.32811 8.49717 6.18677 8.40195 6.07965C8.30674 5.97254 8.18177 5.91898 8.02704 5.91898H7.41111ZM11.0608 8.76654C11.034 8.76654 11.0176 8.75315 11.0117 8.72637L10.8644 8.16846C10.8614 8.15954 10.854 8.15507 10.8421 8.15507H9.77535C9.76345 8.15507 9.75601 8.15954 9.75303 8.16846L9.60575 8.72637C9.5998 8.75315 9.58343 8.76654 9.55665 8.76654H9.32456C9.30968 8.76654 9.29778 8.76208 9.28885 8.75315C9.2829 8.74422 9.28142 8.73232 9.28439 8.71744L10.119 5.68242C10.125 5.65564 10.1413 5.64225 10.1681 5.64225H10.4538C10.4805 5.64225 10.4969 5.65564 10.5029 5.68242L11.3375 8.71744L11.342 8.73083C11.342 8.75464 11.3271 8.76654 11.2973 8.76654H11.0608ZM9.82891 7.87835C9.82593 7.88133 9.82593 7.88579 9.82891 7.89174C9.83486 7.89472 9.84081 7.8962 9.84676 7.8962H10.7707C10.7766 7.8962 10.7811 7.89472 10.784 7.89174C10.79 7.88579 10.7915 7.88133 10.7885 7.87835L10.3154 6.08412C10.3124 6.07817 10.3095 6.07519 10.3065 6.07519C10.3035 6.07519 10.3005 6.07817 10.2976 6.08412L9.82891 7.87835ZM12.7961 5.63779C13.0342 5.63779 13.2261 5.71813 13.3719 5.87881C13.5207 6.03651 13.5951 6.24628 13.5951 6.50813C13.5951 6.767 13.5207 6.97528 13.3719 7.13298C13.2261 7.28771 13.0342 7.36507 12.7961 7.36507H12.1311C12.1192 7.36507 12.1133 7.37103 12.1133 7.38293V8.72191C12.1133 8.75166 12.0984 8.76654 12.0686 8.76654H11.841C11.8113 8.76654 11.7964 8.75166 11.7964 8.72191V5.68242C11.7964 5.65267 11.8113 5.63779 11.841 5.63779H12.7961ZM12.756 7.10174C12.9137 7.10174 13.0401 7.04818 13.1354 6.94106C13.2306 6.83395 13.2782 6.69112 13.2782 6.51259C13.2782 6.33108 13.2306 6.18677 13.1354 6.07965C13.0401 5.96956 12.9137 5.91451 12.756 5.91451H12.1311C12.1192 5.91451 12.1133 5.92046 12.1133 5.93237V7.08389C12.1133 7.09579 12.1192 7.10174 12.1311 7.10174H12.756ZM15.8383 5.87434C15.8383 5.9041 15.8234 5.91898 15.7937 5.91898H14.4547C14.4428 5.91898 14.4368 5.92493 14.4368 5.93683V7.04372C14.4368 7.05562 14.4428 7.06157 14.4547 7.06157H15.3563C15.386 7.06157 15.4009 7.07645 15.4009 7.10621V7.29366C15.4009 7.32342 15.386 7.3383 15.3563 7.3383H14.4547C14.4428 7.3383 14.4368 7.34425 14.4368 7.35615V8.47196C14.4368 8.48387 14.4428 8.48982 14.4547 8.48982H15.7937C15.8234 8.48982 15.8383 8.5047 15.8383 8.53445V8.72191C15.8383 8.75166 15.8234 8.76654 15.7937 8.76654H14.1646C14.1348 8.76654 14.12 8.75166 14.12 8.72191V5.68689C14.12 5.65713 14.1348 5.64225 14.1646 5.64225H15.7937C15.8234 5.64225 15.8383 5.65713 15.8383 5.68689V5.87434ZM18.1396 5.87434C18.1396 5.9041 18.1247 5.91898 18.0949 5.91898H16.7604C16.7485 5.91898 16.7426 5.92493 16.7426 5.93683V7.04372C16.7426 7.05562 16.7485 7.06157 16.7604 7.06157H17.6575C17.6873 7.06157 17.7022 7.07645 17.7022 7.10621V7.29366C17.7022 7.32342 17.6873 7.3383 17.6575 7.3383H16.7604C16.7485 7.3383 16.7426 7.34425 16.7426 7.35615V8.72191C16.7426 8.75166 16.7277 8.76654 16.6979 8.76654H16.4703C16.4406 8.76654 16.4257 8.75166 16.4257 8.72191V5.68689C16.4257 5.65713 16.4406 5.64225 16.4703 5.64225H18.0949C18.1247 5.64225 18.1396 5.65713 18.1396 5.68689V5.87434ZM20.1272 8.76654C20.1034 8.76654 20.087 8.75464 20.0781 8.73083L19.5247 7.35169C19.5217 7.34276 19.5157 7.3383 19.5068 7.3383H18.931C18.9191 7.3383 18.9132 7.34425 18.9132 7.35615V8.72191C18.9132 8.75166 18.8983 8.76654 18.8686 8.76654H18.6409C18.6112 8.76654 18.5963 8.75166 18.5963 8.72191V5.68689C18.5963 5.65713 18.6112 5.64225 18.6409 5.64225H19.5871C19.7419 5.64225 19.8787 5.67796 19.9978 5.74937C20.1198 5.82078 20.2135 5.92195 20.2789 6.05287C20.3474 6.1838 20.3816 6.33406 20.3816 6.50366C20.3816 6.706 20.3325 6.87858 20.2343 7.0214C20.1361 7.16423 20.0022 7.25944 19.8326 7.30705C19.8207 7.313 19.8177 7.32044 19.8237 7.32937L20.3995 8.71298L20.4039 8.73083C20.4039 8.75464 20.3905 8.76654 20.3638 8.76654H20.1272ZM18.931 5.91898C18.9191 5.91898 18.9132 5.92493 18.9132 5.93683V7.06604C18.9132 7.07794 18.9191 7.08389 18.931 7.08389H19.547C19.7017 7.08389 19.8267 7.03033 19.9219 6.92321C20.0171 6.81609 20.0647 6.67624 20.0647 6.50366C20.0647 6.32811 20.0171 6.18677 19.9219 6.07965C19.8267 5.97254 19.7017 5.91898 19.547 5.91898H18.931ZM21.8381 8.80225C21.6566 8.80225 21.4959 8.76357 21.356 8.6862C21.2192 8.60884 21.112 8.50023 21.0347 8.36038C20.9603 8.22053 20.9231 8.05837 20.9231 7.87389V5.68689C20.9231 5.65713 20.938 5.64225 20.9677 5.64225H21.1953C21.2251 5.64225 21.24 5.65713 21.24 5.68689V7.89174C21.24 8.08217 21.295 8.23541 21.4051 8.35146C21.5152 8.4675 21.6595 8.52552 21.8381 8.52552C22.0166 8.52552 22.1609 8.4675 22.271 8.35146C22.3811 8.23541 22.4361 8.08217 22.4361 7.89174V5.68689C22.4361 5.65713 22.451 5.64225 22.4808 5.64225H22.7084C22.7382 5.64225 22.753 5.65713 22.753 5.68689V7.87389C22.753 8.05837 22.7143 8.22053 22.637 8.36038C22.5626 8.50023 22.4555 8.60884 22.3156 8.6862C22.1788 8.76357 22.0196 8.80225 21.8381 8.80225ZM23.5052 8.76654C23.4754 8.76654 23.4606 8.75166 23.4606 8.72191V5.68689C23.4606 5.65713 23.4754 5.64225 23.5052 5.64225H23.7328C23.7626 5.64225 23.7775 5.65713 23.7775 5.68689V8.72191C23.7775 8.75166 23.7626 8.76654 23.7328 8.76654H23.5052ZM26.1443 5.64225C26.1741 5.64225 26.189 5.65713 26.189 5.68689V5.87434C26.189 5.9041 26.1741 5.91898 26.1443 5.91898H25.4168C25.4049 5.91898 25.399 5.92493 25.399 5.93683V8.72191C25.399 8.75166 25.3841 8.76654 25.3543 8.76654H25.1267C25.097 8.76654 25.0821 8.75166 25.0821 8.72191V5.93683C25.0821 5.92493 25.0761 5.91898 25.0642 5.91898H24.3635C24.3337 5.91898 24.3189 5.9041 24.3189 5.87434V5.68689C24.3189 5.65713 24.3337 5.64225 24.3635 5.64225H26.1443ZM6.25858 12.6239C6.28833 12.6239 6.30321 12.6388 6.30321 12.6686V12.865C6.30321 12.8947 6.28833 12.9096 6.25858 12.9096H6.09343C6.08153 12.9096 6.07558 12.9155 6.07558 12.9274V13.7219C6.07558 13.7517 6.0607 13.7665 6.03095 13.7665H5.80332C5.77357 13.7665 5.75869 13.7517 5.75869 13.7219V12.9274C5.75869 12.9155 5.75274 12.9096 5.74084 12.9096H4.53129C4.50154 12.9096 4.48666 12.8947 4.48666 12.865V12.6954C4.48666 12.6745 4.48963 12.6567 4.49559 12.6418L5.29005 10.678C5.29897 10.6542 5.31534 10.6423 5.33914 10.6423H5.58462C5.5995 10.6423 5.60991 10.6482 5.61587 10.6601C5.62182 10.669 5.62182 10.6809 5.61587 10.6958L4.85711 12.6016C4.85413 12.6076 4.85413 12.6135 4.85711 12.6195C4.86009 12.6225 4.86455 12.6239 4.8705 12.6239H5.74084C5.75274 12.6239 5.75869 12.618 5.75869 12.6061V11.9009C5.75869 11.8711 5.77357 11.8563 5.80332 11.8563H6.03095C6.0607 11.8563 6.07558 11.8711 6.07558 11.9009V12.6061C6.07558 12.618 6.08153 12.6239 6.09343 12.6239H6.25858ZM7.60826 13.8112C7.35237 13.8112 7.14706 13.7338 6.99233 13.5791C6.8376 13.4244 6.76024 13.2176 6.76024 12.9587V11.4501C6.76024 11.1942 6.8376 10.9889 6.99233 10.8342C7.14706 10.6794 7.35237 10.6021 7.60826 10.6021C7.86713 10.6021 8.07393 10.6794 8.22865 10.8342C8.38636 10.9889 8.46521 11.1942 8.46521 11.4501V12.9587C8.46521 13.2176 8.38636 13.4244 8.22865 13.5791C8.07393 13.7338 7.86713 13.8112 7.60826 13.8112ZM7.60826 13.5345C7.77191 13.5345 7.90284 13.4839 8.00103 13.3827C8.09922 13.2815 8.14832 13.1476 8.14832 12.981V11.4323C8.14832 11.2656 8.09922 11.1317 8.00103 11.0306C7.90284 10.9294 7.77191 10.8788 7.60826 10.8788C7.45056 10.8788 7.32261 10.9294 7.22442 11.0306C7.12623 11.1317 7.07713 11.2656 7.07713 11.4323V12.981C7.07713 13.1447 7.12623 13.2786 7.22442 13.3827C7.32261 13.4839 7.45056 13.5345 7.60826 13.5345ZM9.74128 11.8697C9.62524 11.8697 9.51812 11.8414 9.41993 11.7849C9.32471 11.7283 9.24884 11.6524 9.1923 11.5572C9.13577 11.459 9.1075 11.3519 9.1075 11.2359C9.1075 11.1198 9.13577 11.0142 9.1923 10.919C9.24884 10.8208 9.32471 10.7434 9.41993 10.6869C9.51812 10.6304 9.62524 10.6021 9.74128 10.6021C9.85435 10.6021 9.9585 10.6304 10.0537 10.6869C10.1519 10.7434 10.2293 10.8208 10.2858 10.919C10.3423 11.0142 10.3706 11.1198 10.3706 11.2359C10.3706 11.3519 10.3423 11.459 10.2858 11.5572C10.2293 11.6524 10.1519 11.7283 10.0537 11.7849C9.9585 11.8414 9.85435 11.8697 9.74128 11.8697ZM9.63863 13.7665C9.62375 13.7665 9.61185 13.7621 9.60292 13.7532C9.59697 13.7412 9.59846 13.7279 9.60739 13.713L11.2677 10.6735C11.2766 10.6527 11.2945 10.6423 11.3213 10.6423H11.4641C11.479 10.6423 11.4894 10.6482 11.4953 10.6601C11.5043 10.669 11.5043 10.6809 11.4953 10.6958L9.83501 13.7353C9.82609 13.7561 9.80823 13.7665 9.78145 13.7665H9.63863ZM9.74128 11.6733C9.8603 11.6733 9.95998 11.6316 10.0403 11.5483C10.1236 11.462 10.1653 11.3579 10.1653 11.2359C10.1653 11.1139 10.1236 11.0112 10.0403 10.9279C9.95998 10.8416 9.8603 10.7985 9.74128 10.7985C9.62226 10.7985 9.5211 10.8416 9.43778 10.9279C9.35447 11.0112 9.31281 11.1139 9.31281 11.2359C9.31281 11.3579 9.35447 11.462 9.43778 11.5483C9.5211 11.6316 9.62226 11.6733 9.74128 11.6733ZM11.3793 13.8067C11.2633 13.8067 11.1561 13.7784 11.0579 13.7219C10.9627 13.6654 10.8869 13.588 10.8303 13.4898C10.7738 13.3916 10.7455 13.2845 10.7455 13.1685C10.7455 13.0554 10.7738 12.9513 10.8303 12.856C10.8869 12.7578 10.9627 12.6805 11.0579 12.6239C11.1561 12.5674 11.2633 12.5391 11.3793 12.5391C11.4924 12.5391 11.5965 12.5674 11.6917 12.6239C11.7899 12.6805 11.8673 12.7578 11.9238 12.856C11.9804 12.9513 12.0086 13.0554 12.0086 13.1685C12.0086 13.2845 11.9804 13.3916 11.9238 13.4898C11.8673 13.588 11.7899 13.6654 11.6917 13.7219C11.5965 13.7784 11.4924 13.8067 11.3793 13.8067ZM11.3793 13.6103C11.4983 13.6103 11.598 13.5672 11.6783 13.4809C11.7617 13.3946 11.8033 13.2905 11.8033 13.1685C11.8033 13.0465 11.7617 12.9438 11.6783 12.8605C11.598 12.7772 11.4983 12.7355 11.3793 12.7355C11.2603 12.7355 11.1591 12.7772 11.0758 12.8605C10.9925 12.9438 10.9508 13.0465 10.9508 13.1685C10.9508 13.2934 10.991 13.3991 11.0713 13.4854C11.1547 13.5687 11.2573 13.6103 11.3793 13.6103Z" fill="#404040"/>
<path d="M58.4351 48.4467C58.4113 48.4467 58.395 48.4348 58.386 48.4109L57.8326 47.0318C57.8296 47.0229 57.8237 47.0184 57.8147 47.0184H57.239C57.2271 47.0184 57.2211 47.0244 57.2211 47.0363V48.402C57.2211 48.4318 57.2062 48.4467 57.1765 48.4467H56.9489C56.9191 48.4467 56.9042 48.4318 56.9042 48.402V45.367C56.9042 45.3372 56.9191 45.3224 56.9489 45.3224H57.8951C58.0498 45.3224 58.1867 45.3581 58.3057 45.4295C58.4277 45.5009 58.5214 45.6021 58.5869 45.733C58.6553 45.8639 58.6895 46.0142 58.6895 46.1838C58.6895 46.3861 58.6404 46.5587 58.5423 46.7015C58.4441 46.8443 58.3102 46.9396 58.1406 46.9872C58.1287 46.9931 58.1257 47.0006 58.1316 47.0095L58.7074 48.3931L58.7119 48.4109C58.7119 48.4348 58.6985 48.4467 58.6717 48.4467H58.4351ZM57.239 45.5991C57.2271 45.5991 57.2211 45.605 57.2211 45.6169V46.7462C57.2211 46.7581 57.2271 46.764 57.239 46.764H57.8549C58.0096 46.764 58.1346 46.7104 58.2298 46.6033C58.325 46.4962 58.3726 46.3564 58.3726 46.1838C58.3726 46.0082 58.325 45.8669 58.2298 45.7598C58.1346 45.6527 58.0096 45.5991 57.8549 45.5991H57.239ZM60.8886 48.4467C60.8619 48.4467 60.8455 48.4333 60.8395 48.4065L60.6923 47.8486C60.6893 47.8397 60.6818 47.8352 60.6699 47.8352H59.6032C59.5913 47.8352 59.5839 47.8397 59.5809 47.8486L59.4336 48.4065C59.4277 48.4333 59.4113 48.4467 59.3845 48.4467H59.1524C59.1376 48.4467 59.1257 48.4422 59.1167 48.4333C59.1108 48.4243 59.1093 48.4124 59.1123 48.3976L59.9469 45.3625C59.9528 45.3358 59.9692 45.3224 59.996 45.3224H60.2816C60.3084 45.3224 60.3248 45.3358 60.3307 45.3625L61.1654 48.3976L61.1698 48.4109C61.1698 48.4348 61.1549 48.4467 61.1252 48.4467H60.8886ZM59.6568 47.5585C59.6538 47.5614 59.6538 47.5659 59.6568 47.5719C59.6627 47.5748 59.6687 47.5763 59.6746 47.5763H60.5985C60.6045 47.5763 60.6089 47.5748 60.6119 47.5719C60.6179 47.5659 60.6194 47.5614 60.6164 47.5585L60.1433 45.7642C60.1403 45.7583 60.1373 45.7553 60.1343 45.7553C60.1314 45.7553 60.1284 45.7583 60.1254 45.7642L59.6568 47.5585ZM62.27 48.4824C61.9903 48.4824 61.7671 48.4095 61.6005 48.2637C61.4368 48.1149 61.355 47.917 61.355 47.67V47.5495C61.355 47.5198 61.3699 47.5049 61.3996 47.5049H61.6183C61.6481 47.5049 61.663 47.5198 61.663 47.5495V47.6522C61.663 47.8188 61.7195 47.9527 61.8326 48.0539C61.9457 48.1551 62.0959 48.2056 62.2834 48.2056C62.4589 48.2056 62.5973 48.158 62.6985 48.0628C62.7996 47.9676 62.8502 47.8426 62.8502 47.6879C62.8502 47.5867 62.8264 47.499 62.7788 47.4246C62.7312 47.3502 62.6613 47.2817 62.569 47.2193C62.4768 47.1568 62.3444 47.0779 62.1718 46.9827C61.9873 46.8845 61.8415 46.7982 61.7344 46.7238C61.6303 46.6494 61.5454 46.5587 61.48 46.4516C61.4145 46.3445 61.3818 46.2135 61.3818 46.0588C61.3818 45.8178 61.4592 45.6288 61.6139 45.492C61.7686 45.3551 61.9754 45.2867 62.2343 45.2867C62.511 45.2867 62.7312 45.3625 62.8948 45.5143C63.0585 45.666 63.1403 45.8669 63.1403 46.1168V46.2195C63.1403 46.2492 63.1254 46.2641 63.0957 46.2641H62.8725C62.8428 46.2641 62.8279 46.2492 62.8279 46.2195V46.1213C62.8279 45.9547 62.7743 45.8208 62.6672 45.7196C62.5601 45.6155 62.4128 45.5634 62.2254 45.5634C62.0587 45.5634 61.9278 45.6065 61.8326 45.6928C61.7403 45.7791 61.6942 45.9011 61.6942 46.0588C61.6942 46.16 61.7165 46.2448 61.7612 46.3132C61.8058 46.3817 61.8698 46.4441 61.9531 46.5007C62.0394 46.5572 62.1703 46.6331 62.3459 46.7283C62.5482 46.8414 62.7029 46.9381 62.81 47.0184C62.9201 47.0958 63.0064 47.1865 63.0689 47.2907C63.1344 47.3918 63.1671 47.5168 63.1671 47.6656C63.1671 47.9155 63.0868 48.1149 62.9261 48.2637C62.7654 48.4095 62.5467 48.4824 62.27 48.4824ZM64.7118 45.3179C64.9499 45.3179 65.1418 45.3982 65.2876 45.5589C65.4363 45.7166 65.5107 45.9264 65.5107 46.1882C65.5107 46.4471 65.4363 46.6554 65.2876 46.8131C65.1418 46.9678 64.9499 47.0452 64.7118 47.0452H64.0468C64.0349 47.0452 64.0289 47.0511 64.0289 47.063V48.402C64.0289 48.4318 64.0141 48.4467 63.9843 48.4467H63.7567C63.7269 48.4467 63.712 48.4318 63.712 48.402V45.3625C63.712 45.3328 63.7269 45.3179 63.7567 45.3179H64.7118ZM64.6716 46.7819C64.8293 46.7819 64.9558 46.7283 65.051 46.6212C65.1462 46.5141 65.1938 46.3712 65.1938 46.1927C65.1938 46.0112 65.1462 45.8669 65.051 45.7598C64.9558 45.6497 64.8293 45.5946 64.6716 45.5946H64.0468C64.0349 45.5946 64.0289 45.6006 64.0289 45.6125V46.764C64.0289 46.7759 64.0349 46.7819 64.0468 46.7819H64.6716ZM67.388 46.8176C67.3731 46.8235 67.3731 46.831 67.388 46.8399C67.5278 46.9083 67.635 47.0065 67.7093 47.1345C67.7867 47.2624 67.8269 47.4171 67.8299 47.5986C67.8299 47.8664 67.7495 48.0747 67.5888 48.2235C67.4311 48.3723 67.2214 48.4467 66.9595 48.4467H66.0803C66.0505 48.4467 66.0356 48.4318 66.0356 48.402V45.367C66.0356 45.3372 66.0505 45.3224 66.0803 45.3224H66.9238C67.1976 45.3224 67.4118 45.3938 67.5665 45.5366C67.7213 45.6765 67.7986 45.8773 67.7986 46.1391C67.7986 46.3058 67.7629 46.4456 67.6915 46.5587C67.6231 46.6718 67.5219 46.7581 67.388 46.8176ZM66.3704 45.5991C66.3585 45.5991 66.3525 45.605 66.3525 45.6169V46.6926C66.3525 46.7045 66.3585 46.7104 66.3704 46.7104H66.9283C67.1009 46.7104 67.2362 46.6613 67.3344 46.5632C67.4356 46.465 67.4862 46.3326 67.4862 46.1659C67.4862 45.9904 67.4356 45.852 67.3344 45.7508C67.2362 45.6497 67.1009 45.5991 66.9283 45.5991H66.3704ZM66.9506 48.1655C67.1232 48.1655 67.26 48.1119 67.3612 48.0048C67.4624 47.8977 67.513 47.7519 67.513 47.5674C67.513 47.3799 67.4609 47.2326 67.3568 47.1255C67.2556 47.0184 67.1172 46.9649 66.9417 46.9649H66.3704C66.3585 46.9649 66.3525 46.9708 66.3525 46.9827V48.1476C66.3525 48.1595 66.3585 48.1655 66.3704 48.1655H66.9506ZM70.1382 45.5545C70.1382 45.5842 70.1233 45.5991 70.0935 45.5991H68.7546C68.7427 45.5991 68.7367 45.605 68.7367 45.6169V46.7238C68.7367 46.7357 68.7427 46.7417 68.7546 46.7417H69.6561C69.6859 46.7417 69.7008 46.7566 69.7008 46.7863V46.9738C69.7008 47.0035 69.6859 47.0184 69.6561 47.0184H68.7546C68.7427 47.0184 68.7367 47.0244 68.7367 47.0363V48.1521C68.7367 48.164 68.7427 48.1699 68.7546 48.1699H70.0935C70.1233 48.1699 70.1382 48.1848 70.1382 48.2146V48.402C70.1382 48.4318 70.1233 48.4467 70.0935 48.4467H68.4644C68.4347 48.4467 68.4198 48.4318 68.4198 48.402V45.367C68.4198 45.3372 68.4347 45.3224 68.4644 45.3224H70.0935C70.1233 45.3224 70.1382 45.3372 70.1382 45.367V45.5545ZM72.2564 48.4467C72.2326 48.4467 72.2163 48.4348 72.2073 48.4109L71.6539 47.0318C71.6509 47.0229 71.645 47.0184 71.636 47.0184H71.0603C71.0484 47.0184 71.0424 47.0244 71.0424 47.0363V48.402C71.0424 48.4318 71.0276 48.4467 70.9978 48.4467H70.7702C70.7404 48.4467 70.7255 48.4318 70.7255 48.402V45.367C70.7255 45.3372 70.7404 45.3224 70.7702 45.3224H71.7164C71.8711 45.3224 72.008 45.3581 72.127 45.4295C72.249 45.5009 72.3427 45.6021 72.4082 45.733C72.4766 45.8639 72.5108 46.0142 72.5108 46.1838C72.5108 46.3861 72.4618 46.5587 72.3636 46.7015C72.2654 46.8443 72.1315 46.9396 71.9619 46.9872C71.95 46.9931 71.947 47.0006 71.9529 47.0095L72.5287 48.3931L72.5332 48.4109C72.5332 48.4348 72.5198 48.4467 72.493 48.4467H72.2564ZM71.0603 45.5991C71.0484 45.5991 71.0424 45.605 71.0424 45.6169V46.7462C71.0424 46.7581 71.0484 46.764 71.0603 46.764H71.6762C71.8309 46.764 71.9559 46.7104 72.0511 46.6033C72.1463 46.4962 72.194 46.3564 72.194 46.1838C72.194 46.0082 72.1463 45.8669 72.0511 45.7598C71.9559 45.6527 71.8309 45.5991 71.6762 45.5991H71.0603ZM74.6145 48.4467C74.5907 48.4467 74.5743 48.4348 74.5654 48.4109L74.0119 47.0318C74.009 47.0229 74.003 47.0184 73.9941 47.0184H73.4183C73.4064 47.0184 73.4005 47.0244 73.4005 47.0363V48.402C73.4005 48.4318 73.3856 48.4467 73.3558 48.4467H73.1282C73.0985 48.4467 73.0836 48.4318 73.0836 48.402V45.367C73.0836 45.3372 73.0985 45.3224 73.1282 45.3224H74.0744C74.2291 45.3224 74.366 45.3581 74.485 45.4295C74.607 45.5009 74.7008 45.6021 74.7662 45.733C74.8347 45.8639 74.8689 46.0142 74.8689 46.1838C74.8689 46.3861 74.8198 46.5587 74.7216 46.7015C74.6234 46.8443 74.4895 46.9396 74.3199 46.9872C74.308 46.9931 74.305 47.0006 74.311 47.0095L74.8867 48.3931L74.8912 48.4109C74.8912 48.4348 74.8778 48.4467 74.851 48.4467H74.6145ZM73.4183 45.5991C73.4064 45.5991 73.4005 45.605 73.4005 45.6169V46.7462C73.4005 46.7581 73.4064 46.764 73.4183 46.764H74.0343C74.189 46.764 74.3139 46.7104 74.4092 46.6033C74.5044 46.4962 74.552 46.3564 74.552 46.1838C74.552 46.0082 74.5044 45.8669 74.4092 45.7598C74.3139 45.6527 74.189 45.5991 74.0343 45.5991H73.4183ZM76.0097 48.4422C75.9799 48.4422 75.9651 48.4273 75.9651 48.3976V47.0675C75.9651 47.0556 75.9636 47.0482 75.9606 47.0452L75.1885 45.3759L75.184 45.3581C75.184 45.3343 75.1974 45.3224 75.2242 45.3224H75.4652C75.489 45.3224 75.5054 45.3343 75.5143 45.3581L76.1124 46.6926C76.1153 46.6985 76.1198 46.7015 76.1257 46.7015C76.1317 46.7015 76.1362 46.6985 76.1391 46.6926L76.7372 45.3581C76.7461 45.3343 76.7625 45.3224 76.7863 45.3224H77.0273C77.0422 45.3224 77.0526 45.3283 77.0586 45.3402C77.0675 45.3491 77.069 45.3611 77.063 45.3759L76.2864 47.0452C76.2834 47.0482 76.282 47.0556 76.282 47.0675V48.3976C76.282 48.4273 76.2671 48.4422 76.2373 48.4422H76.0097ZM58.2477 51.9649C58.3042 52.1196 58.3325 52.2966 58.3325 52.496C58.3325 52.6745 58.3102 52.8292 58.2655 52.9602C58.1554 53.3083 57.9114 53.4824 57.5336 53.4824C57.3312 53.4824 57.1616 53.4288 57.0247 53.3217C56.8879 53.2116 56.8001 53.0613 56.7614 52.8709C56.7406 52.7757 56.7302 52.6671 56.7302 52.5451C56.7302 52.5153 56.745 52.5004 56.7748 52.5004H57.0024C57.0322 52.5004 57.0471 52.5153 57.0471 52.5451C57.053 52.673 57.0604 52.7593 57.0694 52.8039C57.0962 52.9289 57.1497 53.0271 57.2301 53.0985C57.3104 53.1699 57.4116 53.2056 57.5336 53.2056C57.7627 53.2056 57.9114 53.0896 57.9799 52.8575C58.0067 52.7504 58.0201 52.6224 58.0201 52.4737C58.0201 52.2951 58.0007 52.1478 57.962 52.0318C57.8847 51.8235 57.7418 51.7194 57.5336 51.7194C57.4859 51.7194 57.4443 51.7283 57.4086 51.7462C57.3907 51.7521 57.3803 51.7551 57.3773 51.7551C57.3654 51.7551 57.355 51.7491 57.3461 51.7372L57.2301 51.6167C57.2152 51.5959 57.2137 51.5751 57.2256 51.5542L57.9219 50.6214C57.9278 50.6155 57.9293 50.611 57.9263 50.608C57.9233 50.6021 57.9189 50.5991 57.9129 50.5991H56.7971C56.7674 50.5991 56.7525 50.5842 56.7525 50.5545V50.367C56.7525 50.3372 56.7674 50.3224 56.7971 50.3224H58.2745C58.3042 50.3224 58.3191 50.3372 58.3191 50.367V50.5678C58.3191 50.5917 58.3131 50.611 58.3012 50.6259L57.6541 51.5096C57.6511 51.5126 57.6511 51.517 57.6541 51.523C57.657 51.5289 57.6615 51.5319 57.6675 51.5319C57.8073 51.5379 57.9263 51.578 58.0245 51.6524C58.1227 51.7268 58.1971 51.831 58.2477 51.9649ZM59.7157 53.4913C59.4598 53.4913 59.2545 53.4139 59.0998 53.2592C58.9451 53.1045 58.8677 52.8977 58.8677 52.6388V51.1302C58.8677 50.8743 58.9451 50.669 59.0998 50.5143C59.2545 50.3596 59.4598 50.2822 59.7157 50.2822C59.9746 50.2822 60.1814 50.3596 60.3361 50.5143C60.4938 50.669 60.5727 50.8743 60.5727 51.1302V52.6388C60.5727 52.8977 60.4938 53.1045 60.3361 53.2592C60.1814 53.4139 59.9746 53.4913 59.7157 53.4913ZM59.7157 53.2146C59.8794 53.2146 60.0103 53.164 60.1085 53.0628C60.2067 52.9616 60.2558 52.8277 60.2558 52.6611V51.1124C60.2558 50.9457 60.2067 50.8118 60.1085 50.7107C60.0103 50.6095 59.8794 50.5589 59.7157 50.5589C59.558 50.5589 59.4301 50.6095 59.3319 50.7107C59.2337 50.8118 59.1846 50.9457 59.1846 51.1124V52.6611C59.1846 52.8248 59.2337 52.9587 59.3319 53.0628C59.4301 53.164 59.558 53.2146 59.7157 53.2146ZM61.8487 51.5498C61.7327 51.5498 61.6256 51.5215 61.5274 51.465C61.4322 51.4084 61.3563 51.3326 61.2997 51.2373C61.2432 51.1391 61.2149 51.032 61.2149 50.916C61.2149 50.7999 61.2432 50.6943 61.2997 50.5991C61.3563 50.5009 61.4322 50.4235 61.5274 50.367C61.6256 50.3105 61.7327 50.2822 61.8487 50.2822C61.9618 50.2822 62.0659 50.3105 62.1612 50.367C62.2594 50.4235 62.3367 50.5009 62.3932 50.5991C62.4498 50.6943 62.4781 50.7999 62.4781 50.916C62.4781 51.032 62.4498 51.1391 62.3932 51.2373C62.3367 51.3326 62.2594 51.4084 62.1612 51.465C62.0659 51.5215 61.9618 51.5498 61.8487 51.5498ZM61.7461 53.4467C61.7312 53.4467 61.7193 53.4422 61.7104 53.4333C61.7044 53.4214 61.7059 53.408 61.7148 53.3931L63.3752 50.3536C63.3841 50.3328 63.4019 50.3224 63.4287 50.3224H63.5716C63.5864 50.3224 63.5968 50.3283 63.6028 50.3402C63.6117 50.3491 63.6117 50.3611 63.6028 50.3759L61.9425 53.4154C61.9335 53.4362 61.9157 53.4467 61.8889 53.4467H61.7461ZM61.8487 51.3534C61.9678 51.3534 62.0674 51.3117 62.1478 51.2284C62.2311 51.1421 62.2727 51.038 62.2727 50.916C62.2727 50.794 62.2311 50.6913 62.1478 50.608C62.0674 50.5217 61.9678 50.4786 61.8487 50.4786C61.7297 50.4786 61.6285 50.5217 61.5452 50.608C61.4619 50.6913 61.4203 50.794 61.4203 50.916C61.4203 51.038 61.4619 51.1421 61.5452 51.2284C61.6285 51.3117 61.7297 51.3534 61.8487 51.3534ZM63.4867 53.4868C63.3707 53.4868 63.2636 53.4586 63.1654 53.402C63.0702 53.3455 62.9943 53.2681 62.9378 53.1699C62.8812 53.0717 62.853 52.9646 62.853 52.8486C62.853 52.7355 62.8812 52.6314 62.9378 52.5361C62.9943 52.438 63.0702 52.3606 63.1654 52.3041C63.2636 52.2475 63.3707 52.2193 63.4867 52.2193C63.5998 52.2193 63.704 52.2475 63.7992 52.3041C63.8974 52.3606 63.9747 52.438 64.0313 52.5361C64.0878 52.6314 64.1161 52.7355 64.1161 52.8486C64.1161 52.9646 64.0878 53.0717 64.0313 53.1699C63.9747 53.2681 63.8974 53.3455 63.7992 53.402C63.704 53.4586 63.5998 53.4868 63.4867 53.4868ZM63.4867 53.2904C63.6058 53.2904 63.7055 53.2473 63.7858 53.161C63.8691 53.0747 63.9108 52.9706 63.9108 52.8486C63.9108 52.7266 63.8691 52.6239 63.7858 52.5406C63.7055 52.4573 63.6058 52.4156 63.4867 52.4156C63.3677 52.4156 63.2666 52.4573 63.1832 52.5406C63.0999 52.6239 63.0583 52.7266 63.0583 52.8486C63.0583 52.9735 63.0984 53.0792 63.1788 53.1655C63.2621 53.2488 63.3648 53.2904 63.4867 53.2904Z" fill="#404040"/>
<path fill-rule="evenodd" clip-rule="evenodd" d="M40.6487 23.188C38.3128 23.4658 36.37 25.1164 35.7268 27.3716C35.665 27.5808 35.5968 27.8978 35.5708 28.0743L35.5221 28.3979L35.7463 28.692C35.8697 28.8522 36.0062 29.0287 36.0484 29.0842L36.2835 29.2417L36.3014 28.5907V27.9958L36.3765 27.9893H36.6202V29.0189V30.0484H36.4253L36.3358 29.9634L36.0174 29.5483C35.842 29.3195 35.5183 28.7995 35.4956 28.7733C35.4306 28.6949 35.5253 29.7183 35.6131 30.1465C35.9639 31.8918 37.1042 33.392 38.6961 34.1993C39.869 34.7941 41.2237 34.9673 42.5199 34.6863C43.3906 34.5 44.2743 34.0718 44.9533 33.5129C46.295 32.4049 47.0812 30.7674 47.0812 29.0679C47.0812 27.9697 46.7921 27.6429 45.3269 27.0807C44.7648 26.865 44.44 26.7081 44.1248 26.5022C43.6928 26.2211 43.4848 25.9335 42.9553 24.9007C42.4062 23.8254 42.1333 23.4593 41.737 23.2632C41.5648 23.1782 41.5063 23.1684 41.2172 23.1619C41.0385 23.1586 40.7819 23.1717 40.6487 23.188ZM40.7299 25.976C41.0223 26.11 41.2334 26.3584 41.8052 27.2376C42.1658 27.7899 42.2925 27.9305 42.5232 28.0416C42.6174 28.0874 42.7214 28.1593 42.7539 28.1985C42.8091 28.2737 43.1961 28.4671 43.2676 28.4671C43.2871 28.4671 43.3124 28.3554 43.3124 28.2181V27.9893H43.735C44.1346 27.9893 44.284 28.0024 44.3782 28.0416C44.7778 28.2083 44.924 28.7116 44.6836 29.1006C44.5992 29.2346 44.5959 29.2574 44.6316 29.3457C44.7356 29.5876 44.6511 30.1236 44.427 30.6596C44.2093 31.1793 43.6798 31.8297 43.2184 32.1402C42.9358 32.3297 42.4712 32.5455 42.1593 32.6304C41.7857 32.7318 41.0807 32.7546 40.7104 32.6795C39.4726 32.4278 38.5402 31.6042 38.1016 30.3818C38.0561 30.251 38.0172 30.117 38.0172 30.0876C38.0172 30.0353 37.9684 30.0321 37.4649 30.0419L37.0894 30.0615V29.0254V27.9893L37.5103 27.9958L38.1114 28.0056L38.1958 27.7899C38.4655 27.097 39.125 26.3878 39.8332 26.0315C40.1906 25.8485 40.4245 25.8354 40.7299 25.976ZM45.4893 28.3815V28.7737H45.9117H46.334V28.3815V27.9893H46.5777H46.8213V29.0189V30.0484H46.5777H46.334V29.6398V29.2313H45.9117H45.4893V29.6398V30.0484H45.2619H45.0345V29.0189V27.9893H45.2619H45.4893V28.3815Z" fill="#FF1368"/>
<path fill-rule="evenodd" clip-rule="evenodd" d="M37.3999 28.9999V29.5915H37.6598H37.9197V29.2025C37.9197 28.9901 37.9359 28.7384 37.9522 28.6436C37.9717 28.5489 37.9619 28.3842 37.9522 28.3776C37.9424 28.3678 37.8125 28.3515 37.6598 28.345L37.3836 28.3286L37.3999 28.9999Z" fill="#FF1368"/>
<path fill-rule="evenodd" clip-rule="evenodd" d="M43.6619 28.5057C43.6619 28.6201 43.7489 28.6397 44.0251 28.7705C44.2882 28.8947 44.3142 28.9012 44.35 28.8489C44.4117 28.7639 44.402 28.594 44.3305 28.5057C44.2752 28.4371 44.2525 28.3692 44.0251 28.3594H43.6619V28.5057Z" fill="#FF1368"/>
<path fill-rule="evenodd" clip-rule="evenodd" d="M48.9144 27.9503C48.8082 27.9858 48.6586 28.0567 48.5863 28.1023C48.4608 28.1934 48.456 28.1934 48.456 28.0871C48.456 27.9959 48.427 27.9807 48.263 27.9807H48.0699V29.019V30.0574H48.2581H48.4463L48.4656 29.3533C48.4801 28.7303 48.4946 28.629 48.5814 28.5024C48.8034 28.1934 49.3342 28.1732 49.4693 28.472C49.5079 28.5581 49.5368 28.8873 49.5465 29.3229L49.5658 30.032L49.7588 30.0472L49.9566 30.0624L49.9422 29.3128L49.9277 28.5632L49.6961 28.4366C49.5417 28.3505 49.4307 28.239 49.3583 28.1073C49.2328 27.8794 49.1846 27.8591 48.9144 27.9503Z" fill="black"/>
<path fill-rule="evenodd" clip-rule="evenodd" d="M33.41 27.9866C33.0481 28.1031 32.6911 28.6957 32.7538 29.0806C32.7924 29.3238 32.8117 29.3491 33.0337 29.4555C33.1639 29.5162 33.3232 29.6479 33.4342 29.7948C33.6754 30.1088 33.6851 30.1139 33.8781 30.0835C34.1531 30.0278 34.4571 29.7999 34.5874 29.5416C34.6791 29.3542 34.6791 29.3491 34.4668 29.3491C34.3317 29.3491 34.2545 29.3795 34.2062 29.4504C34.1145 29.5871 33.8877 29.7036 33.7092 29.7036C33.5114 29.7036 33.2556 29.5162 33.1736 29.3086L33.1109 29.1465H33.9119H34.7129L34.6936 28.873C34.6694 28.5539 34.5102 28.2753 34.2496 28.093C34.0614 27.9562 33.6561 27.9056 33.41 27.9866ZM34.0277 28.4121C34.1049 28.4577 34.2062 28.559 34.2448 28.64L34.322 28.7919H33.7382C33.3473 28.7919 33.1591 28.7717 33.1591 28.7362C33.1591 28.7058 33.2315 28.6045 33.3232 28.5083C33.4583 28.3665 33.5258 28.3361 33.6851 28.3361C33.7961 28.3361 33.9505 28.3715 34.0277 28.4121Z" fill="black"/>
<path fill-rule="evenodd" clip-rule="evenodd" d="M39.7799 27.9862C39.5386 28.0621 39.1622 28.4673 39.0947 28.7358C38.921 29.4145 39.4324 30.078 40.1321 30.078C41.02 30.0831 41.5073 29.0296 40.9379 28.3357C40.6484 27.976 40.2286 27.8494 39.7799 27.9862ZM40.5712 28.5028C40.7208 28.6446 40.7497 28.7155 40.769 28.9232C40.8221 29.5057 40.3589 29.8552 39.8426 29.6323C39.5917 29.5209 39.471 29.2828 39.4952 28.9485C39.5096 28.7105 39.5386 28.6497 39.6882 28.5028C39.8426 28.3559 39.8957 28.3357 40.1321 28.3357C40.3685 28.3357 40.4216 28.3559 40.5712 28.5028Z" fill="black"/>
<path fill-rule="evenodd" clip-rule="evenodd" d="M34.9446 29.0194V30.0577H35.1617H35.374L35.3885 29.4145L35.403 28.7662L35.8373 29.3486C36.3873 30.0932 36.3632 30.0679 36.5466 30.0476L36.7058 30.0324V29.0194V28.0064L36.5031 27.9912L36.2957 27.976V28.5838C36.2957 29.2473 36.2571 29.3233 36.0785 29.0498C36.0254 28.9688 35.8324 28.6952 35.6442 28.442C35.3258 28.0064 35.3017 27.9811 35.1279 27.9811H34.9446V29.0194Z" fill="black"/>
<path fill-rule="evenodd" clip-rule="evenodd" d="M37.0676 29.0145V30.0579H37.5405C38.0858 30.0579 38.3125 30.0021 38.5152 29.8198C38.7661 29.602 38.8675 29.3336 38.8433 28.9385C38.8289 28.6447 38.8047 28.5637 38.6793 28.4016C38.4187 28.0673 38.2739 28.0065 37.637 27.9863L37.0676 27.9711V29.0145ZM38.2209 28.5181C38.5007 28.7612 38.5104 29.2424 38.2498 29.5007C38.1485 29.602 38.0761 29.6223 37.8059 29.6223L37.4778 29.6273L37.4633 29.0043L37.4488 28.3864H37.7625C38.0279 28.3864 38.0954 28.4067 38.2209 28.5181Z" fill="black"/>
<path fill-rule="evenodd" clip-rule="evenodd" d="M41.3625 29.0198V30.0582H41.5796H41.7967V29.7036V29.3491H41.9801C42.1538 29.3491 42.1635 29.3643 42.342 29.7036L42.5253 30.0582H42.7714H43.0127L42.8535 29.7644C42.7714 29.6074 42.6749 29.4352 42.646 29.3896C42.6074 29.3187 42.6267 29.268 42.7618 29.1211C42.9114 28.9641 42.9258 28.9135 42.9258 28.6653C42.9258 28.4424 42.9065 28.3664 42.81 28.255C42.5977 28.022 42.4674 27.9815 41.8932 27.9815H41.3625V29.0198ZM42.4337 28.4728C42.4819 28.5184 42.5205 28.6045 42.5205 28.6703C42.5205 28.8679 42.3951 28.9439 42.0814 28.9439H41.7967V28.6653V28.3867H42.0718C42.2551 28.3867 42.3709 28.412 42.4337 28.4728Z" fill="black"/>
<path fill-rule="evenodd" clip-rule="evenodd" d="M43.2733 28.5485C43.254 28.8625 43.2492 29.3234 43.2636 29.5767L43.2829 30.0325L43.4808 30.0477L43.6738 30.0629L43.6883 29.7438L43.7027 29.4247L44.0405 29.3994C44.2287 29.3842 44.4265 29.3437 44.4893 29.3082C44.7498 29.1512 44.8705 28.67 44.7209 28.3661C44.5761 28.0724 44.4265 28.0065 43.8427 27.9913L43.3071 27.9711L43.2733 28.5485ZM44.2576 28.4371C44.3831 28.508 44.4217 28.7258 44.33 28.8726C44.2673 28.979 44.219 28.9942 43.9681 28.9942H43.6786V28.6903V28.3864H43.9247C44.0598 28.3864 44.2094 28.4067 44.2576 28.4371Z" fill="black"/>
<path fill-rule="evenodd" clip-rule="evenodd" d="M45.078 29.0245V30.0628L45.2855 30.0476L45.4882 30.0324V29.6272V29.222L45.9369 29.2068L46.3808 29.1916V29.6272V30.0628L46.5883 30.0476L46.791 30.0324V29.0194V28.0064L46.5883 27.9912L46.3808 27.976V28.3812V28.7915H45.9224H45.464V28.3863V27.9811H45.271H45.078V29.0245Z" fill="black"/>
<path fill-rule="evenodd" clip-rule="evenodd" d="M47.2014 29.0198V30.0582H47.4185H47.6357V29.0198V27.9815H47.4185H47.2014V29.0198Z" fill="black"/>
</svg>
