<svg width="89" height="57" viewBox="0 0 89 57" fill="none" xmlns="http://www.w3.org/2000/svg">
<path d="M64.1051 21.202C65.2701 24.398 65.661 27.8239 65.2459 31.1997C64.8308 34.5755 63.6214 37.8052 61.7166 40.6249C59.8118 43.4445 57.2657 45.774 54.2864 47.4229C51.3072 49.0718 47.9794 49.9933 44.5752 50.112L44.3115 42.5734C46.5243 42.4962 48.6873 41.8973 50.6238 40.8255C52.5603 39.7537 54.2153 38.2395 55.4534 36.4068C56.6915 34.574 57.4777 32.4747 57.7475 30.2804C58.0173 28.0862 57.7632 25.8593 57.0059 23.7819L64.1051 21.202Z" fill="#EC1A2D"/>
<path d="M44.5752 50.112C41.1709 50.2307 37.7868 49.5432 34.6997 48.1059C31.6125 46.6685 28.9098 44.522 26.8127 41.8419C24.7155 39.1617 23.2834 36.0241 22.6335 32.6855C21.9835 29.3468 22.1342 25.902 23.0731 22.6326L30.3352 24.7118C29.7249 26.8369 29.6269 29.076 30.0494 31.2462C30.4719 33.4163 31.4027 35.4557 32.7659 37.1978C34.129 38.9399 35.8858 40.3351 37.8924 41.2694C39.8991 42.2037 42.0987 42.6505 44.3115 42.5734L44.5752 50.112Z" fill="#EEE0A8"/>
<path d="M43.0686 7.03436C47.6241 6.87553 52.113 8.16074 55.892 10.7058C59.671 13.2509 62.546 16.9251 64.1051 21.202L57.0059 23.7819C55.9926 21.0019 54.1238 18.6137 51.6675 16.9594C49.2111 15.3051 46.2933 14.4697 43.3322 14.5729L43.0686 7.03436Z" fill="#409219"/>
<path d="M23.0731 22.6327C24.3295 18.2576 26.9409 14.3921 30.5328 11.59C34.1248 8.78794 38.513 7.1932 43.0686 7.03436L43.3322 14.5729C40.3711 14.6762 37.5188 15.7128 35.184 17.5341C32.8492 19.3555 31.1518 21.8681 30.3351 24.7118L23.0731 22.6327Z" fill="#DB3E4B"/>
<path d="M31.3156 12.8225L28.7736 9.5592H18.2425" stroke="black" stroke-width="0.145684"/>
<path d="M57.0986 13.1855L59.6406 9.92224H70.1718" stroke="black" stroke-width="0.145684"/>
<path d="M31.6787 45.0932L29.1367 48.3564H18.6056" stroke="black" stroke-width="0.145684"/>
<path d="M6.71973 46.9529C6.44896 46.9529 6.23026 46.8726 6.06363 46.7119C5.89998 46.5512 5.81815 46.3385 5.81815 46.0737V44.632C5.81815 44.3672 5.89998 44.156 6.06363 43.9983C6.23026 43.8376 6.44896 43.7572 6.71973 43.7572C6.99348 43.7572 7.21218 43.8361 7.37583 43.9938C7.54246 44.1515 7.62577 44.3613 7.62577 44.6231V44.6633C7.62577 44.693 7.6109 44.7079 7.58114 44.7079L7.35351 44.7168C7.32376 44.7168 7.30888 44.7035 7.30888 44.6767V44.6142C7.30888 44.4416 7.25383 44.3018 7.14374 44.1946C7.03662 44.0875 6.89529 44.034 6.71973 44.034C6.54417 44.034 6.40284 44.0875 6.29572 44.1946C6.1886 44.2988 6.13504 44.4386 6.13504 44.6142V46.096C6.13504 46.2716 6.1886 46.4129 6.29572 46.52C6.40284 46.6241 6.54417 46.6762 6.71973 46.6762C6.89529 46.6762 7.03662 46.6227 7.14374 46.5155C7.25383 46.4084 7.30888 46.2686 7.30888 46.096V46.0335C7.30888 46.0067 7.32376 45.9933 7.35351 45.9933L7.58114 46.0067C7.6109 46.0067 7.62577 46.0216 7.62577 46.0514V46.0826C7.62577 46.3445 7.54246 46.5557 7.37583 46.7164C7.21218 46.8741 6.99348 46.9529 6.71973 46.9529ZM9.71176 43.8376C9.71176 43.8078 9.72664 43.7929 9.75639 43.7929H9.98402C10.0138 43.7929 10.0286 43.8078 10.0286 43.8376V46.8726C10.0286 46.9024 10.0138 46.9172 9.98402 46.9172H9.75639C9.72664 46.9172 9.71176 46.9024 9.71176 46.8726V45.5068C9.71176 45.4949 9.70581 45.489 9.6939 45.489H8.58701C8.57511 45.489 8.56916 45.4949 8.56916 45.5068V46.8726C8.56916 46.9024 8.55428 46.9172 8.52453 46.9172H8.2969C8.26715 46.9172 8.25227 46.9024 8.25227 46.8726V43.8376C8.25227 43.8078 8.26715 43.7929 8.2969 43.7929H8.52453C8.55428 43.7929 8.56916 43.8078 8.56916 43.8376V45.1944C8.56916 45.2063 8.57511 45.2123 8.58701 45.2123H9.6939C9.70581 45.2123 9.71176 45.2063 9.71176 45.1944V43.8376ZM12.2981 46.9172C12.2743 46.9172 12.2579 46.9053 12.249 46.8815L11.6956 45.5024C11.6926 45.4935 11.6866 45.489 11.6777 45.489H11.102C11.0901 45.489 11.0841 45.4949 11.0841 45.5068V46.8726C11.0841 46.9024 11.0692 46.9172 11.0395 46.9172H10.8118C10.7821 46.9172 10.7672 46.9024 10.7672 46.8726V43.8376C10.7672 43.8078 10.7821 43.7929 10.8118 43.7929H11.7581C11.9128 43.7929 12.0497 43.8287 12.1687 43.9001C12.2907 43.9715 12.3844 44.0726 12.4499 44.2036C12.5183 44.3345 12.5525 44.4848 12.5525 44.6544C12.5525 44.8567 12.5034 45.0293 12.4052 45.1721C12.307 45.3149 12.1731 45.4101 12.0035 45.4577C11.9916 45.4637 11.9887 45.4711 11.9946 45.4801L12.5704 46.8637L12.5748 46.8815C12.5748 46.9053 12.5614 46.9172 12.5347 46.9172H12.2981ZM11.102 44.0697C11.0901 44.0697 11.0841 44.0756 11.0841 44.0875V45.2167C11.0841 45.2286 11.0901 45.2346 11.102 45.2346H11.7179C11.8726 45.2346 11.9976 45.181 12.0928 45.0739C12.188 44.9668 12.2356 44.8269 12.2356 44.6544C12.2356 44.4788 12.188 44.3375 12.0928 44.2303C11.9976 44.1232 11.8726 44.0697 11.7179 44.0697H11.102ZM13.1699 46.9172C13.1401 46.9172 13.1253 46.9024 13.1253 46.8726V43.8376C13.1253 43.8078 13.1401 43.7929 13.1699 43.7929H13.3975C13.4273 43.7929 13.4421 43.8078 13.4421 43.8376V46.8726C13.4421 46.9024 13.4273 46.9172 13.3975 46.9172H13.1699ZM14.9387 46.9529C14.659 46.9529 14.4358 46.88 14.2692 46.7342C14.1056 46.5855 14.0237 46.3876 14.0237 46.1406V46.0201C14.0237 45.9904 14.0386 45.9755 14.0684 45.9755H14.2871C14.3168 45.9755 14.3317 45.9904 14.3317 46.0201V46.1228C14.3317 46.2894 14.3882 46.4233 14.5013 46.5245C14.6144 46.6256 14.7646 46.6762 14.9521 46.6762C15.1276 46.6762 15.266 46.6286 15.3672 46.5334C15.4683 46.4382 15.5189 46.3132 15.5189 46.1585C15.5189 46.0573 15.4951 45.9695 15.4475 45.8951C15.3999 45.8208 15.33 45.7523 15.2377 45.6898C15.1455 45.6274 15.0131 45.5485 14.8405 45.4533C14.656 45.3551 14.5102 45.2688 14.4031 45.1944C14.299 45.12 14.2142 45.0293 14.1487 44.9222C14.0832 44.815 14.0505 44.6841 14.0505 44.5294C14.0505 44.2884 14.1279 44.0994 14.2826 43.9626C14.4373 43.8257 14.6441 43.7572 14.903 43.7572C15.1797 43.7572 15.3999 43.8331 15.5636 43.9849C15.7272 44.1366 15.809 44.3375 15.809 44.5874V44.6901C15.809 44.7198 15.7942 44.7347 15.7644 44.7347H15.5412C15.5115 44.7347 15.4966 44.7198 15.4966 44.6901V44.5919C15.4966 44.4252 15.443 44.2913 15.3359 44.1902C15.2288 44.086 15.0815 44.034 14.8941 44.034C14.7274 44.034 14.5965 44.0771 14.5013 44.1634C14.4091 44.2497 14.3629 44.3717 14.3629 44.5294C14.3629 44.6306 14.3853 44.7154 14.4299 44.7838C14.4745 44.8522 14.5385 44.9147 14.6218 44.9713C14.7081 45.0278 14.839 45.1037 15.0146 45.1989C15.2169 45.3119 15.3716 45.4087 15.4788 45.489C15.5888 45.5664 15.6751 45.6571 15.7376 45.7613C15.8031 45.8624 15.8358 45.9874 15.8358 46.1362C15.8358 46.3861 15.7555 46.5855 15.5948 46.7342C15.4341 46.88 15.2154 46.9529 14.9387 46.9529ZM17.9622 43.7929C17.992 43.7929 18.0068 43.8078 18.0068 43.8376V44.025C18.0068 44.0548 17.992 44.0697 17.9622 44.0697H17.2347C17.2228 44.0697 17.2168 44.0756 17.2168 44.0875V46.8726C17.2168 46.9024 17.202 46.9172 17.1722 46.9172H16.9446C16.9148 46.9172 16.9 46.9024 16.9 46.8726V44.0875C16.9 44.0756 16.894 44.0697 16.8821 44.0697H16.1814C16.1516 44.0697 16.1367 44.0548 16.1367 44.025V43.8376C16.1367 43.8078 16.1516 43.7929 16.1814 43.7929H17.9622ZM20.2434 43.8242C20.2582 43.8034 20.2761 43.7929 20.2969 43.7929H20.529C20.5588 43.7929 20.5736 43.8078 20.5736 43.8376V46.8726C20.5736 46.9024 20.5588 46.9172 20.529 46.9172H20.3014C20.2716 46.9172 20.2567 46.9024 20.2567 46.8726V44.4446C20.2567 44.4357 20.2538 44.4297 20.2478 44.4267C20.2419 44.4238 20.2374 44.4267 20.2344 44.4357L19.6408 45.4667C19.6259 45.4875 19.6081 45.4979 19.5873 45.4979H19.5382C19.5173 45.4979 19.4995 45.4875 19.4846 45.4667L18.8865 44.4401C18.8835 44.4312 18.8791 44.4282 18.8731 44.4312C18.8672 44.4342 18.8642 44.4401 18.8642 44.449V46.8726C18.8642 46.9024 18.8493 46.9172 18.8196 46.9172H18.5919C18.5622 46.9172 18.5473 46.9024 18.5473 46.8726V43.8376C18.5473 43.8078 18.5622 43.7929 18.5919 43.7929H18.824C18.8449 43.7929 18.8627 43.8034 18.8776 43.8242L19.5516 44.9713C19.5545 44.9742 19.559 44.9757 19.5649 44.9757C19.5709 44.9757 19.5754 44.9742 19.5783 44.9713L20.2434 43.8242ZM22.8239 46.9172C22.7971 46.9172 22.7807 46.9038 22.7748 46.8771L22.6275 46.3192C22.6245 46.3102 22.6171 46.3058 22.6052 46.3058H21.5384C21.5265 46.3058 21.5191 46.3102 21.5161 46.3192L21.3688 46.8771C21.3629 46.9038 21.3465 46.9172 21.3197 46.9172H21.0876C21.0728 46.9172 21.0609 46.9128 21.0519 46.9038C21.046 46.8949 21.0445 46.883 21.0475 46.8681L21.8821 43.8331C21.8881 43.8063 21.9044 43.7929 21.9312 43.7929H22.2169C22.2436 43.7929 22.26 43.8063 22.2659 43.8331L23.1006 46.8681L23.105 46.8815C23.105 46.9053 23.0902 46.9172 23.0604 46.9172H22.8239ZM21.592 46.029C21.589 46.032 21.589 46.0365 21.592 46.0424C21.5979 46.0454 21.6039 46.0469 21.6098 46.0469H22.5337C22.5397 46.0469 22.5442 46.0454 22.5471 46.0424C22.5531 46.0365 22.5546 46.032 22.5516 46.029L22.0785 44.2348C22.0755 44.2289 22.0725 44.2259 22.0696 44.2259C22.0666 44.2259 22.0636 44.2289 22.0606 44.2348L21.592 46.029ZM24.2052 46.9529C23.9255 46.9529 23.7023 46.88 23.5357 46.7342C23.3721 46.5855 23.2902 46.3876 23.2902 46.1406V46.0201C23.2902 45.9904 23.3051 45.9755 23.3349 45.9755H23.5536C23.5833 45.9755 23.5982 45.9904 23.5982 46.0201V46.1228C23.5982 46.2894 23.6547 46.4233 23.7678 46.5245C23.8809 46.6256 24.0311 46.6762 24.2186 46.6762C24.3941 46.6762 24.5325 46.6286 24.6337 46.5334C24.7348 46.4382 24.7854 46.3132 24.7854 46.1585C24.7854 46.0573 24.7616 45.9695 24.714 45.8951C24.6664 45.8208 24.5965 45.7523 24.5042 45.6898C24.412 45.6274 24.2796 45.5485 24.107 45.4533C23.9225 45.3551 23.7767 45.2688 23.6696 45.1944C23.5655 45.12 23.4807 45.0293 23.4152 44.9222C23.3497 44.815 23.317 44.6841 23.317 44.5294C23.317 44.2884 23.3944 44.0994 23.5491 43.9626C23.7038 43.8257 23.9106 43.7572 24.1695 43.7572C24.4462 43.7572 24.6664 43.8331 24.8301 43.9849C24.9937 44.1366 25.0755 44.3375 25.0755 44.5874V44.6901C25.0755 44.7198 25.0607 44.7347 25.0309 44.7347H24.8077C24.778 44.7347 24.7631 44.7198 24.7631 44.6901V44.5919C24.7631 44.4252 24.7096 44.2913 24.6024 44.1902C24.4953 44.086 24.348 44.034 24.1606 44.034C23.9939 44.034 23.863 44.0771 23.7678 44.1634C23.6756 44.2497 23.6294 44.3717 23.6294 44.5294C23.6294 44.6306 23.6518 44.7154 23.6964 44.7838C23.741 44.8522 23.805 44.9147 23.8883 44.9713C23.9746 45.0278 24.1055 45.1037 24.2811 45.1989C24.4834 45.3119 24.6381 45.4087 24.7453 45.489C24.8554 45.5664 24.9416 45.6571 25.0041 45.7613C25.0696 45.8624 25.1023 45.9874 25.1023 46.1362C25.1023 46.3861 25.022 46.5855 24.8613 46.7342C24.7006 46.88 24.4819 46.9529 24.2052 46.9529ZM5.94759 51.9172C5.91783 51.9172 5.90295 51.9024 5.90295 51.8726V48.8376C5.90295 48.8078 5.91783 48.7929 5.94759 48.7929H6.81792C7.08274 48.7929 7.29103 48.8688 7.44278 49.0206C7.59751 49.1723 7.67487 49.3791 7.67487 49.641V51.0692C7.67487 51.3311 7.59751 51.5379 7.44278 51.6896C7.29103 51.8414 7.08274 51.9172 6.81792 51.9172H5.94759ZM6.21984 51.6227C6.21984 51.6346 6.2258 51.6405 6.2377 51.6405H6.82239C6.98604 51.6375 7.11547 51.584 7.21069 51.4798C7.30591 51.3727 7.355 51.2269 7.35798 51.0424V49.6678C7.35798 49.4833 7.31037 49.3375 7.21515 49.2303C7.11994 49.1232 6.98901 49.0697 6.82239 49.0697H6.2377C6.2258 49.0697 6.21984 49.0756 6.21984 49.0875V51.6227ZM9.85291 51.9172C9.8291 51.9172 9.81274 51.9053 9.80381 51.8815L9.25037 50.5024C9.24739 50.4935 9.24144 50.489 9.23251 50.489H8.65675C8.64485 50.489 8.6389 50.4949 8.6389 50.5068V51.8726C8.6389 51.9024 8.62402 51.9172 8.59427 51.9172H8.36664C8.33689 51.9172 8.32201 51.9024 8.32201 51.8726V48.8376C8.32201 48.8078 8.33689 48.7929 8.36664 48.7929H9.31285C9.46758 48.7929 9.60445 48.8287 9.72347 48.9001C9.84547 48.9715 9.9392 49.0726 10.0047 49.2036C10.0731 49.3345 10.1073 49.4848 10.1073 49.6544C10.1073 49.8567 10.0582 50.0293 9.96003 50.1721C9.86183 50.3149 9.72794 50.4101 9.55833 50.4577C9.54643 50.4637 9.54346 50.4711 9.54941 50.4801L10.1252 51.8637L10.1296 51.8815C10.1296 51.9053 10.1162 51.9172 10.0895 51.9172H9.85291ZM8.65675 49.0697C8.64485 49.0697 8.6389 49.0756 8.6389 49.0875V50.2167C8.6389 50.2286 8.64485 50.2346 8.65675 50.2346H9.27268C9.42741 50.2346 9.55238 50.181 9.6476 50.0739C9.74281 49.9668 9.79042 49.8269 9.79042 49.6544C9.79042 49.4788 9.74281 49.3375 9.6476 49.2303C9.55238 49.1232 9.42741 49.0697 9.27268 49.0697H8.65675ZM10.7247 51.9172C10.6949 51.9172 10.68 51.9024 10.68 51.8726V48.8376C10.68 48.8078 10.6949 48.7929 10.7247 48.7929H10.9523C10.9821 48.7929 10.9969 48.8078 10.9969 48.8376V51.8726C10.9969 51.9024 10.9821 51.9172 10.9523 51.9172H10.7247ZM13.2924 48.8376C13.2924 48.8078 13.3073 48.7929 13.337 48.7929H13.5647C13.5944 48.7929 13.6093 48.8078 13.6093 48.8376V51.8726C13.6093 51.9024 13.5944 51.9172 13.5647 51.9172H13.3237C13.2969 51.9172 13.279 51.9068 13.2701 51.886L12.0739 49.4981C12.068 49.4922 12.062 49.4892 12.0561 49.4892C12.0531 49.4892 12.0516 49.4937 12.0516 49.5026L12.0561 51.8726C12.0561 51.9024 12.0412 51.9172 12.0115 51.9172H11.7838C11.7541 51.9172 11.7392 51.9024 11.7392 51.8726V48.8376C11.7392 48.8078 11.7541 48.7929 11.7838 48.7929H12.0248C12.0516 48.7929 12.0695 48.8034 12.0784 48.8242L13.2746 51.221C13.2805 51.2269 13.285 51.2299 13.2879 51.2299C13.2939 51.2299 13.2969 51.2254 13.2969 51.2165L13.2924 48.8376ZM14.3947 51.9172C14.3649 51.9172 14.35 51.9024 14.35 51.8726V48.8376C14.35 48.8078 14.3649 48.7929 14.3947 48.7929H14.6223C14.652 48.7929 14.6669 48.8078 14.6669 48.8376V50.3194C14.6669 50.3253 14.6699 50.3298 14.6759 50.3328C14.6818 50.3328 14.6863 50.3298 14.6892 50.3239L15.8229 48.8197C15.8348 48.8019 15.8542 48.7929 15.8809 48.7929H16.1309C16.1487 48.7929 16.1606 48.7989 16.1666 48.8108C16.1725 48.8197 16.1696 48.8316 16.1577 48.8465L15.265 50.0694C15.262 50.0784 15.262 50.0873 15.265 50.0962L16.238 51.8637C16.2439 51.8756 16.2469 51.8845 16.2469 51.8905C16.2469 51.9083 16.2335 51.9172 16.2068 51.9172H15.9479C15.9211 51.9172 15.9032 51.9068 15.8943 51.886L15.0463 50.3462C15.0404 50.3313 15.0329 50.3313 15.024 50.3462L14.6759 50.788C14.6699 50.794 14.6669 50.8014 14.6669 50.8103V51.8726C14.6669 51.9024 14.652 51.9172 14.6223 51.9172H14.3947ZM18.9581 50.4354C19.0146 50.5902 19.0429 50.7672 19.0429 50.9666C19.0429 51.1451 19.0206 51.2998 18.976 51.4307C18.8659 51.7789 18.6219 51.9529 18.244 51.9529C18.0417 51.9529 17.872 51.8994 17.7352 51.7923C17.5983 51.6822 17.5105 51.5319 17.4718 51.3415C17.451 51.2463 17.4406 51.1377 17.4406 51.0157C17.4406 50.9859 17.4555 50.971 17.4852 50.971H17.7129C17.7426 50.971 17.7575 50.9859 17.7575 51.0157C17.7634 51.1436 17.7709 51.2299 17.7798 51.2745C17.8066 51.3995 17.8601 51.4977 17.9405 51.5691C18.0208 51.6405 18.122 51.6762 18.244 51.6762C18.4731 51.6762 18.6219 51.5602 18.6903 51.3281C18.7171 51.221 18.7305 51.093 18.7305 50.9442C18.7305 50.7657 18.7111 50.6184 18.6725 50.5024C18.5951 50.2941 18.4523 50.19 18.244 50.19C18.1964 50.19 18.1547 50.1989 18.119 50.2167C18.1012 50.2227 18.0907 50.2257 18.0878 50.2257C18.0759 50.2257 18.0655 50.2197 18.0565 50.2078L17.9405 50.0873C17.9256 50.0665 17.9241 50.0456 17.936 50.0248L18.6323 49.092C18.6382 49.086 18.6397 49.0816 18.6368 49.0786C18.6338 49.0726 18.6293 49.0697 18.6234 49.0697H17.5075C17.4778 49.0697 17.4629 49.0548 17.4629 49.025V48.8376C17.4629 48.8078 17.4778 48.7929 17.5075 48.7929H18.9849C19.0146 48.7929 19.0295 48.8078 19.0295 48.8376V49.0384C19.0295 49.0622 19.0236 49.0816 19.0117 49.0965L18.3645 49.9802C18.3615 49.9832 18.3615 49.9876 18.3645 49.9936C18.3675 49.9995 18.3719 50.0025 18.3779 50.0025C18.5177 50.0084 18.6368 50.0486 18.7349 50.123C18.8331 50.1974 18.9075 50.3015 18.9581 50.4354ZM20.4261 51.9619C20.1702 51.9619 19.9649 51.8845 19.8102 51.7298C19.6555 51.5751 19.5781 51.3683 19.5781 51.1094V49.6008C19.5781 49.3449 19.6555 49.1396 19.8102 48.9849C19.9649 48.8301 20.1702 48.7528 20.4261 48.7528C20.685 48.7528 20.8918 48.8301 21.0465 48.9849C21.2042 49.1396 21.2831 49.3449 21.2831 49.6008V51.1094C21.2831 51.3683 21.2042 51.5751 21.0465 51.7298C20.8918 51.8845 20.685 51.9619 20.4261 51.9619ZM20.4261 51.6851C20.5898 51.6851 20.7207 51.6346 20.8189 51.5334C20.9171 51.4322 20.9662 51.2983 20.9662 51.1317V49.5829C20.9662 49.4163 20.9171 49.2824 20.8189 49.1813C20.7207 49.0801 20.5898 49.0295 20.4261 49.0295C20.2684 49.0295 20.1405 49.0801 20.0423 49.1813C19.9441 49.2824 19.895 49.4163 19.895 49.5829V51.1317C19.895 51.2954 19.9441 51.4293 20.0423 51.5334C20.1405 51.6346 20.2684 51.6851 20.4261 51.6851ZM22.5592 50.0203C22.4431 50.0203 22.336 49.9921 22.2378 49.9355C22.1426 49.879 22.0667 49.8031 22.0102 49.7079C21.9536 49.6097 21.9254 49.5026 21.9254 49.3866C21.9254 49.2705 21.9536 49.1649 22.0102 49.0697C22.0667 48.9715 22.1426 48.8941 22.2378 48.8376C22.336 48.781 22.4431 48.7528 22.5592 48.7528C22.6722 48.7528 22.7764 48.781 22.8716 48.8376C22.9698 48.8941 23.0471 48.9715 23.1037 49.0697C23.1602 49.1649 23.1885 49.2705 23.1885 49.3866C23.1885 49.5026 23.1602 49.6097 23.1037 49.7079C23.0471 49.8031 22.9698 49.879 22.8716 49.9355C22.7764 49.9921 22.6722 50.0203 22.5592 50.0203ZM22.4565 51.9172C22.4416 51.9172 22.4297 51.9128 22.4208 51.9038C22.4149 51.8919 22.4163 51.8786 22.4253 51.8637L24.0856 48.8242C24.0945 48.8034 24.1124 48.7929 24.1392 48.7929H24.282C24.2969 48.7929 24.3073 48.7989 24.3132 48.8108C24.3222 48.8197 24.3222 48.8316 24.3132 48.8465L22.6529 51.886C22.644 51.9068 22.6261 51.9172 22.5993 51.9172H22.4565ZM22.5592 49.824C22.6782 49.824 22.7779 49.7823 22.8582 49.699C22.9415 49.6127 22.9832 49.5086 22.9832 49.3866C22.9832 49.2646 22.9415 49.1619 22.8582 49.0786C22.7779 48.9923 22.6782 48.9492 22.5592 48.9492C22.4401 48.9492 22.339 48.9923 22.2557 49.0786C22.1723 49.1619 22.1307 49.2646 22.1307 49.3866C22.1307 49.5086 22.1723 49.6127 22.2557 49.699C22.339 49.7823 22.4401 49.824 22.5592 49.824ZM24.1972 51.9574C24.0811 51.9574 23.974 51.9291 23.8758 51.8726C23.7806 51.8161 23.7047 51.7387 23.6482 51.6405C23.5917 51.5423 23.5634 51.4352 23.5634 51.3192C23.5634 51.2061 23.5917 51.1019 23.6482 51.0067C23.7047 50.9085 23.7806 50.8312 23.8758 50.7746C23.974 50.7181 24.0811 50.6898 24.1972 50.6898C24.3103 50.6898 24.4144 50.7181 24.5096 50.7746C24.6078 50.8312 24.6852 50.9085 24.7417 51.0067C24.7982 51.1019 24.8265 51.2061 24.8265 51.3192C24.8265 51.4352 24.7982 51.5423 24.7417 51.6405C24.6852 51.7387 24.6078 51.8161 24.5096 51.8726C24.4144 51.9291 24.3103 51.9574 24.1972 51.9574ZM24.1972 51.761C24.3162 51.761 24.4159 51.7179 24.4962 51.6316C24.5795 51.5453 24.6212 51.4412 24.6212 51.3192C24.6212 51.1972 24.5795 51.0945 24.4962 51.0112C24.4159 50.9279 24.3162 50.8862 24.1972 50.8862C24.0782 50.8862 23.977 50.9279 23.8937 51.0112C23.8104 51.0945 23.7687 51.1972 23.7687 51.3192C23.7687 51.4441 23.8089 51.5498 23.8892 51.6361C23.9725 51.7194 24.0752 51.761 24.1972 51.761Z" fill="#404040"/>
<path d="M1.63578 8.15619C1.365 8.15619 1.1463 8.07734 0.979676 7.91964C0.816023 7.76193 0.734196 7.55216 0.734196 7.29032V5.82636C0.734196 5.56452 0.816023 5.35475 0.979676 5.19704C1.1463 5.03934 1.365 4.96049 1.63578 4.96049C1.81431 4.96049 1.97052 4.9962 2.10442 5.06761C2.24129 5.13902 2.34692 5.2387 2.42131 5.36665C2.49867 5.49459 2.53736 5.64188 2.53736 5.80851V5.93348C2.53736 5.96324 2.52248 5.97812 2.49272 5.97812H2.2651C2.23534 5.97812 2.22046 5.96324 2.22046 5.93348V5.80851C2.22046 5.63891 2.16691 5.50203 2.05979 5.39789C1.95267 5.29077 1.81133 5.23721 1.63578 5.23721C1.46022 5.23721 1.31888 5.29077 1.21177 5.39789C1.10465 5.50203 1.05109 5.64188 1.05109 5.81744V7.29924C1.05109 7.47182 1.10465 7.61167 1.21177 7.71879C1.32186 7.82591 1.46468 7.87947 1.64024 7.87947C1.81579 7.87947 1.95564 7.82888 2.05979 7.72772C2.16691 7.62655 2.22046 7.48968 2.22046 7.3171V6.8306C2.22046 6.8187 2.21451 6.81275 2.20261 6.81275H1.68041C1.65065 6.81275 1.63578 6.79787 1.63578 6.76811V6.58066C1.63578 6.5509 1.65065 6.53602 1.68041 6.53602H2.49272C2.52248 6.53602 2.53736 6.5509 2.53736 6.58066V7.27693C2.53736 7.5477 2.45553 7.76193 2.29188 7.91964C2.12822 8.07734 1.90952 8.15619 1.63578 8.15619ZM4.72537 8.12048C4.70156 8.12048 4.6852 8.10858 4.67627 8.08478L4.12283 6.70563C4.11985 6.6967 4.1139 6.69224 4.10497 6.69224H3.52921C3.51731 6.69224 3.51136 6.69819 3.51136 6.71009V8.07585C3.51136 8.10561 3.49648 8.12048 3.46673 8.12048H3.2391C3.20935 8.12048 3.19447 8.10561 3.19447 8.07585V5.04083C3.19447 5.01107 3.20935 4.9962 3.2391 4.9962H4.18531C4.34004 4.9962 4.47691 5.0319 4.59593 5.10332C4.71793 5.17473 4.81166 5.27589 4.87712 5.40682C4.94556 5.53774 4.97977 5.688 4.97977 5.85761C4.97977 6.05994 4.93068 6.23252 4.83249 6.37535C4.73429 6.51817 4.6004 6.61339 4.43079 6.661C4.41889 6.66695 4.41591 6.67439 4.42187 6.68331L4.99763 8.06692L5.00209 8.08478C5.00209 8.10858 4.9887 8.12048 4.96192 8.12048H4.72537ZM3.52921 5.27292C3.51731 5.27292 3.51136 5.27887 3.51136 5.29077V6.41998C3.51136 6.43188 3.51731 6.43783 3.52921 6.43783H4.14514C4.29987 6.43783 4.42484 6.38427 4.52006 6.27715C4.61527 6.17004 4.66288 6.03019 4.66288 5.85761C4.66288 5.68205 4.61527 5.54072 4.52006 5.4336C4.42484 5.32648 4.29987 5.27292 4.14514 5.27292H3.52921ZM7.17887 8.12048C7.15209 8.12048 7.13573 8.10709 7.12978 8.08031L6.98249 7.52241C6.97952 7.51348 6.97208 7.50902 6.96017 7.50902H5.89345C5.88155 7.50902 5.87411 7.51348 5.87114 7.52241L5.72385 8.08031C5.7179 8.10709 5.70153 8.12048 5.67475 8.12048H5.44266C5.42779 8.12048 5.41588 8.11602 5.40696 8.10709C5.40101 8.09817 5.39952 8.08627 5.40249 8.07139L6.23713 5.03637C6.24308 5.00959 6.25944 4.9962 6.28622 4.9962H6.57187C6.59865 4.9962 6.61501 5.00959 6.62097 5.03637L7.4556 8.07139L7.46006 8.08478C7.46006 8.10858 7.44518 8.12048 7.41543 8.12048H7.17887ZM5.94701 7.23229C5.94404 7.23527 5.94404 7.23973 5.94701 7.24568C5.95296 7.24866 5.95891 7.25015 5.96487 7.25015H6.88876C6.89471 7.25015 6.89918 7.24866 6.90215 7.24568C6.9081 7.23973 6.90959 7.23527 6.90662 7.23229L6.43351 5.43806C6.43053 5.43211 6.42756 5.42913 6.42458 5.42913C6.42161 5.42913 6.41863 5.43211 6.41566 5.43806L5.94701 7.23229ZM8.91425 4.99173C9.15229 4.99173 9.34421 5.07207 9.49001 5.23275C9.63878 5.39045 9.71317 5.60023 9.71317 5.86207C9.71317 6.12094 9.63878 6.32923 9.49001 6.48693C9.34421 6.64165 9.15229 6.71902 8.91425 6.71902H8.24922C8.23732 6.71902 8.23137 6.72497 8.23137 6.73687V8.07585C8.23137 8.10561 8.21649 8.12048 8.18674 8.12048H7.95911C7.92935 8.12048 7.91448 8.10561 7.91448 8.07585V5.03637C7.91448 5.00661 7.92935 4.99173 7.95911 4.99173H8.91425ZM8.87408 6.45568C9.03178 6.45568 9.15824 6.40213 9.25346 6.29501C9.34867 6.18789 9.39628 6.04506 9.39628 5.86653C9.39628 5.68503 9.34867 5.54072 9.25346 5.4336C9.15824 5.3235 9.03178 5.26846 8.87408 5.26846H8.24922C8.23732 5.26846 8.23137 5.27441 8.23137 5.28631V6.43783C8.23137 6.44973 8.23732 6.45568 8.24922 6.45568H8.87408ZM11.9564 5.22829C11.9564 5.25804 11.9415 5.27292 11.9118 5.27292H10.5728C10.5609 5.27292 10.555 5.27887 10.555 5.29077V6.39766C10.555 6.40956 10.5609 6.41552 10.5728 6.41552H11.4744C11.5041 6.41552 11.519 6.43039 11.519 6.46015V6.64761C11.519 6.67736 11.5041 6.69224 11.4744 6.69224H10.5728C10.5609 6.69224 10.555 6.69819 10.555 6.71009V7.82591C10.555 7.83781 10.5609 7.84376 10.5728 7.84376H11.9118C11.9415 7.84376 11.9564 7.85864 11.9564 7.88839V8.07585C11.9564 8.10561 11.9415 8.12048 11.9118 8.12048H10.2827C10.2529 8.12048 10.2381 8.10561 10.2381 8.07585V5.04083C10.2381 5.01107 10.2529 4.9962 10.2827 4.9962H11.9118C11.9415 4.9962 11.9564 5.01107 11.9564 5.04083V5.22829ZM14.2577 5.22829C14.2577 5.25804 14.2428 5.27292 14.2131 5.27292H12.8785C12.8666 5.27292 12.8607 5.27887 12.8607 5.29077V6.39766C12.8607 6.40956 12.8666 6.41552 12.8785 6.41552H13.7757C13.8054 6.41552 13.8203 6.43039 13.8203 6.46015V6.64761C13.8203 6.67736 13.8054 6.69224 13.7757 6.69224H12.8785C12.8666 6.69224 12.8607 6.69819 12.8607 6.71009V8.07585C12.8607 8.10561 12.8458 8.12048 12.816 8.12048H12.5884C12.5587 8.12048 12.5438 8.10561 12.5438 8.07585V5.04083C12.5438 5.01107 12.5587 4.9962 12.5884 4.9962H14.2131C14.2428 4.9962 14.2577 5.01107 14.2577 5.04083V5.22829ZM16.2453 8.12048C16.2215 8.12048 16.2051 8.10858 16.1962 8.08478L15.6428 6.70563C15.6398 6.6967 15.6338 6.69224 15.6249 6.69224H15.0491C15.0372 6.69224 15.0313 6.69819 15.0313 6.71009V8.07585C15.0313 8.10561 15.0164 8.12048 14.9867 8.12048H14.759C14.7293 8.12048 14.7144 8.10561 14.7144 8.07585V5.04083C14.7144 5.01107 14.7293 4.9962 14.759 4.9962H15.7052C15.86 4.9962 15.9968 5.0319 16.1159 5.10332C16.2379 5.17473 16.3316 5.27589 16.3971 5.40682C16.4655 5.53774 16.4997 5.688 16.4997 5.85761C16.4997 6.05994 16.4506 6.23252 16.3524 6.37535C16.2542 6.51817 16.1203 6.61339 15.9507 6.661C15.9388 6.66695 15.9358 6.67439 15.9418 6.68331L16.5176 8.06692L16.522 8.08478C16.522 8.10858 16.5086 8.12048 16.4819 8.12048H16.2453ZM15.0491 5.27292C15.0372 5.27292 15.0313 5.27887 15.0313 5.29077V6.41998C15.0313 6.43188 15.0372 6.43783 15.0491 6.43783H15.6651C15.8198 6.43783 15.9448 6.38427 16.04 6.27715C16.1352 6.17004 16.1828 6.03019 16.1828 5.85761C16.1828 5.68205 16.1352 5.54072 16.04 5.4336C15.9448 5.32648 15.8198 5.27292 15.6651 5.27292H15.0491ZM17.9562 8.15619C17.7747 8.15619 17.614 8.11751 17.4741 8.04014C17.3373 7.96278 17.2301 7.85418 17.1528 7.71433C17.0784 7.57448 17.0412 7.41231 17.0412 7.22783V5.04083C17.0412 5.01107 17.0561 4.9962 17.0858 4.9962H17.3135C17.3432 4.9962 17.3581 5.01107 17.3581 5.04083V7.24568C17.3581 7.43612 17.4131 7.58935 17.5232 7.7054C17.6333 7.82144 17.7776 7.87947 17.9562 7.87947C18.1347 7.87947 18.279 7.82144 18.3891 7.7054C18.4992 7.58935 18.5542 7.43612 18.5542 7.24568V5.04083C18.5542 5.01107 18.5691 4.9962 18.5989 4.9962H18.8265C18.8563 4.9962 18.8711 5.01107 18.8711 5.04083V7.22783C18.8711 7.41231 18.8325 7.57448 18.7551 7.71433C18.6807 7.85418 18.5736 7.96278 18.4337 8.04014C18.2969 8.11751 18.1377 8.15619 17.9562 8.15619ZM19.6233 8.12048C19.5935 8.12048 19.5787 8.10561 19.5787 8.07585V5.04083C19.5787 5.01107 19.5935 4.9962 19.6233 4.9962H19.8509C19.8807 4.9962 19.8956 5.01107 19.8956 5.04083V8.07585C19.8956 8.10561 19.8807 8.12048 19.8509 8.12048H19.6233ZM22.2624 4.9962C22.2922 4.9962 22.3071 5.01107 22.3071 5.04083V5.22829C22.3071 5.25804 22.2922 5.27292 22.2624 5.27292H21.5349C21.523 5.27292 21.5171 5.27887 21.5171 5.29077V8.07585C21.5171 8.10561 21.5022 8.12048 21.4725 8.12048H21.2448C21.2151 8.12048 21.2002 8.10561 21.2002 8.07585V5.29077C21.2002 5.27887 21.1942 5.27292 21.1823 5.27292H20.4816C20.4519 5.27292 20.437 5.25804 20.437 5.22829V5.04083C20.437 5.01107 20.4519 4.9962 20.4816 4.9962H22.2624ZM23.9955 7.82144C23.9866 7.83632 23.9895 7.84376 24.0044 7.84376H25.2318C25.2616 7.84376 25.2764 7.85864 25.2764 7.88839V8.07585C25.2764 8.10561 25.2616 8.12048 25.2318 8.12048H23.6429C23.6131 8.12048 23.5983 8.10561 23.5983 8.07585V7.87947C23.5983 7.86161 23.6042 7.84227 23.6161 7.82144C23.8839 7.45843 24.1829 7.04186 24.5132 6.57173C24.7483 6.22955 24.8658 5.9558 24.8658 5.75049C24.8658 5.59576 24.8212 5.47228 24.7319 5.38004C24.6427 5.28482 24.5251 5.23721 24.3793 5.23721C24.2365 5.23721 24.1219 5.28482 24.0357 5.38004C23.9494 5.47228 23.9077 5.59576 23.9107 5.75049V5.90224C23.9107 5.932 23.8958 5.94687 23.8661 5.94687H23.634C23.6042 5.94687 23.5893 5.932 23.5893 5.90224V5.72371C23.5953 5.49459 23.6712 5.31011 23.817 5.17026C23.9657 5.03042 24.1562 4.96049 24.3883 4.96049C24.6263 4.96049 24.8182 5.03339 24.964 5.17919C25.1098 5.32499 25.1827 5.51542 25.1827 5.75049C25.1827 6.01233 25.0607 6.32179 24.8167 6.67885C24.665 6.89904 24.4254 7.23229 24.0981 7.67862L23.9955 7.82144ZM26.5875 8.16512C26.3316 8.16512 26.1263 8.08775 25.9716 7.93303C25.8169 7.7783 25.7395 7.5715 25.7395 7.31263V5.80405C25.7395 5.54815 25.8169 5.34284 25.9716 5.18812C26.1263 5.03339 26.3316 4.95603 26.5875 4.95603C26.8464 4.95603 27.0532 5.03339 27.2079 5.18812C27.3656 5.34284 27.4445 5.54815 27.4445 5.80405V7.31263C27.4445 7.5715 27.3656 7.7783 27.2079 7.93303C27.0532 8.08775 26.8464 8.16512 26.5875 8.16512ZM26.5875 7.88839C26.7512 7.88839 26.8821 7.83781 26.9803 7.73664C27.0785 7.63548 27.1276 7.50158 27.1276 7.33495V5.7862C27.1276 5.61957 27.0785 5.48567 26.9803 5.3845C26.8821 5.28333 26.7512 5.23275 26.5875 5.23275C26.4298 5.23275 26.3019 5.28333 26.2037 5.3845C26.1055 5.48567 26.0564 5.61957 26.0564 5.7862V7.33495C26.0564 7.4986 26.1055 7.6325 26.2037 7.73664C26.3019 7.83781 26.4298 7.88839 26.5875 7.88839ZM28.7206 6.2236C28.6045 6.2236 28.4974 6.19533 28.3992 6.13879C28.304 6.08226 28.2281 6.00638 28.1716 5.91117C28.115 5.81297 28.0868 5.70586 28.0868 5.58981C28.0868 5.47377 28.115 5.36814 28.1716 5.27292C28.2281 5.17473 28.304 5.09736 28.3992 5.04083C28.4974 4.98429 28.6045 4.95603 28.7206 4.95603C28.8336 4.95603 28.9378 4.98429 29.033 5.04083C29.1312 5.09736 29.2085 5.17473 29.2651 5.27292C29.3216 5.36814 29.3499 5.47377 29.3499 5.58981C29.3499 5.70586 29.3216 5.81297 29.2651 5.91117C29.2085 6.00638 29.1312 6.08226 29.033 6.13879C28.9378 6.19533 28.8336 6.2236 28.7206 6.2236ZM28.6179 8.12048C28.603 8.12048 28.5911 8.11602 28.5822 8.10709C28.5762 8.09519 28.5777 8.0818 28.5867 8.06692L30.247 5.02744C30.2559 5.00661 30.2738 4.9962 30.3005 4.9962H30.4434C30.4582 4.9962 30.4687 5.00215 30.4746 5.01405C30.4835 5.02298 30.4835 5.03488 30.4746 5.04976L28.8143 8.08924C28.8054 8.11007 28.7875 8.12048 28.7607 8.12048H28.6179ZM28.7206 6.02721C28.8396 6.02721 28.9393 5.98555 29.0196 5.90224C29.1029 5.81595 29.1446 5.71181 29.1446 5.58981C29.1446 5.46782 29.1029 5.36516 29.0196 5.28185C28.9393 5.19556 28.8396 5.15241 28.7206 5.15241C28.6015 5.15241 28.5004 5.19556 28.417 5.28185C28.3337 5.36516 28.2921 5.46782 28.2921 5.58981C28.2921 5.71181 28.3337 5.81595 28.417 5.90224C28.5004 5.98555 28.6015 6.02721 28.7206 6.02721ZM30.3586 8.16065C30.2425 8.16065 30.1354 8.13239 30.0372 8.07585C29.942 8.01932 29.8661 7.94195 29.8096 7.84376C29.7531 7.74557 29.7248 7.63845 29.7248 7.52241C29.7248 7.40934 29.7531 7.30519 29.8096 7.20998C29.8661 7.11179 29.942 7.03442 30.0372 6.97789C30.1354 6.92135 30.2425 6.89309 30.3586 6.89309C30.4716 6.89309 30.5758 6.92135 30.671 6.97789C30.7692 7.03442 30.8466 7.11179 30.9031 7.20998C30.9596 7.30519 30.9879 7.40934 30.9879 7.52241C30.9879 7.63845 30.9596 7.74557 30.9031 7.84376C30.8466 7.94195 30.7692 8.01932 30.671 8.07585C30.5758 8.13239 30.4716 8.16065 30.3586 8.16065ZM30.3586 7.96427C30.4776 7.96427 30.5773 7.92112 30.6576 7.83483C30.7409 7.74854 30.7826 7.6444 30.7826 7.52241C30.7826 7.40041 30.7409 7.29775 30.6576 7.21444C30.5773 7.13113 30.4776 7.08947 30.3586 7.08947C30.2395 7.08947 30.1384 7.13113 30.0551 7.21444C29.9718 7.29775 29.9301 7.40041 29.9301 7.52241C29.9301 7.64738 29.9703 7.75301 30.0506 7.8393C30.1339 7.92261 30.2366 7.96427 30.3586 7.96427Z" fill="#404040"/>
<path d="M61.8715 8.8457C61.8417 8.8457 61.8268 8.83083 61.8268 8.80107V5.76605C61.8268 5.73629 61.8417 5.72142 61.8715 5.72142H62.0991C62.1289 5.72142 62.1437 5.73629 62.1437 5.76605V7.24785C62.1437 7.2538 62.1467 7.25827 62.1527 7.26124C62.1586 7.26124 62.1631 7.25827 62.166 7.25232L63.2997 5.7482C63.3116 5.73034 63.331 5.72142 63.3577 5.72142H63.6077C63.6255 5.72142 63.6374 5.72737 63.6434 5.73927C63.6493 5.7482 63.6464 5.7601 63.6345 5.77498L62.7418 6.99791C62.7388 7.00684 62.7388 7.01576 62.7418 7.02469L63.7148 8.79214C63.7208 8.80405 63.7237 8.81297 63.7237 8.81892C63.7237 8.83678 63.7103 8.8457 63.6836 8.8457H63.4247C63.3979 8.8457 63.3801 8.83529 63.3711 8.81446L62.5231 7.27463C62.5172 7.25976 62.5097 7.25976 62.5008 7.27463L62.1527 7.7165C62.1467 7.72245 62.1437 7.72989 62.1437 7.73881V8.80107C62.1437 8.83083 62.1289 8.8457 62.0991 8.8457H61.8715ZM64.2426 8.8457C64.2128 8.8457 64.198 8.83083 64.198 8.80107V5.76605C64.198 5.73629 64.2128 5.72142 64.2426 5.72142H64.4702C64.5 5.72142 64.5148 5.73629 64.5148 5.76605V8.80107C64.5148 8.83083 64.5 8.8457 64.4702 8.8457H64.2426ZM65.7838 8.8457C65.757 8.8457 65.7406 8.83231 65.7347 8.80553L65.0161 5.77051L65.0116 5.75266C65.0116 5.73183 65.025 5.72142 65.0518 5.72142H65.2928C65.3196 5.72142 65.336 5.73481 65.3419 5.76159L65.8864 8.15836C65.8894 8.16729 65.8924 8.17175 65.8954 8.17175C65.9013 8.17175 65.9058 8.16729 65.9087 8.15836L66.4042 5.76159C66.4101 5.73481 66.4265 5.72142 66.4533 5.72142H66.6764C66.7062 5.72142 66.7225 5.73481 66.7255 5.76159L67.2388 8.15836C67.2418 8.16729 67.2447 8.17175 67.2477 8.17175C67.2507 8.17175 67.2537 8.16729 67.2566 8.15836L67.7878 5.76159C67.7937 5.73481 67.8101 5.72142 67.8369 5.72142H68.069C68.0987 5.72142 68.1106 5.73778 68.1047 5.77051L67.4084 8.80553C67.4024 8.83231 67.3861 8.8457 67.3593 8.8457H67.1317C67.1049 8.8457 67.0885 8.83231 67.0826 8.80553L66.5738 6.37305C66.5708 6.36413 66.5678 6.35966 66.5648 6.35966C66.5619 6.35966 66.5589 6.36413 66.5559 6.37305L66.0516 8.80553C66.0486 8.83231 66.0322 8.8457 66.0025 8.8457H65.7838ZM68.6535 8.8457C68.6238 8.8457 68.6089 8.83083 68.6089 8.80107V5.76605C68.6089 5.73629 68.6238 5.72142 68.6535 5.72142H68.8812C68.9109 5.72142 68.9258 5.73629 68.9258 5.76605V8.80107C68.9258 8.83083 68.9109 8.8457 68.8812 8.8457H68.6535ZM62.5811 13.8814C62.3014 13.8814 62.0783 13.8085 61.9116 13.6627C61.748 13.5139 61.6662 13.3161 61.6662 13.0691V12.9486C61.6662 12.9188 61.681 12.904 61.7108 12.904H61.9295C61.9593 12.904 61.9741 12.9188 61.9741 12.9486V13.0512C61.9741 13.2179 62.0307 13.3518 62.1437 13.4529C62.2568 13.5541 62.4071 13.6047 62.5945 13.6047C62.7701 13.6047 62.9084 13.5571 63.0096 13.4619C63.1108 13.3666 63.1614 13.2417 63.1614 13.0869C63.1614 12.9858 63.1376 12.898 63.0899 12.8236C63.0423 12.7492 62.9724 12.6808 62.8802 12.6183C62.7879 12.5558 62.6555 12.477 62.4829 12.3818C62.2985 12.2836 62.1527 12.1973 62.0455 12.1229C61.9414 12.0485 61.8566 11.9577 61.7911 11.8506C61.7257 11.7435 61.6929 11.6126 61.6929 11.4579C61.6929 11.2168 61.7703 11.0279 61.925 10.891C62.0798 10.7541 62.2866 10.6857 62.5454 10.6857C62.8221 10.6857 63.0423 10.7616 63.206 10.9133C63.3696 11.0651 63.4515 11.2659 63.4515 11.5159V11.6185C63.4515 11.6483 63.4366 11.6632 63.4068 11.6632H63.1837C63.1539 11.6632 63.139 11.6483 63.139 11.6185V11.5203C63.139 11.3537 63.0855 11.2198 62.9784 11.1186C62.8712 11.0145 62.724 10.9624 62.5365 10.9624C62.3699 10.9624 62.2389 11.0056 62.1437 11.0919C62.0515 11.1782 62.0054 11.3002 62.0054 11.4579C62.0054 11.559 62.0277 11.6438 62.0723 11.7123C62.117 11.7807 62.1809 11.8432 62.2642 11.8997C62.3505 11.9563 62.4815 12.0321 62.657 12.1273C62.8593 12.2404 63.0141 12.3371 63.1212 12.4175C63.2313 12.4948 63.3176 12.5856 63.3801 12.6897C63.4455 12.7909 63.4783 12.9159 63.4783 13.0646C63.4783 13.3146 63.3979 13.5139 63.2372 13.6627C63.0766 13.8085 62.8579 13.8814 62.5811 13.8814ZM65.7501 10.7527C65.7649 10.7318 65.7828 10.7214 65.8036 10.7214H66.0357C66.0655 10.7214 66.0803 10.7363 66.0803 10.766V13.8011C66.0803 13.8308 66.0655 13.8457 66.0357 13.8457H65.8081C65.7783 13.8457 65.7634 13.8308 65.7634 13.8011V11.3731C65.7634 11.3641 65.7605 11.3582 65.7545 11.3552C65.7486 11.3522 65.7441 11.3552 65.7411 11.3641L65.1475 12.3951C65.1326 12.416 65.1148 12.4264 65.094 12.4264H65.0449C65.024 12.4264 65.0062 12.416 64.9913 12.3951L64.3932 11.3686C64.3902 11.3597 64.3858 11.3567 64.3798 11.3597C64.3739 11.3626 64.3709 11.3686 64.3709 11.3775V13.8011C64.3709 13.8308 64.356 13.8457 64.3263 13.8457H64.0986C64.0689 13.8457 64.054 13.8308 64.054 13.8011V10.766C64.054 10.7363 64.0689 10.7214 64.0986 10.7214H64.3307C64.3516 10.7214 64.3694 10.7318 64.3843 10.7527L65.0582 11.8997C65.0612 11.9027 65.0657 11.9042 65.0716 11.9042C65.0776 11.9042 65.0821 11.9027 65.085 11.8997L65.7501 10.7527ZM67.6477 13.8814C67.4662 13.8814 67.3055 13.8442 67.1656 13.7698C67.0288 13.6925 66.9216 13.5853 66.8443 13.4485C66.7699 13.3116 66.7327 13.1539 66.7327 12.9754V11.5962C66.7327 11.4177 66.7699 11.26 66.8443 11.1231C66.9216 10.9833 67.0288 10.8761 67.1656 10.8018C67.3055 10.7244 67.4662 10.6857 67.6477 10.6857C67.8292 10.6857 67.9884 10.7244 68.1252 10.8018C68.2651 10.8761 68.3737 10.9833 68.4511 11.1231C68.5284 11.26 68.5671 11.4177 68.5671 11.5962V12.9754C68.5671 13.1539 68.5284 13.3116 68.4511 13.4485C68.3737 13.5853 68.2651 13.6925 68.1252 13.7698C67.9884 13.8442 67.8292 13.8814 67.6477 13.8814ZM67.6477 13.6047C67.8292 13.6047 67.975 13.5482 68.0851 13.4351C68.1952 13.322 68.2502 13.1732 68.2502 12.9888V11.5873C68.2502 11.3998 68.1952 11.2496 68.0851 11.1365C67.975 11.0205 67.8292 10.9624 67.6477 10.9624C67.4691 10.9624 67.3248 11.0205 67.2147 11.1365C67.1046 11.2496 67.0496 11.3998 67.0496 11.5873V12.9888C67.0496 13.1732 67.1046 13.322 67.2147 13.4351C67.3248 13.5482 67.4691 13.6047 67.6477 13.6047ZM70.0537 13.8814C69.8721 13.8814 69.7115 13.8442 69.5716 13.7698C69.4347 13.6925 69.3276 13.5853 69.2503 13.4485C69.1759 13.3116 69.1387 13.1539 69.1387 12.9754V11.5962C69.1387 11.4177 69.1759 11.26 69.2503 11.1231C69.3276 10.9833 69.4347 10.8761 69.5716 10.8018C69.7115 10.7244 69.8721 10.6857 70.0537 10.6857C70.2352 10.6857 70.3943 10.7244 70.5312 10.8018C70.6711 10.8761 70.7797 10.9833 70.857 11.1231C70.9344 11.26 70.9731 11.4177 70.9731 11.5962V12.9754C70.9731 13.1539 70.9344 13.3116 70.857 13.4485C70.7797 13.5853 70.6711 13.6925 70.5312 13.7698C70.3943 13.8442 70.2352 13.8814 70.0537 13.8814ZM70.0537 13.6047C70.2352 13.6047 70.381 13.5482 70.4911 13.4351C70.6011 13.322 70.6562 13.1732 70.6562 12.9888V11.5873C70.6562 11.3998 70.6011 11.2496 70.4911 11.1365C70.381 11.0205 70.2352 10.9624 70.0537 10.9624C69.8751 10.9624 69.7308 11.0205 69.6207 11.1365C69.5106 11.2496 69.4556 11.3998 69.4556 11.5873V12.9888C69.4556 13.1732 69.5106 13.322 69.6207 13.4351C69.7308 13.5482 69.8751 13.6047 70.0537 13.6047ZM73.2367 10.7214C73.2664 10.7214 73.2813 10.7363 73.2813 10.766V10.9535C73.2813 10.9833 73.2664 10.9981 73.2367 10.9981H72.5091C72.4972 10.9981 72.4913 11.0041 72.4913 11.016V13.8011C72.4913 13.8308 72.4764 13.8457 72.4467 13.8457H72.219C72.1893 13.8457 72.1744 13.8308 72.1744 13.8011V11.016C72.1744 11.0041 72.1685 10.9981 72.1565 10.9981H71.4558C71.4261 10.9981 71.4112 10.9833 71.4112 10.9535V10.766C71.4112 10.7363 71.4261 10.7214 71.4558 10.7214H73.2367ZM75.2857 10.766C75.2857 10.7363 75.3006 10.7214 75.3303 10.7214H75.558C75.5877 10.7214 75.6026 10.7363 75.6026 10.766V13.8011C75.6026 13.8308 75.5877 13.8457 75.558 13.8457H75.3303C75.3006 13.8457 75.2857 13.8308 75.2857 13.8011V12.4353C75.2857 12.4234 75.2798 12.4175 75.2679 12.4175H74.161C74.1491 12.4175 74.1431 12.4234 74.1431 12.4353V13.8011C74.1431 13.8308 74.1282 13.8457 74.0985 13.8457H73.8709C73.8411 13.8457 73.8262 13.8308 73.8262 13.8011V10.766C73.8262 10.7363 73.8411 10.7214 73.8709 10.7214H74.0985C74.1282 10.7214 74.1431 10.7363 74.1431 10.766V12.1229C74.1431 12.1348 74.1491 12.1407 74.161 12.1407H75.2679C75.2798 12.1407 75.2857 12.1348 75.2857 12.1229V10.766ZM76.3858 13.8457C76.3561 13.8457 76.3412 13.8308 76.3412 13.8011V10.766C76.3412 10.7363 76.3561 10.7214 76.3858 10.7214H76.6134C76.6432 10.7214 76.6581 10.7363 76.6581 10.766V13.8011C76.6581 13.8308 76.6432 13.8457 76.6134 13.8457H76.3858ZM79.1187 10.9535C79.1187 10.9833 79.1038 10.9981 79.0741 10.9981H77.7351C77.7232 10.9981 77.7172 11.0041 77.7172 11.016V12.1229C77.7172 12.1348 77.7232 12.1407 77.7351 12.1407H78.6367C78.6664 12.1407 78.6813 12.1556 78.6813 12.1854V12.3728C78.6813 12.4026 78.6664 12.4175 78.6367 12.4175H77.7351C77.7232 12.4175 77.7172 12.4234 77.7172 12.4353V13.5511C77.7172 13.563 77.7232 13.569 77.7351 13.569H79.0741C79.1038 13.569 79.1187 13.5839 79.1187 13.6136V13.8011C79.1187 13.8308 79.1038 13.8457 79.0741 13.8457H77.445C77.4152 13.8457 77.4003 13.8308 77.4003 13.8011V10.766C77.4003 10.7363 77.4152 10.7214 77.445 10.7214H79.0741C79.1038 10.7214 79.1187 10.7363 79.1187 10.766V10.9535ZM80.8495 13.5467C80.8406 13.5615 80.8436 13.569 80.8585 13.569H82.0859C82.1156 13.569 82.1305 13.5839 82.1305 13.6136V13.8011C82.1305 13.8308 82.1156 13.8457 82.0859 13.8457H80.4969C80.4672 13.8457 80.4523 13.8308 80.4523 13.8011V13.6047C80.4523 13.5868 80.4582 13.5675 80.4701 13.5467C80.7379 13.1837 81.037 12.7671 81.3673 12.2969C81.6023 11.9548 81.7199 11.681 81.7199 11.4757C81.7199 11.321 81.6752 11.1975 81.586 11.1053C81.4967 11.01 81.3792 10.9624 81.2334 10.9624C81.0905 10.9624 80.976 11.01 80.8897 11.1053C80.8034 11.1975 80.7618 11.321 80.7647 11.4757V11.6275C80.7647 11.6572 80.7498 11.6721 80.7201 11.6721H80.488C80.4582 11.6721 80.4434 11.6572 80.4434 11.6275V11.4489C80.4493 11.2198 80.5252 11.0353 80.671 10.8955C80.8198 10.7556 81.0102 10.6857 81.2423 10.6857C81.4803 10.6857 81.6723 10.7586 81.8181 10.9044C81.9639 11.0502 82.0368 11.2406 82.0368 11.4757C82.0368 11.7376 81.9148 12.047 81.6708 12.4041C81.519 12.6243 81.2795 12.9575 80.9522 13.4038L80.8495 13.5467ZM83.4416 13.8903C83.1857 13.8903 82.9804 13.813 82.8256 13.6582C82.6709 13.5035 82.5935 13.2967 82.5935 13.0379V11.5293C82.5935 11.2734 82.6709 11.0681 82.8256 10.9133C82.9804 10.7586 83.1857 10.6812 83.4416 10.6812C83.7004 10.6812 83.9072 10.7586 84.062 10.9133C84.2197 11.0681 84.2985 11.2734 84.2985 11.5293V13.0379C84.2985 13.2967 84.2197 13.5035 84.062 13.6582C83.9072 13.813 83.7004 13.8903 83.4416 13.8903ZM83.4416 13.6136C83.6052 13.6136 83.7361 13.563 83.8343 13.4619C83.9325 13.3607 83.9816 13.2268 83.9816 13.0602V11.5114C83.9816 11.3448 83.9325 11.2109 83.8343 11.1097C83.7361 11.0086 83.6052 10.958 83.4416 10.958C83.2839 10.958 83.1559 11.0086 83.0577 11.1097C82.9595 11.2109 82.9104 11.3448 82.9104 11.5114V13.0602C82.9104 13.2238 82.9595 13.3577 83.0577 13.4619C83.1559 13.563 83.2839 13.6136 83.4416 13.6136ZM85.5746 11.9488C85.4585 11.9488 85.3514 11.9205 85.2532 11.864C85.158 11.8075 85.0821 11.7316 85.0256 11.6364C84.9691 11.5382 84.9408 11.4311 84.9408 11.315C84.9408 11.199 84.9691 11.0934 85.0256 10.9981C85.0821 10.8999 85.158 10.8226 85.2532 10.766C85.3514 10.7095 85.4585 10.6812 85.5746 10.6812C85.6877 10.6812 85.7918 10.7095 85.887 10.766C85.9852 10.8226 86.0626 10.8999 86.1191 10.9981C86.1756 11.0934 86.2039 11.199 86.2039 11.315C86.2039 11.4311 86.1756 11.5382 86.1191 11.6364C86.0626 11.7316 85.9852 11.8075 85.887 11.864C85.7918 11.9205 85.6877 11.9488 85.5746 11.9488ZM85.4719 13.8457C85.4571 13.8457 85.4452 13.8412 85.4362 13.8323C85.4303 13.8204 85.4318 13.807 85.4407 13.7921L87.101 10.7527C87.11 10.7318 87.1278 10.7214 87.1546 10.7214H87.2974C87.3123 10.7214 87.3227 10.7274 87.3287 10.7393C87.3376 10.7482 87.3376 10.7601 87.3287 10.775L85.6683 13.8145C85.6594 13.8353 85.6415 13.8457 85.6148 13.8457H85.4719ZM85.5746 11.7524C85.6936 11.7524 85.7933 11.7108 85.8736 11.6275C85.9569 11.5412 85.9986 11.437 85.9986 11.315C85.9986 11.193 85.9569 11.0904 85.8736 11.0071C85.7933 10.9208 85.6936 10.8776 85.5746 10.8776C85.4556 10.8776 85.3544 10.9208 85.2711 11.0071C85.1878 11.0904 85.1461 11.193 85.1461 11.315C85.1461 11.437 85.1878 11.5412 85.2711 11.6275C85.3544 11.7108 85.4556 11.7524 85.5746 11.7524ZM87.2126 13.8859C87.0966 13.8859 86.9894 13.8576 86.8913 13.8011C86.796 13.7445 86.7202 13.6672 86.6636 13.569C86.6071 13.4708 86.5788 13.3637 86.5788 13.2476C86.5788 13.1346 86.6071 13.0304 86.6636 12.9352C86.7202 12.837 86.796 12.7596 86.8913 12.7031C86.9894 12.6466 87.0966 12.6183 87.2126 12.6183C87.3257 12.6183 87.4298 12.6466 87.525 12.7031C87.6232 12.7596 87.7006 12.837 87.7571 12.9352C87.8137 13.0304 87.8419 13.1346 87.8419 13.2476C87.8419 13.3637 87.8137 13.4708 87.7571 13.569C87.7006 13.6672 87.6232 13.7445 87.525 13.8011C87.4298 13.8576 87.3257 13.8859 87.2126 13.8859ZM87.2126 13.6895C87.3316 13.6895 87.4313 13.6463 87.5116 13.5601C87.595 13.4738 87.6366 13.3696 87.6366 13.2476C87.6366 13.1256 87.595 13.023 87.5116 12.9397C87.4313 12.8563 87.3316 12.8147 87.2126 12.8147C87.0936 12.8147 86.9924 12.8563 86.9091 12.9397C86.8258 13.023 86.7841 13.1256 86.7841 13.2476C86.7841 13.3726 86.8243 13.4782 86.9046 13.5645C86.988 13.6478 87.0906 13.6895 87.2126 13.6895Z" fill="#404040"/>
<path d="M59.4342 42.1602L61.9762 45.4235H72.5073" stroke="black" stroke-width="0.145684"/>
<path d="M65.3302 43.9847C65.3063 43.9847 65.29 43.9728 65.2811 43.949L64.7276 42.5699C64.7246 42.561 64.7187 42.5565 64.7098 42.5565H64.134C64.1221 42.5565 64.1161 42.5624 64.1161 42.5743V43.9401C64.1161 43.9699 64.1013 43.9847 64.0715 43.9847H63.8439C63.8141 43.9847 63.7993 43.9699 63.7993 43.9401V40.9051C63.7993 40.8753 63.8141 40.8605 63.8439 40.8605H64.7901C64.9448 40.8605 65.0817 40.8962 65.2007 40.9676C65.3227 41.039 65.4164 41.1402 65.4819 41.2711C65.5503 41.402 65.5846 41.5523 65.5846 41.7219C65.5846 41.9242 65.5355 42.0968 65.4373 42.2396C65.3391 42.3824 65.2052 42.4776 65.0356 42.5253C65.0237 42.5312 65.0207 42.5386 65.0267 42.5476L65.6024 43.9312L65.6069 43.949C65.6069 43.9728 65.5935 43.9847 65.5667 43.9847H65.3302ZM64.134 41.1372C64.1221 41.1372 64.1161 41.1431 64.1161 41.155V42.2842C64.1161 42.2961 64.1221 42.3021 64.134 42.3021H64.7499C64.9047 42.3021 65.0296 42.2485 65.1248 42.1414C65.2201 42.0343 65.2677 41.8944 65.2677 41.7219C65.2677 41.5463 65.2201 41.405 65.1248 41.2979C65.0296 41.1907 64.9047 41.1372 64.7499 41.1372H64.134ZM67.041 44.0204C66.8595 44.0204 66.6988 43.9818 66.559 43.9044C66.4221 43.827 66.315 43.7184 66.2376 43.5786C66.1632 43.4387 66.126 43.2766 66.126 43.0921V40.9051C66.126 40.8753 66.1409 40.8605 66.1707 40.8605H66.3983C66.4281 40.8605 66.4429 40.8753 66.4429 40.9051V43.1099C66.4429 43.3004 66.498 43.4536 66.6081 43.5697C66.7182 43.6857 66.8625 43.7437 67.041 43.7437C67.2195 43.7437 67.3639 43.6857 67.474 43.5697C67.584 43.4536 67.6391 43.3004 67.6391 43.1099V40.9051C67.6391 40.8753 67.654 40.8605 67.6837 40.8605H67.9114C67.9411 40.8605 67.956 40.8753 67.956 40.9051V43.0921C67.956 43.2766 67.9173 43.4387 67.8399 43.5786C67.7656 43.7184 67.6584 43.827 67.5186 43.9044C67.3817 43.9818 67.2225 44.0204 67.041 44.0204ZM69.9854 42.3556C69.9705 42.3616 69.9705 42.369 69.9854 42.378C70.1252 42.4464 70.2323 42.5446 70.3067 42.6725C70.3841 42.8005 70.4243 42.9552 70.4272 43.1367C70.4272 43.4045 70.3469 43.6128 70.1862 43.7616C70.0285 43.9104 69.8187 43.9847 69.5569 43.9847H68.6776C68.6479 43.9847 68.633 43.9699 68.633 43.9401V40.9051C68.633 40.8753 68.6479 40.8605 68.6776 40.8605H69.5212C69.7949 40.8605 70.0092 40.9319 70.1639 41.0747C70.3186 41.2145 70.396 41.4154 70.396 41.6772C70.396 41.8439 70.3603 41.9837 70.2889 42.0968C70.2204 42.2098 70.1193 42.2961 69.9854 42.3556ZM68.9678 41.1372C68.9558 41.1372 68.9499 41.1431 68.9499 41.155V42.2307C68.9499 42.2426 68.9558 42.2485 68.9678 42.2485H69.5257C69.6982 42.2485 69.8336 42.1994 69.9318 42.1012C70.033 42.0031 70.0836 41.8706 70.0836 41.704C70.0836 41.5285 70.033 41.3901 69.9318 41.2889C69.8336 41.1878 69.6982 41.1372 69.5257 41.1372H68.9678ZM69.548 43.7036C69.7206 43.7036 69.8574 43.65 69.9586 43.5429C70.0598 43.4358 70.1103 43.29 70.1103 43.1055C70.1103 42.918 70.0583 42.7707 69.9541 42.6636C69.853 42.5565 69.7146 42.5029 69.539 42.5029H68.9678C68.9558 42.5029 68.9499 42.5089 68.9499 42.5208V43.6857C68.9499 43.6976 68.9558 43.7036 68.9678 43.7036H69.548ZM71.5896 43.9803C71.5599 43.9803 71.545 43.9654 71.545 43.9356V42.6056C71.545 42.5937 71.5435 42.5863 71.5405 42.5833L70.7684 40.914L70.7639 40.8962C70.7639 40.8724 70.7773 40.8605 70.8041 40.8605H71.0451C71.0689 40.8605 71.0853 40.8724 71.0942 40.8962L71.6923 42.2307C71.6953 42.2366 71.6997 42.2396 71.7057 42.2396C71.7116 42.2396 71.7161 42.2366 71.7191 42.2307L72.3172 40.8962C72.3261 40.8724 72.3424 40.8605 72.3662 40.8605H72.6073C72.6221 40.8605 72.6326 40.8664 72.6385 40.8783C72.6474 40.8872 72.6489 40.8991 72.643 40.914L71.8664 42.5833C71.8634 42.5863 71.8619 42.5937 71.8619 42.6056V43.9356C71.8619 43.9654 71.847 43.9803 71.8173 43.9803H71.5896ZM64.616 49.0204C64.3453 49.0204 64.1266 48.9416 63.9599 48.7839C63.7963 48.6262 63.7145 48.4164 63.7145 48.1546V46.6906C63.7145 46.4288 63.7963 46.219 63.9599 46.0613C64.1266 45.9036 64.3453 45.8247 64.616 45.8247C64.7946 45.8247 64.9508 45.8605 65.0847 45.9319C65.2215 46.0033 65.3272 46.103 65.4016 46.2309C65.4789 46.3589 65.5176 46.5061 65.5176 46.6728V46.7977C65.5176 46.8275 65.5027 46.8424 65.473 46.8424H65.2454C65.2156 46.8424 65.2007 46.8275 65.2007 46.7977V46.6728C65.2007 46.5032 65.1472 46.3663 65.04 46.2621C64.9329 46.155 64.7916 46.1015 64.616 46.1015C64.4405 46.1015 64.2991 46.155 64.192 46.2621C64.0849 46.3663 64.0313 46.5061 64.0313 46.6817V48.1635C64.0313 48.3361 64.0849 48.4759 64.192 48.583C64.3021 48.6902 64.4449 48.7437 64.6205 48.7437C64.796 48.7437 64.9359 48.6931 65.04 48.592C65.1472 48.4908 65.2007 48.3539 65.2007 48.1814V47.6949C65.2007 47.683 65.1948 47.677 65.1829 47.677H64.6607C64.6309 47.677 64.616 47.6621 64.616 47.6324V47.4449C64.616 47.4152 64.6309 47.4003 64.6607 47.4003H65.473C65.5027 47.4003 65.5176 47.4152 65.5176 47.4449V48.1412C65.5176 48.412 65.4358 48.6262 65.2721 48.7839C65.1085 48.9416 64.8898 49.0204 64.616 49.0204ZM67.7056 48.9847C67.6818 48.9847 67.6655 48.9728 67.6565 48.949L67.1031 47.5699C67.1001 47.561 67.0942 47.5565 67.0852 47.5565H66.5095C66.4976 47.5565 66.4916 47.5624 66.4916 47.5743V48.9401C66.4916 48.9699 66.4767 48.9847 66.447 48.9847H66.2194C66.1896 48.9847 66.1747 48.9699 66.1747 48.9401V45.9051C66.1747 45.8753 66.1896 45.8605 66.2194 45.8605H67.1656C67.3203 45.8605 67.4572 45.8962 67.5762 45.9676C67.6982 46.039 67.7919 46.1402 67.8574 46.2711C67.9258 46.402 67.96 46.5523 67.96 46.7219C67.96 46.9242 67.9109 47.0968 67.8127 47.2396C67.7145 47.3824 67.5807 47.4776 67.411 47.5253C67.3991 47.5312 67.3962 47.5386 67.4021 47.5476L67.9779 48.9312L67.9823 48.949C67.9823 48.9728 67.969 48.9847 67.9422 48.9847H67.7056ZM66.5095 46.1372C66.4976 46.1372 66.4916 46.1431 66.4916 46.155V47.2842C66.4916 47.2961 66.4976 47.3021 66.5095 47.3021H67.1254C67.2801 47.3021 67.4051 47.2485 67.5003 47.1414C67.5955 47.0343 67.6431 46.8944 67.6431 46.7219C67.6431 46.5463 67.5955 46.405 67.5003 46.2979C67.4051 46.1907 67.2801 46.1372 67.1254 46.1372H66.5095ZM70.1591 48.9847C70.1323 48.9847 70.116 48.9714 70.11 48.9446L69.9627 48.3867C69.9598 48.3777 69.9523 48.3733 69.9404 48.3733H68.8737C68.8618 48.3733 68.8544 48.3777 68.8514 48.3867L68.7041 48.9446C68.6982 48.9714 68.6818 48.9847 68.655 48.9847H68.4229C68.408 48.9847 68.3961 48.9803 68.3872 48.9714C68.3813 48.9624 68.3798 48.9505 68.3827 48.9356L69.2174 45.9006C69.2233 45.8738 69.2397 45.8605 69.2665 45.8605H69.5521C69.5789 45.8605 69.5953 45.8738 69.6012 45.9006L70.4359 48.9356L70.4403 48.949C70.4403 48.9728 70.4254 48.9847 70.3957 48.9847H70.1591ZM68.9273 48.0966C68.9243 48.0995 68.9243 48.104 68.9273 48.1099C68.9332 48.1129 68.9392 48.1144 68.9451 48.1144H69.869C69.875 48.1144 69.8794 48.1129 69.8824 48.1099C69.8884 48.104 69.8898 48.0995 69.8869 48.0966L69.4138 46.3023C69.4108 46.2964 69.4078 46.2934 69.4048 46.2934C69.4019 46.2934 69.3989 46.2964 69.3959 46.3023L68.9273 48.0966ZM71.8945 45.856C72.1325 45.856 72.3245 45.9363 72.4703 46.097C72.619 46.2547 72.6934 46.4645 72.6934 46.7263C72.6934 46.9852 72.619 47.1935 72.4703 47.3512C72.3245 47.5059 72.1325 47.5833 71.8945 47.5833H71.2295C71.2176 47.5833 71.2116 47.5892 71.2116 47.6011V48.9401C71.2116 48.9699 71.1967 48.9847 71.167 48.9847H70.9394C70.9096 48.9847 70.8947 48.9699 70.8947 48.9401V45.9006C70.8947 45.8709 70.9096 45.856 70.9394 45.856H71.8945ZM71.8543 47.3199C72.012 47.3199 72.1385 47.2664 72.2337 47.1593C72.3289 47.0521 72.3765 46.9093 72.3765 46.7308C72.3765 46.5493 72.3289 46.405 72.2337 46.2979C72.1385 46.1878 72.012 46.1327 71.8543 46.1327H71.2295C71.2176 46.1327 71.2116 46.1387 71.2116 46.1506V47.3021C71.2116 47.314 71.2176 47.3199 71.2295 47.3199H71.8543ZM74.9367 46.0925C74.9367 46.1223 74.9218 46.1372 74.892 46.1372H73.5531C73.5412 46.1372 73.5352 46.1431 73.5352 46.155V47.2619C73.5352 47.2738 73.5412 47.2798 73.5531 47.2798H74.4546C74.4844 47.2798 74.4993 47.2947 74.4993 47.3244V47.5119C74.4993 47.5416 74.4844 47.5565 74.4546 47.5565H73.5531C73.5412 47.5565 73.5352 47.5624 73.5352 47.5743V48.6902C73.5352 48.7021 73.5412 48.708 73.5531 48.708H74.892C74.9218 48.708 74.9367 48.7229 74.9367 48.7527V48.9401C74.9367 48.9699 74.9218 48.9847 74.892 48.9847H73.2629C73.2332 48.9847 73.2183 48.9699 73.2183 48.9401V45.9051C73.2183 45.8753 73.2332 45.8605 73.2629 45.8605H74.892C74.9218 45.8605 74.9367 45.8753 74.9367 45.9051V46.0925ZM77.761 47.5029C77.8175 47.6577 77.8458 47.8347 77.8458 48.0341C77.8458 48.2126 77.8235 48.3673 77.7789 48.4982C77.6688 48.8464 77.4248 49.0204 77.0469 49.0204C76.8446 49.0204 76.675 48.9669 76.5381 48.8598C76.4012 48.7497 76.3134 48.5994 76.2747 48.409C76.2539 48.3138 76.2435 48.2052 76.2435 48.0832C76.2435 48.0534 76.2584 48.0385 76.2881 48.0385H76.5158C76.5455 48.0385 76.5604 48.0534 76.5604 48.0832C76.5663 48.2111 76.5738 48.2974 76.5827 48.342C76.6095 48.467 76.663 48.5652 76.7434 48.6366C76.8237 48.708 76.9249 48.7437 77.0469 48.7437C77.276 48.7437 77.4248 48.6277 77.4932 48.3956C77.52 48.2885 77.5334 48.1605 77.5334 48.0117C77.5334 47.8332 77.514 47.6859 77.4754 47.5699C77.398 47.3616 77.2552 47.2575 77.0469 47.2575C76.9993 47.2575 76.9576 47.2664 76.9219 47.2842C76.9041 47.2902 76.8937 47.2932 76.8907 47.2932C76.8788 47.2932 76.8684 47.2872 76.8594 47.2753L76.7434 47.1548C76.7285 47.134 76.727 47.1131 76.7389 47.0923L77.4352 46.1595C77.4411 46.1535 77.4426 46.1491 77.4397 46.1461C77.4367 46.1402 77.4322 46.1372 77.4263 46.1372H76.3105C76.2807 46.1372 76.2658 46.1223 76.2658 46.0925V45.9051C76.2658 45.8753 76.2807 45.8605 76.3105 45.8605H77.7878C77.8175 45.8605 77.8324 45.8753 77.8324 45.9051V46.1059C77.8324 46.1297 77.8265 46.1491 77.8146 46.164L77.1674 47.0477C77.1644 47.0507 77.1644 47.0551 77.1674 47.0611C77.1704 47.067 77.1748 47.07 77.1808 47.07C77.3206 47.076 77.4397 47.1161 77.5379 47.1905C77.636 47.2649 77.7104 47.369 77.761 47.5029ZM79.229 49.0294C78.9732 49.0294 78.7678 48.952 78.6131 48.7973C78.4584 48.6426 78.381 48.4358 78.381 48.1769V46.6683C78.381 46.4124 78.4584 46.2071 78.6131 46.0524C78.7678 45.8976 78.9732 45.8203 79.229 45.8203C79.4879 45.8203 79.6947 45.8976 79.8494 46.0524C80.0071 46.2071 80.086 46.4124 80.086 46.6683V48.1769C80.086 48.4358 80.0071 48.6426 79.8494 48.7973C79.6947 48.952 79.4879 49.0294 79.229 49.0294ZM79.229 48.7527C79.3927 48.7527 79.5236 48.7021 79.6218 48.6009C79.72 48.4997 79.7691 48.3658 79.7691 48.1992V46.6505C79.7691 46.4838 79.72 46.3499 79.6218 46.2488C79.5236 46.1476 79.3927 46.097 79.229 46.097C79.0713 46.097 78.9434 46.1476 78.8452 46.2488C78.747 46.3499 78.6979 46.4838 78.6979 46.6505V48.1992C78.6979 48.3629 78.747 48.4968 78.8452 48.6009C78.9434 48.7021 79.0713 48.7527 79.229 48.7527ZM81.3621 47.0879C81.246 47.0879 81.1389 47.0596 81.0407 47.0031C80.9455 46.9465 80.8696 46.8706 80.8131 46.7754C80.7566 46.6772 80.7283 46.5701 80.7283 46.4541C80.7283 46.338 80.7566 46.2324 80.8131 46.1372C80.8696 46.039 80.9455 45.9616 81.0407 45.9051C81.1389 45.8486 81.246 45.8203 81.3621 45.8203C81.4751 45.8203 81.5793 45.8486 81.6745 45.9051C81.7727 45.9616 81.8501 46.039 81.9066 46.1372C81.9631 46.2324 81.9914 46.338 81.9914 46.4541C81.9914 46.5701 81.9631 46.6772 81.9066 46.7754C81.8501 46.8706 81.7727 46.9465 81.6745 47.0031C81.5793 47.0596 81.4751 47.0879 81.3621 47.0879ZM81.2594 48.9847C81.2445 48.9847 81.2326 48.9803 81.2237 48.9714C81.2178 48.9594 81.2192 48.9461 81.2282 48.9312L82.8885 45.8917C82.8974 45.8709 82.9153 45.8605 82.9421 45.8605H83.0849C83.0998 45.8605 83.1102 45.8664 83.1161 45.8783C83.1251 45.8872 83.1251 45.8991 83.1161 45.914L81.4558 48.9535C81.4469 48.9743 81.429 48.9847 81.4022 48.9847H81.2594ZM81.3621 46.8915C81.4811 46.8915 81.5808 46.8498 81.6611 46.7665C81.7444 46.6802 81.7861 46.5761 81.7861 46.4541C81.7861 46.3321 81.7444 46.2294 81.6611 46.1461C81.5808 46.0598 81.4811 46.0167 81.3621 46.0167C81.243 46.0167 81.1419 46.0598 81.0586 46.1461C80.9753 46.2294 80.9336 46.3321 80.9336 46.4541C80.9336 46.5761 80.9753 46.6802 81.0586 46.7665C81.1419 46.8498 81.243 46.8915 81.3621 46.8915ZM83.0001 49.0249C82.884 49.0249 82.7769 48.9966 82.6787 48.9401C82.5835 48.8836 82.5076 48.8062 82.4511 48.708C82.3946 48.6098 82.3663 48.5027 82.3663 48.3867C82.3663 48.2736 82.3946 48.1695 82.4511 48.0742C82.5076 47.976 82.5835 47.8987 82.6787 47.8421C82.7769 47.7856 82.884 47.7573 83.0001 47.7573C83.1132 47.7573 83.2173 47.7856 83.3125 47.8421C83.4107 47.8987 83.4881 47.976 83.5446 48.0742C83.6011 48.1695 83.6294 48.2736 83.6294 48.3867C83.6294 48.5027 83.6011 48.6098 83.5446 48.708C83.4881 48.8062 83.4107 48.8836 83.3125 48.9401C83.2173 48.9966 83.1132 49.0249 83.0001 49.0249ZM83.0001 48.8285C83.1191 48.8285 83.2188 48.7854 83.2991 48.6991C83.3824 48.6128 83.4241 48.5087 83.4241 48.3867C83.4241 48.2647 83.3824 48.162 83.2991 48.0787C83.2188 47.9954 83.1191 47.9537 83.0001 47.9537C82.8811 47.9537 82.7799 47.9954 82.6966 48.0787C82.6133 48.162 82.5716 48.2647 82.5716 48.3867C82.5716 48.5116 82.6118 48.6173 82.6921 48.7036C82.7754 48.7869 82.8781 48.8285 83.0001 48.8285Z" fill="#404040"/>
<path fill-rule="evenodd" clip-rule="evenodd" d="M41.0937 23.4515L40.9423 23.4655L40.9353 23.6577L40.9283 23.8521H41.1705C41.3033 23.8521 41.6037 23.8592 41.8343 23.8685L42.2581 23.8826V26.57C42.2581 29.1871 42.2675 29.7565 42.3094 29.7565C42.3187 29.7565 42.3886 29.7096 42.4631 29.6511C42.5702 29.5667 42.6308 29.5386 42.7775 29.5058L42.9568 29.4636V26.6731V23.8826L43.6136 23.8685C44.1027 23.8568 44.275 23.8451 44.289 23.824C44.3146 23.7818 44.3123 23.5429 44.2866 23.503C44.2727 23.4819 44.2051 23.4608 44.1283 23.4515C43.9699 23.4304 41.3172 23.4327 41.0937 23.4515Z" fill="#323232"/>
<path fill-rule="evenodd" clip-rule="evenodd" d="M45.2717 23.4469C45.2251 23.4562 45.2228 23.4703 45.2088 24.1404C45.1995 24.5176 45.1925 25.2861 45.1925 25.8485V26.8747H44.6802H44.1678V25.8719C44.1678 25.3213 44.1608 24.6887 44.1515 24.4661L44.1375 24.0631H43.8184H43.4971L43.4808 24.7941C43.4714 25.1971 43.4691 26.4506 43.4738 27.5776L43.4808 29.6277L43.5343 29.7425C43.5995 29.8878 43.5995 29.9604 43.5273 30.1315C43.4481 30.3189 43.4528 30.3611 43.546 30.3986C43.6857 30.4571 43.8091 30.4665 43.9465 30.4243C44.1655 30.3611 44.1538 30.4571 44.1631 28.7069L44.1724 27.2027H44.6825H45.1925V28.5312C45.1925 29.2646 45.1995 30.012 45.2088 30.1924L45.2228 30.5251L45.3113 30.5532C45.4068 30.586 45.5046 30.5696 45.7398 30.4806L45.8679 30.4337L45.8656 27.6057C45.8633 26.05 45.8539 24.4778 45.8469 24.1099L45.833 23.4422L45.5768 23.4398C45.4371 23.4375 45.2996 23.4398 45.2717 23.4469Z" fill="#323232"/>
<path fill-rule="evenodd" clip-rule="evenodd" d="M40.2364 24.2498C39.9406 24.292 39.7334 24.4021 39.6379 24.5638C39.554 24.709 39.5331 24.8894 39.5331 25.4424C39.5331 26.3023 39.5377 26.3093 40.5112 27.7526C40.7488 28.1064 40.7837 28.165 40.8955 28.4157C40.9957 28.6382 41.005 28.6757 41.0236 28.9311C41.0352 29.0811 41.0469 29.4934 41.0469 29.8426C41.0469 30.194 41.0539 30.4822 41.0655 30.4822C41.0748 30.4822 41.2216 30.4611 41.3916 30.433L41.7013 30.3814L41.6943 29.5005L41.6873 28.6195L41.5872 28.3688C41.4754 28.0923 41.2681 27.7456 40.814 27.0848C40.651 26.8459 40.4553 26.5413 40.3831 26.4101L40.2481 26.1687L40.2248 25.508C40.2015 24.7817 40.2131 24.6481 40.3156 24.5474C40.3808 24.4818 40.46 24.4607 40.651 24.4607C40.835 24.4607 40.9188 24.4958 40.9817 24.5966C41.0329 24.6809 41.0352 24.702 41.0469 25.4728C41.0562 26.0727 41.0655 26.2695 41.0888 26.2929C41.1261 26.3304 41.6012 26.3468 41.6524 26.314C41.6827 26.2929 41.6873 26.1781 41.6943 25.5619C41.7013 24.7934 41.6873 24.6223 41.6058 24.5075C41.5499 24.4279 41.3217 24.3131 41.14 24.2732C40.9747 24.2381 40.4274 24.224 40.2364 24.2498Z" fill="#323232"/>
<path fill-rule="evenodd" clip-rule="evenodd" d="M47.2025 24.2968C46.8346 24.3483 46.6413 24.4467 46.5295 24.6389C46.4689 24.7396 46.4643 24.7771 46.448 25.0911C46.4386 25.2785 46.4293 26.5484 46.4293 27.9097L46.427 30.3863L46.5039 30.4425C46.6739 30.5737 46.8089 30.5854 47.0046 30.4894L47.0907 30.4472L47.0977 29.0578L47.1024 27.6707H47.5216H47.9408V29.0625V30.4542L48.0922 30.5526L48.2459 30.6534L48.3926 30.5901C48.4765 30.555 48.5603 30.5104 48.5859 30.494C48.6255 30.4636 48.6278 30.3769 48.6348 28.6501C48.6441 26.5578 48.6139 24.9153 48.5626 24.7232C48.4858 24.4327 48.2273 24.3179 47.5798 24.2874C47.4517 24.2827 47.2817 24.2851 47.2025 24.2968ZM47.7545 24.5522C47.8057 24.578 47.8523 24.6272 47.8826 24.6857C47.9245 24.7724 47.9268 24.8427 47.9362 25.9369C47.9408 26.5742 47.9362 27.1599 47.9245 27.2373L47.9059 27.3778L47.5798 27.3849C47.4005 27.3896 47.2188 27.3849 47.1792 27.3778L47.1024 27.3638V26.3516C47.1047 25.2223 47.1257 24.763 47.1792 24.6576C47.2608 24.4983 47.5426 24.4467 47.7545 24.5522Z" fill="#323232"/>
<path fill-rule="evenodd" clip-rule="evenodd" d="M37.0549 25.3303C37.0479 25.41 37.041 26.4057 37.041 27.5421V29.6086L37.2063 29.625C37.2971 29.6321 37.4322 29.6602 37.5067 29.6859C37.5836 29.7117 37.6558 29.7328 37.6698 29.7328C37.6954 29.7328 37.7047 25.4873 37.6791 25.2952L37.6628 25.1874H37.367H37.0712L37.0549 25.3303Z" fill="#323232"/>
<path fill-rule="evenodd" clip-rule="evenodd" d="M38.3754 25.2152C38.3405 25.2691 38.3032 29.5896 38.3358 29.7536C38.3544 29.838 38.3894 29.845 38.4522 29.7771C38.5198 29.7021 38.6199 29.6599 38.7969 29.6295L38.9623 29.6014L38.9763 29.2733C38.9972 28.8446 38.9972 25.5198 38.9763 25.3394L38.9623 25.1988L38.6781 25.1918C38.4685 25.1871 38.3894 25.1942 38.3754 25.2152Z" fill="#323232"/>
<path fill-rule="evenodd" clip-rule="evenodd" d="M49.2103 25.2274C49.1986 25.2508 49.187 25.9818 49.18 26.8534L49.1707 28.4349L49.2452 28.7747C49.4152 29.5455 49.5969 30.239 49.6807 30.4429C49.7879 30.6936 50.037 30.5905 50.037 30.2976C50.037 30.225 50.0254 30.0914 50.0114 30.0024C49.8833 29.1238 49.8554 28.62 49.8321 26.6636L49.8158 25.1992L49.5224 25.1922C49.2592 25.1875 49.2266 25.1899 49.2103 25.2274Z" fill="#323232"/>
<path fill-rule="evenodd" clip-rule="evenodd" d="M50.5123 25.2131C50.503 25.2295 50.4867 25.9722 50.4774 26.8602C50.4681 27.7505 50.4495 28.58 50.4355 28.7018C50.3726 29.2782 50.3447 29.5617 50.347 29.6273C50.3493 29.6648 50.3423 29.7796 50.3307 29.8803C50.3121 30.0654 50.3121 30.0654 50.3633 30.0373C50.3912 30.0232 50.4681 29.96 50.5333 29.9014C50.6008 29.8405 50.694 29.7608 50.7429 29.7233C50.7918 29.6859 50.8477 29.6249 50.8663 29.5898C50.9152 29.4937 51.0806 28.7486 51.1086 28.4886C51.1388 28.2308 51.1318 25.2482 51.1016 25.2177C51.0899 25.2084 50.9572 25.1967 50.8058 25.192C50.6008 25.1849 50.5263 25.192 50.5123 25.2131Z" fill="#323232"/>
<path fill-rule="evenodd" clip-rule="evenodd" d="M36.1583 26.1246L35.8462 26.1363L35.6179 27.2961C35.4922 27.9334 35.385 28.47 35.3827 28.4887C35.3711 28.5496 35.3245 28.5403 35.2965 28.4747C35.2826 28.4395 35.257 28.3294 35.2383 28.2333C35.222 28.1373 35.1358 27.7155 35.0497 27.2961C34.9635 26.8767 34.875 26.4456 34.854 26.3355L34.8168 26.1363L34.4931 26.1293L34.1693 26.1223L34.1833 27.7085C34.1926 28.5824 34.1996 29.6954 34.1996 30.1827V31.0684H34.5257H34.8517L34.854 30.2061C34.854 29.7329 34.8634 29.2924 34.875 29.2291C34.8843 29.1635 34.8936 29.119 34.896 29.1284C34.9495 29.4142 35.0823 30.1476 35.0939 30.2272C35.1195 30.4006 35.1475 30.424 35.3315 30.4217C35.4596 30.4217 35.4945 30.4123 35.5248 30.3725C35.5504 30.342 35.5946 30.1429 35.6529 29.8008C35.7018 29.5126 35.7507 29.2596 35.7623 29.2408C35.774 29.2174 35.7833 29.2783 35.7833 29.4048C35.7833 29.7235 35.8112 29.9929 35.8415 30.0046C35.8578 30.0117 35.916 29.9859 35.9719 29.9484C36.0278 29.9109 36.1583 29.8453 36.2607 29.8031C36.3632 29.7586 36.454 29.7165 36.4657 29.7094C36.475 29.7024 36.4796 28.8894 36.4773 27.903L36.4703 26.1129L36.1583 26.1246Z" fill="#323232"/>
<path fill-rule="evenodd" clip-rule="evenodd" d="M51.7235 26.1521C51.7118 26.1685 51.7002 26.93 51.6955 27.8461L51.6862 29.5097L51.7793 29.5636C51.968 29.669 52.0542 29.8353 52.0332 30.0509C52.0169 30.2055 51.9517 30.3555 51.812 30.5617C51.7118 30.7069 51.7025 30.7327 51.7025 30.8592C51.7025 30.9506 51.7141 31.0092 51.7374 31.0303C51.777 31.0701 52.0984 31.0842 52.7342 31.0724L53.1115 31.0678V30.8944V30.7233L52.7808 30.7069C52.5991 30.6976 52.4454 30.6859 52.4408 30.6835C52.4361 30.6788 52.4268 30.2219 52.4198 29.669L52.4058 28.6615L52.6224 28.6474C52.7412 28.6381 52.8833 28.631 52.9368 28.631C53.0533 28.631 53.0672 28.6029 53.0486 28.4061L53.0346 28.2796H52.7249H52.4128V27.3916C52.4128 26.7871 52.4198 26.4966 52.4384 26.4872C52.4524 26.4778 52.6015 26.4638 52.7691 26.4567L53.0766 26.4403V26.288V26.1357L52.4082 26.1287C51.8935 26.124 51.7374 26.131 51.7235 26.1521Z" fill="#323232"/>
<path fill-rule="evenodd" clip-rule="evenodd" d="M39.5306 28.856C39.5003 28.9357 39.5213 29.7698 39.5586 29.9455C39.5749 30.0158 39.5725 30.0861 39.5586 30.1564C39.5236 30.2993 39.5283 30.4188 39.5655 30.4703C39.5958 30.5125 39.6028 30.5125 39.8497 30.461C39.9894 30.4305 40.1268 30.4024 40.1571 30.3954L40.2107 30.3836L40.2037 29.6151C40.199 29.1911 40.1874 28.8373 40.178 28.8279C40.1687 28.8162 40.0243 28.8045 39.859 28.7998L39.5562 28.7904L39.5306 28.856Z" fill="#323232"/>
<path fill-rule="evenodd" clip-rule="evenodd" d="M42.8163 29.8521C42.7278 29.8873 42.616 30.0068 42.4856 30.2012C42.3738 30.3699 42.0035 30.8573 41.9872 30.8573C41.9849 30.8573 41.943 30.8338 41.8964 30.8081C41.8196 30.7612 41.7869 30.7589 41.5867 30.7706C41.1884 30.7917 40.9415 30.9205 40.5503 31.3071C40.2266 31.6281 39.9401 31.8156 39.8795 31.7546C39.8632 31.7382 39.9168 31.6562 40.0379 31.5133C40.4059 31.0728 40.4059 31.0728 40.3896 30.9369C40.3849 30.8924 40.357 30.8526 40.3011 30.8151C40.187 30.7378 40.0193 30.7542 39.7608 30.869C39.6536 30.9159 39.5535 30.9604 39.5395 30.9674C39.5232 30.9744 39.4999 30.9533 39.4883 30.9205C39.4347 30.78 39.2647 30.7823 39.1343 30.9229C39.09 30.9697 38.9922 31.0869 38.9177 31.1806C38.6895 31.4711 38.2912 31.7804 38.1049 31.8109C37.8604 31.8507 38.035 31.5086 38.6592 30.7284C39.1157 30.1567 39.1762 30.0489 39.0691 29.9904C38.9946 29.9529 38.8292 29.9622 38.7477 30.0115C38.7081 30.0372 38.5497 30.2129 38.396 30.4051C38.0886 30.7893 37.6531 31.2275 37.3736 31.436C37.0592 31.6703 36.6749 31.8226 36.5864 31.7476C36.4863 31.6656 36.6074 31.4641 37.1314 30.8385C37.2642 30.6792 37.4062 30.4941 37.4505 30.4285C37.5366 30.295 37.5529 30.1755 37.4947 30.0911C37.4085 29.9669 37.0476 29.9318 36.7238 30.0138C36.272 30.1286 35.9832 30.3746 36.1626 30.4941C36.2371 30.541 36.3372 30.5105 36.6167 30.3512C36.8449 30.2247 37.0732 30.1544 37.1174 30.1989C37.1477 30.2294 37.0173 30.398 36.6679 30.7753C36.2278 31.2486 36.0904 31.4852 36.116 31.7195C36.1346 31.8952 36.3349 32.0499 36.5422 32.0522C36.7704 32.0522 37.1035 31.8976 37.3643 31.6656C37.4598 31.5813 37.5506 31.5133 37.5692 31.5133C37.6065 31.5133 37.6065 31.5086 37.5646 31.6281C37.5227 31.75 37.5529 31.846 37.6671 31.9421C37.8184 32.0686 38.0234 32.078 38.2703 31.9679C38.4146 31.9023 38.4962 31.8952 38.5171 31.9468C38.5264 31.9702 38.5637 31.9819 38.6336 31.9819C38.736 31.9819 38.7407 31.9796 38.9061 31.7757C39.1436 31.4852 39.2903 31.3376 39.451 31.2204C39.8306 30.9463 40.1031 30.9159 39.9122 31.1689C39.8749 31.2158 39.7794 31.3282 39.6979 31.4219C39.4743 31.6773 39.4277 31.839 39.5465 31.9327C39.5977 31.9725 39.642 31.9819 39.7817 31.9819C39.9634 31.9819 40.0216 31.9608 40.2475 31.8179C40.3081 31.7781 40.371 31.7476 40.3873 31.7476C40.4036 31.7476 40.4362 31.7874 40.4618 31.839C40.5177 31.9491 40.6085 31.9889 40.7902 31.9889C40.9532 31.9866 41.1092 31.921 41.2606 31.7921C41.3212 31.7429 41.3794 31.7008 41.3934 31.7008C41.4073 31.7008 41.419 31.7336 41.419 31.7734C41.419 31.8203 41.4423 31.8671 41.4865 31.914C41.5447 31.9725 41.5727 31.9819 41.6798 31.9819C41.8265 31.9819 42.0012 31.9069 42.1829 31.7664C42.2504 31.7148 42.311 31.6773 42.3179 31.6844C42.3249 31.6914 42.3482 31.7312 42.3715 31.7757C42.3948 31.8179 42.4623 31.8882 42.5229 31.928C42.6207 31.996 42.6556 32.0053 42.7814 32.0053C42.9863 32.0053 43.1517 31.9679 43.3287 31.8859C43.536 31.7898 43.6734 31.6773 44.0507 31.3142C44.2999 31.0705 44.3907 30.9979 44.4536 30.9861C44.6306 30.951 44.6236 30.9744 44.3767 31.2556C44.0018 31.6773 43.9366 31.8273 44.0763 31.9444C44.2184 32.0639 44.5141 32.01 44.8122 31.8109C44.8984 31.7523 44.9846 31.7008 44.9985 31.6961C45.0148 31.6914 45.0451 31.7265 45.0684 31.771C45.2081 32.0452 45.6087 32.078 46.0536 31.8531C46.1374 31.8109 46.2212 31.7593 46.2375 31.7382C46.2841 31.682 46.3027 31.689 46.4518 31.8273C46.6172 31.9819 46.7057 32.0147 46.9246 32.0007C47.1412 31.9866 47.2995 31.9093 47.5301 31.7054C47.7607 31.5063 47.9167 31.3915 47.9493 31.4032C47.9656 31.4079 47.9726 31.4758 47.9679 31.586C47.9563 31.8765 48.0425 31.9819 48.2917 31.9819C48.4896 31.9819 48.6317 31.928 48.7877 31.7968C48.8646 31.7312 48.9344 31.6844 48.9461 31.6914C48.9554 31.6984 48.9647 31.7406 48.9647 31.7851C48.9647 31.9163 49.0486 31.9819 49.2139 31.9819C49.3653 31.9819 49.4748 31.9374 49.6518 31.8085C49.7146 31.7617 49.7822 31.7242 49.7985 31.7242C49.8125 31.7242 49.8451 31.7687 49.866 31.8203C49.9545 32.0475 50.3132 32.0663 50.6089 31.8624C50.7673 31.7546 51.1609 31.3587 51.1493 31.3212C51.1236 31.2439 51.0398 31.2837 50.7906 31.4829C50.5251 31.7008 50.425 31.757 50.3341 31.7429C50.2876 31.7359 50.2806 31.7242 50.2829 31.6258C50.2829 31.4829 50.3434 31.3985 50.567 31.2204C51.0398 30.8456 51.4427 30.4285 51.5428 30.2083C51.622 30.0372 51.6104 29.899 51.5172 29.8521C51.4287 29.81 51.2261 29.8498 51.0957 29.9365C50.8349 30.1122 50.2689 30.7636 50.036 31.1619C49.9242 31.3493 49.7822 31.4993 49.6005 31.6211C49.4445 31.7265 49.342 31.7617 49.3094 31.7289C49.2745 31.6937 49.3513 31.5813 49.5702 31.3376C49.6611 31.2345 49.7542 31.115 49.7752 31.0728C49.8125 30.9979 49.8101 30.9908 49.7729 30.9627C49.7496 30.9463 49.6913 30.9276 49.6424 30.9182C49.5912 30.9112 49.519 30.8784 49.4817 30.8456C49.3443 30.7308 49.0672 30.7261 48.7458 30.8338C48.6573 30.862 48.4989 30.951 48.3452 31.0564C48.0005 31.2978 47.9353 31.2931 47.9097 31.0353C47.8934 30.8713 47.8375 30.7987 47.6978 30.7612C47.3717 30.6722 46.8291 30.9065 46.4914 31.2814C46.2562 31.5414 45.9418 31.7359 45.7042 31.764C45.6204 31.7734 45.5878 31.7664 45.5365 31.7242C45.455 31.6609 45.455 31.6024 45.5389 31.4547C45.6669 31.2298 45.9767 30.9604 46.1351 30.9346C46.2375 30.9182 46.2422 30.958 46.1584 31.0822C46.0838 31.19 46.0931 31.2181 46.1979 31.2275C46.2655 31.2322 46.2981 31.2204 46.368 31.1595C46.5403 31.0072 46.545 30.8971 46.3796 30.801C46.2119 30.7003 45.8556 30.7636 45.5598 30.944C45.4853 30.9885 45.2966 31.1478 45.1406 31.2954C44.7703 31.6492 44.5095 31.8203 44.4419 31.7523C44.4117 31.7218 44.5444 31.5391 44.7983 31.2696C45.0311 31.0213 45.087 30.9369 45.0614 30.869C45.0405 30.8151 44.952 30.8034 44.7004 30.8198C44.4792 30.8362 44.4699 30.8338 44.4699 30.7893C44.4699 30.7636 44.4443 30.7237 44.4117 30.7026C44.2626 30.6042 43.9598 30.8128 44.046 30.9533C44.0926 31.026 44.0786 31.0611 43.9435 31.2064C43.7689 31.3985 43.5662 31.5485 43.331 31.6633C42.9887 31.8273 42.7581 31.7874 42.7581 31.5625C42.7581 31.511 42.7674 31.4618 42.7767 31.4524C42.7861 31.443 42.9072 31.4266 43.0446 31.4173C43.4195 31.3891 43.6245 31.3071 43.7363 31.1431C43.8178 31.0236 43.8108 30.9487 43.713 30.8596C43.5663 30.7308 43.3753 30.7144 43.0702 30.8104C42.8862 30.8666 42.7581 30.9627 42.3808 31.3282C42.0245 31.6726 41.8615 31.7828 41.8009 31.7195C41.7706 31.6914 41.78 31.668 41.8568 31.5461C41.9453 31.4102 42.2411 31.0471 42.7069 30.5058C43.1331 30.0115 43.2123 29.8732 43.0911 29.8404C43.0143 29.8193 42.8839 29.8264 42.8163 29.8521ZM51.3868 30.1145C51.3868 30.2153 50.7207 30.9744 50.6322 30.9744C50.5763 30.9744 50.9676 30.4379 51.1795 30.227C51.3169 30.0888 51.3868 30.0513 51.3868 30.1145ZM41.8009 30.9416C41.8801 30.9721 41.8359 31.0541 41.6239 31.265C41.391 31.4969 41.2001 31.6352 41.0161 31.7054C40.8158 31.7828 40.7529 31.7031 40.874 31.5227C41.0347 31.279 41.3421 31.0494 41.6169 30.9604C41.7264 30.9252 41.752 30.9229 41.8009 30.9416ZM43.5243 30.9651C43.5779 31.0166 43.5709 31.0494 43.4964 31.122C43.4079 31.2064 43.2565 31.2556 43.0772 31.2556H42.9258L42.9794 31.197C43.0516 31.1197 43.2495 30.9885 43.3403 30.9557C43.4405 30.9205 43.4824 30.9229 43.5243 30.9651ZM47.6722 30.9697C47.6722 30.9861 47.6302 31.0236 47.5813 31.0517C47.4695 31.115 47.3973 31.2087 47.4183 31.2626C47.4253 31.286 47.4626 31.3188 47.4998 31.3399C47.5371 31.3587 47.5674 31.3891 47.5674 31.4079C47.5674 31.4524 47.4556 31.5344 47.2413 31.6492C46.9781 31.7921 46.8407 31.8015 46.7778 31.6797C46.6917 31.5203 47.0806 31.1033 47.4346 30.9721C47.5674 30.9229 47.6722 30.9229 47.6722 30.9697ZM49.3094 30.9416C49.3793 30.9627 49.3746 31.0166 49.2861 31.1361C49.1021 31.3868 48.5339 31.7781 48.4081 31.7359C48.2055 31.6726 48.6946 31.1314 49.1021 30.9721C49.2232 30.9252 49.2349 30.9229 49.3094 30.9416Z" fill="#323232"/>
<path fill-rule="evenodd" clip-rule="evenodd" d="M35.8228 30.7804C35.797 30.8039 35.804 31.0405 35.8298 31.0569C35.8556 31.0733 36.0172 30.9257 36.0172 30.8859C36.0172 30.8554 35.9024 30.764 35.865 30.764C35.8509 30.764 35.8298 30.7711 35.8228 30.7804Z" fill="#323232"/>
<path fill-rule="evenodd" clip-rule="evenodd" d="M34.1807 31.4713L34.1877 31.5487L34.7955 31.5557C35.4639 31.5627 35.6363 31.5487 35.6759 31.4831C35.6945 31.4503 35.6945 31.4362 35.6666 31.4198C35.6456 31.4057 35.3265 31.3964 34.9027 31.3964H34.1737L34.1807 31.4713Z" fill="#323232"/>
<path fill-rule="evenodd" clip-rule="evenodd" d="M51.6298 31.4198C51.5786 31.4409 51.539 31.5088 51.5646 31.5346C51.5716 31.5416 51.9256 31.5487 52.3494 31.5487H53.1226L53.1296 31.4713L53.1366 31.3964L52.4077 31.3987C52.0071 31.3987 51.6578 31.4081 51.6298 31.4198Z" fill="#323232"/>
<path fill-rule="evenodd" clip-rule="evenodd" d="M35.2871 32.359C35.0216 32.4363 34.9331 32.769 35.131 32.9588C35.3104 33.1275 35.6551 33.1228 35.8064 32.9518C35.9485 32.7901 35.9182 32.5418 35.7459 32.4199C35.6364 32.3426 35.4385 32.3168 35.2871 32.359ZM35.6411 32.4926C35.6737 32.516 35.7156 32.5746 35.7296 32.6214C35.8111 32.8675 35.5246 33.0877 35.308 32.9448C35.2172 32.8839 35.1799 32.8112 35.1776 32.6894C35.1776 32.6097 35.1916 32.5769 35.2428 32.5277C35.2778 32.4949 35.3267 32.4598 35.3523 32.4481C35.4222 32.4176 35.5735 32.441 35.6411 32.4926Z" fill="#323232"/>
<path fill-rule="evenodd" clip-rule="evenodd" d="M37.0964 32.3572C37.0288 32.3853 36.9473 32.4931 36.9473 32.5563C36.9473 32.643 37.0498 32.7227 37.1802 32.7391C37.313 32.7555 37.4504 32.8141 37.469 32.8633C37.476 32.882 37.4597 32.9195 37.4341 32.9453C37.3642 33.0156 37.1895 32.9968 37.0754 32.9101C36.9473 32.8117 36.8611 32.875 36.9776 32.9851C37.1686 33.1655 37.6227 33.0835 37.6227 32.868C37.6227 32.8328 37.6017 32.7813 37.5785 32.7578C37.5389 32.718 37.3316 32.6383 37.2664 32.6383C37.2175 32.6383 37.0871 32.561 37.0871 32.5306C37.0871 32.4837 37.1825 32.4275 37.2641 32.4275C37.3036 32.4275 37.3758 32.4532 37.4224 32.486C37.5156 32.5493 37.5994 32.5634 37.5994 32.5142C37.5994 32.3947 37.2617 32.2892 37.0964 32.3572Z" fill="#323232"/>
<path fill-rule="evenodd" clip-rule="evenodd" d="M42.0205 32.3545C41.7527 32.4412 41.6526 32.6848 41.79 32.9098C41.8715 33.0457 42.1207 33.116 42.3256 33.0597C42.6307 32.9777 42.7052 32.5982 42.4537 32.4201C42.3489 32.3475 42.1416 32.317 42.0205 32.3545ZM42.3419 32.4857C42.4211 32.5372 42.4747 32.6708 42.4584 32.7668C42.4491 32.8067 42.4118 32.8723 42.3722 32.9098C42.3116 32.9683 42.2837 32.9777 42.1766 32.9777C42.0229 32.9777 41.9344 32.9191 41.8878 32.7856C41.8575 32.7012 41.8598 32.6848 41.8994 32.6005C41.9786 32.4365 42.1859 32.3826 42.3419 32.4857Z" fill="#323232"/>
<path fill-rule="evenodd" clip-rule="evenodd" d="M42.9869 32.3751C42.8356 32.436 42.775 32.5016 42.7587 32.6234C42.7331 32.7898 42.761 32.8811 42.8635 32.9725C42.9986 33.0967 43.2431 33.1178 43.4248 33.0217C43.5226 32.9725 43.6111 32.8249 43.6134 32.7148C43.6158 32.5484 43.5273 32.4289 43.3549 32.368C43.2268 32.3235 43.1104 32.3258 42.9869 32.3751ZM43.3223 32.4735C43.49 32.5765 43.5156 32.764 43.3805 32.8999C43.2105 33.0733 42.8868 32.9678 42.8868 32.7382C42.8868 32.5016 43.129 32.354 43.3223 32.4735Z" fill="#323232"/>
<path fill-rule="evenodd" clip-rule="evenodd" d="M47.8849 32.3564C47.7359 32.4033 47.6264 32.5837 47.645 32.75C47.659 32.8812 47.7196 32.9632 47.8477 33.0288C48.0363 33.1272 48.2925 33.0827 48.4299 32.9304C48.4811 32.8765 48.4881 32.8461 48.4881 32.7125C48.4858 32.5251 48.4439 32.4478 48.3181 32.3962C48.2063 32.3517 47.9711 32.3306 47.8849 32.3564ZM48.2226 32.4806C48.2669 32.5087 48.3204 32.5719 48.3437 32.6212C48.3856 32.7055 48.3856 32.7102 48.3437 32.7945C48.2878 32.9093 48.1691 32.989 48.0503 32.989C47.9758 32.989 47.9431 32.9726 47.8686 32.8976C47.7964 32.825 47.7778 32.7898 47.7778 32.7196C47.7778 32.4853 48.0293 32.3494 48.2226 32.4806Z" fill="#323232"/>
<path fill-rule="evenodd" clip-rule="evenodd" d="M50.6357 32.3662C50.5145 32.4107 50.4656 32.4599 50.4191 32.5818C50.3259 32.8301 50.5145 33.0832 50.794 33.0832C50.9244 33.0832 51.0758 33.0082 51.1294 32.9168C51.2132 32.7786 51.141 32.7622 50.9966 32.8863C50.9314 32.9402 50.8662 32.9754 50.8057 32.9824C50.7242 32.9941 50.7055 32.9871 50.6333 32.9145C50.4959 32.7762 50.4936 32.6427 50.631 32.5044C50.7311 32.4037 50.808 32.4037 50.9687 32.5091C51.1084 32.6005 51.1643 32.5888 51.1084 32.4834C51.0432 32.3639 50.8033 32.3029 50.6357 32.3662Z" fill="#323232"/>
<path fill-rule="evenodd" clip-rule="evenodd" d="M51.6068 32.3501C51.5253 32.3665 51.3693 32.5141 51.3413 32.6054C51.3087 32.7062 51.3227 32.8023 51.3926 32.9147C51.4578 33.0202 51.5952 33.0811 51.7698 33.0834C51.9003 33.0834 51.9096 33.0787 52.0097 32.978C52.068 32.9217 52.1099 32.8608 52.1052 32.8444C52.0866 32.7882 52.0237 32.7999 51.9562 32.8679C51.8281 32.9944 51.7419 33.0178 51.6208 32.9546C51.4811 32.8819 51.4391 32.6828 51.5346 32.5422C51.6278 32.4016 51.7396 32.4016 51.9631 32.5469C52.0353 32.5914 52.04 32.5937 52.0563 32.5562C52.1029 32.4297 51.8327 32.3055 51.6068 32.3501Z" fill="#323232"/>
<path fill-rule="evenodd" clip-rule="evenodd" d="M52.5268 32.3546C52.3312 32.4179 52.2613 32.5374 52.2706 32.7834C52.273 32.8677 52.3778 32.9872 52.4942 33.0388C52.7015 33.1348 53.0182 33.0552 53.0974 32.8865C53.1789 32.7154 53.1254 32.5163 52.974 32.4155C52.8715 32.3476 52.6433 32.3171 52.5268 32.3546ZM52.8575 32.4764C52.9251 32.5022 52.9949 32.6311 52.9949 32.7295C52.9949 32.8607 52.8389 32.9896 52.6805 32.9896C52.62 32.9896 52.5757 32.9685 52.5105 32.9099C52.4313 32.8349 52.4244 32.8185 52.4244 32.7014C52.4244 32.6076 52.436 32.5584 52.4686 32.5233C52.5501 32.4319 52.6992 32.4155 52.8575 32.4764Z" fill="#323232"/>
<path fill-rule="evenodd" clip-rule="evenodd" d="M34.2279 32.385C34.2349 32.4014 34.2814 32.4178 34.3327 32.4224C34.3862 32.4271 34.4421 32.4459 34.4584 32.4646C34.4771 32.4881 34.4934 32.6029 34.498 32.7809C34.5073 33.0223 34.5143 33.0597 34.5469 33.0597C34.6261 33.0597 34.6424 33.0082 34.6424 32.7669C34.6424 32.4787 34.668 32.4271 34.8054 32.4342C34.9033 32.4365 34.9359 32.4225 34.9102 32.3826C34.887 32.3428 34.2162 32.3475 34.2279 32.385Z" fill="#323232"/>
<path fill-rule="evenodd" clip-rule="evenodd" d="M36.3233 32.4106C36.272 32.4669 36.0787 32.8792 36.0508 32.9941C36.0368 33.0503 36.0415 33.0597 36.081 33.0597C36.1276 33.0597 36.1719 33.0198 36.2138 32.9331C36.2348 32.891 36.2604 32.8839 36.4048 32.8769L36.5725 32.8699L36.6051 32.9472C36.6633 33.0854 36.7611 33.1229 36.7611 33.0058C36.7611 32.9378 36.5561 32.4645 36.5003 32.4036C36.442 32.3427 36.3838 32.345 36.3233 32.4106ZM36.4723 32.652C36.4909 32.7527 36.4607 32.7902 36.3792 32.7691C36.3093 32.7527 36.3 32.6965 36.3559 32.6192C36.4094 32.5419 36.4537 32.5559 36.4723 32.652Z" fill="#323232"/>
<path fill-rule="evenodd" clip-rule="evenodd" d="M37.7674 32.3853C37.7744 32.4017 37.793 32.4181 37.8116 32.4204C37.8303 32.4228 37.8838 32.4298 37.9327 32.4392L38.0189 32.4532V32.6009C38.0189 32.8516 38.0469 33.039 38.0841 33.0554C38.147 33.0788 38.1773 32.9921 38.1936 32.7203L38.2099 32.4532L38.2937 32.4392C38.3426 32.4298 38.3939 32.4228 38.4125 32.4204C38.4311 32.4181 38.4498 32.4017 38.4567 32.3853C38.4637 32.3642 38.3846 32.3572 38.1121 32.3572C37.8396 32.3572 37.7604 32.3642 37.7674 32.3853Z" fill="#323232"/>
<path fill-rule="evenodd" clip-rule="evenodd" d="M38.7152 32.3733C38.6383 32.385 38.6243 32.4436 38.6243 32.7435C38.6243 33.0621 38.6336 33.0715 38.9923 33.0715C39.146 33.0715 39.2811 33.0621 39.2904 33.0528C39.3253 33.02 39.2462 32.9895 39.1227 32.9895C39.0575 32.9895 38.955 32.9825 38.8945 32.9755L38.7874 32.9591V32.8607V32.7622L38.9993 32.7482C39.1181 32.7412 39.2229 32.7248 39.2368 32.7107C39.2718 32.6756 39.1553 32.6381 39.0063 32.6381C38.8479 32.6381 38.7874 32.6076 38.7874 32.5303C38.7874 32.4553 38.8596 32.4272 39.0552 32.4272C39.2159 32.4272 39.2834 32.4108 39.2625 32.378C39.2508 32.3569 38.8386 32.3546 38.7152 32.3733Z" fill="#323232"/>
<path fill-rule="evenodd" clip-rule="evenodd" d="M39.5539 32.3733C39.5236 32.3803 39.5143 32.4225 39.505 32.5865C39.5003 32.699 39.5003 32.8466 39.505 32.9145C39.5143 33.0247 39.5213 33.0434 39.5772 33.0645C39.661 33.0973 39.9475 33.0762 40.0383 33.0293C40.213 32.938 40.2828 32.699 40.185 32.5232C40.1105 32.392 40.0243 32.3569 39.7844 32.3592C39.6796 32.3616 39.5748 32.3663 39.5539 32.3733ZM39.9288 32.4506C40.0336 32.4787 40.0918 32.5748 40.0918 32.7201C40.0918 32.8091 40.0802 32.8419 40.0266 32.8958C39.9544 32.9661 39.8264 33.0036 39.7332 32.9801C39.6913 32.9708 39.675 32.945 39.6633 32.8794C39.64 32.7294 39.647 32.4858 39.6773 32.4553C39.7122 32.4202 39.817 32.4202 39.9288 32.4506Z" fill="#323232"/>
<path fill-rule="evenodd" clip-rule="evenodd" d="M40.8653 32.3776C40.8188 32.4057 40.8351 33.029 40.884 33.0594C40.9422 33.0946 40.9748 33.0383 40.9818 32.8884L40.9888 32.7431L41.1867 32.7525C41.2985 32.7572 41.3917 32.7712 41.401 32.7876C41.4103 32.8017 41.4196 32.8439 41.4196 32.8837C41.4196 32.9891 41.4452 33.0594 41.4802 33.0594C41.5244 33.0594 41.5384 32.9423 41.5314 32.6377C41.5244 32.387 41.5221 32.3682 41.4779 32.3682C41.4406 32.3682 41.4289 32.3893 41.4173 32.4807C41.4103 32.544 41.3894 32.6049 41.3707 32.6166C41.3544 32.6283 41.2613 32.6377 41.1704 32.6377H41.0004V32.558C41.0004 32.3987 40.9445 32.3261 40.8653 32.3776Z" fill="#323232"/>
<path fill-rule="evenodd" clip-rule="evenodd" d="M44.3191 32.3853C44.2935 32.3994 44.205 32.465 44.1235 32.5259C43.9582 32.6547 43.9349 32.6501 43.9139 32.4931C43.9046 32.4228 43.8883 32.39 43.8603 32.3853C43.8231 32.3783 43.8184 32.4064 43.8184 32.7039C43.8184 32.882 43.8254 33.0366 43.8347 33.0437C43.8627 33.0718 43.9092 33.0085 43.9256 32.9218C43.9419 32.8258 43.9931 32.7321 44.0304 32.7321C44.0443 32.7321 44.1328 32.8047 44.2237 32.8961C44.3844 33.0507 44.4496 33.0882 44.4822 33.039C44.4892 33.0249 44.4263 32.9382 44.3424 32.8398C44.2586 32.7438 44.191 32.6547 44.191 32.6407C44.191 32.629 44.2539 32.568 44.3308 32.5095C44.4659 32.404 44.4892 32.3572 44.4053 32.3572C44.3844 32.3572 44.3448 32.3712 44.3191 32.3853Z" fill="#323232"/>
<path fill-rule="evenodd" clip-rule="evenodd" d="M44.9036 32.3989C44.8501 32.4622 44.6335 32.9449 44.6335 33.0058C44.6335 33.1018 44.7546 33.055 44.7919 32.9425C44.8175 32.8746 44.8221 32.8722 44.9689 32.8722C45.0923 32.8722 45.1319 32.8816 45.1691 32.9191C45.1948 32.9449 45.2157 32.9823 45.2157 33.0011C45.2157 33.0409 45.2833 33.0808 45.3275 33.0667C45.3415 33.0597 45.3555 33.0386 45.3555 33.0175C45.3555 32.9566 45.1039 32.42 45.0597 32.3849C45.0038 32.3451 44.9502 32.3497 44.9036 32.3989ZM45.0574 32.6403C45.0806 32.7199 45.0783 32.7387 45.0504 32.7574C45.0038 32.7855 44.9758 32.7832 44.9246 32.748C44.885 32.7176 44.885 32.7129 44.9362 32.6192C44.9665 32.5653 44.9991 32.5278 45.0084 32.5348C45.0201 32.5419 45.041 32.5887 45.0574 32.6403Z" fill="#323232"/>
<path fill-rule="evenodd" clip-rule="evenodd" d="M45.558 32.373C45.5487 32.38 45.5417 32.5347 45.5417 32.7127C45.5417 32.9869 45.5464 33.0407 45.579 33.0525C45.6349 33.0735 45.6652 33.0243 45.6768 32.8838L45.6861 32.7549H45.8072C45.8724 32.7549 45.9633 32.7479 46.0098 32.7408L46.0937 32.7268L46.1053 32.8838C46.1216 33.0735 46.1472 33.1063 46.2171 33.0361C46.266 32.9869 46.2683 32.9681 46.259 32.7034C46.2497 32.462 46.2427 32.4175 46.2055 32.3894C46.1426 32.3425 46.1053 32.387 46.096 32.5159L46.089 32.626H45.8911H45.6931L45.6815 32.5206C45.6745 32.462 45.6605 32.4011 45.6512 32.3847C45.6302 32.3542 45.5813 32.3472 45.558 32.373Z" fill="#323232"/>
<path fill-rule="evenodd" clip-rule="evenodd" d="M46.8043 32.385C46.8112 32.4014 46.8695 32.4201 46.9347 32.4271C46.9999 32.4342 47.0604 32.4482 47.0721 32.4599C47.0814 32.4693 47.0954 32.5982 47.0977 32.7434C47.1047 32.9332 47.1163 33.0176 47.1373 33.0363C47.1955 33.0855 47.2118 33.041 47.2258 32.7809C47.2421 32.4646 47.2584 32.4295 47.3818 32.4342C47.4796 32.4365 47.5123 32.4225 47.4866 32.3826C47.4633 32.3428 46.7926 32.3475 46.8043 32.385Z" fill="#323232"/>
<path fill-rule="evenodd" clip-rule="evenodd" d="M48.686 32.6688C48.686 33.0695 48.693 33.0835 48.9259 33.0835C49.0191 33.0835 49.1285 33.0741 49.1728 33.0601C49.3428 33.0109 49.408 32.8726 49.3218 32.7414C49.2892 32.6899 49.2869 32.6688 49.3125 32.6009C49.3451 32.5118 49.3242 32.4532 49.2403 32.3947C49.2007 32.3665 49.1262 32.3572 48.9376 32.3572H48.686V32.6688ZM49.0936 32.4603C49.1774 32.4978 49.2007 32.5563 49.1472 32.6102C49.1192 32.6383 48.9259 32.6477 48.863 32.6243C48.8188 32.6079 48.8141 32.4954 48.8537 32.4556C48.891 32.4181 48.9958 32.4204 49.0936 32.4603ZM49.1937 32.7953C49.2333 32.8492 49.2287 32.882 49.1774 32.9289C49.1192 32.9804 48.9725 33.0015 48.891 32.9687C48.8374 32.9476 48.8258 32.9289 48.8258 32.8609C48.8258 32.7977 48.8374 32.7719 48.8793 32.7555C48.9539 32.7227 49.1565 32.7508 49.1937 32.7953Z" fill="#323232"/>
<path fill-rule="evenodd" clip-rule="evenodd" d="M49.8203 32.3847C49.7598 32.4316 49.4943 33.015 49.5222 33.0431C49.5572 33.0783 49.6154 33.0455 49.6666 32.9541C49.7155 32.8721 49.7179 32.8721 49.8762 32.8721C50.0299 32.8721 50.0369 32.8744 50.0719 32.94C50.1184 33.0338 50.1999 33.09 50.2372 33.0572C50.2721 33.0267 50.2512 32.9611 50.0998 32.6331C49.981 32.3754 49.9135 32.3168 49.8203 32.3847ZM49.9391 32.6682C49.9484 32.7667 49.9088 32.7971 49.8296 32.7549C49.7691 32.7221 49.7691 32.7057 49.8296 32.6284C49.8925 32.5464 49.9298 32.5605 49.9391 32.6682Z" fill="#323232"/>
</svg>
