<svg width="87" height="56" viewBox="0 0 87 56" fill="none" xmlns="http://www.w3.org/2000/svg">
<path d="M45.0174 7.89607C48.8485 8.9762 52.3013 11.077 54.9939 13.9661C57.6866 16.8553 59.5141 20.4203 60.2746 24.2669C61.0351 28.1136 60.6989 32.0922 59.3031 35.7627C57.9073 39.4332 55.5064 42.6527 52.3657 45.0653L47.7089 39.2049C49.7503 37.6367 51.3109 35.544 52.2182 33.1582C53.1254 30.7724 53.344 28.1863 52.8497 25.686C52.3554 23.1856 51.1674 20.8684 49.4172 18.9904C47.667 17.1125 45.4227 15.747 42.9325 15.0449L45.0174 7.89607Z" fill="#FFCB45"/>
<path d="M52.3657 45.0653C48.7693 47.8279 44.3757 49.4002 39.8146 49.5568L39.5507 42.1244C42.5154 42.0226 45.3712 41.0006 47.7089 39.2049L52.3657 45.0653Z" fill="#972209"/>
<path d="M21.1441 16.4394C23.6961 12.7193 27.3805 9.88909 31.6691 8.35438C35.9577 6.81966 40.6303 6.65923 45.0174 7.89607L42.9325 15.0449C40.0809 14.241 37.0437 14.3452 34.2561 15.3428C31.4685 16.3404 29.0737 18.18 27.4148 20.5981L21.1441 16.4394Z" fill="#FFF2BF"/>
<path d="M39.8147 49.5568C35.8316 49.6935 31.8876 48.7446 28.4187 46.815C24.9498 44.8853 22.0912 42.0501 20.159 38.6228C18.2267 35.1954 17.2961 31.3094 17.4699 27.3945C17.6438 23.4795 18.9154 19.6881 21.1441 16.4394L27.4148 20.5981C25.9662 22.7097 25.1396 25.1742 25.0266 27.7189C24.9136 30.2636 25.5186 32.7895 26.7745 35.0173C28.0305 37.245 29.8886 39.0879 32.1433 40.3422C34.3981 41.5965 36.9617 42.2133 39.5508 42.1244L39.8147 49.5568Z" fill="#EEE0A8"/>
<path d="M54.4304 15.8644L56.9755 12.6471H67.5194" stroke="black" stroke-width="0.145684"/>
<path d="M23.8039 41.5904L21.2588 44.8077H10.7149" stroke="black" stroke-width="0.145684"/>
<path d="M3.03312 43.4211C2.76234 43.4211 2.54364 43.3407 2.37701 43.1801C2.21336 43.0194 2.13154 42.8066 2.13154 42.5418V41.1002C2.13154 40.8354 2.21336 40.6241 2.37701 40.4664C2.54364 40.3057 2.76234 40.2254 3.03312 40.2254C3.30686 40.2254 3.52556 40.3042 3.68922 40.4619C3.85584 40.6196 3.93916 40.8294 3.93916 41.0913V41.1314C3.93916 41.1612 3.92428 41.1761 3.89453 41.1761L3.6669 41.185C3.63714 41.185 3.62227 41.1716 3.62227 41.1448V41.0823C3.62227 40.9098 3.56722 40.7699 3.45713 40.6628C3.35001 40.5557 3.20867 40.5021 3.03312 40.5021C2.85756 40.5021 2.71622 40.5557 2.6091 40.6628C2.50199 40.7669 2.44843 40.9068 2.44843 41.0823V42.5641C2.44843 42.7397 2.50199 42.881 2.6091 42.9881C2.71622 43.0923 2.85756 43.1444 3.03312 43.1444C3.20867 43.1444 3.35001 43.0908 3.45713 42.9837C3.56722 42.8766 3.62227 42.7367 3.62227 42.5641V42.5016C3.62227 42.4749 3.63714 42.4615 3.6669 42.4615L3.89453 42.4749C3.92428 42.4749 3.93916 42.4897 3.93916 42.5195V42.5507C3.93916 42.8126 3.85584 43.0239 3.68922 43.1845C3.52556 43.3422 3.30686 43.4211 3.03312 43.4211ZM5.39582 43.4211C5.21432 43.4211 5.05364 43.3839 4.91379 43.3095C4.77692 43.2321 4.6698 43.125 4.59243 42.9881C4.51805 42.8513 4.48085 42.6936 4.48085 42.515V41.1359C4.48085 40.9574 4.51805 40.7997 4.59243 40.6628C4.6698 40.5229 4.77692 40.4158 4.91379 40.3414C5.05364 40.2641 5.21432 40.2254 5.39582 40.2254C5.57733 40.2254 5.73652 40.2641 5.87339 40.3414C6.01324 40.4158 6.12185 40.5229 6.19921 40.6628C6.27657 40.7997 6.31525 40.9574 6.31525 41.1359V42.515C6.31525 42.6936 6.27657 42.8513 6.19921 42.9881C6.12185 43.125 6.01324 43.2321 5.87339 43.3095C5.73652 43.3839 5.57733 43.4211 5.39582 43.4211ZM5.39582 43.1444C5.57733 43.1444 5.72313 43.0878 5.83322 42.9748C5.94332 42.8617 5.99836 42.7129 5.99836 42.5284V41.127C5.99836 40.9395 5.94332 40.7892 5.83322 40.6762C5.72313 40.5601 5.57733 40.5021 5.39582 40.5021C5.21729 40.5021 5.07298 40.5601 4.96289 40.6762C4.85279 40.7892 4.79774 40.9395 4.79774 41.127V42.5284C4.79774 42.7129 4.85279 42.8617 4.96289 42.9748C5.07298 43.0878 5.21729 43.1444 5.39582 43.1444ZM7.78841 43.4211C7.51764 43.4211 7.29894 43.3407 7.13231 43.1801C6.96866 43.0194 6.88683 42.8066 6.88683 42.5418V41.1002C6.88683 40.8354 6.96866 40.6241 7.13231 40.4664C7.29894 40.3057 7.51764 40.2254 7.78841 40.2254C8.06216 40.2254 8.28086 40.3042 8.44451 40.4619C8.61114 40.6196 8.69445 40.8294 8.69445 41.0913V41.1314C8.69445 41.1612 8.67958 41.1761 8.64982 41.1761L8.4222 41.185C8.39244 41.185 8.37756 41.1716 8.37756 41.1448V41.0823C8.37756 40.9098 8.32252 40.7699 8.21242 40.6628C8.1053 40.5557 7.96397 40.5021 7.78841 40.5021C7.61286 40.5021 7.47152 40.5557 7.3644 40.6628C7.25728 40.7669 7.20372 40.9068 7.20372 41.0823V42.5641C7.20372 42.7397 7.25728 42.881 7.3644 42.9881C7.47152 43.0923 7.61286 43.1444 7.78841 43.1444C7.96397 43.1444 8.1053 43.0908 8.21242 42.9837C8.32252 42.8766 8.37756 42.7367 8.37756 42.5641V42.5016C8.37756 42.4749 8.39244 42.4615 8.4222 42.4615L8.64982 42.4749C8.67958 42.4749 8.69445 42.4897 8.69445 42.5195V42.5507C8.69445 42.8126 8.61114 43.0239 8.44451 43.1845C8.28086 43.3422 8.06216 43.4211 7.78841 43.4211ZM10.1511 43.4211C9.96961 43.4211 9.80893 43.3839 9.66909 43.3095C9.53221 43.2321 9.42509 43.125 9.34773 42.9881C9.27334 42.8513 9.23615 42.6936 9.23615 42.515V41.1359C9.23615 40.9574 9.27334 40.7997 9.34773 40.6628C9.42509 40.5229 9.53221 40.4158 9.66909 40.3414C9.80893 40.2641 9.96961 40.2254 10.1511 40.2254C10.3326 40.2254 10.4918 40.2641 10.6287 40.3414C10.7685 40.4158 10.8771 40.5229 10.9545 40.6628C11.0319 40.7997 11.0706 40.9574 11.0706 41.1359V42.515C11.0706 42.6936 11.0319 42.8513 10.9545 42.9881C10.8771 43.125 10.7685 43.2321 10.6287 43.3095C10.4918 43.3839 10.3326 43.4211 10.1511 43.4211ZM10.1511 43.1444C10.3326 43.1444 10.4784 43.0878 10.5885 42.9748C10.6986 42.8617 10.7537 42.7129 10.7537 42.5284V41.127C10.7537 40.9395 10.6986 40.7892 10.5885 40.6762C10.4784 40.5601 10.3326 40.5021 10.1511 40.5021C9.97259 40.5021 9.82828 40.5601 9.71818 40.6762C9.60809 40.7892 9.55304 40.9395 9.55304 41.127V42.5284C9.55304 42.7129 9.60809 42.8617 9.71818 42.9748C9.82828 43.0878 9.97259 43.1444 10.1511 43.1444ZM13.2801 40.3057C13.2801 40.276 13.295 40.2611 13.3248 40.2611H13.5524C13.5822 40.2611 13.597 40.276 13.597 40.3057V43.3407C13.597 43.3705 13.5822 43.3854 13.5524 43.3854H13.3114C13.2846 43.3854 13.2668 43.375 13.2578 43.3541L12.0617 40.9663C12.0557 40.9603 12.0498 40.9574 12.0438 40.9574C12.0408 40.9574 12.0394 40.9618 12.0394 40.9707L12.0438 43.3407C12.0438 43.3705 12.0289 43.3854 11.9992 43.3854H11.7716C11.7418 43.3854 11.7269 43.3705 11.7269 43.3407V40.3057C11.7269 40.276 11.7418 40.2611 11.7716 40.2611H12.0126C12.0394 40.2611 12.0572 40.2715 12.0661 40.2923L13.2623 42.6891C13.2682 42.6951 13.2727 42.698 13.2757 42.698C13.2816 42.698 13.2846 42.6936 13.2846 42.6846L13.2801 40.3057ZM15.2215 43.4211C15.04 43.4211 14.8793 43.3824 14.7395 43.305C14.6026 43.2277 14.4955 43.1191 14.4181 42.9792C14.3437 42.8394 14.3065 42.6772 14.3065 42.4927V40.3057C14.3065 40.276 14.3214 40.2611 14.3512 40.2611H14.5788C14.6085 40.2611 14.6234 40.276 14.6234 40.3057V42.5106C14.6234 42.701 14.6785 42.8542 14.7886 42.9703C14.8987 43.0863 15.043 43.1444 15.2215 43.1444C15.4 43.1444 15.5443 43.0863 15.6544 42.9703C15.7645 42.8542 15.8196 42.701 15.8196 42.5106V40.3057C15.8196 40.276 15.8344 40.2611 15.8642 40.2611H16.0918C16.1216 40.2611 16.1365 40.276 16.1365 40.3057V42.4927C16.1365 42.6772 16.0978 42.8394 16.0204 42.9792C15.946 43.1191 15.8389 43.2277 15.6991 43.305C15.5622 43.3824 15.403 43.4211 15.2215 43.4211ZM18.4686 40.2611C18.4984 40.2611 18.5133 40.276 18.5133 40.3057V40.4932C18.5133 40.5229 18.4984 40.5378 18.4686 40.5378H17.7411C17.7292 40.5378 17.7233 40.5438 17.7233 40.5557V43.3407C17.7233 43.3705 17.7084 43.3854 17.6786 43.3854H17.451C17.4212 43.3854 17.4064 43.3705 17.4064 43.3407V40.5557C17.4064 40.5438 17.4004 40.5378 17.3885 40.5378H16.6878C16.658 40.5378 16.6431 40.5229 16.6431 40.4932V40.3057C16.6431 40.276 16.658 40.2611 16.6878 40.2611H18.4686ZM2.97063 48.4211C2.69093 48.4211 2.46777 48.3482 2.30114 48.2024C2.13749 48.0536 2.05566 47.8557 2.05566 47.6088V47.4883C2.05566 47.4585 2.07054 47.4436 2.10029 47.4436H2.31899C2.34875 47.4436 2.36363 47.4585 2.36363 47.4883V47.5909C2.36363 47.7575 2.42016 47.8914 2.53323 47.9926C2.6463 48.0938 2.79656 48.1444 2.98402 48.1444C3.15957 48.1444 3.29794 48.0968 3.3991 48.0015C3.50027 47.9063 3.55085 47.7813 3.55085 47.6266C3.55085 47.5255 3.52705 47.4377 3.47944 47.3633C3.43183 47.2889 3.36191 47.2205 3.26967 47.158C3.17743 47.0955 3.04502 47.0166 2.87244 46.9214C2.68796 46.8232 2.54216 46.7369 2.43504 46.6626C2.33089 46.5882 2.24609 46.4974 2.18063 46.3903C2.11517 46.2832 2.08244 46.1523 2.08244 45.9975C2.08244 45.7565 2.1598 45.5676 2.31453 45.4307C2.46926 45.2938 2.67605 45.2254 2.93492 45.2254C3.21165 45.2254 3.43183 45.3013 3.59549 45.453C3.75914 45.6048 3.84097 45.8056 3.84097 46.0556V46.1582C3.84097 46.188 3.82609 46.2028 3.79633 46.2028H3.57317C3.54342 46.2028 3.52854 46.188 3.52854 46.1582V46.06C3.52854 45.8934 3.47498 45.7595 3.36786 45.6583C3.26074 45.5542 3.11345 45.5021 2.926 45.5021C2.75937 45.5021 2.62845 45.5453 2.53323 45.6315C2.44099 45.7178 2.39487 45.8398 2.39487 45.9975C2.39487 46.0987 2.41718 46.1835 2.46182 46.2519C2.50645 46.3204 2.57042 46.3829 2.65374 46.4394C2.74003 46.4959 2.87095 46.5718 3.0465 46.667C3.24884 46.7801 3.40357 46.8768 3.51068 46.9571C3.62078 47.0345 3.70707 47.1252 3.76955 47.2294C3.83502 47.3306 3.86775 47.4555 3.86775 47.6043C3.86775 47.8542 3.78741 48.0536 3.62673 48.2024C3.46605 48.3482 3.24735 48.4211 2.97063 48.4211ZM5.90746 45.3057C5.90746 45.276 5.92234 45.2611 5.95209 45.2611H6.17972C6.20947 45.2611 6.22435 45.276 6.22435 45.3057V48.3407C6.22435 48.3705 6.20947 48.3854 6.17972 48.3854H5.95209C5.92234 48.3854 5.90746 48.3705 5.90746 48.3407V46.975C5.90746 46.9631 5.90151 46.9571 5.88961 46.9571H4.78272C4.77081 46.9571 4.76486 46.9631 4.76486 46.975V48.3407C4.76486 48.3705 4.74998 48.3854 4.72023 48.3854H4.4926C4.46285 48.3854 4.44797 48.3705 4.44797 48.3407V45.3057C4.44797 45.276 4.46285 45.2611 4.4926 45.2611H4.72023C4.74998 45.2611 4.76486 45.276 4.76486 45.3057V46.6626C4.76486 46.6745 4.77081 46.6804 4.78272 46.6804H5.88961C5.90151 46.6804 5.90746 46.6745 5.90746 46.6626V45.3057ZM8.4934 48.3854C8.46662 48.3854 8.45025 48.372 8.4443 48.3452L8.29701 47.7873C8.29404 47.7784 8.2866 47.7739 8.2747 47.7739H7.20798C7.19608 47.7739 7.18864 47.7784 7.18566 47.7873L7.03837 48.3452C7.03242 48.372 7.01606 48.3854 6.98928 48.3854H6.75719C6.74231 48.3854 6.73041 48.3809 6.72148 48.372C6.71553 48.3631 6.71404 48.3512 6.71702 48.3363L7.55165 45.3013C7.5576 45.2745 7.57397 45.2611 7.60075 45.2611H7.88639C7.91317 45.2611 7.92954 45.2745 7.93549 45.3013L8.77012 48.3363L8.77458 48.3497C8.77458 48.3735 8.75971 48.3854 8.72995 48.3854H8.4934ZM7.26154 47.4972C7.25856 47.5002 7.25856 47.5046 7.26154 47.5106C7.26749 47.5136 7.27344 47.515 7.27939 47.515H8.20329C8.20924 47.515 8.2137 47.5136 8.21668 47.5106C8.22263 47.5046 8.22411 47.5002 8.22114 47.4972L7.74803 45.703C7.74506 45.697 7.74208 45.694 7.73911 45.694C7.73613 45.694 7.73316 45.697 7.73018 45.703L7.26154 47.4972ZM9.29149 48.3854C9.26173 48.3854 9.24685 48.3705 9.24685 48.3407V45.3057C9.24685 45.276 9.26173 45.2611 9.29149 45.2611H9.51911C9.54887 45.2611 9.56375 45.276 9.56375 45.3057V46.7875C9.56375 46.7935 9.56672 46.7979 9.57267 46.8009C9.57862 46.8009 9.58309 46.7979 9.58606 46.792L10.7197 45.2879C10.7316 45.27 10.751 45.2611 10.7778 45.2611H11.0277C11.0455 45.2611 11.0575 45.267 11.0634 45.2789C11.0694 45.2879 11.0664 45.2998 11.0545 45.3146L10.1618 46.5376C10.1588 46.5465 10.1588 46.5554 10.1618 46.5644L11.1348 48.3318C11.1408 48.3437 11.1437 48.3526 11.1437 48.3586C11.1437 48.3764 11.1304 48.3854 11.1036 48.3854H10.8447C10.8179 48.3854 10.8001 48.375 10.7911 48.3541L9.94312 46.8143C9.93717 46.7994 9.92973 46.7994 9.92081 46.8143L9.57267 47.2562C9.56672 47.2621 9.56375 47.2696 9.56375 47.2785V48.3407C9.56375 48.3705 9.54887 48.3854 9.51911 48.3854H9.29149ZM13.3363 45.4932C13.3363 45.5229 13.3214 45.5378 13.2917 45.5378H11.9527C11.9408 45.5378 11.9349 45.5438 11.9349 45.5557V46.6626C11.9349 46.6745 11.9408 46.6804 11.9527 46.6804H12.8543C12.884 46.6804 12.8989 46.6953 12.8989 46.725V46.9125C12.8989 46.9423 12.884 46.9571 12.8543 46.9571H11.9527C11.9408 46.9571 11.9349 46.9631 11.9349 46.975V48.0908C11.9349 48.1027 11.9408 48.1087 11.9527 48.1087H13.2917C13.3214 48.1087 13.3363 48.1235 13.3363 48.1533V48.3407C13.3363 48.3705 13.3214 48.3854 13.2917 48.3854H11.6626C11.6328 48.3854 11.618 48.3705 11.618 48.3407V45.3057C11.618 45.276 11.6328 45.2611 11.6626 45.2611H13.2917C13.3214 45.2611 13.3363 45.276 13.3363 45.3057V45.4932ZM16.1607 46.9036C16.2172 47.0583 16.2455 47.2353 16.2455 47.4347C16.2455 47.6132 16.2231 47.768 16.1785 47.8989C16.0684 48.247 15.8244 48.4211 15.4465 48.4211C15.2442 48.4211 15.0746 48.3675 14.9377 48.2604C14.8009 48.1503 14.7131 48 14.6744 47.8096C14.6536 47.7144 14.6432 47.6058 14.6432 47.4838C14.6432 47.454 14.658 47.4392 14.6878 47.4392H14.9154C14.9452 47.4392 14.96 47.454 14.96 47.4838C14.966 47.6117 14.9734 47.698 14.9824 47.7427C15.0091 47.8676 15.0627 47.9658 15.143 48.0372C15.2234 48.1087 15.3245 48.1444 15.4465 48.1444C15.6757 48.1444 15.8244 48.0283 15.8929 47.7962C15.9196 47.6891 15.933 47.5612 15.933 47.4124C15.933 47.2339 15.9137 47.0866 15.875 46.9705C15.7976 46.7622 15.6548 46.6581 15.4465 46.6581C15.3989 46.6581 15.3573 46.667 15.3216 46.6849C15.3037 46.6908 15.2933 46.6938 15.2903 46.6938C15.2784 46.6938 15.268 46.6878 15.2591 46.6759L15.143 46.5554C15.1282 46.5346 15.1267 46.5138 15.1386 46.493L15.8348 45.5601C15.8408 45.5542 15.8423 45.5497 15.8393 45.5467C15.8363 45.5408 15.8319 45.5378 15.8259 45.5378H14.7101C14.6803 45.5378 14.6655 45.5229 14.6655 45.4932V45.3057C14.6655 45.276 14.6803 45.2611 14.7101 45.2611H16.1874C16.2172 45.2611 16.2321 45.276 16.2321 45.3057V45.5066C16.2321 45.5304 16.2261 45.5497 16.2142 45.5646L15.567 46.4483C15.5641 46.4513 15.5641 46.4558 15.567 46.4617C15.57 46.4677 15.5745 46.4706 15.5804 46.4706C15.7203 46.4766 15.8393 46.5168 15.9375 46.5911C16.0357 46.6655 16.1101 46.7697 16.1607 46.9036ZM18.316 46.9437C18.3547 47.0836 18.3741 47.2443 18.3741 47.4258C18.3741 47.5775 18.3607 47.7084 18.3339 47.8185C18.2893 48.0119 18.2 48.1607 18.0661 48.2649C17.9352 48.369 17.77 48.4211 17.5707 48.4211C17.3683 48.4211 17.2002 48.3675 17.0663 48.2604C16.9324 48.1533 16.8446 48.003 16.803 47.8096C16.7881 47.7561 16.7792 47.701 16.7762 47.6445V47.6355C16.7762 47.6117 16.7896 47.5998 16.8164 47.5998H17.0485C17.0752 47.5998 17.0901 47.6117 17.0931 47.6355V47.6534L17.111 47.7427C17.1377 47.8706 17.1898 47.9688 17.2672 48.0372C17.3475 48.1057 17.4487 48.1399 17.5707 48.1399C17.6897 48.1399 17.7879 48.1057 17.8652 48.0372C17.9456 47.9658 17.9991 47.8661 18.0259 47.7382C18.0468 47.6549 18.0572 47.5522 18.0572 47.4302C18.0572 47.3172 18.0453 47.2011 18.0215 47.0821C17.9947 46.9631 17.9426 46.8738 17.8652 46.8143C17.7879 46.7518 17.6897 46.7206 17.5707 46.7206C17.4576 46.7206 17.3594 46.7474 17.2761 46.8009C17.1958 46.8515 17.1392 46.9259 17.1065 47.0241L17.0976 47.0419C17.0946 47.0628 17.0797 47.0732 17.0529 47.0732H16.8164C16.7866 47.0732 16.7717 47.0583 16.7717 47.0285V45.3057C16.7717 45.276 16.7866 45.2611 16.8164 45.2611H18.2312C18.261 45.2611 18.2759 45.276 18.2759 45.3057V45.4932C18.2759 45.5229 18.261 45.5378 18.2312 45.5378H17.1065C17.0946 45.5378 17.0886 45.5438 17.0886 45.5557V46.6492C17.0886 46.6551 17.0901 46.6596 17.0931 46.6626C17.0991 46.6626 17.105 46.6596 17.111 46.6536C17.1705 46.5882 17.2449 46.5376 17.3341 46.5019C17.4264 46.4632 17.5246 46.4439 17.6287 46.4439C17.8042 46.4439 17.95 46.487 18.0661 46.5733C18.1851 46.6566 18.2684 46.7801 18.316 46.9437ZM19.5699 46.4885C19.4539 46.4885 19.3468 46.4602 19.2486 46.4037C19.1534 46.3472 19.0775 46.2713 19.021 46.1761C18.9644 46.0779 18.9362 45.9707 18.9362 45.8547C18.9362 45.7387 18.9644 45.633 19.021 45.5378C19.0775 45.4396 19.1534 45.3623 19.2486 45.3057C19.3468 45.2492 19.4539 45.2209 19.5699 45.2209C19.683 45.2209 19.7871 45.2492 19.8824 45.3057C19.9806 45.3623 20.0579 45.4396 20.1145 45.5378C20.171 45.633 20.1993 45.7387 20.1993 45.8547C20.1993 45.9707 20.171 46.0779 20.1145 46.1761C20.0579 46.2713 19.9806 46.3472 19.8824 46.4037C19.7871 46.4602 19.683 46.4885 19.5699 46.4885ZM19.4673 48.3854C19.4524 48.3854 19.4405 48.3809 19.4316 48.372C19.4256 48.3601 19.4271 48.3467 19.436 48.3318L21.0964 45.2923C21.1053 45.2715 21.1232 45.2611 21.1499 45.2611H21.2928C21.3076 45.2611 21.318 45.267 21.324 45.2789C21.3329 45.2879 21.3329 45.2998 21.324 45.3146L19.6637 48.3541C19.6547 48.375 19.6369 48.3854 19.6101 48.3854H19.4673ZM19.5699 46.2921C19.689 46.2921 19.7886 46.2504 19.869 46.1671C19.9523 46.0808 19.9939 45.9767 19.9939 45.8547C19.9939 45.7327 19.9523 45.6301 19.869 45.5467C19.7886 45.4604 19.689 45.4173 19.5699 45.4173C19.4509 45.4173 19.3497 45.4604 19.2664 45.5467C19.1831 45.6301 19.1415 45.7327 19.1415 45.8547C19.1415 45.9767 19.1831 46.0808 19.2664 46.1671C19.3497 46.2504 19.4509 46.2921 19.5699 46.2921ZM21.208 48.4255C21.0919 48.4255 20.9848 48.3973 20.8866 48.3407C20.7914 48.2842 20.7155 48.2068 20.659 48.1087C20.6024 48.0105 20.5742 47.9033 20.5742 47.7873C20.5742 47.6742 20.6024 47.5701 20.659 47.4749C20.7155 47.3767 20.7914 47.2993 20.8866 47.2428C20.9848 47.1862 21.0919 47.158 21.208 47.158C21.321 47.158 21.4252 47.1862 21.5204 47.2428C21.6186 47.2993 21.6959 47.3767 21.7525 47.4749C21.809 47.5701 21.8373 47.6742 21.8373 47.7873C21.8373 47.9033 21.809 48.0105 21.7525 48.1087C21.6959 48.2068 21.6186 48.2842 21.5204 48.3407C21.4252 48.3973 21.321 48.4255 21.208 48.4255ZM21.208 48.2292C21.327 48.2292 21.4267 48.186 21.507 48.0997C21.5903 48.0134 21.632 47.9093 21.632 47.7873C21.632 47.6653 21.5903 47.5626 21.507 47.4793C21.4267 47.396 21.327 47.3544 21.208 47.3544C21.0889 47.3544 20.9878 47.396 20.9045 47.4793C20.8211 47.5626 20.7795 47.6653 20.7795 47.7873C20.7795 47.9123 20.8197 48.0179 20.9 48.1042C20.9833 48.1875 21.086 48.2292 21.208 48.2292Z" fill="#404040"/>
<path d="M60.1008 7.85392C60.3388 7.85392 60.5307 7.93425 60.6765 8.09493C60.8253 8.25263 60.8997 8.46241 60.8997 8.72425C60.8997 8.98312 60.8253 9.19141 60.6765 9.34911C60.5307 9.50384 60.3388 9.5812 60.1008 9.5812H59.4358C59.4239 9.5812 59.4179 9.58715 59.4179 9.59905V10.938C59.4179 10.9678 59.403 10.9827 59.3733 10.9827H59.1456C59.1159 10.9827 59.101 10.9678 59.101 10.938V7.89855C59.101 7.86879 59.1159 7.85392 59.1456 7.85392H60.1008ZM60.0606 9.31787C60.2183 9.31787 60.3448 9.26431 60.44 9.15719C60.5352 9.05007 60.5828 8.90725 60.5828 8.72872C60.5828 8.54721 60.5352 8.4029 60.44 8.29578C60.3448 8.18569 60.2183 8.13064 60.0606 8.13064H59.4358C59.4239 8.13064 59.4179 8.13659 59.4179 8.14849V9.30001C59.4179 9.31192 59.4239 9.31787 59.4358 9.31787H60.0606ZM61.4692 10.9827C61.4395 10.9827 61.4246 10.9678 61.4246 10.938V7.90301C61.4246 7.87326 61.4395 7.85838 61.4692 7.85838H61.6969C61.7266 7.85838 61.7415 7.87326 61.7415 7.90301V10.938C61.7415 10.9678 61.7266 10.9827 61.6969 10.9827H61.4692ZM64.037 7.90301C64.037 7.87326 64.0518 7.85838 64.0816 7.85838H64.3092C64.339 7.85838 64.3539 7.87326 64.3539 7.90301V10.938C64.3539 10.9678 64.339 10.9827 64.3092 10.9827H64.0682C64.0414 10.9827 64.0236 10.9723 64.0146 10.9514L62.8185 8.56358C62.8125 8.55762 62.8066 8.55465 62.8006 8.55465C62.7977 8.55465 62.7962 8.55911 62.7962 8.56804L62.8006 10.938C62.8006 10.9678 62.7858 10.9827 62.756 10.9827H62.5284C62.4986 10.9827 62.4837 10.9678 62.4837 10.938V7.90301C62.4837 7.87326 62.4986 7.85838 62.5284 7.85838H62.7694C62.7962 7.85838 62.814 7.86879 62.823 7.88962L64.0191 10.2864C64.0251 10.2923 64.0295 10.2953 64.0325 10.2953C64.0385 10.2953 64.0414 10.2909 64.0414 10.2819L64.037 7.90301ZM66.7824 8.09047C66.7824 8.12022 66.7676 8.1351 66.7378 8.1351H65.3988C65.3869 8.1351 65.381 8.14105 65.381 8.15296V9.25985C65.381 9.27175 65.3869 9.2777 65.3988 9.2777H66.3004C66.3302 9.2777 66.345 9.29258 66.345 9.32233V9.50979C66.345 9.53954 66.3302 9.55442 66.3004 9.55442H65.3988C65.3869 9.55442 65.381 9.56037 65.381 9.57227V10.6881C65.381 10.7 65.3869 10.7059 65.3988 10.7059H66.7378C66.7676 10.7059 66.7824 10.7208 66.7824 10.7506V10.938C66.7824 10.9678 66.7676 10.9827 66.7378 10.9827H65.1087C65.079 10.9827 65.0641 10.9678 65.0641 10.938V7.90301C65.0641 7.87326 65.079 7.85838 65.1087 7.85838H66.7378C66.7676 7.85838 66.7824 7.87326 66.7824 7.90301V8.09047ZM68.9352 10.9827C68.9084 10.9827 68.892 10.9693 68.8861 10.9425L68.7388 10.3846C68.7358 10.3757 68.7284 10.3712 68.7165 10.3712H67.6497C67.6378 10.3712 67.6304 10.3757 67.6274 10.3846L67.4801 10.9425C67.4742 10.9693 67.4578 10.9827 67.431 10.9827H67.1989C67.1841 10.9827 67.1722 10.9782 67.1632 10.9693C67.1573 10.9603 67.1558 10.9484 67.1588 10.9336L67.9934 7.89855C67.9994 7.87177 68.0157 7.85838 68.0425 7.85838H68.3282C68.3549 7.85838 68.3713 7.87177 68.3772 7.89855L69.2119 10.9336L69.2163 10.947C69.2163 10.9708 69.2015 10.9827 69.1717 10.9827H68.9352ZM67.7033 10.0945C67.7003 10.0975 67.7003 10.1019 67.7033 10.1079C67.7092 10.1108 67.7152 10.1123 67.7211 10.1123H68.645C68.651 10.1123 68.6555 10.1108 68.6584 10.1079C68.6644 10.1019 68.6659 10.0975 68.6629 10.0945L68.1898 8.30024C68.1868 8.29429 68.1838 8.29132 68.1809 8.29132C68.1779 8.29132 68.1749 8.29429 68.1719 8.30024L67.7033 10.0945ZM70.6705 7.85392C70.9086 7.85392 71.1005 7.93425 71.2463 8.09493C71.3951 8.25263 71.4695 8.46241 71.4695 8.72425C71.4695 8.98312 71.3951 9.19141 71.2463 9.34911C71.1005 9.50384 70.9086 9.5812 70.6705 9.5812H70.0055C69.9936 9.5812 69.9877 9.58715 69.9877 9.59905V10.938C69.9877 10.9678 69.9728 10.9827 69.943 10.9827H69.7154C69.6856 10.9827 69.6708 10.9678 69.6708 10.938V7.89855C69.6708 7.86879 69.6856 7.85392 69.7154 7.85392H70.6705ZM70.6304 9.31787C70.7881 9.31787 70.9145 9.26431 71.0097 9.15719C71.105 9.05007 71.1526 8.90725 71.1526 8.72872C71.1526 8.54721 71.105 8.4029 71.0097 8.29578C70.9145 8.18569 70.7881 8.13064 70.6304 8.13064H70.0055C69.9936 8.13064 69.9877 8.13659 69.9877 8.14849V9.30001C69.9877 9.31192 69.9936 9.31787 70.0055 9.31787H70.6304ZM72.9763 7.85392C73.2143 7.85392 73.4062 7.93425 73.552 8.09493C73.7008 8.25263 73.7752 8.46241 73.7752 8.72425C73.7752 8.98312 73.7008 9.19141 73.552 9.34911C73.4062 9.50384 73.2143 9.5812 72.9763 9.5812H72.3112C72.2993 9.5812 72.2934 9.58715 72.2934 9.59905V10.938C72.2934 10.9678 72.2785 10.9827 72.2487 10.9827H72.0211C71.9914 10.9827 71.9765 10.9678 71.9765 10.938V7.89855C71.9765 7.86879 71.9914 7.85392 72.0211 7.85392H72.9763ZM72.9361 9.31787C73.0938 9.31787 73.2203 9.26431 73.3155 9.15719C73.4107 9.05007 73.4583 8.90725 73.4583 8.72872C73.4583 8.54721 73.4107 8.4029 73.3155 8.29578C73.2203 8.18569 73.0938 8.13064 72.9361 8.13064H72.3112C72.2993 8.13064 72.2934 8.13659 72.2934 8.14849V9.30001C72.2934 9.31192 72.2993 9.31787 72.3112 9.31787H72.9361ZM74.3447 10.9827C74.3149 10.9827 74.3001 10.9678 74.3001 10.938V7.90301C74.3001 7.87326 74.3149 7.85838 74.3447 7.85838H74.5723C74.6021 7.85838 74.617 7.87326 74.617 7.90301V10.6881C74.617 10.7 74.6229 10.7059 74.6348 10.7059H75.9336C75.9634 10.7059 75.9783 10.7208 75.9783 10.7506V10.938C75.9783 10.9678 75.9634 10.9827 75.9336 10.9827H74.3447ZM78.1716 8.09047C78.1716 8.12022 78.1567 8.1351 78.127 8.1351H76.788C76.7761 8.1351 76.7701 8.14105 76.7701 8.15296V9.25985C76.7701 9.27175 76.7761 9.2777 76.788 9.2777H77.6896C77.7193 9.2777 77.7342 9.29258 77.7342 9.32233V9.50979C77.7342 9.53954 77.7193 9.55442 77.6896 9.55442H76.788C76.7761 9.55442 76.7701 9.56037 76.7701 9.57227V10.6881C76.7701 10.7 76.7761 10.7059 76.788 10.7059H78.127C78.1567 10.7059 78.1716 10.7208 78.1716 10.7506V10.938C78.1716 10.9678 78.1567 10.9827 78.127 10.9827H76.4979C76.4681 10.9827 76.4532 10.9678 76.4532 10.938V7.90301C76.4532 7.87326 76.4681 7.85838 76.4979 7.85838H78.127C78.1567 7.85838 78.1716 7.87326 78.1716 7.90301V8.09047ZM60.6498 15.9827C60.626 15.9827 60.6096 15.9708 60.6007 15.947L60.0472 14.5678C60.0442 14.5589 60.0383 14.5544 60.0294 14.5544H59.4536C59.4417 14.5544 59.4358 14.5604 59.4358 14.5723V15.938C59.4358 15.9678 59.4209 15.9827 59.3911 15.9827H59.1635C59.1337 15.9827 59.1189 15.9678 59.1189 15.938V12.903C59.1189 12.8733 59.1337 12.8584 59.1635 12.8584H60.1097C60.2644 12.8584 60.4013 12.8941 60.5203 12.9655C60.6423 13.0369 60.7361 13.1381 60.8015 13.269C60.87 13.3999 60.9042 13.5502 60.9042 13.7198C60.9042 13.9221 60.8551 14.0947 60.7569 14.2375C60.6587 14.3804 60.5248 14.4756 60.3552 14.5232C60.3433 14.5291 60.3403 14.5366 60.3463 14.5455L60.922 15.9291L60.9265 15.947C60.9265 15.9708 60.9131 15.9827 60.8863 15.9827H60.6498ZM59.4536 13.1351C59.4417 13.1351 59.4358 13.1411 59.4358 13.153V14.2822C59.4358 14.2941 59.4417 14.3 59.4536 14.3H60.0695C60.2243 14.3 60.3492 14.2465 60.4445 14.1393C60.5397 14.0322 60.5873 13.8924 60.5873 13.7198C60.5873 13.5442 60.5397 13.4029 60.4445 13.2958C60.3492 13.1887 60.2243 13.1351 60.0695 13.1351H59.4536ZM61.5215 15.9827C61.4918 15.9827 61.4769 15.9678 61.4769 15.938V12.903C61.4769 12.8733 61.4918 12.8584 61.5215 12.8584H61.7492C61.7789 12.8584 61.7938 12.8733 61.7938 12.903V15.938C61.7938 15.9678 61.7789 15.9827 61.7492 15.9827H61.5215ZM64.0893 12.903C64.0893 12.8733 64.1041 12.8584 64.1339 12.8584H64.3615C64.3913 12.8584 64.4062 12.8733 64.4062 12.903V15.938C64.4062 15.9678 64.3913 15.9827 64.3615 15.9827H64.1205C64.0937 15.9827 64.0759 15.9723 64.067 15.9514L62.8708 13.5636C62.8648 13.5576 62.8589 13.5546 62.8529 13.5546C62.85 13.5546 62.8485 13.5591 62.8485 13.568L62.8529 15.938C62.8529 15.9678 62.8381 15.9827 62.8083 15.9827H62.5807C62.5509 15.9827 62.5361 15.9678 62.5361 15.938V12.903C62.5361 12.8733 62.5509 12.8584 62.5807 12.8584H62.8217C62.8485 12.8584 62.8663 12.8688 62.8753 12.8896L64.0714 15.2864C64.0774 15.2923 64.0818 15.2953 64.0848 15.2953C64.0908 15.2953 64.0937 15.2909 64.0937 15.2819L64.0893 12.903ZM65.9637 16.0184C65.6929 16.0184 65.4742 15.9395 65.3076 15.7818C65.1439 15.6241 65.0621 15.4143 65.0621 15.1525V13.6885C65.0621 13.4267 65.1439 13.2169 65.3076 13.0592C65.4742 12.9015 65.6929 12.8227 65.9637 12.8227C66.1422 12.8227 66.2984 12.8584 66.4323 12.9298C66.5692 13.0012 66.6748 13.1009 66.7492 13.2288C66.8266 13.3568 66.8652 13.5041 66.8652 13.6707V13.7957C66.8652 13.8254 66.8504 13.8403 66.8206 13.8403H66.593C66.5632 13.8403 66.5484 13.8254 66.5484 13.7957V13.6707C66.5484 13.5011 66.4948 13.3642 66.3877 13.2601C66.2806 13.153 66.1392 13.0994 65.9637 13.0994C65.7881 13.0994 65.6468 13.153 65.5397 13.2601C65.4325 13.3642 65.379 13.5041 65.379 13.6796V15.1614C65.379 15.334 65.4325 15.4739 65.5397 15.581C65.6498 15.6881 65.7926 15.7416 65.9681 15.7416C66.1437 15.7416 66.2835 15.6911 66.3877 15.5899C66.4948 15.4887 66.5484 15.3519 66.5484 15.1793V14.6928C66.5484 14.6809 66.5424 14.6749 66.5305 14.6749H66.0083C65.9785 14.6749 65.9637 14.6601 65.9637 14.6303V14.4428C65.9637 14.4131 65.9785 14.3982 66.0083 14.3982H66.8206C66.8504 14.3982 66.8652 14.4131 66.8652 14.4428V15.1391C66.8652 15.4099 66.7834 15.6241 66.6198 15.7818C66.4561 15.9395 66.2374 16.0184 65.9637 16.0184ZM69.7593 14.5009C69.8159 14.6556 69.8441 14.8326 69.8441 15.032C69.8441 15.2105 69.8218 15.3652 69.7772 15.4962C69.6671 15.8443 69.4231 16.0184 69.0452 16.0184C68.8429 16.0184 68.6733 15.9648 68.5364 15.8577C68.3995 15.7476 68.3117 15.5973 68.2731 15.4069C68.2522 15.3117 68.2418 15.2031 68.2418 15.0811C68.2418 15.0513 68.2567 15.0365 68.2864 15.0365H68.5141C68.5438 15.0365 68.5587 15.0513 68.5587 15.0811C68.5647 15.209 68.5721 15.2953 68.581 15.34C68.6078 15.4649 68.6614 15.5631 68.7417 15.6345C68.822 15.7059 68.9232 15.7416 69.0452 15.7416C69.2743 15.7416 69.4231 15.6256 69.4915 15.3935C69.5183 15.2864 69.5317 15.1584 69.5317 15.0097C69.5317 14.8311 69.5124 14.6839 69.4737 14.5678C69.3963 14.3595 69.2535 14.2554 69.0452 14.2554C68.9976 14.2554 68.9559 14.2643 68.9202 14.2822C68.9024 14.2881 68.892 14.2911 68.889 14.2911C68.8771 14.2911 68.8667 14.2851 68.8577 14.2732L68.7417 14.1527C68.7268 14.1319 68.7253 14.1111 68.7372 14.0902L69.4335 13.1574C69.4395 13.1515 69.4409 13.147 69.438 13.144C69.435 13.1381 69.4305 13.1351 69.4246 13.1351H68.3088C68.279 13.1351 68.2641 13.1202 68.2641 13.0905V12.903C68.2641 12.8733 68.279 12.8584 68.3088 12.8584H69.7861C69.8159 12.8584 69.8307 12.8733 69.8307 12.903V13.1039C69.8307 13.1277 69.8248 13.147 69.8129 13.1619L69.1657 14.0456C69.1627 14.0486 69.1627 14.053 69.1657 14.059C69.1687 14.0649 69.1732 14.0679 69.1791 14.0679C69.319 14.0739 69.438 14.114 69.5362 14.1884C69.6344 14.2628 69.7087 14.367 69.7593 14.5009ZM71.9147 14.541C71.9534 14.6809 71.9727 14.8416 71.9727 15.0231C71.9727 15.1748 71.9593 15.3057 71.9326 15.4158C71.8879 15.6092 71.7987 15.758 71.6648 15.8622C71.5338 15.9663 71.3687 16.0184 71.1693 16.0184C70.967 16.0184 70.7989 15.9648 70.665 15.8577C70.5311 15.7506 70.4433 15.6003 70.4017 15.4069C70.3868 15.3533 70.3778 15.2983 70.3749 15.2418V15.2328C70.3749 15.209 70.3883 15.1971 70.415 15.1971H70.6471C70.6739 15.1971 70.6888 15.209 70.6918 15.2328V15.2507L70.7096 15.34C70.7364 15.4679 70.7885 15.5661 70.8658 15.6345C70.9462 15.703 71.0473 15.7372 71.1693 15.7372C71.2884 15.7372 71.3865 15.703 71.4639 15.6345C71.5442 15.5631 71.5978 15.4634 71.6246 15.3355C71.6454 15.2522 71.6558 15.1495 71.6558 15.0275C71.6558 14.9145 71.6439 14.7984 71.6201 14.6794C71.5933 14.5604 71.5413 14.4711 71.4639 14.4116C71.3865 14.3491 71.2884 14.3179 71.1693 14.3179C71.0563 14.3179 70.9581 14.3446 70.8748 14.3982C70.7944 14.4488 70.7379 14.5232 70.7052 14.6214L70.6962 14.6392C70.6933 14.6601 70.6784 14.6705 70.6516 14.6705H70.415C70.3853 14.6705 70.3704 14.6556 70.3704 14.6258V12.903C70.3704 12.8733 70.3853 12.8584 70.415 12.8584H71.8299C71.8597 12.8584 71.8745 12.8733 71.8745 12.903V13.0905C71.8745 13.1202 71.8597 13.1351 71.8299 13.1351H70.7052C70.6933 13.1351 70.6873 13.1411 70.6873 13.153V14.2465C70.6873 14.2524 70.6888 14.2569 70.6918 14.2598C70.6977 14.2598 70.7037 14.2569 70.7096 14.2509C70.7691 14.1855 70.8435 14.1349 70.9328 14.0992C71.025 14.0605 71.1232 14.0411 71.2274 14.0411C71.4029 14.0411 71.5487 14.0843 71.6648 14.1706C71.7838 14.2539 71.8671 14.3774 71.9147 14.541ZM73.1686 14.0858C73.0526 14.0858 72.9454 14.0575 72.8472 14.001C72.752 13.9444 72.6762 13.8686 72.6196 13.7733C72.5631 13.6752 72.5348 13.568 72.5348 13.452C72.5348 13.3359 72.5631 13.2303 72.6196 13.1351C72.6762 13.0369 72.752 12.9595 72.8472 12.903C72.9454 12.8465 73.0526 12.8182 73.1686 12.8182C73.2817 12.8182 73.3858 12.8465 73.481 12.903C73.5792 12.9595 73.6566 13.0369 73.7131 13.1351C73.7697 13.2303 73.7979 13.3359 73.7979 13.452C73.7979 13.568 73.7697 13.6752 73.7131 13.7733C73.6566 13.8686 73.5792 13.9444 73.481 14.001C73.3858 14.0575 73.2817 14.0858 73.1686 14.0858ZM73.0659 15.9827C73.0511 15.9827 73.0392 15.9782 73.0302 15.9693C73.0243 15.9574 73.0258 15.944 73.0347 15.9291L74.695 12.8896C74.704 12.8688 74.7218 12.8584 74.7486 12.8584H74.8914C74.9063 12.8584 74.9167 12.8643 74.9227 12.8762C74.9316 12.8852 74.9316 12.8971 74.9227 12.9119L73.2623 15.9514C73.2534 15.9723 73.2355 15.9827 73.2088 15.9827H73.0659ZM73.1686 13.8894C73.2876 13.8894 73.3873 13.8477 73.4676 13.7644C73.551 13.6781 73.5926 13.574 73.5926 13.452C73.5926 13.33 73.551 13.2273 73.4676 13.144C73.3873 13.0577 73.2876 13.0146 73.1686 13.0146C73.0496 13.0146 72.9484 13.0577 72.8651 13.144C72.7818 13.2273 72.7401 13.33 72.7401 13.452C72.7401 13.574 72.7818 13.6781 72.8651 13.7644C72.9484 13.8477 73.0496 13.8894 73.1686 13.8894ZM74.8066 16.0228C74.6906 16.0228 74.5835 15.9946 74.4853 15.938C74.39 15.8815 74.3142 15.8041 74.2576 15.7059C74.2011 15.6078 74.1728 15.5006 74.1728 15.3846C74.1728 15.2715 74.2011 15.1674 74.2576 15.0722C74.3142 14.974 74.39 14.8966 74.4853 14.8401C74.5835 14.7835 74.6906 14.7553 74.8066 14.7553C74.9197 14.7553 75.0238 14.7835 75.119 14.8401C75.2172 14.8966 75.2946 14.974 75.3511 15.0722C75.4077 15.1674 75.4359 15.2715 75.4359 15.3846C75.4359 15.5006 75.4077 15.6078 75.3511 15.7059C75.2946 15.8041 75.2172 15.8815 75.119 15.938C75.0238 15.9946 74.9197 16.0228 74.8066 16.0228ZM74.8066 15.8265C74.9256 15.8265 75.0253 15.7833 75.1057 15.697C75.189 15.6107 75.2306 15.5066 75.2306 15.3846C75.2306 15.2626 75.189 15.1599 75.1057 15.0766C75.0253 14.9933 74.9256 14.9517 74.8066 14.9517C74.6876 14.9517 74.5864 14.9933 74.5031 15.0766C74.4198 15.1599 74.3781 15.2626 74.3781 15.3846C74.3781 15.5096 74.4183 15.6152 74.4987 15.7015C74.582 15.7848 74.6846 15.8265 74.8066 15.8265Z" fill="#404040"/>
<path d="M26.3905 13.3138L23.8485 10.0505H13.3174" stroke="black" stroke-width="0.145684"/>
<path d="M48.4744 46.3031L51.0164 49.5664H61.5475" stroke="black" stroke-width="0.145684"/>
<path d="M1.28738 8.61182C1.2606 8.61182 1.24423 8.59843 1.23828 8.57165L0.425967 5.53663L0.421504 5.52324C0.421504 5.49943 0.436381 5.48753 0.466136 5.48753H0.707153C0.736908 5.48753 0.753273 5.50092 0.756249 5.5277L1.40789 8.08069C1.41086 8.08664 1.41384 8.08961 1.41681 8.08961C1.41979 8.08961 1.42276 8.08664 1.42574 8.08069L2.07738 5.5277C2.08333 5.50092 2.09969 5.48753 2.12647 5.48753H2.35856C2.37344 5.48753 2.38385 5.49199 2.3898 5.50092C2.39873 5.50985 2.40171 5.52175 2.39873 5.53663L1.58642 8.57165C1.58047 8.59843 1.5641 8.61182 1.53732 8.61182H1.28738ZM4.1189 8.61182C4.09212 8.61182 4.07576 8.59843 4.06981 8.57165L3.92252 8.01374C3.91954 8.00481 3.9121 8.00035 3.9002 8.00035H2.83348C2.82158 8.00035 2.81414 8.00481 2.81116 8.01374L2.66388 8.57165C2.65793 8.59843 2.64156 8.61182 2.61478 8.61182H2.38269C2.36781 8.61182 2.35591 8.60735 2.34698 8.59843C2.34103 8.5895 2.33955 8.5776 2.34252 8.56272L3.17715 5.5277C3.1831 5.50092 3.19947 5.48753 3.22625 5.48753H3.5119C3.53868 5.48753 3.55504 5.50092 3.56099 5.5277L4.39562 8.56272L4.40009 8.57611C4.40009 8.59991 4.38521 8.61182 4.35545 8.61182H4.1189ZM2.88704 7.72363C2.88406 7.7266 2.88406 7.73107 2.88704 7.73702C2.89299 7.73999 2.89894 7.74148 2.90489 7.74148H3.82879C3.83474 7.74148 3.8392 7.73999 3.84218 7.73702C3.84813 7.73107 3.84962 7.7266 3.84664 7.72363L3.37354 5.92939C3.37056 5.92344 3.36758 5.92047 3.36461 5.92047C3.36163 5.92047 3.35866 5.92344 3.35568 5.92939L2.88704 7.72363ZM6.42557 5.53216C6.42557 5.50241 6.44045 5.48753 6.47021 5.48753H6.69783C6.72759 5.48753 6.74247 5.50241 6.74247 5.53216V8.56718C6.74247 8.59694 6.72759 8.61182 6.69783 8.61182H6.45682C6.43004 8.61182 6.41218 8.6014 6.40326 8.58057L5.2071 6.19273C5.20115 6.18677 5.1952 6.1838 5.18925 6.1838C5.18627 6.1838 5.18479 6.18826 5.18479 6.19719L5.18925 8.56718C5.18925 8.59694 5.17437 8.61182 5.14462 8.61182H4.91699C4.88723 8.61182 4.87236 8.59694 4.87236 8.56718V5.53216C4.87236 5.50241 4.88723 5.48753 4.91699 5.48753H5.15801C5.18479 5.48753 5.20264 5.49794 5.21156 5.51877L6.40772 7.91555C6.41367 7.9215 6.41813 7.92447 6.42111 7.92447C6.42706 7.92447 6.43004 7.92001 6.43004 7.91108L6.42557 5.53216ZM7.52783 8.61182C7.49807 8.61182 7.48319 8.59694 7.48319 8.56718V5.53216C7.48319 5.50241 7.49807 5.48753 7.52783 5.48753H7.75545C7.78521 5.48753 7.80009 5.50241 7.80009 5.53216V8.56718C7.80009 8.59694 7.78521 8.61182 7.75545 8.61182H7.52783ZM8.58698 8.61182C8.55722 8.61182 8.54235 8.59694 8.54235 8.56718V5.53216C8.54235 5.50241 8.55722 5.48753 8.58698 5.48753H8.81461C8.84436 5.48753 8.85924 5.50241 8.85924 5.53216V8.31724C8.85924 8.32914 8.86519 8.33509 8.87709 8.33509H10.1759C10.2057 8.33509 10.2205 8.34997 10.2205 8.37973V8.56718C10.2205 8.59694 10.2057 8.61182 10.1759 8.61182H8.58698ZM12.4004 8.61182C12.3736 8.61182 12.3572 8.59843 12.3513 8.57165L12.204 8.01374C12.201 8.00481 12.1936 8.00035 12.1817 8.00035H11.1149C11.103 8.00035 11.0956 8.00481 11.0926 8.01374L10.9453 8.57165C10.9394 8.59843 10.923 8.61182 10.8962 8.61182H10.6641C10.6493 8.61182 10.6374 8.60735 10.6284 8.59843C10.6225 8.5895 10.621 8.5776 10.624 8.56272L11.4586 5.5277C11.4646 5.50092 11.4809 5.48753 11.5077 5.48753H11.7933C11.8201 5.48753 11.8365 5.50092 11.8424 5.5277L12.6771 8.56272L12.6815 8.57611C12.6815 8.59991 12.6667 8.61182 12.6369 8.61182H12.4004ZM11.1685 7.72363C11.1655 7.7266 11.1655 7.73107 11.1685 7.73702C11.1744 7.73999 11.1804 7.74148 11.1863 7.74148H12.1102C12.1162 7.74148 12.1207 7.73999 12.1236 7.73702C12.1296 7.73107 12.1311 7.7266 12.1281 7.72363L11.655 5.92939C11.652 5.92344 11.649 5.92047 11.6461 5.92047C11.6431 5.92047 11.6401 5.92344 11.6371 5.92939L11.1685 7.72363ZM1.45252 13.6475C1.18175 13.6475 0.963047 13.5672 0.796418 13.4065C0.632765 13.2458 0.550938 13.0331 0.550938 12.7683V11.3266C0.550938 11.0618 0.632765 10.8505 0.796418 10.6928C0.963047 10.5322 1.18175 10.4518 1.45252 10.4518C1.72627 10.4518 1.94497 10.5307 2.10862 10.6884C2.27525 10.8461 2.35856 11.0559 2.35856 11.3177V11.3579C2.35856 11.3876 2.34368 11.4025 2.31393 11.4025L2.0863 11.4114C2.05655 11.4114 2.04167 11.398 2.04167 11.3713V11.3088C2.04167 11.1362 1.98662 10.9963 1.87653 10.8892C1.76941 10.7821 1.62807 10.7285 1.45252 10.7285C1.27696 10.7285 1.13563 10.7821 1.02851 10.8892C0.921389 10.9934 0.86783 11.1332 0.86783 11.3088V12.7906C0.86783 12.9661 0.921389 13.1075 1.02851 13.2146C1.13563 13.3187 1.27696 13.3708 1.45252 13.3708C1.62807 13.3708 1.76941 13.3172 1.87653 13.2101C1.98662 13.103 2.04167 12.9632 2.04167 12.7906V12.7281C2.04167 12.7013 2.05655 12.6879 2.0863 12.6879L2.31393 12.7013C2.34368 12.7013 2.35856 12.7162 2.35856 12.7459V12.7772C2.35856 13.039 2.27525 13.2503 2.10862 13.411C1.94497 13.5687 1.72627 13.6475 1.45252 13.6475ZM4.51596 13.6118C4.49215 13.6118 4.47579 13.5999 4.46686 13.5761L3.91342 12.197C3.91044 12.188 3.90449 12.1836 3.89556 12.1836H3.3198C3.3079 12.1836 3.30195 12.1895 3.30195 12.2014V13.5672C3.30195 13.5969 3.28707 13.6118 3.25732 13.6118H3.02969C2.99994 13.6118 2.98506 13.5969 2.98506 13.5672V10.5322C2.98506 10.5024 2.99994 10.4875 3.02969 10.4875H3.9759C4.13063 10.4875 4.2675 10.5232 4.38652 10.5946C4.50852 10.6661 4.60225 10.7672 4.66771 10.8982C4.73615 11.0291 4.77036 11.1793 4.77036 11.3489C4.77036 11.5513 4.72127 11.7239 4.62308 11.8667C4.52488 12.0095 4.39099 12.1047 4.22138 12.1523C4.20948 12.1583 4.2065 12.1657 4.21246 12.1746L4.78822 13.5583L4.79268 13.5761C4.79268 13.5999 4.77929 13.6118 4.75251 13.6118H4.51596ZM3.3198 10.7643C3.3079 10.7643 3.30195 10.7702 3.30195 10.7821V11.9113C3.30195 11.9232 3.3079 11.9292 3.3198 11.9292H3.93573C4.09046 11.9292 4.21543 11.8756 4.31065 11.7685C4.40586 11.6614 4.45347 11.5215 4.45347 11.3489C4.45347 11.1734 4.40586 11.032 4.31065 10.9249C4.21543 10.8178 4.09046 10.7643 3.93573 10.7643H3.3198ZM7.06145 10.7196C7.06145 10.7494 7.04657 10.7643 7.01682 10.7643H5.67784C5.66594 10.7643 5.65998 10.7702 5.65998 10.7821V11.889C5.65998 11.9009 5.66594 11.9068 5.67784 11.9068H6.57942C6.60917 11.9068 6.62405 11.9217 6.62405 11.9515V12.1389C6.62405 12.1687 6.60917 12.1836 6.57942 12.1836H5.67784C5.66594 12.1836 5.65998 12.1895 5.65998 12.2014V13.3172C5.65998 13.3291 5.66594 13.3351 5.67784 13.3351H7.01682C7.04657 13.3351 7.06145 13.35 7.06145 13.3797V13.5672C7.06145 13.5969 7.04657 13.6118 7.01682 13.6118H5.38772C5.35797 13.6118 5.34309 13.5969 5.34309 13.5672V10.5322C5.34309 10.5024 5.35797 10.4875 5.38772 10.4875H7.01682C7.04657 10.4875 7.06145 10.5024 7.06145 10.5322V10.7196ZM9.21417 13.6118C9.18739 13.6118 9.17103 13.5984 9.16508 13.5716L9.01779 13.0137C9.01481 13.0048 9.00738 13.0003 8.99547 13.0003H7.92875C7.91685 13.0003 7.90941 13.0048 7.90644 13.0137L7.75915 13.5716C7.7532 13.5984 7.73683 13.6118 7.71005 13.6118H7.47796C7.46309 13.6118 7.45118 13.6074 7.44226 13.5984C7.43631 13.5895 7.43482 13.5776 7.43779 13.5627L8.27242 10.5277C8.27838 10.5009 8.29474 10.4875 8.32152 10.4875H8.60717C8.63395 10.4875 8.65031 10.5009 8.65627 10.5277L9.4909 13.5627L9.49536 13.5761C9.49536 13.5999 9.48048 13.6118 9.45073 13.6118H9.21417ZM7.98231 12.7236C7.97934 12.7266 7.97934 12.7311 7.98231 12.737C7.98826 12.74 7.99421 12.7415 8.00017 12.7415H8.92406C8.93001 12.7415 8.93448 12.74 8.93745 12.737C8.9434 12.7311 8.94489 12.7266 8.94191 12.7236L8.46881 10.9294C8.46583 10.9234 8.46286 10.9205 8.45988 10.9205C8.45691 10.9205 8.45393 10.9234 8.45096 10.9294L7.98231 12.7236ZM11.6592 10.5188C11.6741 10.4979 11.6919 10.4875 11.7128 10.4875H11.9449C11.9746 10.4875 11.9895 10.5024 11.9895 10.5322V13.5672C11.9895 13.5969 11.9746 13.6118 11.9449 13.6118H11.7172C11.6875 13.6118 11.6726 13.5969 11.6726 13.5672V11.1392C11.6726 11.1302 11.6696 11.1243 11.6637 11.1213C11.6577 11.1183 11.6533 11.1213 11.6503 11.1302L11.0567 12.1613C11.0418 12.1821 11.0239 12.1925 11.0031 12.1925H10.954C10.9332 12.1925 10.9153 12.1821 10.9005 12.1613L10.3024 11.1347C10.2994 11.1258 10.2949 11.1228 10.289 11.1258C10.283 11.1288 10.2801 11.1347 10.2801 11.1436V13.5672C10.2801 13.5969 10.2652 13.6118 10.2354 13.6118H10.0078C9.97804 13.6118 9.96317 13.5969 9.96317 13.5672V10.5322C9.96317 10.5024 9.97804 10.4875 10.0078 10.4875H10.2399C10.2607 10.4875 10.2786 10.4979 10.2934 10.5188L10.9674 11.6658C10.9704 11.6688 10.9748 11.6703 10.9808 11.6703C10.9867 11.6703 10.9912 11.6688 10.9942 11.6658L11.6592 10.5188ZM13.8701 13.3128C13.8612 13.3277 13.8642 13.3351 13.8791 13.3351H15.1065C15.1362 13.3351 15.1511 13.35 15.1511 13.3797V13.5672C15.1511 13.5969 15.1362 13.6118 15.1065 13.6118H13.5175C13.4878 13.6118 13.4729 13.5969 13.4729 13.5672V13.3708C13.4729 13.3529 13.4788 13.3336 13.4907 13.3128C13.7585 12.9498 14.0576 12.5332 14.3879 12.0631C14.6229 11.7209 14.7405 11.4471 14.7405 11.2418C14.7405 11.0871 14.6958 10.9636 14.6066 10.8714C14.5173 10.7762 14.3998 10.7285 14.254 10.7285C14.1111 10.7285 13.9966 10.7762 13.9103 10.8714C13.824 10.9636 13.7823 11.0871 13.7853 11.2418V11.3936C13.7853 11.4233 13.7704 11.4382 13.7407 11.4382H13.5086C13.4788 11.4382 13.464 11.4233 13.464 11.3936V11.215C13.4699 10.9859 13.5458 10.8014 13.6916 10.6616C13.8404 10.5217 14.0308 10.4518 14.2629 10.4518C14.5009 10.4518 14.6929 10.5247 14.8387 10.6705C14.9845 10.8163 15.0574 11.0068 15.0574 11.2418C15.0574 11.5037 14.9354 11.8131 14.6914 12.1702C14.5396 12.3904 14.3001 12.7236 13.9728 13.17L13.8701 13.3128ZM16.4622 13.6564C16.2063 13.6564 16.001 13.5791 15.8462 13.4244C15.6915 13.2696 15.6141 13.0628 15.6141 12.804V11.2954C15.6141 11.0395 15.6915 10.8342 15.8462 10.6795C16.001 10.5247 16.2063 10.4474 16.4622 10.4474C16.721 10.4474 16.9278 10.5247 17.0826 10.6795C17.2403 10.8342 17.3191 11.0395 17.3191 11.2954V12.804C17.3191 13.0628 17.2403 13.2696 17.0826 13.4244C16.9278 13.5791 16.721 13.6564 16.4622 13.6564ZM16.4622 13.3797C16.6258 13.3797 16.7567 13.3291 16.8549 13.228C16.9531 13.1268 17.0022 12.9929 17.0022 12.8263V11.2775C17.0022 11.1109 16.9531 10.977 16.8549 10.8758C16.7567 10.7747 16.6258 10.7241 16.4622 10.7241C16.3045 10.7241 16.1765 10.7747 16.0783 10.8758C15.9801 10.977 15.931 11.1109 15.931 11.2775V12.8263C15.931 12.9899 15.9801 13.1238 16.0783 13.228C16.1765 13.3291 16.3045 13.3797 16.4622 13.3797ZM18.5952 11.7149C18.4791 11.7149 18.372 11.6867 18.2738 11.6301C18.1786 11.5736 18.1027 11.4977 18.0462 11.4025C17.9897 11.3043 17.9614 11.1972 17.9614 11.0811C17.9614 10.9651 17.9897 10.8595 18.0462 10.7643C18.1027 10.6661 18.1786 10.5887 18.2738 10.5322C18.372 10.4756 18.4791 10.4474 18.5952 10.4474C18.7083 10.4474 18.8124 10.4756 18.9076 10.5322C19.0058 10.5887 19.0832 10.6661 19.1397 10.7643C19.1962 10.8595 19.2245 10.9651 19.2245 11.0811C19.2245 11.1972 19.1962 11.3043 19.1397 11.4025C19.0832 11.4977 19.0058 11.5736 18.9076 11.6301C18.8124 11.6867 18.7083 11.7149 18.5952 11.7149ZM18.4925 13.6118C18.4777 13.6118 18.4658 13.6074 18.4568 13.5984C18.4509 13.5865 18.4524 13.5731 18.4613 13.5583L20.1216 10.5188C20.1306 10.4979 20.1484 10.4875 20.1752 10.4875H20.318C20.3329 10.4875 20.3433 10.4935 20.3493 10.5054C20.3582 10.5143 20.3582 10.5262 20.3493 10.5411L18.6889 13.5806C18.68 13.6014 18.6621 13.6118 18.6354 13.6118H18.4925ZM18.5952 11.5185C18.7142 11.5185 18.8139 11.4769 18.8942 11.3936C18.9775 11.3073 19.0192 11.2031 19.0192 11.0811C19.0192 10.9591 18.9775 10.8565 18.8942 10.7732C18.8139 10.6869 18.7142 10.6437 18.5952 10.6437C18.4762 10.6437 18.375 10.6869 18.2917 10.7732C18.2084 10.8565 18.1667 10.9591 18.1667 11.0811C18.1667 11.2031 18.2084 11.3073 18.2917 11.3936C18.375 11.4769 18.4762 11.5185 18.5952 11.5185ZM20.2332 13.652C20.1172 13.652 20.01 13.6237 19.9119 13.5672C19.8166 13.5106 19.7408 13.4333 19.6842 13.3351C19.6277 13.2369 19.5994 13.1298 19.5994 13.0137C19.5994 12.9007 19.6277 12.7965 19.6842 12.7013C19.7408 12.6031 19.8166 12.5258 19.9119 12.4692C20.01 12.4127 20.1172 12.3844 20.2332 12.3844C20.3463 12.3844 20.4504 12.4127 20.5456 12.4692C20.6438 12.5258 20.7212 12.6031 20.7777 12.7013C20.8343 12.7965 20.8625 12.9007 20.8625 13.0137C20.8625 13.1298 20.8343 13.2369 20.7777 13.3351C20.7212 13.4333 20.6438 13.5106 20.5456 13.5672C20.4504 13.6237 20.3463 13.652 20.2332 13.652ZM20.2332 13.4556C20.3522 13.4556 20.4519 13.4125 20.5323 13.3262C20.6156 13.2399 20.6572 13.1357 20.6572 13.0137C20.6572 12.8917 20.6156 12.7891 20.5323 12.7058C20.4519 12.6225 20.3522 12.5808 20.2332 12.5808C20.1142 12.5808 20.013 12.6225 19.9297 12.7058C19.8464 12.7891 19.8047 12.8917 19.8047 13.0137C19.8047 13.1387 19.8449 13.2443 19.9252 13.3306C20.0086 13.4139 20.1112 13.4556 20.2332 13.4556Z" fill="#404040"/>
<path d="M53.6562 48.1629C53.3854 48.1629 53.1667 48.0826 53.0001 47.9219C52.8364 47.7612 52.7546 47.5485 52.7546 47.2836V45.842C52.7546 45.5772 52.8364 45.3659 53.0001 45.2082C53.1667 45.0475 53.3854 44.9672 53.6562 44.9672C53.9299 44.9672 54.1486 45.0461 54.3123 45.2038C54.4789 45.3615 54.5622 45.5712 54.5622 45.8331V45.8732C54.5622 45.903 54.5473 45.9179 54.5176 45.9179L54.2899 45.9268C54.2602 45.9268 54.2453 45.9134 54.2453 45.8866V45.8242C54.2453 45.6516 54.1903 45.5117 54.0802 45.4046C53.9731 45.2975 53.8317 45.2439 53.6562 45.2439C53.4806 45.2439 53.3393 45.2975 53.2322 45.4046C53.125 45.5087 53.0715 45.6486 53.0715 45.8242V47.306C53.0715 47.4815 53.125 47.6228 53.2322 47.73C53.3393 47.8341 53.4806 47.8862 53.6562 47.8862C53.8317 47.8862 53.9731 47.8326 54.0802 47.7255C54.1903 47.6184 54.2453 47.4785 54.2453 47.306V47.2435C54.2453 47.2167 54.2602 47.2033 54.2899 47.2033L54.5176 47.2167C54.5473 47.2167 54.5622 47.2316 54.5622 47.2613V47.2926C54.5622 47.5544 54.4789 47.7657 54.3123 47.9264C54.1486 48.0841 53.9299 48.1629 53.6562 48.1629ZM56.693 48.1272C56.6663 48.1272 56.6499 48.1138 56.6439 48.087L56.4966 47.5291C56.4937 47.5202 56.4862 47.5157 56.4743 47.5157H55.4076C55.3957 47.5157 55.3883 47.5202 55.3853 47.5291L55.238 48.087C55.2321 48.1138 55.2157 48.1272 55.1889 48.1272H54.9568C54.9419 48.1272 54.93 48.1227 54.9211 48.1138C54.9152 48.1049 54.9137 48.093 54.9167 48.0781L55.7513 45.0431C55.7572 45.0163 55.7736 45.0029 55.8004 45.0029H56.086C56.1128 45.0029 56.1292 45.0163 56.1351 45.0431L56.9698 48.0781L56.9742 48.0915C56.9742 48.1153 56.9593 48.1272 56.9296 48.1272H56.693ZM55.4612 47.239C55.4582 47.242 55.4582 47.2464 55.4612 47.2524C55.4671 47.2554 55.4731 47.2569 55.479 47.2569H56.4029C56.4089 47.2569 56.4133 47.2554 56.4163 47.2524C56.4223 47.2464 56.4237 47.242 56.4208 47.239L55.9477 45.4448C55.9447 45.4388 55.9417 45.4358 55.9387 45.4358C55.9358 45.4358 55.9328 45.4388 55.9298 45.4448L55.4612 47.239ZM58.9774 48.1272C58.9536 48.1272 58.9372 48.1153 58.9283 48.0915L58.3748 46.7123C58.3719 46.7034 58.3659 46.699 58.357 46.699H57.7812C57.7693 46.699 57.7634 46.7049 57.7634 46.7168V48.0826C57.7634 48.1123 57.7485 48.1272 57.7187 48.1272H57.4911C57.4614 48.1272 57.4465 48.1123 57.4465 48.0826V45.0475C57.4465 45.0178 57.4614 45.0029 57.4911 45.0029H58.4373C58.5921 45.0029 58.7289 45.0386 58.848 45.11C58.9699 45.1814 59.0637 45.2826 59.1291 45.4135C59.1976 45.5445 59.2318 45.6947 59.2318 45.8643C59.2318 46.0667 59.1827 46.2392 59.0845 46.3821C58.9863 46.5249 58.8524 46.6201 58.6828 46.6677C58.6709 46.6737 58.6679 46.6811 58.6739 46.69L59.2496 48.0736L59.2541 48.0915C59.2541 48.1153 59.2407 48.1272 59.2139 48.1272H58.9774ZM57.7812 45.2796C57.7693 45.2796 57.7634 45.2856 57.7634 45.2975V46.4267C57.7634 46.4386 57.7693 46.4445 57.7812 46.4445H58.3972C58.5519 46.4445 58.6769 46.391 58.7721 46.2839C58.8673 46.1767 58.9149 46.0369 58.9149 45.8643C58.9149 45.6888 58.8673 45.5474 58.7721 45.4403C58.6769 45.3332 58.5519 45.2796 58.3972 45.2796H57.7812ZM59.8492 48.1272C59.8194 48.1272 59.8045 48.1123 59.8045 48.0826V45.0475C59.8045 45.0178 59.8194 45.0029 59.8492 45.0029H60.0768C60.1065 45.0029 60.1214 45.0178 60.1214 45.0475V48.0826C60.1214 48.1123 60.1065 48.1272 60.0768 48.1272H59.8492ZM62.216 46.4981C62.2012 46.5041 62.2012 46.5115 62.216 46.5204C62.3559 46.5889 62.463 46.687 62.5374 46.815C62.6148 46.9429 62.6549 47.0977 62.6579 47.2792C62.6579 47.547 62.5776 47.7553 62.4169 47.904C62.2592 48.0528 62.0494 48.1272 61.7876 48.1272H60.9083C60.8786 48.1272 60.8637 48.1123 60.8637 48.0826V45.0475C60.8637 45.0178 60.8786 45.0029 60.9083 45.0029H61.7519C62.0256 45.0029 62.2398 45.0743 62.3946 45.2171C62.5493 45.357 62.6267 45.5578 62.6267 45.8197C62.6267 45.9863 62.591 46.1262 62.5195 46.2392C62.4511 46.3523 62.3499 46.4386 62.216 46.4981ZM61.1984 45.2796C61.1865 45.2796 61.1806 45.2856 61.1806 45.2975V46.3731C61.1806 46.385 61.1865 46.391 61.1984 46.391H61.7563C61.9289 46.391 62.0643 46.3419 62.1625 46.2437C62.2637 46.1455 62.3142 46.0131 62.3142 45.8465C62.3142 45.6709 62.2637 45.5326 62.1625 45.4314C62.0643 45.3302 61.9289 45.2796 61.7563 45.2796H61.1984ZM61.7786 47.846C61.9512 47.846 62.0881 47.7925 62.1893 47.6853C62.2904 47.5782 62.341 47.4324 62.341 47.2479C62.341 47.0605 62.2889 46.9132 62.1848 46.8061C62.0836 46.699 61.9453 46.6454 61.7697 46.6454H61.1984C61.1865 46.6454 61.1806 46.6513 61.1806 46.6632V47.8282C61.1806 47.8401 61.1865 47.846 61.1984 47.846H61.7786ZM63.3099 48.1272C63.2802 48.1272 63.2653 48.1123 63.2653 48.0826V45.0475C63.2653 45.0178 63.2802 45.0029 63.3099 45.0029H63.5376C63.5673 45.0029 63.5822 45.0178 63.5822 45.0475V48.0826C63.5822 48.1123 63.5673 48.1272 63.5376 48.1272H63.3099ZM65.8375 48.1272C65.8107 48.1272 65.7944 48.1138 65.7884 48.087L65.6411 47.5291C65.6381 47.5202 65.6307 47.5157 65.6188 47.5157H64.5521C64.5402 47.5157 64.5327 47.5202 64.5298 47.5291L64.3825 48.087C64.3765 48.1138 64.3602 48.1272 64.3334 48.1272H64.1013C64.0864 48.1272 64.0745 48.1227 64.0656 48.1138C64.0596 48.1049 64.0581 48.093 64.0611 48.0781L64.8957 45.0431C64.9017 45.0163 64.9181 45.0029 64.9448 45.0029H65.2305C65.2573 45.0029 65.2736 45.0163 65.2796 45.0431L66.1142 48.0781L66.1187 48.0915C66.1187 48.1153 66.1038 48.1272 66.0741 48.1272H65.8375ZM64.6056 47.239C64.6027 47.242 64.6027 47.2464 64.6056 47.2524C64.6116 47.2554 64.6175 47.2569 64.6235 47.2569H65.5474C65.5533 47.2569 65.5578 47.2554 65.5608 47.2524C65.5667 47.2464 65.5682 47.242 65.5652 47.239L65.0921 45.4448C65.0892 45.4388 65.0862 45.4358 65.0832 45.4358C65.0802 45.4358 65.0773 45.4388 65.0743 45.4448L64.6056 47.239ZM68.1442 45.0475C68.1442 45.0178 68.159 45.0029 68.1888 45.0029H68.4164C68.4462 45.0029 68.4611 45.0178 68.4611 45.0475V48.0826C68.4611 48.1123 68.4462 48.1272 68.4164 48.1272H68.1754C68.1486 48.1272 68.1308 48.1168 68.1219 48.096L66.9257 45.7081C66.9197 45.7022 66.9138 45.6992 66.9078 45.6992C66.9049 45.6992 66.9034 45.7036 66.9034 45.7126L66.9078 48.0826C66.9078 48.1123 66.893 48.1272 66.8632 48.1272H66.6356C66.6058 48.1272 66.591 48.1123 66.591 48.0826V45.0475C66.591 45.0178 66.6058 45.0029 66.6356 45.0029H66.8766C66.9034 45.0029 66.9212 45.0133 66.9302 45.0342L68.1263 47.4309C68.1323 47.4369 68.1367 47.4399 68.1397 47.4399C68.1457 47.4399 68.1486 47.4354 68.1486 47.4265L68.1442 45.0475ZM54.3703 53.1272C54.3465 53.1272 54.3301 53.1153 54.3212 53.0915L53.7677 51.7123C53.7648 51.7034 53.7588 51.699 53.7499 51.699H53.1741C53.1622 51.699 53.1563 51.7049 53.1563 51.7168V53.0826C53.1563 53.1123 53.1414 53.1272 53.1116 53.1272H52.884C52.8543 53.1272 52.8394 53.1123 52.8394 53.0826V50.0475C52.8394 50.0178 52.8543 50.0029 52.884 50.0029H53.8302C53.985 50.0029 54.1218 50.0386 54.2408 50.11C54.3628 50.1814 54.4566 50.2826 54.522 50.4135C54.5905 50.5445 54.6247 50.6947 54.6247 50.8643C54.6247 51.0667 54.5756 51.2392 54.4774 51.3821C54.3792 51.5249 54.2453 51.6201 54.0757 51.6677C54.0638 51.6737 54.0608 51.6811 54.0668 51.69L54.6425 53.0736L54.647 53.0915C54.647 53.1153 54.6336 53.1272 54.6068 53.1272H54.3703ZM53.1741 50.2796C53.1622 50.2796 53.1563 50.2856 53.1563 50.2975V51.4267C53.1563 51.4386 53.1622 51.4445 53.1741 51.4445H53.7901C53.9448 51.4445 54.0698 51.391 54.165 51.2839C54.2602 51.1767 54.3078 51.0369 54.3078 50.8643C54.3078 50.6888 54.2602 50.5474 54.165 50.4403C54.0698 50.3332 53.9448 50.2796 53.7901 50.2796H53.1741ZM56.0811 53.1629C55.8996 53.1629 55.739 53.1242 55.5991 53.0469C55.4622 52.9695 55.3551 52.8609 55.2778 52.721C55.2034 52.5812 55.1662 52.419 55.1662 52.2345V50.0475C55.1662 50.0178 55.1811 50.0029 55.2108 50.0029H55.4384C55.4682 50.0029 55.4831 50.0178 55.4831 50.0475V52.2524C55.4831 52.4428 55.5381 52.5961 55.6482 52.7121C55.7583 52.8282 55.9026 52.8862 56.0811 52.8862C56.2597 52.8862 56.404 52.8282 56.5141 52.7121C56.6242 52.5961 56.6792 52.4428 56.6792 52.2524V50.0475C56.6792 50.0178 56.6941 50.0029 56.7239 50.0029H56.9515C56.9812 50.0029 56.9961 50.0178 56.9961 50.0475V52.2345C56.9961 52.419 56.9574 52.5812 56.8801 52.721C56.8057 52.8609 56.6986 52.9695 56.5587 53.0469C56.4218 53.1242 56.2627 53.1629 56.0811 53.1629ZM59.3952 50.0342C59.4101 50.0133 59.428 50.0029 59.4488 50.0029H59.6809C59.7106 50.0029 59.7255 50.0178 59.7255 50.0475V53.0826C59.7255 53.1123 59.7106 53.1272 59.6809 53.1272H59.4532C59.4235 53.1272 59.4086 53.1123 59.4086 53.0826V50.6545C59.4086 50.6456 59.4056 50.6397 59.3997 50.6367C59.3937 50.6337 59.3893 50.6367 59.3863 50.6456L58.7927 51.6766C58.7778 51.6975 58.76 51.7079 58.7391 51.7079H58.69C58.6692 51.7079 58.6513 51.6975 58.6365 51.6766L58.0384 50.6501C58.0354 50.6412 58.031 50.6382 58.025 50.6412C58.0191 50.6441 58.0161 50.6501 58.0161 50.659V53.0826C58.0161 53.1123 58.0012 53.1272 57.9714 53.1272H57.7438C57.7141 53.1272 57.6992 53.1123 57.6992 53.0826V50.0475C57.6992 50.0178 57.7141 50.0029 57.7438 50.0029H57.9759C57.9967 50.0029 58.0146 50.0133 58.0295 50.0342L58.7034 51.1812C58.7064 51.1842 58.7109 51.1857 58.7168 51.1857C58.7228 51.1857 58.7272 51.1842 58.7302 51.1812L59.3952 50.0342ZM61.6552 50.0163C61.6731 50.0074 61.6924 50.0029 61.7133 50.0029H61.9543C61.984 50.0029 61.9989 50.0178 61.9989 50.0475V53.0826C61.9989 53.1123 61.984 53.1272 61.9543 53.1272H61.7267C61.6969 53.1272 61.682 53.1123 61.682 53.0826V50.3689C61.682 50.3629 61.679 50.3585 61.6731 50.3555C61.6701 50.3525 61.6657 50.3525 61.6597 50.3555L61.2134 50.5206C61.2074 50.5236 61.2 50.5251 61.1911 50.5251C61.1762 50.5251 61.1658 50.5132 61.1598 50.4894L61.1375 50.3243V50.3153C61.1375 50.3005 61.1479 50.2856 61.1687 50.2707L61.6552 50.0163ZM63.4572 53.1718C63.2013 53.1718 62.996 53.0945 62.8413 52.9397C62.6866 52.785 62.6092 52.5782 62.6092 52.3193V50.8108C62.6092 50.5549 62.6866 50.3496 62.8413 50.1948C62.996 50.0401 63.2013 49.9627 63.4572 49.9627C63.7161 49.9627 63.9229 50.0401 64.0776 50.1948C64.2353 50.3496 64.3142 50.5549 64.3142 50.8108V52.3193C64.3142 52.5782 64.2353 52.785 64.0776 52.9397C63.9229 53.0945 63.7161 53.1718 63.4572 53.1718ZM63.4572 52.8951C63.6209 52.8951 63.7518 52.8445 63.85 52.7434C63.9482 52.6422 63.9973 52.5083 63.9973 52.3417V50.7929C63.9973 50.6263 63.9482 50.4924 63.85 50.3912C63.7518 50.29 63.6209 50.2395 63.4572 50.2395C63.2995 50.2395 63.1716 50.29 63.0734 50.3912C62.9752 50.4924 62.9261 50.6263 62.9261 50.7929V52.3417C62.9261 52.5053 62.9752 52.6392 63.0734 52.7434C63.1716 52.8445 63.2995 52.8951 63.4572 52.8951ZM65.5902 51.2303C65.4742 51.2303 65.3671 51.202 65.2689 51.1455C65.1737 51.089 65.0978 51.0131 65.0413 50.9179C64.9847 50.8197 64.9565 50.7126 64.9565 50.5965C64.9565 50.4805 64.9847 50.3748 65.0413 50.2796C65.0978 50.1814 65.1737 50.1041 65.2689 50.0475C65.3671 49.991 65.4742 49.9627 65.5902 49.9627C65.7033 49.9627 65.8075 49.991 65.9027 50.0475C66.0009 50.1041 66.0782 50.1814 66.1348 50.2796C66.1913 50.3748 66.2196 50.4805 66.2196 50.5965C66.2196 50.7126 66.1913 50.8197 66.1348 50.9179C66.0782 51.0131 66.0009 51.089 65.9027 51.1455C65.8075 51.202 65.7033 51.2303 65.5902 51.2303ZM65.4876 53.1272C65.4727 53.1272 65.4608 53.1227 65.4519 53.1138C65.4459 53.1019 65.4474 53.0885 65.4563 53.0736L67.1167 50.0342C67.1256 50.0133 67.1435 50.0029 67.1702 50.0029H67.3131C67.3279 50.0029 67.3384 50.0089 67.3443 50.0208C67.3532 50.0297 67.3532 50.0416 67.3443 50.0565L65.684 53.096C65.675 53.1168 65.6572 53.1272 65.6304 53.1272H65.4876ZM65.5902 51.0339C65.7093 51.0339 65.8089 50.9923 65.8893 50.909C65.9726 50.8227 66.0142 50.7185 66.0142 50.5965C66.0142 50.4745 65.9726 50.3719 65.8893 50.2886C65.8089 50.2023 65.7093 50.1591 65.5902 50.1591C65.4712 50.1591 65.3701 50.2023 65.2867 50.2886C65.2034 50.3719 65.1618 50.4745 65.1618 50.5965C65.1618 50.7185 65.2034 50.8227 65.2867 50.909C65.3701 50.9923 65.4712 51.0339 65.5902 51.0339ZM67.2283 53.1674C67.1122 53.1674 67.0051 53.1391 66.9069 53.0826C66.8117 53.026 66.7358 52.9487 66.6793 52.8505C66.6227 52.7523 66.5945 52.6452 66.5945 52.5291C66.5945 52.4161 66.6227 52.3119 66.6793 52.2167C66.7358 52.1185 66.8117 52.0411 66.9069 51.9846C67.0051 51.9281 67.1122 51.8998 67.2283 51.8998C67.3413 51.8998 67.4455 51.9281 67.5407 51.9846C67.6389 52.0411 67.7162 52.1185 67.7728 52.2167C67.8293 52.3119 67.8576 52.4161 67.8576 52.5291C67.8576 52.6452 67.8293 52.7523 67.7728 52.8505C67.7162 52.9487 67.6389 53.026 67.5407 53.0826C67.4455 53.1391 67.3413 53.1674 67.2283 53.1674ZM67.2283 52.971C67.3473 52.971 67.447 52.9278 67.5273 52.8415C67.6106 52.7553 67.6523 52.6511 67.6523 52.5291C67.6523 52.4071 67.6106 52.3045 67.5273 52.2212C67.447 52.1378 67.3473 52.0962 67.2283 52.0962C67.1092 52.0962 67.0081 52.1378 66.9248 52.2212C66.8414 52.3045 66.7998 52.4071 66.7998 52.5291C66.7998 52.6541 66.84 52.7597 66.9203 52.846C67.0036 52.9293 67.1063 52.971 67.2283 52.971Z" fill="#404040"/>
<path fill-rule="evenodd" clip-rule="evenodd" d="M36.0937 23.5945L35.9423 23.6086L35.9353 23.8007L35.9283 23.9952H36.1705C36.3033 23.9952 36.6037 24.0022 36.8343 24.0116L37.2581 24.0257V26.7131C37.2581 29.3302 37.2675 29.8996 37.3094 29.8996C37.3187 29.8996 37.3886 29.8527 37.4631 29.7941C37.5702 29.7098 37.6308 29.6817 37.7775 29.6489L37.9568 29.6067V26.8162V24.0257L38.6136 24.0116C39.1027 23.9999 39.275 23.9882 39.289 23.9671C39.3146 23.9249 39.3123 23.6859 39.2866 23.6461C39.2727 23.625 39.2051 23.6039 39.1283 23.5945C38.9699 23.5735 36.3172 23.5758 36.0937 23.5945Z" fill="#323232"/>
<path fill-rule="evenodd" clip-rule="evenodd" d="M40.2717 23.5895C40.2251 23.5988 40.2228 23.6129 40.2088 24.283C40.1995 24.6602 40.1925 25.4287 40.1925 25.991V27.0173H39.6802H39.1678V26.0145C39.1678 25.4639 39.1608 24.8312 39.1515 24.6087L39.1375 24.2057H38.8184H38.4971L38.4808 24.9367C38.4714 25.3397 38.4691 26.5932 38.4738 27.7202L38.4808 29.7703L38.5343 29.8851C38.5995 30.0304 38.5995 30.103 38.5273 30.274C38.4481 30.4615 38.4528 30.5037 38.546 30.5411C38.6857 30.5997 38.8091 30.6091 38.9465 30.5669C39.1655 30.5037 39.1538 30.5997 39.1631 28.8495L39.1724 27.3453H39.6825H40.1925V28.6738C40.1925 29.4071 40.1995 30.1546 40.2088 30.335L40.2228 30.6677L40.3113 30.6958C40.4068 30.7286 40.5046 30.7122 40.7398 30.6232L40.8679 30.5763L40.8656 27.7483C40.8633 26.1925 40.8539 24.6204 40.8469 24.2525L40.833 23.5848L40.5768 23.5824C40.4371 23.5801 40.2996 23.5824 40.2717 23.5895Z" fill="#323232"/>
<path fill-rule="evenodd" clip-rule="evenodd" d="M35.2364 24.3934C34.9406 24.4355 34.7334 24.5457 34.6379 24.7073C34.554 24.8526 34.5331 25.033 34.5331 25.5859C34.5331 26.4458 34.5377 26.4529 35.5112 27.8961C35.7488 28.2499 35.7837 28.3085 35.8955 28.5592C35.9957 28.7818 36.005 28.8193 36.0236 29.0747C36.0352 29.2246 36.0469 29.637 36.0469 29.9861C36.0469 30.3376 36.0539 30.6257 36.0655 30.6257C36.0748 30.6257 36.2216 30.6047 36.3916 30.5765L36.7013 30.525L36.6943 29.644L36.6873 28.7631L36.5872 28.5124C36.4754 28.2359 36.2681 27.8891 35.814 27.2284C35.651 26.9894 35.4553 26.6848 35.3831 26.5536L35.2481 26.3123L35.2248 25.6515C35.2015 24.9252 35.2131 24.7917 35.3156 24.6909C35.3808 24.6253 35.46 24.6042 35.651 24.6042C35.835 24.6042 35.9188 24.6394 35.9817 24.7401C36.0329 24.8245 36.0352 24.8456 36.0469 25.6164C36.0562 26.2162 36.0655 26.413 36.0888 26.4365C36.1261 26.4739 36.6012 26.4903 36.6524 26.4575C36.6827 26.4365 36.6873 26.3216 36.6943 25.7054C36.7013 24.9369 36.6873 24.7659 36.6058 24.6511C36.5499 24.5714 36.3217 24.4566 36.14 24.4168C35.9747 24.3816 35.4274 24.3676 35.2364 24.3934Z" fill="#323232"/>
<path fill-rule="evenodd" clip-rule="evenodd" d="M42.2025 24.4405C41.8346 24.492 41.6413 24.5904 41.5295 24.7825C41.4689 24.8833 41.4643 24.9208 41.448 25.2347C41.4386 25.4222 41.4293 26.6921 41.4293 28.0534L41.427 30.5299L41.5039 30.5862C41.6739 30.7174 41.8089 30.7291 42.0046 30.633L42.0907 30.5909L42.0977 29.2015L42.1024 27.8144H42.5216H42.9408V29.2061V30.5979L43.0922 30.6963L43.2459 30.797L43.3926 30.7338C43.4765 30.6986 43.5603 30.6541 43.5859 30.6377C43.6255 30.6073 43.6278 30.5206 43.6348 28.7938C43.6441 26.7015 43.6139 25.059 43.5626 24.8669C43.4858 24.5764 43.2273 24.4616 42.5798 24.4311C42.4517 24.4264 42.2817 24.4288 42.2025 24.4405ZM42.7545 24.6959C42.8057 24.7216 42.8523 24.7708 42.8826 24.8294C42.9245 24.9161 42.9268 24.9864 42.9362 26.0806C42.9408 26.7179 42.9362 27.3036 42.9245 27.3809L42.9059 27.5215L42.5798 27.5285C42.4005 27.5332 42.2188 27.5285 42.1792 27.5215L42.1024 27.5075V26.4953C42.1047 25.366 42.1257 24.9067 42.1792 24.8013C42.2608 24.642 42.5426 24.5904 42.7545 24.6959Z" fill="#323232"/>
<path fill-rule="evenodd" clip-rule="evenodd" d="M32.0549 25.474C32.0479 25.5536 32.041 26.5494 32.041 27.6858V29.7523L32.2063 29.7687C32.2971 29.7757 32.4322 29.8039 32.5067 29.8296C32.5836 29.8554 32.6558 29.8765 32.6698 29.8765C32.6954 29.8765 32.7047 25.631 32.6791 25.4388L32.6628 25.3311H32.367H32.0712L32.0549 25.474Z" fill="#323232"/>
<path fill-rule="evenodd" clip-rule="evenodd" d="M33.3754 25.3593C33.3405 25.4132 33.3032 29.7337 33.3358 29.8977C33.3544 29.982 33.3894 29.9891 33.4522 29.9211C33.5198 29.8461 33.6199 29.804 33.7969 29.7735L33.9623 29.7454L33.9763 29.4174C33.9972 28.9886 33.9972 25.6639 33.9763 25.4835L33.9623 25.3429L33.6781 25.3359C33.4685 25.3312 33.3894 25.3382 33.3754 25.3593Z" fill="#323232"/>
<path fill-rule="evenodd" clip-rule="evenodd" d="M44.2103 25.3709C44.1986 25.3943 44.187 26.1254 44.18 26.997L44.1707 28.5785L44.2452 28.9182C44.4152 29.6891 44.5969 30.3826 44.6807 30.5864C44.7879 30.8371 45.037 30.734 45.037 30.4412C45.037 30.3685 45.0254 30.235 45.0114 30.146C44.8833 29.2673 44.8554 28.7636 44.8321 26.8072L44.8158 25.3428L44.5224 25.3358C44.2592 25.3311 44.2266 25.3334 44.2103 25.3709Z" fill="#323232"/>
<path fill-rule="evenodd" clip-rule="evenodd" d="M45.5123 25.3562C45.503 25.3726 45.4867 26.1154 45.4774 27.0034C45.4681 27.8937 45.4495 28.7231 45.4355 28.845C45.3726 29.4214 45.3447 29.7049 45.347 29.7705C45.3493 29.808 45.3423 29.9228 45.3307 30.0235C45.3121 30.2086 45.3121 30.2086 45.3633 30.1805C45.3912 30.1664 45.4681 30.1032 45.5333 30.0446C45.6008 29.9837 45.694 29.904 45.7429 29.8665C45.7918 29.829 45.8477 29.7681 45.8663 29.733C45.9152 29.6369 46.0806 28.8918 46.1086 28.6318C46.1388 28.374 46.1318 25.3914 46.1016 25.3609C46.0899 25.3516 45.9572 25.3398 45.8058 25.3352C45.6008 25.3281 45.5263 25.3352 45.5123 25.3562Z" fill="#323232"/>
<path fill-rule="evenodd" clip-rule="evenodd" d="M31.1583 26.2678L30.8462 26.2795L30.6179 27.4393C30.4922 28.0766 30.385 28.6132 30.3827 28.6319C30.3711 28.6928 30.3245 28.6835 30.2965 28.6179C30.2826 28.5827 30.257 28.4726 30.2383 28.3765C30.222 28.2805 30.1358 27.8587 30.0497 27.4393C29.9635 27.0199 29.875 26.5888 29.854 26.4787L29.8168 26.2795L29.4931 26.2725L29.1693 26.2655L29.1833 27.8517C29.1926 28.7256 29.1996 29.8386 29.1996 30.3259V31.2116H29.5257H29.8517L29.854 30.3493C29.854 29.876 29.8634 29.4356 29.875 29.3723C29.8843 29.3067 29.8936 29.2622 29.896 29.2716C29.9495 29.5574 30.0823 30.2908 30.0939 30.3704C30.1195 30.5438 30.1475 30.5672 30.3315 30.5649C30.4596 30.5649 30.4945 30.5555 30.5248 30.5157C30.5504 30.4852 30.5946 30.2861 30.6529 29.944C30.7018 29.6558 30.7507 29.4028 30.7623 29.384C30.774 29.3606 30.7833 29.4215 30.7833 29.548C30.7833 29.8667 30.8112 30.1361 30.8415 30.1478C30.8578 30.1549 30.916 30.1291 30.9719 30.0916C31.0278 30.0541 31.1583 29.9885 31.2607 29.9463C31.3632 29.9018 31.454 29.8596 31.4657 29.8526C31.475 29.8456 31.4796 29.0326 31.4773 28.0462L31.4703 26.2561L31.1583 26.2678Z" fill="#323232"/>
<path fill-rule="evenodd" clip-rule="evenodd" d="M46.7235 26.2963C46.7118 26.3127 46.7002 27.0742 46.6955 27.9903L46.6862 29.6538L46.7793 29.7077C46.968 29.8132 47.0542 29.9795 47.0332 30.1951C47.0169 30.3497 46.9517 30.4997 46.812 30.7058C46.7118 30.8511 46.7025 30.8769 46.7025 31.0034C46.7025 31.0948 46.7141 31.1534 46.7374 31.1744C46.777 31.2143 47.0984 31.2283 47.7342 31.2166L48.1115 31.2119V31.0385V30.8675L47.7808 30.8511C47.5991 30.8417 47.4454 30.83 47.4408 30.8277C47.4361 30.823 47.4268 30.3661 47.4198 29.8132L47.4058 28.8057L47.6224 28.7916C47.7412 28.7822 47.8833 28.7752 47.9368 28.7752C48.0533 28.7752 48.0672 28.7471 48.0486 28.5503L48.0346 28.4238H47.7249H47.4128V27.5358C47.4128 26.9313 47.4198 26.6407 47.4384 26.6314C47.4524 26.622 47.6015 26.6079 47.7691 26.6009L48.0766 26.5845V26.4322V26.2799L47.4082 26.2729C46.8935 26.2682 46.7374 26.2752 46.7235 26.2963Z" fill="#323232"/>
<path fill-rule="evenodd" clip-rule="evenodd" d="M34.5306 28.9996C34.5003 29.0792 34.5213 29.9133 34.5586 30.0891C34.5749 30.1594 34.5725 30.2296 34.5586 30.2999C34.5236 30.4429 34.5283 30.5623 34.5655 30.6139C34.5958 30.6561 34.6028 30.6561 34.8497 30.6045C34.9894 30.5741 35.1268 30.5459 35.1571 30.5389L35.2107 30.5272L35.2037 29.7587C35.199 29.3346 35.1874 28.9808 35.178 28.9714C35.1687 28.9597 35.0243 28.948 34.859 28.9433L34.5562 28.934L34.5306 28.9996Z" fill="#323232"/>
<path fill-rule="evenodd" clip-rule="evenodd" d="M37.8163 29.9953C37.7278 30.0305 37.616 30.15 37.4856 30.3444C37.3738 30.5131 37.0035 31.0005 36.9872 31.0005C36.9849 31.0005 36.943 30.977 36.8964 30.9513C36.8196 30.9044 36.7869 30.9021 36.5867 30.9138C36.1884 30.9349 35.9415 31.0637 35.5503 31.4503C35.2266 31.7713 34.9401 31.9588 34.8795 31.8978C34.8632 31.8814 34.9168 31.7994 35.0379 31.6565C35.4059 31.216 35.4059 31.216 35.3896 31.0801C35.3849 31.0356 35.357 30.9958 35.3011 30.9583C35.187 30.881 35.0193 30.8974 34.7608 31.0122C34.6536 31.059 34.5535 31.1036 34.5395 31.1106C34.5232 31.1176 34.4999 31.0965 34.4883 31.0637C34.4347 30.9231 34.2647 30.9255 34.1343 31.0661C34.09 31.1129 33.9922 31.2301 33.9177 31.3238C33.6895 31.6143 33.2912 31.9236 33.1049 31.9541C32.8604 31.9939 33.035 31.6518 33.6592 30.8716C34.1157 30.2999 34.1762 30.1921 34.0691 30.1336C33.9946 30.0961 33.8292 30.1054 33.7477 30.1546C33.7081 30.1804 33.5497 30.3561 33.396 30.5483C33.0886 30.9325 32.6531 31.3707 32.3736 31.5792C32.0592 31.8135 31.6749 31.9658 31.5864 31.8908C31.4863 31.8088 31.6074 31.6073 32.1314 30.9817C32.2642 30.8224 32.4062 30.6373 32.4505 30.5717C32.5366 30.4381 32.5529 30.3186 32.4947 30.2343C32.4085 30.1101 32.0476 30.075 31.7238 30.157C31.272 30.2718 30.9832 30.5178 31.1626 30.6373C31.2371 30.6842 31.3372 30.6537 31.6167 30.4944C31.8449 30.3679 32.0732 30.2976 32.1174 30.3421C32.1477 30.3725 32.0173 30.5412 31.6679 30.9185C31.2278 31.3917 31.0904 31.6284 31.116 31.8627C31.1346 32.0384 31.3349 32.1931 31.5422 32.1954C31.7704 32.1954 32.1035 32.0408 32.3643 31.8088C32.4598 31.7245 32.5506 31.6565 32.5692 31.6565C32.6065 31.6565 32.6065 31.6518 32.5646 31.7713C32.5227 31.8931 32.5529 31.9892 32.6671 32.0853C32.8184 32.2118 33.0234 32.2212 33.2703 32.111C33.4146 32.0454 33.4962 32.0384 33.5171 32.09C33.5264 32.1134 33.5637 32.1251 33.6336 32.1251C33.736 32.1251 33.7407 32.1228 33.9061 31.9189C34.1436 31.6284 34.2903 31.4808 34.451 31.3636C34.8306 31.0895 35.1031 31.059 34.9122 31.3121C34.8749 31.3589 34.7794 31.4714 34.6979 31.5651C34.4743 31.8205 34.4277 31.9822 34.5465 32.0759C34.5977 32.1157 34.642 32.1251 34.7817 32.1251C34.9634 32.1251 35.0216 32.104 35.2475 31.9611C35.3081 31.9213 35.371 31.8908 35.3873 31.8908C35.4036 31.8908 35.4362 31.9306 35.4618 31.9822C35.5177 32.0923 35.6085 32.1321 35.7902 32.1321C35.9532 32.1298 36.1092 32.0642 36.2606 31.9353C36.3212 31.8861 36.3794 31.8439 36.3934 31.8439C36.4073 31.8439 36.419 31.8767 36.419 31.9166C36.419 31.9634 36.4423 32.0103 36.4865 32.0572C36.5447 32.1157 36.5727 32.1251 36.6798 32.1251C36.8265 32.1251 37.0012 32.0501 37.1829 31.9096C37.2504 31.858 37.311 31.8205 37.3179 31.8275C37.3249 31.8346 37.3482 31.8744 37.3715 31.9189C37.3948 31.9611 37.4623 32.0314 37.5229 32.0712C37.6207 32.1392 37.6556 32.1485 37.7814 32.1485C37.9863 32.1485 38.1517 32.111 38.3287 32.029C38.536 31.933 38.6734 31.8205 39.0507 31.4574C39.2999 31.2137 39.3907 31.141 39.4536 31.1293C39.6306 31.0942 39.6236 31.1176 39.3767 31.3988C39.0018 31.8205 38.9366 31.9705 39.0763 32.0876C39.2184 32.2071 39.5141 32.1532 39.8122 31.9541C39.8984 31.8955 39.9846 31.8439 39.9985 31.8393C40.0148 31.8346 40.0451 31.8697 40.0684 31.9142C40.2081 32.1884 40.6087 32.2212 41.0536 31.9962C41.1374 31.9541 41.2212 31.9025 41.2375 31.8814C41.2841 31.8252 41.3027 31.8322 41.4518 31.9705C41.6172 32.1251 41.7057 32.1579 41.9246 32.1439C42.1412 32.1298 42.2995 32.0525 42.5301 31.8486C42.7607 31.6495 42.9167 31.5347 42.9493 31.5464C42.9656 31.5511 42.9726 31.619 42.9679 31.7291C42.9563 32.0197 43.0425 32.1251 43.2917 32.1251C43.4896 32.1251 43.6317 32.0712 43.7877 31.94C43.8646 31.8744 43.9344 31.8275 43.9461 31.8346C43.9554 31.8416 43.9647 31.8838 43.9647 31.9283C43.9647 32.0595 44.0486 32.1251 44.2139 32.1251C44.3653 32.1251 44.4748 32.0806 44.6518 31.9517C44.7146 31.9049 44.7822 31.8674 44.7985 31.8674C44.8125 31.8674 44.8451 31.9119 44.866 31.9634C44.9545 32.1907 45.3132 32.2095 45.6089 32.0056C45.7673 31.8978 46.1609 31.5019 46.1493 31.4644C46.1236 31.3871 46.0398 31.4269 45.7906 31.626C45.5251 31.8439 45.425 31.9002 45.3341 31.8861C45.2876 31.8791 45.2806 31.8674 45.2829 31.769C45.2829 31.626 45.3434 31.5417 45.567 31.3636C46.0398 30.9887 46.4427 30.5717 46.5428 30.3515C46.622 30.1804 46.6104 30.0422 46.5172 29.9953C46.4287 29.9531 46.2261 29.993 46.0957 30.0797C45.8349 30.2554 45.2689 30.9067 45.036 31.3051C44.9242 31.4925 44.7822 31.6424 44.6005 31.7643C44.4445 31.8697 44.342 31.9049 44.3094 31.8721C44.2745 31.8369 44.3513 31.7245 44.5702 31.4808C44.6611 31.3777 44.7542 31.2582 44.7752 31.216C44.8125 31.141 44.8101 31.134 44.7729 31.1059C44.7496 31.0895 44.6913 31.0708 44.6424 31.0614C44.5912 31.0544 44.519 31.0216 44.4817 30.9887C44.3443 30.8739 44.0672 30.8693 43.7458 30.977C43.6573 31.0052 43.4989 31.0942 43.3452 31.1996C43.0005 31.4409 42.9353 31.4363 42.9097 31.1785C42.8934 31.0145 42.8375 30.9419 42.6978 30.9044C42.3717 30.8154 41.8291 31.0497 41.4914 31.4245C41.2562 31.6846 40.9418 31.8791 40.7042 31.9072C40.6204 31.9166 40.5878 31.9096 40.5365 31.8674C40.455 31.8041 40.455 31.7455 40.5389 31.5979C40.6669 31.373 40.9767 31.1036 41.1351 31.0778C41.2375 31.0614 41.2422 31.1012 41.1584 31.2254C41.0838 31.3332 41.0931 31.3613 41.1979 31.3707C41.2655 31.3753 41.2981 31.3636 41.368 31.3027C41.5403 31.1504 41.545 31.0403 41.3796 30.9442C41.2119 30.8435 40.8556 30.9067 40.5598 31.0872C40.4853 31.1317 40.2966 31.291 40.1406 31.4386C39.7703 31.7924 39.5095 31.9634 39.4419 31.8955C39.4117 31.865 39.5444 31.6823 39.7983 31.4128C40.0311 31.1645 40.087 31.0801 40.0614 31.0122C40.0405 30.9583 39.952 30.9466 39.7004 30.963C39.4792 30.9794 39.4699 30.977 39.4699 30.9325C39.4699 30.9067 39.4443 30.8669 39.4117 30.8458C39.2626 30.7474 38.9598 30.9559 39.046 31.0965C39.0926 31.1692 39.0786 31.2043 38.9435 31.3496C38.7689 31.5417 38.5662 31.6917 38.331 31.8065C37.9887 31.9705 37.7581 31.9306 37.7581 31.7057C37.7581 31.6542 37.7674 31.605 37.7767 31.5956C37.7861 31.5862 37.9072 31.5698 38.0446 31.5604C38.4195 31.5323 38.6245 31.4503 38.7363 31.2863C38.8178 31.1668 38.8108 31.0918 38.713 31.0028C38.5663 30.8739 38.3753 30.8575 38.0702 30.9536C37.8862 31.0098 37.7581 31.1059 37.3808 31.4714C37.0245 31.8158 36.8615 31.926 36.8009 31.8627C36.7706 31.8346 36.78 31.8111 36.8568 31.6893C36.9453 31.5534 37.2411 31.1902 37.7069 30.649C38.1331 30.1546 38.2123 30.0164 38.0911 29.9836C38.0143 29.9625 37.8839 29.9695 37.8163 29.9953ZM46.3868 30.2577C46.3868 30.3585 45.7207 31.1176 45.6322 31.1176C45.5763 31.1176 45.9676 30.5811 46.1795 30.3702C46.3169 30.232 46.3868 30.1945 46.3868 30.2577ZM36.8009 31.0848C36.8801 31.1153 36.8359 31.1973 36.6239 31.4081C36.391 31.6401 36.2001 31.7783 36.0161 31.8486C35.8158 31.926 35.7529 31.8463 35.874 31.6659C36.0347 31.4222 36.3421 31.1926 36.6169 31.1036C36.7264 31.0684 36.752 31.0661 36.8009 31.0848ZM38.5243 31.1082C38.5779 31.1598 38.5709 31.1926 38.4964 31.2652C38.4079 31.3496 38.2565 31.3988 38.0772 31.3988H37.9258L37.9794 31.3402C38.0516 31.2629 38.2495 31.1317 38.3403 31.0989C38.4405 31.0637 38.4824 31.0661 38.5243 31.1082ZM42.6722 31.1129C42.6722 31.1293 42.6302 31.1668 42.5813 31.1949C42.4695 31.2582 42.3973 31.3519 42.4183 31.4058C42.4253 31.4292 42.4626 31.462 42.4998 31.4831C42.5371 31.5019 42.5674 31.5323 42.5674 31.5511C42.5674 31.5956 42.4556 31.6776 42.2413 31.7924C41.9781 31.9353 41.8407 31.9447 41.7778 31.8229C41.6917 31.6635 42.0806 31.2465 42.4346 31.1153C42.5674 31.0661 42.6722 31.0661 42.6722 31.1129ZM44.3094 31.0848C44.3793 31.1059 44.3746 31.1598 44.2861 31.2793C44.1021 31.53 43.5339 31.9213 43.4081 31.8791C43.2055 31.8158 43.6946 31.2746 44.1021 31.1153C44.2232 31.0684 44.2349 31.0661 44.3094 31.0848Z" fill="#323232"/>
<path fill-rule="evenodd" clip-rule="evenodd" d="M30.8228 30.924C30.797 30.9474 30.804 31.1841 30.8298 31.2005C30.8556 31.2169 31.0172 31.0693 31.0172 31.0294C31.0172 30.999 30.9024 30.9076 30.865 30.9076C30.8509 30.9076 30.8298 30.9146 30.8228 30.924Z" fill="#323232"/>
<path fill-rule="evenodd" clip-rule="evenodd" d="M29.1807 31.6145L29.1877 31.6918L29.7955 31.6989C30.4639 31.7059 30.6363 31.6918 30.6759 31.6262C30.6945 31.5934 30.6945 31.5794 30.6666 31.563C30.6456 31.5489 30.3265 31.5396 29.9027 31.5396H29.1737L29.1807 31.6145Z" fill="#323232"/>
<path fill-rule="evenodd" clip-rule="evenodd" d="M46.6298 31.563C46.5786 31.5841 46.539 31.652 46.5646 31.6778C46.5716 31.6848 46.9256 31.6918 47.3494 31.6918H48.1226L48.1296 31.6145L48.1366 31.5396L47.4077 31.5419C47.0071 31.5419 46.6578 31.5513 46.6298 31.563Z" fill="#323232"/>
<path fill-rule="evenodd" clip-rule="evenodd" d="M30.2871 32.5026C30.0216 32.5799 29.9331 32.9126 30.131 33.1024C30.3104 33.2711 30.6551 33.2664 30.8064 33.0954C30.9485 32.9337 30.9182 32.6853 30.7459 32.5635C30.6364 32.4862 30.4385 32.4604 30.2871 32.5026ZM30.6411 32.6361C30.6737 32.6596 30.7156 32.7181 30.7296 32.765C30.8111 33.011 30.5246 33.2312 30.308 33.0883C30.2172 33.0274 30.1799 32.9548 30.1776 32.8329C30.1776 32.7533 30.1916 32.7205 30.2428 32.6713C30.2778 32.6385 30.3267 32.6033 30.3523 32.5916C30.4222 32.5611 30.5735 32.5846 30.6411 32.6361Z" fill="#323232"/>
<path fill-rule="evenodd" clip-rule="evenodd" d="M32.0964 32.5004C32.0288 32.5285 31.9473 32.6363 31.9473 32.6995C31.9473 32.7862 32.0498 32.8659 32.1802 32.8823C32.313 32.8987 32.4504 32.9573 32.469 33.0065C32.476 33.0252 32.4597 33.0627 32.4341 33.0885C32.3642 33.1588 32.1895 33.14 32.0754 33.0533C31.9473 32.9549 31.8611 33.0182 31.9776 33.1283C32.1686 33.3087 32.6227 33.2267 32.6227 33.0111C32.6227 32.976 32.6017 32.9245 32.5785 32.901C32.5389 32.8612 32.3316 32.7815 32.2664 32.7815C32.2175 32.7815 32.0871 32.7042 32.0871 32.6738C32.0871 32.6269 32.1825 32.5707 32.2641 32.5707C32.3036 32.5707 32.3758 32.5964 32.4224 32.6292C32.5156 32.6925 32.5994 32.7066 32.5994 32.6574C32.5994 32.5379 32.2617 32.4324 32.0964 32.5004Z" fill="#323232"/>
<path fill-rule="evenodd" clip-rule="evenodd" d="M37.0205 32.498C36.7527 32.5847 36.6526 32.8284 36.79 33.0533C36.8715 33.1892 37.1207 33.2595 37.3256 33.2033C37.6307 33.1213 37.7052 32.7417 37.4537 32.5636C37.3489 32.491 37.1416 32.4605 37.0205 32.498ZM37.3419 32.6292C37.4211 32.6808 37.4747 32.8143 37.4584 32.9104C37.4491 32.9502 37.4118 33.0158 37.3722 33.0533C37.3116 33.1119 37.2837 33.1213 37.1766 33.1213C37.0229 33.1213 36.9344 33.0627 36.8878 32.9291C36.8575 32.8448 36.8598 32.8284 36.8994 32.7441C36.9786 32.58 37.1859 32.5262 37.3419 32.6292Z" fill="#323232"/>
<path fill-rule="evenodd" clip-rule="evenodd" d="M37.9869 32.5187C37.8356 32.5796 37.775 32.6453 37.7587 32.7671C37.7331 32.9334 37.761 33.0248 37.8635 33.1162C37.9986 33.2404 38.2431 33.2615 38.4248 33.1654C38.5226 33.1162 38.6111 32.9686 38.6134 32.8585C38.6158 32.6921 38.5273 32.5726 38.3549 32.5117C38.2268 32.4672 38.1104 32.4695 37.9869 32.5187ZM38.3223 32.6171C38.49 32.7202 38.5156 32.9077 38.3805 33.0436C38.2105 33.2169 37.8868 33.1115 37.8868 32.8819C37.8868 32.6453 38.129 32.4976 38.3223 32.6171Z" fill="#323232"/>
<path fill-rule="evenodd" clip-rule="evenodd" d="M42.8849 32.5006C42.7359 32.5474 42.6264 32.7278 42.645 32.8942C42.659 33.0254 42.7196 33.1074 42.8477 33.173C43.0363 33.2714 43.2925 33.2269 43.4299 33.0746C43.4811 33.0207 43.4881 32.9902 43.4881 32.8567C43.4858 32.6693 43.4439 32.5919 43.3181 32.5404C43.2063 32.4959 42.9711 32.4748 42.8849 32.5006ZM43.2226 32.6247C43.2669 32.6529 43.3204 32.7161 43.3437 32.7653C43.3856 32.8497 43.3856 32.8544 43.3437 32.9387C43.2878 33.0535 43.1691 33.1332 43.0503 33.1332C42.9758 33.1332 42.9431 33.1168 42.8686 33.0418C42.7964 32.9692 42.7778 32.934 42.7778 32.8637C42.7778 32.6294 43.0293 32.4935 43.2226 32.6247Z" fill="#323232"/>
<path fill-rule="evenodd" clip-rule="evenodd" d="M45.6357 32.5098C45.5145 32.5543 45.4656 32.6035 45.4191 32.7253C45.3259 32.9737 45.5145 33.2267 45.794 33.2267C45.9244 33.2267 46.0758 33.1517 46.1294 33.0604C46.2132 32.9221 46.141 32.9057 45.9966 33.0299C45.9314 33.0838 45.8662 33.1189 45.8057 33.126C45.7242 33.1377 45.7055 33.1307 45.6333 33.058C45.4959 32.9198 45.4936 32.7862 45.631 32.648C45.7311 32.5472 45.808 32.5472 45.9687 32.6527C46.1084 32.7441 46.1643 32.7323 46.1084 32.6269C46.0432 32.5074 45.8033 32.4465 45.6357 32.5098Z" fill="#323232"/>
<path fill-rule="evenodd" clip-rule="evenodd" d="M46.6068 32.4936C46.5253 32.51 46.3693 32.6576 46.3413 32.749C46.3087 32.8497 46.3227 32.9458 46.3926 33.0583C46.4578 33.1637 46.5952 33.2246 46.7698 33.227C46.9003 33.227 46.9096 33.2223 47.0097 33.1215C47.068 33.0653 47.1099 33.0044 47.1052 32.988C47.0866 32.9318 47.0237 32.9435 46.9562 33.0114C46.8281 33.1379 46.7419 33.1614 46.6208 33.0981C46.4811 33.0255 46.4391 32.8263 46.5346 32.6857C46.6278 32.5452 46.7396 32.5452 46.9631 32.6904C47.0353 32.7349 47.04 32.7373 47.0563 32.6998C47.1029 32.5733 46.8327 32.4491 46.6068 32.4936Z" fill="#323232"/>
<path fill-rule="evenodd" clip-rule="evenodd" d="M47.5268 32.4977C47.3312 32.5609 47.2613 32.6804 47.2706 32.9264C47.273 33.0108 47.3778 33.1303 47.4942 33.1818C47.7015 33.2779 48.0182 33.1982 48.0974 33.0295C48.1789 32.8585 48.1254 32.6593 47.974 32.5586C47.8715 32.4906 47.6433 32.4602 47.5268 32.4977ZM47.8575 32.6195C47.9251 32.6453 47.9949 32.7741 47.9949 32.8725C47.9949 33.0038 47.8389 33.1326 47.6805 33.1326C47.62 33.1326 47.5757 33.1115 47.5105 33.053C47.4313 32.978 47.4244 32.9616 47.4244 32.8444C47.4244 32.7507 47.436 32.7015 47.4686 32.6664C47.5501 32.575 47.6992 32.5586 47.8575 32.6195Z" fill="#323232"/>
<path fill-rule="evenodd" clip-rule="evenodd" d="M29.2279 32.5285C29.2349 32.5449 29.2814 32.5613 29.3327 32.566C29.3862 32.5707 29.4421 32.5894 29.4584 32.6082C29.4771 32.6316 29.4934 32.7464 29.498 32.9245C29.5073 33.1658 29.5143 33.2033 29.5469 33.2033C29.6261 33.2033 29.6424 33.1518 29.6424 32.9104C29.6424 32.6222 29.668 32.5707 29.8054 32.5777C29.9033 32.5801 29.9359 32.566 29.9102 32.5262C29.887 32.4863 29.2162 32.491 29.2279 32.5285Z" fill="#323232"/>
<path fill-rule="evenodd" clip-rule="evenodd" d="M31.3233 32.5543C31.272 32.6106 31.0787 33.0229 31.0508 33.1377C31.0368 33.194 31.0415 33.2033 31.081 33.2033C31.1276 33.2033 31.1719 33.1635 31.2138 33.0768C31.2348 33.0346 31.2604 33.0276 31.4048 33.0206L31.5725 33.0136L31.6051 33.0909C31.6633 33.2291 31.7611 33.2666 31.7611 33.1494C31.7611 33.0815 31.5561 32.6082 31.5003 32.5473C31.442 32.4864 31.3838 32.4887 31.3233 32.5543ZM31.4723 32.7957C31.4909 32.8964 31.4607 32.9339 31.3792 32.9128C31.3093 32.8964 31.3 32.8402 31.3559 32.7628C31.4094 32.6855 31.4537 32.6996 31.4723 32.7957Z" fill="#323232"/>
<path fill-rule="evenodd" clip-rule="evenodd" d="M32.7674 32.5284C32.7744 32.5448 32.793 32.5612 32.8116 32.5635C32.8303 32.5658 32.8838 32.5729 32.9327 32.5822L33.0189 32.5963V32.7439C33.0189 32.9946 33.0469 33.1821 33.0841 33.1985C33.147 33.2219 33.1773 33.1352 33.1936 32.8634L33.2099 32.5963L33.2937 32.5822C33.3426 32.5729 33.3939 32.5658 33.4125 32.5635C33.4311 32.5612 33.4498 32.5448 33.4567 32.5284C33.4637 32.5073 33.3846 32.5002 33.1121 32.5002C32.8396 32.5002 32.7604 32.5073 32.7674 32.5284Z" fill="#323232"/>
<path fill-rule="evenodd" clip-rule="evenodd" d="M33.7152 32.5175C33.6383 32.5292 33.6243 32.5878 33.6243 32.8877C33.6243 33.2063 33.6336 33.2157 33.9923 33.2157C34.146 33.2157 34.2811 33.2063 34.2904 33.1969C34.3253 33.1641 34.2462 33.1337 34.1227 33.1337C34.0575 33.1337 33.955 33.1267 33.8945 33.1196L33.7874 33.1032V33.0048V32.9064L33.9993 32.8924C34.1181 32.8853 34.2229 32.8689 34.2368 32.8549C34.2718 32.8197 34.1553 32.7822 34.0063 32.7822C33.8479 32.7822 33.7874 32.7518 33.7874 32.6745C33.7874 32.5995 33.8596 32.5714 34.0552 32.5714C34.2159 32.5714 34.2834 32.555 34.2625 32.5222C34.2508 32.5011 33.8386 32.4987 33.7152 32.5175Z" fill="#323232"/>
<path fill-rule="evenodd" clip-rule="evenodd" d="M34.5539 32.517C34.5236 32.524 34.5143 32.5662 34.505 32.7302C34.5003 32.8427 34.5003 32.9903 34.505 33.0582C34.5143 33.1683 34.5213 33.1871 34.5772 33.2082C34.661 33.241 34.9475 33.2199 35.0383 33.173C35.213 33.0816 35.2828 32.8427 35.185 32.6669C35.1105 32.5357 35.0243 32.5006 34.7844 32.5029C34.6796 32.5053 34.5748 32.5099 34.5539 32.517ZM34.9288 32.5943C35.0336 32.6224 35.0918 32.7185 35.0918 32.8637C35.0918 32.9528 35.0802 32.9856 35.0266 33.0395C34.9544 33.1098 34.8264 33.1472 34.7332 33.1238C34.6913 33.1144 34.675 33.0887 34.6633 33.0231C34.64 32.8731 34.647 32.6294 34.6773 32.599C34.7122 32.5638 34.817 32.5638 34.9288 32.5943Z" fill="#323232"/>
<path fill-rule="evenodd" clip-rule="evenodd" d="M35.8653 32.5216C35.8188 32.5498 35.8351 33.173 35.884 33.2035C35.9422 33.2386 35.9748 33.1824 35.9818 33.0324L35.9888 32.8872L36.1867 32.8965C36.2985 32.9012 36.3917 32.9153 36.401 32.9317C36.4103 32.9457 36.4196 32.9879 36.4196 33.0277C36.4196 33.1332 36.4452 33.2035 36.4802 33.2035C36.5244 33.2035 36.5384 33.0863 36.5314 32.7817C36.5244 32.531 36.5221 32.5123 36.4779 32.5123C36.4406 32.5123 36.4289 32.5334 36.4173 32.6247C36.4103 32.688 36.3894 32.7489 36.3707 32.7606C36.3544 32.7723 36.2613 32.7817 36.1704 32.7817H36.0004V32.7021C36.0004 32.5427 35.9445 32.4701 35.8653 32.5216Z" fill="#323232"/>
<path fill-rule="evenodd" clip-rule="evenodd" d="M39.3191 32.5284C39.2935 32.5424 39.205 32.608 39.1235 32.6689C38.9582 32.7978 38.9349 32.7931 38.9139 32.6361C38.9046 32.5658 38.8883 32.533 38.8603 32.5284C38.8231 32.5213 38.8184 32.5494 38.8184 32.847C38.8184 33.0251 38.8254 33.1797 38.8347 33.1867C38.8627 33.2149 38.9092 33.1516 38.9256 33.0649C38.9419 32.9688 38.9931 32.8751 39.0304 32.8751C39.0443 32.8751 39.1328 32.9478 39.2237 33.0391C39.3844 33.1938 39.4496 33.2313 39.4822 33.1821C39.4892 33.168 39.4263 33.0813 39.3424 32.9829C39.2586 32.8868 39.191 32.7978 39.191 32.7837C39.191 32.772 39.2539 32.7111 39.3308 32.6525C39.4659 32.5471 39.4892 32.5002 39.4053 32.5002C39.3844 32.5002 39.3448 32.5143 39.3191 32.5284Z" fill="#323232"/>
<path fill-rule="evenodd" clip-rule="evenodd" d="M39.9036 32.5426C39.8501 32.6059 39.6335 33.0885 39.6335 33.1495C39.6335 33.2455 39.7546 33.1987 39.7919 33.0862C39.8175 33.0182 39.8221 33.0159 39.9689 33.0159C40.0923 33.0159 40.1319 33.0253 40.1691 33.0628C40.1948 33.0885 40.2157 33.126 40.2157 33.1448C40.2157 33.1846 40.2833 33.2244 40.3275 33.2104C40.3415 33.2033 40.3555 33.1823 40.3555 33.1612C40.3555 33.1003 40.1039 32.5637 40.0597 32.5286C40.0038 32.4887 39.9502 32.4934 39.9036 32.5426ZM40.0574 32.7839C40.0806 32.8636 40.0783 32.8824 40.0504 32.9011C40.0038 32.9292 39.9758 32.9269 39.9246 32.8917C39.885 32.8613 39.885 32.8566 39.9362 32.7629C39.9665 32.709 39.9991 32.6715 40.0084 32.6785C40.0201 32.6855 40.041 32.7324 40.0574 32.7839Z" fill="#323232"/>
<path fill-rule="evenodd" clip-rule="evenodd" d="M40.558 32.5167C40.5487 32.5237 40.5417 32.6783 40.5417 32.8564C40.5417 33.1305 40.5464 33.1844 40.579 33.1961C40.6349 33.2172 40.6652 33.168 40.6768 33.0274L40.6861 32.8986H40.8072C40.8724 32.8986 40.9633 32.8915 41.0098 32.8845L41.0937 32.8705L41.1053 33.0274C41.1216 33.2172 41.1472 33.25 41.2171 33.1797C41.266 33.1305 41.2683 33.1118 41.259 32.847C41.2497 32.6057 41.2427 32.5612 41.2055 32.5331C41.1426 32.4862 41.1053 32.5307 41.096 32.6596L41.089 32.7697H40.8911H40.6931L40.6815 32.6643C40.6745 32.6057 40.6605 32.5448 40.6512 32.5284C40.6302 32.4979 40.5813 32.4909 40.558 32.5167Z" fill="#323232"/>
<path fill-rule="evenodd" clip-rule="evenodd" d="M41.8043 32.5285C41.8112 32.5449 41.8695 32.5637 41.9347 32.5707C41.9999 32.5777 42.0604 32.5918 42.0721 32.6035C42.0814 32.6129 42.0954 32.7417 42.0977 32.887C42.1047 33.0768 42.1163 33.1611 42.1373 33.1799C42.1955 33.2291 42.2118 33.1846 42.2258 32.9245C42.2421 32.6082 42.2584 32.573 42.3818 32.5777C42.4796 32.5801 42.5123 32.566 42.4866 32.5262C42.4633 32.4863 41.7926 32.491 41.8043 32.5285Z" fill="#323232"/>
<path fill-rule="evenodd" clip-rule="evenodd" d="M43.686 32.8119C43.686 33.2125 43.693 33.2266 43.9259 33.2266C44.0191 33.2266 44.1285 33.2172 44.1728 33.2031C44.3428 33.1539 44.408 33.0157 44.3218 32.8845C44.2892 32.833 44.2869 32.8119 44.3125 32.7439C44.3451 32.6549 44.3242 32.5963 44.2403 32.5377C44.2007 32.5096 44.1262 32.5002 43.9376 32.5002H43.686V32.8119ZM44.0936 32.6033C44.1774 32.6408 44.2007 32.6994 44.1472 32.7533C44.1192 32.7814 43.9259 32.7908 43.863 32.7673C43.8188 32.7509 43.8141 32.6385 43.8537 32.5987C43.891 32.5612 43.9958 32.5635 44.0936 32.6033ZM44.1937 32.9384C44.2333 32.9923 44.2287 33.0251 44.1774 33.0719C44.1192 33.1235 43.9725 33.1446 43.891 33.1118C43.8374 33.0907 43.8258 33.0719 43.8258 33.004C43.8258 32.9407 43.8374 32.915 43.8793 32.8986C43.9539 32.8658 44.1565 32.8939 44.1937 32.9384Z" fill="#323232"/>
<path fill-rule="evenodd" clip-rule="evenodd" d="M44.8203 32.5289C44.7598 32.5758 44.4943 33.1592 44.5222 33.1873C44.5572 33.2224 44.6154 33.1896 44.6666 33.0983C44.7155 33.0163 44.7179 33.0163 44.8762 33.0163C45.0299 33.0163 45.0369 33.0186 45.0719 33.0842C45.1184 33.1779 45.1999 33.2342 45.2372 33.2014C45.2721 33.1709 45.2512 33.1053 45.0998 32.7773C44.981 32.5195 44.9135 32.461 44.8203 32.5289ZM44.9391 32.8124C44.9484 32.9108 44.9088 32.9413 44.8296 32.8991C44.7691 32.8663 44.7691 32.8499 44.8296 32.7726C44.8925 32.6906 44.9298 32.7046 44.9391 32.8124Z" fill="#323232"/>
</svg>
