<svg width="106" height="58" viewBox="0 0 106 58" fill="none" xmlns="http://www.w3.org/2000/svg">
<path fill-rule="evenodd" clip-rule="evenodd" d="M57.6487 23.7362C55.3128 24.0141 53.3701 25.6646 52.7268 27.9198C52.6651 28.129 52.5968 28.446 52.5709 28.6225L52.5221 28.9461L52.7463 29.2402C52.8697 29.4004 53.0062 29.5769 53.0484 29.6324L53.2835 29.79L53.3014 29.1389V28.5441L53.3766 28.5375H53.6202V29.5671V30.5966H53.4253L53.3358 30.5116L53.0174 30.0966C52.842 29.8678 52.5183 29.3477 52.4956 29.3216C52.4306 29.2431 52.5254 30.2665 52.6131 30.6947C52.964 32.44 54.1043 33.9402 55.6962 34.7475C56.869 35.3423 58.2237 35.5156 59.52 35.2345C60.3906 35.0482 61.2743 34.62 61.9533 34.0611C63.2951 32.9531 64.0813 31.3157 64.0813 29.6161C64.0813 28.5179 63.7921 28.1911 62.3269 27.6289C61.7649 27.4132 61.44 27.2563 61.1249 27.0504C60.6928 26.7693 60.4849 26.4817 59.9553 25.4489C59.4063 24.3736 59.1334 24.0075 58.737 23.8114C58.5648 23.7264 58.5064 23.7166 58.2172 23.7101C58.0385 23.7068 57.7819 23.7199 57.6487 23.7362ZM57.7299 26.5242C58.0223 26.6582 58.2335 26.9066 58.8052 27.7858C59.1659 28.3382 59.2926 28.4787 59.5232 28.5898C59.6174 28.6356 59.7214 28.7075 59.7539 28.7467C59.8091 28.8219 60.1961 29.0153 60.2676 29.0153C60.2871 29.0153 60.3124 28.9036 60.3124 28.7663V28.5375H60.735C61.1346 28.5375 61.2841 28.5506 61.3783 28.5898C61.7779 28.7565 61.9241 29.2598 61.6837 29.6488C61.5992 29.7828 61.5959 29.8057 61.6317 29.8939C61.7356 30.1358 61.6512 30.6718 61.427 31.2078C61.2093 31.7275 60.6798 32.3779 60.2185 32.6884C59.9358 32.878 59.4712 33.0937 59.1594 33.1787C58.7858 33.28 58.0808 33.3029 57.7104 33.2277C56.4726 32.976 55.5402 32.1524 55.1017 30.93C55.0562 30.7993 55.0172 30.6653 55.0172 30.6358C55.0172 30.5835 54.9685 30.5803 54.4649 30.5901L54.0895 30.6097V29.5736V28.5375L54.5104 28.5441L55.1114 28.5539L55.1959 28.3382C55.4655 27.6453 56.125 26.936 56.8332 26.5798C57.1906 26.3967 57.4245 26.3837 57.7299 26.5242ZM62.4894 28.9297V29.3219H62.9117H63.334V28.9297V28.5375H63.5777H63.8214V29.5671V30.5966H63.5777H63.334V30.1881V29.7795H62.9117H62.4894V30.1881V30.5966H62.2619H62.0345V29.5671V28.5375H62.2619H62.4894V28.9297Z" fill="#FF1368"/>
<path fill-rule="evenodd" clip-rule="evenodd" d="M54.3999 29.5471V30.1387H54.6598H54.9197V29.7497C54.9197 29.5373 54.936 29.2856 54.9522 29.1908C54.9717 29.096 54.9619 28.9314 54.9522 28.9248C54.9425 28.915 54.8125 28.8987 54.6598 28.8921L54.3837 28.8758L54.3999 29.5471Z" fill="#FF1368"/>
<path fill-rule="evenodd" clip-rule="evenodd" d="M60.6619 29.0534C60.6619 29.1678 60.749 29.1874 61.0251 29.3181C61.2883 29.4423 61.3143 29.4489 61.35 29.3966C61.4117 29.3116 61.402 29.1417 61.3305 29.0534C61.2753 28.9848 61.2525 28.9168 61.0251 28.907H60.6619V29.0534Z" fill="#FF1368"/>
<path fill-rule="evenodd" clip-rule="evenodd" d="M65.9144 28.498C65.8082 28.5334 65.6587 28.6044 65.5863 28.6499C65.4608 28.7411 65.456 28.7411 65.456 28.6347C65.456 28.5436 65.427 28.5284 65.263 28.5284H65.07V29.5667V30.605H65.2582H65.4463L65.4657 29.901C65.4801 29.278 65.4946 29.1767 65.5815 29.0501C65.8034 28.7411 66.3342 28.7208 66.4693 29.0197C66.5079 29.1058 66.5369 29.435 66.5465 29.8706L66.5658 30.5797L66.7588 30.5949L66.9567 30.6101L66.9422 29.8605L66.9277 29.1109L66.6961 28.9842C66.5417 28.8981 66.4307 28.7867 66.3583 28.655C66.2329 28.4271 66.1846 28.4068 65.9144 28.498Z" fill="black"/>
<path fill-rule="evenodd" clip-rule="evenodd" d="M50.4101 28.5338C50.0482 28.6503 49.6911 29.2429 49.7538 29.6278C49.7924 29.8709 49.8117 29.8963 50.0337 30.0026C50.164 30.0634 50.3232 30.1951 50.4342 30.342C50.6755 30.656 50.6851 30.6611 50.8781 30.6307C51.1532 30.575 51.4571 30.3471 51.5874 30.0887C51.6791 29.9013 51.6791 29.8963 51.4668 29.8963C51.3317 29.8963 51.2545 29.9267 51.2062 29.9976C51.1146 30.1343 50.8878 30.2508 50.7092 30.2508C50.5114 30.2508 50.2557 30.0634 50.1736 29.8558L50.1109 29.6937H50.9119H51.7129L51.6936 29.4202C51.6695 29.1011 51.5102 28.8225 51.2497 28.6401C51.0615 28.5034 50.6562 28.4527 50.4101 28.5338ZM51.0277 28.9592C51.1049 29.0048 51.2062 29.1061 51.2448 29.1872L51.322 29.3391H50.7382C50.3473 29.3391 50.1591 29.3189 50.1591 29.2834C50.1591 29.253 50.2315 29.1517 50.3232 29.0555C50.4583 28.9137 50.5259 28.8833 50.6851 28.8833C50.7961 28.8833 50.9505 28.9187 51.0277 28.9592Z" fill="black"/>
<path fill-rule="evenodd" clip-rule="evenodd" d="M56.7799 28.5338C56.5386 28.6098 56.1622 29.015 56.0947 29.2835C55.921 29.9622 56.4325 30.6257 57.1321 30.6257C58.02 30.6308 58.5073 29.5772 57.938 28.8833C57.6484 28.5237 57.2286 28.3971 56.7799 28.5338ZM57.5712 29.0505C57.7208 29.1923 57.7498 29.2632 57.7691 29.4709C57.8221 30.0533 57.3589 30.4028 56.8426 30.18C56.5917 30.0685 56.4711 29.8305 56.4952 29.4962C56.5097 29.2581 56.5386 29.1974 56.6882 29.0505C56.8426 28.9036 56.8957 28.8833 57.1321 28.8833C57.3686 28.8833 57.4216 28.9036 57.5712 29.0505Z" fill="black"/>
<path fill-rule="evenodd" clip-rule="evenodd" d="M51.9446 29.5666V30.6049H52.1617H52.374L52.3885 29.9617L52.403 29.3133L52.8373 29.8958C53.3873 30.6404 53.3632 30.615 53.5466 30.5948L53.7058 30.5796V29.5666V28.5536L53.5031 28.5384L53.2957 28.5232V29.131C53.2957 29.7945 53.2571 29.8705 53.0785 29.597C53.0254 29.5159 52.8324 29.2424 52.6442 28.9892C52.3258 28.5536 52.3017 28.5283 52.1279 28.5283H51.9446V29.5666Z" fill="black"/>
<path fill-rule="evenodd" clip-rule="evenodd" d="M54.0677 29.5616V30.605H54.5405C55.0858 30.605 55.3126 30.5493 55.5152 30.367C55.7662 30.1492 55.8675 29.8807 55.8434 29.4857C55.8289 29.1919 55.8048 29.1109 55.6793 28.9488C55.4187 28.6145 55.274 28.5537 54.637 28.5334L54.0677 28.5182V29.5616ZM55.2209 29.0653C55.5008 29.3084 55.5104 29.7896 55.2499 30.0479C55.1485 30.1492 55.0761 30.1694 54.8059 30.1694L54.4778 30.1745L54.4633 29.5515L54.4489 28.9336H54.7625C55.0279 28.9336 55.0954 28.9538 55.2209 29.0653Z" fill="black"/>
<path fill-rule="evenodd" clip-rule="evenodd" d="M58.3625 29.567V30.6053H58.5796H58.7968V30.2508V29.8962H58.9801C59.1538 29.8962 59.1635 29.9114 59.342 30.2508L59.5254 30.6053H59.7715H60.0127L59.8535 30.3116C59.7715 30.1546 59.675 29.9823 59.646 29.9368C59.6074 29.8659 59.6267 29.8152 59.7618 29.6683C59.9114 29.5113 59.9259 29.4606 59.9259 29.2125C59.9259 28.9896 59.9066 28.9136 59.8101 28.8022C59.5978 28.5692 59.4675 28.5287 58.8933 28.5287H58.3625V29.567ZM59.4337 29.02C59.482 29.0656 59.5206 29.1517 59.5206 29.2175C59.5206 29.4151 59.3951 29.491 59.0815 29.491H58.7968V29.2125V28.9339H59.0718C59.2552 28.9339 59.371 28.9592 59.4337 29.02Z" fill="black"/>
<path fill-rule="evenodd" clip-rule="evenodd" d="M60.2733 29.0957C60.254 29.4097 60.2492 29.8706 60.2637 30.1239L60.283 30.5797L60.4808 30.5949L60.6738 30.6101L60.6883 30.291L60.7028 29.9719L61.0405 29.9466C61.2287 29.9314 61.4266 29.8909 61.4893 29.8554C61.7499 29.6984 61.8705 29.2172 61.7209 28.9133C61.5761 28.6195 61.4266 28.5537 60.8427 28.5385L60.3071 28.5182L60.2733 29.0957ZM61.2577 28.9842C61.3831 29.0551 61.4217 29.2729 61.3301 29.4198C61.2673 29.5262 61.2191 29.5414 60.9682 29.5414H60.6786V29.2375V28.9336H60.9247C61.0598 28.9336 61.2094 28.9538 61.2577 28.9842Z" fill="black"/>
<path fill-rule="evenodd" clip-rule="evenodd" d="M62.0781 29.5717V30.61L62.2856 30.5948L62.4882 30.5796V30.1744V29.7692L62.937 29.754L63.3809 29.7388V30.1744V30.61L63.5884 30.5948L63.791 30.5796V29.5666V28.5536L63.5884 28.5384L63.3809 28.5232V28.9284V29.3387H62.9225H62.4641V28.9335V28.5283H62.2711H62.0781V29.5717Z" fill="black"/>
<path fill-rule="evenodd" clip-rule="evenodd" d="M64.2014 29.567V30.6053H64.4186H64.6357V29.567V28.5287H64.4186H64.2014V29.567Z" fill="black"/>
<path d="M58.5877 50.5816C54.0322 50.7404 49.5432 49.4552 45.7642 46.9101C41.9852 44.3651 39.1102 40.6908 37.5512 36.414L44.6503 33.8341C45.6636 36.614 47.5324 39.0023 49.9888 40.6566C52.4451 42.3109 55.3629 43.1462 58.324 43.043L58.5877 50.5816Z" fill="#FF003D"/>
<path d="M57.0811 7.50397C59.9139 7.4052 62.7385 7.86451 65.3936 8.85568C68.0486 9.84685 70.4822 11.3505 72.5553 13.2807C74.6283 15.2109 76.3004 17.5299 77.4758 20.1053C78.6513 22.6807 79.3072 25.4621 79.4062 28.2906C79.5051 31.1191 79.0451 33.9394 78.0524 36.5904C77.0597 39.2414 75.5538 41.6713 73.6206 43.7412C71.6874 45.8111 69.3648 47.4805 66.7855 48.6542C64.2061 49.8279 61.4205 50.4828 58.5877 50.5816L58.324 43.043C60.1654 42.9788 61.976 42.5531 63.6526 41.7902C65.3292 41.0273 66.8389 39.9422 68.0954 38.5967C69.352 37.2513 70.3308 35.6719 70.9761 33.9487C71.6213 32.2256 71.9203 30.3924 71.856 28.5539C71.7917 26.7153 71.3654 24.9075 70.6013 23.2334C69.8373 21.5594 68.7505 20.0521 67.403 18.7974C66.0555 17.5428 64.4736 16.5654 62.7479 15.9212C61.0221 15.2769 59.1861 14.9783 57.3447 15.0426L57.0811 7.50397Z" fill="#0FBE00"/>
<path d="M37.5512 36.414C36.3861 33.218 35.9952 29.792 36.4103 26.4163C36.8254 23.0405 38.0348 19.8107 39.9396 16.9911C41.8444 14.1714 44.3905 11.8419 47.3698 10.193C50.349 8.54413 53.6768 7.62267 57.0811 7.50397L57.3447 15.0426C55.132 15.1197 52.9689 15.7187 51.0324 16.7904C49.0959 17.8622 47.4409 19.3764 46.2028 21.2092C44.9647 23.042 44.1786 25.1413 43.9087 27.3355C43.6389 29.5298 43.893 31.7566 44.6503 33.8341L37.5512 36.414Z" fill="#FFC700"/>
<path d="M45.3282 13.2912L42.7862 10.028H32.2551" stroke="black" stroke-width="0.145684"/>
<path d="M45.6912 45.5623L43.1492 48.8256H32.6181" stroke="black" stroke-width="0.145684"/>
<path d="M20.7322 47.4225C20.4614 47.4225 20.2427 47.3422 20.0761 47.1815C19.9124 47.0209 19.8306 46.8081 19.8306 46.5433V45.1016C19.8306 44.8368 19.9124 44.6256 20.0761 44.4679C20.2427 44.3072 20.4614 44.2268 20.7322 44.2268C21.0059 44.2268 21.2246 44.3057 21.3883 44.4634C21.5549 44.6211 21.6382 44.8309 21.6382 45.0927V45.1329C21.6382 45.1626 21.6233 45.1775 21.5936 45.1775L21.3659 45.1865C21.3362 45.1865 21.3213 45.1731 21.3213 45.1463V45.0838C21.3213 44.9112 21.2663 44.7714 21.1562 44.6642C21.049 44.5571 20.9077 44.5036 20.7322 44.5036C20.5566 44.5036 20.4153 44.5571 20.3081 44.6642C20.201 44.7684 20.1475 44.9082 20.1475 45.0838V46.5656C20.1475 46.7412 20.201 46.8825 20.3081 46.9896C20.4153 47.0938 20.5566 47.1458 20.7322 47.1458C20.9077 47.1458 21.049 47.0923 21.1562 46.9851C21.2663 46.878 21.3213 46.7382 21.3213 46.5656V46.5031C21.3213 46.4763 21.3362 46.4629 21.3659 46.4629L21.5936 46.4763C21.6233 46.4763 21.6382 46.4912 21.6382 46.521V46.5522C21.6382 46.8141 21.5549 47.0253 21.3883 47.186C21.2246 47.3437 21.0059 47.4225 20.7322 47.4225ZM23.7956 47.3868C23.7718 47.3868 23.7554 47.3749 23.7465 47.3511L23.193 45.972C23.1901 45.9631 23.1841 45.9586 23.1752 45.9586H22.5994C22.5875 45.9586 22.5816 45.9645 22.5816 45.9764V47.3422C22.5816 47.372 22.5667 47.3868 22.5369 47.3868H22.3093C22.2796 47.3868 22.2647 47.372 22.2647 47.3422V44.3072C22.2647 44.2774 22.2796 44.2626 22.3093 44.2626H23.2555C23.4103 44.2626 23.5471 44.2983 23.6662 44.3697C23.7882 44.4411 23.8819 44.5423 23.9473 44.6732C24.0158 44.8041 24.05 44.9544 24.05 45.124C24.05 45.3263 24.0009 45.4989 23.9027 45.6417C23.8045 45.7845 23.6706 45.8797 23.501 45.9274C23.4891 45.9333 23.4861 45.9407 23.4921 45.9497L24.0678 47.3333L24.0723 47.3511C24.0723 47.3749 24.0589 47.3868 24.0321 47.3868H23.7956ZM22.5994 44.5393C22.5875 44.5393 22.5816 44.5452 22.5816 44.5571V45.6863C22.5816 45.6982 22.5875 45.7042 22.5994 45.7042H23.2154C23.3701 45.7042 23.4951 45.6506 23.5903 45.5435C23.6855 45.4364 23.7331 45.2965 23.7331 45.124C23.7331 44.9484 23.6855 44.8071 23.5903 44.7C23.4951 44.5928 23.3701 44.5393 23.2154 44.5393H22.5994ZM26.2491 47.3868C26.2223 47.3868 26.206 47.3735 26.2 47.3467L26.0527 46.7888C26.0497 46.7798 26.0423 46.7754 26.0304 46.7754H24.9637C24.9518 46.7754 24.9443 46.7798 24.9414 46.7888L24.7941 47.3467C24.7881 47.3735 24.7718 47.3868 24.745 47.3868H24.5129C24.498 47.3868 24.4861 47.3824 24.4772 47.3735C24.4712 47.3645 24.4697 47.3526 24.4727 47.3377L25.3073 44.3027C25.3133 44.2759 25.3297 44.2626 25.3564 44.2626H25.6421C25.6689 44.2626 25.6852 44.2759 25.6912 44.3027L26.5258 47.3377L26.5303 47.3511C26.5303 47.3749 26.5154 47.3868 26.4857 47.3868H26.2491ZM25.0172 46.4987C25.0143 46.5016 25.0143 46.5061 25.0172 46.512C25.0232 46.515 25.0291 46.5165 25.0351 46.5165H25.959C25.9649 46.5165 25.9694 46.515 25.9724 46.512C25.9783 46.5061 25.9798 46.5016 25.9768 46.4987L25.5037 44.7044C25.5008 44.6985 25.4978 44.6955 25.4948 44.6955C25.4918 44.6955 25.4889 44.6985 25.4859 44.7044L25.0172 46.4987ZM28.5558 44.3072C28.5558 44.2774 28.5706 44.2626 28.6004 44.2626H28.828C28.8578 44.2626 28.8727 44.2774 28.8727 44.3072V47.3422C28.8727 47.372 28.8578 47.3868 28.828 47.3868H28.587C28.5602 47.3868 28.5424 47.3764 28.5335 47.3556L27.3373 44.9678C27.3313 44.9618 27.3254 44.9588 27.3194 44.9588C27.3165 44.9588 27.315 44.9633 27.315 44.9722L27.3194 47.3422C27.3194 47.372 27.3046 47.3868 27.2748 47.3868H27.0472C27.0174 47.3868 27.0026 47.372 27.0026 47.3422V44.3072C27.0026 44.2774 27.0174 44.2626 27.0472 44.2626H27.2882C27.315 44.2626 27.3328 44.273 27.3418 44.2938L28.5379 46.6906C28.5439 46.6965 28.5483 46.6995 28.5513 46.6995C28.5573 46.6995 28.5602 46.695 28.5602 46.6861L28.5558 44.3072ZM30.9352 45.7577C30.9204 45.7637 30.9204 45.7711 30.9352 45.7801C31.0751 45.8485 31.1822 45.9467 31.2566 46.0746C31.334 46.2026 31.3741 46.3573 31.3771 46.5388C31.3771 46.8066 31.2968 47.0149 31.1361 47.1637C30.9784 47.3125 30.7686 47.3868 30.5068 47.3868H29.6275C29.5978 47.3868 29.5829 47.372 29.5829 47.3422V44.3072C29.5829 44.2774 29.5978 44.2626 29.6275 44.2626H30.4711C30.7448 44.2626 30.9591 44.334 31.1138 44.4768C31.2685 44.6166 31.3459 44.8175 31.3459 45.0793C31.3459 45.246 31.3102 45.3858 31.2388 45.4989C31.1703 45.6119 31.0691 45.6982 30.9352 45.7577ZM29.9176 44.5393C29.9057 44.5393 29.8998 44.5452 29.8998 44.5571V45.6328C29.8998 45.6447 29.9057 45.6506 29.9176 45.6506H30.4755C30.6481 45.6506 30.7835 45.6015 30.8817 45.5033C30.9829 45.4052 31.0334 45.2727 31.0334 45.1061C31.0334 44.9306 30.9829 44.7922 30.8817 44.691C30.7835 44.5899 30.6481 44.5393 30.4755 44.5393H29.9176ZM30.4978 47.1057C30.6704 47.1057 30.8073 47.0521 30.9085 46.945C31.0096 46.8379 31.0602 46.6921 31.0602 46.5076C31.0602 46.3201 31.0081 46.1728 30.904 46.0657C30.8028 45.9586 30.6645 45.905 30.4889 45.905H29.9176C29.9057 45.905 29.8998 45.911 29.8998 45.9229V47.0878C29.8998 47.0997 29.9057 47.1057 29.9176 47.1057H30.4978ZM33.6854 44.4946C33.6854 44.5244 33.6705 44.5393 33.6408 44.5393H32.3018C32.2899 44.5393 32.284 44.5452 32.284 44.5571V45.664C32.284 45.6759 32.2899 45.6819 32.3018 45.6819H33.2034C33.2331 45.6819 33.248 45.6968 33.248 45.7265V45.914C33.248 45.9437 33.2331 45.9586 33.2034 45.9586H32.3018C32.2899 45.9586 32.284 45.9645 32.284 45.9764V47.0923C32.284 47.1042 32.2899 47.1101 32.3018 47.1101H33.6408C33.6705 47.1101 33.6854 47.125 33.6854 47.1548V47.3422C33.6854 47.372 33.6705 47.3868 33.6408 47.3868H32.0117C31.9819 47.3868 31.9671 47.372 31.9671 47.3422V44.3072C31.9671 44.2774 31.9819 44.2626 32.0117 44.2626H33.6408C33.6705 44.2626 33.6854 44.2774 33.6854 44.3072V44.4946ZM35.8037 47.3868C35.7799 47.3868 35.7635 47.3749 35.7546 47.3511L35.2012 45.972C35.1982 45.9631 35.1922 45.9586 35.1833 45.9586H34.6075C34.5956 45.9586 34.5897 45.9645 34.5897 45.9764V47.3422C34.5897 47.372 34.5748 47.3868 34.5451 47.3868H34.3174C34.2877 47.3868 34.2728 47.372 34.2728 47.3422V44.3072C34.2728 44.2774 34.2877 44.2626 34.3174 44.2626H35.2636C35.4184 44.2626 35.5552 44.2983 35.6743 44.3697C35.7963 44.4411 35.89 44.5423 35.9554 44.6732C36.0239 44.8041 36.0581 44.9544 36.0581 45.124C36.0581 45.3263 36.009 45.4989 35.9108 45.6417C35.8126 45.7845 35.6787 45.8797 35.5091 45.9274C35.4972 45.9333 35.4942 45.9407 35.5002 45.9497L36.076 47.3333L36.0804 47.3511C36.0804 47.3749 36.067 47.3868 36.0402 47.3868H35.8037ZM34.6075 44.5393C34.5956 44.5393 34.5897 44.5452 34.5897 44.5571V45.6863C34.5897 45.6982 34.5956 45.7042 34.6075 45.7042H35.2235C35.3782 45.7042 35.5032 45.6506 35.5984 45.5435C35.6936 45.4364 35.7412 45.2965 35.7412 45.124C35.7412 44.9484 35.6936 44.8071 35.5984 44.7C35.5032 44.5928 35.3782 44.5393 35.2235 44.5393H34.6075ZM38.1617 47.3868C38.1379 47.3868 38.1216 47.3749 38.1126 47.3511L37.5592 45.972C37.5562 45.9631 37.5503 45.9586 37.5413 45.9586H36.9656C36.9537 45.9586 36.9477 45.9645 36.9477 45.9764V47.3422C36.9477 47.372 36.9328 47.3868 36.9031 47.3868H36.6755C36.6457 47.3868 36.6308 47.372 36.6308 47.3422V44.3072C36.6308 44.2774 36.6457 44.2626 36.6755 44.2626H37.6217C37.7764 44.2626 37.9133 44.2983 38.0323 44.3697C38.1543 44.4411 38.248 44.5423 38.3135 44.6732C38.3819 44.8041 38.4161 44.9544 38.4161 45.124C38.4161 45.3263 38.367 45.4989 38.2688 45.6417C38.1707 45.7845 38.0368 45.8797 37.8672 45.9274C37.8553 45.9333 37.8523 45.9407 37.8582 45.9497L38.434 47.3333L38.4385 47.3511C38.4385 47.3749 38.4251 47.3868 38.3983 47.3868H38.1617ZM36.9656 44.5393C36.9537 44.5393 36.9477 44.5452 36.9477 44.5571V45.6863C36.9477 45.6982 36.9537 45.7042 36.9656 45.7042H37.5815C37.7362 45.7042 37.8612 45.6506 37.9564 45.5435C38.0516 45.4364 38.0992 45.2965 38.0992 45.124C38.0992 44.9484 38.0516 44.8071 37.9564 44.7C37.8612 44.5928 37.7362 44.5393 37.5815 44.5393H36.9656ZM39.557 47.3824C39.5272 47.3824 39.5123 47.3675 39.5123 47.3377V46.0077C39.5123 45.9958 39.5108 45.9884 39.5079 45.9854L38.7357 44.3161L38.7312 44.2983C38.7312 44.2745 38.7446 44.2626 38.7714 44.2626H39.0124C39.0362 44.2626 39.0526 44.2745 39.0615 44.2983L39.6596 45.6328C39.6626 45.6387 39.667 45.6417 39.673 45.6417C39.6789 45.6417 39.6834 45.6387 39.6864 45.6328L40.2845 44.2983C40.2934 44.2745 40.3098 44.2626 40.3336 44.2626H40.5746C40.5895 44.2626 40.5999 44.2685 40.6058 44.2804C40.6147 44.2893 40.6162 44.3012 40.6103 44.3161L39.8337 45.9854C39.8307 45.9884 39.8292 45.9958 39.8292 46.0077V47.3377C39.8292 47.3675 39.8143 47.3824 39.7846 47.3824H39.557ZM20.1653 52.0878C20.1564 52.1027 20.1594 52.1101 20.1742 52.1101H21.4016C21.4314 52.1101 21.4463 52.125 21.4463 52.1548V52.3422C21.4463 52.372 21.4314 52.3868 21.4016 52.3868H19.8127C19.783 52.3868 19.7681 52.372 19.7681 52.3422V52.1458C19.7681 52.128 19.774 52.1086 19.7859 52.0878C20.0537 51.7248 20.3528 51.3082 20.6831 50.8381C20.9181 50.4959 21.0357 50.2222 21.0357 50.0168C21.0357 49.8621 20.991 49.7386 20.9018 49.6464C20.8125 49.5512 20.695 49.5036 20.5492 49.5036C20.4063 49.5036 20.2918 49.5512 20.2055 49.6464C20.1192 49.7386 20.0775 49.8621 20.0805 50.0168V50.1686C20.0805 50.1984 20.0656 50.2132 20.0359 50.2132H19.8038C19.774 50.2132 19.7592 50.1984 19.7592 50.1686V49.9901C19.7651 49.761 19.841 49.5765 19.9868 49.4366C20.1356 49.2968 20.326 49.2268 20.5581 49.2268C20.7961 49.2268 20.988 49.2997 21.1338 49.4455C21.2796 49.5913 21.3525 49.7818 21.3525 50.0168C21.3525 50.2787 21.2305 50.5881 20.9866 50.9452C20.8348 51.1654 20.5953 51.4987 20.268 51.945L20.1653 52.0878ZM22.7574 52.4315C22.5015 52.4315 22.2962 52.3541 22.1414 52.1994C21.9867 52.0447 21.9093 51.8379 21.9093 51.579V50.0704C21.9093 49.8145 21.9867 49.6092 22.1414 49.4545C22.2962 49.2997 22.5015 49.2224 22.7574 49.2224C23.0162 49.2224 23.223 49.2997 23.3778 49.4545C23.5355 49.6092 23.6143 49.8145 23.6143 50.0704V51.579C23.6143 51.8379 23.5355 52.0447 23.3778 52.1994C23.223 52.3541 23.0162 52.4315 22.7574 52.4315ZM22.7574 52.1548C22.921 52.1548 23.0519 52.1042 23.1501 52.003C23.2483 51.9018 23.2974 51.7679 23.2974 51.6013V50.0526C23.2974 49.8859 23.2483 49.752 23.1501 49.6509C23.0519 49.5497 22.921 49.4991 22.7574 49.4991C22.5997 49.4991 22.4717 49.5497 22.3735 49.6509C22.2753 49.752 22.2262 49.8859 22.2262 50.0526V51.6013C22.2262 51.765 22.2753 51.8989 22.3735 52.003C22.4717 52.1042 22.5997 52.1548 22.7574 52.1548ZM24.8904 50.49C24.7743 50.49 24.6672 50.4617 24.569 50.4052C24.4738 50.3486 24.3979 50.2727 24.3414 50.1775C24.2849 50.0793 24.2566 49.9722 24.2566 49.8562C24.2566 49.7401 24.2849 49.6345 24.3414 49.5393C24.3979 49.4411 24.4738 49.3637 24.569 49.3072C24.6672 49.2507 24.7743 49.2224 24.8904 49.2224C25.0034 49.2224 25.1076 49.2507 25.2028 49.3072C25.301 49.3637 25.3784 49.4411 25.4349 49.5393C25.4914 49.6345 25.5197 49.7401 25.5197 49.8562C25.5197 49.9722 25.4914 50.0793 25.4349 50.1775C25.3784 50.2727 25.301 50.3486 25.2028 50.4052C25.1076 50.4617 25.0034 50.49 24.8904 50.49ZM24.7877 52.3868C24.7728 52.3868 24.7609 52.3824 24.752 52.3735C24.7461 52.3615 24.7476 52.3482 24.7565 52.3333L26.4168 49.2938C26.4257 49.273 26.4436 49.2626 26.4704 49.2626H26.6132C26.6281 49.2626 26.6385 49.2685 26.6444 49.2804C26.6534 49.2893 26.6534 49.3012 26.6444 49.3161L24.9841 52.3556C24.9752 52.3764 24.9573 52.3868 24.9305 52.3868H24.7877ZM24.8904 50.2936C25.0094 50.2936 25.1091 50.2519 25.1894 50.1686C25.2727 50.0823 25.3144 49.9782 25.3144 49.8562C25.3144 49.7342 25.2727 49.6315 25.1894 49.5482C25.1091 49.4619 25.0094 49.4188 24.8904 49.4188C24.7714 49.4188 24.6702 49.4619 24.5869 49.5482C24.5036 49.6315 24.4619 49.7342 24.4619 49.8562C24.4619 49.9782 24.5036 50.0823 24.5869 50.1686C24.6702 50.2519 24.7714 50.2936 24.8904 50.2936ZM26.5284 52.427C26.4124 52.427 26.3052 52.3987 26.207 52.3422C26.1118 52.2857 26.036 52.2083 25.9794 52.1101C25.9229 52.0119 25.8946 51.9048 25.8946 51.7888C25.8946 51.6757 25.9229 51.5716 25.9794 51.4763C26.036 51.3781 26.1118 51.3008 26.207 51.2442C26.3052 51.1877 26.4124 51.1594 26.5284 51.1594C26.6415 51.1594 26.7456 51.1877 26.8408 51.2442C26.939 51.3008 27.0164 51.3781 27.0729 51.4763C27.1295 51.5716 27.1577 51.6757 27.1577 51.7888C27.1577 51.9048 27.1295 52.0119 27.0729 52.1101C27.0164 52.2083 26.939 52.2857 26.8408 52.3422C26.7456 52.3987 26.6415 52.427 26.5284 52.427ZM26.5284 52.2306C26.6474 52.2306 26.7471 52.1875 26.8274 52.1012C26.9108 52.0149 26.9524 51.9108 26.9524 51.7888C26.9524 51.6668 26.9108 51.5641 26.8274 51.4808C26.7471 51.3975 26.6474 51.3558 26.5284 51.3558C26.4094 51.3558 26.3082 51.3975 26.2249 51.4808C26.1416 51.5641 26.0999 51.6668 26.0999 51.7888C26.0999 51.9137 26.1401 52.0194 26.2204 52.1057C26.3037 52.189 26.4064 52.2306 26.5284 52.2306Z" fill="#404040"/>
<path d="M2.28743 5.64444C2.52547 5.64444 2.71739 5.72478 2.86319 5.88546C3.01197 6.04316 3.08635 6.25294 3.08635 6.51478C3.08635 6.77365 3.01197 6.98194 2.86319 7.13964C2.71739 7.29436 2.52547 7.37173 2.28743 7.37173H1.6224C1.6105 7.37173 1.60455 7.37768 1.60455 7.38958V8.72856C1.60455 8.75832 1.58967 8.77319 1.55992 8.77319H1.33229C1.30253 8.77319 1.28766 8.75832 1.28766 8.72856V5.68908C1.28766 5.65932 1.30253 5.64444 1.33229 5.64444H2.28743ZM2.24726 7.10839C2.40496 7.10839 2.53142 7.05484 2.62664 6.94772C2.72185 6.8406 2.76946 6.69777 2.76946 6.51924C2.76946 6.33774 2.72185 6.19343 2.62664 6.08631C2.53142 5.97621 2.40496 5.92117 2.24726 5.92117H1.6224C1.6105 5.92117 1.60455 5.92712 1.60455 5.93902V7.09054C1.60455 7.10244 1.6105 7.10839 1.6224 7.10839H2.24726ZM5.01532 8.77319C4.98854 8.77319 4.97218 8.7598 4.96623 8.73302L4.81894 8.17512C4.81596 8.16619 4.80852 8.16173 4.79662 8.16173H3.7299C3.718 8.16173 3.71056 8.16619 3.70758 8.17512L3.5603 8.73302C3.55435 8.7598 3.53798 8.77319 3.5112 8.77319H3.27911C3.26423 8.77319 3.25233 8.76873 3.2434 8.7598C3.23745 8.75088 3.23597 8.73897 3.23894 8.7241L4.07357 5.68908C4.07952 5.6623 4.09589 5.64891 4.12267 5.64891H4.40832C4.4351 5.64891 4.45146 5.6623 4.45741 5.68908L5.29204 8.7241L5.29651 8.73749C5.29651 8.76129 5.28163 8.77319 5.25187 8.77319H5.01532ZM3.78346 7.885C3.78048 7.88798 3.78048 7.89244 3.78346 7.89839C3.78941 7.90137 3.79536 7.90286 3.80131 7.90286H4.72521C4.73116 7.90286 4.73562 7.90137 4.7386 7.89839C4.74455 7.89244 4.74604 7.88798 4.74306 7.885L4.26996 6.09077C4.26698 6.08482 4.264 6.08184 4.26103 6.08184C4.25805 6.08184 4.25508 6.08482 4.2521 6.09077L3.78346 7.885ZM6.39667 8.8089C6.11697 8.8089 5.89381 8.736 5.72718 8.5902C5.56352 8.44142 5.4817 8.24355 5.4817 7.99658V7.87608C5.4817 7.84632 5.49658 7.83144 5.52633 7.83144H5.74503C5.77479 7.83144 5.78966 7.84632 5.78966 7.87608V7.97873C5.78966 8.14536 5.8462 8.27926 5.95927 8.38043C6.07234 8.48159 6.2226 8.53218 6.41006 8.53218C6.58561 8.53218 6.72397 8.48457 6.82514 8.38935C6.92631 8.29414 6.97689 8.16916 6.97689 8.01444C6.97689 7.91327 6.95309 7.82549 6.90548 7.75111C6.85787 7.67672 6.78795 7.60828 6.69571 7.5458C6.60347 7.48331 6.47105 7.40446 6.29848 7.30924C6.11399 7.21105 5.96819 7.12476 5.86108 7.05037C5.75693 6.97598 5.67213 6.88523 5.60667 6.77811C5.54121 6.67099 5.50848 6.54007 5.50848 6.38535C5.50848 6.14433 5.58584 5.95538 5.74057 5.81851C5.89529 5.68164 6.10209 5.6132 6.36096 5.6132C6.63768 5.6132 6.85787 5.68908 7.02152 5.84083C7.18518 5.99258 7.267 6.19343 7.267 6.44337V6.54602C7.267 6.57578 7.25213 6.59066 7.22237 6.59066H6.99921C6.96945 6.59066 6.95458 6.57578 6.95458 6.54602V6.44783C6.95458 6.2812 6.90102 6.1473 6.7939 6.04614C6.68678 5.94199 6.53949 5.88992 6.35203 5.88992C6.18541 5.88992 6.05448 5.93307 5.95927 6.01936C5.86703 6.10565 5.82091 6.22764 5.82091 6.38535C5.82091 6.48651 5.84322 6.57132 5.88785 6.63975C5.93249 6.70819 5.99646 6.77067 6.07978 6.82721C6.16607 6.88374 6.29699 6.95962 6.47254 7.05484C6.67488 7.16791 6.8296 7.26461 6.93672 7.34495C7.04682 7.42231 7.13311 7.51306 7.19559 7.61721C7.26105 7.71837 7.29378 7.84335 7.29378 7.99212C7.29378 8.24206 7.21344 8.44142 7.05277 8.5902C6.89209 8.736 6.67339 8.8089 6.39667 8.8089ZM8.6283 8.8089C8.3486 8.8089 8.12544 8.736 7.95881 8.5902C7.79516 8.44142 7.71333 8.24355 7.71333 7.99658V7.87608C7.71333 7.84632 7.72821 7.83144 7.75796 7.83144H7.97666C8.00642 7.83144 8.0213 7.84632 8.0213 7.87608V7.97873C8.0213 8.14536 8.07783 8.27926 8.1909 8.38043C8.30397 8.48159 8.45423 8.53218 8.64169 8.53218C8.81725 8.53218 8.95561 8.48457 9.05677 8.38935C9.15794 8.29414 9.20853 8.16916 9.20853 8.01444C9.20853 7.91327 9.18472 7.82549 9.13711 7.75111C9.0895 7.67672 9.01958 7.60828 8.92734 7.5458C8.8351 7.48331 8.70269 7.40446 8.53011 7.30924C8.34563 7.21105 8.19983 7.12476 8.09271 7.05037C7.98857 6.97598 7.90376 6.88523 7.8383 6.77811C7.77284 6.67099 7.74011 6.54007 7.74011 6.38535C7.74011 6.14433 7.81747 5.95538 7.9722 5.81851C8.12693 5.68164 8.33372 5.6132 8.59259 5.6132C8.86932 5.6132 9.0895 5.68908 9.25316 5.84083C9.41681 5.99258 9.49864 6.19343 9.49864 6.44337V6.54602C9.49864 6.57578 9.48376 6.59066 9.454 6.59066H9.23084C9.20109 6.59066 9.18621 6.57578 9.18621 6.54602V6.44783C9.18621 6.2812 9.13265 6.1473 9.02553 6.04614C8.91841 5.94199 8.77112 5.88992 8.58367 5.88992C8.41704 5.88992 8.28612 5.93307 8.1909 6.01936C8.09866 6.10565 8.05254 6.22764 8.05254 6.38535C8.05254 6.48651 8.07486 6.57132 8.11949 6.63975C8.16412 6.70819 8.22809 6.77067 8.31141 6.82721C8.3977 6.88374 8.52862 6.95962 8.70418 7.05484C8.90651 7.16791 9.06124 7.26461 9.16836 7.34495C9.27845 7.42231 9.36474 7.51306 9.42723 7.61721C9.49269 7.71837 9.52542 7.84335 9.52542 7.99212C9.52542 8.24206 9.44508 8.44142 9.2844 8.5902C9.12372 8.736 8.90502 8.8089 8.6283 8.8089ZM10.1503 8.77319C10.1205 8.77319 10.1056 8.75832 10.1056 8.72856V5.69354C10.1056 5.66378 10.1205 5.64891 10.1503 5.64891H10.3779C10.4077 5.64891 10.4225 5.66378 10.4225 5.69354V8.72856C10.4225 8.75832 10.4077 8.77319 10.3779 8.77319H10.1503ZM11.995 8.8089C11.8135 8.8089 11.6528 8.77171 11.5129 8.69732C11.3761 8.61995 11.2689 8.51284 11.1916 8.37596C11.1172 8.23909 11.08 8.08139 11.08 7.90286V6.52371C11.08 6.34518 11.1172 6.18747 11.1916 6.0506C11.2689 5.91075 11.3761 5.80363 11.5129 5.72925C11.6528 5.65188 11.8135 5.6132 11.995 5.6132C12.1765 5.6132 12.3357 5.65188 12.4725 5.72925C12.6124 5.80363 12.721 5.91075 12.7984 6.0506C12.8757 6.18747 12.9144 6.34518 12.9144 6.52371V7.90286C12.9144 8.08139 12.8757 8.23909 12.7984 8.37596C12.721 8.51284 12.6124 8.61995 12.4725 8.69732C12.3357 8.77171 12.1765 8.8089 11.995 8.8089ZM11.995 8.53218C12.1765 8.53218 12.3223 8.47564 12.4324 8.36257C12.5425 8.2495 12.5975 8.10073 12.5975 7.91625V6.51478C12.5975 6.32732 12.5425 6.17706 12.4324 6.06399C12.3223 5.94795 12.1765 5.88992 11.995 5.88992C11.8164 5.88992 11.6721 5.94795 11.562 6.06399C11.4519 6.17706 11.3969 6.32732 11.3969 6.51478V7.91625C11.3969 8.10073 11.4519 8.2495 11.562 8.36257C11.6721 8.47564 11.8164 8.53218 11.995 8.53218ZM15.124 5.69354C15.124 5.66378 15.1389 5.64891 15.1686 5.64891H15.3963C15.426 5.64891 15.4409 5.66378 15.4409 5.69354V8.72856C15.4409 8.75832 15.426 8.77319 15.3963 8.77319H15.1552C15.1285 8.77319 15.1106 8.76278 15.1017 8.74195L13.9055 6.3541C13.8996 6.34815 13.8936 6.34518 13.8877 6.34518C13.8847 6.34518 13.8832 6.34964 13.8832 6.35857L13.8877 8.72856C13.8877 8.75832 13.8728 8.77319 13.843 8.77319H13.6154C13.5857 8.77319 13.5708 8.75832 13.5708 8.72856V5.69354C13.5708 5.66378 13.5857 5.64891 13.6154 5.64891H13.8564C13.8832 5.64891 13.9011 5.65932 13.91 5.68015L15.1061 8.07692C15.1121 8.08287 15.1166 8.08585 15.1195 8.08585C15.1255 8.08585 15.1285 8.08139 15.1285 8.07246L15.124 5.69354ZM18.789 5.881C18.789 5.91075 18.7742 5.92563 18.7444 5.92563H17.4099C17.398 5.92563 17.392 5.93158 17.392 5.94348V7.05037C17.392 7.06227 17.398 7.06823 17.4099 7.06823H18.307C18.3368 7.06823 18.3516 7.0831 18.3516 7.11286V7.30032C18.3516 7.33007 18.3368 7.34495 18.307 7.34495H17.4099C17.398 7.34495 17.392 7.3509 17.392 7.3628V8.72856C17.392 8.75832 17.3772 8.77319 17.3474 8.77319H17.1198C17.09 8.77319 17.0751 8.75832 17.0751 8.72856V5.69354C17.0751 5.66378 17.09 5.64891 17.1198 5.64891H18.7444C18.7742 5.64891 18.789 5.66378 18.789 5.69354V5.881ZM20.7766 8.77319C20.7528 8.77319 20.7365 8.76129 20.7276 8.73749L20.1741 7.35834C20.1711 7.34941 20.1652 7.34495 20.1563 7.34495H19.5805C19.5686 7.34495 19.5626 7.3509 19.5626 7.3628V8.72856C19.5626 8.75832 19.5478 8.77319 19.518 8.77319H19.2904C19.2606 8.77319 19.2457 8.75832 19.2457 8.72856V5.69354C19.2457 5.66378 19.2606 5.64891 19.2904 5.64891H20.2366C20.3913 5.64891 20.5282 5.68461 20.6472 5.75603C20.7692 5.82744 20.8629 5.9286 20.9284 6.05953C20.9968 6.19045 21.0311 6.34071 21.0311 6.51032C21.0311 6.71265 20.982 6.88523 20.8838 7.02806C20.7856 7.17088 20.6517 7.2661 20.4821 7.31371C20.4702 7.31966 20.4672 7.32709 20.4731 7.33602L21.0489 8.71963L21.0534 8.73749C21.0534 8.76129 21.04 8.77319 21.0132 8.77319H20.7766ZM19.5805 5.92563C19.5686 5.92563 19.5626 5.93158 19.5626 5.94348V7.07269C19.5626 7.08459 19.5686 7.09054 19.5805 7.09054H20.1964C20.3512 7.09054 20.4761 7.03698 20.5713 6.92986C20.6666 6.82275 20.7142 6.6829 20.7142 6.51032C20.7142 6.33476 20.6666 6.19343 20.5713 6.08631C20.4761 5.97919 20.3512 5.92563 20.1964 5.92563H19.5805ZM22.4875 8.8089C22.306 8.8089 22.1453 8.77022 22.0055 8.69285C21.8686 8.61549 21.7615 8.50689 21.6841 8.36704C21.6097 8.22719 21.5725 8.06502 21.5725 7.88054V5.69354C21.5725 5.66378 21.5874 5.64891 21.6172 5.64891H21.8448C21.8746 5.64891 21.8894 5.66378 21.8894 5.69354V7.89839C21.8894 8.08883 21.9445 8.24206 22.0546 8.35811C22.1647 8.47415 22.309 8.53218 22.4875 8.53218C22.666 8.53218 22.8104 8.47415 22.9204 8.35811C23.0305 8.24206 23.0856 8.08883 23.0856 7.89839V5.69354C23.0856 5.66378 23.1005 5.64891 23.1302 5.64891H23.3578C23.3876 5.64891 23.4025 5.66378 23.4025 5.69354V7.88054C23.4025 8.06502 23.3638 8.22719 23.2864 8.36704C23.212 8.50689 23.1049 8.61549 22.9651 8.69285C22.8282 8.77022 22.669 8.8089 22.4875 8.8089ZM24.1546 8.77319C24.1249 8.77319 24.11 8.75832 24.11 8.72856V5.69354C24.11 5.66378 24.1249 5.64891 24.1546 5.64891H24.3823C24.412 5.64891 24.4269 5.66378 24.4269 5.69354V8.72856C24.4269 8.75832 24.412 8.77319 24.3823 8.77319H24.1546ZM26.7938 5.64891C26.8235 5.64891 26.8384 5.66378 26.8384 5.69354V5.881C26.8384 5.91075 26.8235 5.92563 26.7938 5.92563H26.0663C26.0544 5.92563 26.0484 5.93158 26.0484 5.94348V8.72856C26.0484 8.75832 26.0336 8.77319 26.0038 8.77319H25.7762C25.7464 8.77319 25.7315 8.75832 25.7315 8.72856V5.94348C25.7315 5.93158 25.7256 5.92563 25.7137 5.92563H25.013C24.9832 5.92563 24.9683 5.91075 24.9683 5.881V5.69354C24.9683 5.66378 24.9832 5.64891 25.013 5.64891H26.7938ZM29.6203 7.29139C29.6769 7.44612 29.7051 7.62316 29.7051 7.82252C29.7051 8.00105 29.6828 8.15577 29.6382 8.2867C29.5281 8.63483 29.2841 8.8089 28.9062 8.8089C28.7039 8.8089 28.5343 8.75534 28.3974 8.64822C28.2605 8.53813 28.1727 8.38786 28.1341 8.19743C28.1132 8.10222 28.1028 7.99361 28.1028 7.87161C28.1028 7.84186 28.1177 7.82698 28.1475 7.82698H28.3751C28.4048 7.82698 28.4197 7.84186 28.4197 7.87161C28.4257 7.99956 28.4331 8.08585 28.442 8.13048C28.4688 8.25545 28.5224 8.35365 28.6027 8.42506C28.683 8.49647 28.7842 8.53218 28.9062 8.53218C29.1353 8.53218 29.2841 8.41613 29.3525 8.18404C29.3793 8.07692 29.3927 7.94898 29.3927 7.8002C29.3927 7.62167 29.3734 7.47438 29.3347 7.35834C29.2573 7.15005 29.1145 7.04591 28.9062 7.04591C28.8586 7.04591 28.8169 7.05484 28.7812 7.07269C28.7634 7.07864 28.753 7.08162 28.75 7.08162C28.7381 7.08162 28.7277 7.07566 28.7188 7.06376L28.6027 6.94325C28.5878 6.92243 28.5863 6.9016 28.5982 6.88077L29.2945 5.94795C29.3005 5.94199 29.302 5.93753 29.299 5.93456C29.296 5.9286 29.2915 5.92563 29.2856 5.92563H28.1698C28.14 5.92563 28.1251 5.91075 28.1251 5.881V5.69354C28.1251 5.66378 28.14 5.64891 28.1698 5.64891H29.6471C29.6769 5.64891 29.6917 5.66378 29.6917 5.69354V5.89439C29.6917 5.91819 29.6858 5.93753 29.6739 5.95241L29.0267 6.83614C29.0237 6.83911 29.0237 6.84357 29.0267 6.84953C29.0297 6.85548 29.0342 6.85845 29.0401 6.85845C29.18 6.8644 29.299 6.90457 29.3972 6.97896C29.4954 7.05335 29.5697 7.15749 29.6203 7.29139ZM31.0884 8.81783C30.8325 8.81783 30.6272 8.74046 30.4724 8.58574C30.3177 8.43101 30.2403 8.22421 30.2403 7.96534V6.45676C30.2403 6.20086 30.3177 5.99555 30.4724 5.84083C30.6272 5.6861 30.8325 5.60874 31.0884 5.60874C31.3472 5.60874 31.554 5.6861 31.7088 5.84083C31.8665 5.99555 31.9453 6.20086 31.9453 6.45676V7.96534C31.9453 8.22421 31.8665 8.43101 31.7088 8.58574C31.554 8.74046 31.3472 8.81783 31.0884 8.81783ZM31.0884 8.5411C31.252 8.5411 31.3829 8.49052 31.4811 8.38935C31.5793 8.28819 31.6284 8.15429 31.6284 7.98766V6.43891C31.6284 6.27228 31.5793 6.13838 31.4811 6.03721C31.3829 5.93604 31.252 5.88546 31.0884 5.88546C30.9307 5.88546 30.8027 5.93604 30.7045 6.03721C30.6063 6.13838 30.5572 6.27228 30.5572 6.43891V7.98766C30.5572 8.15131 30.6063 8.28521 30.7045 8.38935C30.8027 8.49052 30.9307 8.5411 31.0884 8.5411ZM33.2214 6.87631C33.1053 6.87631 32.9982 6.84804 32.9 6.7915C32.8048 6.73497 32.7289 6.65909 32.6724 6.56388C32.6159 6.46568 32.5876 6.35857 32.5876 6.24252C32.5876 6.12648 32.6159 6.02085 32.6724 5.92563C32.7289 5.82744 32.8048 5.75007 32.9 5.69354C32.9982 5.637 33.1053 5.60874 33.2214 5.60874C33.3345 5.60874 33.4386 5.637 33.5338 5.69354C33.632 5.75007 33.7094 5.82744 33.7659 5.92563C33.8224 6.02085 33.8507 6.12648 33.8507 6.24252C33.8507 6.35857 33.8224 6.46568 33.7659 6.56388C33.7094 6.65909 33.632 6.73497 33.5338 6.7915C33.4386 6.84804 33.3345 6.87631 33.2214 6.87631ZM33.1187 8.77319C33.1039 8.77319 33.092 8.76873 33.083 8.7598C33.0771 8.7479 33.0786 8.73451 33.0875 8.71963L34.7478 5.68015C34.7568 5.65932 34.7746 5.64891 34.8014 5.64891H34.9442C34.9591 5.64891 34.9695 5.65486 34.9755 5.66676C34.9844 5.67569 34.9844 5.68759 34.9755 5.70247L33.3151 8.74195C33.3062 8.76278 33.2883 8.77319 33.2616 8.77319H33.1187ZM33.2214 6.67992C33.3404 6.67992 33.4401 6.63826 33.5204 6.55495C33.6037 6.46866 33.6454 6.36452 33.6454 6.24252C33.6454 6.12053 33.6037 6.01787 33.5204 5.93456C33.4401 5.84827 33.3404 5.80512 33.2214 5.80512C33.1024 5.80512 33.0012 5.84827 32.9179 5.93456C32.8346 6.01787 32.7929 6.12053 32.7929 6.24252C32.7929 6.36452 32.8346 6.46866 32.9179 6.55495C33.0012 6.63826 33.1024 6.67992 33.2214 6.67992ZM34.8594 8.81336C34.7434 8.81336 34.6362 8.7851 34.5381 8.72856C34.4428 8.67203 34.367 8.59466 34.3104 8.49647C34.2539 8.39828 34.2256 8.29116 34.2256 8.17512C34.2256 8.06205 34.2539 7.9579 34.3104 7.86269C34.367 7.7645 34.4428 7.68713 34.5381 7.6306C34.6362 7.57406 34.7434 7.5458 34.8594 7.5458C34.9725 7.5458 35.0766 7.57406 35.1718 7.6306C35.27 7.68713 35.3474 7.7645 35.4039 7.86269C35.4605 7.9579 35.4887 8.06205 35.4887 8.17512C35.4887 8.29116 35.4605 8.39828 35.4039 8.49647C35.3474 8.59466 35.27 8.67203 35.1718 8.72856C35.0766 8.7851 34.9725 8.81336 34.8594 8.81336ZM34.8594 8.61698C34.9784 8.61698 35.0781 8.57383 35.1584 8.48754C35.2418 8.40125 35.2834 8.29711 35.2834 8.17512C35.2834 8.05312 35.2418 7.95046 35.1584 7.86715C35.0781 7.78384 34.9784 7.74218 34.8594 7.74218C34.7404 7.74218 34.6392 7.78384 34.5559 7.86715C34.4726 7.95046 34.4309 8.05312 34.4309 8.17512C34.4309 8.30009 34.4711 8.40572 34.5514 8.49201C34.6348 8.57532 34.7374 8.61698 34.8594 8.61698Z" fill="#404040"/>
<path d="M73.447 42.6294L75.989 45.8927H86.5201" stroke="black" stroke-width="0.145684"/>
<path d="M77.6493 44.453C77.6196 44.453 77.6047 44.4381 77.6047 44.4084V41.3733C77.6047 41.3436 77.6196 41.3287 77.6493 41.3287H77.8769C77.9067 41.3287 77.9216 41.3436 77.9216 41.3733V42.8552C77.9216 42.8611 77.9245 42.8656 77.9305 42.8685C77.9364 42.8685 77.9409 42.8656 77.9439 42.8596L79.0776 41.3555C79.0895 41.3376 79.1088 41.3287 79.1356 41.3287H79.3855C79.4034 41.3287 79.4153 41.3347 79.4212 41.3466C79.4272 41.3555 79.4242 41.3674 79.4123 41.3823L78.5196 42.6052C78.5167 42.6141 78.5167 42.6231 78.5196 42.632L79.4926 44.3994C79.4986 44.4113 79.5016 44.4203 79.5016 44.4262C79.5016 44.4441 79.4882 44.453 79.4614 44.453H79.2025C79.1757 44.453 79.1579 44.4426 79.149 44.4218L78.3009 42.8819C78.295 42.8671 78.2876 42.8671 78.2786 42.8819L77.9305 43.3238C77.9245 43.3297 77.9216 43.3372 77.9216 43.3461V44.4084C77.9216 44.4381 77.9067 44.453 77.8769 44.453H77.6493ZM80.0204 44.453C79.9907 44.453 79.9758 44.4381 79.9758 44.4084V41.3733C79.9758 41.3436 79.9907 41.3287 80.0204 41.3287H80.248C80.2778 41.3287 80.2927 41.3436 80.2927 41.3733V44.4084C80.2927 44.4381 80.2778 44.453 80.248 44.453H80.0204ZM81.5616 44.453C81.5348 44.453 81.5185 44.4396 81.5125 44.4128L80.7939 41.3778L80.7895 41.36C80.7895 41.3391 80.8028 41.3287 80.8296 41.3287H81.0706C81.0974 41.3287 81.1138 41.3421 81.1197 41.3689L81.6643 43.7657C81.6672 43.7746 81.6702 43.779 81.6732 43.779C81.6791 43.779 81.6836 43.7746 81.6866 43.7657L82.182 41.3689C82.1879 41.3421 82.2043 41.3287 82.2311 41.3287H82.4543C82.484 41.3287 82.5004 41.3421 82.5034 41.3689L83.0166 43.7657C83.0196 43.7746 83.0226 43.779 83.0256 43.779C83.0285 43.779 83.0315 43.7746 83.0345 43.7657L83.5656 41.3689C83.5716 41.3421 83.5879 41.3287 83.6147 41.3287H83.8468C83.8766 41.3287 83.8885 41.3451 83.8825 41.3778L83.1862 44.4128C83.1803 44.4396 83.1639 44.453 83.1371 44.453H82.9095C82.8827 44.453 82.8664 44.4396 82.8604 44.4128L82.3516 41.9804C82.3486 41.9714 82.3457 41.967 82.3427 41.967C82.3397 41.967 82.3367 41.9714 82.3337 41.9804L81.8294 44.4128C81.8264 44.4396 81.8101 44.453 81.7803 44.453H81.5616ZM84.4314 44.453C84.4016 44.453 84.3867 44.4381 84.3867 44.4084V41.3733C84.3867 41.3436 84.4016 41.3287 84.4314 41.3287H84.659C84.6888 41.3287 84.7036 41.3436 84.7036 41.3733V44.4084C84.7036 44.4381 84.6888 44.453 84.659 44.453H84.4314ZM87.7766 43.0114C87.8153 43.1512 87.8346 43.3119 87.8346 43.4934C87.8346 43.6452 87.8212 43.7761 87.7945 43.8862C87.7498 44.0796 87.6606 44.2284 87.5267 44.3325C87.3957 44.4366 87.2306 44.4887 87.0312 44.4887C86.8289 44.4887 86.6608 44.4351 86.5269 44.328C86.393 44.2209 86.3052 44.0706 86.2635 43.8772C86.2487 43.8237 86.2397 43.7686 86.2368 43.7121V43.7032C86.2368 43.6794 86.2502 43.6675 86.2769 43.6675H86.509C86.5358 43.6675 86.5507 43.6794 86.5537 43.7032V43.721L86.5715 43.8103C86.5983 43.9382 86.6504 44.0364 86.7277 44.1049C86.8081 44.1733 86.9092 44.2075 87.0312 44.2075C87.1503 44.2075 87.2484 44.1733 87.3258 44.1049C87.4061 44.0335 87.4597 43.9338 87.4865 43.8058C87.5073 43.7225 87.5177 43.6199 87.5177 43.4979C87.5177 43.3848 87.5058 43.2687 87.482 43.1497C87.4552 43.0307 87.4032 42.9414 87.3258 42.8819C87.2484 42.8194 87.1503 42.7882 87.0312 42.7882C86.9182 42.7882 86.82 42.815 86.7367 42.8685C86.6563 42.9191 86.5998 42.9935 86.5671 43.0917L86.5581 43.1096C86.5551 43.1304 86.5403 43.1408 86.5135 43.1408H86.2769C86.2472 43.1408 86.2323 43.1259 86.2323 43.0962V41.3733C86.2323 41.3436 86.2472 41.3287 86.2769 41.3287H87.6918C87.7216 41.3287 87.7364 41.3436 87.7364 41.3733V41.5608C87.7364 41.5906 87.7216 41.6054 87.6918 41.6054H86.5671C86.5551 41.6054 86.5492 41.6114 86.5492 41.6233V42.7168C86.5492 42.7227 86.5507 42.7272 86.5537 42.7302C86.5596 42.7302 86.5656 42.7272 86.5715 42.7213C86.631 42.6558 86.7054 42.6052 86.7947 42.5695C86.8869 42.5308 86.9851 42.5115 87.0893 42.5115C87.2648 42.5115 87.4106 42.5546 87.5267 42.6409C87.6457 42.7242 87.729 42.8477 87.7766 43.0114ZM89.1465 44.4976C88.8906 44.4976 88.6853 44.4203 88.5306 44.2655C88.3759 44.1108 88.2985 43.904 88.2985 43.6452V42.1366C88.2985 41.8807 88.3759 41.6754 88.5306 41.5206C88.6853 41.3659 88.8906 41.2885 89.1465 41.2885C89.4054 41.2885 89.6122 41.3659 89.7669 41.5206C89.9246 41.6754 90.0035 41.8807 90.0035 42.1366V43.6452C90.0035 43.904 89.9246 44.1108 89.7669 44.2655C89.6122 44.4203 89.4054 44.4976 89.1465 44.4976ZM89.1465 44.2209C89.3102 44.2209 89.4411 44.1703 89.5393 44.0692C89.6375 43.968 89.6866 43.8341 89.6866 43.6675V42.1187C89.6866 41.9521 89.6375 41.8182 89.5393 41.717C89.4411 41.6159 89.3102 41.5653 89.1465 41.5653C88.9888 41.5653 88.8609 41.6159 88.7627 41.717C88.6645 41.8182 88.6154 41.9521 88.6154 42.1187V43.6675C88.6154 43.8311 88.6645 43.965 88.7627 44.0692C88.8609 44.1703 88.9888 44.2209 89.1465 44.2209ZM91.2796 42.5561C91.1635 42.5561 91.0564 42.5278 90.9582 42.4713C90.863 42.4148 90.7871 42.3389 90.7306 42.2437C90.674 42.1455 90.6458 42.0384 90.6458 41.9223C90.6458 41.8063 90.674 41.7007 90.7306 41.6054C90.7871 41.5072 90.863 41.4299 90.9582 41.3733C91.0564 41.3168 91.1635 41.2885 91.2796 41.2885C91.3926 41.2885 91.4968 41.3168 91.592 41.3733C91.6902 41.4299 91.7675 41.5072 91.8241 41.6054C91.8806 41.7007 91.9089 41.8063 91.9089 41.9223C91.9089 42.0384 91.8806 42.1455 91.8241 42.2437C91.7675 42.3389 91.6902 42.4148 91.592 42.4713C91.4968 42.5278 91.3926 42.5561 91.2796 42.5561ZM91.1769 44.453C91.162 44.453 91.1501 44.4485 91.1412 44.4396C91.1353 44.4277 91.1367 44.4143 91.1457 44.3994L92.806 41.36C92.8149 41.3391 92.8328 41.3287 92.8596 41.3287H93.0024C93.0173 41.3287 93.0277 41.3347 93.0336 41.3466C93.0426 41.3555 93.0426 41.3674 93.0336 41.3823L91.3733 44.4218C91.3644 44.4426 91.3465 44.453 91.3197 44.453H91.1769ZM91.2796 42.3597C91.3986 42.3597 91.4983 42.3181 91.5786 42.2348C91.6619 42.1485 91.7036 42.0443 91.7036 41.9223C91.7036 41.8003 91.6619 41.6977 91.5786 41.6144C91.4983 41.5281 91.3986 41.4849 91.2796 41.4849C91.1605 41.4849 91.0594 41.5281 90.9761 41.6144C90.8927 41.6977 90.8511 41.8003 90.8511 41.9223C90.8511 42.0443 90.8927 42.1485 90.9761 42.2348C91.0594 42.3181 91.1605 42.3597 91.2796 42.3597ZM92.9176 44.4932C92.8015 44.4932 92.6944 44.4649 92.5962 44.4084C92.501 44.3518 92.4251 44.2745 92.3686 44.1763C92.3121 44.0781 92.2838 43.971 92.2838 43.8549C92.2838 43.7419 92.3121 43.6377 92.3686 43.5425C92.4251 43.4443 92.501 43.3669 92.5962 43.3104C92.6944 43.2539 92.8015 43.2256 92.9176 43.2256C93.0307 43.2256 93.1348 43.2539 93.23 43.3104C93.3282 43.3669 93.4056 43.4443 93.4621 43.5425C93.5186 43.6377 93.5469 43.7419 93.5469 43.8549C93.5469 43.971 93.5186 44.0781 93.4621 44.1763C93.4056 44.2745 93.3282 44.3518 93.23 44.4084C93.1348 44.4649 93.0307 44.4932 92.9176 44.4932ZM92.9176 44.2968C93.0366 44.2968 93.1363 44.2536 93.2166 44.1674C93.2999 44.0811 93.3416 43.9769 93.3416 43.8549C93.3416 43.7329 93.2999 43.6303 93.2166 43.547C93.1363 43.4636 93.0366 43.422 92.9176 43.422C92.7986 43.422 92.6974 43.4636 92.6141 43.547C92.5308 43.6303 92.4891 43.7329 92.4891 43.8549C92.4891 43.9799 92.5293 44.0855 92.6096 44.1718C92.6929 44.2551 92.7956 44.2968 92.9176 44.2968Z" fill="#404040"/>
</svg>
