<svg width="91" height="57" viewBox="0 0 91 57" fill="none" xmlns="http://www.w3.org/2000/svg">
<path d="M34.7662 31.3461L34.7303 31.3428C34.5268 31.3212 34.3352 31.3067 34.3352 31.1501C34.3352 30.9574 34.6106 30.9212 34.7662 30.9212C34.9473 30.9226 35.1263 30.9598 35.293 31.0309L35.3169 31.0429L35.4247 30.79L35.4007 30.7813C35.2 30.6954 34.9843 30.6504 34.7662 30.6488C34.3352 30.6488 34.0479 30.8536 34.0479 31.1426C34.0479 31.516 34.419 31.5642 34.7183 31.5883H34.7423C35.0056 31.6124 35.1852 31.6474 35.1852 31.8171C35.1852 31.9496 35.0056 32.0339 34.7303 32.0339C34.5272 32.0358 34.3264 31.9905 34.1437 31.9014L34.1197 31.8913L34 32.1442L34.0239 32.1563C34.2427 32.2681 34.4849 32.326 34.7303 32.3249C35.1613 32.3249 35.4726 32.1201 35.4726 31.819C35.4726 31.3975 35.0176 31.3493 34.7542 31.3252M37.4839 31.249C37.4839 31.3256 37.4536 31.3992 37.3997 31.4534C37.3458 31.5076 37.2727 31.538 37.1965 31.538H36.7536V30.9606H37.1965C37.2738 30.9637 37.3469 30.9968 37.4005 31.053C37.454 31.1091 37.4839 31.1839 37.4839 31.2617M37.1965 30.6836H36.6338C36.5957 30.6836 36.5592 30.6988 36.5323 30.7259C36.5053 30.753 36.4902 30.7898 36.4902 30.8281V32.3096H36.7655V31.8399H37.2085C37.2834 31.8415 37.3579 31.828 37.4275 31.8003C37.4972 31.7726 37.5606 31.7311 37.6141 31.6784C37.6677 31.6257 37.7102 31.5627 37.7392 31.4932C37.7682 31.4238 37.7832 31.3491 37.7832 31.2738C37.7832 31.1205 37.7226 30.9734 37.6148 30.865C37.5071 30.7566 37.3609 30.6957 37.2085 30.6957M38.6451 30.8281V32.1651C38.6451 32.2034 38.6603 32.2402 38.6872 32.2673C38.7142 32.2944 38.7507 32.3096 38.7888 32.3096H39.8902V32.0326H38.9205V31.6351H39.8304V31.3581H38.9205V30.9606H39.8902V30.6836H38.7888C38.7507 30.6836 38.7142 30.6988 38.6872 30.7259C38.6603 30.753 38.6451 30.7898 38.6451 30.8281ZM41.9973 31.8278C41.948 31.8998 41.8817 31.9583 41.8044 31.9982C41.7271 32.0382 41.6412 32.0582 41.5543 32.0567C41.4072 32.0535 41.2671 31.9925 41.1642 31.8867C41.0612 31.7808 41.0036 31.6387 41.0036 31.4906C41.0036 31.3436 41.0617 31.2027 41.1649 31.0988C41.2682 30.9949 41.4083 30.9365 41.5543 30.9365C41.635 30.937 41.7145 30.9556 41.787 30.991C41.8595 31.0264 41.9232 31.0778 41.9734 31.1413L41.9853 31.1533L42.1889 30.9727L42.1769 30.9561C42.0666 30.8288 41.9204 30.7384 41.7577 30.6968C41.5951 30.6553 41.4237 30.6645 41.2664 30.7234C41.1091 30.7822 40.9733 30.8879 40.8772 31.0263C40.7811 31.1647 40.7291 31.3292 40.7283 31.4981C40.7283 31.7196 40.8149 31.9322 40.9695 32.09C41.1241 32.2478 41.3342 32.338 41.5543 32.3412C41.6849 32.3441 41.8143 32.3149 41.9311 32.2562C42.048 32.1974 42.1488 32.1108 42.2248 32.0039L42.2367 31.9866L42.0213 31.8179L41.9973 31.8278ZM42.967 30.9606H43.5178V32.3096H43.7931V30.9606H44.3438V30.6836H42.967V30.9606ZM46.2713 31.2377C46.2714 31.2719 46.2645 31.3058 46.2511 31.3373C46.2377 31.3688 46.2181 31.3972 46.1935 31.4209C46.1689 31.4445 46.1397 31.4629 46.1078 31.4749C46.0759 31.4869 46.0419 31.4922 46.0079 31.4906H45.4931V30.9606H46.0079C46.0436 30.9606 46.0788 30.9678 46.1116 30.9819C46.1443 30.996 46.1739 31.0166 46.1985 31.0425C46.2232 31.0683 46.2423 31.099 46.2548 31.1325C46.2673 31.1661 46.2729 31.2019 46.2713 31.2377ZM46.5467 31.2377C46.5483 31.1655 46.5355 31.0937 46.5092 31.0265C46.4828 30.9594 46.4434 30.8982 46.3932 30.8466C46.343 30.795 46.2831 30.754 46.2169 30.726C46.1507 30.698 46.0797 30.6836 46.0079 30.6836H45.3734C45.3353 30.6836 45.2988 30.6988 45.2718 30.7259C45.2449 30.753 45.2298 30.7898 45.2298 30.8281V32.3096H45.5051V31.7556H45.8762L46.2593 32.3096H46.5826L46.1755 31.7315C46.282 31.7003 46.3756 31.6355 46.4425 31.5465C46.5094 31.4575 46.5459 31.3492 46.5467 31.2377ZM48.6657 31.611C48.6657 31.726 48.6203 31.8363 48.5395 31.9176C48.4587 31.9989 48.349 32.0446 48.2347 32.0446C48.1204 32.0446 48.0108 31.9989 47.93 31.9176C47.8491 31.8363 47.8037 31.726 47.8037 31.611V30.6836H47.5284V31.611C47.5284 31.7995 47.6028 31.9802 47.7353 32.1135C47.8677 32.2468 48.0474 32.3216 48.2347 32.3216C48.4221 32.3216 48.6017 32.2468 48.7342 32.1135C48.8667 31.9802 48.9411 31.7995 48.9411 31.611V30.6836H48.6657V31.611ZM51.3834 30.6595C51.3615 30.6604 51.3401 30.6662 51.3208 30.6767C51.3015 30.6871 51.2848 30.7018 51.272 30.7197L50.7333 31.4906L50.1945 30.7197C50.1807 30.7042 50.1637 30.6918 50.1447 30.6835C50.1257 30.6752 50.1051 30.6711 50.0844 30.6716C50.0463 30.6716 50.0098 30.6868 49.9828 30.7139C49.9559 30.741 49.9407 30.7778 49.9407 30.8161V32.3096H50.2161V31.1895L50.7309 31.9362L51.2457 31.1895V32.2976H51.521V30.8041C51.521 30.7657 51.5059 30.729 51.479 30.7019C51.452 30.6748 51.4155 30.6595 51.3774 30.6595M38.262 33.7067H38.6332V34.5739H38.8247V33.7067H39.1959V33.5261H38.262V33.7067ZM40.4529 34.044C40.4529 34.143 40.4138 34.238 40.3442 34.308C40.2746 34.378 40.1802 34.4174 40.0818 34.4174C39.9834 34.4174 39.889 34.378 39.8194 34.308C39.7498 34.238 39.7107 34.143 39.7107 34.044C39.7091 33.9975 39.7168 33.9512 39.7332 33.9078C39.7496 33.8644 39.7745 33.8247 39.8064 33.7911C39.8781 33.7197 39.9749 33.6797 40.0758 33.6797C40.1767 33.6797 40.2734 33.7197 40.3452 33.7911C40.3779 33.8243 40.4037 33.8638 40.421 33.9073C40.4382 33.9507 40.4467 33.9972 40.4457 34.044H40.4529ZM40.0818 33.502C40.009 33.4987 39.9364 33.5103 39.8683 33.5361C39.8001 33.5619 39.7379 33.6013 39.6853 33.652C39.6327 33.7026 39.5908 33.7635 39.5623 33.8309C39.5337 33.8982 39.519 33.9707 39.5191 34.044C39.5143 34.1568 39.5432 34.2686 39.6021 34.3648C39.6609 34.461 39.747 34.5373 39.8493 34.5838C39.9516 34.6304 40.0655 34.6451 40.1761 34.6261C40.2868 34.607 40.3893 34.5551 40.4704 34.477C40.5515 34.3988 40.6075 34.2981 40.6313 34.1877C40.655 34.0773 40.6453 33.9622 40.6035 33.8574C40.5617 33.7525 40.4897 33.6627 40.3967 33.5993C40.3038 33.536 40.1941 33.5021 40.0818 33.502ZM41.6022 34.3933H41.2191V34.1403H41.6022C41.6352 34.1402 41.667 34.1525 41.6914 34.1748C41.7157 34.1971 41.7309 34.2278 41.7339 34.2608C41.7339 34.2959 41.72 34.3296 41.6954 34.3545C41.6707 34.3793 41.6372 34.3933 41.6022 34.3933ZM41.2191 33.7067H41.5663C41.586 33.7006 41.6069 33.6991 41.6273 33.7025C41.6477 33.706 41.6669 33.7142 41.6836 33.7265C41.7002 33.7388 41.7138 33.7549 41.7231 33.7734C41.7324 33.7919 41.7373 33.8124 41.7373 33.8332C41.7373 33.854 41.7324 33.8745 41.7231 33.893C41.7138 33.9116 41.7002 33.9276 41.6836 33.9399C41.6669 33.9523 41.6477 33.9605 41.6273 33.9639C41.6069 33.9673 41.586 33.9659 41.5663 33.9597H41.2191V33.7067ZM41.7938 34.0319C41.8241 34.0074 41.8483 33.9762 41.8646 33.9407C41.8808 33.9051 41.8887 33.8663 41.8875 33.8272C41.8844 33.7445 41.8489 33.6664 41.7887 33.61C41.7285 33.5535 41.6485 33.5234 41.5663 33.5261H41.1353C41.1225 33.5256 41.1096 33.5278 41.0976 33.5324C41.0856 33.537 41.0746 33.544 41.0653 33.553C41.0561 33.562 41.0487 33.5728 41.0437 33.5847C41.0387 33.5967 41.0361 33.6095 41.0361 33.6224V34.4776C41.0361 34.4905 41.0387 34.5034 41.0437 34.5153C41.0487 34.5272 41.0561 34.538 41.0653 34.547C41.0746 34.556 41.0856 34.563 41.0976 34.5676C41.1096 34.5723 41.1225 34.5744 41.1353 34.5739H41.6022C41.6441 34.5756 41.6859 34.5687 41.725 34.5536C41.7642 34.5386 41.7999 34.5158 41.8301 34.4866C41.8603 34.4573 41.8843 34.4223 41.9007 34.3835C41.9171 34.3447 41.9255 34.3029 41.9255 34.2608C41.9266 34.2141 41.915 34.1681 41.8917 34.1277C41.8685 34.0873 41.8346 34.0541 41.7938 34.0319ZM42.6558 34.1524L42.7994 33.8392L42.9311 34.1524H42.6558ZM42.7994 33.514C42.7812 33.515 42.7636 33.5212 42.7488 33.5318C42.734 33.5425 42.7224 33.5572 42.7156 33.5743L42.2727 34.586H42.4762L42.5839 34.3331H43.003L43.1107 34.5739V34.586H43.3142L42.8713 33.5743C42.8644 33.5572 42.8529 33.5425 42.8381 33.5318C42.8232 33.5212 42.8057 33.515 42.7875 33.514M44.4635 34.2608C44.4143 34.3177 44.3496 34.3588 44.2774 34.3791C44.2052 34.3993 44.1287 34.3978 44.0573 34.3747C43.9859 34.3516 43.9228 34.308 43.8759 34.2492C43.8289 34.1904 43.8001 34.1191 43.7931 34.044C43.7931 33.9955 43.8028 33.9475 43.8215 33.9029C43.8403 33.8582 43.8679 33.8178 43.9025 33.7841C43.9371 33.7504 43.9782 33.7241 44.0231 33.7066C44.0681 33.6892 44.1161 33.681 44.1642 33.6827C44.2189 33.6821 44.273 33.6937 44.3226 33.7166C44.3723 33.7395 44.4163 33.7731 44.4516 33.8151L44.4635 33.8272L44.6072 33.7067L44.5952 33.6947C44.5429 33.6347 44.4784 33.5864 44.4062 33.5532C44.334 33.52 44.2556 33.5025 44.1762 33.502C44.1035 33.4987 44.0308 33.5103 43.9627 33.5361C43.8945 33.5619 43.8323 33.6013 43.7797 33.652C43.7271 33.7026 43.6853 33.7635 43.6567 33.8309C43.6281 33.8982 43.6135 33.9707 43.6135 34.044C43.6183 34.1598 43.6582 34.2713 43.7279 34.3635C43.7977 34.4557 43.8939 34.5242 44.0036 34.5596C44.1132 34.5951 44.231 34.5959 44.3411 34.5618C44.4512 34.5277 44.5483 34.4605 44.6192 34.3692L44.6311 34.3571L44.4875 34.2367L44.4635 34.2608ZM45.7565 34.2608C45.7073 34.3177 45.6426 34.3588 45.5704 34.3791C45.4982 34.3993 45.4216 34.3978 45.3503 34.3747C45.2789 34.3516 45.2158 34.308 45.1689 34.2492C45.1219 34.1904 45.0931 34.1191 45.0861 34.044C45.0861 33.9955 45.0957 33.9475 45.1145 33.9029C45.1333 33.8582 45.1608 33.8178 45.1955 33.7841C45.2301 33.7504 45.2711 33.7241 45.3161 33.7066C45.3611 33.6892 45.4091 33.681 45.4572 33.6827C45.5119 33.6821 45.5659 33.6937 45.6156 33.7166C45.6653 33.7395 45.7093 33.7731 45.7445 33.8151L45.7565 33.8272L45.9002 33.7067L45.8882 33.6947C45.8358 33.6347 45.7714 33.5864 45.6992 33.5532C45.627 33.52 45.5486 33.5025 45.4692 33.502C45.3965 33.4987 45.3238 33.5103 45.2557 33.5361C45.1875 33.5619 45.1253 33.6013 45.0727 33.652C45.0201 33.7026 44.9782 33.7635 44.9497 33.8309C44.9211 33.8982 44.9064 33.9707 44.9065 34.044C44.9112 34.1598 44.9512 34.2713 45.0209 34.3635C45.0907 34.4557 45.1869 34.5242 45.2965 34.5596C45.4062 34.5951 45.524 34.5959 45.6341 34.5618C45.7442 34.5277 45.8413 34.4605 45.9122 34.3692L45.9241 34.3571L45.7685 34.2487L45.7565 34.2608ZM47.0974 34.044C47.0974 34.143 47.0583 34.238 46.9887 34.308C46.9191 34.378 46.8247 34.4174 46.7263 34.4174C46.6278 34.4174 46.5334 34.378 46.4638 34.308C46.3942 34.238 46.3551 34.143 46.3551 34.044C46.3536 33.9975 46.3612 33.9512 46.3777 33.9078C46.3941 33.8644 46.419 33.8247 46.4509 33.7911C46.5226 33.7197 46.6194 33.6797 46.7203 33.6797C46.8211 33.6797 46.9179 33.7197 46.9896 33.7911C47.0224 33.8243 47.0482 33.8638 47.0654 33.9073C47.0827 33.9507 47.0911 33.9972 47.0902 34.044H47.0974ZM46.7263 33.502C46.6535 33.4987 46.5809 33.5103 46.5127 33.5361C46.4446 33.5619 46.3823 33.6013 46.3297 33.652C46.2771 33.7026 46.2353 33.7635 46.2067 33.8309C46.1782 33.8982 46.1635 33.9707 46.1636 34.044C46.1588 34.1568 46.1877 34.2686 46.2465 34.3648C46.3054 34.461 46.3915 34.5373 46.4938 34.5838C46.5961 34.6304 46.7099 34.6451 46.8206 34.6261C46.9313 34.607 47.0338 34.5551 47.1149 34.477C47.196 34.3988 47.252 34.2981 47.2757 34.1877C47.2994 34.0773 47.2898 33.9622 47.248 33.8574C47.2062 33.7525 47.1342 33.6627 47.0412 33.5993C46.9482 33.536 46.8385 33.5021 46.7263 33.502Z" fill="black"/>
<path d="M40.1541 28.6484L43.0633 28.1425L41.052 26.649L40.1541 28.6484Z" fill="#0065A7"/>
<path d="M41.0639 26.6004L43.0632 28.0578L44.4639 26.769L41.0639 26.6004Z" fill="#0678AC"/>
<path d="M44.5239 26.6252L45.4218 24.2404L42.2253 24.8908L44.5239 26.6252Z" fill="#2EB56A"/>
<path d="M42.3808 24.7939L45.5774 24.1676L43.3146 23.6497L42.3808 24.7939Z" fill="#A5CE40"/>
<path d="M43.2907 23.5654L45.5654 24.1074L45.7569 21L43.2907 23.5654Z" fill="#F5E431"/>
<path d="M39.5674 26.1188L40.1181 28.5999L41.004 26.5885L39.5674 26.1188Z" fill="#9072B3"/>
<path d="M42.0932 24.9745L39.627 26.0705L40.9798 26.5282L42.0932 24.9745Z" fill="#9360A8"/>
<path d="M40.3692 23.8907L39.627 25.9624L42.2009 24.8543L40.3692 23.8907Z" fill="#DF599C"/>
<path d="M40.4652 23.8299L42.2011 23.7094L43.2187 23.589L42.4884 22.3243L40.4652 23.8299Z" fill="#F89A29"/>
<path d="M42.5004 22.2044L43.2427 23.4932L45.697 21L42.5004 22.2044Z" fill="#FCBC1B"/>
<path d="M40.4652 23.8785L42.2969 24.7939L43.2427 23.6497L40.4652 23.8785Z" fill="#F16165"/>
<path d="M42.1653 24.9745L41.0639 26.5523L44.4639 26.733L42.1653 24.9745Z" fill="#1DA6BA"/>
<path d="M43.5877 50.0268C39.0322 50.1856 34.5432 48.9004 30.7642 46.3553C26.9852 43.8103 24.1102 40.136 22.5512 35.8592L29.6503 33.2792C30.6636 36.0592 32.5324 38.4475 34.9888 40.1018C37.4451 41.756 40.3629 42.5914 43.324 42.4882L43.5877 50.0268Z" fill="#900146"/>
<path d="M54.9045 10.6206C58.6835 13.1657 61.5586 16.8399 63.1176 21.1168C64.6766 25.3936 64.8396 30.0535 63.5831 34.4285C62.3267 38.8035 59.7153 42.6691 56.1233 45.4712C52.5314 48.2732 48.1431 49.8679 43.5876 50.0268L43.324 42.4882C46.2851 42.385 49.1374 41.3484 51.4722 39.527C53.807 37.7057 55.5044 35.1931 56.3211 32.3493C57.1378 29.5056 57.0318 26.4767 56.0185 23.6967C55.0051 20.9167 53.1363 18.5285 50.68 16.8742L54.9045 10.6206Z" fill="#2C88BC"/>
<path d="M22.5512 35.8592C20.9921 31.5823 20.8291 26.9225 22.0856 22.5475C23.342 18.1724 25.9534 14.3069 29.5453 11.5048C33.1373 8.70274 37.5255 7.108 42.0811 6.94916C46.6366 6.79032 51.1255 8.07553 54.9045 10.6206L50.68 16.8742C48.2236 15.2199 45.3058 14.3845 42.3447 14.4877C39.3836 14.591 36.5313 15.6276 34.1965 17.4489C31.8617 19.2703 30.1643 21.7829 29.3477 24.6266C28.531 27.4704 28.6369 30.4993 29.6503 33.2792L22.5512 35.8592Z" fill="#FF862E"/>
<path d="M30.3282 12.7373L27.7862 9.47406H17.2551" stroke="black" stroke-width="0.145684"/>
<path d="M30.6912 45.0075L28.1492 48.2708H17.6181" stroke="black" stroke-width="0.145684"/>
<path d="M2.74996 46.6683C2.47026 46.6683 2.2471 46.5954 2.08047 46.4496C1.91681 46.3009 1.83499 46.103 1.83499 45.856V45.7355C1.83499 45.7058 1.84986 45.6909 1.87962 45.6909H2.09832C2.12807 45.6909 2.14295 45.7058 2.14295 45.7355V45.8382C2.14295 46.0048 2.19949 46.1387 2.31256 46.2399C2.42563 46.341 2.57589 46.3916 2.76335 46.3916C2.9389 46.3916 3.07726 46.344 3.17843 46.2488C3.2796 46.1536 3.33018 46.0286 3.33018 45.8739C3.33018 45.7727 3.30638 45.6849 3.25877 45.6105C3.21116 45.5362 3.14124 45.4677 3.049 45.4052C2.95675 45.3427 2.82434 45.2639 2.65176 45.1687C2.46728 45.0705 2.32148 44.9842 2.21436 44.9098C2.11022 44.8354 2.02542 44.7447 1.95996 44.6375C1.8945 44.5304 1.86177 44.3995 1.86177 44.2448C1.86177 44.0038 1.93913 43.8148 2.09386 43.6779C2.24858 43.5411 2.45538 43.4726 2.71425 43.4726C2.99097 43.4726 3.21116 43.5485 3.37481 43.7003C3.53847 43.852 3.62029 44.0529 3.62029 44.3028V44.4055C3.62029 44.4352 3.60542 44.4501 3.57566 44.4501H3.3525C3.32274 44.4501 3.30787 44.4352 3.30787 44.4055V44.3073C3.30787 44.1406 3.25431 44.0067 3.14719 43.9056C3.04007 43.8014 2.89278 43.7494 2.70532 43.7494C2.5387 43.7494 2.40777 43.7925 2.31256 43.8788C2.22032 43.9651 2.1742 44.0871 2.1742 44.2448C2.1742 44.3459 2.19651 44.4308 2.24114 44.4992C2.28578 44.5676 2.34975 44.6301 2.43306 44.6866C2.51935 44.7432 2.65028 44.8191 2.82583 44.9143C3.02817 45.0273 3.18289 45.124 3.29001 45.2044C3.40011 45.2817 3.4864 45.3725 3.54888 45.4766C3.61434 45.5778 3.64707 45.7028 3.64707 45.8516C3.64707 46.1015 3.56673 46.3009 3.40606 46.4496C3.24538 46.5954 3.02668 46.6683 2.74996 46.6683ZM5.91888 43.5396C5.93375 43.5188 5.95161 43.5083 5.97244 43.5083H6.20453C6.23428 43.5083 6.24916 43.5232 6.24916 43.553V46.588C6.24916 46.6178 6.23428 46.6326 6.20453 46.6326H5.9769C5.94714 46.6326 5.93227 46.6178 5.93227 46.588V44.16C5.93227 44.1511 5.92929 44.1451 5.92334 44.1421C5.91739 44.1392 5.91292 44.1421 5.90995 44.1511L5.31634 45.1821C5.30146 45.2029 5.2836 45.2133 5.26278 45.2133H5.21368C5.19285 45.2133 5.175 45.2029 5.16012 45.1821L4.56204 44.1555C4.55907 44.1466 4.5546 44.1436 4.54865 44.1466C4.5427 44.1496 4.53973 44.1555 4.53973 44.1644V46.588C4.53973 46.6178 4.52485 46.6326 4.49509 46.6326H4.26747C4.23771 46.6326 4.22283 46.6178 4.22283 46.588V43.553C4.22283 43.5232 4.23771 43.5083 4.26747 43.5083H4.49956C4.52039 43.5083 4.53824 43.5188 4.55312 43.5396L5.22707 44.6866C5.23005 44.6896 5.23451 44.6911 5.24046 44.6911C5.24641 44.6911 5.25087 44.6896 5.25385 44.6866L5.91888 43.5396ZM8.49938 46.6326C8.4726 46.6326 8.45623 46.6192 8.45028 46.5925L8.30299 46.0346C8.30002 46.0256 8.29258 46.0212 8.28068 46.0212H7.21396C7.20205 46.0212 7.19461 46.0256 7.19164 46.0346L7.04435 46.5925C7.0384 46.6192 7.02203 46.6326 6.99526 46.6326H6.76317C6.74829 46.6326 6.73639 46.6282 6.72746 46.6192C6.72151 46.6103 6.72002 46.5984 6.723 46.5835L7.55763 43.5485C7.56358 43.5217 7.57994 43.5083 7.60672 43.5083H7.89237C7.91915 43.5083 7.93552 43.5217 7.94147 43.5485L8.7761 46.5835L8.78056 46.5969C8.78056 46.6207 8.76568 46.6326 8.73593 46.6326H8.49938ZM7.26751 45.7444C7.26454 45.7474 7.26454 45.7519 7.26751 45.7578C7.27347 45.7608 7.27942 45.7623 7.28537 45.7623H8.20926C8.21521 45.7623 8.21968 45.7608 8.22265 45.7578C8.2286 45.7519 8.23009 45.7474 8.22712 45.7444L7.75401 43.9502C7.75104 43.9443 7.74806 43.9413 7.74508 43.9413C7.74211 43.9413 7.73913 43.9443 7.73616 43.9502L7.26751 45.7444ZM9.29746 46.6326C9.26771 46.6326 9.25283 46.6178 9.25283 46.588V43.553C9.25283 43.5232 9.26771 43.5083 9.29746 43.5083H9.52509C9.55485 43.5083 9.56972 43.5232 9.56972 43.553V46.3381C9.56972 46.35 9.57567 46.3559 9.58758 46.3559H10.8864C10.9161 46.3559 10.931 46.3708 10.931 46.4005V46.588C10.931 46.6178 10.9161 46.6326 10.8864 46.6326H9.29746ZM11.4506 46.6326C11.4209 46.6326 11.406 46.6178 11.406 46.588V43.553C11.406 43.5232 11.4209 43.5083 11.4506 43.5083H11.6783C11.708 43.5083 11.7229 43.5232 11.7229 43.553V46.3381C11.7229 46.35 11.7289 46.3559 11.7408 46.3559H13.0396C13.0693 46.3559 13.0842 46.3708 13.0842 46.4005V46.588C13.0842 46.6178 13.0693 46.6326 13.0396 46.6326H11.4506ZM14.9116 45.0035C14.8967 45.0095 14.8967 45.0169 14.9116 45.0259C15.0514 45.0943 15.1585 45.1925 15.2329 45.3204C15.3103 45.4484 15.3504 45.6031 15.3534 45.7846C15.3534 46.0524 15.2731 46.2607 15.1124 46.4095C14.9547 46.5582 14.7449 46.6326 14.4831 46.6326H13.6038C13.5741 46.6326 13.5592 46.6178 13.5592 46.588V43.553C13.5592 43.5232 13.5741 43.5083 13.6038 43.5083H14.4474C14.7211 43.5083 14.9354 43.5798 15.0901 43.7226C15.2448 43.8624 15.3222 44.0633 15.3222 44.3251C15.3222 44.4917 15.2865 44.6316 15.2151 44.7447C15.1466 44.8577 15.0455 44.944 14.9116 45.0035ZM13.8939 43.7851C13.882 43.7851 13.8761 43.791 13.8761 43.8029V44.8786C13.8761 44.8905 13.882 44.8964 13.8939 44.8964H14.4518C14.6244 44.8964 14.7598 44.8473 14.858 44.7491C14.9592 44.6509 15.0097 44.5185 15.0097 44.3519C15.0097 44.1763 14.9592 44.038 14.858 43.9368C14.7598 43.8356 14.6244 43.7851 14.4518 43.7851H13.8939ZM14.4742 46.3514C14.6467 46.3514 14.7836 46.2979 14.8848 46.1908C14.9859 46.0836 15.0365 45.9378 15.0365 45.7534C15.0365 45.5659 14.9845 45.4186 14.8803 45.3115C14.7791 45.2044 14.6408 45.1508 14.4652 45.1508H13.8939C13.882 45.1508 13.8761 45.1568 13.8761 45.1687V46.3336C13.8761 46.3455 13.882 46.3514 13.8939 46.3514H14.4742ZM17.6617 43.7404C17.6617 43.7702 17.6469 43.7851 17.6171 43.7851H16.2781C16.2662 43.7851 16.2603 43.791 16.2603 43.8029V44.9098C16.2603 44.9217 16.2662 44.9277 16.2781 44.9277H17.1797C17.2095 44.9277 17.2243 44.9425 17.2243 44.9723V45.1598C17.2243 45.1895 17.2095 45.2044 17.1797 45.2044H16.2781C16.2662 45.2044 16.2603 45.2103 16.2603 45.2222V46.3381C16.2603 46.35 16.2662 46.3559 16.2781 46.3559H17.6171C17.6469 46.3559 17.6617 46.3708 17.6617 46.4005V46.588C17.6617 46.6178 17.6469 46.6326 17.6171 46.6326H15.988C15.9582 46.6326 15.9434 46.6178 15.9434 46.588V43.553C15.9434 43.5232 15.9582 43.5083 15.988 43.5083H17.6171C17.6469 43.5083 17.6617 43.5232 17.6617 43.553V43.7404ZM19.78 46.6326C19.7562 46.6326 19.7398 46.6207 19.7309 46.5969L19.1775 45.2178C19.1745 45.2088 19.1685 45.2044 19.1596 45.2044H18.5838C18.5719 45.2044 18.566 45.2103 18.566 45.2222V46.588C18.566 46.6178 18.5511 46.6326 18.5214 46.6326H18.2937C18.264 46.6326 18.2491 46.6178 18.2491 46.588V43.553C18.2491 43.5232 18.264 43.5083 18.2937 43.5083H19.2399C19.3947 43.5083 19.5315 43.544 19.6506 43.6155C19.7726 43.6869 19.8663 43.788 19.9318 43.919C20.0002 44.0499 20.0344 44.2001 20.0344 44.3698C20.0344 44.5721 19.9853 44.7447 19.8871 44.8875C19.7889 45.0303 19.655 45.1255 19.4854 45.1731C19.4735 45.1791 19.4705 45.1865 19.4765 45.1955L20.0523 46.5791L20.0567 46.5969C20.0567 46.6207 20.0433 46.6326 20.0166 46.6326H19.78ZM18.5838 43.7851C18.5719 43.7851 18.566 43.791 18.566 43.8029V44.9321C18.566 44.944 18.5719 44.95 18.5838 44.95H19.1998C19.3545 44.95 19.4795 44.8964 19.5747 44.7893C19.6699 44.6822 19.7175 44.5423 19.7175 44.3698C19.7175 44.1942 19.6699 44.0529 19.5747 43.9457C19.4795 43.8386 19.3545 43.7851 19.1998 43.7851H18.5838ZM22.138 46.6326C22.1142 46.6326 22.0979 46.6207 22.0889 46.5969L21.5355 45.2178C21.5325 45.2088 21.5266 45.2044 21.5176 45.2044H20.9419C20.93 45.2044 20.924 45.2103 20.924 45.2222V46.588C20.924 46.6178 20.9092 46.6326 20.8794 46.6326H20.6518C20.622 46.6326 20.6071 46.6178 20.6071 46.588V43.553C20.6071 43.5232 20.622 43.5083 20.6518 43.5083H21.598C21.7527 43.5083 21.8896 43.544 22.0086 43.6155C22.1306 43.6869 22.2243 43.788 22.2898 43.919C22.3582 44.0499 22.3924 44.2001 22.3924 44.3698C22.3924 44.5721 22.3433 44.7447 22.2452 44.8875C22.147 45.0303 22.0131 45.1255 21.8435 45.1731C21.8316 45.1791 21.8286 45.1865 21.8345 45.1955L22.4103 46.5791L22.4148 46.5969C22.4148 46.6207 22.4014 46.6326 22.3746 46.6326H22.138ZM20.9419 43.7851C20.93 43.7851 20.924 43.791 20.924 43.8029V44.9321C20.924 44.944 20.93 44.95 20.9419 44.95H21.5578C21.7125 44.95 21.8375 44.8964 21.9327 44.7893C22.0279 44.6822 22.0756 44.5423 22.0756 44.3698C22.0756 44.1942 22.0279 44.0529 21.9327 43.9457C21.8375 43.8386 21.7125 43.7851 21.5578 43.7851H20.9419ZM23.5333 46.6282C23.5035 46.6282 23.4886 46.6133 23.4886 46.5835V45.2535C23.4886 45.2416 23.4871 45.2341 23.4842 45.2312L22.712 43.5619L22.7076 43.544C22.7076 43.5202 22.7209 43.5083 22.7477 43.5083H22.9887C23.0125 43.5083 23.0289 43.5202 23.0378 43.544L23.6359 44.8786C23.6389 44.8845 23.6434 44.8875 23.6493 44.8875C23.6553 44.8875 23.6597 44.8845 23.6627 44.8786L24.2608 43.544C24.2697 43.5202 24.2861 43.5083 24.3099 43.5083H24.5509C24.5658 43.5083 24.5762 43.5143 24.5821 43.5262C24.5911 43.5351 24.5925 43.547 24.5866 43.5619L23.81 45.2312C23.807 45.2341 23.8055 45.2416 23.8055 45.2535V46.5835C23.8055 46.6133 23.7906 46.6282 23.7609 46.6282H23.5333ZM2.24561 51.3336C2.23668 51.3485 2.23966 51.3559 2.25453 51.3559H3.48193C3.51169 51.3559 3.52657 51.3708 3.52657 51.4005V51.588C3.52657 51.6178 3.51169 51.6326 3.48193 51.6326H1.89301C1.86325 51.6326 1.84838 51.6178 1.84838 51.588V51.3916C1.84838 51.3738 1.85433 51.3544 1.86623 51.3336C2.13403 50.9706 2.43306 50.554 2.76335 50.0839C2.99841 49.7417 3.11594 49.4679 3.11594 49.2626C3.11594 49.1079 3.07131 48.9844 2.98205 48.8922C2.89278 48.797 2.77525 48.7494 2.62945 48.7494C2.48662 48.7494 2.37207 48.797 2.28578 48.8922C2.19949 48.9844 2.15783 49.1079 2.16081 49.2626V49.4144C2.16081 49.4441 2.14593 49.459 2.11617 49.459H1.88408C1.85433 49.459 1.83945 49.4441 1.83945 49.4144V49.2359C1.8454 49.0067 1.92128 48.8223 2.06708 48.6824C2.21585 48.5426 2.40629 48.4726 2.63838 48.4726C2.87642 48.4726 3.06834 48.5455 3.21414 48.6913C3.35994 48.8371 3.43284 49.0276 3.43284 49.2626C3.43284 49.5245 3.31084 49.8339 3.06685 50.191C2.9151 50.4112 2.67557 50.7444 2.34826 51.1908L2.24561 51.3336ZM4.83765 51.6773C4.58176 51.6773 4.37645 51.5999 4.22172 51.4452C4.06699 51.2904 3.98963 51.0836 3.98963 50.8248V49.3162C3.98963 49.0603 4.06699 48.855 4.22172 48.7003C4.37645 48.5455 4.58176 48.4682 4.83765 48.4682C5.09652 48.4682 5.30332 48.5455 5.45804 48.7003C5.61575 48.855 5.6946 49.0603 5.6946 49.3162V50.8248C5.6946 51.0836 5.61575 51.2904 5.45804 51.4452C5.30332 51.5999 5.09652 51.6773 4.83765 51.6773ZM4.83765 51.4005C5.0013 51.4005 5.13223 51.35 5.23042 51.2488C5.32861 51.1476 5.3777 51.0137 5.3777 50.8471V49.2983C5.3777 49.1317 5.32861 48.9978 5.23042 48.8966C5.13223 48.7955 5.0013 48.7449 4.83765 48.7449C4.67995 48.7449 4.552 48.7955 4.45381 48.8966C4.35562 48.9978 4.30652 49.1317 4.30652 49.2983V50.8471C4.30652 51.0107 4.35562 51.1446 4.45381 51.2488C4.552 51.35 4.67995 51.4005 4.83765 51.4005ZM6.97067 49.7357C6.85463 49.7357 6.74751 49.7075 6.64932 49.6509C6.5541 49.5944 6.47823 49.5185 6.42169 49.4233C6.36516 49.3251 6.33689 49.218 6.33689 49.102C6.33689 48.9859 6.36516 48.8803 6.42169 48.7851C6.47823 48.6869 6.5541 48.6095 6.64932 48.553C6.74751 48.4964 6.85463 48.4682 6.97067 48.4682C7.08374 48.4682 7.18788 48.4964 7.2831 48.553C7.38129 48.6095 7.45866 48.6869 7.51519 48.7851C7.57173 48.8803 7.59999 48.9859 7.59999 49.102C7.59999 49.218 7.57173 49.3251 7.51519 49.4233C7.45866 49.5185 7.38129 49.5944 7.2831 49.6509C7.18788 49.7075 7.08374 49.7357 6.97067 49.7357ZM6.86802 51.6326C6.85314 51.6326 6.84124 51.6282 6.83231 51.6192C6.82636 51.6073 6.82785 51.5939 6.83677 51.5791L8.49711 48.5396C8.50604 48.5188 8.52389 48.5083 8.55067 48.5083H8.69349C8.70837 48.5083 8.71879 48.5143 8.72474 48.5262C8.73366 48.5351 8.73366 48.547 8.72474 48.5619L7.0644 51.6014C7.05547 51.6222 7.03762 51.6326 7.01084 51.6326H6.86802ZM6.97067 49.5394C7.08969 49.5394 7.18937 49.4977 7.26971 49.4144C7.35303 49.3281 7.39468 49.224 7.39468 49.102C7.39468 48.98 7.35303 48.8773 7.26971 48.794C7.18937 48.7077 7.08969 48.6646 6.97067 48.6646C6.85165 48.6646 6.75048 48.7077 6.66717 48.794C6.58386 48.8773 6.5422 48.98 6.5422 49.102C6.5422 49.224 6.58386 49.3281 6.66717 49.4144C6.75048 49.4977 6.85165 49.5394 6.97067 49.5394ZM8.60869 51.6728C8.49265 51.6728 8.38553 51.6445 8.28734 51.588C8.19212 51.5315 8.11624 51.4541 8.05971 51.3559C8.00317 51.2577 7.97491 51.1506 7.97491 51.0346C7.97491 50.9215 8.00317 50.8173 8.05971 50.7221C8.11624 50.6239 8.19212 50.5466 8.28734 50.49C8.38553 50.4335 8.49265 50.4052 8.60869 50.4052C8.72176 50.4052 8.8259 50.4335 8.92112 50.49C9.01931 50.5466 9.09668 50.6239 9.15321 50.7221C9.20974 50.8173 9.23801 50.9215 9.23801 51.0346C9.23801 51.1506 9.20974 51.2577 9.15321 51.3559C9.09668 51.4541 9.01931 51.5315 8.92112 51.588C8.8259 51.6445 8.72176 51.6728 8.60869 51.6728ZM8.60869 51.4764C8.72771 51.4764 8.82739 51.4333 8.90773 51.347C8.99104 51.2607 9.0327 51.1565 9.0327 51.0346C9.0327 50.9126 8.99104 50.8099 8.90773 50.7266C8.82739 50.6433 8.72771 50.6016 8.60869 50.6016C8.48967 50.6016 8.3885 50.6433 8.30519 50.7266C8.22187 50.8099 8.18022 50.9126 8.18022 51.0346C8.18022 51.1595 8.22039 51.2652 8.30073 51.3514C8.38404 51.4348 8.4867 51.4764 8.60869 51.4764Z" fill="#404040"/>
<path d="M1.20272 8.07105C1.02122 8.07105 0.860541 8.03385 0.720692 7.95946C0.583818 7.8821 0.4767 7.77498 0.399336 7.63811C0.324949 7.50124 0.287755 7.34353 0.287755 7.165V5.78585C0.287755 5.60732 0.324949 5.44962 0.399336 5.31275C0.4767 5.1729 0.583818 5.06578 0.720692 4.99139C0.860541 4.91403 1.02122 4.87535 1.20272 4.87535C1.38423 4.87535 1.54342 4.91403 1.68029 4.99139C1.82014 5.06578 1.92875 5.1729 2.00611 5.31275C2.08348 5.44962 2.12216 5.60732 2.12216 5.78585V7.165C2.12216 7.34353 2.08348 7.50124 2.00611 7.63811C1.92875 7.77498 1.82014 7.8821 1.68029 7.95946C1.54342 8.03385 1.38423 8.07105 1.20272 8.07105ZM1.20272 7.79432C1.38423 7.79432 1.53003 7.73779 1.64012 7.62472C1.75022 7.51165 1.80527 7.36287 1.80527 7.17839V5.77693C1.80527 5.58947 1.75022 5.43921 1.64012 5.32614C1.53003 5.21009 1.38423 5.15207 1.20272 5.15207C1.02419 5.15207 0.879881 5.21009 0.769788 5.32614C0.659694 5.43921 0.604647 5.58947 0.604647 5.77693V7.17839C0.604647 7.36287 0.659694 7.51165 0.769788 7.62472C0.879881 7.73779 1.02419 7.79432 1.20272 7.79432ZM4.13091 6.40625C4.11603 6.4122 4.11603 6.41964 4.13091 6.42856C4.27076 6.497 4.37787 6.59519 4.45226 6.72314C4.52962 6.85109 4.56979 7.00581 4.57277 7.18732C4.57277 7.45511 4.49243 7.6634 4.33175 7.81218C4.17405 7.96095 3.96428 8.03534 3.70243 8.03534H2.82317C2.79341 8.03534 2.77854 8.02046 2.77854 7.99071V4.95569C2.77854 4.92593 2.79341 4.91105 2.82317 4.91105H3.66673C3.94047 4.91105 4.15471 4.98246 4.30944 5.12529C4.46416 5.26514 4.54153 5.46599 4.54153 5.72783C4.54153 5.89446 4.50582 6.03431 4.43441 6.14738C4.36597 6.26045 4.2648 6.34674 4.13091 6.40625ZM3.11328 5.18778C3.10138 5.18778 3.09543 5.19373 3.09543 5.20563V6.28128C3.09543 6.29318 3.10138 6.29913 3.11328 6.29913H3.67119C3.84377 6.29913 3.97916 6.25003 4.07735 6.15184C4.17851 6.05365 4.2291 5.92124 4.2291 5.75461C4.2291 5.57905 4.17851 5.44069 4.07735 5.33953C3.97916 5.23836 3.84377 5.18778 3.67119 5.18778H3.11328ZM3.69351 7.75415C3.86609 7.75415 4.00296 7.70059 4.10413 7.59348C4.20529 7.48636 4.25588 7.34056 4.25588 7.15608C4.25588 6.96862 4.20381 6.82133 4.09966 6.71421C3.9985 6.60709 3.86013 6.55353 3.68458 6.55353H3.11328C3.10138 6.55353 3.09543 6.55949 3.09543 6.57139V7.7363C3.09543 7.7482 3.10138 7.75415 3.11328 7.75415H3.69351ZM5.22479 8.03534C5.19503 8.03534 5.18016 8.02046 5.18016 7.99071V4.95569C5.18016 4.92593 5.19503 4.91105 5.22479 4.91105H5.45242C5.48217 4.91105 5.49705 4.92593 5.49705 4.95569V7.74076C5.49705 7.75267 5.503 7.75862 5.5149 7.75862H6.81371C6.84347 7.75862 6.85835 7.77349 6.85835 7.80325V7.99071C6.85835 8.02046 6.84347 8.03534 6.81371 8.03534H5.22479ZM9.05169 5.14314C9.05169 5.1729 9.03681 5.18778 9.00706 5.18778H7.66808C7.65618 5.18778 7.65023 5.19373 7.65023 5.20563V6.31252C7.65023 6.32442 7.65618 6.33037 7.66808 6.33037H8.56966C8.59941 6.33037 8.61429 6.34525 8.61429 6.375V6.56246C8.61429 6.59222 8.59941 6.60709 8.56966 6.60709H7.66808C7.65618 6.60709 7.65023 6.61305 7.65023 6.62495V7.74076C7.65023 7.75267 7.65618 7.75862 7.66808 7.75862H9.00706C9.03681 7.75862 9.05169 7.77349 9.05169 7.80325V7.99071C9.05169 8.02046 9.03681 8.03534 9.00706 8.03534H7.37797C7.34821 8.03534 7.33333 8.02046 7.33333 7.99071V4.95569C7.33333 4.92593 7.34821 4.91105 7.37797 4.91105H9.00706C9.03681 4.91105 9.05169 4.92593 9.05169 4.95569V5.14314ZM10.621 4.90659C10.859 4.90659 11.0509 4.98693 11.1967 5.14761C11.3455 5.30531 11.4199 5.51508 11.4199 5.77693C11.4199 6.0358 11.3455 6.24408 11.1967 6.40178C11.0509 6.55651 10.859 6.63387 10.621 6.63387H9.95596C9.94405 6.63387 9.9381 6.63982 9.9381 6.65173V7.99071C9.9381 8.02046 9.92323 8.03534 9.89347 8.03534H9.66584C9.63609 8.03534 9.62121 8.02046 9.62121 7.99071V4.95122C9.62121 4.92147 9.63609 4.90659 9.66584 4.90659H10.621ZM10.5808 6.37054C10.7385 6.37054 10.865 6.31698 10.9602 6.20986C11.0554 6.10274 11.103 5.95992 11.103 5.78139C11.103 5.59988 11.0554 5.45557 10.9602 5.34845C10.865 5.23836 10.7385 5.18331 10.5808 5.18331H9.95596C9.94405 5.18331 9.9381 5.18926 9.9381 5.20116V6.35269C9.9381 6.36459 9.94405 6.37054 9.95596 6.37054H10.5808ZM11.9894 8.03534C11.9597 8.03534 11.9448 8.02046 11.9448 7.99071V4.95569C11.9448 4.92593 11.9597 4.91105 11.9894 4.91105H12.2171C12.2468 4.91105 12.2617 4.92593 12.2617 4.95569V7.99071C12.2617 8.02046 12.2468 8.03534 12.2171 8.03534H11.9894ZM14.446 4.95569C14.446 4.92593 14.4609 4.91105 14.4906 4.91105H14.7183C14.748 4.91105 14.7629 4.92593 14.7629 4.95569V7.99071C14.7629 8.02046 14.748 8.03534 14.7183 8.03534H14.4906C14.4609 8.03534 14.446 8.02046 14.446 7.99071V6.62495C14.446 6.61305 14.4401 6.60709 14.4282 6.60709H13.3213C13.3094 6.60709 13.3034 6.61305 13.3034 6.62495V7.99071C13.3034 8.02046 13.2885 8.03534 13.2588 8.03534H13.0311C13.0014 8.03534 12.9865 8.02046 12.9865 7.99071V4.95569C12.9865 4.92593 13.0014 4.91105 13.0311 4.91105H13.2588C13.2885 4.91105 13.3034 4.92593 13.3034 4.95569V6.31252C13.3034 6.32442 13.3094 6.33037 13.3213 6.33037H14.4282C14.4401 6.33037 14.446 6.32442 14.446 6.31252V4.95569ZM17.0319 8.03534C17.0052 8.03534 16.9888 8.02195 16.9828 7.99517L16.8356 7.43726C16.8326 7.42834 16.8251 7.42387 16.8132 7.42387H15.7465C15.7346 7.42387 15.7272 7.42834 15.7242 7.43726L15.5769 7.99517C15.571 8.02195 15.5546 8.03534 15.5278 8.03534H15.2957C15.2809 8.03534 15.269 8.03088 15.26 8.02195C15.2541 8.01302 15.2526 8.00112 15.2556 7.98624L16.0902 4.95122C16.0961 4.92444 16.1125 4.91105 16.1393 4.91105H16.4249C16.4517 4.91105 16.4681 4.92444 16.474 4.95122L17.3087 7.98624L17.3131 7.99963C17.3131 8.02344 17.2983 8.03534 17.2685 8.03534H17.0319ZM15.8001 7.14715C15.7971 7.15012 15.7971 7.15459 15.8001 7.16054C15.806 7.16351 15.812 7.165 15.8179 7.165H16.7418C16.7478 7.165 16.7522 7.16351 16.7552 7.16054C16.7612 7.15459 16.7627 7.15012 16.7597 7.14715L16.2866 5.35292C16.2836 5.34697 16.2806 5.34399 16.2777 5.34399C16.2747 5.34399 16.2717 5.34697 16.2687 5.35292L15.8001 7.14715ZM20.2366 6.89274C20.2664 6.89274 20.2812 6.90762 20.2812 6.93738V7.13376C20.2812 7.16351 20.2664 7.17839 20.2366 7.17839H20.0715C20.0596 7.17839 20.0536 7.18434 20.0536 7.19625V7.99071C20.0536 8.02046 20.0387 8.03534 20.009 8.03534H19.7813C19.7516 8.03534 19.7367 8.02046 19.7367 7.99071V7.19625C19.7367 7.18434 19.7308 7.17839 19.7189 7.17839H18.5093C18.4796 7.17839 18.4647 7.16351 18.4647 7.13376V6.96416C18.4647 6.94333 18.4677 6.92547 18.4736 6.9106L19.2681 4.94676C19.277 4.92295 19.2934 4.91105 19.3172 4.91105H19.5626C19.5775 4.91105 19.5879 4.917 19.5939 4.92891C19.5998 4.93783 19.5998 4.94973 19.5939 4.96461L18.8351 6.87043C18.8322 6.87638 18.8322 6.88233 18.8351 6.88828C18.8381 6.89126 18.8426 6.89274 18.8485 6.89274H19.7189C19.7308 6.89274 19.7367 6.88679 19.7367 6.87489V6.16969C19.7367 6.13994 19.7516 6.12506 19.7813 6.12506H20.009C20.0387 6.12506 20.0536 6.13994 20.0536 6.16969V6.87489C20.0536 6.88679 20.0596 6.89274 20.0715 6.89274H20.2366ZM21.5863 8.07997C21.3304 8.07997 21.1251 8.00261 20.9704 7.84788C20.8156 7.69316 20.7383 7.48636 20.7383 7.22749V5.7189C20.7383 5.46301 20.8156 5.2577 20.9704 5.10297C21.1251 4.94825 21.3304 4.87088 21.5863 4.87088C21.8452 4.87088 22.052 4.94825 22.2067 5.10297C22.3644 5.2577 22.4432 5.46301 22.4432 5.7189V7.22749C22.4432 7.48636 22.3644 7.69316 22.2067 7.84788C22.052 8.00261 21.8452 8.07997 21.5863 8.07997ZM21.5863 7.80325C21.7499 7.80325 21.8809 7.75267 21.9791 7.6515C22.0772 7.55033 22.1263 7.41643 22.1263 7.2498V5.70105C22.1263 5.53442 22.0772 5.40052 21.9791 5.29936C21.8809 5.19819 21.7499 5.14761 21.5863 5.14761C21.4286 5.14761 21.3006 5.19819 21.2024 5.29936C21.1043 5.40052 21.0552 5.53442 21.0552 5.70105V7.2498C21.0552 7.41346 21.1043 7.54736 21.2024 7.6515C21.3006 7.75267 21.4286 7.80325 21.5863 7.80325ZM23.7193 6.13845C23.6033 6.13845 23.4961 6.11018 23.398 6.05365C23.3027 5.99711 23.2269 5.92124 23.1703 5.82602C23.1138 5.72783 23.0855 5.62071 23.0855 5.50467C23.0855 5.38862 23.1138 5.28299 23.1703 5.18778C23.2269 5.08958 23.3027 5.01222 23.398 4.95569C23.4961 4.89915 23.6033 4.87088 23.7193 4.87088C23.8324 4.87088 23.9365 4.89915 24.0317 4.95569C24.1299 5.01222 24.2073 5.08958 24.2638 5.18778C24.3204 5.28299 24.3486 5.38862 24.3486 5.50467C24.3486 5.62071 24.3204 5.72783 24.2638 5.82602C24.2073 5.92124 24.1299 5.99711 24.0317 6.05365C23.9365 6.11018 23.8324 6.13845 23.7193 6.13845ZM23.6167 8.03534C23.6018 8.03534 23.5899 8.03088 23.5809 8.02195C23.575 8.01005 23.5765 7.99666 23.5854 7.98178L25.2457 4.9423C25.2547 4.92147 25.2725 4.91105 25.2993 4.91105H25.4421C25.457 4.91105 25.4674 4.917 25.4734 4.92891C25.4823 4.93783 25.4823 4.94973 25.4734 4.96461L23.813 8.0041C23.8041 8.02493 23.7863 8.03534 23.7595 8.03534H23.6167ZM23.7193 5.94207C23.8383 5.94207 23.938 5.90041 24.0183 5.8171C24.1017 5.73081 24.1433 5.62666 24.1433 5.50467C24.1433 5.38267 24.1017 5.28002 24.0183 5.1967C23.938 5.11041 23.8383 5.06727 23.7193 5.06727C23.6003 5.06727 23.4991 5.11041 23.4158 5.1967C23.3325 5.28002 23.2908 5.38267 23.2908 5.50467C23.2908 5.62666 23.3325 5.73081 23.4158 5.8171C23.4991 5.90041 23.6003 5.94207 23.7193 5.94207ZM25.3573 8.07551C25.2413 8.07551 25.1342 8.04724 25.036 7.99071C24.9408 7.93417 24.8649 7.85681 24.8083 7.75862C24.7518 7.66042 24.7235 7.55331 24.7235 7.43726C24.7235 7.32419 24.7518 7.22005 24.8083 7.12483C24.8649 7.02664 24.9408 6.94928 25.036 6.89274C25.1342 6.83621 25.2413 6.80794 25.3573 6.80794C25.4704 6.80794 25.5745 6.83621 25.6698 6.89274C25.7679 6.94928 25.8453 7.02664 25.9018 7.12483C25.9584 7.22005 25.9866 7.32419 25.9866 7.43726C25.9866 7.55331 25.9584 7.66042 25.9018 7.75862C25.8453 7.85681 25.7679 7.93417 25.6698 7.99071C25.5745 8.04724 25.4704 8.07551 25.3573 8.07551ZM25.3573 7.87913C25.4763 7.87913 25.576 7.83598 25.6564 7.74969C25.7397 7.6634 25.7813 7.55926 25.7813 7.43726C25.7813 7.31527 25.7397 7.21261 25.6564 7.1293C25.576 7.04598 25.4763 7.00432 25.3573 7.00432C25.2383 7.00432 25.1371 7.04598 25.0538 7.1293C24.9705 7.21261 24.9289 7.31527 24.9289 7.43726C24.9289 7.56223 24.969 7.66786 25.0494 7.75415C25.1327 7.83747 25.2353 7.87913 25.3573 7.87913Z" fill="#404040"/>
<path d="M58.447 42.0751L60.989 45.3384H71.5201" stroke="black" stroke-width="0.145684"/>
<path d="M62.6493 43.8992C62.6196 43.8992 62.6047 43.8843 62.6047 43.8545V40.8195C62.6047 40.7898 62.6196 40.7749 62.6493 40.7749H62.8769C62.9067 40.7749 62.9216 40.7898 62.9216 40.8195V43.8545C62.9216 43.8843 62.9067 43.8992 62.8769 43.8992H62.6493ZM64.4806 43.9349C64.2098 43.9349 63.9911 43.8545 63.8245 43.6939C63.6609 43.5332 63.579 43.3204 63.579 43.0556V41.614C63.579 41.3492 63.6609 41.1379 63.8245 40.9802C63.9911 40.8195 64.2098 40.7392 64.4806 40.7392C64.7544 40.7392 64.9731 40.818 65.1367 40.9757C65.3033 41.1334 65.3866 41.3432 65.3866 41.6051V41.6452C65.3866 41.675 65.3718 41.6899 65.342 41.6899L65.1144 41.6988C65.0846 41.6988 65.0698 41.6854 65.0698 41.6586V41.5961C65.0698 41.4235 65.0147 41.2837 64.9046 41.1766C64.7975 41.0695 64.6562 41.0159 64.4806 41.0159C64.3051 41.0159 64.1637 41.0695 64.0566 41.1766C63.9495 41.2807 63.8959 41.4206 63.8959 41.5961V43.0779C63.8959 43.2535 63.9495 43.3948 64.0566 43.5019C64.1637 43.6061 64.3051 43.6582 64.4806 43.6582C64.6562 43.6582 64.7975 43.6046 64.9046 43.4975C65.0147 43.3904 65.0698 43.2505 65.0698 43.0779V43.0154C65.0698 42.9887 65.0846 42.9753 65.1144 42.9753L65.342 42.9887C65.3718 42.9887 65.3866 43.0035 65.3866 43.0333V43.0645C65.3866 43.3264 65.3033 43.5376 65.1367 43.6983C64.9731 43.856 64.7544 43.9349 64.4806 43.9349ZM67.7315 41.007C67.7315 41.0367 67.7166 41.0516 67.6869 41.0516H66.3479C66.336 41.0516 66.33 41.0576 66.33 41.0695V42.1763C66.33 42.1883 66.336 42.1942 66.3479 42.1942H67.2495C67.2792 42.1942 67.2941 42.2091 67.2941 42.2388V42.4263C67.2941 42.456 67.2792 42.4709 67.2495 42.4709H66.3479C66.336 42.4709 66.33 42.4769 66.33 42.4888V43.6046C66.33 43.6165 66.336 43.6224 66.3479 43.6224H67.6869C67.7166 43.6224 67.7315 43.6373 67.7315 43.6671V43.8545C67.7315 43.8843 67.7166 43.8992 67.6869 43.8992H66.0578C66.028 43.8992 66.0131 43.8843 66.0131 43.8545V40.8195C66.0131 40.7898 66.028 40.7749 66.0578 40.7749H67.6869C67.7166 40.7749 67.7315 40.7898 67.7315 40.8195V41.007ZM70.9263 41.007C70.9263 41.0367 70.9114 41.0516 70.8817 41.0516H69.5471C69.5352 41.0516 69.5293 41.0576 69.5293 41.0695V42.1763C69.5293 42.1883 69.5352 42.1942 69.5471 42.1942H70.4443C70.474 42.1942 70.4889 42.2091 70.4889 42.2388V42.4263C70.4889 42.456 70.474 42.4709 70.4443 42.4709H69.5471C69.5352 42.4709 69.5293 42.4769 69.5293 42.4888V43.8545C69.5293 43.8843 69.5144 43.8992 69.4847 43.8992H69.257C69.2273 43.8992 69.2124 43.8843 69.2124 43.8545V40.8195C69.2124 40.7898 69.2273 40.7749 69.257 40.7749H70.8817C70.9114 40.7749 70.9263 40.7898 70.9263 40.8195V41.007ZM72.9139 43.8992C72.8901 43.8992 72.8737 43.8873 72.8648 43.8635L72.3114 42.4843C72.3084 42.4754 72.3024 42.4709 72.2935 42.4709H71.7178C71.7059 42.4709 71.6999 42.4769 71.6999 42.4888V43.8545C71.6999 43.8843 71.685 43.8992 71.6553 43.8992H71.4276C71.3979 43.8992 71.383 43.8843 71.383 43.8545V40.8195C71.383 40.7898 71.3979 40.7749 71.4276 40.7749H72.3739C72.5286 40.7749 72.6655 40.8106 72.7845 40.882C72.9065 40.9534 73.0002 41.0546 73.0657 41.1855C73.1341 41.3164 73.1683 41.4667 73.1683 41.6363C73.1683 41.8386 73.1192 42.0112 73.021 42.154C72.9228 42.2969 72.7889 42.3921 72.6193 42.4397C72.6074 42.4456 72.6045 42.4531 72.6104 42.462L73.1862 43.8456L73.1906 43.8635C73.1906 43.8873 73.1772 43.8992 73.1505 43.8992H72.9139ZM71.7178 41.0516C71.7059 41.0516 71.6999 41.0576 71.6999 41.0695V42.1987C71.6999 42.2106 71.7059 42.2165 71.7178 42.2165H72.3337C72.4884 42.2165 72.6134 42.163 72.7086 42.0558C72.8038 41.9487 72.8514 41.8089 72.8514 41.6363C72.8514 41.4607 72.8038 41.3194 72.7086 41.2123C72.6134 41.1052 72.4884 41.0516 72.3337 41.0516H71.7178ZM74.6248 43.9349C74.4433 43.9349 74.2826 43.8962 74.1427 43.8188C74.0059 43.7415 73.8987 43.6329 73.8214 43.493C73.747 43.3532 73.7098 43.191 73.7098 43.0065V40.8195C73.7098 40.7898 73.7247 40.7749 73.7544 40.7749H73.9821C74.0118 40.7749 74.0267 40.7898 74.0267 40.8195V43.0244C74.0267 43.2148 74.0817 43.368 74.1918 43.4841C74.3019 43.6001 74.4462 43.6582 74.6248 43.6582C74.8033 43.6582 74.9476 43.6001 75.0577 43.4841C75.1678 43.368 75.2229 43.2148 75.2229 43.0244V40.8195C75.2229 40.7898 75.2377 40.7749 75.2675 40.7749H75.4951C75.5249 40.7749 75.5397 40.7898 75.5397 40.8195V43.0065C75.5397 43.191 75.5011 43.3532 75.4237 43.493C75.3493 43.6329 75.2422 43.7415 75.1023 43.8188C74.9655 43.8962 74.8063 43.9349 74.6248 43.9349ZM76.2919 43.8992C76.2622 43.8992 76.2473 43.8843 76.2473 43.8545V40.8195C76.2473 40.7898 76.2622 40.7749 76.2919 40.7749H76.5195C76.5493 40.7749 76.5642 40.7898 76.5642 40.8195V43.8545C76.5642 43.8843 76.5493 43.8992 76.5195 43.8992H76.2919ZM78.9311 40.7749C78.9608 40.7749 78.9757 40.7898 78.9757 40.8195V41.007C78.9757 41.0367 78.9608 41.0516 78.9311 41.0516H78.2035C78.1916 41.0516 78.1857 41.0576 78.1857 41.0695V43.8545C78.1857 43.8843 78.1708 43.8992 78.1411 43.8992H77.9134C77.8837 43.8992 77.8688 43.8843 77.8688 43.8545V41.0695C77.8688 41.0576 77.8628 41.0516 77.8509 41.0516H77.1502C77.1205 41.0516 77.1056 41.0367 77.1056 41.007V40.8195C77.1056 40.7898 77.1205 40.7749 77.1502 40.7749H78.9311ZM81.2309 43.9349C80.9602 43.9349 80.7415 43.856 80.5748 43.6983C80.4112 43.5406 80.3294 43.3308 80.3294 43.069V41.6051C80.3294 41.3432 80.4112 41.1334 80.5748 40.9757C80.7415 40.818 80.9602 40.7392 81.2309 40.7392C81.4095 40.7392 81.5657 40.7749 81.6996 40.8463C81.8364 40.9177 81.9421 41.0174 82.0165 41.1453C82.0938 41.2733 82.1325 41.4206 82.1325 41.5872V41.7122C82.1325 41.7419 82.1176 41.7568 82.0879 41.7568H81.8603C81.8305 41.7568 81.8156 41.7419 81.8156 41.7122V41.5872C81.8156 41.4176 81.7621 41.2807 81.6549 41.1766C81.5478 41.0695 81.4065 41.0159 81.2309 41.0159C81.0554 41.0159 80.914 41.0695 80.8069 41.1766C80.6998 41.2807 80.6462 41.4206 80.6462 41.5961V43.0779C80.6462 43.2505 80.6998 43.3904 80.8069 43.4975C80.917 43.6046 81.0598 43.6582 81.2354 43.6582C81.4109 43.6582 81.5508 43.6076 81.6549 43.5064C81.7621 43.4052 81.8156 43.2684 81.8156 43.0958V42.6093C81.8156 42.5974 81.8097 42.5914 81.7978 42.5914H81.2756C81.2458 42.5914 81.2309 42.5766 81.2309 42.5468V42.3593C81.2309 42.3296 81.2458 42.3147 81.2756 42.3147H82.0879C82.1176 42.3147 82.1325 42.3296 82.1325 42.3593V43.0556C82.1325 43.3264 82.0507 43.5406 81.887 43.6983C81.7234 43.856 81.5047 43.9349 81.2309 43.9349ZM83.6733 43.9349C83.4918 43.9349 83.3312 43.8962 83.1913 43.8188C83.0544 43.7415 82.9473 43.6329 82.87 43.493C82.7956 43.3532 82.7584 43.191 82.7584 43.0065V40.8195C82.7584 40.7898 82.7733 40.7749 82.803 40.7749H83.0306C83.0604 40.7749 83.0753 40.7898 83.0753 40.8195V43.0244C83.0753 43.2148 83.1303 43.368 83.2404 43.4841C83.3505 43.6001 83.4948 43.6582 83.6733 43.6582C83.8519 43.6582 83.9962 43.6001 84.1063 43.4841C84.2164 43.368 84.2714 43.2148 84.2714 43.0244V40.8195C84.2714 40.7898 84.2863 40.7749 84.3161 40.7749H84.5437C84.5734 40.7749 84.5883 40.7898 84.5883 40.8195V43.0065C84.5883 43.191 84.5496 43.3532 84.4723 43.493C84.3979 43.6329 84.2908 43.7415 84.1509 43.8188C84.014 43.8962 83.8549 43.9349 83.6733 43.9349ZM86.9874 40.8061C87.0023 40.7853 87.0202 40.7749 87.041 40.7749H87.2731C87.3028 40.7749 87.3177 40.7898 87.3177 40.8195V43.8545C87.3177 43.8843 87.3028 43.8992 87.2731 43.8992H87.0455C87.0157 43.8992 87.0008 43.8843 87.0008 43.8545V41.4265C87.0008 41.4176 86.9978 41.4116 86.9919 41.4087C86.9859 41.4057 86.9815 41.4087 86.9785 41.4176L86.3849 42.4486C86.37 42.4694 86.3522 42.4799 86.3313 42.4799H86.2822C86.2614 42.4799 86.2436 42.4694 86.2287 42.4486L85.6306 41.4221C85.6276 41.4131 85.6232 41.4102 85.6172 41.4131C85.6113 41.4161 85.6083 41.4221 85.6083 41.431V43.8545C85.6083 43.8843 85.5934 43.8992 85.5636 43.8992H85.336C85.3063 43.8992 85.2914 43.8843 85.2914 43.8545V40.8195C85.2914 40.7898 85.3063 40.7749 85.336 40.7749H85.5681C85.5889 40.7749 85.6068 40.7853 85.6217 40.8061L86.2956 41.9532C86.2986 41.9562 86.3031 41.9576 86.309 41.9576C86.315 41.9576 86.3194 41.9562 86.3224 41.9532L86.9874 40.8061ZM64.1624 47.7566C64.1921 47.7566 64.207 47.7715 64.207 47.8012V47.9976C64.207 48.0273 64.1921 48.0422 64.1624 48.0422H63.9972C63.9853 48.0422 63.9794 48.0482 63.9794 48.0601V48.8545C63.9794 48.8843 63.9645 48.8992 63.9347 48.8992H63.7071C63.6773 48.8992 63.6625 48.8843 63.6625 48.8545V48.0601C63.6625 48.0482 63.6565 48.0422 63.6446 48.0422H62.4351C62.4053 48.0422 62.3904 48.0273 62.3904 47.9976V47.828C62.3904 47.8072 62.3934 47.7893 62.3994 47.7744L63.1938 45.8106C63.2028 45.7868 63.2191 45.7749 63.2429 45.7749H63.4884C63.5033 45.7749 63.5137 45.7808 63.5196 45.7927C63.5256 45.8017 63.5256 45.8136 63.5196 45.8284L62.7609 47.7343C62.7579 47.7402 62.7579 47.7462 62.7609 47.7521C62.7639 47.7551 62.7683 47.7566 62.7743 47.7566H63.6446C63.6565 47.7566 63.6625 47.7506 63.6625 47.7387V47.0335C63.6625 47.0038 63.6773 46.9889 63.7071 46.9889H63.9347C63.9645 46.9889 63.9794 47.0038 63.9794 47.0335V47.7387C63.9794 47.7506 63.9853 47.7566 63.9972 47.7566H64.1624ZM65.512 48.9438C65.2561 48.9438 65.0508 48.8664 64.8961 48.7117C64.7414 48.557 64.664 48.3502 64.664 48.0913V46.5827C64.664 46.3268 64.7414 46.1215 64.8961 45.9668C65.0508 45.8121 65.2561 45.7347 65.512 45.7347C65.7709 45.7347 65.9777 45.8121 66.1324 45.9668C66.2901 46.1215 66.369 46.3268 66.369 46.5827V48.0913C66.369 48.3502 66.2901 48.557 66.1324 48.7117C65.9777 48.8664 65.7709 48.9438 65.512 48.9438ZM65.512 48.6671C65.6757 48.6671 65.8066 48.6165 65.9048 48.5153C66.003 48.4142 66.0521 48.2803 66.0521 48.1136V46.5649C66.0521 46.3983 66.003 46.2644 65.9048 46.1632C65.8066 46.062 65.6757 46.0114 65.512 46.0114C65.3543 46.0114 65.2264 46.062 65.1282 46.1632C65.03 46.2644 64.9809 46.3983 64.9809 46.5649V48.1136C64.9809 48.2773 65.03 48.4112 65.1282 48.5153C65.2264 48.6165 65.3543 48.6671 65.512 48.6671ZM67.6451 47.0023C67.529 47.0023 67.4219 46.974 67.3237 46.9175C67.2285 46.8609 67.1526 46.7851 67.0961 46.6899C67.0395 46.5917 67.0113 46.4845 67.0113 46.3685C67.0113 46.2525 67.0395 46.1468 67.0961 46.0516C67.1526 45.9534 67.2285 45.8761 67.3237 45.8195C67.4219 45.763 67.529 45.7347 67.6451 45.7347C67.7581 45.7347 67.8623 45.763 67.9575 45.8195C68.0557 45.8761 68.133 45.9534 68.1896 46.0516C68.2461 46.1468 68.2744 46.2525 68.2744 46.3685C68.2744 46.4845 68.2461 46.5917 68.1896 46.6899C68.133 46.7851 68.0557 46.8609 67.9575 46.9175C67.8623 46.974 67.7581 47.0023 67.6451 47.0023ZM67.5424 48.8992C67.5275 48.8992 67.5156 48.8947 67.5067 48.8858C67.5007 48.8739 67.5022 48.8605 67.5112 48.8456L69.1715 45.8061C69.1804 45.7853 69.1983 45.7749 69.2251 45.7749H69.3679C69.3828 45.7749 69.3932 45.7808 69.3991 45.7927C69.4081 45.8017 69.4081 45.8136 69.3991 45.8284L67.7388 48.8679C67.7299 48.8888 67.712 48.8992 67.6852 48.8992H67.5424ZM67.6451 46.8059C67.7641 46.8059 67.8638 46.7642 67.9441 46.6809C68.0274 46.5946 68.0691 46.4905 68.0691 46.3685C68.0691 46.2465 68.0274 46.1438 67.9441 46.0605C67.8638 45.9742 67.7641 45.9311 67.6451 45.9311C67.526 45.9311 67.4249 45.9742 67.3416 46.0605C67.2582 46.1438 67.2166 46.2465 67.2166 46.3685C67.2166 46.4905 67.2582 46.5946 67.3416 46.6809C67.4249 46.7642 67.526 46.8059 67.6451 46.8059ZM69.2831 48.9393C69.167 48.9393 69.0599 48.9111 68.9617 48.8545C68.8665 48.798 68.7906 48.7206 68.7341 48.6224C68.6776 48.5243 68.6493 48.4171 68.6493 48.3011C68.6493 48.188 68.6776 48.0839 68.7341 47.9887C68.7906 47.8905 68.8665 47.8131 68.9617 47.7566C69.0599 47.7 69.167 47.6718 69.2831 47.6718C69.3961 47.6718 69.5003 47.7 69.5955 47.7566C69.6937 47.8131 69.7711 47.8905 69.8276 47.9887C69.8841 48.0839 69.9124 48.188 69.9124 48.3011C69.9124 48.4171 69.8841 48.5243 69.8276 48.6224C69.7711 48.7206 69.6937 48.798 69.5955 48.8545C69.5003 48.9111 69.3961 48.9393 69.2831 48.9393ZM69.2831 48.743C69.4021 48.743 69.5018 48.6998 69.5821 48.6135C69.6654 48.5272 69.7071 48.4231 69.7071 48.3011C69.7071 48.1791 69.6654 48.0764 69.5821 47.9931C69.5018 47.9098 69.4021 47.8682 69.2831 47.8682C69.1641 47.8682 69.0629 47.9098 68.9796 47.9931C68.8963 48.0764 68.8546 48.1791 68.8546 48.3011C68.8546 48.4261 68.8948 48.5317 68.9751 48.618C69.0584 48.7013 69.1611 48.743 69.2831 48.743Z" fill="#404040"/>
</svg>
