<svg width="84" height="56" viewBox="0 0 84 56" fill="none" xmlns="http://www.w3.org/2000/svg">
<path d="M31.7662 31.3461L31.7303 31.3428C31.5268 31.3213 31.3352 31.3067 31.3352 31.1501C31.3352 30.9574 31.6106 30.9213 31.7662 30.9213C31.9473 30.9226 32.1263 30.9599 32.293 31.0309L32.3169 31.0429L32.4247 30.79L32.4007 30.7813C32.2 30.6955 31.9843 30.6504 31.7662 30.6488C31.3352 30.6488 31.0479 30.8536 31.0479 31.1427C31.0479 31.516 31.419 31.5642 31.7183 31.5883H31.7423C32.0056 31.6124 32.1852 31.6474 32.1852 31.8171C32.1852 31.9496 32.0056 32.0339 31.7303 32.0339C31.5272 32.0359 31.3264 31.9905 31.1437 31.9014L31.1197 31.8913L31 32.1443L31.0239 32.1563C31.2427 32.2682 31.4849 32.326 31.7303 32.3249C32.1613 32.3249 32.4726 32.1202 32.4726 31.8191C32.4726 31.3975 32.0176 31.3493 31.7542 31.3252M34.4839 31.249C34.4839 31.3257 34.4536 31.3992 34.3997 31.4534C34.3458 31.5076 34.2727 31.5381 34.1965 31.5381H33.7536V30.9607H34.1965C34.2738 30.9638 34.3469 30.9969 34.4005 31.053C34.454 31.1091 34.4839 31.184 34.4839 31.2618M34.1965 30.6836H33.6338C33.5957 30.6836 33.5592 30.6989 33.5323 30.726C33.5053 30.7531 33.4902 30.7898 33.4902 30.8282V32.3096H33.7655V31.8399H34.2085C34.2834 31.8415 34.3579 31.828 34.4275 31.8003C34.4972 31.7726 34.5606 31.7311 34.6141 31.6784C34.6677 31.6257 34.7102 31.5627 34.7392 31.4933C34.7682 31.4238 34.7832 31.3492 34.7832 31.2738C34.7832 31.1205 34.7226 30.9734 34.6148 30.865C34.5071 30.7566 34.3609 30.6957 34.2085 30.6957M35.6451 30.8282V32.1651C35.6451 32.2034 35.6603 32.2402 35.6872 32.2673C35.7142 32.2944 35.7507 32.3096 35.7888 32.3096H36.8902V32.0326H35.9205V31.6351H36.8304V31.3581H35.9205V30.9607H36.8902V30.6836H35.7888C35.7507 30.6836 35.7142 30.6989 35.6872 30.726C35.6603 30.7531 35.6451 30.7898 35.6451 30.8282ZM38.9973 31.8279C38.948 31.8998 38.8817 31.9583 38.8044 31.9983C38.7271 32.0382 38.6412 32.0583 38.5543 32.0567C38.4072 32.0535 38.2671 31.9925 38.1642 31.8867C38.0612 31.7809 38.0036 31.6387 38.0036 31.4906C38.0036 31.3437 38.0617 31.2028 38.1649 31.0988C38.2682 30.9949 38.4083 30.9366 38.5543 30.9366C38.635 30.937 38.7145 30.9556 38.787 30.991C38.8595 31.0265 38.9232 31.0778 38.9734 31.1413L38.9853 31.1534L39.1889 30.9727L39.1769 30.9561C39.0666 30.8288 38.9204 30.7384 38.7577 30.6969C38.5951 30.6553 38.4237 30.6645 38.2664 30.7234C38.1091 30.7822 37.9733 30.8879 37.8772 31.0263C37.7811 31.1647 37.7291 31.3292 37.7283 31.4981C37.7283 31.7196 37.8149 31.9323 37.9695 32.09C38.1241 32.2478 38.3342 32.338 38.5543 32.3412C38.6849 32.3441 38.8143 32.315 38.9311 32.2562C39.048 32.1974 39.1488 32.1108 39.2248 32.0039L39.2367 31.9866L39.0213 31.818L38.9973 31.8279ZM39.967 30.9607H40.5178V32.3096H40.7931V30.9607H41.3438V30.6836H39.967V30.9607ZM43.2713 31.2377C43.2714 31.2719 43.2645 31.3058 43.2511 31.3373C43.2377 31.3688 43.2181 31.3973 43.1935 31.4209C43.1689 31.4446 43.1397 31.463 43.1078 31.4749C43.0759 31.4869 43.0419 31.4922 43.0079 31.4906H42.4931V30.9607H43.0079C43.0436 30.9606 43.0788 30.9679 43.1116 30.9819C43.1443 30.996 43.1739 31.0166 43.1985 31.0425C43.2232 31.0684 43.2423 31.099 43.2548 31.1326C43.2673 31.1661 43.2729 31.2019 43.2713 31.2377ZM43.5467 31.2377C43.5483 31.1655 43.5355 31.0937 43.5092 31.0266C43.4828 30.9594 43.4434 30.8982 43.3932 30.8466C43.343 30.795 43.2831 30.754 43.2169 30.726C43.1507 30.698 43.0797 30.6836 43.0079 30.6836H42.3734C42.3353 30.6836 42.2988 30.6989 42.2718 30.726C42.2449 30.7531 42.2298 30.7898 42.2298 30.8282V32.3096H42.5051V31.7556H42.8762L43.2593 32.3096H43.5826L43.1755 31.7315C43.282 31.7004 43.3756 31.6355 43.4425 31.5465C43.5094 31.4575 43.5459 31.3492 43.5467 31.2377ZM45.6657 31.6111C45.6657 31.7261 45.6203 31.8363 45.5395 31.9177C45.4587 31.999 45.349 32.0447 45.2347 32.0447C45.1204 32.0447 45.0108 31.999 44.93 31.9177C44.8491 31.8363 44.8037 31.7261 44.8037 31.6111V30.6836H44.5284V31.6111C44.5284 31.7995 44.6028 31.9803 44.7353 32.1135C44.8677 32.2468 45.0474 32.3217 45.2347 32.3217C45.4221 32.3217 45.6017 32.2468 45.7342 32.1135C45.8667 31.9803 45.9411 31.7995 45.9411 31.6111V30.6836H45.6657V31.6111ZM48.3834 30.6596C48.3615 30.6604 48.3401 30.6662 48.3208 30.6767C48.3015 30.6871 48.2848 30.7019 48.272 30.7198L47.7333 31.4906L47.1945 30.7198C47.1807 30.7042 47.1637 30.6919 47.1447 30.6836C47.1257 30.6752 47.1051 30.6712 47.0844 30.6716C47.0463 30.6716 47.0098 30.6868 46.9828 30.7139C46.9559 30.741 46.9407 30.7778 46.9407 30.8161V32.3096H47.2161V31.1895L47.7309 31.9363L48.2457 31.1895V32.2976H48.521V30.8041C48.521 30.7658 48.5059 30.729 48.479 30.7019C48.452 30.6748 48.4155 30.6596 48.3774 30.6596M35.262 33.7068H35.6332V34.574H35.8247V33.7068H36.1959V33.5261H35.262V33.7068ZM37.4529 34.044C37.4529 34.143 37.4138 34.238 37.3442 34.308C37.2746 34.3781 37.1802 34.4174 37.0818 34.4174C36.9834 34.4174 36.889 34.3781 36.8194 34.308C36.7498 34.238 36.7107 34.143 36.7107 34.044C36.7091 33.9976 36.7168 33.9513 36.7332 33.9078C36.7496 33.8644 36.7745 33.8247 36.8064 33.7911C36.8781 33.7197 36.9749 33.6797 37.0758 33.6797C37.1767 33.6797 37.2734 33.7197 37.3452 33.7911C37.3779 33.8243 37.4037 33.8638 37.421 33.9073C37.4382 33.9507 37.4467 33.9972 37.4457 34.044H37.4529ZM37.0818 33.502C37.009 33.4988 36.9364 33.5104 36.8683 33.5362C36.8001 33.5619 36.7379 33.6013 36.6853 33.652C36.6327 33.7027 36.5908 33.7635 36.5623 33.8309C36.5337 33.8983 36.519 33.9708 36.5191 34.044C36.5143 34.1569 36.5432 34.2686 36.6021 34.3648C36.6609 34.461 36.747 34.5373 36.8493 34.5839C36.9516 34.6304 37.0655 34.6451 37.1761 34.6261C37.2868 34.607 37.3893 34.5551 37.4704 34.477C37.5515 34.3989 37.6075 34.2981 37.6313 34.1877C37.655 34.0773 37.6453 33.9623 37.6035 33.8574C37.5617 33.7526 37.4897 33.6627 37.3967 33.5994C37.3038 33.536 37.1941 33.5021 37.0818 33.502ZM38.6022 34.3933H38.2191V34.1404H38.6022C38.6352 34.1402 38.667 34.1525 38.6914 34.1748C38.7157 34.1971 38.7309 34.2278 38.7339 34.2608C38.7339 34.296 38.72 34.3297 38.6954 34.3545C38.6707 34.3793 38.6372 34.3933 38.6022 34.3933ZM38.2191 33.7068H38.5663C38.586 33.7006 38.6069 33.6991 38.6273 33.7026C38.6477 33.706 38.6669 33.7142 38.6836 33.7265C38.7002 33.7388 38.7138 33.7549 38.7231 33.7734C38.7324 33.792 38.7373 33.8125 38.7373 33.8332C38.7373 33.854 38.7324 33.8745 38.7231 33.893C38.7138 33.9116 38.7002 33.9277 38.6836 33.94C38.6669 33.9523 38.6477 33.9605 38.6273 33.9639C38.6069 33.9673 38.586 33.9659 38.5663 33.9597H38.2191V33.7068ZM38.7938 34.032C38.8241 34.0075 38.8483 33.9762 38.8646 33.9407C38.8808 33.9052 38.8887 33.8663 38.8875 33.8272C38.8844 33.7445 38.8489 33.6664 38.7887 33.61C38.7285 33.5536 38.6485 33.5234 38.5663 33.5261H38.1353C38.1225 33.5256 38.1096 33.5278 38.0976 33.5324C38.0856 33.537 38.0746 33.5441 38.0653 33.5531C38.0561 33.5621 38.0487 33.5728 38.0437 33.5848C38.0387 33.5967 38.0361 33.6095 38.0361 33.6225V34.4776C38.0361 34.4906 38.0387 34.5034 38.0437 34.5153C38.0487 34.5272 38.0561 34.538 38.0653 34.547C38.0746 34.556 38.0856 34.563 38.0976 34.5677C38.1096 34.5723 38.1225 34.5744 38.1353 34.574H38.6022C38.6441 34.5756 38.6859 34.5687 38.725 34.5537C38.7642 34.5387 38.7999 34.5159 38.8301 34.4866C38.8603 34.4574 38.8843 34.4223 38.9007 34.3835C38.9171 34.3447 38.9255 34.303 38.9255 34.2608C38.9266 34.2142 38.915 34.1681 38.8917 34.1277C38.8685 34.0873 38.8346 34.0542 38.7938 34.032ZM39.6558 34.1524L39.7994 33.8393L39.9311 34.1524H39.6558ZM39.7994 33.5141C39.7812 33.515 39.7636 33.5212 39.7488 33.5319C39.734 33.5425 39.7224 33.5573 39.7156 33.5743L39.2727 34.586H39.4762L39.5839 34.3331H40.003L40.1107 34.574V34.586H40.3142L39.8713 33.5743C39.8644 33.5573 39.8529 33.5425 39.8381 33.5319C39.8232 33.5212 39.8057 33.515 39.7875 33.5141M41.4635 34.2608C41.4143 34.3177 41.3496 34.3588 41.2774 34.3791C41.2052 34.3993 41.1287 34.3978 41.0573 34.3748C40.9859 34.3517 40.9228 34.308 40.8759 34.2493C40.8289 34.1905 40.8001 34.1191 40.7931 34.044C40.7931 33.9955 40.8028 33.9475 40.8215 33.9029C40.8403 33.8583 40.8679 33.8179 40.9025 33.7842C40.9371 33.7504 40.9782 33.7241 41.0231 33.7067C41.0681 33.6892 41.1161 33.6811 41.1642 33.6827C41.2189 33.6821 41.273 33.6937 41.3226 33.7166C41.3723 33.7395 41.4163 33.7732 41.4516 33.8152L41.4635 33.8272L41.6072 33.7068L41.5952 33.6947C41.5429 33.6347 41.4784 33.5865 41.4062 33.5533C41.334 33.52 41.2556 33.5026 41.1762 33.502C41.1035 33.4988 41.0308 33.5104 40.9627 33.5362C40.8945 33.5619 40.8323 33.6013 40.7797 33.652C40.7271 33.7027 40.6853 33.7635 40.6567 33.8309C40.6281 33.8983 40.6135 33.9708 40.6135 34.044C40.6183 34.1598 40.6582 34.2713 40.7279 34.3635C40.7977 34.4558 40.8939 34.5242 41.0036 34.5597C41.1132 34.5951 41.231 34.5959 41.3411 34.5618C41.4512 34.5278 41.5483 34.4605 41.6192 34.3692L41.6311 34.3572L41.4875 34.2367L41.4635 34.2608ZM42.7565 34.2608C42.7073 34.3177 42.6426 34.3588 42.5704 34.3791C42.4982 34.3993 42.4216 34.3978 42.3503 34.3748C42.2789 34.3517 42.2158 34.308 42.1689 34.2493C42.1219 34.1905 42.0931 34.1191 42.0861 34.044C42.0861 33.9955 42.0957 33.9475 42.1145 33.9029C42.1333 33.8583 42.1608 33.8179 42.1955 33.7842C42.2301 33.7504 42.2711 33.7241 42.3161 33.7067C42.3611 33.6892 42.4091 33.6811 42.4572 33.6827C42.5119 33.6821 42.5659 33.6937 42.6156 33.7166C42.6653 33.7395 42.7093 33.7732 42.7445 33.8152L42.7565 33.8272L42.9002 33.7068L42.8882 33.6947C42.8358 33.6347 42.7714 33.5865 42.6992 33.5533C42.627 33.52 42.5486 33.5026 42.4692 33.502C42.3965 33.4988 42.3238 33.5104 42.2557 33.5362C42.1875 33.5619 42.1253 33.6013 42.0727 33.652C42.0201 33.7027 41.9782 33.7635 41.9497 33.8309C41.9211 33.8983 41.9064 33.9708 41.9065 34.044C41.9112 34.1598 41.9512 34.2713 42.0209 34.3635C42.0907 34.4558 42.1869 34.5242 42.2965 34.5597C42.4062 34.5951 42.524 34.5959 42.6341 34.5618C42.7442 34.5278 42.8413 34.4605 42.9122 34.3692L42.9241 34.3572L42.7685 34.2488L42.7565 34.2608ZM44.0974 34.044C44.0974 34.143 44.0583 34.238 43.9887 34.308C43.9191 34.3781 43.8247 34.4174 43.7263 34.4174C43.6278 34.4174 43.5334 34.3781 43.4638 34.308C43.3942 34.238 43.3551 34.143 43.3551 34.044C43.3536 33.9976 43.3612 33.9513 43.3777 33.9078C43.3941 33.8644 43.419 33.8247 43.4509 33.7911C43.5226 33.7197 43.6194 33.6797 43.7203 33.6797C43.8211 33.6797 43.9179 33.7197 43.9896 33.7911C44.0224 33.8243 44.0482 33.8638 44.0654 33.9073C44.0827 33.9507 44.0911 33.9972 44.0902 34.044H44.0974ZM43.7263 33.502C43.6535 33.4988 43.5809 33.5104 43.5127 33.5362C43.4446 33.5619 43.3823 33.6013 43.3297 33.652C43.2771 33.7027 43.2353 33.7635 43.2067 33.8309C43.1782 33.8983 43.1635 33.9708 43.1636 34.044C43.1588 34.1569 43.1877 34.2686 43.2465 34.3648C43.3054 34.461 43.3915 34.5373 43.4938 34.5839C43.5961 34.6304 43.7099 34.6451 43.8206 34.6261C43.9313 34.607 44.0338 34.5551 44.1149 34.477C44.196 34.3989 44.252 34.2981 44.2757 34.1877C44.2994 34.0773 44.2898 33.9623 44.248 33.8574C44.2062 33.7526 44.1342 33.6627 44.0412 33.5994C43.9482 33.536 43.8385 33.5021 43.7263 33.502Z" fill="black"/>
<path d="M37.1541 28.6484L40.0633 28.1425L38.052 26.649L37.1541 28.6484Z" fill="#0065A7"/>
<path d="M38.0639 26.6009L40.0632 28.0583L41.4639 26.7695L38.0639 26.6009Z" fill="#0678AC"/>
<path d="M41.5239 26.6252L42.4218 24.2404L39.2253 24.8908L41.5239 26.6252Z" fill="#2EB56A"/>
<path d="M39.3808 24.7944L42.5774 24.1681L40.3146 23.6502L39.3808 24.7944Z" fill="#A5CE40"/>
<path d="M40.2907 23.5654L42.5654 24.1074L42.7569 21L40.2907 23.5654Z" fill="#F5E431"/>
<path d="M36.5674 26.1193L37.1181 28.6004L38.004 26.589L36.5674 26.1193Z" fill="#9072B3"/>
<path d="M39.0932 24.9745L36.627 26.0706L37.9798 26.5282L39.0932 24.9745Z" fill="#9360A8"/>
<path d="M37.3692 23.8907L36.627 25.9623L39.2009 24.8543L37.3692 23.8907Z" fill="#DF599C"/>
<path d="M37.4652 23.8304L39.2011 23.7099L40.2187 23.5895L39.4884 22.3248L37.4652 23.8304Z" fill="#F89A29"/>
<path d="M39.5004 22.2044L40.2427 23.4932L42.697 21L39.5004 22.2044Z" fill="#FCBC1B"/>
<path d="M37.4652 23.879L39.2969 24.7944L40.2427 23.6502L37.4652 23.879Z" fill="#F16165"/>
<path d="M39.1653 24.9745L38.0639 26.5523L41.4639 26.733L39.1653 24.9745Z" fill="#1DA6BA"/>
<path d="M59.4331 20.819C60.5996 23.97 60.991 27.3477 60.5754 30.6759C60.1597 34.0042 58.9489 37.1884 57.0418 39.9684C55.1347 42.7483 52.5855 45.045 49.6026 46.6707C46.6197 48.2963 43.2879 49.2048 39.8795 49.3218L39.6155 41.8894C41.831 41.8134 43.9967 41.2229 45.9355 40.1662C47.8744 39.1095 49.5314 37.6166 50.771 35.8097C52.0106 34.0027 52.7977 31.9329 53.0679 29.7696C53.338 27.6063 53.0836 25.4108 52.3254 23.3626L59.4331 20.819Z" fill="#FF004D"/>
<path d="M18.3513 22.2296C19.6093 17.9162 22.2238 14.1051 25.8202 11.3424C29.4165 8.57984 33.8101 7.00756 38.3711 6.85096C42.9321 6.69436 47.4265 7.96148 51.2101 10.4707C54.9937 12.9799 57.8722 16.6024 59.4332 20.819L52.3254 23.3626C51.3108 20.6218 49.4398 18.2672 46.9804 16.6362C44.5211 15.0052 41.5998 14.1816 38.6351 14.2834C35.6704 14.3852 32.8146 15.4071 30.477 17.2028C28.1393 18.9985 26.4399 21.4757 25.6222 24.2795L18.3513 22.2296Z" fill="#238401"/>
<path d="M39.8795 49.3218C36.4711 49.4389 33.083 48.7611 29.992 47.344C26.9011 45.9269 24.1952 43.8106 22.0955 41.1682C19.9958 38.5258 18.562 35.4324 17.9112 32.1408C17.2605 28.8492 17.4113 25.4529 18.3513 22.2296L25.6222 24.2795C25.0112 26.3746 24.9132 28.5822 25.3362 30.7218C25.7591 32.8613 26.6911 34.872 28.0559 36.5896C29.4207 38.3071 31.1796 39.6827 33.1887 40.6038C35.1978 41.525 37.4001 41.9655 39.6156 41.8894L39.8795 49.3218Z" fill="#FF0000"/>
<path d="M23.8687 41.355L21.3236 44.5723H10.7797" stroke="black" stroke-width="0.145684"/>
<path d="M3.81209 43.1505C3.78828 43.1505 3.77192 43.1385 3.76299 43.1147L3.20955 41.7356C3.20657 41.7267 3.20062 41.7222 3.19169 41.7222H2.61593C2.60403 41.7222 2.59808 41.7282 2.59808 41.7401V43.1058C2.59808 43.1356 2.5832 43.1505 2.55345 43.1505H2.32582C2.29606 43.1505 2.28119 43.1356 2.28119 43.1058V40.0708C2.28119 40.041 2.29606 40.0262 2.32582 40.0262H3.27203C3.42676 40.0262 3.56363 40.0619 3.68265 40.1333C3.80465 40.2047 3.89838 40.3059 3.96384 40.4368C4.03228 40.5677 4.06649 40.718 4.06649 40.8876C4.06649 41.0899 4.0174 41.2625 3.91921 41.4053C3.82101 41.5481 3.68712 41.6434 3.51751 41.691C3.50561 41.6969 3.50263 41.7044 3.50859 41.7133L4.08435 43.0969L4.08881 43.1147C4.08881 43.1385 4.07542 43.1505 4.04864 43.1505H3.81209ZM2.61593 40.3029C2.60403 40.3029 2.59808 40.3088 2.59808 40.3207V41.4499C2.59808 41.4618 2.60403 41.4678 2.61593 41.4678H3.23186C3.38659 41.4678 3.51156 41.4142 3.60678 41.3071C3.70199 41.2 3.7496 41.0602 3.7496 40.8876C3.7496 40.712 3.70199 40.5707 3.60678 40.4636C3.51156 40.3564 3.38659 40.3029 3.23186 40.3029H2.61593ZM6.35758 40.2583C6.35758 40.288 6.3427 40.3029 6.31295 40.3029H4.97397C4.96206 40.3029 4.95611 40.3088 4.95611 40.3207V41.4276C4.95611 41.4395 4.96206 41.4455 4.97397 41.4455H5.87555C5.9053 41.4455 5.92018 41.4604 5.92018 41.4901V41.6776C5.92018 41.7073 5.9053 41.7222 5.87555 41.7222H4.97397C4.96206 41.7222 4.95611 41.7282 4.95611 41.7401V42.8559C4.95611 42.8678 4.96206 42.8737 4.97397 42.8737H6.31295C6.3427 42.8737 6.35758 42.8886 6.35758 42.9184V43.1058C6.35758 43.1356 6.3427 43.1505 6.31295 43.1505H4.68385C4.6541 43.1505 4.63922 43.1356 4.63922 43.1058V40.0708C4.63922 40.041 4.6541 40.0262 4.68385 40.0262H6.31295C6.3427 40.0262 6.35758 40.041 6.35758 40.0708V40.2583ZM6.98958 43.1505C6.95983 43.1505 6.94495 43.1356 6.94495 43.1058V40.0708C6.94495 40.041 6.95983 40.0262 6.98958 40.0262H7.85992C8.12474 40.0262 8.33303 40.102 8.48478 40.2538C8.63951 40.4055 8.71687 40.6123 8.71687 40.8742V42.3024C8.71687 42.5643 8.63951 42.7711 8.48478 42.9228C8.33303 43.0746 8.12474 43.1505 7.85992 43.1505H6.98958ZM7.26184 42.8559C7.26184 42.8678 7.2678 42.8737 7.2797 42.8737H7.86439C8.02804 42.8708 8.15747 42.8172 8.25269 42.7131C8.34791 42.6059 8.397 42.4601 8.39998 42.2757V40.901C8.39998 40.7165 8.35237 40.5707 8.25715 40.4636C8.16194 40.3564 8.03101 40.3029 7.86439 40.3029H7.2797C7.2678 40.3029 7.26184 40.3088 7.26184 40.3207V42.8559ZM10.6989 41.5214C10.6841 41.5273 10.6841 41.5347 10.6989 41.5437C10.8388 41.6121 10.9459 41.7103 11.0203 41.8383C11.0977 41.9662 11.1378 42.1209 11.1408 42.3024C11.1408 42.5702 11.0605 42.7785 10.8998 42.9273C10.7421 43.0761 10.5323 43.1505 10.2705 43.1505H9.39121C9.36145 43.1505 9.34657 43.1356 9.34657 43.1058V40.0708C9.34657 40.041 9.36145 40.0262 9.39121 40.0262H10.2348C10.5085 40.0262 10.7227 40.0976 10.8775 40.2404C11.0322 40.3803 11.1096 40.5811 11.1096 40.8429C11.1096 41.0096 11.0739 41.1494 11.0024 41.2625C10.934 41.3756 10.8328 41.4618 10.6989 41.5214ZM9.68132 40.3029C9.66942 40.3029 9.66346 40.3088 9.66346 40.3207V41.3964C9.66346 41.4083 9.66942 41.4142 9.68132 41.4142H10.2392C10.4118 41.4142 10.5472 41.3651 10.6454 41.267C10.7466 41.1688 10.7971 41.0364 10.7971 40.8697C10.7971 40.6942 10.7466 40.5558 10.6454 40.4546C10.5472 40.3535 10.4118 40.3029 10.2392 40.3029H9.68132ZM10.2615 42.8693C10.4341 42.8693 10.571 42.8157 10.6722 42.7086C10.7733 42.6015 10.8239 42.4557 10.8239 42.2712C10.8239 42.0837 10.7718 41.9364 10.6677 41.8293C10.5665 41.7222 10.4282 41.6686 10.2526 41.6686H9.68132C9.66942 41.6686 9.66346 41.6746 9.66346 41.6865V42.8514C9.66346 42.8633 9.66942 42.8693 9.68132 42.8693H10.2615ZM13.4491 40.2583C13.4491 40.288 13.4342 40.3029 13.4045 40.3029H12.0655C12.0536 40.3029 12.0477 40.3088 12.0477 40.3207V41.4276C12.0477 41.4395 12.0536 41.4455 12.0655 41.4455H12.9671C12.9968 41.4455 13.0117 41.4604 13.0117 41.4901V41.6776C13.0117 41.7073 12.9968 41.7222 12.9671 41.7222H12.0655C12.0536 41.7222 12.0477 41.7282 12.0477 41.7401V42.8559C12.0477 42.8678 12.0536 42.8737 12.0655 42.8737H13.4045C13.4342 42.8737 13.4491 42.8886 13.4491 42.9184V43.1058C13.4491 43.1356 13.4342 43.1505 13.4045 43.1505H11.7754C11.7456 43.1505 11.7308 43.1356 11.7308 43.1058V40.0708C11.7308 40.041 11.7456 40.0262 11.7754 40.0262H13.4045C13.4342 40.0262 13.4491 40.041 13.4491 40.0708V40.2583ZM15.5674 43.1505C15.5436 43.1505 15.5272 43.1385 15.5183 43.1147L14.9648 41.7356C14.9619 41.7267 14.9559 41.7222 14.947 41.7222H14.3712C14.3593 41.7222 14.3534 41.7282 14.3534 41.7401V43.1058C14.3534 43.1356 14.3385 43.1505 14.3087 43.1505H14.0811C14.0514 43.1505 14.0365 43.1356 14.0365 43.1058V40.0708C14.0365 40.041 14.0514 40.0262 14.0811 40.0262H15.0273C15.1821 40.0262 15.3189 40.0619 15.438 40.1333C15.56 40.2047 15.6537 40.3059 15.7191 40.4368C15.7876 40.5677 15.8218 40.718 15.8218 40.8876C15.8218 41.0899 15.7727 41.2625 15.6745 41.4053C15.5763 41.5481 15.4424 41.6434 15.2728 41.691C15.2609 41.6969 15.2579 41.7044 15.2639 41.7133L15.8396 43.0969L15.8441 43.1147C15.8441 43.1385 15.8307 43.1505 15.8039 43.1505H15.5674ZM14.3712 40.3029C14.3593 40.3029 14.3534 40.3088 14.3534 40.3207V41.4499C14.3534 41.4618 14.3593 41.4678 14.3712 41.4678H14.9872C15.1419 41.4678 15.2669 41.4142 15.3621 41.3071C15.4573 41.2 15.5049 41.0602 15.5049 40.8876C15.5049 40.712 15.4573 40.5707 15.3621 40.4636C15.2669 40.3564 15.1419 40.3029 14.9872 40.3029H14.3712ZM17.9254 43.1505C17.9016 43.1505 17.8853 43.1385 17.8763 43.1147L17.3229 41.7356C17.3199 41.7267 17.314 41.7222 17.305 41.7222H16.7293C16.7174 41.7222 16.7114 41.7282 16.7114 41.7401V43.1058C16.7114 43.1356 16.6965 43.1505 16.6668 43.1505H16.4392C16.4094 43.1505 16.3945 43.1356 16.3945 43.1058V40.0708C16.3945 40.041 16.4094 40.0262 16.4392 40.0262H17.3854C17.5401 40.0262 17.677 40.0619 17.796 40.1333C17.918 40.2047 18.0117 40.3059 18.0772 40.4368C18.1456 40.5677 18.1798 40.718 18.1798 40.8876C18.1798 41.0899 18.1307 41.2625 18.0325 41.4053C17.9344 41.5481 17.8005 41.6434 17.6308 41.691C17.6189 41.6969 17.616 41.7044 17.6219 41.7133L18.1977 43.0969L18.2021 43.1147C18.2021 43.1385 18.1888 43.1505 18.162 43.1505H17.9254ZM16.7293 40.3029C16.7174 40.3029 16.7114 40.3088 16.7114 40.3207V41.4499C16.7114 41.4618 16.7174 41.4678 16.7293 41.4678H17.3452C17.4999 41.4678 17.6249 41.4142 17.7201 41.3071C17.8153 41.2 17.8629 41.0602 17.8629 40.8876C17.8629 40.712 17.8153 40.5707 17.7201 40.4636C17.6249 40.3564 17.4999 40.3029 17.3452 40.3029H16.7293ZM19.3206 43.146C19.2909 43.146 19.276 43.1311 19.276 43.1014V41.7713C19.276 41.7594 19.2745 41.752 19.2716 41.749L18.4994 40.0797L18.4949 40.0619C18.4949 40.0381 18.5083 40.0262 18.5351 40.0262H18.7761C18.7999 40.0262 18.8163 40.0381 18.8252 40.0619L19.4233 41.3964C19.4263 41.4023 19.4307 41.4053 19.4367 41.4053C19.4426 41.4053 19.4471 41.4023 19.4501 41.3964L20.0482 40.0619C20.0571 40.0381 20.0735 40.0262 20.0973 40.0262H20.3383C20.3532 40.0262 20.3636 40.0321 20.3695 40.044C20.3784 40.0529 20.3799 40.0648 20.374 40.0797L19.5974 41.749C19.5944 41.752 19.5929 41.7594 19.5929 41.7713V43.1014C19.5929 43.1311 19.578 43.146 19.5483 43.146H19.3206ZM3.62463 46.6686C3.68117 46.8234 3.70943 47.0004 3.70943 47.1998C3.70943 47.3783 3.68712 47.533 3.64248 47.664C3.53239 48.0121 3.2884 48.1862 2.91051 48.1862C2.70817 48.1862 2.53857 48.1326 2.4017 48.0255C2.26482 47.9154 2.17704 47.7651 2.13836 47.5747C2.11753 47.4795 2.10712 47.3709 2.10712 47.2489C2.10712 47.2191 2.122 47.2042 2.15175 47.2042H2.37938C2.40913 47.2042 2.42401 47.2191 2.42401 47.2489C2.42996 47.3768 2.4374 47.4631 2.44633 47.5077C2.47311 47.6327 2.52667 47.7309 2.60701 47.8023C2.68734 47.8737 2.78851 47.9094 2.91051 47.9094C3.13962 47.9094 3.2884 47.7934 3.35683 47.5613C3.38361 47.4542 3.397 47.3262 3.397 47.1775C3.397 46.9989 3.37766 46.8516 3.33898 46.7356C3.26162 46.5273 3.11879 46.4232 2.91051 46.4232C2.8629 46.4232 2.82124 46.4321 2.78554 46.4499C2.76768 46.4559 2.75727 46.4589 2.75429 46.4589C2.74239 46.4589 2.73198 46.4529 2.72305 46.441L2.60701 46.3205C2.59213 46.2997 2.59064 46.2789 2.60254 46.258L3.29881 45.3252C3.30476 45.3193 3.30625 45.3148 3.30328 45.3118C3.3003 45.3059 3.29584 45.3029 3.28989 45.3029H2.17407C2.14431 45.3029 2.12944 45.288 2.12944 45.2583V45.0708C2.12944 45.041 2.14431 45.0262 2.17407 45.0262H3.65141C3.68117 45.0262 3.69604 45.041 3.69604 45.0708V45.2716C3.69604 45.2954 3.69009 45.3148 3.67819 45.3297L3.03102 46.2134C3.02804 46.2164 3.02804 46.2208 3.03102 46.2268C3.03399 46.2327 3.03845 46.2357 3.04441 46.2357C3.18425 46.2417 3.30328 46.2818 3.40147 46.3562C3.49966 46.4306 3.57405 46.5347 3.62463 46.6686ZM5.09266 48.1951C4.83677 48.1951 4.63146 48.1177 4.47673 47.963C4.322 47.8083 4.24464 47.6015 4.24464 47.3426V45.834C4.24464 45.5781 4.322 45.3728 4.47673 45.2181C4.63146 45.0634 4.83677 44.986 5.09266 44.986C5.35153 44.986 5.55833 45.0634 5.71306 45.2181C5.87076 45.3728 5.94961 45.5781 5.94961 45.834V47.3426C5.94961 47.6015 5.87076 47.8083 5.71306 47.963C5.55833 48.1177 5.35153 48.1951 5.09266 48.1951ZM5.09266 47.9184C5.25631 47.9184 5.38724 47.8678 5.48543 47.7666C5.58362 47.6654 5.63272 47.5315 5.63272 47.3649V45.8162C5.63272 45.6495 5.58362 45.5156 5.48543 45.4145C5.38724 45.3133 5.25631 45.2627 5.09266 45.2627C4.93496 45.2627 4.80701 45.3133 4.70882 45.4145C4.61063 45.5156 4.56153 45.6495 4.56153 45.8162V47.3649C4.56153 47.5286 4.61063 47.6625 4.70882 47.7666C4.80701 47.8678 4.93496 47.9184 5.09266 47.9184ZM7.22568 46.2536C7.10964 46.2536 7.00252 46.2253 6.90433 46.1688C6.80911 46.1122 6.73324 46.0364 6.6767 45.9411C6.62017 45.8429 6.5919 45.7358 6.5919 45.6198C6.5919 45.5037 6.62017 45.3981 6.6767 45.3029C6.73324 45.2047 6.80911 45.1273 6.90433 45.0708C7.00252 45.0143 7.10964 44.986 7.22568 44.986C7.33875 44.986 7.4429 45.0143 7.53811 45.0708C7.6363 45.1273 7.71367 45.2047 7.7702 45.3029C7.82674 45.3981 7.855 45.5037 7.855 45.6198C7.855 45.7358 7.82674 45.8429 7.7702 45.9411C7.71367 46.0364 7.6363 46.1122 7.53811 46.1688C7.4429 46.2253 7.33875 46.2536 7.22568 46.2536ZM7.12303 48.1505C7.10815 48.1505 7.09625 48.146 7.08732 48.1371C7.08137 48.1252 7.08286 48.1118 7.09179 48.0969L8.75212 45.0574C8.76105 45.0366 8.7789 45.0262 8.80568 45.0262H8.94851C8.96338 45.0262 8.9738 45.0321 8.97975 45.044C8.98867 45.0529 8.98867 45.0648 8.97975 45.0797L7.31941 48.1192C7.31049 48.14 7.29263 48.1505 7.26585 48.1505H7.12303ZM7.22568 46.0572C7.3447 46.0572 7.44438 46.0155 7.52472 45.9322C7.60804 45.8459 7.64969 45.7418 7.64969 45.6198C7.64969 45.4978 7.60804 45.3951 7.52472 45.3118C7.44438 45.2255 7.3447 45.1824 7.22568 45.1824C7.10666 45.1824 7.0055 45.2255 6.92218 45.3118C6.83887 45.3951 6.79721 45.4978 6.79721 45.6198C6.79721 45.7418 6.83887 45.8459 6.92218 45.9322C7.0055 46.0155 7.10666 46.0572 7.22568 46.0572ZM8.8637 48.1906C8.74766 48.1906 8.64054 48.1624 8.54235 48.1058C8.44713 48.0493 8.37126 47.9719 8.31472 47.8737C8.25819 47.7755 8.22992 47.6684 8.22992 47.5524C8.22992 47.4393 8.25819 47.3352 8.31472 47.2399C8.37126 47.1418 8.44713 47.0644 8.54235 47.0079C8.64054 46.9513 8.74766 46.9231 8.8637 46.9231C8.97677 46.9231 9.08092 46.9513 9.17613 47.0079C9.27432 47.0644 9.35169 47.1418 9.40822 47.2399C9.46476 47.3352 9.49302 47.4393 9.49302 47.5524C9.49302 47.6684 9.46476 47.7755 9.40822 47.8737C9.35169 47.9719 9.27432 48.0493 9.17613 48.1058C9.08092 48.1624 8.97677 48.1906 8.8637 48.1906ZM8.8637 47.9942C8.98272 47.9942 9.0824 47.9511 9.16274 47.8648C9.24606 47.7785 9.28771 47.6744 9.28771 47.5524C9.28771 47.4304 9.24606 47.3277 9.16274 47.2444C9.0824 47.1611 8.98272 47.1194 8.8637 47.1194C8.74468 47.1194 8.64352 47.1611 8.5602 47.2444C8.47689 47.3277 8.43523 47.4304 8.43523 47.5524C8.43523 47.6773 8.4754 47.783 8.55574 47.8693C8.63905 47.9526 8.74171 47.9942 8.8637 47.9942Z" fill="#404040"/>
<path d="M26.4556 13.0789L23.9136 9.81561H13.3824" stroke="black" stroke-width="0.145684"/>
<path d="M48.5394 46.0682L51.0814 49.3315H61.6125" stroke="black" stroke-width="0.145684"/>
<path d="M2.41479 5.48521C2.41479 5.51497 2.39991 5.52985 2.37016 5.52985H1.03564C1.02374 5.52985 1.01779 5.5358 1.01779 5.5477V6.65459C1.01779 6.66649 1.02374 6.67244 1.03564 6.67244H1.93276C1.96251 6.67244 1.97739 6.68732 1.97739 6.71708V6.90453C1.97739 6.93429 1.96251 6.94917 1.93276 6.94917H1.03564C1.02374 6.94917 1.01779 6.95512 1.01779 6.96702V8.33278C1.01779 8.36253 1.00291 8.37741 0.973155 8.37741H0.745528C0.715773 8.37741 0.700895 8.36253 0.700895 8.33278V5.29776C0.700895 5.268 0.715773 5.25312 0.745528 5.25312H2.37016C2.39991 5.25312 2.41479 5.268 2.41479 5.29776V5.48521ZM3.69296 8.41312C3.51145 8.41312 3.35077 8.37592 3.21092 8.30154C3.07405 8.22417 2.96693 8.11705 2.88957 7.98018C2.81518 7.84331 2.77799 7.6856 2.77799 7.50707V6.12792C2.77799 5.94939 2.81518 5.79169 2.88957 5.65482C2.96693 5.51497 3.07405 5.40785 3.21092 5.33346C3.35077 5.2561 3.51145 5.21742 3.69296 5.21742C3.87446 5.21742 4.03365 5.2561 4.17053 5.33346C4.31038 5.40785 4.41898 5.51497 4.49635 5.65482C4.57371 5.79169 4.61239 5.94939 4.61239 6.12792V7.50707C4.61239 7.6856 4.57371 7.84331 4.49635 7.98018C4.41898 8.11705 4.31038 8.22417 4.17053 8.30154C4.03365 8.37592 3.87446 8.41312 3.69296 8.41312ZM3.69296 8.13639C3.87446 8.13639 4.02026 8.07986 4.13036 7.96679C4.24045 7.85372 4.2955 7.70495 4.2955 7.52046V6.119C4.2955 5.93154 4.24045 5.78128 4.13036 5.66821C4.02026 5.55216 3.87446 5.49414 3.69296 5.49414C3.51443 5.49414 3.37011 5.55216 3.26002 5.66821C3.14993 5.78128 3.09488 5.93154 3.09488 6.119V7.52046C3.09488 7.70495 3.14993 7.85372 3.26002 7.96679C3.37011 8.07986 3.51443 8.13639 3.69296 8.13639ZM6.79967 8.37741C6.77587 8.37741 6.7595 8.36551 6.75057 8.3417L6.19713 6.96256C6.19415 6.95363 6.1882 6.94917 6.17928 6.94917H5.60351C5.59161 6.94917 5.58566 6.95512 5.58566 6.96702V8.33278C5.58566 8.36253 5.57078 8.37741 5.54103 8.37741H5.3134C5.28365 8.37741 5.26877 8.36253 5.26877 8.33278V5.29776C5.26877 5.268 5.28365 5.25312 5.3134 5.25312H6.25961C6.41434 5.25312 6.55121 5.28883 6.67024 5.36024C6.79223 5.43165 6.88596 5.53282 6.95142 5.66374C7.01986 5.79467 7.05408 5.94493 7.05408 6.11453C7.05408 6.31687 7.00498 6.48945 6.90679 6.63227C6.8086 6.7751 6.6747 6.87031 6.50509 6.91792C6.49319 6.92387 6.49022 6.93131 6.49617 6.94024L7.07193 8.32385L7.07639 8.3417C7.07639 8.36551 7.063 8.37741 7.03622 8.37741H6.79967ZM5.60351 5.52985C5.59161 5.52985 5.58566 5.5358 5.58566 5.5477V6.67691C5.58566 6.68881 5.59161 6.69476 5.60351 6.69476H6.21945C6.37417 6.69476 6.49914 6.6412 6.59436 6.53408C6.68958 6.42696 6.73718 6.28711 6.73718 6.11453C6.73718 5.93898 6.68958 5.79764 6.59436 5.69052C6.49914 5.58341 6.37417 5.52985 6.21945 5.52985H5.60351ZM9.34516 5.48521C9.34516 5.51497 9.33028 5.52985 9.30053 5.52985H7.96155C7.94965 5.52985 7.9437 5.5358 7.9437 5.5477V6.65459C7.9437 6.66649 7.94965 6.67244 7.96155 6.67244H8.86313C8.89288 6.67244 8.90776 6.68732 8.90776 6.71708V6.90453C8.90776 6.93429 8.89288 6.94917 8.86313 6.94917H7.96155C7.94965 6.94917 7.9437 6.95512 7.9437 6.96702V8.08284C7.9437 8.09474 7.94965 8.10069 7.96155 8.10069H9.30053C9.33028 8.10069 9.34516 8.11557 9.34516 8.14532V8.33278C9.34516 8.36253 9.33028 8.37741 9.30053 8.37741H7.67144C7.64168 8.37741 7.6268 8.36253 7.6268 8.33278V5.29776C7.6268 5.268 7.64168 5.25312 7.67144 5.25312H9.30053C9.33028 5.25312 9.34516 5.268 9.34516 5.29776V5.48521ZM10.6868 8.41312C10.4071 8.41312 10.184 8.34022 10.0173 8.19442C9.85368 8.04564 9.77186 7.84777 9.77186 7.6008V7.48029C9.77186 7.45054 9.78673 7.43566 9.81649 7.43566H10.0352C10.0649 7.43566 10.0798 7.45054 10.0798 7.48029V7.58295C10.0798 7.74958 10.1364 7.88348 10.2494 7.98464C10.3625 8.08581 10.5128 8.13639 10.7002 8.13639C10.8758 8.13639 11.0141 8.08879 11.1153 7.99357C11.2165 7.89835 11.2671 7.77338 11.2671 7.61866C11.2671 7.51749 11.2432 7.42971 11.1956 7.35532C11.148 7.28094 11.0781 7.2125 10.9859 7.15001C10.8936 7.08753 10.7612 7.00868 10.5886 6.91346C10.4042 6.81527 10.2584 6.72898 10.1512 6.65459C10.0471 6.5802 9.96229 6.48945 9.89683 6.38233C9.83137 6.27521 9.79864 6.14429 9.79864 5.98956C9.79864 5.74855 9.876 5.5596 10.0307 5.42273C10.1855 5.28585 10.3923 5.21742 10.6511 5.21742C10.9278 5.21742 11.148 5.29329 11.3117 5.44504C11.4753 5.5968 11.5572 5.79764 11.5572 6.04759V6.15024C11.5572 6.18 11.5423 6.19487 11.5125 6.19487H11.2894C11.2596 6.19487 11.2447 6.18 11.2447 6.15024V6.05205C11.2447 5.88542 11.1912 5.75152 11.0841 5.65036C10.9769 5.54621 10.8297 5.49414 10.6422 5.49414C10.4756 5.49414 10.3446 5.53729 10.2494 5.62358C10.1572 5.70987 10.1111 5.83186 10.1111 5.98956C10.1111 6.09073 10.1334 6.17553 10.178 6.24397C10.2226 6.31241 10.2866 6.37489 10.3699 6.43143C10.4562 6.48796 10.5871 6.56384 10.7627 6.65905C10.965 6.77212 11.1198 6.86883 11.2269 6.94917C11.337 7.02653 11.4233 7.11728 11.4858 7.22142C11.5512 7.32259 11.5839 7.44756 11.5839 7.59634C11.5839 7.84628 11.5036 8.04564 11.3429 8.19442C11.1822 8.34022 10.9635 8.41312 10.6868 8.41312ZM13.7103 5.25312C13.7401 5.25312 13.755 5.268 13.755 5.29776V5.48521C13.755 5.51497 13.7401 5.52985 13.7103 5.52985H12.9828C12.9709 5.52985 12.965 5.5358 12.965 5.5477V8.33278C12.965 8.36253 12.9501 8.37741 12.9203 8.37741H12.6927C12.663 8.37741 12.6481 8.36253 12.6481 8.33278V5.5477C12.6481 5.5358 12.6421 5.52985 12.6302 5.52985H11.9295C11.8997 5.52985 11.8849 5.51497 11.8849 5.48521V5.29776C11.8849 5.268 11.8997 5.25312 11.9295 5.25312H13.7103ZM15.9915 5.28437C16.0064 5.26354 16.0242 5.25312 16.045 5.25312H16.2771C16.3069 5.25312 16.3218 5.268 16.3218 5.29776V8.33278C16.3218 8.36253 16.3069 8.37741 16.2771 8.37741H16.0495C16.0198 8.37741 16.0049 8.36253 16.0049 8.33278V5.90476C16.0049 5.89583 16.0019 5.88988 15.996 5.88691C15.99 5.88393 15.9855 5.88691 15.9826 5.89583L15.3889 6.92685C15.3741 6.94768 15.3562 6.95809 15.3354 6.95809H15.2863C15.2655 6.95809 15.2476 6.94768 15.2327 6.92685L14.6347 5.9003C14.6317 5.89137 14.6272 5.8884 14.6213 5.89137C14.6153 5.89435 14.6123 5.9003 14.6123 5.90922V8.33278C14.6123 8.36253 14.5975 8.37741 14.5677 8.37741H14.3401C14.3103 8.37741 14.2954 8.36253 14.2954 8.33278V5.29776C14.2954 5.268 14.3103 5.25312 14.3401 5.25312H14.5722C14.593 5.25312 14.6109 5.26354 14.6257 5.28437L15.2997 6.43143C15.3027 6.4344 15.3071 6.43589 15.3131 6.43589C15.319 6.43589 15.3235 6.4344 15.3265 6.43143L15.9915 5.28437ZM17.1036 8.37741C17.0738 8.37741 17.0589 8.36253 17.0589 8.33278V5.29776C17.0589 5.268 17.0738 5.25312 17.1036 5.25312H17.3312C17.361 5.25312 17.3758 5.268 17.3758 5.29776V8.33278C17.3758 8.36253 17.361 8.37741 17.3312 8.37741H17.1036ZM17.953 8.37741C17.9381 8.37741 17.9277 8.37295 17.9217 8.36402C17.9158 8.35212 17.9158 8.33873 17.9217 8.32385L18.7072 6.82866C18.7132 6.81973 18.7132 6.8108 18.7072 6.80188L17.9217 5.30668C17.9187 5.30073 17.9172 5.29329 17.9172 5.28437C17.9172 5.26354 17.9292 5.25312 17.953 5.25312H18.1984C18.2252 5.25312 18.2431 5.26354 18.252 5.28437L18.8769 6.52069C18.8798 6.52664 18.8843 6.52962 18.8902 6.52962C18.8962 6.52962 18.9007 6.52664 18.9036 6.52069L19.5285 5.28437C19.5374 5.26354 19.5553 5.25312 19.582 5.25312H19.8275C19.8424 5.25312 19.8528 5.25908 19.8588 5.27098C19.8647 5.2799 19.8647 5.29181 19.8588 5.30668L19.0688 6.80634C19.0658 6.81527 19.0658 6.82419 19.0688 6.83312L19.8588 8.32385C19.8617 8.3298 19.8632 8.33724 19.8632 8.34617C19.8632 8.367 19.8513 8.37741 19.8275 8.37741H19.582C19.5553 8.37741 19.5374 8.367 19.5285 8.34617L18.9036 7.11431C18.9007 7.10836 18.8962 7.10538 18.8902 7.10538C18.8843 7.10538 18.8798 7.10836 18.8769 7.11431L18.252 8.34617C18.2431 8.367 18.2252 8.37741 18.1984 8.37741H17.953ZM2.25858 12.2348C2.28833 12.2348 2.30321 12.2497 2.30321 12.2794V12.4758C2.30321 12.5056 2.28833 12.5205 2.25858 12.5205H2.09343C2.08153 12.5205 2.07558 12.5264 2.07558 12.5383V13.3328C2.07558 13.3625 2.0607 13.3774 2.03095 13.3774H1.80332C1.77357 13.3774 1.75869 13.3625 1.75869 13.3328V12.5383C1.75869 12.5264 1.75274 12.5205 1.74084 12.5205H0.531291C0.501536 12.5205 0.486659 12.5056 0.486659 12.4758V12.3062C0.486659 12.2854 0.489634 12.2675 0.495585 12.2527L1.29005 10.2888C1.29897 10.265 1.31534 10.2531 1.33914 10.2531H1.58462C1.5995 10.2531 1.60991 10.2591 1.61587 10.271C1.62182 10.2799 1.62182 10.2918 1.61587 10.3067L0.85711 12.2125C0.854134 12.2184 0.854134 12.2244 0.85711 12.2304C0.860085 12.2333 0.864549 12.2348 0.8705 12.2348H1.74084C1.75274 12.2348 1.75869 12.2289 1.75869 12.217V11.5118C1.75869 11.482 1.77357 11.4671 1.80332 11.4671H2.03095C2.0607 11.4671 2.07558 11.482 2.07558 11.5118V12.217C2.07558 12.2289 2.08153 12.2348 2.09343 12.2348H2.25858ZM3.60826 13.422C3.35237 13.422 3.14706 13.3447 2.99233 13.19C2.8376 13.0352 2.76024 12.8284 2.76024 12.5696V11.061C2.76024 10.8051 2.8376 10.5998 2.99233 10.445C3.14706 10.2903 3.35237 10.213 3.60826 10.213C3.86713 10.213 4.07393 10.2903 4.22865 10.445C4.38636 10.5998 4.46521 10.8051 4.46521 11.061V12.5696C4.46521 12.8284 4.38636 13.0352 4.22865 13.19C4.07393 13.3447 3.86713 13.422 3.60826 13.422ZM3.60826 13.1453C3.77191 13.1453 3.90284 13.0947 4.00103 12.9936C4.09922 12.8924 4.14832 12.7585 4.14832 12.5919V11.0431C4.14832 10.8765 4.09922 10.7426 4.00103 10.6414C3.90284 10.5403 3.77191 10.4897 3.60826 10.4897C3.45056 10.4897 3.32261 10.5403 3.22442 10.6414C3.12623 10.7426 3.07713 10.8765 3.07713 11.0431V12.5919C3.07713 12.7555 3.12623 12.8894 3.22442 12.9936C3.32261 13.0947 3.45056 13.1453 3.60826 13.1453ZM5.74128 11.4805C5.62524 11.4805 5.51812 11.4523 5.41993 11.3957C5.32471 11.3392 5.24884 11.2633 5.1923 11.1681C5.13577 11.0699 5.1075 10.9628 5.1075 10.8467C5.1075 10.7307 5.13577 10.6251 5.1923 10.5298C5.24884 10.4317 5.32471 10.3543 5.41993 10.2978C5.51812 10.2412 5.62524 10.213 5.74128 10.213C5.85435 10.213 5.9585 10.2412 6.05371 10.2978C6.1519 10.3543 6.22927 10.4317 6.2858 10.5298C6.34234 10.6251 6.3706 10.7307 6.3706 10.8467C6.3706 10.9628 6.34234 11.0699 6.2858 11.1681C6.22927 11.2633 6.1519 11.3392 6.05371 11.3957C5.9585 11.4523 5.85435 11.4805 5.74128 11.4805ZM5.63863 13.3774C5.62375 13.3774 5.61185 13.3729 5.60292 13.364C5.59697 13.3521 5.59846 13.3387 5.60739 13.3239L7.26772 10.2844C7.27665 10.2635 7.2945 10.2531 7.32128 10.2531H7.4641C7.47898 10.2531 7.4894 10.2591 7.49535 10.271C7.50427 10.2799 7.50427 10.2918 7.49535 10.3067L5.83501 13.3462C5.82609 13.367 5.80823 13.3774 5.78145 13.3774H5.63863ZM5.74128 11.2841C5.8603 11.2841 5.95998 11.2425 6.04032 11.1592C6.12364 11.0729 6.16529 10.9687 6.16529 10.8467C6.16529 10.7247 6.12364 10.6221 6.04032 10.5388C5.95998 10.4525 5.8603 10.4093 5.74128 10.4093C5.62226 10.4093 5.5211 10.4525 5.43778 10.5388C5.35447 10.6221 5.31281 10.7247 5.31281 10.8467C5.31281 10.9687 5.35447 11.0729 5.43778 11.1592C5.5211 11.2425 5.62226 11.2841 5.74128 11.2841ZM7.3793 13.4176C7.26326 13.4176 7.15614 13.3893 7.05795 13.3328C6.96273 13.2762 6.88685 13.1989 6.83032 13.1007C6.77379 13.0025 6.74552 12.8954 6.74552 12.7793C6.74552 12.6663 6.77379 12.5621 6.83032 12.4669C6.88685 12.3687 6.96273 12.2913 7.05795 12.2348C7.15614 12.1783 7.26326 12.15 7.3793 12.15C7.49237 12.15 7.59651 12.1783 7.69173 12.2348C7.78992 12.2913 7.86729 12.3687 7.92382 12.4669C7.98036 12.5621 8.00862 12.6663 8.00862 12.7793C8.00862 12.8954 7.98036 13.0025 7.92382 13.1007C7.86729 13.1989 7.78992 13.2762 7.69173 13.3328C7.59651 13.3893 7.49237 13.4176 7.3793 13.4176ZM7.3793 13.2212C7.49832 13.2212 7.598 13.1781 7.67834 13.0918C7.76166 13.0055 7.80331 12.9013 7.80331 12.7793C7.80331 12.6573 7.76166 12.5547 7.67834 12.4714C7.598 12.3881 7.49832 12.3464 7.3793 12.3464C7.26028 12.3464 7.15911 12.3881 7.0758 12.4714C6.99249 12.5547 6.95083 12.6573 6.95083 12.7793C6.95083 12.9043 6.991 13.0099 7.07134 13.0962C7.15465 13.1795 7.25731 13.2212 7.3793 13.2212Z" fill="#404040"/>
<path d="M52.6852 47.7088C52.6554 47.7088 52.6405 47.6939 52.6405 47.6642V44.6291C52.6405 44.5994 52.6554 44.5845 52.6852 44.5845H53.5555C53.8203 44.5845 54.0286 44.6604 54.1804 44.8121C54.3351 44.9639 54.4124 45.1707 54.4124 45.4325V46.8608C54.4124 47.1226 54.3351 47.3294 54.1804 47.4812C54.0286 47.6329 53.8203 47.7088 53.5555 47.7088H52.6852ZM52.9574 47.4142C52.9574 47.4261 52.9634 47.4321 52.9753 47.4321H53.56C53.7236 47.4291 53.8531 47.3755 53.9483 47.2714C54.0435 47.1643 54.0926 47.0185 54.0956 46.834V45.4593C54.0956 45.2748 54.0479 45.129 53.9527 45.0219C53.8575 44.9148 53.7266 44.8612 53.56 44.8612H52.9753C52.9634 44.8612 52.9574 44.8672 52.9574 44.8791V47.4142ZM56.7605 44.8166C56.7605 44.8464 56.7456 44.8612 56.7159 44.8612H55.3769C55.365 44.8612 55.359 44.8672 55.359 44.8791V45.986C55.359 45.9979 55.365 46.0038 55.3769 46.0038H56.2785C56.3082 46.0038 56.3231 46.0187 56.3231 46.0485V46.2359C56.3231 46.2657 56.3082 46.2806 56.2785 46.2806H55.3769C55.365 46.2806 55.359 46.2865 55.359 46.2984V47.4142C55.359 47.4261 55.365 47.4321 55.3769 47.4321H56.7159C56.7456 47.4321 56.7605 47.447 56.7605 47.4767V47.6642C56.7605 47.6939 56.7456 47.7088 56.7159 47.7088H55.0868C55.057 47.7088 55.0422 47.6939 55.0422 47.6642V44.6291C55.0422 44.5994 55.057 44.5845 55.0868 44.5845H56.7159C56.7456 44.5845 56.7605 44.5994 56.7605 44.6291V44.8166ZM57.1961 47.7088C57.1664 47.7088 57.1515 47.6939 57.1515 47.6642V47.4544C57.1515 47.4365 57.156 47.4172 57.1649 47.3964L58.5217 44.8836C58.5277 44.8687 58.5247 44.8612 58.5128 44.8612H57.1961C57.1664 44.8612 57.1515 44.8464 57.1515 44.8166V44.6291C57.1515 44.5994 57.1664 44.5845 57.1961 44.5845H58.8342C58.8639 44.5845 58.8788 44.5994 58.8788 44.6291V44.8389C58.8788 44.8538 58.8743 44.8731 58.8654 44.8969L57.5086 47.4098C57.5026 47.4246 57.5056 47.4321 57.5175 47.4321H58.8342C58.8639 47.4321 58.8788 47.447 58.8788 47.4767V47.6642C58.8788 47.6939 58.8639 47.7088 58.8342 47.7088H57.1961ZM59.3014 47.7088C59.2716 47.7088 59.2567 47.6939 59.2567 47.6642V47.4544C59.2567 47.4365 59.2612 47.4172 59.2701 47.3964L60.627 44.8836C60.6329 44.8687 60.6299 44.8612 60.618 44.8612H59.3014C59.2716 44.8612 59.2567 44.8464 59.2567 44.8166V44.6291C59.2567 44.5994 59.2716 44.5845 59.3014 44.5845H60.9394C60.9691 44.5845 60.984 44.5994 60.984 44.6291V44.8389C60.984 44.8538 60.9796 44.8731 60.9706 44.8969L59.6138 47.4098C59.6078 47.4246 59.6108 47.4321 59.6227 47.4321H60.9394C60.9691 47.4321 60.984 47.447 60.984 47.4767V47.6642C60.984 47.6939 60.9691 47.7088 60.9394 47.7088H59.3014ZM63.2767 44.8166C63.2767 44.8464 63.2618 44.8612 63.2321 44.8612H61.8931C61.8812 44.8612 61.8752 44.8672 61.8752 44.8791V45.986C61.8752 45.9979 61.8812 46.0038 61.8931 46.0038H62.7947C62.8244 46.0038 62.8393 46.0187 62.8393 46.0485V46.2359C62.8393 46.2657 62.8244 46.2806 62.7947 46.2806H61.8931C61.8812 46.2806 61.8752 46.2865 61.8752 46.2984V47.4142C61.8752 47.4261 61.8812 47.4321 61.8931 47.4321H63.2321C63.2618 47.4321 63.2767 47.447 63.2767 47.4767V47.6642C63.2767 47.6939 63.2618 47.7088 63.2321 47.7088H61.603C61.5732 47.7088 61.5583 47.6939 61.5583 47.6642V44.6291C61.5583 44.5994 61.5732 44.5845 61.603 44.5845H63.2321C63.2618 44.5845 63.2767 44.5994 63.2767 44.6291V44.8166ZM65.395 47.7088C65.3712 47.7088 65.3548 47.6969 65.3459 47.6731L64.7924 46.2939C64.7895 46.285 64.7835 46.2806 64.7746 46.2806H64.1988C64.1869 46.2806 64.181 46.2865 64.181 46.2984V47.6642C64.181 47.6939 64.1661 47.7088 64.1363 47.7088H63.9087C63.879 47.7088 63.8641 47.6939 63.8641 47.6642V44.6291C63.8641 44.5994 63.879 44.5845 63.9087 44.5845H64.8549C65.0096 44.5845 65.1465 44.6202 65.2655 44.6916C65.3875 44.763 65.4813 44.8642 65.5467 44.9951C65.6152 45.1261 65.6494 45.2763 65.6494 45.4459C65.6494 45.6483 65.6003 45.8208 65.5021 45.9637C65.4039 46.1065 65.27 46.2017 65.1004 46.2493C65.0885 46.2553 65.0855 46.2627 65.0915 46.2716L65.6672 47.6552L65.6717 47.6731C65.6717 47.6969 65.6583 47.7088 65.6315 47.7088H65.395ZM64.1988 44.8612C64.1869 44.8612 64.181 44.8672 64.181 44.8791V46.0083C64.181 46.0202 64.1869 46.0261 64.1988 46.0261H64.8148C64.9695 46.0261 65.0945 45.9726 65.1897 45.8655C65.2849 45.7584 65.3325 45.6185 65.3325 45.4459C65.3325 45.2704 65.2849 45.129 65.1897 45.0219C65.0945 44.9148 64.9695 44.8612 64.8148 44.8612H64.1988ZM67.8467 44.5845C67.8765 44.5845 67.8914 44.5994 67.8914 44.6291V44.8166C67.8914 44.8464 67.8765 44.8612 67.8467 44.8612H67.1192C67.1073 44.8612 67.1014 44.8672 67.1014 44.8791V47.6642C67.1014 47.6939 67.0865 47.7088 67.0567 47.7088H66.8291C66.7994 47.7088 66.7845 47.6939 66.7845 47.6642V44.8791C66.7845 44.8672 66.7785 44.8612 66.7666 44.8612H66.0659C66.0361 44.8612 66.0213 44.8464 66.0213 44.8166V44.6291C66.0213 44.5994 66.0361 44.5845 66.0659 44.5845H67.8467ZM69.0744 47.7445C68.8036 47.7445 68.5849 47.6642 68.4183 47.5035C68.2546 47.3428 68.1728 47.1301 68.1728 46.8652V45.4236C68.1728 45.1588 68.2546 44.9475 68.4183 44.7898C68.5849 44.6291 68.8036 44.5488 69.0744 44.5488C69.3481 44.5488 69.5668 44.6277 69.7305 44.7854C69.8971 44.9431 69.9804 45.1528 69.9804 45.4147V45.4549C69.9804 45.4846 69.9655 45.4995 69.9358 45.4995L69.7082 45.5084C69.6784 45.5084 69.6635 45.495 69.6635 45.4682V45.4058C69.6635 45.2332 69.6085 45.0933 69.4984 44.9862C69.3913 44.8791 69.2499 44.8255 69.0744 44.8255C68.8988 44.8255 68.7575 44.8791 68.6504 44.9862C68.5433 45.0904 68.4897 45.2302 68.4897 45.4058V46.8876C68.4897 47.0631 68.5433 47.2045 68.6504 47.3116C68.7575 47.4157 68.8988 47.4678 69.0744 47.4678C69.2499 47.4678 69.3913 47.4142 69.4984 47.3071C69.6085 47.2 69.6635 47.0601 69.6635 46.8876V46.8251C69.6635 46.7983 69.6784 46.7849 69.7082 46.7849L69.9358 46.7983C69.9655 46.7983 69.9804 46.8132 69.9804 46.8429V46.8742C69.9804 47.136 69.8971 47.3473 69.7305 47.508C69.5668 47.6657 69.3481 47.7445 69.0744 47.7445ZM72.0664 44.6291C72.0664 44.5994 72.0813 44.5845 72.111 44.5845H72.3387C72.3684 44.5845 72.3833 44.5994 72.3833 44.6291V47.6642C72.3833 47.6939 72.3684 47.7088 72.3387 47.7088H72.111C72.0813 47.7088 72.0664 47.6939 72.0664 47.6642V46.2984C72.0664 46.2865 72.0605 46.2806 72.0486 46.2806H70.9417C70.9298 46.2806 70.9238 46.2865 70.9238 46.2984V47.6642C70.9238 47.6939 70.9089 47.7088 70.8792 47.7088H70.6516C70.6218 47.7088 70.6069 47.6939 70.6069 47.6642V44.6291C70.6069 44.5994 70.6218 44.5845 70.6516 44.5845H70.8792C70.9089 44.5845 70.9238 44.5994 70.9238 44.6291V45.986C70.9238 45.9979 70.9298 46.0038 70.9417 46.0038H72.0486C72.0605 46.0038 72.0664 45.9979 72.0664 45.986V44.6291ZM74.8228 44.8166C74.8228 44.8464 74.8079 44.8612 74.7782 44.8612H73.4392C73.4273 44.8612 73.4213 44.8672 73.4213 44.8791V45.986C73.4213 45.9979 73.4273 46.0038 73.4392 46.0038H74.3408C74.3705 46.0038 74.3854 46.0187 74.3854 46.0485V46.2359C74.3854 46.2657 74.3705 46.2806 74.3408 46.2806H73.4392C73.4273 46.2806 73.4213 46.2865 73.4213 46.2984V47.4142C73.4213 47.4261 73.4273 47.4321 73.4392 47.4321H74.7782C74.8079 47.4321 74.8228 47.447 74.8228 47.4767V47.6642C74.8228 47.6939 74.8079 47.7088 74.7782 47.7088H73.1491C73.1193 47.7088 73.1044 47.6939 73.1044 47.6642V44.6291C73.1044 44.5994 73.1193 44.5845 73.1491 44.5845H74.7782C74.8079 44.5845 74.8228 44.5994 74.8228 44.6291V44.8166ZM76.9411 47.7088C76.9173 47.7088 76.9009 47.6969 76.892 47.6731L76.3385 46.2939C76.3355 46.285 76.3296 46.2806 76.3207 46.2806H75.7449C75.733 46.2806 75.7271 46.2865 75.7271 46.2984V47.6642C75.7271 47.6939 75.7122 47.7088 75.6824 47.7088H75.4548C75.425 47.7088 75.4102 47.6939 75.4102 47.6642V44.6291C75.4102 44.5994 75.425 44.5845 75.4548 44.5845H76.401C76.5557 44.5845 76.6926 44.6202 76.8116 44.6916C76.9336 44.763 77.0274 44.8642 77.0928 44.9951C77.1613 45.1261 77.1955 45.2763 77.1955 45.4459C77.1955 45.6483 77.1464 45.8208 77.0482 45.9637C76.95 46.1065 76.8161 46.2017 76.6465 46.2493C76.6346 46.2553 76.6316 46.2627 76.6376 46.2716L77.2133 47.6552L77.2178 47.6731C77.2178 47.6969 77.2044 47.7088 77.1776 47.7088H76.9411ZM75.7449 44.8612C75.733 44.8612 75.7271 44.8672 75.7271 44.8791V46.0083C75.7271 46.0202 75.733 46.0261 75.7449 46.0261H76.3608C76.5156 46.0261 76.6405 45.9726 76.7358 45.8655C76.831 45.7584 76.8786 45.6185 76.8786 45.4459C76.8786 45.2704 76.831 45.129 76.7358 45.0219C76.6405 44.9148 76.5156 44.8612 76.3608 44.8612H75.7449ZM79.2991 47.7088C79.2753 47.7088 79.2589 47.6969 79.25 47.6731L78.6966 46.2939C78.6936 46.285 78.6876 46.2806 78.6787 46.2806H78.1029C78.091 46.2806 78.0851 46.2865 78.0851 46.2984V47.6642C78.0851 47.6939 78.0702 47.7088 78.0405 47.7088H77.8128C77.7831 47.7088 77.7682 47.6939 77.7682 47.6642V44.6291C77.7682 44.5994 77.7831 44.5845 77.8128 44.5845H78.759C78.9138 44.5845 79.0506 44.6202 79.1697 44.6916C79.2917 44.763 79.3854 44.8642 79.4508 44.9951C79.5193 45.1261 79.5535 45.2763 79.5535 45.4459C79.5535 45.6483 79.5044 45.8208 79.4062 45.9637C79.308 46.1065 79.1741 46.2017 79.0045 46.2493C78.9926 46.2553 78.9896 46.2627 78.9956 46.2716L79.5714 47.6552L79.5758 47.6731C79.5758 47.6969 79.5624 47.7088 79.5357 47.7088H79.2991ZM78.1029 44.8612C78.091 44.8612 78.0851 44.8672 78.0851 44.8791V46.0083C78.0851 46.0202 78.091 46.0261 78.1029 46.0261H78.7189C78.8736 46.0261 78.9986 45.9726 79.0938 45.8655C79.189 45.7584 79.2366 45.6185 79.2366 45.4459C79.2366 45.2704 79.189 45.129 79.0938 45.0219C78.9986 44.9148 78.8736 44.8612 78.7189 44.8612H78.1029ZM80.6943 47.7043C80.6646 47.7043 80.6497 47.6895 80.6497 47.6597V46.3297C80.6497 46.3177 80.6482 46.3103 80.6452 46.3073L79.8731 44.6381L79.8686 44.6202C79.8686 44.5964 79.882 44.5845 79.9088 44.5845H80.1498C80.1736 44.5845 80.19 44.5964 80.1989 44.6202L80.797 45.9547C80.8 45.9607 80.8044 45.9637 80.8104 45.9637C80.8163 45.9637 80.8208 45.9607 80.8238 45.9547L81.4218 44.6202C81.4308 44.5964 81.4471 44.5845 81.4709 44.5845H81.7119C81.7268 44.5845 81.7372 44.5905 81.7432 44.6024C81.7521 44.6113 81.7536 44.6232 81.7477 44.6381L80.971 46.3073C80.9681 46.3103 80.9666 46.3177 80.9666 46.3297V47.6597C80.9666 47.6895 80.9517 47.7043 80.9219 47.7043H80.6943ZM53.984 51.227C54.0405 51.3817 54.0688 51.5588 54.0688 51.7581C54.0688 51.9367 54.0465 52.0914 54.0018 52.2223C53.8917 52.5704 53.6477 52.7445 53.2699 52.7445C53.0675 52.7445 52.8979 52.6909 52.761 52.5838C52.6242 52.4737 52.5364 52.3235 52.4977 52.133C52.4769 52.0378 52.4665 51.9292 52.4665 51.8072C52.4665 51.7775 52.4813 51.7626 52.5111 51.7626H52.7387C52.7685 51.7626 52.7834 51.7775 52.7834 51.8072C52.7893 51.9352 52.7967 52.0215 52.8057 52.0661C52.8325 52.1911 52.886 52.2893 52.9664 52.3607C53.0467 52.4321 53.1479 52.4678 53.2699 52.4678C53.499 52.4678 53.6477 52.3517 53.7162 52.1197C53.743 52.0125 53.7563 51.8846 53.7563 51.7358C53.7563 51.5573 53.737 51.41 53.6983 51.2939C53.621 51.0857 53.4781 50.9815 53.2699 50.9815C53.2222 50.9815 53.1806 50.9904 53.1449 51.0083C53.127 51.0142 53.1166 51.0172 53.1136 51.0172C53.1017 51.0172 53.0913 51.0113 53.0824 50.9994L52.9664 50.8789C52.9515 50.858 52.95 50.8372 52.9619 50.8164L53.6582 49.8836C53.6641 49.8776 53.6656 49.8731 53.6626 49.8702C53.6596 49.8642 53.6552 49.8612 53.6492 49.8612H52.5334C52.5037 49.8612 52.4888 49.8464 52.4888 49.8166V49.6291C52.4888 49.5994 52.5037 49.5845 52.5334 49.5845H54.0108C54.0405 49.5845 54.0554 49.5994 54.0554 49.6291V49.83C54.0554 49.8538 54.0494 49.8731 54.0375 49.888L53.3904 50.7717C53.3874 50.7747 53.3874 50.7792 53.3904 50.7851C53.3933 50.7911 53.3978 50.7941 53.4038 50.7941C53.5436 50.8 53.6626 50.8402 53.7608 50.9146C53.859 50.989 53.9334 51.0931 53.984 51.227ZM55.452 52.7534C55.1961 52.7534 54.9908 52.6761 54.8361 52.5213C54.6813 52.3666 54.604 52.1598 54.604 51.901V50.3924C54.604 50.1365 54.6813 49.9312 54.8361 49.7764C54.9908 49.6217 55.1961 49.5443 55.452 49.5443C55.7109 49.5443 55.9177 49.6217 56.0724 49.7764C56.2301 49.9312 56.309 50.1365 56.309 50.3924V51.901C56.309 52.1598 56.2301 52.3666 56.0724 52.5213C55.9177 52.6761 55.7109 52.7534 55.452 52.7534ZM55.452 52.4767C55.6157 52.4767 55.7466 52.4261 55.8448 52.325C55.943 52.2238 55.9921 52.0899 55.9921 51.9233V50.3745C55.9921 50.2079 55.943 50.074 55.8448 49.9728C55.7466 49.8717 55.6157 49.8211 55.452 49.8211C55.2943 49.8211 55.1664 49.8717 55.0682 49.9728C54.97 50.074 54.9209 50.2079 54.9209 50.3745V51.9233C54.9209 52.0869 54.97 52.2208 55.0682 52.325C55.1664 52.4261 55.2943 52.4767 55.452 52.4767ZM57.585 50.8119C57.469 50.8119 57.3619 50.7836 57.2637 50.7271C57.1685 50.6706 57.0926 50.5947 57.036 50.4995C56.9795 50.4013 56.9512 50.2942 56.9512 50.1781C56.9512 50.0621 56.9795 49.9565 57.036 49.8612C57.0926 49.763 57.1685 49.6857 57.2637 49.6291C57.3619 49.5726 57.469 49.5443 57.585 49.5443C57.6981 49.5443 57.8022 49.5726 57.8975 49.6291C57.9956 49.6857 58.073 49.763 58.1295 49.8612C58.1861 49.9565 58.2143 50.0621 58.2143 50.1781C58.2143 50.2942 58.1861 50.4013 58.1295 50.4995C58.073 50.5947 57.9956 50.6706 57.8975 50.7271C57.8022 50.7836 57.6981 50.8119 57.585 50.8119ZM57.4824 52.7088C57.4675 52.7088 57.4556 52.7043 57.4467 52.6954C57.4407 52.6835 57.4422 52.6701 57.4511 52.6552L59.1115 49.6158C59.1204 49.5949 59.1382 49.5845 59.165 49.5845H59.3078C59.3227 49.5845 59.3331 49.5905 59.3391 49.6024C59.348 49.6113 59.348 49.6232 59.3391 49.6381L57.6788 52.6776C57.6698 52.6984 57.652 52.7088 57.6252 52.7088H57.4824ZM57.585 50.6155C57.704 50.6155 57.8037 50.5739 57.8841 50.4906C57.9674 50.4043 58.009 50.3001 58.009 50.1781C58.009 50.0561 57.9674 49.9535 57.8841 49.8702C57.8037 49.7839 57.704 49.7407 57.585 49.7407C57.466 49.7407 57.3648 49.7839 57.2815 49.8702C57.1982 49.9535 57.1566 50.0561 57.1566 50.1781C57.1566 50.3001 57.1982 50.4043 57.2815 50.4906C57.3648 50.5739 57.466 50.6155 57.585 50.6155ZM59.223 52.749C59.107 52.749 58.9999 52.7207 58.9017 52.6642C58.8065 52.6076 58.7306 52.5303 58.6741 52.4321C58.6175 52.3339 58.5893 52.2268 58.5893 52.1107C58.5893 51.9977 58.6175 51.8935 58.6741 51.7983C58.7306 51.7001 58.8065 51.6227 58.9017 51.5662C58.9999 51.5097 59.107 51.4814 59.223 51.4814C59.3361 51.4814 59.4403 51.5097 59.5355 51.5662C59.6337 51.6227 59.711 51.7001 59.7676 51.7983C59.8241 51.8935 59.8524 51.9977 59.8524 52.1107C59.8524 52.2268 59.8241 52.3339 59.7676 52.4321C59.711 52.5303 59.6337 52.6076 59.5355 52.6642C59.4403 52.7207 59.3361 52.749 59.223 52.749ZM59.223 52.5526C59.3421 52.5526 59.4417 52.5094 59.5221 52.4232C59.6054 52.3369 59.6471 52.2327 59.6471 52.1107C59.6471 51.9887 59.6054 51.8861 59.5221 51.8028C59.4417 51.7194 59.3421 51.6778 59.223 51.6778C59.104 51.6778 59.0029 51.7194 58.9195 51.8028C58.8362 51.8861 58.7946 51.9887 58.7946 52.1107C58.7946 52.2357 58.8347 52.3413 58.9151 52.4276C58.9984 52.5109 59.1011 52.5526 59.223 52.5526Z" fill="#404040"/>
</svg>
