<svg width="82" height="56" viewBox="0 0 82 56" fill="none" xmlns="http://www.w3.org/2000/svg">
<path d="M64.8922 20.811C66.0586 23.962 66.45 27.3397 66.0344 30.6679C65.6188 33.9961 64.4079 37.1804 62.5008 39.9603C60.5937 42.7402 58.0445 45.0369 55.0616 46.6626C52.0788 48.2883 48.747 49.1968 45.3386 49.3138L45.0746 41.8814C47.29 41.8053 49.4557 41.2148 51.3946 40.1581C53.3335 39.1014 54.9904 37.6086 56.23 35.8016C57.4697 33.9947 58.2567 31.9249 58.5269 29.7615C58.7971 27.5982 58.5426 25.4027 57.7844 23.3546L64.8922 20.811Z" fill="#9B001C"/>
<path d="M23.8104 22.2215C25.0684 17.9081 27.6829 14.097 31.2792 11.3344C34.8756 8.57178 39.2691 6.99951 43.8301 6.84291C48.3912 6.68631 52.8856 7.95342 56.6692 10.4626C60.4527 12.9719 63.3313 16.5944 64.8922 20.811L57.7845 23.3546C56.7699 20.6138 54.8988 18.2591 52.4395 16.6281C49.9802 14.9971 47.0588 14.1735 44.0941 14.2753C41.1294 14.3771 38.2736 15.3991 35.936 17.1948C33.5984 18.9905 31.899 21.4677 31.0813 24.2714L23.8104 22.2215Z" fill="#FFF853"/>
<path d="M45.3386 49.3138C41.9302 49.4308 38.542 48.7531 35.4511 47.3359C32.3602 45.9188 29.6542 43.8025 27.5545 41.1602C25.4548 38.5178 24.021 35.4243 23.3703 32.1327C22.7195 28.8411 22.8703 25.4448 23.8104 22.2215L31.0813 24.2714C30.4702 26.3666 30.3722 28.5742 30.7952 30.7137C31.2182 32.8532 32.1502 34.864 33.515 36.5815C34.8798 38.2991 36.6386 39.6746 38.6477 40.5958C40.6568 41.5169 42.8591 41.9574 45.0746 41.8814L45.3386 49.3138Z" fill="#E30088"/>
<path d="M29.3277 41.3484L26.7826 44.5657H16.2387" stroke="black" stroke-width="0.145684"/>
<path d="M2.28032 43.3726C2.25651 43.3726 2.24015 43.3607 2.23122 43.3369L1.67778 41.9577C1.6748 41.9488 1.66885 41.9443 1.65992 41.9443H1.08416C1.07226 41.9443 1.06631 41.9503 1.06631 41.9622V43.3279C1.06631 43.3577 1.05143 43.3726 1.02168 43.3726H0.794051C0.764296 43.3726 0.749418 43.3577 0.749418 43.3279V40.2929C0.749418 40.2631 0.764296 40.2483 0.794051 40.2483H1.74026C1.89499 40.2483 2.03186 40.284 2.15088 40.3554C2.27288 40.4268 2.36661 40.528 2.43207 40.6589C2.50051 40.7898 2.53472 40.9401 2.53472 41.1097C2.53472 41.312 2.48563 41.4846 2.38744 41.6274C2.28925 41.7702 2.15535 41.8655 1.98574 41.9131C1.97384 41.919 1.97087 41.9265 1.97682 41.9354L2.55258 43.319L2.55704 43.3369C2.55704 43.3607 2.54365 43.3726 2.51687 43.3726H2.28032ZM1.08416 40.525C1.07226 40.525 1.06631 40.5309 1.06631 40.5428V41.6721C1.06631 41.684 1.07226 41.6899 1.08416 41.6899H1.70009C1.85482 41.6899 1.97979 41.6363 2.07501 41.5292C2.17022 41.4221 2.21783 41.2823 2.21783 41.1097C2.21783 40.9341 2.17022 40.7928 2.07501 40.6857C1.97979 40.5786 1.85482 40.525 1.70009 40.525H1.08416ZM3.99118 43.4083C3.80967 43.4083 3.649 43.3696 3.50915 43.2922C3.37227 43.2149 3.26515 43.1063 3.18779 42.9664C3.1134 42.8266 3.07621 42.6644 3.07621 42.4799V40.2929C3.07621 40.2631 3.09109 40.2483 3.12084 40.2483H3.34847C3.37822 40.2483 3.3931 40.2631 3.3931 40.2929V42.4978C3.3931 42.6882 3.44815 42.8414 3.55824 42.9575C3.66834 43.0735 3.81265 43.1315 3.99118 43.1315C4.16971 43.1315 4.31402 43.0735 4.42412 42.9575C4.53421 42.8414 4.58926 42.6882 4.58926 42.4978V40.2929C4.58926 40.2631 4.60413 40.2483 4.63389 40.2483H4.86152C4.89127 40.2483 4.90615 40.2631 4.90615 40.2929V42.4799C4.90615 42.6644 4.86747 42.8266 4.7901 42.9664C4.71572 43.1063 4.6086 43.2149 4.46875 43.2922C4.33188 43.3696 4.17269 43.4083 3.99118 43.4083ZM6.36797 43.4083C6.08828 43.4083 5.86511 43.3354 5.69848 43.1896C5.53483 43.0408 5.453 42.8429 5.453 42.596V42.4754C5.453 42.4457 5.46788 42.4308 5.49764 42.4308H5.71634C5.74609 42.4308 5.76097 42.4457 5.76097 42.4754V42.5781C5.76097 42.7447 5.8175 42.8786 5.93057 42.9798C6.04364 43.081 6.19391 43.1315 6.38136 43.1315C6.55692 43.1315 6.69528 43.0839 6.79645 42.9887C6.89761 42.8935 6.9482 42.7685 6.9482 42.6138C6.9482 42.5126 6.92439 42.4249 6.87679 42.3505C6.82918 42.2761 6.75925 42.2076 6.66701 42.1452C6.57477 42.0827 6.44236 42.0038 6.26978 41.9086C6.0853 41.8104 5.9395 41.7241 5.83238 41.6497C5.72824 41.5753 5.64344 41.4846 5.57798 41.3775C5.51251 41.2704 5.47978 41.1394 5.47978 40.9847C5.47978 40.7437 5.55715 40.5547 5.71187 40.4179C5.8666 40.281 6.0734 40.2126 6.33227 40.2126C6.60899 40.2126 6.82918 40.2884 6.99283 40.4402C7.15648 40.5919 7.23831 40.7928 7.23831 41.0427V41.1454C7.23831 41.1751 7.22343 41.19 7.19368 41.19H6.97051C6.94076 41.19 6.92588 41.1751 6.92588 41.1454V41.0472C6.92588 40.8806 6.87232 40.7467 6.7652 40.6455C6.65809 40.5414 6.5108 40.4893 6.32334 40.4893C6.15671 40.4893 6.02579 40.5324 5.93057 40.6187C5.83833 40.705 5.79221 40.827 5.79221 40.9847C5.79221 41.0859 5.81453 41.1707 5.85916 41.2391C5.90379 41.3076 5.96777 41.37 6.05108 41.4266C6.13737 41.4831 6.26829 41.559 6.44385 41.6542C6.64618 41.7673 6.80091 41.864 6.90803 41.9443C7.01812 42.0217 7.10441 42.1124 7.1669 42.2166C7.23236 42.3177 7.26509 42.4427 7.26509 42.5915C7.26509 42.8414 7.18475 43.0408 7.02407 43.1896C6.8634 43.3354 6.6447 43.4083 6.36797 43.4083ZM8.59961 43.4083C8.31991 43.4083 8.09675 43.3354 7.93012 43.1896C7.76646 43.0408 7.68464 42.8429 7.68464 42.596V42.4754C7.68464 42.4457 7.69951 42.4308 7.72927 42.4308H7.94797C7.97772 42.4308 7.9926 42.4457 7.9926 42.4754V42.5781C7.9926 42.7447 8.04914 42.8786 8.16221 42.9798C8.27528 43.081 8.42554 43.1315 8.613 43.1315C8.78855 43.1315 8.92691 43.0839 9.02808 42.9887C9.12925 42.8935 9.17983 42.7685 9.17983 42.6138C9.17983 42.5126 9.15603 42.4249 9.10842 42.3505C9.06081 42.2761 8.99089 42.2076 8.89865 42.1452C8.8064 42.0827 8.67399 42.0038 8.50141 41.9086C8.31693 41.8104 8.17113 41.7241 8.06401 41.6497C7.95987 41.5753 7.87507 41.4846 7.80961 41.3775C7.74415 41.2704 7.71142 41.1394 7.71142 40.9847C7.71142 40.7437 7.78878 40.5547 7.94351 40.4179C8.09823 40.281 8.30503 40.2126 8.5639 40.2126C8.84062 40.2126 9.06081 40.2884 9.22446 40.4402C9.38812 40.5919 9.46994 40.7928 9.46994 41.0427V41.1454C9.46994 41.1751 9.45507 41.19 9.42531 41.19H9.20215C9.17239 41.19 9.15751 41.1751 9.15751 41.1454V41.0472C9.15751 40.8806 9.10396 40.7467 8.99684 40.6455C8.88972 40.5414 8.74243 40.4893 8.55497 40.4893C8.38835 40.4893 8.25742 40.5324 8.16221 40.6187C8.06997 40.705 8.02385 40.827 8.02385 40.9847C8.02385 41.0859 8.04616 41.1707 8.09079 41.2391C8.13543 41.3076 8.1994 41.37 8.28271 41.4266C8.369 41.4831 8.49993 41.559 8.67548 41.6542C8.87782 41.7673 9.03254 41.864 9.13966 41.9443C9.24976 42.0217 9.33605 42.1124 9.39853 42.2166C9.46399 42.3177 9.49672 42.4427 9.49672 42.5915C9.49672 42.8414 9.41638 43.0408 9.25571 43.1896C9.09503 43.3354 8.87633 43.4083 8.59961 43.4083ZM10.1216 43.3726C10.0918 43.3726 10.0769 43.3577 10.0769 43.3279V40.2929C10.0769 40.2631 10.0918 40.2483 10.1216 40.2483H10.3492C10.379 40.2483 10.3938 40.2631 10.3938 40.2929V43.3279C10.3938 43.3577 10.379 43.3726 10.3492 43.3726H10.1216ZM12.6491 43.3726C12.6224 43.3726 12.606 43.3592 12.6001 43.3324L12.4528 42.7745C12.4498 42.7656 12.4424 42.7611 12.4304 42.7611H11.3637C11.3518 42.7611 11.3444 42.7656 11.3414 42.7745L11.1941 43.3324C11.1882 43.3592 11.1718 43.3726 11.145 43.3726H10.9129C10.8981 43.3726 10.8862 43.3681 10.8772 43.3592C10.8713 43.3502 10.8698 43.3383 10.8728 43.3235L11.7074 40.2884C11.7134 40.2617 11.7297 40.2483 11.7565 40.2483H12.0421C12.0689 40.2483 12.0853 40.2617 12.0912 40.2884L12.9259 43.3235L12.9303 43.3369C12.9303 43.3607 12.9155 43.3726 12.8857 43.3726H12.6491ZM11.4173 42.4844C11.4143 42.4873 11.4143 42.4918 11.4173 42.4978C11.4232 42.5007 11.4292 42.5022 11.4351 42.5022H12.359C12.365 42.5022 12.3695 42.5007 12.3724 42.4978C12.3784 42.4918 12.3799 42.4873 12.3769 42.4844L11.9038 40.6901C11.9008 40.6842 11.8978 40.6812 11.8949 40.6812C11.8919 40.6812 11.8889 40.6842 11.8859 40.6901L11.4173 42.4844ZM14.9558 40.2929C14.9558 40.2631 14.9707 40.2483 15.0005 40.2483H15.2281C15.2578 40.2483 15.2727 40.2631 15.2727 40.2929V43.3279C15.2727 43.3577 15.2578 43.3726 15.2281 43.3726H14.9871C14.9603 43.3726 14.9424 43.3621 14.9335 43.3413L13.7373 40.9535C13.7314 40.9475 13.7254 40.9445 13.7195 40.9445C13.7165 40.9445 13.715 40.949 13.715 40.9579L13.7195 43.3279C13.7195 43.3577 13.7046 43.3726 13.6749 43.3726H13.4472C13.4175 43.3726 13.4026 43.3577 13.4026 43.3279V40.2929C13.4026 40.2631 13.4175 40.2483 13.4472 40.2483H13.6883C13.715 40.2483 13.7329 40.2587 13.7418 40.2795L14.938 42.6763C14.9439 42.6822 14.9484 42.6852 14.9514 42.6852C14.9573 42.6852 14.9603 42.6808 14.9603 42.6718L14.9558 40.2929ZM2.28032 48.3726C2.25651 48.3726 2.24015 48.3607 2.23122 48.3369L1.67778 46.9577C1.6748 46.9488 1.66885 46.9443 1.65992 46.9443H1.08416C1.07226 46.9443 1.06631 46.9503 1.06631 46.9622V48.3279C1.06631 48.3577 1.05143 48.3726 1.02168 48.3726H0.794051C0.764296 48.3726 0.749418 48.3577 0.749418 48.3279V45.2929C0.749418 45.2631 0.764296 45.2483 0.794051 45.2483H1.74026C1.89499 45.2483 2.03186 45.284 2.15088 45.3554C2.27288 45.4268 2.36661 45.528 2.43207 45.6589C2.50051 45.7898 2.53472 45.9401 2.53472 46.1097C2.53472 46.312 2.48563 46.4846 2.38744 46.6274C2.28925 46.7702 2.15535 46.8655 1.98574 46.9131C1.97384 46.919 1.97087 46.9265 1.97682 46.9354L2.55258 48.319L2.55704 48.3369C2.55704 48.3607 2.54365 48.3726 2.51687 48.3726H2.28032ZM1.08416 45.525C1.07226 45.525 1.06631 45.5309 1.06631 45.5428V46.6721C1.06631 46.684 1.07226 46.6899 1.08416 46.6899H1.70009C1.85482 46.6899 1.97979 46.6363 2.07501 46.5292C2.17022 46.4221 2.21783 46.2823 2.21783 46.1097C2.21783 45.9341 2.17022 45.7928 2.07501 45.6857C1.97979 45.5786 1.85482 45.525 1.70009 45.525H1.08416ZM4.73383 48.3726C4.70705 48.3726 4.69068 48.3592 4.68473 48.3324L4.53744 47.7745C4.53447 47.7656 4.52703 47.7611 4.51513 47.7611H3.4484C3.4365 47.7611 3.42906 47.7656 3.42609 47.7745L3.2788 48.3324C3.27285 48.3592 3.25648 48.3726 3.2297 48.3726H2.99761C2.98274 48.3726 2.97083 48.3681 2.96191 48.3592C2.95596 48.3502 2.95447 48.3383 2.95745 48.3235L3.79208 45.2884C3.79803 45.2617 3.81439 45.2483 3.84117 45.2483H4.12682C4.1536 45.2483 4.16997 45.2617 4.17592 45.2884L5.01055 48.3235L5.01501 48.3369C5.01501 48.3607 5.00013 48.3726 4.97038 48.3726H4.73383ZM3.50196 47.4844C3.49899 47.4873 3.49899 47.4918 3.50196 47.4978C3.50791 47.5007 3.51387 47.5022 3.51982 47.5022H4.44371C4.44966 47.5022 4.45413 47.5007 4.4571 47.4978C4.46305 47.4918 4.46454 47.4873 4.46157 47.4844L3.98846 45.6901C3.98548 45.6842 3.98251 45.6812 3.97953 45.6812C3.97656 45.6812 3.97358 45.6842 3.97061 45.6901L3.50196 47.4844ZM6.11517 48.4083C5.83547 48.4083 5.61231 48.3354 5.44568 48.1896C5.28203 48.0408 5.2002 47.8429 5.2002 47.596V47.4754C5.2002 47.4457 5.21508 47.4308 5.24483 47.4308H5.46353C5.49329 47.4308 5.50817 47.4457 5.50817 47.4754V47.5781C5.50817 47.7447 5.5647 47.8786 5.67777 47.9798C5.79084 48.081 5.9411 48.1315 6.12856 48.1315C6.30412 48.1315 6.44248 48.0839 6.54364 47.9887C6.64481 47.8935 6.6954 47.7685 6.6954 47.6138C6.6954 47.5126 6.67159 47.4249 6.62398 47.3505C6.57638 47.2761 6.50645 47.2076 6.41421 47.1452C6.32197 47.0827 6.18956 47.0038 6.01698 46.9086C5.8325 46.8104 5.6867 46.7241 5.57958 46.6497C5.47544 46.5753 5.39063 46.4846 5.32517 46.3775C5.25971 46.2704 5.22698 46.1394 5.22698 45.9847C5.22698 45.7437 5.30434 45.5547 5.45907 45.4179C5.6138 45.281 5.8206 45.2126 6.07947 45.2126C6.35619 45.2126 6.57638 45.2884 6.74003 45.4402C6.90368 45.5919 6.98551 45.7928 6.98551 46.0427V46.1454C6.98551 46.1751 6.97063 46.19 6.94088 46.19H6.71771C6.68796 46.19 6.67308 46.1751 6.67308 46.1454V46.0472C6.67308 45.8806 6.61952 45.7467 6.5124 45.6455C6.40528 45.5414 6.258 45.4893 6.07054 45.4893C5.90391 45.4893 5.77299 45.5324 5.67777 45.6187C5.58553 45.705 5.53941 45.827 5.53941 45.9847C5.53941 46.0859 5.56173 46.1707 5.60636 46.2391C5.65099 46.3076 5.71496 46.37 5.79828 46.4266C5.88457 46.4831 6.01549 46.559 6.19105 46.6542C6.39338 46.7673 6.54811 46.864 6.65523 46.9443C6.76532 47.0217 6.85161 47.1124 6.9141 47.2166C6.97956 47.3177 7.01229 47.4427 7.01229 47.5915C7.01229 47.8414 6.93195 48.0408 6.77127 48.1896C6.61059 48.3354 6.39189 48.4083 6.11517 48.4083ZM8.557 45.2438C8.79504 45.2438 8.98696 45.3241 9.13276 45.4848C9.28153 45.6425 9.35592 45.8523 9.35592 46.1141C9.35592 46.373 9.28153 46.5813 9.13276 46.739C8.98696 46.8937 8.79504 46.9711 8.557 46.9711H7.89197C7.88007 46.9711 7.87412 46.977 7.87412 46.9889V48.3279C7.87412 48.3577 7.85924 48.3726 7.82948 48.3726H7.60186C7.5721 48.3726 7.55723 48.3577 7.55723 48.3279V45.2884C7.55723 45.2587 7.5721 45.2438 7.60186 45.2438H8.557ZM8.51683 46.7078C8.67453 46.7078 8.80099 46.6542 8.89621 46.5471C8.99142 46.44 9.03903 46.2971 9.03903 46.1186C9.03903 45.9371 8.99142 45.7928 8.89621 45.6857C8.80099 45.5756 8.67453 45.5205 8.51683 45.5205H7.89197C7.88007 45.5205 7.87412 45.5265 7.87412 45.5384V46.6899C7.87412 46.7018 7.88007 46.7078 7.89197 46.7078H8.51683ZM11.2332 46.7435C11.2183 46.7494 11.2183 46.7569 11.2332 46.7658C11.373 46.8342 11.4801 46.9324 11.5545 47.0604C11.6319 47.1883 11.6721 47.343 11.675 47.5245C11.675 47.7923 11.5947 48.0006 11.434 48.1494C11.2763 48.2982 11.0665 48.3726 10.8047 48.3726H9.92544C9.89569 48.3726 9.88081 48.3577 9.88081 48.3279V45.2929C9.88081 45.2631 9.89569 45.2483 9.92544 45.2483H10.769C11.0427 45.2483 11.257 45.3197 11.4117 45.4625C11.5664 45.6024 11.6438 45.8032 11.6438 46.065C11.6438 46.2317 11.6081 46.3715 11.5367 46.4846C11.4682 46.5977 11.3671 46.684 11.2332 46.7435ZM10.2156 45.525C10.2037 45.525 10.1977 45.5309 10.1977 45.5428V46.6185C10.1977 46.6304 10.2037 46.6363 10.2156 46.6363H10.7735C10.946 46.6363 11.0814 46.5873 11.1796 46.4891C11.2808 46.3909 11.3314 46.2585 11.3314 46.0918C11.3314 45.9163 11.2808 45.7779 11.1796 45.6767C11.0814 45.5756 10.946 45.525 10.7735 45.525H10.2156ZM10.7958 48.0914C10.9684 48.0914 11.1052 48.0378 11.2064 47.9307C11.3076 47.8236 11.3581 47.6778 11.3581 47.4933C11.3581 47.3058 11.3061 47.1586 11.2019 47.0514C11.1008 46.9443 10.9624 46.8908 10.7869 46.8908H10.2156C10.2037 46.8908 10.1977 46.8967 10.1977 46.9086V48.0735C10.1977 48.0854 10.2037 48.0914 10.2156 48.0914H10.7958ZM13.9834 45.4804C13.9834 45.5101 13.9685 45.525 13.9387 45.525H12.5997C12.5878 45.525 12.5819 45.5309 12.5819 45.5428V46.6497C12.5819 46.6616 12.5878 46.6676 12.5997 46.6676H13.5013C13.5311 46.6676 13.546 46.6825 13.546 46.7122V46.8997C13.546 46.9294 13.5311 46.9443 13.5013 46.9443H12.5997C12.5878 46.9443 12.5819 46.9503 12.5819 46.9622V48.078C12.5819 48.0899 12.5878 48.0958 12.5997 48.0958H13.9387C13.9685 48.0958 13.9834 48.1107 13.9834 48.1405V48.3279C13.9834 48.3577 13.9685 48.3726 13.9387 48.3726H12.3096C12.2799 48.3726 12.265 48.3577 12.265 48.3279V45.2929C12.265 45.2631 12.2799 45.2483 12.3096 45.2483H13.9387C13.9685 45.2483 13.9834 45.2631 13.9834 45.2929V45.4804ZM16.1016 48.3726C16.0778 48.3726 16.0615 48.3607 16.0525 48.3369L15.4991 46.9577C15.4961 46.9488 15.4902 46.9443 15.4812 46.9443H14.9055C14.8936 46.9443 14.8876 46.9503 14.8876 46.9622V48.3279C14.8876 48.3577 14.8727 48.3726 14.843 48.3726H14.6154C14.5856 48.3726 14.5707 48.3577 14.5707 48.3279V45.2929C14.5707 45.2631 14.5856 45.2483 14.6154 45.2483H15.5616C15.7163 45.2483 15.8532 45.284 15.9722 45.3554C16.0942 45.4268 16.1879 45.528 16.2534 45.6589C16.3218 45.7898 16.356 45.9401 16.356 46.1097C16.356 46.312 16.3069 46.4846 16.2087 46.6274C16.1106 46.7702 15.9767 46.8655 15.807 46.9131C15.7951 46.919 15.7922 46.9265 15.7981 46.9354L16.3739 48.319L16.3783 48.3369C16.3783 48.3607 16.365 48.3726 16.3382 48.3726H16.1016ZM14.9055 45.525C14.8936 45.525 14.8876 45.5309 14.8876 45.5428V46.6721C14.8876 46.684 14.8936 46.6899 14.9055 46.6899H15.5214C15.6761 46.6899 15.8011 46.6363 15.8963 46.5292C15.9915 46.4221 16.0391 46.2823 16.0391 46.1097C16.0391 45.9341 15.9915 45.7928 15.8963 45.6857C15.8011 45.5786 15.6761 45.525 15.5214 45.525H14.9055ZM18.4597 48.3726C18.4359 48.3726 18.4195 48.3607 18.4106 48.3369L17.8571 46.9577C17.8541 46.9488 17.8482 46.9443 17.8393 46.9443H17.2635C17.2516 46.9443 17.2457 46.9503 17.2457 46.9622V48.3279C17.2457 48.3577 17.2308 48.3726 17.201 48.3726H16.9734C16.9436 48.3726 16.9288 48.3577 16.9288 48.3279V45.2929C16.9288 45.2631 16.9436 45.2483 16.9734 45.2483H17.9196C18.0743 45.2483 18.2112 45.284 18.3302 45.3554C18.4522 45.4268 18.5459 45.528 18.6114 45.6589C18.6798 45.7898 18.7141 45.9401 18.7141 46.1097C18.7141 46.312 18.665 46.4846 18.5668 46.6274C18.4686 46.7702 18.3347 46.8655 18.1651 46.9131C18.1532 46.919 18.1502 46.9265 18.1562 46.9354L18.7319 48.319L18.7364 48.3369C18.7364 48.3607 18.723 48.3726 18.6962 48.3726H18.4597ZM17.2635 45.525C17.2516 45.525 17.2457 45.5309 17.2457 45.5428V46.6721C17.2457 46.684 17.2516 46.6899 17.2635 46.6899H17.8794C18.0342 46.6899 18.1591 46.6363 18.2543 46.5292C18.3496 46.4221 18.3972 46.2823 18.3972 46.1097C18.3972 45.9341 18.3496 45.7928 18.2543 45.6857C18.1591 45.5786 18.0342 45.525 17.8794 45.525H17.2635ZM19.8549 48.3681C19.8251 48.3681 19.8103 48.3532 19.8103 48.3235V46.9934C19.8103 46.9815 19.8088 46.9741 19.8058 46.9711L19.0336 45.3018L19.0292 45.284C19.0292 45.2602 19.0426 45.2483 19.0693 45.2483H19.3104C19.3342 45.2483 19.3505 45.2602 19.3595 45.284L19.9575 46.6185C19.9605 46.6244 19.965 46.6274 19.9709 46.6274C19.9769 46.6274 19.9813 46.6244 19.9843 46.6185L20.5824 45.284C20.5913 45.2602 20.6077 45.2483 20.6315 45.2483H20.8725C20.8874 45.2483 20.8978 45.2542 20.9038 45.2661C20.9127 45.2751 20.9142 45.287 20.9082 45.3018L20.1316 46.9711C20.1286 46.9741 20.1271 46.9815 20.1271 46.9934V48.3235C20.1271 48.3532 20.1123 48.3681 20.0825 48.3681H19.8549ZM23.6857 46.8908C23.7422 47.0455 23.7705 47.2225 23.7705 47.4219C23.7705 47.6004 23.7481 47.7551 23.7035 47.8861C23.5934 48.2342 23.3494 48.4083 22.9715 48.4083C22.7692 48.4083 22.5996 48.3547 22.4627 48.2476C22.3258 48.1375 22.2381 47.9872 22.1994 47.7968C22.1786 47.7016 22.1681 47.593 22.1681 47.471C22.1681 47.4412 22.183 47.4263 22.2128 47.4263H22.4404C22.4702 47.4263 22.485 47.4412 22.485 47.471C22.491 47.5989 22.4984 47.6852 22.5074 47.7298C22.5341 47.8548 22.5877 47.953 22.668 48.0244C22.7484 48.0958 22.8495 48.1315 22.9715 48.1315C23.2006 48.1315 23.3494 48.0155 23.4179 47.7834C23.4446 47.6763 23.458 47.5483 23.458 47.3996C23.458 47.221 23.4387 47.0737 23.4 46.9577C23.3226 46.7494 23.1798 46.6453 22.9715 46.6453C22.9239 46.6453 22.8823 46.6542 22.8466 46.6721C22.8287 46.678 22.8183 46.681 22.8153 46.681C22.8034 46.681 22.793 46.675 22.7841 46.6631L22.668 46.5426C22.6532 46.5218 22.6517 46.501 22.6636 46.4801L23.3598 45.5473C23.3658 45.5414 23.3673 45.5369 23.3643 45.5339C23.3613 45.528 23.3569 45.525 23.3509 45.525H22.2351C22.2053 45.525 22.1905 45.5101 22.1905 45.4804V45.2929C22.1905 45.2631 22.2053 45.2483 22.2351 45.2483H23.7124C23.7422 45.2483 23.7571 45.2631 23.7571 45.2929V45.4938C23.7571 45.5176 23.7511 45.5369 23.7392 45.5518L23.092 46.4355C23.0891 46.4385 23.0891 46.4429 23.092 46.4489C23.095 46.4548 23.0995 46.4578 23.1054 46.4578C23.2453 46.4638 23.3643 46.5039 23.4625 46.5783C23.5607 46.6527 23.6351 46.7569 23.6857 46.8908ZM25.1537 48.4172C24.8978 48.4172 24.6925 48.3398 24.5378 48.1851C24.383 48.0304 24.3057 47.8236 24.3057 47.5647V46.0561C24.3057 45.8002 24.383 45.5949 24.5378 45.4402C24.6925 45.2855 24.8978 45.2081 25.1537 45.2081C25.4126 45.2081 25.6194 45.2855 25.7741 45.4402C25.9318 45.5949 26.0106 45.8002 26.0106 46.0561V47.5647C26.0106 47.8236 25.9318 48.0304 25.7741 48.1851C25.6194 48.3398 25.4126 48.4172 25.1537 48.4172ZM25.1537 48.1405C25.3173 48.1405 25.4483 48.0899 25.5465 47.9887C25.6446 47.8876 25.6937 47.7537 25.6937 47.587V46.0383C25.6937 45.8716 25.6446 45.7377 25.5465 45.6366C25.4483 45.5354 25.3173 45.4848 25.1537 45.4848C24.996 45.4848 24.868 45.5354 24.7698 45.6366C24.6717 45.7377 24.6226 45.8716 24.6226 46.0383V47.587C24.6226 47.7507 24.6717 47.8846 24.7698 47.9887C24.868 48.0899 24.996 48.1405 25.1537 48.1405ZM27.2867 46.4757C27.1707 46.4757 27.0635 46.4474 26.9654 46.3909C26.8701 46.3343 26.7943 46.2585 26.7377 46.1632C26.6812 46.065 26.6529 45.9579 26.6529 45.8419C26.6529 45.7258 26.6812 45.6202 26.7377 45.525C26.7943 45.4268 26.8701 45.3494 26.9654 45.2929C27.0635 45.2364 27.1707 45.2081 27.2867 45.2081C27.3998 45.2081 27.5039 45.2364 27.5991 45.2929C27.6973 45.3494 27.7747 45.4268 27.8312 45.525C27.8878 45.6202 27.916 45.7258 27.916 45.8419C27.916 45.9579 27.8878 46.065 27.8312 46.1632C27.7747 46.2585 27.6973 46.3343 27.5991 46.3909C27.5039 46.4474 27.3998 46.4757 27.2867 46.4757ZM27.1841 48.3726C27.1692 48.3726 27.1573 48.3681 27.1483 48.3592C27.1424 48.3473 27.1439 48.3339 27.1528 48.319L28.8131 45.2795C28.8221 45.2587 28.8399 45.2483 28.8667 45.2483H29.0095C29.0244 45.2483 29.0348 45.2542 29.0408 45.2661C29.0497 45.2751 29.0497 45.287 29.0408 45.3018L27.3804 48.3413C27.3715 48.3621 27.3537 48.3726 27.3269 48.3726H27.1841ZM27.2867 46.2793C27.4057 46.2793 27.5054 46.2376 27.5857 46.1543C27.6691 46.068 27.7107 45.9639 27.7107 45.8419C27.7107 45.7199 27.6691 45.6172 27.5857 45.5339C27.5054 45.4476 27.4057 45.4045 27.2867 45.4045C27.1677 45.4045 27.0665 45.4476 26.9832 45.5339C26.8999 45.6172 26.8582 45.7199 26.8582 45.8419C26.8582 45.9639 26.8999 46.068 26.9832 46.1543C27.0665 46.2376 27.1677 46.2793 27.2867 46.2793ZM28.9247 48.4127C28.8087 48.4127 28.7016 48.3845 28.6034 48.3279C28.5082 48.2714 28.4323 48.194 28.3757 48.0958C28.3192 47.9976 28.2909 47.8905 28.2909 47.7745C28.2909 47.6614 28.3192 47.5573 28.3757 47.4621C28.4323 47.3639 28.5082 47.2865 28.6034 47.23C28.7016 47.1734 28.8087 47.1452 28.9247 47.1452C29.0378 47.1452 29.1419 47.1734 29.2372 47.23C29.3353 47.2865 29.4127 47.3639 29.4692 47.4621C29.5258 47.5573 29.554 47.6614 29.554 47.7745C29.554 47.8905 29.5258 47.9976 29.4692 48.0958C29.4127 48.194 29.3353 48.2714 29.2372 48.3279C29.1419 48.3845 29.0378 48.4127 28.9247 48.4127ZM28.9247 48.2163C29.0437 48.2163 29.1434 48.1732 29.2238 48.0869C29.3071 48.0006 29.3487 47.8965 29.3487 47.7745C29.3487 47.6525 29.3071 47.5498 29.2238 47.4665C29.1434 47.3832 29.0437 47.3415 28.9247 47.3415C28.8057 47.3415 28.7045 47.3832 28.6212 47.4665C28.5379 47.5498 28.4963 47.6525 28.4963 47.7745C28.4963 47.8995 28.5364 48.0051 28.6168 48.0914C28.7001 48.1747 28.8027 48.2163 28.9247 48.2163Z" fill="#404040"/>
<path d="M31.9145 13.0718L29.3725 9.80853H18.8414" stroke="black" stroke-width="0.145684"/>
<path d="M53.9984 46.0612L56.5404 49.3244H67.0715" stroke="black" stroke-width="0.145684"/>
<path d="M4.74996 8.24133C4.47026 8.24133 4.2471 8.16843 4.08047 8.02263C3.91681 7.87386 3.83499 7.67599 3.83499 7.42902V7.30851C3.83499 7.27876 3.84986 7.26388 3.87962 7.26388H4.09832C4.12807 7.26388 4.14295 7.27876 4.14295 7.30851V7.41117C4.14295 7.57779 4.19949 7.71169 4.31256 7.81286C4.42563 7.91403 4.57589 7.96461 4.76335 7.96461C4.9389 7.96461 5.07726 7.917 5.17843 7.82179C5.2796 7.72657 5.33018 7.6016 5.33018 7.44687C5.33018 7.3457 5.30638 7.25793 5.25877 7.18354C5.21116 7.10915 5.14124 7.04071 5.049 6.97823C4.95675 6.91574 4.82434 6.83689 4.65176 6.74168C4.46728 6.64348 4.32148 6.55719 4.21436 6.48281C4.11022 6.40842 4.02542 6.31767 3.95996 6.21055C3.8945 6.10343 3.86177 5.97251 3.86177 5.81778C3.86177 5.57676 3.93913 5.38782 4.09386 5.25094C4.24858 5.11407 4.45538 5.04563 4.71425 5.04563C4.99097 5.04563 5.21116 5.12151 5.37481 5.27326C5.53847 5.42501 5.62029 5.62586 5.62029 5.8758V5.97846C5.62029 6.00821 5.60542 6.02309 5.57566 6.02309H5.3525C5.32274 6.02309 5.30787 6.00821 5.30787 5.97846V5.88027C5.30787 5.71364 5.25431 5.57974 5.14719 5.47857C5.04007 5.37443 4.89278 5.32236 4.70532 5.32236C4.5387 5.32236 4.40777 5.3655 4.31256 5.45179C4.22032 5.53808 4.1742 5.66008 4.1742 5.81778C4.1742 5.91895 4.19651 6.00375 4.24114 6.07219C4.28578 6.14062 4.34975 6.20311 4.43306 6.25964C4.51935 6.31618 4.65028 6.39205 4.82583 6.48727C5.02817 6.60034 5.18289 6.69704 5.29001 6.77738C5.40011 6.85475 5.4864 6.9455 5.54888 7.04964C5.61434 7.15081 5.64707 7.27578 5.64707 7.42456C5.64707 7.6745 5.56673 7.87386 5.40606 8.02263C5.24538 8.16843 5.02668 8.24133 4.74996 8.24133ZM7.19178 5.07688C7.42982 5.07688 7.62174 5.15722 7.76754 5.31789C7.91632 5.4756 7.99071 5.68537 7.99071 5.94721C7.99071 6.20608 7.91632 6.41437 7.76754 6.57207C7.62174 6.7268 7.42982 6.80416 7.19178 6.80416H6.52676C6.51485 6.80416 6.5089 6.81011 6.5089 6.82201V8.16099C6.5089 8.19075 6.49402 8.20563 6.46427 8.20563H6.23664C6.20689 8.20563 6.19201 8.19075 6.19201 8.16099V5.12151C6.19201 5.09176 6.20689 5.07688 6.23664 5.07688H7.19178ZM7.15161 6.54083C7.30931 6.54083 7.43577 6.48727 7.53099 6.38015C7.62621 6.27303 7.67381 6.13021 7.67381 5.95168C7.67381 5.77017 7.62621 5.62586 7.53099 5.51874C7.43577 5.40865 7.30931 5.3536 7.15161 5.3536H6.52676C6.51485 5.3536 6.5089 5.35955 6.5089 5.37145V6.52298C6.5089 6.53488 6.51485 6.54083 6.52676 6.54083H7.15161ZM8.56023 8.20563C8.53047 8.20563 8.51559 8.19075 8.51559 8.16099V5.12597C8.51559 5.09622 8.53047 5.08134 8.56023 5.08134H8.78785C8.81761 5.08134 8.83249 5.09622 8.83249 5.12597V8.16099C8.83249 8.19075 8.81761 8.20563 8.78785 8.20563H8.56023ZM10.3915 8.24133C10.1208 8.24133 9.90205 8.16099 9.73543 8.00032C9.57177 7.83964 9.48995 7.62689 9.48995 7.36207V5.92043C9.48995 5.65561 9.57177 5.44435 9.73543 5.28665C9.90205 5.12597 10.1208 5.04563 10.3915 5.04563C10.6653 5.04563 10.884 5.12449 11.0476 5.28219C11.2143 5.43989 11.2976 5.64966 11.2976 5.91151V5.95168C11.2976 5.98143 11.2827 5.99631 11.2529 5.99631L11.0253 6.00524C10.9956 6.00524 10.9807 5.99185 10.9807 5.96507V5.90258C10.9807 5.73 10.9256 5.59015 10.8155 5.48303C10.7084 5.37592 10.5671 5.32236 10.3915 5.32236C10.216 5.32236 10.0746 5.37592 9.96752 5.48303C9.8604 5.58718 9.80684 5.72703 9.80684 5.90258V7.38439C9.80684 7.55994 9.8604 7.70128 9.96752 7.8084C10.0746 7.91254 10.216 7.96461 10.3915 7.96461C10.5671 7.96461 10.7084 7.91105 10.8155 7.80393C10.9256 7.69682 10.9807 7.55697 10.9807 7.38439V7.3219C10.9807 7.29512 10.9956 7.28173 11.0253 7.28173L11.2529 7.29512C11.2827 7.29512 11.2976 7.31 11.2976 7.33975V7.371C11.2976 7.63284 11.2143 7.8441 11.0476 8.00478C10.884 8.16248 10.6653 8.24133 10.3915 8.24133ZM12.5096 8.20116C12.4798 8.20116 12.465 8.18629 12.465 8.15653V6.82648C12.465 6.81458 12.4635 6.80714 12.4605 6.80416L11.6883 5.1349L11.6839 5.11705C11.6839 5.09324 11.6973 5.08134 11.7241 5.08134H11.9651C11.9889 5.08134 12.0052 5.09324 12.0142 5.11705L12.6122 6.45156C12.6152 6.45751 12.6197 6.46049 12.6256 6.46049C12.6316 6.46049 12.636 6.45751 12.639 6.45156L13.2371 5.11705C13.246 5.09324 13.2624 5.08134 13.2862 5.08134H13.5272C13.5421 5.08134 13.5525 5.08729 13.5585 5.09919C13.5674 5.10812 13.5689 5.12002 13.5629 5.1349L12.7863 6.80416C12.7833 6.80714 12.7818 6.81458 12.7818 6.82648V8.15653C12.7818 8.18629 12.767 8.20116 12.7372 8.20116H12.5096ZM4.81244 13.2413C4.54167 13.2413 4.32297 13.161 4.15634 13.0003C3.99269 12.8396 3.91086 12.6269 3.91086 12.3621V10.9204C3.91086 10.6556 3.99269 10.4444 4.15634 10.2867C4.32297 10.126 4.54167 10.0456 4.81244 10.0456C5.08619 10.0456 5.30489 10.1245 5.46854 10.2822C5.63517 10.4399 5.71849 10.6497 5.71849 10.9115V10.9517C5.71849 10.9814 5.70361 10.9963 5.67385 10.9963L5.44623 11.0052C5.41647 11.0052 5.40159 10.9918 5.40159 10.9651V10.9026C5.40159 10.73 5.34655 10.5902 5.23645 10.483C5.12933 10.3759 4.988 10.3224 4.81244 10.3224C4.63689 10.3224 4.49555 10.3759 4.38843 10.483C4.28131 10.5872 4.22775 10.727 4.22775 10.9026V12.3844C4.22775 12.5599 4.28131 12.7013 4.38843 12.8084C4.49555 12.9125 4.63689 12.9646 4.81244 12.9646C4.988 12.9646 5.12933 12.9111 5.23645 12.8039C5.34655 12.6968 5.40159 12.557 5.40159 12.3844V12.3219C5.40159 12.2951 5.41647 12.2817 5.44623 12.2817L5.67385 12.2951C5.70361 12.2951 5.71849 12.31 5.71849 12.3398V12.371C5.71849 12.6328 5.63517 12.8441 5.46854 13.0048C5.30489 13.1625 5.08619 13.2413 4.81244 13.2413ZM7.80447 10.126C7.80447 10.0962 7.81935 10.0813 7.8491 10.0813H8.07673C8.10648 10.0813 8.12136 10.0962 8.12136 10.126V13.161C8.12136 13.1907 8.10648 13.2056 8.07673 13.2056H7.8491C7.81935 13.2056 7.80447 13.1907 7.80447 13.161V11.7952C7.80447 11.7833 7.79852 11.7774 7.78662 11.7774H6.67973C6.66782 11.7774 6.66187 11.7833 6.66187 11.7952V13.161C6.66187 13.1907 6.647 13.2056 6.61724 13.2056H6.38961C6.35986 13.2056 6.34498 13.1907 6.34498 13.161V10.126C6.34498 10.0962 6.35986 10.0813 6.38961 10.0813H6.61724C6.647 10.0813 6.66187 10.0962 6.66187 10.126V11.4828C6.66187 11.4947 6.66782 11.5007 6.67973 11.5007H7.78662C7.79852 11.5007 7.80447 11.4947 7.80447 11.4828V10.126ZM10.5609 10.3134C10.5609 10.3432 10.546 10.3581 10.5162 10.3581H9.17724C9.16534 10.3581 9.15939 10.364 9.15939 10.3759V11.4828C9.15939 11.4947 9.16534 11.5007 9.17724 11.5007H10.0788C10.1086 11.5007 10.1235 11.5155 10.1235 11.5453V11.7327C10.1235 11.7625 10.1086 11.7774 10.0788 11.7774H9.17724C9.16534 11.7774 9.15939 11.7833 9.15939 11.7952V12.9111C9.15939 12.923 9.16534 12.9289 9.17724 12.9289H10.5162C10.546 12.9289 10.5609 12.9438 10.5609 12.9735V13.161C10.5609 13.1907 10.546 13.2056 10.5162 13.2056H8.88713C8.85737 13.2056 8.84249 13.1907 8.84249 13.161V10.126C8.84249 10.0962 8.85737 10.0813 8.88713 10.0813H10.5162C10.546 10.0813 10.5609 10.0962 10.5609 10.126V10.3134ZM12.8666 10.3134C12.8666 10.3432 12.8517 10.3581 12.8219 10.3581H11.483C11.4711 10.3581 11.4651 10.364 11.4651 10.3759V11.4828C11.4651 11.4947 11.4711 11.5007 11.483 11.5007H12.3845C12.4143 11.5007 12.4292 11.5155 12.4292 11.5453V11.7327C12.4292 11.7625 12.4143 11.7774 12.3845 11.7774H11.483C11.4711 11.7774 11.4651 11.7833 11.4651 11.7952V12.9111C11.4651 12.923 11.4711 12.9289 11.483 12.9289H12.8219C12.8517 12.9289 12.8666 12.9438 12.8666 12.9735V13.161C12.8666 13.1907 12.8517 13.2056 12.8219 13.2056H11.1929C11.1631 13.2056 11.1482 13.1907 11.1482 13.161V10.126C11.1482 10.0962 11.1631 10.0813 11.1929 10.0813H12.8219C12.8517 10.0813 12.8666 10.0962 12.8666 10.126V10.3134ZM14.2082 13.2413C13.9285 13.2413 13.7054 13.1684 13.5388 13.0226C13.3751 12.8739 13.2933 12.676 13.2933 12.429V12.3085C13.2933 12.2788 13.3082 12.2639 13.3379 12.2639H13.5566C13.5864 12.2639 13.6012 12.2788 13.6012 12.3085V12.4112C13.6012 12.5778 13.6578 12.7117 13.7708 12.8129C13.8839 12.914 14.0342 12.9646 14.2216 12.9646C14.3972 12.9646 14.5356 12.917 14.6367 12.8218C14.7379 12.7266 14.7885 12.6016 14.7885 12.4469C14.7885 12.3457 14.7647 12.2579 14.7171 12.1835C14.6695 12.1092 14.5995 12.0407 14.5073 11.9782C14.415 11.9157 14.2826 11.8369 14.1101 11.7417C13.9256 11.6435 13.7798 11.5572 13.6727 11.4828C13.5685 11.4084 13.4837 11.3177 13.4182 11.2105C13.3528 11.1034 13.3201 10.9725 13.3201 10.8178C13.3201 10.5768 13.3974 10.3878 13.5521 10.2509C13.7069 10.1141 13.9137 10.0456 14.1725 10.0456C14.4493 10.0456 14.6695 10.1215 14.8331 10.2733C14.9968 10.425 15.0786 10.6259 15.0786 10.8758V10.9785C15.0786 11.0082 15.0637 11.0231 15.034 11.0231H14.8108C14.781 11.0231 14.7662 11.0082 14.7662 10.9785V10.8803C14.7662 10.7136 14.7126 10.5797 14.6055 10.4786C14.4984 10.3744 14.3511 10.3224 14.1636 10.3224C13.997 10.3224 13.8661 10.3655 13.7708 10.4518C13.6786 10.5381 13.6325 10.6601 13.6325 10.8178C13.6325 10.9189 13.6548 11.0037 13.6994 11.0722C13.7441 11.1406 13.808 11.2031 13.8914 11.2596C13.9776 11.3162 14.1086 11.3921 14.2841 11.4873C14.4865 11.6003 14.6412 11.697 14.7483 11.7774C14.8584 11.8547 14.9447 11.9455 15.0072 12.0496C15.0726 12.1508 15.1054 12.2758 15.1054 12.4246C15.1054 12.6745 15.025 12.8739 14.8643 13.0226C14.7037 13.1684 14.485 13.2413 14.2082 13.2413ZM17.3865 10.3134C17.3865 10.3432 17.3716 10.3581 17.3419 10.3581H16.0029C15.991 10.3581 15.985 10.364 15.985 10.3759V11.4828C15.985 11.4947 15.991 11.5007 16.0029 11.5007H16.9045C16.9342 11.5007 16.9491 11.5155 16.9491 11.5453V11.7327C16.9491 11.7625 16.9342 11.7774 16.9045 11.7774H16.0029C15.991 11.7774 15.985 11.7833 15.985 11.7952V12.9111C15.985 12.923 15.991 12.9289 16.0029 12.9289H17.3419C17.3716 12.9289 17.3865 12.9438 17.3865 12.9735V13.161C17.3865 13.1907 17.3716 13.2056 17.3419 13.2056H15.7128C15.683 13.2056 15.6682 13.1907 15.6682 13.161V10.126C15.6682 10.0962 15.683 10.0813 15.7128 10.0813H17.3419C17.3716 10.0813 17.3865 10.0962 17.3865 10.126V10.3134ZM20.4251 12.063C20.4548 12.063 20.4697 12.0779 20.4697 12.1077V12.304C20.4697 12.3338 20.4548 12.3487 20.4251 12.3487H20.2599C20.248 12.3487 20.2421 12.3546 20.2421 12.3665V13.161C20.2421 13.1907 20.2272 13.2056 20.1975 13.2056H19.9698C19.9401 13.2056 19.9252 13.1907 19.9252 13.161V12.3665C19.9252 12.3546 19.9193 12.3487 19.9073 12.3487H18.6978C18.668 12.3487 18.6532 12.3338 18.6532 12.304V12.1344C18.6532 12.1136 18.6561 12.0958 18.6621 12.0809L19.4566 10.117C19.4655 10.0932 19.4819 10.0813 19.5057 10.0813H19.7511C19.766 10.0813 19.7764 10.0873 19.7824 10.0992C19.7883 10.1081 19.7883 10.12 19.7824 10.1349L19.0236 12.0407C19.0206 12.0467 19.0206 12.0526 19.0236 12.0586C19.0266 12.0615 19.0311 12.063 19.037 12.063H19.9073C19.9193 12.063 19.9252 12.0571 19.9252 12.0452V11.34C19.9252 11.3102 19.9401 11.2953 19.9698 11.2953H20.1975C20.2272 11.2953 20.2421 11.3102 20.2421 11.34V12.0452C20.2421 12.0571 20.248 12.063 20.2599 12.063H20.4251ZM21.7748 13.2503C21.5189 13.2503 21.3136 13.1729 21.1588 13.0182C21.0041 12.8634 20.9268 12.6566 20.9268 12.3978V10.8892C20.9268 10.6333 21.0041 10.428 21.1588 10.2733C21.3136 10.1185 21.5189 10.0412 21.7748 10.0412C22.0336 10.0412 22.2404 10.1185 22.3952 10.2733C22.5529 10.428 22.6317 10.6333 22.6317 10.8892V12.3978C22.6317 12.6566 22.5529 12.8634 22.3952 13.0182C22.2404 13.1729 22.0336 13.2503 21.7748 13.2503ZM21.7748 12.9735C21.9384 12.9735 22.0693 12.923 22.1675 12.8218C22.2657 12.7206 22.3148 12.5867 22.3148 12.4201V10.8713C22.3148 10.7047 22.2657 10.5708 22.1675 10.4696C22.0693 10.3685 21.9384 10.3179 21.7748 10.3179C21.6171 10.3179 21.4891 10.3685 21.3909 10.4696C21.2927 10.5708 21.2436 10.7047 21.2436 10.8713V12.4201C21.2436 12.5837 21.2927 12.7176 21.3909 12.8218C21.4891 12.923 21.6171 12.9735 21.7748 12.9735ZM23.9078 11.3087C23.7918 11.3087 23.6846 11.2805 23.5864 11.2239C23.4912 11.1674 23.4153 11.0915 23.3588 10.9963C23.3023 10.8981 23.274 10.791 23.274 10.675C23.274 10.5589 23.3023 10.4533 23.3588 10.3581C23.4153 10.2599 23.4912 10.1825 23.5864 10.126C23.6846 10.0694 23.7918 10.0412 23.9078 10.0412C24.0209 10.0412 24.125 10.0694 24.2202 10.126C24.3184 10.1825 24.3958 10.2599 24.4523 10.3581C24.5088 10.4533 24.5371 10.5589 24.5371 10.675C24.5371 10.791 24.5088 10.8981 24.4523 10.9963C24.3958 11.0915 24.3184 11.1674 24.2202 11.2239C24.125 11.2805 24.0209 11.3087 23.9078 11.3087ZM23.8051 13.2056C23.7903 13.2056 23.7784 13.2012 23.7694 13.1922C23.7635 13.1803 23.765 13.1669 23.7739 13.1521L25.4342 10.1126C25.4432 10.0918 25.461 10.0813 25.4878 10.0813H25.6306C25.6455 10.0813 25.6559 10.0873 25.6619 10.0992C25.6708 10.1081 25.6708 10.12 25.6619 10.1349L24.0015 13.1744C23.9926 13.1952 23.9747 13.2056 23.948 13.2056H23.8051ZM23.9078 11.1124C24.0268 11.1124 24.1265 11.0707 24.2068 10.9874C24.2901 10.9011 24.3318 10.797 24.3318 10.675C24.3318 10.553 24.2901 10.4503 24.2068 10.367C24.1265 10.2807 24.0268 10.2376 23.9078 10.2376C23.7888 10.2376 23.6876 10.2807 23.6043 10.367C23.521 10.4503 23.4793 10.553 23.4793 10.675C23.4793 10.797 23.521 10.9011 23.6043 10.9874C23.6876 11.0707 23.7888 11.1124 23.9078 11.1124ZM25.5458 13.2458C25.4298 13.2458 25.3227 13.2175 25.2245 13.161C25.1292 13.1045 25.0534 13.0271 24.9968 12.9289C24.9403 12.8307 24.912 12.7236 24.912 12.6075C24.912 12.4945 24.9403 12.3903 24.9968 12.2951C25.0534 12.1969 25.1292 12.1196 25.2245 12.063C25.3227 12.0065 25.4298 11.9782 25.5458 11.9782C25.6589 11.9782 25.763 12.0065 25.8582 12.063C25.9564 12.1196 26.0338 12.1969 26.0903 12.2951C26.1469 12.3903 26.1751 12.4945 26.1751 12.6075C26.1751 12.7236 26.1469 12.8307 26.0903 12.9289C26.0338 13.0271 25.9564 13.1045 25.8582 13.161C25.763 13.2175 25.6589 13.2458 25.5458 13.2458ZM25.5458 13.0494C25.6648 13.0494 25.7645 13.0063 25.8449 12.92C25.9282 12.8337 25.9698 12.7295 25.9698 12.6075C25.9698 12.4856 25.9282 12.3829 25.8449 12.2996C25.7645 12.2163 25.6648 12.1746 25.5458 12.1746C25.4268 12.1746 25.3256 12.2163 25.2423 12.2996C25.159 12.3829 25.1173 12.4856 25.1173 12.6075C25.1173 12.7325 25.1575 12.8382 25.2378 12.9244C25.3212 13.0078 25.4238 13.0494 25.5458 13.0494Z" fill="#404040"/>
<path d="M62.7823 44.993C62.7823 45.0228 62.7674 45.0377 62.7376 45.0377H61.4031C61.3912 45.0377 61.3852 45.0436 61.3852 45.0555V46.1624C61.3852 46.1743 61.3912 46.1803 61.4031 46.1803H62.3002C62.33 46.1803 62.3449 46.1951 62.3449 46.2249V46.4123C62.3449 46.4421 62.33 46.457 62.3002 46.457H61.4031C61.3912 46.457 61.3852 46.4629 61.3852 46.4748V47.8406C61.3852 47.8703 61.3704 47.8852 61.3406 47.8852H61.113C61.0832 47.8852 61.0684 47.8703 61.0684 47.8406V44.8056C61.0684 44.7758 61.0832 44.7609 61.113 44.7609H62.7376C62.7674 44.7609 62.7823 44.7758 62.7823 44.8056V44.993ZM63.2836 47.8852C63.2538 47.8852 63.239 47.8703 63.239 47.8406V44.8056C63.239 44.7758 63.2538 44.7609 63.2836 44.7609H63.5112C63.541 44.7609 63.5559 44.7758 63.5559 44.8056V47.8406C63.5559 47.8703 63.541 47.8852 63.5112 47.8852H63.2836ZM65.829 47.8852C65.8052 47.8852 65.7889 47.8733 65.7799 47.8495L65.2265 46.4704C65.2235 46.4614 65.2176 46.457 65.2086 46.457H64.6329C64.621 46.457 64.615 46.4629 64.615 46.4748V47.8406C64.615 47.8703 64.6001 47.8852 64.5704 47.8852H64.3428C64.313 47.8852 64.2981 47.8703 64.2981 47.8406V44.8056C64.2981 44.7758 64.313 44.7609 64.3428 44.7609H65.289C65.4437 44.7609 65.5806 44.7966 65.6996 44.8681C65.8216 44.9395 65.9153 45.0406 65.9808 45.1716C66.0492 45.3025 66.0834 45.4527 66.0834 45.6223C66.0834 45.8247 66.0343 45.9973 65.9361 46.1401C65.838 46.2829 65.7041 46.3781 65.5344 46.4257C65.5225 46.4317 65.5196 46.4391 65.5255 46.4481L66.1013 47.8317L66.1057 47.8495C66.1057 47.8733 66.0924 47.8852 66.0656 47.8852H65.829ZM64.6329 45.0377C64.621 45.0377 64.615 45.0436 64.615 45.0555V46.1847C64.615 46.1966 64.621 46.2026 64.6329 46.2026H65.2488C65.4035 46.2026 65.5285 46.149 65.6237 46.0419C65.7189 45.9348 65.7665 45.7949 65.7665 45.6223C65.7665 45.4468 65.7189 45.3055 65.6237 45.1983C65.5285 45.0912 65.4035 45.0377 65.2488 45.0377H64.6329ZM68.3745 44.993C68.3745 45.0228 68.3596 45.0377 68.3299 45.0377H66.9909C66.979 45.0377 66.973 45.0436 66.973 45.0555V46.1624C66.973 46.1743 66.979 46.1803 66.9909 46.1803H67.8925C67.9222 46.1803 67.9371 46.1951 67.9371 46.2249V46.4123C67.9371 46.4421 67.9222 46.457 67.8925 46.457H66.9909C66.979 46.457 66.973 46.4629 66.973 46.4748V47.5906C66.973 47.6025 66.979 47.6085 66.9909 47.6085H68.3299C68.3596 47.6085 68.3745 47.6234 68.3745 47.6531V47.8406C68.3745 47.8703 68.3596 47.8852 68.3299 47.8852H66.7008C66.671 47.8852 66.6562 47.8703 66.6562 47.8406V44.8056C66.6562 44.7758 66.671 44.7609 66.7008 44.7609H68.3299C68.3596 44.7609 68.3745 44.7758 68.3745 44.8056V44.993ZM70.3821 47.8852C70.3553 47.8852 70.3389 47.8718 70.333 47.8451L69.6144 44.81L69.6099 44.7922C69.6099 44.7714 69.6233 44.7609 69.6501 44.7609H69.8911C69.9179 44.7609 69.9343 44.7743 69.9402 44.8011L70.4847 47.1979C70.4877 47.2068 70.4907 47.2113 70.4937 47.2113C70.4996 47.2113 70.5041 47.2068 70.5071 47.1979L71.0025 44.8011C71.0084 44.7743 71.0248 44.7609 71.0516 44.7609H71.2747C71.3045 44.7609 71.3209 44.7743 71.3238 44.8011L71.8371 47.1979C71.8401 47.2068 71.8431 47.2113 71.846 47.2113C71.849 47.2113 71.852 47.2068 71.855 47.1979L72.3861 44.8011C72.392 44.7743 72.4084 44.7609 72.4352 44.7609H72.6673C72.697 44.7609 72.7089 44.7773 72.703 44.81L72.0067 47.8451C72.0008 47.8718 71.9844 47.8852 71.9576 47.8852H71.73C71.7032 47.8852 71.6868 47.8718 71.6809 47.8451L71.1721 45.4126C71.1691 45.4036 71.1661 45.3992 71.1632 45.3992C71.1602 45.3992 71.1572 45.4036 71.1542 45.4126L70.6499 47.8451C70.6469 47.8718 70.6305 47.8852 70.6008 47.8852H70.3821ZM73.2519 47.8852C73.2221 47.8852 73.2072 47.8703 73.2072 47.8406V44.8056C73.2072 44.7758 73.2221 44.7609 73.2519 44.7609H73.4795C73.5092 44.7609 73.5241 44.7758 73.5241 44.8056V47.8406C73.5241 47.8703 73.5092 47.8852 73.4795 47.8852H73.2519ZM75.8196 44.8056C75.8196 44.7758 75.8345 44.7609 75.8642 44.7609H76.0919C76.1216 44.7609 76.1365 44.7758 76.1365 44.8056V47.8406C76.1365 47.8703 76.1216 47.8852 76.0919 47.8852H75.8508C75.8241 47.8852 75.8062 47.8748 75.7973 47.854L74.6011 45.4661C74.5952 45.4602 74.5892 45.4572 74.5833 45.4572C74.5803 45.4572 74.5788 45.4617 74.5788 45.4706L74.5833 47.8406C74.5833 47.8703 74.5684 47.8852 74.5386 47.8852H74.311C74.2813 47.8852 74.2664 47.8703 74.2664 47.8406V44.8056C74.2664 44.7758 74.2813 44.7609 74.311 44.7609H74.552C74.5788 44.7609 74.5967 44.7714 74.6056 44.7922L75.8017 47.189C75.8077 47.1949 75.8122 47.1979 75.8151 47.1979C75.8211 47.1979 75.8241 47.1934 75.8241 47.1845L75.8196 44.8056ZM78.5651 44.993C78.5651 45.0228 78.5502 45.0377 78.5204 45.0377H77.1814C77.1695 45.0377 77.1636 45.0436 77.1636 45.0555V46.1624C77.1636 46.1743 77.1695 46.1803 77.1814 46.1803H78.083C78.1128 46.1803 78.1277 46.1951 78.1277 46.2249V46.4123C78.1277 46.4421 78.1128 46.457 78.083 46.457H77.1814C77.1695 46.457 77.1636 46.4629 77.1636 46.4748V47.5906C77.1636 47.6025 77.1695 47.6085 77.1814 47.6085H78.5204C78.5502 47.6085 78.5651 47.6234 78.5651 47.6531V47.8406C78.5651 47.8703 78.5502 47.8852 78.5204 47.8852H76.8913C76.8616 47.8852 76.8467 47.8703 76.8467 47.8406V44.8056C76.8467 44.7758 76.8616 44.7609 76.8913 44.7609H78.5204C78.5502 44.7609 78.5651 44.7758 78.5651 44.8056V44.993ZM62.4118 51.4034C62.4683 51.5581 62.4966 51.7352 62.4966 51.9345C62.4966 52.1131 62.4743 52.2678 62.4297 52.3987C62.3196 52.7469 62.0756 52.9209 61.6977 52.9209C61.4953 52.9209 61.3257 52.8674 61.1889 52.7603C61.052 52.6502 60.9642 52.4999 60.9255 52.3095C60.9047 52.2142 60.8943 52.1056 60.8943 51.9836C60.8943 51.9539 60.9092 51.939 60.9389 51.939H61.1665C61.1963 51.939 61.2112 51.9539 61.2112 51.9836C61.2171 52.1116 61.2246 52.1979 61.2335 52.2425C61.2603 52.3675 61.3138 52.4657 61.3942 52.5371C61.4745 52.6085 61.5757 52.6442 61.6977 52.6442C61.9268 52.6442 62.0756 52.5282 62.144 52.2961C62.1708 52.189 62.1842 52.061 62.1842 51.9122C62.1842 51.7337 62.1648 51.5864 62.1262 51.4704C62.0488 51.2621 61.906 51.1579 61.6977 51.1579C61.6501 51.1579 61.6084 51.1669 61.5727 51.1847C61.5549 51.1907 61.5444 51.1936 61.5415 51.1936C61.5296 51.1936 61.5191 51.1877 61.5102 51.1758L61.3942 51.0553C61.3793 51.0345 61.3778 51.0136 61.3897 50.9928L62.086 50.06C62.0919 50.054 62.0934 50.0496 62.0904 50.0466C62.0875 50.0406 62.083 50.0377 62.0771 50.0377H60.9612C60.9315 50.0377 60.9166 50.0228 60.9166 49.993V49.8056C60.9166 49.7758 60.9315 49.7609 60.9612 49.7609H62.4386C62.4683 49.7609 62.4832 49.7758 62.4832 49.8056V50.0064C62.4832 50.0302 62.4773 50.0496 62.4654 50.0644L61.8182 50.9482C61.8152 50.9511 61.8152 50.9556 61.8182 50.9616C61.8212 50.9675 61.8256 50.9705 61.8316 50.9705C61.9714 50.9764 62.0904 51.0166 62.1886 51.091C62.2868 51.1654 62.3612 51.2695 62.4118 51.4034ZM63.8798 52.9299C63.6239 52.9299 63.4186 52.8525 63.2639 52.6978C63.1092 52.543 63.0318 52.3362 63.0318 52.0774V50.5688C63.0318 50.3129 63.1092 50.1076 63.2639 49.9529C63.4186 49.7981 63.6239 49.7208 63.8798 49.7208C64.1387 49.7208 64.3455 49.7981 64.5002 49.9529C64.6579 50.1076 64.7368 50.3129 64.7368 50.5688V52.0774C64.7368 52.3362 64.6579 52.543 64.5002 52.6978C64.3455 52.8525 64.1387 52.9299 63.8798 52.9299ZM63.8798 52.6531C64.0435 52.6531 64.1744 52.6025 64.2726 52.5014C64.3708 52.4002 64.4199 52.2663 64.4199 52.0997V50.5509C64.4199 50.3843 64.3708 50.2504 64.2726 50.1492C64.1744 50.0481 64.0435 49.9975 63.8798 49.9975C63.7221 49.9975 63.5942 50.0481 63.496 50.1492C63.3978 50.2504 63.3487 50.3843 63.3487 50.5509V52.0997C63.3487 52.2633 63.3978 52.3972 63.496 52.5014C63.5942 52.6025 63.7221 52.6531 63.8798 52.6531ZM66.0129 50.9883C65.8968 50.9883 65.7897 50.9601 65.6915 50.9035C65.5963 50.847 65.5204 50.7711 65.4639 50.6759C65.4073 50.5777 65.3791 50.4706 65.3791 50.3546C65.3791 50.2385 65.4073 50.1329 65.4639 50.0377C65.5204 49.9395 65.5963 49.8621 65.6915 49.8056C65.7897 49.749 65.8968 49.7208 66.0129 49.7208C66.1259 49.7208 66.2301 49.749 66.3253 49.8056C66.4235 49.8621 66.5008 49.9395 66.5574 50.0377C66.6139 50.1329 66.6422 50.2385 66.6422 50.3546C66.6422 50.4706 66.6139 50.5777 66.5574 50.6759C66.5008 50.7711 66.4235 50.847 66.3253 50.9035C66.2301 50.9601 66.1259 50.9883 66.0129 50.9883ZM65.9102 52.8852C65.8953 52.8852 65.8834 52.8808 65.8745 52.8718C65.8685 52.8599 65.87 52.8465 65.879 52.8317L67.5393 49.7922C67.5482 49.7714 67.5661 49.7609 67.5929 49.7609H67.7357C67.7506 49.7609 67.761 49.7669 67.7669 49.7788C67.7758 49.7877 67.7758 49.7996 67.7669 49.8145L66.1066 52.854C66.0977 52.8748 66.0798 52.8852 66.053 52.8852H65.9102ZM66.0129 50.792C66.1319 50.792 66.2316 50.7503 66.3119 50.667C66.3952 50.5807 66.4369 50.4765 66.4369 50.3546C66.4369 50.2326 66.3952 50.1299 66.3119 50.0466C66.2316 49.9603 66.1319 49.9172 66.0129 49.9172C65.8938 49.9172 65.7927 49.9603 65.7094 50.0466C65.626 50.1299 65.5844 50.2326 65.5844 50.3546C65.5844 50.4765 65.626 50.5807 65.7094 50.667C65.7927 50.7503 65.8938 50.792 66.0129 50.792ZM67.6509 52.9254C67.5348 52.9254 67.4277 52.8971 67.3295 52.8406C67.2343 52.7841 67.1584 52.7067 67.1019 52.6085C67.0454 52.5103 67.0171 52.4032 67.0171 52.2871C67.0171 52.1741 67.0454 52.0699 67.1019 51.9747C67.1584 51.8765 67.2343 51.7992 67.3295 51.7426C67.4277 51.6861 67.5348 51.6578 67.6509 51.6578C67.7639 51.6578 67.8681 51.6861 67.9633 51.7426C68.0615 51.7992 68.1389 51.8765 68.1954 51.9747C68.2519 52.0699 68.2802 52.1741 68.2802 52.2871C68.2802 52.4032 68.2519 52.5103 68.1954 52.6085C68.1389 52.7067 68.0615 52.7841 67.9633 52.8406C67.8681 52.8971 67.7639 52.9254 67.6509 52.9254ZM67.6509 52.729C67.7699 52.729 67.8696 52.6859 67.9499 52.5996C68.0332 52.5133 68.0749 52.4091 68.0749 52.2871C68.0749 52.1651 68.0332 52.0625 67.9499 51.9792C67.8696 51.8959 67.7699 51.8542 67.6509 51.8542C67.5319 51.8542 67.4307 51.8959 67.3474 51.9792C67.2641 52.0625 67.2224 52.1651 67.2224 52.2871C67.2224 52.4121 67.2626 52.5177 67.3429 52.604C67.4262 52.6874 67.5289 52.729 67.6509 52.729Z" fill="#404040"/>
<path d="M35.7662 31.3461L35.7303 31.3428C35.5268 31.3213 35.3352 31.3067 35.3352 31.1501C35.3352 30.9574 35.6106 30.9213 35.7662 30.9213C35.9473 30.9226 36.1263 30.9598 36.293 31.0309L36.3169 31.0429L36.4247 30.79L36.4007 30.7813C36.2 30.6954 35.9843 30.6504 35.7662 30.6488C35.3352 30.6488 35.0479 30.8536 35.0479 31.1426C35.0479 31.516 35.419 31.5642 35.7183 31.5883H35.7423C36.0056 31.6124 36.1852 31.6474 36.1852 31.8171C36.1852 31.9496 36.0056 32.0339 35.7303 32.0339C35.5272 32.0359 35.3264 31.9905 35.1437 31.9014L35.1197 31.8913L35 32.1443L35.0239 32.1563C35.2427 32.2682 35.4849 32.326 35.7303 32.3249C36.1613 32.3249 36.4726 32.1202 36.4726 31.8191C36.4726 31.3975 36.0176 31.3493 35.7542 31.3252M38.4839 31.249C38.4839 31.3257 38.4536 31.3992 38.3997 31.4534C38.3458 31.5076 38.2727 31.5381 38.1965 31.5381H37.7536V30.9607H38.1965C38.2738 30.9638 38.3469 30.9969 38.4005 31.053C38.454 31.1091 38.4839 31.1839 38.4839 31.2618M38.1965 30.6836H37.6338C37.5957 30.6836 37.5592 30.6989 37.5323 30.726C37.5053 30.7531 37.4902 30.7898 37.4902 30.8282V32.3096H37.7655V31.8399H38.2085C38.2834 31.8415 38.3579 31.828 38.4275 31.8003C38.4972 31.7726 38.5606 31.7311 38.6141 31.6784C38.6677 31.6257 38.7102 31.5627 38.7392 31.4933C38.7682 31.4238 38.7832 31.3492 38.7832 31.2738C38.7832 31.1205 38.7226 30.9734 38.6148 30.865C38.5071 30.7566 38.3609 30.6957 38.2085 30.6957M39.6451 30.8282V32.1651C39.6451 32.2034 39.6603 32.2402 39.6872 32.2673C39.7142 32.2944 39.7507 32.3096 39.7888 32.3096H40.8902V32.0326H39.9205V31.6351H40.8304V31.3581H39.9205V30.9607H40.8902V30.6836H39.7888C39.7507 30.6836 39.7142 30.6989 39.6872 30.726C39.6603 30.7531 39.6451 30.7898 39.6451 30.8282ZM42.9973 31.8278C42.948 31.8998 42.8817 31.9583 42.8044 31.9983C42.7271 32.0382 42.6412 32.0583 42.5543 32.0567C42.4072 32.0535 42.2671 31.9925 42.1642 31.8867C42.0612 31.7809 42.0036 31.6387 42.0036 31.4906C42.0036 31.3437 42.0617 31.2027 42.1649 31.0988C42.2682 30.9949 42.4083 30.9366 42.5543 30.9366C42.635 30.937 42.7145 30.9556 42.787 30.991C42.8595 31.0265 42.9232 31.0778 42.9734 31.1413L42.9853 31.1534L43.1889 30.9727L43.1769 30.9561C43.0666 30.8288 42.9204 30.7384 42.7577 30.6968C42.5951 30.6553 42.4237 30.6645 42.2664 30.7234C42.1091 30.7822 41.9733 30.8879 41.8772 31.0263C41.7811 31.1647 41.7291 31.3292 41.7283 31.4981C41.7283 31.7196 41.8149 31.9322 41.9695 32.09C42.1241 32.2478 42.3342 32.338 42.5543 32.3412C42.6849 32.3441 42.8143 32.315 42.9311 32.2562C43.048 32.1974 43.1488 32.1108 43.2248 32.0039L43.2367 31.9866L43.0213 31.818L42.9973 31.8278ZM43.967 30.9607H44.5178V32.3096H44.7931V30.9607H45.3438V30.6836H43.967V30.9607ZM47.2713 31.2377C47.2714 31.2719 47.2645 31.3058 47.2511 31.3373C47.2377 31.3688 47.2181 31.3973 47.1935 31.4209C47.1689 31.4446 47.1397 31.4629 47.1078 31.4749C47.0759 31.4869 47.0419 31.4922 47.0079 31.4906H46.4931V30.9607H47.0079C47.0436 30.9606 47.0788 30.9678 47.1116 30.9819C47.1443 30.996 47.1739 31.0166 47.1985 31.0425C47.2232 31.0684 47.2423 31.099 47.2548 31.1326C47.2673 31.1661 47.2729 31.2019 47.2713 31.2377ZM47.5467 31.2377C47.5483 31.1655 47.5355 31.0937 47.5092 31.0266C47.4828 30.9594 47.4434 30.8982 47.3932 30.8466C47.343 30.795 47.2831 30.754 47.2169 30.726C47.1507 30.698 47.0797 30.6836 47.0079 30.6836H46.3734C46.3353 30.6836 46.2988 30.6989 46.2718 30.726C46.2449 30.7531 46.2298 30.7898 46.2298 30.8282V32.3096H46.5051V31.7556H46.8762L47.2593 32.3096H47.5826L47.1755 31.7315C47.282 31.7004 47.3756 31.6355 47.4425 31.5465C47.5094 31.4575 47.5459 31.3492 47.5467 31.2377ZM49.6657 31.611C49.6657 31.726 49.6203 31.8363 49.5395 31.9176C49.4587 31.999 49.349 32.0446 49.2347 32.0446C49.1204 32.0446 49.0108 31.999 48.93 31.9176C48.8491 31.8363 48.8037 31.726 48.8037 31.611V30.6836H48.5284V31.611C48.5284 31.7995 48.6028 31.9803 48.7353 32.1135C48.8677 32.2468 49.0474 32.3217 49.2347 32.3217C49.4221 32.3217 49.6017 32.2468 49.7342 32.1135C49.8667 31.9803 49.9411 31.7995 49.9411 31.611V30.6836H49.6657V31.611ZM52.3834 30.6595C52.3615 30.6604 52.3401 30.6662 52.3208 30.6767C52.3015 30.6871 52.2848 30.7019 52.272 30.7198L51.7333 31.4906L51.1945 30.7198C51.1807 30.7042 51.1637 30.6919 51.1447 30.6835C51.1257 30.6752 51.1051 30.6712 51.0844 30.6716C51.0463 30.6716 51.0098 30.6868 50.9828 30.7139C50.9559 30.741 50.9407 30.7778 50.9407 30.8161V32.3096H51.2161V31.1895L51.7309 31.9362L52.2457 31.1895V32.2976H52.521V30.8041C52.521 30.7657 52.5059 30.729 52.479 30.7019C52.452 30.6748 52.4155 30.6595 52.3774 30.6595M39.262 33.7068H39.6332V34.574H39.8247V33.7068H40.1959V33.5261H39.262V33.7068ZM41.4529 34.044C41.4529 34.143 41.4138 34.238 41.3442 34.308C41.2746 34.378 41.1802 34.4174 41.0818 34.4174C40.9834 34.4174 40.889 34.378 40.8194 34.308C40.7498 34.238 40.7107 34.143 40.7107 34.044C40.7091 33.9976 40.7168 33.9513 40.7332 33.9078C40.7496 33.8644 40.7745 33.8247 40.8064 33.7911C40.8781 33.7197 40.9749 33.6797 41.0758 33.6797C41.1767 33.6797 41.2734 33.7197 41.3452 33.7911C41.3779 33.8243 41.4037 33.8638 41.421 33.9073C41.4382 33.9507 41.4467 33.9972 41.4457 34.044H41.4529ZM41.0818 33.502C41.009 33.4988 40.9364 33.5104 40.8683 33.5361C40.8001 33.5619 40.7379 33.6013 40.6853 33.652C40.6327 33.7026 40.5908 33.7635 40.5623 33.8309C40.5337 33.8983 40.519 33.9708 40.5191 34.044C40.5143 34.1569 40.5432 34.2686 40.6021 34.3648C40.6609 34.461 40.747 34.5373 40.8493 34.5839C40.9516 34.6304 41.0655 34.6451 41.1761 34.6261C41.2868 34.607 41.3893 34.5551 41.4704 34.477C41.5515 34.3989 41.6075 34.2981 41.6313 34.1877C41.655 34.0773 41.6453 33.9622 41.6035 33.8574C41.5617 33.7526 41.4897 33.6627 41.3967 33.5993C41.3038 33.536 41.1941 33.5021 41.0818 33.502ZM42.6022 34.3933H42.2191V34.1404H42.6022C42.6352 34.1402 42.667 34.1525 42.6914 34.1748C42.7157 34.1971 42.7309 34.2278 42.7339 34.2608C42.7339 34.2959 42.72 34.3296 42.6954 34.3545C42.6707 34.3793 42.6372 34.3933 42.6022 34.3933ZM42.2191 33.7068H42.5663C42.586 33.7006 42.6069 33.6991 42.6273 33.7026C42.6477 33.706 42.6669 33.7142 42.6836 33.7265C42.7002 33.7388 42.7138 33.7549 42.7231 33.7734C42.7324 33.792 42.7373 33.8125 42.7373 33.8332C42.7373 33.854 42.7324 33.8745 42.7231 33.893C42.7138 33.9116 42.7002 33.9277 42.6836 33.94C42.6669 33.9523 42.6477 33.9605 42.6273 33.9639C42.6069 33.9673 42.586 33.9659 42.5663 33.9597H42.2191V33.7068ZM42.7938 34.032C42.8241 34.0075 42.8483 33.9762 42.8646 33.9407C42.8808 33.9051 42.8887 33.8663 42.8875 33.8272C42.8844 33.7445 42.8489 33.6664 42.7887 33.61C42.7285 33.5536 42.6485 33.5234 42.5663 33.5261H42.1353C42.1225 33.5256 42.1096 33.5278 42.0976 33.5324C42.0856 33.537 42.0746 33.5441 42.0653 33.5531C42.0561 33.5621 42.0487 33.5728 42.0437 33.5848C42.0387 33.5967 42.0361 33.6095 42.0361 33.6225V34.4776C42.0361 34.4906 42.0387 34.5034 42.0437 34.5153C42.0487 34.5272 42.0561 34.538 42.0653 34.547C42.0746 34.556 42.0856 34.563 42.0976 34.5677C42.1096 34.5723 42.1225 34.5744 42.1353 34.574H42.6022C42.6441 34.5756 42.6859 34.5687 42.725 34.5537C42.7642 34.5387 42.7999 34.5159 42.8301 34.4866C42.8603 34.4574 42.8843 34.4223 42.9007 34.3835C42.9171 34.3447 42.9255 34.303 42.9255 34.2608C42.9266 34.2142 42.915 34.1681 42.8917 34.1277C42.8685 34.0873 42.8346 34.0542 42.7938 34.032ZM43.6558 34.1524L43.7994 33.8393L43.9311 34.1524H43.6558ZM43.7994 33.5141C43.7812 33.515 43.7636 33.5212 43.7488 33.5319C43.734 33.5425 43.7224 33.5573 43.7156 33.5743L43.2727 34.586H43.4762L43.5839 34.3331H44.003L44.1107 34.574V34.586H44.3142L43.8713 33.5743C43.8644 33.5573 43.8529 33.5425 43.8381 33.5319C43.8232 33.5212 43.8057 33.515 43.7875 33.5141M45.4635 34.2608C45.4143 34.3177 45.3496 34.3588 45.2774 34.3791C45.2052 34.3993 45.1287 34.3978 45.0573 34.3748C44.9859 34.3517 44.9228 34.308 44.8759 34.2492C44.8289 34.1905 44.8001 34.1191 44.7931 34.044C44.7931 33.9955 44.8028 33.9475 44.8215 33.9029C44.8403 33.8583 44.8679 33.8179 44.9025 33.7842C44.9371 33.7504 44.9782 33.7241 45.0231 33.7066C45.0681 33.6892 45.1161 33.6811 45.1642 33.6827C45.2189 33.6821 45.273 33.6937 45.3226 33.7166C45.3723 33.7395 45.4163 33.7732 45.4516 33.8152L45.4635 33.8272L45.6072 33.7068L45.5952 33.6947C45.5429 33.6347 45.4784 33.5865 45.4062 33.5532C45.334 33.52 45.2556 33.5026 45.1762 33.502C45.1035 33.4988 45.0308 33.5104 44.9627 33.5361C44.8945 33.5619 44.8323 33.6013 44.7797 33.652C44.7271 33.7026 44.6853 33.7635 44.6567 33.8309C44.6281 33.8983 44.6135 33.9708 44.6135 34.044C44.6183 34.1598 44.6582 34.2713 44.7279 34.3635C44.7977 34.4557 44.8939 34.5242 45.0036 34.5597C45.1132 34.5951 45.231 34.5959 45.3411 34.5618C45.4512 34.5278 45.5483 34.4605 45.6192 34.3692L45.6311 34.3572L45.4875 34.2367L45.4635 34.2608ZM46.7565 34.2608C46.7073 34.3177 46.6426 34.3588 46.5704 34.3791C46.4982 34.3993 46.4216 34.3978 46.3503 34.3748C46.2789 34.3517 46.2158 34.308 46.1689 34.2492C46.1219 34.1905 46.0931 34.1191 46.0861 34.044C46.0861 33.9955 46.0957 33.9475 46.1145 33.9029C46.1333 33.8583 46.1608 33.8179 46.1955 33.7842C46.2301 33.7504 46.2711 33.7241 46.3161 33.7066C46.3611 33.6892 46.4091 33.6811 46.4572 33.6827C46.5119 33.6821 46.5659 33.6937 46.6156 33.7166C46.6653 33.7395 46.7093 33.7732 46.7445 33.8152L46.7565 33.8272L46.9002 33.7068L46.8882 33.6947C46.8358 33.6347 46.7714 33.5865 46.6992 33.5532C46.627 33.52 46.5486 33.5026 46.4692 33.502C46.3965 33.4988 46.3238 33.5104 46.2557 33.5361C46.1875 33.5619 46.1253 33.6013 46.0727 33.652C46.0201 33.7026 45.9782 33.7635 45.9497 33.8309C45.9211 33.8983 45.9064 33.9708 45.9065 34.044C45.9112 34.1598 45.9512 34.2713 46.0209 34.3635C46.0907 34.4557 46.1869 34.5242 46.2965 34.5597C46.4062 34.5951 46.524 34.5959 46.6341 34.5618C46.7442 34.5278 46.8413 34.4605 46.9122 34.3692L46.9241 34.3572L46.7685 34.2488L46.7565 34.2608ZM48.0974 34.044C48.0974 34.143 48.0583 34.238 47.9887 34.308C47.9191 34.378 47.8247 34.4174 47.7263 34.4174C47.6278 34.4174 47.5334 34.378 47.4638 34.308C47.3942 34.238 47.3551 34.143 47.3551 34.044C47.3536 33.9976 47.3612 33.9513 47.3777 33.9078C47.3941 33.8644 47.419 33.8247 47.4509 33.7911C47.5226 33.7197 47.6194 33.6797 47.7203 33.6797C47.8211 33.6797 47.9179 33.7197 47.9896 33.7911C48.0224 33.8243 48.0482 33.8638 48.0654 33.9073C48.0827 33.9507 48.0911 33.9972 48.0902 34.044H48.0974ZM47.7263 33.502C47.6535 33.4988 47.5809 33.5104 47.5127 33.5361C47.4446 33.5619 47.3823 33.6013 47.3297 33.652C47.2771 33.7026 47.2353 33.7635 47.2067 33.8309C47.1782 33.8983 47.1635 33.9708 47.1636 34.044C47.1588 34.1569 47.1877 34.2686 47.2465 34.3648C47.3054 34.461 47.3915 34.5373 47.4938 34.5839C47.5961 34.6304 47.7099 34.6451 47.8206 34.6261C47.9313 34.607 48.0338 34.5551 48.1149 34.477C48.196 34.3989 48.252 34.2981 48.2757 34.1877C48.2994 34.0773 48.2898 33.9622 48.248 33.8574C48.2062 33.7526 48.1342 33.6627 48.0412 33.5993C47.9482 33.536 47.8385 33.5021 47.7263 33.502Z" fill="black"/>
<path d="M41.1541 28.6484L44.0633 28.1425L42.052 26.649L41.1541 28.6484Z" fill="#0065A7"/>
<path d="M42.0639 26.6009L44.0632 28.0583L45.4639 26.7695L42.0639 26.6009Z" fill="#0678AC"/>
<path d="M45.5239 26.6247L46.4218 24.2399L43.2253 24.8903L45.5239 26.6247Z" fill="#2EB56A"/>
<path d="M43.3809 24.7944L46.5774 24.1681L44.3147 23.6502L43.3809 24.7944Z" fill="#A5CE40"/>
<path d="M44.2907 23.5654L46.5654 24.1074L46.7569 21L44.2907 23.5654Z" fill="#F5E431"/>
<path d="M40.5674 26.1188L41.1181 28.5999L42.004 26.5885L40.5674 26.1188Z" fill="#9072B3"/>
<path d="M43.0932 24.9745L40.627 26.0705L41.9798 26.5282L43.0932 24.9745Z" fill="#9360A8"/>
<path d="M41.3692 23.8902L40.627 25.9619L43.2009 24.8538L41.3692 23.8902Z" fill="#DF599C"/>
<path d="M41.4651 23.8304L43.2011 23.7099L44.2187 23.5895L43.4884 22.3248L41.4651 23.8304Z" fill="#F89A29"/>
<path d="M43.5004 22.2044L44.2427 23.4932L46.697 21L43.5004 22.2044Z" fill="#FCBC1B"/>
<path d="M41.4651 23.879L43.2969 24.7944L44.2427 23.6502L41.4651 23.879Z" fill="#F16165"/>
<path d="M43.1653 24.9745L42.0639 26.5523L45.4639 26.733L43.1653 24.9745Z" fill="#1DA6BA"/>
</svg>
