<svg width="99" height="57" viewBox="0 0 99 57" fill="none" xmlns="http://www.w3.org/2000/svg">
<path d="M38.2233 46.5478C34.4443 44.0028 31.5692 40.3285 30.0102 36.0517C28.4512 31.7748 28.2882 27.115 29.5446 22.7399L36.8067 24.8191C35.99 27.6629 36.096 30.6918 37.1093 33.4717C38.1227 36.2517 39.9915 38.64 42.4478 40.2943L38.2233 46.5478Z" fill="#6A0020"/>
<path d="M49.5401 7.14166C52.9444 7.02297 56.3284 7.71041 59.4156 9.14778C62.5028 10.5852 65.2054 12.7317 67.3026 15.4118C69.3997 18.0919 70.8318 21.2295 71.4818 24.5682C72.1317 27.9068 71.9811 31.3516 71.0422 34.621C70.1033 37.8903 68.4028 40.8914 66.0796 43.3789C63.7565 45.8663 60.8768 47.7694 57.6759 48.9327C54.475 50.0959 51.0438 50.4863 47.6629 50.0718C44.2819 49.6573 41.0472 48.4497 38.2233 46.5478L42.4478 40.2943C44.2834 41.5305 46.386 42.3154 48.5836 42.5848C50.7812 42.8542 53.0114 42.6005 55.092 41.8444C57.1726 41.0883 59.0444 39.8512 60.5545 38.2344C62.0645 36.6176 63.1698 34.6669 63.7801 32.5418C64.3904 30.4167 64.4883 28.1776 64.0659 26.0075C63.6434 23.8374 62.7125 21.7979 61.3494 20.0558C59.9862 18.3137 58.2295 16.9185 56.2228 15.9842C54.2162 15.0499 52.0165 14.6031 49.8038 14.6802L49.5401 7.14166Z" fill="#C60909"/>
<path d="M29.5446 22.7401C30.801 18.3651 33.4123 14.4995 37.0042 11.6974C40.5962 8.89533 44.9844 7.30055 49.5399 7.14167L49.8036 14.6803C46.8426 14.7835 43.9902 15.8201 41.6555 17.6415C39.3207 19.4629 37.6233 21.9755 36.8067 24.8192L29.5446 22.7401Z" fill="#D59567"/>
<path d="M37.7872 12.9294L35.2452 9.66608H24.7141" stroke="black" stroke-width="0.145684"/>
<path d="M38.1501 45.2L35.6081 48.4633H25.077" stroke="black" stroke-width="0.145684"/>
<path d="M18.5961 45.3959C18.5812 45.4019 18.5812 45.4093 18.5961 45.4182C18.7359 45.4867 18.843 45.5849 18.9174 45.7128C18.9948 45.8408 19.0349 45.9955 19.0379 46.177C19.0379 46.4448 18.9576 46.6531 18.7969 46.8019C18.6392 46.9506 18.4294 47.025 18.1676 47.025H17.2883C17.2586 47.025 17.2437 47.0101 17.2437 46.9804V43.9454C17.2437 43.9156 17.2586 43.9007 17.2883 43.9007H18.1319C18.4056 43.9007 18.6199 43.9722 18.7746 44.115C18.9293 44.2548 19.0067 44.4557 19.0067 44.7175C19.0067 44.8841 18.971 45.024 18.8996 45.1371C18.8311 45.2501 18.7299 45.3364 18.5961 45.3959ZM17.5784 44.1775C17.5665 44.1775 17.5606 44.1834 17.5606 44.1953V45.271C17.5606 45.2829 17.5665 45.2888 17.5784 45.2888H18.1363C18.3089 45.2888 18.4443 45.2397 18.5425 45.1415C18.6437 45.0433 18.6942 44.9109 18.6942 44.7443C18.6942 44.5687 18.6437 44.4304 18.5425 44.3292C18.4443 44.228 18.3089 44.1775 18.1363 44.1775H17.5784ZM18.1587 46.7438C18.3312 46.7438 18.4681 46.6903 18.5693 46.5832C18.6704 46.476 18.721 46.3302 18.721 46.1458C18.721 45.9583 18.669 45.811 18.5648 45.7039C18.4636 45.5968 18.3253 45.5432 18.1497 45.5432H17.5784C17.5665 45.5432 17.5606 45.5492 17.5606 45.5611V46.726C17.5606 46.7379 17.5665 46.7438 17.5784 46.7438H18.1587ZM21.0581 47.025C21.0313 47.025 21.015 47.0116 21.009 46.9849L20.8617 46.4269C20.8587 46.418 20.8513 46.4136 20.8394 46.4136H19.7727C19.7608 46.4136 19.7533 46.418 19.7504 46.4269L19.6031 46.9849C19.5971 47.0116 19.5808 47.025 19.554 47.025H19.3219C19.307 47.025 19.2951 47.0206 19.2862 47.0116C19.2802 47.0027 19.2787 46.9908 19.2817 46.9759L20.1164 43.9409C20.1223 43.9141 20.1387 43.9007 20.1654 43.9007H20.4511C20.4779 43.9007 20.4942 43.9141 20.5002 43.9409L21.3348 46.9759L21.3393 46.9893C21.3393 47.0131 21.3244 47.025 21.2947 47.025H21.0581ZM19.8262 46.1368C19.8233 46.1398 19.8233 46.1443 19.8262 46.1502C19.8322 46.1532 19.8381 46.1547 19.8441 46.1547H20.768C20.7739 46.1547 20.7784 46.1532 20.7814 46.1502C20.7873 46.1443 20.7888 46.1398 20.7858 46.1368L20.3127 44.3426C20.3098 44.3367 20.3068 44.3337 20.3038 44.3337C20.3008 44.3337 20.2979 44.3367 20.2949 44.3426L19.8262 46.1368ZM22.5804 47.0607C22.3096 47.0607 22.0909 46.9804 21.9243 46.8197C21.7606 46.659 21.6788 46.4463 21.6788 46.1815V44.7398C21.6788 44.475 21.7606 44.2638 21.9243 44.106C22.0909 43.9454 22.3096 43.865 22.5804 43.865C22.8541 43.865 23.0728 43.9439 23.2365 44.1016C23.4031 44.2593 23.4864 44.4691 23.4864 44.7309V44.7711C23.4864 44.8008 23.4716 44.8157 23.4418 44.8157L23.2142 44.8246C23.1844 44.8246 23.1695 44.8112 23.1695 44.7845V44.722C23.1695 44.5494 23.1145 44.4096 23.0044 44.3024C22.8973 44.1953 22.7559 44.1418 22.5804 44.1418C22.4048 44.1418 22.2635 44.1953 22.1564 44.3024C22.0493 44.4066 21.9957 44.5464 21.9957 44.722V46.2038C21.9957 46.3793 22.0493 46.5207 22.1564 46.6278C22.2635 46.7319 22.4048 46.784 22.5804 46.784C22.7559 46.784 22.8973 46.7304 23.0044 46.6233C23.1145 46.5162 23.1695 46.3764 23.1695 46.2038V46.1413C23.1695 46.1145 23.1844 46.1011 23.2142 46.1011L23.4418 46.1145C23.4716 46.1145 23.4864 46.1294 23.4864 46.1592V46.1904C23.4864 46.4522 23.4031 46.6635 23.2365 46.8242C23.0728 46.9819 22.8541 47.0607 22.5804 47.0607ZM24.9431 47.0607C24.7616 47.0607 24.6009 47.0235 24.4611 46.9491C24.3242 46.8718 24.2171 46.7647 24.1397 46.6278C24.0653 46.4909 24.0281 46.3332 24.0281 46.1547V44.7755C24.0281 44.597 24.0653 44.4393 24.1397 44.3024C24.2171 44.1626 24.3242 44.0555 24.4611 43.9811C24.6009 43.9037 24.7616 43.865 24.9431 43.865C25.1246 43.865 25.2838 43.9037 25.4207 43.9811C25.5605 44.0555 25.6691 44.1626 25.7465 44.3024C25.8238 44.4393 25.8625 44.597 25.8625 44.7755V46.1547C25.8625 46.3332 25.8238 46.4909 25.7465 46.6278C25.6691 46.7647 25.5605 46.8718 25.4207 46.9491C25.2838 47.0235 25.1246 47.0607 24.9431 47.0607ZM24.9431 46.784C25.1246 46.784 25.2704 46.7275 25.3805 46.6144C25.4906 46.5013 25.5456 46.3526 25.5456 46.1681V44.7666C25.5456 44.5792 25.4906 44.4289 25.3805 44.3158C25.2704 44.1998 25.1246 44.1418 24.9431 44.1418C24.7646 44.1418 24.6203 44.1998 24.5102 44.3158C24.4001 44.4289 24.345 44.5792 24.345 44.7666V46.1681C24.345 46.3526 24.4001 46.5013 24.5102 46.6144C24.6203 46.7275 24.7646 46.784 24.9431 46.784ZM28.0721 43.9454C28.0721 43.9156 28.087 43.9007 28.1168 43.9007H28.3444C28.3741 43.9007 28.389 43.9156 28.389 43.9454V46.9804C28.389 47.0101 28.3741 47.025 28.3444 47.025H28.1034C28.0766 47.025 28.0587 47.0146 28.0498 46.9938L26.8537 44.6059C26.8477 44.6 26.8417 44.597 26.8358 44.597C26.8328 44.597 26.8313 44.6015 26.8313 44.6104L26.8358 46.9804C26.8358 47.0101 26.8209 47.025 26.7912 47.025H26.5635C26.5338 47.025 26.5189 47.0101 26.5189 46.9804V43.9454C26.5189 43.9156 26.5338 43.9007 26.5635 43.9007H26.8046C26.8313 43.9007 26.8492 43.9112 26.8581 43.932L28.0543 46.3288C28.0602 46.3347 28.0647 46.3377 28.0677 46.3377C28.0736 46.3377 28.0766 46.3332 28.0766 46.3243L28.0721 43.9454ZM29.8581 45.9003C29.8284 45.9003 29.8135 45.8854 29.8135 45.8556V45.6682C29.8135 45.6384 29.8284 45.6236 29.8581 45.6236H32.2995C32.3293 45.6236 32.3442 45.6384 32.3442 45.6682V45.8556C32.3442 45.8854 32.3293 45.9003 32.2995 45.9003H29.8581ZM17.4936 51.726C17.4847 51.7409 17.4877 51.7483 17.5026 51.7483H18.7299C18.7597 51.7483 18.7746 51.7632 18.7746 51.7929V51.9804C18.7746 52.0101 18.7597 52.025 18.7299 52.025H17.141C17.1113 52.025 17.0964 52.0101 17.0964 51.9804V51.784C17.0964 51.7662 17.1023 51.7468 17.1142 51.726C17.382 51.363 17.6811 50.9464 18.0114 50.4763C18.2464 50.1341 18.364 49.8603 18.364 49.655C18.364 49.5003 18.3193 49.3768 18.2301 49.2846C18.1408 49.1894 18.0233 49.1418 17.8775 49.1418C17.7346 49.1418 17.6201 49.1894 17.5338 49.2846C17.4475 49.3768 17.4058 49.5003 17.4088 49.655V49.8068C17.4088 49.8365 17.3939 49.8514 17.3642 49.8514H17.1321C17.1023 49.8514 17.0875 49.8365 17.0875 49.8068V49.6283C17.0934 49.3991 17.1693 49.2147 17.3151 49.0748C17.4639 48.935 17.6543 48.865 17.8864 48.865C18.1244 48.865 18.3164 48.9379 18.4622 49.0837C18.608 49.2295 18.6809 49.42 18.6809 49.655C18.6809 49.9169 18.5589 50.2263 18.3149 50.5834C18.1631 50.8036 17.9236 51.1368 17.5963 51.5832L17.4936 51.726ZM20.0857 52.0697C19.8298 52.0697 19.6245 51.9923 19.4697 51.8376C19.315 51.6828 19.2376 51.476 19.2376 51.2172V49.7086C19.2376 49.4527 19.315 49.2474 19.4697 49.0927C19.6245 48.9379 19.8298 48.8606 20.0857 48.8606C20.3445 48.8606 20.5513 48.9379 20.7061 49.0927C20.8638 49.2474 20.9426 49.4527 20.9426 49.7086V51.2172C20.9426 51.476 20.8638 51.6828 20.7061 51.8376C20.5513 51.9923 20.3445 52.0697 20.0857 52.0697ZM20.0857 51.7929C20.2493 51.7929 20.3802 51.7424 20.4784 51.6412C20.5766 51.54 20.6257 51.4061 20.6257 51.2395V49.6907C20.6257 49.5241 20.5766 49.3902 20.4784 49.289C20.3802 49.1879 20.2493 49.1373 20.0857 49.1373C19.928 49.1373 19.8 49.1879 19.7018 49.289C19.6036 49.3902 19.5545 49.5241 19.5545 49.6907V51.2395C19.5545 51.4031 19.6036 51.537 19.7018 51.6412C19.8 51.7424 19.928 51.7929 20.0857 51.7929ZM22.2187 50.1281C22.1026 50.1281 21.9955 50.0999 21.8973 50.0433C21.8021 49.9868 21.7262 49.9109 21.6697 49.8157C21.6132 49.7175 21.5849 49.6104 21.5849 49.4944C21.5849 49.3783 21.6132 49.2727 21.6697 49.1775C21.7262 49.0793 21.8021 49.0019 21.8973 48.9454C21.9955 48.8888 22.1026 48.8606 22.2187 48.8606C22.3318 48.8606 22.4359 48.8888 22.5311 48.9454C22.6293 49.0019 22.7067 49.0793 22.7632 49.1775C22.8197 49.2727 22.848 49.3783 22.848 49.4944C22.848 49.6104 22.8197 49.7175 22.7632 49.8157C22.7067 49.9109 22.6293 49.9868 22.5311 50.0433C22.4359 50.0999 22.3318 50.1281 22.2187 50.1281ZM22.116 52.025C22.1012 52.025 22.0893 52.0206 22.0803 52.0116C22.0744 51.9997 22.0759 51.9863 22.0848 51.9715L23.7451 48.932C23.7541 48.9112 23.7719 48.9007 23.7987 48.9007H23.9415C23.9564 48.9007 23.9668 48.9067 23.9728 48.9186C23.9817 48.9275 23.9817 48.9394 23.9728 48.9543L22.3124 51.9938C22.3035 52.0146 22.2856 52.025 22.2589 52.025H22.116ZM22.2187 49.9318C22.3377 49.9318 22.4374 49.8901 22.5177 49.8068C22.601 49.7205 22.6427 49.6163 22.6427 49.4944C22.6427 49.3724 22.601 49.2697 22.5177 49.1864C22.4374 49.1001 22.3377 49.057 22.2187 49.057C22.0997 49.057 21.9985 49.1001 21.9152 49.1864C21.8319 49.2697 21.7902 49.3724 21.7902 49.4944C21.7902 49.6163 21.8319 49.7205 21.9152 49.8068C21.9985 49.8901 22.0997 49.9318 22.2187 49.9318ZM23.8567 52.0652C23.7407 52.0652 23.6335 52.0369 23.5354 51.9804C23.4401 51.9239 23.3643 51.8465 23.3077 51.7483C23.2512 51.6501 23.2229 51.543 23.2229 51.4269C23.2229 51.3139 23.2512 51.2097 23.3077 51.1145C23.3643 51.0163 23.4401 50.939 23.5354 50.8824C23.6335 50.8259 23.7407 50.7976 23.8567 50.7976C23.9698 50.7976 24.0739 50.8259 24.1691 50.8824C24.2673 50.939 24.3447 51.0163 24.4012 51.1145C24.4578 51.2097 24.486 51.3139 24.486 51.4269C24.486 51.543 24.4578 51.6501 24.4012 51.7483C24.3447 51.8465 24.2673 51.9239 24.1691 51.9804C24.0739 52.0369 23.9698 52.0652 23.8567 52.0652ZM23.8567 51.8688C23.9757 51.8688 24.0754 51.8257 24.1557 51.7394C24.2391 51.6531 24.2807 51.5489 24.2807 51.4269C24.2807 51.305 24.2391 51.2023 24.1557 51.119C24.0754 51.0357 23.9757 50.994 23.8567 50.994C23.7377 50.994 23.6365 51.0357 23.5532 51.119C23.4699 51.2023 23.4282 51.305 23.4282 51.4269C23.4282 51.5519 23.4684 51.6575 23.5487 51.7438C23.6321 51.8272 23.7347 51.8688 23.8567 51.8688Z" fill="#404040"/>
<path d="M2.86995 8.41089C2.84614 8.41089 2.82978 8.39899 2.82085 8.37518L2.26741 6.99603C2.26443 6.98711 2.25848 6.98264 2.24955 6.98264H1.67379C1.66189 6.98264 1.65594 6.98859 1.65594 7.0005V8.36626C1.65594 8.39601 1.64106 8.41089 1.61131 8.41089H1.38368C1.35393 8.41089 1.33905 8.39601 1.33905 8.36626V5.33123C1.33905 5.30148 1.35393 5.2866 1.38368 5.2866H2.32989C2.48462 5.2866 2.62149 5.32231 2.74051 5.39372C2.86251 5.46513 2.95624 5.5663 3.0217 5.69722C3.09014 5.82815 3.12436 5.97841 3.12436 6.14801C3.12436 6.35035 3.07526 6.52293 2.97707 6.66575C2.87888 6.80858 2.74498 6.90379 2.57537 6.9514C2.56347 6.95735 2.5605 6.96479 2.56645 6.97372L3.14221 8.35733L3.14667 8.37518C3.14667 8.39899 3.13328 8.41089 3.1065 8.41089H2.86995ZM1.67379 5.56332C1.66189 5.56332 1.65594 5.56928 1.65594 5.58118V6.71038C1.65594 6.72229 1.66189 6.72824 1.67379 6.72824H2.28972C2.44445 6.72824 2.56942 6.67468 2.66464 6.56756C2.75986 6.46044 2.80746 6.32059 2.80746 6.14801C2.80746 5.97246 2.75986 5.83112 2.66464 5.724C2.56942 5.61688 2.44445 5.56332 2.28972 5.56332H1.67379ZM4.26517 8.40643C4.23542 8.40643 4.22054 8.39155 4.22054 8.36179V7.03174C4.22054 7.01984 4.21905 7.0124 4.21608 7.00942L3.44393 5.34016L3.43947 5.32231C3.43947 5.2985 3.45286 5.2866 3.47964 5.2866H3.72065C3.74446 5.2866 3.76082 5.2985 3.76975 5.32231L4.36783 6.65682C4.3708 6.66278 4.37527 6.66575 4.38122 6.66575C4.38717 6.66575 4.39163 6.66278 4.39461 6.65682L4.99269 5.32231C5.00161 5.2985 5.01798 5.2866 5.04178 5.2866H5.2828C5.29768 5.2866 5.30809 5.29255 5.31404 5.30446C5.32297 5.31338 5.32445 5.32528 5.3185 5.34016L4.5419 7.00942C4.53892 7.0124 4.53743 7.01984 4.53743 7.03174V8.36179C4.53743 8.39155 4.52255 8.40643 4.4928 8.40643H4.26517ZM7.49888 5.51869C7.49888 5.54845 7.484 5.56332 7.45425 5.56332H6.11527C6.10336 5.56332 6.09741 5.56928 6.09741 5.58118V6.68807C6.09741 6.69997 6.10336 6.70592 6.11527 6.70592H7.01685C7.0466 6.70592 7.06148 6.7208 7.06148 6.75055V6.93801C7.06148 6.96777 7.0466 6.98264 7.01685 6.98264H6.11527C6.10336 6.98264 6.09741 6.98859 6.09741 7.0005V8.11631C6.09741 8.12822 6.10336 8.13417 6.11527 8.13417H7.45425C7.484 8.13417 7.49888 8.14904 7.49888 8.1788V8.36626C7.49888 8.39601 7.484 8.41089 7.45425 8.41089H5.82515C5.7954 8.41089 5.78052 8.39601 5.78052 8.36626V5.33123C5.78052 5.30148 5.7954 5.2866 5.82515 5.2866H7.45425C7.484 5.2866 7.49888 5.30148 7.49888 5.33123V5.51869ZM10.3321 6.7818C10.3173 6.78775 10.3173 6.79519 10.3321 6.80411C10.472 6.87255 10.5791 6.97074 10.6535 7.09869C10.7309 7.22664 10.771 7.38136 10.774 7.56287C10.774 7.83066 10.6937 8.03895 10.533 8.18773C10.3753 8.3365 10.1655 8.41089 9.90367 8.41089H9.02441C8.99465 8.41089 8.97978 8.39601 8.97978 8.36626V5.33123C8.97978 5.30148 8.99465 5.2866 9.02441 5.2866H9.86797C10.1417 5.2866 10.356 5.35801 10.5107 5.50084C10.6654 5.64069 10.7428 5.84153 10.7428 6.10338C10.7428 6.27001 10.7071 6.40986 10.6356 6.52293C10.5672 6.636 10.466 6.72229 10.3321 6.7818ZM9.31452 5.56332C9.30262 5.56332 9.29667 5.56928 9.29667 5.58118V6.65682C9.29667 6.66873 9.30262 6.67468 9.31452 6.67468H9.87243C10.045 6.67468 10.1804 6.62558 10.2786 6.52739C10.3798 6.4292 10.4303 6.29679 10.4303 6.13016C10.4303 5.9546 10.3798 5.81624 10.2786 5.71508C10.1804 5.61391 10.045 5.56332 9.87243 5.56332H9.31452ZM9.89475 8.1297C10.0673 8.1297 10.2042 8.07614 10.3054 7.96903C10.4065 7.86191 10.4571 7.71611 10.4571 7.53163C10.4571 7.34417 10.405 7.19688 10.3009 7.08976C10.1997 6.98264 10.0614 6.92908 9.88582 6.92908H9.31452C9.30262 6.92908 9.29667 6.93504 9.29667 6.94694V8.11185C9.29667 8.12375 9.30262 8.1297 9.31452 8.1297H9.89475ZM12.9123 8.41089C12.8885 8.41089 12.8721 8.39899 12.8632 8.37518L12.3098 6.99603C12.3068 6.98711 12.3008 6.98264 12.2919 6.98264H11.7161C11.7042 6.98264 11.6983 6.98859 11.6983 7.0005V8.36626C11.6983 8.39601 11.6834 8.41089 11.6537 8.41089H11.426C11.3963 8.41089 11.3814 8.39601 11.3814 8.36626V5.33123C11.3814 5.30148 11.3963 5.2866 11.426 5.2866H12.3722C12.527 5.2866 12.6638 5.32231 12.7829 5.39372C12.9049 5.46513 12.9986 5.5663 13.064 5.69722C13.1325 5.82815 13.1667 5.97841 13.1667 6.14801C13.1667 6.35035 13.1176 6.52293 13.0194 6.66575C12.9212 6.80858 12.7873 6.90379 12.6177 6.9514C12.6058 6.95735 12.6028 6.96479 12.6088 6.97372L13.1846 8.35733L13.189 8.37518C13.189 8.39899 13.1756 8.41089 13.1489 8.41089H12.9123ZM11.7161 5.56332C11.7042 5.56332 11.6983 5.56928 11.6983 5.58118V6.71038C11.6983 6.72229 11.7042 6.72824 11.7161 6.72824H12.3321C12.4868 6.72824 12.6118 6.67468 12.707 6.56756C12.8022 6.46044 12.8498 6.32059 12.8498 6.14801C12.8498 5.97246 12.8022 5.83112 12.707 5.724C12.6118 5.61688 12.4868 5.56332 12.3321 5.56332H11.7161ZM15.4578 5.51869C15.4578 5.54845 15.4429 5.56332 15.4132 5.56332H14.0742C14.0623 5.56332 14.0563 5.56928 14.0563 5.58118V6.68807C14.0563 6.69997 14.0623 6.70592 14.0742 6.70592H14.9758C15.0055 6.70592 15.0204 6.7208 15.0204 6.75055V6.93801C15.0204 6.96777 15.0055 6.98264 14.9758 6.98264H14.0742C14.0623 6.98264 14.0563 6.98859 14.0563 7.0005V8.11631C14.0563 8.12822 14.0623 8.13417 14.0742 8.13417H15.4132C15.4429 8.13417 15.4578 8.14904 15.4578 8.1788V8.36626C15.4578 8.39601 15.4429 8.41089 15.4132 8.41089H13.7841C13.7543 8.41089 13.7394 8.39601 13.7394 8.36626V5.33123C13.7394 5.30148 13.7543 5.2866 13.7841 5.2866H15.4132C15.4429 5.2866 15.4578 5.30148 15.4578 5.33123V5.51869ZM17.6105 8.41089C17.5837 8.41089 17.5674 8.3975 17.5614 8.37072L17.4141 7.81281C17.4112 7.80388 17.4037 7.79942 17.3918 7.79942H16.3251C16.3132 7.79942 16.3058 7.80388 16.3028 7.81281L16.1555 8.37072C16.1495 8.3975 16.1332 8.41089 16.1064 8.41089H15.8743C15.8594 8.41089 15.8475 8.40643 15.8386 8.3975C15.8326 8.38857 15.8312 8.37667 15.8341 8.36179L16.6688 5.32677C16.6747 5.29999 16.6911 5.2866 16.7179 5.2866H17.0035C17.0303 5.2866 17.0467 5.29999 17.0526 5.32677L17.8872 8.36179L17.8917 8.37518C17.8917 8.39899 17.8768 8.41089 17.8471 8.41089H17.6105ZM16.3787 7.5227C16.3757 7.52567 16.3757 7.53014 16.3787 7.53609C16.3846 7.53906 16.3906 7.54055 16.3965 7.54055H17.3204C17.3264 7.54055 17.3308 7.53906 17.3338 7.53609C17.3397 7.53014 17.3412 7.52567 17.3383 7.5227L16.8651 5.72847C16.8622 5.72251 16.8592 5.71954 16.8562 5.71954C16.8532 5.71954 16.8503 5.72251 16.8473 5.72847L16.3787 7.5227ZM18.4086 8.41089C18.3788 8.41089 18.364 8.39601 18.364 8.36626V5.33123C18.364 5.30148 18.3788 5.2866 18.4086 5.2866H19.2789C19.5438 5.2866 19.752 5.36248 19.9038 5.51423C20.0585 5.66598 20.1359 5.87278 20.1359 6.13462V7.56287C20.1359 7.82471 20.0585 8.03151 19.9038 8.18326C19.752 8.33501 19.5438 8.41089 19.2789 8.41089H18.4086ZM18.6809 8.11631C18.6809 8.12822 18.6868 8.13417 18.6987 8.13417H19.2834C19.4471 8.13119 19.5765 8.07763 19.6717 7.97349C19.7669 7.86637 19.816 7.72057 19.819 7.53609V6.1614C19.819 5.97692 19.7714 5.83112 19.6762 5.724C19.581 5.61688 19.45 5.56332 19.2834 5.56332H18.6987C18.6868 5.56332 18.6809 5.56928 18.6809 5.58118V8.11631ZM21.5114 7.28615C21.4817 7.28615 21.4668 7.27127 21.4668 7.24151V7.05406C21.4668 7.0243 21.4817 7.00942 21.5114 7.00942H23.9528C23.9826 7.00942 23.9974 7.0243 23.9974 7.05406V7.24151C23.9974 7.27127 23.9826 7.28615 23.9528 7.28615H21.5114ZM25.6706 8.11185C25.6617 8.12673 25.6646 8.13417 25.6795 8.13417H26.9069C26.9367 8.13417 26.9515 8.14904 26.9515 8.1788V8.36626C26.9515 8.39601 26.9367 8.41089 26.9069 8.41089H25.318C25.2882 8.41089 25.2733 8.39601 25.2733 8.36626V8.16987C25.2733 8.15202 25.2793 8.13268 25.2912 8.11185C25.559 7.74884 25.858 7.33227 26.1883 6.86214C26.4234 6.51995 26.5409 6.2462 26.5409 6.04089C26.5409 5.88617 26.4963 5.76268 26.407 5.67044C26.3178 5.57523 26.2002 5.52762 26.0544 5.52762C25.9116 5.52762 25.797 5.57523 25.7107 5.67044C25.6245 5.76268 25.5828 5.88617 25.5858 6.04089V6.19265C25.5858 6.2224 25.5709 6.23728 25.5411 6.23728H25.3091C25.2793 6.23728 25.2644 6.2224 25.2644 6.19265V6.01411C25.2704 5.785 25.3462 5.60052 25.492 5.46067C25.6408 5.32082 25.8313 5.2509 26.0633 5.2509C26.3014 5.2509 26.4933 5.3238 26.6391 5.4696C26.7849 5.6154 26.8578 5.80583 26.8578 6.04089C26.8578 6.30274 26.7358 6.61219 26.4918 6.96925C26.3401 7.18944 26.1005 7.5227 25.7732 7.96903L25.6706 8.11185ZM28.2626 8.45552C28.0067 8.45552 27.8014 8.37816 27.6467 8.22343C27.492 8.0687 27.4146 7.86191 27.4146 7.60304V6.09445C27.4146 5.83856 27.492 5.63325 27.6467 5.47852C27.8014 5.3238 28.0067 5.24643 28.2626 5.24643C28.5215 5.24643 28.7283 5.3238 28.883 5.47852C29.0407 5.63325 29.1196 5.83856 29.1196 6.09445V7.60304C29.1196 7.86191 29.0407 8.0687 28.883 8.22343C28.7283 8.37816 28.5215 8.45552 28.2626 8.45552ZM28.2626 8.1788C28.4263 8.1788 28.5572 8.12822 28.6554 8.02705C28.7536 7.92588 28.8027 7.79198 28.8027 7.62535V6.0766C28.8027 5.90997 28.7536 5.77607 28.6554 5.67491C28.5572 5.57374 28.4263 5.52316 28.2626 5.52316C28.1049 5.52316 27.977 5.57374 27.8788 5.67491C27.7806 5.77607 27.7315 5.90997 27.7315 6.0766V7.62535C27.7315 7.78901 27.7806 7.9229 27.8788 8.02705C27.977 8.12822 28.1049 8.1788 28.2626 8.1788ZM30.3956 6.514C30.2796 6.514 30.1725 6.48573 30.0743 6.4292C29.9791 6.37266 29.9032 6.29679 29.8467 6.20157C29.7901 6.10338 29.7619 5.99626 29.7619 5.88022C29.7619 5.76417 29.7901 5.65854 29.8467 5.56332C29.9032 5.46513 29.9791 5.38777 30.0743 5.33123C30.1725 5.2747 30.2796 5.24643 30.3956 5.24643C30.5087 5.24643 30.6129 5.2747 30.7081 5.33123C30.8063 5.38777 30.8836 5.46513 30.9402 5.56332C30.9967 5.65854 31.025 5.76417 31.025 5.88022C31.025 5.99626 30.9967 6.10338 30.9402 6.20157C30.8836 6.29679 30.8063 6.37266 30.7081 6.4292C30.6129 6.48573 30.5087 6.514 30.3956 6.514ZM30.293 8.41089C30.2781 8.41089 30.2662 8.40643 30.2573 8.3975C30.2513 8.3856 30.2528 8.37221 30.2617 8.35733L31.9221 5.31784C31.931 5.29702 31.9489 5.2866 31.9756 5.2866H32.1185C32.1333 5.2866 32.1438 5.29255 32.1497 5.30446C32.1586 5.31338 32.1586 5.32528 32.1497 5.34016L30.4894 8.37965C30.4804 8.40047 30.4626 8.41089 30.4358 8.41089H30.293ZM30.3956 6.31762C30.5147 6.31762 30.6143 6.27596 30.6947 6.19265C30.778 6.10636 30.8197 6.00221 30.8197 5.88022C30.8197 5.75822 30.778 5.65557 30.6947 5.57225C30.6143 5.48596 30.5147 5.44282 30.3956 5.44282C30.2766 5.44282 30.1755 5.48596 30.0921 5.57225C30.0088 5.65557 29.9672 5.75822 29.9672 5.88022C29.9672 6.00221 30.0088 6.10636 30.0921 6.19265C30.1755 6.27596 30.2766 6.31762 30.3956 6.31762ZM32.0337 8.45106C31.9176 8.45106 31.8105 8.42279 31.7123 8.36626C31.6171 8.30972 31.5412 8.23236 31.4847 8.13417C31.4281 8.03597 31.3999 7.92886 31.3999 7.81281C31.3999 7.69974 31.4281 7.5956 31.4847 7.50038C31.5412 7.40219 31.6171 7.32483 31.7123 7.26829C31.8105 7.21176 31.9176 7.18349 32.0337 7.18349C32.1467 7.18349 32.2509 7.21176 32.3461 7.26829C32.4443 7.32483 32.5216 7.40219 32.5782 7.50038C32.6347 7.5956 32.663 7.69974 32.663 7.81281C32.663 7.92886 32.6347 8.03597 32.5782 8.13417C32.5216 8.23236 32.4443 8.30972 32.3461 8.36626C32.2509 8.42279 32.1467 8.45106 32.0337 8.45106ZM32.0337 8.25467C32.1527 8.25467 32.2524 8.21153 32.3327 8.12524C32.416 8.03895 32.4577 7.93481 32.4577 7.81281C32.4577 7.69081 32.416 7.58816 32.3327 7.50485C32.2524 7.42153 32.1527 7.37987 32.0337 7.37987C31.9146 7.37987 31.8135 7.42153 31.7302 7.50485C31.6468 7.58816 31.6052 7.69081 31.6052 7.81281C31.6052 7.93778 31.6454 8.04341 31.7257 8.1297C31.809 8.21302 31.9117 8.25467 32.0337 8.25467Z" fill="#404040"/>
<path d="M65.906 42.2676L68.448 45.5309H78.9791" stroke="black" stroke-width="0.145684"/>
<path d="M70.8804 44.1279C70.6096 44.1279 70.3909 44.049 70.2243 43.8913C70.0607 43.7336 69.9788 43.5238 69.9788 43.262V41.798C69.9788 41.5362 70.0607 41.3264 70.2243 41.1687C70.3909 41.011 70.6096 40.9322 70.8804 40.9322C71.0589 40.9322 71.2152 40.9679 71.349 41.0393C71.4859 41.1107 71.5916 41.2104 71.6659 41.3383C71.7433 41.4663 71.782 41.6136 71.782 41.7802V41.9052C71.782 41.9349 71.7671 41.9498 71.7374 41.9498H71.5097C71.48 41.9498 71.4651 41.9349 71.4651 41.9052V41.7802C71.4651 41.6106 71.4115 41.4737 71.3044 41.3696C71.1973 41.2625 71.056 41.2089 70.8804 41.2089C70.7049 41.2089 70.5635 41.2625 70.4564 41.3696C70.3493 41.4737 70.2957 41.6136 70.2957 41.7891V43.2709C70.2957 43.4435 70.3493 43.5834 70.4564 43.6905C70.5665 43.7976 70.7093 43.8511 70.8849 43.8511C71.0604 43.8511 71.2003 43.8006 71.3044 43.6994C71.4115 43.5982 71.4651 43.4614 71.4651 43.2888V42.8023C71.4651 42.7904 71.4591 42.7844 71.4472 42.7844H70.925C70.8953 42.7844 70.8804 42.7695 70.8804 42.7398V42.5523C70.8804 42.5226 70.8953 42.5077 70.925 42.5077H71.7374C71.7671 42.5077 71.782 42.5226 71.782 42.5523V43.2486C71.782 43.5194 71.7002 43.7336 71.5365 43.8913C71.3729 44.049 71.1542 44.1279 70.8804 44.1279ZM73.9434 44.0922C73.9166 44.0922 73.9003 44.0788 73.8943 44.052L73.747 43.4941C73.7441 43.4852 73.7366 43.4807 73.7247 43.4807H72.658C72.6461 43.4807 72.6387 43.4852 72.6357 43.4941L72.4884 44.052C72.4825 44.0788 72.4661 44.0922 72.4393 44.0922H72.2072C72.1923 44.0922 72.1804 44.0877 72.1715 44.0788C72.1656 44.0698 72.1641 44.0579 72.167 44.0431L73.0017 41.008C73.0076 40.9813 73.024 40.9679 73.0508 40.9679H73.3364C73.3632 40.9679 73.3796 40.9813 73.3855 41.008L74.2201 44.0431L74.2246 44.0565C74.2246 44.0803 74.2097 44.0922 74.18 44.0922H73.9434ZM72.7116 43.204C72.7086 43.2069 72.7086 43.2114 72.7116 43.2174C72.7175 43.2203 72.7235 43.2218 72.7294 43.2218H73.6533C73.6593 43.2218 73.6637 43.2203 73.6667 43.2174C73.6727 43.2114 73.6741 43.2069 73.6712 43.204L73.1981 41.4097C73.1951 41.4038 73.1921 41.4008 73.1891 41.4008C73.1862 41.4008 73.1832 41.4038 73.1802 41.4097L72.7116 43.204ZM74.5931 44.0922C74.5633 44.0922 74.5484 44.0773 74.5484 44.0475V43.8378C74.5484 43.8199 74.5529 43.8006 74.5618 43.7797L75.9187 41.2669C75.9246 41.252 75.9216 41.2446 75.9097 41.2446H74.5931C74.5633 41.2446 74.5484 41.2297 74.5484 41.2V41.0125C74.5484 40.9828 74.5633 40.9679 74.5931 40.9679H76.2311C76.2608 40.9679 76.2757 40.9828 76.2757 41.0125V41.2223C76.2757 41.2372 76.2713 41.2565 76.2623 41.2803L74.9055 43.7931C74.8996 43.808 74.9025 43.8154 74.9144 43.8154H76.2311C76.2608 43.8154 76.2757 43.8303 76.2757 43.8601V44.0475C76.2757 44.0773 76.2608 44.0922 76.2311 44.0922H74.5931ZM77.832 40.9634C78.07 40.9634 78.2619 41.0438 78.4077 41.2044C78.5565 41.3621 78.6309 41.5719 78.6309 41.8338C78.6309 42.0926 78.5565 42.3009 78.4077 42.4586C78.2619 42.6133 78.07 42.6907 77.832 42.6907H77.167C77.155 42.6907 77.1491 42.6966 77.1491 42.7086V44.0475C77.1491 44.0773 77.1342 44.0922 77.1045 44.0922H76.8768C76.8471 44.0922 76.8322 44.0773 76.8322 44.0475V41.008C76.8322 40.9783 76.8471 40.9634 76.8768 40.9634H77.832ZM77.7918 42.4274C77.9495 42.4274 78.076 42.3738 78.1712 42.2667C78.2664 42.1596 78.314 42.0167 78.314 41.8382C78.314 41.6567 78.2664 41.5124 78.1712 41.4053C78.076 41.2952 77.9495 41.2401 77.7918 41.2401H77.167C77.155 41.2401 77.1491 41.2461 77.1491 41.258V42.4095C77.1491 42.4214 77.155 42.4274 77.167 42.4274H77.7918ZM80.5599 44.0922C80.5331 44.0922 80.5167 44.0788 80.5108 44.052L80.3635 43.4941C80.3605 43.4852 80.3531 43.4807 80.3412 43.4807H79.2744C79.2625 43.4807 79.2551 43.4852 79.2521 43.4941L79.1048 44.052C79.0989 44.0788 79.0825 44.0922 79.0557 44.0922H78.8237C78.8088 44.0922 78.7969 44.0877 78.788 44.0788C78.782 44.0698 78.7805 44.0579 78.7835 44.0431L79.6181 41.008C79.6241 40.9813 79.6404 40.9679 79.6672 40.9679H79.9529C79.9796 40.9679 79.996 40.9813 80.002 41.008L80.8366 44.0431L80.8411 44.0565C80.8411 44.0803 80.8262 44.0922 80.7964 44.0922H80.5599ZM79.328 43.204C79.325 43.2069 79.325 43.2114 79.328 43.2174C79.334 43.2203 79.3399 43.2218 79.3459 43.2218H80.2698C80.2757 43.2218 80.2802 43.2203 80.2831 43.2174C80.2891 43.2114 80.2906 43.2069 80.2876 43.204L79.8145 41.4097C79.8115 41.4038 79.8086 41.4008 79.8056 41.4008C79.8026 41.4008 79.7996 41.4038 79.7967 41.4097L79.328 43.204ZM82.0822 44.1279C81.8114 44.1279 81.5927 44.0475 81.4261 43.8869C81.2624 43.7262 81.1806 43.5134 81.1806 43.2486V41.807C81.1806 41.5422 81.2624 41.3309 81.4261 41.1732C81.5927 41.0125 81.8114 40.9322 82.0822 40.9322C82.3559 40.9322 82.5746 41.011 82.7383 41.1687C82.9049 41.3264 82.9882 41.5362 82.9882 41.798V41.8382C82.9882 41.868 82.9733 41.8828 82.9436 41.8828L82.7159 41.8918C82.6862 41.8918 82.6713 41.8784 82.6713 41.8516V41.7891C82.6713 41.6165 82.6163 41.4767 82.5062 41.3696C82.399 41.2625 82.2577 41.2089 82.0822 41.2089C81.9066 41.2089 81.7653 41.2625 81.6581 41.3696C81.551 41.4737 81.4975 41.6136 81.4975 41.7891V43.2709C81.4975 43.4465 81.551 43.5878 81.6581 43.6949C81.7653 43.7991 81.9066 43.8511 82.0822 43.8511C82.2577 43.8511 82.399 43.7976 82.5062 43.6905C82.6163 43.5834 82.6713 43.4435 82.6713 43.2709V43.2084C82.6713 43.1817 82.6862 43.1683 82.7159 43.1683L82.9436 43.1817C82.9733 43.1817 82.9882 43.1965 82.9882 43.2263V43.2575C82.9882 43.5194 82.9049 43.7306 82.7383 43.8913C82.5746 44.049 82.3559 44.1279 82.0822 44.1279ZM85.0742 41.0125C85.0742 40.9828 85.0891 40.9679 85.1188 40.9679H85.3464C85.3762 40.9679 85.3911 40.9828 85.3911 41.0125V44.0475C85.3911 44.0773 85.3762 44.0922 85.3464 44.0922H85.1188C85.0891 44.0922 85.0742 44.0773 85.0742 44.0475V42.6818C85.0742 42.6699 85.0682 42.6639 85.0563 42.6639H83.9494C83.9375 42.6639 83.9316 42.6699 83.9316 42.6818V44.0475C83.9316 44.0773 83.9167 44.0922 83.887 44.0922H83.6593C83.6296 44.0922 83.6147 44.0773 83.6147 44.0475V41.0125C83.6147 40.9828 83.6296 40.9679 83.6593 40.9679H83.887C83.9167 40.9679 83.9316 40.9828 83.9316 41.0125V42.3693C83.9316 42.3812 83.9375 42.3872 83.9494 42.3872H85.0563C85.0682 42.3872 85.0742 42.3812 85.0742 42.3693V41.0125ZM86.9598 44.1279C86.7783 44.1279 86.6176 44.0907 86.4778 44.0163C86.3409 43.9389 86.2338 43.8318 86.1564 43.6949C86.082 43.5581 86.0448 43.4004 86.0448 43.2218V41.8427C86.0448 41.6641 86.082 41.5064 86.1564 41.3696C86.2338 41.2297 86.3409 41.1226 86.4778 41.0482C86.6176 40.9709 86.7783 40.9322 86.9598 40.9322C87.1413 40.9322 87.3005 40.9709 87.4374 41.0482C87.5772 41.1226 87.6858 41.2297 87.7632 41.3696C87.8406 41.5064 87.8792 41.6641 87.8792 41.8427V43.2218C87.8792 43.4004 87.8406 43.5581 87.7632 43.6949C87.6858 43.8318 87.5772 43.9389 87.4374 44.0163C87.3005 44.0907 87.1413 44.1279 86.9598 44.1279ZM86.9598 43.8511C87.1413 43.8511 87.2871 43.7946 87.3972 43.6815C87.5073 43.5685 87.5624 43.4197 87.5624 43.2352V41.8338C87.5624 41.6463 87.5073 41.496 87.3972 41.383C87.2871 41.2669 87.1413 41.2089 86.9598 41.2089C86.7813 41.2089 86.637 41.2669 86.5269 41.383C86.4168 41.496 86.3617 41.6463 86.3617 41.8338V43.2352C86.3617 43.4197 86.4168 43.5685 86.5269 43.6815C86.637 43.7946 86.7813 43.8511 86.9598 43.8511ZM89.264 42.9674C89.2343 42.9674 89.2194 42.9525 89.2194 42.9228V42.7353C89.2194 42.7056 89.2343 42.6907 89.264 42.6907H91.7054C91.7352 42.6907 91.75 42.7056 91.75 42.7353V42.9228C91.75 42.9525 91.7352 42.9674 91.7054 42.9674H89.264ZM71.5008 47.6818C71.5425 47.7978 71.5633 47.9496 71.5633 48.137C71.5633 48.2977 71.5484 48.4271 71.5187 48.5253C71.474 48.7187 71.3877 48.8675 71.2598 48.9717C71.1318 49.0758 70.9667 49.1279 70.7644 49.1279C70.5739 49.1279 70.4147 49.0803 70.2868 48.985C70.1618 48.8869 70.074 48.75 70.0235 48.5744C69.9788 48.4435 69.9565 48.2992 69.9565 48.1415V46.7132C69.9565 46.4752 70.0294 46.2863 70.1752 46.1464C70.324 46.0036 70.5159 45.9322 70.751 45.9322C70.9741 45.9322 71.1556 46.0021 71.2955 46.1419C71.4353 46.2818 71.5053 46.4663 71.5053 46.6954V46.7623C71.5053 46.7921 71.4904 46.807 71.4606 46.807H71.233C71.2032 46.807 71.1884 46.7921 71.1884 46.7623V46.7132C71.1884 46.5645 71.1467 46.444 71.0634 46.3517C70.9801 46.2595 70.8745 46.2134 70.7465 46.2134C70.6096 46.2134 70.4966 46.261 70.4073 46.3562C70.318 46.4484 70.2734 46.5734 70.2734 46.7311V47.3872C70.2734 47.3961 70.2749 47.4021 70.2779 47.405C70.2838 47.405 70.2898 47.4021 70.2957 47.3961C70.4058 47.2295 70.5739 47.1462 70.8001 47.1462C70.9816 47.1462 71.1303 47.1923 71.2464 47.2845C71.3654 47.3768 71.4502 47.5092 71.5008 47.6818ZM71.2152 48.445C71.236 48.3468 71.2464 48.2412 71.2464 48.1281C71.2464 47.9853 71.2315 47.8648 71.2018 47.7666C71.172 47.6535 71.1184 47.5657 71.0411 47.5032C70.9667 47.4408 70.8715 47.4095 70.7554 47.4095C70.6424 47.4095 70.5471 47.4422 70.4698 47.5077C70.3954 47.5732 70.3433 47.6624 70.3136 47.7755C70.2868 47.8737 70.2734 47.9927 70.2734 48.1326C70.2734 48.2397 70.2838 48.3483 70.3046 48.4584C70.3314 48.5804 70.3835 48.6756 70.4609 48.744C70.5412 48.8125 70.6409 48.8467 70.7599 48.8467C70.8759 48.8467 70.9726 48.8125 71.05 48.744C71.1303 48.6756 71.1854 48.5759 71.2152 48.445ZM72.8751 49.1368C72.6192 49.1368 72.4139 49.0594 72.2592 48.9047C72.1044 48.75 72.0271 48.5432 72.0271 48.2843V46.7757C72.0271 46.5198 72.1044 46.3145 72.2592 46.1598C72.4139 46.0051 72.6192 45.9277 72.8751 45.9277C73.134 45.9277 73.3408 46.0051 73.4955 46.1598C73.6532 46.3145 73.732 46.5198 73.732 46.7757V48.2843C73.732 48.5432 73.6532 48.75 73.4955 48.9047C73.3408 49.0594 73.134 49.1368 72.8751 49.1368ZM72.8751 48.8601C73.0388 48.8601 73.1697 48.8095 73.2679 48.7083C73.3661 48.6072 73.4152 48.4733 73.4152 48.3066V46.7579C73.4152 46.5912 73.3661 46.4573 73.2679 46.3562C73.1697 46.255 73.0388 46.2044 72.8751 46.2044C72.7174 46.2044 72.5895 46.255 72.4913 46.3562C72.3931 46.4573 72.344 46.5912 72.344 46.7579V48.3066C72.344 48.4703 72.3931 48.6042 72.4913 48.7083C72.5895 48.8095 72.7174 48.8601 72.8751 48.8601ZM75.0081 47.1953C74.8921 47.1953 74.785 47.167 74.6868 47.1105C74.5916 47.0539 74.5157 46.9781 74.4591 46.8828C74.4026 46.7847 74.3743 46.6775 74.3743 46.5615C74.3743 46.4454 74.4026 46.3398 74.4591 46.2446C74.5157 46.1464 74.5916 46.069 74.6868 46.0125C74.785 45.956 74.8921 45.9277 75.0081 45.9277C75.1212 45.9277 75.2253 45.956 75.3206 46.0125C75.4187 46.069 75.4961 46.1464 75.5526 46.2446C75.6092 46.3398 75.6374 46.4454 75.6374 46.5615C75.6374 46.6775 75.6092 46.7847 75.5526 46.8828C75.4961 46.9781 75.4187 47.0539 75.3206 47.1105C75.2253 47.167 75.1212 47.1953 75.0081 47.1953ZM74.9055 49.0922C74.8906 49.0922 74.8787 49.0877 74.8698 49.0788C74.8638 49.0669 74.8653 49.0535 74.8742 49.0386L76.5346 45.9991C76.5435 45.9783 76.5613 45.9679 76.5881 45.9679H76.7309C76.7458 45.9679 76.7562 45.9738 76.7622 45.9857C76.7711 45.9947 76.7711 46.0066 76.7622 46.0214L75.1019 49.0609C75.0929 49.0817 75.0751 49.0922 75.0483 49.0922H74.9055ZM75.0081 46.9989C75.1271 46.9989 75.2268 46.9572 75.3072 46.8739C75.3905 46.7876 75.4321 46.6835 75.4321 46.5615C75.4321 46.4395 75.3905 46.3368 75.3072 46.2535C75.2268 46.1672 75.1271 46.1241 75.0081 46.1241C74.8891 46.1241 74.7879 46.1672 74.7046 46.2535C74.6213 46.3368 74.5797 46.4395 74.5797 46.5615C74.5797 46.6835 74.6213 46.7876 74.7046 46.8739C74.7879 46.9572 74.8891 46.9989 75.0081 46.9989ZM76.6461 49.1323C76.5301 49.1323 76.423 49.1041 76.3248 49.0475C76.2296 48.991 76.1537 48.9136 76.0972 48.8154C76.0406 48.7172 76.0124 48.6101 76.0124 48.4941C76.0124 48.381 76.0406 48.2769 76.0972 48.1817C76.1537 48.0835 76.2296 48.0061 76.3248 47.9496C76.423 47.893 76.5301 47.8648 76.6461 47.8648C76.7592 47.8648 76.8634 47.893 76.9586 47.9496C77.0568 48.0061 77.1341 48.0835 77.1907 48.1817C77.2472 48.2769 77.2755 48.381 77.2755 48.4941C77.2755 48.6101 77.2472 48.7172 77.1907 48.8154C77.1341 48.9136 77.0568 48.991 76.9586 49.0475C76.8634 49.1041 76.7592 49.1323 76.6461 49.1323ZM76.6461 48.9359C76.7652 48.9359 76.8648 48.8928 76.9452 48.8065C77.0285 48.7202 77.0702 48.6161 77.0702 48.4941C77.0702 48.3721 77.0285 48.2694 76.9452 48.1861C76.8648 48.1028 76.7652 48.0611 76.6461 48.0611C76.5271 48.0611 76.426 48.1028 76.3426 48.1861C76.2593 48.2694 76.2177 48.3721 76.2177 48.4941C76.2177 48.6191 76.2578 48.7247 76.3382 48.811C76.4215 48.8943 76.5241 48.9359 76.6461 48.9359Z" fill="#404040"/>
<path d="M42.7662 32.3456L42.7303 32.3423C42.5268 32.3208 42.3352 32.3062 42.3352 32.1496C42.3352 31.9569 42.6106 31.9208 42.7662 31.9208C42.9473 31.9221 43.1263 31.9594 43.293 32.0304L43.3169 32.0424L43.4247 31.7895L43.4007 31.7808C43.2 31.695 42.9843 31.6499 42.7662 31.6483C42.3352 31.6483 42.0479 31.8531 42.0479 32.1422C42.0479 32.5155 42.419 32.5637 42.7183 32.5878H42.7423C43.0056 32.6119 43.1852 32.6469 43.1852 32.8166C43.1852 32.9491 43.0056 33.0334 42.7303 33.0334C42.5272 33.0354 42.3264 32.99 42.1437 32.901L42.1197 32.8908L42 33.1438L42.0239 33.1558C42.2427 33.2677 42.4849 33.3255 42.7303 33.3244C43.1613 33.3244 43.4726 33.1197 43.4726 32.8186C43.4726 32.397 43.0176 32.3488 42.7542 32.3248M45.4839 32.2485C45.4839 32.3252 45.4536 32.3987 45.3997 32.4529C45.3458 32.5071 45.2727 32.5376 45.1965 32.5376H44.7536V31.9602H45.1965C45.2738 31.9633 45.3469 31.9964 45.4005 32.0525C45.454 32.1086 45.4839 32.1835 45.4839 32.2613M45.1965 31.6832H44.6338C44.5957 31.6832 44.5592 31.6984 44.5323 31.7255C44.5053 31.7526 44.4902 31.7894 44.4902 31.8277V33.3091H44.7655V32.8394H45.2085C45.2834 32.841 45.3579 32.8276 45.4275 32.7998C45.4972 32.7721 45.5606 32.7307 45.6141 32.6779C45.6677 32.6252 45.7102 32.5623 45.7392 32.4928C45.7682 32.4233 45.7832 32.3487 45.7832 32.2733C45.7832 32.12 45.7226 31.9729 45.6148 31.8645C45.5071 31.7561 45.3609 31.6952 45.2085 31.6952M46.6451 31.8277V33.1646C46.6451 33.2029 46.6603 33.2397 46.6872 33.2668C46.7142 33.2939 46.7507 33.3091 46.7888 33.3091H47.8902V33.0321H46.9205V32.6347H47.8304V32.3576H46.9205V31.9602H47.8902V31.6832H46.7888C46.7507 31.6832 46.7142 31.6984 46.6872 31.7255C46.6603 31.7526 46.6451 31.7894 46.6451 31.8277ZM49.9973 32.8274C49.948 32.8993 49.8817 32.9578 49.8044 32.9978C49.7271 33.0377 49.6412 33.0578 49.5543 33.0562C49.4072 33.0531 49.2671 32.992 49.1642 32.8862C49.0612 32.7804 49.0036 32.6382 49.0036 32.4901C49.0036 32.3432 49.0617 32.2023 49.1649 32.0984C49.2682 31.9945 49.4083 31.9361 49.5543 31.9361C49.635 31.9365 49.7145 31.9551 49.787 31.9905C49.8595 32.026 49.9232 32.0773 49.9734 32.1408L49.9853 32.1529L50.1889 31.9722L50.1769 31.9556C50.0666 31.8284 49.9204 31.7379 49.7577 31.6964C49.5951 31.6548 49.4237 31.6641 49.2664 31.7229C49.1091 31.7818 48.9733 31.8874 48.8772 32.0258C48.7811 32.1642 48.7291 32.3288 48.7283 32.4976C48.7283 32.7191 48.8149 32.9318 48.9695 33.0895C49.1241 33.2473 49.3342 33.3375 49.5543 33.3407C49.6849 33.3437 49.8143 33.3145 49.9311 33.2557C50.048 33.1969 50.1488 33.1103 50.2248 33.0035L50.2367 32.9861L50.0213 32.8175L49.9973 32.8274ZM50.967 31.9602H51.5178V33.3091H51.7931V31.9602H52.3438V31.6832H50.967V31.9602ZM54.2713 32.2372C54.2714 32.2714 54.2645 32.3054 54.2511 32.3369C54.2377 32.3684 54.2181 32.3968 54.1935 32.4204C54.1689 32.4441 54.1397 32.4625 54.1078 32.4744C54.0759 32.4864 54.0419 32.4918 54.0079 32.4901H53.4931V31.9602H54.0079C54.0436 31.9601 54.0788 31.9674 54.1116 31.9814C54.1443 31.9955 54.1739 32.0161 54.1985 32.042C54.2232 32.0679 54.2423 32.0985 54.2548 32.1321C54.2673 32.1656 54.2729 32.2014 54.2713 32.2372ZM54.5467 32.2372C54.5483 32.165 54.5355 32.0932 54.5092 32.0261C54.4828 31.9589 54.4434 31.8977 54.3932 31.8461C54.343 31.7945 54.2831 31.7535 54.2169 31.7255C54.1507 31.6975 54.0797 31.6831 54.0079 31.6832H53.3734C53.3353 31.6832 53.2988 31.6984 53.2718 31.7255C53.2449 31.7526 53.2298 31.7894 53.2298 31.8277V33.3091H53.5051V32.7551H53.8762L54.2593 33.3091H54.5826L54.1755 32.731C54.282 32.6999 54.3756 32.635 54.4425 32.546C54.5094 32.4571 54.5459 32.3487 54.5467 32.2372ZM56.6657 32.6106C56.6657 32.7256 56.6203 32.8359 56.5395 32.9172C56.4587 32.9985 56.349 33.0442 56.2347 33.0442C56.1204 33.0442 56.0108 32.9985 55.93 32.9172C55.8491 32.8359 55.8037 32.7256 55.8037 32.6106V31.6832H55.5284V32.6106C55.5284 32.799 55.6028 32.9798 55.7353 33.1131C55.8677 33.2463 56.0474 33.3212 56.2347 33.3212C56.4221 33.3212 56.6017 33.2463 56.7342 33.1131C56.8667 32.9798 56.9411 32.799 56.9411 32.6106V31.6832H56.6657V32.6106ZM59.3834 31.6591C59.3615 31.6599 59.3401 31.6658 59.3208 31.6762C59.3015 31.6866 59.2848 31.7014 59.272 31.7193L58.7333 32.4901L58.1945 31.7193C58.1807 31.7037 58.1637 31.6914 58.1447 31.6831C58.1257 31.6747 58.1051 31.6707 58.0844 31.6711C58.0463 31.6711 58.0098 31.6863 57.9828 31.7134C57.9559 31.7405 57.9407 31.7773 57.9407 31.8156V33.3091H58.2161V32.189L58.7309 32.9358L59.2457 32.189V33.2971H59.521V31.8036C59.521 31.7653 59.5059 31.7285 59.479 31.7014C59.452 31.6743 59.4155 31.6591 59.3774 31.6591M46.262 34.7063H46.6332V35.5735H46.8247V34.7063H47.1959V34.5256H46.262V34.7063ZM48.4529 35.0435C48.4529 35.1426 48.4138 35.2375 48.3442 35.3075C48.2746 35.3776 48.1802 35.4169 48.0818 35.4169C47.9834 35.4169 47.889 35.3776 47.8194 35.3075C47.7498 35.2375 47.7107 35.1426 47.7107 35.0435C47.7091 34.9971 47.7168 34.9508 47.7332 34.9073C47.7496 34.8639 47.7745 34.8242 47.8064 34.7906C47.8781 34.7193 47.9749 34.6792 48.0758 34.6792C48.1767 34.6792 48.2734 34.7193 48.3452 34.7906C48.3779 34.8238 48.4037 34.8633 48.421 34.9068C48.4382 34.9502 48.4467 34.9967 48.4457 35.0435H48.4529ZM48.0818 34.5015C48.009 34.4983 47.9364 34.5099 47.8683 34.5357C47.8001 34.5614 47.7379 34.6008 47.6853 34.6515C47.6327 34.7022 47.5908 34.763 47.5623 34.8304C47.5337 34.8978 47.519 34.9703 47.5191 35.0435C47.5143 35.1564 47.5432 35.2681 47.6021 35.3643C47.6609 35.4605 47.747 35.5368 47.8493 35.5834C47.9516 35.6299 48.0655 35.6446 48.1761 35.6256C48.2868 35.6066 48.3893 35.5546 48.4704 35.4765C48.5515 35.3984 48.6075 35.2976 48.6313 35.1872C48.655 35.0768 48.6453 34.9618 48.6035 34.8569C48.5617 34.7521 48.4897 34.6622 48.3967 34.5989C48.3038 34.5355 48.1941 34.5016 48.0818 34.5015ZM49.6022 35.3928H49.2191V35.1399H49.6022C49.6352 35.1397 49.667 35.152 49.6914 35.1743C49.7157 35.1966 49.7309 35.2273 49.7339 35.2603C49.7339 35.2955 49.72 35.3292 49.6954 35.354C49.6707 35.3789 49.6372 35.3928 49.6022 35.3928ZM49.2191 34.7063H49.5663C49.586 34.7001 49.6069 34.6987 49.6273 34.7021C49.6477 34.7055 49.6669 34.7137 49.6836 34.726C49.7002 34.7383 49.7138 34.7544 49.7231 34.7729C49.7324 34.7915 49.7373 34.812 49.7373 34.8328C49.7373 34.8535 49.7324 34.874 49.7231 34.8926C49.7138 34.9111 49.7002 34.9272 49.6836 34.9395C49.6669 34.9518 49.6477 34.96 49.6273 34.9634C49.6069 34.9669 49.586 34.9654 49.5663 34.9592H49.2191V34.7063ZM49.7938 35.0315C49.8241 35.007 49.8483 34.9757 49.8646 34.9402C49.8808 34.9047 49.8887 34.8658 49.8875 34.8267C49.8844 34.744 49.8489 34.6659 49.7887 34.6095C49.7285 34.5531 49.6485 34.5229 49.5663 34.5256H49.1353C49.1225 34.5252 49.1096 34.5273 49.0976 34.5319C49.0856 34.5366 49.0746 34.5436 49.0653 34.5526C49.0561 34.5616 49.0487 34.5724 49.0437 34.5843C49.0387 34.5962 49.0361 34.609 49.0361 34.622V35.4771C49.0361 35.4901 49.0387 35.5029 49.0437 35.5148C49.0487 35.5267 49.0561 35.5375 49.0653 35.5465C49.0746 35.5555 49.0856 35.5625 49.0976 35.5672C49.1096 35.5718 49.1225 35.5739 49.1353 35.5735H49.6022C49.6441 35.5751 49.6859 35.5682 49.725 35.5532C49.7642 35.5382 49.7999 35.5154 49.8301 35.4861C49.8603 35.4569 49.8843 35.4218 49.9007 35.383C49.9171 35.3442 49.9255 35.3025 49.9255 35.2603C49.9266 35.2137 49.915 35.1676 49.8917 35.1272C49.8685 35.0868 49.8346 35.0537 49.7938 35.0315ZM50.6558 35.1519L50.7994 34.8388L50.9311 35.1519H50.6558ZM50.7994 34.5136C50.7812 34.5145 50.7636 34.5207 50.7488 34.5314C50.734 34.5421 50.7224 34.5568 50.7156 34.5738L50.2727 35.5855H50.4762L50.5839 35.3326H51.003L51.1107 35.5735V35.5855H51.3142L50.8713 34.5738C50.8644 34.5568 50.8529 34.5421 50.8381 34.5314C50.8232 34.5207 50.8057 34.5145 50.7875 34.5136M52.4635 35.2603C52.4143 35.3172 52.3496 35.3583 52.2774 35.3786C52.2052 35.3989 52.1287 35.3973 52.0573 35.3743C51.9859 35.3512 51.9228 35.3076 51.8759 35.2488C51.8289 35.19 51.8001 35.1186 51.7931 35.0435C51.7931 34.995 51.8028 34.9471 51.8215 34.9024C51.8403 34.8578 51.8679 34.8174 51.9025 34.7837C51.9371 34.75 51.9782 34.7236 52.0231 34.7062C52.0681 34.6887 52.1161 34.6806 52.1642 34.6822C52.2189 34.6816 52.273 34.6932 52.3226 34.7161C52.3723 34.739 52.4163 34.7727 52.4516 34.8147L52.4635 34.8267L52.6072 34.7063L52.5952 34.6942C52.5429 34.6342 52.4784 34.586 52.4062 34.5528C52.334 34.5196 52.2556 34.5021 52.1762 34.5015C52.1035 34.4983 52.0308 34.5099 51.9627 34.5357C51.8945 34.5614 51.8323 34.6008 51.7797 34.6515C51.7271 34.7022 51.6853 34.763 51.6567 34.8304C51.6281 34.8978 51.6135 34.9703 51.6135 35.0435C51.6183 35.1593 51.6582 35.2708 51.7279 35.3631C51.7977 35.4553 51.8939 35.5237 52.0036 35.5592C52.1132 35.5946 52.231 35.5954 52.3411 35.5613C52.4512 35.5273 52.5483 35.46 52.6192 35.3687L52.6311 35.3567L52.4875 35.2362L52.4635 35.2603ZM53.7565 35.2603C53.7073 35.3172 53.6426 35.3583 53.5704 35.3786C53.4982 35.3989 53.4216 35.3973 53.3503 35.3743C53.2789 35.3512 53.2158 35.3076 53.1689 35.2488C53.1219 35.19 53.0931 35.1186 53.0861 35.0435C53.0861 34.995 53.0957 34.9471 53.1145 34.9024C53.1333 34.8578 53.1608 34.8174 53.1955 34.7837C53.2301 34.75 53.2711 34.7236 53.3161 34.7062C53.3611 34.6887 53.4091 34.6806 53.4572 34.6822C53.5119 34.6816 53.5659 34.6932 53.6156 34.7161C53.6653 34.739 53.7093 34.7727 53.7445 34.8147L53.7565 34.8267L53.9002 34.7063L53.8882 34.6942C53.8358 34.6342 53.7714 34.586 53.6992 34.5528C53.627 34.5196 53.5486 34.5021 53.4692 34.5015C53.3965 34.4983 53.3238 34.5099 53.2557 34.5357C53.1875 34.5614 53.1253 34.6008 53.0727 34.6515C53.0201 34.7022 52.9782 34.763 52.9497 34.8304C52.9211 34.8978 52.9064 34.9703 52.9065 35.0435C52.9112 35.1593 52.9512 35.2708 53.0209 35.3631C53.0907 35.4553 53.1869 35.5237 53.2965 35.5592C53.4062 35.5946 53.524 35.5954 53.6341 35.5613C53.7442 35.5273 53.8413 35.46 53.9122 35.3687L53.9241 35.3567L53.7685 35.2483L53.7565 35.2603ZM55.0974 35.0435C55.0974 35.1426 55.0583 35.2375 54.9887 35.3075C54.9191 35.3776 54.8247 35.4169 54.7263 35.4169C54.6278 35.4169 54.5334 35.3776 54.4638 35.3075C54.3942 35.2375 54.3551 35.1426 54.3551 35.0435C54.3536 34.9971 54.3612 34.9508 54.3777 34.9073C54.3941 34.8639 54.419 34.8242 54.4509 34.7906C54.5226 34.7193 54.6194 34.6792 54.7203 34.6792C54.8211 34.6792 54.9179 34.7193 54.9896 34.7906C55.0224 34.8238 55.0482 34.8633 55.0654 34.9068C55.0827 34.9502 55.0911 34.9967 55.0902 35.0435H55.0974ZM54.7263 34.5015C54.6535 34.4983 54.5809 34.5099 54.5127 34.5357C54.4446 34.5614 54.3823 34.6008 54.3297 34.6515C54.2771 34.7022 54.2353 34.763 54.2067 34.8304C54.1782 34.8978 54.1635 34.9703 54.1636 35.0435C54.1588 35.1564 54.1877 35.2681 54.2465 35.3643C54.3054 35.4605 54.3915 35.5368 54.4938 35.5834C54.5961 35.6299 54.7099 35.6446 54.8206 35.6256C54.9313 35.6066 55.0338 35.5546 55.1149 35.4765C55.196 35.3984 55.252 35.2976 55.2757 35.1872C55.2994 35.0768 55.2898 34.9618 55.248 34.8569C55.2062 34.7521 55.1342 34.6622 55.0412 34.5989C54.9482 34.5355 54.8385 34.5016 54.7263 34.5015Z" fill="black"/>
<path d="M48.1541 29.6469L51.0633 29.141L49.052 27.6476L48.1541 29.6469Z" fill="#0065A7"/>
<path d="M49.0639 27.5994L51.0632 29.0568L52.4639 27.768L49.0639 27.5994Z" fill="#0678AC"/>
<path d="M52.5239 27.6247L53.4218 25.2399L50.2253 25.8903L52.5239 27.6247Z" fill="#2EB56A"/>
<path d="M50.3808 25.7934L53.5774 25.1671L51.3146 24.6492L50.3808 25.7934Z" fill="#A5CE40"/>
<path d="M51.2907 24.5654L53.5654 25.1074L53.7569 22L51.2907 24.5654Z" fill="#F5E431"/>
<path d="M47.5674 27.1183L48.1181 29.5994L49.004 27.588L47.5674 27.1183Z" fill="#9072B3"/>
<path d="M50.0932 25.974L47.627 27.07L48.9798 27.5277L50.0932 25.974Z" fill="#9360A8"/>
<path d="M48.3692 24.8897L47.627 26.9614L50.2009 25.8533L48.3692 24.8897Z" fill="#DF599C"/>
<path d="M48.4652 24.8299L50.2011 24.7094L51.2187 24.589L50.4884 23.3243L48.4652 24.8299Z" fill="#F89A29"/>
<path d="M50.5004 23.2044L51.2427 24.4932L53.697 22L50.5004 23.2044Z" fill="#FCBC1B"/>
<path d="M48.4652 24.878L50.2969 25.7934L51.2427 24.6492L48.4652 24.878Z" fill="#F16165"/>
<path d="M50.1653 25.974L49.0639 27.5518L52.4639 27.7325L50.1653 25.974Z" fill="#1DA6BA"/>
</svg>
