<svg width="74" height="56" viewBox="0 0 74 56" fill="none" xmlns="http://www.w3.org/2000/svg">
<path d="M59.3511 20.7428C60.5175 23.8938 60.9089 27.2715 60.4933 30.5997C60.0777 33.9279 58.8668 37.1122 56.9597 39.8921C55.0526 42.6721 52.5034 44.9688 49.5205 46.5944C46.5377 48.2201 43.2058 49.1286 39.7975 49.2456L39.5335 41.8132C41.7489 41.7371 43.9146 41.1466 45.8535 40.0899C47.7923 39.0333 49.4493 37.5404 50.6889 35.7334C51.9286 33.9265 52.7156 31.8567 52.9858 29.6934C53.2559 27.53 53.0015 25.3345 52.2433 23.2864L59.3511 20.7428Z" fill="#FFFCE2"/>
<path d="M18.2693 22.1533C19.5272 17.8399 22.1418 14.0288 25.7381 11.2662C29.3344 8.50361 33.728 6.93133 38.289 6.77473C42.8501 6.61813 47.3445 7.88524 51.1281 10.3945C54.9116 12.9037 57.7902 16.5262 59.3511 20.7428L52.2433 23.2864C51.2287 20.5456 49.3577 18.191 46.8984 16.56C44.439 14.929 41.5177 14.1053 38.553 14.2071C35.5883 14.3089 32.7325 15.3309 30.3949 17.1266C28.0573 18.9223 26.3578 21.3995 25.5402 24.2032L18.2693 22.1533Z" fill="#FF6B00"/>
<path d="M39.7975 49.2456C36.3891 49.3626 33.0009 48.6849 29.91 47.2677C26.8191 45.8506 24.1131 43.7344 22.0134 41.092C19.9137 38.4496 18.4799 35.3562 17.8292 32.0646C17.1784 28.7729 17.3292 25.3766 18.2693 22.1533L25.5402 24.2032C24.9291 26.2984 24.8311 28.506 25.2541 30.6455C25.6771 32.7851 26.6091 34.7958 27.9739 36.5133C29.3387 38.2309 31.0975 39.6065 33.1066 40.5276C35.1157 41.4487 37.318 41.8893 39.5335 41.8132L39.7975 49.2456Z" fill="#FFF847"/>
<path d="M23.7867 41.2798L21.2416 44.4971H10.6977" stroke="black" stroke-width="0.145684"/>
<path d="M3.18104 39.9464C3.41908 39.9464 3.61101 40.0268 3.75681 40.1875C3.90558 40.3452 3.97997 40.5549 3.97997 40.8168C3.97997 41.0757 3.90558 41.2839 3.75681 41.4416C3.61101 41.5964 3.41908 41.6737 3.18104 41.6737H2.51602C2.50412 41.6737 2.49816 41.6797 2.49816 41.6916V43.0306C2.49816 43.0603 2.48329 43.0752 2.45353 43.0752H2.22591C2.19615 43.0752 2.18127 43.0603 2.18127 43.0306V39.9911C2.18127 39.9613 2.19615 39.9464 2.22591 39.9464H3.18104ZM3.14087 41.4104C3.29858 41.4104 3.42504 41.3568 3.52025 41.2497C3.61547 41.1426 3.66308 40.9998 3.66308 40.8212C3.66308 40.6397 3.61547 40.4954 3.52025 40.3883C3.42504 40.2782 3.29858 40.2232 3.14087 40.2232H2.51602C2.50412 40.2232 2.49816 40.2291 2.49816 40.241V41.3925C2.49816 41.4044 2.50412 41.4104 2.51602 41.4104H3.14087ZM4.54949 43.0752C4.51973 43.0752 4.50486 43.0603 4.50486 43.0306V39.9955C4.50486 39.9658 4.51973 39.9509 4.54949 39.9509H4.77712C4.80687 39.9509 4.82175 39.9658 4.82175 39.9955V43.0306C4.82175 43.0603 4.80687 43.0752 4.77712 43.0752H4.54949ZM7.11723 39.9955C7.11723 39.9658 7.1321 39.9509 7.16186 39.9509H7.38949C7.41924 39.9509 7.43412 39.9658 7.43412 39.9955V43.0306C7.43412 43.0603 7.41924 43.0752 7.38949 43.0752H7.14847C7.12169 43.0752 7.10384 43.0648 7.09491 43.044L5.89875 40.6561C5.8928 40.6502 5.88685 40.6472 5.8809 40.6472C5.87793 40.6472 5.87644 40.6516 5.87644 40.6606L5.8809 43.0306C5.8809 43.0603 5.86602 43.0752 5.83627 43.0752H5.60864C5.57889 43.0752 5.56401 43.0603 5.56401 43.0306V39.9955C5.56401 39.9658 5.57889 39.9509 5.60864 39.9509H5.84966C5.87644 39.9509 5.89429 39.9613 5.90322 39.9822L7.09937 42.3789C7.10532 42.3849 7.10979 42.3879 7.11276 42.3879C7.11871 42.3879 7.12169 42.3834 7.12169 42.3745L7.11723 39.9955ZM9.86269 40.183C9.86269 40.2128 9.84782 40.2276 9.81806 40.2276H8.47908C8.46718 40.2276 8.46123 40.2336 8.46123 40.2455V41.3524C8.46123 41.3643 8.46718 41.3702 8.47908 41.3702H9.38066C9.41042 41.3702 9.42529 41.3851 9.42529 41.4149V41.6023C9.42529 41.6321 9.41042 41.6469 9.38066 41.6469H8.47908C8.46718 41.6469 8.46123 41.6529 8.46123 41.6648V42.7806C8.46123 42.7925 8.46718 42.7985 8.47908 42.7985H9.81806C9.84782 42.7985 9.86269 42.8134 9.86269 42.8431V43.0306C9.86269 43.0603 9.84782 43.0752 9.81806 43.0752H8.18897C8.15921 43.0752 8.14434 43.0603 8.14434 43.0306V39.9955C8.14434 39.9658 8.15921 39.9509 8.18897 39.9509H9.81806C9.84782 39.9509 9.86269 39.9658 9.86269 39.9955V40.183ZM12.0154 43.0752C11.9886 43.0752 11.9723 43.0618 11.9663 43.035L11.819 42.4771C11.8161 42.4682 11.8086 42.4637 11.7967 42.4637H10.73C10.7181 42.4637 10.7107 42.4682 10.7077 42.4771L10.5604 43.035C10.5544 43.0618 10.5381 43.0752 10.5113 43.0752H10.2792C10.2643 43.0752 10.2524 43.0707 10.2435 43.0618C10.2375 43.0529 10.2361 43.041 10.239 43.0261L11.0737 39.9911C11.0796 39.9643 11.096 39.9509 11.1228 39.9509H11.4084C11.4352 39.9509 11.4516 39.9643 11.4575 39.9911L12.2921 43.0261L12.2966 43.0395C12.2966 43.0633 12.2817 43.0752 12.252 43.0752H12.0154ZM10.7836 42.187C10.7806 42.19 10.7806 42.1944 10.7836 42.2004C10.7895 42.2034 10.7955 42.2049 10.8014 42.2049H11.7253C11.7313 42.2049 11.7357 42.2034 11.7387 42.2004C11.7446 42.1944 11.7461 42.19 11.7432 42.187L11.2701 40.3928C11.2671 40.3868 11.2641 40.3838 11.2611 40.3838C11.2581 40.3838 11.2552 40.3868 11.2522 40.3928L10.7836 42.187ZM13.7508 39.9464C13.9888 39.9464 14.1808 40.0268 14.3266 40.1875C14.4753 40.3452 14.5497 40.5549 14.5497 40.8168C14.5497 41.0757 14.4753 41.2839 14.3266 41.4416C14.1808 41.5964 13.9888 41.6737 13.7508 41.6737H13.0858C13.0739 41.6737 13.0679 41.6797 13.0679 41.6916V43.0306C13.0679 43.0603 13.053 43.0752 13.0233 43.0752H12.7957C12.7659 43.0752 12.751 43.0603 12.751 43.0306V39.9911C12.751 39.9613 12.7659 39.9464 12.7957 39.9464H13.7508ZM13.7106 41.4104C13.8683 41.4104 13.9948 41.3568 14.09 41.2497C14.1852 41.1426 14.2328 40.9998 14.2328 40.8212C14.2328 40.6397 14.1852 40.4954 14.09 40.3883C13.9948 40.2782 13.8683 40.2232 13.7106 40.2232H13.0858C13.0739 40.2232 13.0679 40.2291 13.0679 40.241V41.3925C13.0679 41.4044 13.0739 41.4104 13.0858 41.4104H13.7106ZM16.0565 39.9464C16.2946 39.9464 16.4865 40.0268 16.6323 40.1875C16.7811 40.3452 16.8554 40.5549 16.8554 40.8168C16.8554 41.0757 16.7811 41.2839 16.6323 41.4416C16.4865 41.5964 16.2946 41.6737 16.0565 41.6737H15.3915C15.3796 41.6737 15.3736 41.6797 15.3736 41.6916V43.0306C15.3736 43.0603 15.3588 43.0752 15.329 43.0752H15.1014C15.0716 43.0752 15.0567 43.0603 15.0567 43.0306V39.9911C15.0567 39.9613 15.0716 39.9464 15.1014 39.9464H16.0565ZM16.0164 41.4104C16.1741 41.4104 16.3005 41.3568 16.3957 41.2497C16.4909 41.1426 16.5386 40.9998 16.5386 40.8212C16.5386 40.6397 16.4909 40.4954 16.3957 40.3883C16.3005 40.2782 16.1741 40.2232 16.0164 40.2232H15.3915C15.3796 40.2232 15.3736 40.2291 15.3736 40.241V41.3925C15.3736 41.4044 15.3796 41.4104 15.3915 41.4104H16.0164ZM17.425 43.0752C17.3952 43.0752 17.3803 43.0603 17.3803 43.0306V39.9955C17.3803 39.9658 17.3952 39.9509 17.425 39.9509H17.6526C17.6823 39.9509 17.6972 39.9658 17.6972 39.9955V42.7806C17.6972 42.7925 17.7032 42.7985 17.7151 42.7985H19.0139C19.0436 42.7985 19.0585 42.8134 19.0585 42.8431V43.0306C19.0585 43.0603 19.0436 43.0752 19.0139 43.0752H17.425ZM21.2519 40.183C21.2519 40.2128 21.237 40.2276 21.2072 40.2276H19.8683C19.8564 40.2276 19.8504 40.2336 19.8504 40.2455V41.3524C19.8504 41.3643 19.8564 41.3702 19.8683 41.3702H20.7698C20.7996 41.3702 20.8145 41.3851 20.8145 41.4149V41.6023C20.8145 41.6321 20.7996 41.6469 20.7698 41.6469H19.8683C19.8564 41.6469 19.8504 41.6529 19.8504 41.6648V42.7806C19.8504 42.7925 19.8564 42.7985 19.8683 42.7985H21.2072C21.237 42.7985 21.2519 42.8134 21.2519 42.8431V43.0306C21.2519 43.0603 21.237 43.0752 21.2072 43.0752H19.5781C19.5484 43.0752 19.5335 43.0603 19.5335 43.0306V39.9955C19.5335 39.9658 19.5484 39.9509 19.5781 39.9509H21.2072C21.237 39.9509 21.2519 39.9658 21.2519 39.9955V40.183ZM3.54257 46.5934C3.5991 46.7481 3.62737 46.9252 3.62737 47.1245C3.62737 47.3031 3.60505 47.4578 3.56042 47.5887C3.45033 47.9368 3.20634 48.1109 2.82845 48.1109C2.62611 48.1109 2.45651 48.0573 2.31963 47.9502C2.18276 47.8401 2.09498 47.6899 2.0563 47.4994C2.03547 47.4042 2.02506 47.2956 2.02506 47.1736C2.02506 47.1439 2.03994 47.129 2.06969 47.129H2.29732C2.32707 47.129 2.34195 47.1439 2.34195 47.1736C2.3479 47.3016 2.35534 47.3879 2.36427 47.4325C2.39105 47.5575 2.44461 47.6556 2.52494 47.7271C2.60528 47.7985 2.70645 47.8342 2.82845 47.8342C3.05756 47.8342 3.20634 47.7181 3.27477 47.486C3.30155 47.3789 3.31494 47.251 3.31494 47.1022C3.31494 46.9237 3.2956 46.7764 3.25692 46.6603C3.17956 46.4521 3.03673 46.3479 2.82845 46.3479C2.78084 46.3479 2.73918 46.3568 2.70347 46.3747C2.68562 46.3806 2.67521 46.3836 2.67223 46.3836C2.66033 46.3836 2.64992 46.3777 2.64099 46.3658L2.52494 46.2453C2.51007 46.2244 2.50858 46.2036 2.52048 46.1828L3.21675 45.2499C3.2227 45.244 3.22419 45.2395 3.22121 45.2366C3.21824 45.2306 3.21377 45.2276 3.20782 45.2276H2.09201C2.06225 45.2276 2.04737 45.2128 2.04737 45.183V44.9955C2.04737 44.9658 2.06225 44.9509 2.09201 44.9509H3.56935C3.5991 44.9509 3.61398 44.9658 3.61398 44.9955V45.1964C3.61398 45.2202 3.60803 45.2395 3.59613 45.2544L2.94895 46.1381C2.94598 46.1411 2.94598 46.1456 2.94895 46.1515C2.95193 46.1575 2.95639 46.1605 2.96234 46.1605C3.10219 46.1664 3.22121 46.2066 3.31941 46.281C3.4176 46.3553 3.49198 46.4595 3.54257 46.5934ZM5.0106 48.1198C4.75471 48.1198 4.5494 48.0425 4.39467 47.8877C4.23994 47.733 4.16258 47.5262 4.16258 47.2673V45.7588C4.16258 45.5029 4.23994 45.2976 4.39467 45.1428C4.5494 44.9881 4.75471 44.9107 5.0106 44.9107C5.26947 44.9107 5.47627 44.9881 5.63099 45.1428C5.7887 45.2976 5.86755 45.5029 5.86755 45.7588V47.2673C5.86755 47.5262 5.7887 47.733 5.63099 47.8877C5.47627 48.0425 5.26947 48.1198 5.0106 48.1198ZM5.0106 47.8431C5.17425 47.8431 5.30518 47.7925 5.40337 47.6914C5.50156 47.5902 5.55065 47.4563 5.55065 47.2897V45.7409C5.55065 45.5743 5.50156 45.4404 5.40337 45.3392C5.30518 45.238 5.17425 45.1875 5.0106 45.1875C4.8529 45.1875 4.72495 45.238 4.62676 45.3392C4.52857 45.4404 4.47947 45.5743 4.47947 45.7409V47.2897C4.47947 47.4533 4.52857 47.5872 4.62676 47.6914C4.72495 47.7925 4.8529 47.8431 5.0106 47.8431ZM7.14362 46.1783C7.02758 46.1783 6.92046 46.15 6.82227 46.0935C6.72705 46.037 6.65118 45.9611 6.59464 45.8659C6.53811 45.7677 6.50984 45.6606 6.50984 45.5445C6.50984 45.4285 6.53811 45.3228 6.59464 45.2276C6.65118 45.1294 6.72705 45.0521 6.82227 44.9955C6.92046 44.939 7.02758 44.9107 7.14362 44.9107C7.25669 44.9107 7.36083 44.939 7.45605 44.9955C7.55424 45.0521 7.63161 45.1294 7.68814 45.2276C7.74468 45.3228 7.77294 45.4285 7.77294 45.5445C7.77294 45.6606 7.74468 45.7677 7.68814 45.8659C7.63161 45.9611 7.55424 46.037 7.45605 46.0935C7.36083 46.15 7.25669 46.1783 7.14362 46.1783ZM7.04097 48.0752C7.02609 48.0752 7.01419 48.0707 7.00526 48.0618C6.99931 48.0499 7.0008 48.0365 7.00972 48.0216L8.67006 44.9822C8.67899 44.9613 8.69684 44.9509 8.72362 44.9509H8.86644C8.88132 44.9509 8.89174 44.9569 8.89769 44.9688C8.90661 44.9777 8.90661 44.9896 8.89769 45.0045L7.23735 48.044C7.22842 48.0648 7.21057 48.0752 7.18379 48.0752H7.04097ZM7.14362 45.9819C7.26264 45.9819 7.36232 45.9403 7.44266 45.857C7.52598 45.7707 7.56763 45.6665 7.56763 45.5445C7.56763 45.4225 7.52598 45.3199 7.44266 45.2366C7.36232 45.1503 7.26264 45.1071 7.14362 45.1071C7.0246 45.1071 6.92343 45.1503 6.84012 45.2366C6.75681 45.3199 6.71515 45.4225 6.71515 45.5445C6.71515 45.6665 6.75681 45.7707 6.84012 45.857C6.92343 45.9403 7.0246 45.9819 7.14362 45.9819ZM8.78164 48.1154C8.6656 48.1154 8.55848 48.0871 8.46029 48.0306C8.36507 47.974 8.28919 47.8967 8.23266 47.7985C8.17612 47.7003 8.14786 47.5932 8.14786 47.4771C8.14786 47.364 8.17612 47.2599 8.23266 47.1647C8.28919 47.0665 8.36507 46.9891 8.46029 46.9326C8.55848 46.8761 8.6656 46.8478 8.78164 46.8478C8.89471 46.8478 8.99885 46.8761 9.09407 46.9326C9.19226 46.9891 9.26963 47.0665 9.32616 47.1647C9.38269 47.2599 9.41096 47.364 9.41096 47.4771C9.41096 47.5932 9.38269 47.7003 9.32616 47.7985C9.26963 47.8967 9.19226 47.974 9.09407 48.0306C8.99885 48.0871 8.89471 48.1154 8.78164 48.1154ZM8.78164 47.919C8.90066 47.919 9.00034 47.8758 9.08068 47.7895C9.16399 47.7033 9.20565 47.5991 9.20565 47.4771C9.20565 47.3551 9.16399 47.2525 9.08068 47.1692C9.00034 47.0858 8.90066 47.0442 8.78164 47.0442C8.66262 47.0442 8.56145 47.0858 8.47814 47.1692C8.39483 47.2525 8.35317 47.3551 8.35317 47.4771C8.35317 47.6021 8.39334 47.7077 8.47368 47.794C8.55699 47.8773 8.65965 47.919 8.78164 47.919Z" fill="#404040"/>
<path d="M26.3735 13.0036L23.8315 9.74036H13.3004" stroke="black" stroke-width="0.145684"/>
<path d="M48.4573 45.992L50.9993 49.2552H61.5305" stroke="black" stroke-width="0.145684"/>
<path d="M1.60072 5.0087C1.83876 5.0087 2.03068 5.08904 2.17648 5.24972C2.32526 5.40742 2.39965 5.61719 2.39965 5.87904C2.39965 6.13791 2.32526 6.34619 2.17648 6.5039C2.03068 6.65862 1.83876 6.73599 1.60072 6.73599H0.935695C0.923793 6.73599 0.917842 6.74194 0.917842 6.75384V8.09282C0.917842 8.12257 0.902964 8.13745 0.873209 8.13745H0.645583C0.615828 8.13745 0.60095 8.12257 0.60095 8.09282V5.05333C0.60095 5.02358 0.615828 5.0087 0.645583 5.0087H1.60072ZM1.56055 6.47265C1.71825 6.47265 1.84471 6.41909 1.93993 6.31198C2.03515 6.20486 2.08275 6.06203 2.08275 5.8835C2.08275 5.702 2.03515 5.55768 1.93993 5.45056C1.84471 5.34047 1.71825 5.28542 1.56055 5.28542H0.935695C0.923793 5.28542 0.917842 5.29137 0.917842 5.30328V6.4548C0.917842 6.4667 0.923793 6.47265 0.935695 6.47265H1.56055ZM4.64289 5.24525C4.64289 5.27501 4.62801 5.28989 4.59826 5.28989H3.25928C3.24738 5.28989 3.24143 5.29584 3.24143 5.30774V6.41463C3.24143 6.42653 3.24738 6.43248 3.25928 6.43248H4.16086C4.19061 6.43248 4.20549 6.44736 4.20549 6.47712V6.66457C4.20549 6.69433 4.19061 6.70921 4.16086 6.70921H3.25928C3.24738 6.70921 3.24143 6.71516 3.24143 6.72706V7.84288C3.24143 7.85478 3.24738 7.86073 3.25928 7.86073H4.59826C4.62801 7.86073 4.64289 7.87561 4.64289 7.90536V8.09282C4.64289 8.12257 4.62801 8.13745 4.59826 8.13745H2.96917C2.93941 8.13745 2.92453 8.12257 2.92453 8.09282V5.0578C2.92453 5.02804 2.93941 5.01316 2.96917 5.01316H4.59826C4.62801 5.01316 4.64289 5.02804 4.64289 5.0578V5.24525ZM6.79562 8.13745C6.76884 8.13745 6.75247 8.12406 6.74652 8.09728L6.59923 7.53937C6.59626 7.53045 6.58882 7.52598 6.57692 7.52598H5.51019C5.49829 7.52598 5.49085 7.53045 5.48788 7.53937L5.34059 8.09728C5.33464 8.12406 5.31827 8.13745 5.29149 8.13745H5.0594C5.04453 8.13745 5.03263 8.13299 5.0237 8.12406C5.01775 8.11513 5.01626 8.10323 5.01924 8.08836L5.85387 5.05333C5.85982 5.02655 5.87618 5.01316 5.90296 5.01316H6.18861C6.21539 5.01316 6.23176 5.02655 6.23771 5.05333L7.07234 8.08836L7.0768 8.10175C7.0768 8.12555 7.06192 8.13745 7.03217 8.13745H6.79562ZM5.56375 7.24926C5.56078 7.25224 5.56078 7.2567 5.56375 7.26265C5.5697 7.26563 5.57566 7.26711 5.58161 7.26711H6.5055C6.51145 7.26711 6.51592 7.26563 6.51889 7.26265C6.52484 7.2567 6.52633 7.25224 6.52336 7.24926L6.05025 5.45503C6.04727 5.44908 6.0443 5.4461 6.04132 5.4461C6.03835 5.4461 6.03537 5.44908 6.0324 5.45503L5.56375 7.24926ZM8.3179 8.17316C8.04713 8.17316 7.82843 8.09282 7.6618 7.93214C7.49815 7.77146 7.41632 7.55871 7.41632 7.29389V5.85226C7.41632 5.58744 7.49815 5.37618 7.6618 5.21847C7.82843 5.0578 8.04713 4.97746 8.3179 4.97746C8.59165 4.97746 8.81035 5.05631 8.974 5.21401C9.14063 5.37171 9.22395 5.58149 9.22395 5.84333V5.8835C9.22395 5.91326 9.20907 5.92813 9.17931 5.92813L8.95169 5.93706C8.92193 5.93706 8.90705 5.92367 8.90705 5.89689V5.83441C8.90705 5.66183 8.85201 5.52198 8.74191 5.41486C8.63479 5.30774 8.49346 5.25418 8.3179 5.25418C8.14235 5.25418 8.00101 5.30774 7.89389 5.41486C7.78677 5.519 7.73321 5.65885 7.73321 5.83441V7.31621C7.73321 7.49177 7.78677 7.6331 7.89389 7.74022C8.00101 7.84436 8.14235 7.89643 8.3179 7.89643C8.49346 7.89643 8.63479 7.84288 8.74191 7.73576C8.85201 7.62864 8.90705 7.48879 8.90705 7.31621V7.25372C8.90705 7.22694 8.92193 7.21355 8.95169 7.21355L9.17931 7.22694C9.20907 7.22694 9.22395 7.24182 9.22395 7.27158V7.30282C9.22395 7.56467 9.14063 7.77593 8.974 7.9366C8.81035 8.09431 8.59165 8.17316 8.3179 8.17316ZM11.3099 5.0578C11.3099 5.02804 11.3248 5.01316 11.3546 5.01316H11.5822C11.6119 5.01316 11.6268 5.02804 11.6268 5.0578V8.09282C11.6268 8.12257 11.6119 8.13745 11.5822 8.13745H11.3546C11.3248 8.13745 11.3099 8.12257 11.3099 8.09282V6.72706C11.3099 6.71516 11.304 6.70921 11.2921 6.70921H10.1852C10.1733 6.70921 10.1673 6.71516 10.1673 6.72706V8.09282C10.1673 8.12257 10.1525 8.13745 10.1227 8.13745H9.89507C9.86532 8.13745 9.85044 8.12257 9.85044 8.09282V5.0578C9.85044 5.02804 9.86532 5.01316 9.89507 5.01316H10.1227C10.1525 5.01316 10.1673 5.02804 10.1673 5.0578V6.41463C10.1673 6.42653 10.1733 6.43248 10.1852 6.43248H11.2921C11.304 6.43248 11.3099 6.42653 11.3099 6.41463V5.0578ZM14.8166 6.99485C14.8463 6.99485 14.8612 7.00973 14.8612 7.03949V7.23587C14.8612 7.26563 14.8463 7.2805 14.8166 7.2805H14.6515C14.6396 7.2805 14.6336 7.28646 14.6336 7.29836V8.09282C14.6336 8.12257 14.6187 8.13745 14.589 8.13745H14.3613C14.3316 8.13745 14.3167 8.12257 14.3167 8.09282V7.29836C14.3167 7.28646 14.3108 7.2805 14.2989 7.2805H13.0893C13.0596 7.2805 13.0447 7.26563 13.0447 7.23587V7.06627C13.0447 7.04544 13.0477 7.02759 13.0536 7.01271L13.8481 5.04887C13.857 5.02507 13.8734 5.01316 13.8972 5.01316H14.1426C14.1575 5.01316 14.1679 5.01912 14.1739 5.03102C14.1798 5.03994 14.1798 5.05185 14.1739 5.06672L13.4151 6.97254C13.4122 6.97849 13.4122 6.98444 13.4151 6.99039C13.4181 6.99337 13.4226 6.99485 13.4285 6.99485H14.2989C14.3108 6.99485 14.3167 6.9889 14.3167 6.977V6.27181C14.3167 6.24205 14.3316 6.22717 14.3613 6.22717H14.589C14.6187 6.22717 14.6336 6.24205 14.6336 6.27181V6.977C14.6336 6.9889 14.6396 6.99485 14.6515 6.99485H14.8166ZM16.1663 8.18208C15.9104 8.18208 15.7051 8.10472 15.5503 7.94999C15.3956 7.79527 15.3183 7.58847 15.3183 7.3296V5.82102C15.3183 5.56512 15.3956 5.35981 15.5503 5.20509C15.7051 5.05036 15.9104 4.973 16.1663 4.973C16.4251 4.973 16.6319 5.05036 16.7867 5.20509C16.9444 5.35981 17.0232 5.56512 17.0232 5.82102V7.3296C17.0232 7.58847 16.9444 7.79527 16.7867 7.94999C16.6319 8.10472 16.4251 8.18208 16.1663 8.18208ZM16.1663 7.90536C16.3299 7.90536 16.4609 7.85478 16.559 7.75361C16.6572 7.65244 16.7063 7.51854 16.7063 7.35192V5.80316C16.7063 5.63653 16.6572 5.50264 16.559 5.40147C16.4609 5.3003 16.3299 5.24972 16.1663 5.24972C16.0086 5.24972 15.8806 5.3003 15.7824 5.40147C15.6842 5.50264 15.6351 5.63653 15.6351 5.80316V7.35192C15.6351 7.51557 15.6842 7.64947 15.7824 7.75361C15.8806 7.85478 16.0086 7.90536 16.1663 7.90536ZM18.2993 6.24056C18.1833 6.24056 18.0761 6.2123 17.9779 6.15576C17.8827 6.09923 17.8069 6.02335 17.7503 5.92813C17.6938 5.82994 17.6655 5.72282 17.6655 5.60678C17.6655 5.49073 17.6938 5.3851 17.7503 5.28989C17.8069 5.1917 17.8827 5.11433 17.9779 5.0578C18.0761 5.00126 18.1833 4.973 18.2993 4.973C18.4124 4.973 18.5165 5.00126 18.6117 5.0578C18.7099 5.11433 18.7873 5.1917 18.8438 5.28989C18.9004 5.3851 18.9286 5.49073 18.9286 5.60678C18.9286 5.72282 18.9004 5.82994 18.8438 5.92813C18.7873 6.02335 18.7099 6.09923 18.6117 6.15576C18.5165 6.2123 18.4124 6.24056 18.2993 6.24056ZM18.1966 8.13745C18.1818 8.13745 18.1699 8.13299 18.1609 8.12406C18.155 8.11216 18.1565 8.09877 18.1654 8.08389L19.8257 5.04441C19.8347 5.02358 19.8525 5.01316 19.8793 5.01316H20.0221C20.037 5.01316 20.0474 5.01912 20.0534 5.03102C20.0623 5.03994 20.0623 5.05185 20.0534 5.06672L18.393 8.10621C18.3841 8.12704 18.3662 8.13745 18.3395 8.13745H18.1966ZM18.2993 6.04418C18.4183 6.04418 18.518 6.00252 18.5983 5.91921C18.6817 5.83292 18.7233 5.72877 18.7233 5.60678C18.7233 5.48478 18.6817 5.38213 18.5983 5.29881C18.518 5.21252 18.4183 5.16938 18.2993 5.16938C18.1803 5.16938 18.0791 5.21252 17.9958 5.29881C17.9125 5.38213 17.8708 5.48478 17.8708 5.60678C17.8708 5.72877 17.9125 5.83292 17.9958 5.91921C18.0791 6.00252 18.1803 6.04418 18.2993 6.04418ZM19.9373 8.17762C19.8213 8.17762 19.7142 8.14935 19.616 8.09282C19.5207 8.03628 19.4449 7.95892 19.3883 7.86073C19.3318 7.76254 19.3035 7.65542 19.3035 7.53937C19.3035 7.4263 19.3318 7.32216 19.3883 7.22694C19.4449 7.12875 19.5207 7.05139 19.616 6.99485C19.7142 6.93832 19.8213 6.91005 19.9373 6.91005C20.0504 6.91005 20.1545 6.93832 20.2497 6.99485C20.3479 7.05139 20.4253 7.12875 20.4818 7.22694C20.5384 7.32216 20.5666 7.4263 20.5666 7.53937C20.5666 7.65542 20.5384 7.76254 20.4818 7.86073C20.4253 7.95892 20.3479 8.03628 20.2497 8.09282C20.1545 8.14935 20.0504 8.17762 19.9373 8.17762ZM19.9373 7.98124C20.0563 7.98124 20.156 7.93809 20.2364 7.8518C20.3197 7.76551 20.3613 7.66137 20.3613 7.53937C20.3613 7.41738 20.3197 7.31472 20.2364 7.23141C20.156 7.14809 20.0563 7.10644 19.9373 7.10644C19.8183 7.10644 19.7171 7.14809 19.6338 7.23141C19.5505 7.31472 19.5088 7.41738 19.5088 7.53937C19.5088 7.66434 19.549 7.76998 19.6294 7.85627C19.7127 7.93958 19.8153 7.98124 19.9373 7.98124Z" fill="#404040"/>
<path d="M54.3754 44.7369C54.3754 44.7071 54.3902 44.6922 54.42 44.6922H54.6476C54.6774 44.6922 54.6923 44.7071 54.6923 44.7369V47.7719C54.6923 47.8017 54.6774 47.8165 54.6476 47.8165H54.4066C54.3798 47.8165 54.362 47.8061 54.353 47.7853L53.1569 45.3974C53.1509 45.3915 53.145 45.3885 53.139 45.3885C53.1361 45.3885 53.1346 45.393 53.1346 45.4019L53.139 47.7719C53.139 47.8017 53.1242 47.8165 53.0944 47.8165H52.8668C52.837 47.8165 52.8221 47.8017 52.8221 47.7719V44.7369C52.8221 44.7071 52.837 44.6922 52.8668 44.6922H53.1078C53.1346 44.6922 53.1524 44.7027 53.1614 44.7235L54.3575 47.1203C54.3635 47.1262 54.3679 47.1292 54.3709 47.1292C54.3768 47.1292 54.3798 47.1247 54.3798 47.1158L54.3754 44.7369ZM56.946 47.8165C56.9192 47.8165 56.9029 47.8031 56.8969 47.7764L56.7496 47.2185C56.7467 47.2095 56.7392 47.2051 56.7273 47.2051H55.6606C55.6487 47.2051 55.6413 47.2095 55.6383 47.2185L55.491 47.7764C55.485 47.8031 55.4687 47.8165 55.4419 47.8165H55.2098C55.1949 47.8165 55.183 47.8121 55.1741 47.8031C55.1682 47.7942 55.1667 47.7823 55.1696 47.7674L56.0043 44.7324C56.0102 44.7056 56.0266 44.6922 56.0534 44.6922H56.339C56.3658 44.6922 56.3822 44.7056 56.3881 44.7324L57.2227 47.7674L57.2272 47.7808C57.2272 47.8046 57.2123 47.8165 57.1826 47.8165H56.946ZM55.7142 46.9283C55.7112 46.9313 55.7112 46.9358 55.7142 46.9417C55.7201 46.9447 55.7261 46.9462 55.732 46.9462H56.6559C56.6619 46.9462 56.6663 46.9447 56.6693 46.9417C56.6753 46.9358 56.6767 46.9313 56.6738 46.9283L56.2007 45.1341C56.1977 45.1282 56.1947 45.1252 56.1917 45.1252C56.1888 45.1252 56.1858 45.1282 56.1828 45.1341L55.7142 46.9283ZM58.6814 44.6878C58.9194 44.6878 59.1114 44.7681 59.2572 44.9288C59.4059 45.0865 59.4803 45.2963 59.4803 45.5581C59.4803 45.817 59.4059 46.0253 59.2572 46.183C59.1114 46.3377 58.9194 46.4151 58.6814 46.4151H58.0164C58.0045 46.4151 57.9985 46.421 57.9985 46.4329V47.7719C57.9985 47.8017 57.9836 47.8165 57.9539 47.8165H57.7263C57.6965 47.8165 57.6816 47.8017 57.6816 47.7719V44.7324C57.6816 44.7027 57.6965 44.6878 57.7263 44.6878H58.6814ZM58.6412 46.1517C58.7989 46.1517 58.9254 46.0982 59.0206 45.9911C59.1158 45.8839 59.1634 45.7411 59.1634 45.5626C59.1634 45.3811 59.1158 45.2368 59.0206 45.1296C58.9254 45.0195 58.7989 44.9645 58.6412 44.9645H58.0164C58.0045 44.9645 57.9985 44.9705 57.9985 44.9824V46.1339C57.9985 46.1458 58.0045 46.1517 58.0164 46.1517H58.6412ZM60.8354 47.8522C60.6539 47.8522 60.4932 47.815 60.3533 47.7407C60.2165 47.6633 60.1094 47.5562 60.032 47.4193C59.9576 47.2824 59.9204 47.1247 59.9204 46.9462V45.567C59.9204 45.3885 59.9576 45.2308 60.032 45.0939C60.1094 44.9541 60.2165 44.847 60.3533 44.7726C60.4932 44.6952 60.6539 44.6565 60.8354 44.6565C61.0169 44.6565 61.1761 44.6952 61.3129 44.7726C61.4528 44.847 61.5614 44.9541 61.6388 45.0939C61.7161 45.2308 61.7548 45.3885 61.7548 45.567V46.9462C61.7548 47.1247 61.7161 47.2824 61.6388 47.4193C61.5614 47.5562 61.4528 47.6633 61.3129 47.7407C61.1761 47.815 61.0169 47.8522 60.8354 47.8522ZM60.8354 47.5755C61.0169 47.5755 61.1627 47.519 61.2728 47.4059C61.3829 47.2928 61.4379 47.1441 61.4379 46.9596V45.5581C61.4379 45.3707 61.3829 45.2204 61.2728 45.1073C61.1627 44.9913 61.0169 44.9333 60.8354 44.9333C60.6568 44.9333 60.5125 44.9913 60.4024 45.1073C60.2923 45.2204 60.2373 45.3707 60.2373 45.5581V46.9596C60.2373 47.1441 60.2923 47.2928 60.4024 47.4059C60.5125 47.519 60.6568 47.5755 60.8354 47.5755ZM62.4558 47.8165C62.4261 47.8165 62.4112 47.8017 62.4112 47.7719V44.7369C62.4112 44.7071 62.4261 44.6922 62.4558 44.6922H62.6834C62.7132 44.6922 62.7281 44.7071 62.7281 44.7369V47.522C62.7281 47.5339 62.734 47.5398 62.7459 47.5398H64.0447C64.0745 47.5398 64.0894 47.5547 64.0894 47.5844V47.7719C64.0894 47.8017 64.0745 47.8165 64.0447 47.8165H62.4558ZM66.2827 44.9243C66.2827 44.9541 66.2678 44.969 66.2381 44.969H64.8991C64.8872 44.969 64.8813 44.9749 64.8813 44.9868V46.0937C64.8813 46.1056 64.8872 46.1116 64.8991 46.1116H65.8007C65.8304 46.1116 65.8453 46.1264 65.8453 46.1562V46.3437C65.8453 46.3734 65.8304 46.3883 65.8007 46.3883H64.8991C64.8872 46.3883 64.8813 46.3942 64.8813 46.4061V47.522C64.8813 47.5339 64.8872 47.5398 64.8991 47.5398H66.2381C66.2678 47.5398 66.2827 47.5547 66.2827 47.5844V47.7719C66.2827 47.8017 66.2678 47.8165 66.2381 47.8165H64.609C64.5792 47.8165 64.5644 47.8017 64.5644 47.7719V44.7369C64.5644 44.7071 64.5792 44.6922 64.609 44.6922H66.2381C66.2678 44.6922 66.2827 44.7071 66.2827 44.7369V44.9243ZM67.7003 47.8522C67.5188 47.8522 67.3581 47.815 67.2182 47.7407C67.0814 47.6633 66.9742 47.5562 66.8969 47.4193C66.8225 47.2824 66.7853 47.1247 66.7853 46.9462V45.567C66.7853 45.3885 66.8225 45.2308 66.8969 45.0939C66.9742 44.9541 67.0814 44.847 67.2182 44.7726C67.3581 44.6952 67.5188 44.6565 67.7003 44.6565C67.8818 44.6565 68.041 44.6952 68.1778 44.7726C68.3177 44.847 68.4263 44.9541 68.5037 45.0939C68.581 45.2308 68.6197 45.3885 68.6197 45.567V46.9462C68.6197 47.1247 68.581 47.2824 68.5037 47.4193C68.4263 47.5562 68.3177 47.6633 68.1778 47.7407C68.041 47.815 67.8818 47.8522 67.7003 47.8522ZM67.7003 47.5755C67.8818 47.5755 68.0276 47.519 68.1377 47.4059C68.2478 47.2928 68.3028 47.1441 68.3028 46.9596V45.5581C68.3028 45.3707 68.2478 45.2204 68.1377 45.1073C68.0276 44.9913 67.8818 44.9333 67.7003 44.9333C67.5217 44.9333 67.3774 44.9913 67.2673 45.1073C67.1572 45.2204 67.1022 45.3707 67.1022 45.5581V46.9596C67.1022 47.1441 67.1572 47.2928 67.2673 47.4059C67.3774 47.519 67.5217 47.5755 67.7003 47.5755ZM70.8293 44.7369C70.8293 44.7071 70.8442 44.6922 70.8739 44.6922H71.1016C71.1313 44.6922 71.1462 44.7071 71.1462 44.7369V47.7719C71.1462 47.8017 71.1313 47.8165 71.1016 47.8165H70.8605C70.8338 47.8165 70.8159 47.8061 70.807 47.7853L69.6108 45.3974C69.6049 45.3915 69.5989 45.3885 69.593 45.3885C69.59 45.3885 69.5885 45.393 69.5885 45.4019L69.593 47.7719C69.593 47.8017 69.5781 47.8165 69.5483 47.8165H69.3207C69.291 47.8165 69.2761 47.8017 69.2761 47.7719V44.7369C69.2761 44.7071 69.291 44.6922 69.3207 44.6922H69.5617C69.5885 44.6922 69.6064 44.7027 69.6153 44.7235L70.8114 47.1203C70.8174 47.1262 70.8219 47.1292 70.8248 47.1292C70.8308 47.1292 70.8338 47.1247 70.8338 47.1158L70.8293 44.7369ZM54.1656 51.3347C54.2221 51.4895 54.2504 51.6665 54.2504 51.8659C54.2504 52.0444 54.2281 52.1991 54.1834 52.33C54.0733 52.6782 53.8294 52.8522 53.4515 52.8522C53.2491 52.8522 53.0795 52.7987 52.9427 52.6916C52.8058 52.5815 52.718 52.4312 52.6793 52.2408C52.6585 52.1456 52.6481 52.0369 52.6481 51.9149C52.6481 51.8852 52.663 51.8703 52.6927 51.8703H52.9203C52.9501 51.8703 52.965 51.8852 52.965 51.9149C52.9709 52.0429 52.9784 52.1292 52.9873 52.1738C53.0141 52.2988 53.0676 52.397 53.148 52.4684C53.2283 52.5398 53.3295 52.5755 53.4515 52.5755C53.6806 52.5755 53.8294 52.4595 53.8978 52.2274C53.9246 52.1203 53.938 51.9923 53.938 51.8435C53.938 51.665 53.9186 51.5177 53.8799 51.4017C53.8026 51.1934 53.6597 51.0892 53.4515 51.0892C53.4039 51.0892 53.3622 51.0982 53.3265 51.116C53.3086 51.122 53.2982 51.125 53.2952 51.125C53.2833 51.125 53.2729 51.119 53.264 51.1071L53.148 50.9866C53.1331 50.9658 53.1316 50.9449 53.1435 50.9241L53.8398 49.9913C53.8457 49.9853 53.8472 49.9809 53.8442 49.9779C53.8413 49.9719 53.8368 49.969 53.8308 49.969H52.715C52.6853 49.969 52.6704 49.9541 52.6704 49.9243V49.7369C52.6704 49.7071 52.6853 49.6922 52.715 49.6922H54.1924C54.2221 49.6922 54.237 49.7071 54.237 49.7369V49.9377C54.237 49.9615 54.231 49.9809 54.2191 49.9957L53.572 50.8795C53.569 50.8824 53.569 50.8869 53.572 50.8929C53.5749 50.8988 53.5794 50.9018 53.5854 50.9018C53.7252 50.9077 53.8442 50.9479 53.9424 51.0223C54.0406 51.0967 54.115 51.2008 54.1656 51.3347ZM55.6336 52.8612C55.3777 52.8612 55.1724 52.7838 55.0177 52.6291C54.863 52.4743 54.7856 52.2675 54.7856 52.0087V50.5001C54.7856 50.2442 54.863 50.0389 55.0177 49.8842C55.1724 49.7294 55.3777 49.6521 55.6336 49.6521C55.8925 49.6521 56.0993 49.7294 56.254 49.8842C56.4117 50.0389 56.4906 50.2442 56.4906 50.5001V52.0087C56.4906 52.2675 56.4117 52.4743 56.254 52.6291C56.0993 52.7838 55.8925 52.8612 55.6336 52.8612ZM55.6336 52.5844C55.7973 52.5844 55.9282 52.5339 56.0264 52.4327C56.1246 52.3315 56.1737 52.1976 56.1737 52.031V50.4822C56.1737 50.3156 56.1246 50.1817 56.0264 50.0805C55.9282 49.9794 55.7973 49.9288 55.6336 49.9288C55.4759 49.9288 55.348 49.9794 55.2498 50.0805C55.1516 50.1817 55.1025 50.3156 55.1025 50.4822V52.031C55.1025 52.1946 55.1516 52.3285 55.2498 52.4327C55.348 52.5339 55.4759 52.5844 55.6336 52.5844ZM57.7666 50.9196C57.6506 50.9196 57.5435 50.8914 57.4453 50.8348C57.3501 50.7783 57.2742 50.7024 57.2177 50.6072C57.1611 50.509 57.1329 50.4019 57.1329 50.2859C57.1329 50.1698 57.1611 50.0642 57.2177 49.969C57.2742 49.8708 57.3501 49.7934 57.4453 49.7369C57.5435 49.6803 57.6506 49.6521 57.7666 49.6521C57.8797 49.6521 57.9839 49.6803 58.0791 49.7369C58.1773 49.7934 58.2546 49.8708 58.3112 49.969C58.3677 50.0642 58.396 50.1698 58.396 50.2859C58.396 50.4019 58.3677 50.509 58.3112 50.6072C58.2546 50.7024 58.1773 50.7783 58.0791 50.8348C57.9839 50.8914 57.8797 50.9196 57.7666 50.9196ZM57.664 52.8165C57.6491 52.8165 57.6372 52.8121 57.6283 52.8031C57.6223 52.7912 57.6238 52.7778 57.6327 52.763L59.2931 49.7235C59.302 49.7027 59.3199 49.6922 59.3466 49.6922H59.4895C59.5043 49.6922 59.5148 49.6982 59.5207 49.7101C59.5296 49.719 59.5296 49.7309 59.5207 49.7458L57.8604 52.7853C57.8514 52.8061 57.8336 52.8165 57.8068 52.8165H57.664ZM57.7666 50.7233C57.8857 50.7233 57.9853 50.6816 58.0657 50.5983C58.149 50.512 58.1906 50.4079 58.1906 50.2859C58.1906 50.1639 58.149 50.0612 58.0657 49.9779C57.9853 49.8916 57.8857 49.8485 57.7666 49.8485C57.6476 49.8485 57.5465 49.8916 57.4631 49.9779C57.3798 50.0612 57.3382 50.1639 57.3382 50.2859C57.3382 50.4079 57.3798 50.512 57.4631 50.5983C57.5465 50.6816 57.6476 50.7233 57.7666 50.7233ZM59.4047 52.8567C59.2886 52.8567 59.1815 52.8284 59.0833 52.7719C58.9881 52.7154 58.9122 52.638 58.8557 52.5398C58.7991 52.4416 58.7709 52.3345 58.7709 52.2185C58.7709 52.1054 58.7991 52.0012 58.8557 51.906C58.9122 51.8078 58.9881 51.7305 59.0833 51.6739C59.1815 51.6174 59.2886 51.5891 59.4047 51.5891C59.5177 51.5891 59.6219 51.6174 59.7171 51.6739C59.8153 51.7305 59.8926 51.8078 59.9492 51.906C60.0057 52.0012 60.034 52.1054 60.034 52.2185C60.034 52.3345 60.0057 52.4416 59.9492 52.5398C59.8926 52.638 59.8153 52.7154 59.7171 52.7719C59.6219 52.8284 59.5177 52.8567 59.4047 52.8567ZM59.4047 52.6603C59.5237 52.6603 59.6234 52.6172 59.7037 52.5309C59.787 52.4446 59.8287 52.3404 59.8287 52.2185C59.8287 52.0965 59.787 51.9938 59.7037 51.9105C59.6234 51.8272 59.5237 51.7855 59.4047 51.7855C59.2856 51.7855 59.1845 51.8272 59.1012 51.9105C59.0178 51.9938 58.9762 52.0965 58.9762 52.2185C58.9762 52.3434 59.0164 52.4491 59.0967 52.5353C59.18 52.6187 59.2827 52.6603 59.4047 52.6603Z" fill="#404040"/>
<path fill-rule="evenodd" clip-rule="evenodd" d="M37.6487 22.0169C35.3128 22.2947 33.3701 23.9452 32.7268 26.2004C32.6651 26.4096 32.5968 26.7266 32.5709 26.9031L32.5221 27.2267L32.7463 27.5209C32.8697 27.681 33.0062 27.8575 33.0484 27.9131L33.2835 28.0706L33.3014 27.4196V26.8247L33.3766 26.8182H33.6202V27.8477V28.8773H33.4253L33.3358 28.7923L33.0174 28.3772C32.842 28.1484 32.5183 27.6283 32.4956 27.6022C32.4306 27.5237 32.5254 28.5471 32.6131 28.9753C32.964 30.7206 34.1043 32.2208 35.6962 33.0281C36.869 33.623 38.2237 33.7962 39.52 33.5151C40.3906 33.3288 41.2743 32.9007 41.9533 32.3418C43.2951 31.2338 44.0813 29.5963 44.0813 27.8967C44.0813 26.7986 43.7921 26.4717 42.3269 25.9096C41.7649 25.6938 41.44 25.537 41.1249 25.331C40.6928 25.05 40.4849 24.7623 39.9553 23.7295C39.4063 22.6542 39.1334 22.2882 38.737 22.0921C38.5648 22.0071 38.5064 21.9973 38.2172 21.9907C38.0385 21.9875 37.7819 22.0005 37.6487 22.0169ZM37.7299 24.8048C38.0223 24.9388 38.2335 25.1872 38.8052 26.0664C39.1659 26.6188 39.2926 26.7593 39.5232 26.8705C39.6174 26.9162 39.7214 26.9881 39.7539 27.0273C39.8091 27.1025 40.1961 27.2959 40.2676 27.2959C40.2871 27.2959 40.3124 27.1842 40.3124 27.047V26.8182H40.735C41.1346 26.8182 41.2841 26.8312 41.3783 26.8705C41.7779 27.0371 41.9241 27.5405 41.6837 27.9294C41.5992 28.0634 41.5959 28.0863 41.6317 28.1746C41.7356 28.4164 41.6512 28.9524 41.427 29.4884C41.2093 30.0081 40.6798 30.6585 40.2185 30.969C39.9358 31.1586 39.4712 31.3743 39.1594 31.4593C38.7858 31.5606 38.0808 31.5835 37.7104 31.5083C36.4726 31.2567 35.5402 30.433 35.1017 29.2106C35.0562 29.0799 35.0172 28.9459 35.0172 28.9165C35.0172 28.8642 34.9685 28.8609 34.4649 28.8707L34.0895 28.8903V27.8542V26.8182L34.5104 26.8247L35.1114 26.8345L35.1959 26.6188C35.4655 25.9259 36.125 25.2166 36.8332 24.8604C37.1906 24.6774 37.4245 24.6643 37.7299 24.8048ZM42.4894 27.2104V27.6026H42.9117H43.334V27.2104V26.8182H43.5777H43.8214V27.8477V28.8773H43.5777H43.334V28.4687V28.0602H42.9117H42.4894V28.4687V28.8773H42.2619H42.0345V27.8477V26.8182H42.2619H42.4894V27.2104Z" fill="#FF1368"/>
<path fill-rule="evenodd" clip-rule="evenodd" d="M34.3999 27.8294V28.421H34.6598H34.9197V28.0321C34.9197 27.8196 34.936 27.568 34.9522 27.4732C34.9717 27.3784 34.9619 27.2137 34.9522 27.2072C34.9425 27.1974 34.8125 27.181 34.6598 27.1745L34.3837 27.1581L34.3999 27.8294Z" fill="#FF1368"/>
<path fill-rule="evenodd" clip-rule="evenodd" d="M40.6619 27.3353C40.6619 27.4497 40.749 27.4693 41.0251 27.6C41.2883 27.7242 41.3143 27.7307 41.35 27.6784C41.4117 27.5935 41.402 27.4235 41.3305 27.3353C41.2753 27.2666 41.2525 27.1987 41.0251 27.1889H40.6619V27.3353Z" fill="#FF1368"/>
<path fill-rule="evenodd" clip-rule="evenodd" d="M45.9144 26.7798C45.8082 26.8153 45.6587 26.8862 45.5863 26.9318C45.4608 27.023 45.456 27.023 45.456 26.9166C45.456 26.8254 45.427 26.8102 45.263 26.8102H45.07V27.8486V28.8869H45.2582H45.4463L45.4657 28.1829C45.4801 27.5599 45.4946 27.4586 45.5815 27.3319C45.8034 27.023 46.3342 27.0027 46.4693 27.3015C46.5079 27.3877 46.5369 27.7169 46.5465 28.1525L46.5658 28.8616L46.7588 28.8768L46.9567 28.892L46.9422 28.1423L46.9277 27.3927L46.6961 27.2661C46.5417 27.18 46.4307 27.0686 46.3583 26.9369C46.2329 26.7089 46.1846 26.6887 45.9144 26.7798Z" fill="black"/>
<path fill-rule="evenodd" clip-rule="evenodd" d="M30.4101 26.8156C30.0482 26.9321 29.6911 27.5247 29.7538 27.9097C29.7924 28.1528 29.8117 28.1781 30.0337 28.2845C30.164 28.3453 30.3232 28.477 30.4342 28.6239C30.6755 28.9379 30.6851 28.943 30.8781 28.9126C31.1532 28.8568 31.4571 28.6289 31.5874 28.3706C31.6791 28.1832 31.6791 28.1781 31.4668 28.1781C31.3317 28.1781 31.2545 28.2085 31.2062 28.2794C31.1146 28.4162 30.8878 28.5327 30.7092 28.5327C30.5114 28.5327 30.2557 28.3453 30.1736 28.1376L30.1109 27.9755H30.9119H31.7129L31.6936 27.702C31.6695 27.3829 31.5102 27.1044 31.2497 26.922C31.0615 26.7853 30.6562 26.7346 30.4101 26.8156ZM31.0277 27.2411C31.1049 27.2867 31.2062 27.388 31.2448 27.469L31.322 27.621H30.7382C30.3473 27.621 30.1591 27.6007 30.1591 27.5653C30.1591 27.5349 30.2315 27.4336 30.3232 27.3373C30.4583 27.1955 30.5259 27.1651 30.6851 27.1651C30.7961 27.1651 30.9505 27.2006 31.0277 27.2411Z" fill="black"/>
<path fill-rule="evenodd" clip-rule="evenodd" d="M36.7799 26.8147C36.5386 26.8907 36.1622 27.2959 36.0947 27.5643C35.921 28.2431 36.4325 28.9066 37.1321 28.9066C38.02 28.9116 38.5073 27.8581 37.938 27.1642C37.6484 26.8046 37.2286 26.678 36.7799 26.8147ZM37.5712 27.3314C37.7208 27.4732 37.7498 27.5441 37.7691 27.7518C37.8221 28.3342 37.3589 28.6837 36.8426 28.4609C36.5917 28.3494 36.4711 28.1114 36.4952 27.7771C36.5097 27.539 36.5386 27.4782 36.6882 27.3314C36.8426 27.1845 36.8957 27.1642 37.1321 27.1642C37.3686 27.1642 37.4216 27.1845 37.5712 27.3314Z" fill="black"/>
<path fill-rule="evenodd" clip-rule="evenodd" d="M31.9446 27.8489V28.8873H32.1617H32.374L32.3885 28.244L32.403 27.5957L32.8373 28.1782C33.3873 28.9227 33.3632 28.8974 33.5466 28.8771L33.7058 28.8619V27.8489V26.8359L33.5031 26.8207L33.2957 26.8055V27.4133C33.2957 28.0769 33.2571 28.1528 33.0785 27.8793C33.0254 27.7983 32.8324 27.5248 32.6442 27.2715C32.3258 26.8359 32.3017 26.8106 32.1279 26.8106H31.9446V27.8489Z" fill="black"/>
<path fill-rule="evenodd" clip-rule="evenodd" d="M34.0677 27.843V28.8864H34.5405C35.0858 28.8864 35.3126 28.8307 35.5152 28.6484C35.7662 28.4306 35.8675 28.1621 35.8434 27.767C35.8289 27.4733 35.8048 27.3922 35.6793 27.2301C35.4187 26.8959 35.274 26.8351 34.637 26.8148L34.0677 26.7996V27.843ZM35.2209 27.3466C35.5008 27.5898 35.5104 28.0709 35.2499 28.3293C35.1485 28.4306 35.0761 28.4508 34.8059 28.4508L34.4778 28.4559L34.4633 27.8329L34.4489 27.215H34.7625C35.0279 27.215 35.0954 27.2352 35.2209 27.3466Z" fill="black"/>
<path fill-rule="evenodd" clip-rule="evenodd" d="M38.3625 27.8483V28.8867H38.5796H38.7968V28.5321V28.1776H38.9801C39.1538 28.1776 39.1635 28.1927 39.342 28.5321L39.5254 28.8867H39.7715H40.0127L39.8535 28.5929C39.7715 28.4359 39.675 28.2637 39.646 28.2181C39.6074 28.1472 39.6267 28.0965 39.7618 27.9496C39.9114 27.7926 39.9259 27.742 39.9259 27.4938C39.9259 27.2709 39.9066 27.1949 39.8101 27.0835C39.5978 26.8505 39.4675 26.81 38.8933 26.81H38.3625V27.8483ZM39.4337 27.3013C39.482 27.3469 39.5206 27.433 39.5206 27.4988C39.5206 27.6964 39.3951 27.7724 39.0815 27.7724H38.7968V27.4938V27.2152H39.0718C39.2552 27.2152 39.371 27.2405 39.4337 27.3013Z" fill="black"/>
<path fill-rule="evenodd" clip-rule="evenodd" d="M40.2733 27.377C40.254 27.6911 40.2492 28.152 40.2637 28.4052L40.283 28.8611L40.4808 28.8763L40.6738 28.8915L40.6883 28.5724L40.7028 28.2533L41.0405 28.228C41.2287 28.2128 41.4266 28.1722 41.4893 28.1368C41.7499 27.9798 41.8705 27.4986 41.7209 27.1947C41.5761 26.9009 41.4266 26.8351 40.8427 26.8199L40.3071 26.7996L40.2733 27.377ZM41.2577 27.2656C41.3831 27.3365 41.4217 27.5543 41.3301 27.7012C41.2673 27.8076 41.2191 27.8228 40.9682 27.8228H40.6786V27.5189V27.215H40.9247C41.0598 27.215 41.2094 27.2352 41.2577 27.2656Z" fill="black"/>
<path fill-rule="evenodd" clip-rule="evenodd" d="M42.0781 27.854V28.8923L42.2856 28.8771L42.4882 28.8619V28.4567V28.0515L42.937 28.0363L43.3809 28.0211V28.4567V28.8923L43.5884 28.8771L43.791 28.8619V27.8489V26.8359L43.5884 26.8207L43.3809 26.8055V27.2107V27.621H42.9225H42.4641V27.2158V26.8106H42.2711H42.0781V27.854Z" fill="black"/>
<path fill-rule="evenodd" clip-rule="evenodd" d="M44.2014 27.8483V28.8867H44.4186H44.6357V27.8483V26.81H44.4186H44.2014V27.8483Z" fill="black"/>
</svg>
