<svg width="91" height="57" viewBox="0 0 91 57" fill="none" xmlns="http://www.w3.org/2000/svg">
<path d="M41.512 28.1756L41.4105 27.4255L42.5864 28.5811L41.512 28.1756Z" fill="#FF9D00"/>
<path d="M42.5877 50.3565C38.0322 50.5154 33.5432 49.2302 29.7642 46.6851C25.9852 44.14 23.1102 40.4658 21.5512 36.1889L28.6503 33.609C29.6636 36.389 31.5324 38.7772 33.9888 40.4315C36.4451 42.0858 39.3629 42.9212 42.324 42.818L42.5877 50.3565Z" fill="#EEFF83"/>
<path d="M53.9045 10.9504C57.6835 13.4954 60.5586 17.1697 62.1176 21.4466C63.6766 25.7234 63.8396 30.3833 62.5831 34.7583C61.3267 39.1333 58.7153 42.9989 55.1233 45.8009C51.5314 48.603 47.1431 50.1977 42.5876 50.3565L42.324 42.818C45.2851 42.7147 48.1374 41.6782 50.4722 39.8568C52.807 38.0355 54.5044 35.5229 55.3211 32.6791C56.1378 29.8353 56.0318 26.8064 55.0185 24.0265C54.0051 21.2465 52.1363 18.8582 49.68 17.204L53.9045 10.9504Z" fill="#409219"/>
<path d="M21.5512 36.1889C19.9921 31.9121 19.8291 27.2522 21.0856 22.8772C22.342 18.5022 24.9534 14.6367 28.5453 11.8346C32.1373 9.03251 36.5255 7.43777 41.0811 7.27893C45.6366 7.12009 50.1255 8.4053 53.9045 10.9504L49.68 17.2039C47.2236 15.5497 44.3058 14.7143 41.3447 14.8175C38.3836 14.9208 35.5313 15.9573 33.1965 17.7787C30.8617 19.6 29.1643 22.1126 28.3477 24.9564C27.531 27.8002 27.6369 30.8291 28.6503 33.609L21.5512 36.1889Z" fill="#FFF8DB"/>
<path d="M30.3282 14.0666L27.7862 10.8033H17.2551" stroke="black" stroke-width="0.145684"/>
<path d="M30.6912 46.3377L28.1492 49.601H17.6181" stroke="black" stroke-width="0.145684"/>
<path d="M5.73215 48.198C5.46138 48.198 5.24268 48.1191 5.07605 47.9614C4.9124 47.8037 4.83057 47.594 4.83057 47.3321V45.8682C4.83057 45.6063 4.9124 45.3966 5.07605 45.2389C5.24268 45.0812 5.46138 45.0023 5.73215 45.0023C5.91068 45.0023 6.0669 45.038 6.20079 45.1094C6.33767 45.1808 6.4433 45.2805 6.51769 45.4085C6.59505 45.5364 6.63373 45.6837 6.63373 45.8503V45.9753C6.63373 46.005 6.61885 46.0199 6.5891 46.0199H6.36147C6.33172 46.0199 6.31684 46.005 6.31684 45.9753V45.8503C6.31684 45.6807 6.26328 45.5438 6.15616 45.4397C6.04904 45.3326 5.90771 45.279 5.73215 45.279C5.5566 45.279 5.41526 45.3326 5.30814 45.4397C5.20102 45.5438 5.14746 45.6837 5.14746 45.8592V47.3411C5.14746 47.5136 5.20102 47.6535 5.30814 47.7606C5.41823 47.8677 5.56106 47.9213 5.73661 47.9213C5.91217 47.9213 6.05202 47.8707 6.15616 47.7695C6.26328 47.6684 6.31684 47.5315 6.31684 47.3589V46.8724C6.31684 46.8605 6.31089 46.8546 6.29899 46.8546H5.77678C5.74703 46.8546 5.73215 46.8397 5.73215 46.8099V46.6225C5.73215 46.5927 5.74703 46.5778 5.77678 46.5778H6.5891C6.61885 46.5778 6.63373 46.5927 6.63373 46.6225V47.3187C6.63373 47.5895 6.5519 47.8037 6.38825 47.9614C6.2246 48.1191 6.0059 48.198 5.73215 48.198ZM8.82174 48.1623C8.79794 48.1623 8.78157 48.1504 8.77265 48.1266L8.2192 46.7474C8.21623 46.7385 8.21027 46.734 8.20135 46.734H7.62559C7.61368 46.734 7.60773 46.74 7.60773 46.7519V48.1177C7.60773 48.1474 7.59286 48.1623 7.5631 48.1623H7.33547C7.30572 48.1623 7.29084 48.1474 7.29084 48.1177V45.0826C7.29084 45.0529 7.30572 45.038 7.33547 45.038H8.28169C8.43641 45.038 8.57329 45.0737 8.69231 45.1451C8.8143 45.2165 8.90803 45.3177 8.97349 45.4486C9.04193 45.5795 9.07615 45.7298 9.07615 45.8994C9.07615 46.1018 9.02705 46.2743 8.92886 46.4172C8.83067 46.56 8.69677 46.6552 8.52717 46.7028C8.51526 46.7088 8.51229 46.7162 8.51824 46.7251L9.094 48.1087L9.09846 48.1266C9.09846 48.1504 9.08508 48.1623 9.0583 48.1623H8.82174ZM7.62559 45.3147C7.61368 45.3147 7.60773 45.3207 7.60773 45.3326V46.4618C7.60773 46.4737 7.61368 46.4796 7.62559 46.4796H8.24152C8.39624 46.4796 8.52122 46.4261 8.61643 46.319C8.71165 46.2118 8.75926 46.072 8.75926 45.8994C8.75926 45.7239 8.71165 45.5825 8.61643 45.4754C8.52122 45.3683 8.39624 45.3147 8.24152 45.3147H7.62559ZM11.3672 45.2701C11.3672 45.2999 11.3524 45.3147 11.3226 45.3147H9.98362C9.97172 45.3147 9.96577 45.3207 9.96577 45.3326V46.4395C9.96577 46.4514 9.97172 46.4573 9.98362 46.4573H10.8852C10.915 46.4573 10.9298 46.4722 10.9298 46.502V46.6894C10.9298 46.7192 10.915 46.734 10.8852 46.734H9.98362C9.97172 46.734 9.96577 46.74 9.96577 46.7519V47.8677C9.96577 47.8796 9.97172 47.8856 9.98362 47.8856H11.3226C11.3524 47.8856 11.3672 47.9004 11.3672 47.9302V48.1177C11.3672 48.1474 11.3524 48.1623 11.3226 48.1623H9.69351C9.66375 48.1623 9.64888 48.1474 9.64888 48.1177V45.0826C9.64888 45.0529 9.66375 45.038 9.69351 45.038H11.3226C11.3524 45.038 11.3672 45.0529 11.3672 45.0826V45.2701ZM13.673 45.2701C13.673 45.2999 13.6581 45.3147 13.6283 45.3147H12.2894C12.2774 45.3147 12.2715 45.3207 12.2715 45.3326V46.4395C12.2715 46.4514 12.2774 46.4573 12.2894 46.4573H13.1909C13.2207 46.4573 13.2356 46.4722 13.2356 46.502V46.6894C13.2356 46.7192 13.2207 46.734 13.1909 46.734H12.2894C12.2774 46.734 12.2715 46.74 12.2715 46.7519V47.8677C12.2715 47.8796 12.2774 47.8856 12.2894 47.8856H13.6283C13.6581 47.8856 13.673 47.9004 13.673 47.9302V48.1177C13.673 48.1474 13.6581 48.1623 13.6283 48.1623H11.9992C11.9695 48.1623 11.9546 48.1474 11.9546 48.1177V45.0826C11.9546 45.0529 11.9695 45.038 11.9992 45.038H13.6283C13.6581 45.038 13.673 45.0529 13.673 45.0826V45.2701ZM15.8136 45.0826C15.8136 45.0529 15.8284 45.038 15.8582 45.038H16.0858C16.1156 45.038 16.1304 45.0529 16.1304 45.0826V48.1177C16.1304 48.1474 16.1156 48.1623 16.0858 48.1623H15.8448C15.818 48.1623 15.8002 48.1519 15.7912 48.131L14.5951 45.7432C14.5891 45.7373 14.5832 45.7343 14.5772 45.7343C14.5743 45.7343 14.5728 45.7387 14.5728 45.7477L14.5772 48.1177C14.5772 48.1474 14.5624 48.1623 14.5326 48.1623H14.305C14.2752 48.1623 14.2603 48.1474 14.2603 48.1177V45.0826C14.2603 45.0529 14.2752 45.038 14.305 45.038H14.546C14.5728 45.038 14.5906 45.0484 14.5995 45.0692L15.7957 47.466C15.8017 47.472 15.8061 47.4749 15.8091 47.4749C15.815 47.4749 15.818 47.4705 15.818 47.4616L15.8136 45.0826ZM19.3893 45.038C19.4191 45.038 19.434 45.0529 19.434 45.0826V45.2701C19.434 45.2999 19.4191 45.3147 19.3893 45.3147H18.6618C18.6499 45.3147 18.644 45.3207 18.644 45.3326V48.1177C18.644 48.1474 18.6291 48.1623 18.5993 48.1623H18.3717C18.3419 48.1623 18.3271 48.1474 18.3271 48.1177V45.3326C18.3271 45.3207 18.3211 45.3147 18.3092 45.3147H17.6085C17.5787 45.3147 17.5639 45.2999 17.5639 45.2701V45.0826C17.5639 45.0529 17.5787 45.038 17.6085 45.038H19.3893ZM21.6973 45.2701C21.6973 45.2999 21.6824 45.3147 21.6526 45.3147H20.3136C20.3017 45.3147 20.2958 45.3207 20.2958 45.3326V46.4395C20.2958 46.4514 20.3017 46.4573 20.3136 46.4573H21.2152C21.245 46.4573 21.2599 46.4722 21.2599 46.502V46.6894C21.2599 46.7192 21.245 46.734 21.2152 46.734H20.3136C20.3017 46.734 20.2958 46.74 20.2958 46.7519V47.8677C20.2958 47.8796 20.3017 47.8856 20.3136 47.8856H21.6526C21.6824 47.8856 21.6973 47.9004 21.6973 47.9302V48.1177C21.6973 48.1474 21.6824 48.1623 21.6526 48.1623H20.0235C19.9938 48.1623 19.9789 48.1474 19.9789 48.1177V45.0826C19.9789 45.0529 19.9938 45.038 20.0235 45.038H21.6526C21.6824 45.038 21.6973 45.0529 21.6973 45.0826V45.2701ZM23.85 48.1623C23.8232 48.1623 23.8068 48.1489 23.8009 48.1221L23.6536 47.5642C23.6506 47.5553 23.6432 47.5508 23.6313 47.5508H22.5646C22.5527 47.5508 22.5452 47.5553 22.5422 47.5642L22.395 48.1221C22.389 48.1489 22.3726 48.1623 22.3459 48.1623H22.1138C22.0989 48.1623 22.087 48.1578 22.0781 48.1489C22.0721 48.14 22.0706 48.1281 22.0736 48.1132L22.9082 45.0782C22.9142 45.0514 22.9305 45.038 22.9573 45.038H23.243C23.2698 45.038 23.2861 45.0514 23.2921 45.0782L24.1267 48.1132L24.1312 48.1266C24.1312 48.1504 24.1163 48.1623 24.0865 48.1623H23.85ZM22.6181 47.2741C22.6151 47.2771 22.6151 47.2815 22.6181 47.2875C22.6241 47.2905 22.63 47.292 22.636 47.292H23.5599C23.5658 47.292 23.5703 47.2905 23.5733 47.2875C23.5792 47.2815 23.5807 47.2771 23.5777 47.2741L23.1046 45.4799C23.1016 45.4739 23.0987 45.4709 23.0957 45.4709C23.0927 45.4709 23.0897 45.4739 23.0868 45.4799L22.6181 47.2741ZM5.16532 52.8633C5.15639 52.8781 5.15936 52.8856 5.17424 52.8856H6.40164C6.4314 52.8856 6.44627 52.9004 6.44627 52.9302V53.1177C6.44627 53.1474 6.4314 53.1623 6.40164 53.1623H4.81272C4.78296 53.1623 4.76809 53.1474 4.76809 53.1177V52.9213C4.76809 52.9034 4.77404 52.8841 4.78594 52.8633C5.05373 52.5002 5.35277 52.0837 5.68305 51.6135C5.91812 51.2714 6.03565 50.9976 6.03565 50.7923C6.03565 50.6376 5.99102 50.5141 5.90175 50.4218C5.81249 50.3266 5.69496 50.279 5.54916 50.279C5.40633 50.279 5.29178 50.3266 5.20549 50.4218C5.1192 50.5141 5.07754 50.6376 5.08051 50.7923V50.944C5.08051 50.9738 5.06564 50.9887 5.03588 50.9887H4.80379C4.77404 50.9887 4.75916 50.9738 4.75916 50.944V50.7655C4.76511 50.5364 4.84099 50.3519 4.98679 50.2121C5.13556 50.0722 5.32599 50.0023 5.55808 50.0023C5.79612 50.0023 5.98804 50.0752 6.13384 50.221C6.27964 50.3668 6.35254 50.5572 6.35254 50.7923C6.35254 51.0541 6.23055 51.3636 5.98656 51.7207C5.83481 51.9408 5.59528 52.2741 5.26797 52.7204L5.16532 52.8633ZM7.75736 53.2069C7.50146 53.2069 7.29615 53.1296 7.14143 52.9748C6.9867 52.8201 6.90934 52.6133 6.90934 52.3544V50.8459C6.90934 50.59 6.9867 50.3847 7.14143 50.2299C7.29615 50.0752 7.50146 49.9978 7.75736 49.9978C8.01623 49.9978 8.22303 50.0752 8.37775 50.2299C8.53545 50.3847 8.61431 50.59 8.61431 50.8459V52.3544C8.61431 52.6133 8.53545 52.8201 8.37775 52.9748C8.22303 53.1296 8.01623 53.2069 7.75736 53.2069ZM7.75736 52.9302C7.92101 52.9302 8.05193 52.8796 8.15013 52.7785C8.24832 52.6773 8.29741 52.5434 8.29741 52.3768V50.828C8.29741 50.6614 8.24832 50.5275 8.15013 50.4263C8.05193 50.3251 7.92101 50.2746 7.75736 50.2746C7.59966 50.2746 7.47171 50.3251 7.37352 50.4263C7.27533 50.5275 7.22623 50.6614 7.22623 50.828V52.3768C7.22623 52.5404 7.27533 52.6743 7.37352 52.7785C7.47171 52.8796 7.59966 52.9302 7.75736 52.9302ZM9.89038 51.2654C9.77434 51.2654 9.66722 51.2371 9.56903 51.1806C9.47381 51.1241 9.39793 51.0482 9.3414 50.953C9.28486 50.8548 9.2566 50.7477 9.2566 50.6316C9.2566 50.5156 9.28486 50.4099 9.3414 50.3147C9.39793 50.2165 9.47381 50.1392 9.56903 50.0826C9.66722 50.0261 9.77434 49.9978 9.89038 49.9978C10.0034 49.9978 10.1076 50.0261 10.2028 50.0826C10.301 50.1392 10.3784 50.2165 10.4349 50.3147C10.4914 50.4099 10.5197 50.5156 10.5197 50.6316C10.5197 50.7477 10.4914 50.8548 10.4349 50.953C10.3784 51.0482 10.301 51.1241 10.2028 51.1806C10.1076 51.2371 10.0034 51.2654 9.89038 51.2654ZM9.78773 53.1623C9.77285 53.1623 9.76095 53.1578 9.75202 53.1489C9.74607 53.137 9.74756 53.1236 9.75648 53.1087L11.4168 50.0692C11.4257 50.0484 11.4436 50.038 11.4704 50.038H11.6132C11.6281 50.038 11.6385 50.044 11.6444 50.0559C11.6534 50.0648 11.6534 50.0767 11.6444 50.0916L9.98411 53.131C9.97518 53.1519 9.95733 53.1623 9.93055 53.1623H9.78773ZM9.89038 51.069C10.0094 51.069 10.1091 51.0274 10.1894 50.944C10.2727 50.8578 10.3144 50.7536 10.3144 50.6316C10.3144 50.5096 10.2727 50.407 10.1894 50.3237C10.1091 50.2374 10.0094 50.1942 9.89038 50.1942C9.77136 50.1942 9.67019 50.2374 9.58688 50.3237C9.50356 50.407 9.46191 50.5096 9.46191 50.6316C9.46191 50.7536 9.50356 50.8578 9.58688 50.944C9.67019 51.0274 9.77136 51.069 9.89038 51.069ZM11.5284 53.2025C11.4124 53.2025 11.3052 53.1742 11.207 53.1177C11.1118 53.0611 11.036 52.9838 10.9794 52.8856C10.9229 52.7874 10.8946 52.6803 10.8946 52.5642C10.8946 52.4511 10.9229 52.347 10.9794 52.2518C11.036 52.1536 11.1118 52.0762 11.207 52.0197C11.3052 51.9632 11.4124 51.9349 11.5284 51.9349C11.6415 51.9349 11.7456 51.9632 11.8408 52.0197C11.939 52.0762 12.0164 52.1536 12.0729 52.2518C12.1295 52.347 12.1577 52.4511 12.1577 52.5642C12.1577 52.6803 12.1295 52.7874 12.0729 52.8856C12.0164 52.9838 11.939 53.0611 11.8408 53.1177C11.7456 53.1742 11.6415 53.2025 11.5284 53.2025ZM11.5284 53.0061C11.6474 53.0061 11.7471 52.9629 11.8274 52.8766C11.9108 52.7904 11.9524 52.6862 11.9524 52.5642C11.9524 52.4422 11.9108 52.3396 11.8274 52.2562C11.7471 52.1729 11.6474 52.1313 11.5284 52.1313C11.4094 52.1313 11.3082 52.1729 11.2249 52.2562C11.1416 52.3396 11.0999 52.4422 11.0999 52.5642C11.0999 52.6892 11.1401 52.7948 11.2204 52.8811C11.3037 52.9644 11.4064 53.0061 11.5284 53.0061Z" fill="#404040"/>
<path d="M1.12685 9.40082C0.847151 9.40082 0.623988 9.32792 0.457359 9.18212C0.293706 9.03334 0.211879 8.83547 0.211879 8.5885V8.468C0.211879 8.43824 0.226757 8.42336 0.256512 8.42336H0.475212C0.504967 8.42336 0.519845 8.43824 0.519845 8.468V8.57065C0.519845 8.73728 0.576379 8.87118 0.689449 8.97234C0.802518 9.07351 0.952781 9.1241 1.14024 9.1241C1.31579 9.1241 1.45416 9.07649 1.55532 8.98127C1.65649 8.88606 1.70707 8.76108 1.70707 8.60636C1.70707 8.50519 1.68327 8.41741 1.63566 8.34302C1.58805 8.26864 1.51813 8.2002 1.42589 8.13771C1.33365 8.07523 1.20124 7.99638 1.02866 7.90116C0.844175 7.80297 0.698375 7.71668 0.591257 7.64229C0.487114 7.5679 0.402312 7.47715 0.336851 7.37003C0.271389 7.26291 0.238659 7.13199 0.238659 6.97726C0.238659 6.73625 0.316022 6.5473 0.470749 6.41043C0.625475 6.27356 0.832273 6.20512 1.09114 6.20512C1.36787 6.20512 1.58805 6.281 1.75171 6.43275C1.91536 6.5845 1.99719 6.78534 1.99719 7.03529V7.13794C1.99719 7.1677 1.98231 7.18257 1.95255 7.18257H1.72939C1.69963 7.18257 1.68476 7.1677 1.68476 7.13794V7.03975C1.68476 6.87312 1.6312 6.73922 1.52408 6.63806C1.41696 6.53391 1.26967 6.48184 1.08222 6.48184C0.915588 6.48184 0.784665 6.52499 0.689449 6.61128C0.597208 6.69757 0.551087 6.81956 0.551087 6.97726C0.551087 7.07843 0.573404 7.16323 0.618037 7.23167C0.662669 7.30011 0.726643 7.36259 0.809957 7.41913C0.896247 7.47566 1.02717 7.55154 1.20272 7.64675C1.40506 7.75982 1.55979 7.85653 1.6669 7.93687C1.777 8.01423 1.86329 8.10498 1.92577 8.20913C1.99123 8.31029 2.02397 8.43527 2.02397 8.58404C2.02397 8.83398 1.94363 9.03334 1.78295 9.18212C1.62227 9.32792 1.40357 9.40082 1.12685 9.40082ZM3.48792 9.40082C3.30641 9.40082 3.14573 9.36214 3.00588 9.28477C2.86901 9.20741 2.76189 9.0988 2.68453 8.95896C2.61014 8.81911 2.57295 8.65694 2.57295 8.47246V6.28546C2.57295 6.2557 2.58782 6.24083 2.61758 6.24083H2.84521C2.87496 6.24083 2.88984 6.2557 2.88984 6.28546V8.49031C2.88984 8.68074 2.94489 8.83398 3.05498 8.95003C3.16507 9.06607 3.30939 9.1241 3.48792 9.1241C3.66645 9.1241 3.81076 9.06607 3.92085 8.95003C4.03095 8.83398 4.08599 8.68074 4.08599 8.49031V6.28546C4.08599 6.2557 4.10087 6.24083 4.13063 6.24083H4.35825C4.38801 6.24083 4.40289 6.2557 4.40289 6.28546V8.47246C4.40289 8.65694 4.3642 8.81911 4.28684 8.95896C4.21245 9.0988 4.10534 9.20741 3.96549 9.28477C3.82861 9.36214 3.66942 9.40082 3.48792 9.40082ZM6.63312 6.28546C6.63312 6.2557 6.648 6.24083 6.67776 6.24083H6.90538C6.93514 6.24083 6.95002 6.2557 6.95002 6.28546V9.32048C6.95002 9.35023 6.93514 9.36511 6.90538 9.36511H6.66437C6.63759 9.36511 6.61974 9.3547 6.61081 9.33387L5.41465 6.94602C5.4087 6.94007 5.40275 6.9371 5.3968 6.9371C5.39382 6.9371 5.39234 6.94156 5.39234 6.95049L5.3968 9.32048C5.3968 9.35023 5.38192 9.36511 5.35217 9.36511H5.12454C5.09479 9.36511 5.07991 9.35023 5.07991 9.32048V6.28546C5.07991 6.2557 5.09479 6.24083 5.12454 6.24083H5.36556C5.39234 6.24083 5.41019 6.25124 5.41912 6.27207L6.61527 8.66884C6.62122 8.67479 6.62569 8.67777 6.62866 8.67777C6.63461 8.67777 6.63759 8.67331 6.63759 8.66438L6.63312 6.28546ZM7.70487 9.36511C7.67511 9.36511 7.66023 9.35023 7.66023 9.32048V6.28546C7.66023 6.2557 7.67511 6.24083 7.70487 6.24083H8.5752C8.84002 6.24083 9.04831 6.3167 9.20006 6.46845C9.35479 6.6202 9.43215 6.827 9.43215 7.08885V8.51709C9.43215 8.77894 9.35479 8.98573 9.20006 9.13749C9.04831 9.28924 8.84002 9.36511 8.5752 9.36511H7.70487ZM7.97713 9.07054C7.97713 9.08244 7.98308 9.08839 7.99498 9.08839H8.57967C8.74332 9.08541 8.87275 9.03186 8.96797 8.92771C9.06319 8.82059 9.11228 8.67479 9.11526 8.49031V7.11563C9.11526 6.93114 9.06765 6.78534 8.97243 6.67823C8.87722 6.57111 8.7463 6.51755 8.57967 6.51755H7.99498C7.98308 6.51755 7.97713 6.5235 7.97713 6.5354V9.07054ZM11.4921 9.36511C11.4653 9.36511 11.4489 9.35172 11.443 9.32494L11.2957 8.76703C11.2927 8.75811 11.2853 8.75364 11.2734 8.75364H10.2067C10.1948 8.75364 10.1873 8.75811 10.1844 8.76703L10.0371 9.32494C10.0311 9.35172 10.0147 9.36511 9.98797 9.36511H9.75588C9.741 9.36511 9.7291 9.36065 9.72017 9.35172C9.71422 9.3428 9.71273 9.33089 9.71571 9.31602L10.5503 6.281C10.5563 6.25422 10.5727 6.24083 10.5994 6.24083H10.8851C10.9119 6.24083 10.9282 6.25422 10.9342 6.281L11.7688 9.31602L11.7733 9.32941C11.7733 9.35321 11.7584 9.36511 11.7286 9.36511H11.4921ZM10.2602 8.47692C10.2573 8.4799 10.2573 8.48436 10.2602 8.49031C10.2662 8.49329 10.2721 8.49478 10.2781 8.49478H11.202C11.2079 8.49478 11.2124 8.49329 11.2154 8.49031C11.2213 8.48436 11.2228 8.4799 11.2198 8.47692L10.7467 6.68269C10.7437 6.67674 10.7408 6.67376 10.7378 6.67376C10.7348 6.67376 10.7318 6.67674 10.7289 6.68269L10.2602 8.47692ZM12.6306 9.36065C12.6008 9.36065 12.5859 9.34577 12.5859 9.31602V7.98596C12.5859 7.97406 12.5844 7.96662 12.5815 7.96365L11.8093 6.29438L11.8049 6.27653C11.8049 6.25273 11.8183 6.24083 11.845 6.24083H12.0861C12.1099 6.24083 12.1262 6.25273 12.1351 6.27653L12.7332 7.61105C12.7362 7.617 12.7407 7.61998 12.7466 7.61998C12.7526 7.61998 12.757 7.617 12.76 7.61105L13.3581 6.27653C13.367 6.25273 13.3834 6.24083 13.4072 6.24083H13.6482C13.6631 6.24083 13.6735 6.24678 13.6794 6.25868C13.6884 6.26761 13.6899 6.27951 13.6839 6.29438L12.9073 7.96365C12.9043 7.96662 12.9028 7.97406 12.9028 7.98596V9.31602C12.9028 9.34577 12.888 9.36065 12.8582 9.36065H12.6306ZM14.9264 9.40082C14.6467 9.40082 14.4235 9.32792 14.2569 9.18212C14.0932 9.03334 14.0114 8.83547 14.0114 8.5885V8.468C14.0114 8.43824 14.0263 8.42336 14.056 8.42336H14.2747C14.3045 8.42336 14.3194 8.43824 14.3194 8.468V8.57065C14.3194 8.73728 14.3759 8.87118 14.489 8.97234C14.602 9.07351 14.7523 9.1241 14.9398 9.1241C15.1153 9.1241 15.2537 9.07649 15.3548 8.98127C15.456 8.88606 15.5066 8.76108 15.5066 8.60636C15.5066 8.50519 15.4828 8.41741 15.4352 8.34302C15.3876 8.26864 15.3176 8.2002 15.2254 8.13771C15.1332 8.07523 15.0007 7.99638 14.8282 7.90116C14.6437 7.80297 14.4979 7.71668 14.3908 7.64229C14.2866 7.5679 14.2018 7.47715 14.1364 7.37003C14.0709 7.26291 14.0382 7.13199 14.0382 6.97726C14.0382 6.73625 14.1155 6.5473 14.2703 6.41043C14.425 6.27356 14.6318 6.20512 14.8907 6.20512C15.1674 6.20512 15.3876 6.281 15.5512 6.43275C15.7149 6.5845 15.7967 6.78534 15.7967 7.03529V7.13794C15.7967 7.1677 15.7818 7.18257 15.7521 7.18257H15.5289C15.4991 7.18257 15.4843 7.1677 15.4843 7.13794V7.03975C15.4843 6.87312 15.4307 6.73922 15.3236 6.63806C15.2165 6.53391 15.0692 6.48184 14.8817 6.48184C14.7151 6.48184 14.5842 6.52499 14.489 6.61128C14.3967 6.69757 14.3506 6.81956 14.3506 6.97726C14.3506 7.07843 14.3729 7.16323 14.4175 7.23167C14.4622 7.30011 14.5262 7.36259 14.6095 7.41913C14.6958 7.47566 14.8267 7.55154 15.0022 7.64675C15.2046 7.75982 15.3593 7.85653 15.4664 7.93687C15.5765 8.01423 15.6628 8.10498 15.7253 8.20913C15.7907 8.31029 15.8235 8.43527 15.8235 8.58404C15.8235 8.83398 15.7431 9.03334 15.5825 9.18212C15.4218 9.32792 15.2031 9.40082 14.9264 9.40082ZM17.2874 9.40082C17.1059 9.40082 16.9452 9.36214 16.8054 9.28477C16.6685 9.20741 16.5614 9.0988 16.484 8.95896C16.4097 8.81911 16.3725 8.65694 16.3725 8.47246V6.28546C16.3725 6.2557 16.3873 6.24083 16.4171 6.24083H16.6447C16.6745 6.24083 16.6894 6.2557 16.6894 6.28546V8.49031C16.6894 8.68074 16.7444 8.83398 16.8545 8.95003C16.9646 9.06607 17.1089 9.1241 17.2874 9.1241C17.466 9.1241 17.6103 9.06607 17.7204 8.95003C17.8305 8.83398 17.8855 8.68074 17.8855 8.49031V6.28546C17.8855 6.2557 17.9004 6.24083 17.9301 6.24083H18.1578C18.1875 6.24083 18.2024 6.2557 18.2024 6.28546V8.47246C18.2024 8.65694 18.1637 8.81911 18.0864 8.95896C18.012 9.0988 17.9048 9.20741 17.765 9.28477C17.6281 9.36214 17.4689 9.40082 17.2874 9.40082ZM20.4326 6.28546C20.4326 6.2557 20.4475 6.24083 20.4773 6.24083H20.7049C20.7347 6.24083 20.7495 6.2557 20.7495 6.28546V9.32048C20.7495 9.35023 20.7347 9.36511 20.7049 9.36511H20.4639C20.4371 9.36511 20.4192 9.3547 20.4103 9.33387L19.2142 6.94602C19.2082 6.94007 19.2023 6.9371 19.1963 6.9371C19.1933 6.9371 19.1919 6.94156 19.1919 6.95049L19.1963 9.32048C19.1963 9.35023 19.1814 9.36511 19.1517 9.36511H18.9241C18.8943 9.36511 18.8794 9.35023 18.8794 9.32048V6.28546C18.8794 6.2557 18.8943 6.24083 18.9241 6.24083H19.1651C19.1919 6.24083 19.2097 6.25124 19.2186 6.27207L20.4148 8.66884C20.4207 8.67479 20.4252 8.67777 20.4282 8.67777C20.4341 8.67777 20.4371 8.67331 20.4371 8.66438L20.4326 6.28546ZM23.9415 8.22252C23.9712 8.22252 23.9861 8.23739 23.9861 8.26715V8.46353C23.9861 8.49329 23.9712 8.50817 23.9415 8.50817H23.7763C23.7644 8.50817 23.7585 8.51412 23.7585 8.52602V9.32048C23.7585 9.35023 23.7436 9.36511 23.7138 9.36511H23.4862C23.4565 9.36511 23.4416 9.35023 23.4416 9.32048V8.52602C23.4416 8.51412 23.4356 8.50817 23.4237 8.50817H22.2142C22.1844 8.50817 22.1695 8.49329 22.1695 8.46353V8.29393C22.1695 8.2731 22.1725 8.25525 22.1785 8.24037L22.9729 6.27653C22.9819 6.25273 22.9982 6.24083 23.022 6.24083H23.2675C23.2824 6.24083 23.2928 6.24678 23.2988 6.25868C23.3047 6.26761 23.3047 6.27951 23.2988 6.29438L22.54 8.2002C22.537 8.20615 22.537 8.2121 22.54 8.21805C22.543 8.22103 22.5474 8.22252 22.5534 8.22252H23.4237C23.4356 8.22252 23.4416 8.21657 23.4416 8.20466V7.49947C23.4416 7.46971 23.4565 7.45483 23.4862 7.45483H23.7138C23.7436 7.45483 23.7585 7.46971 23.7585 7.49947V8.20466C23.7585 8.21657 23.7644 8.22252 23.7763 8.22252H23.9415ZM25.2911 9.40974C25.0353 9.40974 24.8299 9.33238 24.6752 9.17766C24.5205 9.02293 24.4431 8.81613 24.4431 8.55726V7.04868C24.4431 6.79278 24.5205 6.58747 24.6752 6.43275C24.8299 6.27802 25.0353 6.20066 25.2911 6.20066C25.55 6.20066 25.7568 6.27802 25.9115 6.43275C26.0692 6.58747 26.1481 6.79278 26.1481 7.04868V8.55726C26.1481 8.81613 26.0692 9.02293 25.9115 9.17766C25.7568 9.33238 25.55 9.40974 25.2911 9.40974ZM25.2911 9.13302C25.4548 9.13302 25.5857 9.08244 25.6839 8.98127C25.7821 8.8801 25.8312 8.74621 25.8312 8.57958V7.03082C25.8312 6.8642 25.7821 6.7303 25.6839 6.62913C25.5857 6.52796 25.4548 6.47738 25.2911 6.47738C25.1334 6.47738 25.0055 6.52796 24.9073 6.62913C24.8091 6.7303 24.76 6.8642 24.76 7.03082V8.57958C24.76 8.74323 24.8091 8.87713 24.9073 8.98127C25.0055 9.08244 25.1334 9.13302 25.2911 9.13302ZM27.4242 7.46822C27.3081 7.46822 27.201 7.43996 27.1028 7.38342C27.0076 7.32689 26.9317 7.25101 26.8752 7.1558C26.8187 7.0576 26.7904 6.95049 26.7904 6.83444C26.7904 6.7184 26.8187 6.61276 26.8752 6.51755C26.9317 6.41936 27.0076 6.34199 27.1028 6.28546C27.201 6.22892 27.3081 6.20066 27.4242 6.20066C27.5372 6.20066 27.6414 6.22892 27.7366 6.28546C27.8348 6.34199 27.9122 6.41936 27.9687 6.51755C28.0252 6.61276 28.0535 6.7184 28.0535 6.83444C28.0535 6.95049 28.0252 7.0576 27.9687 7.1558C27.9122 7.25101 27.8348 7.32689 27.7366 7.38342C27.6414 7.43996 27.5372 7.46822 27.4242 7.46822ZM27.3215 9.36511C27.3066 9.36511 27.2947 9.36065 27.2858 9.35172C27.2799 9.33982 27.2813 9.32643 27.2903 9.31155L28.9506 6.27207C28.9595 6.25124 28.9774 6.24083 29.0042 6.24083H29.147C29.1619 6.24083 29.1723 6.24678 29.1782 6.25868C29.1872 6.26761 29.1872 6.27951 29.1782 6.29438L27.5179 9.33387C27.509 9.3547 27.4911 9.36511 27.4643 9.36511H27.3215ZM27.4242 7.27184C27.5432 7.27184 27.6429 7.23018 27.7232 7.14687C27.8065 7.06058 27.8482 6.95644 27.8482 6.83444C27.8482 6.71244 27.8065 6.60979 27.7232 6.52647C27.6429 6.44018 27.5432 6.39704 27.4242 6.39704C27.3051 6.39704 27.204 6.44018 27.1207 6.52647C27.0374 6.60979 26.9957 6.71244 26.9957 6.83444C26.9957 6.95644 27.0374 7.06058 27.1207 7.14687C27.204 7.23018 27.3051 7.27184 27.4242 7.27184ZM29.0622 9.40528C28.9461 9.40528 28.839 9.37701 28.7408 9.32048C28.6456 9.26394 28.5697 9.18658 28.5132 9.08839C28.4567 8.9902 28.4284 8.88308 28.4284 8.76703C28.4284 8.65397 28.4567 8.54982 28.5132 8.45461C28.5697 8.35641 28.6456 8.27905 28.7408 8.22252C28.839 8.16598 28.9461 8.13771 29.0622 8.13771C29.1753 8.13771 29.2794 8.16598 29.3746 8.22252C29.4728 8.27905 29.5502 8.35641 29.6067 8.45461C29.6632 8.54982 29.6915 8.65397 29.6915 8.76703C29.6915 8.88308 29.6632 8.9902 29.6067 9.08839C29.5502 9.18658 29.4728 9.26394 29.3746 9.32048C29.2794 9.37701 29.1753 9.40528 29.0622 9.40528ZM29.0622 9.2089C29.1812 9.2089 29.2809 9.16575 29.3612 9.07946C29.4445 8.99317 29.4862 8.88903 29.4862 8.76703C29.4862 8.64504 29.4445 8.54238 29.3612 8.45907C29.2809 8.37575 29.1812 8.3341 29.0622 8.3341C28.9432 8.3341 28.842 8.37575 28.7587 8.45907C28.6754 8.54238 28.6337 8.64504 28.6337 8.76703C28.6337 8.89201 28.6739 8.99764 28.7542 9.08393C28.8375 9.16724 28.9402 9.2089 29.0622 9.2089Z" fill="#404040"/>
<path d="M58.447 43.4043L60.989 46.6676H71.5201" stroke="black" stroke-width="0.145684"/>
<path d="M64.3186 42.3367C64.3186 42.3664 64.3037 42.3813 64.2739 42.3813H62.9394C62.9275 42.3813 62.9216 42.3873 62.9216 42.3992V43.5061C62.9216 43.518 62.9275 43.5239 62.9394 43.5239H63.8365C63.8663 43.5239 63.8812 43.5388 63.8812 43.5685V43.756C63.8812 43.7858 63.8663 43.8006 63.8365 43.8006H62.9394C62.9275 43.8006 62.9216 43.8066 62.9216 43.8185V45.1842C62.9216 45.214 62.9067 45.2289 62.8769 45.2289H62.6493C62.6196 45.2289 62.6047 45.214 62.6047 45.1842V42.1492C62.6047 42.1195 62.6196 42.1046 62.6493 42.1046H64.2739C64.3037 42.1046 64.3186 42.1195 64.3186 42.1492V42.3367ZM66.114 45.2289C66.0872 45.2289 66.0708 45.2155 66.0649 45.1887L65.9176 44.6308C65.9146 44.6219 65.9072 44.6174 65.8953 44.6174H64.8286C64.8167 44.6174 64.8092 44.6219 64.8062 44.6308L64.659 45.1887C64.653 45.2155 64.6366 45.2289 64.6099 45.2289H64.3778C64.3629 45.2289 64.351 45.2244 64.3421 45.2155C64.3361 45.2066 64.3346 45.1947 64.3376 45.1798L65.1722 42.1448C65.1782 42.118 65.1946 42.1046 65.2213 42.1046H65.507C65.5338 42.1046 65.5501 42.118 65.5561 42.1448L66.3907 45.1798L66.3952 45.1932C66.3952 45.217 66.3803 45.2289 66.3505 45.2289H66.114ZM64.8821 44.3407C64.8791 44.3437 64.8791 44.3481 64.8821 44.3541C64.8881 44.3571 64.894 44.3585 64.9 44.3585H65.8239C65.8298 44.3585 65.8343 44.3571 65.8373 44.3541C65.8432 44.3481 65.8447 44.3437 65.8417 44.3407L65.3686 42.5465C65.3656 42.5405 65.3627 42.5375 65.3597 42.5375C65.3567 42.5375 65.3537 42.5405 65.3508 42.5465L64.8821 44.3407ZM68.559 42.1358C68.5739 42.115 68.5917 42.1046 68.6126 42.1046H68.8447C68.8744 42.1046 68.8893 42.1195 68.8893 42.1492V45.1842C68.8893 45.214 68.8744 45.2289 68.8447 45.2289H68.617C68.5873 45.2289 68.5724 45.214 68.5724 45.1842V42.7562C68.5724 42.7473 68.5694 42.7414 68.5635 42.7384C68.5575 42.7354 68.5531 42.7384 68.5501 42.7473L67.9565 43.7783C67.9416 43.7991 67.9237 43.8096 67.9029 43.8096H67.8538C67.833 43.8096 67.8151 43.7991 67.8003 43.7783L67.2022 42.7518C67.1992 42.7428 67.1947 42.7399 67.1888 42.7428C67.1828 42.7458 67.1799 42.7518 67.1799 42.7607V45.1842C67.1799 45.214 67.165 45.2289 67.1352 45.2289H66.9076C66.8779 45.2289 66.863 45.214 66.863 45.1842V42.1492C66.863 42.1195 66.8779 42.1046 66.9076 42.1046H67.1397C67.1605 42.1046 67.1784 42.115 67.1933 42.1358L67.8672 43.2829C67.8702 43.2859 67.8747 43.2874 67.8806 43.2874C67.8866 43.2874 67.891 43.2859 67.894 43.2829L68.559 42.1358ZM70.4566 45.2646C70.2751 45.2646 70.1145 45.2274 69.9746 45.153C69.8377 45.0756 69.7306 44.9685 69.6533 44.8317C69.5789 44.6948 69.5417 44.5371 69.5417 44.3585V42.9794C69.5417 42.8009 69.5789 42.6432 69.6533 42.5063C69.7306 42.3664 69.8377 42.2593 69.9746 42.1849C70.1145 42.1076 70.2751 42.0689 70.4566 42.0689C70.6381 42.0689 70.7973 42.1076 70.9342 42.1849C71.0741 42.2593 71.1827 42.3664 71.26 42.5063C71.3374 42.6432 71.3761 42.8009 71.3761 42.9794V44.3585C71.3761 44.5371 71.3374 44.6948 71.26 44.8317C71.1827 44.9685 71.0741 45.0756 70.9342 45.153C70.7973 45.2274 70.6381 45.2646 70.4566 45.2646ZM70.4566 44.9879C70.6381 44.9879 70.7839 44.9313 70.894 44.8183C71.0041 44.7052 71.0592 44.5564 71.0592 44.3719V42.9705C71.0592 42.783 71.0041 42.6327 70.894 42.5197C70.7839 42.4036 70.6381 42.3456 70.4566 42.3456C70.2781 42.3456 70.1338 42.4036 70.0237 42.5197C69.9136 42.6327 69.8586 42.783 69.8586 42.9705V44.3719C69.8586 44.5564 69.9136 44.7052 70.0237 44.8183C70.1338 44.9313 70.2781 44.9879 70.4566 44.9879ZM72.9162 45.2646C72.7347 45.2646 72.574 45.2259 72.4341 45.1485C72.2973 45.0712 72.1902 44.9626 72.1128 44.8227C72.0384 44.6829 72.0012 44.5207 72.0012 44.3362V42.1492C72.0012 42.1195 72.0161 42.1046 72.0458 42.1046H72.2735C72.3032 42.1046 72.3181 42.1195 72.3181 42.1492V44.3541C72.3181 44.5445 72.3731 44.6978 72.4832 44.8138C72.5933 44.9298 72.7376 44.9879 72.9162 44.9879C73.0947 44.9879 73.239 44.9298 73.3491 44.8138C73.4592 44.6978 73.5143 44.5445 73.5143 44.3541V42.1492C73.5143 42.1195 73.5291 42.1046 73.5589 42.1046H73.7865C73.8163 42.1046 73.8311 42.1195 73.8311 42.1492V44.3362C73.8311 44.5207 73.7925 44.6829 73.7151 44.8227C73.6407 44.9626 73.5336 45.0712 73.3937 45.1485C73.2569 45.2259 73.0977 45.2646 72.9162 45.2646ZM75.293 45.2646C75.0133 45.2646 74.7901 45.1917 74.6235 45.0459C74.4598 44.8971 74.378 44.6992 74.378 44.4523V44.3318C74.378 44.302 74.3929 44.2871 74.4226 44.2871H74.6413C74.6711 44.2871 74.686 44.302 74.686 44.3318V44.4344C74.686 44.601 74.7425 44.7349 74.8556 44.8361C74.9686 44.9373 75.1189 44.9879 75.3064 44.9879C75.4819 44.9879 75.6203 44.9403 75.7214 44.845C75.8226 44.7498 75.8732 44.6249 75.8732 44.4701C75.8732 44.369 75.8494 44.2812 75.8018 44.2068C75.7542 44.1324 75.6843 44.064 75.592 44.0015C75.4998 43.939 75.3674 43.8601 75.1948 43.7649C75.0103 43.6667 74.8645 43.5804 74.7574 43.5061C74.6532 43.4317 74.5684 43.3409 74.503 43.2338C74.4375 43.1267 74.4048 42.9958 74.4048 42.841C74.4048 42.6 74.4821 42.4111 74.6369 42.2742C74.7916 42.1373 74.9984 42.0689 75.2573 42.0689C75.534 42.0689 75.7542 42.1448 75.9178 42.2965C76.0815 42.4483 76.1633 42.6491 76.1633 42.8991V43.0017C76.1633 43.0315 76.1484 43.0463 76.1187 43.0463H75.8955C75.8658 43.0463 75.8509 43.0315 75.8509 43.0017V42.9035C75.8509 42.7369 75.7973 42.603 75.6902 42.5018C75.5831 42.3977 75.4358 42.3456 75.2483 42.3456C75.0817 42.3456 74.9508 42.3888 74.8556 42.475C74.7633 42.5613 74.7172 42.6833 74.7172 42.841C74.7172 42.9422 74.7395 43.027 74.7842 43.0954C74.8288 43.1639 74.8928 43.2264 74.9761 43.2829C75.0624 43.3394 75.1933 43.4153 75.3688 43.5105C75.5712 43.6236 75.7259 43.7203 75.833 43.8006C75.9431 43.878 76.0294 43.9688 76.0919 44.0729C76.1574 44.1741 76.1901 44.299 76.1901 44.4478C76.1901 44.6978 76.1098 44.8971 75.9491 45.0459C75.7884 45.1917 75.5697 45.2646 75.293 45.2646ZM79.1769 45.2289C79.1501 45.2289 79.1337 45.2155 79.1278 45.1887L78.9805 44.6308C78.9775 44.6219 78.9701 44.6174 78.9582 44.6174H77.8915C77.8796 44.6174 77.8721 44.6219 77.8691 44.6308L77.7219 45.1887C77.7159 45.2155 77.6995 45.2289 77.6728 45.2289H77.4407C77.4258 45.2289 77.4139 45.2244 77.405 45.2155C77.399 45.2066 77.3975 45.1947 77.4005 45.1798L78.2351 42.1448C78.2411 42.118 78.2575 42.1046 78.2842 42.1046H78.5699C78.5967 42.1046 78.613 42.118 78.619 42.1448L79.4536 45.1798L79.4581 45.1932C79.4581 45.217 79.4432 45.2289 79.4134 45.2289H79.1769ZM77.945 44.3407C77.942 44.3437 77.942 44.3481 77.945 44.3541C77.951 44.3571 77.9569 44.3585 77.9629 44.3585H78.8868C78.8927 44.3585 78.8972 44.3571 78.9002 44.3541C78.9061 44.3481 78.9076 44.3437 78.9046 44.3407L78.4315 42.5465C78.4285 42.5405 78.4256 42.5375 78.4226 42.5375C78.4196 42.5375 78.4166 42.5405 78.4137 42.5465L77.945 44.3407ZM80.9123 42.1001C81.1503 42.1001 81.3422 42.1805 81.488 42.3411C81.6368 42.4989 81.7112 42.7086 81.7112 42.9705C81.7112 43.2293 81.6368 43.4376 81.488 43.5953C81.3422 43.7501 81.1503 43.8274 80.9123 43.8274H80.2472C80.2353 43.8274 80.2294 43.8334 80.2294 43.8453V45.1842C80.2294 45.214 80.2145 45.2289 80.1847 45.2289H79.9571C79.9274 45.2289 79.9125 45.214 79.9125 45.1842V42.1448C79.9125 42.115 79.9274 42.1001 79.9571 42.1001H80.9123ZM80.8721 43.5641C81.0298 43.5641 81.1563 43.5105 81.2515 43.4034C81.3467 43.2963 81.3943 43.1535 81.3943 42.9749C81.3943 42.7934 81.3467 42.6491 81.2515 42.542C81.1563 42.4319 81.0298 42.3769 80.8721 42.3769H80.2472C80.2353 42.3769 80.2294 42.3828 80.2294 42.3947V43.5462C80.2294 43.5581 80.2353 43.5641 80.2472 43.5641H80.8721ZM83.218 42.1001C83.456 42.1001 83.648 42.1805 83.7938 42.3411C83.9425 42.4989 84.0169 42.7086 84.0169 42.9705C84.0169 43.2293 83.9425 43.4376 83.7938 43.5953C83.648 43.7501 83.456 43.8274 83.218 43.8274H82.553C82.5411 43.8274 82.5351 43.8334 82.5351 43.8453V45.1842C82.5351 45.214 82.5202 45.2289 82.4905 45.2289H82.2629C82.2331 45.2289 82.2182 45.214 82.2182 45.1842V42.1448C82.2182 42.115 82.2331 42.1001 82.2629 42.1001H83.218ZM83.1778 43.5641C83.3355 43.5641 83.462 43.5105 83.5572 43.4034C83.6524 43.2963 83.7 43.1535 83.7 42.9749C83.7 42.7934 83.6524 42.6491 83.5572 42.542C83.462 42.4319 83.3355 42.3769 83.1778 42.3769H82.553C82.5411 42.3769 82.5351 42.3828 82.5351 42.3947V43.5462C82.5351 43.5581 82.5411 43.5641 82.553 43.5641H83.1778ZM84.5864 45.2289C84.5567 45.2289 84.5418 45.214 84.5418 45.1842V42.1492C84.5418 42.1195 84.5567 42.1046 84.5864 42.1046H84.8141C84.8438 42.1046 84.8587 42.1195 84.8587 42.1492V44.9343C84.8587 44.9462 84.8646 44.9522 84.8765 44.9522H86.1754C86.2051 44.9522 86.22 44.967 86.22 44.9968V45.1842C86.22 45.214 86.2051 45.2289 86.1754 45.2289H84.5864ZM88.4133 42.3367C88.4133 42.3664 88.3985 42.3813 88.3687 42.3813H87.0297C87.0178 42.3813 87.0119 42.3873 87.0119 42.3992V43.5061C87.0119 43.518 87.0178 43.5239 87.0297 43.5239H87.9313C87.9611 43.5239 87.9759 43.5388 87.9759 43.5685V43.756C87.9759 43.7858 87.9611 43.8006 87.9313 43.8006H87.0297C87.0178 43.8006 87.0119 43.8066 87.0119 43.8185V44.9343C87.0119 44.9462 87.0178 44.9522 87.0297 44.9522H88.3687C88.3985 44.9522 88.4133 44.967 88.4133 44.9968V45.1842C88.4133 45.214 88.3985 45.2289 88.3687 45.2289H86.7396C86.7099 45.2289 86.695 45.214 86.695 45.1842V42.1492C86.695 42.1195 86.7099 42.1046 86.7396 42.1046H88.3687C88.3985 42.1046 88.4133 42.1195 88.4133 42.1492V42.3367ZM64.1624 49.0863C64.1921 49.0863 64.207 49.1012 64.207 49.1309V49.3273C64.207 49.3571 64.1921 49.3719 64.1624 49.3719H63.9972C63.9853 49.3719 63.9794 49.3779 63.9794 49.3898V50.1842C63.9794 50.214 63.9645 50.2289 63.9347 50.2289H63.7071C63.6773 50.2289 63.6625 50.214 63.6625 50.1842V49.3898C63.6625 49.3779 63.6565 49.3719 63.6446 49.3719H62.4351C62.4053 49.3719 62.3904 49.3571 62.3904 49.3273V49.1577C62.3904 49.1369 62.3934 49.119 62.3994 49.1041L63.1938 47.1403C63.2028 47.1165 63.2191 47.1046 63.2429 47.1046H63.4884C63.5033 47.1046 63.5137 47.1105 63.5196 47.1224C63.5256 47.1314 63.5256 47.1433 63.5196 47.1582L62.7609 49.064C62.7579 49.0699 62.7579 49.0759 62.7609 49.0818C62.7639 49.0848 62.7683 49.0863 62.7743 49.0863H63.6446C63.6565 49.0863 63.6625 49.0803 63.6625 49.0684V48.3632C63.6625 48.3335 63.6773 48.3186 63.7071 48.3186H63.9347C63.9645 48.3186 63.9794 48.3335 63.9794 48.3632V49.0684C63.9794 49.0803 63.9853 49.0863 63.9972 49.0863H64.1624ZM65.512 50.2735C65.2561 50.2735 65.0508 50.1962 64.8961 50.0414C64.7414 49.8867 64.664 49.6799 64.664 49.421V47.9124C64.664 47.6566 64.7414 47.4512 64.8961 47.2965C65.0508 47.1418 65.2561 47.0644 65.512 47.0644C65.7709 47.0644 65.9777 47.1418 66.1324 47.2965C66.2901 47.4512 66.369 47.6566 66.369 47.9124V49.421C66.369 49.6799 66.2901 49.8867 66.1324 50.0414C65.9777 50.1962 65.7709 50.2735 65.512 50.2735ZM65.512 49.9968C65.6757 49.9968 65.8066 49.9462 65.9048 49.845C66.003 49.7439 66.0521 49.61 66.0521 49.4433V47.8946C66.0521 47.728 66.003 47.5941 65.9048 47.4929C65.8066 47.3917 65.6757 47.3411 65.512 47.3411C65.3543 47.3411 65.2264 47.3917 65.1282 47.4929C65.03 47.5941 64.9809 47.728 64.9809 47.8946V49.4433C64.9809 49.607 65.03 49.7409 65.1282 49.845C65.2264 49.9462 65.3543 49.9968 65.512 49.9968ZM67.6451 48.332C67.529 48.332 67.4219 48.3037 67.3237 48.2472C67.2285 48.1907 67.1526 48.1148 67.0961 48.0196C67.0395 47.9214 67.0113 47.8143 67.0113 47.6982C67.0113 47.5822 67.0395 47.4765 67.0961 47.3813C67.1526 47.2831 67.2285 47.2058 67.3237 47.1492C67.4219 47.0927 67.529 47.0644 67.6451 47.0644C67.7581 47.0644 67.8623 47.0927 67.9575 47.1492C68.0557 47.2058 68.133 47.2831 68.1896 47.3813C68.2461 47.4765 68.2744 47.5822 68.2744 47.6982C68.2744 47.8143 68.2461 47.9214 68.1896 48.0196C68.133 48.1148 68.0557 48.1907 67.9575 48.2472C67.8623 48.3037 67.7581 48.332 67.6451 48.332ZM67.5424 50.2289C67.5275 50.2289 67.5156 50.2244 67.5067 50.2155C67.5007 50.2036 67.5022 50.1902 67.5112 50.1753L69.1715 47.1358C69.1804 47.115 69.1983 47.1046 69.2251 47.1046H69.3679C69.3828 47.1046 69.3932 47.1105 69.3991 47.1224C69.4081 47.1314 69.4081 47.1433 69.3991 47.1582L67.7388 50.1976C67.7299 50.2185 67.712 50.2289 67.6852 50.2289H67.5424ZM67.6451 48.1356C67.7641 48.1356 67.8638 48.094 67.9441 48.0106C68.0274 47.9243 68.0691 47.8202 68.0691 47.6982C68.0691 47.5762 68.0274 47.4736 67.9441 47.3902C67.8638 47.304 67.7641 47.2608 67.6451 47.2608C67.526 47.2608 67.4249 47.304 67.3416 47.3902C67.2582 47.4736 67.2166 47.5762 67.2166 47.6982C67.2166 47.8202 67.2582 47.9243 67.3416 48.0106C67.4249 48.094 67.526 48.1356 67.6451 48.1356ZM69.2831 50.2691C69.167 50.2691 69.0599 50.2408 68.9617 50.1842C68.8665 50.1277 68.7906 50.0504 68.7341 49.9522C68.6776 49.854 68.6493 49.7468 68.6493 49.6308C68.6493 49.5177 68.6776 49.4136 68.7341 49.3184C68.7906 49.2202 68.8665 49.1428 68.9617 49.0863C69.0599 49.0298 69.167 49.0015 69.2831 49.0015C69.3961 49.0015 69.5003 49.0298 69.5955 49.0863C69.6937 49.1428 69.7711 49.2202 69.8276 49.3184C69.8841 49.4136 69.9124 49.5177 69.9124 49.6308C69.9124 49.7468 69.8841 49.854 69.8276 49.9522C69.7711 50.0504 69.6937 50.1277 69.5955 50.1842C69.5003 50.2408 69.3961 50.2691 69.2831 50.2691ZM69.2831 50.0727C69.4021 50.0727 69.5018 50.0295 69.5821 49.9432C69.6654 49.8569 69.7071 49.7528 69.7071 49.6308C69.7071 49.5088 69.6654 49.4062 69.5821 49.3228C69.5018 49.2395 69.4021 49.1979 69.2831 49.1979C69.1641 49.1979 69.0629 49.2395 68.9796 49.3228C68.8963 49.4062 68.8546 49.5088 68.8546 49.6308C68.8546 49.7558 68.8948 49.8614 68.9751 49.9477C69.0584 50.031 69.1611 50.0727 69.2831 50.0727Z" fill="#404040"/>
</svg>
