<svg width="97" height="57" viewBox="0 0 97 57" fill="none" xmlns="http://www.w3.org/2000/svg">
<path d="M48.5877 50.1354C45.1834 50.2541 41.7994 49.5667 38.7122 48.1293C35.625 46.6919 32.9223 44.5454 30.8252 41.8653L36.7784 37.2213C38.1416 38.9633 39.8983 40.3586 41.9049 41.2929C43.9116 42.2271 46.1113 42.674 48.324 42.5968L48.5877 50.1354Z" fill="#97AF04"/>
<path d="M47.0811 7.0578C49.9139 6.95903 52.7385 7.41834 55.3936 8.40951C58.0486 9.40068 60.4822 10.9043 62.5553 12.8345C64.6283 14.7647 66.3004 17.0838 67.4758 19.6592C68.6513 22.2346 69.3072 25.0159 69.4062 27.8445C69.5051 30.673 69.0451 33.4933 68.0524 36.1443C67.0597 38.7953 65.5538 41.2251 63.6206 43.295C61.6874 45.3649 59.3648 47.0344 56.7855 48.208C54.2061 49.3817 51.4205 50.0366 48.5877 50.1354L48.324 42.5968C50.1654 42.5326 51.976 42.1069 53.6526 41.344C55.3292 40.5811 56.8389 39.496 58.0954 38.1506C59.352 36.8051 60.3308 35.2257 60.9761 33.5026C61.6213 31.7794 61.9203 29.9462 61.856 28.1077C61.7917 26.2692 61.3654 24.4613 60.6013 22.7873C59.8373 21.1133 58.7505 19.6059 57.403 18.3513C56.0555 17.0966 54.4736 16.1193 52.7479 15.475C51.0221 14.8307 49.1861 14.5322 47.3447 14.5964L47.0811 7.0578Z" fill="#8E0089"/>
<path d="M30.8252 41.8653C28.3744 38.7332 26.8388 34.9855 26.3882 31.0364C25.9375 27.0873 26.5894 23.0907 28.2717 19.4884C29.9541 15.8861 32.6013 12.8186 35.9208 10.6248C39.2403 8.43102 43.1027 7.19653 47.081 7.0578L47.3447 14.5964C44.7588 14.6866 42.2482 15.489 40.0905 16.9149C37.9329 18.3409 36.2122 20.3348 35.1187 22.6763C34.0252 25.0177 33.6014 27.6155 33.8943 30.1825C34.1873 32.7494 35.1854 35.1854 36.7784 37.2213L30.8252 41.8653Z" fill="url(#paint0_linear_10_18223)"/>
<path d="M35.3282 12.846L32.7862 9.58276H22.2551" stroke="black" stroke-width="0.145684"/>
<path d="M35.6912 45.1161L33.1492 48.3794H22.6181" stroke="black" stroke-width="0.145684"/>
<path d="M63.447 42.1837L65.989 45.447H76.5201" stroke="black" stroke-width="0.145684"/>
<path d="M2.61519 8.86865H2.18136L0.883889 7.41452V8.86865H0.522364V6.00056H0.883889V7.39042L2.14922 6.00056H2.55895L1.3137 7.39444L2.61519 8.86865ZM5.0702 8.86865H4.70867V6.3179H3.80085C3.7821 6.46518 3.76201 6.62051 3.74059 6.78386C3.71917 6.94454 3.6964 7.10388 3.6723 7.26188C3.65088 7.41988 3.62946 7.5685 3.60803 7.70776C3.58661 7.84701 3.56518 7.96886 3.54376 8.0733C3.50895 8.25272 3.4661 8.40537 3.41522 8.53123C3.36434 8.65709 3.29605 8.75216 3.21036 8.81643C3.12734 8.8807 3.01754 8.91284 2.88097 8.91284C2.83544 8.91284 2.78858 8.90748 2.74037 8.89677C2.69485 8.88874 2.65468 8.87803 2.61987 8.86464V8.56336C2.64932 8.57675 2.6828 8.58881 2.72029 8.59952C2.75778 8.60755 2.79795 8.61157 2.8408 8.61157C2.92114 8.61157 2.98407 8.57943 3.02959 8.51516C3.0778 8.44821 3.11529 8.36653 3.14207 8.27013C3.16885 8.17104 3.19161 8.0733 3.21036 7.97689C3.22642 7.89923 3.24517 7.79613 3.26659 7.66759C3.28802 7.53637 3.31078 7.38372 3.33488 7.20966C3.36166 7.03559 3.38844 6.84679 3.41522 6.64327C3.44468 6.43707 3.4728 6.22283 3.49957 6.00056H5.0702V8.86865ZM7.05058 8.05321C6.96489 8.24335 6.87785 8.40269 6.78948 8.53123C6.70378 8.65709 6.60202 8.75216 6.48419 8.81643C6.36636 8.87803 6.2164 8.90882 6.0343 8.90882C5.95931 8.90882 5.88835 8.90347 5.8214 8.89275C5.75713 8.88204 5.69821 8.86731 5.64465 8.84857V8.49106C5.69821 8.51516 5.75579 8.53525 5.81738 8.55131C5.87897 8.5647 5.94324 8.5714 6.01019 8.5714C6.10928 8.5714 6.19363 8.55801 6.26326 8.53123C6.33557 8.50177 6.3985 8.45491 6.45206 8.39064C6.50829 8.32637 6.56051 8.24067 6.60872 8.13355L5.50406 6.00056H5.90174L6.70111 7.57921C6.71182 7.59796 6.72253 7.62072 6.73324 7.6475C6.74395 7.6716 6.75467 7.69705 6.76538 7.72382C6.77877 7.7506 6.78948 7.77604 6.79751 7.80015H6.81358C6.82162 7.7814 6.82965 7.75998 6.83768 7.73588C6.84839 7.7091 6.85777 7.68366 6.8658 7.65955C6.87651 7.63277 6.88589 7.61001 6.89392 7.59127L7.58483 6.00056H7.96644L7.05058 8.05321ZM8.35618 8.86865V6.00056H10.0594V6.3179H8.7177V7.21367H9.1435C9.43004 7.21367 9.65231 7.24983 9.81031 7.32213C9.96831 7.39176 10.0781 7.48816 10.1397 7.61135C10.2013 7.73186 10.2321 7.87111 10.2321 8.02911C10.2321 8.20318 10.1973 8.35315 10.1277 8.47901C10.0607 8.60487 9.95091 8.70128 9.79826 8.76823C9.64562 8.83518 9.44477 8.86865 9.19572 8.86865H8.35618ZM9.15957 8.55935C9.41665 8.55935 9.59741 8.5165 9.70185 8.43081C9.8063 8.34243 9.85852 8.20854 9.85852 8.02911C9.85852 7.90593 9.83307 7.80818 9.78219 7.73588C9.73399 7.66089 9.65365 7.60733 9.54118 7.5752C9.43138 7.54306 9.28409 7.52699 9.09931 7.52699H8.7177V8.55935H9.15957ZM13.0208 8.86865H12.6593V7.53101H11.1891V8.86865H10.8275V6.00056H11.1891V7.21367H12.6593V6.00056H13.0208V8.86865ZM13.809 6.00056H14.1464V7.5752C14.1464 7.64215 14.145 7.71579 14.1424 7.79613C14.1424 7.87379 14.141 7.95145 14.1383 8.02911C14.1357 8.10677 14.1316 8.1764 14.1263 8.23799C14.1236 8.29691 14.1209 8.34243 14.1183 8.37457H14.1343L15.713 6.00056H16.1147V8.86865H15.7773V7.31008C15.7773 7.23777 15.7786 7.16011 15.7813 7.0771C15.784 6.9914 15.7866 6.90972 15.7893 6.83206C15.7947 6.75173 15.7987 6.68076 15.8014 6.61917C15.804 6.55757 15.8067 6.51205 15.8094 6.48259H15.7933L14.2106 8.86865H13.809V6.00056ZM18.9128 8.86865H18.5513V7.69169C18.3959 7.74525 18.25 7.78943 18.1134 7.82425C17.9795 7.85638 17.8296 7.87245 17.6635 7.87245C17.3957 7.87245 17.1882 7.81086 17.0409 7.68767C16.8936 7.56181 16.82 7.38105 16.82 7.14539V6.00056H17.1815V7.09317C17.1815 7.24849 17.2217 7.36498 17.302 7.44264C17.385 7.51762 17.5176 7.55511 17.6997 7.55511C17.8577 7.55511 17.9996 7.54038 18.1255 7.51093C18.2513 7.48147 18.3933 7.4413 18.5513 7.39042V6.00056H18.9128V8.86865ZM21.8863 8.86865H21.5248V7.53101H20.0546V8.86865H19.693V6.00056H20.0546V7.21367H21.5248V6.00056H21.8863V8.86865ZM22.6704 8.86865V6.00056H23.032V7.21367H23.4738C23.7416 7.21367 23.9519 7.24983 24.1045 7.32213C24.2598 7.39444 24.3696 7.49218 24.4339 7.61537C24.5008 7.73855 24.5343 7.87647 24.5343 8.02911C24.5343 8.19782 24.4982 8.34511 24.4259 8.47098C24.3562 8.59684 24.2464 8.69458 24.0965 8.76421C23.9465 8.83384 23.7537 8.86865 23.518 8.86865H22.6704ZM23.4859 8.56336C23.7162 8.56336 23.8862 8.51918 23.996 8.43081C24.1058 8.34243 24.1607 8.20854 24.1607 8.02911C24.1607 7.90593 24.134 7.80818 24.0804 7.73588C24.0295 7.66357 23.9505 7.61135 23.8434 7.57921C23.7363 7.54708 23.5997 7.53101 23.4337 7.53101H23.032V8.56336H23.4859ZM24.9762 8.86865V6.00056H25.3377V8.86865H24.9762ZM28.0748 5.1088C28.0641 5.2427 28.0306 5.35517 27.9744 5.44622C27.9208 5.53727 27.8405 5.60556 27.7334 5.65108C27.6263 5.69661 27.487 5.71937 27.3156 5.71937C27.1416 5.71937 27.001 5.69661 26.8939 5.65108C26.7894 5.60556 26.7131 5.53861 26.6649 5.45024C26.6167 5.35919 26.5872 5.24537 26.5765 5.1088H26.9059C26.9193 5.25341 26.9568 5.35115 27.0184 5.40203C27.0826 5.45024 27.1844 5.47434 27.3237 5.47434C27.4469 5.47434 27.5433 5.4489 27.6129 5.39802C27.6852 5.34446 27.728 5.24805 27.7414 5.1088H28.0748ZM26.1226 6.00056H26.46V7.5752C26.46 7.64215 26.4587 7.71579 26.456 7.79613C26.456 7.87379 26.4547 7.95145 26.452 8.02911C26.4493 8.10677 26.4453 8.1764 26.4399 8.23799C26.4373 8.29691 26.4346 8.34243 26.4319 8.37457H26.448L28.0266 6.00056H28.4283V8.86865H28.0909V7.31008C28.0909 7.23777 28.0922 7.16011 28.0949 7.0771C28.0976 6.9914 28.1003 6.90972 28.103 6.83206C28.1083 6.75173 28.1123 6.68076 28.115 6.61917C28.1177 6.55757 28.1204 6.51205 28.123 6.48259H28.107L26.5243 8.86865H26.1226V6.00056ZM1.7877 13.8687L0.843719 11.354H0.827651C0.833007 11.4076 0.837024 11.4759 0.839702 11.5589C0.845058 11.6419 0.849075 11.733 0.851753 11.8321C0.854431 11.9285 0.85577 12.0276 0.85577 12.1293V13.8687H0.522364V11.0006H1.05662L1.94034 13.3505H1.95641L2.85621 11.0006H3.38644V13.8687H3.02893V12.1052C3.02893 12.0115 3.03027 11.9191 3.03295 11.828C3.03563 11.7343 3.03965 11.6473 3.045 11.5669C3.05036 11.4839 3.05437 11.4143 3.05705 11.3581H3.04099L2.08495 13.8687H1.7877ZM4.17066 11.0006H4.50808V12.5752C4.50808 12.6421 4.50674 12.7158 4.50406 12.7961C4.50406 12.8738 4.50272 12.9515 4.50004 13.0291C4.49737 13.1068 4.49335 13.1764 4.48799 13.238C4.48532 13.2969 4.48264 13.3424 4.47996 13.3746H4.49603L6.07468 11.0006H6.47638V13.8687H6.13896V12.3101C6.13896 12.2378 6.14029 12.1601 6.14297 12.0771C6.14565 11.9914 6.14833 11.9097 6.15101 11.8321C6.15636 11.7517 6.16038 11.6808 6.16306 11.6192C6.16573 11.5576 6.16841 11.512 6.17109 11.4826H6.15502L4.57235 13.8687H4.17066V11.0006ZM9.31466 13.8687H8.95314V11.3179H8.04531C8.02656 11.4652 8.00648 11.6205 7.98505 11.7839C7.96363 11.9445 7.94087 12.1039 7.91676 12.2619C7.89534 12.4199 7.87392 12.5685 7.85249 12.7078C7.83107 12.847 7.80965 12.9689 7.78822 13.0733C7.75341 13.2527 7.71056 13.4054 7.65968 13.5312C7.6088 13.6571 7.54051 13.7522 7.45482 13.8164C7.3718 13.8807 7.262 13.9128 7.12543 13.9128C7.0799 13.9128 7.03304 13.9075 6.98483 13.8968C6.93931 13.8887 6.89914 13.878 6.86433 13.8646V13.5634C6.89378 13.5768 6.92726 13.5888 6.96475 13.5995C7.00224 13.6076 7.04241 13.6116 7.08526 13.6116C7.1656 13.6116 7.22853 13.5794 7.27405 13.5152C7.32226 13.4482 7.35975 13.3665 7.38653 13.2701C7.41331 13.171 7.43607 13.0733 7.45482 12.9769C7.47088 12.8992 7.48963 12.7961 7.51105 12.6676C7.53248 12.5364 7.55524 12.3837 7.57934 12.2097C7.60612 12.0356 7.6329 11.8468 7.65968 11.6433C7.68914 11.4371 7.71726 11.2228 7.74404 11.0006H9.31466V13.8687ZM11.4959 10.9604V11.3139C11.8065 11.3192 12.0516 11.3701 12.231 11.4665C12.4104 11.5629 12.5376 11.6915 12.6126 11.8521C12.6876 12.0101 12.7251 12.1869 12.7251 12.3824C12.7251 12.5109 12.705 12.6395 12.6648 12.768C12.6273 12.8939 12.5617 13.009 12.468 13.1135C12.3743 13.2152 12.2484 13.2982 12.0904 13.3625C11.9324 13.4268 11.7342 13.4616 11.4959 13.467V13.9088H11.1384V13.467C10.8947 13.4616 10.6925 13.4268 10.5318 13.3625C10.3738 13.2956 10.2493 13.2099 10.1582 13.1054C10.0672 12.9983 10.0029 12.8818 9.96544 12.756C9.92794 12.6301 9.9092 12.5056 9.9092 12.3824C9.9092 12.2405 9.92928 12.1066 9.96945 11.9807C10.0123 11.8521 10.0806 11.7397 10.1743 11.6433C10.2707 11.5442 10.3979 11.4652 10.5559 11.4063C10.7139 11.3474 10.9081 11.3166 11.1384 11.3139V10.9604H11.4959ZM11.1384 11.6192C10.9241 11.6245 10.7528 11.6593 10.6242 11.7236C10.4983 11.7879 10.4086 11.8763 10.3551 11.9887C10.3015 12.0985 10.2747 12.2284 10.2747 12.3784C10.2747 12.5364 10.3042 12.6743 10.3631 12.7921C10.4247 12.9073 10.5184 12.997 10.6443 13.0612C10.7728 13.1255 10.9375 13.1617 11.1384 13.1697V11.6192ZM11.4959 13.1697C11.7021 13.1617 11.8681 13.1242 11.994 13.0572C12.1225 12.9903 12.2149 12.8992 12.2712 12.7841C12.3301 12.6662 12.3595 12.531 12.3595 12.3784C12.3595 12.2257 12.3328 12.0945 12.2792 11.9847C12.2256 11.8722 12.1359 11.7852 12.0101 11.7236C11.8842 11.6593 11.7128 11.6245 11.4959 11.6192V13.1697ZM14.9252 13.8687H13.3224V11.0006H14.9252V11.3179H13.684V12.2137H14.8529V12.527H13.684V13.5513H14.9252V13.8687ZM17.5108 10.1088C17.5 10.2427 17.4666 10.3552 17.4103 10.4462C17.3568 10.5373 17.2764 10.6056 17.1693 10.6511C17.0622 10.6966 16.9229 10.7194 16.7516 10.7194C16.5775 10.7194 16.4369 10.6966 16.3298 10.6511C16.2253 10.6056 16.149 10.5386 16.1008 10.4502C16.0526 10.3592 16.0231 10.2454 16.0124 10.1088H16.3418C16.3552 10.2534 16.3927 10.3512 16.4543 10.402C16.5186 10.4502 16.6203 10.4743 16.7596 10.4743C16.8828 10.4743 16.9792 10.4489 17.0488 10.398C17.1211 10.3445 17.164 10.2481 17.1773 10.1088H17.5108ZM15.5585 11.0006H15.8959V12.5752C15.8959 12.6421 15.8946 12.7158 15.8919 12.7961C15.8919 12.8738 15.8906 12.9515 15.8879 13.0291C15.8852 13.1068 15.8812 13.1764 15.8759 13.238C15.8732 13.2969 15.8705 13.3424 15.8678 13.3746H15.8839L17.4626 11.0006H17.8642V13.8687H17.5268V12.3101C17.5268 12.2378 17.5282 12.1601 17.5308 12.0771C17.5335 11.9914 17.5362 11.9097 17.5389 11.8321C17.5442 11.7517 17.5482 11.6808 17.5509 11.6192C17.5536 11.5576 17.5563 11.512 17.559 11.4826H17.5429L15.9602 13.8687H15.5585V11.0006ZM20.5949 12.535C20.6457 12.6743 20.6712 12.8336 20.6712 13.013C20.6712 13.1737 20.6511 13.313 20.6109 13.4308C20.5118 13.7441 20.2922 13.9008 19.9521 13.9008C19.77 13.9008 19.6174 13.8526 19.4942 13.7562C19.371 13.6571 19.292 13.5219 19.2572 13.3505C19.2385 13.2648 19.2291 13.167 19.2291 13.0572C19.2291 13.0305 19.2425 13.0171 19.2693 13.0171H19.4741C19.5009 13.0171 19.5143 13.0305 19.5143 13.0572C19.5197 13.1724 19.5263 13.25 19.5344 13.2902C19.5585 13.4027 19.6067 13.4911 19.679 13.5553C19.7513 13.6196 19.8423 13.6517 19.9521 13.6517C20.1583 13.6517 20.2922 13.5473 20.3538 13.3384C20.3779 13.242 20.39 13.1269 20.39 12.993C20.39 12.8323 20.3726 12.6997 20.3378 12.5953C20.2681 12.4078 20.1396 12.3141 19.9521 12.3141C19.9093 12.3141 19.8718 12.3221 19.8397 12.3382C19.8236 12.3436 19.8142 12.3462 19.8115 12.3462C19.8008 12.3462 19.7915 12.3409 19.7834 12.3302L19.679 12.2217C19.6656 12.203 19.6643 12.1842 19.675 12.1655L20.3016 11.3259C20.307 11.3206 20.3083 11.3166 20.3056 11.3139C20.303 11.3085 20.2989 11.3058 20.2936 11.3058H19.2893C19.2626 11.3058 19.2492 11.2925 19.2492 11.2657V11.097C19.2492 11.0702 19.2626 11.0568 19.2893 11.0568H20.619C20.6457 11.0568 20.6591 11.0702 20.6591 11.097V11.2777C20.6591 11.2992 20.6538 11.3166 20.6431 11.3299L20.0606 12.1253C20.0579 12.128 20.0579 12.132 20.0606 12.1374C20.0633 12.1427 20.0673 12.1454 20.0726 12.1454C20.1985 12.1507 20.3056 12.1869 20.394 12.2538C20.4824 12.3208 20.5493 12.4145 20.5949 12.535ZM22.5347 12.5712C22.5695 12.697 22.5869 12.8417 22.5869 13.005C22.5869 13.1416 22.5749 13.2594 22.5508 13.3585C22.5106 13.5326 22.4302 13.6665 22.3097 13.7602C22.1919 13.8539 22.0433 13.9008 21.8639 13.9008C21.6818 13.9008 21.5305 13.8526 21.4099 13.7562C21.2894 13.6598 21.2104 13.5245 21.1729 13.3505C21.1596 13.3023 21.1515 13.2527 21.1488 13.2018V13.1938C21.1488 13.1724 21.1609 13.1617 21.185 13.1617H21.3939C21.418 13.1617 21.4314 13.1724 21.434 13.1938V13.2099L21.4501 13.2902C21.4742 13.4054 21.5211 13.4937 21.5907 13.5553C21.663 13.6169 21.7541 13.6477 21.8639 13.6477C21.971 13.6477 22.0594 13.6169 22.129 13.5553C22.2013 13.4911 22.2495 13.4013 22.2736 13.2862C22.2923 13.2112 22.3017 13.1188 22.3017 13.009C22.3017 12.9073 22.291 12.8028 22.2696 12.6957C22.2455 12.5886 22.1986 12.5082 22.129 12.4547C22.0594 12.3985 21.971 12.3703 21.8639 12.3703C21.7621 12.3703 21.6737 12.3944 21.5987 12.4426C21.5264 12.4882 21.4756 12.5551 21.4461 12.6435L21.4381 12.6596C21.4354 12.6783 21.422 12.6877 21.3979 12.6877H21.185C21.1582 12.6877 21.1448 12.6743 21.1448 12.6475V11.097C21.1448 11.0702 21.1582 11.0568 21.185 11.0568H22.4584C22.4851 11.0568 22.4985 11.0702 22.4985 11.097V11.2657C22.4985 11.2925 22.4851 11.3058 22.4584 11.3058H21.4461C21.4354 11.3058 21.43 11.3112 21.43 11.3219V12.3061C21.43 12.3114 21.4314 12.3154 21.434 12.3181C21.4394 12.3181 21.4448 12.3154 21.4501 12.3101C21.5037 12.2512 21.5706 12.2056 21.651 12.1735C21.734 12.1387 21.8224 12.1213 21.9161 12.1213C22.0741 12.1213 22.2053 12.1601 22.3097 12.2378C22.4169 12.3128 22.4918 12.4239 22.5347 12.5712ZM23.6632 12.1615C23.5588 12.1615 23.4624 12.136 23.374 12.0851C23.2883 12.0342 23.22 11.966 23.1691 11.8803C23.1182 11.7919 23.0928 11.6955 23.0928 11.591C23.0928 11.4866 23.1182 11.3915 23.1691 11.3058C23.22 11.2175 23.2883 11.1478 23.374 11.097C23.4624 11.0461 23.5588 11.0206 23.6632 11.0206C23.765 11.0206 23.8587 11.0461 23.9444 11.097C24.0328 11.1478 24.1024 11.2175 24.1533 11.3058C24.2041 11.3915 24.2296 11.4866 24.2296 11.591C24.2296 11.6955 24.2041 11.7919 24.1533 11.8803C24.1024 11.966 24.0328 12.0342 23.9444 12.0851C23.8587 12.136 23.765 12.1615 23.6632 12.1615ZM23.5708 13.8687C23.5574 13.8687 23.5467 13.8646 23.5387 13.8566C23.5333 13.8459 23.5347 13.8338 23.5427 13.8204L25.037 11.0849C25.045 11.0662 25.0611 11.0568 25.0852 11.0568H25.2137C25.2271 11.0568 25.2365 11.0622 25.2419 11.0729C25.2499 11.0809 25.2499 11.0916 25.2419 11.105L23.7476 13.8405C23.7395 13.8593 23.7235 13.8687 23.6993 13.8687H23.5708ZM23.6632 11.9847C23.7703 11.9847 23.86 11.9472 23.9323 11.8722C24.0073 11.7946 24.0448 11.7008 24.0448 11.591C24.0448 11.4813 24.0073 11.3889 23.9323 11.3139C23.86 11.2362 23.7703 11.1974 23.6632 11.1974C23.5561 11.1974 23.465 11.2362 23.39 11.3139C23.3151 11.3889 23.2776 11.4813 23.2776 11.591C23.2776 11.7008 23.3151 11.7946 23.39 11.8722C23.465 11.9472 23.5561 11.9847 23.6632 11.9847ZM25.1374 13.9048C25.033 13.9048 24.9366 13.8794 24.8482 13.8285C24.7625 13.7776 24.6942 13.708 24.6433 13.6196C24.5924 13.5312 24.567 13.4348 24.567 13.3304C24.567 13.2286 24.5924 13.1349 24.6433 13.0492C24.6942 12.9608 24.7625 12.8912 24.8482 12.8403C24.9366 12.7894 25.033 12.764 25.1374 12.764C25.2392 12.764 25.3329 12.7894 25.4186 12.8403C25.507 12.8912 25.5766 12.9608 25.6275 13.0492C25.6784 13.1349 25.7038 13.2286 25.7038 13.3304C25.7038 13.4348 25.6784 13.5312 25.6275 13.6196C25.5766 13.708 25.507 13.7776 25.4186 13.8285C25.3329 13.8794 25.2392 13.9048 25.1374 13.9048ZM25.1374 13.7281C25.2445 13.7281 25.3342 13.6892 25.4065 13.6116C25.4815 13.5339 25.519 13.4402 25.519 13.3304C25.519 13.2206 25.4815 13.1282 25.4065 13.0532C25.3342 12.9782 25.2445 12.9407 25.1374 12.9407C25.0303 12.9407 24.9392 12.9782 24.8643 13.0532C24.7893 13.1282 24.7518 13.2206 24.7518 13.3304C24.7518 13.4429 24.7879 13.5379 24.8602 13.6156C24.9352 13.6906 25.0276 13.7281 25.1374 13.7281Z" fill="#404040"/>
<path d="M4.4929 47.282L3.54892 44.7674H3.53285C3.53821 44.8209 3.54222 44.8892 3.5449 44.9722C3.55026 45.0553 3.55428 45.1463 3.55695 45.2454C3.55963 45.3418 3.56097 45.4409 3.56097 45.5426V47.282H3.22756V44.4139H3.76182L4.64554 46.7638H4.66161L5.56141 44.4139H6.09164V47.282H5.73413V45.5185C5.73413 45.4248 5.73547 45.3324 5.73815 45.2414C5.74083 45.1476 5.74485 45.0606 5.7502 44.9803C5.75556 44.8973 5.75958 44.8276 5.76225 44.7714H5.74619L4.79015 47.282H4.4929ZM7.73548 46.093L6.99235 47.282H6.57057L7.37396 46.0287C7.27219 45.9939 7.17579 45.9457 7.08474 45.8841C6.99636 45.8225 6.92406 45.7381 6.86782 45.631C6.81158 45.5239 6.78347 45.386 6.78347 45.2173C6.78347 44.9575 6.87318 44.7593 7.0526 44.6228C7.23202 44.4835 7.49982 44.4139 7.85599 44.4139H8.65938V47.282H8.29785V46.093H7.73548ZM7.86402 44.7232C7.71138 44.7232 7.58284 44.7406 7.4784 44.7754C7.37396 44.8102 7.29362 44.8651 7.23738 44.9401C7.18382 45.0151 7.15704 45.1128 7.15704 45.2333C7.15704 45.4101 7.21596 45.5467 7.33379 45.6431C7.45162 45.7395 7.63372 45.7877 7.88009 45.7877H8.29785V44.7232H7.86402ZM10.3452 47.282H9.98365V44.7312H9.08787V44.4139H11.2369V44.7312H10.3452V47.282ZM13.8627 47.282H13.5011V45.9443H12.0309V47.282H11.6694V44.4139H12.0309V45.627H13.5011V44.4139H13.8627V47.282ZM16.4464 47.282L16.1009 46.3942H14.9642L14.6227 47.282H14.2572L15.3779 44.4018H15.7033L16.82 47.282H16.4464ZM15.6711 45.2052C15.6631 45.1838 15.6497 45.145 15.631 45.0887C15.6122 45.0325 15.5935 44.9749 15.5747 44.916C15.5587 44.8544 15.5453 44.8075 15.5346 44.7754C15.5212 44.829 15.5064 44.8839 15.4904 44.9401C15.477 44.9937 15.4623 45.0432 15.4462 45.0887C15.4328 45.1343 15.4207 45.1731 15.41 45.2052L15.0847 46.0729H15.9925L15.6711 45.2052ZM18.076 46.093L17.3328 47.282H16.911L17.7144 46.0287C17.6127 45.9939 17.5163 45.9457 17.4252 45.8841C17.3368 45.8225 17.2645 45.7381 17.2083 45.631C17.1521 45.5239 17.1239 45.386 17.1239 45.2173C17.1239 44.9575 17.2137 44.7593 17.3931 44.6228C17.5725 44.4835 17.8403 44.4139 18.1965 44.4139H18.9999V47.282H18.6383V46.093H18.076ZM18.2045 44.7232C18.0519 44.7232 17.9233 44.7406 17.8189 44.7754C17.7144 44.8102 17.6341 44.8651 17.5779 44.9401C17.5243 45.0151 17.4975 45.1128 17.4975 45.2333C17.4975 45.4101 17.5564 45.5467 17.6743 45.6431C17.7921 45.7395 17.9742 45.7877 18.2206 45.7877H18.6383V44.7232H18.2045ZM3.22756 52.282V49.4139H5.38064V52.282H5.02314V49.7312H3.58909V52.282H3.22756ZM7.96532 52.282L7.61987 51.3942H6.48307L6.14163 52.282H5.77609L6.89682 49.4018H7.22219L8.3389 52.282H7.96532ZM7.19006 50.2052C7.18202 50.1838 7.16863 50.145 7.14989 50.0887C7.13114 50.0325 7.11239 49.9749 7.09365 49.916C7.07758 49.8544 7.06419 49.8075 7.05348 49.7754C7.04009 49.829 7.02536 49.8839 7.00929 49.9401C6.9959 49.9937 6.98117 50.0432 6.96511 50.0887C6.95172 50.1343 6.93967 50.1731 6.92895 50.2052L6.60358 51.0729H7.51141L7.19006 50.2052ZM9.96043 49.6911C9.80778 49.6911 9.66987 49.7178 9.54668 49.7714C9.42349 49.8223 9.31905 49.8986 9.23336 50.0004C9.14766 50.0994 9.08205 50.2213 9.03653 50.3659C8.991 50.5078 8.96824 50.6685 8.96824 50.8479C8.96824 51.0836 9.00439 51.2885 9.0767 51.4625C9.15168 51.6366 9.26148 51.7705 9.40609 51.8642C9.55338 51.9579 9.73682 52.0048 9.95641 52.0048C10.0823 52.0048 10.2014 51.9941 10.3139 51.9727C10.4264 51.9513 10.5362 51.9245 10.6433 51.8923V52.2057C10.5362 52.2458 10.4251 52.2753 10.3099 52.294C10.1974 52.3128 10.0622 52.3222 9.90419 52.3222C9.61229 52.3222 9.3686 52.2619 9.1731 52.1414C8.97761 52.0209 8.83033 51.8495 8.73124 51.6272C8.63484 51.405 8.58663 51.1438 8.58663 50.8439C8.58663 50.627 8.61609 50.4288 8.675 50.2494C8.7366 50.07 8.82497 49.9147 8.94012 49.7834C9.05795 49.6522 9.20256 49.5518 9.37395 49.4822C9.54534 49.4099 9.74217 49.3737 9.96444 49.3737C10.1117 49.3737 10.2537 49.3884 10.3902 49.4179C10.5268 49.4474 10.6487 49.4889 10.7558 49.5424L10.6112 49.8477C10.5228 49.8075 10.4237 49.7714 10.3139 49.7393C10.2068 49.7071 10.089 49.6911 9.96043 49.6911ZM12.1771 52.282H11.8156V49.7312H10.9198V49.4139H13.0689V49.7312H12.1771V52.282ZM13.5054 49.4139H13.8428V50.9885C13.8428 51.0555 13.8415 51.1291 13.8388 51.2095C13.8388 51.2871 13.8374 51.3648 13.8348 51.4424C13.8321 51.5201 13.8281 51.5897 13.8227 51.6513C13.82 51.7102 13.8174 51.7558 13.8147 51.7879H13.8307L15.4094 49.4139H15.8111V52.282H15.4737V50.7234C15.4737 50.6511 15.475 50.5734 15.4777 50.4904C15.4804 50.4047 15.483 50.3231 15.4857 50.2454C15.4911 50.1651 15.4951 50.0941 15.4978 50.0325C15.5005 49.9709 15.5031 49.9254 15.5058 49.8959H15.4897L13.9071 52.282H13.5054V49.4139ZM18.6494 52.282H18.2879V49.7312H17.38C17.3613 49.8785 17.3412 50.0338 17.3198 50.1972C17.2983 50.3579 17.2756 50.5172 17.2515 50.6752C17.2301 50.8332 17.2086 50.9818 17.1872 51.1211C17.1658 51.2603 17.1444 51.3822 17.1229 51.4866C17.0881 51.6661 17.0453 51.8187 16.9944 51.9446C16.9435 52.0704 16.8752 52.1655 16.7895 52.2298C16.7065 52.294 16.5967 52.3262 16.4601 52.3262C16.4146 52.3262 16.3678 52.3208 16.3196 52.3101C16.274 52.3021 16.2339 52.2914 16.199 52.278V51.9767C16.2285 51.9901 16.262 52.0021 16.2995 52.0128C16.337 52.0209 16.3771 52.0249 16.42 52.0249C16.5003 52.0249 16.5632 51.9928 16.6088 51.9285C16.657 51.8615 16.6945 51.7799 16.7212 51.6835C16.748 51.5844 16.7708 51.4866 16.7895 51.3902C16.8056 51.3126 16.8243 51.2095 16.8458 51.0809C16.8672 50.9497 16.89 50.7971 16.9141 50.623C16.9408 50.4489 16.9676 50.2601 16.9944 50.0566C17.0239 49.8504 17.052 49.6362 17.0788 49.4139H18.6494V52.282ZM21.2283 52.282L20.8828 51.3942H19.746L19.4046 52.282H19.0391L20.1598 49.4018H20.4852L21.6019 52.282H21.2283ZM20.453 50.2052C20.445 50.1838 20.4316 50.145 20.4128 50.0887C20.3941 50.0325 20.3754 49.9749 20.3566 49.916C20.3405 49.8544 20.3272 49.8075 20.3164 49.7754C20.303 49.829 20.2883 49.8839 20.2723 49.9401C20.2589 49.9937 20.2441 50.0432 20.2281 50.0887C20.2147 50.1343 20.2026 50.1731 20.1919 50.2052L19.8665 51.0729H20.7744L20.453 50.2052ZM23.0113 49.4822C23.0273 49.4741 23.0447 49.4701 23.0635 49.4701H23.2804C23.3072 49.4701 23.3206 49.4835 23.3206 49.5103V52.2418C23.3206 52.2686 23.3072 52.282 23.2804 52.282H23.0755C23.0488 52.282 23.0354 52.2686 23.0354 52.2418V49.7995C23.0354 49.7942 23.0327 49.7901 23.0273 49.7875C23.0247 49.7848 23.0206 49.7848 23.0153 49.7875L22.6136 49.9361C22.6082 49.9388 22.6015 49.9401 22.5935 49.9401C22.5801 49.9401 22.5707 49.9294 22.5654 49.908L22.5453 49.7593V49.7513C22.5453 49.7379 22.5547 49.7245 22.5734 49.7111L23.0113 49.4822ZM25.2517 50.9845C25.2865 51.1104 25.3039 51.255 25.3039 51.4183C25.3039 51.5549 25.2918 51.6727 25.2677 51.7718C25.2276 51.9459 25.1472 52.0798 25.0267 52.1735C24.9089 52.2673 24.7603 52.3141 24.5808 52.3141C24.3987 52.3141 24.2474 52.2659 24.1269 52.1695C24.0064 52.0731 23.9274 51.9379 23.8899 51.7638C23.8765 51.7156 23.8685 51.6661 23.8658 51.6152V51.6071C23.8658 51.5857 23.8779 51.575 23.902 51.575H24.1108C24.1349 51.575 24.1483 51.5857 24.151 51.6071V51.6232L24.1671 51.7035C24.1912 51.8187 24.2381 51.9071 24.3077 51.9687C24.38 52.0303 24.471 52.0611 24.5808 52.0611C24.6879 52.0611 24.7763 52.0303 24.8459 51.9687C24.9183 51.9044 24.9665 51.8147 24.9906 51.6995C25.0093 51.6245 25.0187 51.5322 25.0187 51.4224C25.0187 51.3206 25.008 51.2162 24.9865 51.109C24.9624 51.0019 24.9156 50.9216 24.8459 50.868C24.7763 50.8118 24.6879 50.7837 24.5808 50.7837C24.4791 50.7837 24.3907 50.8078 24.3157 50.856C24.2434 50.9015 24.1925 50.9684 24.1631 51.0568L24.155 51.0729C24.1524 51.0916 24.139 51.101 24.1149 51.101H23.902C23.8752 51.101 23.8618 51.0876 23.8618 51.0608V49.5103C23.8618 49.4835 23.8752 49.4701 23.902 49.4701H25.1753C25.2021 49.4701 25.2155 49.4835 25.2155 49.5103V49.679C25.2155 49.7058 25.2021 49.7192 25.1753 49.7192H24.1631C24.1524 49.7192 24.147 49.7245 24.147 49.7352V50.7194C24.147 50.7247 24.1483 50.7288 24.151 50.7314C24.1564 50.7314 24.1617 50.7288 24.1671 50.7234C24.2206 50.6645 24.2876 50.619 24.3679 50.5868C24.4509 50.552 24.5393 50.5346 24.633 50.5346C24.791 50.5346 24.9223 50.5734 25.0267 50.6511C25.1338 50.7261 25.2088 50.8372 25.2517 50.9845ZM26.3802 50.5748C26.2757 50.5748 26.1793 50.5493 26.0909 50.4985C26.0053 50.4476 25.937 50.3793 25.8861 50.2936C25.8352 50.2052 25.8098 50.1088 25.8098 50.0044C25.8098 49.8999 25.8352 49.8049 25.8861 49.7192C25.937 49.6308 26.0053 49.5612 26.0909 49.5103C26.1793 49.4594 26.2757 49.434 26.3802 49.434C26.4819 49.434 26.5757 49.4594 26.6614 49.5103C26.7497 49.5612 26.8194 49.6308 26.8702 49.7192C26.9211 49.8049 26.9466 49.8999 26.9466 50.0044C26.9466 50.1088 26.9211 50.2052 26.8702 50.2936C26.8194 50.3793 26.7497 50.4476 26.6614 50.4985C26.5757 50.5493 26.4819 50.5748 26.3802 50.5748ZM26.2878 52.282C26.2744 52.282 26.2637 52.278 26.2556 52.2699C26.2503 52.2592 26.2516 52.2472 26.2597 52.2338L27.754 49.4982C27.762 49.4795 27.7781 49.4701 27.8022 49.4701H27.9307C27.9441 49.4701 27.9535 49.4755 27.9588 49.4862C27.9669 49.4942 27.9669 49.5049 27.9588 49.5183L26.4645 52.2539C26.4565 52.2726 26.4404 52.282 26.4163 52.282H26.2878ZM26.3802 50.398C26.4873 50.398 26.577 50.3605 26.6493 50.2856C26.7243 50.2079 26.7618 50.1142 26.7618 50.0044C26.7618 49.8946 26.7243 49.8022 26.6493 49.7272C26.577 49.6495 26.4873 49.6107 26.3802 49.6107C26.273 49.6107 26.182 49.6495 26.107 49.7272C26.032 49.8022 25.9945 49.8946 25.9945 50.0044C25.9945 50.1142 26.032 50.2079 26.107 50.2856C26.182 50.3605 26.273 50.398 26.3802 50.398ZM27.8544 52.3181C27.7499 52.3181 27.6535 52.2927 27.5652 52.2418C27.4795 52.1909 27.4112 52.1213 27.3603 52.0329C27.3094 51.9446 27.284 51.8482 27.284 51.7437C27.284 51.642 27.3094 51.5482 27.3603 51.4625C27.4112 51.3742 27.4795 51.3045 27.5652 51.2536C27.6535 51.2028 27.7499 51.1773 27.8544 51.1773C27.9561 51.1773 28.0499 51.2028 28.1356 51.2536C28.2239 51.3045 28.2936 51.3742 28.3444 51.4625C28.3953 51.5482 28.4208 51.642 28.4208 51.7437C28.4208 51.8482 28.3953 51.9446 28.3444 52.0329C28.2936 52.1213 28.2239 52.1909 28.1356 52.2418C28.0499 52.2927 27.9561 52.3181 27.8544 52.3181ZM27.8544 52.1414C27.9615 52.1414 28.0512 52.1026 28.1235 52.0249C28.1985 51.9472 28.236 51.8535 28.236 51.7437C28.236 51.6339 28.1985 51.5415 28.1235 51.4665C28.0512 51.3916 27.9615 51.3541 27.8544 51.3541C27.7473 51.3541 27.6562 51.3916 27.5812 51.4665C27.5062 51.5415 27.4688 51.6339 27.4688 51.7437C27.4688 51.8562 27.5049 51.9513 27.5772 52.0289C27.6522 52.1039 27.7446 52.1414 27.8544 52.1414Z" fill="#404040"/>
<path d="M70.1768 44.5768H69.8152V43.3998C69.6599 43.4534 69.514 43.4976 69.3774 43.5324C69.2435 43.5645 69.0935 43.5806 68.9275 43.5806C68.6597 43.5806 68.4521 43.519 68.3049 43.3958C68.1576 43.2699 68.0839 43.0892 68.0839 42.8535V41.7087H68.4455V42.8013C68.4455 42.9566 68.4856 43.0731 68.566 43.1508C68.649 43.2258 68.7815 43.2632 68.9636 43.2632C69.1216 43.2632 69.2636 43.2485 69.3894 43.2191C69.5153 43.1896 69.6572 43.1494 69.8152 43.0985V41.7087H70.1768V44.5768ZM72.5598 44.5768H70.957V41.7087H72.5598V42.026H71.3185V42.9218H72.4875V43.2351H71.3185V44.2594H72.5598V44.5768ZM73.9483 41.7087C74.3232 41.7087 74.5963 41.7823 74.7677 41.9296C74.9391 42.0769 75.0248 42.2844 75.0248 42.5522C75.0248 42.6701 75.0047 42.7839 74.9646 42.8937C74.9271 43.0008 74.8641 43.0972 74.7758 43.1829C74.6874 43.2686 74.5696 43.3369 74.4223 43.3878C74.275 43.436 74.0942 43.4601 73.88 43.4601H73.5506V44.5768H73.1891V41.7087H73.9483ZM73.9161 42.018H73.5506V43.1508H73.8398C74.0219 43.1508 74.1732 43.132 74.2937 43.0945C74.4142 43.0544 74.504 42.9914 74.5629 42.9057C74.6218 42.82 74.6512 42.7076 74.6512 42.5683C74.6512 42.3835 74.5923 42.2456 74.4745 42.1546C74.3567 42.0635 74.1706 42.018 73.9161 42.018ZM77.8145 44.5768H77.4529V43.2391H75.9827V44.5768H75.6212V41.7087H75.9827V42.9218H77.4529V41.7087H77.8145V44.5768ZM78.6026 41.7087H78.9401V43.2833C78.9401 43.3503 78.9387 43.4239 78.936 43.5043C78.936 43.5819 78.9347 43.6596 78.932 43.7372C78.9293 43.8149 78.9253 43.8845 78.92 43.9461C78.9173 44.005 78.9146 44.0506 78.9119 44.0827H78.928L80.5067 41.7087H80.9084V44.5768H80.5709V43.0182C80.5709 42.9459 80.5723 42.8682 80.5749 42.7852C80.5776 42.6995 80.5803 42.6179 80.583 42.5402C80.5883 42.4599 80.5924 42.3889 80.595 42.3273C80.5977 42.2657 80.6004 42.2202 80.6031 42.1907H80.587L79.0043 44.5768H78.6026V41.7087ZM83.7065 44.5768H83.3449V43.3998C83.1896 43.4534 83.0437 43.4976 82.9071 43.5324C82.7732 43.5645 82.6232 43.5806 82.4572 43.5806C82.1894 43.5806 81.9819 43.519 81.8346 43.3958C81.6873 43.2699 81.6136 43.0892 81.6136 42.8535V41.7087H81.9752V42.8013C81.9752 42.9566 82.0153 43.0731 82.0957 43.1508C82.1787 43.2258 82.3112 43.2632 82.4933 43.2632C82.6513 43.2632 82.7933 43.2485 82.9191 43.2191C83.045 43.1896 83.1869 43.1494 83.3449 43.0985V41.7087H83.7065V44.5768ZM86.68 44.5768H86.3184V43.2391H84.8482V44.5768H84.4867V41.7087H84.8482V42.9218H86.3184V41.7087H86.68V44.5768ZM87.4641 44.5768V41.7087H87.8256V42.9218H88.2675C88.5353 42.9218 88.7455 42.958 88.8982 43.0303C89.0535 43.1026 89.1633 43.2003 89.2276 43.3235C89.2945 43.4467 89.328 43.5846 89.328 43.7372C89.328 43.906 89.2918 44.0532 89.2195 44.1791C89.1499 44.305 89.0401 44.4027 88.8901 44.4723C88.7402 44.542 88.5474 44.5768 88.3117 44.5768H87.4641ZM88.2796 44.2715C88.5099 44.2715 88.6799 44.2273 88.7897 44.1389C88.8995 44.0506 88.9544 43.9167 88.9544 43.7372C88.9544 43.6141 88.9276 43.5163 88.8741 43.444C88.8232 43.3717 88.7442 43.3195 88.6371 43.2873C88.53 43.2552 88.3934 43.2391 88.2273 43.2391H87.8256V44.2715H88.2796ZM89.7698 44.5768V41.7087H90.1314V44.5768H89.7698ZM92.8685 40.8169C92.8578 40.9508 92.8243 41.0633 92.7681 41.1543C92.7145 41.2454 92.6342 41.3137 92.5271 41.3592C92.4199 41.4047 92.2807 41.4275 92.1093 41.4275C91.9352 41.4275 91.7946 41.4047 91.6875 41.3592C91.5831 41.3137 91.5068 41.2467 91.4586 41.1584C91.4104 41.0673 91.3809 40.9535 91.3702 40.8169H91.6996C91.713 40.9615 91.7505 41.0593 91.8121 41.1102C91.8763 41.1584 91.9781 41.1825 92.1173 41.1825C92.2405 41.1825 92.3369 41.157 92.4066 41.1061C92.4789 41.0526 92.5217 40.9562 92.5351 40.8169H92.8685ZM90.9163 41.7087H91.2537V43.2833C91.2537 43.3503 91.2524 43.4239 91.2497 43.5043C91.2497 43.5819 91.2483 43.6596 91.2457 43.7372C91.243 43.8149 91.239 43.8845 91.2336 43.9461C91.2309 44.005 91.2283 44.0506 91.2256 44.0827H91.2416L92.8203 41.7087H93.222V44.5768H92.8846V43.0182C92.8846 42.9459 92.8859 42.8682 92.8886 42.7852C92.8913 42.6995 92.8939 42.6179 92.8966 42.5402C92.902 42.4599 92.906 42.3889 92.9087 42.3273C92.9114 42.2657 92.914 42.2202 92.9167 42.1907H92.9006L91.318 44.5768H90.9163V41.7087ZM70.245 49.5768H69.8112L68.5137 48.1227V49.5768H68.1522V46.7087H68.5137V48.0985L69.7791 46.7087H70.1888L68.9436 48.1026L70.245 49.5768ZM71.3945 46.7087C71.7695 46.7087 72.0426 46.7823 72.214 46.9296C72.3854 47.0769 72.4711 47.2844 72.4711 47.5522C72.4711 47.6701 72.451 47.7839 72.4108 47.8937C72.3733 48.0008 72.3104 48.0972 72.222 48.1829C72.1337 48.2686 72.0158 48.3369 71.8685 48.3878C71.7213 48.436 71.5405 48.4601 71.3263 48.4601H70.9969V49.5768H70.6353V46.7087H71.3945ZM71.3624 47.018H70.9969V48.1508H71.2861C71.4682 48.1508 71.6195 48.132 71.74 48.0945C71.8605 48.0544 71.9502 47.9914 72.0091 47.9057C72.0681 47.82 72.0975 47.7076 72.0975 47.5683C72.0975 47.3835 72.0386 47.2456 71.9208 47.1546C71.8029 47.0635 71.6168 47.018 71.3624 47.018ZM74.667 49.5768L74.3215 48.689H73.1848L72.8433 49.5768H72.4778L73.5985 46.6966H73.9239L75.0406 49.5768H74.667ZM73.8917 47.5C73.8837 47.4786 73.8703 47.4398 73.8516 47.3835C73.8328 47.3273 73.8141 47.2697 73.7953 47.2108C73.7793 47.1492 73.7659 47.1023 73.7552 47.0702C73.7418 47.1238 73.727 47.1787 73.711 47.2349C73.6976 47.2885 73.6829 47.338 73.6668 47.3835C73.6534 47.4291 73.6413 47.4679 73.6306 47.5L73.3053 48.3677H74.2131L73.8917 47.5ZM76.6983 49.5768L75.7543 47.0622H75.7382C75.7436 47.1157 75.7476 47.184 75.7503 47.267C75.7556 47.3501 75.7596 47.4411 75.7623 47.5402C75.765 47.6366 75.7663 47.7357 75.7663 47.8374V49.5768H75.4329V46.7087H75.9672L76.8509 49.0586H76.867L77.7668 46.7087H78.297V49.5768H77.9395V47.8133C77.9395 47.7196 77.9408 47.6272 77.9435 47.5362C77.9462 47.4424 77.9502 47.3554 77.9556 47.2751C77.9609 47.1921 77.9649 47.1224 77.9676 47.0662H77.9515L76.9955 49.5768H76.6983ZM79.0772 49.5768V46.7087H80.7804V47.026H79.4387V47.9218H79.8645C80.1511 47.9218 80.3733 47.958 80.5313 48.0303C80.6893 48.0999 80.7991 48.1963 80.8607 48.3195C80.9223 48.44 80.9531 48.5792 80.9531 48.7372C80.9531 48.9113 80.9183 49.0613 80.8487 49.1871C80.7817 49.313 80.6719 49.4094 80.5193 49.4764C80.3666 49.5433 80.1658 49.5768 79.9167 49.5768H79.0772ZM79.8806 49.2675C80.1377 49.2675 80.3184 49.2246 80.4229 49.1389C80.5273 49.0506 80.5795 48.9167 80.5795 48.7372C80.5795 48.6141 80.5541 48.5163 80.5032 48.444C80.455 48.369 80.3747 48.3155 80.2622 48.2833C80.1524 48.2512 80.0051 48.2351 79.8203 48.2351H79.4387V49.2675H79.8806ZM83.6133 49.5768H83.2517V47.026H82.3439C82.3252 47.1733 82.3051 47.3286 82.2837 47.492C82.2622 47.6527 82.2395 47.812 82.2154 47.97C82.1939 48.128 82.1725 48.2766 82.1511 48.4159C82.1297 48.5551 82.1082 48.677 82.0868 48.7814C82.052 48.9609 82.0092 49.1135 81.9583 49.2394C81.9074 49.3652 81.8391 49.4603 81.7534 49.5246C81.6704 49.5888 81.5606 49.621 81.424 49.621C81.3785 49.621 81.3316 49.6156 81.2834 49.6049C81.2379 49.5969 81.1977 49.5862 81.1629 49.5728V49.2715C81.1924 49.2849 81.2259 49.2969 81.2633 49.3076C81.3008 49.3157 81.341 49.3197 81.3839 49.3197C81.4642 49.3197 81.5271 49.2876 81.5727 49.2233C81.6209 49.1563 81.6583 49.0747 81.6851 48.9783C81.7119 48.8792 81.7347 48.7814 81.7534 48.685C81.7695 48.6074 81.7882 48.5043 81.8097 48.3757C81.8311 48.2445 81.8538 48.0919 81.8779 47.9178C81.9047 47.7437 81.9315 47.5549 81.9583 47.3514C81.9877 47.1452 82.0159 46.931 82.0426 46.7087H83.6133V49.5768ZM86.434 48.2793C86.4688 48.4052 86.4862 48.5498 86.4862 48.7131C86.4862 48.8497 86.4741 48.9675 86.45 49.0666C86.4099 49.2407 86.3295 49.3746 86.209 49.4683C86.0912 49.5621 85.9426 49.6089 85.7631 49.6089C85.581 49.6089 85.4297 49.5607 85.3092 49.4643C85.1887 49.3679 85.1097 49.2327 85.0722 49.0586C85.0588 49.0104 85.0508 48.9609 85.0481 48.91V48.9019C85.0481 48.8805 85.0602 48.8698 85.0843 48.8698H85.2932C85.3173 48.8698 85.3306 48.8805 85.3333 48.9019V48.918L85.3494 48.9983C85.3735 49.1135 85.4204 49.2019 85.49 49.2635C85.5623 49.3251 85.6533 49.3559 85.7631 49.3559C85.8703 49.3559 85.9586 49.3251 86.0283 49.2635C86.1006 49.1992 86.1488 49.1095 86.1729 48.9943C86.1916 48.9193 86.201 48.827 86.201 48.7172C86.201 48.6154 86.1903 48.511 86.1688 48.4038C86.1447 48.2967 86.0979 48.2164 86.0283 48.1628C85.9586 48.1066 85.8703 48.0785 85.7631 48.0785C85.6614 48.0785 85.573 48.1026 85.498 48.1508C85.4257 48.1963 85.3748 48.2632 85.3454 48.3516L85.3373 48.3677C85.3347 48.3864 85.3213 48.3958 85.2972 48.3958H85.0843C85.0575 48.3958 85.0441 48.3824 85.0441 48.3556V46.8051C85.0441 46.7783 85.0575 46.7649 85.0843 46.7649H86.3576C86.3844 46.7649 86.3978 46.7783 86.3978 46.8051V46.9738C86.3978 47.0006 86.3844 47.014 86.3576 47.014H85.3454C85.3347 47.014 85.3293 47.0193 85.3293 47.03V48.0142C85.3293 48.0195 85.3306 48.0236 85.3333 48.0262C85.3387 48.0262 85.344 48.0236 85.3494 48.0182C85.403 47.9593 85.4699 47.9138 85.5502 47.8816C85.6333 47.8468 85.7216 47.8294 85.8154 47.8294C85.9734 47.8294 86.1046 47.8682 86.209 47.9459C86.3161 48.0209 86.3911 48.132 86.434 48.2793ZM87.6669 49.617C87.4366 49.617 87.2518 49.5473 87.1126 49.4081C86.9733 49.2688 86.9037 49.0827 86.9037 48.8497V47.492C86.9037 47.2617 86.9733 47.0769 87.1126 46.9377C87.2518 46.7984 87.4366 46.7288 87.6669 46.7288C87.8999 46.7288 88.086 46.7984 88.2253 46.9377C88.3672 47.0769 88.4382 47.2617 88.4382 47.492V48.8497C88.4382 49.0827 88.3672 49.2688 88.2253 49.4081C88.086 49.5473 87.8999 49.617 87.6669 49.617ZM87.6669 49.3679C87.8142 49.3679 87.932 49.3224 88.0204 49.2313C88.1088 49.1403 88.153 49.0198 88.153 48.8698V47.4759C88.153 47.326 88.1088 47.2054 88.0204 47.1144C87.932 47.0233 87.8142 46.9778 87.6669 46.9778C87.525 46.9778 87.4098 47.0233 87.3215 47.1144C87.2331 47.2054 87.1889 47.326 87.1889 47.4759V48.8698C87.1889 49.0171 87.2331 49.1376 87.3215 49.2313C87.4098 49.3224 87.525 49.3679 87.6669 49.3679ZM89.5866 47.8696C89.4822 47.8696 89.3858 47.8441 89.2974 47.7933C89.2117 47.7424 89.1434 47.6741 89.0926 47.5884C89.0417 47.5 89.0162 47.4036 89.0162 47.2992C89.0162 47.1947 89.0417 47.0997 89.0926 47.014C89.1434 46.9256 89.2117 46.856 89.2974 46.8051C89.3858 46.7542 89.4822 46.7288 89.5866 46.7288C89.6884 46.7288 89.7821 46.7542 89.8678 46.8051C89.9562 46.856 90.0258 46.9256 90.0767 47.014C90.1276 47.0997 90.153 47.1947 90.153 47.2992C90.153 47.4036 90.1276 47.5 90.0767 47.5884C90.0258 47.6741 89.9562 47.7424 89.8678 47.7933C89.7821 47.8441 89.6884 47.8696 89.5866 47.8696ZM89.4942 49.5768C89.4809 49.5768 89.4701 49.5728 89.4621 49.5647C89.4568 49.554 89.4581 49.542 89.4661 49.5286L90.9604 46.793C90.9685 46.7743 90.9845 46.7649 91.0086 46.7649H91.1372C91.1506 46.7649 91.1599 46.7703 91.1653 46.781C91.1733 46.789 91.1733 46.7997 91.1653 46.8131L89.671 49.5487C89.663 49.5674 89.6469 49.5768 89.6228 49.5768H89.4942ZM89.5866 47.6928C89.6938 47.6928 89.7835 47.6553 89.8558 47.5804C89.9308 47.5027 89.9682 47.409 89.9682 47.2992C89.9682 47.1894 89.9308 47.097 89.8558 47.022C89.7835 46.9443 89.6938 46.9055 89.5866 46.9055C89.4795 46.9055 89.3885 46.9443 89.3135 47.022C89.2385 47.097 89.201 47.1894 89.201 47.2992C89.201 47.409 89.2385 47.5027 89.3135 47.5804C89.3885 47.6553 89.4795 47.6928 89.5866 47.6928ZM91.0609 49.6129C90.9564 49.6129 90.86 49.5875 90.7716 49.5366C90.6859 49.4857 90.6176 49.4161 90.5668 49.3277C90.5159 49.2394 90.4904 49.143 90.4904 49.0385C90.4904 48.9367 90.5159 48.843 90.5668 48.7573C90.6176 48.669 90.6859 48.5993 90.7716 48.5484C90.86 48.4976 90.9564 48.4721 91.0609 48.4721C91.1626 48.4721 91.2563 48.4976 91.342 48.5484C91.4304 48.5993 91.5 48.669 91.5509 48.7573C91.6018 48.843 91.6272 48.9367 91.6272 49.0385C91.6272 49.143 91.6018 49.2394 91.5509 49.3277C91.5 49.4161 91.4304 49.4857 91.342 49.5366C91.2563 49.5875 91.1626 49.6129 91.0609 49.6129ZM91.0609 49.4362C91.168 49.4362 91.2577 49.3974 91.33 49.3197C91.405 49.242 91.4425 49.1483 91.4425 49.0385C91.4425 48.9287 91.405 48.8363 91.33 48.7613C91.2577 48.6864 91.168 48.6489 91.0609 48.6489C90.9537 48.6489 90.8627 48.6864 90.7877 48.7613C90.7127 48.8363 90.6752 48.9287 90.6752 49.0385C90.6752 49.151 90.7114 49.2461 90.7837 49.3237C90.8587 49.3987 90.9511 49.4362 91.0609 49.4362Z" fill="#404040"/>
<path fill-rule="evenodd" clip-rule="evenodd" d="M51.2748 26.7517C51.1859 26.9395 51.097 27.002 50.8926 27.002C50.6348 27.002 50.626 27.002 50.7859 27.1809C50.9193 27.3329 50.9282 27.3955 50.8393 27.5922L50.7326 27.8336L50.9637 27.6816C51.1681 27.5475 51.2037 27.5475 51.4081 27.6816C51.6303 27.8247 51.6303 27.8247 51.577 27.5654C51.5325 27.3508 51.5681 27.2882 51.7725 27.1809L52.0125 27.0468L51.7636 27.002C51.5859 26.9663 51.4881 26.8858 51.4437 26.7338L51.3903 26.5103L51.2748 26.7517Z" fill="black"/>
<path fill-rule="evenodd" clip-rule="evenodd" d="M49.4082 26.8496C49.4082 26.9032 48.7861 30.4441 48.7505 30.5962C48.715 30.7392 48.7861 30.7571 49.2216 30.7571H49.7282L50.0304 29.0314C50.1904 28.0925 50.3415 27.2072 50.3681 27.0642C50.4037 26.8228 50.4037 26.8228 49.906 26.8228C49.6304 26.8228 49.4082 26.8317 49.4082 26.8496Z" fill="black"/>
<path fill-rule="evenodd" clip-rule="evenodd" d="M39.3642 27.1085C38.9109 27.341 38.6532 27.7613 38.6532 28.262C38.6532 28.7181 38.9198 29.0131 39.5509 29.2456C40.1641 29.4692 40.2619 29.5765 40.0219 29.7463C39.8175 29.8984 39.4798 29.8268 39.2398 29.5943C39.0709 29.4334 39.062 29.4334 38.6354 29.648C38.4043 29.7642 38.2088 29.9073 38.2088 29.952C38.2088 29.9967 38.3332 30.1756 38.4843 30.3454C39.1331 31.0876 40.6885 30.9356 41.0885 30.0861C41.444 29.344 41.1507 28.7896 40.2352 28.4319C39.6931 28.2173 39.5775 28.0206 39.933 27.9312C40.1641 27.8775 40.5197 28.0206 40.5197 28.1726C40.5197 28.2173 40.7241 28.1547 40.9641 28.0295C41.2129 27.9044 41.4085 27.7523 41.4085 27.6898C41.4085 27.5556 41.0085 27.1622 40.7241 27.0102C40.413 26.8492 39.7908 26.8939 39.3642 27.1085Z" fill="black"/>
<path fill-rule="evenodd" clip-rule="evenodd" d="M42.4485 27.4666C42.1907 27.5381 42.084 27.6275 42.0129 27.8153C41.9596 27.9762 41.8618 28.0746 41.7552 28.0746C41.5863 28.0746 41.5241 28.2266 41.4797 28.7452C41.4619 28.9509 41.4885 29.0135 41.6041 29.0045C41.7374 28.9956 41.7552 29.0671 41.7019 29.6752C41.6574 30.319 41.6663 30.3637 41.8796 30.5693C42.0574 30.7303 42.2085 30.775 42.564 30.775C42.8129 30.775 43.0262 30.7661 43.044 30.7482C43.0617 30.7303 43.1062 30.5246 43.1328 30.2832C43.195 29.8808 43.1862 29.8629 42.9817 29.8629C42.724 29.8629 42.6618 29.7467 42.7151 29.3443C42.7595 29.1029 42.7951 29.0582 43.0173 29.0582C43.3106 29.0582 43.3461 29.0135 43.4439 28.4859L43.515 28.0746H43.2573C42.9995 28.0746 42.9906 28.0657 43.0262 27.7169C43.0617 27.3235 43.0351 27.3146 42.4485 27.4666Z" fill="black"/>
<path fill-rule="evenodd" clip-rule="evenodd" d="M44.2883 28.155C43.524 28.62 43.2218 29.7377 43.6751 30.4352C43.9417 30.8375 44.4928 30.9538 44.9638 30.7124C45.1149 30.6319 45.2305 30.614 45.2305 30.6677C45.2305 30.7213 45.4438 30.7571 45.7193 30.7571C45.9859 30.7571 46.2081 30.7302 46.2081 30.6855C46.2081 30.6498 46.3059 30.0596 46.4303 29.38C46.5548 28.6915 46.6525 28.1193 46.6525 28.1014C46.6525 28.0209 45.6837 28.0924 45.6571 28.1729C45.6393 28.2266 45.5327 28.2176 45.3638 28.1282C45.0083 27.9404 44.6261 27.9494 44.2883 28.155ZM45.2393 28.9687C45.346 29.0313 45.4082 29.1565 45.4082 29.3085C45.4082 29.8182 44.9283 30.0954 44.6083 29.7735C44.395 29.5589 44.4305 29.2817 44.715 29.0313C44.9194 28.8525 44.9994 28.8435 45.2393 28.9687Z" fill="black"/>
<path fill-rule="evenodd" clip-rule="evenodd" d="M48.4038 28.1548C48.1461 28.2889 48.075 28.2978 48.075 28.1995C48.075 28.11 47.9417 28.0743 47.5861 28.0743C47.1506 28.0743 47.0973 28.1011 47.0529 28.271C46.9729 28.6734 46.6529 30.5333 46.6529 30.6406C46.6529 30.721 46.804 30.7568 47.1328 30.7568H47.6128L47.7195 30.1756C47.8439 29.505 48.0572 29.1831 48.4305 29.1026C48.5727 29.0668 48.7149 29.0132 48.7327 28.9863C48.8127 28.8433 48.8838 27.9849 48.8127 27.9849C48.7682 27.9849 48.5905 28.0653 48.4038 28.1548Z" fill="black"/>
<path fill-rule="evenodd" clip-rule="evenodd" d="M53.3011 28.1104C53.1589 28.1819 53.0523 28.1998 53.0523 28.1551C53.0523 28.1014 52.8389 28.0746 52.5456 28.0925L52.039 28.1193L51.8346 29.2817C51.5591 30.8644 51.5413 30.7571 52.1012 30.7571H52.5723L52.7234 29.9881C52.8834 29.1386 52.99 28.9509 53.2656 28.9866C53.4255 29.0135 53.4522 29.0761 53.4522 29.4158C53.4522 29.6394 53.4167 30.0328 53.3722 30.2832L53.3011 30.7571H53.79H54.2788L54.3766 30.1938C54.4299 29.8898 54.501 29.389 54.5365 29.085C54.5899 28.5574 54.581 28.5217 54.3143 28.2624C54.0122 27.9494 53.6922 27.9047 53.3011 28.1104Z" fill="black"/>
<path fill-rule="evenodd" clip-rule="evenodd" d="M55.7634 28.1103C55.1768 28.3786 54.8035 28.9508 54.7946 29.6125C54.7857 30.1043 54.999 30.453 55.4612 30.6945C55.8256 30.8912 56.67 30.8554 57.0166 30.6229L57.2477 30.4709L56.9633 30.1758C56.7055 29.9165 56.6611 29.8897 56.43 29.9791C56.2345 30.0507 56.1189 30.0507 55.9234 29.9434C55.6923 29.8271 55.7278 29.8182 56.5811 29.7913L57.4877 29.7645L57.5499 29.4605C57.5766 29.2906 57.5766 29.0134 57.5499 28.8525C57.4255 28.164 56.5011 27.7795 55.7634 28.1103ZM56.59 28.8972C56.7766 29.085 56.7055 29.1475 56.2967 29.1475C55.8789 29.1475 55.7812 29.0402 56.0567 28.8882C56.2611 28.763 56.4567 28.763 56.59 28.8972Z" fill="black"/>
<path fill-rule="evenodd" clip-rule="evenodd" d="M50.6081 28.1815C50.5459 28.3782 50.2082 30.3812 50.2082 30.5779C50.2082 30.7389 50.2615 30.7567 50.6792 30.7567H51.1592L51.3547 29.5675C51.4614 28.9237 51.5769 28.3156 51.5947 28.2262C51.6391 28.0921 51.5769 28.0742 51.1414 28.0742C50.8214 28.0742 50.6348 28.11 50.6081 28.1815Z" fill="black"/>
<defs>
<linearGradient id="paint0_linear_10_18223" x1="49.6377" y1="6.76243" x2="55.8758" y2="48.5858" gradientUnits="userSpaceOnUse">
<stop stop-color="#532D00"/>
<stop offset="1" stop-color="#FF004D"/>
</linearGradient>
</defs>
</svg>
