<svg width="96" height="57" viewBox="0 0 96 57" fill="none" xmlns="http://www.w3.org/2000/svg">
<path fill-rule="evenodd" clip-rule="evenodd" d="M45.2775 18.6283C45.2775 18.6509 45.1339 19.6803 44.9633 20.9083C44.7928 22.1363 44.6492 23.1883 44.6492 23.2379V23.3373L45.0576 23.2334C45.4076 23.1431 45.5737 23.0618 46.2154 22.6736C46.6238 22.4207 46.9873 22.1995 47.0187 22.1769C47.0681 22.1499 46.9155 21.8113 46.359 20.7006C45.5512 19.0798 45.282 18.5606 45.2775 18.6283Z" fill="black"/>
<path fill-rule="evenodd" clip-rule="evenodd" d="M46.3411 22.8136C46.0001 23.0123 45.7308 23.1838 45.7398 23.1929C45.7488 23.2064 46.0943 23.1296 46.5027 23.0258L47.2476 22.8407L47.1489 22.6421C47.0995 22.5337 47.0322 22.4434 47.0098 22.4479C46.9829 22.4479 46.6822 22.615 46.3411 22.8136Z" fill="black"/>
<path fill-rule="evenodd" clip-rule="evenodd" d="M45.9371 23.3918C45.2774 23.586 44.721 23.7575 44.703 23.7756C44.6716 23.8072 47.5661 23.7665 47.5976 23.7349C47.6065 23.7259 47.5392 23.5634 47.445 23.3738C47.3418 23.1616 47.252 23.0306 47.2071 23.0351C47.1712 23.0397 46.5968 23.1977 45.9371 23.3918Z" fill="black"/>
<path fill-rule="evenodd" clip-rule="evenodd" d="M45.6903 24.2087C45.1383 24.2267 44.6806 24.2493 44.6671 24.2628C44.6537 24.2719 45.1653 24.6647 45.8025 25.1297C46.4398 25.5992 46.9828 25.9965 47.0097 26.0191C47.0501 26.0462 49.092 25.9739 49.1279 25.9423C49.1369 25.9378 48.8541 25.5315 48.4996 25.0439L47.8624 24.159L47.2745 24.168C46.9558 24.168 46.2423 24.1861 45.6903 24.2087Z" fill="black"/>
<path fill-rule="evenodd" clip-rule="evenodd" d="M44.6493 24.5883C44.8063 25.0036 44.8467 25.0398 45.2371 25.1436C45.4391 25.1978 45.6141 25.2384 45.6231 25.2294C45.6365 25.2113 44.6627 24.4754 44.6268 24.4754C44.6178 24.4754 44.6268 24.5251 44.6493 24.5883Z" fill="black"/>
<path fill-rule="evenodd" clip-rule="evenodd" d="M44.9364 25.2287C44.9544 25.2693 45.0486 25.4906 45.1518 25.7253L45.3358 26.1452L45.8115 26.1181C46.0718 26.1001 46.4084 26.0775 46.5565 26.0594L46.8257 26.0323L46.3815 25.7208C45.9462 25.4138 45.8654 25.3822 45.1967 25.2242C44.9364 25.1655 44.914 25.1655 44.9364 25.2287Z" fill="black"/>
<path fill-rule="evenodd" clip-rule="evenodd" d="M44.8422 26.47C44.8557 26.5287 44.8916 26.7138 44.923 26.8808L44.9813 27.1878L45.7218 27.8696C46.1302 28.2443 46.5206 28.601 46.5834 28.6597L46.7001 28.768L46.9155 27.6709C47.0322 27.0659 47.1399 26.5287 47.1489 26.47L47.1713 26.3707H45.9956H44.8198L44.8422 26.47Z" fill="black"/>
<path fill-rule="evenodd" clip-rule="evenodd" d="M43.0202 27.1477C42.9529 27.554 42.899 27.8972 42.899 27.9152C42.899 27.9513 44.6806 28.5518 44.73 28.5292C44.7659 28.5157 43.2176 26.4253 43.1683 26.4208C43.1548 26.4163 43.0875 26.7459 43.0202 27.1477Z" fill="black"/>
<path fill-rule="evenodd" clip-rule="evenodd" d="M47.791 26.4489C47.791 26.4895 48.4506 28.0923 48.4731 28.1103C48.5359 28.1555 50.2278 28.765 50.2457 28.7469C50.2592 28.7334 50.0797 28.2052 49.8508 27.5686L49.429 26.4173H48.6122C48.1589 26.4173 47.791 26.4308 47.791 26.4489Z" fill="black"/>
<path fill-rule="evenodd" clip-rule="evenodd" d="M41.8221 29.1481C41.8221 29.1932 42.2753 30.0826 42.2933 30.0691C42.3022 30.06 42.2663 29.8433 42.217 29.586L42.1227 29.1255H41.9746C41.8894 29.1255 41.8221 29.1345 41.8221 29.1481Z" fill="black"/>
<path fill-rule="evenodd" clip-rule="evenodd" d="M42.3156 29.1529C42.3156 29.1754 42.347 29.3967 42.3829 29.645C42.4188 29.8933 42.4502 30.1235 42.4502 30.1506C42.4502 30.1958 42.5759 30.2093 42.9214 30.2093C43.3343 30.2093 43.4061 30.2229 43.4824 30.2996C43.5946 30.4125 43.5991 30.5795 43.4914 30.6743C43.4286 30.733 43.3209 30.7511 43.0426 30.7511H42.6746V31.2929V31.8346H43.0336C43.3343 31.8346 43.4061 31.8482 43.4824 31.9249C43.5318 31.9746 43.5722 32.0559 43.5722 32.1055C43.5722 32.1552 43.5318 32.2365 43.4824 32.2861C43.4061 32.3629 43.3343 32.3764 43.0336 32.3764H42.6746V32.9227V33.469L43.1817 33.4509C43.5856 33.4374 43.7203 33.4148 43.8683 33.3381C44.169 33.18 44.3216 33.022 44.4652 32.7286C44.6492 32.3584 44.6627 31.8933 44.4921 31.5276L44.3844 31.2929L44.4921 31.0536C44.5774 30.873 44.6043 30.7466 44.6043 30.4802C44.6043 30.0558 44.4832 29.7714 44.187 29.5005C43.8639 29.2025 43.7337 29.1619 42.9798 29.1348C42.6118 29.1258 42.3156 29.1303 42.3156 29.1529Z" fill="black"/>
<path fill-rule="evenodd" clip-rule="evenodd" d="M44.7839 29.8564C44.7839 30.4885 44.7929 30.5607 44.8872 30.7233C45.0442 30.9987 45.2148 31.0664 45.7622 31.0664C46.211 31.0664 46.2245 31.0619 46.2738 30.9535C46.3187 30.8497 46.3501 30.8406 46.6104 30.8406C46.763 30.8406 46.8931 30.8226 46.8931 30.8045C46.8931 30.7819 46.8617 30.6736 46.8213 30.5562C46.7585 30.3711 46.7361 30.344 46.6239 30.344H46.4937L46.5566 30.1905C46.6149 30.046 46.6104 30.0099 46.5027 29.7165C46.4399 29.5359 46.3726 29.4095 46.3501 29.4275C46.3322 29.4456 46.1931 29.8203 46.036 30.2537C45.7578 31.0212 45.7488 31.0393 45.7353 30.8271C45.7219 30.6239 45.7174 30.6149 45.5872 30.6149C45.5065 30.6149 45.4122 30.5743 45.3449 30.502C45.2372 30.3982 45.2327 30.3711 45.2327 29.7797V29.1702H45.0083H44.7839V29.8564Z" fill="black"/>
<path fill-rule="evenodd" clip-rule="evenodd" d="M46.4804 29.1927C46.467 29.2062 46.6061 29.6261 46.7811 30.1318L47.1087 31.0438L47.3645 31.0573C47.5979 31.0709 47.6203 31.0618 47.5889 30.9896C47.5709 30.9444 47.4273 30.5562 47.2703 30.1227C46.8978 29.116 46.9292 29.1701 46.6958 29.1701C46.5926 29.1701 46.4939 29.1792 46.4804 29.1927Z" fill="black"/>
<path fill-rule="evenodd" clip-rule="evenodd" d="M48.316 29.2289C47.5756 29.4636 47.4185 30.4569 48.0512 30.9038C48.1949 31.0077 48.3026 31.0438 48.509 31.0573L48.7783 31.0754V30.8452C48.7783 30.6239 48.7738 30.6149 48.6571 30.6149C48.4776 30.6149 48.2263 30.4749 48.1634 30.344C48.0647 30.1454 48.0916 29.9873 48.2577 29.8203C48.3833 29.6939 48.4462 29.6668 48.5943 29.6668H48.7783V29.4185V29.1702L48.6346 29.1747C48.5539 29.1747 48.4103 29.2018 48.316 29.2289Z" fill="black"/>
<path fill-rule="evenodd" clip-rule="evenodd" d="M48.9128 30.1183V31.0664H49.1372H49.3616V30.1183V29.1702H49.1372H48.9128V30.1183Z" fill="black"/>
<path fill-rule="evenodd" clip-rule="evenodd" d="M49.8419 29.1977C49.8239 29.2157 49.8105 29.3151 49.8105 29.4144C49.8105 29.613 49.7207 29.7575 49.5547 29.8433C49.4649 29.8885 49.4514 29.9336 49.4514 30.1413C49.4514 30.3444 49.4649 30.3896 49.5412 30.4122C49.6938 30.4618 49.8105 30.656 49.8105 30.8682V31.0668H50.0618H50.3176L50.2906 30.7869C50.2727 30.5747 50.2323 30.4618 50.1291 30.3128C50.0034 30.1322 49.9945 30.1052 50.0573 30.0465C50.1919 29.911 50.2727 29.6898 50.2772 29.4415L50.2817 29.1932L50.0797 29.1796C49.9675 29.1706 49.8598 29.1796 49.8419 29.1977Z" fill="black"/>
<path fill-rule="evenodd" clip-rule="evenodd" d="M41.2386 31.6085C41.2386 33.0081 41.2521 33.3738 41.297 33.3558C41.3239 33.3467 41.5573 33.2384 41.8131 33.121L42.2708 32.9043L42.2618 31.6808L42.2484 30.4618L41.8894 30.2406C41.6919 30.1187 41.463 29.9787 41.3867 29.929L41.2386 29.8387V31.6085Z" fill="black"/>
<path fill-rule="evenodd" clip-rule="evenodd" d="M44.7839 32.0014C44.7839 32.8502 44.8288 33.0217 45.0936 33.2475C45.5424 33.6267 46.2559 33.4687 46.4937 32.9405C46.5655 32.787 46.579 32.638 46.579 32.0014V31.2474H46.2694H45.9597L45.9777 31.9382C45.9956 32.7644 45.9687 32.8457 45.6949 32.8637C45.3943 32.8863 45.3673 32.8096 45.3673 31.9608V31.2474H45.0756H44.7839V32.0014Z" fill="black"/>
<path fill-rule="evenodd" clip-rule="evenodd" d="M46.7138 31.5183V31.7847L47.2209 31.7982L47.7235 31.8118V31.9247V32.0375L47.2209 32.0511L46.7138 32.0646V32.7644V33.4642L46.9517 33.4507L47.185 33.4371V33.0308V32.6244L47.36 32.6109C47.4588 32.6019 47.5844 32.6064 47.6428 32.6199C47.7415 32.647 47.746 32.6651 47.746 33.0534V33.4597H48.0601H48.3742V33.0624C48.3742 32.7734 48.3518 32.629 48.2935 32.5116C48.2172 32.3581 48.2172 32.3445 48.298 32.1549C48.4012 31.9156 48.3742 31.7125 48.2082 31.5138C48.0197 31.2926 47.8627 31.2474 47.2523 31.2474H46.7138V31.5183Z" fill="black"/>
<path fill-rule="evenodd" clip-rule="evenodd" d="M48.5089 32.3536V33.4597H48.8006H49.0923V32.3536V31.2474H48.8006H48.5089V32.3536Z" fill="black"/>
<path fill-rule="evenodd" clip-rule="evenodd" d="M49.2271 31.5139C49.2271 31.7848 49.2271 31.7893 49.3527 31.7893C49.4201 31.7893 49.5233 31.8209 49.5771 31.8615C49.6714 31.9292 49.6758 31.9563 49.6758 32.6967V33.4597H49.9945H50.3131L50.2951 32.629L50.2817 31.7983L50.1426 31.6267C49.9227 31.3513 49.7925 31.2791 49.4963 31.2565L49.2271 31.2385V31.5139Z" fill="black"/>
<path fill-rule="evenodd" clip-rule="evenodd" d="M51.1792 31.7796C50.9099 31.888 50.6721 31.9918 50.6541 32.0099C50.6362 32.0234 50.7125 32.3711 50.8202 32.7819C50.9323 33.1882 51.0221 33.5494 51.0221 33.581C51.0221 33.6126 51.0356 33.6397 51.058 33.6397C51.0939 33.6397 51.7087 31.6713 51.6863 31.6171C51.6773 31.5945 51.4529 31.6668 51.1792 31.7796Z" fill="black"/>
<path fill-rule="evenodd" clip-rule="evenodd" d="M49.0115 34.0008C48.9621 34.1137 48.6435 34.7728 48.3069 35.4681C47.3331 37.4682 47.0235 38.1228 47.0504 38.1454C47.0639 38.1589 47.1087 38.1364 47.1491 38.1002C47.194 38.0641 47.7774 37.572 48.4416 37.0031C49.1102 36.4388 49.6712 35.9602 49.6891 35.9422C49.7161 35.9196 49.2718 34.2943 49.1192 33.8428C49.1102 33.8157 49.0609 33.8879 49.0115 34.0008Z" fill="black"/>
<path fill-rule="evenodd" clip-rule="evenodd" d="M42.4638 34.4482C41.665 34.6875 41.0187 34.8952 41.0277 34.9087C41.0636 34.9945 42.374 36.1277 42.4009 36.0961C42.5535 35.9245 43.9402 34.0419 43.9267 34.0283C43.9178 34.0193 43.2581 34.2089 42.4638 34.4482Z" fill="black"/>
<path fill-rule="evenodd" clip-rule="evenodd" d="M49.3706 34.2047C49.4783 34.6245 49.8329 35.7623 49.8598 35.7623C49.8777 35.7623 49.9854 35.6765 50.0976 35.5681L50.3041 35.3785L49.8822 34.8006C49.4155 34.1595 49.3347 34.0647 49.3706 34.2047Z" fill="black"/>
<path fill-rule="evenodd" clip-rule="evenodd" d="M43.617 35.0035C43.2849 35.4324 42.9259 35.9019 42.8182 36.0419C42.7105 36.1818 42.6297 36.3173 42.6342 36.3398C42.6432 36.3624 43.0695 36.7552 43.5766 37.2112C44.0882 37.6672 44.6671 38.1909 44.869 38.376C45.1607 38.6424 45.2325 38.6875 45.2146 38.6018C45.1966 38.5431 44.9723 37.5408 44.712 36.3714C44.4517 35.2066 44.2363 34.245 44.2273 34.2405C44.2228 34.2314 43.9446 34.5791 43.617 35.0035Z" fill="black"/>
<path fill-rule="evenodd" clip-rule="evenodd" d="M47.6066 34.8279C47.104 35.1575 46.5026 35.5458 46.2783 35.6903C46.0494 35.8347 45.8609 35.9702 45.8609 35.9882C45.8609 36.0063 45.9821 36.4081 46.1346 36.8731C46.2827 37.3427 46.4353 37.8258 46.4757 37.9431C46.5116 38.065 46.552 38.1508 46.5655 38.1418C46.6059 38.0966 48.5535 34.2591 48.54 34.2455C48.5311 34.2365 48.1137 34.4984 47.6066 34.8279Z" fill="black"/>
<path d="M43.6834 33.4321L42.8247 33.4322L43.6834 32.9817L43.6834 33.4321Z" fill="#FF9D00"/>
<path d="M33.7642 46.7735C29.9852 44.2285 27.1102 40.5542 25.5512 36.2774L32.6503 33.6975C33.6636 36.4774 35.5324 38.8657 37.9888 40.52L33.7642 46.7735Z" fill="#F5FFBA"/>
<path d="M57.9045 11.0388C61.6835 13.5839 64.5586 17.2581 66.1176 21.535L59.0185 24.1149C58.0051 21.335 56.1363 18.9467 53.68 17.2924L57.9045 11.0388Z" fill="#FBFF24"/>
<path d="M66.1133 21.5257C67.6748 25.8018 67.8405 30.4616 66.5866 34.8372C65.3328 39.2129 62.7237 43.0797 59.1333 45.8835C55.543 48.6873 51.1557 50.2841 46.6003 50.4451C42.0449 50.6061 37.5552 49.323 33.7747 46.7798L37.9956 40.5242C40.4529 42.1773 43.3712 43.0113 46.3323 42.9066C49.2933 42.802 52.145 41.764 54.4787 39.9416C56.8125 38.1191 58.5084 35.6057 59.3234 32.7615C60.1384 29.9174 60.0307 26.8885 59.0157 24.109L66.1133 21.5257Z" fill="#FFF9E3"/>
<path d="M25.5512 36.2774C23.9921 32.0005 23.8291 27.3407 25.0856 22.9657C26.342 18.5907 28.9534 14.7251 32.5453 11.923C36.1373 9.12095 40.5255 7.52621 45.0811 7.36737C49.6366 7.20853 54.1255 8.49374 57.9045 11.0388L53.68 17.2924C51.2236 15.6381 48.3058 14.8027 45.3447 14.906C42.3836 15.0092 39.5313 16.0458 37.1965 17.8671C34.8617 19.6885 33.1643 22.2011 32.3477 25.0448C31.531 27.8886 31.6369 30.9175 32.6503 33.6975L25.5512 36.2774Z" fill="#FF4C00"/>
<path d="M33.3282 13.156L30.7862 9.89276H20.2551" stroke="black" stroke-width="0.145684"/>
<path d="M33.6912 45.4262L31.1492 48.6895H20.6181" stroke="black" stroke-width="0.145684"/>
<path d="M9.42842 47.2507C9.40164 47.2507 9.38528 47.2373 9.37932 47.2106L9.23204 46.6527C9.22906 46.6437 9.22162 46.6393 9.20972 46.6393H8.143C8.1311 46.6393 8.12366 46.6437 8.12068 46.6527L7.9734 47.2106C7.96744 47.2373 7.95108 47.2507 7.9243 47.2507H7.69221C7.67733 47.2507 7.66543 47.2463 7.6565 47.2373C7.65055 47.2284 7.64906 47.2165 7.65204 47.2016L8.48667 44.1666C8.49262 44.1398 8.50899 44.1264 8.53577 44.1264H8.82142C8.8482 44.1264 8.86456 44.1398 8.87051 44.1666L9.70514 47.2016L9.70961 47.215C9.70961 47.2388 9.69473 47.2507 9.66497 47.2507H9.42842ZM8.19656 46.3625C8.19358 46.3655 8.19358 46.37 8.19656 46.3759C8.20251 46.3789 8.20846 46.3804 8.21441 46.3804H9.13831C9.14426 46.3804 9.14872 46.3789 9.1517 46.3759C9.15765 46.37 9.15914 46.3655 9.15616 46.3625L8.68305 44.5683C8.68008 44.5624 8.6771 44.5594 8.67413 44.5594C8.67115 44.5594 8.66818 44.5624 8.6652 44.5683L8.19656 46.3625ZM11.7351 44.1711C11.7351 44.1413 11.75 44.1264 11.7797 44.1264H12.0074C12.0371 44.1264 12.052 44.1413 12.052 44.1711V47.2061C12.052 47.2359 12.0371 47.2507 12.0074 47.2507H11.7663C11.7396 47.2507 11.7217 47.2403 11.7128 47.2195L10.5166 44.8316C10.5107 44.8257 10.5047 44.8227 10.4988 44.8227C10.4958 44.8227 10.4943 44.8272 10.4943 44.8361L10.4988 47.2061C10.4988 47.2359 10.4839 47.2507 10.4541 47.2507H10.2265C10.1968 47.2507 10.1819 47.2359 10.1819 47.2061V44.1711C10.1819 44.1413 10.1968 44.1264 10.2265 44.1264H10.4675C10.4943 44.1264 10.5122 44.1369 10.5211 44.1577L11.7172 46.5545C11.7232 46.5604 11.7277 46.5634 11.7306 46.5634C11.7366 46.5634 11.7396 46.5589 11.7396 46.55L11.7351 44.1711ZM14.3058 47.2507C14.279 47.2507 14.2626 47.2373 14.2567 47.2106L14.1094 46.6527C14.1064 46.6437 14.099 46.6393 14.0871 46.6393H13.0203C13.0084 46.6393 13.001 46.6437 12.998 46.6527L12.8507 47.2106C12.8448 47.2373 12.8284 47.2507 12.8016 47.2507H12.5695C12.5547 47.2507 12.5428 47.2463 12.5338 47.2373C12.5279 47.2284 12.5264 47.2165 12.5294 47.2016L13.364 44.1666C13.37 44.1398 13.3863 44.1264 13.4131 44.1264H13.6988C13.7255 44.1264 13.7419 44.1398 13.7479 44.1666L14.5825 47.2016L14.5869 47.215C14.5869 47.2388 14.5721 47.2507 14.5423 47.2507H14.3058ZM13.0739 46.3625C13.0709 46.3655 13.0709 46.37 13.0739 46.3759C13.0798 46.3789 13.0858 46.3804 13.0918 46.3804H14.0156C14.0216 46.3804 14.0261 46.3789 14.029 46.3759C14.035 46.37 14.0365 46.3655 14.0335 46.3625L13.5604 44.5683C13.5574 44.5624 13.5544 44.5594 13.5515 44.5594C13.5485 44.5594 13.5455 44.5624 13.5425 44.5683L13.0739 46.3625ZM16.6124 44.1711C16.6124 44.1413 16.6273 44.1264 16.6571 44.1264H16.8847C16.9144 44.1264 16.9293 44.1413 16.9293 44.1711V47.2061C16.9293 47.2359 16.9144 47.2507 16.8847 47.2507H16.6437C16.6169 47.2507 16.599 47.2403 16.5901 47.2195L15.394 44.8316C15.388 44.8257 15.3821 44.8227 15.3761 44.8227C15.3731 44.8227 15.3716 44.8272 15.3716 44.8361L15.3761 47.2061C15.3761 47.2359 15.3612 47.2507 15.3315 47.2507H15.1038C15.0741 47.2507 15.0592 47.2359 15.0592 47.2061V44.1711C15.0592 44.1413 15.0741 44.1264 15.1038 44.1264H15.3449C15.3716 44.1264 15.3895 44.1369 15.3984 44.1577L16.5946 46.5545C16.6005 46.5604 16.605 46.5634 16.608 46.5634C16.6139 46.5634 16.6169 46.5589 16.6169 46.55L16.6124 44.1711ZM19.1831 47.2507C19.1563 47.2507 19.14 47.2373 19.134 47.2106L18.9867 46.6527C18.9837 46.6437 18.9763 46.6393 18.9644 46.6393H17.8977C17.8858 46.6393 17.8783 46.6437 17.8754 46.6527L17.7281 47.2106C17.7221 47.2373 17.7058 47.2507 17.679 47.2507H17.4469C17.432 47.2507 17.4201 47.2463 17.4112 47.2373C17.4052 47.2284 17.4037 47.2165 17.4067 47.2016L18.2413 44.1666C18.2473 44.1398 18.2637 44.1264 18.2904 44.1264H18.5761C18.6029 44.1264 18.6192 44.1398 18.6252 44.1666L19.4598 47.2016L19.4643 47.215C19.4643 47.2388 19.4494 47.2507 19.4197 47.2507H19.1831ZM17.9512 46.3625C17.9483 46.3655 17.9483 46.37 17.9512 46.3759C17.9572 46.3789 17.9631 46.3804 17.9691 46.3804H18.893C18.8989 46.3804 18.9034 46.3789 18.9064 46.3759C18.9123 46.37 18.9138 46.3655 18.9108 46.3625L18.4377 44.5683C18.4348 44.5624 18.4318 44.5594 18.4288 44.5594C18.4258 44.5594 18.4229 44.5624 18.4199 44.5683L17.9512 46.3625ZM20.5644 47.2864C20.2847 47.2864 20.0616 47.2135 19.895 47.0677C19.7313 46.919 19.6495 46.7211 19.6495 46.4741V46.3536C19.6495 46.3239 19.6644 46.309 19.6941 46.309H19.9128C19.9426 46.309 19.9574 46.3239 19.9574 46.3536V46.4563C19.9574 46.6229 20.014 46.7568 20.127 46.858C20.2401 46.9591 20.3904 47.0097 20.5778 47.0097C20.7534 47.0097 20.8918 46.9621 20.9929 46.8669C21.0941 46.7717 21.1447 46.6467 21.1447 46.492C21.1447 46.3908 21.1209 46.303 21.0733 46.2286C21.0256 46.1543 20.9557 46.0858 20.8635 46.0233C20.7712 45.9608 20.6388 45.882 20.4663 45.7868C20.2818 45.6886 20.136 45.6023 20.0289 45.5279C19.9247 45.4535 19.8399 45.3628 19.7744 45.2557C19.709 45.1485 19.6763 45.0176 19.6763 44.8629C19.6763 44.6219 19.7536 44.4329 19.9083 44.296C20.0631 44.1592 20.2699 44.0907 20.5287 44.0907C20.8055 44.0907 21.0256 44.1666 21.1893 44.3184C21.353 44.4701 21.4348 44.671 21.4348 44.9209V45.0236C21.4348 45.0533 21.4199 45.0682 21.3901 45.0682H21.167C21.1372 45.0682 21.1224 45.0533 21.1224 45.0236V44.9254C21.1224 44.7587 21.0688 44.6248 20.9617 44.5237C20.8546 44.4195 20.7073 44.3675 20.5198 44.3675C20.3532 44.3675 20.2223 44.4106 20.127 44.4969C20.0348 44.5832 19.9887 44.7052 19.9887 44.8629C19.9887 44.9641 20.011 45.0489 20.0556 45.1173C20.1003 45.1857 20.1642 45.2482 20.2476 45.3047C20.3338 45.3613 20.4648 45.4372 20.6403 45.5324C20.8427 45.6454 20.9974 45.7421 21.1045 45.8225C21.2146 45.8999 21.3009 45.9906 21.3634 46.0947C21.4288 46.1959 21.4616 46.3209 21.4616 46.4697C21.4616 46.7196 21.3812 46.919 21.2205 47.0677C21.0599 47.2135 20.8412 47.2864 20.5644 47.2864ZM8.66967 52.2864C8.38997 52.2864 8.1668 52.2135 8.00018 52.0677C7.83652 51.919 7.7547 51.7211 7.7547 51.4741V51.3536C7.7547 51.3239 7.76957 51.309 7.79933 51.309H8.01803C8.04778 51.309 8.06266 51.3239 8.06266 51.3536V51.4563C8.06266 51.6229 8.1192 51.7568 8.23226 51.858C8.34533 51.9591 8.4956 52.0097 8.68305 52.0097C8.85861 52.0097 8.99697 51.9621 9.09814 51.8669C9.19931 51.7717 9.24989 51.6467 9.24989 51.492C9.24989 51.3908 9.22609 51.303 9.17848 51.2286C9.13087 51.1543 9.06094 51.0858 8.9687 51.0233C8.87646 50.9608 8.74405 50.882 8.57147 50.7868C8.38699 50.6886 8.24119 50.6023 8.13407 50.5279C8.02993 50.4535 7.94513 50.3628 7.87967 50.2557C7.81421 50.1485 7.78148 50.0176 7.78148 49.8629C7.78148 49.6219 7.85884 49.4329 8.01356 49.296C8.16829 49.1592 8.37509 49.0907 8.63396 49.0907C8.91068 49.0907 9.13087 49.1666 9.29452 49.3184C9.45818 49.4701 9.54 49.671 9.54 49.9209V50.0236C9.54 50.0533 9.52512 50.0682 9.49537 50.0682H9.27221C9.24245 50.0682 9.22757 50.0533 9.22757 50.0236V49.9254C9.22757 49.7587 9.17401 49.6248 9.0669 49.5237C8.95978 49.4195 8.81249 49.3675 8.62503 49.3675C8.4584 49.3675 8.32748 49.4106 8.23226 49.4969C8.14002 49.5832 8.0939 49.7052 8.0939 49.8629C8.0939 49.9641 8.11622 50.0489 8.16085 50.1173C8.20549 50.1857 8.26946 50.2482 8.35277 50.3047C8.43906 50.3613 8.56999 50.4372 8.74554 50.5324C8.94788 50.6454 9.1026 50.7421 9.20972 50.8225C9.31981 50.8999 9.4061 50.9906 9.46859 51.0947C9.53405 51.1959 9.56678 51.3209 9.56678 51.4697C9.56678 51.7196 9.48644 51.919 9.32577 52.0677C9.16509 52.2135 8.94639 52.2864 8.66967 52.2864ZM11.6065 49.1711C11.6065 49.1413 11.6214 49.1264 11.6511 49.1264H11.8788C11.9085 49.1264 11.9234 49.1413 11.9234 49.1711V52.2061C11.9234 52.2359 11.9085 52.2507 11.8788 52.2507H11.6511C11.6214 52.2507 11.6065 52.2359 11.6065 52.2061V50.8403C11.6065 50.8284 11.6005 50.8225 11.5886 50.8225H10.4818C10.4698 50.8225 10.4639 50.8284 10.4639 50.8403V52.2061C10.4639 52.2359 10.449 52.2507 10.4193 52.2507H10.1916C10.1619 52.2507 10.147 52.2359 10.147 52.2061V49.1711C10.147 49.1413 10.1619 49.1264 10.1916 49.1264H10.4193C10.449 49.1264 10.4639 49.1413 10.4639 49.1711V50.5279C10.4639 50.5398 10.4698 50.5458 10.4818 50.5458H11.5886C11.6005 50.5458 11.6065 50.5398 11.6065 50.5279V49.1711ZM13.4921 52.2864C13.3106 52.2864 13.1499 52.2492 13.0101 52.1749C12.8732 52.0975 12.7661 51.9904 12.6887 51.8535C12.6143 51.7166 12.5772 51.5589 12.5772 51.3804V50.0012C12.5772 49.8227 12.6143 49.665 12.6887 49.5281C12.7661 49.3883 12.8732 49.2812 13.0101 49.2068C13.1499 49.1294 13.3106 49.0907 13.4921 49.0907C13.6736 49.0907 13.8328 49.1294 13.9697 49.2068C14.1095 49.2812 14.2181 49.3883 14.2955 49.5281C14.3729 49.665 14.4116 49.8227 14.4116 50.0012V51.3804C14.4116 51.5589 14.3729 51.7166 14.2955 51.8535C14.2181 51.9904 14.1095 52.0975 13.9697 52.1749C13.8328 52.2492 13.6736 52.2864 13.4921 52.2864ZM13.4921 52.0097C13.6736 52.0097 13.8194 51.9532 13.9295 51.8401C14.0396 51.727 14.0947 51.5783 14.0947 51.3938V49.9923C14.0947 49.8049 14.0396 49.6546 13.9295 49.5415C13.8194 49.4255 13.6736 49.3675 13.4921 49.3675C13.3136 49.3675 13.1693 49.4255 13.0592 49.5415C12.9491 49.6546 12.894 49.8049 12.894 49.9923V51.3938C12.894 51.5783 12.9491 51.727 13.0592 51.8401C13.1693 51.9532 13.3136 52.0097 13.4921 52.0097ZM15.8847 52.2864C15.6139 52.2864 15.3952 52.2061 15.2286 52.0454C15.065 51.8847 14.9831 51.672 14.9831 51.4072V49.9655C14.9831 49.7007 15.065 49.4895 15.2286 49.3318C15.3952 49.1711 15.6139 49.0907 15.8847 49.0907C16.1585 49.0907 16.3772 49.1696 16.5408 49.3273C16.7074 49.485 16.7908 49.6948 16.7908 49.9566V49.9968C16.7908 50.0265 16.7759 50.0414 16.7461 50.0414L16.5185 50.0503C16.4887 50.0503 16.4739 50.037 16.4739 50.0102V49.9477C16.4739 49.7751 16.4188 49.6353 16.3087 49.5281C16.2016 49.421 16.0603 49.3675 15.8847 49.3675C15.7092 49.3675 15.5678 49.421 15.4607 49.5281C15.3536 49.6323 15.3 49.7721 15.3 49.9477V51.4295C15.3 51.605 15.3536 51.7464 15.4607 51.8535C15.5678 51.9576 15.7092 52.0097 15.8847 52.0097C16.0603 52.0097 16.2016 51.9562 16.3087 51.849C16.4188 51.7419 16.4739 51.6021 16.4739 51.4295V51.367C16.4739 51.3402 16.4887 51.3268 16.5185 51.3268L16.7461 51.3402C16.7759 51.3402 16.7908 51.3551 16.7908 51.3849V51.4161C16.7908 51.6779 16.7074 51.8892 16.5408 52.0499C16.3772 52.2076 16.1585 52.2864 15.8847 52.2864ZM17.4619 52.2507C17.4321 52.2507 17.4172 52.2359 17.4172 52.2061V49.1711C17.4172 49.1413 17.4321 49.1264 17.4619 49.1264H17.6895C17.7193 49.1264 17.7341 49.1413 17.7341 49.1711V50.6529C17.7341 50.6588 17.7371 50.6633 17.7431 50.6663C17.749 50.6663 17.7535 50.6633 17.7565 50.6573L18.8901 49.1532C18.902 49.1354 18.9214 49.1264 18.9481 49.1264H19.1981C19.2159 49.1264 19.2278 49.1324 19.2338 49.1443C19.2397 49.1532 19.2368 49.1651 19.2249 49.18L18.3322 50.4029C18.3292 50.4119 18.3292 50.4208 18.3322 50.4297L19.3052 52.1972C19.3112 52.2091 19.3141 52.218 19.3141 52.224C19.3141 52.2418 19.3007 52.2507 19.274 52.2507H19.0151C18.9883 52.2507 18.9705 52.2403 18.9615 52.2195L18.1135 50.6797C18.1076 50.6648 18.1001 50.6648 18.0912 50.6797L17.7431 51.1215C17.7371 51.1275 17.7341 51.1349 17.7341 51.1438V52.2061C17.7341 52.2359 17.7193 52.2507 17.6895 52.2507H17.4619ZM20.9809 49.1398C20.9988 49.1309 21.0181 49.1264 21.0389 49.1264H21.28C21.3097 49.1264 21.3246 49.1413 21.3246 49.1711V52.2061C21.3246 52.2359 21.3097 52.2507 21.28 52.2507H21.0523C21.0226 52.2507 21.0077 52.2359 21.0077 52.2061V49.4924C21.0077 49.4865 21.0047 49.482 20.9988 49.479C20.9958 49.4761 20.9913 49.4761 20.9854 49.479L20.5391 49.6442C20.5331 49.6472 20.5257 49.6486 20.5167 49.6486C20.5019 49.6486 20.4915 49.6367 20.4855 49.6129L20.4632 49.4478V49.4389C20.4632 49.424 20.4736 49.4091 20.4944 49.3942L20.9809 49.1398ZM22.7829 52.2954C22.527 52.2954 22.3217 52.218 22.167 52.0633C22.0122 51.9085 21.9349 51.7018 21.9349 51.4429V49.9343C21.9349 49.6784 22.0122 49.4731 22.167 49.3184C22.3217 49.1636 22.527 49.0863 22.7829 49.0863C23.0418 49.0863 23.2486 49.1636 23.4033 49.3184C23.561 49.4731 23.6398 49.6784 23.6398 49.9343V51.4429C23.6398 51.7018 23.561 51.9085 23.4033 52.0633C23.2486 52.218 23.0418 52.2954 22.7829 52.2954ZM22.7829 52.0186C22.9465 52.0186 23.0775 51.9681 23.1757 51.8669C23.2739 51.7657 23.323 51.6318 23.323 51.4652V49.9164C23.323 49.7498 23.2739 49.6159 23.1757 49.5147C23.0775 49.4136 22.9465 49.363 22.7829 49.363C22.6252 49.363 22.4972 49.4136 22.3991 49.5147C22.3009 49.6159 22.2518 49.7498 22.2518 49.9164V51.4652C22.2518 51.6289 22.3009 51.7627 22.3991 51.8669C22.4972 51.9681 22.6252 52.0186 22.7829 52.0186ZM24.9159 50.3538C24.7999 50.3538 24.6928 50.3256 24.5946 50.269C24.4993 50.2125 24.4235 50.1366 24.3669 50.0414C24.3104 49.9432 24.2821 49.8361 24.2821 49.7201C24.2821 49.604 24.3104 49.4984 24.3669 49.4032C24.4235 49.305 24.4993 49.2276 24.5946 49.1711C24.6928 49.1145 24.7999 49.0863 24.9159 49.0863C25.029 49.0863 25.1331 49.1145 25.2283 49.1711C25.3265 49.2276 25.4039 49.305 25.4604 49.4032C25.517 49.4984 25.5452 49.604 25.5452 49.7201C25.5452 49.8361 25.517 49.9432 25.4604 50.0414C25.4039 50.1366 25.3265 50.2125 25.2283 50.269C25.1331 50.3256 25.029 50.3538 24.9159 50.3538ZM24.8133 52.2507C24.7984 52.2507 24.7865 52.2463 24.7776 52.2373C24.7716 52.2254 24.7731 52.2121 24.782 52.1972L26.4424 49.1577C26.4513 49.1369 26.4691 49.1264 26.4959 49.1264H26.6387C26.6536 49.1264 26.664 49.1324 26.67 49.1443C26.6789 49.1532 26.6789 49.1651 26.67 49.18L25.0096 52.2195C25.0007 52.2403 24.9829 52.2507 24.9561 52.2507H24.8133ZM24.9159 50.1575C25.0349 50.1575 25.1346 50.1158 25.215 50.0325C25.2983 49.9462 25.3399 49.8421 25.3399 49.7201C25.3399 49.5981 25.2983 49.4954 25.215 49.4121C25.1346 49.3258 25.0349 49.2827 24.9159 49.2827C24.7969 49.2827 24.6957 49.3258 24.6124 49.4121C24.5291 49.4954 24.4874 49.5981 24.4874 49.7201C24.4874 49.8421 24.5291 49.9462 24.6124 50.0325C24.6957 50.1158 24.7969 50.1575 24.9159 50.1575ZM26.5539 52.2909C26.4379 52.2909 26.3308 52.2626 26.2326 52.2061C26.1374 52.1496 26.0615 52.0722 26.005 51.974C25.9484 51.8758 25.9202 51.7687 25.9202 51.6527C25.9202 51.5396 25.9484 51.4354 26.005 51.3402C26.0615 51.242 26.1374 51.1647 26.2326 51.1081C26.3308 51.0516 26.4379 51.0233 26.5539 51.0233C26.667 51.0233 26.7712 51.0516 26.8664 51.1081C26.9646 51.1647 27.0419 51.242 27.0985 51.3402C27.155 51.4354 27.1833 51.5396 27.1833 51.6527C27.1833 51.7687 27.155 51.8758 27.0985 51.974C27.0419 52.0722 26.9646 52.1496 26.8664 52.2061C26.7712 52.2626 26.667 52.2909 26.5539 52.2909ZM26.5539 52.0945C26.673 52.0945 26.7726 52.0514 26.853 51.9651C26.9363 51.8788 26.9779 51.7747 26.9779 51.6527C26.9779 51.5307 26.9363 51.428 26.853 51.3447C26.7726 51.2614 26.673 51.2197 26.5539 51.2197C26.4349 51.2197 26.3338 51.2614 26.2504 51.3447C26.1671 51.428 26.1255 51.5307 26.1255 51.6527C26.1255 51.7776 26.1656 51.8833 26.246 51.9695C26.3293 52.0529 26.4319 52.0945 26.5539 52.0945Z" fill="#404040"/>
<path d="M2.73927 8.45404C2.71547 8.45404 2.6991 8.44214 2.69018 8.41833L2.13673 7.03919C2.13376 7.03026 2.12781 7.0258 2.11888 7.0258H1.54312C1.53122 7.0258 1.52526 7.03175 1.52526 7.04365V8.40941C1.52526 8.43916 1.51039 8.45404 1.48063 8.45404H1.253C1.22325 8.45404 1.20837 8.43916 1.20837 8.40941V5.37439C1.20837 5.34463 1.22325 5.32975 1.253 5.32975H2.19922C2.35394 5.32975 2.49082 5.36546 2.60984 5.43687C2.73183 5.50828 2.82556 5.60945 2.89102 5.74037C2.95946 5.8713 2.99368 6.02156 2.99368 6.19116C2.99368 6.3935 2.94458 6.56608 2.84639 6.7089C2.7482 6.85173 2.6143 6.94694 2.4447 6.99455C2.4328 7.0005 2.42982 7.00794 2.43577 7.01687L3.01153 8.40048L3.016 8.41833C3.016 8.44214 3.00261 8.45404 2.97583 8.45404H2.73927ZM1.54312 5.60648C1.53122 5.60648 1.52526 5.61243 1.52526 5.62433V6.75354C1.52526 6.76544 1.53122 6.77139 1.54312 6.77139H2.15905C2.31377 6.77139 2.43875 6.71783 2.53396 6.61071C2.62918 6.50359 2.67679 6.36374 2.67679 6.19116C2.67679 6.01561 2.62918 5.87427 2.53396 5.76715C2.43875 5.66004 2.31377 5.60648 2.15905 5.60648H1.54312ZM3.61104 8.45404C3.58128 8.45404 3.56641 8.43916 3.56641 8.40941V5.37439C3.56641 5.34463 3.58128 5.32975 3.61104 5.32975H3.83867C3.86842 5.32975 3.8833 5.34463 3.8833 5.37439V8.40941C3.8833 8.43916 3.86842 8.45404 3.83867 8.45404H3.61104ZM5.37985 8.48975C5.10015 8.48975 4.87699 8.41685 4.71036 8.27105C4.54671 8.12227 4.46488 7.9244 4.46488 7.67743V7.55692C4.46488 7.52717 4.47976 7.51229 4.50952 7.51229H4.72822C4.75797 7.51229 4.77285 7.52717 4.77285 7.55692V7.65958C4.77285 7.82621 4.82938 7.96011 4.94245 8.06127C5.05552 8.16244 5.20579 8.21302 5.39324 8.21302C5.5688 8.21302 5.70716 8.16542 5.80833 8.0702C5.90949 7.97498 5.96008 7.85001 5.96008 7.69529C5.96008 7.59412 5.93627 7.50634 5.88867 7.43195C5.84106 7.35756 5.77113 7.28913 5.67889 7.22664C5.58665 7.16416 5.45424 7.08531 5.28166 6.99009C5.09718 6.8919 4.95138 6.80561 4.84426 6.73122C4.74012 6.65683 4.65532 6.56608 4.58985 6.45896C4.52439 6.35184 4.49166 6.22092 4.49166 6.06619C4.49166 5.82518 4.56903 5.63623 4.72375 5.49936C4.87848 5.36248 5.08528 5.29405 5.34415 5.29405C5.62087 5.29405 5.84106 5.36992 6.00471 5.52167C6.16836 5.67343 6.25019 5.87427 6.25019 6.12422V6.22687C6.25019 6.25663 6.23531 6.2715 6.20556 6.2715H5.98239C5.95264 6.2715 5.93776 6.25663 5.93776 6.22687V6.12868C5.93776 5.96205 5.8842 5.82815 5.77708 5.72698C5.66997 5.62284 5.52268 5.57077 5.33522 5.57077C5.16859 5.57077 5.03767 5.61392 4.94245 5.7002C4.85021 5.78649 4.80409 5.90849 4.80409 6.06619C4.80409 6.16736 4.82641 6.25216 4.87104 6.3206C4.91567 6.38904 4.97965 6.45152 5.06296 6.50806C5.14925 6.56459 5.28017 6.64047 5.45573 6.73568C5.65806 6.84875 5.81279 6.94546 5.91991 7.0258C6.03 7.10316 6.11629 7.19391 6.17878 7.29805C6.24424 7.39922 6.27697 7.52419 6.27697 7.67297C6.27697 7.92291 6.19663 8.12227 6.03595 8.27105C5.87528 8.41685 5.65658 8.48975 5.37985 8.48975ZM6.90183 8.45404C6.87207 8.45404 6.85719 8.43916 6.85719 8.40941V5.37439C6.85719 5.34463 6.87207 5.32975 6.90183 5.32975H7.12945C7.15921 5.32975 7.17409 5.34463 7.17409 5.37439V8.40941C7.17409 8.43916 7.15921 8.45404 7.12945 8.45404H6.90183ZM9.46956 5.37439C9.46956 5.34463 9.48444 5.32975 9.5142 5.32975H9.74182C9.77158 5.32975 9.78646 5.34463 9.78646 5.37439V8.40941C9.78646 8.43916 9.77158 8.45404 9.74182 8.45404H9.50081C9.47403 8.45404 9.45617 8.44363 9.44725 8.4228L8.25109 6.03495C8.24514 6.029 8.23919 6.02602 8.23324 6.02602C8.23026 6.02602 8.22878 6.03049 8.22878 6.03941L8.23324 8.40941C8.23324 8.43916 8.21836 8.45404 8.18861 8.45404H7.96098C7.93123 8.45404 7.91635 8.43916 7.91635 8.40941V5.37439C7.91635 5.34463 7.93123 5.32975 7.96098 5.32975H8.202C8.22878 5.32975 8.24663 5.34017 8.25556 5.361L9.45171 7.75777C9.45766 7.76372 9.46213 7.7667 9.4651 7.7667C9.47105 7.7667 9.47403 7.76223 9.47403 7.75331L9.46956 5.37439ZM11.344 8.48975C11.0732 8.48975 10.8545 8.4109 10.6879 8.25319C10.5242 8.09549 10.4424 7.88572 10.4424 7.62387V6.15992C10.4424 5.89808 10.5242 5.6883 10.6879 5.5306C10.8545 5.3729 11.0732 5.29405 11.344 5.29405C11.5225 5.29405 11.6787 5.32975 11.8126 5.40117C11.9495 5.47258 12.0551 5.57226 12.1295 5.7002C12.2069 5.82815 12.2455 5.97544 12.2455 6.14207V6.26704C12.2455 6.2968 12.2307 6.31167 12.2009 6.31167H11.9733C11.9435 6.31167 11.9287 6.2968 11.9287 6.26704V6.14207C11.9287 5.97246 11.8751 5.83559 11.768 5.73145C11.6609 5.62433 11.5195 5.57077 11.344 5.57077C11.1684 5.57077 11.0271 5.62433 10.92 5.73145C10.8128 5.83559 10.7593 5.97544 10.7593 6.15099V7.6328C10.7593 7.80538 10.8128 7.94523 10.92 8.05235C11.03 8.15946 11.1729 8.21302 11.3484 8.21302C11.524 8.21302 11.6638 8.16244 11.768 8.06127C11.8751 7.96011 11.9287 7.82323 11.9287 7.65065V7.16416C11.9287 7.15225 11.9227 7.1463 11.9108 7.1463H11.3886C11.3588 7.1463 11.344 7.13143 11.344 7.10167V6.91421C11.344 6.88446 11.3588 6.86958 11.3886 6.86958H12.2009C12.2307 6.86958 12.2455 6.88446 12.2455 6.91421V7.61048C12.2455 7.88125 12.1637 8.09549 12.0001 8.25319C11.8364 8.4109 11.6177 8.48975 11.344 8.48975ZM14.5505 8.48975C14.2708 8.48975 14.0476 8.41685 13.881 8.27105C13.7173 8.12227 13.6355 7.9244 13.6355 7.67743V7.55692C13.6355 7.52717 13.6504 7.51229 13.6801 7.51229H13.8988C13.9286 7.51229 13.9435 7.52717 13.9435 7.55692V7.65958C13.9435 7.82621 14 7.96011 14.1131 8.06127C14.2261 8.16244 14.3764 8.21302 14.5639 8.21302C14.7394 8.21302 14.8778 8.16542 14.9789 8.0702C15.0801 7.97498 15.1307 7.85001 15.1307 7.69529C15.1307 7.59412 15.1069 7.50634 15.0593 7.43195C15.0117 7.35756 14.9417 7.28913 14.8495 7.22664C14.7573 7.16416 14.6249 7.08531 14.4523 6.99009C14.2678 6.8919 14.122 6.80561 14.0149 6.73122C13.9107 6.65683 13.8259 6.56608 13.7605 6.45896C13.695 6.35184 13.6623 6.22092 13.6623 6.06619C13.6623 5.82518 13.7396 5.63623 13.8944 5.49936C14.0491 5.36248 14.2559 5.29405 14.5148 5.29405C14.7915 5.29405 15.0117 5.36992 15.1753 5.52167C15.339 5.67343 15.4208 5.87427 15.4208 6.12422V6.22687C15.4208 6.25663 15.4059 6.2715 15.3762 6.2715H15.153C15.1233 6.2715 15.1084 6.25663 15.1084 6.22687V6.12868C15.1084 5.96205 15.0548 5.82815 14.9477 5.72698C14.8406 5.62284 14.6933 5.57077 14.5058 5.57077C14.3392 5.57077 14.2083 5.61392 14.1131 5.7002C14.0208 5.78649 13.9747 5.90849 13.9747 6.06619C13.9747 6.16736 13.997 6.25216 14.0417 6.3206C14.0863 6.38904 14.1503 6.45152 14.2336 6.50806C14.3199 6.56459 14.4508 6.64047 14.6263 6.73568C14.8287 6.84875 14.9834 6.94546 15.0905 7.0258C15.2006 7.10316 15.2869 7.19391 15.3494 7.29805C15.4149 7.39922 15.4476 7.52419 15.4476 7.67297C15.4476 7.92291 15.3672 8.12227 15.2066 8.27105C15.0459 8.41685 14.8272 8.48975 14.5505 8.48975ZM17.574 5.32975C17.6037 5.32975 17.6186 5.34463 17.6186 5.37439V5.56184C17.6186 5.5916 17.6037 5.60648 17.574 5.60648H16.8465C16.8346 5.60648 16.8286 5.61243 16.8286 5.62433V8.40941C16.8286 8.43916 16.8137 8.45404 16.784 8.45404H16.5564C16.5266 8.45404 16.5117 8.43916 16.5117 8.40941V5.62433C16.5117 5.61243 16.5058 5.60648 16.4939 5.60648H15.7931C15.7634 5.60648 15.7485 5.5916 15.7485 5.56184V5.37439C15.7485 5.34463 15.7634 5.32975 15.7931 5.32975H17.574ZM19.4761 8.45404C19.4493 8.45404 19.433 8.44065 19.427 8.41387L19.2797 7.85596C19.2767 7.84704 19.2693 7.84257 19.2574 7.84257H18.1907C18.1788 7.84257 18.1713 7.84704 18.1684 7.85596L18.0211 8.41387C18.0151 8.44065 17.9988 8.45404 17.972 8.45404H17.7399C17.725 8.45404 17.7131 8.44958 17.7042 8.44065C17.6982 8.43172 17.6967 8.41982 17.6997 8.40494L18.5344 5.36992C18.5403 5.34314 18.5567 5.32975 18.5835 5.32975H18.8691C18.8959 5.32975 18.9122 5.34314 18.9182 5.36992L19.7528 8.40494L19.7573 8.41833C19.7573 8.44214 19.7424 8.45404 19.7127 8.45404H19.4761ZM18.2442 7.56585C18.2413 7.56883 18.2413 7.57329 18.2442 7.57924C18.2502 7.58222 18.2561 7.5837 18.2621 7.5837H19.186C19.1919 7.5837 19.1964 7.58222 19.1994 7.57924C19.2053 7.57329 19.2068 7.56883 19.2038 7.56585L18.7307 5.77162C18.7278 5.76567 18.7248 5.76269 18.7218 5.76269C18.7188 5.76269 18.7159 5.76567 18.7129 5.77162L18.2442 7.56585ZM21.7605 8.45404C21.7367 8.45404 21.7203 8.44214 21.7114 8.41833L21.1579 7.03919C21.1549 7.03026 21.149 7.0258 21.1401 7.0258H20.5643C20.5524 7.0258 20.5465 7.03175 20.5465 7.04365V8.40941C20.5465 8.43916 20.5316 8.45404 20.5018 8.45404H20.2742C20.2444 8.45404 20.2296 8.43916 20.2296 8.40941V5.37439C20.2296 5.34463 20.2444 5.32975 20.2742 5.32975H21.2204C21.3751 5.32975 21.512 5.36546 21.631 5.43687C21.753 5.50828 21.8467 5.60945 21.9122 5.74037C21.9806 5.8713 22.0149 6.02156 22.0149 6.19116C22.0149 6.3935 21.9658 6.56608 21.8676 6.7089C21.7694 6.85173 21.6355 6.94694 21.4659 6.99455C21.454 7.0005 21.451 7.00794 21.457 7.01687L22.0327 8.40048L22.0372 8.41833C22.0372 8.44214 22.0238 8.45404 21.997 8.45404H21.7605ZM20.5643 5.60648C20.5524 5.60648 20.5465 5.61243 20.5465 5.62433V6.75354C20.5465 6.76544 20.5524 6.77139 20.5643 6.77139H21.1802C21.335 6.77139 21.4599 6.71783 21.5551 6.61071C21.6504 6.50359 21.698 6.36374 21.698 6.19116C21.698 6.01561 21.6504 5.87427 21.5551 5.76715C21.4599 5.66004 21.335 5.60648 21.1802 5.60648H20.5643ZM25.0388 7.31144C25.0686 7.31144 25.0834 7.32632 25.0834 7.35608V7.55246C25.0834 7.58222 25.0686 7.59709 25.0388 7.59709H24.8737C24.8618 7.59709 24.8558 7.60304 24.8558 7.61495V8.40941C24.8558 8.43916 24.8409 8.45404 24.8112 8.45404H24.5835C24.5538 8.45404 24.5389 8.43916 24.5389 8.40941V7.61495C24.5389 7.60304 24.533 7.59709 24.5211 7.59709H23.3115C23.2818 7.59709 23.2669 7.58222 23.2669 7.55246V7.38286C23.2669 7.36203 23.2699 7.34417 23.2758 7.3293L24.0703 5.36546C24.0792 5.34166 24.0956 5.32975 24.1194 5.32975H24.3648C24.3797 5.32975 24.3901 5.3357 24.3961 5.34761C24.402 5.35653 24.402 5.36844 24.3961 5.38331L23.6373 7.28913C23.6344 7.29508 23.6344 7.30103 23.6373 7.30698C23.6403 7.30996 23.6448 7.31144 23.6507 7.31144H24.5211C24.533 7.31144 24.5389 7.30549 24.5389 7.29359V6.5884C24.5389 6.55864 24.5538 6.54376 24.5835 6.54376H24.8112C24.8409 6.54376 24.8558 6.55864 24.8558 6.5884V7.29359C24.8558 7.30549 24.8618 7.31144 24.8737 7.31144H25.0388ZM26.3885 8.49867C26.1326 8.49867 25.9273 8.42131 25.7726 8.26658C25.6178 8.11186 25.5405 7.90506 25.5405 7.64619V6.13761C25.5405 5.88171 25.6178 5.6764 25.7726 5.52167C25.9273 5.36695 26.1326 5.28958 26.3885 5.28958C26.6474 5.28958 26.8541 5.36695 27.0089 5.52167C27.1666 5.6764 27.2454 5.88171 27.2454 6.13761V7.64619C27.2454 7.90506 27.1666 8.11186 27.0089 8.26658C26.8541 8.42131 26.6474 8.49867 26.3885 8.49867ZM26.3885 8.22195C26.5521 8.22195 26.6831 8.17137 26.7812 8.0702C26.8794 7.96903 26.9285 7.83513 26.9285 7.66851V6.11975C26.9285 5.95312 26.8794 5.81923 26.7812 5.71806C26.6831 5.61689 26.5521 5.56631 26.3885 5.56631C26.2308 5.56631 26.1028 5.61689 26.0046 5.71806C25.9064 5.81923 25.8574 5.95312 25.8574 6.11975V7.66851C25.8574 7.83216 25.9064 7.96606 26.0046 8.0702C26.1028 8.17137 26.2308 8.22195 26.3885 8.22195ZM28.5215 6.55715C28.4055 6.55715 28.2983 6.52888 28.2002 6.47235C28.1049 6.41582 28.0291 6.33994 27.9725 6.24472C27.916 6.14653 27.8877 6.03941 27.8877 5.92337C27.8877 5.80732 27.916 5.70169 27.9725 5.60648C28.0291 5.50828 28.1049 5.43092 28.2002 5.37439C28.2983 5.31785 28.4055 5.28958 28.5215 5.28958C28.6346 5.28958 28.7387 5.31785 28.8339 5.37439C28.9321 5.43092 29.0095 5.50828 29.066 5.60648C29.1226 5.70169 29.1508 5.80732 29.1508 5.92337C29.1508 6.03941 29.1226 6.14653 29.066 6.24472C29.0095 6.33994 28.9321 6.41582 28.8339 6.47235C28.7387 6.52888 28.6346 6.55715 28.5215 6.55715ZM28.4189 8.45404C28.404 8.45404 28.3921 8.44958 28.3831 8.44065C28.3772 8.42875 28.3787 8.41536 28.3876 8.40048L30.0479 5.361C30.0569 5.34017 30.0747 5.32975 30.1015 5.32975H30.2443C30.2592 5.32975 30.2696 5.3357 30.2756 5.34761C30.2845 5.35653 30.2845 5.36844 30.2756 5.38331L28.6152 8.4228C28.6063 8.44363 28.5885 8.45404 28.5617 8.45404H28.4189ZM28.5215 6.36077C28.6405 6.36077 28.7402 6.31911 28.8205 6.2358C28.9039 6.14951 28.9455 6.04536 28.9455 5.92337C28.9455 5.80137 28.9039 5.69872 28.8205 5.6154C28.7402 5.52911 28.6405 5.48597 28.5215 5.48597C28.4025 5.48597 28.3013 5.52911 28.218 5.6154C28.1347 5.69872 28.093 5.80137 28.093 5.92337C28.093 6.04536 28.1347 6.14951 28.218 6.2358C28.3013 6.31911 28.4025 6.36077 28.5215 6.36077ZM30.1595 8.49421C30.0435 8.49421 29.9364 8.46594 29.8382 8.40941C29.743 8.35287 29.6671 8.27551 29.6105 8.17732C29.554 8.07913 29.5257 7.97201 29.5257 7.85596C29.5257 7.74289 29.554 7.63875 29.6105 7.54353C29.6671 7.44534 29.743 7.36798 29.8382 7.31144C29.9364 7.25491 30.0435 7.22664 30.1595 7.22664C30.2726 7.22664 30.3767 7.25491 30.472 7.31144C30.5701 7.36798 30.6475 7.44534 30.704 7.54353C30.7606 7.63875 30.7888 7.74289 30.7888 7.85596C30.7888 7.97201 30.7606 8.07913 30.704 8.17732C30.6475 8.27551 30.5701 8.35287 30.472 8.40941C30.3767 8.46594 30.2726 8.49421 30.1595 8.49421ZM30.1595 8.29783C30.2785 8.29783 30.3782 8.25468 30.4586 8.16839C30.5419 8.0821 30.5835 7.97796 30.5835 7.85596C30.5835 7.73397 30.5419 7.63131 30.4586 7.548C30.3782 7.46468 30.2785 7.42303 30.1595 7.42303C30.0405 7.42303 29.9393 7.46468 29.856 7.548C29.7727 7.63131 29.7311 7.73397 29.7311 7.85596C29.7311 7.98093 29.7712 8.08656 29.8516 8.17285C29.9349 8.25617 30.0375 8.29783 30.1595 8.29783Z" fill="#404040"/>
<path d="M61.447 42.4933L63.989 45.7566H74.5201" stroke="black" stroke-width="0.145684"/>
<path d="M66.359 44.3541C66.0793 44.3541 65.8561 44.2812 65.6895 44.1354C65.5258 43.9866 65.444 43.7887 65.444 43.5418V43.4212C65.444 43.3915 65.4589 43.3766 65.4886 43.3766H65.7073C65.7371 43.3766 65.752 43.3915 65.752 43.4212V43.5239C65.752 43.6905 65.8085 43.8244 65.9216 43.9256C66.0346 44.0268 66.1849 44.0773 66.3724 44.0773C66.5479 44.0773 66.6863 44.0297 66.7874 43.9345C66.8886 43.8393 66.9392 43.7143 66.9392 43.5596C66.9392 43.4584 66.9154 43.3707 66.8678 43.2963C66.8202 43.2219 66.7502 43.1534 66.658 43.091C66.5658 43.0285 66.4334 42.9496 66.2608 42.8544C66.0763 42.7562 65.9305 42.6699 65.8234 42.5955C65.7192 42.5212 65.6344 42.4304 65.569 42.3233C65.5035 42.2162 65.4708 42.0852 65.4708 41.9305C65.4708 41.6895 65.5481 41.5006 65.7029 41.3637C65.8576 41.2268 66.0644 41.1584 66.3233 41.1584C66.6 41.1584 66.8202 41.2342 66.9838 41.386C67.1475 41.5377 67.2293 41.7386 67.2293 41.9885V42.0912C67.2293 42.1209 67.2144 42.1358 67.1847 42.1358H66.9615C66.9318 42.1358 66.9169 42.1209 66.9169 42.0912V41.993C66.9169 41.8264 66.8633 41.6925 66.7562 41.5913C66.6491 41.4872 66.5018 41.4351 66.3143 41.4351C66.1477 41.4351 66.0168 41.4782 65.9216 41.5645C65.8293 41.6508 65.7832 41.7728 65.7832 41.9305C65.7832 42.0317 65.8055 42.1165 65.8502 42.1849C65.8948 42.2534 65.9588 42.3158 66.0421 42.3724C66.1284 42.4289 66.2593 42.5048 66.4348 42.6C66.6372 42.7131 66.7919 42.8098 66.899 42.8901C67.0091 42.9675 67.0954 43.0582 67.1579 43.1624C67.2234 43.2635 67.2561 43.3885 67.2561 43.5373C67.2561 43.7872 67.1757 43.9866 67.0151 44.1354C66.8544 44.2812 66.6357 44.3541 66.359 44.3541ZM68.6665 44.3541C68.485 44.3541 68.3243 44.3169 68.1844 44.2425C68.0476 44.1651 67.9404 44.058 67.8631 43.9211C67.7887 43.7843 67.7515 43.6266 67.7515 43.448V42.0689C67.7515 41.8903 67.7887 41.7326 67.8631 41.5958C67.9404 41.4559 68.0476 41.3488 68.1844 41.2744C68.3243 41.197 68.485 41.1584 68.6665 41.1584C68.848 41.1584 69.0072 41.197 69.144 41.2744C69.2839 41.3488 69.3925 41.4559 69.4699 41.5958C69.5472 41.7326 69.5859 41.8903 69.5859 42.0689V43.448C69.5859 43.6266 69.5472 43.7843 69.4699 43.9211C69.3925 44.058 69.2839 44.1651 69.144 44.2425C69.0072 44.3169 68.848 44.3541 68.6665 44.3541ZM68.6665 44.0773C68.848 44.0773 68.9938 44.0208 69.1039 43.9077C69.214 43.7947 69.269 43.6459 69.269 43.4614V42.0599C69.269 41.8725 69.214 41.7222 69.1039 41.6092C68.9938 41.4931 68.848 41.4351 68.6665 41.4351C68.4879 41.4351 68.3436 41.4931 68.2335 41.6092C68.1234 41.7222 68.0684 41.8725 68.0684 42.0599V43.4614C68.0684 43.6459 68.1234 43.7947 68.2335 43.9077C68.3436 44.0208 68.4879 44.0773 68.6665 44.0773ZM71.9339 41.2253C71.9487 41.2045 71.9666 41.1941 71.9874 41.1941H72.2195C72.2493 41.1941 72.2641 41.209 72.2641 41.2387V44.2737C72.2641 44.3035 72.2493 44.3184 72.2195 44.3184H71.9919C71.9621 44.3184 71.9473 44.3035 71.9473 44.2737V41.8457C71.9473 41.8368 71.9443 41.8308 71.9383 41.8279C71.9324 41.8249 71.9279 41.8279 71.9249 41.8368L71.3313 42.8678C71.3164 42.8886 71.2986 42.899 71.2778 42.899H71.2287C71.2078 42.899 71.19 42.8886 71.1751 42.8678L70.577 41.8412C70.5741 41.8323 70.5696 41.8293 70.5636 41.8323C70.5577 41.8353 70.5547 41.8412 70.5547 41.8502V44.2737C70.5547 44.3035 70.5398 44.3184 70.5101 44.3184H70.2825C70.2527 44.3184 70.2378 44.3035 70.2378 44.2737V41.2387C70.2378 41.209 70.2527 41.1941 70.2825 41.1941H70.5145C70.5354 41.1941 70.5532 41.2045 70.5681 41.2253L71.2421 42.3724C71.245 42.3754 71.2495 42.3768 71.2554 42.3768C71.2614 42.3768 71.2659 42.3754 71.2688 42.3724L71.9339 41.2253ZM74.7197 41.4262C74.7197 41.4559 74.7048 41.4708 74.675 41.4708H73.3361C73.3242 41.4708 73.3182 41.4767 73.3182 41.4886V42.5955C73.3182 42.6074 73.3242 42.6134 73.3361 42.6134H74.2376C74.2674 42.6134 74.2823 42.6283 74.2823 42.658V42.8455C74.2823 42.8752 74.2674 42.8901 74.2376 42.8901H73.3361C73.3242 42.8901 73.3182 42.8961 73.3182 42.908V44.0238C73.3182 44.0357 73.3242 44.0416 73.3361 44.0416H74.675C74.7048 44.0416 74.7197 44.0565 74.7197 44.0863V44.2737C74.7197 44.3035 74.7048 44.3184 74.675 44.3184H73.0459C73.0162 44.3184 73.0013 44.3035 73.0013 44.2737V41.2387C73.0013 41.209 73.0162 41.1941 73.0459 41.1941H74.675C74.7048 41.1941 74.7197 41.209 74.7197 41.2387V41.4262ZM76.9317 41.1941C76.9614 41.1941 76.9763 41.209 76.9763 41.2387V41.4262C76.9763 41.4559 76.9614 41.4708 76.9317 41.4708H76.2042C76.1923 41.4708 76.1863 41.4767 76.1863 41.4886V44.2737C76.1863 44.3035 76.1714 44.3184 76.1417 44.3184H75.9141C75.8843 44.3184 75.8694 44.3035 75.8694 44.2737V41.4886C75.8694 41.4767 75.8635 41.4708 75.8516 41.4708H75.1508C75.1211 41.4708 75.1062 41.4559 75.1062 41.4262V41.2387C75.1062 41.209 75.1211 41.1941 75.1508 41.1941H76.9317ZM78.9807 41.2387C78.9807 41.209 78.9956 41.1941 79.0254 41.1941H79.253C79.2827 41.1941 79.2976 41.209 79.2976 41.2387V44.2737C79.2976 44.3035 79.2827 44.3184 79.253 44.3184H79.0254C78.9956 44.3184 78.9807 44.3035 78.9807 44.2737V42.908C78.9807 42.8961 78.9748 42.8901 78.9629 42.8901H77.856C77.8441 42.8901 77.8381 42.8961 77.8381 42.908V44.2737C77.8381 44.3035 77.8233 44.3184 77.7935 44.3184H77.5659C77.5361 44.3184 77.5212 44.3035 77.5212 44.2737V41.2387C77.5212 41.209 77.5361 41.1941 77.5659 41.1941H77.7935C77.8233 41.1941 77.8381 41.209 77.8381 41.2387V42.5955C77.8381 42.6074 77.8441 42.6134 77.856 42.6134H78.9629C78.9748 42.6134 78.9807 42.6074 78.9807 42.5955V41.2387ZM80.0808 44.3184C80.0511 44.3184 80.0362 44.3035 80.0362 44.2737V41.2387C80.0362 41.209 80.0511 41.1941 80.0808 41.1941H80.3085C80.3382 41.1941 80.3531 41.209 80.3531 41.2387V44.2737C80.3531 44.3035 80.3382 44.3184 80.3085 44.3184H80.0808ZM82.6486 41.2387C82.6486 41.209 82.6634 41.1941 82.6932 41.1941H82.9208C82.9506 41.1941 82.9655 41.209 82.9655 41.2387V44.2737C82.9655 44.3035 82.9506 44.3184 82.9208 44.3184H82.6798C82.653 44.3184 82.6352 44.3079 82.6262 44.2871L81.4301 41.8993C81.4241 41.8933 81.4182 41.8903 81.4122 41.8903C81.4093 41.8903 81.4078 41.8948 81.4078 41.9037L81.4122 44.2737C81.4122 44.3035 81.3974 44.3184 81.3676 44.3184H81.14C81.1102 44.3184 81.0953 44.3035 81.0953 44.2737V41.2387C81.0953 41.209 81.1102 41.1941 81.14 41.1941H81.381C81.4078 41.1941 81.4256 41.2045 81.4346 41.2253L82.6307 43.6221C82.6367 43.628 82.6411 43.631 82.6441 43.631C82.6501 43.631 82.653 43.6266 82.653 43.6176L82.6486 41.2387ZM84.523 44.3541C84.2522 44.3541 84.0335 44.2752 83.8669 44.1175C83.7032 43.9598 83.6214 43.75 83.6214 43.4882V42.0242C83.6214 41.7624 83.7032 41.5526 83.8669 41.3949C84.0335 41.2372 84.2522 41.1584 84.523 41.1584C84.7015 41.1584 84.8577 41.1941 84.9916 41.2655C85.1285 41.3369 85.2341 41.4366 85.3085 41.5645C85.3859 41.6925 85.4245 41.8398 85.4245 42.0064V42.1314C85.4245 42.1611 85.4097 42.176 85.3799 42.176H85.1523C85.1225 42.176 85.1076 42.1611 85.1076 42.1314V42.0064C85.1076 41.8368 85.0541 41.6999 84.947 41.5958C84.8399 41.4886 84.6985 41.4351 84.523 41.4351C84.3474 41.4351 84.2061 41.4886 84.099 41.5958C83.9918 41.6999 83.9383 41.8398 83.9383 42.0153V43.4971C83.9383 43.6697 83.9918 43.8095 84.099 43.9167C84.209 44.0238 84.3519 44.0773 84.5274 44.0773C84.703 44.0773 84.8428 44.0268 84.947 43.9256C85.0541 43.8244 85.1076 43.6876 85.1076 43.515V43.0285C85.1076 43.0166 85.1017 43.0106 85.0898 43.0106H84.5676C84.5378 43.0106 84.523 42.9957 84.523 42.966V42.7785C84.523 42.7488 84.5378 42.7339 84.5676 42.7339H85.3799C85.4097 42.7339 85.4245 42.7488 85.4245 42.7785V43.4748C85.4245 43.7456 85.3427 43.9598 85.1791 44.1175C85.0154 44.2752 84.7967 44.3541 84.523 44.3541ZM67.2293 46.1941C67.2591 46.1941 67.2739 46.209 67.2739 46.2387V46.4262C67.2739 46.4559 67.2591 46.4708 67.2293 46.4708H66.5018C66.4899 46.4708 66.4839 46.4767 66.4839 46.4886V49.2737C66.4839 49.3035 66.4691 49.3184 66.4393 49.3184H66.2117C66.1819 49.3184 66.167 49.3035 66.167 49.2737V46.4886C66.167 46.4767 66.1611 46.4708 66.1492 46.4708H65.4485C65.4187 46.4708 65.4038 46.4559 65.4038 46.4262V46.2387C65.4038 46.209 65.4187 46.1941 65.4485 46.1941H67.2293ZM69.3498 49.3184C69.326 49.3184 69.3096 49.3065 69.3007 49.2827L68.7472 47.9035C68.7443 47.8946 68.7383 47.8901 68.7294 47.8901H68.1536C68.1417 47.8901 68.1358 47.8961 68.1358 47.908V49.2737C68.1358 49.3035 68.1209 49.3184 68.0911 49.3184H67.8635C67.8337 49.3184 67.8189 49.3035 67.8189 49.2737V46.2387C67.8189 46.209 67.8337 46.1941 67.8635 46.1941H68.8097C68.9644 46.1941 69.1013 46.2298 69.2203 46.3012C69.3423 46.3726 69.4361 46.4738 69.5015 46.6047C69.57 46.7356 69.6042 46.8859 69.6042 47.0555C69.6042 47.2578 69.5551 47.4304 69.4569 47.5732C69.3587 47.716 69.2248 47.8113 69.0552 47.8589C69.0433 47.8648 69.0403 47.8723 69.0463 47.8812L69.622 49.2648L69.6265 49.2827C69.6265 49.3065 69.6131 49.3184 69.5863 49.3184H69.3498ZM68.1536 46.4708C68.1417 46.4708 68.1358 46.4767 68.1358 46.4886V47.6179C68.1358 47.6298 68.1417 47.6357 68.1536 47.6357H68.7695C68.9243 47.6357 69.0492 47.5821 69.1445 47.475C69.2397 47.3679 69.2873 47.2281 69.2873 47.0555C69.2873 46.8799 69.2397 46.7386 69.1445 46.6315C69.0492 46.5244 68.9243 46.4708 68.7695 46.4708H68.1536ZM71.0071 49.3541C70.8256 49.3541 70.6649 49.3169 70.525 49.2425C70.3882 49.1651 70.281 49.058 70.2037 48.9211C70.1293 48.7843 70.0921 48.6266 70.0921 48.448V47.0689C70.0921 46.8903 70.1293 46.7326 70.2037 46.5958C70.281 46.4559 70.3882 46.3488 70.525 46.2744C70.6649 46.197 70.8256 46.1584 71.0071 46.1584C71.1886 46.1584 71.3478 46.197 71.4846 46.2744C71.6245 46.3488 71.7331 46.4559 71.8105 46.5958C71.8878 46.7326 71.9265 46.8903 71.9265 47.0689V48.448C71.9265 48.6266 71.8878 48.7843 71.8105 48.9211C71.7331 49.058 71.6245 49.1651 71.4846 49.2425C71.3478 49.3169 71.1886 49.3541 71.0071 49.3541ZM71.0071 49.0773C71.1886 49.0773 71.3344 49.0208 71.4445 48.9077C71.5546 48.7947 71.6096 48.6459 71.6096 48.4614V47.0599C71.6096 46.8725 71.5546 46.7222 71.4445 46.6092C71.3344 46.4931 71.1886 46.4351 71.0071 46.4351C70.8285 46.4351 70.6842 46.4931 70.5741 46.6092C70.464 46.7222 70.409 46.8725 70.409 47.0599V48.4614C70.409 48.6459 70.464 48.7947 70.5741 48.9077C70.6842 49.0208 70.8285 49.0773 71.0071 49.0773ZM73.5648 46.1896C73.8028 46.1896 73.9948 46.2699 74.1406 46.4306C74.2893 46.5883 74.3637 46.7981 74.3637 47.0599C74.3637 47.3188 74.2893 47.5271 74.1406 47.6848C73.9948 47.8395 73.8028 47.9169 73.5648 47.9169H72.8998C72.8879 47.9169 72.8819 47.9228 72.8819 47.9347V49.2737C72.8819 49.3035 72.867 49.3184 72.8373 49.3184H72.6097C72.5799 49.3184 72.565 49.3035 72.565 49.2737V46.2342C72.565 46.2045 72.5799 46.1896 72.6097 46.1896H73.5648ZM73.5246 47.6536C73.6823 47.6536 73.8088 47.6 73.904 47.4929C73.9992 47.3858 74.0468 47.2429 74.0468 47.0644C74.0468 46.8829 73.9992 46.7386 73.904 46.6315C73.8088 46.5214 73.6823 46.4663 73.5246 46.4663H72.8998C72.8879 46.4663 72.8819 46.4723 72.8819 46.4842V47.6357C72.8819 47.6476 72.8879 47.6536 72.8998 47.6536H73.5246ZM74.9332 49.3184C74.9035 49.3184 74.8886 49.3035 74.8886 49.2737V46.2387C74.8886 46.209 74.9035 46.1941 74.9332 46.1941H75.1609C75.1906 46.1941 75.2055 46.209 75.2055 46.2387V49.2737C75.2055 49.3035 75.1906 49.3184 75.1609 49.3184H74.9332ZM76.7645 49.3541C76.4938 49.3541 76.2751 49.2737 76.1084 49.113C75.9448 48.9524 75.863 48.7396 75.863 48.4748V47.0332C75.863 46.7683 75.9448 46.5571 76.1084 46.3994C76.2751 46.2387 76.4938 46.1584 76.7645 46.1584C77.0383 46.1584 77.257 46.2372 77.4206 46.3949C77.5873 46.5526 77.6706 46.7624 77.6706 47.0242V47.0644C77.6706 47.0942 77.6557 47.109 77.626 47.109L77.3983 47.118C77.3686 47.118 77.3537 47.1046 77.3537 47.0778V47.0153C77.3537 46.8427 77.2987 46.7029 77.1886 46.5958C77.0814 46.4886 76.9401 46.4351 76.7645 46.4351C76.589 46.4351 76.4477 46.4886 76.3405 46.5958C76.2334 46.6999 76.1799 46.8398 76.1799 47.0153V48.4971C76.1799 48.6727 76.2334 48.814 76.3405 48.9211C76.4477 49.0253 76.589 49.0773 76.7645 49.0773C76.9401 49.0773 77.0814 49.0238 77.1886 48.9167C77.2987 48.8095 77.3537 48.6697 77.3537 48.4971V48.4346C77.3537 48.4079 77.3686 48.3945 77.3983 48.3945L77.626 48.4079C77.6557 48.4079 77.6706 48.4227 77.6706 48.4525V48.4837C77.6706 48.7456 77.5873 48.9568 77.4206 49.1175C77.257 49.2752 77.0383 49.3541 76.7645 49.3541ZM79.8014 49.3184C79.7746 49.3184 79.7583 49.305 79.7523 49.2782L79.605 48.7203C79.6021 48.7114 79.5946 48.7069 79.5827 48.7069H78.516C78.5041 48.7069 78.4967 48.7114 78.4937 48.7203L78.3464 49.2782C78.3404 49.305 78.3241 49.3184 78.2973 49.3184H78.0652C78.0503 49.3184 78.0384 49.3139 78.0295 49.305C78.0235 49.296 78.0221 49.2841 78.025 49.2693L78.8597 46.2342C78.8656 46.2075 78.882 46.1941 78.9088 46.1941H79.1944C79.2212 46.1941 79.2376 46.2075 79.2435 46.2342L80.0781 49.2693L80.0826 49.2827C80.0826 49.3065 80.0677 49.3184 80.038 49.3184H79.8014ZM78.5696 48.4302C78.5666 48.4331 78.5666 48.4376 78.5696 48.4436C78.5755 48.4465 78.5815 48.448 78.5874 48.448H79.5113C79.5173 48.448 79.5217 48.4465 79.5247 48.4436C79.5306 48.4376 79.5321 48.4331 79.5292 48.4302L79.0561 46.6359C79.0531 46.63 79.0501 46.627 79.0471 46.627C79.0442 46.627 79.0412 46.63 79.0382 46.6359L78.5696 48.4302ZM80.5995 49.3184C80.5698 49.3184 80.5549 49.3035 80.5549 49.2737V46.2387C80.5549 46.209 80.5698 46.1941 80.5995 46.1941H80.8271C80.8569 46.1941 80.8718 46.209 80.8718 46.2387V49.0238C80.8718 49.0357 80.8777 49.0416 80.8896 49.0416H82.1884C82.2182 49.0416 82.2331 49.0565 82.2331 49.0863V49.2737C82.2331 49.3035 82.2182 49.3184 82.1884 49.3184H80.5995ZM85.1593 48.1758C85.189 48.1758 85.2039 48.1906 85.2039 48.2204V48.4168C85.2039 48.4465 85.189 48.4614 85.1593 48.4614H84.9941C84.9822 48.4614 84.9763 48.4674 84.9763 48.4793V49.2737C84.9763 49.3035 84.9614 49.3184 84.9316 49.3184H84.704C84.6742 49.3184 84.6594 49.3035 84.6594 49.2737V48.4793C84.6594 48.4674 84.6534 48.4614 84.6415 48.4614H83.432C83.4022 48.4614 83.3873 48.4465 83.3873 48.4168V48.2472C83.3873 48.2263 83.3903 48.2085 83.3963 48.1936L84.1907 46.2298C84.1997 46.206 84.216 46.1941 84.2398 46.1941H84.4853C84.5002 46.1941 84.5106 46.2 84.5165 46.2119C84.5225 46.2209 84.5225 46.2328 84.5165 46.2476L83.7578 48.1534C83.7548 48.1594 83.7548 48.1653 83.7578 48.1713C83.7608 48.1743 83.7652 48.1758 83.7712 48.1758H84.6415C84.6534 48.1758 84.6594 48.1698 84.6594 48.1579V47.4527C84.6594 47.423 84.6742 47.4081 84.704 47.4081H84.9316C84.9614 47.4081 84.9763 47.423 84.9763 47.4527V48.1579C84.9763 48.1698 84.9822 48.1758 84.9941 48.1758H85.1593ZM86.5089 49.363C86.253 49.363 86.0477 49.2856 85.893 49.1309C85.7383 48.9762 85.6609 48.7694 85.6609 48.5105V47.0019C85.6609 46.746 85.7383 46.5407 85.893 46.386C86.0477 46.2313 86.253 46.1539 86.5089 46.1539C86.7678 46.1539 86.9746 46.2313 87.1293 46.386C87.287 46.5407 87.3659 46.746 87.3659 47.0019V48.5105C87.3659 48.7694 87.287 48.9762 87.1293 49.1309C86.9746 49.2856 86.7678 49.363 86.5089 49.363ZM86.5089 49.0863C86.6726 49.0863 86.8035 49.0357 86.9017 48.9345C86.9999 48.8334 87.049 48.6995 87.049 48.5328V46.9841C87.049 46.8174 86.9999 46.6835 86.9017 46.5824C86.8035 46.4812 86.6726 46.4306 86.5089 46.4306C86.3512 46.4306 86.2233 46.4812 86.1251 46.5824C86.0269 46.6835 85.9778 46.8174 85.9778 46.9841V48.5328C85.9778 48.6965 86.0269 48.8304 86.1251 48.9345C86.2233 49.0357 86.3512 49.0863 86.5089 49.0863ZM88.642 47.4215C88.5259 47.4215 88.4188 47.3932 88.3206 47.3367C88.2254 47.2801 88.1495 47.2043 88.093 47.109C88.0364 47.0109 88.0082 46.9037 88.0082 46.7877C88.0082 46.6716 88.0364 46.566 88.093 46.4708C88.1495 46.3726 88.2254 46.2952 88.3206 46.2387C88.4188 46.1822 88.5259 46.1539 88.642 46.1539C88.755 46.1539 88.8592 46.1822 88.9544 46.2387C89.0526 46.2952 89.1299 46.3726 89.1865 46.4708C89.243 46.566 89.2713 46.6716 89.2713 46.7877C89.2713 46.9037 89.243 47.0109 89.1865 47.109C89.1299 47.2043 89.0526 47.2801 88.9544 47.3367C88.8592 47.3932 88.755 47.4215 88.642 47.4215ZM88.5393 49.3184C88.5244 49.3184 88.5125 49.3139 88.5036 49.305C88.4977 49.2931 88.4991 49.2797 88.5081 49.2648L90.1684 46.2253C90.1773 46.2045 90.1952 46.1941 90.222 46.1941H90.3648C90.3797 46.1941 90.3901 46.2 90.396 46.2119C90.405 46.2209 90.405 46.2328 90.396 46.2476L88.7357 49.2871C88.7268 49.3079 88.7089 49.3184 88.6821 49.3184H88.5393ZM88.642 47.2251C88.761 47.2251 88.8607 47.1834 88.941 47.1001C89.0243 47.0138 89.066 46.9097 89.066 46.7877C89.066 46.6657 89.0243 46.563 88.941 46.4797C88.8607 46.3934 88.761 46.3503 88.642 46.3503C88.5229 46.3503 88.4218 46.3934 88.3385 46.4797C88.2551 46.563 88.2135 46.6657 88.2135 46.7877C88.2135 46.9097 88.2551 47.0138 88.3385 47.1001C88.4218 47.1834 88.5229 47.2251 88.642 47.2251ZM90.28 49.3585C90.1639 49.3585 90.0568 49.3303 89.9586 49.2737C89.8634 49.2172 89.7875 49.1398 89.731 49.0416C89.6745 48.9434 89.6462 48.8363 89.6462 48.7203C89.6462 48.6072 89.6745 48.5031 89.731 48.4079C89.7875 48.3097 89.8634 48.2323 89.9586 48.1758C90.0568 48.1192 90.1639 48.091 90.28 48.091C90.3931 48.091 90.4972 48.1192 90.5924 48.1758C90.6906 48.2323 90.768 48.3097 90.8245 48.4079C90.881 48.5031 90.9093 48.6072 90.9093 48.7203C90.9093 48.8363 90.881 48.9434 90.8245 49.0416C90.768 49.1398 90.6906 49.2172 90.5924 49.2737C90.4972 49.3303 90.3931 49.3585 90.28 49.3585ZM90.28 49.1621C90.399 49.1621 90.4987 49.119 90.579 49.0327C90.6623 48.9464 90.704 48.8423 90.704 48.7203C90.704 48.5983 90.6623 48.4956 90.579 48.4123C90.4987 48.329 90.399 48.2873 90.28 48.2873C90.161 48.2873 90.0598 48.329 89.9765 48.4123C89.8932 48.4956 89.8515 48.5983 89.8515 48.7203C89.8515 48.8453 89.8917 48.9509 89.972 49.0372C90.0553 49.1205 90.158 49.1621 90.28 49.1621Z" fill="#404040"/>
<path d="M61.9753 16.595L64.5204 13.3777H75.0643" stroke="black" stroke-width="0.145684"/>
<path d="M65.0993 11.3428C65.0695 11.3428 65.0546 11.3279 65.0546 11.2981V8.26312C65.0546 8.23336 65.0695 8.21849 65.0993 8.21849H65.3269C65.3566 8.21849 65.3715 8.23336 65.3715 8.26312V11.0482C65.3715 11.0601 65.3775 11.0661 65.3894 11.0661H66.6882C66.7179 11.0661 66.7328 11.0809 66.7328 11.1107V11.2981C66.7328 11.3279 66.7179 11.3428 66.6882 11.3428H65.0993ZM68.9262 8.45058C68.9262 8.48033 68.9113 8.49521 68.8815 8.49521H67.5425C67.5306 8.49521 67.5247 8.50116 67.5247 8.51306V9.61995C67.5247 9.63185 67.5306 9.63781 67.5425 9.63781H68.4441C68.4739 9.63781 68.4888 9.65268 68.4888 9.68244V9.8699C68.4888 9.89965 68.4739 9.91453 68.4441 9.91453H67.5425C67.5306 9.91453 67.5247 9.92048 67.5247 9.93238V11.0482C67.5247 11.0601 67.5306 11.0661 67.5425 11.0661H68.8815C68.9113 11.0661 68.9262 11.0809 68.9262 11.1107V11.2981C68.9262 11.3279 68.9113 11.3428 68.8815 11.3428H67.2524C67.2227 11.3428 67.2078 11.3279 67.2078 11.2981V8.26312C67.2078 8.23336 67.2227 8.21849 67.2524 8.21849H68.8815C68.9113 8.21849 68.9262 8.23336 68.9262 8.26312V8.45058ZM71.2051 8.24973C71.22 8.2289 71.2378 8.21849 71.2587 8.21849H71.4908C71.5205 8.21849 71.5354 8.23336 71.5354 8.26312V11.2981C71.5354 11.3279 71.5205 11.3428 71.4908 11.3428H71.2631C71.2334 11.3428 71.2185 11.3279 71.2185 11.2981V8.87012C71.2185 8.8612 71.2155 8.85525 71.2096 8.85227C71.2036 8.8493 71.1992 8.85227 71.1962 8.8612L70.6026 9.89221C70.5877 9.91304 70.5698 9.92345 70.549 9.92345H70.4999C70.4791 9.92345 70.4612 9.91304 70.4464 9.89221L69.8483 8.86566C69.8453 8.85673 69.8408 8.85376 69.8349 8.85673C69.8289 8.85971 69.826 8.86566 69.826 8.87459V11.2981C69.826 11.3279 69.8111 11.3428 69.7813 11.3428H69.5537C69.5239 11.3428 69.5091 11.3279 69.5091 11.2981V8.26312C69.5091 8.23336 69.5239 8.21849 69.5537 8.21849H69.7858C69.8066 8.21849 69.8245 8.2289 69.8394 8.24973L70.5133 9.39679C70.5163 9.39976 70.5207 9.40125 70.5267 9.40125C70.5326 9.40125 70.5371 9.39976 70.5401 9.39679L71.2051 8.24973ZM73.1027 11.3785C72.9212 11.3785 72.7605 11.3413 72.6207 11.2669C72.4838 11.1895 72.3767 11.0824 72.2993 10.9455C72.225 10.8087 72.1878 10.651 72.1878 10.4724V9.09329C72.1878 8.91476 72.225 8.75705 72.2993 8.62018C72.3767 8.48033 72.4838 8.37321 72.6207 8.29883C72.7605 8.22146 72.9212 8.18278 73.1027 8.18278C73.2842 8.18278 73.4434 8.22146 73.5803 8.29883C73.7201 8.37321 73.8288 8.48033 73.9061 8.62018C73.9835 8.75705 74.0222 8.91476 74.0222 9.09329V10.4724C74.0222 10.651 73.9835 10.8087 73.9061 10.9455C73.8288 11.0824 73.7201 11.1895 73.5803 11.2669C73.4434 11.3413 73.2842 11.3785 73.1027 11.3785ZM73.1027 11.1018C73.2842 11.1018 73.43 11.0452 73.5401 10.9322C73.6502 10.8191 73.7053 10.6703 73.7053 10.4858V9.08436C73.7053 8.8969 73.6502 8.74664 73.5401 8.63357C73.43 8.51753 73.2842 8.4595 73.1027 8.4595C72.9242 8.4595 72.7799 8.51753 72.6698 8.63357C72.5597 8.74664 72.5047 8.8969 72.5047 9.08436V10.4858C72.5047 10.6703 72.5597 10.8191 72.6698 10.9322C72.7799 11.0452 72.9242 11.1018 73.1027 11.1018ZM76.2318 8.26312C76.2318 8.23336 76.2466 8.21849 76.2764 8.21849H76.504C76.5338 8.21849 76.5487 8.23336 76.5487 8.26312V11.2981C76.5487 11.3279 76.5338 11.3428 76.504 11.3428H76.263C76.2362 11.3428 76.2184 11.3324 76.2094 11.3115L75.0133 8.92368C75.0073 8.91773 75.0014 8.91476 74.9954 8.91476C74.9925 8.91476 74.991 8.91922 74.991 8.92815L74.9954 11.2981C74.9954 11.3279 74.9806 11.3428 74.9508 11.3428H74.7232C74.6934 11.3428 74.6785 11.3279 74.6785 11.2981V8.26312C74.6785 8.23336 74.6934 8.21849 74.7232 8.21849H74.9642C74.991 8.21849 75.0088 8.2289 75.0178 8.24973L76.2139 10.6465C76.2199 10.6525 76.2243 10.6554 76.2273 10.6554C76.2332 10.6554 76.2362 10.651 76.2362 10.642L76.2318 8.26312ZM78.9372 11.3785C78.6575 11.3785 78.4343 11.3056 78.2677 11.1598C78.1041 11.011 78.0222 10.8131 78.0222 10.5662V10.4457C78.0222 10.4159 78.0371 10.401 78.0669 10.401H78.2856C78.3153 10.401 78.3302 10.4159 78.3302 10.4457V10.5483C78.3302 10.7149 78.3867 10.8488 78.4998 10.95C78.6129 11.0512 78.7631 11.1018 78.9506 11.1018C79.1261 11.1018 79.2645 11.0541 79.3657 10.9589C79.4668 10.8637 79.5174 10.7387 79.5174 10.584C79.5174 10.4829 79.4936 10.3951 79.446 10.3207C79.3984 10.2463 79.3285 10.1779 79.2362 10.1154C79.144 10.0529 79.0116 9.97404 78.839 9.87882C78.6545 9.78063 78.5087 9.69434 78.4016 9.61995C78.2975 9.54556 78.2127 9.45481 78.1472 9.34769C78.0817 9.24057 78.049 9.10965 78.049 8.95493C78.049 8.71391 78.1264 8.52496 78.2811 8.38809C78.4358 8.25122 78.6426 8.18278 78.9015 8.18278C79.1782 8.18278 79.3984 8.25866 79.5621 8.41041C79.7257 8.56216 79.8075 8.76301 79.8075 9.01295V9.1156C79.8075 9.14536 79.7927 9.16024 79.7629 9.16024H79.5397C79.51 9.16024 79.4951 9.14536 79.4951 9.1156V9.01741C79.4951 8.85078 79.4415 8.71688 79.3344 8.61572C79.2273 8.51157 79.08 8.4595 78.8926 8.4595C78.7259 8.4595 78.595 8.50265 78.4998 8.58894C78.4076 8.67523 78.3614 8.79722 78.3614 8.95493C78.3614 9.05609 78.3838 9.1409 78.4284 9.20933C78.473 9.27777 78.537 9.34025 78.6203 9.39679C78.7066 9.45332 78.8375 9.5292 79.0131 9.62442C79.2154 9.73749 79.3701 9.83419 79.4773 9.91453C79.5873 9.99189 79.6736 10.0826 79.7361 10.1868C79.8016 10.288 79.8343 10.4129 79.8343 10.5617C79.8343 10.8116 79.754 11.011 79.5933 11.1598C79.4326 11.3056 79.2139 11.3785 78.9372 11.3785ZM81.874 8.26312C81.874 8.23336 81.8889 8.21849 81.9187 8.21849H82.1463C82.176 8.21849 82.1909 8.23336 82.1909 8.26312V11.2981C82.1909 11.3279 82.176 11.3428 82.1463 11.3428H81.9187C81.8889 11.3428 81.874 11.3279 81.874 11.2981V9.93238C81.874 9.92048 81.8681 9.91453 81.8562 9.91453H80.7493C80.7374 9.91453 80.7314 9.92048 80.7314 9.93238V11.2981C80.7314 11.3279 80.7166 11.3428 80.6868 11.3428H80.4592C80.4294 11.3428 80.4145 11.3279 80.4145 11.2981V8.26312C80.4145 8.23336 80.4294 8.21849 80.4592 8.21849H80.6868C80.7166 8.21849 80.7314 8.23336 80.7314 8.26312V9.61995C80.7314 9.63185 80.7374 9.63781 80.7493 9.63781H81.8562C81.8681 9.63781 81.874 9.63185 81.874 9.61995V8.26312ZM83.7597 11.3785C83.5781 11.3785 83.4175 11.3413 83.2776 11.2669C83.1407 11.1895 83.0336 11.0824 82.9563 10.9455C82.8819 10.8087 82.8447 10.651 82.8447 10.4724V9.09329C82.8447 8.91476 82.8819 8.75705 82.9563 8.62018C83.0336 8.48033 83.1407 8.37321 83.2776 8.29883C83.4175 8.22146 83.5781 8.18278 83.7597 8.18278C83.9412 8.18278 84.1003 8.22146 84.2372 8.29883C84.3771 8.37321 84.4857 8.48033 84.563 8.62018C84.6404 8.75705 84.6791 8.91476 84.6791 9.09329V10.4724C84.6791 10.651 84.6404 10.8087 84.563 10.9455C84.4857 11.0824 84.3771 11.1895 84.2372 11.2669C84.1003 11.3413 83.9412 11.3785 83.7597 11.3785ZM83.7597 11.1018C83.9412 11.1018 84.087 11.0452 84.1971 10.9322C84.3071 10.8191 84.3622 10.6703 84.3622 10.4858V9.08436C84.3622 8.8969 84.3071 8.74664 84.1971 8.63357C84.087 8.51753 83.9412 8.4595 83.7597 8.4595C83.5811 8.4595 83.4368 8.51753 83.3267 8.63357C83.2166 8.74664 83.1616 8.8969 83.1616 9.08436V10.4858C83.1616 10.6703 83.2166 10.8191 83.3267 10.9322C83.4368 11.0452 83.5811 11.1018 83.7597 11.1018ZM86.1522 11.3785C85.8815 11.3785 85.6628 11.2981 85.4961 11.1375C85.3325 10.9768 85.2507 10.764 85.2507 10.4992V9.05758C85.2507 8.79276 85.3325 8.5815 85.4961 8.4238C85.6628 8.26312 85.8815 8.18278 86.1522 8.18278C86.426 8.18278 86.6447 8.26163 86.8083 8.41933C86.975 8.57704 87.0583 8.78681 87.0583 9.04865V9.08882C87.0583 9.11858 87.0434 9.13346 87.0137 9.13346L86.786 9.14238C86.7563 9.14238 86.7414 9.12899 86.7414 9.10221V9.03973C86.7414 8.86715 86.6863 8.7273 86.5763 8.62018C86.4691 8.51306 86.3278 8.4595 86.1522 8.4595C85.9767 8.4595 85.8353 8.51306 85.7282 8.62018C85.6211 8.72432 85.5676 8.86417 85.5676 9.03973V10.5215C85.5676 10.6971 85.6211 10.8384 85.7282 10.9455C85.8353 11.0497 85.9767 11.1018 86.1522 11.1018C86.3278 11.1018 86.4691 11.0482 86.5763 10.9411C86.6863 10.834 86.7414 10.6941 86.7414 10.5215V10.459C86.7414 10.4323 86.7563 10.4189 86.786 10.4189L87.0137 10.4323C87.0434 10.4323 87.0583 10.4471 87.0583 10.4769V10.5081C87.0583 10.77 86.975 10.9812 86.8083 11.1419C86.6447 11.2996 86.426 11.3785 86.1522 11.3785ZM87.7294 11.3428C87.6997 11.3428 87.6848 11.3279 87.6848 11.2981V8.26312C87.6848 8.23336 87.6997 8.21849 87.7294 8.21849H87.957C87.9868 8.21849 88.0017 8.23336 88.0017 8.26312V9.74492C88.0017 9.75088 88.0046 9.75534 88.0106 9.75831C88.0165 9.75831 88.021 9.75534 88.024 9.74939L89.1577 8.24527C89.1696 8.22741 89.1889 8.21849 89.2157 8.21849H89.4656C89.4835 8.21849 89.4954 8.22444 89.5013 8.23634C89.5073 8.24527 89.5043 8.25717 89.4924 8.27205L88.5997 9.49498C88.5968 9.50391 88.5968 9.51283 88.5997 9.52176L89.5727 11.2892C89.5787 11.3011 89.5817 11.31 89.5817 11.316C89.5817 11.3338 89.5683 11.3428 89.5415 11.3428H89.2826C89.2559 11.3428 89.238 11.3324 89.2291 11.3115L88.381 9.7717C88.3751 9.75683 88.3677 9.75683 88.3587 9.7717L88.0106 10.2136C88.0046 10.2195 88.0017 10.227 88.0017 10.2359V11.2981C88.0017 11.3279 87.9868 11.3428 87.957 11.3428H87.7294ZM65.3537 13.2319C65.3715 13.223 65.3909 13.2185 65.4117 13.2185H65.6527C65.6825 13.2185 65.6973 13.2334 65.6973 13.2631V16.2981C65.6973 16.3279 65.6825 16.3428 65.6527 16.3428H65.4251C65.3953 16.3428 65.3804 16.3279 65.3804 16.2981V13.5845C65.3804 13.5785 65.3775 13.5741 65.3715 13.5711C65.3685 13.5681 65.3641 13.5681 65.3581 13.5711L64.9118 13.7362C64.9058 13.7392 64.8984 13.7407 64.8895 13.7407C64.8746 13.7407 64.8642 13.7288 64.8582 13.705L64.8359 13.5398V13.5309C64.8359 13.516 64.8463 13.5012 64.8672 13.4863L65.3537 13.2319ZM67.1556 16.3874C66.8997 16.3874 66.6944 16.31 66.5397 16.1553C66.385 16.0006 66.3076 15.7938 66.3076 15.5349V14.0263C66.3076 13.7704 66.385 13.5651 66.5397 13.4104C66.6944 13.2557 66.8997 13.1783 67.1556 13.1783C67.4145 13.1783 67.6213 13.2557 67.776 13.4104C67.9337 13.5651 68.0126 13.7704 68.0126 14.0263V15.5349C68.0126 15.7938 67.9337 16.0006 67.776 16.1553C67.6213 16.31 67.4145 16.3874 67.1556 16.3874ZM67.1556 16.1107C67.3193 16.1107 67.4502 16.0601 67.5484 15.9589C67.6466 15.8578 67.6957 15.7239 67.6957 15.5572V14.0085C67.6957 13.8419 67.6466 13.708 67.5484 13.6068C67.4502 13.5056 67.3193 13.455 67.1556 13.455C66.9979 13.455 66.87 13.5056 66.7718 13.6068C66.6736 13.708 66.6245 13.8419 66.6245 14.0085V15.5572C66.6245 15.7209 66.6736 15.8548 66.7718 15.9589C66.87 16.0601 66.9979 16.1107 67.1556 16.1107ZM69.2887 14.4459C69.1726 14.4459 69.0655 14.4176 68.9673 14.3611C68.8721 14.3045 68.7962 14.2287 68.7397 14.1335C68.6831 14.0353 68.6549 13.9281 68.6549 13.8121C68.6549 13.6961 68.6831 13.5904 68.7397 13.4952C68.7962 13.397 68.8721 13.3197 68.9673 13.2631C69.0655 13.2066 69.1726 13.1783 69.2887 13.1783C69.4017 13.1783 69.5059 13.2066 69.6011 13.2631C69.6993 13.3197 69.7766 13.397 69.8332 13.4952C69.8897 13.5904 69.918 13.6961 69.918 13.8121C69.918 13.9281 69.8897 14.0353 69.8332 14.1335C69.7766 14.2287 69.6993 14.3045 69.6011 14.3611C69.5059 14.4176 69.4017 14.4459 69.2887 14.4459ZM69.186 16.3428C69.1711 16.3428 69.1592 16.3383 69.1503 16.3294C69.1443 16.3175 69.1458 16.3041 69.1548 16.2892L70.8151 13.2497C70.824 13.2289 70.8419 13.2185 70.8687 13.2185H71.0115C71.0264 13.2185 71.0368 13.2244 71.0427 13.2363C71.0517 13.2453 71.0517 13.2572 71.0427 13.272L69.3824 16.3115C69.3735 16.3324 69.3556 16.3428 69.3288 16.3428H69.186ZM69.2887 14.2495C69.4077 14.2495 69.5074 14.2078 69.5877 14.1245C69.671 14.0382 69.7127 13.9341 69.7127 13.8121C69.7127 13.6901 69.671 13.5875 69.5877 13.5041C69.5074 13.4178 69.4077 13.3747 69.2887 13.3747C69.1696 13.3747 69.0685 13.4178 68.9852 13.5041C68.9018 13.5875 68.8602 13.6901 68.8602 13.8121C68.8602 13.9341 68.9018 14.0382 68.9852 14.1245C69.0685 14.2078 69.1696 14.2495 69.2887 14.2495ZM70.9267 16.3829C70.8106 16.3829 70.7035 16.3547 70.6053 16.2981C70.5101 16.2416 70.4342 16.1642 70.3777 16.0661C70.3212 15.9679 70.2929 15.8607 70.2929 15.7447C70.2929 15.6316 70.3212 15.5275 70.3777 15.4323C70.4342 15.3341 70.5101 15.2567 70.6053 15.2002C70.7035 15.1436 70.8106 15.1154 70.9267 15.1154C71.0397 15.1154 71.1439 15.1436 71.2391 15.2002C71.3373 15.2567 71.4147 15.3341 71.4712 15.4323C71.5277 15.5275 71.556 15.6316 71.556 15.7447C71.556 15.8607 71.5277 15.9679 71.4712 16.0661C71.4147 16.1642 71.3373 16.2416 71.2391 16.2981C71.1439 16.3547 71.0397 16.3829 70.9267 16.3829ZM70.9267 16.1866C71.0457 16.1866 71.1454 16.1434 71.2257 16.0571C71.309 15.9708 71.3507 15.8667 71.3507 15.7447C71.3507 15.6227 71.309 15.52 71.2257 15.4367C71.1454 15.3534 71.0457 15.3118 70.9267 15.3118C70.8077 15.3118 70.7065 15.3534 70.6232 15.4367C70.5399 15.52 70.4982 15.6227 70.4982 15.7447C70.4982 15.8697 70.5384 15.9753 70.6187 16.0616C70.702 16.1449 70.8047 16.1866 70.9267 16.1866Z" fill="#404040"/>
</svg>
