<svg width="106" height="57" viewBox="0 0 106 57" fill="none" xmlns="http://www.w3.org/2000/svg">
<path d="M47.0467 49.958C42.4912 50.1169 38.0023 48.8317 34.2233 46.2866C30.4443 43.7415 27.5692 40.0673 26.0102 35.7904L33.1093 33.2105C34.1227 35.9905 35.9915 38.3787 38.4478 40.033C40.9042 41.6873 43.822 42.5227 46.7831 42.4195L47.0467 49.958Z" fill="#FFFB94"/>
<path d="M45.5401 6.88043C48.373 6.78166 51.1976 7.24097 53.8526 8.23214C56.5077 9.22331 58.9412 10.7269 61.0143 12.6572C63.0874 14.5874 64.7594 16.9064 65.9349 19.4818C67.1104 22.0572 67.7663 24.8386 67.8652 27.6671C67.9641 30.4956 67.5041 33.3159 66.5114 35.9669C65.5187 38.6179 64.0128 41.0477 62.0796 43.1176C60.1465 45.1875 57.8239 46.857 55.2445 48.0307C52.6652 49.2043 49.8796 49.8593 47.0467 49.958L46.7831 42.4195C48.6244 42.3553 50.4351 41.9296 52.1116 41.1667C53.7882 40.4038 55.2979 39.3186 56.5545 37.9732C57.811 36.6278 58.7899 35.0484 59.4351 33.3252C60.0804 31.6021 60.3794 29.7689 60.3151 27.9303C60.2508 26.0918 59.8244 24.2839 59.0604 22.6099C58.2963 20.9359 57.2095 19.4285 55.862 18.1739C54.5145 16.9192 52.9327 15.9419 51.2069 15.2976C49.4811 14.6534 47.6451 14.3548 45.8038 14.419L45.5401 6.88043Z" fill="url(#paint0_linear_10_18221)"/>
<path d="M26.0102 35.7904C24.8452 32.5944 24.4542 29.1685 24.8694 25.7927C25.2845 22.417 26.4939 19.1872 28.3987 16.3676C30.3035 13.5479 32.8496 11.2184 35.8288 9.56949C38.8081 7.9206 42.1359 6.99913 45.5401 6.88043L45.8038 14.419C43.591 14.4962 41.4279 15.0951 39.4914 16.1669C37.5549 17.2387 35.9 18.7529 34.6618 20.5856C33.4237 22.4184 32.6376 24.5178 32.3678 26.712C32.0979 28.9063 32.3521 31.1331 33.1093 33.2105L26.0102 35.7904Z" fill="url(#paint1_linear_10_18221)"/>
<path d="M33.7872 12.6682L31.2452 9.40491H20.7141" stroke="black" stroke-width="0.145684"/>
<path d="M34.1501 44.9387L31.6081 48.202H21.077" stroke="black" stroke-width="0.145684"/>
<path d="M1.86979 8.6908L0.925811 6.17619H0.909744C0.9151 6.22975 0.919117 6.29804 0.921795 6.38106C0.92715 6.46407 0.931167 6.55512 0.933845 6.65421C0.936523 6.75061 0.937862 6.8497 0.937862 6.95146V8.6908H0.604456V5.8227H1.13871L2.02244 8.17261H2.0385L2.9383 5.8227H3.46853V8.6908H3.11103V6.92736C3.11103 6.83363 3.11237 6.74124 3.11504 6.65019C3.11772 6.55646 3.12174 6.46943 3.12709 6.38909C3.13245 6.30607 3.13647 6.23645 3.13915 6.18021H3.12308L2.16705 8.6908H1.86979ZM5.11237 7.50178L4.36924 8.6908H3.94746L4.75085 7.43751C4.64909 7.4027 4.55268 7.35449 4.46163 7.2929C4.37326 7.23131 4.30095 7.14695 4.24471 7.03983C4.18848 6.93272 4.16036 6.7948 4.16036 6.62609C4.16036 6.36633 4.25007 6.16816 4.42949 6.03158C4.60892 5.89233 4.87671 5.8227 5.23288 5.8227H6.03627V8.6908H5.67474V7.50178H5.11237ZM5.24091 6.13201C5.08827 6.13201 4.95973 6.14941 4.85529 6.18423C4.75085 6.21904 4.67051 6.27394 4.61427 6.34892C4.56071 6.4239 4.53393 6.52165 4.53393 6.64216C4.53393 6.8189 4.59285 6.95548 4.71068 7.05188C4.82851 7.14829 5.01061 7.19649 5.25698 7.19649H5.67474V6.13201H5.24091ZM7.72206 8.6908H7.36054V6.14004H6.46476V5.8227H8.61382V6.14004H7.72206V8.6908ZM11.2396 8.6908H10.878V7.35316H9.40783V8.6908H9.04631V5.8227H9.40783V7.03582H10.878V5.8227H11.2396V8.6908ZM12.0237 8.6908V5.8227H12.3852V7.03582H12.8271C13.0949 7.03582 13.3051 7.07197 13.4578 7.14427C13.6131 7.21658 13.7229 7.31432 13.7871 7.43751C13.8541 7.5607 13.8876 7.69861 13.8876 7.85126C13.8876 8.01997 13.8514 8.16725 13.7791 8.29312C13.7095 8.41898 13.5997 8.51673 13.4497 8.58636C13.2998 8.65598 13.1069 8.6908 12.8713 8.6908H12.0237ZM12.8391 8.38551C13.0694 8.38551 13.2395 8.34132 13.3493 8.25295C13.4591 8.16458 13.514 8.03068 13.514 7.85126C13.514 7.72807 13.4872 7.63032 13.4337 7.55802C13.3828 7.48571 13.3038 7.43349 13.1967 7.40136C13.0895 7.36922 12.953 7.35316 12.7869 7.35316H12.3852V8.38551H12.8391ZM14.3294 8.6908V5.8227H14.691V8.6908H14.3294ZM17.4281 4.93094C17.4174 5.06484 17.3839 5.17731 17.3277 5.26836C17.2741 5.35941 17.1938 5.4277 17.0866 5.47323C16.9795 5.51875 16.8403 5.54152 16.6689 5.54152C16.4948 5.54152 16.3542 5.51875 16.2471 5.47323C16.1427 5.4277 16.0663 5.36075 16.0181 5.27238C15.9699 5.18133 15.9405 5.06752 15.9298 4.93094H16.2592C16.2725 5.07555 16.31 5.1733 16.3716 5.22418C16.4359 5.27238 16.5377 5.29648 16.6769 5.29648C16.8001 5.29648 16.8965 5.27104 16.9661 5.22016C17.0384 5.1666 17.0813 5.07019 17.0947 4.93094H17.4281ZM15.4759 5.8227H15.8133V7.39734C15.8133 7.46429 15.8119 7.53793 15.8093 7.61827C15.8093 7.69593 15.8079 7.77359 15.8052 7.85126C15.8026 7.92892 15.7985 7.99854 15.7932 8.06014C15.7905 8.11905 15.7878 8.16458 15.7852 8.19671H15.8012L17.3799 5.8227H17.7816V8.6908H17.4442V7.13222C17.4442 7.05992 17.4455 6.98226 17.4482 6.89924C17.4509 6.81355 17.4535 6.73187 17.4562 6.65421C17.4616 6.57387 17.4656 6.5029 17.4683 6.44131C17.4709 6.37972 17.4736 6.33419 17.4763 6.30473H17.4602L15.8775 8.6908H15.4759V5.8227ZM3.98672 13.6908H0.604456V10.8227H0.965981V13.3694H2.11081V10.8227H2.47233V13.3694H3.62118V10.8227H3.98672V13.6908ZM7.27301 12.2527C7.27301 12.475 7.2449 12.6772 7.18866 12.8593C7.13242 13.0387 7.04807 13.194 6.93559 13.3253C6.8258 13.4565 6.68788 13.5569 6.52185 13.6265C6.35849 13.6962 6.16836 13.731 5.95144 13.731C5.72649 13.731 5.531 13.6962 5.36497 13.6265C5.19894 13.5542 5.06102 13.4538 4.95122 13.3253C4.84143 13.194 4.75975 13.0374 4.70619 12.8553C4.65263 12.6732 4.62585 12.471 4.62585 12.2487C4.62585 11.9541 4.67405 11.6971 4.77046 11.4775C4.86687 11.2579 5.01282 11.0865 5.20831 10.9633C5.40648 10.8401 5.65553 10.7785 5.95546 10.7785C6.242 10.7785 6.48302 10.8401 6.67851 10.9633C6.874 11.0838 7.02129 11.2552 7.12037 11.4775C7.22213 11.6971 7.27301 11.9555 7.27301 12.2527ZM5.00746 12.2527C5.00746 12.4937 5.04094 12.7013 5.10788 12.8754C5.17483 13.0494 5.27793 13.1833 5.41719 13.2771C5.55912 13.3708 5.7372 13.4176 5.95144 13.4176C6.16836 13.4176 6.3451 13.3708 6.48168 13.2771C6.62093 13.1833 6.72403 13.0494 6.79098 12.8754C6.85793 12.7013 6.89141 12.4937 6.89141 12.2527C6.89141 11.8912 6.81642 11.6087 6.66646 11.4052C6.51649 11.199 6.27949 11.0959 5.95546 11.0959C5.73854 11.0959 5.55912 11.1427 5.41719 11.2364C5.27793 11.3275 5.17483 11.4601 5.10788 11.6341C5.04094 11.8055 5.00746 12.0117 5.00746 12.2527ZM10.0015 13.6908H9.56769L8.27022 12.2367V13.6908H7.9087V10.8227H8.27022V12.2126L9.53556 10.8227H9.94528L8.70003 12.2166L10.0015 13.6908ZM12.8159 12.2527C12.8159 12.475 12.7878 12.6772 12.7316 12.8593C12.6753 13.0387 12.591 13.194 12.4785 13.3253C12.3687 13.4565 12.2308 13.5569 12.0648 13.6265C11.9014 13.6962 11.7113 13.731 11.4943 13.731C11.2694 13.731 11.0739 13.6962 10.9079 13.6265C10.7418 13.5542 10.6039 13.4538 10.4941 13.3253C10.3843 13.194 10.3027 13.0374 10.2491 12.8553C10.1955 12.6732 10.1688 12.471 10.1688 12.2487C10.1688 11.9541 10.217 11.6971 10.3134 11.4775C10.4098 11.2579 10.5557 11.0865 10.7512 10.9633C10.9494 10.8401 11.1984 10.7785 11.4984 10.7785C11.7849 10.7785 12.0259 10.8401 12.2214 10.9633C12.4169 11.0838 12.5642 11.2552 12.6633 11.4775C12.765 11.6971 12.8159 11.9555 12.8159 12.2527ZM10.5504 12.2527C10.5504 12.4937 10.5838 12.7013 10.6508 12.8754C10.7177 13.0494 10.8208 13.1833 10.9601 13.2771C11.102 13.3708 11.2801 13.4176 11.4943 13.4176C11.7113 13.4176 11.888 13.3708 12.0246 13.2771C12.1638 13.1833 12.2669 13.0494 12.3339 12.8754C12.4008 12.7013 12.4343 12.4937 12.4343 12.2527C12.4343 11.8912 12.3593 11.6087 12.2094 11.4052C12.0594 11.199 11.8224 11.0959 11.4984 11.0959C11.2814 11.0959 11.102 11.1427 10.9601 11.2364C10.8208 11.3275 10.7177 11.4601 10.6508 11.6341C10.5838 11.8055 10.5504 12.0117 10.5504 12.2527ZM15.4379 13.6908H15.0763V11.14H14.1685C14.1498 11.2873 14.1297 11.4426 14.1082 11.606C14.0868 11.7667 14.0641 11.926 14.04 12.084C14.0185 12.242 13.9971 12.3906 13.9757 12.5299C13.9543 12.6692 13.9328 12.791 13.9114 12.8954C13.8766 13.0749 13.8338 13.2275 13.7829 13.3534C13.732 13.4792 13.6637 13.5743 13.578 13.6386C13.495 13.7028 13.3852 13.735 13.2486 13.735C13.2031 13.735 13.1562 13.7296 13.108 13.7189C13.0625 13.7109 13.0223 13.7002 12.9875 13.6868V13.3855C13.017 13.3989 13.0505 13.4109 13.0879 13.4217C13.1254 13.4297 13.1656 13.4337 13.2085 13.4337C13.2888 13.4337 13.3517 13.4016 13.3972 13.3373C13.4454 13.2704 13.4829 13.1887 13.5097 13.0923C13.5365 12.9932 13.5593 12.8954 13.578 12.799C13.5941 12.7214 13.6128 12.6183 13.6342 12.4897C13.6557 12.3585 13.6784 12.2059 13.7025 12.0318C13.7293 11.8577 13.7561 11.6689 13.7829 11.4654C13.8123 11.2592 13.8404 11.045 13.8672 10.8227H15.4379V13.6908ZM18.0168 13.6908L17.6713 12.8031H16.5345L16.1931 13.6908H15.8275L16.9483 10.8107H17.2736L18.3903 13.6908H18.0168ZM17.2415 11.614C17.2335 11.5926 17.2201 11.5538 17.2013 11.4975C17.1826 11.4413 17.1638 11.3837 17.1451 11.3248C17.129 11.2632 17.1156 11.2164 17.1049 11.1842C17.0915 11.2378 17.0768 11.2927 17.0607 11.3489C17.0473 11.4025 17.0326 11.452 17.0165 11.4975C17.0032 11.5431 16.9911 11.5819 16.9804 11.614L16.655 12.4817H17.5628L17.2415 11.614ZM20.7148 10.8227V13.3694H21.0804V14.446H20.7349V13.6908H18.7626V14.446H18.4171V13.3694H18.6381C18.7345 13.2034 18.8255 13.0173 18.9112 12.8111C18.9996 12.6049 19.0773 12.3893 19.1442 12.1644C19.2111 11.9367 19.266 11.7091 19.3089 11.4815C19.3517 11.2539 19.3785 11.0343 19.3892 10.8227H20.7148ZM19.7066 11.1481C19.6959 11.3034 19.6691 11.4788 19.6262 11.6743C19.5861 11.8698 19.5338 12.0706 19.4696 12.2768C19.408 12.4804 19.3384 12.6772 19.2607 12.8673C19.1857 13.0575 19.1054 13.2248 19.0197 13.3694H20.3573V11.1481H19.7066ZM23.517 12.3572C23.5679 12.4964 23.5934 12.6558 23.5934 12.8352C23.5934 12.9959 23.5733 13.1351 23.5331 13.2529C23.434 13.5663 23.2144 13.7229 22.8743 13.7229C22.6922 13.7229 22.5396 13.6747 22.4164 13.5783C22.2932 13.4792 22.2142 13.344 22.1794 13.1726C22.1607 13.0869 22.1513 12.9892 22.1513 12.8794C22.1513 12.8526 22.1647 12.8392 22.1915 12.8392H22.3963C22.4231 12.8392 22.4365 12.8526 22.4365 12.8794C22.4418 12.9945 22.4485 13.0722 22.4566 13.1124C22.4807 13.2248 22.5289 13.3132 22.6012 13.3775C22.6735 13.4417 22.7645 13.4739 22.8743 13.4739C23.0805 13.4739 23.2144 13.3694 23.276 13.1606C23.3001 13.0642 23.3122 12.949 23.3122 12.8151C23.3122 12.6544 23.2948 12.5219 23.26 12.4174C23.1903 12.23 23.0618 12.1362 22.8743 12.1362C22.8315 12.1362 22.794 12.1443 22.7619 12.1603C22.7458 12.1657 22.7364 12.1684 22.7337 12.1684C22.723 12.1684 22.7137 12.163 22.7056 12.1523L22.6012 12.0439C22.5878 12.0251 22.5865 12.0064 22.5972 11.9876L23.2238 11.1481C23.2292 11.1427 23.2305 11.1387 23.2278 11.136C23.2251 11.1307 23.2211 11.128 23.2158 11.128H22.2115C22.1848 11.128 22.1714 11.1146 22.1714 11.0878V10.9191C22.1714 10.8923 22.1848 10.8789 22.2115 10.8789H23.5411C23.5679 10.8789 23.5813 10.8923 23.5813 10.9191V11.0999C23.5813 11.1213 23.576 11.1387 23.5652 11.1521L22.9828 11.9474C22.9801 11.9501 22.9801 11.9541 22.9828 11.9595C22.9855 11.9649 22.9895 11.9675 22.9948 11.9675C23.1207 11.9729 23.2278 12.009 23.3162 12.076C23.4046 12.1429 23.4715 12.2367 23.517 12.3572ZM24.8383 13.731C24.608 13.731 24.4232 13.6613 24.2839 13.5221C24.1447 13.3828 24.0751 13.1967 24.0751 12.9637V11.606C24.0751 11.3757 24.1447 11.1909 24.2839 11.0517C24.4232 10.9124 24.608 10.8428 24.8383 10.8428C25.0713 10.8428 25.2574 10.9124 25.3966 11.0517C25.5386 11.1909 25.6095 11.3757 25.6095 11.606V12.9637C25.6095 13.1967 25.5386 13.3828 25.3966 13.5221C25.2574 13.6613 25.0713 13.731 24.8383 13.731ZM24.8383 13.4819C24.9856 13.4819 25.1034 13.4364 25.1918 13.3453C25.2801 13.2543 25.3243 13.1338 25.3243 12.9838V11.5899C25.3243 11.44 25.2801 11.3195 25.1918 11.2284C25.1034 11.1374 24.9856 11.0918 24.8383 11.0918C24.6963 11.0918 24.5812 11.1374 24.4928 11.2284C24.4044 11.3195 24.3603 11.44 24.3603 11.5899V12.9838C24.3603 13.1311 24.4044 13.2516 24.4928 13.3453C24.5812 13.4364 24.6963 13.4819 24.8383 13.4819ZM26.758 11.9836C26.6536 11.9836 26.5571 11.9582 26.4688 11.9073C26.3831 11.8564 26.3148 11.7881 26.2639 11.7024C26.213 11.614 26.1876 11.5176 26.1876 11.4132C26.1876 11.3088 26.213 11.2137 26.2639 11.128C26.3148 11.0396 26.3831 10.97 26.4688 10.9191C26.5571 10.8682 26.6536 10.8428 26.758 10.8428C26.8598 10.8428 26.9535 10.8682 27.0392 10.9191C27.1276 10.97 27.1972 11.0396 27.2481 11.128C27.2989 11.2137 27.3244 11.3088 27.3244 11.4132C27.3244 11.5176 27.2989 11.614 27.2481 11.7024C27.1972 11.7881 27.1276 11.8564 27.0392 11.9073C26.9535 11.9582 26.8598 11.9836 26.758 11.9836ZM26.6656 13.6908C26.6522 13.6908 26.6415 13.6868 26.6335 13.6787C26.6281 13.668 26.6295 13.656 26.6375 13.6426L28.1318 10.9071C28.1398 10.8883 28.1559 10.8789 28.18 10.8789H28.3085C28.3219 10.8789 28.3313 10.8843 28.3367 10.895C28.3447 10.903 28.3447 10.9138 28.3367 10.9271L26.8424 13.6627C26.8343 13.6814 26.8182 13.6908 26.7941 13.6908H26.6656ZM26.758 11.8069C26.8651 11.8069 26.9548 11.7694 27.0271 11.6944C27.1021 11.6167 27.1396 11.523 27.1396 11.4132C27.1396 11.3034 27.1021 11.211 27.0271 11.136C26.9548 11.0584 26.8651 11.0195 26.758 11.0195C26.6509 11.0195 26.5598 11.0584 26.4848 11.136C26.4099 11.211 26.3724 11.3034 26.3724 11.4132C26.3724 11.523 26.4099 11.6167 26.4848 11.6944C26.5598 11.7694 26.6509 11.8069 26.758 11.8069ZM28.2322 13.7269C28.1278 13.7269 28.0314 13.7015 27.943 13.6506C27.8573 13.5997 27.789 13.5301 27.7381 13.4417C27.6872 13.3534 27.6618 13.257 27.6618 13.1525C27.6618 13.0508 27.6872 12.957 27.7381 12.8713C27.789 12.783 27.8573 12.7133 27.943 12.6625C28.0314 12.6116 28.1278 12.5861 28.2322 12.5861C28.334 12.5861 28.4277 12.6116 28.5134 12.6625C28.6018 12.7133 28.6714 12.783 28.7223 12.8713C28.7732 12.957 28.7986 13.0508 28.7986 13.1525C28.7986 13.257 28.7732 13.3534 28.7223 13.4417C28.6714 13.5301 28.6018 13.5997 28.5134 13.6506C28.4277 13.7015 28.334 13.7269 28.2322 13.7269ZM28.2322 13.5502C28.3393 13.5502 28.429 13.5114 28.5013 13.4337C28.5763 13.3561 28.6138 13.2623 28.6138 13.1525C28.6138 13.0427 28.5763 12.9503 28.5013 12.8754C28.429 12.8004 28.3393 12.7629 28.2322 12.7629C28.1251 12.7629 28.034 12.8004 27.9591 12.8754C27.8841 12.9503 27.8466 13.0427 27.8466 13.1525C27.8466 13.265 27.8827 13.3601 27.955 13.4377C28.03 13.5127 28.1224 13.5502 28.2322 13.5502Z" fill="#404040"/>
<path d="M4.39175 47.6462V44.7781H6.09493V45.0955H4.75327V45.9913H5.17907C5.46561 45.9913 5.68788 46.0274 5.84588 46.0997C6.00388 46.1693 6.11368 46.2658 6.17527 46.3889C6.23686 46.5094 6.26766 46.6487 6.26766 46.8067C6.26766 46.9808 6.23285 47.1307 6.16322 47.2566C6.09627 47.3825 5.98647 47.4789 5.83383 47.5458C5.68119 47.6128 5.48034 47.6462 5.23129 47.6462H4.39175ZM5.19514 47.3369C5.45222 47.3369 5.63298 47.2941 5.73742 47.2084C5.84186 47.12 5.89408 46.9861 5.89408 46.8067C5.89408 46.6835 5.86864 46.5858 5.81776 46.5135C5.76956 46.4385 5.68922 46.3849 5.57675 46.3528C5.46695 46.3207 5.31966 46.3046 5.13488 46.3046H4.75327V47.3369H5.19514ZM8.6627 47.6462L8.31724 46.7585H7.18045L6.83901 47.6462H6.47346L7.59419 44.7661H7.91956L9.03627 47.6462H8.6627ZM7.88743 45.5695C7.87939 45.5481 7.866 45.5092 7.84726 45.453C7.82851 45.3968 7.80977 45.3392 7.79102 45.2803C7.77495 45.2187 7.76156 45.1718 7.75085 45.1397C7.73746 45.1932 7.72273 45.2481 7.70667 45.3044C7.69328 45.3579 7.67855 45.4075 7.66248 45.453C7.64909 45.4985 7.63704 45.5373 7.62633 45.5695L7.30095 46.4371H8.20878L7.88743 45.5695ZM11.6219 47.6462H11.2603V46.3086H9.79014V47.6462H9.42861V44.7781H9.79014V45.9913H11.2603V44.7781H11.6219V47.6462ZM14.2056 47.6462L13.8601 46.7585H12.7234L12.3819 47.6462H12.0164L13.1371 44.7661H13.4625L14.5792 47.6462H14.2056ZM13.4303 45.5695C13.4223 45.5481 13.4089 45.5092 13.3902 45.453C13.3714 45.3968 13.3527 45.3392 13.3339 45.2803C13.3179 45.2187 13.3045 45.1718 13.2938 45.1397C13.2804 45.1932 13.2656 45.2481 13.2496 45.3044C13.2362 45.3579 13.2215 45.4075 13.2054 45.453C13.192 45.4985 13.1799 45.5373 13.1692 45.5695L12.8439 46.4371H13.7517L13.4303 45.5695ZM17.1648 47.6462H16.8032V46.3086H15.333V47.6462H14.9715V44.7781H15.333V45.9913H16.8032V44.7781H17.1648V47.6462ZM18.9218 47.3771C18.9138 47.3905 18.9164 47.3972 18.9298 47.3972H20.0345C20.0613 47.3972 20.0747 47.4106 20.0747 47.4374V47.6061C20.0747 47.6329 20.0613 47.6462 20.0345 47.6462H18.6045C18.5777 47.6462 18.5643 47.6329 18.5643 47.6061V47.4293C18.5643 47.4133 18.5697 47.3959 18.5804 47.3771C18.8214 47.0504 19.0905 46.6755 19.3878 46.2524C19.5993 45.9444 19.7051 45.698 19.7051 45.5132C19.7051 45.374 19.6649 45.2629 19.5846 45.1798C19.5043 45.0941 19.3985 45.0513 19.2673 45.0513C19.1387 45.0513 19.0356 45.0941 18.958 45.1798C18.8803 45.2629 18.8428 45.374 18.8455 45.5132V45.6498C18.8455 45.6766 18.8321 45.69 18.8053 45.69H18.5964C18.5697 45.69 18.5563 45.6766 18.5563 45.6498V45.4891C18.5616 45.2829 18.6299 45.1169 18.7611 44.991C18.895 44.8652 19.0664 44.8022 19.2753 44.8022C19.4895 44.8022 19.6623 44.8679 19.7935 44.9991C19.9247 45.1303 19.9903 45.3017 19.9903 45.5132C19.9903 45.7489 19.8805 46.0274 19.6609 46.3488C19.5243 46.5469 19.3088 46.8469 19.0142 47.2486L18.9218 47.3771ZM21.2546 47.6864C21.0243 47.6864 20.8396 47.6168 20.7003 47.4775C20.561 47.3383 20.4914 47.1522 20.4914 46.9192V45.5614C20.4914 45.3311 20.561 45.1464 20.7003 45.0071C20.8396 44.8679 21.0243 44.7982 21.2546 44.7982C21.4876 44.7982 21.6737 44.8679 21.813 45.0071C21.9549 45.1464 22.0259 45.3311 22.0259 45.5614V46.9192C22.0259 47.1522 21.9549 47.3383 21.813 47.4775C21.6737 47.6168 21.4876 47.6864 21.2546 47.6864ZM21.2546 47.4374C21.4019 47.4374 21.5198 47.3918 21.6081 47.3008C21.6965 47.2097 21.7407 47.0892 21.7407 46.9393V45.5454C21.7407 45.3954 21.6965 45.2749 21.6081 45.1839C21.5198 45.0928 21.4019 45.0473 21.2546 45.0473C21.1127 45.0473 20.9976 45.0928 20.9092 45.1839C20.8208 45.2749 20.7766 45.3954 20.7766 45.5454V46.9393C20.7766 47.0865 20.8208 47.2071 20.9092 47.3008C20.9976 47.3918 21.1127 47.4374 21.2546 47.4374ZM23.1744 45.939C23.0699 45.939 22.9735 45.9136 22.8851 45.8627C22.7994 45.8118 22.7312 45.7435 22.6803 45.6579C22.6294 45.5695 22.604 45.4731 22.604 45.3686C22.604 45.2642 22.6294 45.1691 22.6803 45.0834C22.7312 44.9951 22.7994 44.9254 22.8851 44.8746C22.9735 44.8237 23.0699 44.7982 23.1744 44.7982C23.2761 44.7982 23.3699 44.8237 23.4555 44.8746C23.5439 44.9254 23.6135 44.9951 23.6644 45.0834C23.7153 45.1691 23.7407 45.2642 23.7407 45.3686C23.7407 45.4731 23.7153 45.5695 23.6644 45.6579C23.6135 45.7435 23.5439 45.8118 23.4555 45.8627C23.3699 45.9136 23.2761 45.939 23.1744 45.939ZM23.082 47.6462C23.0686 47.6462 23.0579 47.6422 23.0498 47.6342C23.0445 47.6235 23.0458 47.6114 23.0539 47.598L24.5482 44.8625C24.5562 44.8438 24.5723 44.8344 24.5964 44.8344H24.7249C24.7383 44.8344 24.7477 44.8397 24.753 44.8505C24.7611 44.8585 24.7611 44.8692 24.753 44.8826L23.2587 47.6181C23.2507 47.6369 23.2346 47.6462 23.2105 47.6462H23.082ZM23.1744 45.7623C23.2815 45.7623 23.3712 45.7248 23.4435 45.6498C23.5185 45.5722 23.556 45.4784 23.556 45.3686C23.556 45.2588 23.5185 45.1664 23.4435 45.0915C23.3712 45.0138 23.2815 44.975 23.1744 44.975C23.0672 44.975 22.9762 45.0138 22.9012 45.0915C22.8262 45.1664 22.7887 45.2588 22.7887 45.3686C22.7887 45.4784 22.8262 45.5722 22.9012 45.6498C22.9762 45.7248 23.0672 45.7623 23.1744 45.7623ZM24.6486 47.6824C24.5441 47.6824 24.4477 47.657 24.3594 47.6061C24.2737 47.5552 24.2054 47.4856 24.1545 47.3972C24.1036 47.3088 24.0782 47.2124 24.0782 47.108C24.0782 47.0062 24.1036 46.9125 24.1545 46.8268C24.2054 46.7384 24.2737 46.6688 24.3594 46.6179C24.4477 46.567 24.5441 46.5416 24.6486 46.5416C24.7503 46.5416 24.8441 46.567 24.9298 46.6179C25.0181 46.6688 25.0878 46.7384 25.1386 46.8268C25.1895 46.9125 25.215 47.0062 25.215 47.108C25.215 47.2124 25.1895 47.3088 25.1386 47.3972C25.0878 47.4856 25.0181 47.5552 24.9298 47.6061C24.8441 47.657 24.7503 47.6824 24.6486 47.6824ZM24.6486 47.5056C24.7557 47.5056 24.8454 47.4668 24.9177 47.3892C24.9927 47.3115 25.0302 47.2178 25.0302 47.108C25.0302 46.9982 24.9927 46.9058 24.9177 46.8308C24.8454 46.7558 24.7557 46.7183 24.6486 46.7183C24.5415 46.7183 24.4504 46.7558 24.3754 46.8308C24.3004 46.9058 24.263 46.9982 24.263 47.108C24.263 47.2204 24.2991 47.3155 24.3714 47.3932C24.4464 47.4682 24.5388 47.5056 24.6486 47.5056Z" fill="#404040"/>
<path d="M71.4092 43.8583H70.9754L69.6779 42.4041V43.8583H69.3164V40.9902H69.6779V42.38L70.9432 40.9902H71.353L70.1077 42.3841L71.4092 43.8583ZM73.8642 43.8583H73.5027V41.3075H72.5949C72.5761 41.4548 72.556 41.6101 72.5346 41.7735C72.5132 41.9342 72.4904 42.0935 72.4663 42.2515C72.4449 42.4095 72.4235 42.5581 72.402 42.6974C72.3806 42.8366 72.3592 42.9585 72.3378 43.0629C72.303 43.2423 72.2601 43.395 72.2092 43.5209C72.1583 43.6467 72.0901 43.7418 72.0044 43.8061C71.9213 43.8703 71.8115 43.9025 71.675 43.9025C71.6294 43.9025 71.5826 43.8971 71.5344 43.8864C71.4889 43.8784 71.4487 43.8676 71.4139 43.8543V43.553C71.4433 43.5664 71.4768 43.5784 71.5143 43.5891C71.5518 43.5972 71.592 43.6012 71.6348 43.6012C71.7151 43.6012 71.7781 43.5691 71.8236 43.5048C71.8718 43.4378 71.9093 43.3562 71.9361 43.2598C71.9629 43.1607 71.9856 43.0629 72.0044 42.9665C72.0204 42.8889 72.0392 42.7858 72.0606 42.6572C72.082 42.526 72.1048 42.3733 72.1289 42.1993C72.1557 42.0252 72.1824 41.8364 72.2092 41.6329C72.2387 41.4267 72.2668 41.2125 72.2936 40.9902H73.8642V43.8583ZM75.8446 43.0428C75.7589 43.233 75.6719 43.3923 75.5835 43.5209C75.4978 43.6467 75.396 43.7418 75.2782 43.8061C75.1604 43.8676 75.0104 43.8984 74.8283 43.8984C74.7533 43.8984 74.6824 43.8931 74.6154 43.8824C74.5511 43.8717 74.4922 43.8569 74.4387 43.8382V43.4807C74.4922 43.5048 74.5498 43.5249 74.6114 43.5409C74.673 43.5543 74.7373 43.561 74.8042 43.561C74.9033 43.561 74.9876 43.5476 75.0573 43.5209C75.1296 43.4914 75.1925 43.4445 75.2461 43.3803C75.3023 43.316 75.3545 43.2303 75.4027 43.1232L74.2981 40.9902H74.6957L75.4951 42.5688C75.5058 42.5876 75.5165 42.6103 75.5272 42.6371C75.538 42.6612 75.5487 42.6867 75.5594 42.7134C75.5728 42.7402 75.5835 42.7657 75.5915 42.7898H75.6076C75.6156 42.771 75.6237 42.7496 75.6317 42.7255C75.6424 42.6987 75.6518 42.6733 75.6598 42.6492C75.6705 42.6224 75.6799 42.5996 75.6879 42.5809L76.3788 40.9902H76.7604L75.8446 43.0428ZM77.1502 43.8583V40.9902H78.8534V41.3075H77.5117V42.2033H77.9375C78.224 42.2033 78.4463 42.2394 78.6043 42.3118C78.7623 42.3814 78.8721 42.4778 78.9337 42.601C78.9953 42.7215 79.0261 42.8607 79.0261 43.0187C79.0261 43.1928 78.9913 43.3428 78.9217 43.4686C78.8547 43.5945 78.7449 43.6909 78.5923 43.7579C78.4396 43.8248 78.2388 43.8583 77.9897 43.8583H77.1502ZM77.9536 43.549C78.2107 43.549 78.3914 43.5061 78.4959 43.4204C78.6003 43.3321 78.6525 43.1982 78.6525 43.0187C78.6525 42.8955 78.6271 42.7978 78.5762 42.7255C78.528 42.6505 78.4477 42.597 78.3352 42.5648C78.2254 42.5327 78.0781 42.5166 77.8933 42.5166H77.5117V43.549H77.9536ZM81.8148 43.8583H81.4533V42.5206H79.9831V43.8583H79.6215V40.9902H79.9831V42.2033H81.4533V40.9902H81.8148V43.8583ZM82.603 40.9902H82.9404V42.5648C82.9404 42.6318 82.939 42.7054 82.9364 42.7858C82.9364 42.8634 82.935 42.9411 82.9324 43.0187C82.9297 43.0964 82.9257 43.166 82.9203 43.2276C82.9176 43.2865 82.9149 43.3321 82.9123 43.3642H82.9283L84.507 40.9902H84.9087V43.8583H84.5713V42.2997C84.5713 42.2274 84.5726 42.1497 84.5753 42.0667C84.578 41.981 84.5806 41.8993 84.5833 41.8217C84.5887 41.7413 84.5927 41.6704 84.5954 41.6088C84.598 41.5472 84.6007 41.5017 84.6034 41.4722H84.5873L83.0047 43.8583H82.603V40.9902ZM87.7068 43.8583H87.3453V42.6813C87.19 42.7349 87.044 42.7791 86.9074 42.8139C86.7735 42.846 86.6236 42.8621 86.4575 42.8621C86.1897 42.8621 85.9822 42.8005 85.8349 42.6773C85.6876 42.5514 85.614 42.3707 85.614 42.135V40.9902H85.9755V42.0828C85.9755 42.2381 86.0157 42.3546 86.096 42.4323C86.179 42.5072 86.3116 42.5447 86.4937 42.5447C86.6517 42.5447 86.7936 42.53 86.9195 42.5006C87.0453 42.4711 87.1873 42.4309 87.3453 42.38V40.9902H87.7068V43.8583ZM90.6803 43.8583H90.3188V42.5206H88.8486V43.8583H88.4871V40.9902H88.8486V42.2033H90.3188V40.9902H90.6803V43.8583ZM91.4645 43.8583V40.9902H91.826V42.2033H92.2678C92.5356 42.2033 92.7459 42.2394 92.8985 42.3118C93.0538 42.3841 93.1636 42.4818 93.2279 42.605C93.2948 42.7282 93.3283 42.8661 93.3283 43.0187C93.3283 43.1874 93.2922 43.3347 93.2199 43.4606C93.1502 43.5865 93.0404 43.6842 92.8905 43.7538C92.7405 43.8235 92.5477 43.8583 92.312 43.8583H91.4645ZM92.2799 43.553C92.5102 43.553 92.6802 43.5088 92.79 43.4204C92.8998 43.3321 92.9547 43.1982 92.9547 43.0187C92.9547 42.8955 92.928 42.7978 92.8744 42.7255C92.8235 42.6532 92.7445 42.601 92.6374 42.5688C92.5303 42.5367 92.3937 42.5206 92.2277 42.5206H91.826V43.553H92.2799ZM93.7702 43.8583V40.9902H94.1317V43.8583H93.7702ZM96.8688 40.0984C96.8581 40.2323 96.8247 40.3448 96.7684 40.4358C96.7149 40.5269 96.6345 40.5952 96.5274 40.6407C96.4203 40.6862 96.281 40.709 96.1096 40.709C95.9356 40.709 95.795 40.6862 95.6879 40.6407C95.5834 40.5952 95.5071 40.5282 95.4589 40.4399C95.4107 40.3488 95.3812 40.235 95.3705 40.0984H95.6999C95.7133 40.243 95.7508 40.3408 95.8124 40.3917C95.8767 40.4399 95.9784 40.464 96.1177 40.464C96.2409 40.464 96.3373 40.4385 96.4069 40.3876C96.4792 40.3341 96.522 40.2377 96.5354 40.0984H96.8688ZM94.9166 40.9902H95.254V42.5648C95.254 42.6318 95.2527 42.7054 95.25 42.7858C95.25 42.8634 95.2487 42.9411 95.246 43.0187C95.2433 43.0964 95.2393 43.166 95.2339 43.2276C95.2313 43.2865 95.2286 43.3321 95.2259 43.3642H95.242L96.8206 40.9902H97.2223V43.8583H96.8849V42.2997C96.8849 42.2274 96.8862 42.1497 96.8889 42.0667C96.8916 41.981 96.8943 41.8993 96.897 41.8217C96.9023 41.7413 96.9063 41.6704 96.909 41.6088C96.9117 41.5472 96.9144 41.5017 96.917 41.4722H96.901L95.3183 43.8583H94.9166V40.9902ZM70.5817 48.8583L69.6377 46.3437H69.6217C69.627 46.3972 69.631 46.4655 69.6337 46.5485C69.6391 46.6316 69.6431 46.7226 69.6458 46.8217C69.6484 46.9181 69.6498 47.0172 69.6498 47.1189V48.8583H69.3164V45.9902H69.8506L70.7343 48.3401H70.7504L71.6502 45.9902H72.1804V48.8583H71.8229V47.0948C71.8229 47.0011 71.8243 46.9087 71.827 46.8177C71.8296 46.7239 71.8337 46.6369 71.839 46.5566C71.8444 46.4736 71.8484 46.4039 71.8511 46.3477H71.835L70.879 48.8583H70.5817ZM72.9647 45.9902H73.3021V47.5648C73.3021 47.6318 73.3007 47.7054 73.2981 47.7858C73.2981 47.8634 73.2967 47.9411 73.2941 48.0187C73.2914 48.0964 73.2874 48.166 73.282 48.2276C73.2793 48.2865 73.2766 48.3321 73.274 48.3642H73.29L74.8687 45.9902H75.2704V48.8583H74.933V47.2997C74.933 47.2274 74.9343 47.1497 74.937 47.0667C74.9397 46.981 74.9423 46.8993 74.945 46.8217C74.9504 46.7413 74.9544 46.6704 74.9571 46.6088C74.9597 46.5472 74.9624 46.5017 74.9651 46.4722H74.949L73.3664 48.8583H72.9647V45.9902ZM78.1087 48.8583H77.7471V46.3075H76.8393C76.8206 46.4548 76.8005 46.6101 76.7791 46.7735C76.7576 46.9342 76.7349 47.0935 76.7108 47.2515C76.6893 47.4095 76.6679 47.5581 76.6465 47.6974C76.6251 47.8366 76.6037 47.9585 76.5822 48.0629C76.5474 48.2423 76.5046 48.395 76.4537 48.5209C76.4028 48.6467 76.3345 48.7418 76.2488 48.8061C76.1658 48.8703 76.056 48.9025 75.9194 48.9025C75.8739 48.9025 75.827 48.8971 75.7788 48.8864C75.7333 48.8784 75.6931 48.8676 75.6583 48.8543V48.553C75.6878 48.5664 75.7213 48.5784 75.7588 48.5891C75.7962 48.5972 75.8364 48.6012 75.8793 48.6012C75.9596 48.6012 76.0225 48.5691 76.0681 48.5048C76.1163 48.4378 76.1538 48.3562 76.1805 48.2598C76.2073 48.1607 76.2301 48.0629 76.2488 47.9665C76.2649 47.8889 76.2836 47.7858 76.3051 47.6572C76.3265 47.526 76.3492 47.3733 76.3733 47.1993C76.4001 47.0252 76.4269 46.8364 76.4537 46.6329C76.4831 46.4267 76.5113 46.2125 76.538 45.9902H78.1087V48.8583ZM80.2899 45.95V46.3035C80.6005 46.3089 80.8456 46.3597 81.025 46.4561C81.2044 46.5526 81.3316 46.6811 81.4066 46.8418C81.4816 46.9998 81.5191 47.1765 81.5191 47.372C81.5191 47.5006 81.499 47.6291 81.4588 47.7576C81.4213 47.8835 81.3557 47.9987 81.262 48.1031C81.1683 48.2049 81.0424 48.2879 80.8844 48.3521C80.7264 48.4164 80.5282 48.4512 80.2899 48.4566V48.8984H79.9324V48.4566C79.6887 48.4512 79.4865 48.4164 79.3258 48.3521C79.1678 48.2852 79.0433 48.1995 78.9523 48.0951C78.8612 47.9879 78.7969 47.8714 78.7594 47.7456C78.722 47.6197 78.7032 47.4952 78.7032 47.372C78.7032 47.2301 78.7233 47.0962 78.7635 46.9703C78.8063 46.8418 78.8746 46.7293 78.9683 46.6329C79.0647 46.5338 79.1919 46.4548 79.3499 46.3959C79.5079 46.337 79.7021 46.3062 79.9324 46.3035V45.95H80.2899ZM79.9324 46.6088C79.7182 46.6141 79.5468 46.649 79.4182 46.7132C79.2924 46.7775 79.2026 46.8659 79.1491 46.9783C79.0955 47.0881 79.0687 47.218 79.0687 47.368C79.0687 47.526 79.0982 47.6639 79.1571 47.7817C79.2187 47.8969 79.3124 47.9866 79.4383 48.0509C79.5668 48.1151 79.7315 48.1513 79.9324 48.1593V46.6088ZM80.2899 48.1593C80.4961 48.1513 80.6621 48.1138 80.788 48.0469C80.9165 47.9799 81.0089 47.8889 81.0652 47.7737C81.1241 47.6559 81.1535 47.5206 81.1535 47.368C81.1535 47.2153 81.1268 47.0841 81.0732 46.9743C81.0196 46.8619 80.9299 46.7748 80.8041 46.7132C80.6782 46.649 80.5068 46.6141 80.2899 46.6088V48.1593ZM83.7192 48.8583H82.1164V45.9902H83.7192V46.3075H82.478V47.2033H83.6469V47.5166H82.478V48.5409H83.7192V48.8583ZM86.3048 45.0984C86.294 45.2323 86.2606 45.3448 86.2043 45.4358C86.1508 45.5269 86.0704 45.5952 85.9633 45.6407C85.8562 45.6862 85.7169 45.709 85.5456 45.709C85.3715 45.709 85.2309 45.6862 85.1238 45.6407C85.0193 45.5952 84.943 45.5282 84.8948 45.4399C84.8466 45.3488 84.8172 45.235 84.8064 45.0984H85.1358C85.1492 45.243 85.1867 45.3408 85.2483 45.3917C85.3126 45.4399 85.4143 45.464 85.5536 45.464C85.6768 45.464 85.7732 45.4385 85.8428 45.3876C85.9151 45.3341 85.958 45.2377 85.9714 45.0984H86.3048ZM84.3525 45.9902H84.69V47.5648C84.69 47.6318 84.6886 47.7054 84.6859 47.7858C84.6859 47.8634 84.6846 47.9411 84.6819 48.0187C84.6792 48.0964 84.6752 48.166 84.6699 48.2276C84.6672 48.2865 84.6645 48.3321 84.6618 48.3642H84.6779L86.2566 45.9902H86.6583V48.8583H86.3208V47.2997C86.3208 47.2274 86.3222 47.1497 86.3248 47.0667C86.3275 46.981 86.3302 46.8993 86.3329 46.8217C86.3382 46.7413 86.3423 46.6704 86.3449 46.6088C86.3476 46.5472 86.3503 46.5017 86.353 46.4722H86.3369L84.7542 48.8583H84.3525V45.9902ZM89.4732 47.5608C89.508 47.6867 89.5254 47.8313 89.5254 47.9946C89.5254 48.1312 89.5134 48.249 89.4893 48.3481C89.4491 48.5222 89.3688 48.6561 89.2483 48.7498C89.1304 48.8435 88.9818 48.8904 88.8024 48.8904C88.6203 48.8904 88.469 48.8422 88.3485 48.7458C88.228 48.6494 88.149 48.5142 88.1115 48.3401C88.0981 48.2919 88.09 48.2423 88.0874 48.1915V48.1834C88.0874 48.162 88.0994 48.1513 88.1235 48.1513H88.3324C88.3565 48.1513 88.3699 48.162 88.3726 48.1834V48.1995L88.3886 48.2798C88.4127 48.395 88.4596 48.4834 88.5292 48.545C88.6015 48.6065 88.6926 48.6373 88.8024 48.6373C88.9095 48.6373 88.9979 48.6065 89.0675 48.545C89.1398 48.4807 89.188 48.391 89.2121 48.2758C89.2309 48.2008 89.2402 48.1084 89.2402 47.9987C89.2402 47.8969 89.2295 47.7924 89.2081 47.6853C89.184 47.5782 89.1371 47.4979 89.0675 47.4443C88.9979 47.3881 88.9095 47.36 88.8024 47.36C88.7006 47.36 88.6122 47.3841 88.5373 47.4323C88.465 47.4778 88.4141 47.5447 88.3846 47.6331L88.3766 47.6492C88.3739 47.6679 88.3605 47.6773 88.3364 47.6773H88.1235C88.0967 47.6773 88.0834 47.6639 88.0834 47.6371V46.0866C88.0834 46.0598 88.0967 46.0464 88.1235 46.0464H89.3969C89.4237 46.0464 89.4371 46.0598 89.4371 46.0866V46.2553C89.4371 46.2821 89.4237 46.2955 89.3969 46.2955H88.3846C88.3739 46.2955 88.3686 46.3008 88.3686 46.3115V47.2957C88.3686 47.301 88.3699 47.3051 88.3726 47.3077C88.3779 47.3077 88.3833 47.3051 88.3886 47.2997C88.4422 47.2408 88.5091 47.1953 88.5895 47.1631C88.6725 47.1283 88.7609 47.1109 88.8546 47.1109C89.0126 47.1109 89.1438 47.1497 89.2483 47.2274C89.3554 47.3024 89.4304 47.4135 89.4732 47.5608ZM90.7062 48.8984C90.4759 48.8984 90.2911 48.8288 90.1518 48.6896C90.0126 48.5503 89.9429 48.3642 89.9429 48.1312V46.7735C89.9429 46.5432 90.0126 46.3584 90.1518 46.2191C90.2911 46.0799 90.4759 46.0103 90.7062 46.0103C90.9391 46.0103 91.1253 46.0799 91.2645 46.2191C91.4065 46.3584 91.4774 46.5432 91.4774 46.7735V48.1312C91.4774 48.3642 91.4065 48.5503 91.2645 48.6896C91.1253 48.8288 90.9391 48.8984 90.7062 48.8984ZM90.7062 48.6494C90.8535 48.6494 90.9713 48.6039 91.0597 48.5128C91.148 48.4218 91.1922 48.3013 91.1922 48.1513V46.7574C91.1922 46.6075 91.148 46.4869 91.0597 46.3959C90.9713 46.3048 90.8535 46.2593 90.7062 46.2593C90.5642 46.2593 90.4491 46.3048 90.3607 46.3959C90.2723 46.4869 90.2281 46.6075 90.2281 46.7574V48.1513C90.2281 48.2986 90.2723 48.4191 90.3607 48.5128C90.4491 48.6039 90.5642 48.6494 90.7062 48.6494ZM92.6259 47.1511C92.5214 47.1511 92.425 47.1256 92.3367 47.0748C92.251 47.0239 92.1827 46.9556 92.1318 46.8699C92.0809 46.7815 92.0555 46.6851 92.0555 46.5807C92.0555 46.4762 92.0809 46.3812 92.1318 46.2955C92.1827 46.2071 92.251 46.1375 92.3367 46.0866C92.425 46.0357 92.5214 46.0103 92.6259 46.0103C92.7276 46.0103 92.8214 46.0357 92.9071 46.0866C92.9954 46.1375 93.0651 46.2071 93.116 46.2955C93.1668 46.3812 93.1923 46.4762 93.1923 46.5807C93.1923 46.6851 93.1668 46.7815 93.116 46.8699C93.0651 46.9556 92.9954 47.0239 92.9071 47.0748C92.8214 47.1256 92.7276 47.1511 92.6259 47.1511ZM92.5335 48.8583C92.5201 48.8583 92.5094 48.8543 92.5014 48.8462C92.496 48.8355 92.4973 48.8235 92.5054 48.8101L93.9997 46.0745C94.0077 46.0558 94.0238 46.0464 94.0479 46.0464H94.1764C94.1898 46.0464 94.1992 46.0518 94.2045 46.0625C94.2126 46.0705 94.2126 46.0812 94.2045 46.0946L92.7102 48.8302C92.7022 48.8489 92.6861 48.8583 92.662 48.8583H92.5335ZM92.6259 46.9743C92.733 46.9743 92.8227 46.9368 92.895 46.8619C92.97 46.7842 93.0075 46.6905 93.0075 46.5807C93.0075 46.4709 92.97 46.3785 92.895 46.3035C92.8227 46.2258 92.733 46.187 92.6259 46.187C92.5188 46.187 92.4277 46.2258 92.3527 46.3035C92.2777 46.3785 92.2403 46.4709 92.2403 46.5807C92.2403 46.6905 92.2777 46.7842 92.3527 46.8619C92.4277 46.9368 92.5188 46.9743 92.6259 46.9743ZM94.1001 48.8944C93.9957 48.8944 93.8993 48.869 93.8109 48.8181C93.7252 48.7672 93.6569 48.6976 93.606 48.6092C93.5551 48.5209 93.5297 48.4244 93.5297 48.32C93.5297 48.2182 93.5551 48.1245 93.606 48.0388C93.6569 47.9504 93.7252 47.8808 93.8109 47.8299C93.8993 47.7791 93.9957 47.7536 94.1001 47.7536C94.2019 47.7536 94.2956 47.7791 94.3813 47.8299C94.4697 47.8808 94.5393 47.9504 94.5902 48.0388C94.641 48.1245 94.6665 48.2182 94.6665 48.32C94.6665 48.4244 94.641 48.5209 94.5902 48.6092C94.5393 48.6976 94.4697 48.7672 94.3813 48.8181C94.2956 48.869 94.2019 48.8944 94.1001 48.8944ZM94.1001 48.7177C94.2072 48.7177 94.2969 48.6789 94.3692 48.6012C94.4442 48.5235 94.4817 48.4298 94.4817 48.32C94.4817 48.2102 94.4442 48.1178 94.3692 48.0428C94.2969 47.9679 94.2072 47.9304 94.1001 47.9304C93.993 47.9304 93.9019 47.9679 93.8269 48.0428C93.752 48.1178 93.7145 48.2102 93.7145 48.32C93.7145 48.4325 93.7506 48.5275 93.8229 48.6052C93.8979 48.6802 93.9903 48.7177 94.1001 48.7177Z" fill="#404040"/>
<path d="M61.906 42.0059L64.448 45.2692H74.9791" stroke="black" stroke-width="0.145684"/>
<path fill-rule="evenodd" clip-rule="evenodd" d="M49.1992 26.5742C49.1103 26.762 49.0215 26.8246 48.817 26.8246C48.5593 26.8246 48.5504 26.8246 48.7104 27.0034C48.8437 27.1554 48.8526 27.218 48.7637 27.4147L48.6571 27.6561L48.8881 27.5041C49.0926 27.37 49.1281 27.37 49.3325 27.5041C49.5547 27.6472 49.5547 27.6472 49.5014 27.3879C49.457 27.1733 49.4925 27.1107 49.697 27.0034L49.9369 26.8693L49.6881 26.8246C49.5103 26.7888 49.4125 26.7083 49.3681 26.5563L49.3148 26.3328L49.1992 26.5742Z" fill="black"/>
<path fill-rule="evenodd" clip-rule="evenodd" d="M47.3326 26.6726C47.3326 26.7262 46.7104 30.2671 46.6749 30.4192C46.6393 30.5622 46.7104 30.5801 47.1459 30.5801H47.6525L47.9547 28.8544C48.1147 27.9155 48.2658 27.0302 48.2925 26.8872C48.328 26.6458 48.328 26.6458 47.8303 26.6458C47.5548 26.6458 47.3326 26.6547 47.3326 26.6726Z" fill="black"/>
<path fill-rule="evenodd" clip-rule="evenodd" d="M37.2886 26.932C36.8353 27.1645 36.5776 27.5848 36.5776 28.0855C36.5776 28.5415 36.8442 28.8366 37.4753 29.0691C38.0885 29.2926 38.1863 29.3999 37.9463 29.5698C37.7419 29.7218 37.4042 29.6503 37.1642 29.4178C36.9953 29.2569 36.9864 29.2569 36.5598 29.4715C36.3287 29.5877 36.1332 29.7308 36.1332 29.7755C36.1332 29.8202 36.2576 29.999 36.4087 30.1689C37.0575 30.9111 38.6129 30.7591 39.0129 29.9096C39.3684 29.1675 39.0751 28.6131 38.1596 28.2554C37.6175 28.0408 37.5019 27.8441 37.8575 27.7547C38.0885 27.701 38.4441 27.8441 38.4441 27.9961C38.4441 28.0408 38.6485 27.9782 38.8885 27.853C39.1373 27.7278 39.3329 27.5758 39.3329 27.5132C39.3329 27.3791 38.9329 26.9857 38.6485 26.8337C38.3374 26.6727 37.7152 26.7174 37.2886 26.932Z" fill="black"/>
<path fill-rule="evenodd" clip-rule="evenodd" d="M40.3728 27.2896C40.115 27.3611 40.0084 27.4505 39.9373 27.6383C39.884 27.7992 39.7862 27.8976 39.6795 27.8976C39.5107 27.8976 39.4484 28.0496 39.404 28.5682C39.3862 28.7739 39.4129 28.8365 39.5284 28.8275C39.6618 28.8186 39.6795 28.8901 39.6262 29.4982C39.5818 30.142 39.5907 30.1867 39.804 30.3923C39.9817 30.5533 40.1328 30.598 40.4883 30.598C40.7372 30.598 40.9505 30.5891 40.9683 30.5712C40.9861 30.5533 41.0305 30.3476 41.0572 30.1062C41.1194 29.7038 41.1105 29.6859 40.9061 29.6859C40.6483 29.6859 40.5861 29.5697 40.6394 29.1673C40.6839 28.9259 40.7194 28.8812 40.9416 28.8812C41.2349 28.8812 41.2705 28.8365 41.3683 28.3089L41.4394 27.8976H41.1816C40.9239 27.8976 40.915 27.8887 40.9505 27.5399C40.9861 27.1465 40.9594 27.1376 40.3728 27.2896Z" fill="black"/>
<path fill-rule="evenodd" clip-rule="evenodd" d="M42.2127 27.978C41.4484 28.443 41.1462 29.5607 41.5995 30.2582C41.8661 30.6605 42.4172 30.7768 42.8882 30.5354C43.0393 30.4549 43.1549 30.437 43.1549 30.4907C43.1549 30.5443 43.3682 30.5801 43.6437 30.5801C43.9103 30.5801 44.1325 30.5532 44.1325 30.5085C44.1325 30.4728 44.2303 29.8826 44.3547 29.203C44.4792 28.5145 44.5769 27.9423 44.5769 27.9244C44.5769 27.8439 43.6082 27.9154 43.5815 27.9959C43.5637 28.0496 43.4571 28.0406 43.2882 27.9512C42.9327 27.7634 42.5505 27.7724 42.2127 27.978ZM43.1638 28.7917C43.2704 28.8543 43.3326 28.9795 43.3326 29.1315C43.3326 29.6412 42.8527 29.9184 42.5327 29.5965C42.3194 29.3819 42.3549 29.1047 42.6394 28.8543C42.8438 28.6755 42.9238 28.6665 43.1638 28.7917Z" fill="black"/>
<path fill-rule="evenodd" clip-rule="evenodd" d="M46.3282 27.9782C46.0704 28.1124 45.9993 28.1213 45.9993 28.023C45.9993 27.9335 45.866 27.8978 45.5105 27.8978C45.075 27.8978 45.0216 27.9246 44.9772 28.0945C44.8972 28.4969 44.5772 30.3567 44.5772 30.464C44.5772 30.5445 44.7283 30.5803 45.0572 30.5803H45.5371L45.6438 29.9991C45.7682 29.3284 45.9815 29.0065 46.3548 28.9261C46.4971 28.8903 46.6393 28.8366 46.657 28.8098C46.737 28.6668 46.8081 27.8083 46.737 27.8083C46.6926 27.8083 46.5148 27.8888 46.3282 27.9782Z" fill="black"/>
<path fill-rule="evenodd" clip-rule="evenodd" d="M51.2255 27.9333C51.0833 28.0049 50.9766 28.0228 50.9766 27.9781C50.9766 27.9244 50.7633 27.8976 50.47 27.9155L49.9634 27.9423L49.759 29.1047C49.4834 30.6874 49.4657 30.5801 50.0256 30.5801H50.4967L50.6478 29.8111C50.8078 28.9616 50.9144 28.7739 51.1899 28.8096C51.3499 28.8365 51.3766 28.8991 51.3766 29.2388C51.3766 29.4624 51.341 29.8558 51.2966 30.1062L51.2255 30.5801H51.7143H52.2032L52.3009 30.0168C52.3543 29.7128 52.4254 29.212 52.4609 28.908C52.5143 28.3804 52.5054 28.3447 52.2387 28.0854C51.9365 27.7724 51.6166 27.7277 51.2255 27.9333Z" fill="black"/>
<path fill-rule="evenodd" clip-rule="evenodd" d="M53.6878 27.9338C53.1012 28.202 52.7279 28.7743 52.719 29.436C52.7101 29.9278 52.9234 30.2765 53.3856 30.5179C53.75 30.7147 54.5944 30.6789 54.941 30.4464L55.1721 30.2944L54.8877 29.9993C54.6299 29.74 54.5855 29.7132 54.3544 29.8026C54.1588 29.8741 54.0433 29.8741 53.8478 29.7668C53.6167 29.6506 53.6522 29.6417 54.5055 29.6148L55.4121 29.588L55.4743 29.284C55.5009 29.1141 55.5009 28.8369 55.4743 28.676C55.3498 27.9874 54.4255 27.6029 53.6878 27.9338ZM54.5144 28.7207C54.701 28.9084 54.6299 28.971 54.2211 28.971C53.8033 28.971 53.7056 28.8637 53.9811 28.7117C54.1855 28.5865 54.381 28.5865 54.5144 28.7207Z" fill="black"/>
<path fill-rule="evenodd" clip-rule="evenodd" d="M48.5325 28.0044C48.4703 28.2011 48.1326 30.2041 48.1326 30.4008C48.1326 30.5617 48.1859 30.5796 48.6036 30.5796H49.0836L49.2791 29.3904C49.3858 28.7466 49.5013 28.1385 49.5191 28.0491C49.5635 27.915 49.5013 27.8971 49.0658 27.8971C48.7458 27.8971 48.5592 27.9329 48.5325 28.0044Z" fill="black"/>
<defs>
<linearGradient id="paint0_linear_10_18221" x1="48.0968" y1="6.58506" x2="54.3348" y2="48.4085" gradientUnits="userSpaceOnUse">
<stop stop-color="#532D00"/>
<stop offset="1" stop-color="#FF004D"/>
</linearGradient>
<linearGradient id="paint1_linear_10_18221" x1="41.3338" y1="3.06831" x2="26.9649" y2="32.5396" gradientUnits="userSpaceOnUse">
<stop stop-color="#00FF0A"/>
<stop offset="1" stop-color="#692600"/>
</linearGradient>
</defs>
</svg>
