<svg width="84" height="56" viewBox="0 0 84 56" fill="none" xmlns="http://www.w3.org/2000/svg">
<path d="M37.3063 6.91011C43.0344 6.71343 48.6074 8.76211 52.7993 12.6055C56.9911 16.4488 59.4585 21.772 59.6585 27.404C59.8585 33.036 57.7749 38.5154 53.8659 42.6369C49.957 46.7584 44.5429 49.1843 38.8148 49.381L38.5508 41.9486C42.2741 41.8207 45.7932 40.2439 48.334 37.5649C50.8749 34.886 52.2292 31.3243 52.0992 27.6635C51.9692 24.0027 50.3654 20.5427 47.6407 18.0445C44.916 15.5463 41.2936 14.2147 37.5703 14.3425L37.3063 6.91011Z" fill="#EE7A13"/>
<path d="M38.8147 49.381C33.0866 49.5777 27.5136 47.529 23.3218 43.6856C19.1299 39.8423 16.6626 34.5191 16.4625 28.8871C16.2625 23.2551 18.3462 17.7757 22.2551 13.6542C26.1641 9.5327 31.5782 7.10678 37.3063 6.91011L37.5703 14.3425C33.847 14.4703 30.3278 16.0472 27.787 18.7262C25.2462 21.4051 23.8918 24.9668 24.0218 28.6276C24.1519 32.2884 25.7556 35.7484 28.4803 38.2466C31.205 40.7448 34.8275 42.0764 38.5508 41.9486L38.8147 49.381Z" fill="#EBB805"/>
<path d="M54.4304 15.6867L56.9755 12.4694H67.5194" stroke="black" stroke-width="0.145684"/>
<path d="M23.8039 41.4142L21.2588 44.6315H10.7149" stroke="black" stroke-width="0.145684"/>
<path d="M2.63274 40.1766C2.64762 40.1558 2.66547 40.1454 2.6863 40.1454H2.91839C2.94814 40.1454 2.96302 40.1602 2.96302 40.19V43.225C2.96302 43.2548 2.94814 43.2697 2.91839 43.2697H2.69076C2.66101 43.2697 2.64613 43.2548 2.64613 43.225V40.797C2.64613 40.7881 2.64315 40.7821 2.6372 40.7792C2.63125 40.7762 2.62679 40.7792 2.62381 40.7881L2.0302 41.8191C2.01532 41.8399 1.99747 41.8503 1.97664 41.8503H1.92754C1.90671 41.8503 1.88886 41.8399 1.87398 41.8191L1.27591 40.7925C1.27293 40.7836 1.26847 40.7806 1.26252 40.7836C1.25656 40.7866 1.25359 40.7925 1.25359 40.8015V43.225C1.25359 43.2548 1.23871 43.2697 1.20896 43.2697H0.98133C0.951575 43.2697 0.936697 43.2548 0.936697 43.225V40.19C0.936697 40.1602 0.951575 40.1454 0.98133 40.1454H1.21342C1.23425 40.1454 1.2521 40.1558 1.26698 40.1766L1.94093 41.3237C1.94391 41.3266 1.94837 41.3281 1.95432 41.3281C1.96027 41.3281 1.96474 41.3266 1.96771 41.3237L2.63274 40.1766ZM4.58392 43.3054C4.40241 43.3054 4.24173 43.2667 4.10189 43.1893C3.96501 43.112 3.85789 43.0033 3.78053 42.8635C3.70614 42.7236 3.66895 42.5615 3.66895 42.377V40.19C3.66895 40.1602 3.68383 40.1454 3.71358 40.1454H3.94121C3.97096 40.1454 3.98584 40.1602 3.98584 40.19V42.3949C3.98584 42.5853 4.04089 42.7385 4.15098 42.8546C4.26108 42.9706 4.40539 43.0286 4.58392 43.0286C4.76245 43.0286 4.90676 42.9706 5.01685 42.8546C5.12695 42.7385 5.182 42.5853 5.182 42.3949V40.19C5.182 40.1602 5.19687 40.1454 5.22663 40.1454H5.45425C5.48401 40.1454 5.49889 40.1602 5.49889 40.19V42.377C5.49889 42.5615 5.46021 42.7236 5.38284 42.8635C5.30845 43.0033 5.20134 43.112 5.06149 43.1893C4.92461 43.2667 4.76542 43.3054 4.58392 43.3054ZM6.25105 43.2697C6.2213 43.2697 6.20642 43.2548 6.20642 43.225V40.19C6.20642 40.1602 6.2213 40.1454 6.25105 40.1454H6.47868C6.50843 40.1454 6.52331 40.1602 6.52331 40.19V42.9751C6.52331 42.987 6.52926 42.9929 6.54117 42.9929H7.83998C7.86973 42.9929 7.88461 43.0078 7.88461 43.0376V43.225C7.88461 43.2548 7.86973 43.2697 7.83998 43.2697H6.25105ZM8.40423 43.2697C8.37447 43.2697 8.3596 43.2548 8.3596 43.225V40.19C8.3596 40.1602 8.37447 40.1454 8.40423 40.1454H8.63186C8.66161 40.1454 8.67649 40.1602 8.67649 40.19V42.9751C8.67649 42.987 8.68244 42.9929 8.69434 42.9929H9.99315C10.0229 42.9929 10.0378 43.0078 10.0378 43.0376V43.225C10.0378 43.2548 10.0229 43.2697 9.99315 43.2697H8.40423ZM12.2311 40.3775C12.2311 40.4072 12.2163 40.4221 12.1865 40.4221H10.8475C10.8356 40.4221 10.8297 40.428 10.8297 40.4399V41.5468C10.8297 41.5587 10.8356 41.5647 10.8475 41.5647H11.7491C11.7789 41.5647 11.7937 41.5796 11.7937 41.6093V41.7968C11.7937 41.8265 11.7789 41.8414 11.7491 41.8414H10.8475C10.8356 41.8414 10.8297 41.8474 10.8297 41.8593V42.9751C10.8297 42.987 10.8356 42.9929 10.8475 42.9929H12.1865C12.2163 42.9929 12.2311 43.0078 12.2311 43.0376V43.225C12.2311 43.2548 12.2163 43.2697 12.1865 43.2697H10.5574C10.5277 43.2697 10.5128 43.2548 10.5128 43.225V40.19C10.5128 40.1602 10.5277 40.1454 10.5574 40.1454H12.1865C12.2163 40.1454 12.2311 40.1602 12.2311 40.19V40.3775ZM12.8631 43.2697C12.8334 43.2697 12.8185 43.2548 12.8185 43.225V40.19C12.8185 40.1602 12.8334 40.1454 12.8631 40.1454H13.7335C13.9983 40.1454 14.2066 40.2212 14.3583 40.373C14.5131 40.5247 14.5904 40.7315 14.5904 40.9934V42.4216C14.5904 42.6835 14.5131 42.8903 14.3583 43.042C14.2066 43.1938 13.9983 43.2697 13.7335 43.2697H12.8631ZM13.1354 42.9751C13.1354 42.987 13.1413 42.9929 13.1532 42.9929H13.7379C13.9016 42.99 14.031 42.9364 14.1262 42.8323C14.2215 42.7251 14.2706 42.5793 14.2735 42.3949V41.0202C14.2735 40.8357 14.2259 40.6899 14.1307 40.5828C14.0355 40.4756 13.9046 40.4221 13.7379 40.4221H13.1532C13.1413 40.4221 13.1354 40.428 13.1354 40.4399V42.9751ZM1.46783 48.2697C1.44105 48.2697 1.42468 48.2563 1.41873 48.2295L0.700144 45.1945L0.695681 45.1766C0.695681 45.1558 0.70907 45.1454 0.73585 45.1454H0.976866C1.00365 45.1454 1.02001 45.1588 1.02596 45.1855L1.57048 47.5823C1.57346 47.5912 1.57643 47.5957 1.57941 47.5957C1.58536 47.5957 1.58982 47.5912 1.5928 47.5823L2.08822 45.1855C2.09417 45.1588 2.11054 45.1454 2.13732 45.1454H2.36048C2.39023 45.1454 2.4066 45.1588 2.40958 45.1855L2.92285 47.5823C2.92583 47.5912 2.9288 47.5957 2.93178 47.5957C2.93475 47.5957 2.93773 47.5912 2.9407 47.5823L3.47183 45.1855C3.47778 45.1588 3.49415 45.1454 3.52093 45.1454H3.75302C3.78277 45.1454 3.79468 45.1617 3.78872 45.1945L3.09245 48.2295C3.0865 48.2563 3.07014 48.2697 3.04336 48.2697H2.81573C2.78895 48.2697 2.77259 48.2563 2.76664 48.2295L2.25782 45.797C2.25485 45.7881 2.25187 45.7836 2.2489 45.7836C2.24592 45.7836 2.24295 45.7881 2.23997 45.797L1.73562 48.2295C1.73265 48.2563 1.71628 48.2697 1.68653 48.2697H1.46783ZM4.3376 48.2697C4.30785 48.2697 4.29297 48.2548 4.29297 48.225V45.19C4.29297 45.1602 4.30785 45.1454 4.3376 45.1454H4.56523C4.59498 45.1454 4.60986 45.1602 4.60986 45.19V48.225C4.60986 48.2548 4.59498 48.2697 4.56523 48.2697H4.3376ZM6.90534 45.19C6.90534 45.1602 6.92022 45.1454 6.94997 45.1454H7.1776C7.20735 45.1454 7.22223 45.1602 7.22223 45.19V48.225C7.22223 48.2548 7.20735 48.2697 7.1776 48.2697H6.93658C6.9098 48.2697 6.89195 48.2592 6.88302 48.2384L5.68687 45.8506C5.68092 45.8446 5.67497 45.8416 5.66901 45.8416C5.66604 45.8416 5.66455 45.8461 5.66455 45.855L5.66901 48.225C5.66901 48.2548 5.65414 48.2697 5.62438 48.2697H5.39676C5.367 48.2697 5.35212 48.2548 5.35212 48.225V45.19C5.35212 45.1602 5.367 45.1454 5.39676 45.1454H5.63777C5.66455 45.1454 5.6824 45.1558 5.69133 45.1766L6.88749 47.5734C6.89344 47.5793 6.8979 47.5823 6.90088 47.5823C6.90683 47.5823 6.9098 47.5778 6.9098 47.5689L6.90534 45.19ZM9.47601 48.2697C9.44923 48.2697 9.43286 48.2563 9.42691 48.2295L9.27962 47.6716C9.27665 47.6626 9.26921 47.6582 9.25731 47.6582H8.19059C8.17868 47.6582 8.17125 47.6626 8.16827 47.6716L8.02098 48.2295C8.01503 48.2563 7.99867 48.2697 7.97189 48.2697H7.7398C7.72492 48.2697 7.71302 48.2652 7.70409 48.2563C7.69814 48.2473 7.69665 48.2354 7.69963 48.2206L8.53426 45.1855C8.54021 45.1588 8.55657 45.1454 8.58335 45.1454H8.869C8.89578 45.1454 8.91215 45.1588 8.9181 45.1855L9.75273 48.2206L9.75719 48.2339C9.75719 48.2578 9.74232 48.2697 9.71256 48.2697H9.47601ZM8.24415 47.3815C8.24117 47.3844 8.24117 47.3889 8.24415 47.3949C8.2501 47.3978 8.25605 47.3993 8.262 47.3993H9.18589C9.19185 47.3993 9.19631 47.3978 9.19928 47.3949C9.20524 47.3889 9.20672 47.3844 9.20375 47.3815L8.73064 45.5872C8.72767 45.5813 8.72469 45.5783 8.72171 45.5783C8.71874 45.5783 8.71576 45.5813 8.71279 45.5872L8.24415 47.3815ZM12.5602 46.828C12.5988 46.9679 12.6182 47.1285 12.6182 47.3101C12.6182 47.4618 12.6048 47.5927 12.578 47.7028C12.5334 47.8962 12.4441 48.045 12.3102 48.1491C12.1793 48.2533 12.0142 48.3054 11.8148 48.3054C11.6125 48.3054 11.4443 48.2518 11.3104 48.1447C11.1765 48.0376 11.0888 47.8873 11.0471 47.6939C11.0322 47.6403 11.0233 47.5853 11.0203 47.5288V47.5198C11.0203 47.496 11.0337 47.4841 11.0605 47.4841H11.2926C11.3194 47.4841 11.3342 47.496 11.3372 47.5198V47.5377L11.3551 47.6269C11.3819 47.7549 11.4339 47.8531 11.5113 47.9215C11.5916 47.99 11.6928 48.0242 11.8148 48.0242C11.9338 48.0242 12.032 47.99 12.1094 47.9215C12.1897 47.8501 12.2433 47.7504 12.27 47.6225C12.2909 47.5392 12.3013 47.4365 12.3013 47.3145C12.3013 47.2014 12.2894 47.0854 12.2656 46.9664C12.2388 46.8474 12.1867 46.7581 12.1094 46.6986C12.032 46.6361 11.9338 46.6049 11.8148 46.6049C11.7017 46.6049 11.6035 46.6316 11.5202 46.6852C11.4399 46.7358 11.3833 46.8102 11.3506 46.9084L11.3417 46.9262C11.3387 46.947 11.3238 46.9575 11.2971 46.9575H11.0605C11.0307 46.9575 11.0159 46.9426 11.0159 46.9128V45.19C11.0159 45.1602 11.0307 45.1454 11.0605 45.1454H12.4754C12.5051 45.1454 12.52 45.1602 12.52 45.19V45.3775C12.52 45.4072 12.5051 45.4221 12.4754 45.4221H11.3506C11.3387 45.4221 11.3328 45.428 11.3328 45.4399V46.5334C11.3328 46.5394 11.3342 46.5439 11.3372 46.5468C11.3432 46.5468 11.3491 46.5439 11.3551 46.5379C11.4146 46.4724 11.489 46.4219 11.5782 46.3862C11.6705 46.3475 11.7687 46.3281 11.8728 46.3281C12.0484 46.3281 12.1942 46.3713 12.3102 46.4576C12.4292 46.5409 12.5126 46.6644 12.5602 46.828ZM13.9301 48.3143C13.6742 48.3143 13.4689 48.2369 13.3142 48.0822C13.1594 47.9275 13.0821 47.7207 13.0821 47.4618V45.9532C13.0821 45.6973 13.1594 45.492 13.3142 45.3373C13.4689 45.1826 13.6742 45.1052 13.9301 45.1052C14.189 45.1052 14.3958 45.1826 14.5505 45.3373C14.7082 45.492 14.787 45.6973 14.787 45.9532V47.4618C14.787 47.7207 14.7082 47.9275 14.5505 48.0822C14.3958 48.2369 14.189 48.3143 13.9301 48.3143ZM13.9301 48.0376C14.0938 48.0376 14.2247 47.987 14.3229 47.8858C14.4211 47.7846 14.4702 47.6507 14.4702 47.4841V45.9354C14.4702 45.7687 14.4211 45.6348 14.3229 45.5337C14.2247 45.4325 14.0938 45.3819 13.9301 45.3819C13.7724 45.3819 13.6445 45.4325 13.5463 45.5337C13.4481 45.6348 13.399 45.7687 13.399 45.9354V47.4841C13.399 47.6478 13.4481 47.7817 13.5463 47.8858C13.6445 47.987 13.7724 48.0376 13.9301 48.0376ZM16.0631 46.3728C15.9471 46.3728 15.84 46.3445 15.7418 46.288C15.6466 46.2314 15.5707 46.1556 15.5141 46.0603C15.4576 45.9621 15.4293 45.855 15.4293 45.739C15.4293 45.6229 15.4576 45.5173 15.5141 45.4221C15.5707 45.3239 15.6466 45.2465 15.7418 45.19C15.84 45.1335 15.9471 45.1052 16.0631 45.1052C16.1762 45.1052 16.2803 45.1335 16.3756 45.19C16.4737 45.2465 16.5511 45.3239 16.6076 45.4221C16.6642 45.5173 16.6924 45.6229 16.6924 45.739C16.6924 45.855 16.6642 45.9621 16.6076 46.0603C16.5511 46.1556 16.4737 46.2314 16.3756 46.288C16.2803 46.3445 16.1762 46.3728 16.0631 46.3728ZM15.9605 48.2697C15.9456 48.2697 15.9337 48.2652 15.9248 48.2563C15.9188 48.2444 15.9203 48.231 15.9292 48.2161L17.5896 45.1766C17.5985 45.1558 17.6163 45.1454 17.6431 45.1454H17.7859C17.8008 45.1454 17.8112 45.1513 17.8172 45.1632C17.8261 45.1721 17.8261 45.184 17.8172 45.1989L16.1569 48.2384C16.1479 48.2592 16.1301 48.2697 16.1033 48.2697H15.9605ZM16.0631 46.1764C16.1821 46.1764 16.2818 46.1347 16.3622 46.0514C16.4455 45.9651 16.4871 45.861 16.4871 45.739C16.4871 45.617 16.4455 45.5143 16.3622 45.431C16.2818 45.3447 16.1821 45.3016 16.0631 45.3016C15.9441 45.3016 15.8429 45.3447 15.7596 45.431C15.6763 45.5143 15.6347 45.617 15.6347 45.739C15.6347 45.861 15.6763 45.9651 15.7596 46.0514C15.8429 46.1347 15.9441 46.1764 16.0631 46.1764ZM17.7011 48.3098C17.5851 48.3098 17.478 48.2816 17.3798 48.225C17.2846 48.1685 17.2087 48.0911 17.1522 47.9929C17.0956 47.8947 17.0674 47.7876 17.0674 47.6716C17.0674 47.5585 17.0956 47.4544 17.1522 47.3591C17.2087 47.261 17.2846 47.1836 17.3798 47.1271C17.478 47.0705 17.5851 47.0423 17.7011 47.0423C17.8142 47.0423 17.9184 47.0705 18.0136 47.1271C18.1118 47.1836 18.1891 47.261 18.2457 47.3591C18.3022 47.4544 18.3305 47.5585 18.3305 47.6716C18.3305 47.7876 18.3022 47.8947 18.2457 47.9929C18.1891 48.0911 18.1118 48.1685 18.0136 48.225C17.9184 48.2816 17.8142 48.3098 17.7011 48.3098ZM17.7011 48.1134C17.8202 48.1134 17.9198 48.0703 18.0002 47.984C18.0835 47.8977 18.1252 47.7936 18.1252 47.6716C18.1252 47.5496 18.0835 47.4469 18.0002 47.3636C17.9198 47.2803 17.8202 47.2386 17.7011 47.2386C17.5821 47.2386 17.481 47.2803 17.3976 47.3636C17.3143 47.4469 17.2727 47.5496 17.2727 47.6716C17.2727 47.7965 17.3128 47.9022 17.3932 47.9885C17.4765 48.0718 17.5791 48.1134 17.7011 48.1134Z" fill="#404040"/>
<path d="M57.4027 10.7247C57.1319 10.7247 56.9132 10.6443 56.7466 10.4837C56.5829 10.323 56.5011 10.1102 56.5011 9.84541V8.40377C56.5011 8.13895 56.5829 7.92769 56.7466 7.76999C56.9132 7.60931 57.1319 7.52897 57.4027 7.52897C57.6764 7.52897 57.8951 7.60782 58.0588 7.76553C58.2254 7.92323 58.3087 8.133 58.3087 8.39485V8.43502C58.3087 8.46477 58.2938 8.47965 58.2641 8.47965L58.0365 8.48857C58.0067 8.48857 57.9918 8.47518 57.9918 8.4484V8.38592C57.9918 8.21334 57.9368 8.07349 57.8267 7.96637C57.7196 7.85925 57.5782 7.80569 57.4027 7.80569C57.2271 7.80569 57.0858 7.85925 56.9787 7.96637C56.8716 8.07052 56.818 8.21036 56.818 8.38592V9.86772C56.818 10.0433 56.8716 10.1846 56.9787 10.2917C57.0858 10.3959 57.2271 10.4479 57.4027 10.4479C57.5782 10.4479 57.7196 10.3944 57.8267 10.2873C57.9368 10.1802 57.9918 10.0403 57.9918 9.86772V9.80524C57.9918 9.77846 58.0067 9.76507 58.0365 9.76507L58.2641 9.77846C58.2938 9.77846 58.3087 9.79334 58.3087 9.82309V9.85433C58.3087 10.1162 58.2254 10.3274 58.0588 10.4881C57.8951 10.6458 57.6764 10.7247 57.4027 10.7247ZM58.9799 10.689C58.9501 10.689 58.9352 10.6741 58.9352 10.6443V7.60931C58.9352 7.57956 58.9501 7.56468 58.9799 7.56468H59.2075C59.2372 7.56468 59.2521 7.57956 59.2521 7.60931V10.6443C59.2521 10.6741 59.2372 10.689 59.2075 10.689H58.9799ZM61.5476 7.60931C61.5476 7.57956 61.5625 7.56468 61.5922 7.56468H61.8199C61.8496 7.56468 61.8645 7.57956 61.8645 7.60931V10.6443C61.8645 10.6741 61.8496 10.689 61.8199 10.689H61.5788C61.5521 10.689 61.5342 10.6786 61.5253 10.6577L60.3291 8.26987C60.3232 8.26392 60.3172 8.26095 60.3113 8.26095C60.3083 8.26095 60.3068 8.26541 60.3068 8.27434L60.3113 10.6443C60.3113 10.6741 60.2964 10.689 60.2666 10.689H60.039C60.0093 10.689 59.9944 10.6741 59.9944 10.6443V7.60931C59.9944 7.57956 60.0093 7.56468 60.039 7.56468H60.28C60.3068 7.56468 60.3247 7.57509 60.3336 7.59592L61.5297 9.9927C61.5357 9.99865 61.5402 10.0016 61.5431 10.0016C61.5491 10.0016 61.5521 9.99716 61.5521 9.98823L61.5476 7.60931ZM64.1279 7.60931C64.1279 7.57956 64.1428 7.56468 64.1726 7.56468H64.4002C64.4299 7.56468 64.4448 7.57956 64.4448 7.60931V10.6443C64.4448 10.6741 64.4299 10.689 64.4002 10.689H64.1592C64.1324 10.689 64.1145 10.6786 64.1056 10.6577L62.9094 8.26987C62.9035 8.26392 62.8975 8.26095 62.8916 8.26095C62.8886 8.26095 62.8871 8.26541 62.8871 8.27434L62.8916 10.6443C62.8916 10.6741 62.8767 10.689 62.847 10.689H62.6193C62.5896 10.689 62.5747 10.6741 62.5747 10.6443V7.60931C62.5747 7.57956 62.5896 7.56468 62.6193 7.56468H62.8604C62.8871 7.56468 62.905 7.57509 62.9139 7.59592L64.1101 9.9927C64.116 9.99865 64.1205 10.0016 64.1235 10.0016C64.1294 10.0016 64.1324 9.99716 64.1324 9.98823L64.1279 7.60931ZM66.6986 10.689C66.6718 10.689 66.6554 10.6756 66.6495 10.6488L66.5022 10.0909C66.4992 10.082 66.4918 10.0775 66.4799 10.0775H65.4132C65.4013 10.0775 65.3938 10.082 65.3908 10.0909L65.2436 10.6488C65.2376 10.6756 65.2212 10.689 65.1945 10.689H64.9624C64.9475 10.689 64.9356 10.6845 64.9267 10.6756C64.9207 10.6666 64.9192 10.6547 64.9222 10.6399L65.7568 7.60485C65.7628 7.57807 65.7792 7.56468 65.8059 7.56468H66.0916C66.1184 7.56468 66.1347 7.57807 66.1407 7.60485L66.9753 10.6399L66.9798 10.6533C66.9798 10.6771 66.9649 10.689 66.9351 10.689H66.6986ZM65.4667 9.80077C65.4637 9.80375 65.4637 9.80821 65.4667 9.81416C65.4727 9.81714 65.4786 9.81863 65.4846 9.81863H66.4085C66.4144 9.81863 66.4189 9.81714 66.4219 9.81416C66.4278 9.80821 66.4293 9.80375 66.4263 9.80077L65.9532 8.00654C65.9502 8.00059 65.9473 7.99762 65.9443 7.99762C65.9413 7.99762 65.9383 8.00059 65.9354 8.00654L65.4667 9.80077ZM69.1436 7.59592C69.1585 7.57509 69.1763 7.56468 69.1972 7.56468H69.4293C69.459 7.56468 69.4739 7.57956 69.4739 7.60931V10.6443C69.4739 10.6741 69.459 10.689 69.4293 10.689H69.2016C69.1719 10.689 69.157 10.6741 69.157 10.6443V8.21632C69.157 8.20739 69.154 8.20144 69.1481 8.19846C69.1421 8.19549 69.1377 8.19846 69.1347 8.20739L68.5411 9.2384C68.5262 9.25923 68.5083 9.26965 68.4875 9.26965H68.4384C68.4176 9.26965 68.3997 9.25923 68.3849 9.2384L67.7868 8.21185C67.7838 8.20293 67.7793 8.19995 67.7734 8.20293C67.7674 8.2059 67.7645 8.21185 67.7645 8.22078V10.6443C67.7645 10.6741 67.7496 10.689 67.7198 10.689H67.4922C67.4625 10.689 67.4476 10.6741 67.4476 10.6443V7.60931C67.4476 7.57956 67.4625 7.56468 67.4922 7.56468H67.7243C67.7451 7.56468 67.763 7.57509 67.7779 7.59592L68.4518 8.74298C68.4548 8.74596 68.4593 8.74744 68.4652 8.74744C68.4712 8.74744 68.4756 8.74596 68.4786 8.74298L69.1436 7.59592ZM71.0412 10.7247C70.8597 10.7247 70.6991 10.6875 70.5592 10.6131C70.4223 10.5357 70.3152 10.4286 70.2379 10.2917C70.1635 10.1549 70.1263 9.99716 70.1263 9.81863V8.43948C70.1263 8.26095 70.1635 8.10325 70.2379 7.96637C70.3152 7.82652 70.4223 7.7194 70.5592 7.64502C70.6991 7.56765 70.8597 7.52897 71.0412 7.52897C71.2227 7.52897 71.3819 7.56765 71.5188 7.64502C71.6587 7.7194 71.7673 7.82652 71.8446 7.96637C71.922 8.10325 71.9607 8.26095 71.9607 8.43948V9.81863C71.9607 9.99716 71.922 10.1549 71.8446 10.2917C71.7673 10.4286 71.6587 10.5357 71.5188 10.6131C71.3819 10.6875 71.2227 10.7247 71.0412 10.7247ZM71.0412 10.4479C71.2227 10.4479 71.3685 10.3914 71.4786 10.2783C71.5887 10.1653 71.6438 10.0165 71.6438 9.83202V8.43055C71.6438 8.24309 71.5887 8.09283 71.4786 7.97976C71.3685 7.86372 71.2227 7.80569 71.0412 7.80569C70.8627 7.80569 70.7184 7.86372 70.6083 7.97976C70.4982 8.09283 70.4432 8.24309 70.4432 8.43055V9.83202C70.4432 10.0165 70.4982 10.1653 70.6083 10.2783C70.7184 10.3914 70.8627 10.4479 71.0412 10.4479ZM74.1703 7.60931C74.1703 7.57956 74.1851 7.56468 74.2149 7.56468H74.4425C74.4723 7.56468 74.4872 7.57956 74.4872 7.60931V10.6443C74.4872 10.6741 74.4723 10.689 74.4425 10.689H74.2015C74.1747 10.689 74.1569 10.6786 74.148 10.6577L72.9518 8.26987C72.9458 8.26392 72.9399 8.26095 72.9339 8.26095C72.931 8.26095 72.9295 8.26541 72.9295 8.27434L72.9339 10.6443C72.9339 10.6741 72.9191 10.689 72.8893 10.689H72.6617C72.6319 10.689 72.6171 10.6741 72.6171 10.6443V7.60931C72.6171 7.57956 72.6319 7.56468 72.6617 7.56468H72.9027C72.9295 7.56468 72.9473 7.57509 72.9563 7.59592L74.1524 9.9927C74.1584 9.99865 74.1628 10.0016 74.1658 10.0016C74.1718 10.0016 74.1747 9.99716 74.1747 9.98823L74.1703 7.60931ZM77.5586 9.24733C77.5973 9.38718 77.6166 9.54786 77.6166 9.72936C77.6166 9.88111 77.6032 10.012 77.5764 10.1221C77.5318 10.3155 77.4425 10.4643 77.3086 10.5685C77.1777 10.6726 77.0126 10.7247 76.8132 10.7247C76.6109 10.7247 76.4428 10.6711 76.3089 10.564C76.175 10.4569 76.0872 10.3066 76.0455 10.1132C76.0307 10.0596 76.0217 10.0046 76.0188 9.94806V9.93914C76.0188 9.91533 76.0321 9.90343 76.0589 9.90343H76.291C76.3178 9.90343 76.3327 9.91533 76.3356 9.93914V9.95699L76.3535 10.0463C76.3803 10.1742 76.4324 10.2724 76.5097 10.3408C76.5901 10.4093 76.6912 10.4435 76.8132 10.4435C76.9322 10.4435 77.0304 10.4093 77.1078 10.3408C77.1881 10.2694 77.2417 10.1697 77.2685 10.0418C77.2893 9.95848 77.2997 9.85582 77.2997 9.73383C77.2997 9.62076 77.2878 9.50471 77.264 9.38569C77.2372 9.26667 77.1852 9.17741 77.1078 9.11789C77.0304 9.05541 76.9322 9.02417 76.8132 9.02417C76.7001 9.02417 76.602 9.05095 76.5186 9.10451C76.4383 9.15509 76.3818 9.22948 76.349 9.32767L76.3401 9.34552C76.3371 9.36635 76.3223 9.37676 76.2955 9.37676H76.0589C76.0292 9.37676 76.0143 9.36189 76.0143 9.33213V7.60931C76.0143 7.57956 76.0292 7.56468 76.0589 7.56468H77.4738C77.5035 7.56468 77.5184 7.57956 77.5184 7.60931V7.79677C77.5184 7.82652 77.5035 7.8414 77.4738 7.8414H76.349C76.3371 7.8414 76.3312 7.84735 76.3312 7.85925V8.95275C76.3312 8.95871 76.3327 8.96317 76.3356 8.96614C76.3416 8.96614 76.3476 8.96317 76.3535 8.95722C76.413 8.89176 76.4874 8.84117 76.5767 8.80547C76.6689 8.76678 76.7671 8.74744 76.8712 8.74744C77.0468 8.74744 77.1926 8.79059 77.3086 8.87688C77.4277 8.96019 77.511 9.08368 77.5586 9.24733ZM78.9285 10.7336C78.6726 10.7336 78.4673 10.6562 78.3126 10.5015C78.1579 10.3468 78.0805 10.14 78.0805 9.88111V8.37253C78.0805 8.11664 78.1579 7.91133 78.3126 7.7566C78.4673 7.60187 78.6726 7.52451 78.9285 7.52451C79.1874 7.52451 79.3942 7.60187 79.5489 7.7566C79.7066 7.91133 79.7855 8.11664 79.7855 8.37253V9.88111C79.7855 10.14 79.7066 10.3468 79.5489 10.5015C79.3942 10.6562 79.1874 10.7336 78.9285 10.7336ZM78.9285 10.4569C79.0922 10.4569 79.2231 10.4063 79.3213 10.3051C79.4195 10.204 79.4686 10.0701 79.4686 9.90343V8.35468C79.4686 8.18805 79.4195 8.05415 79.3213 7.95298C79.2231 7.85182 79.0922 7.80123 78.9285 7.80123C78.7708 7.80123 78.6429 7.85182 78.5447 7.95298C78.4465 8.05415 78.3974 8.18805 78.3974 8.35468V9.90343C78.3974 10.0671 78.4465 10.201 78.5447 10.3051C78.6429 10.4063 78.7708 10.4569 78.9285 10.4569ZM81.0616 8.79208C80.9455 8.79208 80.8384 8.76381 80.7402 8.70727C80.645 8.65074 80.5691 8.57486 80.5126 8.47965C80.456 8.38146 80.4278 8.27434 80.4278 8.15829C80.4278 8.04225 80.456 7.93662 80.5126 7.8414C80.5691 7.74321 80.645 7.66585 80.7402 7.60931C80.8384 7.55278 80.9455 7.52451 81.0616 7.52451C81.1746 7.52451 81.2788 7.55278 81.374 7.60931C81.4722 7.66585 81.5495 7.74321 81.6061 7.8414C81.6626 7.93662 81.6909 8.04225 81.6909 8.15829C81.6909 8.27434 81.6626 8.38146 81.6061 8.47965C81.5495 8.57486 81.4722 8.65074 81.374 8.70727C81.2788 8.76381 81.1746 8.79208 81.0616 8.79208ZM80.9589 10.689C80.944 10.689 80.9321 10.6845 80.9232 10.6756C80.9172 10.6637 80.9187 10.6503 80.9277 10.6354L82.588 7.59592C82.5969 7.57509 82.6148 7.56468 82.6415 7.56468H82.7844C82.7992 7.56468 82.8097 7.57063 82.8156 7.58253C82.8245 7.59146 82.8245 7.60336 82.8156 7.61824L81.1553 10.6577C81.1464 10.6786 81.1285 10.689 81.1017 10.689H80.9589ZM81.0616 8.59569C81.1806 8.59569 81.2803 8.55404 81.3606 8.47072C81.4439 8.38443 81.4856 8.28029 81.4856 8.15829C81.4856 8.0363 81.4439 7.93364 81.3606 7.85033C81.2803 7.76404 81.1806 7.72089 81.0616 7.72089C80.9425 7.72089 80.8414 7.76404 80.758 7.85033C80.6747 7.93364 80.6331 8.0363 80.6331 8.15829C80.6331 8.28029 80.6747 8.38443 80.758 8.47072C80.8414 8.55404 80.9425 8.59569 81.0616 8.59569ZM82.6996 10.7291C82.5835 10.7291 82.4764 10.7009 82.3782 10.6443C82.283 10.5878 82.2071 10.5104 82.1506 10.4122C82.0941 10.3141 82.0658 10.2069 82.0658 10.0909C82.0658 9.97782 82.0941 9.87367 82.1506 9.77846C82.2071 9.68027 82.283 9.6029 82.3782 9.54637C82.4764 9.48983 82.5835 9.46157 82.6996 9.46157C82.8126 9.46157 82.9168 9.48983 83.012 9.54637C83.1102 9.6029 83.1876 9.68027 83.2441 9.77846C83.3006 9.87367 83.3289 9.97782 83.3289 10.0909C83.3289 10.2069 83.3006 10.3141 83.2441 10.4122C83.1876 10.5104 83.1102 10.5878 83.012 10.6443C82.9168 10.7009 82.8126 10.7291 82.6996 10.7291ZM82.6996 10.5328C82.8186 10.5328 82.9183 10.4896 82.9986 10.4033C83.0819 10.317 83.1236 10.2129 83.1236 10.0909C83.1236 9.96889 83.0819 9.86624 82.9986 9.78292C82.9183 9.69961 82.8186 9.65795 82.6996 9.65795C82.5805 9.65795 82.4794 9.69961 82.3961 9.78292C82.3128 9.86624 82.2711 9.96889 82.2711 10.0909C82.2711 10.2159 82.3113 10.3215 82.3916 10.4078C82.4749 10.4911 82.5776 10.5328 82.6996 10.5328Z" fill="#404040"/>
<path fill-rule="evenodd" clip-rule="evenodd" d="M35.0937 23.4178L34.9423 23.4318L34.9353 23.624L34.9283 23.8184H35.1705C35.3033 23.8184 35.6037 23.8255 35.8343 23.8348L36.2581 23.8489V26.5363C36.2581 29.1535 36.2675 29.7228 36.3094 29.7228C36.3187 29.7228 36.3886 29.6759 36.4631 29.6174C36.5702 29.533 36.6308 29.5049 36.7775 29.4721L36.9568 29.4299V26.6394V23.8489L37.6136 23.8348C38.1027 23.8231 38.275 23.8114 38.289 23.7903C38.3146 23.7481 38.3123 23.5092 38.2866 23.4693C38.2727 23.4482 38.2051 23.4272 38.1283 23.4178C37.9699 23.3967 35.3172 23.399 35.0937 23.4178Z" fill="#323232"/>
<path fill-rule="evenodd" clip-rule="evenodd" d="M39.2717 23.4133C39.2251 23.4227 39.2228 23.4367 39.2088 24.1068C39.1995 24.4841 39.1925 25.2526 39.1925 25.8149V26.8411H38.6802H38.1678V25.8383C38.1678 25.2877 38.1608 24.6551 38.1515 24.4325L38.1375 24.0295H37.8184H37.4971L37.4808 24.7605C37.4714 25.1635 37.4691 26.417 37.4738 27.544L37.4808 29.5942L37.5343 29.709C37.5995 29.8542 37.5995 29.9269 37.5273 30.0979C37.4481 30.2853 37.4528 30.3275 37.546 30.365C37.6857 30.4236 37.8091 30.4329 37.9465 30.3908C38.1655 30.3275 38.1538 30.4236 38.1631 28.6734L38.1724 27.1691H38.6825H39.1925V28.4976C39.1925 29.231 39.1995 29.9784 39.2088 30.1588L39.2228 30.4915L39.3113 30.5196C39.4068 30.5524 39.5046 30.536 39.7398 30.447L39.8679 30.4001L39.8656 27.5721C39.8633 26.0164 39.8539 24.4442 39.8469 24.0764L39.833 23.4086L39.5768 23.4063C39.4371 23.4039 39.2996 23.4063 39.2717 23.4133Z" fill="#323232"/>
<path fill-rule="evenodd" clip-rule="evenodd" d="M34.2364 24.2172C33.9406 24.2594 33.7334 24.3695 33.6379 24.5312C33.554 24.6764 33.5331 24.8568 33.5331 25.4098C33.5331 26.2697 33.5377 26.2767 34.5112 27.72C34.7488 28.0738 34.7837 28.1324 34.8955 28.3831C34.9957 28.6057 35.005 28.6431 35.0236 28.8985C35.0352 29.0485 35.0469 29.4609 35.0469 29.81C35.0469 30.1614 35.0539 30.4496 35.0655 30.4496C35.0748 30.4496 35.2216 30.4285 35.3916 30.4004L35.7013 30.3489L35.6943 29.4679L35.6873 28.5869L35.5872 28.3362C35.4754 28.0597 35.2681 27.713 34.814 27.0522C34.651 26.8133 34.4553 26.5087 34.3831 26.3775L34.2481 26.1361L34.2248 25.4754C34.2015 24.7491 34.2131 24.6155 34.3156 24.5148C34.3808 24.4492 34.46 24.4281 34.651 24.4281C34.835 24.4281 34.9188 24.4632 34.9817 24.564C35.0329 24.6483 35.0352 24.6694 35.0469 25.4403C35.0562 26.0401 35.0655 26.2369 35.0888 26.2603C35.1261 26.2978 35.6012 26.3142 35.6524 26.2814C35.6827 26.2603 35.6873 26.1455 35.6943 25.5293C35.7013 24.7608 35.6873 24.5897 35.6058 24.4749C35.5499 24.3953 35.3217 24.2805 35.14 24.2406C34.9747 24.2055 34.4274 24.1914 34.2364 24.2172Z" fill="#323232"/>
<path fill-rule="evenodd" clip-rule="evenodd" d="M41.2025 24.2642C40.8346 24.3157 40.6413 24.4142 40.5295 24.6063C40.4689 24.707 40.4643 24.7445 40.448 25.0585C40.4386 25.2459 40.4293 26.5158 40.4293 27.8771L40.427 30.3537L40.5039 30.4099C40.6739 30.5411 40.8089 30.5528 41.0046 30.4568L41.0907 30.4146L41.0977 29.0252L41.1024 27.6381H41.5216H41.9408V29.0299V30.4216L42.0922 30.52L42.2459 30.6208L42.3926 30.5575C42.4765 30.5224 42.5603 30.4778 42.5859 30.4614C42.6255 30.431 42.6278 30.3443 42.6348 28.6175C42.6441 26.5252 42.6139 24.8828 42.5626 24.6906C42.4858 24.4001 42.2273 24.2853 41.5798 24.2548C41.4517 24.2501 41.2817 24.2525 41.2025 24.2642ZM41.7545 24.5196C41.8057 24.5454 41.8523 24.5946 41.8826 24.6531C41.9245 24.7398 41.9268 24.8101 41.9362 25.9043C41.9408 26.5416 41.9362 27.1274 41.9245 27.2047L41.9059 27.3453L41.5798 27.3523C41.4005 27.357 41.2188 27.3523 41.1792 27.3453L41.1024 27.3312V26.319C41.1047 25.1897 41.1257 24.7305 41.1792 24.625C41.2608 24.4657 41.5426 24.4142 41.7545 24.5196Z" fill="#323232"/>
<path fill-rule="evenodd" clip-rule="evenodd" d="M31.0549 25.2972C31.0479 25.3769 31.041 26.3727 31.041 27.509V29.5755L31.2063 29.5919C31.2971 29.599 31.4322 29.6271 31.5067 29.6529C31.5836 29.6786 31.6558 29.6997 31.6698 29.6997C31.6954 29.6997 31.7047 25.4542 31.6791 25.2621L31.6628 25.1543H31.367H31.0712L31.0549 25.2972Z" fill="#323232"/>
<path fill-rule="evenodd" clip-rule="evenodd" d="M32.3754 25.1825C32.3405 25.2364 32.3032 29.5569 32.3358 29.7209C32.3544 29.8053 32.3894 29.8123 32.4522 29.7444C32.5198 29.6694 32.6199 29.6272 32.7969 29.5968L32.9623 29.5686L32.9763 29.2406C32.9972 28.8118 32.9972 25.4871 32.9763 25.3067L32.9623 25.1661L32.6781 25.1591C32.4685 25.1544 32.3894 25.1614 32.3754 25.1825Z" fill="#323232"/>
<path fill-rule="evenodd" clip-rule="evenodd" d="M43.2103 25.1937C43.1986 25.2171 43.187 25.9481 43.18 26.8197L43.1707 28.4012L43.2452 28.741C43.4152 29.5118 43.5969 30.2053 43.6807 30.4092C43.7879 30.6599 44.037 30.5568 44.037 30.2639C44.037 30.1913 44.0254 30.0577 44.0114 29.9687C43.8833 29.0901 43.8554 28.5863 43.8321 26.6299L43.8158 25.1655L43.5224 25.1585C43.2592 25.1538 43.2266 25.1562 43.2103 25.1937Z" fill="#323232"/>
<path fill-rule="evenodd" clip-rule="evenodd" d="M44.5123 25.1795C44.503 25.1959 44.4867 25.9386 44.4774 26.8266C44.4681 27.717 44.4495 28.5464 44.4355 28.6682C44.3726 29.2446 44.3447 29.5281 44.347 29.5937C44.3493 29.6312 44.3423 29.746 44.3307 29.8468C44.3121 30.0318 44.3121 30.0318 44.3633 30.0037C44.3912 29.9897 44.4681 29.9264 44.5333 29.8678C44.6008 29.8069 44.694 29.7273 44.7429 29.6898C44.7918 29.6523 44.8477 29.5914 44.8663 29.5562C44.9152 29.4602 45.0806 28.7151 45.1086 28.455C45.1388 28.1973 45.1318 25.2146 45.1016 25.1842C45.0899 25.1748 44.9572 25.1631 44.8058 25.1584C44.6008 25.1514 44.5263 25.1584 44.5123 25.1795Z" fill="#323232"/>
<path fill-rule="evenodd" clip-rule="evenodd" d="M30.1583 26.0911L29.8462 26.1028L29.6179 27.2626C29.4922 27.8999 29.385 28.4364 29.3827 28.4552C29.3711 28.5161 29.3245 28.5067 29.2965 28.4411C29.2826 28.4059 29.257 28.2958 29.2383 28.1998C29.222 28.1037 29.1358 27.682 29.0497 27.2626C28.9635 26.8432 28.875 26.4121 28.854 26.3019L28.8168 26.1028L28.4931 26.0957L28.1693 26.0887L28.1833 27.6749C28.1926 28.5489 28.1996 29.6618 28.1996 30.1491V31.0348H28.5257H28.8517L28.854 30.1726C28.854 29.6993 28.8634 29.2588 28.875 29.1955C28.8843 29.1299 28.8936 29.0854 28.896 29.0948C28.9495 29.3806 29.0823 30.114 29.0939 30.1937C29.1195 30.367 29.1475 30.3905 29.3315 30.3881C29.4596 30.3881 29.4945 30.3788 29.5248 30.3389C29.5504 30.3085 29.5946 30.1093 29.6529 29.7672C29.7018 29.479 29.7507 29.226 29.7623 29.2073C29.774 29.1838 29.7833 29.2447 29.7833 29.3713C29.7833 29.6899 29.8112 29.9594 29.8415 29.9711C29.8578 29.9781 29.916 29.9523 29.9719 29.9148C30.0278 29.8774 30.1583 29.8118 30.2607 29.7696C30.3632 29.7251 30.454 29.6829 30.4657 29.6759C30.475 29.6688 30.4796 28.8558 30.4773 27.8694L30.4703 26.0793L30.1583 26.0911Z" fill="#323232"/>
<path fill-rule="evenodd" clip-rule="evenodd" d="M45.7235 26.1195C45.7118 26.1359 45.7002 26.8974 45.6955 27.8135L45.6862 29.4771L45.7793 29.531C45.968 29.6364 46.0542 29.8027 46.0332 30.0183C46.0169 30.1729 45.9517 30.3229 45.812 30.5291C45.7118 30.6743 45.7025 30.7001 45.7025 30.8266C45.7025 30.918 45.7141 30.9766 45.7374 30.9977C45.777 31.0375 46.0984 31.0516 46.7342 31.0399L47.1115 31.0352V30.8618V30.6907L46.7808 30.6743C46.5991 30.665 46.4454 30.6533 46.4408 30.6509C46.4361 30.6462 46.4268 30.1893 46.4198 29.6364L46.4058 28.6289L46.6224 28.6148C46.7412 28.6055 46.8833 28.5984 46.9368 28.5984C47.0533 28.5984 47.0672 28.5703 47.0486 28.3735L47.0346 28.247H46.7249H46.4128V27.359C46.4128 26.7545 46.4198 26.464 46.4384 26.4546C46.4524 26.4452 46.6015 26.4312 46.7691 26.4241L47.0766 26.4077V26.2554V26.1031L46.4082 26.0961C45.8935 26.0914 45.7374 26.0985 45.7235 26.1195Z" fill="#323232"/>
<path fill-rule="evenodd" clip-rule="evenodd" d="M33.5306 28.8234C33.5003 28.9031 33.5213 29.7372 33.5586 29.9129C33.5749 29.9832 33.5725 30.0535 33.5586 30.1238C33.5236 30.2667 33.5283 30.3862 33.5655 30.4377C33.5958 30.4799 33.6028 30.4799 33.8497 30.4284C33.9894 30.3979 34.1268 30.3698 34.1571 30.3628L34.2107 30.3511L34.2037 29.5826C34.199 29.1585 34.1874 28.8047 34.178 28.7953C34.1687 28.7836 34.0243 28.7719 33.859 28.7672L33.5562 28.7578L33.5306 28.8234Z" fill="#323232"/>
<path fill-rule="evenodd" clip-rule="evenodd" d="M36.8163 29.819C36.7278 29.8542 36.616 29.9737 36.4856 30.1682C36.3738 30.3368 36.0035 30.8242 35.9872 30.8242C35.9849 30.8242 35.943 30.8008 35.8964 30.775C35.8196 30.7281 35.7869 30.7258 35.5867 30.7375C35.1884 30.7586 34.9415 30.8875 34.5503 31.2741C34.2266 31.595 33.9401 31.7825 33.8795 31.7216C33.8632 31.7052 33.9168 31.6232 34.0379 31.4802C34.4059 31.0398 34.4059 31.0398 34.3896 30.9039C34.3849 30.8593 34.357 30.8195 34.3011 30.782C34.187 30.7047 34.0193 30.7211 33.7608 30.8359C33.6536 30.8828 33.5535 30.9273 33.5395 30.9343C33.5232 30.9413 33.4999 30.9203 33.4883 30.8875C33.4347 30.7469 33.2647 30.7492 33.1343 30.8898C33.09 30.9367 32.9922 31.0538 32.9177 31.1475C32.6895 31.4381 32.2912 31.7473 32.1049 31.7778C31.8604 31.8176 32.035 31.4756 32.6592 30.6953C33.1157 30.1236 33.1762 30.0159 33.0691 29.9573C32.9946 29.9198 32.8292 29.9292 32.7477 29.9784C32.7081 30.0041 32.5497 30.1799 32.396 30.372C32.0886 30.7562 31.6531 31.1944 31.3736 31.4029C31.0592 31.6372 30.6749 31.7895 30.5864 31.7145C30.4863 31.6325 30.6074 31.431 31.1314 30.8055C31.2642 30.6461 31.4062 30.461 31.4505 30.3954C31.5366 30.2619 31.5529 30.1424 31.4947 30.058C31.4085 29.9339 31.0476 29.8987 30.7238 29.9807C30.272 30.0955 29.9832 30.3415 30.1626 30.461C30.2371 30.5079 30.3372 30.4774 30.6167 30.3181C30.8449 30.1916 31.0732 30.1213 31.1174 30.1658C31.1477 30.1963 31.0173 30.365 30.6679 30.7422C30.2278 31.2155 30.0904 31.4521 30.116 31.6864C30.1346 31.8621 30.3349 32.0168 30.5422 32.0191C30.7704 32.0191 31.1035 31.8645 31.3643 31.6325C31.4598 31.5482 31.5506 31.4802 31.5692 31.4802C31.6065 31.4802 31.6065 31.4756 31.5646 31.595C31.5227 31.7169 31.5529 31.8129 31.6671 31.909C31.8184 32.0355 32.0234 32.0449 32.2703 31.9348C32.4146 31.8692 32.4962 31.8621 32.5171 31.9137C32.5264 31.9371 32.5637 31.9488 32.6336 31.9488C32.736 31.9488 32.7407 31.9465 32.9061 31.7427C33.1436 31.4521 33.2903 31.3045 33.451 31.1874C33.8306 30.9132 34.1031 30.8828 33.9122 31.1358C33.8749 31.1827 33.7794 31.2951 33.6979 31.3889C33.4743 31.6442 33.4277 31.8059 33.5465 31.8996C33.5977 31.9395 33.642 31.9488 33.7817 31.9488C33.9634 31.9488 34.0216 31.9278 34.2475 31.7848C34.3081 31.745 34.371 31.7145 34.3873 31.7145C34.4036 31.7145 34.4362 31.7544 34.4618 31.8059C34.5177 31.916 34.6085 31.9559 34.7902 31.9559C34.9532 31.9535 35.1092 31.8879 35.2606 31.7591C35.3212 31.7099 35.3794 31.6677 35.3934 31.6677C35.4073 31.6677 35.419 31.7005 35.419 31.7403C35.419 31.7872 35.4423 31.834 35.4865 31.8809C35.5447 31.9395 35.5727 31.9488 35.6798 31.9488C35.8265 31.9488 36.0012 31.8739 36.1829 31.7333C36.2504 31.6817 36.311 31.6442 36.3179 31.6513C36.3249 31.6583 36.3482 31.6981 36.3715 31.7427C36.3948 31.7848 36.4623 31.8551 36.5229 31.8949C36.6207 31.9629 36.6556 31.9723 36.7814 31.9723C36.9863 31.9723 37.1517 31.9348 37.3287 31.8528C37.536 31.7567 37.6734 31.6442 38.0507 31.2811C38.2999 31.0374 38.3907 30.9648 38.4536 30.9531C38.6306 30.9179 38.6236 30.9413 38.3767 31.2225C38.0018 31.6442 37.9366 31.7942 38.0763 31.9113C38.2184 32.0308 38.5141 31.977 38.8122 31.7778C38.8984 31.7192 38.9846 31.6677 38.9985 31.663C39.0148 31.6583 39.0451 31.6934 39.0684 31.738C39.2081 32.0121 39.6087 32.0449 40.0536 31.82C40.1374 31.7778 40.2212 31.7263 40.2375 31.7052C40.2841 31.6489 40.3027 31.656 40.4518 31.7942C40.6172 31.9488 40.7057 31.9816 40.9246 31.9676C41.1412 31.9535 41.2995 31.8762 41.5301 31.6724C41.7607 31.4732 41.9167 31.3584 41.9493 31.3701C41.9656 31.3748 41.9726 31.4427 41.9679 31.5529C41.9563 31.8434 42.0425 31.9488 42.2917 31.9488C42.4896 31.9488 42.6317 31.8949 42.7877 31.7637C42.8646 31.6981 42.9344 31.6513 42.9461 31.6583C42.9554 31.6653 42.9647 31.7075 42.9647 31.752C42.9647 31.8832 43.0486 31.9488 43.2139 31.9488C43.3653 31.9488 43.4748 31.9043 43.6518 31.7755C43.7146 31.7286 43.7822 31.6911 43.7985 31.6911C43.8125 31.6911 43.8451 31.7356 43.866 31.7872C43.9545 32.0144 44.3132 32.0332 44.6089 31.8293C44.7673 31.7216 45.1609 31.3256 45.1493 31.2881C45.1236 31.2108 45.0398 31.2506 44.7906 31.4498C44.5251 31.6677 44.425 31.7239 44.3341 31.7099C44.2876 31.7028 44.2806 31.6911 44.2829 31.5927C44.2829 31.4498 44.3434 31.3654 44.567 31.1874C45.0398 30.8125 45.4427 30.3954 45.5428 30.1752C45.622 30.0041 45.6104 29.8659 45.5172 29.819C45.4287 29.7769 45.2261 29.8167 45.0957 29.9034C44.8349 30.0791 44.2689 30.7305 44.036 31.1288C43.9242 31.3162 43.7822 31.4662 43.6005 31.588C43.4445 31.6934 43.342 31.7286 43.3094 31.6958C43.2745 31.6606 43.3513 31.5482 43.5702 31.3045C43.6611 31.2014 43.7542 31.0819 43.7752 31.0398C43.8125 30.9648 43.8101 30.9577 43.7729 30.9296C43.7496 30.9132 43.6913 30.8945 43.6424 30.8851C43.5912 30.8781 43.519 30.8453 43.4817 30.8125C43.3443 30.6977 43.0672 30.693 42.7458 30.8008C42.6573 30.8289 42.4989 30.9179 42.3452 31.0234C42.0005 31.2647 41.9353 31.26 41.9097 31.0023C41.8934 30.8383 41.8375 30.7656 41.6978 30.7281C41.3717 30.6391 40.8291 30.8734 40.4914 31.2483C40.2562 31.5084 39.9418 31.7028 39.7042 31.7309C39.6204 31.7403 39.5878 31.7333 39.5365 31.6911C39.455 31.6278 39.455 31.5693 39.5389 31.4217C39.6669 31.1967 39.9767 30.9273 40.1351 30.9015C40.2375 30.8851 40.2422 30.9249 40.1584 31.0491C40.0838 31.1569 40.0931 31.185 40.1979 31.1944C40.2655 31.1991 40.2981 31.1874 40.368 31.1264C40.5403 30.9741 40.545 30.864 40.3796 30.768C40.2119 30.6672 39.8556 30.7305 39.5598 30.9109C39.4853 30.9554 39.2966 31.1147 39.1406 31.2623C38.7703 31.6161 38.5095 31.7872 38.4419 31.7192C38.4117 31.6888 38.5444 31.506 38.7983 31.2366C39.0311 30.9882 39.087 30.9039 39.0614 30.8359C39.0405 30.782 38.952 30.7703 38.7004 30.7867C38.4792 30.8031 38.4699 30.8008 38.4699 30.7562C38.4699 30.7305 38.4443 30.6906 38.4117 30.6696C38.2626 30.5712 37.9598 30.7797 38.046 30.9203C38.0926 30.9929 38.0786 31.028 37.9435 31.1733C37.7689 31.3654 37.5662 31.5154 37.331 31.6302C36.9887 31.7942 36.7581 31.7544 36.7581 31.5294C36.7581 31.4779 36.7674 31.4287 36.7767 31.4193C36.7861 31.4099 36.9072 31.3935 37.0446 31.3842C37.4195 31.3561 37.6245 31.2741 37.7363 31.11C37.8178 30.9905 37.8108 30.9156 37.713 30.8265C37.5663 30.6977 37.3753 30.6813 37.0702 30.7773C36.8862 30.8336 36.7581 30.9296 36.3808 31.2951C36.0245 31.6396 35.8615 31.7497 35.8009 31.6864C35.7706 31.6583 35.78 31.6349 35.8568 31.513C35.9453 31.3771 36.2411 31.014 36.7069 30.4727C37.1331 29.9784 37.2123 29.8401 37.0911 29.8073C37.0143 29.7862 36.8839 29.7933 36.8163 29.819ZM45.3868 30.0815C45.3868 30.1822 44.7207 30.9413 44.6322 30.9413C44.5763 30.9413 44.9676 30.4048 45.1795 30.1939C45.3169 30.0557 45.3868 30.0182 45.3868 30.0815ZM35.8009 30.9085C35.8801 30.939 35.8359 31.021 35.6239 31.2319C35.391 31.4638 35.2001 31.6021 35.0161 31.6724C34.8158 31.7497 34.7529 31.67 34.874 31.4896C35.0347 31.2459 35.3421 31.0163 35.6169 30.9273C35.7264 30.8921 35.752 30.8898 35.8009 30.9085ZM37.5243 30.932C37.5779 30.9835 37.5709 31.0163 37.4964 31.089C37.4079 31.1733 37.2565 31.2225 37.0772 31.2225H36.9258L36.9794 31.1639C37.0516 31.0866 37.2495 30.9554 37.3403 30.9226C37.4405 30.8875 37.4824 30.8898 37.5243 30.932ZM41.6722 30.9367C41.6722 30.9531 41.6302 30.9905 41.5813 31.0187C41.4695 31.0819 41.3973 31.1756 41.4183 31.2295C41.4253 31.253 41.4626 31.2858 41.4998 31.3069C41.5371 31.3256 41.5674 31.3561 41.5674 31.3748C41.5674 31.4193 41.4556 31.5013 41.2413 31.6161C40.9781 31.7591 40.8407 31.7684 40.7778 31.6466C40.6917 31.4873 41.0806 31.0702 41.4346 30.939C41.5674 30.8898 41.6722 30.8898 41.6722 30.9367ZM43.3094 30.9085C43.3793 30.9296 43.3746 30.9835 43.2861 31.103C43.1021 31.3537 42.5339 31.745 42.4081 31.7028C42.2055 31.6396 42.6946 31.0983 43.1021 30.939C43.2232 30.8921 43.2349 30.8898 43.3094 30.9085Z" fill="#323232"/>
<path fill-rule="evenodd" clip-rule="evenodd" d="M29.8228 30.7467C29.797 30.7702 29.804 31.0068 29.8298 31.0232C29.8556 31.0396 30.0172 30.892 30.0172 30.8522C30.0172 30.8217 29.9024 30.7303 29.865 30.7303C29.8509 30.7303 29.8298 30.7374 29.8228 30.7467Z" fill="#323232"/>
<path fill-rule="evenodd" clip-rule="evenodd" d="M28.1807 31.4378L28.1877 31.5151L28.7955 31.5221C29.4639 31.5291 29.6363 31.5151 29.6759 31.4495C29.6945 31.4167 29.6945 31.4026 29.6666 31.3862C29.6456 31.3722 29.3265 31.3628 28.9027 31.3628H28.1737L28.1807 31.4378Z" fill="#323232"/>
<path fill-rule="evenodd" clip-rule="evenodd" d="M45.6298 31.3862C45.5786 31.4073 45.539 31.4753 45.5646 31.501C45.5716 31.5081 45.9256 31.5151 46.3494 31.5151H47.1226L47.1296 31.4378L47.1366 31.3628L46.4077 31.3651C46.0071 31.3651 45.6578 31.3745 45.6298 31.3862Z" fill="#323232"/>
<path fill-rule="evenodd" clip-rule="evenodd" d="M29.2871 32.3258C29.0216 32.4031 28.9331 32.7358 29.131 32.9256C29.3104 33.0943 29.6551 33.0896 29.8064 32.9186C29.9485 32.7569 29.9182 32.5086 29.7459 32.3867C29.6364 32.3094 29.4385 32.2836 29.2871 32.3258ZM29.6411 32.4594C29.6737 32.4828 29.7156 32.5414 29.7296 32.5882C29.8111 32.8342 29.5246 33.0545 29.308 32.9116C29.2172 32.8506 29.1799 32.778 29.1776 32.6562C29.1776 32.5765 29.1916 32.5437 29.2428 32.4945C29.2778 32.4617 29.3267 32.4266 29.3523 32.4149C29.4222 32.3844 29.5735 32.4078 29.6411 32.4594Z" fill="#323232"/>
<path fill-rule="evenodd" clip-rule="evenodd" d="M31.0964 32.3241C31.0288 32.3522 30.9473 32.46 30.9473 32.5233C30.9473 32.6099 31.0498 32.6896 31.1802 32.706C31.313 32.7224 31.4504 32.781 31.469 32.8302C31.476 32.8489 31.4597 32.8864 31.4341 32.9122C31.3642 32.9825 31.1895 32.9637 31.0754 32.8771C30.9473 32.7786 30.8611 32.8419 30.9776 32.952C31.1686 33.1324 31.6227 33.0504 31.6227 32.8349C31.6227 32.7997 31.6017 32.7482 31.5785 32.7248C31.5389 32.6849 31.3316 32.6053 31.2664 32.6053C31.2175 32.6053 31.0871 32.5279 31.0871 32.4975C31.0871 32.4506 31.1825 32.3944 31.2641 32.3944C31.3036 32.3944 31.3758 32.4202 31.4224 32.453C31.5156 32.5162 31.5994 32.5303 31.5994 32.4811C31.5994 32.3616 31.2617 32.2562 31.0964 32.3241Z" fill="#323232"/>
<path fill-rule="evenodd" clip-rule="evenodd" d="M36.0205 32.3213C35.7527 32.408 35.6526 32.6516 35.79 32.8766C35.8715 33.0125 36.1207 33.0828 36.3256 33.0265C36.6307 32.9445 36.7052 32.5649 36.4537 32.3869C36.3489 32.3142 36.1416 32.2838 36.0205 32.3213ZM36.3419 32.4525C36.4211 32.504 36.4747 32.6376 36.4584 32.7336C36.4491 32.7735 36.4118 32.8391 36.3722 32.8766C36.3116 32.9351 36.2837 32.9445 36.1766 32.9445C36.0229 32.9445 35.9344 32.8859 35.8878 32.7524C35.8575 32.668 35.8598 32.6516 35.8994 32.5673C35.9786 32.4033 36.1859 32.3494 36.3419 32.4525Z" fill="#323232"/>
<path fill-rule="evenodd" clip-rule="evenodd" d="M36.9869 32.3429C36.8356 32.4039 36.775 32.4695 36.7587 32.5913C36.7331 32.7577 36.761 32.849 36.8635 32.9404C36.9986 33.0646 37.2431 33.0857 37.4248 32.9896C37.5226 32.9404 37.6111 32.7928 37.6134 32.6827C37.6158 32.5163 37.5273 32.3968 37.3549 32.3359C37.2268 32.2914 37.1104 32.2937 36.9869 32.3429ZM37.3223 32.4414C37.49 32.5444 37.5156 32.7319 37.3805 32.8678C37.2105 33.0412 36.8868 32.9357 36.8868 32.7061C36.8868 32.4695 37.129 32.3219 37.3223 32.4414Z" fill="#323232"/>
<path fill-rule="evenodd" clip-rule="evenodd" d="M41.8849 32.3243C41.7359 32.3711 41.6264 32.5516 41.645 32.7179C41.659 32.8491 41.7196 32.9311 41.8477 32.9967C42.0363 33.0951 42.2925 33.0506 42.4299 32.8983C42.4811 32.8444 42.4881 32.814 42.4881 32.6804C42.4858 32.493 42.4439 32.4157 42.3181 32.3641C42.2063 32.3196 41.9711 32.2985 41.8849 32.3243ZM42.2226 32.4485C42.2669 32.4766 42.3204 32.5398 42.3437 32.589C42.3856 32.6734 42.3856 32.6781 42.3437 32.7624C42.2878 32.8772 42.1691 32.9569 42.0503 32.9569C41.9758 32.9569 41.9431 32.9405 41.8686 32.8655C41.7964 32.7929 41.7778 32.7577 41.7778 32.6875C41.7778 32.4532 42.0293 32.3173 42.2226 32.4485Z" fill="#323232"/>
<path fill-rule="evenodd" clip-rule="evenodd" d="M44.6357 32.3326C44.5145 32.3771 44.4656 32.4264 44.4191 32.5482C44.3259 32.7965 44.5145 33.0496 44.794 33.0496C44.9244 33.0496 45.0758 32.9746 45.1294 32.8832C45.2132 32.745 45.141 32.7286 44.9966 32.8528C44.9314 32.9067 44.8662 32.9418 44.8057 32.9488C44.7242 32.9606 44.7055 32.9535 44.6333 32.8809C44.4959 32.7427 44.4936 32.6091 44.631 32.4709C44.7311 32.3701 44.808 32.3701 44.9687 32.4756C45.1084 32.5669 45.1643 32.5552 45.1084 32.4498C45.0432 32.3303 44.8033 32.2694 44.6357 32.3326Z" fill="#323232"/>
<path fill-rule="evenodd" clip-rule="evenodd" d="M45.6068 32.3165C45.5253 32.3329 45.3693 32.4805 45.3413 32.5719C45.3087 32.6726 45.3227 32.7687 45.3926 32.8812C45.4578 32.9866 45.5952 33.0475 45.7698 33.0498C45.9003 33.0498 45.9096 33.0452 46.0097 32.9444C46.068 32.8882 46.1099 32.8273 46.1052 32.8109C46.0866 32.7546 46.0237 32.7663 45.9562 32.8343C45.8281 32.9608 45.7419 32.9842 45.6208 32.921C45.4811 32.8483 45.4391 32.6492 45.5346 32.5086C45.6278 32.368 45.7396 32.368 45.9631 32.5133C46.0353 32.5578 46.04 32.5602 46.0563 32.5227C46.1029 32.3961 45.8327 32.272 45.6068 32.3165Z" fill="#323232"/>
<path fill-rule="evenodd" clip-rule="evenodd" d="M46.5268 32.3214C46.3312 32.3847 46.2613 32.5042 46.2706 32.7502C46.273 32.8345 46.3778 32.954 46.4942 33.0056C46.7015 33.1016 47.0182 33.022 47.0974 32.8533C47.1789 32.6822 47.1254 32.4831 46.974 32.3823C46.8715 32.3144 46.6433 32.2839 46.5268 32.3214ZM46.8575 32.4432C46.9251 32.469 46.9949 32.5979 46.9949 32.6963C46.9949 32.8275 46.8389 32.9563 46.6805 32.9563C46.62 32.9563 46.5757 32.9353 46.5105 32.8767C46.4313 32.8017 46.4244 32.7853 46.4244 32.6682C46.4244 32.5744 46.436 32.5252 46.4686 32.4901C46.5501 32.3987 46.6992 32.3823 46.8575 32.4432Z" fill="#323232"/>
<path fill-rule="evenodd" clip-rule="evenodd" d="M28.2279 32.3522C28.2349 32.3686 28.2814 32.385 28.3327 32.3897C28.3862 32.3944 28.4421 32.4132 28.4584 32.4319C28.4771 32.4553 28.4934 32.5701 28.498 32.7482C28.5073 32.9895 28.5143 33.027 28.5469 33.027C28.6261 33.027 28.6424 32.9755 28.6424 32.7342C28.6424 32.446 28.668 32.3944 28.8054 32.4015C28.9033 32.4038 28.9359 32.3897 28.9102 32.3499C28.887 32.3101 28.2162 32.3148 28.2279 32.3522Z" fill="#323232"/>
<path fill-rule="evenodd" clip-rule="evenodd" d="M30.3233 32.3771C30.272 32.4333 30.0787 32.8457 30.0508 32.9605C30.0368 33.0167 30.0415 33.0261 30.081 33.0261C30.1276 33.0261 30.1719 32.9863 30.2138 32.8996C30.2348 32.8574 30.2604 32.8504 30.4048 32.8433L30.5725 32.8363L30.6051 32.9136C30.6633 33.0519 30.7611 33.0893 30.7611 32.9722C30.7611 32.9043 30.5561 32.431 30.5003 32.37C30.442 32.3091 30.3838 32.3115 30.3233 32.3771ZM30.4723 32.6184C30.4909 32.7192 30.4607 32.7566 30.3792 32.7356C30.3093 32.7192 30.3 32.6629 30.3559 32.5856C30.4094 32.5083 30.4537 32.5223 30.4723 32.6184Z" fill="#323232"/>
<path fill-rule="evenodd" clip-rule="evenodd" d="M31.7674 32.3522C31.7744 32.3686 31.793 32.385 31.8116 32.3874C31.8303 32.3897 31.8838 32.3967 31.9327 32.4061L32.0189 32.4202V32.5678C32.0189 32.8185 32.0469 33.0059 32.0841 33.0223C32.147 33.0457 32.1773 32.9591 32.1936 32.6873L32.2099 32.4202L32.2937 32.4061C32.3426 32.3967 32.3939 32.3897 32.4125 32.3874C32.4311 32.385 32.4498 32.3686 32.4567 32.3522C32.4637 32.3311 32.3846 32.3241 32.1121 32.3241C31.8396 32.3241 31.7604 32.3311 31.7674 32.3522Z" fill="#323232"/>
<path fill-rule="evenodd" clip-rule="evenodd" d="M32.7152 32.3397C32.6383 32.3515 32.6243 32.41 32.6243 32.7099C32.6243 33.0286 32.6336 33.038 32.9923 33.038C33.146 33.038 33.2811 33.0286 33.2904 33.0192C33.3253 32.9864 33.2462 32.9559 33.1227 32.9559C33.0575 32.9559 32.955 32.9489 32.8945 32.9419L32.7874 32.9255V32.8271V32.7287L32.9993 32.7146C33.1181 32.7076 33.2229 32.6912 33.2368 32.6771C33.2718 32.642 33.1553 32.6045 33.0063 32.6045C32.8479 32.6045 32.7874 32.574 32.7874 32.4967C32.7874 32.4217 32.8596 32.3936 33.0552 32.3936C33.2159 32.3936 33.2834 32.3772 33.2625 32.3444C33.2508 32.3233 32.8386 32.321 32.7152 32.3397Z" fill="#323232"/>
<path fill-rule="evenodd" clip-rule="evenodd" d="M33.5539 32.3397C33.5236 32.3468 33.5143 32.3889 33.505 32.5529C33.5003 32.6654 33.5003 32.813 33.505 32.881C33.5143 32.9911 33.5213 33.0098 33.5772 33.0309C33.661 33.0637 33.9475 33.0426 34.0383 32.9958C34.213 32.9044 34.2828 32.6654 34.185 32.4897C34.1105 32.3585 34.0243 32.3233 33.7844 32.3257C33.6796 32.328 33.5748 32.3327 33.5539 32.3397ZM33.9288 32.417C34.0336 32.4452 34.0918 32.5412 34.0918 32.6865C34.0918 32.7755 34.0802 32.8083 34.0266 32.8622C33.9544 32.9325 33.8264 32.97 33.7332 32.9466C33.6913 32.9372 33.675 32.9114 33.6633 32.8458C33.64 32.6959 33.647 32.4522 33.6773 32.4217C33.7122 32.3866 33.817 32.3866 33.9288 32.417Z" fill="#323232"/>
<path fill-rule="evenodd" clip-rule="evenodd" d="M34.8653 32.3444C34.8188 32.3725 34.8351 32.9958 34.884 33.0262C34.9422 33.0614 34.9748 33.0051 34.9818 32.8552L34.9888 32.7099L35.1867 32.7193C35.2985 32.724 35.3917 32.738 35.401 32.7544C35.4103 32.7685 35.4196 32.8107 35.4196 32.8505C35.4196 32.9559 35.4452 33.0262 35.4802 33.0262C35.5244 33.0262 35.5384 32.9091 35.5314 32.6045C35.5244 32.3538 35.5221 32.335 35.4779 32.335C35.4406 32.335 35.4289 32.3561 35.4173 32.4475C35.4103 32.5108 35.3894 32.5717 35.3707 32.5834C35.3544 32.5951 35.2613 32.6045 35.1704 32.6045H35.0004V32.5248C35.0004 32.3655 34.9445 32.2929 34.8653 32.3444Z" fill="#323232"/>
<path fill-rule="evenodd" clip-rule="evenodd" d="M38.3191 32.3522C38.2935 32.3663 38.205 32.4319 38.1235 32.4928C37.9582 32.6217 37.9349 32.617 37.9139 32.46C37.9046 32.3897 37.8883 32.3569 37.8603 32.3522C37.8231 32.3452 37.8184 32.3733 37.8184 32.6709C37.8184 32.8489 37.8254 33.0036 37.8347 33.0106C37.8627 33.0387 37.9092 32.9755 37.9256 32.8888C37.9419 32.7927 37.9931 32.699 38.0304 32.699C38.0443 32.699 38.1328 32.7716 38.2237 32.863C38.3844 33.0176 38.4496 33.0551 38.4822 33.0059C38.4892 32.9919 38.4263 32.9052 38.3424 32.8068C38.2586 32.7107 38.191 32.6217 38.191 32.6076C38.191 32.5959 38.2539 32.535 38.3308 32.4764C38.4659 32.371 38.4892 32.3241 38.4053 32.3241C38.3844 32.3241 38.3448 32.3382 38.3191 32.3522Z" fill="#323232"/>
<path fill-rule="evenodd" clip-rule="evenodd" d="M38.9036 32.3659C38.8501 32.4291 38.6335 32.9118 38.6335 32.9727C38.6335 33.0688 38.7546 33.0219 38.7919 32.9094C38.8175 32.8415 38.8221 32.8391 38.9689 32.8391C39.0923 32.8391 39.1319 32.8485 39.1691 32.886C39.1948 32.9118 39.2157 32.9493 39.2157 32.968C39.2157 33.0078 39.2833 33.0477 39.3275 33.0336C39.3415 33.0266 39.3555 33.0055 39.3555 32.9844C39.3555 32.9235 39.1039 32.3869 39.0597 32.3518C39.0038 32.312 38.9502 32.3167 38.9036 32.3659ZM39.0574 32.6072C39.0806 32.6869 39.0783 32.7056 39.0504 32.7243C39.0038 32.7525 38.9758 32.7501 38.9246 32.715C38.885 32.6845 38.885 32.6798 38.9362 32.5861C38.9665 32.5322 38.9991 32.4947 39.0084 32.5018C39.0201 32.5088 39.041 32.5556 39.0574 32.6072Z" fill="#323232"/>
<path fill-rule="evenodd" clip-rule="evenodd" d="M39.558 32.3404C39.5487 32.3474 39.5417 32.5021 39.5417 32.6801C39.5417 32.9543 39.5464 33.0082 39.579 33.0199C39.6349 33.041 39.6652 32.9918 39.6768 32.8512L39.6861 32.7223H39.8072C39.8724 32.7223 39.9633 32.7153 40.0098 32.7082L40.0937 32.6942L40.1053 32.8512C40.1216 33.041 40.1472 33.0738 40.2171 33.0035C40.266 32.9543 40.2683 32.9355 40.259 32.6708C40.2497 32.4294 40.2427 32.3849 40.2055 32.3568C40.1426 32.3099 40.1053 32.3545 40.096 32.4833L40.089 32.5934H39.8911H39.6931L39.6815 32.488C39.6745 32.4294 39.6605 32.3685 39.6512 32.3521C39.6302 32.3217 39.5813 32.3146 39.558 32.3404Z" fill="#323232"/>
<path fill-rule="evenodd" clip-rule="evenodd" d="M40.8043 32.3522C40.8112 32.3686 40.8695 32.3874 40.9347 32.3944C40.9999 32.4015 41.0604 32.4155 41.0721 32.4272C41.0814 32.4366 41.0954 32.5655 41.0977 32.7107C41.1047 32.9005 41.1163 32.9849 41.1373 33.0036C41.1955 33.0528 41.2118 33.0083 41.2258 32.7482C41.2421 32.4319 41.2584 32.3968 41.3818 32.4015C41.4796 32.4038 41.5123 32.3897 41.4866 32.3499C41.4633 32.3101 40.7926 32.3148 40.8043 32.3522Z" fill="#323232"/>
<path fill-rule="evenodd" clip-rule="evenodd" d="M42.686 32.6357C42.686 33.0364 42.693 33.0504 42.9259 33.0504C43.0191 33.0504 43.1285 33.0411 43.1728 33.027C43.3428 32.9778 43.408 32.8396 43.3218 32.7084C43.2892 32.6568 43.2869 32.6357 43.3125 32.5678C43.3451 32.4787 43.3242 32.4202 43.2403 32.3616C43.2007 32.3335 43.1262 32.3241 42.9376 32.3241H42.686V32.6357ZM43.0936 32.4272C43.1774 32.4647 43.2007 32.5233 43.1472 32.5771C43.1192 32.6053 42.9259 32.6146 42.863 32.5912C42.8188 32.5748 42.8141 32.4623 42.8537 32.4225C42.891 32.385 42.9958 32.3874 43.0936 32.4272ZM43.1937 32.7622C43.2333 32.8161 43.2287 32.8489 43.1774 32.8958C43.1192 32.9473 42.9725 32.9684 42.891 32.9356C42.8374 32.9145 42.8258 32.8958 42.8258 32.8278C42.8258 32.7646 42.8374 32.7388 42.8793 32.7224C42.9539 32.6896 43.1565 32.7177 43.1937 32.7622Z" fill="#323232"/>
<path fill-rule="evenodd" clip-rule="evenodd" d="M43.8203 32.3517C43.7598 32.3985 43.4943 32.9819 43.5222 33.01C43.5572 33.0452 43.6154 33.0124 43.6666 32.921C43.7155 32.839 43.7179 32.839 43.8762 32.839C44.0299 32.839 44.0369 32.8414 44.0719 32.907C44.1184 33.0007 44.1999 33.0569 44.2372 33.0241C44.2721 32.9936 44.2512 32.928 44.0998 32.6C43.981 32.3423 43.9135 32.2837 43.8203 32.3517ZM43.9391 32.6352C43.9484 32.7336 43.9088 32.764 43.8296 32.7219C43.7691 32.6891 43.7691 32.6727 43.8296 32.5953C43.8925 32.5133 43.9298 32.5274 43.9391 32.6352Z" fill="#323232"/>
</svg>
