<svg width="40" height="71" viewBox="0 0 40 71" fill="none" xmlns="http://www.w3.org/2000/svg">
<path fill-rule="evenodd" clip-rule="evenodd" d="M15.0469 0.612541C15.0469 0.691855 14.5423 4.30854 13.9432 8.62319C13.344 12.9378 12.8395 16.6338 12.8395 16.8083V17.1573L14.2743 16.7925C15.5042 16.4752 16.0875 16.1897 18.3423 14.8255C19.7771 13.9372 21.0543 13.1599 21.1646 13.0806C21.3381 12.9854 20.802 11.7957 18.8468 7.8935C16.0087 2.19881 15.0627 0.374601 15.0469 0.612541Z" fill="black"/>
<path fill-rule="evenodd" clip-rule="evenodd" d="M18.7841 15.3176C17.5858 16.0155 16.6397 16.6183 16.6713 16.65C16.7028 16.6976 17.9169 16.4279 19.3517 16.0631L21.9691 15.4127L21.6222 14.7148C21.4488 14.3341 21.2123 14.0168 21.1335 14.0327C21.0389 14.0327 19.9824 14.6196 18.7841 15.3176Z" fill="black"/>
<path fill-rule="evenodd" clip-rule="evenodd" d="M17.3648 17.3482C15.047 18.0302 13.0919 18.633 13.0288 18.6965C12.9184 18.8075 23.0884 18.6648 23.1988 18.5537C23.2303 18.522 22.9938 17.9509 22.6627 17.2847C22.3 16.5392 21.9847 16.0791 21.827 16.095C21.7009 16.1109 19.6826 16.6661 17.3648 17.3482Z" fill="black"/>
<path fill-rule="evenodd" clip-rule="evenodd" d="M16.4976 20.2188C14.5583 20.2823 12.95 20.3616 12.9027 20.4092C12.8554 20.4409 14.6529 21.8209 16.8918 23.4548C19.1308 25.1045 21.0387 26.5004 21.1333 26.5797C21.2752 26.6749 28.4493 26.4211 28.5755 26.3101C28.607 26.2942 27.6137 24.8666 26.368 23.1534L24.1291 20.0443L22.0635 20.076C20.944 20.076 18.437 20.1395 16.4976 20.2188Z" fill="black"/>
<path fill-rule="evenodd" clip-rule="evenodd" d="M12.8395 21.5518C13.3914 23.0112 13.5333 23.1381 14.905 23.5029C15.6146 23.6933 16.2295 23.8361 16.261 23.8043C16.3083 23.7409 12.8868 21.1553 12.7607 21.1553C12.7291 21.1553 12.7607 21.3298 12.8395 21.5518Z" fill="black"/>
<path fill-rule="evenodd" clip-rule="evenodd" d="M13.8488 23.8049C13.9119 23.9477 14.243 24.725 14.6056 25.5498L15.2521 27.0251L16.9234 26.9299C17.8379 26.8664 19.0205 26.7871 19.5408 26.7237L20.4869 26.6285L18.9259 25.534C17.3965 24.4553 17.1126 24.3443 14.7633 23.7891C13.8488 23.5829 13.77 23.5829 13.8488 23.8049Z" fill="black"/>
<path fill-rule="evenodd" clip-rule="evenodd" d="M13.5177 28.1666C13.565 28.3728 13.6912 29.0232 13.8015 29.6101L14.0065 30.6888L16.6081 33.084C18.043 34.4006 19.4147 35.6538 19.6355 35.86L20.0454 36.2407L20.8023 32.3861C21.2122 30.2605 21.5906 28.3728 21.6222 28.1666L21.701 27.8176H17.5699H13.4389L13.5177 28.1666Z" fill="black"/>
<path fill-rule="evenodd" clip-rule="evenodd" d="M7.1158 30.5454C6.87929 31.973 6.69008 33.1786 6.69008 33.242C6.69008 33.3689 12.9497 35.4787 13.1232 35.3994C13.2493 35.3518 7.80956 28.0074 7.63612 27.9915C7.58882 27.9756 7.35231 29.1336 7.1158 30.5454Z" fill="black"/>
<path fill-rule="evenodd" clip-rule="evenodd" d="M23.8774 28.0875C23.8774 28.2302 26.1952 33.8615 26.274 33.9249C26.4948 34.0836 32.4391 36.225 32.5021 36.1616C32.5494 36.114 31.9187 34.2581 31.1146 32.0214L29.6325 27.9764H26.7628C25.1703 27.9764 23.8774 28.024 23.8774 28.0875Z" fill="black"/>
<path fill-rule="evenodd" clip-rule="evenodd" d="M2.90562 37.5731C2.90562 37.7317 4.49813 40.8567 4.5612 40.8091C4.59274 40.7773 4.4666 40.0159 4.29316 39.1118L3.96204 37.4938H3.44171C3.14213 37.4938 2.90562 37.5255 2.90562 37.5731Z" fill="black"/>
<path fill-rule="evenodd" clip-rule="evenodd" d="M4.63998 37.5889C4.63998 37.6682 4.75036 38.4455 4.8765 39.3179C5.00263 40.1904 5.11301 40.9994 5.11301 41.0946C5.11301 41.2532 5.55449 41.3008 6.76858 41.3008C8.21918 41.3008 8.47146 41.3484 8.73951 41.618C9.13369 42.0146 9.14946 42.6015 8.77104 42.9346C8.5503 43.1408 8.17188 43.2043 7.1943 43.2043H5.90138V45.1078V47.0113H7.16277C8.21918 47.0113 8.47146 47.0589 8.73951 47.3286C8.91295 47.5031 9.05485 47.7886 9.05485 47.9631C9.05485 48.1376 8.91295 48.4231 8.73951 48.5976C8.47146 48.8673 8.21918 48.9148 7.16277 48.9148H5.90138V50.8342V52.7536L7.68309 52.6902C9.10216 52.6426 9.57518 52.5633 10.0955 52.2936C11.1519 51.7384 11.688 51.1832 12.1926 50.1521C12.839 48.8514 12.8863 47.2175 12.2872 45.9327L11.9088 45.1078L12.2872 44.2671C12.5868 43.6326 12.6814 43.1884 12.6814 42.2525C12.6814 40.7614 12.2556 39.7621 11.215 38.8103C10.0797 37.7634 9.62248 37.6206 6.97356 37.5255C5.68063 37.4937 4.63998 37.5096 4.63998 37.5889Z" fill="black"/>
<path fill-rule="evenodd" clip-rule="evenodd" d="M13.3127 40.0636C13.3127 42.2844 13.3443 42.5382 13.6754 43.1092C14.2273 44.0768 14.8264 44.3148 16.75 44.3148C18.3268 44.3148 18.3741 44.2989 18.5475 43.9182C18.7052 43.5534 18.8156 43.5217 19.7301 43.5217C20.2662 43.5217 20.7234 43.4582 20.7234 43.3948C20.7234 43.3154 20.613 42.9347 20.4711 42.5223C20.2504 41.8719 20.1716 41.7768 19.7774 41.7768H19.3201L19.5409 41.2374C19.7458 40.7298 19.7301 40.6029 19.3517 39.5718C19.1309 38.9373 18.8944 38.4932 18.8156 38.5566C18.7525 38.6201 18.2637 39.9367 17.7118 41.4595C16.7343 44.1562 16.7027 44.2196 16.6554 43.4741C16.6081 42.7602 16.5924 42.7285 16.1351 42.7285C15.8513 42.7285 15.5202 42.5858 15.2837 42.332C14.9053 41.9671 14.8895 41.8719 14.8895 39.7939V37.6525H14.1011H13.3127V40.0636Z" fill="black"/>
<path fill-rule="evenodd" clip-rule="evenodd" d="M19.2729 37.7316C19.2256 37.7792 19.7144 39.2544 20.3293 41.0311L21.4803 44.2353L22.3791 44.2829C23.199 44.3305 23.2778 44.2988 23.1674 44.045C23.1044 43.8863 22.5998 42.5221 22.048 40.9993C20.7393 37.462 20.8496 37.6523 20.0297 37.6523C19.6671 37.6523 19.3202 37.684 19.2729 37.7316Z" fill="black"/>
<path fill-rule="evenodd" clip-rule="evenodd" d="M25.722 37.8587C23.1204 38.6835 22.5685 42.1733 24.7917 43.7437C25.2963 44.1086 25.6747 44.2355 26.4 44.2831L27.346 44.3465V43.5375C27.346 42.7602 27.3303 42.7285 26.9203 42.7285C26.2896 42.7285 25.4066 42.2368 25.1859 41.7768C24.839 41.0788 24.9336 40.5236 25.517 39.9367C25.9585 39.4925 26.1792 39.3974 26.6996 39.3974H27.346V38.5249V37.6525L26.8415 37.6683C26.5577 37.6683 26.0531 37.7635 25.722 37.8587Z" fill="black"/>
<path fill-rule="evenodd" clip-rule="evenodd" d="M27.8193 40.9836V44.3148H28.6076H29.396V40.9836V37.6525H28.6076H27.8193V40.9836Z" fill="black"/>
<path fill-rule="evenodd" clip-rule="evenodd" d="M31.0833 37.7473C31.0202 37.8107 30.9729 38.1597 30.9729 38.5087C30.9729 39.2066 30.6576 39.7143 30.0742 40.0156C29.7588 40.1743 29.7115 40.3329 29.7115 41.0626C29.7115 41.7764 29.7588 41.935 30.0269 42.0143C30.563 42.1888 30.9729 42.8709 30.9729 43.6165V44.3144H31.8559H32.7546L32.66 43.3309C32.597 42.5854 32.455 42.1888 32.0924 41.6654C31.6509 41.0309 31.6194 40.9357 31.8401 40.7295C32.3131 40.2536 32.5969 39.4763 32.6127 38.6039L32.6285 37.7314L31.919 37.6838C31.5248 37.6521 31.1464 37.6838 31.0833 37.7473Z" fill="black"/>
<path fill-rule="evenodd" clip-rule="evenodd" d="M0.85585 46.2178C0.85585 51.1352 0.903153 52.4201 1.06083 52.3567C1.15543 52.3249 1.97534 51.9442 2.87408 51.5318L4.48235 50.7704L4.45082 46.4716L4.40351 42.1887L3.14212 41.4114C2.44836 40.9831 1.64422 40.4914 1.37617 40.3169L0.85585 39.9996V46.2178Z" fill="black"/>
<path fill-rule="evenodd" clip-rule="evenodd" d="M13.3127 47.5978C13.3127 50.58 13.4704 51.1828 14.4007 51.9759C15.9774 53.3084 18.4844 52.7532 19.3201 50.8972C19.5724 50.3579 19.6197 49.8344 19.6197 47.5978V44.9487H18.5318H17.4438L17.5069 47.3757C17.5699 50.2786 17.4753 50.5641 16.5135 50.6276C15.4571 50.7069 15.3625 50.4372 15.3625 47.455V44.9487H14.3376H13.3127V47.5978Z" fill="black"/>
<path fill-rule="evenodd" clip-rule="evenodd" d="M20.093 45.9005V46.8364L21.8747 46.884L23.6407 46.9316V47.3281V47.7247L21.8747 47.7723L20.093 47.8199V50.2786V52.7373L20.9287 52.6897L21.7486 52.6421V51.2145V49.7868L22.3635 49.7393C22.7104 49.7075 23.1519 49.7234 23.3569 49.771C23.7038 49.8662 23.7195 49.9296 23.7195 51.2938V52.7214H24.8233H25.927V51.3255C25.927 50.3103 25.8481 49.8027 25.6432 49.3903C25.3751 48.8509 25.3751 48.8034 25.6589 48.1371C26.0216 47.2964 25.927 46.5826 25.3436 45.8846C24.6813 45.1074 24.1295 44.9487 21.9851 44.9487H20.093V45.9005Z" fill="black"/>
<path fill-rule="evenodd" clip-rule="evenodd" d="M26.4003 48.8351V52.7214H27.4252H28.4501V48.8351V44.9487H27.4252H26.4003V48.8351Z" fill="black"/>
<path fill-rule="evenodd" clip-rule="evenodd" d="M28.923 45.8846C28.923 46.8364 28.923 46.8522 29.3645 46.8522C29.601 46.8522 29.9637 46.9633 30.1529 47.106C30.484 47.344 30.4998 47.4392 30.4998 50.0406V52.7214H31.6192H32.7387L32.6757 49.8027L32.6284 46.884L32.1396 46.2812C31.367 45.3136 30.9097 45.0598 29.8691 44.9804L28.923 44.917V45.8846Z" fill="black"/>
<path fill-rule="evenodd" clip-rule="evenodd" d="M35.7821 46.8215C34.8361 47.2022 34.0004 47.5671 33.9373 47.6305C33.8743 47.6781 34.1423 48.8995 34.5207 50.343C34.9149 51.7707 35.2303 53.0397 35.2303 53.1507C35.2303 53.2618 35.2776 53.3569 35.3564 53.3569C35.4825 53.3569 37.6427 46.4408 37.5638 46.2505C37.5323 46.1712 36.7439 46.4249 35.7821 46.8215Z" fill="black"/>
<path fill-rule="evenodd" clip-rule="evenodd" d="M28.1659 54.6258C27.9925 55.0223 26.873 57.3383 25.6904 59.7811C22.2689 66.8083 21.181 69.1084 21.2756 69.1877C21.3229 69.2353 21.4805 69.156 21.6224 69.0291C21.7801 68.9022 23.8299 67.1731 26.1635 65.1744C28.5128 63.1916 30.4837 61.5102 30.5468 61.4467C30.6414 61.3674 29.0804 55.6568 28.5443 54.0706C28.5128 53.9754 28.3394 54.2292 28.1659 54.6258Z" fill="black"/>
<path fill-rule="evenodd" clip-rule="evenodd" d="M5.16027 56.1964C2.35367 57.0371 0.0831697 57.7668 0.114704 57.8144C0.240844 58.1158 4.84492 62.0973 4.93952 61.9863C5.47562 61.3835 10.3477 54.7688 10.3004 54.7212C10.2689 54.6895 7.9511 55.3557 5.16027 56.1964Z" fill="black"/>
<path fill-rule="evenodd" clip-rule="evenodd" d="M29.4275 55.3388C29.8059 56.8141 31.0516 60.8115 31.1462 60.8115C31.2092 60.8115 31.5876 60.5101 31.9818 60.1294L32.7071 59.4631L31.225 57.4327C29.5852 55.1802 29.3014 54.8471 29.4275 55.3388Z" fill="black"/>
<path fill-rule="evenodd" clip-rule="evenodd" d="M9.2127 58.147C8.04592 59.6539 6.78452 61.3036 6.40611 61.7954C6.02769 62.2871 5.74388 62.763 5.75964 62.8423C5.79118 62.9216 7.28908 64.3017 9.0708 65.9038C10.8683 67.5059 12.9023 69.346 13.6118 69.9964C14.6367 70.9323 14.889 71.0909 14.8259 70.7895C14.7628 70.5833 13.9745 67.0618 13.0599 62.9534C12.1454 58.8608 11.3886 55.482 11.3571 55.4662C11.3413 55.4345 10.3637 56.6559 9.2127 58.147Z" fill="black"/>
<path fill-rule="evenodd" clip-rule="evenodd" d="M23.2303 57.5285C21.4644 58.6865 19.3516 60.0507 18.5632 60.5583C17.7591 61.0659 17.0968 61.5418 17.0968 61.6052C17.0968 61.6687 17.5226 63.0805 18.0586 64.7143C18.579 66.364 19.1151 68.0613 19.257 68.4738C19.3831 68.9021 19.525 69.2034 19.5723 69.1717C19.7142 69.0131 26.5573 55.5298 26.51 55.4822C26.4784 55.4505 25.0121 56.3705 23.2303 57.5285Z" fill="black"/>
<path d="M7.36349 36.4632L7.36319 34.326L14.0943 36.6054L7.36349 36.4632Z" fill="#FF9D00"/>
<path d="M1.70157 39.3208L1.7016 37.4414L2.93796 37.4414L5.26265 41.2499L1.70157 39.3208Z" fill="#FF9D00"/>
<path d="M35.2862 46.9382L34.7916 45.2565L38.5012 42.4866L35.2862 46.9382Z" fill="#FF9D00"/>
<path d="M34.0001 59.1554L31.0324 53.7146L34.7915 54.2092L34.0001 59.1554Z" fill="#FF9D00"/>
<path d="M18.4689 60.3428L19.7055 57.2762L26.9766 54.8031L18.4689 60.3428Z" fill="#FF9D00"/>
<path d="M1.25631 56.3859L10.1101 53.2698L10.7531 54.349L1.25631 56.3859Z" fill="#FF9D00"/>
<path d="M5.51007 52.6265L2.49281 52.6265L5.51007 51.0438L5.51007 52.6265Z" fill="#FF9D00"/>
<path d="M38.4022 45.1581L36.7206 46.0979L36.4238 46.0484L39.0453 42.784L38.4022 45.1581Z" fill="#FF9D00"/>
<path d="M15.4483 34.469L15.0919 31.8337L19.2234 35.894L15.4483 34.469Z" fill="#FF9D00"/>
<path d="M22.6425 32.1899L23.4976 28.1298L24.4233 29.6968L22.6425 32.1899Z" fill="#FF9D00"/>
<path d="M26.9165 36.1786L27.059 34.4689L32.6152 36.3923L26.9165 36.1786Z" fill="#FF9D00"/>
</svg>
