<svg width="98" height="66" viewBox="0 0 98 66" fill="none" xmlns="http://www.w3.org/2000/svg">
<path fill-rule="evenodd" clip-rule="evenodd" d="M45.241 0.369901C32.1214 1.9302 21.2097 11.2002 17.5967 23.8661C17.25 25.0409 16.8669 26.8215 16.7209 27.8128L16.4472 29.63L17.7062 31.2821C18.3996 32.1816 19.166 33.1728 19.4032 33.4849L20.7237 34.3696L20.8243 30.7131V27.3722L21.2462 27.3355H22.6147V33.1178V38.9H21.5199L21.0174 38.4228L19.2292 36.0915C18.2439 34.8066 16.426 31.8857 16.2982 31.7388C15.9333 31.2983 16.4654 37.046 16.9581 39.4507C18.9288 49.2531 25.3335 57.6787 34.2746 62.2127C40.8618 65.5536 48.4708 66.5265 55.7514 64.9478C60.6416 63.9015 65.6048 61.4968 69.4184 58.3579C76.9544 52.135 81.3702 42.9385 81.3702 33.3931C81.3702 27.2254 79.7462 25.3897 71.5168 22.2324C68.3601 21.0209 66.5354 20.1398 64.7654 18.9833C62.3385 17.4047 61.1707 15.7893 58.1965 9.98867C55.1127 3.9494 53.58 1.89348 51.3538 0.792097C50.3867 0.31483 50.0583 0.259759 48.4343 0.223046C47.4307 0.20469 45.9892 0.278119 45.241 0.369901ZM45.6972 16.0279C47.3395 16.7806 48.5255 18.1756 51.737 23.1135C53.7624 26.2158 54.4741 27.0051 55.7696 27.6292C56.2988 27.8862 56.8827 28.29 57.0651 28.5103C57.3753 28.9325 59.5491 30.0187 59.9506 30.0187C60.06 30.0187 60.202 29.3914 60.202 28.6204V27.3355H62.5758C64.8201 27.3355 65.6595 27.4089 66.1887 27.6292C68.4331 28.5654 69.2542 31.3923 67.9039 33.5767C67.4295 34.3293 67.4112 34.4578 67.6119 34.9534C68.1959 36.3118 67.7214 39.3222 66.4624 42.3327C65.2398 45.2514 62.2656 48.9043 59.6745 50.6482C58.087 51.7128 55.4776 52.9244 53.7259 53.4016C51.6275 53.9707 47.6679 54.0992 45.5877 53.677C38.6356 52.2635 33.3987 47.6377 30.9354 40.7724C30.6799 40.0381 30.4609 39.2855 30.4609 39.1203C30.4609 38.8266 30.1872 38.8083 27.3589 38.8633L25.2503 38.9735V33.1545V27.3355L27.6144 27.3722L30.9901 27.4273L31.4645 26.2158C32.979 22.3242 36.6832 18.3408 40.661 16.34C42.6682 15.312 43.982 15.2386 45.6972 16.0279ZM72.4292 29.5383V31.741H74.8013H77.1734V29.5383V27.3355H78.5419H79.9105V33.1178V38.9H78.5419H77.1734V36.6055V34.3109H74.8013H72.4292V36.6055V38.9H71.1519H69.8746V33.1178V27.3355H71.1519H72.4292V29.5383Z" fill="#FF1368"/>
<path fill-rule="evenodd" clip-rule="evenodd" d="M26.9934 33.0081V36.3306H28.4531H29.9128V34.1462C29.9128 32.953 30.004 31.5396 30.0953 31.0072C30.2047 30.4749 30.15 29.55 30.0952 29.5133C30.0405 29.4582 29.3107 29.3664 28.4531 29.3297L26.9022 29.2379L26.9934 33.0081Z" fill="#FF1368"/>
<path fill-rule="evenodd" clip-rule="evenodd" d="M62.1629 30.233C62.1629 30.8755 62.652 30.9856 64.2029 31.7199C65.6808 32.4174 65.8268 32.4542 66.0275 32.1604C66.3742 31.6832 66.3195 30.7286 65.918 30.233C65.6079 29.8475 65.4801 29.4661 64.2029 29.411H62.1629V30.233Z" fill="#FF1368"/>
<path fill-rule="evenodd" clip-rule="evenodd" d="M91.6624 27.1167C91.0662 27.3159 90.226 27.7141 89.8195 27.9702C89.1149 28.4822 89.0878 28.4822 89.0878 27.8848C89.0878 27.3728 88.9252 27.2874 88.0038 27.2874H86.9198V33.119V38.9506H87.9767H89.0336L89.142 34.9965C89.2233 31.4976 89.3046 30.9286 89.7924 30.2175C91.0391 28.4822 94.0201 28.3684 94.7789 30.0468C94.9957 30.5304 95.1583 32.3794 95.2125 34.8258L95.3209 38.8084L96.4049 38.8937L97.516 38.9791L97.4347 34.7689L97.3534 30.5588L96.0526 29.8476C95.1854 29.364 94.5621 28.7382 94.1556 27.9986C93.451 26.7185 93.18 26.6047 91.6624 27.1167Z" fill="black"/>
<path fill-rule="evenodd" clip-rule="evenodd" d="M4.58513 27.3157C2.5526 27.97 0.547171 31.2983 0.899476 33.4602C1.11628 34.8257 1.22468 34.9679 2.4713 35.5653C3.20301 35.9067 4.09732 36.6463 4.72063 37.4712C6.07565 39.2349 6.12985 39.2634 7.21386 39.0927C8.75858 38.7798 10.4659 37.4997 11.1976 36.0489C11.7125 34.9964 11.7125 34.9679 10.5201 34.9679C9.7613 34.9679 9.32769 35.1386 9.05669 35.5369C8.54178 36.3049 7.26806 36.9592 6.26535 36.9592C5.15423 36.9592 3.71792 35.9067 3.25721 34.7403L2.9049 33.83H7.40357H11.9022L11.7938 32.2939C11.6583 30.5018 10.764 28.9372 9.30059 27.9131C8.24368 27.145 5.96724 26.8606 4.58513 27.3157ZM8.05397 29.7053C8.48758 29.9613 9.05669 30.5302 9.27349 30.9854L9.7071 31.8388H6.42795C4.23282 31.8388 3.17591 31.725 3.17591 31.5259C3.17591 31.3552 3.58241 30.7862 4.09732 30.2457C4.85613 29.4492 5.23553 29.2786 6.12985 29.2786C6.75315 29.2786 7.62037 29.4777 8.05397 29.7053Z" fill="black"/>
<path fill-rule="evenodd" clip-rule="evenodd" d="M40.36 27.3149C39.005 27.7416 36.8911 30.0174 36.5117 31.525C35.5361 35.3369 38.4087 39.0634 42.3383 39.0634C47.3248 39.0919 50.0619 33.175 46.8641 29.2777C45.238 27.258 42.8803 26.5469 40.36 27.3149ZM44.8044 30.2165C45.6445 31.013 45.8072 31.4113 45.9156 32.5776C46.2137 35.849 43.612 37.8118 40.7123 36.5601C39.3031 35.9343 38.6255 34.5973 38.761 32.7198C38.8423 31.3828 39.005 31.0414 39.8451 30.2165C40.7123 29.3915 41.0104 29.2777 42.3383 29.2777C43.6662 29.2777 43.9643 29.3915 44.8044 30.2165Z" fill="black"/>
<path fill-rule="evenodd" clip-rule="evenodd" d="M13.2043 33.1183V38.9499H14.4238H15.6162L15.6975 35.3371L15.7788 31.6959L18.2179 34.9673C21.3073 39.149 21.1718 39.0068 22.2016 38.893L23.0959 38.8076V33.1183V27.4289L21.9577 27.3436L20.7924 27.2582V30.6719C20.7924 34.3984 20.5756 34.8251 19.5729 33.289C19.2748 32.8338 18.1908 31.2977 17.1338 29.8754C15.3452 27.4289 15.2097 27.2867 14.2341 27.2867H13.2043V33.1183Z" fill="black"/>
<path fill-rule="evenodd" clip-rule="evenodd" d="M25.1284 33.0895V38.9496H27.7843C30.8466 38.9496 32.1203 38.6367 33.2586 37.6126C34.6678 36.3894 35.2369 34.8817 35.1014 32.6628C35.0201 31.0129 34.8846 30.5578 34.18 29.6475C32.7165 27.77 31.9035 27.4286 28.3263 27.3148L25.1284 27.2295V33.0895ZM31.6054 30.3017C33.1773 31.6672 33.2315 34.3696 31.768 35.8204C31.1989 36.3894 30.7924 36.5032 29.2748 36.5032L27.432 36.5316L27.3507 33.0326L27.2694 29.5621H29.0309C30.5214 29.5621 30.9008 29.6759 31.6054 30.3017Z" fill="black"/>
<path fill-rule="evenodd" clip-rule="evenodd" d="M49.2484 33.1186V38.9502H50.4679H51.6874V36.959V34.9677H52.7172C53.6929 34.9677 53.7471 35.053 54.7498 36.959L55.7796 38.9502H57.1617H58.5167L57.6224 37.3003C57.1617 36.4185 56.6197 35.4513 56.4571 35.1953C56.2403 34.797 56.3487 34.5125 57.1075 33.6876C57.9476 32.8057 58.0289 32.5213 58.0289 31.1274C58.0289 29.8757 57.9205 29.449 57.3785 28.8232C56.1861 27.5146 55.4544 27.287 52.2294 27.287H49.2484V33.1186ZM55.2647 30.0464C55.5357 30.3024 55.7525 30.786 55.7525 31.1558C55.7525 32.2652 55.0479 32.6919 53.2864 32.6919H51.6874V31.1274V29.5628H53.2322C54.262 29.5628 54.9124 29.705 55.2647 30.0464Z" fill="black"/>
<path fill-rule="evenodd" clip-rule="evenodd" d="M59.9806 30.4724C59.8722 32.2361 59.8451 34.8248 59.9264 36.2471L60.0348 38.8073L61.1459 38.8927L62.2299 38.978L62.3112 37.1859L62.3925 35.3937L64.2895 35.2515C65.3465 35.1662 66.4576 34.9386 66.8099 34.7394C68.2733 33.8576 68.9508 31.1552 68.1107 29.4483C67.2977 27.7984 66.4576 27.4286 63.1784 27.3433L60.1703 27.2295L59.9806 30.4724ZM65.5091 29.8466C66.2137 30.2449 66.4305 31.4681 65.9156 32.293C65.5633 32.8904 65.2923 32.9757 63.883 32.9757H62.257V31.2689V29.5621H63.6391C64.3979 29.5621 65.238 29.6759 65.5091 29.8466Z" fill="black"/>
<path fill-rule="evenodd" clip-rule="evenodd" d="M70.1162 33.1467V38.9783L71.2815 38.893L72.4197 38.8076V36.5319V34.2562L74.9401 34.1708L77.4333 34.0855V36.5319V38.9783L78.5986 38.893L79.7368 38.8076V33.1183V27.4289L78.5986 27.3436L77.4333 27.2582V29.534V31.8382H74.8588H72.2842V29.5624V27.2867H71.2002H70.1162V33.1467Z" fill="black"/>
<path fill-rule="evenodd" clip-rule="evenodd" d="M82.0417 33.1186V38.9502H83.2612H84.4807V33.1186V27.287H83.2612H82.0417V33.1186Z" fill="black"/>
</svg>
