<svg width="117" height="10" viewBox="0 0 117 10" fill="none" xmlns="http://www.w3.org/2000/svg">
<path d="M3.13309 9.89672V9.0387L4.00782 8.87156V8.3534H3.90753C3.2538 8.3534 2.67251 8.23083 2.16364 7.98568C1.65849 7.74054 1.26105 7.39696 0.971332 6.95495C0.685326 6.51294 0.542324 6.00036 0.542324 5.41721C0.542324 4.8192 0.687184 4.29361 0.976903 3.84046C1.26662 3.38731 1.66406 3.03259 2.16921 2.7763C2.67436 2.52001 3.2538 2.39186 3.90753 2.39186H4.00782V1.87371L3.13309 1.70657V0.848549H6.39801V1.70657L5.52327 1.87371V2.39186H5.60685C6.25686 2.39186 6.83444 2.52001 7.33959 2.7763C7.84846 3.02888 8.24775 3.38174 8.53747 3.83489C8.82719 4.28433 8.97205 4.80805 8.97205 5.40606C8.97205 5.98922 8.82719 6.50366 8.53747 6.94938C8.24775 7.39139 7.84846 7.73682 7.33959 7.98568C6.83444 8.23083 6.25686 8.3534 5.60685 8.3534H5.52327V8.87156L6.39801 9.0387V9.89672H3.13309ZM3.90753 7.28924H4.00782V3.47274H3.90753C3.52124 3.47274 3.18694 3.55074 2.90465 3.70675C2.62608 3.85903 2.41064 4.08004 2.25836 4.36976C2.10978 4.65948 2.03549 5.00863 2.03549 5.41721C2.03549 5.81464 2.10978 6.15265 2.25836 6.43123C2.41064 6.7098 2.62608 6.92338 2.90465 7.07195C3.18694 7.21681 3.52124 7.28924 3.90753 7.28924ZM5.52327 7.28924H5.61799C6.00057 7.28924 6.33115 7.21495 6.60972 7.06638C6.8883 6.91781 7.10373 6.70237 7.25602 6.42008C7.40831 6.13779 7.48445 5.79979 7.48445 5.40606C7.48445 4.99377 7.40831 4.64462 7.25602 4.35862C7.10373 4.0689 6.8883 3.84789 6.60972 3.6956C6.33115 3.5396 6.00057 3.4616 5.61799 3.4616L5.52327 3.47274V7.28924ZM9.62949 9.42871V8.51498L10.5042 8.34783V2.40301L9.62949 2.23586V1.31656H10.5042H13.4627C14.0756 1.31656 14.6012 1.42427 15.0395 1.63971C15.4815 1.85143 15.8213 2.15043 16.059 2.53672C16.2968 2.9193 16.4156 3.36503 16.4156 3.87389C16.4156 4.38647 16.2968 4.83405 16.059 5.21663C15.8213 5.5955 15.4815 5.89079 15.0395 6.10251C14.6012 6.31422 14.0756 6.42008 13.4627 6.42008H12.0197V8.34783L12.8944 8.51498V9.42871H9.62949ZM12.0197 5.25006H13.4627C13.9381 5.25006 14.2966 5.12192 14.538 4.86563C14.7794 4.60933 14.9002 4.28247 14.9002 3.88504C14.9002 3.48388 14.7794 3.15145 14.538 2.88773C14.2966 2.6203 13.9381 2.48658 13.4627 2.48658H12.0197V5.25006ZM19.0175 9.54571C18.9247 9.54571 18.817 9.542 18.6944 9.53457C18.5755 9.52714 18.4901 9.51971 18.4381 9.51228V8.35898C18.4752 8.36269 18.5458 8.36826 18.6498 8.37569C18.7575 8.37941 18.8392 8.38126 18.895 8.38126C19.181 8.38126 19.3927 8.31626 19.5301 8.18626C19.6713 8.05254 19.7975 7.85011 19.909 7.57896L20.0483 7.24467L17.7138 2.35286L16.8948 2.23586V1.31656H19.9424V2.23586L19.3295 2.33615L20.4606 4.9102L20.7001 5.52307H20.7336L21.9259 2.35286L21.3353 2.23586V1.31656H24.2771V2.23586L23.5193 2.34172L21.1681 7.93554C21.0121 8.28098 20.8431 8.57441 20.6611 8.81584C20.4791 9.05728 20.2563 9.23928 19.9925 9.36185C19.7325 9.48443 19.4075 9.54571 19.0175 9.54571ZM24.7729 9.42871V8.51498L25.6477 8.34783V2.40301L24.7729 2.23586V1.31656H28.0044V2.23586L27.1631 2.40301V4.70405H27.9264L29.5143 2.41972C29.8337 1.974 30.1253 1.66756 30.389 1.50042C30.6527 1.32956 30.948 1.24413 31.2749 1.24413C31.4755 1.24413 31.6538 1.26827 31.8098 1.31656C31.9658 1.36484 32.1125 1.4317 32.2499 1.51713L31.9992 2.64815C31.9138 2.62587 31.8376 2.60915 31.7708 2.59801C31.7076 2.58687 31.6426 2.5813 31.5758 2.5813C31.4123 2.5813 31.2563 2.62958 31.1078 2.72616C30.9592 2.81902 30.7883 2.99359 30.5952 3.24988L29.2246 5.13306L31.5646 8.37569L32.4004 8.51498V9.42871H29.3026V8.51498L29.7984 8.44255L29.7817 8.42026L28.1326 6.0635H27.1631V8.34783L28.0044 8.51498V9.42871H24.7729ZM34.8295 9.42871V8.51498L35.7043 8.34783V2.48101H34.1498L34.044 3.48388H32.9018V1.31656H40.0334V3.48388H38.8856L38.7798 2.48101H37.2197V8.34783L38.1 8.51498V9.42871H34.8295ZM44.173 9.54571C43.6307 9.54571 43.1386 9.44543 42.6965 9.24485C42.2545 9.04056 41.8738 8.75456 41.5544 8.38683C41.2387 8.0154 40.9954 7.58082 40.8245 7.0831C40.6537 6.58166 40.5682 6.03193 40.5682 5.43392V5.31135C40.5682 4.71705 40.6537 4.17104 40.8245 3.67332C40.9954 3.17188 41.2387 2.7373 41.5544 2.36958C41.8738 1.99814 42.2527 1.71028 42.691 1.50599C43.133 1.3017 43.6251 1.19956 44.1674 1.19956C44.7209 1.19956 45.2186 1.3017 45.6606 1.50599C46.1063 1.71028 46.4889 1.99814 46.8083 2.36958C47.1278 2.7373 47.3711 3.17188 47.5382 3.67332C47.7091 4.17104 47.7945 4.71705 47.7945 5.31135V5.43392C47.7945 6.03193 47.7091 6.58166 47.5382 7.0831C47.3711 7.58082 47.1278 8.0154 46.8083 8.38683C46.4926 8.75456 46.1119 9.04056 45.6662 9.24485C45.2205 9.44543 44.7227 9.54571 44.173 9.54571ZM44.173 8.3534C44.6484 8.3534 45.0422 8.23269 45.3542 7.99126C45.6662 7.74611 45.8983 7.40439 46.0506 6.96609C46.2066 6.5278 46.2846 6.01708 46.2846 5.43392V5.3002C46.2846 4.72448 46.2066 4.21933 46.0506 3.78475C45.8946 3.35017 45.6587 3.0103 45.343 2.76516C45.031 2.52001 44.6392 2.39744 44.1674 2.39744C43.7069 2.39744 43.3224 2.52001 43.0141 2.76516C42.7058 3.00659 42.4737 3.3446 42.3177 3.77918C42.1654 4.21376 42.0893 4.72077 42.0893 5.3002V5.43392C42.0893 6.01336 42.1654 6.52408 42.3177 6.96609C42.4737 7.40439 42.7058 7.74611 43.0141 7.99126C43.3261 8.23269 43.7124 8.3534 44.173 8.3534ZM48.6079 9.42871V8.51498L49.4827 8.34783V2.40301L48.6079 2.23586V1.31656H49.4827H52.1904C53.1227 1.31656 53.8508 1.50228 54.3745 1.87371C54.8982 2.24143 55.1601 2.79487 55.1601 3.53403C55.1601 3.90546 55.0561 4.2379 54.8481 4.53133C54.6438 4.82477 54.354 5.04391 53.9789 5.18877C54.302 5.25935 54.5732 5.38563 54.7923 5.56764C55.0115 5.74964 55.1768 5.97065 55.2882 6.23065C55.4034 6.49066 55.4609 6.7748 55.4609 7.0831C55.4609 7.85197 55.2065 8.43512 54.6976 8.83256C54.1925 9.22999 53.483 9.42871 52.5693 9.42871H48.6079ZM50.9981 8.26426H52.5693C53.015 8.26426 53.3549 8.16397 53.5889 7.9634C53.8266 7.76282 53.9455 7.46939 53.9455 7.0831C53.9455 6.80823 53.9009 6.57609 53.8118 6.38665C53.7263 6.19351 53.5907 6.04679 53.405 5.9465C53.223 5.84621 52.989 5.79607 52.703 5.79607H50.9981V8.26426ZM50.9981 4.72634H52.2963C52.7234 4.72634 53.054 4.63162 53.288 4.44219C53.5257 4.25276 53.6446 3.98161 53.6446 3.62874C53.6446 3.23874 53.522 2.95087 53.2769 2.76516C53.0317 2.57944 52.6696 2.48658 52.1904 2.48658H50.9981V4.72634ZM56.1797 9.42871V8.51498L57.0544 8.34783V2.40301L56.1797 2.23586V1.31656H59.4446V2.23586L58.5698 2.40301V4.38647H60.0909C60.7075 4.38647 61.2386 4.49048 61.6843 4.69848C62.1301 4.90277 62.4718 5.19063 62.7095 5.56207C62.9509 5.9335 63.0716 6.3718 63.0716 6.87695C63.0716 7.38582 62.9509 7.8334 62.7095 8.21969C62.4681 8.60227 62.1245 8.89942 61.6788 9.11113C61.233 9.32285 60.7037 9.42871 60.0909 9.42871H56.1797ZM58.5698 8.26426H60.0909C60.5663 8.26426 60.9303 8.1324 61.1829 7.86868C61.4355 7.60496 61.5618 7.27067 61.5618 6.86581C61.5618 6.47951 61.4373 6.16565 61.1885 5.92422C60.9396 5.67907 60.5737 5.5565 60.0909 5.5565H58.5698V8.26426ZM63.1051 9.42871V8.51498L63.9798 8.34783V2.40301L63.1051 2.23586V1.31656H66.37V2.23586L65.4953 2.40301V8.34783L66.37 8.51498V9.42871H63.1051ZM67.0274 9.42871V8.51498L67.9022 8.34783V2.40301L67.0274 2.23586V1.31656H73.262V3.45603H72.092L72.0084 2.48101H69.4176V4.64834H72.2145V5.82393H69.4176V8.26983H72.1533L72.2368 7.27253H73.3957V9.42871H67.0274ZM81.8533 9.42871V8.51498L82.728 8.34783V6.25294C82.4457 6.32351 82.1671 6.37737 81.8923 6.41451C81.6174 6.44794 81.3073 6.46466 80.9618 6.46466C79.9887 6.46466 79.2384 6.25479 78.7109 5.83507C78.1835 5.41164 77.9198 4.75048 77.9198 3.85161V2.40301L77.045 2.23586V1.31656H80.31V2.23586L79.4352 2.40301V3.85161C79.4352 4.3939 79.556 4.77091 79.7974 4.98263C80.0388 5.19063 80.427 5.29463 80.9618 5.29463C81.2553 5.29463 81.5506 5.27606 81.8477 5.23892C82.1486 5.20177 82.442 5.14977 82.728 5.08291V2.40301L81.8533 2.23586V1.31656H85.1182V2.23586L84.2435 2.40301V8.34783L85.1182 8.51498V9.42871H81.8533ZM85.6698 9.42871V8.51498L86.2548 8.43141L88.8901 1.31656H90.4L93.0131 8.43141L93.5925 8.51498V9.42871H90.9237V8.51498L91.4976 8.40912L91.102 7.21681H88.1658L87.7703 8.40912L88.3386 8.51498V9.42871H85.6698ZM88.5391 6.07465H90.7287L89.7314 3.18859L89.6534 2.95459H89.62L89.5364 3.19974L88.5391 6.07465ZM94.2499 9.42871V8.51498L95.1247 8.34783V2.40301L94.2499 2.23586V1.31656H96.6401H97.5149V2.23586L96.6401 2.40301V8.26426H99.0303V2.40301L98.15 2.23586V1.31656H101.415V2.23586L100.54 2.40301V8.26426H102.908V2.40301L102.033 2.23586V1.31656H102.908H104.418H105.298V2.23586L104.418 2.40301V8.34783L105.298 8.51498V9.42871H94.2499ZM105.939 9.42871V8.51498L106.814 8.34783V2.40301L105.939 2.23586V1.31656H106.814H108.324H109.204V2.23586L108.324 2.40301V6.35322L108.357 6.36437L111.761 2.87102V2.40301L110.892 2.23586V1.31656H111.761H113.282H114.157V2.23586L113.282 2.40301V8.34783L114.157 8.51498V9.42871H110.892V8.51498L111.761 8.34783V4.4979L111.728 4.48676L108.324 7.99126V8.34783L109.204 8.51498V9.42871H105.939ZM115.015 9.42871V8.06369H116.525V9.42871H115.015ZM115.015 4.76534V3.40031H116.525V4.76534H115.015Z" fill="#404040"/>
</svg>
