<svg width="98" height="34" viewBox="0 0 98 34" fill="none" xmlns="http://www.w3.org/2000/svg">
<path d="M0.579765 12.0952V10.8223L1.39473 10.7059L5.06597 0.794321H7.16937L10.8096 10.7059L11.6168 10.8223V12.0952H7.89896V10.8223L8.6984 10.6748L8.14733 9.01386H4.05696L3.50589 10.6748L4.29757 10.8223V12.0952H0.579765ZM4.57699 7.42273H7.6273L6.23797 3.40222L6.12931 3.07623H6.08274L5.96632 3.41774L4.57699 7.42273ZM12.455 12.0952V10.8223L13.6736 10.5895V2.30783L12.455 2.07499V0.794321H13.6736H17.4457C18.7445 0.794321 19.7587 1.05304 20.4883 1.57048C21.2179 2.08275 21.5827 2.85373 21.5827 3.88344C21.5827 4.40088 21.4378 4.86399 21.148 5.27277C20.8634 5.68154 20.4598 5.98683 19.9372 6.18864C20.3874 6.28695 20.7651 6.46288 21.0704 6.71642C21.3757 6.96997 21.6059 7.27785 21.7612 7.64005C21.9216 8.00226 22.0018 8.3981 22.0018 8.82758C22.0018 9.89868 21.6473 10.7111 20.9384 11.2647C20.2347 11.8184 19.2464 12.0952 17.9735 12.0952H12.455ZM15.7847 10.473H17.9735C18.5944 10.473 19.0679 10.3333 19.3939 10.0539C19.7251 9.7745 19.8906 9.36572 19.8906 8.82758C19.8906 8.44467 19.8285 8.12127 19.7044 7.85738C19.5853 7.58831 19.3965 7.38392 19.1378 7.24421C18.8842 7.1045 18.5582 7.03465 18.1598 7.03465H15.7847V10.473ZM15.7847 5.54442H17.5932C18.1883 5.54442 18.6488 5.41247 18.9748 5.14858C19.3059 4.88469 19.4715 4.50695 19.4715 4.01539C19.4715 3.47207 19.3008 3.07106 18.9592 2.81234C18.6177 2.55362 18.1132 2.42426 17.4457 2.42426H15.7847V5.54442ZM25.3781 12.0952V10.8223L26.5967 10.5895V2.4165H24.4312L24.2837 3.81358H22.6926V0.794321H32.6274V3.81358H31.0285L30.8811 2.4165H28.7078V10.5895L29.9341 10.8223V12.0952H25.3781ZM38.3943 12.2582C37.6388 12.2582 36.9532 12.1185 36.3375 11.8391C35.7217 11.5545 35.1913 11.1561 34.7463 10.6438C34.3065 10.1264 33.9676 9.52095 33.7296 8.82758C33.4915 8.12904 33.3725 7.36322 33.3725 6.53015V6.35939C33.3725 5.53149 33.4915 4.77085 33.7296 4.07748C33.9676 3.37893 34.3065 2.77353 34.7463 2.26126C35.1913 1.74382 35.7191 1.34281 36.3297 1.05822C36.9455 0.773624 37.6311 0.631328 38.3865 0.631328C39.1575 0.631328 39.8509 0.773624 40.4666 1.05822C41.0876 1.34281 41.6205 1.74382 42.0655 2.26126C42.5105 2.77353 42.8495 3.37893 43.0823 4.07748C43.3203 4.77085 43.4393 5.53149 43.4393 6.35939V6.53015C43.4393 7.36322 43.3203 8.12904 43.0823 8.82758C42.8495 9.52095 42.5105 10.1264 42.0655 10.6438C41.6257 11.1561 41.0953 11.5545 40.4744 11.8391C39.8535 12.1185 39.1601 12.2582 38.3943 12.2582ZM38.3943 10.5972C39.0566 10.5972 39.6051 10.4291 40.0398 10.0927C40.4744 9.75121 40.7978 9.27517 41.01 8.66459C41.2273 8.05401 41.3359 7.34253 41.3359 6.53015V6.34387C41.3359 5.54183 41.2273 4.83812 41.01 4.23271C40.7926 3.62731 40.4641 3.15385 40.0242 2.81234C39.5896 2.47083 39.0437 2.30007 38.3865 2.30007C37.7449 2.30007 37.2094 2.47083 36.7799 2.81234C36.3504 3.14867 36.027 3.61954 35.8097 4.22495C35.5975 4.83035 35.4915 5.53666 35.4915 6.34387V6.53015C35.4915 7.33735 35.5975 8.04883 35.8097 8.66459C36.027 9.27517 36.3504 9.75121 36.7799 10.0927C37.2145 10.4291 37.7527 10.5972 38.3943 10.5972ZM44.5725 12.0952V10.8223L45.7911 10.5895V2.30783L44.5725 2.07499V0.794321H45.7911H49.9125C50.7663 0.794321 51.4985 0.944379 52.109 1.24449C52.7248 1.53944 53.1983 1.95597 53.5294 2.49411C53.8606 3.02708 54.0262 3.648 54.0262 4.3569C54.0262 5.07096 53.8606 5.69448 53.5294 6.22744C53.1983 6.75523 52.7248 7.1666 52.109 7.46154C51.4985 7.75648 50.7663 7.90395 49.9125 7.90395H47.9023V10.5895L49.1208 10.8223V12.0952H44.5725ZM47.9023 6.27401H49.9125C50.5748 6.27401 51.0742 6.0955 51.4105 5.73846C51.7468 5.38143 51.915 4.92608 51.915 4.37242C51.915 3.81358 51.7468 3.35048 51.4105 2.98309C51.0742 2.61054 50.5748 2.42426 49.9125 2.42426H47.9023V6.27401ZM60.2044 12.2582C59.0971 12.2582 58.1424 12.0254 57.3404 11.5597C56.5435 11.094 55.9303 10.4394 55.5009 9.59598C55.0714 8.74738 54.8567 7.75389 54.8567 6.61552V6.28177C54.8567 5.1848 55.0662 4.21201 55.4853 3.36341C55.9045 2.51481 56.5047 1.84731 57.286 1.36092C58.0674 0.874524 58.9988 0.631328 60.0802 0.631328C60.8409 0.631328 61.5497 0.742577 62.2069 0.965076C62.864 1.1824 63.4436 1.50321 63.9455 1.92752V4.59751H62.3544L62.137 2.86667C61.9663 2.74248 61.7774 2.63641 61.5704 2.54844C61.3686 2.46048 61.1461 2.39321 60.9029 2.34664C60.6649 2.30007 60.4062 2.27679 60.1268 2.27679C59.4645 2.27679 58.8979 2.44237 58.427 2.77353C57.9561 3.09952 57.5939 3.56004 57.3404 4.1551C57.092 4.75015 56.9678 5.45387 56.9678 6.26625V6.61552C56.9678 7.43825 57.0998 8.14973 57.3637 8.74996C57.6275 9.35019 58.0027 9.8133 58.4891 10.1393C58.9807 10.4601 59.5654 10.6205 60.2432 10.6205C60.5795 10.6205 60.9133 10.5843 61.2445 10.5118C61.5756 10.4342 61.8706 10.3333 62.1293 10.2091L62.3544 8.61802H63.93V11.2647C63.4953 11.5493 62.9572 11.7873 62.3156 11.9788C61.6739 12.1651 60.9702 12.2582 60.2044 12.2582ZM65.1874 12.0952V10.8223L66.4059 10.5895V2.30783L65.1874 2.07499V0.794321H69.6891V2.07499L68.5171 2.30783V5.51338H69.5804L71.7925 2.33112C72.2375 1.71019 72.6437 1.2833 73.011 1.05045C73.3784 0.812432 73.7898 0.69342 74.2451 0.69342C74.5246 0.69342 74.7729 0.727054 74.9903 0.794321C75.2076 0.861588 75.412 0.954728 75.6034 1.07374L75.2541 2.64934C75.1351 2.6183 75.0291 2.59501 74.9359 2.57949C74.848 2.56397 74.7574 2.55621 74.6643 2.55621C74.4366 2.55621 74.2193 2.62347 74.0123 2.75801C73.8053 2.88737 73.5673 3.13056 73.2982 3.4876L71.3889 6.11102L74.6487 10.6283L75.813 10.8223V12.0952H71.4975V10.8223L72.1883 10.7214L72.165 10.6904L69.8676 7.40721H68.5171V10.5895L69.6891 10.8223V12.0952H65.1874ZM76.6279 12.0952V10.8223L77.8465 10.5895V2.30783L76.6279 2.07499V0.794321H77.8465H79.9499H81.1762V2.07499L79.9499 2.30783V7.81081L79.9965 7.82633L84.7388 2.95981V2.30783L83.528 2.07499V0.794321H84.7388H86.8577H88.0763V2.07499L86.8577 2.30783V10.5895L88.0763 10.8223V12.0952H83.528V10.8223L84.7388 10.5895V5.2262L84.6923 5.21067L79.9499 10.0927V10.5895L81.1762 10.8223V12.0952H76.6279ZM88.9534 12.0952V10.8223L90.1719 10.5895V2.30783L88.9534 2.07499V0.794321H97.6386V3.77478H96.0087L95.8923 2.4165H92.2831V5.43576H96.1794V7.07346H92.2831V10.4808H96.0941L96.2105 9.09147H97.8249V12.0952H88.9534ZM19.7044 33.0952V31.8223L20.9152 31.5895V23.3078L19.7044 23.075V21.7943H20.9152H23.9965L27.1943 29.8198H27.2409L30.3377 21.7943H34.6532V23.075L33.4346 23.3078V31.5895L34.6532 31.8223V33.0952H30.1049V31.8223L31.3856 31.5895V29.1911L31.4166 24.1694L31.3778 24.1616L27.9317 32.8857H26.3716L22.84 24.2159L22.7935 24.2237L22.9177 29.0049V31.5895L24.2527 31.8223V33.0952H19.7044ZM35.6544 33.0952V31.8223L36.873 31.5895V23.3078L35.6544 23.075V21.7943H36.873H38.9764H40.2027V23.075L38.9764 23.3078V28.8108L39.023 28.8263L43.7653 23.9598V23.3078L42.5545 23.075V21.7943H43.7653H45.8842H47.1028V23.075L45.8842 23.3078V31.5895L47.1028 31.8223V33.0952H42.5545V31.8223L43.7653 31.5895V26.2262L43.7188 26.2107L38.9764 31.0927V31.5895L40.2027 31.8223V33.0952H35.6544ZM47.9644 33.0952V31.8223L49.1829 31.5895V23.3078L47.9644 23.075V21.7943H52.4661V23.075L51.2941 23.3078V26.5134H52.3574L54.5695 23.3311C55.0145 22.7102 55.4207 22.2833 55.788 22.0505C56.1554 21.8124 56.5668 21.6934 57.0221 21.6934C57.3016 21.6934 57.5499 21.7271 57.7673 21.7943C57.9846 21.8616 58.189 21.9547 58.3804 22.0737L58.0311 23.6493C57.9121 23.6183 57.8061 23.595 57.7129 23.5795C57.625 23.564 57.5344 23.5562 57.4413 23.5562C57.2136 23.5562 56.9963 23.6235 56.7893 23.758C56.5823 23.8874 56.3443 24.1306 56.0752 24.4876L54.1659 27.111L57.4257 31.6283L58.59 31.8223V33.0952H54.2745V31.8223L54.9653 31.7214L54.942 31.6904L52.6446 28.4072H51.2941V31.5895L52.4661 31.8223V33.0952H47.9644ZM63.8601 33.2582C62.7528 33.2582 61.7981 33.0254 60.9961 32.5597C60.1992 32.094 59.5861 31.4394 59.1566 30.596C58.7271 29.7474 58.5124 28.7539 58.5124 27.6155V27.2818C58.5124 26.1848 58.7219 25.212 59.1411 24.3634C59.5602 23.5148 60.1604 22.8473 60.9417 22.3609C61.7231 21.8745 62.6545 21.6313 63.7359 21.6313C64.4966 21.6313 65.2055 21.7426 65.8626 21.9651C66.5198 22.1824 67.0993 22.5032 67.6012 22.9275V25.5975H66.0101L65.7928 23.8667C65.622 23.7425 65.4331 23.6364 65.2262 23.5484C65.0244 23.4605 64.8019 23.3932 64.5587 23.3466C64.3206 23.3001 64.0619 23.2768 63.7825 23.2768C63.1202 23.2768 62.5536 23.4424 62.0827 23.7735C61.6118 24.0995 61.2496 24.56 60.9961 25.1551C60.7477 25.7502 60.6235 26.4539 60.6235 27.2663V27.6155C60.6235 28.4383 60.7555 29.1497 61.0194 29.75C61.2833 30.3502 61.6584 30.8133 62.1448 31.1393C62.6364 31.4601 63.2211 31.6205 63.8989 31.6205C64.2353 31.6205 64.569 31.5843 64.9002 31.5118C65.2313 31.4342 65.5263 31.3333 65.785 31.2091L66.0101 29.618H67.5857V32.2647C67.151 32.5493 66.6129 32.7873 65.9713 32.9788C65.3296 33.1651 64.6259 33.2582 63.8601 33.2582ZM68.9129 33.0952V31.8223L70.1315 31.5895V23.3078L68.9129 23.075V21.7943H73.4612V23.075L72.2426 23.3078V26.071H74.3616C75.2205 26.071 75.9604 26.2158 76.5814 26.5056C77.2023 26.7902 77.6783 27.1912 78.0095 27.7087C78.3458 28.2261 78.514 28.8367 78.514 29.5404C78.514 30.2493 78.3458 30.8728 78.0095 31.4109C77.6732 31.9439 77.1945 32.3579 76.5736 32.6528C75.9527 32.9477 75.2153 33.0952 74.3616 33.0952H68.9129ZM72.2426 31.473H74.3616C75.0239 31.473 75.531 31.2893 75.8828 30.922C76.2347 30.5546 76.4106 30.0889 76.4106 29.5249C76.4106 28.9867 76.2373 28.5495 75.8906 28.2132C75.5439 27.8717 75.0342 27.7009 74.3616 27.7009H72.2426V31.473ZM78.5606 33.0952V31.8223L79.7792 31.5895V23.3078L78.5606 23.075V21.7943H83.1089V23.075L81.8903 23.3078V31.5895L83.1089 31.8223V33.0952H78.5606Z" fill="#323232"/>
</svg>
