<svg width="83" height="43" viewBox="0 0 83 43" fill="none" xmlns="http://www.w3.org/2000/svg">
<path fill-rule="evenodd" clip-rule="evenodd" d="M30.604 0.24386L29.9467 0.304895L29.9164 1.13903L29.8861 1.98334H30.9376C31.514 1.98334 32.8183 2.01386 33.8194 2.05455L35.6596 2.11559V13.7834C35.6596 25.1459 35.7001 27.6178 35.8821 27.6178C35.9225 27.6178 36.2259 27.4144 36.5494 27.1601C37.0145 26.7939 37.2774 26.6718 37.9145 26.5294L38.693 26.3463V14.2309V2.11559L41.5444 2.05455C43.6678 2.00369 44.416 1.95283 44.4767 1.86128C44.5879 1.67817 44.5778 0.640584 44.4666 0.467653C44.4059 0.376101 44.1127 0.28455 43.779 0.24386C43.0915 0.152308 31.5747 0.162481 30.604 0.24386Z" fill="black"/>
<path fill-rule="evenodd" clip-rule="evenodd" d="M48.7444 0.223907C48.5421 0.264596 48.532 0.325631 48.4714 3.23494C48.4309 4.8727 48.4006 8.20926 48.4006 10.6506V15.1062H46.1761H43.9516V10.7524C43.9516 8.36184 43.9213 5.61529 43.8808 4.64891L43.8202 2.89925H42.4349H41.0395L40.9688 6.07305C40.9283 7.82271 40.9182 13.265 40.9384 18.1579L40.9688 27.0588L41.2013 27.5572C41.4844 28.1879 41.4844 28.5032 41.171 29.2458C40.8272 30.0596 40.8474 30.2427 41.2519 30.4055C41.8586 30.6598 42.3945 30.7005 42.991 30.5174C43.9415 30.2427 43.8909 30.6598 43.9314 23.061L43.9718 16.5303H46.1862H48.4006V22.2981C48.4006 25.482 48.4309 28.727 48.4714 29.5103L48.532 30.9548L48.9163 31.0769C49.3308 31.2193 49.7555 31.1481 50.7767 30.7615L51.3329 30.5581L51.3228 18.28C51.3127 11.5255 51.2722 4.69977 51.2419 3.1027L51.1812 0.203562L50.069 0.19339C49.4623 0.183218 48.8657 0.193389 48.7444 0.223907Z" fill="black"/>
<path fill-rule="evenodd" clip-rule="evenodd" d="M26.8828 3.71271C25.5987 3.89581 24.6988 4.37391 24.2842 5.07581C23.9202 5.7065 23.8292 6.48978 23.8292 8.89047C23.8292 12.6237 23.8494 12.6543 28.076 18.9205C29.1073 20.4565 29.259 20.7108 29.7443 21.7993C30.1791 22.7657 30.2196 22.9284 30.3005 24.0372C30.351 24.6882 30.4016 26.4786 30.4016 27.9943C30.4016 29.5201 30.4319 30.7713 30.4825 30.7713C30.5229 30.7713 31.1599 30.6798 31.8981 30.5577L33.2429 30.3339L33.2125 26.5091L33.1822 22.6843L32.7474 21.5958C32.2621 20.3955 31.3622 18.89 29.3905 16.0213C28.6827 14.9837 27.8333 13.6613 27.5199 13.0917L26.9334 12.0439L26.8323 9.1753C26.7312 6.02184 26.7817 5.44202 27.2266 5.0046C27.5097 4.71977 27.8535 4.62822 28.6827 4.62822C29.4815 4.62822 29.8455 4.78081 30.1185 5.21822C30.3409 5.58443 30.351 5.67598 30.4016 9.02271C30.442 11.6268 30.4825 12.4813 30.5836 12.5831C30.7454 12.7458 32.8081 12.817 33.0305 12.6746C33.162 12.5831 33.1822 12.0846 33.2125 9.40926C33.2429 6.07271 33.1822 5.33012 32.8283 4.83167C32.5856 4.48581 31.5947 3.98736 30.806 3.81443C30.0881 3.66184 27.712 3.60081 26.8828 3.71271Z" fill="black"/>
<path fill-rule="evenodd" clip-rule="evenodd" d="M57.1272 3.91648C55.5296 4.14027 54.6904 4.56752 54.205 5.40165C53.9421 5.83907 53.9219 6.00183 53.8511 7.36493C53.8107 8.17872 53.7702 13.6922 53.7702 19.6024L53.7601 30.3546L54.0938 30.5987C54.8319 31.1684 55.4184 31.2193 56.2677 30.8022L56.6419 30.6191L56.6722 24.5868L56.6924 18.5648H58.5125H60.3325V24.6072V30.6496L60.9897 31.0769L61.6571 31.5143L62.2941 31.2396C62.6581 31.087 63.0221 30.8937 63.1333 30.8225C63.3052 30.6903 63.3153 30.3139 63.3457 22.8168C63.3861 13.7329 63.2547 6.602 63.0322 5.76786C62.6985 4.50648 61.5762 4.00803 58.7652 3.87579C58.2091 3.85545 57.471 3.86562 57.1272 3.91648ZM59.5236 5.02527C59.746 5.13717 59.9483 5.35079 60.0797 5.6051C60.2617 5.98148 60.2718 6.28665 60.3123 11.0372C60.3325 13.8041 60.3123 16.3472 60.2617 16.6829L60.1808 17.2932L58.7652 17.3237C57.9867 17.3441 57.198 17.3237 57.0261 17.2932L56.6924 17.2322V12.8377C56.7025 7.93459 56.7935 5.94079 57.0261 5.48303C57.38 4.79131 58.6035 4.56751 59.5236 5.02527Z" fill="black"/>
<path fill-rule="evenodd" clip-rule="evenodd" d="M13.0703 8.4025C13.0399 8.74836 13.0096 13.0716 13.0096 18.0053V26.9773L13.7275 27.0485C14.1218 27.0791 14.7083 27.2011 15.0318 27.313C15.3655 27.4249 15.679 27.5165 15.7396 27.5165C15.8509 27.5165 15.8913 9.08405 15.7801 8.24991L15.7093 7.78198H14.4252H13.141L13.0703 8.4025Z" fill="black"/>
<path fill-rule="evenodd" clip-rule="evenodd" d="M18.8035 7.90365C18.6519 8.13761 18.4901 26.8956 18.6317 27.6076C18.7125 27.9738 18.8642 28.0044 19.1372 27.7094C19.4305 27.3838 19.8652 27.2007 20.6337 27.0685L21.3516 26.9464L21.4123 25.5223C21.5033 23.6607 21.5033 9.22606 21.4123 8.44279L21.3516 7.83244L20.118 7.80192C19.208 7.78158 18.8642 7.8121 18.8035 7.90365Z" fill="black"/>
<path fill-rule="evenodd" clip-rule="evenodd" d="M65.8438 7.95473C65.7932 8.05645 65.7427 11.2303 65.7124 15.0144L65.6719 21.8808L65.9955 23.3558C66.7336 26.7025 67.5223 29.7135 67.8863 30.5985C68.3514 31.687 69.4333 31.2394 69.4333 29.9679C69.4333 29.6525 69.3828 29.0727 69.3221 28.6861C68.766 24.8715 68.6446 22.6844 68.5435 14.1904L68.4727 7.83266L67.1987 7.80214C66.0561 7.7818 65.9146 7.79197 65.8438 7.95473Z" fill="black"/>
<path fill-rule="evenodd" clip-rule="evenodd" d="M71.4963 7.89316C71.4558 7.96436 71.385 11.189 71.3446 15.0444C71.3042 18.9099 71.2233 22.5109 71.1626 23.0399C70.8896 25.5423 70.7683 26.7732 70.7784 27.058C70.7885 27.2208 70.7581 27.7192 70.7076 28.1566C70.6267 28.9602 70.6267 28.9602 70.8491 28.8382C70.9705 28.7771 71.3042 28.5025 71.5873 28.2482C71.8805 27.9837 72.285 27.6378 72.4973 27.4751C72.7096 27.3123 72.9523 27.0478 73.0332 26.8952C73.2455 26.4782 73.9634 23.2433 74.0848 22.1142C74.2162 20.9952 74.1859 8.04574 74.0544 7.9135C74.0039 7.87281 73.4275 7.82195 72.7703 7.8016C71.8805 7.77109 71.5569 7.80161 71.4963 7.89316Z" fill="black"/>
<path fill-rule="evenodd" clip-rule="evenodd" d="M9.17678 11.8508L7.82186 11.9017L6.83095 16.937C6.28494 19.7039 5.81982 22.0334 5.8097 22.1148C5.75915 22.3792 5.55692 22.3386 5.43559 22.0537C5.37492 21.9011 5.26369 21.423 5.1828 21.006C5.11202 20.5889 4.7379 18.7579 4.36378 16.937C3.98967 15.1161 3.60544 13.2444 3.51443 12.7663L3.35265 11.9017L1.94718 11.8711L0.541702 11.8406L0.602371 18.7273C0.642816 22.5217 0.67315 27.3536 0.67315 29.4694V33.3146H2.08874H3.50432L3.51443 29.5711C3.51443 27.5163 3.55488 25.6039 3.60544 25.3292C3.64588 25.0444 3.68633 24.8511 3.69644 24.8918C3.929 26.1329 4.50534 29.3168 4.5559 29.6627C4.66712 30.4155 4.78846 30.5172 5.58726 30.507C6.14338 30.507 6.29505 30.4663 6.42649 30.2934C6.53772 30.1611 6.72983 29.2965 6.98262 27.8113C7.19496 26.5601 7.4073 25.4615 7.45785 25.3801C7.50841 25.2784 7.54885 25.5429 7.54885 26.0922C7.54885 27.4756 7.67019 28.6455 7.80164 28.6963C7.87242 28.7268 8.1252 28.6149 8.36787 28.4522C8.61054 28.2894 9.17678 28.0046 9.62168 27.8215C10.0666 27.6282 10.4609 27.4451 10.5115 27.4146C10.5519 27.3841 10.5721 23.8542 10.562 19.5717L10.5317 11.7999L9.17678 11.8508Z" fill="black"/>
<path fill-rule="evenodd" clip-rule="evenodd" d="M76.7545 11.9726C76.7039 12.0438 76.6534 15.3499 76.6331 19.3273L76.5927 26.5497L76.9971 26.7837C77.8162 27.2414 78.1903 27.9637 78.0993 28.8995C78.0285 29.5709 77.7454 30.2219 77.1387 31.1171C76.7039 31.7478 76.6635 31.8597 76.6635 32.409C76.6635 32.8057 76.714 33.06 76.8151 33.1516C76.987 33.3245 78.3824 33.3856 81.1428 33.3347L82.7808 33.3144V32.5616V31.819L81.345 31.7478C80.5563 31.7071 79.889 31.6563 79.8688 31.6461C79.8485 31.6257 79.8081 29.6421 79.7778 27.2414L79.7171 22.8673L80.6574 22.8062C81.1731 22.7656 81.7899 22.735 82.0225 22.735C82.528 22.735 82.5887 22.613 82.5078 21.7585L82.4471 21.2092H81.1023H79.7474V17.3538C79.7474 14.7293 79.7777 13.468 79.8586 13.4273C79.9193 13.3866 80.5664 13.3255 81.2944 13.295L82.6291 13.2238V12.5626V11.9014L79.7272 11.8709C77.4926 11.8505 76.8151 11.8811 76.7545 11.9726Z" fill="black"/>
<path fill-rule="evenodd" clip-rule="evenodd" d="M23.8191 23.7118C23.6877 24.0577 23.7787 27.6791 23.9405 28.442C24.0113 28.7472 24.0011 29.0524 23.9405 29.3575C23.7888 29.978 23.809 30.4968 23.9708 30.7206C24.1023 30.9037 24.1326 30.9037 25.2044 30.6799C25.8111 30.5477 26.4076 30.4256 26.5391 30.3951L26.7716 30.3443L26.7413 27.0077C26.7211 25.1665 26.6705 23.6305 26.6301 23.5898C26.5896 23.5389 25.9627 23.488 25.2448 23.4677L23.9304 23.427L23.8191 23.7118Z" fill="black"/>
<path fill-rule="evenodd" clip-rule="evenodd" d="M38.0869 28.0355C37.7026 28.1881 37.2173 28.7069 36.651 29.5512C36.1656 30.2836 34.5579 32.3995 34.4871 32.3995C34.477 32.3995 34.295 32.2978 34.0927 32.1859C33.759 31.9824 33.6175 31.9722 32.7478 32.0231C31.0187 32.1147 29.9469 32.6741 28.2481 34.3526C26.8425 35.7462 25.5988 36.56 25.3359 36.2955C25.2651 36.2243 25.4977 35.8683 26.0235 35.2478C27.6212 33.3354 27.6212 33.3354 27.5504 32.7454C27.5301 32.5521 27.4088 32.3791 27.1661 32.2164C26.6706 31.8807 25.9426 31.9519 24.8202 32.4504C24.355 32.6538 23.9202 32.8471 23.8596 32.8776C23.7888 32.9081 23.6877 32.8166 23.6371 32.6741C23.4045 32.0638 22.6664 32.074 22.1001 32.6843C21.908 32.8878 21.4833 33.3964 21.1597 33.8033C20.1687 35.0647 18.4396 36.4074 17.6307 36.5397C16.5689 36.7126 17.3273 35.2274 20.0373 31.84C22.0192 29.3579 22.2821 28.89 21.817 28.6357C21.4934 28.4729 20.7755 28.5136 20.4215 28.7272C20.2496 28.8391 19.562 29.6021 18.8947 30.4362C17.5599 32.1045 15.669 34.0067 14.4556 34.9121C13.0905 35.9293 11.422 36.5905 11.0378 36.265C10.603 35.909 11.1288 35.0341 13.4039 32.3181C13.9803 31.6264 14.5971 30.8228 14.7893 30.5379C15.1634 29.9581 15.2342 29.4393 14.9814 29.0731C14.6072 28.534 13.0399 28.3814 11.6344 28.7374C9.67268 29.2359 8.41881 30.304 9.19742 30.8228C9.521 31.0262 9.95581 30.894 11.1692 30.2022C12.1602 29.6529 13.1511 29.3478 13.3433 29.541C13.4747 29.6733 12.9085 30.4057 11.3917 32.0435C9.48055 34.0983 8.88396 35.1257 8.99519 36.1429C9.07608 36.9059 9.9457 37.5773 10.8456 37.5874C11.8366 37.5874 13.2826 36.916 14.4151 35.909C14.8297 35.5428 15.2241 35.2478 15.305 35.2478C15.4667 35.2478 15.4667 35.2274 15.2847 35.7462C15.1027 36.2752 15.2342 36.6923 15.7297 37.1093C16.3869 37.6586 17.2768 37.6993 18.3486 37.2212C18.9755 36.9364 19.3295 36.9059 19.4205 37.1297C19.4609 37.2314 19.6227 37.2823 19.9261 37.2823C20.371 37.2823 20.3912 37.2721 21.1091 36.3871C22.1405 35.1257 22.7776 34.4848 23.4753 33.9762C25.1235 32.786 26.3066 32.6538 25.4774 33.7524C25.3157 33.9559 24.9011 34.4441 24.5472 34.851C23.5764 35.9598 23.3742 36.6617 23.8899 37.0686C24.1124 37.2416 24.3045 37.2823 24.9112 37.2823C25.6999 37.2823 25.9527 37.1907 26.9335 36.5702C27.1965 36.3973 27.4695 36.265 27.5403 36.265C27.611 36.265 27.7526 36.4379 27.8638 36.6617C28.1065 37.1398 28.5009 37.3128 29.2896 37.3128C29.9974 37.3026 30.6749 37.0178 31.3322 36.4583C31.5951 36.2447 31.8479 36.0616 31.9086 36.0616C31.9692 36.0616 32.0198 36.204 32.0198 36.3769C32.0198 36.5804 32.1209 36.7838 32.313 36.9873C32.5658 37.2416 32.6872 37.2823 33.1523 37.2823C33.7894 37.2823 34.5477 36.9567 35.3365 36.3464C35.6297 36.1226 35.8926 35.9598 35.923 35.9904C35.9533 36.0209 36.0544 36.1938 36.1555 36.3871C36.2566 36.5702 36.5499 36.8754 36.8128 37.0483C37.2375 37.3433 37.3892 37.384 37.9352 37.384C38.825 37.384 39.543 37.2212 40.3115 36.8652C41.2114 36.4481 41.808 35.9598 43.4461 34.3831C44.5281 33.3252 44.9225 33.0098 45.1955 32.959C45.964 32.8064 45.9337 32.9081 44.8618 34.1288C43.2338 35.9598 42.9507 36.6109 43.5574 37.1195C44.1742 37.6383 45.4584 37.4043 46.7527 36.5397C47.1268 36.2854 47.501 36.0616 47.5617 36.0412C47.6324 36.0209 47.7639 36.1735 47.865 36.3667C48.4717 37.5569 50.2109 37.6993 52.1423 36.7228C52.5063 36.5397 52.8704 36.3159 52.9411 36.2243C53.1434 35.9802 53.2243 36.0107 53.8714 36.6109C54.5894 37.2823 54.9736 37.4247 55.9241 37.3636C56.8645 37.3026 57.5521 36.9669 58.5532 36.0819C59.5543 35.2173 60.2318 34.7188 60.3733 34.7697C60.4441 34.79 60.4744 35.085 60.4542 35.5631C60.4037 36.8245 60.7778 37.2823 61.8598 37.2823C62.7193 37.2823 63.3361 37.0483 64.0136 36.4786C64.3473 36.1938 64.6506 35.9904 64.7012 36.0209C64.7416 36.0514 64.7821 36.2345 64.7821 36.4278C64.7821 36.9974 65.1461 37.2823 65.864 37.2823C66.5213 37.2823 66.9966 37.089 67.7651 36.5295C68.0381 36.326 68.3313 36.1633 68.4021 36.1633C68.4628 36.1633 68.6043 36.3566 68.6954 36.5804C69.0796 37.5671 70.6368 37.6485 71.921 36.7635C72.6086 36.2955 74.3175 34.5764 74.267 34.4136C74.1557 34.0779 73.7917 34.2509 72.7097 35.1155C71.557 36.0616 71.1222 36.3057 70.7278 36.2447C70.5256 36.2141 70.4953 36.1633 70.5054 35.736C70.5054 35.1155 70.7683 34.7493 71.739 33.9762C73.7917 32.3486 75.5411 30.5379 75.9759 29.5817C76.3197 28.8391 76.2691 28.239 75.8646 28.0355C75.4804 27.8524 74.6007 28.0254 74.0344 28.4017C72.9019 29.1647 70.4447 31.9926 69.4335 33.7219C68.9481 34.5357 68.3313 35.1867 67.5426 35.7157C66.8651 36.1735 66.4202 36.326 66.2786 36.1836C66.1269 36.031 66.4606 35.5428 67.4112 34.4848C67.8055 34.0373 68.21 33.5185 68.301 33.3354C68.4628 33.0098 68.4527 32.9793 68.2909 32.8572C68.1898 32.786 67.937 32.7047 67.7246 32.664C67.5022 32.6335 67.1887 32.491 67.0269 32.3486C66.4303 31.8502 65.227 31.8298 63.8316 32.2978C63.4473 32.4198 62.7597 32.8064 62.0923 33.2641C60.5958 34.3119 60.3127 34.2916 60.2014 33.1726C60.1306 32.4605 59.888 32.1452 59.2812 31.9824C57.8656 31.5959 55.5095 32.6131 54.0433 34.2407C53.022 35.3698 51.6569 36.2142 50.6255 36.3362C50.2615 36.3769 50.1199 36.3464 49.8975 36.1633C49.5436 35.8886 49.5436 35.6343 49.9076 34.9935C50.4637 34.0169 51.8086 32.8471 52.4962 32.7352C52.9411 32.664 52.9614 32.8369 52.5973 33.376C52.2738 33.844 52.3142 33.966 52.7692 34.0067C53.0625 34.0271 53.204 33.9762 53.5074 33.7117C54.2557 33.0505 54.2759 32.5724 53.558 32.1554C52.8299 31.7179 51.2828 31.9926 49.9986 32.7759C49.675 32.9691 48.856 33.6609 48.1785 34.3017C46.5707 35.8378 45.4382 36.5804 45.1449 36.2854C45.0135 36.1531 45.5898 35.3597 46.692 34.1898C47.7032 33.1116 47.9459 32.7454 47.8347 32.4504C47.7437 32.2164 47.3594 32.1655 46.2673 32.2367C45.3067 32.3079 45.2663 32.2978 45.2663 32.1045C45.2663 31.9926 45.155 31.8197 45.0135 31.7281C44.3663 31.3009 43.0518 32.2062 43.4259 32.8166C43.6282 33.1319 43.5675 33.2845 42.981 33.9152C42.2226 34.7493 41.3429 35.4004 40.3216 35.8988C38.8352 36.6109 37.8341 36.4379 37.8341 35.4614C37.8341 35.2376 37.8745 35.024 37.915 34.9833C37.9554 34.9426 38.4812 34.8714 39.0778 34.8307C40.7058 34.7086 41.5957 34.3526 42.081 33.6405C42.435 33.1217 42.4046 32.7962 41.9799 32.4097C41.3429 31.8502 40.5137 31.779 39.1891 32.196C38.3902 32.4402 37.8341 32.8573 36.196 34.4441C34.6489 35.9395 33.941 36.4176 33.6781 36.1429C33.5467 36.0209 33.5871 35.9191 33.9208 35.3902C34.3051 34.8002 35.5893 33.2235 37.6116 30.8736C39.4621 28.7272 39.8059 28.1271 39.2801 27.9847C38.9464 27.8931 38.3801 27.9236 38.0869 28.0355ZM75.2984 29.1748C75.2984 29.6122 72.4064 32.9081 72.0221 32.9081C71.7795 32.9081 73.4782 30.5786 74.3984 29.6631C74.995 29.0629 75.2984 28.9002 75.2984 29.1748ZM33.6781 32.7657C34.0219 32.8979 33.8298 33.254 32.9096 34.1695C31.8984 35.1766 31.0693 35.7767 30.2704 36.0819C29.4008 36.4176 29.1278 36.0717 29.6536 35.2885C30.3513 34.2305 31.6861 33.2336 32.8793 32.8471C33.3546 32.6945 33.4658 32.6843 33.6781 32.7657ZM41.1609 32.8674C41.3934 33.0912 41.3631 33.2336 41.0395 33.549C40.6553 33.9152 39.998 34.1288 39.2194 34.1288H38.5621L38.7947 33.8745C39.1082 33.5388 39.9677 32.9691 40.362 32.8267C40.7968 32.6741 40.9789 32.6843 41.1609 32.8674ZM59.17 32.8878C59.17 32.959 58.988 33.1217 58.7757 33.2438C58.2903 33.5185 57.9768 33.9254 58.0678 34.1593C58.0982 34.261 58.26 34.4035 58.4217 34.495C58.5835 34.5764 58.715 34.7086 58.715 34.79C58.715 34.9833 58.2296 35.3393 57.2993 35.8378C56.1567 36.4583 55.5601 36.499 55.2871 35.97C54.9129 35.2783 56.6016 33.4676 58.1386 32.8979C58.715 32.6843 59.17 32.6843 59.17 32.8878ZM66.2786 32.7657C66.582 32.8573 66.5618 33.0912 66.1775 33.61C65.3787 34.6985 62.9114 36.3973 62.3654 36.2141C61.4856 35.9395 63.6091 33.5897 65.3787 32.8979C65.9045 32.6945 65.955 32.6843 66.2786 32.7657Z" fill="black"/>
<path fill-rule="evenodd" clip-rule="evenodd" d="M7.72109 32.0635C7.60987 32.1652 7.6402 33.1927 7.75142 33.2639C7.86265 33.3351 8.56033 32.6942 8.56033 32.5213C8.56033 32.389 8.06488 31.9923 7.90309 31.9923C7.84243 31.9923 7.75142 32.0228 7.72109 32.0635Z" fill="black"/>
<path fill-rule="evenodd" clip-rule="evenodd" d="M0.592514 35.064L0.622848 35.3997L3.2619 35.4302C6.16386 35.4608 6.91209 35.3997 7.08398 35.1149C7.16488 34.9725 7.16488 34.9115 7.04354 34.8402C6.95254 34.7792 5.56729 34.7385 3.72702 34.7385H0.56218L0.592514 35.064Z" fill="black"/>
<path fill-rule="evenodd" clip-rule="evenodd" d="M76.35 34.8402C76.1275 34.9318 75.9556 35.2268 76.0668 35.3387C76.0972 35.3692 77.6341 35.3997 79.4744 35.3997H82.8313L82.8616 35.064L82.892 34.7385L79.7271 34.7487C77.988 34.7487 76.4713 34.7894 76.35 34.8402Z" fill="black"/>
<path fill-rule="evenodd" clip-rule="evenodd" d="M5.39507 38.919C4.24238 39.2547 3.85815 40.6992 4.71761 41.5232C5.49618 42.2556 6.99266 42.2352 7.64989 41.4927C8.26669 40.7908 8.13524 39.7125 7.387 39.1835C6.91177 38.8478 6.0523 38.7359 5.39507 38.919ZM6.93199 39.4989C7.07355 39.6006 7.25555 39.8549 7.31622 40.0583C7.67012 41.1265 6.42642 42.0827 5.48607 41.4621C5.09173 41.1977 4.92995 40.8823 4.91984 40.3534C4.91984 40.0075 4.9805 39.8651 5.20295 39.6515C5.35462 39.509 5.56696 39.3565 5.67818 39.3056C5.98152 39.1733 6.63876 39.2751 6.93199 39.4989Z" fill="black"/>
<path fill-rule="evenodd" clip-rule="evenodd" d="M13.2521 38.9094C12.9588 39.0315 12.6049 39.4994 12.6049 39.7741C12.6049 40.1505 13.0498 40.4963 13.6161 40.5675C14.1924 40.6387 14.789 40.893 14.8699 41.1067C14.9002 41.188 14.8294 41.3508 14.7182 41.4627C14.4149 41.7679 13.6565 41.6865 13.1611 41.3101C12.6049 40.8829 12.2308 41.1575 12.7364 41.6356C13.5655 42.4189 15.5372 42.0629 15.5372 41.127C15.5372 40.9744 15.4462 40.7506 15.3451 40.6489C15.1732 40.476 14.2733 40.1301 13.9902 40.1301C13.7779 40.1301 13.2116 39.7944 13.2116 39.6622C13.2116 39.4587 13.6262 39.2146 13.9801 39.2146C14.152 39.2146 14.4654 39.3265 14.6677 39.4689C15.0721 39.7436 15.4361 39.8046 15.4361 39.591C15.4361 39.0722 13.97 38.6144 13.2521 38.9094Z" fill="black"/>
<path fill-rule="evenodd" clip-rule="evenodd" d="M34.6286 38.8995C33.4658 39.2759 33.031 40.3338 33.6275 41.3104C33.9814 41.9004 35.0634 42.2055 35.9531 41.9614C37.2777 41.6054 37.6013 39.9574 36.5093 39.1843C36.0543 38.869 35.1544 38.7367 34.6286 38.8995ZM36.0239 39.4691C36.3677 39.6929 36.6003 40.2728 36.5295 40.6898C36.489 40.8628 36.3273 41.1476 36.1554 41.3104C35.8925 41.5647 35.7711 41.6054 35.306 41.6054C34.6387 41.6054 34.2544 41.351 34.0522 40.7712C33.9208 40.405 33.9309 40.3338 34.1028 39.9676C34.4466 39.2555 35.3465 39.0216 36.0239 39.4691Z" fill="black"/>
<path fill-rule="evenodd" clip-rule="evenodd" d="M38.8251 38.9904C38.1678 39.2549 37.905 39.5397 37.8342 40.0686C37.7229 40.7909 37.8443 41.1876 38.2892 41.5843C38.8756 42.1235 39.9373 42.215 40.726 41.798C41.1507 41.5843 41.5349 40.9435 41.545 40.4654C41.5551 39.7431 41.1709 39.2243 40.4227 38.9599C39.8665 38.7666 39.361 38.7767 38.8251 38.9904ZM40.2811 39.4176C41.0091 39.8652 41.1204 40.679 40.5339 41.269C39.7958 42.0218 38.3903 41.564 38.3903 40.5671C38.3903 39.5397 39.4419 38.8988 40.2811 39.4176Z" fill="black"/>
<path fill-rule="evenodd" clip-rule="evenodd" d="M60.0901 38.9096C59.443 39.1131 58.9678 39.8963 59.0487 40.6186C59.1093 41.1882 59.3722 41.5443 59.9284 41.8291C60.7474 42.2563 61.8596 42.0631 62.4562 41.4019C62.6786 41.1679 62.709 41.0356 62.709 40.4558C62.6989 39.642 62.5169 39.3063 61.9709 39.0825C61.4855 38.8893 60.4643 38.7977 60.0901 38.9096ZM61.5563 39.4487C61.7484 39.5708 61.981 39.8455 62.0821 40.0591C62.2641 40.4253 62.2641 40.4456 62.0821 40.8119C61.8394 41.3103 61.3237 41.6562 60.8081 41.6562C60.4845 41.6562 60.3429 41.585 60.0194 41.2594C59.7059 40.9441 59.625 40.7915 59.625 40.4863C59.625 39.4691 60.717 38.8791 61.5563 39.4487Z" fill="black"/>
<path fill-rule="evenodd" clip-rule="evenodd" d="M72.032 38.9507C71.5062 39.1439 71.2939 39.3575 71.0917 39.8865C70.6872 40.9648 71.5062 42.0634 72.7196 42.0634C73.2858 42.0634 73.9431 41.7379 74.1756 41.3412C74.5396 40.741 74.2262 40.6698 73.5993 41.2089C73.3162 41.4429 73.033 41.5955 72.7701 41.626C72.4162 41.6769 72.3354 41.6463 72.0219 41.331C71.4253 40.7308 71.4152 40.151 72.0118 39.5508C72.4466 39.1134 72.7803 39.1134 73.4779 39.5712C74.0846 39.9679 74.3273 39.917 74.0846 39.4593C73.8015 38.9405 72.76 38.676 72.032 38.9507Z" fill="black"/>
<path fill-rule="evenodd" clip-rule="evenodd" d="M76.2488 38.8791C75.8949 38.9503 75.2175 39.5912 75.0961 39.9879C74.9546 40.4253 75.0152 40.8424 75.3186 41.3306C75.6017 41.7884 76.1983 42.0529 76.9566 42.0631C77.5229 42.0631 77.5633 42.0427 77.9981 41.6053C78.2509 41.3612 78.4329 41.0967 78.4127 41.0255C78.3318 40.7813 78.0588 40.8322 77.7655 41.1272C77.2094 41.6765 76.8353 41.7782 76.3095 41.5036C75.7028 41.1882 75.5208 40.3236 75.9354 39.7132C76.3398 39.1029 76.8252 39.1029 77.7959 39.7336C78.1093 39.9268 78.1295 39.937 78.2003 39.7743C78.4025 39.2249 77.2296 38.6858 76.2488 38.8791Z" fill="black"/>
<path fill-rule="evenodd" clip-rule="evenodd" d="M80.243 38.8995C79.3937 39.1742 79.0903 39.693 79.1308 40.7611C79.1409 41.1273 79.5959 41.6461 80.1014 41.8699C81.0013 42.2869 82.3765 41.9411 82.7203 41.2087C83.0742 40.4661 82.8416 39.6014 82.1844 39.164C81.7395 38.869 80.7486 38.7368 80.243 38.8995ZM81.6788 39.4285C81.972 39.5404 82.2754 40.0999 82.2754 40.5271C82.2754 41.0968 81.5979 41.6562 80.9103 41.6562C80.6475 41.6562 80.4553 41.5647 80.1722 41.3104C79.8284 40.9849 79.7981 40.9137 79.7981 40.405C79.7981 39.9981 79.8487 39.7845 79.9902 39.6319C80.3441 39.2352 80.9912 39.164 81.6788 39.4285Z" fill="black"/>
<path fill-rule="evenodd" clip-rule="evenodd" d="M0.794413 39.0315C0.824747 39.1027 1.02697 39.1739 1.24942 39.1943C1.48198 39.2146 1.72466 39.296 1.79544 39.3774C1.87633 39.4791 1.9471 39.9775 1.96733 40.7506C2.00777 41.7984 2.03811 41.9612 2.17966 41.9612C2.52345 41.9612 2.59423 41.7374 2.59423 40.6896C2.59423 39.4384 2.70545 39.2146 3.30202 39.2451C3.7267 39.2553 3.86826 39.1943 3.75703 39.0213C3.65592 38.8484 0.743856 38.8687 0.794413 39.0315Z" fill="black"/>
<path fill-rule="evenodd" clip-rule="evenodd" d="M9.8951 39.1437C9.67265 39.3878 8.83341 41.1781 8.71208 41.6766C8.65141 41.9207 8.67163 41.9614 8.84352 41.9614C9.04575 41.9614 9.23787 41.7885 9.41987 41.4121C9.51087 41.229 9.6221 41.1985 10.249 41.168L10.977 41.1374L11.1186 41.4731C11.3714 42.0733 11.796 42.2361 11.796 41.7274C11.796 41.4324 10.9062 39.3776 10.6636 39.1131C10.4108 38.8487 10.158 38.8588 9.8951 39.1437ZM10.5422 40.1914C10.6231 40.6288 10.4917 40.7916 10.1378 40.7C9.83443 40.6288 9.79399 40.3847 10.0367 40.049C10.2692 39.7133 10.4613 39.7743 10.5422 40.1914Z" fill="black"/>
<path fill-rule="evenodd" clip-rule="evenodd" d="M16.1645 39.032C16.1948 39.1032 16.2757 39.1744 16.3566 39.1846C16.4375 39.1947 16.67 39.2253 16.8824 39.2659L17.2565 39.327V39.9678C17.2565 41.0563 17.3778 41.8701 17.5396 41.9413C17.8126 42.043 17.9441 41.6666 18.0148 40.4866L18.0856 39.327L18.4496 39.2659C18.662 39.2253 18.8844 39.1947 18.9653 39.1846C19.0462 39.1744 19.1271 39.1032 19.1574 39.032C19.1878 38.9404 18.844 38.9099 17.6609 38.9099C16.4779 38.9099 16.1341 38.9404 16.1645 39.032Z" fill="black"/>
<path fill-rule="evenodd" clip-rule="evenodd" d="M20.2798 38.9802C19.9462 39.0311 19.8855 39.2854 19.8855 40.5875C19.8855 41.9709 19.9259 42.0116 21.4831 42.0116C22.1504 42.0116 22.7369 41.9709 22.7773 41.9302C22.929 41.7878 22.5852 41.6556 22.0493 41.6556C21.7662 41.6556 21.3213 41.6251 21.0584 41.5945L20.5933 41.5233V41.0961V40.6689L21.5134 40.6078C22.0291 40.5773 22.4841 40.5061 22.5448 40.4451C22.6964 40.2925 22.1909 40.1297 21.5438 40.1297C20.8562 40.1297 20.5933 39.9975 20.5933 39.6618C20.5933 39.3363 20.9067 39.2142 21.7561 39.2142C22.4538 39.2142 22.747 39.143 22.656 39.0006C22.6054 38.909 20.8157 38.8989 20.2798 38.9802Z" fill="black"/>
<path fill-rule="evenodd" clip-rule="evenodd" d="M23.9202 38.9806C23.7887 39.0111 23.7483 39.1942 23.7078 39.9063C23.6876 40.3945 23.6876 41.0354 23.7078 41.3304C23.7483 41.8085 23.7786 41.8899 24.0213 41.9814C24.3853 42.1239 25.629 42.0323 26.0233 41.8289C26.7817 41.4321 27.085 40.3945 26.6603 39.6316C26.3368 39.0619 25.9627 38.9094 24.9212 38.9195C24.4662 38.9297 24.0112 38.9501 23.9202 38.9806ZM25.5481 39.3163C26.0031 39.4383 26.2559 39.8554 26.2559 40.4861C26.2559 40.8726 26.2053 41.0151 25.9728 41.249C25.6593 41.5542 25.1032 41.7169 24.6988 41.6152C24.5167 41.5745 24.446 41.4626 24.3954 41.1778C24.2943 40.5268 24.3246 39.4688 24.4561 39.3366C24.6078 39.184 25.0628 39.184 25.5481 39.3163Z" fill="black"/>
<path fill-rule="evenodd" clip-rule="evenodd" d="M29.6131 39.0013C29.4109 39.1233 29.4817 41.8292 29.694 41.9614C29.9468 42.114 30.0884 41.8699 30.1187 41.2188L30.149 40.5882L31.0085 40.6288C31.4938 40.6492 31.8983 40.7102 31.9387 40.7814C31.9792 40.8425 32.0196 41.0256 32.0196 41.1985C32.0196 41.6563 32.1309 41.9614 32.2825 41.9614C32.4746 41.9614 32.5353 41.4528 32.505 40.1304C32.4746 39.0419 32.4645 38.9606 32.2724 38.9606C32.1106 38.9606 32.0601 39.0521 32.0095 39.4488C31.9792 39.7235 31.8882 39.988 31.8073 40.0388C31.7365 40.0897 31.3321 40.1304 30.9377 40.1304H30.1996V39.7845C30.1996 39.0928 29.9569 38.7775 29.6131 39.0013Z" fill="black"/>
<path fill-rule="evenodd" clip-rule="evenodd" d="M44.6089 39.032C44.4977 39.093 44.1134 39.3778 43.7595 39.6423C43.0416 40.2018 42.9405 40.1815 42.8495 39.4999C42.8091 39.1947 42.7383 39.0523 42.617 39.032C42.4552 39.0015 42.435 39.1235 42.435 40.4154C42.435 41.1885 42.4653 41.8599 42.5057 41.8904C42.6271 42.0125 42.8293 41.7378 42.9001 41.3615C42.9709 40.9444 43.1933 40.5375 43.3551 40.5375C43.4158 40.5375 43.8 40.8528 44.1943 41.2496C44.892 41.9209 45.1751 42.0837 45.3167 41.8701C45.347 41.809 45.074 41.4327 44.71 41.0054C44.346 40.5884 44.0528 40.2018 44.0528 40.1408C44.0528 40.0899 44.3258 39.8254 44.6595 39.5711C45.2459 39.1134 45.347 38.9099 44.983 38.9099C44.892 38.9099 44.7201 38.9709 44.6089 39.032Z" fill="black"/>
<path fill-rule="evenodd" clip-rule="evenodd" d="M47.147 39.093C46.9144 39.3676 45.974 41.4631 45.974 41.7276C45.974 42.1447 46.4998 41.9413 46.6616 41.453C46.7728 41.158 46.7931 41.1478 47.4301 41.1478C47.966 41.1478 48.1379 41.1885 48.2997 41.3513C48.4109 41.4631 48.5019 41.6259 48.5019 41.7073C48.5019 41.8802 48.7951 42.0531 48.9872 41.9921C49.0479 41.9616 49.1086 41.87 49.1086 41.7785C49.1086 41.514 48.0165 39.1845 47.8244 39.0319C47.5817 38.859 47.3492 38.8794 47.147 39.093ZM47.8143 40.1407C47.9154 40.4866 47.9053 40.568 47.784 40.6494C47.5817 40.7714 47.4604 40.7613 47.238 40.6087C47.0661 40.4764 47.0661 40.4561 47.2885 40.0492C47.42 39.8152 47.5615 39.6525 47.602 39.683C47.6525 39.7135 47.7435 39.9169 47.8143 40.1407Z" fill="black"/>
<path fill-rule="evenodd" clip-rule="evenodd" d="M49.9886 38.9808C49.9481 39.0113 49.9178 39.6826 49.9178 40.4558C49.9178 41.6459 49.938 41.8799 50.0796 41.9308C50.3223 42.0223 50.4537 41.8087 50.5043 41.1983L50.5447 40.6389H51.0705C51.3536 40.6389 51.7479 40.6083 51.9502 40.5778L52.3142 40.5168L52.3647 41.1983C52.4355 42.0223 52.5467 42.1647 52.8501 41.8595C53.0624 41.6459 53.0725 41.5645 53.0321 40.4151C52.9916 39.3673 52.9613 39.174 52.7995 39.052C52.5265 38.8485 52.3647 39.0418 52.3243 39.6013L52.294 40.0794H51.4345H50.575L50.5245 39.6216C50.4941 39.3673 50.4335 39.1028 50.393 39.0316C50.302 38.8994 50.0897 38.8689 49.9886 38.9808Z" fill="black"/>
<path fill-rule="evenodd" clip-rule="evenodd" d="M55.3983 39.0315C55.4287 39.1027 55.6815 39.1841 55.9646 39.2146C56.2477 39.2451 56.5106 39.3062 56.5611 39.357C56.6016 39.3977 56.6623 39.9572 56.6724 40.5879C56.7027 41.4118 56.7533 41.7781 56.8443 41.8594C57.097 42.0731 57.1678 41.8798 57.2285 40.7506C57.2993 39.3774 57.37 39.2248 57.9059 39.2451C58.3306 39.2553 58.4722 39.1943 58.361 39.0213C58.2598 38.8484 55.3478 38.8687 55.3983 39.0315Z" fill="black"/>
<path fill-rule="evenodd" clip-rule="evenodd" d="M63.5686 40.2628C63.5686 42.0023 63.599 42.0634 64.6101 42.0634C65.0146 42.0634 65.4898 42.0227 65.6819 41.9616C66.42 41.748 66.7031 41.1478 66.329 40.5782C66.1875 40.3544 66.1774 40.2628 66.2886 39.9678C66.4301 39.5813 66.3391 39.327 65.9751 39.0727C65.8032 38.9506 65.4797 38.9099 64.6607 38.9099H63.5686V40.2628ZM65.3381 39.3575C65.7021 39.5203 65.8032 39.7746 65.5707 40.0085C65.4493 40.1306 64.6101 40.1713 64.3371 40.0696C64.145 39.9984 64.1248 39.5101 64.2967 39.3372C64.4584 39.1744 64.9134 39.1846 65.3381 39.3575ZM65.7729 40.8122C65.9448 41.0461 65.9246 41.1885 65.7021 41.392C65.4493 41.6158 64.8123 41.7073 64.4584 41.5649C64.2259 41.4734 64.1753 41.392 64.1753 41.097C64.1753 40.8223 64.2259 40.7104 64.4079 40.6392C64.7314 40.4968 65.6111 40.6189 65.7729 40.8122Z" fill="black"/>
<path fill-rule="evenodd" clip-rule="evenodd" d="M68.4931 39.0319C68.2302 39.2354 67.0775 41.7683 67.1989 41.8904C67.3505 42.0429 67.6033 41.9005 67.8258 41.5038C68.0381 41.1478 68.0482 41.1478 68.7358 41.1478C69.4031 41.1478 69.4335 41.1579 69.5851 41.4428C69.7874 41.8497 70.1412 42.0938 70.303 41.9514C70.4547 41.8192 70.3637 41.5343 69.7065 40.1102C69.1908 38.9912 68.8976 38.7369 68.4931 39.0319ZM69.0088 40.2628C69.0492 40.69 68.8773 40.8223 68.5335 40.6391C68.2707 40.4967 68.2707 40.4255 68.5335 40.0898C68.8066 39.7338 68.9683 39.7948 69.0088 40.2628Z" fill="black"/>
</svg>
