<svg width="78" height="11" viewBox="0 0 78 11" fill="none" xmlns="http://www.w3.org/2000/svg">
<path d="M0.438408 10.4922V9.57831L1.30771 9.41114V3.46535L0.438408 3.29818V2.37872H8.65775V3.29818L7.78287 3.46535V9.41114L8.65775 9.57831V10.4922H5.39787V9.57831L6.26717 9.41114V3.54894H2.82341V9.41114L3.70385 9.57831V10.4922H0.438408ZM9.293 10.4922V9.57831L10.1679 9.41114V3.46535L9.293 3.29818V2.37872H10.1679H13.1268C13.7398 2.37872 14.2655 2.48646 14.7038 2.70193C15.1459 2.91368 15.4858 3.21273 15.7236 3.59909C15.9613 3.98173 16.0802 4.42752 16.0802 4.93647C16.0802 5.44914 15.9613 5.89679 15.7236 6.27943C15.4858 6.65835 15.1459 6.95369 14.7038 7.16544C14.2655 7.3772 13.7398 7.48307 13.1268 7.48307H11.6836V9.41114L12.5585 9.57831V10.4922H9.293ZM11.6836 6.31286H13.1268C13.6024 6.31286 13.9608 6.1847 14.2023 5.92836C14.4438 5.67203 14.5645 5.34512 14.5645 4.94762C14.5645 4.5464 14.4438 4.21391 14.2023 3.95015C13.9608 3.68267 13.6024 3.54894 13.1268 3.54894H11.6836V6.31286ZM15.2889 10.4922V9.57831L15.874 9.49472L18.5098 2.37872H20.0199L22.6334 9.49472L23.2129 9.57831V10.4922H20.5437V9.57831L21.1177 9.47243L20.7221 8.27993H17.7854L17.3898 9.47243L17.9581 9.57831V10.4922H15.2889ZM18.1587 7.13758H20.3487L19.3512 4.25106L19.2732 4.01702H19.2398L19.1562 4.26221L18.1587 7.13758ZM23.8705 10.4922V9.57831L24.7454 9.41114V3.46535L23.8705 3.29818V2.37872H24.7454H26.2555H27.1359V3.29818L26.2555 3.46535V7.4162L26.2889 7.42735L29.6937 3.93343V3.46535L28.8244 3.29818V2.37872H29.6937H31.215H32.0898V3.29818L31.215 3.46535V9.41114L32.0898 9.57831V10.4922H28.8244V9.57831L29.6937 9.41114V5.56058L29.6602 5.54944L26.2555 9.0545V9.41114L27.1359 9.57831V10.4922H23.8705ZM27.9829 1.86049C27.396 1.86049 26.9298 1.71003 26.5843 1.40912C26.2425 1.10821 26.0772 0.721855 26.0883 0.250055L26.0995 0.216621H27.1471C27.1471 0.443233 27.2139 0.630838 27.3477 0.779437C27.4814 0.92432 27.6932 0.996761 27.9829 0.996761C28.2616 0.996761 28.4677 0.92432 28.6015 0.779437C28.7389 0.634553 28.8077 0.446948 28.8077 0.216621H29.8553L29.8664 0.250055C29.8739 0.721855 29.7067 1.10821 29.3649 1.40912C29.0268 1.71003 28.5662 1.86049 27.9829 1.86049ZM36.5422 10.6092C35.7472 10.6092 35.0618 10.442 34.486 10.1077C33.9139 9.77334 33.4736 9.3034 33.1653 8.69786C32.857 8.08861 32.7028 7.37534 32.7028 6.55805V6.31844C32.7028 5.53086 32.8532 4.83245 33.1542 4.2232C33.4551 3.61395 33.886 3.13472 34.447 2.78551C35.0079 2.43631 35.6766 2.2617 36.453 2.2617C36.9991 2.2617 37.5081 2.34158 37.9799 2.50132C38.4517 2.65735 38.8678 2.88767 39.2281 3.1923V5.10922H38.0858L37.9297 3.86656C37.8071 3.77741 37.6715 3.70125 37.5229 3.63809C37.3781 3.57494 37.2183 3.52665 37.0437 3.49321C36.8728 3.45978 36.6871 3.44306 36.4865 3.44306C36.011 3.44306 35.6042 3.56194 35.2661 3.7997C34.9281 4.03374 34.668 4.36437 34.486 4.79159C34.3077 5.21881 34.2185 5.72404 34.2185 6.30729V6.55805C34.2185 7.14873 34.3132 7.65953 34.5027 8.09047C34.6922 8.5214 34.9615 8.85389 35.3107 9.08793C35.6636 9.31826 36.0834 9.43343 36.5701 9.43343C36.8115 9.43343 37.0511 9.40742 37.2889 9.35541C37.5267 9.29969 37.7384 9.22725 37.9242 9.13809L38.0858 7.99574H39.217V9.89594C38.9049 10.1003 38.5186 10.2711 38.0579 10.4086C37.5972 10.5423 37.092 10.6092 36.5422 10.6092ZM42.8781 10.4922V9.32755H43.0954C43.348 9.31269 43.5579 9.24953 43.7251 9.13809C43.8922 9.02292 44.0241 8.8446 44.1207 8.60313C44.2173 8.35795 44.2897 8.03289 44.338 7.62796C44.3863 7.21931 44.4142 6.71036 44.4216 6.10111L44.4718 3.46535L43.6192 3.29818V2.37872H50.7631V3.29818L49.8882 3.46535V9.41114L50.7631 9.57831V10.4922H47.5032V9.57831L48.3781 9.41114V3.54894H45.9819L45.9373 6.10111C45.9225 6.88125 45.8593 7.54994 45.7479 8.10719C45.6401 8.66443 45.4767 9.11951 45.2575 9.47243C45.042 9.82164 44.769 10.0798 44.4383 10.247C44.1077 10.4105 43.7139 10.4922 43.257 10.4922H42.8781ZM51.4875 10.4922V9.57831L52.3623 9.41114V3.46535L51.4875 3.29818V2.37872H52.3623H53.8725H54.7529V3.29818L53.8725 3.46535V7.4162L53.9059 7.42735L57.3107 3.93343V3.46535L56.4414 3.29818V2.37872H57.3107H58.8319H59.7068V3.29818L58.8319 3.46535V9.41114L59.7068 9.57831V10.4922H56.4414V9.57831L57.3107 9.41114V5.56058L57.2772 5.54944L53.8725 9.0545V9.41114L54.7529 9.57831V10.4922H51.4875ZM64.1592 10.6092C63.3642 10.6092 62.6788 10.442 62.103 10.1077C61.5308 9.77334 61.0906 9.3034 60.7823 8.69786C60.4739 8.08861 60.3198 7.37534 60.3198 6.55805V6.31844C60.3198 5.53086 60.4702 4.83245 60.7711 4.2232C61.0721 3.61395 61.503 3.13472 62.0639 2.78551C62.6249 2.43631 63.2936 2.2617 64.07 2.2617C64.6161 2.2617 65.1251 2.34158 65.5969 2.50132C66.0687 2.65735 66.4847 2.88767 66.8451 3.1923V5.10922H65.7027L65.5467 3.86656C65.4241 3.77741 65.2885 3.70125 65.1399 3.63809C64.995 3.57494 64.8353 3.52665 64.6607 3.49321C64.4898 3.45978 64.3041 3.44306 64.1035 3.44306C63.6279 3.44306 63.2212 3.56194 62.8831 3.7997C62.545 4.03374 62.285 4.36437 62.103 4.79159C61.9246 5.21881 61.8355 5.72404 61.8355 6.30729V6.55805C61.8355 7.14873 61.9302 7.65953 62.1197 8.09047C62.3091 8.5214 62.5785 8.85389 62.9277 9.08793C63.2806 9.31826 63.7004 9.43343 64.187 9.43343C64.4285 9.43343 64.6681 9.40742 64.9059 9.35541C65.1436 9.29969 65.3554 9.22725 65.5411 9.13809L65.7027 7.99574H66.8339V9.89594C66.5219 10.1003 66.1355 10.2711 65.6749 10.4086C65.2142 10.5423 64.709 10.6092 64.1592 10.6092ZM69.4809 10.4922V9.57831L70.3557 9.41114V3.54336H68.801L68.6951 4.5464H67.5528V2.37872H74.6855V4.5464H73.5376L73.4317 3.54336H71.8714V9.41114L72.7519 9.57831V10.4922H69.4809ZM75.5771 10.4922V9.12694H77.0872V10.4922H75.5771ZM75.5771 5.82806V4.46281H77.0872V5.82806H75.5771Z" fill="#404040"/>
</svg>
