<svg width="53" height="74" viewBox="0 0 53 74" fill="none" xmlns="http://www.w3.org/2000/svg">
<path fill-rule="evenodd" clip-rule="evenodd" d="M37.5841 1.69113C36.8039 2.08356 36.357 2.34518 35.9994 2.59045C35.5849 2.8766 34.4797 4.00483 34.0489 4.56895C33.8295 4.86327 33.4882 5.29658 33.3094 5.53367C33.1225 5.77076 32.7161 6.36758 32.3992 6.85812C31.7165 7.92913 31.5052 8.2071 31.3914 8.2071C31.3427 8.2071 31.0501 8.05994 30.7332 7.88007C29.888 7.38954 29.0184 7.07069 27.7912 6.80907C27.3686 6.71914 25.2069 6.71914 24.7843 6.80907C23.2645 7.13609 21.9967 7.69203 20.8833 8.51777C20.1438 9.06554 19.3149 9.9158 18.876 10.5862C18.5591 11.0686 17.7545 12.5974 17.7545 12.72C17.7545 12.8427 17.145 13.6275 16.8118 13.93C16.4461 14.2652 16.1129 14.5023 15.7471 14.6985C15.4221 14.862 15.4139 14.952 15.6903 15.1809C16.6817 16.0066 17.2425 16.767 17.4944 17.609C18.0877 19.5875 18.9979 20.8793 21.2247 22.9314C21.883 23.5364 23.167 24.7218 24.0935 25.5803C25.0118 26.4305 26.4747 27.7877 27.3442 28.5971C29.8717 30.9271 30.0749 31.1233 30.9363 32.1371C31.7328 33.0773 31.8953 33.2899 32.4479 34.1565C33.2606 35.4074 33.927 37.3123 33.927 38.3751C33.927 39.209 33.5207 40.3536 32.8787 41.3101C32.4154 42.0051 32.0172 42.4139 31.3914 42.8308C31.1964 42.9534 30.9444 43.1251 30.8225 43.2069C30.0505 43.7383 28.4089 44.0244 27.1167 43.8528C25.3694 43.6238 23.6546 42.4711 22.8582 40.9749C22.5819 40.4681 22.5737 40.1002 22.8094 39.6668C23.102 39.1518 23.5246 38.9474 24.321 38.9474C24.8655 38.9474 24.9956 38.9229 25.0524 38.8002C25.2312 38.465 24.8818 36.1105 24.4917 35.0231C23.7846 33.0528 22.2893 31.5893 20.2738 30.9026C19.6481 30.69 19.453 30.6655 18.1852 30.6246C16.4623 30.5756 16.1291 30.6246 15.7553 30.9516C15.1376 31.4994 14.9995 32.1698 15.3814 32.8484C15.5521 33.1672 15.6984 33.3062 16.0478 33.4861C16.6005 33.7722 16.7711 33.7722 17.2994 33.5024C17.7707 33.2572 18.1608 32.7339 18.1608 32.3497C18.1608 32.0554 18.2909 31.9164 18.5672 31.9164C18.8516 31.9164 19.3799 32.4805 19.6562 33.0691C20.0544 33.9357 20.0219 35.8407 19.5749 37.5085C19.4693 37.9173 19.3067 38.5059 19.2255 38.8248C19.1361 39.1354 19.0142 39.5033 18.941 39.6423C18.8679 39.7731 18.811 39.953 18.811 40.0347C18.811 40.1165 18.7378 40.3209 18.6484 40.5008C18.5591 40.6806 18.4859 40.8687 18.4859 40.9259C18.4859 40.9831 18.4371 41.1303 18.3721 41.2529C18.3071 41.3674 18.2177 41.6045 18.1608 41.7843C18.1039 41.956 18.0145 42.1849 17.9577 42.2994C17.6895 42.8553 17.4294 43.4276 17.4294 43.4685C17.4294 43.5012 17.21 43.9917 16.9337 44.564C16.6655 45.1445 16.4054 45.6841 16.3648 45.774C16.3242 45.864 16.2591 45.9948 16.2185 46.0602C16.1697 46.1256 16.0885 46.2891 16.0235 46.4281C15.9666 46.5589 15.869 46.7551 15.8203 46.8532C15.7634 46.9595 15.6821 47.123 15.6334 47.2129C15.5846 47.311 15.479 47.5073 15.3977 47.6544C15.3164 47.8016 15.2108 47.9896 15.1701 48.0714C14.4712 49.3468 14.1461 49.9109 14.0893 49.9518C14.0486 49.9763 14.0161 50.0662 14.0161 50.148C14.0161 50.3524 14.3168 50.4423 14.4875 50.2951C14.5606 50.2297 14.9101 50.0335 15.2595 49.8537C15.6009 49.682 15.9909 49.4776 16.121 49.404C16.5273 49.1833 17.4132 48.4311 17.6895 48.0796C17.8358 47.8915 18.0227 47.6626 18.1121 47.5727C18.7053 46.935 20.2494 44.793 20.5908 44.1144C20.7858 43.7465 21.0134 43.7465 21.7936 44.1307C22.8907 44.6785 23.2483 44.8338 23.3783 44.8338C23.4514 44.8338 23.6465 44.8911 23.8172 44.9646C23.9959 45.0382 24.573 45.1854 25.1093 45.2917C26.5234 45.5778 28.547 45.5696 29.9611 45.2835C30.9445 45.0873 31.6271 44.8829 32.261 44.5967C32.4398 44.515 32.643 44.4251 32.708 44.3923C32.773 44.3678 33.0168 44.2288 33.2362 44.098C33.4638 43.9672 33.6995 43.8282 33.7645 43.7955C33.8295 43.771 33.9026 43.722 33.927 43.6892C33.9514 43.6647 34.1871 43.4685 34.4553 43.2641C35.4061 42.5365 36.5033 41.212 37.0559 40.1165C37.2591 39.7159 37.4216 39.3562 37.4216 39.3235C37.4216 39.2826 37.5354 39.021 37.6817 38.7267C37.9661 38.138 38.6406 37.4594 39.2827 37.0997C39.5021 36.9852 39.7053 36.8299 39.7296 36.7727C39.754 36.6991 39.6159 36.5601 39.3477 36.3884C39.112 36.2331 38.8113 35.9796 38.665 35.8161C38.3155 35.4074 37.8686 34.6388 37.7223 34.1565C37.3566 32.9628 36.9258 32.1371 36.1213 31.0579C35.3249 29.9951 34.504 29.1775 32.0578 27.011C31.7328 26.7167 31.2208 26.2507 30.9282 25.9727C30.0099 25.1061 29.6523 24.7791 29.0428 24.2313C26.2471 21.7296 24.8411 20.3479 23.8822 19.1624C23.2727 18.4021 22.4112 17.0776 22.1105 16.4236C21.9886 16.1538 21.8342 15.8431 21.7773 15.7287C21.6554 15.4997 21.4522 14.7312 21.3222 14.0118C21.1434 13.0716 21.3628 11.8698 21.883 10.9214C22.208 10.3246 23.1589 9.41709 23.7684 9.11459C24.2966 8.84479 25.4425 8.53412 25.8814 8.53412C26.2146 8.53412 27.523 8.85297 27.6693 8.9756C27.7343 9.02466 27.9294 9.13912 28.1 9.2127C28.4576 9.37621 29.0996 9.95668 29.5548 10.5208C29.8311 10.8723 29.8636 10.9705 29.8636 11.3629C29.8636 12.3276 29.3109 12.7854 28.1488 12.7854C27.4418 12.7854 27.3849 12.8672 27.458 13.7992C27.6287 15.8676 28.2301 17.56 29.2053 18.7291C29.8636 19.514 30.5137 20.0209 31.4646 20.4787C32.4561 20.9529 33.3581 21.1246 34.9185 21.1246C36.3651 21.1246 36.8527 20.9447 37.1778 20.307C37.511 19.6448 37.3322 18.819 36.7471 18.3449C36.5276 18.165 36.4139 18.1405 35.8775 18.1405C35.3411 18.1405 35.2273 18.165 35.016 18.3449C34.6747 18.6228 34.4309 19.0071 34.3415 19.4159C34.2684 19.7429 34.1465 19.8982 33.9595 19.8982C33.7401 19.8982 33.0574 19.0725 32.8461 18.5492C32.643 18.0505 32.6267 17.9361 32.6267 16.8487C32.6348 16.211 32.6674 15.5406 32.6999 15.3608C33.0168 13.881 33.5207 12.0823 33.797 11.4365C33.8539 11.2975 33.9839 10.9705 34.0896 10.7007C34.2765 10.1938 34.6341 9.34351 34.9185 8.69763C35.0079 8.49324 35.1379 8.18257 35.2111 8.01088C35.6012 7.09521 37.5679 3.20364 38.2262 2.05088C38.47 1.62575 38.5106 1.3396 38.3399 1.3396C38.3074 1.3396 37.9661 1.5031 37.5841 1.69113Z" fill="#A07238" stroke="black" stroke-width="0.811558"/>
<path d="M4.87306 69.59C4.67802 69.7126 4.49111 69.8598 4.46673 69.917C4.38546 70.1214 4.91369 70.6692 5.38503 70.8817C5.94576 71.127 6.31957 71.127 6.87218 70.8817M4.87306 69.59L7.62886 63.0842C7.80057 63.1164 8.02934 63.1206 8.45685 63.1206C8.71697 63.1206 8.91649 63.1175 9.06982 63.1041C9.22364 63.0906 9.32763 63.0669 9.39868 63.0279C9.4678 62.9898 9.50733 62.9363 9.53023 62.8573C9.55367 62.7763 9.55938 62.6695 9.55938 62.5263C9.55938 62.2149 9.42671 61.988 9.24484 61.8834C9.06389 61.7794 8.82828 61.793 8.61241 61.9747L8.61238 61.9747C8.53908 62.0362 8.47808 62.0841 8.42518 62.1182C8.37241 62.1523 8.32576 62.174 8.28124 62.181C8.18847 62.1956 8.11676 62.1448 8.03112 62.0546C7.96239 61.9853 7.92096 61.8791 7.90307 61.7436C7.88512 61.6075 7.89047 61.4391 7.91809 61.242C7.97333 60.8478 8.11832 60.3348 8.35027 59.7289C8.47674 59.3882 8.52062 59.1939 8.44918 59.0243C8.41334 58.9392 8.34739 58.8579 8.24241 58.7666C8.13738 58.6753 7.995 58.5755 7.8082 58.453C7.35607 58.1605 7.042 58.0308 6.45128 57.8843C5.99491 57.7736 5.77108 57.7195 5.55568 57.7195C5.34056 57.7195 5.13314 57.7735 4.70941 57.8841C4.19206 58.0265 3.7813 58.2212 3.42939 58.5075C3.07734 58.7939 2.78276 59.173 2.49945 59.686C2.27891 60.0887 2.06526 60.354 1.80083 60.5452L1.80064 60.5453C1.69765 60.6185 1.61886 60.6828 1.56295 60.74C1.5067 60.7976 1.47566 60.846 1.46472 60.8869C1.45432 60.9258 1.46158 60.9598 1.48746 60.9929C1.51449 61.0275 1.56236 61.0616 1.63406 61.0956C1.7544 61.1519 1.89381 61.2937 2.01838 61.4703C2.14366 61.648 2.25675 61.8651 2.32272 62.0766C2.42688 62.3949 2.60535 62.7004 2.98069 63.1319C3.35647 63.564 3.92838 64.1211 4.81827 64.9427L4.81828 64.9427C7.01973 66.9777 7.365 67.357 7.78205 68.1715L7.78208 68.1715C7.96944 68.5403 8.07292 68.82 8.09676 69.0796C8.12069 69.3402 8.06419 69.578 7.93707 69.8627L7.93705 69.8627C7.82228 70.1184 7.69054 70.3217 7.52105 70.4901C7.35158 70.6585 7.14543 70.791 6.88315 70.9065C6.88313 70.9065 6.8831 70.9065 6.88308 70.9065L6.87218 70.8817M4.87306 69.59C5.29563 69.3366 5.32001 69.2221 5.11685 68.3391L4.87306 69.59ZM6.87218 70.8817C7.39227 70.6528 7.68483 70.3585 7.91237 69.8516L6.87218 70.8817ZM2.41938 70.5571L2.41928 70.5573C2.26461 70.9136 1.97385 71.5252 1.70256 72.0731C1.5669 72.3471 1.436 72.6053 1.32933 72.808C1.22322 73.0095 1.1398 73.1585 1.09956 73.2118C1.02468 73.3109 0.977971 73.4212 0.963508 73.5144C0.948906 73.6084 0.968069 73.6745 1.00953 73.7029C1.00967 73.7029 1.00983 73.7029 1.01002 73.703C1.01209 73.7032 1.0155 73.7032 1.02056 73.7028C1.03069 73.7019 1.04471 73.6992 1.06264 73.6946C1.09834 73.6852 1.14622 73.6688 1.20321 73.6465C1.31699 73.6019 1.46451 73.5349 1.61842 73.4574L1.61856 73.4574C2.20672 73.1656 2.89373 72.5153 3.26513 71.8899L3.26519 71.8898C3.39593 71.6719 3.5206 71.541 3.67884 71.5004C3.83646 71.4599 4.01908 71.5113 4.25955 71.6343C4.43662 71.7234 4.55133 71.7711 4.77161 71.7971C4.99415 71.8235 5.32346 71.8276 5.92948 71.8276C6.5724 71.8235 6.89715 71.8214 7.12653 71.79C7.35365 71.759 7.4865 71.6993 7.74634 71.5768C8.50466 71.2115 9.05323 70.6843 9.5058 69.8632C9.77388 69.3647 9.97984 69.0971 10.2059 68.9621C10.2983 68.9014 10.3664 68.8464 10.4117 68.7942C10.4569 68.7421 10.478 68.6944 10.4797 68.6478C10.4815 68.6011 10.4639 68.551 10.4224 68.4939C10.3808 68.4366 10.3164 68.3739 10.2278 68.303C10.0698 68.1775 9.87224 67.9206 9.78123 67.7208C9.76013 67.6745 9.73632 67.6223 9.71117 67.5671C9.6298 67.3887 9.5345 67.1797 9.47241 67.0422C9.37292 66.8261 9.12816 66.5143 8.67809 66.0462C8.22871 65.5788 7.57708 64.958 6.66699 64.1241C4.76571 62.3912 4.23174 61.7243 3.94498 60.7105L3.94481 60.7099L3.94482 60.7099C3.89202 60.5056 3.86286 60.3702 3.85764 60.2516C3.85238 60.1319 3.87151 60.0305 3.9126 59.8941L3.91278 59.8935L3.91278 59.8935C4.06101 59.4379 4.29268 59.1463 4.68866 58.9139C4.96961 58.7476 5.26013 58.6846 5.5472 58.7244C5.83407 58.7641 6.11524 58.9061 6.37843 59.1461L6.37866 59.1463C6.55109 59.3071 6.59797 59.4965 6.53342 59.6488C6.46907 59.8006 6.29854 59.9044 6.05953 59.9044C6.00508 59.9044 5.96408 59.9128 5.93249 59.9306C5.9015 59.948 5.87689 59.9761 5.8579 60.0208C5.81884 60.1128 5.8062 60.2685 5.81027 60.5227C5.83449 61.4625 6.39078 62.4426 7.14576 62.8789L2.41938 70.5571ZM2.41938 70.5571C2.76133 69.7503 2.98361 68.9815 3.06427 68.4052C3.10456 68.1174 3.10982 67.8756 3.07584 67.7005C3.04224 67.5273 2.9673 67.4078 2.83769 67.3886L2.41938 70.5571ZM4.61894 67.2876C4.83857 67.5752 4.98959 67.9189 5.09051 68.3453L2.53583 67.5047C2.50881 67.5387 2.45685 67.5674 2.37677 67.5873C2.29741 67.607 2.19416 67.6172 2.06941 67.6172C1.88915 67.6172 1.79436 67.6105 1.72489 67.576C1.65665 67.5422 1.60943 67.4796 1.53179 67.3522L1.53154 67.3518C1.41763 67.1717 1.3678 67.056 1.37617 66.9494C1.38452 66.8429 1.4514 66.7387 1.59365 66.5833L1.59407 66.5828L1.82142 66.3225L2.57267 66.3386L2.57291 66.3386C2.89788 66.3427 3.10291 66.355 3.26886 66.3882C3.43393 66.4212 3.56137 66.4751 3.73082 66.5644C4.11009 66.7674 4.39933 67.0001 4.61894 67.2876Z" fill="#A07238" stroke="black" stroke-width="0.0541038"/>
<path d="M39.2847 58.6486L39.2847 58.649C39.3501 59.5286 39.2435 60.1539 38.8524 61.2112L38.8524 61.2112C38.698 61.6282 38.5197 62.1503 38.4632 62.3695L38.463 62.3701C38.4014 62.5893 38.3066 62.7827 38.2075 62.9107C38.1581 62.9745 38.1063 63.0238 38.0555 63.0511C38.0043 63.0786 37.9503 63.0854 37.9027 63.0562L37.8998 63.0544L37.8999 63.0542C37.8856 63.0426 37.8718 63.023 37.8592 63.0006C37.8461 62.9773 37.8326 62.9483 37.8196 62.9153C37.7936 62.8493 37.7687 62.766 37.7522 62.6785M39.2847 58.6486L37.7787 62.6734M39.2847 58.6486C39.2562 58.3248 39.2464 58.146 39.2592 58.038C39.2656 57.9846 39.2772 57.951 39.2931 57.9264C39.3088 57.902 39.3304 57.8841 39.3613 57.8647C39.3986 57.8422 39.444 57.8269 39.487 57.8192C39.5302 57.8115 39.5679 57.812 39.5908 57.8183C39.6027 57.8225 39.6221 57.8256 39.645 57.8282C39.6699 57.8311 39.7022 57.8338 39.7409 57.8363C39.8185 57.8413 39.9227 57.8457 40.0463 57.8492C40.2934 57.8564 40.6188 57.8605 40.9643 57.8605C41.5382 57.8605 41.849 57.8626 42.0167 57.8818C42.1014 57.8915 42.1439 57.9051 42.1654 57.9208C42.1753 57.928 42.1805 57.9355 42.1837 57.944C42.1872 57.9531 42.1888 57.9647 42.1888 57.9806C42.1888 57.9948 42.1824 58.0178 42.1671 58.0494C42.1522 58.0803 42.1302 58.1165 42.1023 58.1561C42.0465 58.2353 41.9685 58.3259 41.8802 58.4107L39.2847 58.6486ZM37.7522 62.6785C37.7522 62.6785 37.7522 62.6785 37.7522 62.6784L37.7787 62.6734M37.7522 62.6785C37.7522 62.6786 37.7522 62.6786 37.7522 62.6787L37.7787 62.6734M37.7522 62.6785C37.72 62.5169 37.6477 62.2908 37.5922 62.179M37.7787 62.6734C37.7462 62.5099 37.6731 62.281 37.6162 62.1665M37.5922 62.179C37.5923 62.1791 37.5924 62.1793 37.5925 62.1795L37.6162 62.1665M37.5922 62.179C37.5219 62.0498 37.4258 61.8027 37.3153 61.4772C37.2044 61.1507 37.0783 60.7436 36.9482 60.2936M37.5922 62.179C37.5921 62.1788 37.5921 62.1787 37.592 62.1786L37.6162 62.1665M37.6162 62.1665L36.9482 60.2936M36.9482 60.2936C36.7363 59.5636 36.6862 58.8058 36.8263 58.3246C36.8436 58.2643 36.8576 58.2125 36.8658 58.1674C36.874 58.1222 36.8759 58.0857 36.8704 58.0556C36.8651 58.0264 36.8526 58.0027 36.8302 57.9825C36.8072 57.9616 36.7724 57.9433 36.7206 57.9278C36.6167 57.8968 36.4528 57.8796 36.2022 57.8706C35.9524 57.8615 35.6193 57.8605 35.1783 57.8605C34.7271 57.8605 34.3879 57.8615 34.1419 57.8722C34.0189 57.8776 33.9198 57.8853 33.842 57.8964C33.7637 57.9076 33.7091 57.922 33.6736 57.9395C33.6386 57.9567 33.6267 57.9746 33.6243 57.9921C33.6215 58.012 33.6294 58.0405 33.655 58.0812C33.7059 58.1622 33.8128 58.2711 33.9621 58.4192L33.9621 58.4193C34.6579 59.1111 34.9359 59.673 35.8376 62.2801C35.8945 62.4355 35.9575 62.6112 36.0133 62.7675C36.0229 62.7944 36.0323 62.8206 36.0414 62.8461C36.0853 62.9691 36.1228 63.074 36.1463 63.1383C36.2034 63.2942 36.3011 63.589 36.3661 63.7934C36.4308 63.9966 36.5359 64.2653 36.5928 64.4042C36.7878 64.8457 36.8908 65.094 36.9441 65.4935C36.9973 65.8912 37.0013 66.4391 37.0013 67.4807C37.0013 68.5641 36.9728 69.3239 36.9015 69.8674C36.8302 70.4105 36.7156 70.7414 36.5405 70.9638C36.4975 71.0188 36.4602 71.086 36.4357 71.149C36.4107 71.2134 36.401 71.2686 36.4075 71.3016C36.4101 71.3144 36.4138 71.324 36.4198 71.3321C36.4257 71.3402 36.435 71.3484 36.451 71.3565C36.4844 71.3733 36.5426 71.3873 36.646 71.3985C36.8517 71.4208 37.2219 71.431 37.8928 71.4433C38.5476 71.4515 38.918 71.4535 39.1309 71.4383C39.2377 71.4306 39.3019 71.4188 39.3417 71.4027C39.3613 71.3949 39.3741 71.3863 39.3831 71.3774C39.3919 71.3688 39.398 71.3589 39.403 71.3467C39.4124 71.3174 39.4099 71.2648 39.394 71.1987C39.3784 71.1338 39.3509 71.0606 39.3155 70.9932C39.3154 70.993 39.3152 70.9927 39.3151 70.9924L36.9482 60.2936Z" fill="#A07238" stroke="black" stroke-width="0.0541038"/>
<path d="M13.52 71.47C14.5033 71.4863 15.0478 71.4618 15.1128 71.4046C15.2022 71.331 15.1697 71.2084 14.9666 70.7669M13.52 71.47L13.5205 71.4429M13.52 71.47L13.5205 71.4429C13.5205 71.4429 13.5205 71.4429 13.5205 71.4429M13.52 71.47C12.1142 71.4455 12.0248 71.4373 12.0004 71.2901C11.976 71.2002 12.0166 71.0939 12.0735 71.0449M13.5205 71.4429C14.012 71.4511 14.3933 71.4491 14.6597 71.4378C14.7929 71.4322 14.8969 71.4244 14.9712 71.4144C15.0085 71.4095 15.0376 71.4041 15.0591 71.3983C15.0819 71.3923 15.092 71.3869 15.095 71.3843L15.0956 71.3837L15.0956 71.3837C15.114 71.3686 15.125 71.3521 15.1298 71.3302C15.1349 71.3071 15.1338 71.2756 15.1231 71.2299C15.1015 71.138 15.0439 70.9996 14.9421 70.7783L14.9421 70.7785L14.9666 70.7669M13.5205 71.4429C12.8167 71.4307 12.4447 71.4225 12.2453 71.3992C12.1448 71.3874 12.0931 71.3723 12.0651 71.3541C12.0519 71.3456 12.0442 71.3366 12.039 71.3265C12.0334 71.316 12.0299 71.3031 12.0271 71.2857L12.0272 71.2857L12.0265 71.283C12.016 71.2442 12.0192 71.2006 12.0322 71.1605C12.0451 71.1205 12.0669 71.0865 12.0907 71.0658M14.9666 70.7669L14.942 70.7782M14.9666 70.7669L14.7065 70.2191V68.723C14.7065 67.3577 14.7228 67.2105 14.8528 67.1124L14.942 70.7782M14.942 70.7782L14.6821 70.2307L14.6766 70.2191H14.6795V68.723C14.6795 68.0409 14.6835 67.6613 14.704 67.44C14.7142 67.3294 14.7287 67.256 14.75 67.2033C14.7719 67.1491 14.8007 67.1178 14.8365 67.0908L14.8368 67.0906C15.0003 66.9705 15.1987 67.0029 15.3879 67.1417C15.5767 67.2802 15.762 67.5279 15.9095 67.8533L14.942 70.7782ZM13.967 57.9557C14.0076 57.8494 14.3896 57.8331 16.4862 57.8331C17.8515 57.8331 18.9811 57.8658 19.0054 57.9067C19.0298 57.9475 18.9973 58.1356 18.9242 58.3318C18.7941 58.7079 18.8185 59.4191 18.9811 60.3675L13.8532 61.4712C14.0889 59.3374 14.1214 58.6915 14.0158 58.3645C13.9589 58.201 13.9426 58.0211 13.967 57.9557ZM13.967 57.9557L13.9923 57.9652C13.9877 57.9775 13.9843 57.9977 13.9834 58.0251C13.9824 58.0521 13.9838 58.0845 13.9878 58.1203C13.9957 58.192 14.0136 58.2758 14.0413 58.3556L14.0415 58.3562L14.0415 58.3562C14.096 58.5248 14.1139 58.7725 14.0895 59.2417C14.0651 59.7117 13.9979 60.4073 13.8801 61.4741M13.967 57.9557L13.9923 57.9654C13.9969 57.9532 14.0145 57.9346 14.0888 57.9181C14.1606 57.9022 14.2757 57.8902 14.4569 57.8816C14.8187 57.8642 15.4377 57.8601 16.4862 57.8601C17.1687 57.8601 17.7921 57.8683 18.2479 57.8816C18.4758 57.8882 18.6615 57.8961 18.7917 57.9049C18.8568 57.9093 18.9076 57.9139 18.9426 57.9186C18.9602 57.9209 18.9731 57.9232 18.9816 57.9253C18.9825 57.9256 18.9833 57.9258 18.984 57.926C18.9844 57.9276 18.9848 57.9297 18.9851 57.9323C18.9862 57.9398 18.9866 57.9497 18.9863 57.962C18.9856 57.9865 18.9817 58.0185 18.9748 58.056C18.9609 58.131 18.9349 58.2255 18.8988 58.3223L18.8986 58.3229C18.832 58.5156 18.8057 58.7913 18.8159 59.1358C18.8261 59.4809 18.873 59.8971 18.9544 60.3721L18.9544 60.3721L18.9545 60.3728C19.0029 60.6163 19.0841 61.3913 19.1492 62.0869C19.2142 62.7819 19.3198 63.8286 19.3849 64.4174L19.3849 64.4174C19.4499 64.9978 19.5799 66.2485 19.6774 67.1968C19.8968 69.3797 20.1816 70.3446 20.8464 71.0713C20.8886 71.1176 20.9214 71.1738 20.9406 71.2259C20.9601 71.2791 20.9635 71.3221 20.955 71.3455C20.9468 71.3644 20.93 71.3826 20.882 71.3986C20.8323 71.4151 20.7534 71.4277 20.6267 71.4369C20.374 71.4552 19.9404 71.4593 19.1923 71.4593C18.6114 71.4593 18.1711 71.4511 17.8691 71.4358C17.718 71.4282 17.602 71.4188 17.5206 71.4078C17.4798 71.4023 17.4484 71.3965 17.4258 71.3905C17.4145 71.3876 17.4059 71.3847 17.3998 71.382C17.3984 71.3814 17.3972 71.3809 17.3961 71.3803C17.3949 71.3797 17.3939 71.3791 17.3931 71.3786C17.3915 71.3777 17.3911 71.3772 17.3912 71.3773C17.37 71.356 17.3597 71.3108 17.385 71.2098C17.4098 71.1114 17.4657 70.9703 17.559 70.7701L17.5591 70.77C17.6771 70.5122 17.7414 70.3601 17.7786 70.1304C17.8156 69.9023 17.8257 69.5977 17.8379 69.0343M13.8801 61.4741L17.8379 69.0343C17.8379 69.0343 17.8379 69.0343 17.8379 69.0343M13.8801 61.4741C13.8703 61.5664 13.8599 61.6629 13.8493 61.7623C13.7722 62.4824 13.6792 63.3514 13.6364 63.8038C13.5876 64.319 13.5144 64.9979 13.4737 65.3172L13.4736 65.3179L13.4736 65.3179C13.425 65.6275 13.3601 66.3131 13.3113 66.8287C13.2503 67.5363 13.173 68.1686 13.0855 68.6866C12.9981 69.204 12.9002 69.6091 12.7975 69.8613C12.6995 70.1079 12.5689 70.3727 12.4402 70.5935C12.3759 70.7039 12.3119 70.8036 12.2525 70.8847C12.1937 70.965 12.1383 71.0286 12.0907 71.0658M13.8801 61.4741L12.0735 71.0449M17.8379 69.0343C17.8541 68.376 17.8461 67.9084 17.8082 67.5895C17.7893 67.4301 17.7628 67.3065 17.7275 67.2144C17.6924 67.1226 17.6474 67.0591 17.5895 67.024C17.5896 67.0241 17.5897 67.0242 17.5899 67.0243L17.8379 69.0343ZM12.0907 71.0658C12.0905 71.0659 12.0903 71.0661 12.0901 71.0662L12.0735 71.0449M12.0907 71.0658C12.0909 71.0656 12.091 71.0655 12.0912 71.0653L12.0735 71.0449M16.7534 58.9803L16.7533 58.9803C16.7687 59.0064 16.7841 59.0526 16.8 59.1126C16.8161 59.1737 16.8332 59.252 16.851 59.3445C16.8867 59.5296 16.9254 59.7729 16.964 60.0511C17.0413 60.6075 17.1186 61.305 17.1714 61.9596L17.1714 61.9596C17.1958 62.2696 17.2688 62.9149 17.3338 63.3888C17.3338 63.3888 17.3338 63.3888 17.3338 63.3888L17.307 63.3925C17.5914 65.4364 17.5914 66.0087 17.3232 66.0087C17.1201 66.0087 16.9332 65.7062 16.6569 64.905L16.7534 58.9803ZM16.7534 58.9803L16.7523 58.9787C16.7055 58.9102 16.6531 58.8613 16.5813 58.8302C16.5103 58.7994 16.4227 58.7871 16.3074 58.7871C16.2245 58.7871 16.1356 58.7954 16.0599 58.809C16.022 58.8158 15.9871 58.8239 15.9576 58.8332C15.9291 58.8421 15.9038 58.8527 15.8861 58.8652C15.8624 58.8801 15.8415 58.9065 15.8225 58.9396C15.8029 58.9737 15.7838 59.0177 15.765 59.0705C15.7275 59.1762 15.6903 59.3202 15.6542 59.4975C15.5818 59.8524 15.5126 60.3439 15.4516 60.937L15.4516 60.9373C15.4029 61.452 15.2891 62.4654 15.2079 63.1849C15.0576 64.3986 14.9803 65.0328 14.9508 65.381C14.936 65.5548 14.933 65.659 14.9392 65.729C14.9455 65.8004 14.9615 65.8369 14.9834 65.8744C15.0055 65.9186 15.0384 65.9581 15.0747 65.987C15.1108 66.0156 15.1532 66.0357 15.1941 66.0357C15.2443 66.0357 15.2977 66.0073 15.3487 65.9652C15.4006 65.9223 15.4539 65.8621 15.5046 65.7914C15.6058 65.65 15.6987 65.4633 15.7484 65.2801C15.7968 65.1096 15.8855 64.8664 15.9496 64.7375C15.9827 64.6749 16.0137 64.6021 16.0364 64.5356C16.0589 64.4699 16.0744 64.407 16.0744 64.3654C16.0744 64.337 16.0859 64.3013 16.1065 64.2631C16.1268 64.2255 16.1548 64.1878 16.1848 64.1561C16.2151 64.1242 16.2461 64.0998 16.2718 64.0873C16.2983 64.0745 16.3086 64.0785 16.3121 64.0815C16.3124 64.0819 16.3131 64.083 16.3144 64.0851C16.3164 64.0886 16.319 64.0935 16.3222 64.0999C16.3285 64.1128 16.3366 64.1308 16.3463 64.1534C16.3657 64.1986 16.3909 64.2613 16.4204 64.3373C16.4791 64.4893 16.5542 64.6934 16.6313 64.9139L16.7534 58.9803Z" fill="#A07238" stroke="black" stroke-width="0.0541038"/>
<path d="M22.5171 58.3367L22.5171 58.3367C22.7534 58.8367 22.8919 59.1976 23.144 59.9585L23.1441 59.9586C23.213 60.1708 23.2902 60.4037 23.3583 60.6092C23.4263 60.8146 23.4853 60.9925 23.5178 61.0947C23.5553 61.1998 23.5921 61.386 23.6226 61.6004C23.6531 61.8157 23.6776 62.0617 23.6898 62.2873M22.5171 58.3367L25.294 60.0358L25.5356 60.2632L25.4483 60.8541C25.4483 60.8541 25.4483 60.8541 25.4483 60.8542C25.2816 61.9664 25.1479 62.6606 24.9743 63.1277C24.8015 63.5924 24.5899 63.8307 24.2662 64.0318L24.2658 64.032C24.1337 64.1166 24.0354 64.1639 23.8846 64.1906C23.732 64.2178 23.5251 64.224 23.1752 64.224C22.7835 64.224 22.5863 64.2217 22.4621 64.193C22.4015 64.1789 22.3593 64.1587 22.3208 64.1294C22.2814 64.0995 22.245 64.0598 22.1961 64.0043C22.0728 63.8602 22.016 63.7275 22.0189 63.5955C22.0217 63.4631 22.0847 63.3258 22.2126 63.1729C22.3432 63.0176 22.487 62.9389 22.6421 62.9321C22.798 62.9253 22.9706 62.9911 23.1587 63.136L23.1588 63.1361C23.2178 63.1812 23.2664 63.2165 23.3077 63.2426C23.3489 63.2686 23.3843 63.2864 23.4172 63.2951C23.4508 63.304 23.4814 63.3033 23.5117 63.2932C23.5412 63.2834 23.569 63.2653 23.5983 63.2421L23.5983 63.2421L23.5991 63.2415C23.6595 63.19 23.6915 63.1205 23.704 62.9811C23.7164 62.8428 23.7101 62.6303 23.6898 62.2873M22.5171 58.3367L22.5168 58.3362M22.5171 58.3367L22.5168 58.3362M23.6898 62.2873C23.6898 62.2873 23.6898 62.2873 23.6898 62.2873L23.6628 62.2889L23.6898 62.2874C23.6898 62.2874 23.6898 62.2873 23.6898 62.2873ZM22.5168 58.3362C22.4813 58.2647 22.4557 58.1873 22.4419 58.12M22.5168 58.3362L22.4419 58.12M25.459 59.1604L25.4591 59.1602C25.6078 59.0522 25.7619 58.9826 25.8931 58.9603C26.0228 58.9382 26.1392 58.9615 26.1968 59.0533L26.1983 59.0556L26.1981 59.0556C26.2002 59.0599 26.2012 59.0643 26.2016 59.0663C26.2021 59.0691 26.2026 59.0723 26.203 59.0757C26.2039 59.0824 26.2047 59.0912 26.2055 59.1018C26.207 59.123 26.2085 59.1529 26.21 59.1906C26.213 59.2662 26.2159 59.3746 26.2187 59.5121C26.2243 59.787 26.2294 60.1788 26.2335 60.6586C26.2416 61.6184 26.2457 62.9306 26.2416 64.3656C26.2335 67.108 26.2254 68.5765 26.1745 69.4431C26.1491 69.8765 26.1129 70.1606 26.0603 70.379C26.0075 70.5979 25.9384 70.7498 25.8484 70.9185C25.8119 70.989 25.7811 71.0501 25.758 71.1036C25.7349 71.1572 25.7203 71.2015 25.7153 71.2383C25.7103 71.2747 25.7149 71.3019 25.728 71.3235C25.7413 71.3454 25.7656 71.3654 25.8074 71.3827C25.8923 71.418 26.0378 71.4377 26.2679 71.448C26.4969 71.4583 26.8056 71.4594 27.2141 71.4594C27.6083 71.4594 27.91 71.4573 28.1371 71.4479C28.365 71.4384 28.5152 71.4216 28.608 71.3931C28.6543 71.3789 28.6836 71.3626 28.7011 71.3451C28.7178 71.3285 28.7251 71.3098 28.7252 71.2863C28.7254 71.2615 28.7173 71.2307 28.7005 71.192C28.6839 71.1537 28.6596 71.1097 28.6293 71.0588L28.6291 71.0586C28.5466 70.9175 28.4078 70.5968 28.3262 70.3505C28.2516 70.1338 28.213 69.9339 28.1927 69.153C28.1724 68.3718 28.1704 67.006 28.1704 64.4554V59.0186V58.994L28.1949 58.9917L28.4549 58.9672L28.4551 58.9671C28.5524 58.9586 28.6381 58.9693 28.728 59.007C28.8171 59.0443 28.909 59.1077 29.0195 59.2025L29.0199 59.2028L29.0199 59.2028C29.1097 59.2829 29.1789 59.3523 29.2267 59.4168C29.2746 59.4814 29.3023 59.5428 29.3063 59.6066C29.3103 59.6705 29.2903 59.733 29.2502 59.7992C29.2104 59.8651 29.1497 59.9364 29.0701 60.0185L29.0507 59.9997M25.459 59.1604L31.2042 60.2041L31.1777 60.1985C31.1777 60.1986 31.1777 60.1986 31.1777 60.1987C31.1617 60.2753 31.1396 60.3559 31.1167 60.4221C31.1052 60.4552 31.0936 60.4844 31.0827 60.5075C31.0713 60.5313 31.0617 60.5461 31.055 60.5529L31.0548 60.5527L31.0525 60.5558C31.0444 60.5667 31.0365 60.5825 31.0287 60.6008C31.0208 60.6196 31.0123 60.6427 31.0034 60.6695C30.9856 60.7231 30.9657 60.7924 30.9447 60.8725C30.9026 61.0328 30.8558 61.2376 30.812 61.4495C30.7248 61.8719 30.6489 62.3265 30.6489 62.5096C30.6489 62.8266 30.7243 63.0613 30.8468 63.1724C30.9092 63.2291 30.9841 63.2535 31.0649 63.2387C31.1444 63.2241 31.2261 63.172 31.3056 63.0836L31.3062 63.083C31.3887 62.9849 31.5422 62.9291 31.7081 62.9291C31.9759 62.9291 32.1867 63.0988 32.2878 63.3239C32.3889 63.5491 32.3785 63.8261 32.2072 64.0377C32.1709 64.0823 32.1414 64.1145 32.1057 64.139C32.0704 64.1633 32.0273 64.181 31.9629 64.1938C31.832 64.2197 31.6199 64.224 31.2205 64.224C30.817 64.224 30.6049 64.2218 30.4518 64.1908C30.3013 64.1603 30.2077 64.102 30.0416 63.9837L30.0413 63.9835C29.7706 63.7953 29.5826 63.5572 29.4145 63.0801C29.2457 62.6013 29.0977 61.8841 28.9067 60.7392L28.9067 60.7391C28.8864 60.6204 28.8718 60.5314 28.8651 60.4605C28.8583 60.3896 28.8596 60.3385 28.8698 60.2951C28.8901 60.2087 28.9467 60.1468 29.0702 60.0184L29.0507 59.9997M25.459 59.1604C25.3367 59.2506 25.2422 59.3284 25.1751 59.3997M25.459 59.1604L25.1751 59.3997M29.0507 59.9997C29.3676 59.6727 29.3595 59.5419 29.0019 59.223L29.0507 59.9997ZM22.4419 58.12C22.435 58.0864 22.4312 58.0558 22.4305 58.0302M22.4419 58.12L22.4305 58.0302M22.4305 58.0302C22.4298 58.0045 22.4323 57.9857 22.4364 57.9741M22.4305 58.0302L22.4364 57.9741M22.4364 57.9741C22.4389 57.9688 22.4456 57.9601 22.4687 57.9504C22.4928 57.9404 22.5312 57.9307 22.5913 57.922C22.7114 57.9046 22.9113 57.8919 23.242 57.8827C23.9028 57.8643 25.0807 57.8602 27.1735 57.8602C27.6 57.8602 27.9903 57.8597 28.3471 57.8593C29.1222 57.8584 29.7397 57.8577 30.2292 57.8622C30.9447 57.8689 31.3845 57.8868 31.6435 57.9314C31.7735 57.9537 31.8539 57.9821 31.9007 58.0163C31.9235 58.033 31.9378 58.0507 31.9463 58.0694C31.9547 58.0881 31.9581 58.1096 31.9565 58.135C31.9532 58.187 31.9296 58.2511 31.8933 58.3323C31.8804 58.3611 31.8658 58.3921 31.8504 58.4252C31.8234 58.4829 31.7935 58.5468 31.7644 58.6156L22.4364 57.9741ZM25.1751 59.3997C25.1081 59.4709 25.0664 59.5377 25.0533 59.6063M25.1751 59.3997L25.0533 59.6063M25.0533 59.6063C25.0401 59.6759 25.0571 59.7429 25.0987 59.8123M25.0533 59.6063L25.0987 59.8123M25.0987 59.8123C25.1399 59.881 25.2062 59.9536 25.294 60.0357L25.0987 59.8123Z" fill="#A07238" stroke="black" stroke-width="0.0541038"/>
<path d="M47.2795 71.3515L47.2799 71.3517C47.2924 71.3263 47.2952 71.2881 47.2867 71.2465C47.2783 71.2053 47.2598 71.1648 47.2349 71.1362L47.2339 71.135L47.2339 71.135C47.2032 71.0953 47.1532 70.9982 47.0976 70.8762C47.0415 70.753 46.9783 70.6012 46.9212 70.4494L46.9211 70.4491C46.8271 70.1901 46.7756 70.0242 46.7438 69.6748C46.7122 69.3271 46.7 68.7966 46.6838 67.8078L46.6838 67.8077C46.6757 67.213 46.6706 66.7589 46.675 66.4128C46.6795 66.0671 46.6934 65.8274 46.7239 65.6624C46.7542 65.4981 46.8019 65.4012 46.8799 65.3497C46.9567 65.2989 47.0565 65.297 47.1754 65.3031L47.1755 65.3031C47.3326 65.3116 47.4806 65.3798 47.5895 65.4798C47.6983 65.5797 47.77 65.7132 47.77 65.8533C47.77 65.8587 47.7716 65.8701 47.7758 65.8889C47.78 65.907 47.7861 65.9301 47.7942 65.9578C47.8103 66.013 47.8338 66.0854 47.8629 66.1705C47.921 66.3406 48.0014 66.5608 48.0902 66.7952C48.2678 67.2639 48.4788 67.7882 48.6125 68.0818C48.678 68.2136 48.8649 68.6225 49.0271 68.9816M47.2795 71.3515L51.5136 70.7097C51.4811 70.5707 51.4323 70.4235 51.3998 70.3826C51.1073 69.9902 49.9371 65.8125 49.9371 65.1421C49.9371 65.093 50.1077 64.9295 50.3271 64.7823M47.2795 71.3515L47.2782 71.3558C47.2736 71.371 47.2612 71.3873 47.2189 71.4022C47.1757 71.4174 47.1066 71.4293 46.9972 71.4379C46.7791 71.4552 46.4105 71.4593 45.7925 71.4593L45.7341 71.4593C45.3404 71.4593 45.0432 71.4593 44.8228 71.4499C44.7073 71.4449 44.6136 71.4373 44.5387 71.426C44.4635 71.4145 44.4088 71.3995 44.3703 71.3804C44.3323 71.3615 44.3116 71.3395 44.3014 71.3141C44.2908 71.288 44.2896 71.2543 44.2991 71.2091C44.3179 71.1192 44.3754 70.9979 44.4547 70.8302L44.4597 70.8197C44.4597 70.8196 44.4598 70.8196 44.4598 70.8195C44.6326 70.4676 44.7285 70.1182 44.7814 69.2622C44.8343 68.4068 44.8444 67.0426 44.8444 64.6597C44.8444 62.3585 44.8322 60.9944 44.7844 60.1299C44.7367 59.2657 44.6532 58.8976 44.5088 58.5903C44.4687 58.5016 44.4306 58.3967 44.4025 58.2988C44.3742 58.2002 44.3568 58.1112 44.3568 58.0538V57.8601H46.3939C47.5316 57.8601 48.7488 57.901 49.0967 57.9417M47.2795 71.3515L49.1 57.9148M49.0271 68.9816C49.0272 68.9816 49.0272 68.9816 49.0272 68.9816L49.0025 68.9928L49.0271 68.9815C49.0271 68.9816 49.0271 68.9816 49.0271 68.9816ZM49.0271 68.9816C50.0756 71.2792 50.675 72.28 51.41 72.9544L51.4101 72.9544C51.7011 73.2228 52.0365 73.4606 52.3168 73.6127C52.4571 73.6889 52.5825 73.743 52.6808 73.769C52.7301 73.7821 52.7713 73.7877 52.8035 73.7863C52.836 73.7848 52.8561 73.7763 52.8678 73.7646C52.8826 73.7497 52.892 73.7331 52.896 73.7119C52.9001 73.69 52.8988 73.6618 52.8892 73.6237C52.8699 73.5469 52.8188 73.4373 52.7254 73.2739L52.7251 73.2735C52.4892 72.8437 52.1944 72.2649 51.9515 71.7638C51.83 71.5133 51.7214 71.2821 51.6396 71.0985C51.5583 70.9161 51.5022 70.7782 51.4873 70.716L51.4873 70.7158C51.4712 70.6471 51.4511 70.5764 51.4311 70.5181C51.4211 70.489 51.4113 70.4632 51.402 70.4424C51.3926 70.4211 51.3846 70.4069 51.3787 70.3995L51.3781 70.3988L51.3782 70.3988C51.339 70.3463 51.2876 70.2347 51.2278 70.0821C51.1676 69.9284 51.0977 69.7299 51.0222 69.501C50.8712 69.0432 50.6973 68.4628 50.5327 67.8739C50.3681 67.285 50.2125 66.6872 50.0981 66.1947C50.0409 65.9484 49.994 65.7282 49.9613 65.5485C49.9287 65.3693 49.91 65.2286 49.91 65.1421C49.91 65.1291 49.9153 65.1164 49.921 65.1057C49.9271 65.0944 49.9357 65.082 49.946 65.0691C49.9665 65.0431 49.9958 65.0124 50.0314 64.9792C50.1025 64.9128 50.201 64.8344 50.3116 64.7602M50.3116 64.7602C50.3114 64.7603 50.3113 64.7604 50.3111 64.7605L50.3271 64.7823M50.3116 64.7602C50.3117 64.7601 50.3119 64.76 50.3121 64.7599L50.3271 64.7823M50.3116 64.7602C50.523 64.6047 50.7644 64.4102 50.8516 64.3145L50.8519 64.3142C51.0615 64.0911 51.3144 63.7412 51.515 63.4171C51.6152 63.2551 51.7021 63.1002 51.7637 62.9713C51.7946 62.9068 51.8189 62.8492 51.8355 62.8008C51.8523 62.7519 51.8604 62.7144 51.8604 62.6894C51.8604 62.6068 51.8876 62.4985 51.9311 62.3812C51.9749 62.2633 52.0359 62.134 52.1056 62.0089C52.1752 61.8838 52.2536 61.7623 52.3322 61.66C52.4106 61.5581 52.4904 61.4737 52.563 61.4243L52.5635 61.424C52.6542 61.3652 52.7199 61.3136 52.7622 61.2662C52.8044 61.2189 52.8209 61.1785 52.8193 61.1413C52.8177 61.1037 52.7973 61.0627 52.7508 61.0149C52.7043 60.9672 52.6344 60.9154 52.5395 60.8565L52.5387 60.856L52.5387 60.856C52.3132 60.7047 52.1481 60.4786 51.904 60.0038L51.9039 60.0035C51.3144 58.8256 50.3386 58.104 49.0967 57.9417M50.3271 64.7823C50.5384 64.627 50.7822 64.4308 50.8716 64.3327C51.2942 63.883 51.8874 62.9265 51.8874 62.6894C51.8874 62.3787 52.3019 61.6347 52.5782 61.4467C52.9439 61.2096 52.9358 61.0706 52.5538 60.8335C52.3344 60.6864 52.1719 60.4656 51.9281 59.9914C51.3348 58.806 50.3515 58.0783 49.1 57.9148M49.0967 57.9417C49.0968 57.9417 49.0968 57.9417 49.0969 57.9417L49.1 57.9148M49.0967 57.9417C49.0967 57.9417 49.0966 57.9417 49.0965 57.9416L49.1 57.9148M48.6285 58.9109L48.6285 58.9109L48.6278 58.9107C48.3892 58.8445 47.9153 58.7871 47.5723 58.7871C47.5299 58.7871 47.4894 58.7868 47.4507 58.7865C47.3833 58.786 47.3215 58.7856 47.2653 58.7868C47.1767 58.7887 47.0994 58.7946 47.0329 58.8116C46.9659 58.8286 46.9091 58.8571 46.8621 58.9041C46.8154 58.9509 46.7801 59.0145 46.7531 59.0992C46.6995 59.2674 46.6764 59.5259 46.6664 59.9206C46.6584 60.2376 46.6587 60.6447 46.6592 61.1671C46.6593 61.2967 46.6594 61.4334 46.6594 61.5775C46.6594 62.3257 46.6675 62.9412 46.6818 63.3821C46.6889 63.6025 46.6975 63.7795 46.7075 63.9077C46.7125 63.9718 46.7178 64.024 46.7235 64.0635C46.7263 64.0833 46.7293 64.1002 46.7324 64.114C46.7354 64.1273 46.739 64.1394 46.7435 64.1485L46.7434 64.1485L46.7444 64.1501C46.7658 64.1868 46.7898 64.2178 46.8268 64.242C46.8635 64.266 46.9107 64.2819 46.9766 64.2929C47.1073 64.3149 47.3212 64.3189 47.6942 64.3189C48.1571 64.3189 48.6551 64.2944 48.796 64.2694L48.796 64.2694L48.7965 64.2693C49.012 64.2268 49.2525 64.0563 49.4573 63.8318C49.6626 63.6066 49.8357 63.323 49.9143 63.0484L49.9143 63.0484C50.0008 62.7461 50.0454 62.1828 50.0474 61.6246C50.0494 61.0665 50.0089 60.5071 49.9224 60.2127L49.9223 60.2125C49.7491 59.6398 49.1979 59.0853 48.6285 58.9109Z" fill="#A07238" stroke="black" stroke-width="0.0541038"/>
</svg>
