<svg width="79" height="62" viewBox="0 0 79 62" fill="none" xmlns="http://www.w3.org/2000/svg">
<path d="M3.46594 46.5873L3.3046 46.5727C2.39031 46.4759 1.52981 46.4104 1.52981 45.7071C1.52981 44.8414 2.76678 44.6791 3.46594 44.6791C4.27925 44.6851 5.08339 44.8524 5.83233 45.1714L5.93989 45.2256L6.42393 44.0894L6.31636 44.0504C5.41459 43.6647 4.44582 43.4624 3.46594 43.4553C1.52981 43.4553 0.239052 44.375 0.239052 45.6735C0.239052 47.3508 1.90628 47.5672 3.25082 47.6754H3.35838C4.54157 47.7836 5.3483 47.941 5.3483 48.7033C5.3483 49.2985 4.54157 49.6772 3.3046 49.6772C2.3923 49.6859 1.49037 49.4822 0.669304 49.0821L0.561741 49.0366L0.0239258 50.1728L0.131489 50.2269C1.11434 50.7294 2.20209 50.9891 3.3046 50.9844C5.24073 50.9844 6.63905 50.0646 6.63905 48.712C6.63905 46.8184 4.59536 46.602 3.41216 46.4937M15.6743 46.1513C15.6743 46.4957 15.5384 46.8259 15.2963 47.0694C15.0542 47.313 14.7259 47.4498 14.3836 47.4498H12.3937V44.856H14.3836C14.7308 44.87 15.0591 45.0187 15.2997 45.2708C15.5404 45.523 15.6746 45.8591 15.6743 46.2086M14.3836 43.6116H11.8559C11.6847 43.6116 11.5205 43.68 11.3995 43.8018C11.2785 43.9236 11.2105 44.0887 11.2105 44.2609V50.9157H12.4475V48.8056H14.4374C14.7738 48.8128 15.1083 48.7524 15.4212 48.6278C15.7341 48.5032 16.0192 48.3171 16.2596 48.0802C16.5001 47.8434 16.6911 47.5606 16.8215 47.2485C16.9518 46.9364 17.019 46.6013 17.0189 46.2627C17.0189 45.574 16.7469 44.9134 16.2628 44.4264C15.7787 43.9393 15.122 43.6657 14.4374 43.6657M20.8912 44.2609V50.2664C20.8912 50.4386 20.9592 50.6037 21.0802 50.7255C21.2012 50.8473 21.3654 50.9157 21.5365 50.9157H26.4844V49.6713H22.1281V47.8858H26.2155V46.6415H22.1281V44.856H26.4844V43.6116H21.5365C21.3654 43.6116 21.2012 43.68 21.0802 43.8018C20.9592 43.9236 20.8912 44.0887 20.8912 44.2609ZM35.95 48.7515C35.7283 49.0746 35.4306 49.3376 35.0834 49.517C34.7362 49.6963 34.3503 49.7865 33.9601 49.7795C33.299 49.7653 32.6698 49.4912 32.2074 49.0158C31.7449 48.5405 31.486 47.9017 31.4861 47.2366C31.4861 46.5765 31.7468 45.9435 32.2107 45.4768C32.6747 45.01 33.3039 44.7478 33.9601 44.7478C34.3222 44.7497 34.6794 44.8333 35.0052 44.9925C35.331 45.1516 35.6171 45.3823 35.8424 45.6676L35.8962 45.7217L36.8105 44.9101L36.7567 44.8355C36.2612 44.2639 35.6044 43.8577 34.8737 43.671C34.143 43.4843 33.3731 43.5259 32.6665 43.7902C31.9599 44.0546 31.3501 44.5292 30.9182 45.1508C30.4864 45.7725 30.253 46.5117 30.2491 47.2701C30.249 48.2653 30.6383 49.2205 31.3327 49.9292C32.0271 50.6379 32.971 51.0432 33.9601 51.0574C34.5468 51.0707 35.1278 50.9396 35.6527 50.6756C36.1776 50.4116 36.6304 50.0226 36.9718 49.5425L37.0256 49.4646L36.0575 48.7071L35.95 48.7515ZM40.3063 44.856H42.7802V50.9157H44.0172V44.856H46.4912V43.6116H40.3063V44.856ZM55.15 46.1004C55.1502 46.2543 55.1193 46.4066 55.0592 46.5481C54.9991 46.6896 54.911 46.8173 54.8004 46.9236C54.6898 47.0298 54.5588 47.1123 54.4155 47.1661C54.2722 47.22 54.1196 47.2439 53.9668 47.2366H51.6542V44.856H53.9668C54.1268 44.8559 54.2852 44.8883 54.4324 44.9515C54.5795 45.0147 54.7124 45.1072 54.823 45.2236C54.9336 45.3399 55.0196 45.4776 55.0758 45.6283C55.132 45.779 55.1573 45.9396 55.15 46.1004ZM56.387 46.1004C56.3941 45.7762 56.3368 45.4537 56.2184 45.1521C56.1 44.8504 55.9229 44.5756 55.6974 44.3438C55.472 44.1119 55.2027 43.9277 54.9055 43.802C54.6084 43.6763 54.2892 43.6116 53.9668 43.6116H51.1164C50.9452 43.6116 50.7811 43.68 50.66 43.8018C50.539 43.9236 50.471 44.0887 50.471 44.2609V50.9157H51.708V48.4269H53.3752L55.0962 50.9157H56.5483L54.7197 48.3187C55.198 48.1788 55.6187 47.8874 55.9191 47.4877C56.2195 47.088 56.3836 46.6015 56.387 46.1004ZM65.9063 47.7776C65.9063 48.2942 65.7023 48.7896 65.3392 49.1549C64.9761 49.5202 64.4837 49.7254 63.9702 49.7254C63.4567 49.7254 62.9642 49.5202 62.6011 49.1549C62.238 48.7896 62.034 48.2942 62.034 47.7776V43.6116H60.797V47.7776C60.797 48.6242 61.1314 49.4362 61.7264 50.0348C62.3215 50.6334 63.1286 50.9698 63.9702 50.9698C64.8117 50.9698 65.6188 50.6334 66.2139 50.0348C66.809 49.4362 67.1433 48.6242 67.1433 47.7776V43.6116H65.9063V47.7776ZM78.1147 43.5034C78.0163 43.5072 77.9201 43.5335 77.8334 43.5804C77.7468 43.6273 77.6719 43.6935 77.6145 43.7739L75.1944 47.2366L72.7742 43.7739C72.7121 43.7041 72.6358 43.6486 72.5504 43.6112C72.4649 43.5739 72.3725 43.5556 72.2794 43.5575C72.1082 43.5575 71.9441 43.6259 71.8231 43.7477C71.702 43.8695 71.634 44.0346 71.634 44.2068V50.9157H72.871V45.884L75.1836 49.2384L77.4962 45.884V50.8616H78.7332V44.1527C78.7332 43.9805 78.6652 43.8153 78.5442 43.6936C78.4231 43.5718 78.259 43.5034 78.0878 43.5034M19.1701 57.1917H20.8374V61.0872H21.6979V57.1917H23.3651V56.3801H19.1701V57.1917ZM29.0122 58.7066C29.0122 59.1514 28.8365 59.578 28.5238 59.8926C28.2112 60.2071 27.7871 60.3838 27.3449 60.3838C26.9028 60.3838 26.4787 60.2071 26.166 59.8926C25.8534 59.578 25.6777 59.1514 25.6777 58.7066C25.6707 58.498 25.7051 58.29 25.779 58.0949C25.8529 57.8998 25.9647 57.7215 26.108 57.5704C26.4301 57.2499 26.865 57.0702 27.318 57.0702C27.7711 57.0702 28.206 57.2499 28.5281 57.5704C28.6753 57.7197 28.7911 57.8972 28.8687 58.0924C28.9463 58.2876 28.9841 58.4964 28.9799 58.7066H29.0122ZM27.3449 56.2719C27.0182 56.2573 26.6919 56.3095 26.3857 56.4253C26.0796 56.5411 25.7999 56.7181 25.5637 56.9456C25.3274 57.1732 25.1395 57.4465 25.0112 57.7492C24.8829 58.0519 24.8169 58.3776 24.8172 58.7066C24.7957 59.2136 24.9255 59.7155 25.1899 60.1476C25.4543 60.5798 25.8412 60.9225 26.3008 61.1316C26.7603 61.3408 27.2716 61.4069 27.7688 61.3213C28.266 61.2357 28.7264 61.0025 29.0908 60.6516C29.4551 60.3006 29.7068 59.8481 29.8133 59.3521C29.9199 58.8561 29.8765 58.3393 29.6888 57.8684C29.501 57.3974 29.1775 56.9937 28.7598 56.7092C28.3421 56.4247 27.8494 56.2724 27.3449 56.2719ZM34.1752 60.2756H32.4542V59.1394H34.1752C34.3232 59.1388 34.4661 59.194 34.5756 59.2942C34.6851 59.3944 34.7533 59.5322 34.7668 59.6805C34.7668 59.8383 34.7045 59.9897 34.5935 60.1013C34.4826 60.2129 34.3321 60.2756 34.1752 60.2756ZM32.4542 57.1917H34.0138C34.1024 57.1639 34.1962 57.1574 34.2878 57.1728C34.3793 57.1882 34.4659 57.225 34.5407 57.2803C34.6154 57.3356 34.6762 57.4078 34.7181 57.4911C34.76 57.5744 34.7818 57.6665 34.7818 57.7598C34.7818 57.8531 34.76 57.9452 34.7181 58.0285C34.6762 58.1117 34.6154 58.184 34.5407 58.2393C34.4659 58.2946 34.3793 58.3314 34.2878 58.3468C34.1962 58.3622 34.1024 58.3557 34.0138 58.3279H32.4542V57.1917ZM35.0357 58.6525C35.1718 58.5424 35.2807 58.402 35.3537 58.2424C35.4268 58.0828 35.4621 57.9084 35.4568 57.7327C35.4428 57.3612 35.2831 57.0104 35.0128 56.7569C34.7424 56.5035 34.3832 56.368 34.0138 56.3801H32.0777C32.0199 56.378 31.9623 56.3877 31.9083 56.4085C31.8543 56.4293 31.805 56.4608 31.7633 56.5012C31.7217 56.5416 31.6886 56.5901 31.666 56.6436C31.6434 56.6972 31.6318 56.7548 31.6319 56.813V60.6544C31.6318 60.7125 31.6434 60.7701 31.666 60.8237C31.6886 60.8773 31.7217 60.9257 31.7633 60.9661C31.805 61.0065 31.8543 61.038 31.9083 61.0588C31.9623 61.0797 32.0199 61.0893 32.0777 61.0872H34.1752C34.3633 61.0945 34.5509 61.0635 34.7268 60.996C34.9027 60.9286 35.0633 60.8262 35.1989 60.6948C35.3345 60.5634 35.4423 60.4059 35.516 60.2316C35.5896 60.0573 35.6274 59.8699 35.6273 59.6805C35.6326 59.4709 35.5801 59.264 35.4757 59.0825C35.3713 58.9011 35.219 58.7523 35.0357 58.6525ZM38.908 59.1935L39.5533 57.7868L40.1449 59.1935H38.908ZM39.5533 56.326C39.4715 56.3304 39.3926 56.3581 39.3259 56.4061C39.2592 56.454 39.2075 56.5201 39.1769 56.5966L37.187 61.1413H38.1012L38.5853 60.0051H40.4676L40.9517 61.0872V61.1413H41.866L39.876 56.5966C39.8454 56.5201 39.7937 56.454 39.727 56.4061C39.6603 56.3581 39.5814 56.3304 39.4996 56.326M47.029 59.6805C46.8079 59.9361 46.5172 60.1208 46.1928 60.2118C45.8684 60.3028 45.5246 60.296 45.204 60.1923C44.8834 60.0886 44.6 59.8926 44.3891 59.6285C44.1781 59.3644 44.0488 59.0439 44.0172 58.7066C44.0171 58.4888 44.0605 58.2733 44.145 58.0727C44.2294 57.8722 44.3531 57.6908 44.5086 57.5393C44.6642 57.3879 44.8485 57.2695 45.0505 57.1912C45.2525 57.1129 45.4681 57.0762 45.6844 57.0835C45.9299 57.081 46.1728 57.1331 46.3959 57.2359C46.6191 57.3388 46.8169 57.49 46.9752 57.6786L47.029 57.7327L47.6744 57.1917L47.6206 57.1376C47.3853 56.8679 47.0959 56.6513 46.7715 56.5021C46.4471 56.3529 46.0949 56.2744 45.7382 56.2719C45.4115 56.2573 45.0852 56.3095 44.779 56.4253C44.4728 56.5411 44.1932 56.7181 43.9569 56.9456C43.7207 57.1732 43.5327 57.4465 43.4044 57.7492C43.2761 58.0519 43.2102 58.3776 43.2105 58.7066C43.2318 59.2267 43.4112 59.7277 43.7245 60.1419C44.0378 60.5562 44.47 60.8637 44.9626 61.023C45.4552 61.1823 45.9845 61.1856 46.4791 61.0326C46.9736 60.8796 47.4096 60.5776 47.7281 60.1674L47.7819 60.1133L47.1365 59.5723L47.029 59.6805ZM52.8374 59.6805C52.6163 59.9361 52.3256 60.1208 52.0012 60.2118C51.6768 60.3028 51.333 60.296 51.0124 60.1923C50.6918 60.0886 50.4084 59.8926 50.1975 59.6285C49.9865 59.3644 49.8572 59.0439 49.8256 58.7066C49.8255 58.4888 49.8689 58.2733 49.9534 58.0727C50.0378 57.8722 50.1615 57.6908 50.317 57.5393C50.4726 57.3879 50.6569 57.2695 50.8589 57.1912C51.0609 57.1129 51.2765 57.0762 51.4928 57.0835C51.7383 57.081 51.9812 57.1331 52.2043 57.2359C52.4275 57.3388 52.6253 57.49 52.7836 57.6786L52.8374 57.7327L53.4828 57.1917L53.429 57.1376C53.1937 56.8679 52.9043 56.6513 52.5799 56.5021C52.2555 56.3529 51.9033 56.2744 51.5466 56.2719C51.2199 56.2573 50.8936 56.3095 50.5874 56.4253C50.2812 56.5411 50.0016 56.7181 49.7653 56.9456C49.5291 57.1732 49.3411 57.4465 49.2128 57.7492C49.0845 58.0519 49.0186 58.3776 49.0189 58.7066C49.0402 59.2267 49.2196 59.7277 49.5329 60.1419C49.8462 60.5562 50.2784 60.8637 50.771 61.023C51.2636 61.1823 51.7929 61.1856 52.2875 61.0326C52.782 60.8796 53.218 60.5776 53.5365 60.1674L53.5903 60.1133L52.8912 59.6264L52.8374 59.6805ZM58.8609 58.7066C58.8609 59.1514 58.6853 59.578 58.3726 59.8926C58.0599 60.2071 57.6359 60.3838 57.1937 60.3838C56.7515 60.3838 56.3274 60.2071 56.0148 59.8926C55.7021 59.578 55.5265 59.1514 55.5265 58.7066C55.5194 58.498 55.5539 58.29 55.6277 58.0949C55.7016 57.8998 55.8135 57.7215 55.9567 57.5704C56.2789 57.2499 56.7137 57.0702 57.1668 57.0702C57.6199 57.0702 58.0547 57.2499 58.3769 57.5704C58.524 57.7197 58.6398 57.8972 58.7174 58.0924C58.795 58.2876 58.8328 58.4964 58.8286 58.7066H58.8609ZM57.1937 56.2719C56.8669 56.2573 56.5406 56.3095 56.2345 56.4253C55.9283 56.5411 55.6487 56.7181 55.4124 56.9456C55.1762 57.1732 54.9882 57.4465 54.8599 57.7492C54.7316 58.0519 54.6656 58.3776 54.666 58.7066C54.6445 59.2136 54.7743 59.7155 55.0387 60.1476C55.3031 60.5798 55.6899 60.9225 56.1495 61.1316C56.6091 61.3408 57.1204 61.4069 57.6176 61.3213C58.1148 61.2357 58.5752 61.0025 58.9395 60.6516C59.3039 60.3006 59.5555 59.8481 59.6621 59.3521C59.7686 58.8561 59.7253 58.3393 59.5375 57.8684C59.3498 57.3974 59.0262 56.9937 58.6086 56.7092C58.1909 56.4247 57.6981 56.2724 57.1937 56.2719Z" fill="black"/>
<path d="M27.6678 34.4686L40.7361 32.1963L31.7013 25.4874L27.6678 34.4686Z" fill="#0065A7"/>
<path d="M31.755 25.2707L40.7361 31.8172L47.0282 26.0281L31.755 25.2707Z" fill="#0678AC"/>
<path d="M47.2975 25.3786L51.3309 14.666L36.9719 17.5876L47.2975 25.3786Z" fill="#2EB56A"/>
<path d="M37.671 17.1547L52.0299 14.3413L41.8657 12.0149L37.671 17.1547Z" fill="#A5CE40"/>
<path d="M41.7582 11.6363L51.9762 14.071L52.8366 0.112183L41.7582 11.6363Z" fill="#F5E431"/>
<path d="M25.0323 23.1061L27.5062 34.2515L31.4858 25.2161L25.0323 23.1061Z" fill="#9072B3"/>
<path d="M36.3797 17.9665L25.3012 22.8899L31.3782 24.9459L36.3797 17.9665Z" fill="#9360A8"/>
<path d="M28.6355 13.0967L25.3012 22.4025L36.8637 17.425L28.6355 13.0967Z" fill="#DF599C"/>
<path d="M29.0659 12.8263L36.8639 12.2852L41.4351 11.7442L38.1546 6.06328L29.0659 12.8263Z" fill="#F89A29"/>
<path d="M38.2088 5.52257L41.5431 11.3117L52.5678 0.112183L38.2088 5.52257Z" fill="#FCBC1B"/>
<path d="M29.0659 13.0428L37.2941 17.1547L41.5427 12.0149L29.0659 13.0428Z" fill="#F16165"/>
<path d="M36.7027 17.9665L31.755 25.0541L47.0282 25.8656L36.7027 17.9665Z" fill="#1DA6BA"/>
</svg>
