<svg width="128" height="29" viewBox="0 0 128 29" fill="none" xmlns="http://www.w3.org/2000/svg">
<path fill-rule="evenodd" clip-rule="evenodd" d="M86.6549 1.72045C86.0719 2.95205 85.489 3.36258 84.1482 3.36258C82.4576 3.36258 82.3993 3.36258 83.4486 4.53553C84.3231 5.53254 84.3814 5.94308 83.7984 7.23333L83.0989 8.81681L84.6145 7.8198C85.9553 6.94009 86.1885 6.94009 87.5293 7.8198C88.9867 8.75816 88.9867 8.75816 88.6369 7.05738C88.3455 5.64984 88.5786 5.2393 89.9194 4.53553L91.4934 3.65582L89.8611 3.36258C88.6952 3.12799 88.054 2.60016 87.7625 1.60315L87.4127 0.136963L86.6549 1.72045Z" fill="black"/>
<path fill-rule="evenodd" clip-rule="evenodd" d="M74.4121 2.3654C74.4121 2.71728 70.3314 25.9417 70.0982 26.9387C69.865 27.8771 70.3314 27.9944 73.1879 27.9944H76.5107L78.4927 16.6754C79.5421 10.5174 80.5331 4.7113 80.708 3.77294C80.9412 2.18945 80.9412 2.18945 77.6766 2.18945C75.8695 2.18945 74.4121 2.2481 74.4121 2.3654Z" fill="black"/>
<path fill-rule="evenodd" clip-rule="evenodd" d="M8.53543 4.06619C5.56222 5.59103 3.87158 8.34747 3.87158 11.6317C3.87158 14.6228 5.62052 16.5581 9.75969 18.083C13.7823 19.5492 14.4236 20.2529 12.8495 21.3672C11.5086 22.3642 9.29331 21.8951 7.71926 20.3702C6.61159 19.3146 6.55329 19.3146 3.75498 20.7221C2.23923 21.4845 0.956665 22.4229 0.956665 22.7161C0.956665 23.0094 1.77284 24.1823 2.76391 25.2966C7.01968 30.1644 17.2219 29.1674 19.8453 23.5959C22.1772 18.7281 20.2534 15.0919 14.2487 12.746C10.6925 11.3385 9.93459 10.0482 12.2665 9.46177C13.7823 9.10989 16.1142 10.0483 16.1142 11.0453C16.1142 11.3385 17.4551 10.928 19.0291 10.1069C20.6615 9.28583 21.944 8.28882 21.944 7.87829C21.944 6.99857 19.3206 4.41808 17.4551 3.42107C15.4146 2.36542 11.3337 2.65865 8.53543 4.06619Z" fill="black"/>
<path fill-rule="evenodd" clip-rule="evenodd" d="M28.765 6.4128C27.0744 6.88199 26.3749 7.46847 25.9085 8.70007C25.5588 9.75572 24.9175 10.4008 24.218 10.4008C23.1104 10.4008 22.7023 11.3979 22.4108 14.7994C22.2942 16.1483 22.4691 16.5588 23.2269 16.5002C24.1014 16.4415 24.218 16.9107 23.8682 20.8988C23.5767 25.1214 23.635 25.4146 25.0341 26.7635C26.2 27.8192 27.191 28.1124 29.5228 28.1124C31.1551 28.1124 32.5542 28.0538 32.6708 27.9365C32.7874 27.8192 33.0789 26.4703 33.2537 24.8868C33.6618 22.2477 33.6035 22.1304 32.2627 22.1304C30.5722 22.1304 30.1641 21.3679 30.5139 18.7288C30.8053 17.1453 31.0385 16.8521 32.4959 16.8521C34.4197 16.8521 34.6528 16.5588 35.2941 13.0986L35.7604 10.4008H34.0699C32.3793 10.4008 32.321 10.3422 32.5542 8.05494C32.7874 5.47444 32.6125 5.41579 28.765 6.4128Z" fill="black"/>
<path fill-rule="evenodd" clip-rule="evenodd" d="M40.8329 10.9283C35.8193 13.9779 33.8371 21.3089 36.8103 25.8834C38.5593 28.5225 42.1738 29.285 45.2636 27.7015C46.2546 27.1736 47.0125 27.0564 47.0125 27.4082C47.0125 27.7601 48.4117 27.9947 50.2189 27.9947C51.9679 27.9947 53.4253 27.8188 53.4253 27.5255C53.4253 27.2909 54.0666 23.4202 54.8828 18.963C55.6989 14.4471 56.3402 10.6937 56.3402 10.5764C56.3402 10.0485 49.9857 10.5177 49.8108 11.0456C49.6942 11.3974 48.9946 11.3388 47.887 10.7523C45.5551 9.52072 43.0482 9.57936 40.8329 10.9283ZM47.0708 16.2652C47.7704 16.6757 48.1785 17.4968 48.1785 18.4938C48.1785 21.8367 45.0304 23.6548 42.9316 21.5435C41.5325 20.1359 41.7657 18.3179 43.6312 16.6757C44.9721 15.5028 45.4968 15.4441 47.0708 16.2652Z" fill="black"/>
<path fill-rule="evenodd" clip-rule="evenodd" d="M67.8244 10.9274C66.1338 11.8071 65.6674 11.8658 65.6674 11.2206C65.6674 10.6342 64.793 10.3996 62.4612 10.3996C59.6047 10.3996 59.2549 10.5755 58.9635 11.6898C58.4388 14.329 56.3402 26.5277 56.3402 27.2315C56.3402 27.7593 57.3312 27.9939 59.4881 27.9939H62.6361L63.3356 24.1818C64.1518 19.7832 65.5508 17.6719 67.9993 17.1441C68.932 16.9095 69.8647 16.5576 69.9813 16.3816C70.506 15.4433 70.9723 9.81311 70.506 9.81311C70.2145 9.81311 69.0486 10.3409 67.8244 10.9274Z" fill="black"/>
<path fill-rule="evenodd" clip-rule="evenodd" d="M99.9466 10.6342C99.0138 11.1034 98.3143 11.2207 98.3143 10.9275C98.3143 10.5756 96.9152 10.3996 94.9915 10.5169L91.6686 10.6929L90.3278 18.3171C88.5207 28.6977 88.4041 27.9939 92.0767 27.9939H95.1663L96.1574 22.9502C97.2067 17.3787 97.9062 16.1471 99.7134 16.3817C100.763 16.5576 100.938 16.9682 100.938 19.1968C100.938 20.663 100.704 23.2435 100.413 24.8856L99.9466 27.9939H103.153H106.359L107 24.2991C107.35 22.3051 107.816 19.0208 108.05 17.0268C108.399 13.5666 108.341 13.332 106.592 11.6312C104.61 9.57857 102.512 9.28532 99.9466 10.6342Z" fill="black"/>
<path fill-rule="evenodd" clip-rule="evenodd" d="M116.096 10.6348C112.248 12.3942 109.8 16.1476 109.742 20.4876C109.683 23.7132 111.083 26.0004 114.114 27.5839C116.504 28.8742 122.042 28.6396 124.316 27.1148L125.831 26.1177L123.966 24.1824C122.275 22.4816 121.984 22.3056 120.468 22.8921C119.186 23.3613 118.428 23.3613 117.145 22.6575C115.63 21.8951 115.863 21.8365 121.459 21.6605L127.405 21.4846L127.813 19.4906C127.988 18.3763 127.988 16.5582 127.813 15.5025C126.997 10.9867 120.934 8.46481 116.096 10.6348ZM121.517 15.7958C122.742 17.0274 122.275 17.4379 119.594 17.4379C116.854 17.4379 116.213 16.7341 118.02 15.7371C119.36 14.9161 120.643 14.916 121.517 15.7958Z" fill="black"/>
<path fill-rule="evenodd" clip-rule="evenodd" d="M82.283 11.1037C81.875 12.3939 79.6597 25.531 79.6597 26.8212C79.6597 27.8769 80.0095 27.9942 82.7494 27.9942H85.8973L87.1798 20.1941C87.8794 15.9714 88.6372 11.9834 88.7538 11.3969C89.0453 10.5172 88.6372 10.3999 85.7808 10.3999C83.6821 10.3999 82.4579 10.6345 82.283 11.1037Z" fill="black"/>
</svg>
